<svg xmlns="http://www.w3.org/2000/svg" width="551.382" height="689.269" viewBox="0 0 145.887 182.369"><defs><marker id="i" markerHeight="1" markerWidth="1" orient="auto-start-reverse" preserveAspectRatio="xMidYMid" refX="0" refY="0" style="overflow:visible" viewBox="0 0 1 1"><path d="M-.211-4.106 6.21-.894a1 1 90 0 1 0 1.788L-.21 4.106A1.236 1.236 31.717 0 1-2 3v-6A1.236 1.236 148.283 0 1-.211-4.106" style="fill:context-stroke;fill-rule:evenodd;stroke:none" transform="scale(0.7)"/></marker><marker id="j" markerHeight="1" markerWidth="1" orient="auto-start-reverse" preserveAspectRatio="xMidYMid" refX="0" refY="0" style="overflow:visible" viewBox="0 0 1 1"><path d="M-.211-4.106 6.21-.894a1 1 90 0 1 0 1.788L-.21 4.106A1.236 1.236 31.717 0 1-2 3v-6A1.236 1.236 148.283 0 1-.211-4.106" style="fill:context-stroke;fill-rule:evenodd;stroke:none" transform="scale(0.7)"/></marker><marker id="k" markerHeight="1" markerWidth="1" orient="auto-start-reverse" preserveAspectRatio="xMidYMid" refX="0" refY="0" style="overflow:visible" viewBox="0 0 1 1"><path d="M-.211-4.106 6.21-.894a1 1 90 0 1 0 1.788L-.21 4.106A1.236 1.236 31.717 0 1-2 3v-6A1.236 1.236 148.283 0 1-.211-4.106" style="fill:context-stroke;fill-rule:evenodd;stroke:none" transform="scale(0.7)"/></marker><marker id="l" markerHeight="1" markerWidth="1" orient="auto-start-reverse" preserveAspectRatio="xMidYMid" refX="0" refY="0" style="overflow:visible" viewBox="0 0 1 1"><path d="M-.211-4.106 6.21-.894a1 1 90 0 1 0 1.788L-.21 4.106A1.236 1.236 31.717 0 1-2 3v-6A1.236 1.236 148.283 0 1-.211-4.106" style="fill:context-stroke;fill-rule:evenodd;stroke:none" transform="scale(0.7)"/></marker><marker id="m" markerHeight="1" markerWidth="1" orient="auto-start-reverse" preserveAspectRatio="xMidYMid" refX="0" refY="0" style="overflow:visible" viewBox="0 0 1 1"><path d="M-.211-4.106 6.21-.894a1 1 90 0 1 0 1.788L-.21 4.106A1.236 1.236 31.717 0 1-2 3v-6A1.236 1.236 148.283 0 1-.211-4.106" style="fill:context-stroke;fill-rule:evenodd;stroke:none" transform="scale(0.7)"/></marker><marker id="n" markerHeight="1" markerWidth="1" orient="auto-start-reverse" preserveAspectRatio="xMidYMid" refX="0" refY="0" style="overflow:visible" viewBox="0 0 1 1"><path d="M-.211-4.106 6.21-.894a1 1 90 0 1 0 1.788L-.21 4.106A1.236 1.236 31.717 0 1-2 3v-6A1.236 1.236 148.283 0 1-.211-4.106" style="fill:context-stroke;fill-rule:evenodd;stroke:none" transform="scale(0.7)"/></marker><marker id="o" markerHeight="1" markerWidth="1" orient="auto-start-reverse" preserveAspectRatio="xMidYMid" refX="0" refY="0" style="overflow:visible" viewBox="0 0 1 1"><path d="M-.211-4.106 6.21-.894a1 1 90 0 1 0 1.788L-.21 4.106A1.236 1.236 31.717 0 1-2 3v-6A1.236 1.236 148.283 0 1-.211-4.106" style="fill:context-stroke;fill-rule:evenodd;stroke:none" transform="scale(0.7)"/></marker><marker id="p" markerHeight="1" markerWidth="1" orient="auto-start-reverse" preserveAspectRatio="xMidYMid" refX="0" refY="0" style="overflow:visible" viewBox="0 0 1 1"><path d="M-.211-4.106 6.21-.894a1 1 90 0 1 0 1.788L-.21 4.106A1.236 1.236 31.717 0 1-2 3v-6A1.236 1.236 148.283 0 1-.211-4.106" style="fill:context-stroke;fill-rule:evenodd;stroke:none" transform="scale(0.7)"/></marker><marker id="s" markerHeight="1" markerWidth="1" orient="auto-start-reverse" preserveAspectRatio="xMidYMid" refX="0" refY="0" style="overflow:visible" viewBox="0 0 1 1"><path d="M-.211-4.106 6.21-.894a1 1 90 0 1 0 1.788L-.21 4.106A1.236 1.236 31.717 0 1-2 3v-6A1.236 1.236 148.283 0 1-.211-4.106" style="fill:context-stroke;fill-rule:evenodd;stroke:none" transform="scale(0.7)"/></marker><marker id="t" markerHeight="1" markerWidth="1" orient="auto-start-reverse" preserveAspectRatio="xMidYMid" refX="0" refY="0" style="overflow:visible" viewBox="0 0 1 1"><path d="M-.211-4.106 6.21-.894a1 1 90 0 1 0 1.788L-.21 4.106A1.236 1.236 31.717 0 1-2 3v-6A1.236 1.236 148.283 0 1-.211-4.106" style="fill:context-stroke;fill-rule:evenodd;stroke:none" transform="scale(0.7)"/></marker><marker id="u" markerHeight="1" markerWidth="1" orient="auto-start-reverse" preserveAspectRatio="xMidYMid" refX="0" refY="0" style="overflow:visible" viewBox="0 0 1 1"><path d="M-.211-4.106 6.21-.894a1 1 90 0 1 0 1.788L-.21 4.106A1.236 1.236 31.717 0 1-2 3v-6A1.236 1.236 148.283 0 1-.211-4.106" style="fill:context-stroke;fill-rule:evenodd;stroke:none" transform="scale(0.7)"/></marker><marker id="v" markerHeight="1" markerWidth="1" orient="auto-start-reverse" preserveAspectRatio="xMidYMid" refX="0" refY="0" style="overflow:visible" viewBox="0 0 1 1"><path d="M-.211-4.106 6.21-.894a1 1 90 0 1 0 1.788L-.21 4.106A1.236 1.236 31.717 0 1-2 3v-6A1.236 1.236 148.283 0 1-.211-4.106" style="fill:context-stroke;fill-rule:evenodd;stroke:none" transform="scale(0.7)"/></marker><marker id="x" markerHeight="1" markerWidth="1" orient="auto-start-reverse" preserveAspectRatio="xMidYMid" refX="0" refY="0" style="overflow:visible" viewBox="0 0 1 1"><path d="M-.211-4.106 6.21-.894a1 1 90 0 1 0 1.788L-.21 4.106A1.236 1.236 31.717 0 1-2 3v-6A1.236 1.236 148.283 0 1-.211-4.106" style="fill:context-stroke;fill-rule:evenodd;stroke:none" transform="scale(0.7)"/></marker><marker id="z" markerHeight="1" markerWidth="1" orient="auto-start-reverse" preserveAspectRatio="xMidYMid" refX="0" refY="0" style="overflow:visible" viewBox="0 0 1 1"><path d="M-.211-4.106 6.21-.894a1 1 90 0 1 0 1.788L-.21 4.106A1.236 1.236 31.717 0 1-2 3v-6A1.236 1.236 148.283 0 1-.211-4.106" style="fill:context-stroke;fill-rule:evenodd;stroke:none" transform="scale(0.7)"/></marker><marker id="B" markerHeight="1" markerWidth="1" orient="auto-start-reverse" preserveAspectRatio="xMidYMid" refX="0" refY="0" style="overflow:visible" viewBox="0 0 1 1"><path d="M-.211-4.106 6.21-.894a1 1 90 0 1 0 1.788L-.21 4.106A1.236 1.236 31.717 0 1-2 3v-6A1.236 1.236 148.283 0 1-.211-4.106" style="fill:context-stroke;fill-rule:evenodd;stroke:none" transform="scale(0.7)"/></marker><path id="y" d="M156.301 1264.523h49.267v21.099h-49.267z"/><path id="w" d="M54.855 1318.21h111.518v37.987H54.855z"/><path id="a" d="M95.684 1014.298h138.497v46.863H95.684z"/><path id="b" d="M182.76 1105.717h181.951v36.314H182.76z"/><path id="c" d="M366.507 1070.714h138.637v34.936H366.507z"/><path id="d" d="M441.651 1017.628h113.588v44.326H441.651z"/><path id="e" d="M339.166 1122.708h173.913v53.623H339.166z"/><path id="f" d="M404.022 431.123h135.339v40.229H404.022z"/><path id="g" d="M402.158 361.595H532.94v44.159H402.158z"/><path id="h" d="M422.662 515.803h101.739v36.063H422.662z"/><path id="q" d="M443.269 400.645h108.686v33.052H443.269z"/><path id="r" d="M390.711 567.375h163.901v53.717H390.711z"/><path id="A" d="M339.166 1122.708h173.913v53.623H339.166z"/></defs><g transform="translate(-8.8735905,-270.99173)"><path d="M9.138 271.256h145.357v181.84H9.138z" style="opacity:1;fill:#fff;fill-opacity:1;stroke:#fff;stroke-width:.529167;stroke-linejoin:bevel;stroke-opacity:1"/><path d="M-127.323 318.571h2.435v.718h-2.435z" style="fill:green;stroke:none;stroke-width:.264696" transform="matrix(0.78105852,-0.62445784,0.59177222,0.80610523,0,0)"/><path d="M-249.284 223.883h2.435v.718h-2.435z" style="fill:green;stroke:none;stroke-width:.264696" transform="matrix(-0.78105852,-0.62445784,-0.59177222,0.80610523,0,0)"/><path d="M414.249 52.413h29.679v1.323h-29.679z" style="fill:#08a;stroke:#08a;stroke-width:.264583" transform="matrix(0,1,1,0,0,0)"/><path d="M52.413-443.928h3.824v1.323h-3.824z" style="fill:#08a;stroke:#08a;stroke-width:.264582" transform="scale(1,-1)"/><path d="M414.249-98.782h29.679v1.323h-29.679z" style="fill:#08a;stroke:#08a;stroke-width:.264583" transform="rotate(90)"/><path d="M-98.782-443.928h3.824v1.323h-3.824z" style="fill:#08a;stroke:#08a;stroke-width:.264582" transform="scale(-1)"/><path d="M328.253 138.854h65.535v1.323h-65.535z" style="fill:#08a;stroke:#08a;stroke-width:.264583" transform="matrix(-0.21153104,0.97737128,0.97737128,0.21153104,0,0)"/><path d="M360.236-8.92h65.535v1.323h-65.535z" style="fill:#08a;stroke:#08a;stroke-width:.264583" transform="rotate(77.78791)"/><path d="M344.458 69.818h69.886v1.323h-69.886z" style="fill:green;stroke:green;stroke-width:.264583" transform="matrix(0,1,1,0,0,0)"/><path d="M-72.728 413.021h2.91v1.323h-2.91z" style="fill:green;stroke:green;stroke-width:.264583" transform="scale(-1,1)"/><path d="M344.458-81.459h69.886v1.323h-69.886z" style="fill:green;stroke:green;stroke-width:.264583" transform="rotate(90)"/><path d="M78.549 413.021h2.91v1.323h-2.91z" style="fill:green;stroke:green;stroke-width:.264583"/><path d="M-72.728 344.458h2.91v1.323h-2.91z" style="fill:green;stroke:green;stroke-width:.264583" transform="scale(-1,1)"/><path d="M78.549 344.458h2.91v1.323h-2.91z" style="fill:green;stroke:green;stroke-width:.264583"/><path d="M-72.728 415.137h2.91v1.323h-2.91z" style="fill:green;stroke:green;stroke-width:.264583" transform="scale(-1,1)"/><path d="M78.549 415.137h2.91v1.323h-2.91z" style="fill:green;stroke:green;stroke-width:.264583"/><path d="M-67.846 418.839h8.057v1.323h-8.057z" style="fill:green;stroke:green;stroke-width:.264584" transform="scale(-1,1)"/><path d="M83.432 418.839h8.057v1.323h-8.057z" style="fill:green;stroke:green;stroke-width:.264584"/><path d="M-63.817 423.336h4.028v1.323h-4.028zM-91.489 423.336h4.028v1.323h-4.028z" style="fill:green;stroke:green;stroke-width:.264584" transform="scale(-1,1)"/><path d="M420.294 63.817h4.498v1.323h-4.498zM420.294 86.137h4.498v1.323h-4.498z" style="fill:#5fd35f;stroke:none;stroke-width:.264584" transform="matrix(0,1,1,0,0,0)"/><path d="m69.818 415.137-1.972 3.702v1.323h.966l2.006-3.57zM81.46 415.137l1.972 3.702v1.323h-.966l-2.006-3.57z" style="fill:green;fill-opacity:1;stroke:green;stroke-width:.264583;stroke-linecap:butt;stroke-linejoin:bevel;stroke-opacity:1"/><path d="M421.34 65.802h3.32v4.028h-3.32z" style="fill:#7f2aff;fill-opacity:1;stroke:#7f2aff;stroke-width:.264584" transform="matrix(0,1,1,0,0,0)"/><path d="M421.34 69.83h3.32v1.323h-3.32zM421.34 64.479h3.32v1.323h-3.32z" style="fill:#e5d5ff;fill-opacity:1;stroke:#e5d5ff;stroke-width:.264584;stroke-opacity:1" transform="matrix(0,1,1,0,0,0)"/><path d="M421.34 81.58h3.32v4.028h-3.32z" style="fill:#7f2aff;fill-opacity:1;stroke:#7f2aff;stroke-width:.264584" transform="matrix(0,1,1,0,0,0)"/><path d="M421.34 85.608h3.32v1.323h-3.32zM421.34 80.257h3.32v1.323h-3.32z" style="fill:#e5d5ff;fill-opacity:1;stroke:#e5d5ff;stroke-width:.264584;stroke-opacity:1" transform="matrix(0,1,1,0,0,0)"/><path d="M424.924 67.523h3.32v.585h-3.32zM424.924 83.301h3.32v.585h-3.32z" style="fill:#7f2aff;fill-opacity:1;stroke:#7f2aff;stroke-width:.264584" transform="matrix(0,1,1,0,0,0)"/><path d="M428.508 65.008h3.32v5.615h-3.32z" style="fill:#b380ff;fill-opacity:1;stroke:#e6e6e6;stroke-width:.264585" transform="matrix(0,1,1,0,0,0)"/><path d="M431.828 67.523h1.607v.585h-1.607z" style="fill:#95f;fill-opacity:1;stroke:#95f;stroke-width:.264584" transform="matrix(0,1,1,0,0,0)"/><path d="M433.699 65.008h3.32v5.615h-3.32z" style="fill:#b380ff;fill-opacity:1;stroke:#caf;stroke-width:.264585" transform="matrix(0,1,1,0,0,0)"/><path d="M428.508 80.786h3.32v5.615h-3.32z" style="fill:#b380ff;fill-opacity:1;stroke:#e6e6e6;stroke-width:.264585" transform="matrix(0,1,1,0,0,0)"/><path d="M431.828 83.301h1.607v.585h-1.607z" style="fill:#95f;fill-opacity:1;stroke:#95f;stroke-width:.264584" transform="matrix(0,1,1,0,0,0)"/><path d="M433.699 80.786h3.32v5.615h-3.32z" style="fill:#b380ff;fill-opacity:1;stroke:#caf;stroke-width:.264585" transform="matrix(0,1,1,0,0,0)"/><path d="M53.736-427.834h9.979v1.323h-9.979z" style="fill:#00aad4;stroke:#00aad4;stroke-width:.264582" transform="scale(1,-1)"/><path d="M60.034-426.511h3.397v1.852h-3.397z" style="fill:#87cdde;stroke:none;stroke-width:.264582" transform="scale(1,-1)"/><path d="M419.142-59.656h5.214v1.852h-5.214z" style="fill:#87cdde;stroke:none;stroke-width:.264582" transform="rotate(90)"/><path d="M60.078-418.706h3.397v1.852h-3.397z" style="fill:#87cdde;stroke:none;stroke-width:.264582" transform="scale(1,-1)"/><path d="M-426.379-57.69h9.979v1.323h-9.979z" style="fill:#00aad4;stroke:#00aad4;stroke-width:.264582" transform="matrix(0,-1,-1,0,0,0)"/><path d="M56.367-417.062h7.267v1.323h-7.267z" style="fill:#00aad4;stroke:#00aad4;stroke-width:.264582" transform="scale(1,-1)"/><path d="M-97.541-427.834h9.979v1.323h-9.979z" style="fill:#00aad4;stroke:#00aad4;stroke-width:.264582" transform="scale(-1)"/><path d="M-91.226-426.511h3.38v1.852h-3.38z" style="fill:#87cdde;stroke:none;stroke-width:.264582" transform="scale(-1)"/><path d="M419.142 91.621h5.214v1.852h-5.214z" style="fill:#87cdde;stroke:none;stroke-width:.264582" transform="matrix(0,1,1,0,0,0)"/><path d="M-91.182-418.706h3.38v1.852h-3.38z" style="fill:#87cdde;stroke:none;stroke-width:.264582" transform="scale(-1)"/><path d="M-426.379 93.588h9.979v1.323h-9.979z" style="fill:#00aad4;stroke:#00aad4;stroke-width:.264582" transform="rotate(-90)"/><path d="M-94.911-417.062h7.267v1.323h-7.267z" style="fill:#00aad4;stroke:#00aad4;stroke-width:.264582" transform="scale(-1)"/><path d="M418.839 59.789h5.821v4.028h-5.821z" style="fill:green;fill-opacity:1;stroke:green;stroke-width:.264584" transform="matrix(0,1,1,0,0,0)"/><path d="M419.71 60.506h4.077v2.595h-4.077z" style="fill:#fff;stroke:green;stroke-width:.264584" transform="matrix(0,1,1,0,0,0)"/><path d="M418.839 87.46h5.821v4.028h-5.821z" style="fill:green;stroke:green;stroke-width:.264584" transform="matrix(0,1,1,0,0,0)"/><path d="M419.71 88.177h4.077v2.595h-4.077z" style="fill:#fff;stroke:green;stroke-width:.264584" transform="matrix(0,1,1,0,0,0)"/><path d="m53.736 427.834 2.825.133-2.693 2.933-.132-3.066M97.541 427.834l-2.825.133 2.693 2.933.132-3.066" style="fill:#00aad4;fill-opacity:1;stroke:#00aad4;stroke-width:.264583px;stroke-linecap:butt;stroke-linejoin:miter;stroke-opacity:1"/><path d="M358.36-69.629h5.214v1.852h-5.214z" style="fill:#87cdde;stroke:none;stroke-width:.264582" transform="rotate(90)"/><path d="m67.675 357.84.02 6.093H64.83l1.477-6.386h1.267z" style="fill:#00aad4;fill-opacity:1;stroke:#00aad4;stroke-width:.264583px;stroke-linecap:butt;stroke-linejoin:miter;stroke-opacity:1"/><path d="M358.122 81.648h5.214V83.5h-5.214z" style="fill:#87cdde;stroke:none;stroke-width:.264582" transform="matrix(0,1,1,0,0,0)"/><path d="m83.602 357.601-.02 6.094h2.867l-1.478-6.386h-1.266z" style="fill:#00aad4;fill-opacity:1;stroke:#00aad4;stroke-width:.264583px;stroke-linecap:butt;stroke-linejoin:miter;stroke-opacity:1"/><path d="M-72.861 342.248h10.005v1.549h-10.005zM-88.421 342.248h10.005v1.549h-10.005z" style="fill:green;stroke:none;stroke-width:.264584" transform="scale(-1,1)"/><path d="M-347.25-62.856h10.005v1.549h-10.005zM-347.25-89.97h10.005v1.549h-10.005z" style="fill:green;stroke:none;stroke-width:.264584" transform="matrix(0,-1,-1,0,0,0)"/><path d="M-228.33-257.201h19.722v1.549h-19.722z" style="fill:green;stroke:none;stroke-width:.264583" transform="matrix(0.61466975,-0.78878457,-0.78878457,-0.61466975,0,0)"/><path d="M-321.316-137.876h19.722v1.549h-19.722z" style="fill:green;stroke:none;stroke-width:.264583" transform="rotate(-127.92793)"/><text xml:space="preserve" style="font-size:14.6667px;line-height:1.25;font-family:sans-serif;white-space:pre;shape-inside:url(#a);display:inline" transform="matrix(0.26458333,0,0,0.26458333,78.525389,127.48646)"><tspan x="95.684" y="1027.275">pole-static</tspan></text><text xml:space="preserve" style="font-size:14.6667px;line-height:1.25;font-family:sans-serif;white-space:pre;shape-inside:url(#b);display:inline" transform="matrix(0.26458333,0,0,0.26458333,50.814639,85.084428)"><tspan x="182.76" y="1118.693">pole-rotor</tspan></text><text xml:space="preserve" style="font-size:14.6667px;line-height:1.25;font-family:sans-serif;white-space:pre;shape-inside:url(#c);display:inline" transform="matrix(0.26458333,0,0,0.26458333,-51.925528,106.39905)"><tspan x="366.508" y="1083.689">ring</tspan></text><text xml:space="preserve" style="font-size:14.6667px;line-height:1.25;font-family:sans-serif;white-space:pre;shape-inside:url(#d);display:inline" transform="matrix(0.26458333,0,0,0.26458333,-82.595956,139.12987)"><tspan x="441.65" y="1030.605">bearing</tspan></text><text xml:space="preserve" style="font-size:14.6667px;line-height:1.25;font-family:sans-serif;white-space:pre;shape-inside:url(#e);display:inline" transform="matrix(0.26458333,0,0,0.26458333,-19.886501,147.98673)"><tspan x="339.166" y="1135.684">motors</tspan></text><text xml:space="preserve" style="font-size:14.6667px;line-height:1.25;font-family:sans-serif;white-space:pre;shape-inside:url(#f);display:inline" transform="matrix(0.26458333,0,0,0.26458333,-7.8711058,230.25256)"><tspan x="404.021" y="444.1">rake</tspan></text><text xml:space="preserve" style="font-size:14.6667px;line-height:1.25;font-family:sans-serif;white-space:pre;shape-inside:url(#g);display:inline" transform="matrix(0.26458333,0,0,0.26458333,-55.867253,204.93612)"><tspan x="402.158" y="374.572">swing</tspan></text><text xml:space="preserve" style="font-size:14.6667px;line-height:1.25;font-family:sans-serif;white-space:pre;shape-inside:url(#h);display:inline" transform="matrix(0.26458333,0,0,0.26458333,13.661457,174.55145)"><tspan x="422.662" y="528.779">rod</tspan></text><path d="m66.152 302.107-3.788 1.733" style="fill:none;stroke:#000;stroke-width:.264583px;stroke-linecap:butt;stroke-linejoin:miter;stroke-opacity:1;marker-start:url(#i)"/><path d="m92.278 338.894 7.35 5.405" style="fill:none;stroke:#000;stroke-width:.264583px;stroke-linecap:butt;stroke-linejoin:miter;stroke-opacity:1;marker-start:url(#j)"/><path d="m83.633 374.907 14.925 5.404" style="fill:none;stroke:#000;stroke-width:.264583px;stroke-linecap:butt;stroke-linejoin:miter;stroke-opacity:1;marker-start:url(#k)"/><path d="m99.396 407.912 10.086-8.005" style="fill:none;stroke:#000;stroke-width:.264583px;stroke-linecap:butt;stroke-linejoin:miter;stroke-opacity:1;marker-start:url(#l)"/><path d="m71.076 438.648 4.113 6.819" style="fill:none;stroke:#000;stroke-width:.264583px;stroke-linecap:butt;stroke-linejoin:miter;stroke-opacity:1;marker-start:url(#m)"/><path d="m81.532 438.682-4.113 6.82" style="fill:none;stroke:#000;stroke-width:.264583px;stroke-linecap:butt;stroke-linejoin:miter;stroke-opacity:1;marker-start:url(#n)"/><path d="m57.06 420.313-10.665-6.819" style="fill:none;stroke:#000;stroke-width:.264582px;stroke-linecap:butt;stroke-linejoin:miter;stroke-opacity:1;marker-start:url(#o)"/><path d="M67.467 416.101 50.07 394.853" style="fill:none;stroke:#000;stroke-width:.264583px;stroke-linecap:butt;stroke-linejoin:miter;stroke-opacity:1;marker-start:url(#p)"/><circle cx="75.594" cy="329.854" r="4.718" style="opacity:1;fill:green;fill-opacity:1;stroke:none;stroke-width:.264583;stroke-linejoin:bevel;stroke-opacity:1"/><circle cx="75.594" cy="329.854" r="3.124" style="fill:#d7f4d7;fill-opacity:1;stroke:none;stroke-width:.264583;stroke-linejoin:bevel;stroke-opacity:1"/><circle cx="75.594" cy="302.337" r="4.718" style="fill:green;fill-opacity:1;stroke:none;stroke-width:.264583;stroke-linejoin:bevel;stroke-opacity:1"/><circle cx="75.594" cy="302.337" r="3.124" style="fill:#7f2aff;fill-opacity:1;stroke:none;stroke-width:.264583;stroke-linejoin:bevel;stroke-opacity:1"/><path d="M-326.73-77.621h21.269v4.053h-21.269z" style="opacity:.8;fill:green;stroke:none;stroke-width:.264582" transform="matrix(0,-1,-1,0,0,0)"/><path d="M-132.266 297.424h113.345v2.303h-113.345z" style="fill:#7f2aff;stroke:none;stroke-width:.264582" transform="scale(-1,1)"/><path d="M-297.424-21.204h5.414v2.291h-5.414z" style="fill:#7f2aff;stroke:none;stroke-width:.264582" transform="matrix(0,-1,-1,0,0,0)"/><path d="M17.366-292.01h5.385v.915h-5.385z" style="fill:#7f2aff;stroke:none;stroke-width:.264582" transform="scale(1,-1)"/><path d="M-297.424-39.716h5.414v2.291h-5.414z" style="fill:#7f2aff;stroke:none;stroke-width:.264582" transform="matrix(0,-1,-1,0,0,0)"/><path d="M35.878-292.01h5.385v.915h-5.385z" style="fill:#7f2aff;stroke:none;stroke-width:.264582" transform="scale(1,-1)"/><path d="M-297.424-58.227h5.414v2.291h-5.414z" style="fill:#7f2aff;stroke:none;stroke-width:.264582" transform="matrix(0,-1,-1,0,0,0)"/><path d="M54.39-292.01h5.385v.915H54.39z" style="fill:#7f2aff;stroke:none;stroke-width:.264582" transform="scale(1,-1)"/><path d="M-297.424-76.739h5.414v2.291h-5.414z" style="fill:#7f2aff;stroke:none;stroke-width:.264582" transform="matrix(0,-1,-1,0,0,0)"/><path d="M72.901-292.01h5.385v.915h-5.385z" style="fill:#7f2aff;stroke:none;stroke-width:.264582" transform="scale(1,-1)"/><path d="M-297.424-95.251h5.414v2.291h-5.414z" style="fill:#7f2aff;stroke:none;stroke-width:.264582" transform="matrix(0,-1,-1,0,0,0)"/><path d="M91.413-292.01h5.385v.915h-5.385z" style="fill:#7f2aff;stroke:none;stroke-width:.264582" transform="scale(1,-1)"/><path d="M-297.424-113.763h5.414v2.291h-5.414z" style="fill:#7f2aff;stroke:none;stroke-width:.264582" transform="matrix(0,-1,-1,0,0,0)"/><path d="M109.925-292.01h5.385v.915h-5.385z" style="fill:#7f2aff;stroke:none;stroke-width:.264582" transform="scale(1,-1)"/><path d="M-297.424-132.275h5.414v2.291h-5.414z" style="fill:#7f2aff;stroke:none;stroke-width:.264582" transform="matrix(0,-1,-1,0,0,0)"/><path d="M128.437-292.01h5.385v.915h-5.385zM17.366-291.094h5.385v.915h-5.385z" style="fill:#7f2aff;stroke:none;stroke-width:.264582" transform="scale(1,-1)"/><path d="M11.647-288.062h16.822v.915H11.647z" style="fill:#7f2aff;stroke:none;stroke-width:.264581" transform="scale(1,-1)"/><path d="M11.647 287.147v.915l5.719 2.117v.915h5.385v-.915l5.718-2.117v-.915z" style="fill:#6f7c91;stroke:none;stroke-width:.264583px;stroke-linecap:butt;stroke-linejoin:miter;stroke-opacity:1"/><path d="M13.245 287.838h13.24l-5.345 2.06H18.69z" style="fill:#fff;stroke:none;stroke-width:.264583px;stroke-linecap:butt;stroke-linejoin:miter;stroke-opacity:1"/><path d="M11.647-287.147h16.822v.915H11.647z" style="fill:#59f;stroke:none;stroke-width:.264581" transform="scale(1,-1)"/><path d="M30.16 287.147v.915l5.718 2.117v.915h5.385v-.915l5.718-2.117v-.915z" style="fill:#6f7c91;stroke:none;stroke-width:.264583px;stroke-linecap:butt;stroke-linejoin:miter;stroke-opacity:1"/><path d="M31.757 287.838h13.24l-5.345 2.06h-2.449z" style="fill:#fff;stroke:none;stroke-width:.264583px;stroke-linecap:butt;stroke-linejoin:miter;stroke-opacity:1"/><path d="M30.159-287.147h16.822v.915H30.159z" style="fill:#59f;stroke:none;stroke-width:.264581" transform="scale(1,-1)"/><path d="M48.67 287.147v.915l5.72 2.117v.915h5.384v-.915l5.72-2.117v-.915z" style="fill:#6f7c91;stroke:none;stroke-width:.264583px;stroke-linecap:butt;stroke-linejoin:miter;stroke-opacity:1"/><path d="M50.269 287.838h13.24l-5.346 2.06h-2.448z" style="fill:#fff;stroke:none;stroke-width:.264583px;stroke-linecap:butt;stroke-linejoin:miter;stroke-opacity:1"/><path d="M48.671-287.147h16.822v.915H48.671z" style="fill:#59f;stroke:none;stroke-width:.264581" transform="scale(1,-1)"/><path d="M67.183 287.147v.915l5.718 2.117v.915h5.385v-.915l5.719-2.117v-.915z" style="fill:#6f7c91;stroke:none;stroke-width:.264583px;stroke-linecap:butt;stroke-linejoin:miter;stroke-opacity:1"/><path d="M68.78 287.838h13.24l-5.345 2.06h-2.448z" style="fill:#fff;stroke:none;stroke-width:.264583px;stroke-linecap:butt;stroke-linejoin:miter;stroke-opacity:1"/><path d="M67.183-287.147h16.822v.915H67.183z" style="fill:#59f;stroke:none;stroke-width:.264581" transform="scale(1,-1)"/><path d="M85.695 287.147v.915l5.718 2.117v.915h5.385v-.915l5.719-2.117v-.915z" style="fill:#6f7c91;stroke:none;stroke-width:.264583px;stroke-linecap:butt;stroke-linejoin:miter;stroke-opacity:1"/><path d="M87.292 287.838h13.24l-5.345 2.06h-2.449z" style="fill:#fff;stroke:none;stroke-width:.264583px;stroke-linecap:butt;stroke-linejoin:miter;stroke-opacity:1"/><path d="M85.695-287.147h16.822v.915H85.695z" style="fill:#59f;stroke:none;stroke-width:.264581" transform="scale(1,-1)"/><path d="M104.206 287.147v.915l5.72 2.117v.915h5.384v-.915l5.719-2.117v-.915z" style="fill:#6f7c91;stroke:none;stroke-width:.264583px;stroke-linecap:butt;stroke-linejoin:miter;stroke-opacity:1"/><path d="M105.804 287.838h13.24l-5.345 2.06h-2.449z" style="fill:#fff;stroke:none;stroke-width:.264583px;stroke-linecap:butt;stroke-linejoin:miter;stroke-opacity:1"/><path d="M104.206-287.147h16.822v.915h-16.822z" style="fill:#59f;stroke:none;stroke-width:.264581" transform="scale(1,-1)"/><path d="M122.718 287.147v.915l5.719 2.117v.915h5.385v-.915l5.718-2.117v-.915z" style="fill:#6f7c91;stroke:none;stroke-width:.264583px;stroke-linecap:butt;stroke-linejoin:miter;stroke-opacity:1"/><path d="M124.316 287.838h13.24l-5.345 2.06h-2.449z" style="fill:#fff;stroke:none;stroke-width:.264583px;stroke-linecap:butt;stroke-linejoin:miter;stroke-opacity:1"/><path d="M122.718-287.147h16.822v.915h-16.822z" style="fill:#59f;stroke:none;stroke-width:.264581" transform="scale(1,-1)"/><text xml:space="preserve" style="font-size:14.6667px;line-height:1.25;font-family:sans-serif;white-space:pre;shape-inside:url(#q);display:inline" transform="matrix(0.26458333,0,0,0.26458333,19.859089,186.31928)"><tspan x="443.27" y="413.621">trapeze</tspan></text><text xml:space="preserve" style="font-size:14.6667px;line-height:1.25;font-family:sans-serif;white-space:pre;shape-inside:url(#r);display:inline" transform="matrix(0.26458333,0,0,0.26458333,8.8381671,125.36309)"><tspan x="390.711" y="580.352">solar-panels</tspan></text><path d="m114.635 285.17 6.415-4.822" style="fill:none;stroke:#000;stroke-width:.264583px;stroke-linecap:butt;stroke-linejoin:miter;stroke-opacity:1;marker-start:url(#s)"/><path d="m128.44 284.843-6.415-4.823" style="fill:none;stroke:#000;stroke-width:.264583px;stroke-linecap:butt;stroke-linejoin:miter;stroke-opacity:1;marker-start:url(#t)"/><path d="m138.265 290.256 3.192 2.576" style="fill:none;stroke:#000;stroke-width:.264583px;stroke-linecap:butt;stroke-linejoin:miter;stroke-opacity:1;marker-start:url(#u)"/><circle cx="75.594" cy="302.337" r="1.912" style="fill:#fff;fill-opacity:1;stroke:none;stroke-width:.264583;stroke-linejoin:bevel;stroke-opacity:1"/><path d="m121.638 300.82 5.992 9.644" style="fill:none;stroke:#000;stroke-width:.264583px;stroke-linecap:butt;stroke-linejoin:miter;stroke-opacity:1;marker-start:url(#v)"/><path d="M-302.443-70.243h2.687v2.926h-2.687zM-302.443-83.87h2.687v2.926h-2.687zM-302.443-49.186h2.687v2.926h-2.687zM-302.443-105.443h2.687v2.926h-2.687z" style="fill:#9855ff;fill-opacity:.701961;stroke:none;stroke-width:.264582" transform="matrix(0,-1,-1,0,0,0)"/><path d="M-105.443 295.566h59.183v4.19h-59.183z" style="opacity:.7;fill:#95f;stroke:none;stroke-width:.264582" transform="scale(-1,1)"/><circle cx="257.198" cy="192.632" r="3.687" style="fill:#999;fill-opacity:1;stroke:none;stroke-width:.264584;stroke-linejoin:bevel;stroke-opacity:1" transform="rotate(39.549787)"/><path d="m41.65 326.304 15.216-19.596 15.95 3.248 5.191-.495 17.873-2.604 16.981 19.154-1.17 1.111-16.424-17.636-16.54 2.733-2.229 2.737-4.293-1.92-14.924-2.51-13.864 16.788z" style="fill:#999;stroke:#999;stroke-width:.264583px;stroke-linecap:butt;stroke-linejoin:miter;stroke-opacity:1"/><circle cx="257.198" cy="192.632" r="1.602" style="fill:#fff;fill-opacity:1;stroke:none;stroke-width:.264583;stroke-linejoin:bevel;stroke-opacity:1" transform="rotate(39.549787)"/><circle cx="71.325" cy="319.366" r="1.67" style="opacity:1;fill:#4d4d4d;fill-opacity:1;stroke:#4d4d4d;stroke-width:.264583;stroke-linejoin:bevel;stroke-opacity:1"/><text xml:space="preserve" style="font-size:14.6667px;line-height:1.25;font-family:sans-serif;white-space:pre;shape-inside:url(#w);display:inline" transform="matrix(0.26458333,0,0,0.26458333,11.709491,-42.738221)"><tspan x="54.855" y="1331.188">spider</tspan></text><path d="m47.282 315.268-8.35-6.185" style="fill:none;stroke:#000;stroke-width:.264583px;stroke-linecap:butt;stroke-linejoin:miter;stroke-opacity:1;marker-start:url(#x)"/><path d="m46.26 302.443-4.61 23.86 1.767 1.01 16.745 8.406 11.163-14.683" style="fill:none;stroke:#4d4d4d;stroke-width:.529167;stroke-linecap:butt;stroke-linejoin:miter;stroke-opacity:1"/><circle cx="79.819" cy="319.398" r="1.67" style="fill:#4d4d4d;fill-opacity:1;stroke:#4d4d4d;stroke-width:.264583;stroke-linejoin:bevel;stroke-opacity:1"/><path d="m105.443 302.443 7.418 23.568-1.17 1.111-20.621 8.786-11.251-14.84" style="fill:none;stroke:#4d4d4d;stroke-width:.529167;stroke-linecap:butt;stroke-linejoin:miter;stroke-opacity:1"/><text xml:space="preserve" style="font-size:14.6667px;line-height:1.25;font-family:sans-serif;white-space:pre;shape-inside:url(#y);display:inline" transform="matrix(0.26458333,0,0,0.26458333,-2.0829412,7.9286847)"><tspan x="156.301" y="1277.5">cable</tspan></text><path d="m52.583 334.624-2.965 8.292" style="fill:none;stroke:#000;stroke-width:.264583px;stroke-linecap:butt;stroke-linejoin:miter;stroke-opacity:1;marker-start:url(#z)"/><text xml:space="preserve" style="font-size:14.6667px;line-height:1.25;font-family:sans-serif;white-space:pre;shape-inside:url(#A);display:inline" transform="matrix(0.26458333,0,0,0.26458333,-35.01043,16.051486)"><tspan x="339.166" y="1135.684">motors</tspan></text><path d="m67.885 319.045-3.724-1.716" style="fill:none;stroke:#000;stroke-width:.264583px;stroke-linecap:butt;stroke-linejoin:miter;stroke-opacity:1;marker-start:url(#B)"/></g></svg>