<svg xmlns="http://www.w3.org/2000/svg" width="487.082" height="487.5" viewBox="0 0 128.874 128.984"><defs><marker id="a" markerHeight="1" markerWidth="1" orient="auto-start-reverse" preserveAspectRatio="xMidYMid" refX="0" refY="0" style="overflow:visible" viewBox="0 0 1 1"><path d="M-.211-4.106 6.21-.894a1 1 90 0 1 0 1.788L-.21 4.106A1.236 1.236 31.717 0 1-2 3v-6A1.236 1.236 148.283 0 1-.211-4.106" style="fill:context-stroke;fill-rule:evenodd;stroke:none" transform="scale(0.7)"/></marker><marker id="b" markerHeight="1" markerWidth="1" orient="auto-start-reverse" preserveAspectRatio="xMidYMid" refX="0" refY="0" style="overflow:visible" viewBox="0 0 1 1"><path d="M-.211-4.106 6.21-.894a1 1 90 0 1 0 1.788L-.21 4.106A1.236 1.236 31.717 0 1-2 3v-6A1.236 1.236 148.283 0 1-.211-4.106" style="fill:context-stroke;fill-rule:evenodd;stroke:none" transform="scale(0.7)"/></marker><marker id="c" markerHeight="1" markerWidth="1" orient="auto-start-reverse" preserveAspectRatio="xMidYMid" refX="0" refY="0" style="overflow:visible" viewBox="0 0 1 1"><path d="M-.211-4.106 6.21-.894a1 1 90 0 1 0 1.788L-.21 4.106A1.236 1.236 31.717 0 1-2 3v-6A1.236 1.236 148.283 0 1-.211-4.106" style="fill:context-stroke;fill-rule:evenodd;stroke:none" transform="scale(0.7)"/></marker><marker id="d" markerHeight="1" markerWidth="1" orient="auto-start-reverse" preserveAspectRatio="xMidYMid" refX="0" refY="0" style="overflow:visible" viewBox="0 0 1 1"><path d="M-.211-4.106 6.21-.894a1 1 90 0 1 0 1.788L-.21 4.106A1.236 1.236 31.717 0 1-2 3v-6A1.236 1.236 148.283 0 1-.211-4.106" style="fill:context-stroke;fill-rule:evenodd;stroke:none" transform="scale(0.7)"/></marker><marker id="e" markerHeight="1" markerWidth="1" orient="auto-start-reverse" preserveAspectRatio="xMidYMid" refX="0" refY="0" style="overflow:visible" viewBox="0 0 1 1"><path d="M-.211-4.106 6.21-.894a1 1 90 0 1 0 1.788L-.21 4.106A1.236 1.236 31.717 0 1-2 3v-6A1.236 1.236 148.283 0 1-.211-4.106" style="fill:context-stroke;fill-rule:evenodd;stroke:none" transform="scale(0.7)"/></marker><marker id="f" markerHeight="1" markerWidth="1" orient="auto-start-reverse" preserveAspectRatio="xMidYMid" refX="0" refY="0" style="overflow:visible" viewBox="0 0 1 1"><path d="M-.211-4.106 6.21-.894a1 1 90 0 1 0 1.788L-.21 4.106A1.236 1.236 31.717 0 1-2 3v-6A1.236 1.236 148.283 0 1-.211-4.106" style="fill:context-stroke;fill-rule:evenodd;stroke:none" transform="scale(0.7)"/></marker><marker id="g" markerHeight="1" markerWidth="1" orient="auto-start-reverse" preserveAspectRatio="xMidYMid" refX="0" refY="0" style="overflow:visible" viewBox="0 0 1 1"><path d="M-.211-4.106 6.21-.894a1 1 90 0 1 0 1.788L-.21 4.106A1.236 1.236 31.717 0 1-2 3v-6A1.236 1.236 148.283 0 1-.211-4.106" style="fill:context-stroke;fill-rule:evenodd;stroke:none" transform="scale(0.7)"/></marker><marker id="ac" markerHeight="1" markerWidth="1" orient="auto-start-reverse" preserveAspectRatio="xMidYMid" refX="0" refY="0" style="overflow:visible" viewBox="0 0 1 1"><path d="M-.211-4.106 6.21-.894a1 1 90 0 1 0 1.788L-.21 4.106A1.236 1.236 31.717 0 1-2 3v-6A1.236 1.236 148.283 0 1-.211-4.106" style="fill:context-stroke;fill-rule:evenodd;stroke:none" transform="scale(0.7)"/></marker><marker id="h" markerHeight="1" markerWidth="1" orient="auto-start-reverse" preserveAspectRatio="xMidYMid" refX="0" refY="0" style="overflow:visible" viewBox="0 0 1 1"><path d="M-.211-4.106 6.21-.894a1 1 90 0 1 0 1.788L-.21 4.106A1.236 1.236 31.717 0 1-2 3v-6A1.236 1.236 148.283 0 1-.211-4.106" style="fill:context-stroke;fill-rule:evenodd;stroke:none" transform="scale(0.7)"/></marker><marker id="w" markerHeight="1" markerWidth="1" orient="auto-start-reverse" preserveAspectRatio="xMidYMid" refX="0" refY="0" style="overflow:visible" viewBox="0 0 1 1"><path d="M-.211-4.106 6.21-.894a1 1 90 0 1 0 1.788L-.21 4.106A1.236 1.236 31.717 0 1-2 3v-6A1.236 1.236 148.283 0 1-.211-4.106" style="fill:context-stroke;fill-rule:evenodd;stroke:none" transform="scale(0.7)"/></marker><marker id="x" markerHeight="1" markerWidth="1" orient="auto-start-reverse" preserveAspectRatio="xMidYMid" refX="0" refY="0" style="overflow:visible" viewBox="0 0 1 1"><path d="M-.211-4.106 6.21-.894a1 1 90 0 1 0 1.788L-.21 4.106A1.236 1.236 31.717 0 1-2 3v-6A1.236 1.236 148.283 0 1-.211-4.106" style="fill:context-stroke;fill-rule:evenodd;stroke:none" transform="scale(0.7)"/></marker><marker id="y" markerHeight="1" markerWidth="1" orient="auto-start-reverse" preserveAspectRatio="xMidYMid" refX="0" refY="0" style="overflow:visible" viewBox="0 0 1 1"><path d="M-.211-4.106 6.21-.894a1 1 90 0 1 0 1.788L-.21 4.106A1.236 1.236 31.717 0 1-2 3v-6A1.236 1.236 148.283 0 1-.211-4.106" style="fill:context-stroke;fill-rule:evenodd;stroke:none" transform="scale(0.7)"/></marker><marker id="z" markerHeight="1" markerWidth="1" orient="auto-start-reverse" preserveAspectRatio="xMidYMid" refX="0" refY="0" style="overflow:visible" viewBox="0 0 1 1"><path d="M-.211-4.106 6.21-.894a1 1 90 0 1 0 1.788L-.21 4.106A1.236 1.236 31.717 0 1-2 3v-6A1.236 1.236 148.283 0 1-.211-4.106" style="fill:context-stroke;fill-rule:evenodd;stroke:none" transform="scale(0.7)"/></marker><marker id="A" markerHeight="1" markerWidth="1" orient="auto-start-reverse" preserveAspectRatio="xMidYMid" refX="0" refY="0" style="overflow:visible" viewBox="0 0 1 1"><path d="M-.211-4.106 6.21-.894a1 1 90 0 1 0 1.788L-.21 4.106A1.236 1.236 31.717 0 1-2 3v-6A1.236 1.236 148.283 0 1-.211-4.106" style="fill:context-stroke;fill-rule:evenodd;stroke:none" transform="scale(0.7)"/></marker><marker id="B" markerHeight="1" markerWidth="1" orient="auto-start-reverse" preserveAspectRatio="xMidYMid" refX="0" refY="0" style="overflow:visible" viewBox="0 0 1 1"><path d="M-.211-4.106 6.21-.894a1 1 90 0 1 0 1.788L-.21 4.106A1.236 1.236 31.717 0 1-2 3v-6A1.236 1.236 148.283 0 1-.211-4.106" style="fill:context-stroke;fill-rule:evenodd;stroke:none" transform="scale(0.7)"/></marker><marker id="C" markerHeight="1" markerWidth="1" orient="auto-start-reverse" preserveAspectRatio="xMidYMid" refX="0" refY="0" style="overflow:visible" viewBox="0 0 1 1"><path d="M-.211-4.106 6.21-.894a1 1 90 0 1 0 1.788L-.21 4.106A1.236 1.236 31.717 0 1-2 3v-6A1.236 1.236 148.283 0 1-.211-4.106" style="fill:context-stroke;fill-rule:evenodd;stroke:none" transform="scale(0.7)"/></marker><marker id="D" markerHeight="1" markerWidth="1" orient="auto-start-reverse" preserveAspectRatio="xMidYMid" refX="0" refY="0" style="overflow:visible" viewBox="0 0 1 1"><path d="M-.211-4.106 6.21-.894a1 1 90 0 1 0 1.788L-.21 4.106A1.236 1.236 31.717 0 1-2 3v-6A1.236 1.236 148.283 0 1-.211-4.106" style="fill:context-stroke;fill-rule:evenodd;stroke:none" transform="scale(0.7)"/></marker><marker id="E" markerHeight="1" markerWidth="1" orient="auto-start-reverse" preserveAspectRatio="xMidYMid" refX="0" refY="0" style="overflow:visible" viewBox="0 0 1 1"><path d="M-.211-4.106 6.21-.894a1 1 90 0 1 0 1.788L-.21 4.106A1.236 1.236 31.717 0 1-2 3v-6A1.236 1.236 148.283 0 1-.211-4.106" style="fill:context-stroke;fill-rule:evenodd;stroke:none" transform="scale(0.7)"/></marker><marker id="F" markerHeight="1" markerWidth="1" orient="auto-start-reverse" preserveAspectRatio="xMidYMid" refX="0" refY="0" style="overflow:visible" viewBox="0 0 1 1"><path d="M-.211-4.106 6.21-.894a1 1 90 0 1 0 1.788L-.21 4.106A1.236 1.236 31.717 0 1-2 3v-6A1.236 1.236 148.283 0 1-.211-4.106" style="fill:context-stroke;fill-rule:evenodd;stroke:none" transform="scale(0.7)"/></marker><marker id="G" markerHeight="1" markerWidth="1" orient="auto-start-reverse" preserveAspectRatio="xMidYMid" refX="0" refY="0" style="overflow:visible" viewBox="0 0 1 1"><path d="M-.211-4.106 6.21-.894a1 1 90 0 1 0 1.788L-.21 4.106A1.236 1.236 31.717 0 1-2 3v-6A1.236 1.236 148.283 0 1-.211-4.106" style="fill:context-stroke;fill-rule:evenodd;stroke:none" transform="scale(0.7)"/></marker><marker id="H" markerHeight="1" markerWidth="1" orient="auto-start-reverse" preserveAspectRatio="xMidYMid" refX="0" refY="0" style="overflow:visible" viewBox="0 0 1 1"><path d="M-.211-4.106 6.21-.894a1 1 90 0 1 0 1.788L-.21 4.106A1.236 1.236 31.717 0 1-2 3v-6A1.236 1.236 148.283 0 1-.211-4.106" style="fill:context-stroke;fill-rule:evenodd;stroke:none" transform="scale(0.7)"/></marker><marker id="I" markerHeight="1" markerWidth="1" orient="auto-start-reverse" preserveAspectRatio="xMidYMid" refX="0" refY="0" style="overflow:visible" viewBox="0 0 1 1"><path d="M-.211-4.106 6.21-.894a1 1 90 0 1 0 1.788L-.21 4.106A1.236 1.236 31.717 0 1-2 3v-6A1.236 1.236 148.283 0 1-.211-4.106" style="fill:context-stroke;fill-rule:evenodd;stroke:none" transform="scale(0.7)"/></marker><marker id="J" markerHeight="1" markerWidth="1" orient="auto-start-reverse" preserveAspectRatio="xMidYMid" refX="0" refY="0" style="overflow:visible" viewBox="0 0 1 1"><path d="M-.211-4.106 6.21-.894a1 1 90 0 1 0 1.788L-.21 4.106A1.236 1.236 31.717 0 1-2 3v-6A1.236 1.236 148.283 0 1-.211-4.106" style="fill:context-stroke;fill-rule:evenodd;stroke:none" transform="scale(0.7)"/></marker><marker id="K" markerHeight="1" markerWidth="1" orient="auto-start-reverse" preserveAspectRatio="xMidYMid" refX="0" refY="0" style="overflow:visible" viewBox="0 0 1 1"><path d="M-.211-4.106 6.21-.894a1 1 90 0 1 0 1.788L-.21 4.106A1.236 1.236 31.717 0 1-2 3v-6A1.236 1.236 148.283 0 1-.211-4.106" style="fill:context-stroke;fill-rule:evenodd;stroke:none" transform="scale(0.7)"/></marker><marker id="L" markerHeight="1" markerWidth="1" orient="auto-start-reverse" preserveAspectRatio="xMidYMid" refX="0" refY="0" style="overflow:visible" viewBox="0 0 1 1"><path d="M-.211-4.106 6.21-.894a1 1 90 0 1 0 1.788L-.21 4.106A1.236 1.236 31.717 0 1-2 3v-6A1.236 1.236 148.283 0 1-.211-4.106" style="fill:context-stroke;fill-rule:evenodd;stroke:none" transform="scale(0.7)"/></marker><marker id="U" markerHeight="1" markerWidth="1" orient="auto-start-reverse" preserveAspectRatio="xMidYMid" refX="0" refY="0" style="overflow:visible" viewBox="0 0 1 1"><path d="M-.211-4.106 6.21-.894a1 1 90 0 1 0 1.788L-.21 4.106A1.236 1.236 31.717 0 1-2 3v-6A1.236 1.236 148.283 0 1-.211-4.106" style="fill:context-stroke;fill-rule:evenodd;stroke:none" transform="scale(0.7)"/></marker><marker id="V" markerHeight="1" markerWidth="1" orient="auto-start-reverse" preserveAspectRatio="xMidYMid" refX="0" refY="0" style="overflow:visible" viewBox="0 0 1 1"><path d="M-.211-4.106 6.21-.894a1 1 90 0 1 0 1.788L-.21 4.106A1.236 1.236 31.717 0 1-2 3v-6A1.236 1.236 148.283 0 1-.211-4.106" style="fill:context-stroke;fill-rule:evenodd;stroke:none" transform="scale(0.7)"/></marker><marker id="Y" markerHeight="1" markerWidth="1" orient="auto-start-reverse" preserveAspectRatio="xMidYMid" refX="0" refY="0" style="overflow:visible" viewBox="0 0 1 1"><path d="M-.211-4.106 6.21-.894a1 1 90 0 1 0 1.788L-.21 4.106A1.236 1.236 31.717 0 1-2 3v-6A1.236 1.236 148.283 0 1-.211-4.106" style="fill:context-stroke;fill-rule:evenodd;stroke:none" transform="scale(0.7)"/></marker><marker id="Z" markerHeight="1" markerWidth="1" orient="auto-start-reverse" preserveAspectRatio="xMidYMid" refX="0" refY="0" style="overflow:visible" viewBox="0 0 1 1"><path d="M-.211-4.106 6.21-.894a1 1 90 0 1 0 1.788L-.21 4.106A1.236 1.236 31.717 0 1-2 3v-6A1.236 1.236 148.283 0 1-.211-4.106" style="fill:context-stroke;fill-rule:evenodd;stroke:none" transform="scale(0.7)"/></marker><path id="i" d="M262.625 2335.759h99.08v71.139h-99.08z"/><path id="j" d="M76.008 2320.722h82.33v62.835h-82.33z"/><path id="k" d="M214.086 2407.869h91.159v48.008h-91.159z"/><path id="l" d="M333.994 2372.979h99.652v71.9h-99.652z"/><path id="m" d="M373.645 2326.059h81.78v46.484h-81.78z"/><path id="n" d="M399.172 2414.332h83.869v49.879h-83.869z"/><path id="o" d="M129.168 2354.55h93.584v45.454h-93.584z"/><path id="p" d="M82.581 2312.307h74.122v52.028H82.581z"/><path id="q" d="M213.868 2361.743h62.624v31.55h-62.624z"/><path id="r" d="M317.746 2349.589h65.68v43.775h-65.68z"/><path id="s" d="M152.281 2344.459h88.97v40.025h-88.97z"/><path id="t" d="M143.563 2344.551h111.223v52.762H143.563z"/><path id="u" d="M206.743 2313.628h58.308v25.556h-58.308z"/><path id="v" d="M285.498 2336.619h72.568v40.456h-72.568z"/><path id="M" d="M232.998 693.148h86.641v36.168h-86.641z"/><path id="N" d="M232.998 693.148h86.641v36.168h-86.641z"/><path id="O" d="M232.998 693.148h86.641v36.168h-86.641z"/><path id="P" d="M232.998 693.148h86.641v36.168h-86.641z"/><path id="Q" d="M183.222 667.304h108.473v49.625H183.222z"/><path id="R" d="M232.998 693.148h86.641v36.168h-86.641z"/><path id="S" d="M232.998 693.148h86.641v36.168h-86.641z"/><path id="T" d="M-210.389 2716.334h77.529v53.117h-77.529z"/><path id="W" d="M21.77 2494.387h29.796v25.243H21.77z"/><path id="X" d="M116.122 2744.339h35.515v25.664h-35.515z"/><path id="aa" d="M0 2758.898h83.849v53.133H0z"/><path id="ab" d="M101.578 2792.975h57.132v40.15h-57.132z"/></defs><path d="M15.206 967.44h128.609v128.72H15.206z" style="fill:#fff;fill-opacity:1;stroke:#fff;stroke-width:.264583;stroke-linejoin:bevel;stroke-opacity:1" transform="translate(-15.073794,-967.30786)"/><path d="M601.555 912.859h9.342v.722h-9.342z" style="fill:green;stroke:none;stroke-width:.265393" transform="translate(-15.073794,-967.30786) matrix(-0.83424756,0.55139006,0.63998195,0.76838994,0,0)"/><path d="M-104.448 1001.12h84.804v6.248h-84.804z" style="fill:#9854ff;fill-opacity:1;stroke:none;stroke-width:.264582" transform="translate(-15.073794,-967.30786) scale(-1,1)"/><path d="M1078.545 52.248h14.709v.545h-14.709z" style="fill:#08a;stroke:#08a;stroke-width:.264583" transform="translate(-15.073794,-967.30786) matrix(0,1,1,0,0,0)"/><path d="M52.248-1093.254h1.575v.656h-1.575z" style="fill:#08a;stroke:#08a;stroke-width:.264582" transform="translate(-15.073794,-967.30786) scale(1,-1)"/><path d="M1078.545-71.345h14.709v.545h-14.709z" style="fill:#08a;stroke:#08a;stroke-width:.264583" transform="translate(-15.073794,-967.30786) rotate(90)"/><path d="M-71.345-1093.254h1.575v.656h-1.575z" style="fill:#08a;stroke:#08a;stroke-width:.264582" transform="translate(-15.073794,-967.30786) scale(-1)"/><path d="M1001.355 243.053h32.253v.55h-32.253z" style="fill:#08a;stroke:#08a;stroke-width:.264974" transform="translate(-15.073794,-967.30786) matrix(-0.17700955,0.98420913,0.96771702,0.25203922,0,0)"/><path d="M1032.597 121.052h32.253v.55h-32.253z" style="fill:#08a;stroke:#08a;stroke-width:.264974" transform="translate(-15.073794,-967.30786) matrix(0.17700955,0.98420913,-0.96771702,0.25203922,0,0)"/><path d="M-1049.157-49.055h10.005v1.549h-10.005zM-1049.157-76.169h10.005v1.549h-10.005z" style="fill:green;stroke:none;stroke-width:.264584" transform="translate(-15.073794,-967.30786) matrix(0,-1,-1,0,0,0)"/><path d="M-790.467-677.756h19.722v1.549h-19.722z" style="fill:green;stroke:none;stroke-width:.264583" transform="translate(-15.073794,-967.30786) matrix(0.61466975,-0.78878457,-0.78878457,-0.61466975,0,0)"/><path d="M-866.486-580.203h19.722v1.549h-19.722z" style="fill:green;stroke:none;stroke-width:.264583" transform="translate(-15.073794,-967.30786) rotate(-127.92793)"/><path d="M19.778 998v-23.659M104.32 998v-23.659" style="fill:none;stroke:#b3b3b3;stroke-width:.264582px;stroke-linecap:butt;stroke-linejoin:miter;stroke-opacity:1" transform="translate(-15.073794,-967.30786)"/><path d="M62.046 1004.377h64.14M64.047 1023.596h76.45M76.169 1039.285h64.329M76.169 1049.025h64.329M65.636 1046.801h70.17M71.477 1078.28h64.329M71.477 1093.254h64.329" style="fill:none;stroke:#b3b3b3;stroke-width:.264583px;stroke-linecap:butt;stroke-linejoin:miter;stroke-opacity:1" transform="translate(-15.073794,-967.30786)"/><path d="M135.806 1079.648v12.353" style="fill:none;stroke:#000;stroke-width:.264583px;stroke-linecap:butt;stroke-linejoin:miter;stroke-opacity:1;marker-start:url(#a);marker-end:url(#a)" transform="translate(-15.073794,-967.30786)"/><path d="M135.806 1047.97v29.054" style="fill:none;stroke:#000;stroke-width:.264583px;stroke-linecap:butt;stroke-linejoin:miter;stroke-opacity:1;marker-start:url(#b);marker-end:url(#b)" transform="translate(-15.073794,-967.30786)"/><path d="M140.498 1040.598v7.113" style="fill:none;stroke:#000;stroke-width:.264583px;stroke-linecap:butt;stroke-linejoin:miter;stroke-opacity:1;marker-start:url(#c);marker-end:url(#c)" transform="translate(-15.073794,-967.30786)"/><path d="M140.498 1024.767v13.246" style="fill:none;stroke:#000;stroke-width:.264584px;stroke-linecap:butt;stroke-linejoin:miter;stroke-opacity:1;marker-start:url(#d);marker-end:url(#d)" transform="translate(-15.073794,-967.30786)"/><path d="M130.423 1024.874v5.654" style="fill:none;stroke:#000;stroke-width:.264583px;stroke-linecap:butt;stroke-linejoin:miter;stroke-opacity:1;marker-start:url(#e);marker-end:url(#e)" transform="translate(-15.073794,-967.30786)"/><path d="M109.36 1042.112v3.308" style="fill:none;stroke:#000;stroke-width:.264583px;stroke-linecap:butt;stroke-linejoin:miter;stroke-opacity:1;marker-end:url(#f)" transform="translate(-15.073794,-967.30786)"/><path d="M109.248 1053.648v-3.309" style="fill:none;stroke:#000;stroke-width:.264583px;stroke-linecap:butt;stroke-linejoin:miter;stroke-opacity:1;marker-end:url(#g)" transform="translate(-15.073794,-967.30786)"/><path d="M696.898 844.324h9.342v.722h-9.342z" style="fill:green;stroke:none;stroke-width:.265393" transform="translate(-15.073794,-967.30786) matrix(0.83424756,0.55139006,-0.63998195,0.76838994,0,0)"/><path d="M21.193 974.342h81.715" style="fill:none;stroke:#000;stroke-width:.264583px;stroke-linecap:butt;stroke-linejoin:miter;stroke-opacity:1;marker-start:url(#h);marker-end:url(#h)" transform="translate(-15.073794,-967.30786)"/><text xml:space="preserve" style="font-size:14.6667px;line-height:1.25;font-family:sans-serif;white-space:pre;shape-inside:url(#i);display:inline" transform="translate(-15.073794,-967.30786) matrix(0.26458333,0,0,0.26458333,59.830103,466.11028)"><tspan x="262.625" y="2348.736">H1</tspan></text><text xml:space="preserve" style="font-size:14.6667px;line-height:1.25;font-family:sans-serif;white-space:pre;shape-inside:url(#j);display:inline" transform="translate(-15.073794,-967.30786) matrix(0.26458333,0,0,0.26458333,109.74514,446.62493)"><tspan x="76.008" y="2333.699">H2</tspan></text><text xml:space="preserve" style="font-size:14.6667px;line-height:1.25;font-family:sans-serif;white-space:pre;shape-inside:url(#k);display:inline" transform="translate(-15.073794,-967.30786) matrix(0.26458333,0,0,0.26458333,50.194363,416.54388)"><tspan x="214.086" y="2420.846">H3</tspan></text><text xml:space="preserve" style="font-size:14.6667px;line-height:1.25;font-family:sans-serif;white-space:pre;shape-inside:url(#l);display:inline" transform="translate(-15.073794,-967.30786) matrix(0.26458333,0,0,0.26458333,46.511744,413.90813)"><tspan x="333.994" y="2385.955">H4</tspan></text><text xml:space="preserve" style="font-size:14.6667px;line-height:1.25;font-family:sans-serif;white-space:pre;shape-inside:url(#m);display:inline" transform="translate(-15.073794,-967.30786) matrix(0.26458333,0,0,0.26458333,36.229518,413.91106)"><tspan x="373.645" y="2339.035">H5</tspan></text><text xml:space="preserve" style="font-size:14.6667px;line-height:1.25;font-family:sans-serif;white-space:pre;shape-inside:url(#n);display:inline" transform="translate(-15.073794,-967.30786) matrix(0.26458333,0,0,0.26458333,25.414088,386.70598)"><tspan x="399.172" y="2427.309">H6</tspan></text><text xml:space="preserve" style="font-size:14.6667px;line-height:1.25;font-family:sans-serif;white-space:pre;shape-inside:url(#o);display:inline" transform="translate(-15.073794,-967.30786) matrix(0.26458333,0,0,0.26458333,92.458033,390.92367)"><tspan x="129.168" y="2367.527">H7</tspan></text><text xml:space="preserve" style="font-size:14.6667px;line-height:1.25;font-family:sans-serif;white-space:pre;shape-inside:url(#p);display:inline" transform="translate(-15.073794,-967.30786) matrix(0.26458333,0,0,0.26458333,38.24026,358.21197)"><tspan x="82.582" y="2325.283">L1</tspan></text><text xml:space="preserve" style="font-size:14.6667px;line-height:1.25;font-family:sans-serif;white-space:pre;shape-inside:url(#q);display:inline" transform="translate(-15.073794,-967.30786) matrix(0.26458333,0,0,0.26458333,15.39651,454.05852)"><tspan x="213.867" y="2374.721">D1</tspan></text><text xml:space="preserve" style="font-size:14.6667px;line-height:1.25;font-family:sans-serif;white-space:pre;shape-inside:url(#r);display:inline" transform="translate(-15.073794,-967.30786) matrix(0.26458333,0,0,0.26458333,-17.120092,425.34661)"><tspan x="317.746" y="2362.566">D2</tspan></text><text xml:space="preserve" style="font-size:14.6667px;line-height:1.25;font-family:sans-serif;white-space:pre;shape-inside:url(#s);display:inline" transform="translate(-15.073794,-967.30786) matrix(0.26458333,0,0,0.26458333,35.434596,428.31145)"><tspan x="152.281" y="2357.436">D3</tspan></text><text xml:space="preserve" style="font-size:14.6667px;line-height:1.25;font-family:sans-serif;white-space:pre;shape-inside:url(#t);display:inline" transform="translate(-15.073794,-967.30786) matrix(0.26458333,0,0,0.26458333,-11.834565,409.93848)"><tspan x="143.563" y="2357.527">D5</tspan></text><text xml:space="preserve" style="font-size:14.6667px;line-height:1.25;font-family:sans-serif;white-space:pre;shape-inside:url(#u);display:inline" transform="translate(-15.073794,-967.30786) matrix(0.26458333,0,0,0.26458333,-1.6001311,473.14212)"><tspan x="206.742" y="2326.604">E1</tspan></text><path d="M32.111-1029.979h59.363v.866H32.111zM32.111-1034.363h59.363v.866H32.111z" style="fill:green;stroke:none;stroke-width:.264585" transform="translate(-15.073794,-967.30786) scale(1,-1)"/><path d="M32.111-1033.497h59.363v3.493H32.111z" style="fill:#d7f4d7;fill-opacity:1;stroke:none;stroke-width:.264584" transform="translate(-15.073794,-967.30786) scale(1,-1)"/><path d="M61.998 1031.893h68.425" style="fill:none;stroke:#b3b3b3;stroke-width:.264583px;stroke-linecap:butt;stroke-linejoin:miter;stroke-opacity:1" transform="translate(-15.073794,-967.30786)"/><text xml:space="preserve" style="font-size:14.6667px;line-height:1.25;font-family:sans-serif;white-space:pre;shape-inside:url(#v);display:inline" transform="translate(-15.073794,-967.30786) matrix(0.26458333,0,0,0.26458333,-11.388168,401.50518)"><tspan x="285.498" y="2349.596">D4</tspan></text><path d="M-1029.114-36.164h29.587v4.053h-29.587zM-1029.114-91.474h29.587v4.053h-29.587z" style="opacity:.8;fill:green;stroke:none;stroke-width:.264581" transform="translate(-15.073794,-967.30786) matrix(0,-1,-1,0,0,0)"/><path d="M998.014-56.442h3.12v2.926h-3.12zM998.014-49.463h3.12v2.926h-3.12z" style="fill:#40a;fill-opacity:.701961;stroke:none;stroke-width:.264582" transform="translate(-15.073794,-967.30786) rotate(90)"/><path d="M-1029.148-53.516h29.573v4.053h-29.573zM-1029.148-74.123h29.573v4.053h-29.573z" style="opacity:.8;fill:green;stroke:none;stroke-width:.264581" transform="translate(-15.073794,-967.30786) matrix(0,-1,-1,0,0,0)"/><path d="M998.014-39.065h3.12v2.926h-3.12zM998.014-32.101h3.12v2.926h-3.12zM998.001-22.57h3.12v2.926h-3.12zM998.001-70.121h3.12v2.926h-3.12zM998.014-77.049h3.12v2.926h-3.12zM997.967-87.421h3.12v2.926h-3.12zM997.967-94.4h3.12v2.926h-3.12zM998.001-104.448h3.12v2.926h-3.12z" style="fill:#40a;fill-opacity:.701961;stroke:none;stroke-width:.264582" transform="translate(-15.073794,-967.30786) rotate(90)"/><path d="M67.327 998v-15.243M56.575 998.014v-15.243" style="fill:none;stroke:#b3b3b3;stroke-width:.264583px;stroke-linecap:butt;stroke-linejoin:miter;stroke-opacity:1" transform="translate(-15.073794,-967.30786)"/><path d="M57.66 982.77h8.582" style="fill:none;stroke:#000;stroke-width:.264584;stroke-linecap:butt;stroke-linejoin:miter;stroke-opacity:1;marker-start:url(#w);marker-end:url(#x)" transform="translate(-15.073794,-967.30786)"/><path d="M46.537 998.014v-15.243" style="fill:none;stroke:#b3b3b3;stroke-width:.264583px;stroke-linecap:butt;stroke-linejoin:miter;stroke-opacity:1" transform="translate(-15.073794,-967.30786)"/><path d="M30.656 982.77h6.893" style="fill:none;stroke:#000;stroke-width:.264584;stroke-linecap:butt;stroke-linejoin:miter;stroke-opacity:1;marker-start:url(#y);marker-end:url(#z)" transform="translate(-15.073794,-967.30786)"/><path d="M33.703 1049.34h6.893" style="fill:none;stroke:#000;stroke-width:.264584;stroke-linecap:butt;stroke-linejoin:miter;stroke-opacity:1;marker-start:url(#A);marker-end:url(#B)" transform="translate(-15.073794,-967.30786)"/><path d="M38.933 998.014v-15.243M29.307 998.014v-15.243M77.18 998.014v-15.243M84.495 997.967v-15.244M94.533 997.967v-15.244" style="fill:none;stroke:#b3b3b3;stroke-width:.264583px;stroke-linecap:butt;stroke-linejoin:miter;stroke-opacity:1" transform="translate(-15.073794,-967.30786)"/><path d="M40.148 982.77h5.101" style="fill:none;stroke:#000;stroke-width:.264584;stroke-linecap:butt;stroke-linejoin:miter;stroke-opacity:1;marker-start:url(#C);marker-end:url(#D)" transform="translate(-15.073794,-967.30786)"/><path d="M47.922 982.77h7.206" style="fill:none;stroke:#000;stroke-width:.264584;stroke-linecap:butt;stroke-linejoin:miter;stroke-opacity:1;marker-start:url(#E);marker-end:url(#F)" transform="translate(-15.073794,-967.30786)"/><path d="M68.812 982.77h7.184" style="fill:none;stroke:#000;stroke-width:.264584;stroke-linecap:butt;stroke-linejoin:miter;stroke-opacity:1;marker-start:url(#G);marker-end:url(#H)" transform="translate(-15.073794,-967.30786)"/><path d="M78.385 982.77h4.902" style="fill:none;stroke:#000;stroke-width:.264584;stroke-linecap:butt;stroke-linejoin:miter;stroke-opacity:1;marker-start:url(#I);marker-end:url(#J)" transform="translate(-15.073794,-967.30786)"/><path d="M85.937 982.723h7.418" style="fill:none;stroke:#000;stroke-width:.264584;stroke-linecap:butt;stroke-linejoin:miter;stroke-opacity:1;marker-start:url(#K);marker-end:url(#L)" transform="translate(-15.073794,-967.30786)"/><text xml:space="preserve" style="font-size:14.6667px;line-height:1.25;font-family:sans-serif;white-space:pre;shape-inside:url(#M);display:inline" transform="translate(-15.073794,-967.30786) matrix(0.26458333,0,0,0.26458333,-29.799061,799.43678)"><tspan x="232.998" y="706.125">L4</tspan></text><text xml:space="preserve" style="font-size:14.6667px;line-height:1.25;font-family:sans-serif;white-space:pre;shape-inside:url(#N);display:inline" transform="translate(-15.073794,-967.30786) matrix(0.26458333,0,0,0.26458333,-12.500804,799.34697)"><tspan x="232.998" y="706.125">L4</tspan></text><text xml:space="preserve" style="font-size:14.6667px;line-height:1.25;font-family:sans-serif;white-space:pre;shape-inside:url(#O);display:inline" transform="translate(-15.073794,-967.30786) matrix(0.26458333,0,0,0.26458333,8.6679969,799.47574)"><tspan x="232.998" y="706.125">L4</tspan></text><text xml:space="preserve" style="font-size:14.6667px;line-height:1.25;font-family:sans-serif;white-space:pre;shape-inside:url(#P);display:inline" transform="translate(-15.073794,-967.30786) matrix(0.26458333,0,0,0.26458333,25.736485,799.47935)"><tspan x="232.998" y="706.125">L4</tspan></text><text xml:space="preserve" style="font-size:14.6667px;line-height:1.25;font-family:sans-serif;white-space:pre;shape-inside:url(#Q);display:inline" transform="translate(-15.073794,-967.30786) matrix(0.26458333,0,0,0.26458333,11.202027,802.264)"><tspan x="183.223" y="680.281">L5</tspan></text><text xml:space="preserve" style="font-size:14.6667px;line-height:1.25;font-family:sans-serif;white-space:pre;shape-inside:url(#R);display:inline" transform="translate(-15.073794,-967.30786) matrix(0.26458333,0,0,0.26458333,-20.973604,794.57203)"><tspan x="232.998" y="706.125">L6</tspan></text><text xml:space="preserve" style="font-size:14.6667px;line-height:1.25;font-family:sans-serif;white-space:pre;shape-inside:url(#S);display:inline" transform="translate(-15.073794,-967.30786) matrix(0.26458333,0,0,0.26458333,17.114447,794.5786)"><tspan x="232.998" y="706.125">L6</tspan></text><text xml:space="preserve" style="font-size:14.6667px;line-height:1.25;font-family:sans-serif;white-space:pre;shape-inside:url(#T);display:inline" transform="translate(-15.073794,-967.30786) matrix(0.26458333,0,0,0.26458333,160.48376,281.54843)"><tspan x="-210.389" y="2729.311">D6</tspan></text><path d="M22.437 998v-15.243" style="fill:none;stroke:#b3b3b3;stroke-width:.264583px;stroke-linecap:butt;stroke-linejoin:miter;stroke-opacity:1" transform="translate(-15.073794,-967.30786)"/><path d="M16.374 982.757h2.032" style="fill:none;stroke:#000;stroke-width:.264583;stroke-linecap:butt;stroke-linejoin:miter;stroke-opacity:1;marker-end:url(#U)" transform="translate(-15.073794,-967.30786)"/><path d="M25.855 982.757h-2.033" style="fill:none;stroke:#000;stroke-width:.264583;stroke-linecap:butt;stroke-linejoin:miter;stroke-opacity:1;marker-end:url(#V)" transform="translate(-15.073794,-967.30786)"/><text xml:space="preserve" style="font-size:14.6667px;line-height:1.25;font-family:sans-serif;white-space:pre;shape-inside:url(#W);display:inline" transform="translate(-15.073794,-967.30786) matrix(0.26458333,0,0,0.26458333,14.27425,318.23305)"><tspan x="21.77" y="2507.363">L3</tspan></text><path d="M32.243 1049.607v-15.244M42.083 1049.607v-15.244" style="fill:none;stroke:#b3b3b3;stroke-width:.264583px;stroke-linecap:butt;stroke-linejoin:miter;stroke-opacity:1" transform="translate(-15.073794,-967.30786)"/><path d="M24.515 1038.415H48.02M24.515 1039.277h23.059" style="fill:none;stroke:#b3b3b3;stroke-width:.264582px;stroke-linecap:butt;stroke-linejoin:miter;stroke-opacity:1" transform="translate(-15.073794,-967.30786)"/><text xml:space="preserve" style="font-size:14.6667px;line-height:1.25;font-family:sans-serif;white-space:pre;shape-inside:url(#X);display:inline" transform="translate(-15.073794,-967.30786) matrix(0.26458333,0,0,0.26458333,9.1576529,310.38935)"><tspan x="116.121" y="2757.316">D9</tspan></text><path d="M24.515 1034.998v2.032" style="fill:none;stroke:#000;stroke-width:.264583;stroke-linecap:butt;stroke-linejoin:miter;stroke-opacity:1;marker-end:url(#Y)" transform="translate(-15.073794,-967.30786)"/><path d="M24.515 1042.695v-2.033" style="fill:none;stroke:#000;stroke-width:.264583;stroke-linecap:butt;stroke-linejoin:miter;stroke-opacity:1;marker-end:url(#Z)" transform="translate(-15.073794,-967.30786)"/><text xml:space="preserve" style="font-size:14.6667px;line-height:1.25;font-family:sans-serif;white-space:pre;shape-inside:url(#aa);display:inline" transform="translate(-15.073794,-967.30786) matrix(0.26458333,0,0,0.26458333,21.340203,313.20602)"><tspan x="0" y="2771.875">L7</tspan></text><text xml:space="preserve" style="font-size:14.6667px;line-height:1.25;font-family:sans-serif;white-space:pre;shape-inside:url(#ab);display:inline" transform="translate(-15.073794,-967.30786) matrix(0.26458333,0,0,0.26458333,7.2933279,311.33981)"><tspan x="101.578" y="2805.951">L8</tspan></text><path d="M126.186 1005.484v25.174" style="fill:none;stroke:#000;stroke-width:.264584px;stroke-linecap:butt;stroke-linejoin:miter;stroke-opacity:1;marker-start:url(#ac);marker-end:url(#ac)" transform="translate(-15.073794,-967.30786)"/></svg>