<svg xmlns="http://www.w3.org/2000/svg" width="600" height="3000" viewBox="0 0 158.75 793.75"><defs><path id="y" d="M443.777 583.586H490.7v46.31h-46.923z"/><path id="x" d="M289.628 519.072h66.666v40.124h-66.666z"/><path id="v" d="M241.004 802.854H310.6v73.609h-69.596z"/><path id="s" d="M52.191 79.913h33.107v18.3H52.191z"/><path id="q" d="M217.928 289.918h103.906v60.45H217.928z"/><path id="p" d="M200.476 308.166h65.849v40.154h-65.849z"/><path id="o" d="M229.39 267.514h98.707v40.163H229.39z"/><path id="k" d="M245.594 244.874h54.004v34.66h-54.004z"/><path id="i" d="M241.86 255.216h59.177v38.415H241.86z"/><path id="h" d="M258.305 263.041h70.645v30.995h-70.645z"/><path id="g" d="M282.239 259.527h40.964v30.391h-40.964z"/><path id="f" d="M384.473 255.367h49.055v37.86h-49.055z"/><path id="e" d="M259.937 238.564h82.675v59.419h-82.675z"/><path id="d" d="M356.634 93.008h54.775v29.439h-54.775z"/><path id="a" d="M15.292 14.941h276.249V70.63H15.292z"/><path id="m" d="M245.594 244.874h54.004v34.66h-54.004z"/><path id="w" d="M241.004 802.854H310.6v73.609h-69.596z"/><marker id="b" markerHeight="1" markerWidth="1" orient="auto-start-reverse" preserveAspectRatio="xMidYMid" refX="0" refY="0" style="overflow:visible" viewBox="0 0 1 1"><path d="M-.211-4.106 6.21-.894a1 1 90 0 1 0 1.788L-.21 4.106A1.236 1.236 31.717 0 1-2 3v-6A1.236 1.236 148.283 0 1-.211-4.106" style="fill:context-stroke;fill-rule:evenodd;stroke:none" transform="scale(0.7)"/></marker><marker id="j" markerHeight="1" markerWidth="1" orient="auto-start-reverse" preserveAspectRatio="xMidYMid" refX="0" refY="0" style="overflow:visible" viewBox="0 0 1 1"><path d="M-.211-4.106 6.21-.894a1 1 90 0 1 0 1.788L-.21 4.106A1.236 1.236 31.717 0 1-2 3v-6A1.236 1.236 148.283 0 1-.211-4.106" style="fill:context-stroke;fill-rule:evenodd;stroke:none" transform="scale(0.7)"/></marker><marker id="l" markerHeight="1" markerWidth="1" orient="auto-start-reverse" preserveAspectRatio="xMidYMid" refX="0" refY="0" style="overflow:visible" viewBox="0 0 1 1"><path d="M-.211-4.106 6.21-.894a1 1 90 0 1 0 1.788L-.21 4.106A1.236 1.236 31.717 0 1-2 3v-6A1.236 1.236 148.283 0 1-.211-4.106" style="fill:context-stroke;fill-rule:evenodd;stroke:none" transform="scale(0.7)"/></marker><marker id="n" markerHeight="1" markerWidth="1" orient="auto-start-reverse" preserveAspectRatio="xMidYMid" refX="0" refY="0" style="overflow:visible" viewBox="0 0 1 1"><path d="M-.211-4.106 6.21-.894a1 1 90 0 1 0 1.788L-.21 4.106A1.236 1.236 31.717 0 1-2 3v-6A1.236 1.236 148.283 0 1-.211-4.106" style="fill:context-stroke;fill-rule:evenodd;stroke:none" transform="scale(0.7)"/></marker><marker id="c" markerHeight="1" markerWidth="1" orient="auto-start-reverse" preserveAspectRatio="xMidYMid" refX="0" refY="0" style="overflow:visible" viewBox="0 0 1 1"><path d="M-.211-4.106 6.21-.894a1 1 90 0 1 0 1.788L-.21 4.106A1.236 1.236 31.717 0 1-2 3v-6A1.236 1.236 148.283 0 1-.211-4.106" style="fill:context-stroke;fill-rule:evenodd;stroke:none" transform="scale(0.7)"/></marker><marker id="r" markerHeight="1" markerWidth="1" orient="auto-start-reverse" preserveAspectRatio="xMidYMid" refX="0" refY="0" style="overflow:visible" viewBox="0 0 1 1"><path d="M-.211-4.106 6.21-.894a1 1 90 0 1 0 1.788L-.21 4.106A1.236 1.236 31.717 0 1-2 3v-6A1.236 1.236 148.283 0 1-.211-4.106" style="fill:context-stroke;fill-rule:evenodd;stroke:none" transform="scale(0.7)"/></marker><marker id="t" markerHeight="1" markerWidth="1" orient="auto-start-reverse" preserveAspectRatio="xMidYMid" refX="0" refY="0" style="overflow:visible" viewBox="0 0 1 1"><path d="M-.211-4.106 6.21-.894a1 1 90 0 1 0 1.788L-.21 4.106A1.236 1.236 31.717 0 1-2 3v-6A1.236 1.236 148.283 0 1-.211-4.106" style="fill:context-stroke;fill-rule:evenodd;stroke:none" transform="scale(0.7)"/></marker><marker id="u" markerHeight="1" markerWidth="1" orient="auto-start-reverse" preserveAspectRatio="xMidYMid" refX="0" refY="0" style="overflow:visible" viewBox="0 0 1 1"><path d="M-.211-4.106 6.21-.894a1 1 90 0 1 0 1.788L-.21 4.106A1.236 1.236 31.717 0 1-2 3v-6A1.236 1.236 148.283 0 1-.211-4.106" style="fill:context-stroke;fill-rule:evenodd;stroke:none" transform="scale(0.7)"/></marker></defs><path d="M3.271 25.386h144.684v89.029H3.271zM25.454 131.914h96.537v78.92H25.454z" style="fill:#fff;stroke:#fff;stroke-width:.264583;stroke-linejoin:bevel"/><text xml:space="preserve" style="font-size:14.6667px;line-height:1.25;font-family:sans-serif;white-space:pre;shape-inside:url(#a);display:inline" transform="scale(0.26458333)"><tspan x="15.291" y="27.918">spider.svg</tspan></text><circle cx="79.375" cy="57.185" r="4.593" style="fill:#d45500;stroke:#fff;stroke-width:.264583;stroke-linejoin:bevel"/><circle cx="79.375" cy="57.185" r="2.6" style="fill:#fff;stroke:#d45500;stroke-width:.264583;stroke-linejoin:bevel"/><path d="M78.534 59.785h1.682v18.018h-1.682z" style="fill:#d45500;stroke:#d45500;stroke-width:.264583;stroke-linejoin:bevel"/><path d="M78.067-124.709h1.682v90.667h-1.682z" style="fill:#d45500;stroke:#d45500;stroke-width:.264583;stroke-linejoin:bevel" transform="rotate(90)"/><path d="M78.678 32.604h1.682v18.018h-1.682z" style="fill:#d45500;stroke:#d45500;stroke-width:.264583;stroke-linejoin:bevel" transform="rotate(43.931476)"/><path d="M-35.649 142.744h1.682v18.018h-1.682z" style="fill:#d45500;stroke:#d45500;stroke-width:.264583;stroke-linejoin:bevel" transform="matrix(-0.72017008,0.69379757,0.69379757,0.72017008,0,0)"/><path d="M74.313 48.514h10.529v10.529H74.313z" style="fill:#d45500;stroke:#d45500;stroke-width:.264583;stroke-linejoin:bevel" transform="rotate(43.998468)"/><path d="M76.327 50.528h6.501v6.501h-6.501z" style="fill:#f9f9f9;stroke:#d45500;stroke-width:.264583;stroke-linejoin:bevel" transform="rotate(43.998468)"/><path d="M159.9-34.243h10.529v10.529H159.9z" style="fill:#d45500;stroke:#d45500;stroke-width:.264583;stroke-linejoin:bevel" transform="rotate(43.998468)"/><path d="M161.914-32.229h6.501v6.501h-6.501z" style="fill:#f9f9f9;stroke:#d45500;stroke-width:.264583;stroke-linejoin:bevel" transform="rotate(43.998468)"/><path d="M79.375 57.185h31.158M33.728 205.914v-11.943M34.004 77.842l42.543-44.027" style="fill:none;stroke:#b3b3b3;stroke-width:.264583px;stroke-linecap:butt;stroke-linejoin:miter;stroke-opacity:1"/><path d="m79.374 57.184 10.264-10.627" style="fill:none;stroke:#b3b3b3;stroke-width:.264584px;stroke-linecap:butt;stroke-linejoin:miter;stroke-opacity:1"/><path d="M88.806 45.513 77.564 34.68" style="fill:#000;stroke:#000;stroke-width:.264582px;stroke-linecap:butt;stroke-linejoin:miter;stroke-opacity:1;marker-start:url(#b);marker-end:url(#b)"/><path d="m31.651 110.878 5.485-5.72" style="fill:#000;stroke:#000;stroke-width:.264582px;stroke-linecap:butt;stroke-linejoin:miter;stroke-opacity:1;marker-start:url(#c);marker-end:url(#c)"/><path d="M110.533 76.846v-18.43" style="fill:#000;stroke:#000;stroke-width:.264583px;stroke-linecap:butt;stroke-linejoin:miter;stroke-opacity:1;marker-start:url(#b);marker-end:url(#b)"/><path d="M88.167 50.234s1.61 1.188 1.958 2.073c.44 1.115-.02 3.596-.02 3.596" style="fill:none;stroke:#000;stroke-width:.264583px;stroke-linecap:butt;stroke-linejoin:miter;stroke-opacity:1;marker-start:url(#b);marker-end:url(#b)"/><text xml:space="preserve" style="font-size:14.6667px;line-height:1.25;font-family:sans-serif;white-space:pre;shape-inside:url(#d);display:inline" transform="matrix(0.26458333,0,0,0.26458333,-3.9272461,25.255413)"><tspan x="356.635" y="105.984">45°</tspan></text><text xml:space="preserve" style="font-size:14.6667px;line-height:1.25;font-family:sans-serif;white-space:pre;shape-inside:url(#e);display:inline" transform="matrix(0.26458333,0,0,0.26458333,43.205078,2.5766986)"><tspan x="259.938" y="251.541">L1</tspan></text><text xml:space="preserve" style="font-size:14.6667px;line-height:1.25;font-family:sans-serif;white-space:pre;shape-inside:url(#f);display:inline" transform="matrix(0.26458333,0,0,0.26458333,-18.386719,-32.78218)"><tspan x="384.473" y="268.344">L2</tspan></text><text xml:space="preserve" style="font-size:14.6667px;line-height:1.25;font-family:sans-serif;white-space:pre;shape-inside:url(#g);display:inline" transform="matrix(0.26458333,0,0,0.26458333,-4.4467774,-12.999954)"><tspan x="282.238" y="272.504">E1</tspan></text><text xml:space="preserve" style="font-size:14.6667px;line-height:1.25;font-family:sans-serif;white-space:pre;shape-inside:url(#h);display:inline" transform="matrix(0.26458333,0,0,0.26458333,12.82373,4.0220107)"><tspan x="258.305" y="276.018">E2</tspan></text><path d="m70.881 63.358 3.53-3.042" style="fill:none;stroke:#000;stroke-width:.264583px;stroke-linecap:butt;stroke-linejoin:miter;stroke-opacity:1;marker-end:url(#b)"/><text xml:space="preserve" style="font-size:14.6667px;line-height:1.25;font-family:sans-serif;white-space:pre;shape-inside:url(#i);display:inline" transform="matrix(0.26458333,0,0,0.26458333,1.7543945,-5.8368704)"><tspan x="241.859" y="268.193">D1</tspan></text><path d="m73.447 73.702 3.529 3.042" style="fill:none;stroke:#000;stroke-width:.264583px;stroke-linecap:butt;stroke-linejoin:miter;stroke-opacity:1;marker-end:url(#j)"/><text xml:space="preserve" style="font-size:14.6667px;line-height:1.25;font-family:sans-serif;white-space:pre;shape-inside:url(#k);display:inline" transform="matrix(0.26458333,0,0,0.26458333,2.90625,6.2754275)"><tspan x="245.594" y="257.85">R2</tspan></text><path d="m39.968 84.418-3.53-3.043" style="fill:none;stroke:#000;stroke-width:.264583px;stroke-linecap:butt;stroke-linejoin:miter;stroke-opacity:1;marker-end:url(#l)"/><text xml:space="preserve" style="font-size:14.6667px;line-height:1.25;font-family:sans-serif;white-space:pre;shape-inside:url(#m);display:inline" transform="matrix(0.26458333,0,0,0.26458333,-24.344627,18.590273)"><tspan x="245.594" y="257.85">R2</tspan></text><path d="m28.713 73.634 3.528 3.042" style="fill:none;stroke:#000;stroke-width:.264583px;stroke-linecap:butt;stroke-linejoin:miter;stroke-opacity:1;marker-end:url(#n)"/><text xml:space="preserve" style="font-size:14.6667px;line-height:1.25;font-family:sans-serif;white-space:pre;shape-inside:url(#o);display:inline" transform="matrix(0.26458333,0,0,0.26458333,-39.48877,-1.4169511)"><tspan x="229.391" y="280.49">R2+E2</tspan></text><path d="m30.645 111.672-10.627-10.264M37.959 104.098 27.333 93.834" style="fill:none;stroke:#b3b3b3;stroke-width:.264584px;stroke-linecap:butt;stroke-linejoin:miter;stroke-opacity:1"/><text xml:space="preserve" style="font-size:14.6667px;line-height:1.25;font-family:sans-serif;white-space:pre;shape-inside:url(#p);display:inline" transform="matrix(0.26458333,0,0,0.26458333,-17.382813,26.861371)"><tspan x="200.475" y="321.143">L3</tspan></text><text xml:space="preserve" style="font-size:14.6667px;line-height:1.25;font-family:sans-serif;white-space:pre;shape-inside:url(#q);display:inline" transform="matrix(0.26458333,0,0,0.26458333,-33.938477,21.052286)"><tspan x="217.928" y="302.895">E3</tspan></text><path d="M19.797 86.329 4.901 71.939" style="fill:none;stroke:#b3b3b3;stroke-width:.264584px;stroke-linecap:butt;stroke-linejoin:miter;stroke-opacity:1"/><path d="M79.285 57.148 48.372 27.279" style="fill:none;stroke:#b3b3b3;stroke-width:.264583px;stroke-linecap:butt;stroke-linejoin:miter;stroke-opacity:1"/><path d="M47.353 27.892 5.735 70.89" style="fill:#000;stroke:#000;stroke-width:.264582px;stroke-linecap:butt;stroke-linejoin:miter;stroke-opacity:1;marker-start:url(#r);marker-end:url(#r)"/><text xml:space="preserve" style="font-size:14.6667px;line-height:1.25;font-family:sans-serif;white-space:pre;shape-inside:url(#s);display:inline" transform="matrix(0.26458333,0,0,0.26458333,8.8442383,23.60258)"><tspan x="52.191" y="92.889">L4</tspan></text><path d="M158.922-112.955h4.652v79.226h-4.652zM186.593-112.955h7.246v79.226h-7.246z" style="fill:#ff7f2a;stroke:#ff7f2a;stroke-width:.264583;stroke-linejoin:bevel" transform="rotate(90)"/><path d="M-37.075-186.593h3.346v22.886h-3.346z" style="fill:#d45500;stroke:none;stroke-width:.264583;stroke-linejoin:bevel" transform="scale(-1)"/><path d="M-165.38-29.422h3.346v15.624h-3.346z" style="fill:#d45500;stroke:none;stroke-width:.264583;stroke-linejoin:bevel" transform="rotate(-90)"/><path d="M-56.045-186.593h3.346v22.886h-3.346zM-75.015-186.593h3.346v22.886h-3.346zM-93.985-186.593h3.346v22.886h-3.346zM-112.955-186.593h3.346v22.886h-3.346z" style="fill:#d45500;stroke:none;stroke-width:.264583;stroke-linejoin:bevel" transform="scale(-1)"/><path d="M113.087 205.914v-11.943" style="fill:none;stroke:#b3b3b3;stroke-width:.264583px;stroke-linecap:butt;stroke-linejoin:miter;stroke-opacity:1"/><path d="M35.078 206.046h76.904" style="fill:none;stroke:#000;stroke-width:.264583px;stroke-linecap:butt;stroke-linejoin:miter;stroke-opacity:1;marker-start:url(#b);marker-end:url(#b)"/><path d="M33.86 163.707v-22.658M37.207 163.707v-22.658" style="fill:none;stroke:#b3b3b3;stroke-width:.264582px;stroke-linecap:butt;stroke-linejoin:miter;stroke-opacity:1"/><path d="M28.875 141.049h3.715" style="fill:none;stroke:#000;stroke-width:.264583px;stroke-linecap:butt;stroke-linejoin:miter;stroke-opacity:1;marker-end:url(#t)"/><path d="M42.307 141.049h-3.715" style="fill:none;stroke:#000;stroke-width:.264583px;stroke-linecap:butt;stroke-linejoin:miter;stroke-opacity:1;marker-end:url(#u)"/><text xml:space="preserve" style="font-size:14.6667px;line-height:1.25;font-family:sans-serif;white-space:pre;shape-inside:url(#v);display:inline" transform="matrix(0.26458333,0,0,0.26458333,7.8811015,-11.313902)"><tspan x="241.004" y="815.83">L5</tspan></text><text xml:space="preserve" style="font-size:14.6667px;line-height:1.25;font-family:sans-serif;white-space:pre;shape-inside:url(#w);display:inline" transform="matrix(0.26458333,0,0,0.26458333,-30.267371,-77.721675)"><tspan x="241.004" y="815.83">L6</tspan></text><text xml:space="preserve" style="font-size:14.6667px;line-height:1.25;font-family:sans-serif;white-space:pre;shape-inside:url(#x);display:inline" transform="matrix(0.26458333,0,0,0.26458333,4.1132813,10.448242)"><tspan x="289.629" y="532.049">N1</tspan></text><path d="m82.56 152.467-6.264 14.023" style="fill:none;stroke:#000;stroke-width:.264583px;stroke-linecap:butt;stroke-linejoin:miter;stroke-opacity:1;marker-end:url(#b)"/><path d="m83.307 152.246 6.173 13.414" style="fill:none;stroke:#000;stroke-width:.264583px;stroke-linecap:butt;stroke-linejoin:miter;stroke-opacity:1;marker-end:url(#b)"/><text xml:space="preserve" style="font-size:14.6667px;line-height:1.25;font-family:sans-serif;white-space:pre;shape-inside:url(#y);display:inline" transform="matrix(0.26458333,0,0,0.26458333,-3.0439453,5.0087891)"><tspan x="443.777" y="596.563">D1</tspan></text></svg>