<?xml version="1.0" encoding="UTF-8" standalone="no"?>
<!-- Created with Inkscape (http://www.inkscape.org/) -->

<svg
   width="76.446724"
   height="74.500488"
   viewBox="0 0 20.226529 19.711587"
   version="1.1"
   id="svg5"
   inkscape:version="1.3.2 (1:1.3.2+202311252150+091e20ef0f)"
   sodipodi:docname="src_menu_icons.svg"
   inkscape:export-filename="page_spider.svg"
   inkscape:export-xdpi="96"
   inkscape:export-ydpi="96"
   xmlns:inkscape="http://www.inkscape.org/namespaces/inkscape"
   xmlns:sodipodi="http://sodipodi.sourceforge.net/DTD/sodipodi-0.dtd"
   xmlns="http://www.w3.org/2000/svg"
   xmlns:svg="http://www.w3.org/2000/svg">
  <sodipodi:namedview
     id="namedview7"
     pagecolor="#ffffff"
     bordercolor="#666666"
     borderopacity="1.0"
     inkscape:showpageshadow="2"
     inkscape:pageopacity="0.0"
     inkscape:pagecheckerboard="0"
     inkscape:deskcolor="#d1d1d1"
     inkscape:document-units="px"
     showgrid="false"
     inkscape:zoom="3.1458974"
     inkscape:cx="354.11199"
     inkscape:cy="1315.3639"
     inkscape:window-width="1854"
     inkscape:window-height="1131"
     inkscape:window-x="66"
     inkscape:window-y="32"
     inkscape:window-maximized="1"
     inkscape:current-layer="layer1" />
  <defs
     id="defs2" />
  <g
     inkscape:label="Layer 1"
     inkscape:groupmode="layer"
     id="layer1"
     transform="translate(-17.632009,-320.30542)">
    <path
       style="fill:#0000ff;stroke:#0000ff;stroke-width:0.264583"
       d="m 28.56521,328.67805 0.09844,-0.10869 0.327297,-0.22093 0.548924,-0.20719 0.258662,0.27485 -0.240104,0.53536 -0.240354,0.31331 -0.11444,0.0916 0.342331,0.47615 0.123078,-0.0797 0.372844,-0.12902 0.583004,-0.0585 0.178281,0.33285 -0.370129,0.45586 -0.312905,0.24095 -0.134099,0.059 0.206858,0.54922 0.139327,-0.0453 0.392977,-0.0284 0.577361,0.0943 0.08575,0.36813 -0.474993,0.34525 -0.364135,0.15212 -0.144656,0.0225 0.0573,0.58491 0.146093,-0.008 0.386292,0.0742 0.532381,0.24064 -0.01262,0.37838 -0.547446,0.21112 -0.390541,0.053 -0.14529,-0.0158 -0.09618,0.58071 0.142876,0.0303 0.353326,0.17173 0.451096,0.37058 -0.110131,0.36277 -0.582597,0.0627 -0.390374,-0.0498 -0.136032,-0.0528 -0.243094,0.53694 0.129929,0.0663 0.296268,0.2576 0.339095,0.47522 -0.200145,0.32251 -0.578043,-0.0902 -0.363568,-0.14917 -0.117527,-0.0862 -0.373453,0.45657 0.108141,0.0978 0.219018,0.32589 0.203981,0.54751 -0.276512,0.26023 -0.534112,-0.23681 -0.311996,-0.23839 -0.091,-0.11387 -0.478358,0.34509 0.07898,0.12255 0.126844,0.37196 0.05495,0.58246 -0.33403,0.18023 -0.453774,-0.3673 -0.239154,-0.31136 -0.05827,-0.1337 -0.550668,0.21009 0.04443,0.13899 0.02603,0.39269 -0.09783,0.57774 -0.36877,0.0879 -0.342527,-0.47275 -0.149991,-0.3631 -0.02158,-0.14446 -0.58546,0.0608 0.0069,0.14599 -0.07657,0.38662 -0.243916,0.53366 -0.378445,-0.01 -0.207899,-0.54602 -0.05066,-0.39009 0.01658,-0.14536 -0.580343,-0.0926 -0.03114,0.14303 -0.173918,0.35426 -0.373409,0.45319 -0.362239,-0.10792 -0.05914,-0.58204 0.05214,-0.39055 0.0536,-0.13633 -0.535656,-0.23979 -0.06708,0.13027 -0.259472,0.29773 -0.477448,0.34182 -0.321414,-0.19814 0.09368,-0.57841 0.151398,-0.36434 0.08701,-0.11803 -0.454492,-0.37059 -0.09844,0.1087 -0.327297,0.22092 -0.548917,0.20721 -0.258662,-0.27487 0.240098,-0.53537 0.240354,-0.3133 0.11444,-0.0917 -0.342332,-0.47614 -0.123078,0.0797 -0.372844,0.12903 -0.583004,0.0585 -0.178281,-0.33284 0.370129,-0.45585 0.312905,-0.24096 0.134099,-0.059 -0.206858,-0.54923 -0.139327,0.0453 -0.392969,0.0284 -0.577369,-0.0943 -0.08575,-0.36812 0.474993,-0.34526 0.364134,-0.15212 0.144656,-0.0225 -0.05729,-0.5849 -0.146093,0.008 -0.38629,-0.0742 -0.532383,-0.24064 0.01262,-0.37839 0.547453,-0.2111 0.390534,-0.053 0.145291,0.0157 0.09618,-0.58071 -0.142868,-0.0303 -0.353326,-0.17173 -0.451104,-0.37059 0.110131,-0.36277 0.582605,-0.0627 0.390367,0.0498 0.136033,0.0528 0.243093,-0.53693 -0.129929,-0.0663 -0.296267,-0.25761 -0.339095,-0.47522 0.200144,-0.32251 0.578052,0.0902 0.36356,0.14915 0.117526,0.0862 0.373453,-0.45656 -0.108141,-0.0978 -0.219019,-0.32589 -0.203971,-0.5475 0.27651,-0.26023 0.534105,0.23679 0.311996,0.2384 0.09099,0.11387 0.478359,-0.3451 -0.07898,-0.12255 -0.126836,-0.37194 -0.05495,-0.58247 0.33403,-0.18024 0.453774,0.36731 0.239154,0.31135 0.05827,0.13371 0.550669,-0.21009 -0.04443,-0.13899 -0.02602,-0.39269 0.09782,-0.57774 0.36877,-0.088 0.342535,0.47277 0.14999,0.3631 0.02158,0.14444 0.58546,-0.0608 -0.0069,-0.14598 0.07658,-0.38662 0.243907,-0.53366 0.378448,0.01 0.207897,0.54601 0.05066,0.39009 -0.01658,0.14536 0.580336,0.0926 0.03114,-0.14305 0.173918,-0.35424 0.373408,-0.45321 0.362233,0.10793 0.05914,0.58204 -0.05215,0.39053 -0.05359,0.13634 0.535655,0.23979 0.06708,-0.13028 0.259473,-0.29773 0.477448,-0.34181 0.321413,0.19814 -0.09368,0.57841 -0.151397,0.36435 -0.087,0.11802 z"
       id="path12" />
    <ellipse
       style="fill:#ffffff;stroke:#ffffff;stroke-width:0.264583"
       id="path13"
       cx="-210.26602"
       cy="259.39212"
       rx="4.9426708"
       ry="4.9130192"
       transform="matrix(0.72821826,-0.68534529,0.68531925,0.72824276,0,0)" />
    <path
       style="fill:#800080;stroke:#800080;stroke-width:0.264583"
       d="m 35.290432,322.445 0.168406,-0.1963 0.22758,-0.1626 0.559894,-0.20291 0.243651,0.25892 -0.236463,0.54658 -0.176108,0.21732 -0.206142,0.15619 0.330219,0.51615 0.227567,-0.12269 0.270505,-0.0698 0.594184,0.0126 0.133094,0.32997 -0.41752,0.42546 -0.242375,0.13948 -0.24824,0.0716 0.120686,0.60165 0.25609,-0.0325 0.276865,0.0324 0.548217,0.22634 0.0046,0.35646 -0.542148,0.24689 -0.275894,0.0428 -0.25678,-0.0228 -0.105146,0.60591 0.249951,0.0621 0.24584,0.13029 0.428241,0.40949 -0.124547,0.33486 -0.593576,0.0349 -0.272151,-0.0596 -0.230652,-0.11401 -0.316776,0.52835 0.210064,0.14834 0.181626,0.21055 0.250424,0.53741 -0.23686,0.26799 -0.564853,-0.18169 -0.231644,-0.15397 -0.173388,-0.18987 -0.485606,0.37944 0.141828,0.21454 0.09288,0.26238 0.03876,0.59271 -0.317236,0.16488 -0.45981,-0.37378 -0.159872,-0.22758 -0.09269,-0.24006 -0.58889,0.17923 0.05442,0.25173 -0.0084,0.27878 -0.178115,0.56799 -0.354714,0.0395 -0.292681,-0.51542 -0.06649,-0.27042 5.31e-4,-0.25784 -0.612619,-0.0451 -0.04034,0.25491 -0.10857,0.25753 -0.370981,0.4665 -0.344271,-0.0911 -0.08603,-0.58744 0.03588,-0.27678 0.09366,-0.24078 -0.553611,-0.26342 -0.129674,0.22367 -0.19404,0.20151 -0.513689,0.30207 -0.287335,-0.20949 0.132232,-0.5801 0.133356,-0.24573 0.174142,-0.19126 -0.419831,-0.44613 -0.201462,0.16223 -0.253355,0.11821 -0.587043,0.0968 -0.191664,-0.29953 0.332648,-0.49444 0.212908,-0.18146 0.231107,-0.11589 -0.229348,-0.56858 -0.246024,0.0788 -0.278423,0.0191 -0.581125,-0.1215 -0.07004,-0.34917 0.488111,-0.34202 0.263637,-0.0927 0.256881,-0.0248 -0.0079,-0.61425 -0.25739,-0.0151 -0.265878,-0.0828 -0.496709,-0.32341 0.06101,-0.35168 0.577719,-0.14334 0.278766,0.009 0.247955,0.0696 0.214613,-0.57696 -0.233986,-0.10704 -0.217461,-0.1734 -0.345194,-0.48164 0.183803,-0.30667 0.589257,0.0747 0.256247,0.10859 0.205541,0.15458 0.408173,-0.46171 -0.179002,-0.18459 -0.139627,-0.24056 -0.147088,-0.57484 0.281841,-0.22019 0.521229,0.28257 0.199134,0.19406 0.135329,0.21869 0.546561,-0.28417 -0.09979,-0.23715 -0.04298,-0.27527 0.07091,-0.59039 0.34176,-0.10407 0.382771,0.45231 0.115137,0.25329 0.04688,0.25328 0.611154,-0.0683 -0.0072,-0.25769 0.0595,-0.2728 0.279304,-0.52621 0.355516,0.0262 0.192659,0.56094 0.01557,0.27834 -0.04793,0.25366 0.59321,0.15695 0.08647,-0.24345 0.153925,-0.23348 0.449971,-0.39097 0.321287,0.15286 -0.02348,0.59389 -0.08611,0.26577 -0.136245,0.21971 z"
       id="path14" />
    <ellipse
       style="fill:#ffffff;stroke:#ffffff;stroke-width:0.264583"
       id="path15"
       cx="-199.23524"
       cy="259.42017"
       rx="3.1941512"
       ry="3.1749892"
       transform="matrix(0.72821826,-0.68534529,0.68531925,0.72824276,0,0)" />
    <rect
       style="fill:none;stroke:#e6e6e6;stroke-width:0.264583"
       id="rect111-3-3-3-36-3-3-35-3-36"
       width="21.166666"
       height="21.166666"
       x="17.120314"
       y="319.58664"
       inkscape:export-filename="../24168d4b/page_index.png"
       inkscape:export-xdpi="96"
       inkscape:export-ydpi="96" />
  </g>
</svg>
