<?xml version="1.0" encoding="UTF-8" standalone="no"?>
<!-- Created with Inkscape (http://www.inkscape.org/) -->

<svg
   width="63.861008"
   height="67.594482"
   viewBox="0 0 16.896558 17.884373"
   version="1.1"
   id="svg5"
   inkscape:version="1.3.2 (1:1.3.2+202311252150+091e20ef0f)"
   sodipodi:docname="src_menu_icons.svg"
   inkscape:export-filename="page_spider.svg"
   inkscape:export-xdpi="96"
   inkscape:export-ydpi="96"
   xmlns:inkscape="http://www.inkscape.org/namespaces/inkscape"
   xmlns:sodipodi="http://sodipodi.sourceforge.net/DTD/sodipodi-0.dtd"
   xmlns="http://www.w3.org/2000/svg"
   xmlns:svg="http://www.w3.org/2000/svg">
  <sodipodi:namedview
     id="namedview7"
     pagecolor="#ffffff"
     bordercolor="#666666"
     borderopacity="1.0"
     inkscape:showpageshadow="2"
     inkscape:pageopacity="0.0"
     inkscape:pagecheckerboard="0"
     inkscape:deskcolor="#d1d1d1"
     inkscape:document-units="px"
     showgrid="false"
     inkscape:zoom="3.1458974"
     inkscape:cx="354.11199"
     inkscape:cy="1315.3639"
     inkscape:window-width="1854"
     inkscape:window-height="1131"
     inkscape:window-x="66"
     inkscape:window-y="32"
     inkscape:window-maximized="1"
     inkscape:current-layer="layer1" />
  <defs
     id="defs2" />
  <g
     inkscape:label="Layer 1"
     inkscape:groupmode="layer"
     id="layer1"
     transform="translate(-49.015224,-321.18412)">
    <path
       style="fill:#800080;stroke:#800080;stroke-width:0.264583"
       d="m 61.704548,324.28308 0.11445,-0.12635 0.380526,-0.25682 0.638196,-0.24085 0.300729,0.3195 -0.279152,0.62234 -0.279444,0.36421 -0.133051,0.10648 0.398005,0.55351 0.143094,-0.0926 0.43348,-0.14998 0.67782,-0.068 0.207275,0.38692 -0.430324,0.52992 -0.363793,0.2801 -0.155908,0.0686 0.240499,0.63845 0.161987,-0.0527 0.456887,-0.033 0.671259,0.10962 0.0997,0.42794 -0.552242,0.40134 -0.423355,0.17683 -0.168182,0.0262 0.06662,0.67993 0.169853,-0.009 0.449115,0.0863 0.618963,0.27973 -0.01467,0.43986 -0.636478,0.24542 -0.454056,0.0616 -0.168919,-0.0184 -0.111822,0.67506 0.166113,0.0352 0.410788,0.19963 0.524458,0.43078 -0.128041,0.42171 -0.677346,0.0729 -0.453862,-0.0579 -0.158155,-0.0614 -0.282629,0.62417 0.15106,0.0771 0.344451,0.29945 0.394242,0.55243 -0.232695,0.37491 -0.672051,-0.10486 -0.422696,-0.1734 -0.13664,-0.10021 -0.434189,0.53075 0.125728,0.11369 0.254638,0.37883 0.237155,0.63646 -0.321482,0.30251 -0.620976,-0.27528 -0.362736,-0.27712 -0.1058,-0.13237 -0.556154,0.40115 0.09182,0.14246 0.147473,0.43239 0.06389,0.67709 -0.388354,0.20951 -0.527572,-0.42697 -0.278048,-0.36195 -0.06775,-0.15542 -0.640224,0.24423 0.05166,0.16157 0.03026,0.45648 -0.11374,0.67161 -0.428744,0.10218 -0.398233,-0.54956 -0.174384,-0.42209 -0.02509,-0.16793 -0.680674,0.0707 0.008,0.16971 -0.08902,0.44943 -0.283585,0.62036 -0.439992,-0.0116 -0.24171,-0.63472 -0.0589,-0.45347 0.01928,-0.16897 -0.674726,-0.10765 -0.0362,0.16627 -0.202203,0.41181 -0.434137,0.52682 -0.421151,-0.12545 -0.06876,-0.6766 0.06062,-0.454 0.06232,-0.15848 -0.622771,-0.27875 -0.07799,0.15143 -0.301671,0.3461 -0.555096,0.39736 -0.373686,-0.23033 0.108915,-0.67238 0.17602,-0.42354 0.101161,-0.1372 -0.528407,-0.4308 -0.114449,0.12636 -0.380526,0.25681 -0.638189,0.24088 -0.300729,-0.31953 0.279146,-0.62235 0.279443,-0.3642 0.133052,-0.1066 -0.398006,-0.55349 -0.143095,0.0926 -0.43348,0.14999 -0.677819,0.068 -0.207275,-0.38691 0.430324,-0.52991 0.363793,-0.28011 0.155908,-0.0686 -0.2405,-0.63846 -0.161986,0.0527 -0.456878,0.033 -0.671268,-0.10962 -0.0997,-0.42792 0.552242,-0.40136 0.423354,-0.17683 0.168182,-0.0262 -0.06661,-0.67992 -0.169853,0.009 -0.449113,-0.0863 -0.618965,-0.27973 0.01467,-0.43987 0.636486,-0.24539 0.454048,-0.0616 0.16892,0.0183 0.111822,-0.67506 -0.166103,-0.0352 -0.410788,-0.19963 -0.524468,-0.4308 0.128042,-0.4217 0.677355,-0.0729 0.453853,0.0579 0.158156,0.0614 0.282628,-0.62416 -0.15106,-0.0771 -0.344449,-0.29947 -0.394243,-0.55242 0.232694,-0.37491 0.672062,0.10486 0.422686,0.17338 0.13664,0.1002 0.434188,-0.53073 -0.125728,-0.11369 -0.254639,-0.37884 -0.237143,-0.63645 0.32148,-0.3025 0.620967,0.27526 0.362737,0.27713 0.105788,0.13237 0.556155,-0.40117 -0.09183,-0.14246 -0.147463,-0.43237 -0.06389,-0.6771 0.388354,-0.20952 0.527572,0.42699 0.278048,0.36193 0.06775,0.15543 0.640225,-0.24422 -0.05165,-0.16157 -0.03025,-0.45649 0.113729,-0.6716 0.428743,-0.1023 0.398243,0.54958 0.174383,0.42209 0.02509,0.16791 0.680675,-0.0707 -0.008,-0.1697 0.08903,-0.44943 0.283574,-0.62036 0.439996,0.0116 0.241708,0.63471 0.0589,0.45347 -0.01928,0.16897 0.674717,0.10765 0.0362,-0.16629 0.202202,-0.41179 0.434136,-0.52684 0.421144,0.12546 0.06876,0.6766 -0.06063,0.45398 -0.06231,0.15849 0.62277,0.27875 0.07799,-0.15145 0.301672,-0.3461 0.555096,-0.39734 0.373685,0.23033 -0.108915,0.67238 -0.176019,0.42354 -0.101149,0.1372 z"
       id="path12-7" />
    <ellipse
       style="fill:#ffffff;stroke:#ffffff;stroke-width:0.264583"
       id="path13-5"
       cx="-184.08661"
       cy="278.992"
       rx="5.7461162"
       ry="5.7115946"
       transform="matrix(0.72826777,-0.68529268,0.68537186,0.72819325,0,0)" />
    <path
       style="fill:#0000ff;stroke:#0000ff;stroke-width:0.264583"
       d="m 49.862733,338.49153 c 0,-0.43436 0.0035,-0.45678 0.157917,-1.05305 l 0.157916,-0.60921 h 0.255996 0.255998 l 0.161088,0.62471 0.16109,0.62472 h 0.342197 0.342197 l 0.161089,-0.62472 0.16109,-0.62471 h 0.256181 0.256183 l 0.161365,0.62471 0.161365,0.62472 h 0.341085 0.341084 l 0.162022,-0.62472 0.16202,-0.62471 0.251472,-0.0122 0.251472,-0.0122 0.0572,0.21663 c 0.03145,0.11926 0.106474,0.40558 0.166696,0.6365 l 0.109485,0.41991 0.340541,-6e-5 0.340539,-1e-4 0.161227,-0.62462 0.161227,-0.62465 0.252066,-0.0122 0.252062,-0.0122 0.109892,0.42145 c 0.06045,0.23173 0.135445,0.51817 0.166676,0.63647 l 0.05679,0.21509 0.34169,-5e-5 0.34169,-6e-5 0.161226,-0.62464 0.161227,-0.62465 0.251682,-0.0122 0.251679,-0.0122 0.161762,0.62622 0.161762,0.62623 h 0.346455 0.346455 l 0.161451,-0.62419 0.161451,-0.62419 h 0.251561 0.25156 l 0.16109,0.62473 0.161088,0.62471 h 0.346119 0.346118 l 0.162882,-0.62441 0.162882,-0.62436 h 0.249634 0.249635 l 0.162089,0.62473 0.16209,0.6247 h 0.346893 0.346892 l 0.162091,-0.6247 0.162088,-0.62473 h 0.250571 0.250568 l 0.162091,0.62473 0.162088,0.6247 h 0.34597 0.345966 l 0.161089,-0.6247 0.16109,-0.62473 h 0.251854 0.251847 l 0.157434,0.61451 c 0.08658,0.33796 0.168746,0.61447 0.182579,0.61447 0.0138,0 0.02514,0.16341 0.02514,0.36266 v 0.36267 l -2.274872,0.0277 c -1.25118,0.0163 -4.295925,0.0447 -6.7661,0.0666 -2.470174,0.0216 -5.027762,0.0485 -5.683523,0.0592 l -1.192298,0.0183 z"
       id="path18" />
    <rect
       style="fill:none;stroke:#e6e6e6;stroke-width:0.264583"
       id="rect111-3-3-3-36-3-3-35-3-36-6"
       width="21.166666"
       height="21.166666"
       x="47.112461"
       y="319.87756"
       inkscape:export-filename="../24168d4b/page_index.png"
       inkscape:export-xdpi="96"
       inkscape:export-ydpi="96" />
  </g>
</svg>
