<?xml version="1.0" encoding="UTF-8" standalone="no"?>
<!-- Created with Inkscape (http://www.inkscape.org/) -->

<svg
   width="69.518097"
   height="69.485718"
   viewBox="0 0 18.39333 18.384762"
   version="1.1"
   id="svg5"
   inkscape:version="1.3.2 (1:1.3.2+202311252150+091e20ef0f)"
   sodipodi:docname="src_menu_icons.svg"
   inkscape:export-filename="page_spider.svg"
   inkscape:export-xdpi="96"
   inkscape:export-ydpi="96"
   xmlns:inkscape="http://www.inkscape.org/namespaces/inkscape"
   xmlns:sodipodi="http://sodipodi.sourceforge.net/DTD/sodipodi-0.dtd"
   xmlns="http://www.w3.org/2000/svg"
   xmlns:svg="http://www.w3.org/2000/svg">
  <sodipodi:namedview
     id="namedview7"
     pagecolor="#ffffff"
     bordercolor="#666666"
     borderopacity="1.0"
     inkscape:showpageshadow="2"
     inkscape:pageopacity="0.0"
     inkscape:pagecheckerboard="0"
     inkscape:deskcolor="#d1d1d1"
     inkscape:document-units="px"
     showgrid="false"
     inkscape:zoom="3.1458974"
     inkscape:cx="354.11199"
     inkscape:cy="1315.3639"
     inkscape:window-width="1854"
     inkscape:window-height="1131"
     inkscape:window-x="66"
     inkscape:window-y="32"
     inkscape:window-maximized="1"
     inkscape:current-layer="layer1" />
  <defs
     id="defs2" />
  <g
     inkscape:label="Layer 1"
     inkscape:groupmode="layer"
     id="layer1"
     transform="translate(-77.478606,-321.50251)">
    <ellipse
       style="fill:#0000ff;stroke:#0000ff;stroke-width:0.264583"
       id="path13-5-9"
       cx="-163.53203"
       cy="300.23203"
       rx="9.0902958"
       ry="9.0356846"
       transform="matrix(0.72826641,-0.68529413,0.68537043,0.7281946,0,0)" />
    <path
       style="fill:#ffffff;stroke:#ffffff;stroke-width:0.264583"
       d="m 91.230894,325.66465 0.11445,-0.12635 0.38053,-0.25682 0.63819,-0.24085 0.30073,0.3195 -0.27915,0.62234 -0.27944,0.36421 -0.13305,0.10648 0.398,0.55351 0.14309,-0.0926 0.43348,-0.14998 0.67782,-0.068 0.20728,0.38692 -0.43033,0.52992 -0.36379,0.2801 -0.15591,0.0686 0.2405,0.63845 0.16199,-0.0527 0.45689,-0.033 0.67126,0.10962 0.0997,0.42794 -0.55225,0.40134 -0.42335,0.17683 -0.16818,0.0262 0.0666,0.67993 0.16985,-0.009 0.44912,0.0863 0.61896,0.27973 -0.0147,0.43986 -0.63648,0.24542 -0.45406,0.0616 -0.16891,-0.0184 -0.11183,0.67506 0.16612,0.0352 0.41078,0.19963 0.52446,0.43078 -0.12804,0.42171 -0.67734,0.0729 -0.45387,-0.0579 -0.15815,-0.0614 -0.28263,0.62417 0.15106,0.0771 0.34445,0.29945 0.39424,0.55243 -0.23269,0.37491 -0.67205,-0.10486 -0.4227,-0.1734 -0.13664,-0.10021 -0.43419,0.53075 0.12573,0.11369 0.25464,0.37883 0.23715,0.63646 -0.32148,0.30251 -0.62098,-0.27528 -0.36273,-0.27712 -0.1058,-0.13237 -0.55616,0.40115 0.0918,0.14246 0.14748,0.43239 0.0639,0.67709 -0.38836,0.20951 -0.52757,-0.42697 -0.278047,-0.36195 -0.06775,-0.15542 -0.640224,0.24423 0.05166,0.16157 0.03026,0.45648 -0.11374,0.67161 -0.428744,0.10218 -0.398233,-0.54956 -0.174384,-0.42209 -0.02509,-0.16793 -0.680674,0.0707 0.008,0.16971 -0.08902,0.44943 -0.283585,0.62036 -0.439992,-0.0116 -0.24171,-0.63472 -0.0589,-0.45347 0.01928,-0.16897 -0.674726,-0.10765 -0.0362,0.16627 -0.202203,0.41181 -0.434137,0.52682 -0.421151,-0.12545 -0.06876,-0.6766 0.06062,-0.454 0.06232,-0.15848 -0.622771,-0.27875 -0.07799,0.15143 -0.301671,0.3461 -0.555096,0.39736 -0.373686,-0.23033 0.108915,-0.67238 0.17602,-0.42354 0.101161,-0.1372 -0.528407,-0.4308 -0.114449,0.12636 -0.380526,0.25681 -0.638189,0.24088 -0.300729,-0.31953 0.279146,-0.62235 0.279443,-0.3642 0.133052,-0.1066 -0.398006,-0.55349 -0.143095,0.0926 -0.43348,0.14999 -0.677819,0.068 -0.207275,-0.38691 0.430324,-0.52991 0.363793,-0.28011 0.155908,-0.0686 -0.2405,-0.63846 -0.161986,0.0527 -0.456878,0.033 -0.671268,-0.10962 -0.0997,-0.42792 0.552242,-0.40136 0.423354,-0.17683 0.168182,-0.0262 -0.06661,-0.67992 -0.169853,0.009 -0.449113,-0.0863 -0.618965,-0.27973 0.01467,-0.43987 0.636486,-0.24539 0.454048,-0.0616 0.16892,0.0183 0.111822,-0.67506 -0.166103,-0.0352 -0.410788,-0.19963 -0.524468,-0.4308 0.128042,-0.4217 0.677355,-0.0729 0.453853,0.0579 0.158156,0.0614 0.282628,-0.62416 -0.15106,-0.0771 -0.344449,-0.29947 -0.394243,-0.55242 0.232694,-0.37491 0.672062,0.10486 0.422686,0.17338 0.13664,0.1002 0.434188,-0.53073 -0.125728,-0.11369 -0.254639,-0.37884 -0.237143,-0.63645 0.32148,-0.3025 0.620967,0.27526 0.362737,0.27713 0.105788,0.13237 0.556155,-0.40117 -0.09183,-0.14246 -0.147463,-0.43237 -0.06389,-0.6771 0.388354,-0.20952 0.527572,0.42699 0.278048,0.36193 0.06775,0.15543 0.640225,-0.24422 -0.05165,-0.16157 -0.03025,-0.45649 0.113729,-0.6716 0.428743,-0.1023 0.398243,0.54958 0.174383,0.42209 0.02509,0.16791 0.680675,-0.0707 -0.008,-0.1697 0.08903,-0.44943 0.283574,-0.62036 0.439996,0.0116 0.241708,0.63471 0.0589,0.45347 -0.01928,0.16897 0.674717,0.10765 0.0362,-0.16629 0.202202,-0.41179 0.434136,-0.52684 0.421144,0.12546 0.06876,0.6766 -0.06063,0.45398 -0.06231,0.15849 0.62277,0.27875 0.078,-0.15145 0.30167,-0.3461 0.5551,-0.39734 0.37368,0.23033 -0.10891,0.67238 -0.17602,0.42354 -0.10115,0.1372 z"
       id="path12-7-2" />
    <rect
       style="fill:none;stroke:#e6e6e6;stroke-width:0.264583"
       id="rect111-3-3-3-36-3-3-35-3-36-6-1"
       width="21.166666"
       height="21.166666"
       x="76.071152"
       y="320.81342"
       inkscape:export-filename="../24168d4b/page_index.png"
       inkscape:export-xdpi="96"
       inkscape:export-ydpi="96" />
    <path
       style="fill:#800080;stroke:#800080;stroke-width:0.264583"
       d="m 89.000981,325.08319 0.168406,-0.1963 0.22758,-0.1626 0.559894,-0.20291 0.243651,0.25892 -0.236463,0.54658 -0.176108,0.21732 -0.206142,0.15619 0.330219,0.51615 0.227567,-0.12269 0.270505,-0.0698 0.594184,0.0126 0.133094,0.32997 -0.41752,0.42546 -0.242375,0.13948 -0.24824,0.0716 0.120686,0.60165 0.25609,-0.0325 0.276865,0.0324 0.548217,0.22634 0.0046,0.35646 -0.542148,0.24689 -0.275894,0.0428 -0.25678,-0.0228 -0.105146,0.60591 0.249951,0.0621 0.24584,0.13029 0.428241,0.40949 -0.124547,0.33486 -0.593576,0.0349 -0.272151,-0.0596 -0.230652,-0.11401 -0.316776,0.52835 0.210064,0.14834 0.181626,0.21055 0.250424,0.53741 -0.23686,0.26799 -0.564853,-0.18169 -0.231644,-0.15397 -0.173388,-0.18987 -0.485606,0.37944 0.141828,0.21454 0.09288,0.26238 0.03876,0.59271 -0.317236,0.16488 -0.45981,-0.37378 -0.159872,-0.22758 -0.09269,-0.24006 -0.58889,0.17923 0.05442,0.25173 -0.0084,0.27878 -0.178115,0.56799 -0.354714,0.0395 -0.292681,-0.51542 -0.06649,-0.27042 5.31e-4,-0.25784 -0.612619,-0.0451 -0.04034,0.25491 -0.10857,0.25753 -0.370981,0.4665 -0.344271,-0.0911 -0.08603,-0.58744 0.03588,-0.27678 0.09366,-0.24078 -0.553611,-0.26342 -0.129674,0.22367 -0.19404,0.20151 -0.513689,0.30207 -0.287335,-0.20949 0.132232,-0.5801 0.133356,-0.24573 0.174142,-0.19126 -0.419831,-0.44613 -0.201462,0.16223 -0.253355,0.11821 -0.587043,0.0968 -0.191664,-0.29953 0.332648,-0.49444 0.212908,-0.18146 0.231107,-0.11589 -0.229348,-0.56858 -0.246024,0.0788 -0.278423,0.0191 -0.581125,-0.1215 -0.07004,-0.34917 0.488111,-0.34202 0.263637,-0.0927 0.256881,-0.0248 -0.0079,-0.61425 -0.25739,-0.0151 -0.265878,-0.0828 -0.496709,-0.32341 0.06101,-0.35168 0.577719,-0.14334 0.278766,0.009 0.247955,0.0696 0.214613,-0.57696 -0.233986,-0.10704 -0.217461,-0.1734 -0.345194,-0.48164 0.183803,-0.30667 0.589257,0.0747 0.256247,0.10859 0.205541,0.15458 0.408173,-0.46171 -0.179002,-0.18459 -0.139627,-0.24056 -0.147088,-0.57484 0.281841,-0.22019 0.521229,0.28257 0.199134,0.19406 0.135329,0.21869 0.546561,-0.28417 -0.09979,-0.23715 -0.04298,-0.27527 0.07091,-0.59039 0.34176,-0.10407 0.382771,0.45231 0.115137,0.25329 0.04688,0.25328 0.611154,-0.0683 -0.0072,-0.25769 0.0595,-0.2728 0.279304,-0.52621 0.355516,0.0262 0.192659,0.56094 0.01557,0.27834 -0.04793,0.25366 0.59321,0.15695 0.08647,-0.24345 0.153925,-0.23348 0.449971,-0.39097 0.321287,0.15286 -0.02348,0.59389 -0.08611,0.26577 -0.136245,0.21971 z"
       id="path14-2" />
    <ellipse
       style="fill:#ffffff;stroke:#ffffff;stroke-width:0.264583"
       id="path15-7"
       cx="-161.92892"
       cy="298.15161"
       rx="3.1941512"
       ry="3.1749892"
       transform="matrix(0.72821826,-0.68534529,0.68531925,0.72824276,0,0)" />
  </g>
</svg>
