<?xml version="1.0" encoding="UTF-8" standalone="no"?>
<!-- Created with Inkscape (http://www.inkscape.org/) -->

<svg
   width="75.613617"
   height="75.61364"
   viewBox="0 0 20.006103 20.006108"
   version="1.1"
   id="svg5"
   inkscape:version="1.3.2 (1:1.3.2+202311252150+091e20ef0f)"
   sodipodi:docname="src_menu_icons.svg"
   inkscape:export-filename="page_spider.svg"
   inkscape:export-xdpi="96"
   inkscape:export-ydpi="96"
   xmlns:inkscape="http://www.inkscape.org/namespaces/inkscape"
   xmlns:sodipodi="http://sodipodi.sourceforge.net/DTD/sodipodi-0.dtd"
   xmlns="http://www.w3.org/2000/svg"
   xmlns:svg="http://www.w3.org/2000/svg">
  <sodipodi:namedview
     id="namedview7"
     pagecolor="#ffffff"
     bordercolor="#666666"
     borderopacity="1.0"
     inkscape:showpageshadow="2"
     inkscape:pageopacity="0.0"
     inkscape:pagecheckerboard="0"
     inkscape:deskcolor="#d1d1d1"
     inkscape:document-units="px"
     showgrid="false"
     inkscape:zoom="3.1458974"
     inkscape:cx="354.11199"
     inkscape:cy="1315.3639"
     inkscape:window-width="1854"
     inkscape:window-height="1131"
     inkscape:window-x="66"
     inkscape:window-y="32"
     inkscape:window-maximized="1"
     inkscape:current-layer="layer1" />
  <defs
     id="defs2" />
  <g
     inkscape:label="Layer 1"
     inkscape:groupmode="layer"
     id="layer1"
     transform="translate(-105.54483,-322.01102)">
    <circle
       style="fill:#0000ff;stroke:#0000ff;stroke-width:0.264583"
       id="path20"
       cx="115.54788"
       cy="332.01407"
       r="9.87076" />
    <rect
       style="fill:none;stroke:#e6e6e6;stroke-width:0.264583"
       id="rect111-3-3-3-36-3-3-35-3-36-6-1-0"
       width="21.166666"
       height="21.166666"
       x="105.11549"
       y="321.49734"
       inkscape:export-filename="../24168d4b/page_index.png"
       inkscape:export-xdpi="96"
       inkscape:export-ydpi="96" />
    <path
       style="fill:#ffffff;stroke:#ffffff;stroke-width:0.264583"
       d="m 124.12328,331.63561 0.36843,0.0921 0.36822,0.14521 v 0.28233 l -0.36822,0.14521 -0.36843,0.0921 -0.0219,0.3411 0.35367,0.13842 0.34661,0.19111 -0.0362,0.28001 -0.38375,0.097 -0.37721,0.0442 -0.0654,0.3355 0.33307,0.1825 0.31933,0.23386 -0.0715,0.27311 -0.39299,0.0471 -0.37976,-0.005 -0.10775,0.32441 0.30698,0.22362 0.28683,0.27275 -0.10596,0.2617 -0.39579,-0.004 -0.37607,-0.0529 -0.14831,0.30796 0.27587,0.26102 0.24958,0.30721 -0.13854,0.24599 -0.39208,-0.0542 -0.36623,-0.10068 -0.18646,0.28651 0.24023,0.29415 0.20823,0.33659 -0.16888,0.22628 -0.38193,-0.10392 -0.35036,-0.14659 -0.22155,0.26028 0.20064,0.32244 0.16346,0.36047 -0.19639,0.2028 -0.36554,-0.15184 -0.3287,-0.19021 -0.25307,0.22982 0.15778,0.34546 0.11613,0.37842 -0.22073,0.17603 -0.34311,-0.19733 -0.3017,-0.23066 -0.28035,0.19555 0.1123,0.36279 0.0667,0.39015 -0.24143,0.14637 -0.31507,-0.23962 -0.26973,-0.26736 -0.30303,0.1581 0.0649,0.3742 0.0163,0.39548 -0.25818,0.11433 -0.28184,-0.27791 -0.23332,-0.29966 -0.32076,0.11816 0.0165,0.37942 -0.0345,0.3943 -0.27068,0.0805 -0.24398,-0.31166 -0.19309,-0.32704 -0.33323,0.0761 -0.0321,0.37844 -0.0846,0.38666 -0.27872,0.045 -0.20213,-0.34031 -0.14966,-0.34903 -0.34026,0.0329 -0.0802,0.37124 -0.13333,0.37264 -0.28219,0.01 -0.15695,-0.36339 -0.1038,-0.3653 -0.34165,-0.0108 -0.127,0.35793 -0.1799,0.35253 -0.28102,-0.0271 -0.1093,-0.38046 -0.0563,-0.37558 -0.33742,-0.0546 -0.17174,0.33873 -0.2235,0.32667 -0.27527,-0.0629 -0.0596,-0.39128 -0.008,-0.37973 -0.32769,-0.0973 -0.21363,0.31399 -0.26346,0.29539 -0.26496,-0.0974 -0.01,-0.39571 0.0408,-0.37758 -0.31255,-0.13837 -0.25205,0.28411 -0.29907,0.25927 -0.2503,-0.13058 0.0415,-0.39362 0.0888,-0.36925 -0.29232,-0.17721 -0.28628,0.24954 -0.32976,0.21891 -0.23156,-0.16151 0.0916,-0.38507 0.13533,-0.35487 -0.26724,-0.21313 -0.31588,0.21087 -0.35502,0.17497 -0.20903,-0.1898 0.14006,-0.37023 0.17958,-0.33463 -0.2378,-0.24555 -0.34024,0.16875 -0.37452,0.12811 -0.18301,-0.21498 0.18624,-0.34926 0.22089,-0.30894 -0.20444,-0.27394 -0.35901,0.12387 -0.38782,0.0791 -0.154,-0.23659 0.22935,-0.32259 0.2586,-0.27815 -0.16773,-0.29783 -0.37193,0.0769 -0.39475,0.029 -0.12249,-0.25437 0.26874,-0.29058 0.29203,-0.24283 -0.12827,-0.31683 -0.3787,0.0287 -0.39521,-0.0218 -0.0889,-0.26793 0.30367,-0.25385 0.32068,-0.20348 -0.0867,-0.33064 -0.37927,-0.0199 -0.38917,-0.0722 -0.054,-0.27711 0.33364,-0.21293 0.34409,-0.1608 -0.0438,-0.33901 -0.37361,-0.0684 -0.37675,-0.12132 -0.0181,-0.28176 0.35814,-0.16849 0.3618,-0.11553 v -0.34181 l -0.3618,-0.11553 -0.35814,-0.1685 0.0181,-0.28175 0.37675,-0.12133 0.37361,-0.0684 0.0438,-0.33902 -0.34409,-0.16078 -0.33364,-0.21294 0.054,-0.27711 0.38917,-0.0722 0.37927,-0.0199 0.0867,-0.33064 -0.32068,-0.20348 -0.30367,-0.25384 0.0889,-0.26794 0.39521,-0.0218 0.3787,0.0287 0.12827,-0.31686 -0.29203,-0.24279 -0.26874,-0.29061 0.12249,-0.25435 0.39475,0.029 0.37193,0.077 0.16773,-0.29784 -0.2586,-0.27815 -0.22935,-0.32258 0.154,-0.23662 0.38782,0.0791 0.35901,0.12385 0.20444,-0.27392 -0.22089,-0.30895 -0.18624,-0.34924 0.18301,-0.21498 0.37452,0.12811 0.34024,0.16874 0.2378,-0.24554 -0.17958,-0.33465 -0.14006,-0.37021 0.20903,-0.18983 0.35502,0.17497 0.31588,0.21089 0.26724,-0.21314 -0.13533,-0.35486 -0.0916,-0.38507 0.23156,-0.16153 0.32976,0.21893 0.28628,0.24952 0.29232,-0.17718 -0.0888,-0.36926 -0.0415,-0.39363 0.2503,-0.13059 0.29907,0.25929 0.25205,0.28411 0.31255,-0.13837 -0.0408,-0.37759 0.01,-0.3957 0.26496,-0.0976 0.26346,0.2954 0.21363,0.31399 0.32769,-0.0973 0.008,-0.37971 0.0596,-0.39128 0.27527,-0.0629 0.2235,0.32668 0.17174,0.33874 0.33742,-0.0546 0.0563,-0.37559 0.1093,-0.38045 0.28102,-0.0271 0.1799,0.35255 0.127,0.35791 0.34165,-0.0108 0.1038,-0.36531 0.15695,-0.36336 0.28219,0.01 0.13333,0.37266 0.0802,0.37122 0.34026,0.0329 0.14966,-0.34904 0.20213,-0.34032 0.27872,0.045 0.0846,0.38667 0.0321,0.37841 0.33323,0.0761 0.19309,-0.32705 0.24398,-0.31167 0.27068,0.0804 0.0345,0.39431 -0.0165,0.37943 0.32076,0.11804 0.23332,-0.29968 0.28184,-0.27793 0.25818,0.11434 -0.0163,0.39546 -0.0649,0.3742 0.30303,0.15811 0.26973,-0.26738 0.31507,-0.23959 0.24143,0.14636 -0.0667,0.39017 -0.1123,0.36278 0.28035,0.19555 0.3017,-0.23066 0.34311,-0.19733 0.22073,0.17601 -0.11613,0.37843 -0.15778,0.34546 0.25307,0.22981 0.3287,-0.19021 0.36554,-0.15184 0.19639,0.20281 -0.16346,0.36048 -0.20064,0.32245 0.22155,0.26027 0.35036,-0.14661 0.38193,-0.10379 0.16888,0.22628 -0.20823,0.3366 -0.24023,0.29415 0.18646,0.28649 0.36623,-0.10069 0.39208,-0.0542 0.13854,0.246 -0.24958,0.30721 -0.27587,0.261 0.14831,0.30797 0.37607,-0.0529 0.39579,-0.004 0.10596,0.26169 -0.28683,0.27277 -0.30698,0.22361 0.10775,0.3244 0.37976,-0.005 0.39299,0.0471 0.0715,0.27313 -0.31933,0.23384 -0.33307,0.1825 0.0654,0.33552 0.37721,0.0442 0.38375,0.097 0.0362,0.28001 -0.34661,0.19112 -0.35367,0.13841 z"
       id="path19" />
    <path
       style="fill:#800080;stroke:#800080;stroke-width:0.264583"
       d="m 114.69078,324.68009 0.0928,-0.10815 0.12535,-0.0896 0.30835,-0.11171 0.13415,0.14261 -0.13031,0.30106 -0.097,0.11965 -0.11356,0.086 0.18189,0.2843 0.12534,-0.0676 0.14899,-0.0385 0.32725,0.007 0.0732,0.18174 -0.22996,0.23435 -0.13344,0.0768 -0.13669,0.0395 0.0664,0.33139 0.1411,-0.0179 0.15249,0.0179 0.30195,0.12462 0.003,0.19635 -0.29861,0.13598 -0.15194,0.0236 -0.14139,-0.0128 -0.0579,0.33373 0.13769,0.0342 0.13542,0.0718 0.23587,0.22554 -0.0686,0.18444 -0.32692,0.0192 -0.14989,-0.0328 -0.12704,-0.0627 -0.17447,0.29102 0.11568,0.0818 0.10008,0.11596 0.13798,0.29601 -0.13046,0.1476 -0.3111,-0.10007 -0.12761,-0.0849 -0.0955,-0.10461 -0.26746,0.209 0.0781,0.11809 0.0511,0.14451 0.0214,0.32647 -0.17473,0.0908 -0.25324,-0.20587 -0.088,-0.12534 -0.0511,-0.13229 -0.32434,0.0986 0.0299,0.13868 -0.004,0.15355 -0.0981,0.31285 -0.19535,0.0217 -0.16121,-0.2839 -0.0366,-0.14893 3e-4,-0.14203 -0.33742,-0.0248 -0.0221,0.14038 -0.0598,0.1418 -0.20432,0.25694 -0.18962,-0.0501 -0.0474,-0.32356 0.0197,-0.15244 0.0517,-0.13258 -0.30491,-0.14509 -0.0714,0.12321 -0.10689,0.11099 -0.28292,0.16639 -0.15826,-0.1154 0.0728,-0.31953 0.0734,-0.13527 0.096,-0.10532 -0.23124,-0.24572 -0.11101,0.0894 -0.13953,0.0652 -0.32332,0.0534 -0.10562,-0.16498 0.18322,-0.27234 0.11725,-0.0999 0.12733,-0.0639 -0.12634,-0.31318 -0.13556,0.0434 -0.15333,0.01 -0.32007,-0.067 -0.0386,-0.19231 0.26884,-0.18839 0.1452,-0.0511 0.14152,-0.0142 -0.004,-0.33833 -0.1418,-0.009 -0.14645,-0.0456 -0.27356,-0.17814 0.0336,-0.1937 0.31819,-0.0789 0.15354,0.004 0.13656,0.0383 0.11825,-0.31778 -0.1289,-0.0589 -0.1198,-0.0955 -0.19012,-0.26529 0.10121,-0.16891 0.32456,0.0412 0.1411,0.0598 0.11327,0.0852 0.22481,-0.25431 -0.0986,-0.10162 -0.0769,-0.13258 -0.081,-0.31661 0.15522,-0.12122 0.28708,0.15564 0.10973,0.10688 0.0745,0.12051 0.30103,-0.15652 -0.0549,-0.13059 -0.0237,-0.15162 0.039,-0.32517 0.18824,-0.0573 0.21081,0.24913 0.0634,0.13953 0.0258,0.13953 0.3366,-0.0376 -0.004,-0.14194 0.0328,-0.15026 0.15383,-0.28983 0.1958,0.0145 0.10604,0.30896 0.009,0.15331 -0.0264,0.13967 0.32671,0.0865 0.0477,-0.13414 0.0847,-0.1286 0.24783,-0.21533 0.17695,0.0842 -0.0128,0.32711 -0.0474,0.14639 -0.0751,0.12107 z"
       id="path14-2-6" />
    <ellipse
       style="fill:#ffffff;stroke:#ffffff;stroke-width:0.264583"
       id="path15-7-0"
       cx="-141.15831"
       cy="315.27054"
       rx="1.7592767"
       ry="1.7487284"
       transform="matrix(0.72820049,-0.68536417,0.68530036,0.72826054,0,0)" />
    <path
       style="fill:#800080;stroke:#800080;stroke-width:0.264583"
       d="m 122.27313,326.61702 0.0928,-0.10815 0.12535,-0.0896 0.30835,-0.11171 0.13415,0.14261 -0.13031,0.30106 -0.097,0.11965 -0.11356,0.086 0.18189,0.2843 0.12534,-0.0676 0.14899,-0.0385 0.32725,0.007 0.0732,0.18174 -0.22996,0.23435 -0.13344,0.0768 -0.13669,0.0395 0.0664,0.33139 0.1411,-0.0179 0.15249,0.0179 0.30195,0.12462 0.003,0.19635 -0.29861,0.13598 -0.15194,0.0236 -0.14139,-0.0128 -0.0579,0.33373 0.13769,0.0342 0.13542,0.0718 0.23587,0.22554 -0.0686,0.18444 -0.32692,0.0192 -0.14989,-0.0328 -0.12704,-0.0627 -0.17447,0.29102 0.11568,0.0818 0.10008,0.11596 0.13798,0.29601 -0.13046,0.1476 -0.3111,-0.10007 -0.12761,-0.0849 -0.0955,-0.10461 -0.26746,0.209 0.0781,0.11809 0.0511,0.14451 0.0214,0.32647 -0.17473,0.0908 -0.25324,-0.20587 -0.088,-0.12534 -0.0511,-0.13229 -0.32434,0.0986 0.0299,0.13868 -0.004,0.15355 -0.0981,0.31285 -0.19535,0.0217 -0.16121,-0.2839 -0.0366,-0.14893 3e-4,-0.14203 -0.33742,-0.0248 -0.0221,0.14038 -0.0598,0.1418 -0.20432,0.25694 -0.18962,-0.0501 -0.0474,-0.32356 0.0197,-0.15244 0.0517,-0.13258 -0.30491,-0.14509 -0.0714,0.12321 -0.10689,0.11099 -0.28292,0.16639 -0.15826,-0.1154 0.0728,-0.31953 0.0734,-0.13527 0.096,-0.10532 -0.23124,-0.24572 -0.11101,0.0894 -0.13953,0.0652 -0.32332,0.0534 -0.10562,-0.16498 0.18322,-0.27234 0.11725,-0.0999 0.12733,-0.0639 -0.12634,-0.31318 -0.13556,0.0434 -0.15333,0.01 -0.32007,-0.067 -0.0386,-0.19231 0.26884,-0.18839 0.1452,-0.0511 0.14152,-0.0142 -0.004,-0.33833 -0.1418,-0.009 -0.14645,-0.0456 -0.27356,-0.17814 0.0336,-0.1937 0.31819,-0.0789 0.15354,0.004 0.13656,0.0383 0.11825,-0.31778 -0.1289,-0.0589 -0.1198,-0.0955 -0.19012,-0.26529 0.10121,-0.16891 0.32456,0.0412 0.1411,0.0598 0.11327,0.0852 0.22481,-0.25431 -0.0986,-0.10162 -0.0769,-0.13258 -0.081,-0.31661 0.15522,-0.12122 0.28708,0.15564 0.10973,0.10688 0.0745,0.12051 0.30103,-0.15652 -0.0549,-0.13059 -0.0237,-0.15162 0.039,-0.32517 0.18824,-0.0573 0.21081,0.24913 0.0634,0.13953 0.0258,0.13953 0.3366,-0.0376 -0.004,-0.14194 0.0328,-0.15026 0.15383,-0.28983 0.1958,0.0145 0.10604,0.30896 0.009,0.15331 -0.0264,0.13967 0.32671,0.0865 0.0477,-0.13414 0.0847,-0.1286 0.24783,-0.21533 0.17695,0.0842 -0.0128,0.32711 -0.0474,0.14639 -0.0751,0.12107 z"
       id="path14-2-6-6" />
    <ellipse
       style="fill:#ffffff;stroke:#ffffff;stroke-width:0.264583"
       id="path15-7-0-2"
       cx="-136.96378"
       cy="321.87769"
       rx="1.7592767"
       ry="1.7487284"
       transform="matrix(0.72820049,-0.68536417,0.68530036,0.72826054,0,0)" />
    <path
       style="fill:#800080;stroke:#800080;stroke-width:0.264583"
       d="m 122.22004,333.89843 0.0928,-0.10815 0.12535,-0.0896 0.30835,-0.11171 0.13415,0.14261 -0.13031,0.30106 -0.097,0.11965 -0.11356,0.086 0.18189,0.2843 0.12534,-0.0676 0.14899,-0.0385 0.32725,0.007 0.0732,0.18174 -0.22996,0.23435 -0.13344,0.0768 -0.13669,0.0395 0.0664,0.33139 0.1411,-0.0179 0.15249,0.0179 0.30195,0.12462 0.003,0.19635 -0.29861,0.13598 -0.15194,0.0236 -0.14139,-0.0128 -0.0579,0.33373 0.13769,0.0342 0.13542,0.0718 0.23587,0.22554 -0.0686,0.18444 -0.32692,0.0192 -0.14989,-0.0328 -0.12704,-0.0627 -0.17447,0.29102 0.11568,0.0818 0.10008,0.11596 0.13798,0.29601 -0.13046,0.1476 -0.3111,-0.10007 -0.12761,-0.0849 -0.0955,-0.10461 -0.26746,0.209 0.0781,0.11809 0.0511,0.14451 0.0214,0.32647 -0.17473,0.0908 -0.25324,-0.20587 -0.088,-0.12534 -0.0511,-0.13229 -0.32434,0.0986 0.0299,0.13868 -0.004,0.15355 -0.0981,0.31285 -0.19535,0.0217 -0.16121,-0.2839 -0.0366,-0.14893 3e-4,-0.14203 -0.33742,-0.0248 -0.0221,0.14038 -0.0598,0.1418 -0.20432,0.25694 -0.18962,-0.0501 -0.0474,-0.32356 0.0197,-0.15244 0.0517,-0.13258 -0.30491,-0.14509 -0.0714,0.12321 -0.10689,0.11099 -0.28292,0.16639 -0.15826,-0.1154 0.0728,-0.31953 0.0734,-0.13527 0.096,-0.10532 -0.23124,-0.24572 -0.11101,0.0894 -0.13953,0.0652 -0.32332,0.0534 -0.10562,-0.16498 0.18322,-0.27234 0.11725,-0.0999 0.12733,-0.0639 -0.12634,-0.31318 -0.13556,0.0434 -0.15333,0.01 -0.32007,-0.067 -0.0386,-0.19231 0.26884,-0.18839 0.1452,-0.0511 0.14152,-0.0142 -0.004,-0.33833 -0.1418,-0.009 -0.14645,-0.0456 -0.27356,-0.17814 0.0336,-0.1937 0.31819,-0.0789 0.15354,0.004 0.13656,0.0383 0.11825,-0.31778 -0.1289,-0.0589 -0.1198,-0.0955 -0.19012,-0.26529 0.10121,-0.16891 0.32456,0.0412 0.1411,0.0598 0.11327,0.0852 0.22481,-0.25431 -0.0986,-0.10162 -0.0769,-0.13258 -0.081,-0.31661 0.15522,-0.12122 0.28708,0.15564 0.10973,0.10688 0.0745,0.12051 0.30103,-0.15652 -0.0549,-0.13059 -0.0237,-0.15162 0.039,-0.32517 0.18824,-0.0573 0.21081,0.24913 0.0634,0.13953 0.0258,0.13953 0.3366,-0.0376 -0.004,-0.14194 0.0328,-0.15026 0.15383,-0.28983 0.1958,0.0145 0.10604,0.30896 0.009,0.15331 -0.0264,0.13967 0.32671,0.0865 0.0477,-0.13414 0.0847,-0.1286 0.24783,-0.21533 0.17695,0.0842 -0.0128,0.32711 -0.0474,0.14639 -0.0751,0.12107 z"
       id="path14-2-6-6-6" />
    <ellipse
       style="fill:#ffffff;stroke:#ffffff;stroke-width:0.264583"
       id="path15-7-0-2-1"
       cx="-141.99239"
       cy="327.14362"
       rx="1.7592767"
       ry="1.7487284"
       transform="matrix(0.72820049,-0.68536417,0.68530036,0.72826054,0,0)" />
    <path
       style="fill:#800080;stroke:#800080;stroke-width:0.264583"
       d="m 114.60395,336.03676 0.0928,-0.10815 0.12535,-0.0896 0.30835,-0.11171 0.13415,0.14261 -0.13031,0.30106 -0.097,0.11965 -0.11356,0.086 0.18189,0.2843 0.12534,-0.0676 0.14899,-0.0385 0.32725,0.007 0.0732,0.18174 -0.22996,0.23435 -0.13344,0.0768 -0.13669,0.0395 0.0664,0.33139 0.1411,-0.0179 0.15249,0.0179 0.30195,0.12462 0.003,0.19635 -0.29861,0.13598 -0.15194,0.0236 -0.14139,-0.0128 -0.0579,0.33373 0.13769,0.0342 0.13542,0.0718 0.23587,0.22554 -0.0686,0.18444 -0.32692,0.0192 -0.14989,-0.0328 -0.12704,-0.0627 -0.17447,0.29102 0.11568,0.0818 0.10008,0.11596 0.13798,0.29601 -0.13046,0.1476 -0.3111,-0.10007 -0.12761,-0.0849 -0.0955,-0.10461 -0.26746,0.209 0.0781,0.11809 0.0511,0.14451 0.0214,0.32647 -0.17473,0.0908 -0.25324,-0.20587 -0.088,-0.12534 -0.0511,-0.13229 -0.32434,0.0986 0.0299,0.13868 -0.004,0.15355 -0.0981,0.31285 -0.19535,0.0217 -0.16121,-0.2839 -0.0366,-0.14893 3e-4,-0.14203 -0.33742,-0.0248 -0.0221,0.14038 -0.0598,0.1418 -0.20432,0.25694 -0.18962,-0.0501 -0.0474,-0.32356 0.0197,-0.15244 0.0517,-0.13258 -0.30491,-0.14509 -0.0714,0.12321 -0.10689,0.11099 -0.28292,0.16639 -0.15826,-0.1154 0.0728,-0.31953 0.0734,-0.13527 0.096,-0.10532 -0.23124,-0.24572 -0.11101,0.0894 -0.13953,0.0652 -0.32332,0.0534 -0.10562,-0.16498 0.18322,-0.27234 0.11725,-0.0999 0.12733,-0.0639 -0.12634,-0.31318 -0.13556,0.0434 -0.15333,0.01 -0.32007,-0.067 -0.0386,-0.19231 0.26884,-0.18839 0.1452,-0.0511 0.14152,-0.0142 -0.004,-0.33833 -0.1418,-0.009 -0.14645,-0.0456 -0.27356,-0.17814 0.0336,-0.1937 0.31819,-0.0789 0.15354,0.004 0.13656,0.0383 0.11825,-0.31778 -0.1289,-0.0589 -0.1198,-0.0955 -0.19012,-0.26529 0.10121,-0.16891 0.32456,0.0412 0.1411,0.0598 0.11327,0.0852 0.22481,-0.25431 -0.0986,-0.10162 -0.0769,-0.13258 -0.081,-0.31661 0.15522,-0.12122 0.28708,0.15564 0.10973,0.10688 0.0745,0.12051 0.30103,-0.15652 -0.0549,-0.13059 -0.0237,-0.15162 0.039,-0.32517 0.18824,-0.0573 0.21081,0.24913 0.0634,0.13953 0.0258,0.13953 0.3366,-0.0376 -0.004,-0.14194 0.0328,-0.15026 0.15383,-0.28983 0.1958,0.0145 0.10604,0.30896 0.009,0.15331 -0.0264,0.13967 0.32671,0.0865 0.0477,-0.13414 0.0847,-0.1286 0.24783,-0.21533 0.17695,0.0842 -0.0128,0.32711 -0.0474,0.14639 -0.0751,0.12107 z"
       id="path14-2-6-6-8" />
    <ellipse
       style="fill:#ffffff;stroke:#ffffff;stroke-width:0.264583"
       id="path15-7-0-2-7"
       cx="-149.00429"
       cy="323.48096"
       rx="1.7592767"
       ry="1.7487284"
       transform="matrix(0.72820049,-0.68536417,0.68530036,0.72826054,0,0)" />
    <path
       style="fill:#800080;stroke:#800080;stroke-width:0.264583"
       d="m 110.69539,330.07533 0.0928,-0.10815 0.12535,-0.0896 0.30835,-0.11171 0.13415,0.14261 -0.13031,0.30106 -0.097,0.11965 -0.11356,0.086 0.18189,0.2843 0.12534,-0.0676 0.14899,-0.0385 0.32725,0.007 0.0732,0.18174 -0.22996,0.23435 -0.13344,0.0768 -0.13669,0.0395 0.0664,0.33139 0.1411,-0.0179 0.15249,0.0179 0.30195,0.12462 0.003,0.19635 -0.29861,0.13598 -0.15194,0.0236 -0.14139,-0.0128 -0.0579,0.33373 0.13769,0.0342 0.13542,0.0718 0.23587,0.22554 -0.0686,0.18444 -0.32692,0.0192 -0.14989,-0.0328 -0.12704,-0.0627 -0.17447,0.29102 0.11568,0.0818 0.10008,0.11596 0.13798,0.29601 -0.13046,0.1476 -0.3111,-0.10007 -0.12761,-0.0849 -0.0955,-0.10461 -0.26746,0.209 0.0781,0.11809 0.0511,0.14451 0.0214,0.32647 -0.17473,0.0908 -0.25324,-0.20587 -0.088,-0.12534 -0.0511,-0.13229 -0.32434,0.0986 0.0299,0.13868 -0.004,0.15355 -0.0981,0.31285 -0.19535,0.0217 -0.16121,-0.2839 -0.0366,-0.14893 3e-4,-0.14203 -0.33742,-0.0248 -0.0221,0.14038 -0.0598,0.1418 -0.20432,0.25694 -0.18962,-0.0501 -0.0474,-0.32356 0.0197,-0.15244 0.0517,-0.13258 -0.30491,-0.14509 -0.0714,0.12321 -0.10689,0.11099 -0.28292,0.16639 -0.15826,-0.1154 0.0728,-0.31953 0.0734,-0.13527 0.096,-0.10532 -0.23124,-0.24572 -0.11101,0.0894 -0.13953,0.0652 -0.32332,0.0534 -0.10562,-0.16498 0.18322,-0.27234 0.11725,-0.0999 0.12733,-0.0639 -0.12634,-0.31318 -0.13556,0.0434 -0.15333,0.01 -0.32007,-0.067 -0.0386,-0.19231 0.26884,-0.18839 0.1452,-0.0511 0.14152,-0.0142 -0.004,-0.33833 -0.1418,-0.009 -0.14645,-0.0456 -0.27356,-0.17814 0.0336,-0.1937 0.31819,-0.0789 0.15354,0.004 0.13656,0.0383 0.11825,-0.31778 -0.1289,-0.0589 -0.1198,-0.0955 -0.19012,-0.26529 0.10121,-0.16891 0.32456,0.0412 0.1411,0.0598 0.11327,0.0852 0.22481,-0.25431 -0.0986,-0.10162 -0.0769,-0.13258 -0.081,-0.31661 0.15522,-0.12122 0.28708,0.15564 0.10973,0.10688 0.0745,0.12051 0.30103,-0.15652 -0.0549,-0.13059 -0.0237,-0.15162 0.039,-0.32517 0.18824,-0.0573 0.21081,0.24913 0.0634,0.13953 0.0258,0.13953 0.3366,-0.0376 -0.004,-0.14194 0.0328,-0.15026 0.15383,-0.28983 0.1958,0.0145 0.10604,0.30896 0.009,0.15331 -0.0264,0.13967 0.32671,0.0865 0.0477,-0.13414 0.0847,-0.1286 0.24783,-0.21533 0.17695,0.0842 -0.0128,0.32711 -0.0474,0.14639 -0.0751,0.12107 z"
       id="path14-2-6-6-9" />
    <ellipse
       style="fill:#ffffff;stroke:#ffffff;stroke-width:0.264583"
       id="path15-7-0-2-2"
       cx="-147.76538"
       cy="316.46106"
       rx="1.7592767"
       ry="1.7487284"
       transform="matrix(0.72820049,-0.68536417,0.68530036,0.72826054,0,0)" />
    <path
       style="fill:#d45500;stroke:#d45500;stroke-width:0.264584"
       d="m 117.49049,329.96763 0.12167,-0.14177 0.16433,-0.11746 0.40424,-0.14644 0.17587,0.18695 -0.17084,0.39467 -0.12716,0.15685 -0.14887,0.11274 0.23845,0.3727 0.16432,-0.0886 0.19532,-0.0505 0.42903,0.009 0.096,0.23825 -0.30148,0.30722 -0.17493,0.10068 -0.17921,0.0517 0.0871,0.43443 0.18497,-0.0235 0.19992,0.0235 0.39585,0.16337 0.004,0.2574 -0.39148,0.17826 -0.19919,0.031 -0.18536,-0.0168 -0.0759,0.4375 0.18051,0.0448 0.17753,0.0941 0.30923,0.29567 -0.0899,0.2418 -0.42859,0.0251 -0.19651,-0.043 -0.16655,-0.0822 -0.22872,0.3815 0.15165,0.10724 0.1312,0.15202 0.1809,0.38804 -0.17104,0.1935 -0.40785,-0.13119 -0.16729,-0.11129 -0.1252,-0.13714 -0.35064,0.27399 0.10239,0.15481 0.067,0.18944 0.0281,0.42798 -0.22907,0.11903 -0.33199,-0.26988 -0.11536,-0.16431 -0.067,-0.17342 -0.42521,0.12926 0.0392,0.1818 -0.005,0.20129 -0.12861,0.41013 -0.2561,0.0284 -0.21135,-0.37218 -0.048,-0.19523 3.9e-4,-0.18619 -0.44236,-0.0325 -0.029,0.18402 -0.0784,0.1859 -0.26785,0.33683 -0.24859,-0.0657 -0.0622,-0.42418 0.0258,-0.19983 0.0678,-0.17381 -0.39973,-0.1902 -0.0936,0.16152 -0.14013,0.1455 -0.3709,0.21813 -0.20748,-0.15129 0.0954,-0.41888 0.0962,-0.17733 0.12586,-0.13807 -0.30315,-0.32212 -0.14554,0.1172 -0.18292,0.0855 -0.42387,0.07 -0.13846,-0.21628 0.2402,-0.35701 0.15371,-0.13097 0.16693,-0.0838 -0.16563,-0.41055 -0.17772,0.0569 -0.20101,0.0131 -0.41961,-0.0878 -0.0506,-0.25211 0.35245,-0.24697 0.19035,-0.067 0.18554,-0.0186 -0.005,-0.44353 -0.1859,-0.0118 -0.19199,-0.0598 -0.35863,-0.23353 0.044,-0.25393 0.41715,-0.10343 0.20128,0.005 0.17903,0.0502 0.15503,-0.41659 -0.16899,-0.0772 -0.15706,-0.12519 -0.24924,-0.34778 0.13268,-0.22142 0.42549,0.054 0.18499,0.0784 0.1485,0.1117 0.29471,-0.33339 -0.12926,-0.13322 -0.10081,-0.1738 -0.10619,-0.41506 0.20349,-0.15891 0.37635,0.20404 0.14386,0.1401 0.0977,0.15799 0.39465,-0.20519 -0.0719,-0.17119 -0.031,-0.19877 0.0512,-0.42628 0.24678,-0.0751 0.27637,0.32659 0.0831,0.18292 0.0338,0.18291 0.44127,-0.0493 -0.005,-0.18607 0.043,-0.19698 0.20166,-0.37995 0.2567,0.019 0.13901,0.40503 0.0118,0.20098 -0.0346,0.1831 0.42831,0.11339 0.0625,-0.17585 0.11104,-0.16859 0.3249,-0.28228 0.23197,0.11038 -0.0168,0.42882 -0.0622,0.19191 -0.0984,0.15871 z"
       id="path14-2-6-6-9-0" />
    <ellipse
       style="fill:#ffffff;stroke:#ffffff;stroke-width:0.264584"
       id="path15-7-0-2-2-2"
       cx="-143.42677"
       cy="321.11499"
       rx="2.3063478"
       ry="2.2925141"
       transform="matrix(0.72821332,-0.68535054,0.68531397,0.72824773,0,0)" />
  </g>
</svg>
