<?xml version="1.0" encoding="UTF-8" standalone="no"?>
<!-- Created with Inkscape (http://www.inkscape.org/) -->

<svg
   width="59.896255"
   height="76.921509"
   viewBox="0 0 15.847551 20.352149"
   version="1.1"
   id="svg5"
   xmlns="http://www.w3.org/2000/svg"
   xmlns:svg="http://www.w3.org/2000/svg">
  <defs
     id="defs2" />
  <g
     id="layer1"
     transform="translate(-20.232868,-282.99863)">
    <rect
       style="fill:none;stroke:#e6e6e6;stroke-width:0.264583"
       id="rect111-3-3-3-36-3-3-35-3"
       width="21.166666"
       height="21.166666"
       x="18.152639"
       y="282.48703" />
    <path
       style="fill:#6495ed;fill-opacity:1;stroke:#6495ed;stroke-width:0.264583px;stroke-linecap:butt;stroke-linejoin:miter;stroke-opacity:1"
       d="m 26.262914,303.17775 3.124114,0.0391 0.0048,-3.36319 -0.874307,-7.48814 h -1.414395 l -0.880271,7.1941 z"
       id="path7-6" />
    <path
       style="fill:#f9f9f9;stroke:#f9f9f9;stroke-width:0.264583px;stroke-linecap:butt;stroke-linejoin:miter;stroke-opacity:1"
       d="m 26.987916,300.7578 -0.02128,1.50955 c 0,0 0.230874,0.50463 0.41333,0.48619 0.181522,-0.0184 0.352975,-0.5609 0.352975,-0.5609 l 0.05173,-1.36158 c 0,0 -0.229406,-0.61441 -0.439601,-0.60878 -0.178175,0.004 -0.35715,0.53552 -0.35715,0.53552 z"
       id="path8-7" />
    <rect
       style="fill:#6495ed;fill-opacity:1;stroke:#6495ed;stroke-width:0.264584;stroke-opacity:1"
       id="rect1-6-2-2-6-6-2-2-9-3"
       width="2.5761223"
       height="0.94977534"
       x="-288.4668"
       y="-21.314938"
       transform="matrix(0,-1,-1,0,0,0)" />
    <rect
       style="fill:#6495ed;fill-opacity:1;stroke:#6495ed;stroke-width:0.264584;stroke-opacity:1"
       id="rect1-6-2-2-6-6-2-2-3-5"
       width="2.5761223"
       height="0.94977534"
       x="-288.4668"
       y="-35.948128"
       transform="matrix(0,-1,-1,0,0,0)" />
    <rect
       style="fill:#6495ed;fill-opacity:1;stroke:#6495ed;stroke-width:0.264584;stroke-opacity:1"
       id="rect1-6-2-2-6-6-2-2-6-6"
       width="2.5761223"
       height="0.94977534"
       x="-288.4668"
       y="-26.306765"
       transform="matrix(0,-1,-1,0,0,0)" />
    <rect
       style="fill:#6495ed;fill-opacity:1;stroke:#6495ed;stroke-width:0.264584;stroke-opacity:1"
       id="rect1-6-2-2-6-6-2-2-0-2"
       width="2.5761223"
       height="0.94977534"
       x="-288.4668"
       y="-30.495277"
       transform="matrix(0,-1,-1,0,0,0)" />
    <path
       style="fill:#6495ed;fill-opacity:1;stroke:#6495ed;stroke-width:0.264583px;stroke-linecap:butt;stroke-linejoin:miter;stroke-opacity:1"
       d="m 27.483074,287.21678 h 0.789146 l 0.925093,2.76822 -0.245791,1.10174 -2.085973,-0.004 -0.277552,-1.04763 z"
       id="path11-9" />
    <rect
       style="fill:#6495ed;fill-opacity:1;stroke:#6495ed;stroke-width:0.273936;stroke-opacity:1"
       id="rect1-6-2-2-6-6-2-2-9-6-1"
       width="6.0374026"
       height="0.30097663"
       x="-212.26926"
       y="289.90134"
       transform="matrix(-0.95955926,-0.28150672,-0.6082331,0.79375846,0,0)" />
    <rect
       style="fill:#6495ed;fill-opacity:1;stroke:#6495ed;stroke-width:0.273936;stroke-opacity:1"
       id="rect1-6-2-2-6-6-2-2-9-6-2-2"
       width="6.0374026"
       height="0.30097663"
       x="-164.54309"
       y="306.8288"
       transform="matrix(0.95955926,-0.28150672,0.6082331,0.79375846,0,0)" />
    <rect
       style="fill:#6495ed;fill-opacity:1;stroke:#6495ed;stroke-width:0.264584;stroke-opacity:1"
       id="rect1-6-2-2-6-0-6-70"
       width="9.4520702"
       height="0.55481559"
       x="23.285673"
       y="283.13095" />
    <ellipse
       style="fill:#6495ed;fill-opacity:1;stroke:#6495ed;stroke-width:0.264583;stroke-opacity:1"
       id="path9-1-9"
       cx="28.024586"
       cy="284.41861"
       rx="1.3146"
       ry="1.2660316" />
    <ellipse
       style="fill:#ffffff;fill-opacity:1;stroke:#6495ed;stroke-width:0.264583;stroke-opacity:1"
       id="path10-8-3"
       cx="28.011705"
       cy="284.43588"
       rx="0.77890819"
       ry="0.75013113" />
    <rect
       style="fill:#6495ed;fill-opacity:1;stroke:#6495ed;stroke-width:0.264584;stroke-opacity:1"
       id="rect1-6-2-2-6-0-3"
       width="15.582964"
       height="0.29142898"
       x="20.365162"
       y="288.17535" />
  </g>
</svg>
