<?xml version="1.0" encoding="UTF-8" standalone="no"?>
<!-- Created with Inkscape (http://www.inkscape.org/) -->

<svg
   width="600"
   height="4000"
   viewBox="0 0 158.75 1058.3333"
   version="1.1"
   id="svg5"
   inkscape:version="1.3.2 (1:1.3.2+202404261509+091e20ef0f)"
   sodipodi:docname="src_menu_icons.svg"
   inkscape:export-filename="page_spider.svg"
   inkscape:export-xdpi="96"
   inkscape:export-ydpi="96"
   xmlns:inkscape="http://www.inkscape.org/namespaces/inkscape"
   xmlns:sodipodi="http://sodipodi.sourceforge.net/DTD/sodipodi-0.dtd"
   xmlns="http://www.w3.org/2000/svg"
   xmlns:svg="http://www.w3.org/2000/svg">
  <sodipodi:namedview
     id="namedview7"
     pagecolor="#ffffff"
     bordercolor="#666666"
     borderopacity="1.0"
     inkscape:showpageshadow="2"
     inkscape:pageopacity="0.0"
     inkscape:pagecheckerboard="0"
     inkscape:deskcolor="#d1d1d1"
     inkscape:document-units="px"
     showgrid="false"
     inkscape:zoom="3.1458974"
     inkscape:cx="57.853126"
     inkscape:cy="1315.3639"
     inkscape:window-width="1854"
     inkscape:window-height="1131"
     inkscape:window-x="0"
     inkscape:window-y="0"
     inkscape:window-maximized="1"
     inkscape:current-layer="layer1" />
  <defs
     id="defs2">
    <marker
       style="overflow:visible"
       id="ArrowWide"
       refX="0"
       refY="0"
       orient="auto-start-reverse"
       inkscape:stockid="Wide arrow"
       markerWidth="1"
       markerHeight="1"
       viewBox="0 0 1 1"
       inkscape:isstock="true"
       inkscape:collect="always"
       preserveAspectRatio="xMidYMid">
      <path
         style="fill:none;stroke:context-stroke;stroke-width:1;stroke-linecap:butt"
         d="M 3,-3 0,0 3,3"
         transform="rotate(180,0.125,0)"
         sodipodi:nodetypes="ccc"
         id="path2" />
    </marker>
    <marker
       markerWidth="0.52499998"
       markerHeight="0.99999994"
       refX="0"
       refY="0"
       orient="auto-start-reverse"
       id="marker1593"
       viewBox="0 0 0.525 1"
       inkscape:stockid="pin"
       style="overflow:visible"
       preserveAspectRatio="xMidYMid"
       inkscape:isstock="true"
       inkscape:collect="always">
      <path
         id="path1591"
         style="fill:context-stroke;stroke-linecap:butt"
         d="M 0,-1 1,0 0,1 -0.05,0 Z"
         sodipodi:nodetypes="sssssscsss"
         transform="scale(0.5)" />
    </marker>
    <marker
       markerWidth="0.52499998"
       markerHeight="0.99999994"
       refX="0"
       refY="0"
       orient="auto-start-reverse"
       id="CapTriangle"
       viewBox="0 0 0.525 1"
       inkscape:stockid="pin"
       style="overflow:visible"
       preserveAspectRatio="xMidYMid"
       inkscape:isstock="true"
       inkscape:collect="always">
      <path
         id="path7813"
         style="fill:context-stroke;stroke-linecap:butt"
         d="M 0,-1 1,0 0,1 -0.05,0 Z"
         sodipodi:nodetypes="sssssscsss"
         transform="scale(0.5)" />
    </marker>
    <rect
       x="399.25525"
       y="32.853806"
       width="150.42239"
       height="157.71266"
       id="rect481" />
    <rect
       x="7.9637842"
       y="5.5994997"
       width="428.21191"
       height="128.2729"
       id="rect113" />
    <marker
       style="overflow:visible"
       id="ArrowWide-1"
       refX="0"
       refY="0"
       orient="auto-start-reverse"
       inkscape:stockid="Wide arrow"
       markerWidth="1"
       markerHeight="1"
       viewBox="0 0 1 1"
       inkscape:isstock="true"
       inkscape:collect="always"
       preserveAspectRatio="xMidYMid">
      <path
         style="fill:none;stroke:context-stroke;stroke-width:1;stroke-linecap:butt"
         d="M 3,-3 0,0 3,3"
         transform="rotate(180,0.125,0)"
         sodipodi:nodetypes="ccc"
         id="path2-2" />
    </marker>
  </defs>
  <g
     inkscape:label="Layer 1"
     inkscape:groupmode="layer"
     id="layer1">
    <circle
       style="fill:#0000ff;stroke:#0000ff;stroke-width:0.264583"
       id="path20"
       cx="115.54788"
       cy="332.01407"
       r="9.87076"
       inkscape:export-filename="./page_epicycloid.svg"
       inkscape:export-xdpi="96"
       inkscape:export-ydpi="96" />
    <ellipse
       style="fill:#0000ff;stroke:#0000ff;stroke-width:0.264583"
       id="path13-5-9"
       cx="-163.53203"
       cy="300.23203"
       rx="9.0902958"
       ry="9.0356846"
       transform="matrix(0.72826641,-0.68529413,0.68537043,0.7281946,0,0)"
       inkscape:export-filename="./page_gearring.svg"
       inkscape:export-xdpi="96"
       inkscape:export-ydpi="96" />
    <rect
       style="fill:#e6e6e6;stroke:#e6e6e6;stroke-width:0.264583"
       id="rect2"
       width="15.271885"
       height="6.5338769"
       x="20.737612"
       y="262.87436"
       inkscape:export-filename="./page_base.svg"
       inkscape:export-xdpi="96"
       inkscape:export-ydpi="96" />
    <text
       xml:space="preserve"
       transform="scale(0.26458333)"
       id="text111"
       style="font-style:normal;font-weight:normal;font-size:14.6667px;line-height:1.25;font-family:sans-serif;white-space:pre;shape-inside:url(#rect113);display:inline;fill:#000000;fill-opacity:1;stroke:none"><tspan
         x="7.9628906"
         y="18.944476"
         id="tspan8">menu_icons.svg</tspan></text>
    <rect
       style="fill:none;fill-opacity:1;stroke:none;stroke-width:0.264583"
       id="rect111"
       width="21.166666"
       height="21.166666"
       x="16.38475"
       y="22.264185"
       inkscape:export-filename="page_index.svg"
       inkscape:export-xdpi="96"
       inkscape:export-ydpi="96" />
    <path
       style="fill:#6495ed;fill-opacity:1;stroke:#6495ed;stroke-width:0.264583px;stroke-linecap:butt;stroke-linejoin:miter;stroke-opacity:1"
       d="m 17.351341,40.891207 c 0.688228,-0.144405 4.541661,-3.170986 5.871448,-5.499681 0.986026,-1.726708 1.299645,-5.821926 1.299645,-5.821926 l 2.057925,-0.139488 c 0,0 0.512142,2.362469 0.928494,3.493008 0.662584,1.799142 1.022511,3.944523 2.480694,5.189365 1.797675,1.534664 6.798098,2.016755 6.798098,2.016755 l -0.610803,2.221995 c 0,0 -5.691681,-0.05653 -7.745641,-1.723031 -1.496696,-1.214359 -2.391592,-5.264332 -2.391592,-5.264332 0,0 -1.84102,3.017956 -3.145572,4.17177 -1.213039,1.072875 -4.20741,2.429077 -4.20741,2.429077 z"
       id="path327"
       sodipodi:nodetypes="caccaaccacacc" />
    <path
       style="fill:#6495ed;fill-opacity:1;stroke:#6495ed;stroke-width:0.264583px;stroke-linecap:butt;stroke-linejoin:miter;stroke-opacity:1"
       d="m 25.925314,22.621204 c 1.15268,0.11947 2.381289,0.990045 2.789783,2.074516 0.286936,0.761759 0.07021,1.818248 -0.511256,2.387906 -0.653247,0.639987 -1.793348,0.678245 -2.693922,0.519244 -0.970749,-0.171391 -1.8626,-0.800917 -2.536613,-1.520247 -0.434325,-0.463527 -1.0781,-1.094138 -0.871346,-1.694762 0.456961,-1.327479 2.426907,-1.911393 3.823354,-1.766657 z"
       id="path376"
       sodipodi:nodetypes="aaaaaaa" />
    <text
       xml:space="preserve"
       transform="scale(0.26458333)"
       id="text479"
       style="font-style:normal;font-weight:normal;font-size:14.6667px;line-height:1.25;font-family:sans-serif;white-space:pre;shape-inside:url(#rect481);display:inline;fill:#000000;fill-opacity:1;stroke:none"><tspan
         x="399.25586"
         y="46.198382"
         id="tspan9">index
</tspan><tspan
         x="399.25586"
         y="64.531756"
         id="tspan10">rough
</tspan><tspan
         x="399.25586"
         y="82.86513"
         id="tspan11">circle
</tspan><tspan
         x="399.25586"
         y="101.1985"
         id="tspan12">docs
</tspan><tspan
         x="399.25586"
         y="119.53188"
         id="tspan13">readme
</tspan><tspan
         x="399.25586"
         y="137.86525"
         id="tspan14">about</tspan></text>
    <rect
       style="fill:none;stroke:#e6e6e6;stroke-width:0.264583"
       id="rect111-3"
       width="21.166666"
       height="21.166666"
       x="52.516754"
       y="6.7876711"
       inkscape:export-filename="../24168d4b/page_index.png"
       inkscape:export-xdpi="96"
       inkscape:export-ydpi="96" />
    <rect
       style="fill:none;stroke:#e6e6e6;stroke-width:0.264583"
       id="rect111-3-3"
       width="21.166666"
       height="21.166666"
       x="116.97192"
       y="86.184929"
       inkscape:export-filename="../24168d4b/page_index.png"
       inkscape:export-xdpi="96"
       inkscape:export-ydpi="96" />
    <rect
       style="fill:none;stroke:none;stroke-width:0.264583"
       id="rect111-3-6"
       width="21.166666"
       height="21.166666"
       x="16.868374"
       y="52.04298"
       inkscape:export-filename="page_rough.svg"
       inkscape:export-xdpi="96"
       inkscape:export-ydpi="96" />
    <path
       style="fill:#6495ed;fill-opacity:1;stroke:#6495ed;stroke-width:0.264583px;stroke-linecap:butt;stroke-linejoin:miter;stroke-opacity:1"
       d="m 18.043256,60.747205 7.990208,-7.268794 1.675713,3.996026 5.205341,-2.023515 2.866594,5.218858 -3.066918,11.723847 -3.597836,-5.206569 -6.491468,5.100875 -0.738002,-5.230534 -2.986419,0.886095 z"
       id="path605" />
    <rect
       style="fill:none;stroke:none;stroke-width:0.264583"
       id="rect111-3-6-7"
       width="21.166666"
       height="21.166666"
       x="44.946857"
       y="52.497704"
       inkscape:export-filename="page_circles.png"
       inkscape:export-xdpi="96"
       inkscape:export-ydpi="96" />
    <path
       style="fill:none;stroke:#6495ed;stroke-width:1.5875;stroke-linecap:butt;stroke-linejoin:miter;stroke-opacity:1"
       d="m 48.421777,59.681067 c 0.550663,-1.118537 1.158486,-2.309333 2.157473,-3.055242 1.962411,-1.465265 4.517044,-2.55195 6.958478,-2.358411 2.413307,0.19131 5.257486,1.26515 6.425102,3.385839 1.325694,2.407799 0.656845,5.803342 -0.652587,8.220024 -1.606992,2.965857 -4.816325,5.104551 -8.013559,6.179923 -2.449576,0.823901 -5.814633,1.647295 -7.753015,-0.06206 -1.666614,-1.4697 -1.071697,-4.39263 -0.886709,-6.606992 0.165665,-1.983058 0.885882,-3.917738 1.764817,-5.703078 z"
       id="path634"
       sodipodi:nodetypes="aaaaaaaaa" />
    <rect
       style="fill:none;stroke:none;stroke-width:0.264583"
       id="rect111-3-6-7-5"
       width="21.166666"
       height="21.166666"
       x="17.229078"
       y="79.978294"
       inkscape:export-filename="page_docs.svg"
       inkscape:export-xdpi="96"
       inkscape:export-ydpi="96" />
    <path
       style="fill:none;stroke:#6495ed;stroke-width:1.5875;stroke-linecap:butt;stroke-linejoin:miter;stroke-opacity:1;marker-start:url(#CapTriangle);marker-end:url(#marker1593)"
       d="m 18.962533,87.887982 13.538432,-6.72313"
       id="path663"
       sodipodi:nodetypes="cc" />
    <path
       style="fill:none;stroke:#6495ed;stroke-width:1.5875;stroke-linecap:butt;stroke-linejoin:miter;stroke-opacity:1;marker-start:url(#CapTriangle);marker-end:url(#marker1593)"
       d="M 18.958845,92.661336 33.379686,85.496387"
       id="path665"
       sodipodi:nodetypes="cc" />
    <path
       style="fill:none;stroke:#6495ed;stroke-width:1.5875;stroke-linecap:butt;stroke-linejoin:miter;stroke-opacity:1;marker-start:url(#CapTriangle);marker-end:url(#marker1593)"
       d="m 22.488474,95.649598 14.221745,-7.58526"
       id="path667"
       sodipodi:nodetypes="cc" />
    <path
       style="fill:none;stroke:#6495ed;stroke-width:1.5875;stroke-linecap:butt;stroke-linejoin:miter;stroke-opacity:1;marker-start:url(#CapTriangle);marker-end:url(#marker1593)"
       d="M 25.454615,99.876056 36.629106,93.485365"
       id="path669"
       sodipodi:nodetypes="cc" />
    <rect
       style="fill:none;stroke:none;stroke-width:0.264583"
       id="rect111-3-6-7-5-3"
       width="21.166666"
       height="21.166666"
       x="44.025734"
       y="80.079063"
       inkscape:export-filename="page_readme.svg"
       inkscape:export-xdpi="96"
       inkscape:export-ydpi="96" />
    <path
       style="fill:none;stroke:#6495ed;stroke-width:1.5875;stroke-linecap:butt;stroke-linejoin:miter;stroke-opacity:1"
       d="m 46.895384,99.019459 c 0,0 2.435589,-1.408539 3.006696,-2.605436 1.070136,-2.242738 0.766996,-5.019942 0.250711,-7.450686 -0.411092,-1.935479 -2.593758,-5.339299 -2.593758,-5.339299 0,0 4.319671,-1.59972 6.586099,-1.743308 2.817377,-0.178494 6.53424,-1.006316 8.395155,1.116529 0.892496,1.018118 0.802084,2.968295 0.0037,4.061774 -1.6299,2.232334 -7.900492,2.51818 -7.900492,2.51818 0,0 3.071686,0.375 3.867597,1.506728 0.333187,0.473767 0.04609,1.736979 0.04609,1.736979"
       id="path1795"
       sodipodi:nodetypes="caacaaacac" />
    <path
       style="fill:none;stroke:#6495ed;stroke-width:1.5875;stroke-linecap:butt;stroke-linejoin:miter;stroke-opacity:1"
       d="m 53.0157,92.610661 -0.27898,7.469069"
       id="path1797" />
    <path
       style="fill:none;stroke:#6495ed;stroke-width:1.5875;stroke-linecap:butt;stroke-linejoin:miter;stroke-opacity:1"
       d="m 52.663504,96.05516 c 0,0 1.207106,-2.153191 2.268787,-2.25702 0.952471,-0.09315 1.834578,0.812182 2.389137,1.592144 0.533558,0.750425 0.616449,1.756582 0.691915,2.674257 0.05756,0.699915 -0.187421,2.098479 -0.187421,2.098479"
       id="path1799"
       sodipodi:nodetypes="caaac" />
    <path
       style="fill:none;stroke:#6495ed;stroke-width:1.5875;stroke-linecap:butt;stroke-linejoin:miter;stroke-opacity:1"
       d="m 58.036078,95.9169 c 0,0 1.120101,-1.55867 1.979885,-1.75191 0.706836,-0.158864 1.652931,0.02556 2.087423,0.605274 1.049832,1.400725 -0.01167,5.251426 -0.01167,5.251426"
       id="path1801"
       sodipodi:nodetypes="caac" />
    <rect
       style="fill:none;stroke:none;stroke-width:0.264583"
       id="rect111-3-6-7-5-3-5"
       width="21.166666"
       height="21.166666"
       x="68.470741"
       y="80.211189"
       inkscape:export-filename="page_about.svg"
       inkscape:export-xdpi="96"
       inkscape:export-ydpi="96" />
    <ellipse
       style="fill:none;stroke:#6495ed;stroke-width:1.5875;stroke-opacity:1"
       id="path1886"
       cx="79.085114"
       cy="90.677155"
       rx="9.1346941"
       ry="9.0710945" />
    <ellipse
       style="fill:#6495ed;fill-opacity:1;stroke:#6495ed;stroke-width:1.5875;stroke-opacity:1"
       id="path1888"
       cx="79.075272"
       cy="90.636902"
       rx="3.0395725"
       ry="2.9633758" />
    <rect
       style="fill:none;fill-opacity:1;stroke:#6495ed;stroke-width:1.5875;stroke-dasharray:none;stroke-opacity:1"
       id="rect221"
       width="16.602705"
       height="8.2451563"
       x="57.243599"
       y="80.521927"
       transform="matrix(0.96249558,-0.27129737,0.27683339,0.96091793,0,0)"
       inkscape:export-filename="page_rectangle.svg"
       inkscape:export-xdpi="96"
       inkscape:export-ydpi="96" />
    <rect
       style="fill:none;stroke:none;stroke-width:0.264583"
       id="rect111-3-6-6"
       width="21.166666"
       height="21.166666"
       x="76.022354"
       y="53.264275"
       inkscape:export-filename="page_rough.svg"
       inkscape:export-xdpi="96"
       inkscape:export-ydpi="96" />
    <rect
       style="fill:#6495ed;fill-opacity:1;stroke:#6495ed;stroke-width:1.5875;stroke-opacity:1"
       id="rect304"
       width="17.895151"
       height="6.240798"
       x="16.776169"
       y="113.73392"
       inkscape:export-filename="page_ui.svg"
       inkscape:export-xdpi="96"
       inkscape:export-ydpi="96" />
    <path
       style="fill:#6495ed;fill-opacity:1;stroke:#6495ed;stroke-width:0.264583px;stroke-linecap:butt;stroke-linejoin:miter;stroke-opacity:1"
       d="m 22.880297,130.47 c 0,0 -2.647312,-7.07199 -1.315443,-7.45374 1.33187,-0.38176 7.890688,1.07758 7.890688,1.07758 l -3.146025,2.60789 5.690834,5.06399 -1.906801,1.26091 -5.329449,-5.10407 z"
       id="path2245"
       sodipodi:nodetypes="cscccccc" />
    <path
       style="fill:#6495ed;fill-opacity:1;stroke:#6495ed;stroke-width:0.264583px;stroke-linecap:butt;stroke-linejoin:miter;stroke-opacity:1"
       d="m 52.707738,132.16391 10.202895,-19.11598 8.623314,12.90409 z"
       id="path2619"
       sodipodi:nodetypes="cccc"
       inkscape:export-filename="page_geom.svg"
       inkscape:export-xdpi="96"
       inkscape:export-ydpi="96" />
    <g
       inkscape:label="Rendered Gears"
       transform="matrix(0.78683921,0,0,0.78685676,95.8905,120.70238)"
       id="g3054"
       style="fill:#6495ed;fill-opacity:1;stroke:#6495ed;stroke-width:1.27089;stroke-opacity:1"
       inkscape:export-filename="page_gears.svg"
       inkscape:export-xdpi="96"
       inkscape:export-ydpi="96">
      <path
         style="fill:#6495ed;fill-opacity:1;stroke:#6495ed;stroke-width:0.336257;stroke-opacity:1"
         d="m 9.17893,-1.25361 1.01467,-0.13858 0.6751,0.07249 1.7529,0.7857 V 0.534 L 10.8687,1.3197 10.1936,1.39219 9.17893,1.25361 8.71012,3.15565 9.67299,3.50449 10.2371,3.8824 11.4241,5.39273 10.9277,6.3384 9.01047,6.21948 8.37902,5.96994 7.54496,5.37568 6.24593,6.84198 6.93639,7.59834 7.26022,8.1951 7.60938,10.084 6.73043,10.6907 5.08804,9.69445 4.64489,9.18004 4.18253,8.26625 2.35087,8.9609 2.61075,9.95149 2.62016,10.6304 2.05148,12.4652 0.99126,12.594 0,10.9485 -0.15333,10.2871 -0.13807,9.26312 -2.08275,9.02699 -2.31299,10.0249 -2.62016,10.6304 -3.97639,11.9908 -4.97499,11.6121 -5.08804,9.69445 -4.91643,9.03753 -4.42704,8.13792 -6.03923,7.0251 -6.70685,7.80169 -7.26022,8.1951 -9.09332,8.76939 -9.80153,7.96999 -9.01047,6.21948 -8.55323,5.71755 -7.70183,5.14842 -8.6122,3.41384 -9.56425,3.79123 -10.2371,3.8824 l -1.89,-0.34336 -0.2556,-1.03697 1.514,-1.18237 0.6381,-0.23194 1.01838,-0.10828 v -1.95896 l -1.01838,-0.10828 -0.6381,-0.23194 -1.514,-1.18237 0.2556,-1.03697 1.89,-0.34336 0.67285,0.09117 0.95205,0.37739 0.91037,-1.73458 -0.8514,-0.56913 -0.45724,-0.50193 -0.79106,-1.75051 0.70821,-0.7994 1.8331,0.57429 0.55337,0.39341 0.66762,0.77659 1.61219,-1.11282 -0.48939,-0.89961 -0.17161,-0.65692 0.11305,-1.91765 0.9986,-0.3787 1.35623,1.3604 0.30717,0.6055 0.23024,0.99791 1.94468,-0.23613 L -0.15333,-10.2871 0,-10.9485 l 0.99126,-1.6455 1.06022,0.1288 0.56868,1.8348 -0.00941,0.67891 -0.25988,0.99059 1.83166,0.69465 0.46236,-0.91379 0.44315,-0.51441 1.64239,-0.99625 0.87895,0.6067 -0.34916,1.8889 -0.32383,0.59676 -0.69046,0.75636 1.29903,1.4663 0.83406,-0.59426 0.63145,-0.24954 1.91723,-0.11892 0.4964,0.94567 -1.187,1.51033 -0.56411,0.37791 -0.96287,0.34884 z"
         id="path3050" />
      <circle
         style="fill:#6495ed;fill-opacity:1;stroke:#6495ed;stroke-width:0.336257;stroke-opacity:1"
         id="path3052"
         cx="0"
         cy="0"
         r="2.6458333" />
    </g>
    <circle
       style="fill:#f9f9f9;fill-opacity:1;stroke:#ffffff;stroke-width:1.5875;stroke-opacity:1"
       id="path3122"
       cx="95.984489"
       cy="120.70238"
       r="4.2617202" />
    <ellipse
       style="fill:#6495ed;fill-opacity:1;stroke-width:0.264583;stroke-dasharray:1, 1"
       id="path289"
       cx="22.978531"
       cy="153.26128"
       rx="1.1856728"
       ry="1.1396782"
       inkscape:export-filename="page_verify_line.svg"
       inkscape:export-xdpi="96"
       inkscape:export-ydpi="96" />
    <ellipse
       style="fill:#6495ed;fill-opacity:1;stroke-width:0.264583;stroke-dasharray:1, 1"
       id="path289-6"
       cx="25.940905"
       cy="162.70755"
       rx="1.1856728"
       ry="1.1396782" />
    <ellipse
       style="fill:#6495ed;fill-opacity:1;stroke-width:0.264583;stroke-dasharray:1, 1"
       id="path289-7"
       cx="32.927471"
       cy="156.47398"
       rx="1.1856728"
       ry="1.1396782" />
    <path
       style="fill:none;stroke:#6495ed;stroke-width:0.793749;stroke-linecap:butt;stroke-linejoin:miter;stroke-opacity:1"
       d="m 21.794998,149.07254 5.454804,17.90988"
       id="path661" />
    <path
       style="fill:none;stroke:#6495ed;stroke-width:0.793749;stroke-linecap:butt;stroke-linejoin:miter;stroke-opacity:1"
       d="m 30.372875,148.092 5.454804,17.90988"
       id="path661-5" />
    <rect
       style="fill:none;stroke:#e6e6e6;stroke-width:0.264583"
       id="rect111-3-3-3"
       width="21.166666"
       height="21.166666"
       x="55.805798"
       y="144.60477"
       inkscape:export-filename="../24168d4b/page_index.png"
       inkscape:export-xdpi="96"
       inkscape:export-ydpi="96" />
    <ellipse
       style="fill:#6495ed;fill-opacity:1;stroke-width:0.264583;stroke-dasharray:1, 1"
       id="path289-67"
       cx="59.000443"
       cy="147.9742"
       rx="1.1856728"
       ry="1.1396782"
       inkscape:export-filename="page_verify_point.svg"
       inkscape:export-xdpi="96"
       inkscape:export-ydpi="96" />
    <ellipse
       style="fill:#6495ed;fill-opacity:1;stroke-width:0.264583;stroke-dasharray:1, 1"
       id="path289-5"
       cx="63.060448"
       cy="164.00723"
       rx="1.1856728"
       ry="1.1396782"
       inkscape:export-filename="page_verify_line.svg"
       inkscape:export-xdpi="96"
       inkscape:export-ydpi="96" />
    <ellipse
       style="fill:#6495ed;fill-opacity:1;stroke-width:0.264583;stroke-dasharray:1, 1"
       id="path289-3"
       cx="74.965134"
       cy="153.03687"
       rx="1.1856728"
       ry="1.1396782"
       inkscape:export-filename="page_verify_line.svg"
       inkscape:export-xdpi="96"
       inkscape:export-ydpi="96" />
    <ellipse
       style="fill:#6495ed;fill-opacity:1;stroke-width:0.264583;stroke-dasharray:1, 1"
       id="path289-56"
       cx="66.889816"
       cy="154.12761"
       rx="1.1856728"
       ry="1.1396782"
       inkscape:export-filename="page_verify_line.svg"
       inkscape:export-xdpi="96"
       inkscape:export-ydpi="96" />
    <rect
       style="fill:none;stroke:#e6e6e6;stroke-width:0.264583"
       id="rect111-3-3-3-3"
       width="21.166666"
       height="21.166666"
       x="102.28457"
       y="145.34593"
       inkscape:export-filename="../24168d4b/page_index.png"
       inkscape:export-xdpi="96"
       inkscape:export-ydpi="96" />
    <path
       style="fill:none;stroke:#6495ed;stroke-width:0.79375;stroke-linecap:butt;stroke-linejoin:miter;stroke-opacity:1"
       d="m 107.03739,162.21508 c 0,0 -2.84838,-0.64523 -3.46158,-1.70711 -0.65994,-1.14283 -0.46027,-2.86078 0.43605,-3.85905 0.57213,-0.63719 1.68237,-0.72093 2.58232,-0.72278 0.57383,-8.4e-4 1.64879,0.45414 1.64879,0.45414"
       id="path348"
       sodipodi:nodetypes="caaac"
       inkscape:export-filename="page_concept.svg"
       inkscape:export-xdpi="96"
       inkscape:export-ydpi="96" />
    <path
       style="fill:none;stroke:#6495ed;stroke-width:0.79375;stroke-linecap:butt;stroke-linejoin:miter;stroke-opacity:1"
       d="m 106.4872,156.09736 c 0,0 -1.94211,-2.01718 -1.78766,-3.21044 0.16623,-1.28421 1.39613,-2.59275 2.75247,-2.94589 0.86576,-0.2254 1.83071,0.28518 2.57192,0.75335 0.4724,0.2988 1.07414,1.23395 1.07414,1.23395"
       id="path348-6"
       sodipodi:nodetypes="caaac" />
    <path
       style="fill:none;stroke:#6495ed;stroke-width:0.79375;stroke-linecap:butt;stroke-linejoin:miter;stroke-opacity:1"
       d="m 109.1714,152.46836 c 0,0 -0.12951,-2.68852 0.80791,-3.52794 1.00889,-0.9034 2.86201,-1.21282 4.15917,-0.70602 0.82796,0.3235 1.22905,1.27676 1.4851,2.06813 0.16291,0.50467 -0.01,1.57901 -0.01,1.57901"
       id="path348-6-7"
       sodipodi:nodetypes="caaac" />
    <path
       style="fill:none;stroke:#6495ed;stroke-width:0.79375;stroke-linecap:butt;stroke-linejoin:miter;stroke-opacity:1"
       d="m 118.39217,161.86537 c 0,0 2.84838,-0.64523 3.46158,-1.70711 0.65994,-1.14282 0.46027,-2.86078 -0.43605,-3.85904 -0.57213,-0.63719 -1.68237,-0.72094 -2.58232,-0.72278 -0.57383,-8.4e-4 -1.64878,0.45414 -1.64878,0.45414"
       id="path348-5"
       sodipodi:nodetypes="caaac" />
    <path
       style="fill:none;stroke:#6495ed;stroke-width:0.79375;stroke-linecap:butt;stroke-linejoin:miter;stroke-opacity:1"
       d="m 118.94236,155.74765 c 0,0 1.94211,-2.01717 1.78766,-3.21044 -0.16623,-1.28421 -1.39613,-2.59275 -2.75247,-2.94588 -0.86576,-0.2254 -1.83071,0.28517 -2.57192,0.75335 -0.4724,0.29879 -1.07414,1.23395 -1.07414,1.23395"
       id="path348-6-3"
       sodipodi:nodetypes="caaac" />
    <path
       style="fill:none;stroke:#6495ed;stroke-width:0.793753;stroke-linecap:butt;stroke-linejoin:miter;stroke-opacity:1"
       d="m 109.3353,158.07135 c 0,0 -0.8818,0.0218 -1.14719,-0.43375 -0.28561,-0.49027 -0.3681,-1.37097 -0.18894,-1.97684 0.11436,-0.38672 0.43063,-0.56237 0.69241,-0.67182 0.16693,-0.0696 0.51702,0.0279 0.51702,0.0279"
       id="path348-6-7-5"
       sodipodi:nodetypes="caaac" />
    <path
       style="fill:none;stroke:#6495ed;stroke-width:0.793753;stroke-linecap:butt;stroke-linejoin:miter;stroke-opacity:1"
       d="m 116.05326,157.57817 c 0,0 0.8818,0.0218 1.14719,-0.43375 0.28561,-0.49027 0.3681,-1.37097 0.18894,-1.97684 -0.11436,-0.38672 -0.43063,-0.56237 -0.69241,-0.67182 -0.16693,-0.0696 -0.51702,0.0279 -0.51702,0.0279"
       id="path348-6-7-5-6"
       sodipodi:nodetypes="caaac" />
    <rect
       style="fill:none;stroke:#e6e6e6;stroke-width:0.264583"
       id="rect111-3-3-3-36"
       width="21.166666"
       height="21.166666"
       x="22.779978"
       y="189.93141"
       inkscape:export-filename="../24168d4b/page_index.png"
       inkscape:export-xdpi="96"
       inkscape:export-ydpi="96" />
    <path
       style="fill:none;stroke:#6495ed;stroke-width:0.529167;stroke-linecap:butt;stroke-linejoin:miter;stroke-opacity:1;marker-end:url(#ArrowWide)"
       d="m 29.075561,208.77958 c 0,0 1.850505,-0.35392 2.401333,-1.0283 0.714722,-0.87504 0.555089,-2.19719 0.685308,-3.31949 0.188335,-1.62319 0.144316,-3.26634 0.13447,-4.90039 -0.0076,-1.25595 0.07176,-2.52851 -0.148736,-3.76497 -0.180031,-1.00957 -0.17558,-2.25275 -0.948621,-2.92657 -0.598905,-0.52204 -2.346423,-0.41855 -2.346423,-0.41855"
       id="path1"
       sodipodi:nodetypes="caaaaac"
       inkscape:export-filename="page_magnetic.svg"
       inkscape:export-xdpi="96"
       inkscape:export-ydpi="96" />
    <path
       style="fill:none;stroke:#6495ed;stroke-width:0.529167;stroke-linecap:butt;stroke-linejoin:miter;stroke-opacity:1;marker-end:url(#ArrowWide)"
       d="m 29.08193,192.51777 c 0,0 -2.147464,0.30015 -2.845089,1.0283 -0.802275,0.83738 -0.842,2.17709 -1.041446,3.31949 -0.281175,1.61052 -0.219298,3.26557 -0.204351,4.90039 0.0115,1.2572 -0.09577,2.5496 0.226031,3.76497 0.278336,1.05123 0.564031,2.28436 1.441599,2.92657 0.751358,0.54985 2.761641,0.41855 2.761641,0.41855"
       id="path1-9"
       sodipodi:nodetypes="caaaaac" />
    <path
       style="fill:none;stroke:#6495ed;stroke-width:0.529167;stroke-linecap:butt;stroke-linejoin:miter;stroke-opacity:1;marker-end:url(#ArrowWide-1)"
       d="m 37.630674,208.74751 c 0,0 -1.850505,-0.35392 -2.401333,-1.0283 -0.714722,-0.87504 -0.555089,-2.19719 -0.685308,-3.31949 -0.188335,-1.62319 -0.144316,-3.26634 -0.13447,-4.90039 0.0076,-1.25595 -0.07176,-2.52851 0.148736,-3.76497 0.180031,-1.00957 0.17558,-2.25275 0.948621,-2.92657 0.598905,-0.52204 2.346423,-0.41855 2.346423,-0.41855"
       id="path3"
       sodipodi:nodetypes="caaaaac" />
    <path
       style="fill:none;stroke:#6495ed;stroke-width:0.529167;stroke-linecap:butt;stroke-linejoin:miter;stroke-opacity:1;marker-end:url(#ArrowWide-1)"
       d="m 37.624305,192.4857 c 0,0 2.147464,0.30015 2.845089,1.0283 0.802275,0.83738 0.842,2.17709 1.041446,3.31949 0.281175,1.61052 0.219298,3.26557 0.204351,4.90039 -0.0115,1.2572 0.09577,2.5496 -0.226031,3.76497 -0.278336,1.05123 -0.564031,2.28436 -1.441599,2.92657 -0.751358,0.54985 -2.761641,0.41855 -2.761641,0.41855"
       id="path1-9-0"
       sodipodi:nodetypes="caaaaac" />
    <rect
       style="fill:none;stroke:#e6e6e6;stroke-width:0.264583"
       id="rect111-3-3-3-36-3"
       width="21.166666"
       height="21.166666"
       x="59.74538"
       y="189.77715"
       inkscape:export-filename="../24168d4b/page_index.png"
       inkscape:export-xdpi="96"
       inkscape:export-ydpi="96" />
    <path
       style="fill:#6495ed;fill-opacity:1;stroke:#6495ed;stroke-width:0.264583px;stroke-linecap:butt;stroke-linejoin:miter;stroke-opacity:1"
       d="m 60.476867,192.88455 v 10.40987 h 2.911452 v -4.52323 h 12.383693 v 4.19733 h 3.094773 v -11.56828 h -3.449587 v 3.82477 H 63.262819 v -4.70392 H 60.25675 Z"
       id="path4"
       inkscape:export-filename="./page_axis.svg"
       inkscape:export-xdpi="96"
       inkscape:export-ydpi="96" />
    <path
       style="fill:#6495ed;fill-opacity:1;stroke:#6495ed;stroke-width:0.264583px;stroke-linecap:butt;stroke-linejoin:miter;stroke-opacity:1"
       d="m 64.448821,191.96837 v 1.99419 h 9.200873 v -2.15583 z"
       id="path5" />
    <path
       style="fill:#6495ed;fill-opacity:1;stroke:#6495ed;stroke-width:0.264583px;stroke-linecap:butt;stroke-linejoin:miter;stroke-opacity:1"
       d="m 64.477074,199.90223 h 9.433475 v 2.35206 h -3.848854 v 4.44372 h 7.219595 v 2.48305 H 61.018287 v -2.50099 h 6.700973 v -4.41767 h -3.001468 z"
       id="path6"
       sodipodi:nodetypes="ccccccccccccc" />
    <rect
       style="fill:none;stroke:#e6e6e6;stroke-width:0.264583"
       id="rect111-3-3-3-36-3-3"
       width="21.166666"
       height="21.166666"
       x="19.726486"
       y="222.50079"
       inkscape:export-filename="../24168d4b/page_index.png"
       inkscape:export-xdpi="96"
       inkscape:export-ydpi="96" />
    <path
       style="fill:#6495ed;fill-opacity:1;stroke:#6495ed;stroke-width:0.264583px;stroke-linecap:butt;stroke-linejoin:miter;stroke-opacity:1"
       d="m 24.729464,242.98958 7.618391,0.0716 0.01151,-6.15305 -2.132063,-13.69979 h -3.449113 l -2.146607,13.16181 z"
       id="path7"
       sodipodi:nodetypes="ccccccc"
       inkscape:export-filename="page_pole_static.svg"
       inkscape:export-xdpi="96"
       inkscape:export-ydpi="96" />
    <path
       style="fill:#f9f9f9;stroke:#f9f9f9;stroke-width:0.264583px;stroke-linecap:butt;stroke-linejoin:miter;stroke-opacity:1"
       d="m 26.497437,238.5622 -0.05191,2.76178 c 0,0 0.563002,0.92323 1.007936,0.8895 0.442658,-0.0336 0.860755,-1.02619 0.860755,-1.02619 l 0.126156,-2.49105 c 0,0 -0.559424,-1.12407 -1.072001,-1.11379 -0.434493,0.009 -0.870936,0.97975 -0.870936,0.97975 z"
       id="path8"
       sodipodi:nodetypes="ccaccac" />
    <rect
       style="fill:none;stroke:#e6e6e6;stroke-width:0.264583"
       id="rect111-3-3-3-36-3-3-3"
       width="21.166666"
       height="21.166666"
       x="48.601749"
       y="222.87488"
       inkscape:export-filename="../24168d4b/page_index.png"
       inkscape:export-xdpi="96"
       inkscape:export-ydpi="96" />
    <rect
       style="fill:#6495ed;fill-opacity:1;stroke:#6495ed;stroke-width:0.264584;stroke-opacity:1"
       id="rect1"
       width="4.2193389"
       height="14.700501"
       x="55.445297"
       y="226.19705"
       inkscape:export-filename="./page_vaxis.svg"
       inkscape:export-xdpi="96"
       inkscape:export-ydpi="96" />
    <circle
       style="fill:#6495ed;fill-opacity:1;stroke:#ffffff;stroke-width:0.264583;stroke-opacity:1"
       id="path9"
       cx="57.606976"
       cy="240.71013"
       r="2.3146737" />
    <circle
       style="fill:#ffffff;fill-opacity:1;stroke:#6495ed;stroke-width:0.264583;stroke-opacity:1"
       id="path10"
       cx="57.584305"
       cy="240.74167"
       r="1.3714577" />
    <circle
       style="fill:#6495ed;fill-opacity:1;stroke:#ffffff;stroke-width:0.264583;stroke-opacity:1"
       id="path9-5"
       cx="57.606308"
       cy="226.48018"
       r="2.3146737" />
    <circle
       style="fill:#ffffff;fill-opacity:1;stroke:#6495ed;stroke-width:0.264583;stroke-opacity:1"
       id="path10-3"
       cx="57.583637"
       cy="226.51172"
       r="1.3714577" />
    <rect
       style="fill:none;stroke:#e6e6e6;stroke-width:0.264583"
       id="rect111-3-3-3-36-3-3-3-3"
       width="21.166666"
       height="21.166666"
       x="80.82518"
       y="222.62024"
       inkscape:export-filename="../24168d4b/page_index.png"
       inkscape:export-xdpi="96"
       inkscape:export-ydpi="96" />
    <rect
       style="fill:#6495ed;fill-opacity:1;stroke:#6495ed;stroke-width:0.264584;stroke-opacity:1"
       id="rect1-6"
       width="4.2193389"
       height="7.0562139"
       x="83.280853"
       y="224.93306"
       inkscape:export-filename="./page_surface.svg"
       inkscape:export-xdpi="96"
       inkscape:export-ydpi="96" />
    <rect
       style="fill:#6495ed;fill-opacity:1;stroke:#6495ed;stroke-width:0.264584;stroke-opacity:1"
       id="rect1-6-6"
       width="4.2193389"
       height="7.0562139"
       x="89.35228"
       y="224.93306"
       inkscape:export-filename="./page_pole_rotor.svg"
       inkscape:export-xdpi="96"
       inkscape:export-ydpi="96" />
    <rect
       style="fill:#6495ed;fill-opacity:1;stroke:#6495ed;stroke-width:0.264584;stroke-opacity:1"
       id="rect1-6-2"
       width="4.2193389"
       height="7.0562139"
       x="95.423706"
       y="224.93306"
       inkscape:export-filename="./page_pole_rotor.svg"
       inkscape:export-xdpi="96"
       inkscape:export-ydpi="96" />
    <rect
       style="fill:#6495ed;fill-opacity:1;stroke:#6495ed;stroke-width:0.264584;stroke-opacity:1"
       id="rect1-6-9"
       width="4.2193389"
       height="7.0562139"
       x="83.280853"
       y="233.84134"
       inkscape:export-filename="./page_pole_rotor.svg"
       inkscape:export-xdpi="96"
       inkscape:export-ydpi="96" />
    <rect
       style="fill:#6495ed;fill-opacity:1;stroke:#6495ed;stroke-width:0.264584;stroke-opacity:1"
       id="rect1-6-6-1"
       width="4.2193389"
       height="7.0562139"
       x="89.35228"
       y="233.84134"
       inkscape:export-filename="./page_pole_rotor.svg"
       inkscape:export-xdpi="96"
       inkscape:export-ydpi="96" />
    <rect
       style="fill:#6495ed;fill-opacity:1;stroke:#6495ed;stroke-width:0.264584;stroke-opacity:1"
       id="rect1-6-2-2"
       width="4.2193389"
       height="7.0562139"
       x="95.423706"
       y="233.84134"
       inkscape:export-filename="./page_pole_rotor.svg"
       inkscape:export-xdpi="96"
       inkscape:export-ydpi="96" />
    <rect
       style="fill:none;stroke:#e6e6e6;stroke-width:0.264583"
       id="rect111-3-3-3-36-3-3-3-3-3"
       width="21.166666"
       height="21.166666"
       x="117.57075"
       y="222.01765"
       inkscape:export-filename="../24168d4b/page_index.png"
       inkscape:export-xdpi="96"
       inkscape:export-ydpi="96" />
    <rect
       style="fill:#6495ed;fill-opacity:1;stroke:#6495ed;stroke-width:0.264584;stroke-opacity:1"
       id="rect1-6-2-2-6"
       width="16.642672"
       height="1.0143641"
       x="119.55116"
       y="228.49007"
       inkscape:export-filename="./page_trapeze.svg"
       inkscape:export-xdpi="96"
       inkscape:export-ydpi="96" />
    <rect
       style="fill:#6495ed;fill-opacity:1;stroke:#6495ed;stroke-width:0.264584;stroke-opacity:1"
       id="rect1-6-2-2-6-7"
       width="5.8710442"
       height="1.0143641"
       x="124.93697"
       y="232.67938"
       inkscape:export-filename="./page_pole_rotor.svg"
       inkscape:export-xdpi="96"
       inkscape:export-ydpi="96" />
    <rect
       style="fill:#6495ed;fill-opacity:1;stroke:#6495ed;stroke-width:0.264656;stroke-opacity:1"
       id="rect1-6-2-2-6-7-5"
       width="6.5824099"
       height="0.41593638"
       x="224.29048"
       y="121.40472"
       inkscape:export-filename="./page_pole_rotor.svg"
       inkscape:export-xdpi="96"
       inkscape:export-ydpi="96"
       transform="matrix(0.82493646,0.56522547,-0.53746408,0.84328664,0,0)" />
    <rect
       style="fill:#6495ed;fill-opacity:1;stroke:#6495ed;stroke-width:0.264656;stroke-opacity:1"
       id="rect1-6-2-2-6-7-5-3"
       width="6.5824099"
       height="0.41593638"
       x="8.5046549"
       y="266.03842"
       inkscape:export-filename="./page_pole_rotor.svg"
       inkscape:export-xdpi="96"
       inkscape:export-ydpi="96"
       transform="matrix(-0.82493646,0.56522547,0.53746408,0.84328664,0,0)" />
    <rect
       style="fill:none;stroke:#e6e6e6;stroke-width:0.264583"
       id="rect111-3-3-3-36-3-3-36"
       width="21.166666"
       height="21.166666"
       x="18.721292"
       y="251.19751"
       inkscape:export-filename="../24168d4b/page_index.png"
       inkscape:export-xdpi="96"
       inkscape:export-ydpi="96" />
    <rect
       style="fill:none;stroke:#e6e6e6;stroke-width:0.264583"
       id="rect111-3-3-3-36-3-3-7"
       width="21.166666"
       height="21.166666"
       x="47.926151"
       y="251.49217"
       inkscape:export-filename="../24168d4b/page_index.png"
       inkscape:export-xdpi="96"
       inkscape:export-ydpi="96" />
    <rect
       style="fill:none;stroke:#e6e6e6;stroke-width:0.264583"
       id="rect111-3-3-3-36-3-3-5"
       width="21.166666"
       height="21.166666"
       x="77.731117"
       y="251.43626"
       inkscape:export-filename="../24168d4b/page_index.png"
       inkscape:export-xdpi="96"
       inkscape:export-ydpi="96" />
    <rect
       style="fill:none;stroke:#e6e6e6;stroke-width:0.264583"
       id="rect111-3-3-3-36-3-3-35"
       width="21.166666"
       height="21.166666"
       x="107.21812"
       y="252.20511"
       inkscape:export-filename="../24168d4b/page_index.png"
       inkscape:export-xdpi="96"
       inkscape:export-ydpi="96" />
    <rect
       style="fill:#6495ed;fill-opacity:1;stroke:#6495ed;stroke-width:0.264584;stroke-opacity:1"
       id="rect1-6-2-2-6-6"
       width="4.4465356"
       height="1.0143641"
       x="21.564777"
       y="265.09058"
       inkscape:export-filename="./page_trapeze.svg"
       inkscape:export-xdpi="96"
       inkscape:export-ydpi="96" />
    <rect
       style="fill:#6495ed;fill-opacity:1;stroke:#6495ed;stroke-width:0.264584;stroke-opacity:1"
       id="rect1-6-2-2-6-6-2"
       width="4.4465356"
       height="1.0143641"
       x="-265.09058"
       y="23.280863"
       inkscape:export-filename="./page_trapeze.svg"
       inkscape:export-xdpi="96"
       inkscape:export-ydpi="96"
       transform="rotate(-90)" />
    <rect
       style="fill:#6495ed;fill-opacity:1;stroke:#6495ed;stroke-width:0.264584;stroke-opacity:1"
       id="rect1-6-2-2-6-6-2-9"
       width="2.2933133"
       height="1.0143641"
       x="-25.574175"
       y="-261.15121"
       inkscape:export-filename="./page_trapeze.svg"
       inkscape:export-xdpi="96"
       inkscape:export-ydpi="96"
       transform="scale(-1)" />
    <rect
       style="fill:#6495ed;fill-opacity:1;stroke:#6495ed;stroke-width:0.264584;stroke-opacity:1"
       id="rect1-6-2-2-6-6-1"
       width="4.4465356"
       height="1.0143641"
       x="-35.220352"
       y="265.09058"
       inkscape:export-filename="./page_trapeze.svg"
       inkscape:export-xdpi="96"
       inkscape:export-ydpi="96"
       transform="scale(-1,1)" />
    <rect
       style="fill:#6495ed;fill-opacity:1;stroke:#6495ed;stroke-width:0.264584;stroke-opacity:1"
       id="rect1-6-2-2-6-6-2-2"
       width="4.4465356"
       height="1.0143641"
       x="-265.09058"
       y="-33.504265"
       inkscape:export-filename="./page_trapeze.svg"
       inkscape:export-xdpi="96"
       inkscape:export-ydpi="96"
       transform="matrix(0,-1,-1,0,0,0)" />
    <rect
       style="fill:#6495ed;fill-opacity:1;stroke:#6495ed;stroke-width:0.264584;stroke-opacity:1"
       id="rect1-6-2-2-6-6-2-9-7"
       width="2.2933133"
       height="1.0143641"
       x="31.210953"
       y="-261.15121"
       inkscape:export-filename="./page_trapeze.svg"
       inkscape:export-xdpi="96"
       inkscape:export-ydpi="96"
       transform="scale(1,-1)" />
    <rect
       style="fill:#6495ed;fill-opacity:1;stroke:#6495ed;stroke-width:0.264584;stroke-opacity:1"
       id="rect1-6-2-2-6-0"
       width="16.642672"
       height="1.0143641"
       x="49.961014"
       y="261.95316"
       inkscape:export-filename="./page_rake.svg"
       inkscape:export-xdpi="96"
       inkscape:export-ydpi="96" />
    <rect
       style="fill:#6495ed;fill-opacity:1;stroke:#6495ed;stroke-width:0.264584;stroke-opacity:1"
       id="rect1-6-2-2-6-6-2-2-9"
       width="4.4465356"
       height="1.0143641"
       x="-262.96753"
       y="-50.975376"
       inkscape:export-filename="./page_trapeze.svg"
       inkscape:export-xdpi="96"
       inkscape:export-ydpi="96"
       transform="matrix(0,-1,-1,0,0,0)" />
    <rect
       style="fill:#6495ed;fill-opacity:1;stroke:#6495ed;stroke-width:0.264584;stroke-opacity:1"
       id="rect1-6-2-2-6-6-2-2-3"
       width="4.4465356"
       height="1.0143641"
       x="-262.96753"
       y="-66.603683"
       inkscape:export-filename="./page_trapeze.svg"
       inkscape:export-xdpi="96"
       inkscape:export-ydpi="96"
       transform="matrix(0,-1,-1,0,0,0)" />
    <rect
       style="fill:#6495ed;fill-opacity:1;stroke:#6495ed;stroke-width:0.264584;stroke-opacity:1"
       id="rect1-6-2-2-6-6-2-2-6"
       width="4.4465356"
       height="1.0143641"
       x="-262.96753"
       y="-56.306667"
       inkscape:export-filename="./page_trapeze.svg"
       inkscape:export-xdpi="96"
       inkscape:export-ydpi="96"
       transform="matrix(0,-1,-1,0,0,0)" />
    <rect
       style="fill:#6495ed;fill-opacity:1;stroke:#6495ed;stroke-width:0.264584;stroke-opacity:1"
       id="rect1-6-2-2-6-6-2-2-0"
       width="4.4465356"
       height="1.0143641"
       x="-262.96753"
       y="-60.780018"
       inkscape:export-filename="./page_trapeze.svg"
       inkscape:export-xdpi="96"
       inkscape:export-ydpi="96"
       transform="matrix(0,-1,-1,0,0,0)" />
    <path
       style="fill:#6495ed;fill-opacity:1;stroke:#6495ed;stroke-width:0.264583px;stroke-linecap:butt;stroke-linejoin:miter;stroke-opacity:1"
       d="m 57.562973,260.80984 h 0.842812 l 0.988003,4.7781 -0.262506,1.90167 -2.227828,-0.007 -0.296427,-1.80829 z"
       id="path11"
       sodipodi:nodetypes="ccccccc" />
    <rect
       style="fill:#6495ed;fill-opacity:1;stroke:#6495ed;stroke-width:0.264583;stroke-opacity:1"
       id="rect1-6-2-2-6-6-2-2-9-6"
       width="6.8474321"
       height="0.45636186"
       x="-165.5865"
       y="215.19261"
       inkscape:export-filename="./page_trapeze.svg"
       inkscape:export-xdpi="96"
       inkscape:export-ydpi="96"
       transform="matrix(-0.90358122,-0.42841683,-0.42841683,0.90358122,0,0)" />
    <rect
       style="fill:#6495ed;fill-opacity:1;stroke:#6495ed;stroke-width:0.264583;stroke-opacity:1"
       id="rect1-6-2-2-6-6-2-2-9-6-2"
       width="6.8474321"
       height="0.45636186"
       x="-60.653015"
       y="264.87921"
       inkscape:export-filename="./page_trapeze.svg"
       inkscape:export-xdpi="96"
       inkscape:export-ydpi="96"
       transform="rotate(-25.36713)" />
    <rect
       style="fill:#6495ed;fill-opacity:1;stroke:#6495ed;stroke-width:0.264584;stroke-opacity:1"
       id="rect1-6-2-2-6-0-6"
       width="16.642672"
       height="1.0143641"
       x="79.425552"
       y="261.22375"
       inkscape:export-filename="./page_swing.svg"
       inkscape:export-xdpi="96"
       inkscape:export-ydpi="96" />
    <circle
       style="fill:#6495ed;fill-opacity:1;stroke:#6495ed;stroke-width:0.264583;stroke-opacity:1"
       id="path9-1"
       cx="87.769562"
       cy="263.57803"
       r="2.3146737" />
    <circle
       style="fill:#ffffff;fill-opacity:1;stroke:#6495ed;stroke-width:0.264583;stroke-opacity:1"
       id="path10-8"
       cx="87.746887"
       cy="263.60959"
       r="1.3714577" />
    <rect
       style="fill:#6495ed;fill-opacity:1;stroke:#6495ed;stroke-width:0.264584;stroke-opacity:1"
       id="rect1-6-2-2-6-0-6-7"
       width="16.642672"
       height="1.0143641"
       x="-270.76407"
       y="116.65479"
       inkscape:export-filename="./page_rod.svg"
       inkscape:export-xdpi="96"
       inkscape:export-ydpi="96"
       transform="rotate(-90)" />
    <rect
       style="fill:#6495ed;fill-opacity:1;stroke:#6495ed;stroke-width:0.264584;stroke-opacity:1"
       id="rect1-6-2-2-9"
       width="3.6757395"
       height="2.0653226"
       x="115.3241"
       y="254.1214"
       inkscape:export-filename="./page_pole_rotor.svg"
       inkscape:export-xdpi="96"
       inkscape:export-ydpi="96"
       ry="0.86859721" />
    <rect
       style="fill:#6495ed;fill-opacity:1;stroke:#6495ed;stroke-width:0.264584;stroke-opacity:1"
       id="rect1-6-2-2-9-2"
       width="3.6757395"
       height="2.0653226"
       x="115.3241"
       y="268.69876"
       inkscape:export-filename="./page_pole_rotor.svg"
       inkscape:export-xdpi="96"
       inkscape:export-ydpi="96"
       ry="0.86859721" />
    <rect
       style="fill:#6495ed;fill-opacity:1;stroke:#6495ed;stroke-width:0.264584;stroke-opacity:1"
       id="rect1-6-2-2-9-0"
       width="3.6757395"
       height="2.0653226"
       x="115.3241"
       y="264.08069"
       inkscape:export-filename="./page_pole_rotor.svg"
       inkscape:export-xdpi="96"
       inkscape:export-ydpi="96"
       ry="0.86859721" />
    <rect
       style="fill:#6495ed;fill-opacity:1;stroke:#6495ed;stroke-width:0.264584;stroke-opacity:1"
       id="rect1-6-2-2-9-23"
       width="3.6757395"
       height="2.0653226"
       x="115.3241"
       y="259.10104"
       inkscape:export-filename="./page_pole_rotor.svg"
       inkscape:export-xdpi="96"
       inkscape:export-ydpi="96"
       ry="0.86859721" />
    <rect
       style="fill:none;stroke:#e6e6e6;stroke-width:0.264583"
       id="rect111-3-3-3-36-3-3-35-3"
       width="21.166666"
       height="21.166666"
       x="18.152639"
       y="282.48703"
       inkscape:export-filename="../24168d4b/page_index.png"
       inkscape:export-xdpi="96"
       inkscape:export-ydpi="96" />
    <path
       style="fill:#6495ed;fill-opacity:1;stroke:#6495ed;stroke-width:0.264583px;stroke-linecap:butt;stroke-linejoin:miter;stroke-opacity:1"
       d="m 26.262914,303.17775 3.124114,0.0391 0.0048,-3.36319 -0.874307,-7.48814 h -1.414395 l -0.880271,7.1941 z"
       id="path7-6"
       sodipodi:nodetypes="ccccccc"
       inkscape:export-filename="page_heliostat.svg"
       inkscape:export-xdpi="96"
       inkscape:export-ydpi="96" />
    <path
       style="fill:#f9f9f9;stroke:#f9f9f9;stroke-width:0.264583px;stroke-linecap:butt;stroke-linejoin:miter;stroke-opacity:1"
       d="m 26.987916,300.7578 -0.02128,1.50955 c 0,0 0.230874,0.50463 0.41333,0.48619 0.181522,-0.0184 0.352975,-0.5609 0.352975,-0.5609 l 0.05173,-1.36158 c 0,0 -0.229406,-0.61441 -0.439601,-0.60878 -0.178175,0.004 -0.35715,0.53552 -0.35715,0.53552 z"
       id="path8-7"
       sodipodi:nodetypes="ccaccac" />
    <rect
       style="fill:#6495ed;fill-opacity:1;stroke:#6495ed;stroke-width:0.264584;stroke-opacity:1"
       id="rect1-6-2-2-6-6-2-2-9-3"
       width="2.5761223"
       height="0.94977534"
       x="-288.4668"
       y="-21.314938"
       inkscape:export-filename="./page_trapeze.svg"
       inkscape:export-xdpi="96"
       inkscape:export-ydpi="96"
       transform="matrix(0,-1,-1,0,0,0)" />
    <rect
       style="fill:#6495ed;fill-opacity:1;stroke:#6495ed;stroke-width:0.264584;stroke-opacity:1"
       id="rect1-6-2-2-6-6-2-2-3-5"
       width="2.5761223"
       height="0.94977534"
       x="-288.4668"
       y="-35.948128"
       inkscape:export-filename="./page_trapeze.svg"
       inkscape:export-xdpi="96"
       inkscape:export-ydpi="96"
       transform="matrix(0,-1,-1,0,0,0)" />
    <rect
       style="fill:#6495ed;fill-opacity:1;stroke:#6495ed;stroke-width:0.264584;stroke-opacity:1"
       id="rect1-6-2-2-6-6-2-2-6-6"
       width="2.5761223"
       height="0.94977534"
       x="-288.4668"
       y="-26.306765"
       inkscape:export-filename="./page_trapeze.svg"
       inkscape:export-xdpi="96"
       inkscape:export-ydpi="96"
       transform="matrix(0,-1,-1,0,0,0)" />
    <rect
       style="fill:#6495ed;fill-opacity:1;stroke:#6495ed;stroke-width:0.264584;stroke-opacity:1"
       id="rect1-6-2-2-6-6-2-2-0-2"
       width="2.5761223"
       height="0.94977534"
       x="-288.4668"
       y="-30.495277"
       inkscape:export-filename="./page_trapeze.svg"
       inkscape:export-xdpi="96"
       inkscape:export-ydpi="96"
       transform="matrix(0,-1,-1,0,0,0)" />
    <path
       style="fill:#6495ed;fill-opacity:1;stroke:#6495ed;stroke-width:0.264583px;stroke-linecap:butt;stroke-linejoin:miter;stroke-opacity:1"
       d="m 27.483074,287.21678 h 0.789146 l 0.925093,2.76822 -0.245791,1.10174 -2.085973,-0.004 -0.277552,-1.04763 z"
       id="path11-9"
       sodipodi:nodetypes="ccccccc" />
    <rect
       style="fill:#6495ed;fill-opacity:1;stroke:#6495ed;stroke-width:0.273936;stroke-opacity:1"
       id="rect1-6-2-2-6-6-2-2-9-6-1"
       width="6.0374026"
       height="0.30097663"
       x="-212.26926"
       y="289.90134"
       inkscape:export-filename="./page_trapeze.svg"
       inkscape:export-xdpi="96"
       inkscape:export-ydpi="96"
       transform="matrix(-0.95955926,-0.28150672,-0.6082331,0.79375846,0,0)" />
    <rect
       style="fill:#6495ed;fill-opacity:1;stroke:#6495ed;stroke-width:0.273936;stroke-opacity:1"
       id="rect1-6-2-2-6-6-2-2-9-6-2-2"
       width="6.0374026"
       height="0.30097663"
       x="-164.54309"
       y="306.8288"
       inkscape:export-filename="./page_trapeze.svg"
       inkscape:export-xdpi="96"
       inkscape:export-ydpi="96"
       transform="matrix(0.95955926,-0.28150672,0.6082331,0.79375846,0,0)" />
    <rect
       style="fill:#6495ed;fill-opacity:1;stroke:#6495ed;stroke-width:0.264584;stroke-opacity:1"
       id="rect1-6-2-2-6-0-6-70"
       width="9.4520702"
       height="0.55481559"
       x="23.285673"
       y="283.13095"
       inkscape:export-filename="./page_swing.svg"
       inkscape:export-xdpi="96"
       inkscape:export-ydpi="96" />
    <ellipse
       style="fill:#6495ed;fill-opacity:1;stroke:#6495ed;stroke-width:0.264583;stroke-opacity:1"
       id="path9-1-9"
       cx="28.024586"
       cy="284.41861"
       rx="1.3146"
       ry="1.2660316" />
    <ellipse
       style="fill:#ffffff;fill-opacity:1;stroke:#6495ed;stroke-width:0.264583;stroke-opacity:1"
       id="path10-8-3"
       cx="28.011705"
       cy="284.43588"
       rx="0.77890819"
       ry="0.75013113" />
    <rect
       style="fill:none;stroke:#e6e6e6;stroke-width:0.264583"
       id="rect111-3-3-3-36-3-3-35-3-3"
       width="21.166666"
       height="21.166666"
       x="50.774662"
       y="282.129"
       inkscape:export-filename="../24168d4b/page_index.png"
       inkscape:export-xdpi="96"
       inkscape:export-ydpi="96" />
    <ellipse
       style="fill:#6495ed;fill-opacity:1;stroke:#6495ed;stroke-width:0.264583;stroke-opacity:1"
       id="path9-1-6"
       cx="61.369514"
       cy="288.10538"
       rx="2.5110524"
       ry="2.5130301"
       inkscape:export-filename="./page_spider.svg"
       inkscape:export-xdpi="96"
       inkscape:export-ydpi="96" />
    <ellipse
       style="fill:#ffffff;fill-opacity:1;stroke:#6495ed;stroke-width:0.264583;stroke-opacity:1"
       id="path10-8-7"
       cx="61.344913"
       cy="288.13965"
       rx="1.4878132"
       ry="1.4889851" />
    <rect
       style="fill:#6495ed;fill-opacity:1;stroke:#6495ed;stroke-width:0.264584;stroke-opacity:1"
       id="rect1-6-2-2-6-0-6-5"
       width="10.391147"
       height="1.1012902"
       x="56.173939"
       y="292.9165"
       inkscape:export-filename="./page_swing.svg"
       inkscape:export-xdpi="96"
       inkscape:export-ydpi="96" />
    <rect
       style="fill:#6495ed;fill-opacity:1;stroke:#6495ed;stroke-width:0.264584;stroke-opacity:1"
       id="rect1-6-2-2-6-0-6-5-3"
       width="6.6513681"
       height="1.100848"
       x="255.80185"
       y="157.26749"
       inkscape:export-filename="./page_swing.svg"
       inkscape:export-xdpi="96"
       inkscape:export-ydpi="96"
       transform="matrix(0.6993378,0.71479133,-0.71424066,0.69990019,0,0)" />
    <rect
       style="fill:#6495ed;fill-opacity:1;stroke:#6495ed;stroke-width:0.264584;stroke-opacity:1"
       id="rect1-6-2-2-6-0-6-5-3-5"
       width="6.6513681"
       height="1.100848"
       x="169.89679"
       y="245.00031"
       inkscape:export-filename="./page_swing.svg"
       inkscape:export-xdpi="96"
       inkscape:export-ydpi="96"
       transform="matrix(-0.6993378,0.71479133,0.71424066,0.69990019,0,0)" />
    <rect
       style="fill:#6495ed;fill-opacity:1;stroke:#6495ed;stroke-width:0.264584;stroke-opacity:1"
       id="rect1-6-2-2-6-0-6-5-6"
       width="4.3891726"
       height="1.1004236"
       x="-294.01779"
       y="60.794701"
       inkscape:export-filename="./page_swing.svg"
       inkscape:export-xdpi="96"
       inkscape:export-ydpi="96"
       transform="rotate(-90)" />
    <rect
       style="fill:#6495ed;fill-opacity:1;stroke:#6495ed;stroke-width:0.264584;stroke-opacity:1"
       id="rect1-6-2-2-6-0-3"
       width="15.582964"
       height="0.29142898"
       x="20.365162"
       y="288.17535"
       inkscape:export-filename="./page_rake.svg"
       inkscape:export-xdpi="96"
       inkscape:export-ydpi="96" />
    <path
       style="fill:#0000ff;stroke:#0000ff;stroke-width:0.264583"
       d="m 28.56521,328.67805 0.09844,-0.10869 0.327297,-0.22093 0.548924,-0.20719 0.258662,0.27485 -0.240104,0.53536 -0.240354,0.31331 -0.11444,0.0916 0.342331,0.47615 0.123078,-0.0797 0.372844,-0.12902 0.583004,-0.0585 0.178281,0.33285 -0.370129,0.45586 -0.312905,0.24095 -0.134099,0.059 0.206858,0.54922 0.139327,-0.0453 0.392977,-0.0284 0.577361,0.0943 0.08575,0.36813 -0.474993,0.34525 -0.364135,0.15212 -0.144656,0.0225 0.0573,0.58491 0.146093,-0.008 0.386292,0.0742 0.532381,0.24064 -0.01262,0.37838 -0.547446,0.21112 -0.390541,0.053 -0.14529,-0.0158 -0.09618,0.58071 0.142876,0.0303 0.353326,0.17173 0.451096,0.37058 -0.110131,0.36277 -0.582597,0.0627 -0.390374,-0.0498 -0.136032,-0.0528 -0.243094,0.53694 0.129929,0.0663 0.296268,0.2576 0.339095,0.47522 -0.200145,0.32251 -0.578043,-0.0902 -0.363568,-0.14917 -0.117527,-0.0862 -0.373453,0.45657 0.108141,0.0978 0.219018,0.32589 0.203981,0.54751 -0.276512,0.26023 -0.534112,-0.23681 -0.311996,-0.23839 -0.091,-0.11387 -0.478358,0.34509 0.07898,0.12255 0.126844,0.37196 0.05495,0.58246 -0.33403,0.18023 -0.453774,-0.3673 -0.239154,-0.31136 -0.05827,-0.1337 -0.550668,0.21009 0.04443,0.13899 0.02603,0.39269 -0.09783,0.57774 -0.36877,0.0879 -0.342527,-0.47275 -0.149991,-0.3631 -0.02158,-0.14446 -0.58546,0.0608 0.0069,0.14599 -0.07657,0.38662 -0.243916,0.53366 -0.378445,-0.01 -0.207899,-0.54602 -0.05066,-0.39009 0.01658,-0.14536 -0.580343,-0.0926 -0.03114,0.14303 -0.173918,0.35426 -0.373409,0.45319 -0.362239,-0.10792 -0.05914,-0.58204 0.05214,-0.39055 0.0536,-0.13633 -0.535656,-0.23979 -0.06708,0.13027 -0.259472,0.29773 -0.477448,0.34182 -0.321414,-0.19814 0.09368,-0.57841 0.151398,-0.36434 0.08701,-0.11803 -0.454492,-0.37059 -0.09844,0.1087 -0.327297,0.22092 -0.548917,0.20721 -0.258662,-0.27487 0.240098,-0.53537 0.240354,-0.3133 0.11444,-0.0917 -0.342332,-0.47614 -0.123078,0.0797 -0.372844,0.12903 -0.583004,0.0585 -0.178281,-0.33284 0.370129,-0.45585 0.312905,-0.24096 0.134099,-0.059 -0.206858,-0.54923 -0.139327,0.0453 -0.392969,0.0284 -0.577369,-0.0943 -0.08575,-0.36812 0.474993,-0.34526 0.364134,-0.15212 0.144656,-0.0225 -0.05729,-0.5849 -0.146093,0.008 -0.38629,-0.0742 -0.532383,-0.24064 0.01262,-0.37839 0.547453,-0.2111 0.390534,-0.053 0.145291,0.0157 0.09618,-0.58071 -0.142868,-0.0303 -0.353326,-0.17173 -0.451104,-0.37059 0.110131,-0.36277 0.582605,-0.0627 0.390367,0.0498 0.136033,0.0528 0.243093,-0.53693 -0.129929,-0.0663 -0.296267,-0.25761 -0.339095,-0.47522 0.200144,-0.32251 0.578052,0.0902 0.36356,0.14915 0.117526,0.0862 0.373453,-0.45656 -0.108141,-0.0978 -0.219019,-0.32589 -0.203971,-0.5475 0.27651,-0.26023 0.534105,0.23679 0.311996,0.2384 0.09099,0.11387 0.478359,-0.3451 -0.07898,-0.12255 -0.126836,-0.37194 -0.05495,-0.58247 0.33403,-0.18024 0.453774,0.36731 0.239154,0.31135 0.05827,0.13371 0.550669,-0.21009 -0.04443,-0.13899 -0.02602,-0.39269 0.09782,-0.57774 0.36877,-0.088 0.342535,0.47277 0.14999,0.3631 0.02158,0.14444 0.58546,-0.0608 -0.0069,-0.14598 0.07658,-0.38662 0.243907,-0.53366 0.378448,0.01 0.207897,0.54601 0.05066,0.39009 -0.01658,0.14536 0.580336,0.0926 0.03114,-0.14305 0.173918,-0.35424 0.373408,-0.45321 0.362233,0.10793 0.05914,0.58204 -0.05215,0.39053 -0.05359,0.13634 0.535655,0.23979 0.06708,-0.13028 0.259473,-0.29773 0.477448,-0.34181 0.321413,0.19814 -0.09368,0.57841 -0.151397,0.36435 -0.087,0.11802 z"
       id="path12"
       inkscape:export-filename="./page_gearwheel.svg"
       inkscape:export-xdpi="96"
       inkscape:export-ydpi="96" />
    <ellipse
       style="fill:#ffffff;stroke:#ffffff;stroke-width:0.264583"
       id="path13"
       cx="-210.26602"
       cy="259.39212"
       rx="4.9426708"
       ry="4.9130192"
       transform="matrix(0.72821826,-0.68534529,0.68531925,0.72824276,0,0)" />
    <path
       style="fill:#800080;stroke:#800080;stroke-width:0.264583"
       d="m 35.290432,322.445 0.168406,-0.1963 0.22758,-0.1626 0.559894,-0.20291 0.243651,0.25892 -0.236463,0.54658 -0.176108,0.21732 -0.206142,0.15619 0.330219,0.51615 0.227567,-0.12269 0.270505,-0.0698 0.594184,0.0126 0.133094,0.32997 -0.41752,0.42546 -0.242375,0.13948 -0.24824,0.0716 0.120686,0.60165 0.25609,-0.0325 0.276865,0.0324 0.548217,0.22634 0.0046,0.35646 -0.542148,0.24689 -0.275894,0.0428 -0.25678,-0.0228 -0.105146,0.60591 0.249951,0.0621 0.24584,0.13029 0.428241,0.40949 -0.124547,0.33486 -0.593576,0.0349 -0.272151,-0.0596 -0.230652,-0.11401 -0.316776,0.52835 0.210064,0.14834 0.181626,0.21055 0.250424,0.53741 -0.23686,0.26799 -0.564853,-0.18169 -0.231644,-0.15397 -0.173388,-0.18987 -0.485606,0.37944 0.141828,0.21454 0.09288,0.26238 0.03876,0.59271 -0.317236,0.16488 -0.45981,-0.37378 -0.159872,-0.22758 -0.09269,-0.24006 -0.58889,0.17923 0.05442,0.25173 -0.0084,0.27878 -0.178115,0.56799 -0.354714,0.0395 -0.292681,-0.51542 -0.06649,-0.27042 5.31e-4,-0.25784 -0.612619,-0.0451 -0.04034,0.25491 -0.10857,0.25753 -0.370981,0.4665 -0.344271,-0.0911 -0.08603,-0.58744 0.03588,-0.27678 0.09366,-0.24078 -0.553611,-0.26342 -0.129674,0.22367 -0.19404,0.20151 -0.513689,0.30207 -0.287335,-0.20949 0.132232,-0.5801 0.133356,-0.24573 0.174142,-0.19126 -0.419831,-0.44613 -0.201462,0.16223 -0.253355,0.11821 -0.587043,0.0968 -0.191664,-0.29953 0.332648,-0.49444 0.212908,-0.18146 0.231107,-0.11589 -0.229348,-0.56858 -0.246024,0.0788 -0.278423,0.0191 -0.581125,-0.1215 -0.07004,-0.34917 0.488111,-0.34202 0.263637,-0.0927 0.256881,-0.0248 -0.0079,-0.61425 -0.25739,-0.0151 -0.265878,-0.0828 -0.496709,-0.32341 0.06101,-0.35168 0.577719,-0.14334 0.278766,0.009 0.247955,0.0696 0.214613,-0.57696 -0.233986,-0.10704 -0.217461,-0.1734 -0.345194,-0.48164 0.183803,-0.30667 0.589257,0.0747 0.256247,0.10859 0.205541,0.15458 0.408173,-0.46171 -0.179002,-0.18459 -0.139627,-0.24056 -0.147088,-0.57484 0.281841,-0.22019 0.521229,0.28257 0.199134,0.19406 0.135329,0.21869 0.546561,-0.28417 -0.09979,-0.23715 -0.04298,-0.27527 0.07091,-0.59039 0.34176,-0.10407 0.382771,0.45231 0.115137,0.25329 0.04688,0.25328 0.611154,-0.0683 -0.0072,-0.25769 0.0595,-0.2728 0.279304,-0.52621 0.355516,0.0262 0.192659,0.56094 0.01557,0.27834 -0.04793,0.25366 0.59321,0.15695 0.08647,-0.24345 0.153925,-0.23348 0.449971,-0.39097 0.321287,0.15286 -0.02348,0.59389 -0.08611,0.26577 -0.136245,0.21971 z"
       id="path14" />
    <ellipse
       style="fill:#ffffff;stroke:#ffffff;stroke-width:0.264583"
       id="path15"
       cx="-199.23524"
       cy="259.42017"
       rx="3.1941512"
       ry="3.1749892"
       transform="matrix(0.72821826,-0.68534529,0.68531925,0.72824276,0,0)" />
    <rect
       style="fill:none;stroke:#e6e6e6;stroke-width:0.264583"
       id="rect111-3-3-3-36-3-3-35-3-36"
       width="21.166666"
       height="21.166666"
       x="17.120314"
       y="319.58664"
       inkscape:export-filename="../24168d4b/page_index.png"
       inkscape:export-xdpi="96"
       inkscape:export-ydpi="96" />
    <path
       style="fill:#800080;stroke:#800080;stroke-width:0.264583"
       d="m 61.704548,324.28308 0.11445,-0.12635 0.380526,-0.25682 0.638196,-0.24085 0.300729,0.3195 -0.279152,0.62234 -0.279444,0.36421 -0.133051,0.10648 0.398005,0.55351 0.143094,-0.0926 0.43348,-0.14998 0.67782,-0.068 0.207275,0.38692 -0.430324,0.52992 -0.363793,0.2801 -0.155908,0.0686 0.240499,0.63845 0.161987,-0.0527 0.456887,-0.033 0.671259,0.10962 0.0997,0.42794 -0.552242,0.40134 -0.423355,0.17683 -0.168182,0.0262 0.06662,0.67993 0.169853,-0.009 0.449115,0.0863 0.618963,0.27973 -0.01467,0.43986 -0.636478,0.24542 -0.454056,0.0616 -0.168919,-0.0184 -0.111822,0.67506 0.166113,0.0352 0.410788,0.19963 0.524458,0.43078 -0.128041,0.42171 -0.677346,0.0729 -0.453862,-0.0579 -0.158155,-0.0614 -0.282629,0.62417 0.15106,0.0771 0.344451,0.29945 0.394242,0.55243 -0.232695,0.37491 -0.672051,-0.10486 -0.422696,-0.1734 -0.13664,-0.10021 -0.434189,0.53075 0.125728,0.11369 0.254638,0.37883 0.237155,0.63646 -0.321482,0.30251 -0.620976,-0.27528 -0.362736,-0.27712 -0.1058,-0.13237 -0.556154,0.40115 0.09182,0.14246 0.147473,0.43239 0.06389,0.67709 -0.388354,0.20951 -0.527572,-0.42697 -0.278048,-0.36195 -0.06775,-0.15542 -0.640224,0.24423 0.05166,0.16157 0.03026,0.45648 -0.11374,0.67161 -0.428744,0.10218 -0.398233,-0.54956 -0.174384,-0.42209 -0.02509,-0.16793 -0.680674,0.0707 0.008,0.16971 -0.08902,0.44943 -0.283585,0.62036 -0.439992,-0.0116 -0.24171,-0.63472 -0.0589,-0.45347 0.01928,-0.16897 -0.674726,-0.10765 -0.0362,0.16627 -0.202203,0.41181 -0.434137,0.52682 -0.421151,-0.12545 -0.06876,-0.6766 0.06062,-0.454 0.06232,-0.15848 -0.622771,-0.27875 -0.07799,0.15143 -0.301671,0.3461 -0.555096,0.39736 -0.373686,-0.23033 0.108915,-0.67238 0.17602,-0.42354 0.101161,-0.1372 -0.528407,-0.4308 -0.114449,0.12636 -0.380526,0.25681 -0.638189,0.24088 -0.300729,-0.31953 0.279146,-0.62235 0.279443,-0.3642 0.133052,-0.1066 -0.398006,-0.55349 -0.143095,0.0926 -0.43348,0.14999 -0.677819,0.068 -0.207275,-0.38691 0.430324,-0.52991 0.363793,-0.28011 0.155908,-0.0686 -0.2405,-0.63846 -0.161986,0.0527 -0.456878,0.033 -0.671268,-0.10962 -0.0997,-0.42792 0.552242,-0.40136 0.423354,-0.17683 0.168182,-0.0262 -0.06661,-0.67992 -0.169853,0.009 -0.449113,-0.0863 -0.618965,-0.27973 0.01467,-0.43987 0.636486,-0.24539 0.454048,-0.0616 0.16892,0.0183 0.111822,-0.67506 -0.166103,-0.0352 -0.410788,-0.19963 -0.524468,-0.4308 0.128042,-0.4217 0.677355,-0.0729 0.453853,0.0579 0.158156,0.0614 0.282628,-0.62416 -0.15106,-0.0771 -0.344449,-0.29947 -0.394243,-0.55242 0.232694,-0.37491 0.672062,0.10486 0.422686,0.17338 0.13664,0.1002 0.434188,-0.53073 -0.125728,-0.11369 -0.254639,-0.37884 -0.237143,-0.63645 0.32148,-0.3025 0.620967,0.27526 0.362737,0.27713 0.105788,0.13237 0.556155,-0.40117 -0.09183,-0.14246 -0.147463,-0.43237 -0.06389,-0.6771 0.388354,-0.20952 0.527572,0.42699 0.278048,0.36193 0.06775,0.15543 0.640225,-0.24422 -0.05165,-0.16157 -0.03025,-0.45649 0.113729,-0.6716 0.428743,-0.1023 0.398243,0.54958 0.174383,0.42209 0.02509,0.16791 0.680675,-0.0707 -0.008,-0.1697 0.08903,-0.44943 0.283574,-0.62036 0.439996,0.0116 0.241708,0.63471 0.0589,0.45347 -0.01928,0.16897 0.674717,0.10765 0.0362,-0.16629 0.202202,-0.41179 0.434136,-0.52684 0.421144,0.12546 0.06876,0.6766 -0.06063,0.45398 -0.06231,0.15849 0.62277,0.27875 0.07799,-0.15145 0.301672,-0.3461 0.555096,-0.39734 0.373685,0.23033 -0.108915,0.67238 -0.176019,0.42354 -0.101149,0.1372 z"
       id="path12-7"
       inkscape:export-filename="./page_gearbar.svg"
       inkscape:export-xdpi="96"
       inkscape:export-ydpi="96" />
    <ellipse
       style="fill:#ffffff;stroke:#ffffff;stroke-width:0.264583"
       id="path13-5"
       cx="-184.08661"
       cy="278.992"
       rx="5.7461162"
       ry="5.7115946"
       transform="matrix(0.72826777,-0.68529268,0.68537186,0.72819325,0,0)" />
    <path
       style="fill:#0000ff;stroke:#0000ff;stroke-width:0.264583"
       d="m 49.862733,338.49153 c 0,-0.43436 0.0035,-0.45678 0.157917,-1.05305 l 0.157916,-0.60921 h 0.255996 0.255998 l 0.161088,0.62471 0.16109,0.62472 h 0.342197 0.342197 l 0.161089,-0.62472 0.16109,-0.62471 h 0.256181 0.256183 l 0.161365,0.62471 0.161365,0.62472 h 0.341085 0.341084 l 0.162022,-0.62472 0.16202,-0.62471 0.251472,-0.0122 0.251472,-0.0122 0.0572,0.21663 c 0.03145,0.11926 0.106474,0.40558 0.166696,0.6365 l 0.109485,0.41991 0.340541,-6e-5 0.340539,-1e-4 0.161227,-0.62462 0.161227,-0.62465 0.252066,-0.0122 0.252062,-0.0122 0.109892,0.42145 c 0.06045,0.23173 0.135445,0.51817 0.166676,0.63647 l 0.05679,0.21509 0.34169,-5e-5 0.34169,-6e-5 0.161226,-0.62464 0.161227,-0.62465 0.251682,-0.0122 0.251679,-0.0122 0.161762,0.62622 0.161762,0.62623 h 0.346455 0.346455 l 0.161451,-0.62419 0.161451,-0.62419 h 0.251561 0.25156 l 0.16109,0.62473 0.161088,0.62471 h 0.346119 0.346118 l 0.162882,-0.62441 0.162882,-0.62436 h 0.249634 0.249635 l 0.162089,0.62473 0.16209,0.6247 h 0.346893 0.346892 l 0.162091,-0.6247 0.162088,-0.62473 h 0.250571 0.250568 l 0.162091,0.62473 0.162088,0.6247 h 0.34597 0.345966 l 0.161089,-0.6247 0.16109,-0.62473 h 0.251854 0.251847 l 0.157434,0.61451 c 0.08658,0.33796 0.168746,0.61447 0.182579,0.61447 0.0138,0 0.02514,0.16341 0.02514,0.36266 v 0.36267 l -2.274872,0.0277 c -1.25118,0.0163 -4.295925,0.0447 -6.7661,0.0666 -2.470174,0.0216 -5.027762,0.0485 -5.683523,0.0592 l -1.192298,0.0183 z"
       id="path18" />
    <rect
       style="fill:none;stroke:#e6e6e6;stroke-width:0.264583"
       id="rect111-3-3-3-36-3-3-35-3-36-6"
       width="21.166666"
       height="21.166666"
       x="47.112461"
       y="319.87756"
       inkscape:export-filename="../24168d4b/page_index.png"
       inkscape:export-xdpi="96"
       inkscape:export-ydpi="96" />
    <path
       style="fill:#ffffff;stroke:#ffffff;stroke-width:0.264583"
       d="m 91.230894,325.66465 0.11445,-0.12635 0.38053,-0.25682 0.63819,-0.24085 0.30073,0.3195 -0.27915,0.62234 -0.27944,0.36421 -0.13305,0.10648 0.398,0.55351 0.14309,-0.0926 0.43348,-0.14998 0.67782,-0.068 0.20728,0.38692 -0.43033,0.52992 -0.36379,0.2801 -0.15591,0.0686 0.2405,0.63845 0.16199,-0.0527 0.45689,-0.033 0.67126,0.10962 0.0997,0.42794 -0.55225,0.40134 -0.42335,0.17683 -0.16818,0.0262 0.0666,0.67993 0.16985,-0.009 0.44912,0.0863 0.61896,0.27973 -0.0147,0.43986 -0.63648,0.24542 -0.45406,0.0616 -0.16891,-0.0184 -0.11183,0.67506 0.16612,0.0352 0.41078,0.19963 0.52446,0.43078 -0.12804,0.42171 -0.67734,0.0729 -0.45387,-0.0579 -0.15815,-0.0614 -0.28263,0.62417 0.15106,0.0771 0.34445,0.29945 0.39424,0.55243 -0.23269,0.37491 -0.67205,-0.10486 -0.4227,-0.1734 -0.13664,-0.10021 -0.43419,0.53075 0.12573,0.11369 0.25464,0.37883 0.23715,0.63646 -0.32148,0.30251 -0.62098,-0.27528 -0.36273,-0.27712 -0.1058,-0.13237 -0.55616,0.40115 0.0918,0.14246 0.14748,0.43239 0.0639,0.67709 -0.38836,0.20951 -0.52757,-0.42697 -0.278047,-0.36195 -0.06775,-0.15542 -0.640224,0.24423 0.05166,0.16157 0.03026,0.45648 -0.11374,0.67161 -0.428744,0.10218 -0.398233,-0.54956 -0.174384,-0.42209 -0.02509,-0.16793 -0.680674,0.0707 0.008,0.16971 -0.08902,0.44943 -0.283585,0.62036 -0.439992,-0.0116 -0.24171,-0.63472 -0.0589,-0.45347 0.01928,-0.16897 -0.674726,-0.10765 -0.0362,0.16627 -0.202203,0.41181 -0.434137,0.52682 -0.421151,-0.12545 -0.06876,-0.6766 0.06062,-0.454 0.06232,-0.15848 -0.622771,-0.27875 -0.07799,0.15143 -0.301671,0.3461 -0.555096,0.39736 -0.373686,-0.23033 0.108915,-0.67238 0.17602,-0.42354 0.101161,-0.1372 -0.528407,-0.4308 -0.114449,0.12636 -0.380526,0.25681 -0.638189,0.24088 -0.300729,-0.31953 0.279146,-0.62235 0.279443,-0.3642 0.133052,-0.1066 -0.398006,-0.55349 -0.143095,0.0926 -0.43348,0.14999 -0.677819,0.068 -0.207275,-0.38691 0.430324,-0.52991 0.363793,-0.28011 0.155908,-0.0686 -0.2405,-0.63846 -0.161986,0.0527 -0.456878,0.033 -0.671268,-0.10962 -0.0997,-0.42792 0.552242,-0.40136 0.423354,-0.17683 0.168182,-0.0262 -0.06661,-0.67992 -0.169853,0.009 -0.449113,-0.0863 -0.618965,-0.27973 0.01467,-0.43987 0.636486,-0.24539 0.454048,-0.0616 0.16892,0.0183 0.111822,-0.67506 -0.166103,-0.0352 -0.410788,-0.19963 -0.524468,-0.4308 0.128042,-0.4217 0.677355,-0.0729 0.453853,0.0579 0.158156,0.0614 0.282628,-0.62416 -0.15106,-0.0771 -0.344449,-0.29947 -0.394243,-0.55242 0.232694,-0.37491 0.672062,0.10486 0.422686,0.17338 0.13664,0.1002 0.434188,-0.53073 -0.125728,-0.11369 -0.254639,-0.37884 -0.237143,-0.63645 0.32148,-0.3025 0.620967,0.27526 0.362737,0.27713 0.105788,0.13237 0.556155,-0.40117 -0.09183,-0.14246 -0.147463,-0.43237 -0.06389,-0.6771 0.388354,-0.20952 0.527572,0.42699 0.278048,0.36193 0.06775,0.15543 0.640225,-0.24422 -0.05165,-0.16157 -0.03025,-0.45649 0.113729,-0.6716 0.428743,-0.1023 0.398243,0.54958 0.174383,0.42209 0.02509,0.16791 0.680675,-0.0707 -0.008,-0.1697 0.08903,-0.44943 0.283574,-0.62036 0.439996,0.0116 0.241708,0.63471 0.0589,0.45347 -0.01928,0.16897 0.674717,0.10765 0.0362,-0.16629 0.202202,-0.41179 0.434136,-0.52684 0.421144,0.12546 0.06876,0.6766 -0.06063,0.45398 -0.06231,0.15849 0.62277,0.27875 0.078,-0.15145 0.30167,-0.3461 0.5551,-0.39734 0.37368,0.23033 -0.10891,0.67238 -0.17602,0.42354 -0.10115,0.1372 z"
       id="path12-7-2" />
    <rect
       style="fill:none;stroke:#e6e6e6;stroke-width:0.264583"
       id="rect111-3-3-3-36-3-3-35-3-36-6-1"
       width="21.166666"
       height="21.166666"
       x="76.071152"
       y="320.81342"
       inkscape:export-filename="../24168d4b/page_index.png"
       inkscape:export-xdpi="96"
       inkscape:export-ydpi="96" />
    <path
       style="fill:#800080;stroke:#800080;stroke-width:0.264583"
       d="m 89.000981,325.08319 0.168406,-0.1963 0.22758,-0.1626 0.559894,-0.20291 0.243651,0.25892 -0.236463,0.54658 -0.176108,0.21732 -0.206142,0.15619 0.330219,0.51615 0.227567,-0.12269 0.270505,-0.0698 0.594184,0.0126 0.133094,0.32997 -0.41752,0.42546 -0.242375,0.13948 -0.24824,0.0716 0.120686,0.60165 0.25609,-0.0325 0.276865,0.0324 0.548217,0.22634 0.0046,0.35646 -0.542148,0.24689 -0.275894,0.0428 -0.25678,-0.0228 -0.105146,0.60591 0.249951,0.0621 0.24584,0.13029 0.428241,0.40949 -0.124547,0.33486 -0.593576,0.0349 -0.272151,-0.0596 -0.230652,-0.11401 -0.316776,0.52835 0.210064,0.14834 0.181626,0.21055 0.250424,0.53741 -0.23686,0.26799 -0.564853,-0.18169 -0.231644,-0.15397 -0.173388,-0.18987 -0.485606,0.37944 0.141828,0.21454 0.09288,0.26238 0.03876,0.59271 -0.317236,0.16488 -0.45981,-0.37378 -0.159872,-0.22758 -0.09269,-0.24006 -0.58889,0.17923 0.05442,0.25173 -0.0084,0.27878 -0.178115,0.56799 -0.354714,0.0395 -0.292681,-0.51542 -0.06649,-0.27042 5.31e-4,-0.25784 -0.612619,-0.0451 -0.04034,0.25491 -0.10857,0.25753 -0.370981,0.4665 -0.344271,-0.0911 -0.08603,-0.58744 0.03588,-0.27678 0.09366,-0.24078 -0.553611,-0.26342 -0.129674,0.22367 -0.19404,0.20151 -0.513689,0.30207 -0.287335,-0.20949 0.132232,-0.5801 0.133356,-0.24573 0.174142,-0.19126 -0.419831,-0.44613 -0.201462,0.16223 -0.253355,0.11821 -0.587043,0.0968 -0.191664,-0.29953 0.332648,-0.49444 0.212908,-0.18146 0.231107,-0.11589 -0.229348,-0.56858 -0.246024,0.0788 -0.278423,0.0191 -0.581125,-0.1215 -0.07004,-0.34917 0.488111,-0.34202 0.263637,-0.0927 0.256881,-0.0248 -0.0079,-0.61425 -0.25739,-0.0151 -0.265878,-0.0828 -0.496709,-0.32341 0.06101,-0.35168 0.577719,-0.14334 0.278766,0.009 0.247955,0.0696 0.214613,-0.57696 -0.233986,-0.10704 -0.217461,-0.1734 -0.345194,-0.48164 0.183803,-0.30667 0.589257,0.0747 0.256247,0.10859 0.205541,0.15458 0.408173,-0.46171 -0.179002,-0.18459 -0.139627,-0.24056 -0.147088,-0.57484 0.281841,-0.22019 0.521229,0.28257 0.199134,0.19406 0.135329,0.21869 0.546561,-0.28417 -0.09979,-0.23715 -0.04298,-0.27527 0.07091,-0.59039 0.34176,-0.10407 0.382771,0.45231 0.115137,0.25329 0.04688,0.25328 0.611154,-0.0683 -0.0072,-0.25769 0.0595,-0.2728 0.279304,-0.52621 0.355516,0.0262 0.192659,0.56094 0.01557,0.27834 -0.04793,0.25366 0.59321,0.15695 0.08647,-0.24345 0.153925,-0.23348 0.449971,-0.39097 0.321287,0.15286 -0.02348,0.59389 -0.08611,0.26577 -0.136245,0.21971 z"
       id="path14-2" />
    <ellipse
       style="fill:#ffffff;stroke:#ffffff;stroke-width:0.264583"
       id="path15-7"
       cx="-161.92892"
       cy="298.15161"
       rx="3.1941512"
       ry="3.1749892"
       transform="matrix(0.72821826,-0.68534529,0.68531925,0.72824276,0,0)" />
    <rect
       style="fill:none;stroke:#e6e6e6;stroke-width:0.264583"
       id="rect111-3-3-3-36-3-3-35-3-36-6-1-0"
       width="21.166666"
       height="21.166666"
       x="105.11549"
       y="321.49734"
       inkscape:export-filename="../24168d4b/page_index.png"
       inkscape:export-xdpi="96"
       inkscape:export-ydpi="96" />
    <path
       style="fill:#ffffff;stroke:#ffffff;stroke-width:0.264583"
       d="m 124.12328,331.63561 0.36843,0.0921 0.36822,0.14521 v 0.28233 l -0.36822,0.14521 -0.36843,0.0921 -0.0219,0.3411 0.35367,0.13842 0.34661,0.19111 -0.0362,0.28001 -0.38375,0.097 -0.37721,0.0442 -0.0654,0.3355 0.33307,0.1825 0.31933,0.23386 -0.0715,0.27311 -0.39299,0.0471 -0.37976,-0.005 -0.10775,0.32441 0.30698,0.22362 0.28683,0.27275 -0.10596,0.2617 -0.39579,-0.004 -0.37607,-0.0529 -0.14831,0.30796 0.27587,0.26102 0.24958,0.30721 -0.13854,0.24599 -0.39208,-0.0542 -0.36623,-0.10068 -0.18646,0.28651 0.24023,0.29415 0.20823,0.33659 -0.16888,0.22628 -0.38193,-0.10392 -0.35036,-0.14659 -0.22155,0.26028 0.20064,0.32244 0.16346,0.36047 -0.19639,0.2028 -0.36554,-0.15184 -0.3287,-0.19021 -0.25307,0.22982 0.15778,0.34546 0.11613,0.37842 -0.22073,0.17603 -0.34311,-0.19733 -0.3017,-0.23066 -0.28035,0.19555 0.1123,0.36279 0.0667,0.39015 -0.24143,0.14637 -0.31507,-0.23962 -0.26973,-0.26736 -0.30303,0.1581 0.0649,0.3742 0.0163,0.39548 -0.25818,0.11433 -0.28184,-0.27791 -0.23332,-0.29966 -0.32076,0.11816 0.0165,0.37942 -0.0345,0.3943 -0.27068,0.0805 -0.24398,-0.31166 -0.19309,-0.32704 -0.33323,0.0761 -0.0321,0.37844 -0.0846,0.38666 -0.27872,0.045 -0.20213,-0.34031 -0.14966,-0.34903 -0.34026,0.0329 -0.0802,0.37124 -0.13333,0.37264 -0.28219,0.01 -0.15695,-0.36339 -0.1038,-0.3653 -0.34165,-0.0108 -0.127,0.35793 -0.1799,0.35253 -0.28102,-0.0271 -0.1093,-0.38046 -0.0563,-0.37558 -0.33742,-0.0546 -0.17174,0.33873 -0.2235,0.32667 -0.27527,-0.0629 -0.0596,-0.39128 -0.008,-0.37973 -0.32769,-0.0973 -0.21363,0.31399 -0.26346,0.29539 -0.26496,-0.0974 -0.01,-0.39571 0.0408,-0.37758 -0.31255,-0.13837 -0.25205,0.28411 -0.29907,0.25927 -0.2503,-0.13058 0.0415,-0.39362 0.0888,-0.36925 -0.29232,-0.17721 -0.28628,0.24954 -0.32976,0.21891 -0.23156,-0.16151 0.0916,-0.38507 0.13533,-0.35487 -0.26724,-0.21313 -0.31588,0.21087 -0.35502,0.17497 -0.20903,-0.1898 0.14006,-0.37023 0.17958,-0.33463 -0.2378,-0.24555 -0.34024,0.16875 -0.37452,0.12811 -0.18301,-0.21498 0.18624,-0.34926 0.22089,-0.30894 -0.20444,-0.27394 -0.35901,0.12387 -0.38782,0.0791 -0.154,-0.23659 0.22935,-0.32259 0.2586,-0.27815 -0.16773,-0.29783 -0.37193,0.0769 -0.39475,0.029 -0.12249,-0.25437 0.26874,-0.29058 0.29203,-0.24283 -0.12827,-0.31683 -0.3787,0.0287 -0.39521,-0.0218 -0.0889,-0.26793 0.30367,-0.25385 0.32068,-0.20348 -0.0867,-0.33064 -0.37927,-0.0199 -0.38917,-0.0722 -0.054,-0.27711 0.33364,-0.21293 0.34409,-0.1608 -0.0438,-0.33901 -0.37361,-0.0684 -0.37675,-0.12132 -0.0181,-0.28176 0.35814,-0.16849 0.3618,-0.11553 v -0.34181 l -0.3618,-0.11553 -0.35814,-0.1685 0.0181,-0.28175 0.37675,-0.12133 0.37361,-0.0684 0.0438,-0.33902 -0.34409,-0.16078 -0.33364,-0.21294 0.054,-0.27711 0.38917,-0.0722 0.37927,-0.0199 0.0867,-0.33064 -0.32068,-0.20348 -0.30367,-0.25384 0.0889,-0.26794 0.39521,-0.0218 0.3787,0.0287 0.12827,-0.31686 -0.29203,-0.24279 -0.26874,-0.29061 0.12249,-0.25435 0.39475,0.029 0.37193,0.077 0.16773,-0.29784 -0.2586,-0.27815 -0.22935,-0.32258 0.154,-0.23662 0.38782,0.0791 0.35901,0.12385 0.20444,-0.27392 -0.22089,-0.30895 -0.18624,-0.34924 0.18301,-0.21498 0.37452,0.12811 0.34024,0.16874 0.2378,-0.24554 -0.17958,-0.33465 -0.14006,-0.37021 0.20903,-0.18983 0.35502,0.17497 0.31588,0.21089 0.26724,-0.21314 -0.13533,-0.35486 -0.0916,-0.38507 0.23156,-0.16153 0.32976,0.21893 0.28628,0.24952 0.29232,-0.17718 -0.0888,-0.36926 -0.0415,-0.39363 0.2503,-0.13059 0.29907,0.25929 0.25205,0.28411 0.31255,-0.13837 -0.0408,-0.37759 0.01,-0.3957 0.26496,-0.0976 0.26346,0.2954 0.21363,0.31399 0.32769,-0.0973 0.008,-0.37971 0.0596,-0.39128 0.27527,-0.0629 0.2235,0.32668 0.17174,0.33874 0.33742,-0.0546 0.0563,-0.37559 0.1093,-0.38045 0.28102,-0.0271 0.1799,0.35255 0.127,0.35791 0.34165,-0.0108 0.1038,-0.36531 0.15695,-0.36336 0.28219,0.01 0.13333,0.37266 0.0802,0.37122 0.34026,0.0329 0.14966,-0.34904 0.20213,-0.34032 0.27872,0.045 0.0846,0.38667 0.0321,0.37841 0.33323,0.0761 0.19309,-0.32705 0.24398,-0.31167 0.27068,0.0804 0.0345,0.39431 -0.0165,0.37943 0.32076,0.11804 0.23332,-0.29968 0.28184,-0.27793 0.25818,0.11434 -0.0163,0.39546 -0.0649,0.3742 0.30303,0.15811 0.26973,-0.26738 0.31507,-0.23959 0.24143,0.14636 -0.0667,0.39017 -0.1123,0.36278 0.28035,0.19555 0.3017,-0.23066 0.34311,-0.19733 0.22073,0.17601 -0.11613,0.37843 -0.15778,0.34546 0.25307,0.22981 0.3287,-0.19021 0.36554,-0.15184 0.19639,0.20281 -0.16346,0.36048 -0.20064,0.32245 0.22155,0.26027 0.35036,-0.14661 0.38193,-0.10379 0.16888,0.22628 -0.20823,0.3366 -0.24023,0.29415 0.18646,0.28649 0.36623,-0.10069 0.39208,-0.0542 0.13854,0.246 -0.24958,0.30721 -0.27587,0.261 0.14831,0.30797 0.37607,-0.0529 0.39579,-0.004 0.10596,0.26169 -0.28683,0.27277 -0.30698,0.22361 0.10775,0.3244 0.37976,-0.005 0.39299,0.0471 0.0715,0.27313 -0.31933,0.23384 -0.33307,0.1825 0.0654,0.33552 0.37721,0.0442 0.38375,0.097 0.0362,0.28001 -0.34661,0.19112 -0.35367,0.13841 z"
       id="path19" />
    <path
       style="fill:#800080;stroke:#800080;stroke-width:0.264583"
       d="m 114.69078,324.68009 0.0928,-0.10815 0.12535,-0.0896 0.30835,-0.11171 0.13415,0.14261 -0.13031,0.30106 -0.097,0.11965 -0.11356,0.086 0.18189,0.2843 0.12534,-0.0676 0.14899,-0.0385 0.32725,0.007 0.0732,0.18174 -0.22996,0.23435 -0.13344,0.0768 -0.13669,0.0395 0.0664,0.33139 0.1411,-0.0179 0.15249,0.0179 0.30195,0.12462 0.003,0.19635 -0.29861,0.13598 -0.15194,0.0236 -0.14139,-0.0128 -0.0579,0.33373 0.13769,0.0342 0.13542,0.0718 0.23587,0.22554 -0.0686,0.18444 -0.32692,0.0192 -0.14989,-0.0328 -0.12704,-0.0627 -0.17447,0.29102 0.11568,0.0818 0.10008,0.11596 0.13798,0.29601 -0.13046,0.1476 -0.3111,-0.10007 -0.12761,-0.0849 -0.0955,-0.10461 -0.26746,0.209 0.0781,0.11809 0.0511,0.14451 0.0214,0.32647 -0.17473,0.0908 -0.25324,-0.20587 -0.088,-0.12534 -0.0511,-0.13229 -0.32434,0.0986 0.0299,0.13868 -0.004,0.15355 -0.0981,0.31285 -0.19535,0.0217 -0.16121,-0.2839 -0.0366,-0.14893 3e-4,-0.14203 -0.33742,-0.0248 -0.0221,0.14038 -0.0598,0.1418 -0.20432,0.25694 -0.18962,-0.0501 -0.0474,-0.32356 0.0197,-0.15244 0.0517,-0.13258 -0.30491,-0.14509 -0.0714,0.12321 -0.10689,0.11099 -0.28292,0.16639 -0.15826,-0.1154 0.0728,-0.31953 0.0734,-0.13527 0.096,-0.10532 -0.23124,-0.24572 -0.11101,0.0894 -0.13953,0.0652 -0.32332,0.0534 -0.10562,-0.16498 0.18322,-0.27234 0.11725,-0.0999 0.12733,-0.0639 -0.12634,-0.31318 -0.13556,0.0434 -0.15333,0.01 -0.32007,-0.067 -0.0386,-0.19231 0.26884,-0.18839 0.1452,-0.0511 0.14152,-0.0142 -0.004,-0.33833 -0.1418,-0.009 -0.14645,-0.0456 -0.27356,-0.17814 0.0336,-0.1937 0.31819,-0.0789 0.15354,0.004 0.13656,0.0383 0.11825,-0.31778 -0.1289,-0.0589 -0.1198,-0.0955 -0.19012,-0.26529 0.10121,-0.16891 0.32456,0.0412 0.1411,0.0598 0.11327,0.0852 0.22481,-0.25431 -0.0986,-0.10162 -0.0769,-0.13258 -0.081,-0.31661 0.15522,-0.12122 0.28708,0.15564 0.10973,0.10688 0.0745,0.12051 0.30103,-0.15652 -0.0549,-0.13059 -0.0237,-0.15162 0.039,-0.32517 0.18824,-0.0573 0.21081,0.24913 0.0634,0.13953 0.0258,0.13953 0.3366,-0.0376 -0.004,-0.14194 0.0328,-0.15026 0.15383,-0.28983 0.1958,0.0145 0.10604,0.30896 0.009,0.15331 -0.0264,0.13967 0.32671,0.0865 0.0477,-0.13414 0.0847,-0.1286 0.24783,-0.21533 0.17695,0.0842 -0.0128,0.32711 -0.0474,0.14639 -0.0751,0.12107 z"
       id="path14-2-6" />
    <ellipse
       style="fill:#ffffff;stroke:#ffffff;stroke-width:0.264583"
       id="path15-7-0"
       cx="-141.15831"
       cy="315.27054"
       rx="1.7592767"
       ry="1.7487284"
       transform="matrix(0.72820049,-0.68536417,0.68530036,0.72826054,0,0)" />
    <path
       style="fill:#800080;stroke:#800080;stroke-width:0.264583"
       d="m 122.27313,326.61702 0.0928,-0.10815 0.12535,-0.0896 0.30835,-0.11171 0.13415,0.14261 -0.13031,0.30106 -0.097,0.11965 -0.11356,0.086 0.18189,0.2843 0.12534,-0.0676 0.14899,-0.0385 0.32725,0.007 0.0732,0.18174 -0.22996,0.23435 -0.13344,0.0768 -0.13669,0.0395 0.0664,0.33139 0.1411,-0.0179 0.15249,0.0179 0.30195,0.12462 0.003,0.19635 -0.29861,0.13598 -0.15194,0.0236 -0.14139,-0.0128 -0.0579,0.33373 0.13769,0.0342 0.13542,0.0718 0.23587,0.22554 -0.0686,0.18444 -0.32692,0.0192 -0.14989,-0.0328 -0.12704,-0.0627 -0.17447,0.29102 0.11568,0.0818 0.10008,0.11596 0.13798,0.29601 -0.13046,0.1476 -0.3111,-0.10007 -0.12761,-0.0849 -0.0955,-0.10461 -0.26746,0.209 0.0781,0.11809 0.0511,0.14451 0.0214,0.32647 -0.17473,0.0908 -0.25324,-0.20587 -0.088,-0.12534 -0.0511,-0.13229 -0.32434,0.0986 0.0299,0.13868 -0.004,0.15355 -0.0981,0.31285 -0.19535,0.0217 -0.16121,-0.2839 -0.0366,-0.14893 3e-4,-0.14203 -0.33742,-0.0248 -0.0221,0.14038 -0.0598,0.1418 -0.20432,0.25694 -0.18962,-0.0501 -0.0474,-0.32356 0.0197,-0.15244 0.0517,-0.13258 -0.30491,-0.14509 -0.0714,0.12321 -0.10689,0.11099 -0.28292,0.16639 -0.15826,-0.1154 0.0728,-0.31953 0.0734,-0.13527 0.096,-0.10532 -0.23124,-0.24572 -0.11101,0.0894 -0.13953,0.0652 -0.32332,0.0534 -0.10562,-0.16498 0.18322,-0.27234 0.11725,-0.0999 0.12733,-0.0639 -0.12634,-0.31318 -0.13556,0.0434 -0.15333,0.01 -0.32007,-0.067 -0.0386,-0.19231 0.26884,-0.18839 0.1452,-0.0511 0.14152,-0.0142 -0.004,-0.33833 -0.1418,-0.009 -0.14645,-0.0456 -0.27356,-0.17814 0.0336,-0.1937 0.31819,-0.0789 0.15354,0.004 0.13656,0.0383 0.11825,-0.31778 -0.1289,-0.0589 -0.1198,-0.0955 -0.19012,-0.26529 0.10121,-0.16891 0.32456,0.0412 0.1411,0.0598 0.11327,0.0852 0.22481,-0.25431 -0.0986,-0.10162 -0.0769,-0.13258 -0.081,-0.31661 0.15522,-0.12122 0.28708,0.15564 0.10973,0.10688 0.0745,0.12051 0.30103,-0.15652 -0.0549,-0.13059 -0.0237,-0.15162 0.039,-0.32517 0.18824,-0.0573 0.21081,0.24913 0.0634,0.13953 0.0258,0.13953 0.3366,-0.0376 -0.004,-0.14194 0.0328,-0.15026 0.15383,-0.28983 0.1958,0.0145 0.10604,0.30896 0.009,0.15331 -0.0264,0.13967 0.32671,0.0865 0.0477,-0.13414 0.0847,-0.1286 0.24783,-0.21533 0.17695,0.0842 -0.0128,0.32711 -0.0474,0.14639 -0.0751,0.12107 z"
       id="path14-2-6-6" />
    <ellipse
       style="fill:#ffffff;stroke:#ffffff;stroke-width:0.264583"
       id="path15-7-0-2"
       cx="-136.96378"
       cy="321.87769"
       rx="1.7592767"
       ry="1.7487284"
       transform="matrix(0.72820049,-0.68536417,0.68530036,0.72826054,0,0)" />
    <path
       style="fill:#800080;stroke:#800080;stroke-width:0.264583"
       d="m 122.22004,333.89843 0.0928,-0.10815 0.12535,-0.0896 0.30835,-0.11171 0.13415,0.14261 -0.13031,0.30106 -0.097,0.11965 -0.11356,0.086 0.18189,0.2843 0.12534,-0.0676 0.14899,-0.0385 0.32725,0.007 0.0732,0.18174 -0.22996,0.23435 -0.13344,0.0768 -0.13669,0.0395 0.0664,0.33139 0.1411,-0.0179 0.15249,0.0179 0.30195,0.12462 0.003,0.19635 -0.29861,0.13598 -0.15194,0.0236 -0.14139,-0.0128 -0.0579,0.33373 0.13769,0.0342 0.13542,0.0718 0.23587,0.22554 -0.0686,0.18444 -0.32692,0.0192 -0.14989,-0.0328 -0.12704,-0.0627 -0.17447,0.29102 0.11568,0.0818 0.10008,0.11596 0.13798,0.29601 -0.13046,0.1476 -0.3111,-0.10007 -0.12761,-0.0849 -0.0955,-0.10461 -0.26746,0.209 0.0781,0.11809 0.0511,0.14451 0.0214,0.32647 -0.17473,0.0908 -0.25324,-0.20587 -0.088,-0.12534 -0.0511,-0.13229 -0.32434,0.0986 0.0299,0.13868 -0.004,0.15355 -0.0981,0.31285 -0.19535,0.0217 -0.16121,-0.2839 -0.0366,-0.14893 3e-4,-0.14203 -0.33742,-0.0248 -0.0221,0.14038 -0.0598,0.1418 -0.20432,0.25694 -0.18962,-0.0501 -0.0474,-0.32356 0.0197,-0.15244 0.0517,-0.13258 -0.30491,-0.14509 -0.0714,0.12321 -0.10689,0.11099 -0.28292,0.16639 -0.15826,-0.1154 0.0728,-0.31953 0.0734,-0.13527 0.096,-0.10532 -0.23124,-0.24572 -0.11101,0.0894 -0.13953,0.0652 -0.32332,0.0534 -0.10562,-0.16498 0.18322,-0.27234 0.11725,-0.0999 0.12733,-0.0639 -0.12634,-0.31318 -0.13556,0.0434 -0.15333,0.01 -0.32007,-0.067 -0.0386,-0.19231 0.26884,-0.18839 0.1452,-0.0511 0.14152,-0.0142 -0.004,-0.33833 -0.1418,-0.009 -0.14645,-0.0456 -0.27356,-0.17814 0.0336,-0.1937 0.31819,-0.0789 0.15354,0.004 0.13656,0.0383 0.11825,-0.31778 -0.1289,-0.0589 -0.1198,-0.0955 -0.19012,-0.26529 0.10121,-0.16891 0.32456,0.0412 0.1411,0.0598 0.11327,0.0852 0.22481,-0.25431 -0.0986,-0.10162 -0.0769,-0.13258 -0.081,-0.31661 0.15522,-0.12122 0.28708,0.15564 0.10973,0.10688 0.0745,0.12051 0.30103,-0.15652 -0.0549,-0.13059 -0.0237,-0.15162 0.039,-0.32517 0.18824,-0.0573 0.21081,0.24913 0.0634,0.13953 0.0258,0.13953 0.3366,-0.0376 -0.004,-0.14194 0.0328,-0.15026 0.15383,-0.28983 0.1958,0.0145 0.10604,0.30896 0.009,0.15331 -0.0264,0.13967 0.32671,0.0865 0.0477,-0.13414 0.0847,-0.1286 0.24783,-0.21533 0.17695,0.0842 -0.0128,0.32711 -0.0474,0.14639 -0.0751,0.12107 z"
       id="path14-2-6-6-6" />
    <ellipse
       style="fill:#ffffff;stroke:#ffffff;stroke-width:0.264583"
       id="path15-7-0-2-1"
       cx="-141.99239"
       cy="327.14362"
       rx="1.7592767"
       ry="1.7487284"
       transform="matrix(0.72820049,-0.68536417,0.68530036,0.72826054,0,0)" />
    <path
       style="fill:#800080;stroke:#800080;stroke-width:0.264583"
       d="m 114.60395,336.03676 0.0928,-0.10815 0.12535,-0.0896 0.30835,-0.11171 0.13415,0.14261 -0.13031,0.30106 -0.097,0.11965 -0.11356,0.086 0.18189,0.2843 0.12534,-0.0676 0.14899,-0.0385 0.32725,0.007 0.0732,0.18174 -0.22996,0.23435 -0.13344,0.0768 -0.13669,0.0395 0.0664,0.33139 0.1411,-0.0179 0.15249,0.0179 0.30195,0.12462 0.003,0.19635 -0.29861,0.13598 -0.15194,0.0236 -0.14139,-0.0128 -0.0579,0.33373 0.13769,0.0342 0.13542,0.0718 0.23587,0.22554 -0.0686,0.18444 -0.32692,0.0192 -0.14989,-0.0328 -0.12704,-0.0627 -0.17447,0.29102 0.11568,0.0818 0.10008,0.11596 0.13798,0.29601 -0.13046,0.1476 -0.3111,-0.10007 -0.12761,-0.0849 -0.0955,-0.10461 -0.26746,0.209 0.0781,0.11809 0.0511,0.14451 0.0214,0.32647 -0.17473,0.0908 -0.25324,-0.20587 -0.088,-0.12534 -0.0511,-0.13229 -0.32434,0.0986 0.0299,0.13868 -0.004,0.15355 -0.0981,0.31285 -0.19535,0.0217 -0.16121,-0.2839 -0.0366,-0.14893 3e-4,-0.14203 -0.33742,-0.0248 -0.0221,0.14038 -0.0598,0.1418 -0.20432,0.25694 -0.18962,-0.0501 -0.0474,-0.32356 0.0197,-0.15244 0.0517,-0.13258 -0.30491,-0.14509 -0.0714,0.12321 -0.10689,0.11099 -0.28292,0.16639 -0.15826,-0.1154 0.0728,-0.31953 0.0734,-0.13527 0.096,-0.10532 -0.23124,-0.24572 -0.11101,0.0894 -0.13953,0.0652 -0.32332,0.0534 -0.10562,-0.16498 0.18322,-0.27234 0.11725,-0.0999 0.12733,-0.0639 -0.12634,-0.31318 -0.13556,0.0434 -0.15333,0.01 -0.32007,-0.067 -0.0386,-0.19231 0.26884,-0.18839 0.1452,-0.0511 0.14152,-0.0142 -0.004,-0.33833 -0.1418,-0.009 -0.14645,-0.0456 -0.27356,-0.17814 0.0336,-0.1937 0.31819,-0.0789 0.15354,0.004 0.13656,0.0383 0.11825,-0.31778 -0.1289,-0.0589 -0.1198,-0.0955 -0.19012,-0.26529 0.10121,-0.16891 0.32456,0.0412 0.1411,0.0598 0.11327,0.0852 0.22481,-0.25431 -0.0986,-0.10162 -0.0769,-0.13258 -0.081,-0.31661 0.15522,-0.12122 0.28708,0.15564 0.10973,0.10688 0.0745,0.12051 0.30103,-0.15652 -0.0549,-0.13059 -0.0237,-0.15162 0.039,-0.32517 0.18824,-0.0573 0.21081,0.24913 0.0634,0.13953 0.0258,0.13953 0.3366,-0.0376 -0.004,-0.14194 0.0328,-0.15026 0.15383,-0.28983 0.1958,0.0145 0.10604,0.30896 0.009,0.15331 -0.0264,0.13967 0.32671,0.0865 0.0477,-0.13414 0.0847,-0.1286 0.24783,-0.21533 0.17695,0.0842 -0.0128,0.32711 -0.0474,0.14639 -0.0751,0.12107 z"
       id="path14-2-6-6-8" />
    <ellipse
       style="fill:#ffffff;stroke:#ffffff;stroke-width:0.264583"
       id="path15-7-0-2-7"
       cx="-149.00429"
       cy="323.48096"
       rx="1.7592767"
       ry="1.7487284"
       transform="matrix(0.72820049,-0.68536417,0.68530036,0.72826054,0,0)" />
    <path
       style="fill:#800080;stroke:#800080;stroke-width:0.264583"
       d="m 110.69539,330.07533 0.0928,-0.10815 0.12535,-0.0896 0.30835,-0.11171 0.13415,0.14261 -0.13031,0.30106 -0.097,0.11965 -0.11356,0.086 0.18189,0.2843 0.12534,-0.0676 0.14899,-0.0385 0.32725,0.007 0.0732,0.18174 -0.22996,0.23435 -0.13344,0.0768 -0.13669,0.0395 0.0664,0.33139 0.1411,-0.0179 0.15249,0.0179 0.30195,0.12462 0.003,0.19635 -0.29861,0.13598 -0.15194,0.0236 -0.14139,-0.0128 -0.0579,0.33373 0.13769,0.0342 0.13542,0.0718 0.23587,0.22554 -0.0686,0.18444 -0.32692,0.0192 -0.14989,-0.0328 -0.12704,-0.0627 -0.17447,0.29102 0.11568,0.0818 0.10008,0.11596 0.13798,0.29601 -0.13046,0.1476 -0.3111,-0.10007 -0.12761,-0.0849 -0.0955,-0.10461 -0.26746,0.209 0.0781,0.11809 0.0511,0.14451 0.0214,0.32647 -0.17473,0.0908 -0.25324,-0.20587 -0.088,-0.12534 -0.0511,-0.13229 -0.32434,0.0986 0.0299,0.13868 -0.004,0.15355 -0.0981,0.31285 -0.19535,0.0217 -0.16121,-0.2839 -0.0366,-0.14893 3e-4,-0.14203 -0.33742,-0.0248 -0.0221,0.14038 -0.0598,0.1418 -0.20432,0.25694 -0.18962,-0.0501 -0.0474,-0.32356 0.0197,-0.15244 0.0517,-0.13258 -0.30491,-0.14509 -0.0714,0.12321 -0.10689,0.11099 -0.28292,0.16639 -0.15826,-0.1154 0.0728,-0.31953 0.0734,-0.13527 0.096,-0.10532 -0.23124,-0.24572 -0.11101,0.0894 -0.13953,0.0652 -0.32332,0.0534 -0.10562,-0.16498 0.18322,-0.27234 0.11725,-0.0999 0.12733,-0.0639 -0.12634,-0.31318 -0.13556,0.0434 -0.15333,0.01 -0.32007,-0.067 -0.0386,-0.19231 0.26884,-0.18839 0.1452,-0.0511 0.14152,-0.0142 -0.004,-0.33833 -0.1418,-0.009 -0.14645,-0.0456 -0.27356,-0.17814 0.0336,-0.1937 0.31819,-0.0789 0.15354,0.004 0.13656,0.0383 0.11825,-0.31778 -0.1289,-0.0589 -0.1198,-0.0955 -0.19012,-0.26529 0.10121,-0.16891 0.32456,0.0412 0.1411,0.0598 0.11327,0.0852 0.22481,-0.25431 -0.0986,-0.10162 -0.0769,-0.13258 -0.081,-0.31661 0.15522,-0.12122 0.28708,0.15564 0.10973,0.10688 0.0745,0.12051 0.30103,-0.15652 -0.0549,-0.13059 -0.0237,-0.15162 0.039,-0.32517 0.18824,-0.0573 0.21081,0.24913 0.0634,0.13953 0.0258,0.13953 0.3366,-0.0376 -0.004,-0.14194 0.0328,-0.15026 0.15383,-0.28983 0.1958,0.0145 0.10604,0.30896 0.009,0.15331 -0.0264,0.13967 0.32671,0.0865 0.0477,-0.13414 0.0847,-0.1286 0.24783,-0.21533 0.17695,0.0842 -0.0128,0.32711 -0.0474,0.14639 -0.0751,0.12107 z"
       id="path14-2-6-6-9" />
    <ellipse
       style="fill:#ffffff;stroke:#ffffff;stroke-width:0.264583"
       id="path15-7-0-2-2"
       cx="-147.76538"
       cy="316.46106"
       rx="1.7592767"
       ry="1.7487284"
       transform="matrix(0.72820049,-0.68536417,0.68530036,0.72826054,0,0)" />
    <path
       style="fill:#d45500;stroke:#d45500;stroke-width:0.264584"
       d="m 117.49049,329.96763 0.12167,-0.14177 0.16433,-0.11746 0.40424,-0.14644 0.17587,0.18695 -0.17084,0.39467 -0.12716,0.15685 -0.14887,0.11274 0.23845,0.3727 0.16432,-0.0886 0.19532,-0.0505 0.42903,0.009 0.096,0.23825 -0.30148,0.30722 -0.17493,0.10068 -0.17921,0.0517 0.0871,0.43443 0.18497,-0.0235 0.19992,0.0235 0.39585,0.16337 0.004,0.2574 -0.39148,0.17826 -0.19919,0.031 -0.18536,-0.0168 -0.0759,0.4375 0.18051,0.0448 0.17753,0.0941 0.30923,0.29567 -0.0899,0.2418 -0.42859,0.0251 -0.19651,-0.043 -0.16655,-0.0822 -0.22872,0.3815 0.15165,0.10724 0.1312,0.15202 0.1809,0.38804 -0.17104,0.1935 -0.40785,-0.13119 -0.16729,-0.11129 -0.1252,-0.13714 -0.35064,0.27399 0.10239,0.15481 0.067,0.18944 0.0281,0.42798 -0.22907,0.11903 -0.33199,-0.26988 -0.11536,-0.16431 -0.067,-0.17342 -0.42521,0.12926 0.0392,0.1818 -0.005,0.20129 -0.12861,0.41013 -0.2561,0.0284 -0.21135,-0.37218 -0.048,-0.19523 3.9e-4,-0.18619 -0.44236,-0.0325 -0.029,0.18402 -0.0784,0.1859 -0.26785,0.33683 -0.24859,-0.0657 -0.0622,-0.42418 0.0258,-0.19983 0.0678,-0.17381 -0.39973,-0.1902 -0.0936,0.16152 -0.14013,0.1455 -0.3709,0.21813 -0.20748,-0.15129 0.0954,-0.41888 0.0962,-0.17733 0.12586,-0.13807 -0.30315,-0.32212 -0.14554,0.1172 -0.18292,0.0855 -0.42387,0.07 -0.13846,-0.21628 0.2402,-0.35701 0.15371,-0.13097 0.16693,-0.0838 -0.16563,-0.41055 -0.17772,0.0569 -0.20101,0.0131 -0.41961,-0.0878 -0.0506,-0.25211 0.35245,-0.24697 0.19035,-0.067 0.18554,-0.0186 -0.005,-0.44353 -0.1859,-0.0118 -0.19199,-0.0598 -0.35863,-0.23353 0.044,-0.25393 0.41715,-0.10343 0.20128,0.005 0.17903,0.0502 0.15503,-0.41659 -0.16899,-0.0772 -0.15706,-0.12519 -0.24924,-0.34778 0.13268,-0.22142 0.42549,0.054 0.18499,0.0784 0.1485,0.1117 0.29471,-0.33339 -0.12926,-0.13322 -0.10081,-0.1738 -0.10619,-0.41506 0.20349,-0.15891 0.37635,0.20404 0.14386,0.1401 0.0977,0.15799 0.39465,-0.20519 -0.0719,-0.17119 -0.031,-0.19877 0.0512,-0.42628 0.24678,-0.0751 0.27637,0.32659 0.0831,0.18292 0.0338,0.18291 0.44127,-0.0493 -0.005,-0.18607 0.043,-0.19698 0.20166,-0.37995 0.2567,0.019 0.13901,0.40503 0.0118,0.20098 -0.0346,0.1831 0.42831,0.11339 0.0625,-0.17585 0.11104,-0.16859 0.3249,-0.28228 0.23197,0.11038 -0.0168,0.42882 -0.0622,0.19191 -0.0984,0.15871 z"
       id="path14-2-6-6-9-0" />
    <ellipse
       style="fill:#ffffff;stroke:#ffffff;stroke-width:0.264584"
       id="path15-7-0-2-2-2"
       cx="-143.42677"
       cy="321.11499"
       rx="2.3063478"
       ry="2.2925141"
       transform="matrix(0.72821332,-0.68535054,0.68531397,0.72824773,0,0)" />
    <rect
       style="fill:none;stroke:#e6e6e6;stroke-width:0.264583"
       id="rect111-3-3-3-36-3-3-35-3-3-3"
       width="21.166666"
       height="21.166666"
       x="21.298958"
       y="351.23438"
       inkscape:export-filename="../24168d4b/page_index.png"
       inkscape:export-xdpi="96"
       inkscape:export-ydpi="96" />
    <path
       style="fill:#0000ff;fill-opacity:1;stroke:#0000ff;stroke-width:0.264999;stroke-opacity:1"
       d="m 25.039057,352.6635 14.413009,-0.0951 -0.739423,3.81561 -6.655779,-0.36413 1.424111,10.46469 c 0,0 -1.719555,3.23405 -3.663509,3.77901 -2.011275,0.56383 -4.638787,-0.0449 -6.275504,-1.08807 -0.942741,-0.60088 -1.410667,-2.57628 -1.410667,-2.57628 l 2.499637,-1.56828 c 0,0 1.224944,2.47255 2.689777,2.68878 1.205022,0.17789 3.163198,-1.41831 3.163198,-1.41831 l -2.013729,-10.40178 -4.108127,-0.39586 z"
       id="path16"
       sodipodi:nodetypes="cccccaaccacccc"
       inkscape:export-filename="./page_jsapp.svg"
       inkscape:export-xdpi="96"
       inkscape:export-ydpi="96" />
    <path
       style="opacity:0.8;fill:#ff6600;stroke:#ff6600;stroke-width:0.264999"
       d="m 40.866056,358.60376 c 0,0 -2.668211,-2.44038 -4.302484,-2.36694 -1.226361,0.0551 -2.704959,0.87971 -3.057103,2.05865 -0.49066,1.64267 1.117783,3.26589 1.986031,4.74329 0.580951,0.98854 1.809725,1.60057 2.125126,2.70349 0.137267,0.48 0.176413,1.12325 -0.162569,1.48913 -0.716355,0.77317 -2.095993,0.87518 -3.10523,0.57539 -0.761037,-0.22606 -1.727801,-1.64267 -1.727801,-1.64267 l -0.99771,1.47854 c 0,0 0.855511,1.74641 1.660895,2.16983 0.94816,0.49848 2.151045,0.33147 3.207936,0.16004 0.914073,-0.14827 1.969027,-0.31926 2.589354,-1.00843 0.763265,-0.84797 1.104325,-2.17966 0.904982,-3.3042 -0.243307,-1.37257 -1.606913,-2.27573 -2.422973,-3.40451 -0.654912,-0.90587 -1.977145,-1.58413 -1.984856,-2.70289 -0.0054,-0.77428 0.580709,-1.79902 1.347791,-1.88951 1.255981,-0.14815 2.862843,2.49581 2.862843,2.49581 z"
       id="path17"
       sodipodi:nodetypes="caaaaaaccaaaaaaacc" />
  </g>
</svg>
