<svg xmlns="http://www.w3.org/2000/svg" width="324.688" height="239.561" viewBox="0 0 85.907 63.384"><defs><path id="e" d="M12.224 258.196h62.043v37.148H12.224z"/><path id="d" d="M15.299 180.795H64.08v32.226H15.299z"/><path id="c" d="M180.648 59.142h60.528v30.722h-60.528z"/><marker id="a" markerHeight="1" markerWidth="1" orient="auto-start-reverse" preserveAspectRatio="xMidYMid" refX="0" refY="0" style="overflow:visible" viewBox="0 0 1 1"><path d="M-.211-4.106 6.21-.894a1 1 90 0 1 0 1.788L-.21 4.106A1.236 1.236 31.717 0 1-2 3v-6A1.236 1.236 148.283 0 1-.211-4.106" style="fill:context-stroke;fill-rule:evenodd;stroke:none" transform="scale(0.7)"/></marker><marker id="b" markerHeight="1" markerWidth="1" orient="auto-start-reverse" preserveAspectRatio="xMidYMid" refX="0" refY="0" style="overflow:visible" viewBox="0 0 1 1"><path d="M-.211-4.106 6.21-.894a1 1 90 0 1 0 1.788L-.21 4.106A1.236 1.236 31.717 0 1-2 3v-6A1.236 1.236 148.283 0 1-.211-4.106" style="fill:context-stroke;fill-rule:evenodd;stroke:none" transform="scale(0.7)"/></marker></defs><g transform="translate(-22.231966,-19.863804)"><path d="M22.364 19.996h85.643v63.119H22.364z" style="fill:#fff;stroke:#fff;stroke-width:.264583;stroke-linejoin:bevel"/><path d="M27.88 35.39h61.654v41.817H27.88z" style="fill:none;stroke:green;stroke-width:.264583;stroke-linejoin:bevel"/><circle cx="58.707" cy="56.298" r="14.695" style="fill:none;stroke:green;stroke-width:.264583;stroke-linejoin:bevel"/><path d="M27.88 35.39v-9.646M89.534 35.257v-9.645M89.666 35.39h9.646M89.666 77.472h9.646" style="fill:none;stroke:#ccc;stroke-width:.264583px;stroke-linecap:butt;stroke-linejoin:miter;stroke-opacity:1"/><path d="m29.253 25.744 58.902-.132" style="fill:none;stroke:#000;stroke-width:.264583px;stroke-linecap:butt;stroke-linejoin:miter;stroke-opacity:1;marker-start:url(#a);marker-end:url(#a)"/><path d="m99.246 36.805.132 38.987" style="fill:none;stroke:#000;stroke-width:.264583px;stroke-linecap:butt;stroke-linejoin:miter;stroke-opacity:1;marker-start:url(#b);marker-end:url(#b)"/><path d="m58.707 56.298 6.141-11.735" style="fill:none;stroke:#000;stroke-width:.264583px;stroke-linecap:butt;stroke-linejoin:miter;stroke-opacity:1;marker-start:url(#a);marker-end:url(#b)"/><text xml:space="preserve" style="font-size:14.6667px;line-height:1.25;font-family:sans-serif;white-space:pre;shape-inside:url(#c)" transform="matrix(0.26458333,0,0,0.26458333,9.7402343,5.6616211)"><tspan x="180.648" y="72.119">H1</tspan></text><text xml:space="preserve" style="font-size:14.6667px;line-height:1.25;font-family:sans-serif;white-space:pre;shape-inside:url(#d)" transform="matrix(0.26458333,0,0,0.26458333,95.940917,6.309082)"><tspan x="15.299" y="193.772">H2</tspan></text><text xml:space="preserve" style="font-size:14.6667px;line-height:1.25;font-family:sans-serif;white-space:pre;shape-inside:url(#e)" transform="matrix(0.26458333,0,0,0.26458333,59.398474,-19.460009)"><tspan x="12.225" y="271.174">radius</tspan></text></g></svg>