<svg xmlns="http://www.w3.org/2000/svg" width="460.863" height="533.622" viewBox="0 0 121.937 141.187"><defs><marker id="d" markerHeight="1" markerWidth="1" orient="auto-start-reverse" preserveAspectRatio="xMidYMid" refX="0" refY="0" style="overflow:visible" viewBox="0 0 1 1"><path d="M-.211-4.106 6.21-.894a1 1 90 0 1 0 1.788L-.21 4.106A1.236 1.236 31.717 0 1-2 3v-6A1.236 1.236 148.283 0 1-.211-4.106" style="fill:context-stroke;fill-rule:evenodd;stroke:none" transform="scale(0.7)"/></marker><marker id="g" markerHeight="1" markerWidth="1" orient="auto-start-reverse" preserveAspectRatio="xMidYMid" refX="0" refY="0" style="overflow:visible" viewBox="0 0 1 1"><path d="M-.211-4.106 6.21-.894a1 1 90 0 1 0 1.788L-.21 4.106A1.236 1.236 31.717 0 1-2 3v-6A1.236 1.236 148.283 0 1-.211-4.106" style="fill:context-stroke;fill-rule:evenodd;stroke:none" transform="scale(0.7)"/></marker><marker id="e" markerHeight="1" markerWidth="1" orient="auto-start-reverse" preserveAspectRatio="xMidYMid" refX="0" refY="0" style="overflow:visible" viewBox="0 0 1 1"><path d="M-.211-4.106 6.21-.894a1 1 90 0 1 0 1.788L-.21 4.106A1.236 1.236 31.717 0 1-2 3v-6A1.236 1.236 148.283 0 1-.211-4.106" style="fill:context-stroke;fill-rule:evenodd;stroke:none" transform="scale(0.7)"/></marker><marker id="b" markerHeight="1" markerWidth="1" orient="auto-start-reverse" preserveAspectRatio="xMidYMid" refX="0" refY="0" style="overflow:visible" viewBox="0 0 1 1"><path d="M-.211-4.106 6.21-.894a1 1 90 0 1 0 1.788L-.21 4.106A1.236 1.236 31.717 0 1-2 3v-6A1.236 1.236 148.283 0 1-.211-4.106" style="fill:context-stroke;fill-rule:evenodd;stroke:none" transform="scale(0.7)"/></marker><marker id="k" markerHeight="1" markerWidth="1" orient="auto-start-reverse" preserveAspectRatio="xMidYMid" refX="0" refY="0" style="overflow:visible" viewBox="0 0 1 1"><path d="M-.211-4.106 6.21-.894a1 1 90 0 1 0 1.788L-.21 4.106A1.236 1.236 31.717 0 1-2 3v-6A1.236 1.236 148.283 0 1-.211-4.106" style="fill:context-stroke;fill-rule:evenodd;stroke:none" transform="scale(0.7)"/></marker><marker id="l" markerHeight="1" markerWidth="1" orient="auto-start-reverse" preserveAspectRatio="xMidYMid" refX="0" refY="0" style="overflow:visible" viewBox="0 0 1 1"><path d="M-.211-4.106 6.21-.894a1 1 90 0 1 0 1.788L-.21 4.106A1.236 1.236 31.717 0 1-2 3v-6A1.236 1.236 148.283 0 1-.211-4.106" style="fill:context-stroke;fill-rule:evenodd;stroke:none" transform="scale(0.7)"/></marker><marker id="m" markerHeight="1" markerWidth="1" orient="auto-start-reverse" preserveAspectRatio="xMidYMid" refX="0" refY="0" style="overflow:visible" viewBox="0 0 1 1"><path d="M-.211-4.106 6.21-.894a1 1 90 0 1 0 1.788L-.21 4.106A1.236 1.236 31.717 0 1-2 3v-6A1.236 1.236 148.283 0 1-.211-4.106" style="fill:context-stroke;fill-rule:evenodd;stroke:none" transform="scale(0.7)"/></marker><marker id="o" markerHeight="1" markerWidth="1" orient="auto-start-reverse" preserveAspectRatio="xMidYMid" refX="0" refY="0" style="overflow:visible" viewBox="0 0 1 1"><path d="M-.211-4.106 6.21-.894a1 1 90 0 1 0 1.788L-.21 4.106A1.236 1.236 31.717 0 1-2 3v-6A1.236 1.236 148.283 0 1-.211-4.106" style="fill:context-stroke;fill-rule:evenodd;stroke:none" transform="scale(0.7)"/></marker><path id="i" d="M105.279 3719.702h57.139v41.879h-57.139z"/><path id="f" d="M348.786 275.767h64.579v35.919h-64.579z"/><path id="h" d="M272.342 1674.881h50.345v33.865h-50.345z"/><path id="a" d="M175.914 3377.816h64.503v44.277h-64.503z"/><path id="j" d="M175.914 3377.816h64.503v44.277h-64.503z"/><path id="n" d="M175.914 3377.816h64.503v44.277h-64.503z"/><path id="p" d="M175.914 3377.816h64.503v44.277h-64.503z"/><path id="c" d="M98.764 3387.59h64.479v48.027H98.764z"/></defs><g transform="translate(-20.249479,-893.59161)"><path d="M20.382 893.724h121.672v140.923H20.382z" style="fill:#fff;fill-opacity:1;stroke:#fff;stroke-width:.264583;stroke-opacity:1"/><text xml:space="preserve" style="font-size:14.6667px;line-height:1.25;font-family:sans-serif;white-space:pre;shape-inside:url(#a);display:inline" transform="matrix(0.26458333,0,0,0.26458333,-14.372969,112.08813)"><tspan x="175.914" y="3390.793">S1</tspan></text><path d="M33.061 1004.757h2.608" style="fill:none;stroke:#000;stroke-width:.264581px;stroke-linecap:butt;stroke-linejoin:miter;stroke-opacity:1;marker-start:url(#b);marker-end:url(#b)"/><text xml:space="preserve" style="font-size:14.6667px;line-height:1.25;font-family:sans-serif;white-space:pre;shape-inside:url(#c);display:inline" transform="matrix(0.26458333,0,0,0.26458333,68.333811,122.05731)"><tspan x="98.764" y="3400.566">S2</tspan></text><circle cx="65.072" cy="956.282" r="27.757" style="fill:#5fbcd3;fill-opacity:1;stroke:#5fbcd3;stroke-width:.264583;stroke-dasharray:none;stroke-opacity:1"/><circle cx="65.072" cy="956.282" r="24.985" style="fill:#d5f6ff;fill-opacity:1;stroke:#d5f6ff;stroke-width:.264583;stroke-dasharray:none;stroke-opacity:1"/><circle cx="65.072" cy="956.282" r="14.412" style="fill:#f9f9f9;stroke:#ccc;stroke-width:.264583;stroke-dasharray:none"/><circle cx="64.964" cy="936.197" r="2.873" style="fill:#f9f9f9;stroke:#ccc;stroke-width:.264583;stroke-dasharray:none;stroke-dashoffset:0"/><circle cx="85.049" cy="956.282" r="2.873" style="fill:#f9f9f9;stroke:#ccc;stroke-width:.264583;stroke-dasharray:none;stroke-dashoffset:0"/><circle cx="64.964" cy="976.367" r="2.873" style="fill:#f9f9f9;stroke:#ccc;stroke-width:.264583;stroke-dasharray:none;stroke-dashoffset:0"/><circle cx="44.879" cy="956.282" r="2.873" style="fill:#f9f9f9;stroke:#ccc;stroke-width:.264583;stroke-dasharray:none;stroke-dashoffset:0"/><circle cx="79.616" cy="942.267" r="2.873" style="fill:#f9f9f9;stroke:#ccc;stroke-width:.264583;stroke-dasharray:none;stroke-dashoffset:0"/><circle cx="79.616" cy="970.826" r="2.873" style="fill:#f9f9f9;stroke:#ccc;stroke-width:.264583;stroke-dasharray:none;stroke-dashoffset:0"/><circle cx="50.528" cy="970.826" r="2.873" style="fill:#f9f9f9;stroke:#ccc;stroke-width:.264583;stroke-dasharray:none;stroke-dashoffset:0"/><circle cx="50.528" cy="941.738" r="2.873" style="fill:#f9f9f9;stroke:#ccc;stroke-width:.264583;stroke-dasharray:none;stroke-dashoffset:0"/><circle cx="64.964" cy="956.282" r="20.085" style="fill:none;stroke:#ccc;stroke-width:.264583;stroke-dasharray:2,1;stroke-dashoffset:0"/><path d="M65.072 928.26h68.412M65.072 984.039h68.412" style="fill:#ccc;stroke:#ccc;stroke-width:.264582px;stroke-linecap:butt;stroke-linejoin:miter;stroke-opacity:1"/><path d="M133.285 982.498v-52.696" style="fill:none;stroke:#000;stroke-width:.264582px;stroke-linecap:butt;stroke-linejoin:miter;stroke-opacity:1;marker-start:url(#d);marker-end:url(#d)"/><path d="M25.854 1001.857v-91.11" style="fill:none;stroke:#000;stroke-width:.264583px;stroke-linecap:butt;stroke-linejoin:miter;stroke-opacity:1;marker-start:url(#e);marker-end:url(#e)"/><text xml:space="preserve" style="font-size:14.6667px;line-height:1.25;font-family:sans-serif;white-space:pre;shape-inside:url(#f);display:inline" transform="matrix(0.26458333,0,0,0.26458333,41.767184,880.28129)"><tspan x="348.785" y="288.744">D1</tspan></text><path d="M56.536 960.78v-8.996" style="fill:#9bd4e1;fill-opacity:.5;stroke:#dbe3de;stroke-width:.264583px;stroke-linecap:butt;stroke-linejoin:miter;stroke-opacity:1"/><path d="M-62.848-1014.467h1.814v116.37h-1.814zM-69.16-1014.467h1.814v116.37h-1.814z" style="fill:#5fd3bc;fill-opacity:.8;stroke:#5fd3bc;stroke-width:.264583" transform="scale(-1)"/><path d="M-67.081-1014.467h4.233v116.37h-4.233z" style="fill:#d7f4ee;fill-opacity:.3;stroke:#d7f4ee;stroke-width:.264583;stroke-opacity:1" transform="scale(-1)"/><circle cx="64.964" cy="956.282" r="10.012" style="fill:none;stroke:#006680;stroke-width:.264583;stroke-dasharray:none"/><path d="M61.034 1027.382V1014.6M69.16 1027.382V1014.6" style="fill:#ccc;stroke:#ccc;stroke-width:.264583px;stroke-linecap:butt;stroke-linejoin:miter;stroke-opacity:1"/><path d="M62.569 1027.382h5.401" style="fill:none;stroke:#000;stroke-width:.264582px;stroke-linecap:butt;stroke-linejoin:miter;stroke-opacity:1;marker-start:url(#g);marker-end:url(#g)"/><text xml:space="preserve" style="font-size:14.6667px;line-height:1.25;font-family:sans-serif;white-space:pre;shape-inside:url(#h);display:inline" transform="matrix(0.26458333,0,0,0.26458333,-9.7225241,585.34392)"><tspan x="272.342" y="1687.858">D4</tspan></text><path d="M61.034 1011.404h8.126v3.063h-8.126zM61.034 898.097h8.126v3.063h-8.126zM61.009 906.075h8.126v3.063h-8.126zM61.009 1003.294h8.126v3.063h-8.126z" style="fill:#2ca089;fill-opacity:.7;stroke:#2ca089;stroke-width:.264583;stroke-opacity:1"/><path d="M31.891 909.138h5.292v94.288h-5.292zM121.933 909.27h5.292v94.024h-5.292z" style="opacity:.8;fill:#06f;stroke:none;stroke-width:.264583;stroke-linejoin:bevel"/><path d="M25.07 909.138h35.806M25.07 1003.161h35.806M127.224 987.881v30.766" style="fill:#ccc;stroke:#ccc;stroke-width:.264582px;stroke-linecap:butt;stroke-linejoin:miter;stroke-opacity:1"/><text xml:space="preserve" style="font-size:14.6667px;line-height:1.25;font-family:sans-serif;white-space:pre;shape-inside:url(#i)" transform="matrix(0.26458333,0,0,0.26458333,-6.8417967,-30.040038)"><tspan x="105.279" y="3732.678">L5</tspan></text><text xml:space="preserve" style="font-size:14.6667px;line-height:1.25;font-family:sans-serif;white-space:pre;shape-inside:url(#j);display:inline" transform="matrix(0.26458333,0,0,0.26458333,75.86713,112.05384)"><tspan x="175.914" y="3390.793">S1</tspan></text><path d="M123.301 1004.722h2.608" style="fill:none;stroke:#000;stroke-width:.264581px;stroke-linecap:butt;stroke-linejoin:miter;stroke-opacity:1;marker-start:url(#k);marker-end:url(#k)"/><path d="M66.327 1018.118h59.51" style="fill:none;stroke:#000;stroke-width:.264582px;stroke-linecap:butt;stroke-linejoin:miter;stroke-opacity:1;marker-start:url(#l);marker-end:url(#l)"/><path d="M64.754 1006.357v13.61" style="fill:#ccc;stroke:#ccc;stroke-width:.264582px;stroke-linecap:butt;stroke-linejoin:miter;stroke-opacity:1"/><path d="M909.27-127.357h5.292v62.285h-5.292zM998.002-127.224h5.292v62.285h-5.292z" style="opacity:.6;fill:#06f;stroke:none;stroke-width:.264583;stroke-linejoin:bevel" transform="rotate(90)"/><path d="M128.557 1002.041v-2.607" style="fill:none;stroke:#000;stroke-width:.264581px;stroke-linecap:butt;stroke-linejoin:miter;stroke-opacity:1;marker-start:url(#m);marker-end:url(#m)"/><text xml:space="preserve" style="font-size:14.6667px;line-height:1.25;font-family:sans-serif;white-space:pre;shape-inside:url(#n);display:inline" transform="matrix(0.26458333,0,0,0.26458333,82.956622,105.00258)"><tspan x="175.914" y="3390.793">S1</tspan></text><path d="M982.451-127.357h5.292v62.285h-5.292zM924.424-127.357h5.292v62.285h-5.292z" style="opacity:.6;fill:#06f;stroke:none;stroke-width:.264583;stroke-linejoin:bevel" transform="rotate(90)"/><path d="M128.555 986.504v-2.608" style="fill:none;stroke:#000;stroke-width:.264581px;stroke-linecap:butt;stroke-linejoin:miter;stroke-opacity:1;marker-start:url(#o);marker-end:url(#o)"/><text xml:space="preserve" style="font-size:14.6667px;line-height:1.25;font-family:sans-serif;white-space:pre;shape-inside:url(#p);display:inline" transform="matrix(0.26458333,0,0,0.26458333,82.955546,90.523576)"><tspan x="175.914" y="3390.793">S1</tspan></text></g></svg>