<?xml version="1.0" encoding="UTF-8" standalone="no"?>
<!-- Created with Inkscape (http://www.inkscape.org/) -->

<svg
   width="506.16858"
   height="265.65186"
   viewBox="0 0 133.92377 70.287053"
   version="1.1"
   id="svg1"
   inkscape:version="1.4.2 (1:1.4.2+202505120737+ebf0e940d0)"
   sodipodi:docname="src_parametrix_concept_2.svg"
   xml:space="preserve"
   inkscape:export-filename="repos_and_packages.svg"
   inkscape:export-xdpi="96"
   inkscape:export-ydpi="96"
   xmlns:inkscape="http://www.inkscape.org/namespaces/inkscape"
   xmlns:sodipodi="http://sodipodi.sourceforge.net/DTD/sodipodi-0.dtd"
   xmlns="http://www.w3.org/2000/svg"
   xmlns:svg="http://www.w3.org/2000/svg"><sodipodi:namedview
     id="namedview1"
     pagecolor="#ffffff"
     bordercolor="#666666"
     borderopacity="1.0"
     inkscape:showpageshadow="2"
     inkscape:pageopacity="0.0"
     inkscape:pagecheckerboard="0"
     inkscape:deskcolor="#d1d1d1"
     inkscape:document-units="px"
     inkscape:zoom="1.0583333"
     inkscape:cx="182.36221"
     inkscape:cy="2053.7009"
     inkscape:window-width="1854"
     inkscape:window-height="1131"
     inkscape:window-x="0"
     inkscape:window-y="0"
     inkscape:window-maximized="1"
     inkscape:current-layer="layer1"
     showguides="true"><inkscape:page
       x="0"
       y="0"
       width="133.92377"
       height="70.287056"
       id="page2"
       margin="0"
       bleed="0" /></sodipodi:namedview><defs
     id="defs1"><rect
       x="286.55389"
       y="1917.6121"
       width="212.29578"
       height="60.383862"
       id="rect31" /><rect
       x="234.95818"
       y="1909.2188"
       width="219.81053"
       height="85.039368"
       id="rect28" /><rect
       x="157.59227"
       y="1859.3984"
       width="195.99286"
       height="63.373524"
       id="rect25" /><rect
       x="81.167572"
       y="1809.7921"
       width="157.58488"
       height="40.556103"
       id="rect24" /></defs><g
     inkscape:label="Layer 1"
     inkscape:groupmode="layer"
     id="layer1"
     transform="translate(-14.593294,-462.61575)"><rect
       style="fill:#ffffff;stroke:#ffffff;stroke-width:0.264583;stroke-linejoin:bevel"
       id="rect30"
       width="133.65918"
       height="70.022461"
       x="14.725586"
       y="462.74805"
       inkscape:export-filename="parametrix_3D_shape_subset.svg"
       inkscape:export-xdpi="96"
       inkscape:export-ydpi="96" /><rect
       style="fill:#fff6d5;stroke:#d4aa00;stroke-width:0.264583;stroke-linejoin:bevel"
       id="rect29-5-2"
       width="129.35059"
       height="63.517582"
       x="17.017315"
       y="464.78629" /><rect
       style="fill:#dde9af;stroke:#008000;stroke-width:0.264583;stroke-linejoin:bevel"
       id="rect29-5"
       width="98.816399"
       height="51.94434"
       x="45.711067"
       y="474.55331" /><rect
       style="fill:#d5f6ff;stroke:#006680;stroke-width:0.264583;stroke-linejoin:bevel"
       id="rect29"
       width="59.790039"
       height="41.142578"
       x="82.189453"
       y="481.91211" /><text
       xml:space="preserve"
       transform="matrix(0.26458333,0,0,0.26458333,-1.8412765,-13.006837)"
       id="text17"
       style="font-size:14.6667px;line-height:1.25;font-family:sans-serif;white-space:pre;shape-inside:url(#rect24);display:inline"><tspan
         x="81.167969"
         y="1823.1378"
         id="tspan1">any solid 3D shapes</tspan></text><text
       xml:space="preserve"
       transform="matrix(0.26458333,0,0,0.26458333,6.571224,-16.499024)"
       id="text24"
       style="font-size:14.6667px;line-height:1.25;font-family:sans-serif;white-space:pre;shape-inside:url(#rect25);display:inline"><tspan
         x="157.5918"
         y="1872.7433"
         id="tspan2">technical 3D shapes</tspan></text><text
       xml:space="preserve"
       transform="matrix(0.26458333,0,0,0.26458333,22,-21.772462)"
       id="text25"
       style="font-size:14.6667px;line-height:1.25;font-family:sans-serif;white-space:pre;shape-inside:url(#rect28);display:inline"><tspan
         x="234.95898"
         y="1922.5636"
         id="tspan3">Parametrix 3D shapes
</tspan></text><text
       xml:space="preserve"
       transform="matrix(0.26458333,0,0,0.26458333,15.822266,5.6064455)"
       id="text18"
       style="font-size:14.6667px;line-height:1.25;font-family:sans-serif;white-space:pre;shape-inside:url(#rect31);display:inline"><tspan
         x="286.55469"
         y="1930.9562"
         id="tspan4">(combination of extrudes </tspan><tspan
         x="286.55469"
         y="1949.2896"
         id="tspan5">orthogonal or rotated)</tspan></text><path
       style="fill:#d4aa00;stroke:#1a1a1a;stroke-width:0.264583"
       d="m 113.74252,511.89279 c -0.33079,-0.23963 -0.83231,-0.92788 -0.95463,-1.31007 l -0.0645,-0.20168 -0.082,-0.0439 c -0.0922,-0.0494 -0.41586,-0.0589 -0.52878,-0.0155 l -0.074,0.0284 v 0.0796 c 0,0.0438 -0.0737,0.20196 -0.16373,0.3515 -0.09,0.14955 -0.16372,0.28857 -0.16372,0.30894 0,0.0204 -0.16662,0.20728 -0.37026,0.41535 l -0.37025,0.3783 -0.15601,-0.004 c -0.0858,-0.002 -0.26061,-0.0288 -0.38844,-0.0585 l -0.23241,-0.054 -0.10595,-0.1871 c -0.0583,-0.10291 -0.16052,-0.34983 -0.22722,-0.54873 l -0.12127,-0.36163 -0.0266,-0.35195 -0.0266,-0.35195 -0.2238,-0.0665 -0.2238,-0.0665 -0.0926,0.0242 -0.0926,0.0242 -0.0209,0.0798 c -0.0527,0.20138 -1.10837,0.93295 -1.49752,1.03774 l -0.18373,0.0495 -0.28767,-0.11503 -0.28767,-0.11504 -0.0324,-0.1804 c -0.0178,-0.0992 -0.0336,-0.54398 -0.0351,-0.98835 l -0.003,-0.80795 -0.11675,-0.0532 -0.11676,-0.0532 -0.0821,0.0723 c -0.25412,0.22404 -1.33864,0.62296 -1.83448,0.67478 l -0.27057,0.0283 -0.23708,-0.13326 -0.23707,-0.13327 -0.0255,-0.095 c -0.014,-0.0522 -0.0258,-0.48192 -0.0262,-0.95485 l -6.4e-4,-0.85989 -0.19881,0.0303 c -0.10935,0.0167 -0.4742,0.0435 -0.81079,0.0596 l -0.61198,0.0293 -0.17067,-0.032 -0.17067,-0.032 -0.13775,-0.20022 -0.13776,-0.20023 -0.0337,-0.89796 -0.0337,-0.89797 -0.0984,-0.0187 c -0.0541,-0.0103 -0.2642,-0.0525 -0.46683,-0.0937 l -0.36841,-0.075 -0.1275,-0.0908 -0.1275,-0.0908 -0.0744,-0.24736 -0.0744,-0.24736 -0.0313,-0.94025 -0.0313,-0.94025 -0.134828,-0.0796 c -0.0742,-0.0438 -0.15352,-0.11539 -0.17637,-0.15907 l -0.0415,-0.0794 -0.0605,-1.41507 -0.0605,-1.41508 0.1134,-0.12102 c 0.0624,-0.0666 0.17217,-0.15581 0.24399,-0.19834 l 0.130578,-0.0773 -0.0321,-0.98372 -0.0321,-0.98372 0.0758,-0.14662 0.0758,-0.14663 0.15317,-0.0946 c 0.13336,-0.0824 0.38863,-0.15791 0.89633,-0.26511 l 0.13504,-0.0285 -0.0232,-0.80383 -0.0232,-0.80383 0.22414,-0.21947 0.22414,-0.21947 0.2185,-0.0328 c 0.12018,-0.018 0.49,-0.023 0.82182,-0.011 l 0.60331,0.0218 v -0.76109 -0.76108 l 0.21822,-0.17856 0.21823,-0.17855 0.28465,0.01 0.28465,0.01 0.45054,0.11482 c 0.37063,0.0944 0.73196,0.22125 1.09771,0.38521 l 0.0513,0.023 0.0306,-0.43045 c 0.0168,-0.23675 0.0306,-0.62678 0.0306,-0.86672 v -0.43627 l 0.19537,-0.0997 0.19537,-0.0997 0.21395,0.0214 0.21395,0.0214 0.35085,0.14773 c 0.33075,0.13926 0.76283,0.3973 1.03236,0.61652 l 0.12017,0.0977 0.21898,-0.0551 0.21898,-0.0551 8.1e-4,-0.26343 c 10e-4,-0.3393 0.10633,-0.83359 0.2286,-1.07327 l 0.096,-0.18825 0.31474,-0.0337 0.31473,-0.0337 0.19432,0.10309 c 0.24629,0.13066 0.80075,0.63472 0.97541,0.88676 l 0.13348,0.1926 h 0.12813 c 0.0705,0 0.19198,-0.0128 0.27001,-0.0284 l 0.14189,-0.0284 0.0503,-0.19382 c 0.0654,-0.25229 0.27274,-0.60569 0.51845,-0.88382 l 0.1963,-0.2222 h 0.3495 0.34951 l 0.14304,0.15203 c 0.0787,0.0836 0.2255,0.27735 0.32628,0.43052 l 0.18323,0.27849 0.0718,0.24691 c 0.0838,0.28833 0.0691,0.27578 0.36971,0.31612 l 0.23389,0.0314 0.17778,-0.23848 0.17778,-0.23849 0.36371,-0.26968 c 0.20005,-0.14832 0.42806,-0.29633 0.5067,-0.3289 l 0.14299,-0.0592 0.2745,0.0504 0.27449,0.0504 0.0606,0.0817 c 0.0333,0.0449 0.10259,0.21978 0.1539,0.38858 l 0.0933,0.30691 0.01,0.39252 0.01,0.39253 0.22307,0.0692 0.22307,0.0692 0.12777,-0.10074 c 0.36349,-0.2866 1.14213,-0.64202 1.51997,-0.6938 l 0.20439,-0.028 0.24254,0.12291 0.24255,0.12291 -0.002,0.31497 c -0.001,0.17323 -0.0289,0.5426 -0.0615,0.82082 l -0.0593,0.50585 0.089,0.0476 0.089,0.0476 0.24157,-0.0938 c 0.49852,-0.1937 1.18116,-0.33476 1.61999,-0.33476 h 0.26878 l 0.21724,0.16587 0.21723,0.16587 -0.002,0.17328 c -0.001,0.0953 -0.0386,0.45746 -0.0835,0.8048 l -0.0817,0.63152 0.72673,0.004 0.72673,0.004 0.21051,0.0588 0.2105,0.0588 0.17543,0.16934 0.17542,0.16934 -0.001,0.14254 c -5.9e-4,0.0784 -0.0422,0.4162 -0.0925,0.75067 -0.0503,0.33447 -0.0919,0.6528 -0.0925,0.7074 l -10e-4,0.0993 0.19684,0.0315 c 0.71755,0.11475 1.12921,0.33272 1.21184,0.64167 l 0.057,0.21312 -0.12506,0.79081 c -0.0688,0.43494 -0.1249,0.83616 -0.12471,0.89161 l 3.4e-4,0.1008 0.2222,0.12742 c 0.12222,0.0701 0.25858,0.17207 0.30303,0.22665 l 0.0808,0.0992 3.6e-4,0.2105 c 1.9e-4,0.11578 -0.0934,0.76815 -0.208,1.44972 l -0.20836,1.23921 -0.0629,0.0472 -0.0629,0.0472 -0.17748,1.07176 c -0.0976,0.58947 -0.21206,1.16591 -0.25432,1.28099 l -0.0768,0.20923 -0.10195,0.0671 c -0.0561,0.0369 -0.27552,0.0974 -0.48767,0.13447 -0.47673,0.0832 -0.40731,-0.0386 -0.5639,0.98971 -0.14495,0.95186 -0.16284,1.00737 -0.38082,1.18192 l -0.14605,0.11695 -0.44623,-0.0104 c -0.24543,-0.006 -0.62435,-0.0416 -0.84203,-0.0798 -0.21769,-0.0382 -0.39923,-0.0651 -0.40341,-0.0598 -0.004,0.005 -0.0534,0.35696 -0.10931,0.78148 -0.0559,0.42452 -0.11263,0.82858 -0.126,0.8979 l -0.0243,0.12604 -0.19882,0.11652 c -0.10935,0.0641 -0.25319,0.13016 -0.31964,0.14684 l -0.12083,0.0303 -0.29704,-0.0756 c -0.16337,-0.0416 -0.49553,-0.15221 -0.73814,-0.24589 l -0.44111,-0.17033 -0.30186,-0.20242 c -0.30958,-0.20759 -0.38303,-0.23741 -0.38303,-0.15549 0,0.0868 -0.18827,1.70575 -0.21591,1.85653 l -0.0273,0.14923 -0.21415,0.073 c -0.11779,0.0401 -0.28952,0.073 -0.38163,0.073 h -0.16746 l -0.23352,-0.12368 c -0.4577,-0.2424 -0.93543,-0.62308 -1.26635,-1.00907 l -0.14402,-0.16798 -0.22637,0.0423 c -0.28212,0.0527 -0.25739,0.0187 -0.30827,0.4242 -0.11494,0.91598 -0.43555,1.44899 -0.90886,1.51097 l -0.2346,0.0307 z m 0.35008,-2.23109 0.004,-0.28068 -0.24709,-0.28067 c -0.42861,-0.48689 -0.82842,-1.11827 -0.82842,-1.30827 0,-0.0394 -0.0189,-0.0717 -0.042,-0.0717 h -0.042 l -0.0275,0.31576 c -0.0151,0.17367 -0.0513,0.71181 -0.0804,1.19589 l -0.0529,0.88012 0.0293,0.18317 c 0.0533,0.33308 0.59178,1.14807 0.95874,1.45095 l 0.16906,0.13954 0.0779,-0.97171 c 0.0428,-0.53444 0.0796,-1.09801 0.0816,-1.25238 z m -2.68252,1.57602 c 0.14384,-0.17214 0.29248,-0.35126 0.33031,-0.39805 0.0616,-0.0761 0.14554,-0.24854 0.25476,-0.52306 0.0205,-0.0515 0.0602,-0.54615 0.0883,-1.09932 0.0281,-0.55316 0.0634,-1.12951 0.0785,-1.28076 l 0.0275,-0.27502 -0.0539,0.0333 -0.0539,0.0333 0.0315,-0.13257 c 0.0174,-0.0729 0.0636,-0.1694 0.10268,-0.21442 l 0.0711,-0.0819 h 0.29416 0.29416 l 0.0728,0.10397 c 0.04,0.0572 0.0728,0.13672 0.0728,0.17674 0,0.22614 0.51242,1.07266 0.91164,1.50606 0.11609,0.12602 0.21107,0.25219 0.21107,0.28038 v 0.0513 l 0.28067,-0.0293 0.28068,-0.0293 -0.003,0.19809 c -0.001,0.10895 -0.0401,0.64016 -0.0859,1.18046 -0.0948,1.11683 -0.0965,1.09171 0.0555,0.7882 0.25449,-0.50808 0.31521,-0.82022 0.44675,-2.29637 l 0.0802,-0.90005 -0.0344,-0.0122 -0.0344,-0.0122 0.0436,-0.18712 c 0.024,-0.10291 0.0441,-0.347 0.0447,-0.54241 l 10e-4,-0.35528 0.0819,-0.0739 0.0819,-0.0739 0.28067,-0.0304 0.28068,-0.0304 0.1609,0.23964 c 0.20442,0.30447 0.7725,0.8474 1.19506,1.14216 l 0.32681,0.22798 0.31325,-0.10862 0.31324,-0.10863 0.0328,-0.34962 c 0.018,-0.19229 0.0197,-0.50398 0.004,-0.69264 l -0.029,-0.34303 -0.0885,-0.26224 -0.0885,-0.26223 0.0238,-0.091 0.0238,-0.091 0.23071,-0.11691 0.23071,-0.11691 0.084,0.0267 c 0.0462,0.0147 0.17473,0.11041 0.28559,0.21275 0.11085,0.10234 0.21551,0.18608 0.23257,0.18608 0.017,0 0.19647,0.0943 0.3987,0.20953 0.20223,0.11525 0.54789,0.28515 0.76814,0.37755 l 0.40046,0.16801 0.24832,-0.13195 0.24831,-0.13196 -0.0303,-0.20764 c -0.0629,-0.43091 -0.41637,-1.26613 -0.66101,-1.56187 -0.14981,-0.1811 -0.13943,-0.23238 0.0862,-0.42547 l 0.19554,-0.16737 h 0.0992 c 0.0546,0 0.11917,0.0197 0.14362,0.0438 0.14217,0.14029 1.16654,0.46744 1.82205,0.5819 l 0.37423,0.0653 0.10955,-0.0999 c 0.0602,-0.055 0.13001,-0.13792 0.15502,-0.18432 l 0.0455,-0.0844 -0.12713,-0.21971 c -0.2101,-0.36309 -0.69251,-0.95597 -0.97244,-1.19513 -0.2198,-0.18778 -0.36634,-0.38039 -0.22111,-0.29064 l 0.0419,0.0259 0.0283,-0.0737 c 0.0156,-0.0406 0.0283,-0.0956 0.0283,-0.1224 v -0.0487 l -0.0702,0.0582 c -0.10829,0.0899 -0.0832,0.002 0.0492,-0.17101 l 0.11933,-0.15645 h 0.0889 c 0.0489,0 0.21097,0.0335 0.36016,0.0745 l 0.27126,0.0745 0.82453,0.0252 0.82453,0.0252 0.0794,-0.23899 0.0794,-0.239 -0.0297,-0.0481 c -0.10392,-0.16815 -1.18389,-0.94306 -1.54421,-1.10802 -0.27778,-0.12717 -0.30413,-0.19578 -0.20805,-0.54176 l 0.0487,-0.17542 h 0.50077 0.50077 l 0.4677,-0.0935 c 0.25724,-0.0514 0.52559,-0.10648 0.59634,-0.1224 l 0.12865,-0.0289 v -0.25125 -0.25125 l -0.19881,-0.12599 c -0.33429,-0.21185 -1.08048,-0.52692 -1.49238,-0.63014 -0.21477,-0.0538 -0.41779,-0.11987 -0.45115,-0.14678 l -0.0606,-0.0489 0.0139,-0.23715 0.0139,-0.23714 0.11695,-0.0341 c 0.0643,-0.0188 0.27891,-0.0694 0.47687,-0.11253 l 0.35992,-0.0784 0.43532,-0.21584 0.43533,-0.21583 v -0.21762 -0.21762 l -0.0351,0.0216 c -0.0193,0.0119 -0.0351,1.9e-4 -0.0351,-0.0259 v -0.0475 l -0.3667,-0.11584 c -0.49247,-0.15557 -1.30695,-0.30924 -1.63902,-0.30924 h -0.27015 l -0.10357,-0.11024 -0.10356,-0.11024 -0.026,-0.16055 -0.0261,-0.16055 0.39045,-0.19422 0.39044,-0.19423 0.33915,-0.31063 c 0.18653,-0.17085 0.33915,-0.28959 0.33915,-0.26386 0,0.0257 -0.15107,0.18466 -0.33571,0.35318 l -0.33572,0.3064 -0.31919,0.16774 c -0.17556,0.0923 -0.3192,0.17538 -0.3192,0.18474 0,0.009 -0.0141,0.0538 -0.0313,0.0987 l -0.0313,0.0817 0.062,-0.0383 0.062,-0.0383 -0.0328,0.053 -0.0328,0.053 0.0468,0.0875 0.0468,0.0875 0.43481,0.0297 c 0.23914,0.0164 0.47593,0.0353 0.5262,0.0421 l 0.0914,0.0123 0.0827,-0.56135 c 0.0455,-0.30875 0.0923,-0.66918 0.10411,-0.80097 l 0.0214,-0.23962 -0.15176,-0.14709 c -0.0835,-0.0809 -0.22407,-0.17026 -0.31246,-0.19856 l -0.16069,-0.0515 -0.79525,-0.0132 -0.79524,-0.0132 0.009,-0.10993 c 0.01,-0.12638 0.0971,-0.86189 0.13501,-1.13907 l 0.0256,-0.18712 -0.054,0.0702 -0.054,0.0702 0.0331,-0.0936 c 0.0182,-0.0515 0.0427,-0.1266 0.0544,-0.16699 l 0.0213,-0.0734 -0.0824,-0.0669 -0.0824,-0.0669 0.0351,0.0585 0.0351,0.0585 h -0.0384 c -0.0212,0 -0.06,-0.0474 -0.0863,-0.10526 l -0.0479,-0.10525 -0.0568,0.0117 c -0.0312,0.006 -0.0568,-0.009 -0.0568,-0.0351 v -0.0468 h -0.25563 c -0.32468,0 -1.08689,0.14705 -1.45181,0.28009 -0.15438,0.0563 -0.31226,0.11193 -0.35085,0.12368 l -0.0702,0.0214 -0.2222,-0.14137 -0.2222,-0.14136 v -0.0691 c 0,-0.038 0.0526,-0.14667 0.11695,-0.24146 0.14089,-0.20761 0.15617,-0.15403 0.0198,0.0696 l -0.0967,0.15869 0.0724,0.0724 c 0.11607,0.11607 0.12053,0.092 0.19861,-1.06936 l 0.0268,-0.39887 -0.24305,-0.11384 -0.24305,-0.11384 -0.30033,0.0788 c -0.37279,0.0978 -1.01173,0.39929 -1.25365,0.59159 -0.20938,0.16644 -0.2279,0.16914 -0.50035,0.073 -0.26097,-0.0921 -0.26842,-0.10742 -0.27018,-0.55621 l -0.001,-0.378 -0.0978,-0.315 -0.0978,-0.31499 -0.0802,-0.0416 c -0.0441,-0.0229 -0.17909,-0.0559 -0.29993,-0.0734 l -0.21971,-0.0319 -0.15453,0.0786 c -0.085,0.0432 -0.29429,0.18143 -0.46511,0.30715 l -0.31059,0.2286 -0.19666,0.26048 -0.19667,0.26048 -0.24121,-0.0326 c -0.13267,-0.0179 -0.27585,-0.0507 -0.31818,-0.073 l -0.077,-0.0404 -0.0559,-0.23289 -0.0559,-0.23289 -0.16257,-0.27096 c -0.0894,-0.14904 -0.22848,-0.33938 -0.30905,-0.423 l -0.14649,-0.15204 h -0.34058 -0.34058 l -0.19194,0.24283 c -0.21804,0.27584 -0.39176,0.5996 -0.439,0.81817 -0.0435,0.20121 -0.11575,0.25035 -0.41334,0.28106 l -0.25332,0.0262 -0.22166,-0.28807 c -0.23211,-0.30164 -0.67726,-0.69968 -0.92683,-0.82874 l -0.14652,-0.0758 -0.28358,0.0293 -0.28359,0.0293 -0.0605,0.0817 c -0.0333,0.045 -0.0954,0.1975 -0.1381,0.339 l -0.0776,0.25729 0.003,0.38467 0.003,0.38466 -0.0354,-0.0219 c -0.0195,-0.012 -0.0463,0.007 -0.0597,0.0415 l -0.0243,0.0633 -0.22297,0.0562 -0.22296,0.0561 -0.12017,-0.0977 c -0.26953,-0.21922 -0.70161,-0.47726 -1.03236,-0.61652 l -0.35085,-0.14773 -0.21445,-0.0214 -0.21446,-0.0214 -0.15432,0.0798 -0.15432,0.0798 0.0238,0.41785 0.0238,0.41784 0.15011,0.30492 0.15011,0.30492 -0.0545,0.0657 c -0.03,0.0361 -0.14611,0.11004 -0.25802,0.16421 l -0.20348,0.0985 -0.17867,-0.0908 c -0.26942,-0.13687 -0.90821,-0.32759 -1.36353,-0.40709 l -0.40562,-0.0708 -0.11695,0.0265 c -0.0643,0.0145 -0.18465,0.0834 -0.26739,0.15309 l -0.15044,0.12664 0.19169,0.38811 0.19169,0.38811 0.27337,0.27765 0.27337,0.27764 -0.0263,0.0686 c -0.0145,0.0377 -0.10159,0.12599 -0.19361,0.19618 l -0.16731,0.12761 -0.33151,-0.06 c -0.41081,-0.0744 -1.4407,-0.11994 -1.72984,-0.0766 l -0.2151,0.0322 -0.14056,0.11828 c -0.0773,0.065 -0.14056,0.14933 -0.14056,0.18729 v 0.069 l 0.34433,0.33989 0.34433,0.33989 0.3576,0.18336 0.35759,0.18337 0.0259,0.0806 0.0259,0.0806 -0.0786,0.1657 c -0.1048,0.22084 -0.0837,0.21385 -0.71047,0.23525 l -0.54965,0.0188 -0.49119,0.0987 c -0.27015,0.0543 -0.57884,0.13736 -0.68599,0.18458 l -0.19481,0.0859 -0.0508,0.0949 c -0.0279,0.0522 -0.0508,0.11417 -0.0508,0.13775 0,0.11377 1.19785,0.70513 1.63727,0.8083 0.14151,0.0332 0.28627,0.0864 0.32169,0.11817 l 0.0644,0.0578 -0.0316,0.21077 c -0.0384,0.25582 -0.0784,0.29107 -0.37787,0.33271 -0.52791,0.0734 -1.61504,0.49026 -1.907688,0.73149 l -0.17398,0.14341 v 0.13693 0.13693 h 0.11097 c 0.061,0 0.266278,0.0507 0.456098,0.11265 0.4865,0.1588 1.03023,0.26417 1.42242,0.27564 l 0.33568,0.01 0.0734,0.0609 0.0734,0.0609 0.0317,0.18735 0.0317,0.18735 -0.0729,0.0806 c -0.0401,0.0443 -0.15269,0.1089 -0.2502,0.14353 -0.44992,0.15981 -1.33501,0.78163 -1.58908,1.11642 l -0.15198,0.20026 0.054,0.11862 0.054,0.11861 0.0963,-0.0268 c 0.053,-0.0147 0.33224,-0.002 0.62058,0.0292 l 0.52425,0.056 0.50489,-0.0582 c 0.27769,-0.032 0.58223,-0.0697 0.67676,-0.0838 l 0.17186,-0.0255 0.12051,0.19089 c 0.0663,0.10499 0.12045,0.22815 0.12038,0.27368 l -1.3e-4,0.0828 -0.3656,0.30909 -0.3656,0.3091 -0.29483,0.39127 c -0.16216,0.2152 -0.33878,0.48173 -0.39249,0.59229 l -0.0977,0.20101 0.11815,0.11816 0.11816,0.11815 0.12853,-0.0489 c 0.0707,-0.0269 0.21962,-0.0489 0.33095,-0.0489 0.41504,0 1.76883,-0.33395 1.91762,-0.47303 0.26371,-0.24652 0.67765,0.32181 0.44674,0.61336 -0.0772,0.0975 -0.14034,0.19559 -0.14034,0.21808 0,0.0225 -0.0527,0.11848 -0.11718,0.21333 -0.13324,0.19608 -0.30817,0.66007 -0.42356,1.12344 l -0.0785,0.3152 0.14948,0.13964 0.14948,0.13964 0.12505,-0.0923 c 0.0688,-0.0508 0.26187,-0.13167 0.42911,-0.17975 0.59353,-0.17063 1.40789,-0.57369 1.60971,-0.79671 l 0.0888,-0.0982 h 0.17295 0.17295 l 0.15895,0.10785 0.15895,0.10785 -0.007,0.13774 c -0.004,0.0758 -0.05,0.30188 -0.10224,0.50249 l -0.0949,0.36474 -0.009,0.50067 c -0.005,0.27537 0.008,0.54096 0.0283,0.59021 l 0.0369,0.0895 -0.0547,-0.0338 -0.0547,-0.0338 v 0.16502 0.16502 l 0.0609,-0.0234 c 0.0335,-0.0129 0.1381,0.009 0.23239,0.0482 0.18299,0.0765 0.25611,0.0909 0.20592,0.0407 -0.017,-0.017 0.009,-0.0538 0.0572,-0.0819 0.6737,-0.38955 1.37443,-0.95159 1.64781,-1.32165 l 0.18442,-0.24963 0.15055,2.6e-4 c 0.0828,1.5e-4 0.22741,0.0216 0.32133,0.0477 l 0.17077,0.0474 0.0339,0.081 c 0.0187,0.0445 0.0365,0.26536 0.0397,0.49075 l 0.006,0.40981 -0.052,-0.0199 -0.052,-0.0199 -0.017,0.61589 c -0.0271,0.98048 -0.009,1.76111 0.0494,2.08943 l 0.0537,0.30407 0.16853,0.36282 c 0.0927,0.19956 0.17407,0.35728 0.18085,0.35051 0.009,-0.009 0.10988,-1.85377 0.12648,-2.31572 l 0.002,-0.0587 0.0847,0.0767 0.0847,0.0767 0.19886,-0.0267 0.19886,-0.0267 0.0205,-0.0614 c 0.0113,-0.0338 0.12871,-0.17723 0.26101,-0.31878 0.30215,-0.32329 0.48095,-0.55901 0.68159,-0.89861 0.16565,-0.28036 0.2291,-0.32988 0.13017,-0.10157 -0.10425,0.24057 -0.41466,0.67272 -0.73807,1.0275 l -0.31637,0.34705 -0.0288,0.40921 c -0.0159,0.22507 -0.0432,0.77609 -0.0607,1.22449 l -0.0319,0.81527 0.14698,-0.10466 c 0.0808,-0.0576 0.26467,-0.24551 0.4085,-0.41765 z m -0.48509,-5.87116 -0.43523,-0.10487 0.0362,-0.0362 0.0362,-0.0362 -0.0776,0.0298 -0.0776,0.0298 -0.27184,-0.0546 c -0.67893,-0.13631 -2.04572,-0.70875 -2.93825,-1.23059 -0.5332,-0.31174 -1.46055,-1.13859 -1.5987,-1.42543 l -0.0738,-0.15332 0.0236,-0.20892 0.0236,-0.20893 0.12646,-0.16579 c 0.24646,-0.32312 0.74931,-0.5471 2.52813,-1.12607 l 0.98236,-0.31974 0.42102,-0.001 0.42101,-10e-4 0.25729,0.12573 c 0.1415,0.0692 0.37306,0.19037 0.51457,0.26938 0.14151,0.079 0.44409,0.20955 0.67241,0.29011 l 0.41512,0.14647 0.16068,0.14108 c 0.0884,0.0776 0.20154,0.22117 0.25148,0.31906 l 0.0908,0.17799 -7.1e-4,0.17729 -7.2e-4,0.17728 -0.0454,-0.0702 c -0.0249,-0.0386 -0.0457,-0.11089 -0.0461,-0.16066 -8e-4,-0.10171 -0.17364,-0.47996 -0.23729,-0.5193 l -0.0414,-0.0256 -0.0216,0.10717 c -0.0119,0.0589 -0.0562,0.80966 -0.0986,1.66828 l -0.077,1.56111 0.13525,0.14633 c 0.0744,0.0805 0.16052,0.20585 0.19141,0.27859 l 0.0562,0.13226 0.15138,-0.12622 c 0.0833,-0.0694 0.17935,-0.17817 0.21353,-0.24165 0.0342,-0.0635 0.0739,-0.10362 0.0884,-0.0892 0.0458,0.0458 -0.22093,0.35509 -0.41986,0.48674 l -0.19161,0.1268 -0.35426,0.01 -0.35427,0.01 z m 0.80505,-0.27754 c 0.0145,-0.1608 0.0585,-0.97651 0.0977,-1.81269 0.0392,-0.83618 0.0814,-1.61105 0.0937,-1.72194 l 0.0225,-0.20161 -0.24508,-0.10741 c -0.13479,-0.0591 -0.36086,-0.14521 -0.50237,-0.19142 -0.1415,-0.0462 -0.4422,-0.18884 -0.66821,-0.31698 -0.50624,-0.28703 -0.45324,-0.38296 -0.50224,0.90915 -0.0228,0.60073 -0.0531,1.34778 -0.0675,1.6601 l -0.026,0.56786 0.10913,0.0274 c 0.06,0.0151 0.1918,0.0851 0.29284,0.15567 0.10103,0.0706 0.34157,0.20695 0.53454,0.3031 l 0.35084,0.17482 -0.10185,0.002 c -0.056,10e-4 -0.24326,-0.0716 -0.41609,-0.16163 l -0.31423,-0.16379 0.0279,0.29854 0.0279,0.29854 0.0812,0.18732 0.0812,0.18732 0.23689,0.0536 c 0.50022,0.11324 0.61506,0.13501 0.73604,0.13956 l 0.12492,0.005 z m -3.11777,-1.06268 c 0.32786,-0.10207 0.65093,-0.19643 0.71794,-0.20969 l 0.12183,-0.0241 0.0296,-0.66743 c 0.0163,-0.36708 0.0436,-1.12764 0.0607,-1.69014 l 0.0311,-1.02272 -0.1591,0.0326 c -0.66557,0.13632 -3.23847,1.05221 -3.50092,1.24625 -0.17306,0.12795 -0.28357,0.35287 -0.28357,0.57718 v 0.17068 l 0.071,0.12632 c 0.0786,0.13967 0.16944,0.2232 0.815,0.74898 1.07849,0.8784 1.30982,0.95698 2.09647,0.71209 z m 6.58385,1.17304 c -0.60491,-0.15749 -0.85311,-0.48833 -0.95961,-1.27912 -0.0286,-0.21266 -0.11389,-0.77137 -0.18945,-1.24159 -0.0755,-0.47022 -0.13737,-0.95013 -0.13737,-1.06646 v -0.21151 l 0.2222,-0.22069 0.2222,-0.22069 0.33699,-0.17612 c 0.18534,-0.0969 0.44667,-0.26974 0.58073,-0.38417 0.13406,-0.11444 0.32795,-0.26642 0.43087,-0.33774 l 0.18713,-0.12968 0.35484,-0.0155 0.35485,-0.0155 1.09356,0.19306 c 2.11884,0.37406 2.57452,0.52809 2.86476,0.96831 l 0.0875,0.13266 -0.006,0.21051 -0.006,0.2105 -0.0184,-0.11695 c -0.0423,-0.26874 -0.0708,-0.32855 -0.2481,-0.52208 l -0.18603,-0.20299 -0.001,0.062 c -6.9e-4,0.0341 -0.0439,0.41069 -0.096,0.8369 -0.10674,0.87269 -0.10371,0.89639 0.0786,0.61406 0.0721,-0.11171 0.17918,-0.24966 0.23788,-0.30657 0.0587,-0.0569 0.12815,-0.15981 0.15434,-0.22868 0.0262,-0.0689 0.0581,-0.11471 0.071,-0.10184 0.0486,0.0486 -0.0768,0.27427 -0.36231,0.65217 -0.16237,0.21492 -0.31822,0.43268 -0.34634,0.48391 -0.0281,0.0512 -0.28072,0.29663 -0.56135,0.54533 l -0.51023,0.45217 -0.77186,0.43965 -0.77185,0.43965 -0.74847,0.26407 -0.74847,0.26406 -0.2339,0.0227 c -0.12864,0.0125 -0.29704,0.006 -0.37423,-0.0138 z m 1.3566,-0.36665 0.74847,-0.2642 0.57441,-0.32507 c 0.31593,-0.17879 0.56669,-0.33281 0.55724,-0.34226 -0.10104,-0.10103 -2.40586,-0.42075 -2.68166,-0.37199 l -0.19341,0.0342 -0.27438,0.22868 c -0.15091,0.12578 -0.40636,0.31699 -0.56766,0.42491 l -0.29327,0.19623 0.0281,0.0982 c 0.10757,0.37517 0.62512,0.65631 1.11974,0.60826 l 0.2339,-0.0227 z m -1.94842,-0.68652 c 0.098,-0.0619 0.27179,-0.19349 0.38619,-0.29251 0.11441,-0.099 0.26739,-0.22328 0.33995,-0.27614 l 0.13194,-0.0961 0.13475,-1.58781 c 0.0741,-0.87329 0.13525,-1.62713 0.13585,-1.67521 l 0.001,-0.0874 -0.17542,0.13093 c -0.0965,0.072 -0.25147,0.19814 -0.34442,0.2803 -0.093,0.0822 -0.32272,0.23015 -0.51061,0.32889 l -0.34162,0.17951 -0.18317,0.18895 -0.18316,0.18896 0.0203,0.30406 c 0.0163,0.24431 0.16213,1.25859 0.34132,2.37405 0.0292,0.18177 0.0232,0.18081 0.247,0.0395 z m 4.43117,-0.71256 0.41756,-0.35726 0.14499,-1.22154 c 0.0797,-0.67185 0.1429,-1.22293 0.14034,-1.22463 -0.12073,-0.0797 -3.05954,-0.62844 -3.36599,-0.62844 h -0.1705 l -1.9e-4,0.0585 c -10e-5,0.0322 -0.0635,0.78271 -0.14092,1.66788 -0.0774,0.88517 -0.13127,1.61886 -0.11972,1.63041 0.0115,0.0115 0.17496,0.0393 0.36312,0.0616 0.18816,0.0223 0.74208,0.11293 1.23092,0.20131 0.48885,0.0884 0.93246,0.16267 0.98582,0.16507 l 0.097,0.004 z m -14.36261,-3.03534 c -0.22698,-0.0869 -0.38171,-0.22677 -0.49485,-0.44734 l -0.0861,-0.16776 -0.0327,-0.62986 -0.0327,-0.62985 0.10746,-0.58238 0.10746,-0.58237 0.29029,-0.60813 0.2903,-0.60813 0.38335,-0.49118 c 0.21084,-0.27015 0.43992,-0.53255 0.50906,-0.58311 0.0692,-0.0506 0.13624,-0.10499 0.14911,-0.12098 0.0129,-0.016 0.0949,-0.0536 0.1824,-0.0835 l 0.15901,-0.0544 h 0.32198 0.32198 l 0.16023,0.067 c 0.2972,0.12418 2.18881,1.637 2.48085,1.98406 l 0.11589,0.13773 v 0.25641 0.25641 l -0.12356,0.2748 -0.12356,0.2748 -0.0606,0.36742 -0.0606,0.36742 -0.12014,0.18156 -0.12015,0.18155 -0.22199,0.11116 c -0.12209,0.0611 -0.63247,0.24199 -1.13418,0.4019 -0.50171,0.15991 -1.18585,0.39612 -1.52033,0.52492 l -0.60813,0.23418 -0.32745,0.0193 -0.32746,0.0193 z m 1.42469,-0.28876 c 0.32161,-0.12521 0.91389,-0.33058 1.31618,-0.45638 l 0.73144,-0.22873 -0.38494,-0.36438 c -0.21172,-0.20041 -0.48824,-0.4499 -0.61449,-0.55442 l -0.22955,-0.19004 -0.24612,-0.0778 -0.24611,-0.0778 -0.24027,0.0616 c -0.13215,0.0339 -0.31278,0.11078 -0.40141,0.17093 l -0.16113,0.10935 -0.35335,0.4576 -0.35335,0.45761 -0.1803,0.38677 c -0.21771,0.46701 -0.21692,0.45264 -0.0283,0.51691 l 0.15203,0.0518 0.32746,-0.0177 0.32745,-0.0177 z m -1.45672,-0.30658 0.17976,-0.38593 0.3986,-0.51457 c 0.47078,-0.60775 0.55209,-0.68615 0.7778,-0.74996 l 0.17073,-0.0483 0.0123,-1.57732 c 0.007,-0.86752 -0.002,-1.57731 -0.0187,-1.57731 -0.0171,0 -0.13839,0.0539 -0.2696,0.11971 l -0.23856,0.1197 -0.36862,0.47673 -0.36862,0.47673 -0.2904,0.60813 -0.2904,0.60813 -0.10746,0.58237 -0.10747,0.58238 0.0325,0.62605 0.0325,0.62605 0.0531,0.12479 c 0.0508,0.11955 0.17168,0.28851 0.20634,0.28851 0.009,0 0.0974,-0.17367 0.1963,-0.38593 z m 4.05801,-0.59134 0.28571,-0.13517 0.0969,-0.20394 0.0969,-0.20395 0.0334,-0.27959 0.0334,-0.27959 0.13877,-0.30515 0.13876,-0.30515 0.002,-0.24716 0.002,-0.24716 -0.11194,-0.12153 c -0.34442,-0.37395 -1.89411,-1.61676 -2.2287,-1.78737 l -0.19881,-0.10137 -5.2e-4,1.43941 c -2.8e-4,0.79168 -0.0126,1.51309 -0.0273,1.60314 l -0.0268,0.16373 0.13256,0.0781 c 0.0729,0.0429 0.3721,0.3008 0.66489,0.57304 l 0.53234,0.49499 0.0758,-4e-5 c 0.0417,-2e-5 0.20436,-0.0609 0.3615,-0.1352 z m -1.8107,-2.74838 0.005,-1.50362 -0.074,-0.0284 c -0.0407,-0.0156 -0.17753,-0.0284 -0.30407,-0.0284 H 106.285 v 1.59049 1.5905 l 0.17542,0.003 c 0.0965,0.002 0.21753,0.02 0.26898,0.0403 l 0.0936,0.0371 0.0304,-0.0988 c 0.0167,-0.0543 0.0325,-0.77545 0.0351,-1.60245 z m 5.17377,3.75413 c -0.12864,-0.0314 -0.34968,-0.11104 -0.49118,-0.17695 l -0.25729,-0.11984 -0.27462,-0.27096 -0.27462,-0.27095 -0.0869,-0.19133 -0.0869,-0.19133 0.006,-0.42101 0.006,-0.42101 0.0323,0.39762 0.0323,0.39762 0.0988,0.22276 0.0988,0.22275 0.0726,0.0278 c 0.0399,0.0153 0.0732,0.0519 0.074,0.0813 0.003,0.0922 0.91296,0.62818 0.97002,0.57111 0.0257,-0.0257 0.14849,-2.37875 0.12603,-2.41511 -0.0114,-0.0184 -0.0788,-0.0476 -0.1498,-0.0649 -0.071,-0.0173 -0.20758,-0.0828 -0.30351,-0.14552 -0.0959,-0.0628 -0.19592,-0.1141 -0.2222,-0.1141 -0.0263,0 -0.0478,-0.0175 -0.0478,-0.0389 0,-0.0214 -0.0526,-0.067 -0.11695,-0.10147 -0.0643,-0.0344 -0.11695,-0.0827 -0.11695,-0.10719 v -0.0446 l 0.0713,0.0592 c 0.15955,0.13241 0.0985,0.006 -0.0804,-0.16652 l -0.19217,-0.18526 0.0539,0.10218 c 0.0769,0.14592 0.0666,0.19408 -0.0163,0.0758 l -0.0702,-0.10017 0.0244,-0.0636 0.0244,-0.0636 -0.075,-0.0922 -0.075,-0.0922 0.0267,0.0843 0.0267,0.0843 -0.0462,-0.0286 c -0.0537,-0.0332 -0.0632,-0.21076 -0.0112,-0.20897 0.0193,6.6e-4 0.10589,0.10559 0.19243,0.23316 l 0.15733,0.23196 0.31046,0.20359 0.31045,0.20358 0.32746,0.089 0.32745,0.089 0.37424,5.2e-4 c 0.20583,2.9e-4 0.45843,-0.009 0.56135,-0.0206 l 0.18712,-0.0211 -0.0117,0.0562 c -0.0145,0.0695 0.0271,0.0704 0.21522,0.005 l 0.14732,-0.0513 v -0.061 c 0,-0.0335 0.0684,-0.10482 0.15203,-0.15837 0.16774,-0.10742 0.15195,-0.12886 -0.0329,-0.0447 -0.0655,0.0299 -0.11915,0.0732 -0.11915,0.0963 v 0.042 l -0.0457,-0.0283 c -0.0252,-0.0155 -0.15529,0.004 -0.28917,0.044 l -0.24342,0.0723 h -0.36284 -0.36283 l 7.8e-4,-0.0819 c 4.3e-4,-0.045 -0.0207,-0.16607 -0.047,-0.26899 -0.0263,-0.10291 -0.0596,-0.24347 -0.0739,-0.31235 l -0.0261,-0.12523 -0.14749,-0.0736 c -0.19129,-0.0954 -0.26779,-0.0928 -0.58876,0.02 -0.1464,0.0515 -0.33022,0.0936 -0.40849,0.0936 h -0.1423 l -0.13393,-0.22174 -0.13394,-0.22174 0.0655,-0.11741 0.0655,-0.11741 0.34946,-0.12211 0.34946,-0.12211 0.0161,-0.13518 0.0161,-0.13517 -0.24945,-0.22028 -0.24945,-0.22028 -0.13056,0.12508 c -0.13982,0.13396 -0.36077,0.55886 -0.36322,0.69851 -8.2e-4,0.0466 -0.0298,0.12207 -0.0644,0.16766 l -0.0629,0.0829 -0.11103,-0.0438 c -0.0611,-0.0241 -0.40574,-0.29067 -0.76594,-0.59239 -0.3602,-0.30172 -0.76967,-0.63507 -0.90992,-0.74078 -0.14026,-0.10572 -0.35603,-0.28481 -0.47949,-0.39799 l -0.22448,-0.20578 0.002,-0.26201 0.002,-0.26201 0.10357,-0.12157 c 0.16234,-0.19055 0.42651,-0.30997 1.13271,-0.51207 l 0.65491,-0.18741 0.86542,-0.1206 0.86541,-0.12061 0.86542,0.0287 0.86542,0.0288 0.72508,0.11091 c 0.39879,0.061 0.79875,0.14175 0.8888,0.17946 l 0.16373,0.0686 0.17542,0.1944 0.17542,0.1944 -2.4e-4,0.17529 -2.5e-4,0.17529 -0.0816,0.12578 c -0.12477,0.1923 -0.90863,1.20708 -0.9541,1.23518 l -0.0401,0.0248 0.11161,0.14915 c 0.0614,0.082 0.14964,0.22284 0.19611,0.31289 l 0.0845,0.16373 0.003,0.44813 0.003,0.44814 -0.20222,0.2623 c -0.3483,0.45176 -0.98605,0.82775 -1.4083,0.83026 -0.0662,3.9e-4 -0.14714,0.0177 -0.17994,0.0386 l -0.0596,0.0379 -0.068,1.04905 c -0.0374,0.57698 -0.0685,1.11695 -0.069,1.19992 l -9.8e-4,0.15087 0.15203,-0.0265 c 0.24213,-0.0422 0.60206,-0.16232 0.8333,-0.27805 l 0.21347,-0.10685 0.17209,-0.19048 c 0.0947,-0.10476 0.21705,-0.28614 0.27201,-0.40306 0.11913,-0.25343 0.14855,-0.25393 0.0728,-0.001 l -0.055,0.18346 -0.24027,0.2605 -0.24026,0.2605 -0.2977,0.1515 -0.29769,0.1515 -0.25198,0.0473 c -0.33249,0.0624 -0.95279,0.0536 -1.24496,-0.0178 z m 0.81962,-0.18052 c 0.007,-1.07324 0.15319,-2.35788 0.27198,-2.38935 0.0428,-0.0113 -0.0537,-0.0231 -0.21449,-0.026 l -0.29237,-0.005 v 0.0628 0.0628 l -0.21051,-0.032 c -0.11578,-0.0176 -0.21096,-0.03 -0.21152,-0.0277 -5.6e-4,0.002 -0.0312,0.54094 -0.0681,1.19686 l -0.0671,1.19258 0.033,0.0314 c 0.0466,0.0443 0.22666,0.0723 0.51253,0.0797 l 0.24559,0.006 z m -2.21945,-4.18674 c 0.0158,-0.0708 0.0618,-0.21968 0.10214,-0.33095 l 0.0734,-0.2023 0.19838,-0.22065 c 0.10911,-0.12136 0.2717,-0.26014 0.36132,-0.3084 l 0.16294,-0.0877 0.0294,-0.63539 c 0.0162,-0.34946 0.0418,-0.79853 0.0569,-0.99793 l 0.0274,-0.36254 h -0.0921 c -0.0507,0 -0.39494,0.0415 -0.76504,0.0923 l -0.6729,0.0923 -0.65491,0.1882 c -0.3602,0.10351 -0.73911,0.22149 -0.84203,0.26219 l -0.18711,0.074 -0.12865,0.13958 -0.12864,0.13959 v 0.18506 0.18505 l 0.16774,0.16291 c 0.18111,0.17587 0.23118,0.19514 0.2714,0.10442 l 0.0259,-0.0585 -0.0103,0.0766 -0.0103,0.0766 0.28068,0.20835 c 0.15437,0.1146 0.58591,0.46391 0.95897,0.77626 0.75309,0.63052 0.73533,0.62042 0.77541,0.44089 z m 3.95414,-0.99701 0.0807,-0.114 0.0511,-0.72508 c 0.0281,-0.39879 0.051,-0.81016 0.0508,-0.91416 l -3.3e-4,-0.18908 -0.71339,-0.10372 -0.71338,-0.10372 -0.80141,-0.0301 -0.80141,-0.0301 -0.028,0.41647 c -0.0154,0.22906 -0.0415,0.67756 -0.0579,0.99667 l -0.0299,0.5802 0.0875,-0.0351 c 0.0481,-0.0193 0.19272,-0.0679 0.32136,-0.10789 l 0.2339,-0.0728 0.44604,0.002 0.44605,0.002 0.29066,0.0745 c 0.3304,0.0846 0.62645,0.22452 0.82295,0.38883 0.15439,0.1291 0.20253,0.12379 0.31471,-0.0347 z m 4.95376,4.51108 c -0.24442,-0.0621 -0.98119,-0.20868 -1.63727,-0.32575 l -1.19287,-0.21285 -0.18765,-0.0826 c -0.1032,-0.0454 -0.25384,-0.14884 -0.33475,-0.22974 l -0.1471,-0.14711 -0.19088,-0.38673 c -0.10498,-0.2127 -0.29642,-0.51949 -0.42541,-0.68175 -0.129,-0.16226 -0.23454,-0.33029 -0.23454,-0.3734 v -0.0784 l 0.12464,0.18628 c 0.0686,0.10246 0.20595,0.28461 0.30532,0.40478 0.0994,0.12017 0.24277,0.35544 0.31867,0.52283 0.0759,0.16738 0.15696,0.31606 0.18015,0.33039 l 0.0422,0.0261 0.13094,-0.19804 c 0.22511,-0.34046 0.46675,-0.62635 0.51564,-0.61005 0.0258,0.009 0.0835,-0.0111 0.12818,-0.0438 l 0.0813,-0.0594 0.13842,-1.49662 c 0.17307,-1.87126 0.17508,-1.78932 -0.0387,-1.57556 -0.0466,0.0466 -0.10781,0.0771 -0.13594,0.0677 l -0.0512,-0.0171 -0.32552,0.38836 c -0.41276,0.49245 -1.27376,1.61955 -1.27376,1.66743 0,0.0199 -0.0319,0.0771 -0.0709,0.12707 l -0.0709,0.0908 0.0309,-0.13537 0.0309,-0.13536 0.51194,-0.67081 c 0.28157,-0.36894 0.65218,-0.83276 0.82357,-1.03071 l 0.31163,-0.3599 0.21051,-0.10734 0.21051,-0.10734 0.23539,-0.001 c 0.12947,-7.3e-4 0.3407,0.026 0.4694,0.0594 l 0.234,0.0607 0.62992,0.5207 0.62991,0.52071 0.42727,0.5296 0.42727,0.52961 0.28611,0.57232 c 0.15737,0.31478 0.28535,0.58844 0.2844,0.60813 -9.4e-4,0.0197 -0.13251,-0.21774 -0.29237,-0.52763 l -0.29065,-0.56344 -0.43602,-0.53587 -0.43602,-0.53588 -0.40601,-0.34405 c -0.2233,-0.18923 -0.51869,-0.41756 -0.65643,-0.5074 l -0.25042,-0.16336 -0.0351,0.0396 c -0.0193,0.0218 -0.0915,0.63955 -0.16044,1.37282 -0.0689,0.73326 -0.13705,1.41933 -0.15138,1.5246 l -0.026,0.1914 0.1512,0.0626 c 0.0832,0.0344 0.39262,0.27013 0.68769,0.52374 l 0.53649,0.46111 0.29887,0.37017 c 0.16438,0.2036 0.29888,0.38964 0.29888,0.41342 0,0.0238 0.0632,0.0559 0.14034,0.0713 0.0772,0.0154 0.14033,0.0497 0.14033,0.076 0,0.0585 0.0264,0.0624 -0.51457,-0.0751 z m -0.0738,-0.2863 c -0.0982,-0.12221 -0.22466,-0.27885 -0.28097,-0.34809 -0.17718,-0.21788 -1.11485,-1.00435 -1.32565,-1.1119 l -0.20178,-0.10293 -0.27223,10e-4 -0.27223,0.001 -0.17837,0.0948 c -0.24501,0.13023 -0.39346,0.27216 -0.59014,0.56422 l -0.16759,0.24885 0.11153,0.0877 c 0.20401,0.16048 0.41699,0.21749 1.61636,0.43267 0.96339,0.17285 1.48837,0.27925 1.72234,0.34909 0.01,0.003 -0.063,-0.0948 -0.16127,-0.21703 z m -1.74788,-1.69283 c 0.19988,-1.92011 0.30439,-3.07465 0.28077,-3.10176 -0.0167,-0.0191 -0.16097,-0.0484 -0.32064,-0.0651 l -0.29033,-0.0303 v 0.1003 c 0,0.10833 -0.21362,2.49695 -0.25814,2.88644 l -0.0271,0.23682 h 0.30633 c 0.16849,0 0.30757,-0.0118 0.30908,-0.0263 z m -0.0358,13.76965 0.21746,-0.0741 0.0244,-0.1481 c 0.053,-0.32199 0.22228,-1.88643 0.21695,-2.00451 -0.003,-0.0691 0.0156,-0.13872 0.0416,-0.1548 0.026,-0.0161 0.0473,-0.0471 0.0473,-0.0689 v -0.0397 l -0.2353,0.0752 -0.2353,0.0752 0.0233,0.0608 c 0.0362,0.0944 0.007,0.0756 -0.21368,-0.13802 -0.11302,-0.10935 -0.33652,-0.29108 -0.49668,-0.40386 -0.16015,-0.11277 -0.46678,-0.38719 -0.68139,-0.60981 l -0.3902,-0.40477 -0.0494,0.10463 -0.0494,0.10464 0.0233,0.20671 0.0233,0.20671 -0.0498,0.0308 -0.0498,0.0308 0.0268,0.22627 0.0268,0.22627 -0.0502,0.031 -0.0502,0.031 0.0268,0.22627 0.0268,0.22627 -0.0514,0.0317 -0.0514,0.0317 0.0285,0.20782 0.0285,0.20782 -0.0516,0.0622 -0.0516,0.0622 0.0377,0.23841 0.0377,0.2384 0.11289,0.13409 c 0.24833,0.29495 0.77425,0.70235 1.18845,0.92062 0.27323,0.14398 0.31088,0.14706 0.59878,0.049 z m -9.81884,-0.46254 c 1.15331,-0.65724 1.18519,-0.71469 1.22085,-2.19996 0.0148,-0.61748 0.0384,-1.20036 0.0524,-1.29529 l 0.0254,-0.17259 -0.38956,0.38648 -0.38956,0.38648 -0.47086,0.30887 c -0.25897,0.16989 -0.49376,0.33677 -0.52176,0.37086 l -0.0509,0.062 -0.0342,1.18118 -0.0342,1.18118 h 0.11271 0.11272 z m 12.72936,-0.97715 c 0.0144,-0.0808 0.0884,-0.60945 0.16443,-1.17481 l 0.13824,-1.02793 -0.058,-0.0564 c -0.0319,-0.031 -0.22642,-0.12255 -0.43225,-0.20335 -0.53108,-0.20848 -1.10696,-0.52271 -1.38017,-0.75308 -0.12883,-0.10863 -0.24115,-0.18885 -0.2496,-0.17828 -0.014,0.0176 -0.31512,2.63857 -0.31265,2.72176 0.006,0.19515 1.73655,0.91505 2.02104,0.84066 l 0.0828,-0.0217 z m -15.36747,-0.52582 c 0.27015,-0.0881 0.61748,-0.2284 0.77185,-0.31167 l 0.28068,-0.15142 0.0296,-0.30406 c 0.0163,-0.16724 0.0321,-0.80388 0.0351,-1.41477 l 0.005,-1.1107 -0.20259,0.15464 c -0.2209,0.16862 -0.82712,0.47283 -1.27096,0.63779 -0.15437,0.0574 -0.38927,0.1585 -0.522,0.22473 l -0.24133,0.12042 -0.14819,-0.12469 c -0.0815,-0.0686 -0.16762,-0.1247 -0.19138,-0.1247 h -0.0432 l 8e-4,-0.15203 c 10e-4,-0.20212 0.14397,-0.73529 0.29681,-1.10738 l 0.1234,-0.30043 v -0.45973 c 0,-0.25285 -0.005,-0.45958 -0.0117,-0.4594 -0.006,1.8e-4 -0.16524,0.0524 -0.3529,0.11612 -0.40922,0.13889 -1.20948,0.30456 -1.47112,0.30456 -0.10358,0 -0.27114,0.0248 -0.37235,0.0551 l -0.18402,0.0551 0.0282,0.98571 c 0.0155,0.54213 0.0392,1.09409 0.0527,1.22656 l 0.0245,0.24086 0.10248,0.0275 c 0.23638,0.0634 1.12778,0.0145 1.70467,-0.0935 l 0.15203,-0.0285 6.4e-4,0.88232 c 3.5e-4,0.48527 0.0121,0.92485 0.026,0.97683 l 0.0254,0.0945 0.21956,0.12835 0.21955,0.12834 0.21051,-0.0281 c 0.11578,-0.0155 0.43154,-0.10024 0.70169,-0.18839 z m 17.74484,-1.28236 c 0.0372,-0.0335 0.41524,-2.39097 0.3878,-2.41841 -0.0135,-0.0135 -0.30876,-0.0811 -0.98804,-0.22629 -0.31638,-0.0676 -0.8653,-0.24286 -1.15216,-0.3678 l -0.0762,-0.0332 -0.0601,0.47175 -0.0601,0.47176 0.12304,0.36142 c 0.0677,0.19878 0.14613,0.49513 0.17436,0.65857 l 0.0513,0.29714 -0.0835,0.0922 -0.0835,0.0923 0.0689,-0.0152 0.0688,-0.0152 -0.0152,0.26303 -0.0152,0.26302 0.31055,0.0586 c 0.63834,0.12045 1.24383,0.1412 1.34922,0.0462 z m 1.37244,-2.29534 c 0.0816,-0.0263 0.16913,-0.073 0.1946,-0.10386 0.0464,-0.0562 0.4474,-2.36617 0.43878,-2.52752 -0.003,-0.0471 0.0157,-0.13896 0.0404,-0.20405 l 0.045,-0.11835 0.084,0.022 0.084,0.022 0.18197,-1.11432 c 0.21299,-1.30426 0.2492,-1.18988 -0.33047,-1.044 -0.25607,0.0644 -0.61293,0.1297 -0.79303,0.145 -0.1801,0.0153 -0.34922,0.0448 -0.37581,0.0656 l -0.0483,0.0378 -0.0686,-0.0434 c -0.0377,-0.0239 -0.13455,-0.0437 -0.21517,-0.0441 l -0.14658,-7.1e-4 -0.0282,0.10525 c -0.0155,0.0579 -0.0285,0.16272 -0.0288,0.23295 l -6.4e-4,0.12769 0.19777,0.10089 c 0.19932,0.10169 0.51279,0.29743 0.64366,0.40192 0.0389,0.0311 0.1448,0.11528 0.23528,0.18712 0.0905,0.0718 0.26615,0.24019 0.39038,0.37411 l 0.22587,0.24351 -0.078,0.23493 -0.078,0.23493 0.0333,0.0539 0.0333,0.0539 -0.95377,-0.0258 -0.95376,-0.0257 -0.17062,-0.0444 -0.17062,-0.0444 -0.0315,0.29446 -0.0315,0.29447 0.28515,0.3396 c 0.38245,0.45549 0.61486,0.81187 0.71369,1.09435 l 0.0818,0.2339 -0.0264,0.2105 c -0.0145,0.11578 -0.0355,0.24423 -0.0468,0.28544 l -0.0204,0.0749 0.26993,-0.0412 c 0.14847,-0.0227 0.33667,-0.0627 0.41823,-0.089 z m -22.93657,-0.83248 -0.0287,-0.27493 0.11564,-0.25134 c 0.12468,-0.271 0.59276,-0.91411 0.82771,-1.13721 l 0.1447,-0.13739 v -0.33635 -0.33635 l -0.2222,0.0236 c -0.12221,0.013 -0.30427,0.0369 -0.40457,0.0532 l -0.18236,0.0296 -0.49593,-0.0379 c -0.27277,-0.0209 -0.5742,-0.0417 -0.66986,-0.0464 l -0.17391,-0.009 -0.0451,0.0459 -0.0451,0.046 0.0519,1.16047 0.0519,1.16047 0.12534,0.0892 c 0.1351,0.0962 0.58272,0.21925 0.82813,0.22766 l 0.15131,0.005 z m -1.41999,-2.68855 v -0.1567 l 0.13918,-0.19214 c 0.15253,-0.21055 0.45299,-0.46187 0.91672,-0.76675 l 0.3007,-0.1977 v -0.36431 -0.36431 h -0.0955 c -0.16325,0 -0.80014,-0.14354 -1.16434,-0.26242 l -0.347668,-0.11348 -0.0379,0.0379 -0.0379,0.0379 0.0523,1.14412 0.0523,1.14412 0.0654,0.10525 c 0.036,0.0579 0.0859,0.10525 0.11108,0.10525 h 0.0457 z"
       id="path3-3" /><path
       style="fill:#d4aa00;stroke:#1a1a1a;stroke-width:0.264583"
       d="m 73.448003,514.25394 c -0.629618,-0.2386 -1.691233,-1.02678 -2.217624,-1.64643 -1.909469,-2.24779 -2.685967,-3.19468 -3.486988,-4.25215 -0.510658,-0.67416 -1.043629,-1.36306 -1.184379,-1.5309 l -0.255909,-0.30516 -0.376131,0.19604 c -0.212458,0.1107 -0.662963,0.2267 -1.035289,0.26649 l -0.659158,0.0704 -0.169555,0.2094 c -0.09326,0.11521 -0.18712,0.29633 -0.208587,0.40257 -0.637096,3.15345 -1.594242,4.92556 -3.064169,5.67318 l -0.578944,0.29446 -0.721084,0.0992 c -3.262902,0.44913 -7.559456,-2.01643 -8.865117,-5.0872 l -0.28449,-0.66909 v -0.71071 -0.71073 l 0.17298,-0.40355 c 0.680162,-1.58675 3.013754,-2.2667 8.969918,-2.61363 0.900643,-0.0525 1.842225,-0.13672 2.092405,-0.18724 l 0.45487,-0.0918 0.250179,-0.35261 c 0.32713,-0.46108 0.400387,-0.3203 -0.844288,-1.62243 -1.191517,-1.24651 -1.54342,-1.77048 -1.763746,-2.62614 -0.85211,-3.30925 2.931992,-7.66486 7.230876,-8.32294 l 0.703796,-0.10769 0.43485,0.12177 0.434849,0.12176 0.343892,0.34391 0.343894,0.34389 0.143459,0.49349 0.143461,0.49348 -0.09933,0.62176 c -0.159469,0.99824 -1.202586,3.79264 -2.634839,7.05845 -0.256569,0.58503 -0.489277,1.20411 -0.517128,1.37573 l -0.05063,0.31205 0.363559,0.60279 c 0.199956,0.33154 0.389916,0.77685 0.422132,0.98959 0.03221,0.21275 0.151864,0.55058 0.265885,0.75071 l 0.207311,0.3639 0.358546,-0.0286 c 0.197198,-0.0157 0.70652,-0.12778 1.131824,-0.2491 2.968627,-0.84639 4.589472,-0.85683 5.955115,-0.0384 0.969241,0.5809 1.952115,2.07686 2.385105,3.6302 l 0.217345,0.77972 0.05393,1.0462 0.05393,1.0462 -0.140938,0.74013 c -0.289769,1.5217 -0.986463,2.7141 -1.822153,3.11865 l -0.391594,0.18957 -0.630841,-0.004 -0.630839,-0.004 z m 1.589635,-0.0778 c -0.04839,-0.0783 0.507451,-0.29466 0.577381,-0.22473 0.07901,0.079 0.289746,-0.15189 0.22874,-0.2506 -0.03221,-0.0521 -0.01502,-0.0678 0.0382,-0.035 0.240411,0.14858 0.895678,-0.96413 1.170486,-1.98762 l 0.170986,-0.63682 -0.0071,-1.31912 -0.0071,-1.31913 -0.191058,-0.68231 c -0.697111,-2.48951 -2.011211,-3.87072 -3.96863,-4.17132 l -0.62604,-0.0961 -0.73948,0.12887 c -1.034304,0.18037 -1.876626,0.36841 -2.830068,0.63178 -0.450322,0.12437 -0.968875,0.2274 -1.152338,0.22891 -0.183466,10e-4 -0.351222,0.0539 -0.372795,0.11644 l -0.03922,0.11371 -0.255109,-0.28834 -0.255108,-0.28833 -0.108266,0.10823 c -0.05955,0.0596 -0.157111,0.19954 -0.216809,0.31108 -0.0597,0.11152 -0.169736,0.20281 -0.244527,0.20281 h -0.135982 l 0.182456,-0.25018 c 0.100353,-0.13759 0.247636,-0.50764 0.327301,-0.82231 l 0.144847,-0.57214 -0.148344,-0.38308 c -0.08159,-0.21072 -0.252611,-0.50591 -0.380049,-0.65603 -0.12744,-0.1501 -0.200182,-0.21151 -0.16165,-0.13639 0.03853,0.075 0.03537,0.10496 -0.007,0.0664 -0.04239,-0.0385 -0.08306,-0.14089 -0.09036,-0.22744 -0.0072,-0.0865 -0.04567,-0.25969 -0.08527,-0.38478 -0.03959,-0.12505 -0.03924,-0.19636 7.98e-4,-0.15838 0.07086,0.0672 0.340262,-0.57319 0.27048,-0.64297 -0.01927,-0.0193 -0.118038,0.12765 -0.219461,0.32644 -0.221531,0.43424 -0.30423,0.47155 -1.239663,0.55918 l -0.729084,0.0683 -0.388395,0.24518 c -0.360651,0.22767 -0.521257,0.4166 -1.046692,1.23123 -0.197636,0.30642 -0.300209,0.38735 -0.654735,0.51662 l -0.181948,0.0663 0.272922,0.0582 c 0.150106,0.032 -0.607252,0.087 -1.683021,0.12231 -6.108498,0.20024 -8.675811,0.86139 -9.509007,2.44883 l -0.225223,0.4291 v 0.53384 c 0,0.56745 0.527072,2.3974 0.543078,1.88552 0.0015,-0.0487 0.06654,0.003 0.144498,0.11384 0.07795,0.11125 0.112571,0.24954 0.07691,0.30723 -0.03564,0.0577 -0.02616,0.081 0.02107,0.0518 0.04724,-0.0292 0.248023,0.13768 0.446182,0.37083 1.312109,1.54383 3.206238,2.78243 5.011149,3.27685 0.354979,0.0973 0.562784,0.19325 0.486291,0.22467 -0.07347,0.0302 0.05065,0.0359 0.27581,0.0123 l 0.409384,-0.0421 -0.181948,0.0794 -0.181948,0.0794 1.137176,-0.0191 c 1.862497,-0.0313 2.922995,-0.63782 3.659047,-2.09279 0.07593,-0.15011 0.220238,-0.43667 0.320666,-0.63682 0.253426,-0.50504 0.451323,-1.14162 0.755559,-2.43037 l 0.260889,-1.10515 0.182489,-0.18249 0.18249,-0.18249 0.645244,-0.0689 c 0.708781,-0.0757 1.31533,-0.32098 1.320075,-0.53377 0.0048,-0.21358 -0.143344,-0.26577 -0.621255,-0.21894 l -0.442678,0.0433 0.05821,-0.0942 c 0.03201,-0.0518 0.170411,-0.0942 0.307558,-0.0942 0.137147,0 0.296015,-0.0466 0.353039,-0.10373 l 0.103674,-0.10373 0.286115,0.24075 c 0.157362,0.13243 0.329911,0.21369 0.38344,0.18061 0.05831,-0.0361 0.07072,-0.0171 0.03095,0.0473 -0.03883,0.0629 0.106175,0.32356 0.349309,0.62813 0.228626,0.28641 0.677441,0.85624 0.997367,1.26629 0.319926,0.41006 0.613297,0.71709 0.651935,0.68231 0.03864,-0.0349 0.04522,-0.0193 0.01464,0.0346 -0.0819,0.14407 1.559219,2.13883 2.555812,3.10654 0.217586,0.21129 0.369101,0.42705 0.336698,0.47948 -0.06388,0.10332 0.317113,0.60041 0.626579,0.81745 0.105889,0.0742 0.02914,-0.0683 -0.171351,-0.31841 l -0.363151,-0.45292 0.408638,0.3673 c 0.224751,0.20202 0.541688,0.46558 0.704304,0.5857 0.162616,0.12013 0.295666,0.26852 0.295666,0.32978 0,0.18255 1.064383,0.53571 1.647568,0.54668 0.291924,0.005 0.511484,-0.0212 0.487912,-0.0593 z m -11.226742,-9.98477 -0.291428,-0.25445 -0.05106,-0.38067 c -0.192279,-1.43353 2.033968,-1.92945 2.299828,-0.5123 0.03071,0.16366 0.1132,0.31958 0.183341,0.3465 0.321223,0.12327 -0.03842,0.78573 -0.451154,0.83104 -0.11961,0.0137 -0.301753,0.069 -0.404754,0.12409 -0.103005,0.0551 -0.368641,0.10018 -0.590311,0.10018 h -0.403034 z m -0.03022,-2.808 c 0.177543,-0.0742 0.547303,-0.12587 0.831463,-0.1163 0.281453,0.01 0.617524,-0.0109 0.746826,-0.0457 l 0.235092,-0.0629 0.42775,-0.83544 c 0.235261,-0.45948 0.536189,-1.04012 0.668728,-1.2903 0.650065,-1.22705 1.640278,-3.6674 2.10412,-5.18552 0.481481,-1.57586 0.482631,-1.9017 0.0093,-2.61641 l -0.274016,-0.41368 -0.362975,-0.14524 c -2.328254,-0.93158 -7.060344,2.35513 -8.186929,5.6863 -0.581048,1.71808 -0.137647,2.92688 1.795462,4.89478 l 0.929851,0.94657 0.377829,-0.34135 c 0.207807,-0.18774 0.52171,-0.40146 0.697562,-0.47493 z"
       id="path4-5" /><path
       style="fill:#786721;stroke:#1a1a1a;stroke-width:0.264583"
       d="m 29.740181,513.33875 c -0.703619,-0.14599 -1.350512,-0.34204 -1.437539,-0.43565 -0.08703,-0.0936 -0.174995,-0.90912 -0.195483,-1.81224 -0.02804,-1.23588 0.09999,-1.78762 0.517605,-2.23069 0.389605,-0.41334 0.520824,-0.90222 0.440592,-1.64151 -0.06285,-0.57906 0.02314,-1.11449 0.191084,-1.18983 0.197006,-0.0884 0.189126,-0.14579 -0.02221,-0.16177 -0.180156,-0.0136 -1.745122,-1.53675 -3.477701,-3.38476 -1.73258,-1.848 -3.20323,-3.1887 -3.268112,-2.97932 -0.06488,0.20938 -0.36942,0.3807 -0.676753,0.3807 -0.307332,0 -0.821173,-0.28226 -1.141867,-0.62722 -0.402823,-0.43333 -0.583082,-1.04538 -0.583082,-1.97981 0,-1.07256 0.169284,-1.52705 0.817689,-2.19528 0.44973,-0.46349 0.948264,-0.8427 1.107855,-0.8427 0.159591,0 0.433422,-0.15412 0.608514,-0.34245 0.230105,-0.24754 -0.0026,-0.86225 -0.83953,-2.21765 -0.64,-1.03649 -1.083791,-2.08288 -0.992232,-2.33954 0.09327,-0.26147 0.03972,-0.38064 -0.122554,-0.27275 -0.158511,0.10536 -0.288201,0.11744 -0.288201,0.0269 0,-0.0906 0.217731,-0.65582 0.483847,-1.25613 0.478052,-1.07837 0.473687,-1.10522 -0.364427,-2.2415 -0.466549,-0.63254 -0.965986,-1.32389 -1.109858,-1.53636 -0.143873,-0.21245 -0.173334,-0.76454 -0.06547,-1.22684 0.10786,-0.4623 0.467746,-1.13274 0.799737,-1.48986 0.46103,-0.49594 0.855282,-0.6137 1.668944,-0.49853 0.585927,0.0829 1.978018,0.52812 3.093536,0.98929 1.988059,0.82188 2.050196,0.82782 3.138462,0.29993 1.110249,-0.53855 1.110249,-0.53855 2.490667,0.50438 0.75923,0.57361 1.907931,1.49627 2.55267,2.05036 0.644739,0.55408 1.711985,1.98081 2.371658,3.17049 0.659674,1.18968 1.435921,3.07665 1.724991,4.19324 0.310394,1.19896 0.496911,2.83269 0.455552,3.99025 l -0.07003,1.96008 h 1.171217 c 0.859568,0 1.251522,0.16141 1.473015,0.6066 0.165989,0.33364 0.301798,1.67886 0.301798,2.98939 0,1.44178 0.178293,2.8418 0.451474,3.54512 0.24831,0.63927 0.377004,1.48149 0.285986,1.8716 -0.09102,0.39009 -0.04885,0.70926 0.09369,0.70926 0.142549,0 0.325948,0.63721 0.407554,1.41604 0.101635,0.96995 0.391711,1.67779 0.92082,2.24696 0.424845,0.457 0.72772,0.97525 0.673057,1.15166 -0.05467,0.1764 -0.460286,0.45015 -0.901382,0.6083 -0.641276,0.22995 -0.888949,0.17103 -1.235922,-0.294 -0.412797,-0.55327 -0.425238,-0.54755 -0.255454,0.11719 0.178477,0.69872 0.178477,0.69872 -4.868211,0.66642 -2.775677,-0.0177 -5.622375,-0.15176 -6.325995,-0.29776 z m 10.754381,-1.38101 c 0,-0.0862 -0.0656,-0.15681 -0.14577,-0.15681 -0.08017,0 -0.145771,0.0706 -0.145771,0.15681 0,0.0862 0.0656,0.15681 0.145771,0.15681 0.08018,0 0.14577,-0.0706 0.14577,-0.15681 z m -3.790028,-2.19528 c 0,-0.0862 -0.0656,-0.15681 -0.145771,-0.15681 -0.08018,0 -0.14577,0.0706 -0.14577,0.15681 0,0.0862 0.0656,0.1568 0.14577,0.1568 0.08017,0 0.145771,-0.0706 0.145771,-0.1568 z m 3.984389,-0.67949 c -0.106901,-0.11504 -0.194361,-0.0209 -0.194361,0.20907 0,0.22998 0.08746,0.32407 0.194361,0.20908 0.1069,-0.11505 0.1069,-0.30317 0,-0.41815 z m -1.068983,0.0522 c 0,-0.0862 -0.0656,-0.1568 -0.14577,-0.1568 -0.08018,0 -0.14577,0.0706 -0.14577,0.1568 0,0.0862 0.0656,0.15681 0.14577,0.15681 0.08017,0 0.14577,-0.0706 0.14577,-0.15681 z m -2.623866,-0.94082 c 0,-0.0862 -0.0656,-0.15681 -0.145771,-0.15681 -0.08017,0 -0.145769,0.0706 -0.145769,0.15681 0,0.0862 0.06559,0.1568 0.145769,0.1568 0.08018,0 0.145771,-0.0706 0.145771,-0.1568 z m 2.769637,-0.47042 c 0.0991,-0.17249 -0.02435,-0.31362 -0.274335,-0.31362 -0.249985,0 -0.454517,0.14113 -0.454517,0.31362 0,0.17249 0.12345,0.31361 0.274335,0.31361 0.150884,0 0.355416,-0.14112 0.454517,-0.31361 z m -1.020393,-0.27802 c 0,-0.15292 -0.390399,-0.33966 -0.867554,-0.41499 -0.694437,-0.10963 -0.803665,-0.0541 -0.547383,0.27802 0.176093,0.22824 0.566492,0.41499 0.867553,0.41499 0.301062,0 0.547384,-0.12512 0.547384,-0.27802 z m -2.040784,-0.4875 c 0,-0.076 -0.151464,-0.239 -0.336587,-0.36207 -0.208538,-0.13865 -0.257448,-0.0861 -0.128564,0.13829 0.114412,0.19913 0.265876,0.36207 0.336586,0.36207 0.07071,0 0.128565,-0.0622 0.128565,-0.13829 z m 3.04962,-0.28426 c 0.419436,-0.32992 0.453731,-0.47804 0.156447,-0.67568 -0.243386,-0.1618 -0.310012,-0.13001 -0.184676,0.0881 0.127505,0.22192 -0.08615,0.30691 -0.610921,0.24302 -0.443848,-0.054 -0.929482,-0.0204 -1.079186,0.0749 -0.149704,0.0953 -0.01851,0.28 0.291541,0.41062 0.31005,0.13061 0.63705,0.24739 0.726663,0.25951 0.08962,0.0126 0.404673,-0.16811 0.700132,-0.40051 z m 0.907654,-0.76096 c -0.50371,-0.51754 -0.51153,-0.50912 -0.177682,0.19113 0.192071,0.40286 0.429175,0.64648 0.526899,0.54136 0.09773,-0.1051 -0.05943,-0.43475 -0.349217,-0.73249 z m -5.123438,-0.22775 c 0,-0.0862 -0.0656,-0.15679 -0.14577,-0.15679 -0.08018,0 -0.145771,0.0706 -0.145771,0.15679 0,0.0862 0.0656,0.15681 0.145771,0.15681 0.08018,0 0.14577,-0.0706 0.14577,-0.15681 z m 1.943605,-0.0522 c -0.106901,-0.11504 -0.281822,-0.11504 -0.38872,0 -0.106901,0.11505 -0.01944,0.20907 0.194359,0.20907 0.213797,0 0.30126,-0.094 0.194361,-0.20907 z m 0.583081,-0.62722 c -0.1069,-0.11505 -0.281822,-0.11505 -0.388721,0 -0.1069,0.11504 -0.01944,0.20908 0.194361,0.20908 0.213797,0 0.301258,-0.094 0.19436,-0.20908 z m 1.554884,0.0522 c 0,-0.0862 -0.0656,-0.1568 -0.14577,-0.1568 -0.08018,0 -0.14577,0.0706 -0.14577,0.1568 0,0.0862 0.0656,0.15681 0.14577,0.15681 0.08017,0 0.14577,-0.0706 0.14577,-0.15681 z m -0.38872,-0.6795 c -0.106901,-0.11504 -0.281823,-0.11504 -0.388721,0 -0.106901,0.11505 -0.01944,0.20908 0.19436,0.20908 0.213796,0 0.301259,-0.094 0.194361,-0.20908 z m -2.526686,-0.26134 c 0,-0.0862 -0.0656,-0.1568 -0.145771,-0.1568 -0.08018,0 -0.14577,0.0706 -0.14577,0.1568 0,0.0862 0.0656,0.15681 0.14577,0.15681 0.08017,0 0.145771,-0.0706 0.145771,-0.15681 z m 3.352718,-0.1568 c -0.0991,-0.17249 -0.402029,-0.3037 -0.673173,-0.29158 -0.401888,0.018 -0.38524,0.0719 0.09009,0.29158 0.320695,0.14824 0.623622,0.27945 0.673173,0.29157 0.04955,0.0126 0.009,-0.11907 -0.09009,-0.29157 z m -2.769638,-0.15681 c 0,-0.0862 -0.0656,-0.15681 -0.14577,-0.15681 -0.08017,0 -0.14577,0.0706 -0.14577,0.15681 0,0.0862 0.0656,0.15681 0.14577,0.15681 0.08017,0 0.14577,-0.0706 0.14577,-0.15681 z m 0.291541,-0.62723 c 0,-0.0862 -0.0656,-0.1568 -0.14577,-0.1568 -0.08018,0 -0.145771,0.0706 -0.145771,0.1568 0,0.0862 0.0656,0.15681 0.145771,0.15681 0.08017,0 0.14577,-0.0706 0.14577,-0.15681 z m -1.457703,-0.62721 c 0,-0.0862 -0.0656,-0.15681 -0.14577,-0.15681 -0.08017,0 -0.145771,0.0706 -0.145771,0.15681 0,0.0862 0.0656,0.1568 0.145771,0.1568 0.08017,0 0.14577,-0.0706 0.14577,-0.1568 z m -3.206947,-0.31362 c 0,-0.0862 -0.0656,-0.1568 -0.145771,-0.1568 -0.08018,0 -0.14577,0.0706 -0.14577,0.1568 0,0.0862 0.0656,0.15681 0.14577,0.15681 0.08017,0 0.145771,-0.0706 0.145771,-0.15681 z m 5.247732,0 c 0,-0.0862 -0.0656,-0.1568 -0.14577,-0.1568 -0.08017,0 -0.145771,0.0706 -0.145771,0.1568 0,0.0862 0.0656,0.15681 0.145771,0.15681 0.08018,0 0.14577,-0.0706 0.14577,-0.15681 z m -1.166163,-0.29511 c 0,-0.076 -0.151464,-0.23898 -0.336586,-0.36206 -0.20854,-0.13864 -0.257449,-0.086 -0.128564,0.13829 0.114412,0.19914 0.265875,0.36208 0.336586,0.36208 0.07071,0 0.128564,-0.0622 0.128564,-0.13831 z m -3.790029,-0.33211 c 0,-0.0862 -0.0656,-0.15681 -0.14577,-0.15681 -0.08017,0 -0.14577,0.0706 -0.14577,0.15681 0,0.0862 0.0656,0.1568 0.14577,0.1568 0.08018,0 0.14577,-0.0706 0.14577,-0.1568 z m 1.749245,0 c 0,-0.0862 -0.0656,-0.15681 -0.145771,-0.15681 -0.08018,0 -0.14577,0.0706 -0.14577,0.15681 0,0.0862 0.0656,0.1568 0.14577,0.1568 0.08017,0 0.145771,-0.0706 0.145771,-0.1568 z m 0.874621,0 c 0,-0.0862 -0.0656,-0.15681 -0.14577,-0.15681 -0.08017,0 -0.145771,0.0706 -0.145771,0.15681 0,0.0862 0.0656,0.1568 0.145771,0.1568 0.08018,0 0.14577,-0.0706 0.14577,-0.1568 z m 2.265514,-0.41162 c 0.07504,-0.24214 -0.224526,-0.35969 -0.8564,-0.33603 -0.534491,0.02 -0.742215,0.10095 -0.461607,0.17979 0.280608,0.0789 0.510196,0.28596 0.510196,0.46018 0,0.17421 0.155793,0.26088 0.346206,0.19261 0.190412,-0.0682 0.398134,-0.29172 0.461605,-0.49655 z m -3.723217,0.0981 c 0,-0.0862 -0.0656,-0.1568 -0.145771,-0.1568 -0.08017,0 -0.14577,0.0706 -0.14577,0.1568 0,0.0862 0.0656,0.15681 0.14577,0.15681 0.08018,0 0.145771,-0.0706 0.145771,-0.15681 z m -5.126291,-0.89594 c -0.101108,-0.28342 -0.305598,-0.5153 -0.454431,-0.5153 -0.148928,0 -0.124281,0.2941 0.05481,0.65407 0.178981,0.35974 0.383475,0.59163 0.454432,0.51531 0.07095,-0.0763 0.04629,-0.37066 -0.05481,-0.65408 z m 1.627803,0.26872 c 0,-0.0862 -0.0656,-0.15681 -0.145771,-0.15681 -0.08018,0 -0.14577,0.0706 -0.14577,0.15681 0,0.0862 0.0656,0.1568 0.14577,0.1568 0.08018,0 0.145771,-0.0706 0.145771,-0.1568 z m 4.27593,-0.36588 c -0.1069,-0.11504 -0.19436,-0.0209 -0.19436,0.20907 0,0.22999 0.08747,0.32407 0.19436,0.20908 0.106901,-0.11504 0.106901,-0.30315 0,-0.41815 z m 3.887209,0.0522 c 0,-0.0862 -0.0656,-0.15681 -0.145771,-0.15681 -0.08017,0 -0.14577,0.0706 -0.14577,0.15681 0,0.0862 0.0656,0.15681 0.14577,0.15681 0.08018,0 0.145771,-0.0706 0.145771,-0.15681 z m -11.916992,-0.86766 c -0.287929,-0.30742 -0.321418,-0.2714 -0.163203,0.17556 0.109487,0.3093 0.272501,0.48335 0.362263,0.38679 0.08976,-0.0965 1.85e-4,-0.34961 -0.19906,-0.56235 z m -5.291624,-1.18632 c -0.27536,-0.55347 -0.398804,-0.60727 -0.601263,-0.26207 -0.168386,0.2871 -0.09085,0.5662 0.228709,0.82316 0.265911,0.21383 0.536479,0.33175 0.601263,0.26206 0.06479,-0.0697 -0.03813,-0.44011 -0.228709,-0.82315 z m 0.882338,-1.70936 c 0,-0.0862 -0.0656,-0.1568 -0.145771,-0.1568 -0.08017,0 -0.14577,0.0706 -0.14577,0.1568 0,0.0862 0.0656,0.15681 0.14577,0.15681 0.08018,0 0.145771,-0.0706 0.145771,-0.15681 z m 13.351614,-0.84145 c 0.0695,-0.38821 -0.05942,-0.4777 -0.506849,-0.35184 -0.330031,0.0929 -0.600056,0.37438 -0.600056,0.62564 0,0.26512 0.212702,0.41277 0.506847,0.35184 0.278767,-0.0578 0.548793,-0.33929 0.600058,-0.62564 z m -1.398446,-0.0994 c 0,-0.0862 -0.0656,-0.15681 -0.145771,-0.15681 -0.08017,0 -0.14577,0.0706 -0.14577,0.15681 0,0.0862 0.0656,0.15681 0.14577,0.15681 0.08017,0 0.145771,-0.0706 0.145771,-0.15681 z m 0.949768,-1.52355 c 0.121505,-0.32049 0.06065,-1.16725 -0.135253,-1.88168 -0.195893,-0.71441 -0.524894,-1.48543 -0.731113,-1.71337 -0.30902,-0.34154 -0.374943,-0.30479 -0.374943,0.20908 0,0.34292 0.121493,0.67053 0.269984,0.72803 0.148492,0.0575 0.356651,0.4804 0.462576,0.93979 0.14246,0.61784 0.03424,1.0056 -0.415756,1.48967 -0.33459,0.35992 -0.608345,0.70657 -0.608345,0.77035 0,0.0638 0.295185,0.0991 0.655966,0.0784 0.360783,-0.0206 0.75538,-0.29978 0.876884,-0.62026 z m -12.028315,-0.35805 c 0.376597,-0.43123 0.619125,-0.78404 0.538951,-0.78404 -0.08018,0 -0.453895,0.35281 -0.830491,0.78404 -0.376597,0.43121 -0.619123,0.78402 -0.538951,0.78402 0.08018,0 0.453895,-0.35281 0.830491,-0.78402 z m 7.165838,-0.25365 c -0.307995,-0.20547 -1.045458,-0.83223 -1.638809,-1.39282 -0.593349,-0.56058 -1.147275,-1.01924 -1.230947,-1.01924 -0.08367,0 -0.245425,0.24697 -0.359455,0.54883 -0.114026,0.30184 -0.315696,0.93691 -0.44815,1.41125 -0.240826,0.86243 -0.240826,0.86243 1.998262,0.84398 1.855716,-0.0152 2.143208,-0.0824 1.679099,-0.392 z m -6.422259,-4.16278 c -0.102805,-0.58948 -0.303626,-1.07178 -0.446269,-1.07178 -0.142643,0 -0.577982,0.13031 -0.96742,0.28958 -0.389438,0.15927 -0.790056,0.51942 -0.890262,0.80032 -0.100207,0.2809 -0.07258,0.43786 0.0614,0.34878 0.133974,-0.0891 0.618111,0.25857 1.07586,0.77253 0.715679,0.80356 0.868789,0.86428 1.092942,0.43342 0.143369,-0.27559 0.176559,-0.98336 0.07375,-1.57285 z m 2.171829,-0.60136 c 0,-0.60372 -0.05124,-1.09765 -0.113874,-1.09765 -0.06264,0 -0.167481,0.49393 -0.233,1.09765 -0.06551,0.6037 -0.01427,1.09763 0.113874,1.09763 0.12815,0 0.233,-0.49393 0.233,-1.09763 z m 7.871598,0.62721 c 0,-0.0862 -0.0656,-0.15681 -0.145771,-0.15681 -0.08017,0 -0.14577,0.0706 -0.14577,0.15681 0,0.0862 0.0656,0.15681 0.14577,0.15681 0.08018,0 0.145771,-0.0706 0.145771,-0.15681 z m -12.536249,-0.31364 c 0,-0.0862 -0.0656,-0.1568 -0.14577,-0.1568 -0.08018,0 -0.145771,0.0706 -0.145771,0.1568 0,0.0862 0.0656,0.1568 0.145771,0.1568 0.08018,0 0.14577,-0.0706 0.14577,-0.1568 z m 12.82779,-0.80254 c 0,-0.18266 -0.106585,-0.26126 -0.236847,-0.17465 -0.130266,0.0866 -1.05071,-0.75183 -2.04543,-1.86317 -0.994722,-1.11134 -1.929945,-2.02063 -2.078274,-2.02063 -0.148329,0 -0.350771,0.14113 -0.44987,0.31362 -0.0991,0.17249 -0.0076,0.31361 0.203389,0.31361 0.210964,0 1.223733,0.84675 2.250597,1.88167 1.026865,1.03493 1.977144,1.88168 2.111731,1.88168 0.134587,0 0.244704,-0.14946 0.244704,-0.33213 z m -6.122354,-1.04688 c 0,-0.0931 -0.196791,-0.0881 -0.437312,0.0113 -0.240521,0.0993 -0.437311,0.38719 -0.437311,0.63978 0,0.39832 0.05803,0.39685 0.437311,-0.0113 0.240521,-0.25872 0.437312,-0.54663 0.437312,-0.63977 z m -3.675451,-0.37152 c 0.09733,-0.27283 0.176962,-0.55508 0.176962,-0.62721 0,-0.0721 -0.254643,-0.13116 -0.565876,-0.13116 -0.311231,0 -0.656022,0.1569 -0.766202,0.34867 -0.110177,0.19178 -0.01953,0.47187 0.20145,0.62242 0.220977,0.15056 0.486136,0.27592 0.58924,0.27856 0.103109,0.003 0.267097,-0.21843 0.364426,-0.49128 z m 1.245945,-1.28106 c -0.106901,-0.11504 -0.194361,-0.0209 -0.194361,0.20908 0,0.22997 0.08746,0.32406 0.194361,0.20907 0.1069,-0.11505 0.1069,-0.30316 0,-0.41815 z m 2.716581,-1.43739 c 0.0025,-0.30184 -0.09393,-0.54853 -0.214191,-0.54819 -0.120261,3.4e-4 -0.247871,0.459 -0.283577,1.01924 -0.04785,0.75072 0.0084,0.8949 0.21419,0.54819 0.153514,-0.25873 0.281123,-0.71738 0.283578,-1.01924 z m -5.534808,0.23521 c 0,-0.0862 -0.0656,-0.15681 -0.14577,-0.15681 -0.08018,0 -0.145771,0.0706 -0.145771,0.15681 0,0.0862 0.0656,0.15681 0.145771,0.15681 0.08018,0 0.14577,-0.0706 0.14577,-0.15681 z m 1.652063,-0.9931 c -0.1069,-0.11504 -0.194359,-0.0209 -0.194359,0.20907 0,0.22998 0.08746,0.32407 0.194359,0.20908 0.106901,-0.11505 0.106901,-0.30316 0,-0.41815 z m -1.360523,-0.88857 c 0,-0.0862 -0.06559,-0.1568 -0.145769,-0.1568 -0.08018,0 -0.145771,0.0706 -0.145771,0.1568 0,0.0862 0.0656,0.15681 0.145771,0.15681 0.08017,0 0.145769,-0.0706 0.145769,-0.15681 z"
       id="path5" /></g></svg>
