<?xml version="1.0" encoding="UTF-8" standalone="no"?>
<!-- Created with Inkscape (http://www.inkscape.org/) -->

<svg
   width="318.11758"
   height="334.62256"
   viewBox="0 0 84.168611 88.535552"
   version="1.1"
   id="svg1"
   inkscape:version="1.3.2 (1:1.3.2+202311252150+091e20ef0f)"
   sodipodi:docname="src_parametrix_concept_2.svg"
   xml:space="preserve"
   xmlns:inkscape="http://www.inkscape.org/namespaces/inkscape"
   xmlns:sodipodi="http://sodipodi.sourceforge.net/DTD/sodipodi-0.dtd"
   xmlns="http://www.w3.org/2000/svg"
   xmlns:svg="http://www.w3.org/2000/svg"><sodipodi:namedview
     id="namedview1"
     pagecolor="#ffffff"
     bordercolor="#666666"
     borderopacity="1.0"
     inkscape:showpageshadow="2"
     inkscape:pageopacity="0.0"
     inkscape:pagecheckerboard="0"
     inkscape:deskcolor="#d1d1d1"
     inkscape:document-units="px"
     inkscape:zoom="1.4967093"
     inkscape:cx="182.40015"
     inkscape:cy="5254.1933"
     inkscape:window-width="1370"
     inkscape:window-height="836"
     inkscape:window-x="0"
     inkscape:window-y="0"
     inkscape:window-maximized="1"
     inkscape:current-layer="layer1"
     showguides="false" /><defs
     id="defs1"><rect
       x="110.61506"
       y="6122.1548"
       width="306.71716"
       height="51.138229"
       id="rect293" /><rect
       x="410.21503"
       y="6071.0425"
       width="189.44946"
       height="35.724205"
       id="rect291" /><rect
       x="416.67453"
       y="6024.2578"
       width="138.81235"
       height="37.592888"
       id="rect290" /><rect
       x="424.86435"
       y="5953.3467"
       width="120.65271"
       height="38.057449"
       id="rect138" /><rect
       x="428.29636"
       y="5885.9595"
       width="118.14982"
       height="27.022823"
       id="rect125" /></defs><g
     inkscape:label="Layer 1"
     inkscape:groupmode="layer"
     id="layer1"
     transform="translate(-14.885441,-1523.1808)"><rect
       style="fill:#ffffff;stroke:#ffffff;stroke-width:0.264583;stroke-linejoin:bevel"
       id="rect294"
       width="83.904022"
       height="88.270958"
       x="15.017733"
       y="1523.3131" /><path
       style="fill:#999999;stroke:#000000;stroke-width:0.264583px;stroke-linecap:butt;stroke-linejoin:miter;stroke-opacity:1"
       d="m 30.645356,1562.1198 h 3.362362 c 0,0 -0.272542,-3.3108 0,-4.9296 0.15303,-0.9089 0.309932,-1.9175 0.904535,-2.6046 0.633847,-0.7323 1.61049,-1.3234 2.55965,-1.2949 0.737489,0.022 1.442074,0.5499 1.92919,1.1238 0.545429,0.6428 0.77045,1.5404 0.92801,2.3803 0.308363,1.644 0,5.024 0,5.024 h 3.180051 c 0,0 0.912539,-8.3816 0,-12.4083 -0.251409,-1.1093 -0.631168,-2.3225 -1.468536,-3.0615 -0.811957,-0.7166 -2.001026,-0.8191 -3.055667,-0.9852 -1.114885,-0.1755 -2.267345,-0.1696 -3.383092,0 -1.075009,0.1635 -2.247622,0.3023 -3.122128,0.9701 -0.94258,0.7198 -1.623467,1.8586 -1.959137,3.0206 -1.17754,4.0768 0.124762,12.7653 0.124762,12.7653 z"
       id="path2"
       sodipodi:nodetypes="ccaaaaaccaaaaaac" /><rect
       style="fill:none;stroke:#999999;stroke-width:0.264583;stroke-linejoin:bevel"
       id="rect124"
       width="39.422916"
       height="39.422916"
       x="17.370424"
       y="1530.0071" /><rect
       style="fill:none;stroke:#999999;stroke-width:0.264583;stroke-linejoin:bevel"
       id="rect124-5"
       width="39.422916"
       height="39.422916"
       x="56.793343"
       y="1530.0071" /><rect
       style="fill:none;stroke:#999999;stroke-width:0.264583;stroke-linejoin:bevel"
       id="rect124-2"
       width="39.422916"
       height="39.422916"
       x="17.370424"
       y="1569.4301" /><rect
       style="fill:none;stroke:#999999;stroke-width:0.264583;stroke-linejoin:bevel"
       id="rect124-5-9"
       width="39.422916"
       height="39.422916"
       x="56.793343"
       y="1569.4301" /><text
       xml:space="preserve"
       transform="matrix(0.26458333,0,0,0.26458333,-87.902905,-26.427426)"
       id="text124"
       style="font-style:normal;font-variant:normal;font-weight:normal;font-stretch:normal;font-size:14.6667px;line-height:1.25;font-family:'Liberation Sans';-inkscape-font-specification:'Liberation Sans';font-variant-ligatures:normal;font-variant-position:normal;font-variant-caps:normal;font-variant-numeric:normal;font-variant-alternates:normal;font-variant-east-asian:normal;font-feature-settings:normal;font-variation-settings:normal;text-indent:0;text-align:start;text-decoration-line:none;text-decoration-style:solid;text-decoration-color:#000000;letter-spacing:normal;word-spacing:normal;text-transform:none;writing-mode:lr-tb;direction:ltr;text-orientation:mixed;dominant-baseline:auto;baseline-shift:baseline;white-space:pre;shape-inside:url(#rect125);shape-padding:0;shape-margin:0;inline-size:0;opacity:1;vector-effect:none;fill:#000000;fill-opacity:1;stroke-width:1;stroke-linecap:butt;stroke-linejoin:miter;stroke-miterlimit:4;stroke-dasharray:none;stroke-dashoffset:0;stroke-opacity:1;-inkscape-stroke:none;stop-color:#000000;stop-opacity:1"><tspan
         x="428.29688"
         y="5899.1701"
         id="tspan1">simple figure</tspan></text><text
       xml:space="preserve"
       transform="matrix(0.26458333,0,0,0.26458333,-89.84814,-4.8406433)"
       id="text137"
       style="font-style:normal;font-variant:normal;font-weight:normal;font-stretch:normal;font-size:14.6667px;line-height:1.25;font-family:'Liberation Sans';-inkscape-font-specification:'Liberation Sans';font-variant-ligatures:normal;font-variant-position:normal;font-variant-caps:normal;font-variant-numeric:normal;font-variant-alternates:normal;font-variant-east-asian:normal;font-feature-settings:normal;font-variation-settings:normal;text-indent:0;text-align:start;text-decoration-line:none;text-decoration-style:solid;text-decoration-color:#000000;letter-spacing:normal;word-spacing:normal;text-transform:none;writing-mode:lr-tb;direction:ltr;text-orientation:mixed;dominant-baseline:auto;baseline-shift:baseline;white-space:pre;shape-inside:url(#rect138);shape-padding:0;shape-margin:0;inline-size:0;opacity:1;vector-effect:none;fill:#000000;fill-opacity:1;stroke-width:1;stroke-linecap:butt;stroke-linejoin:miter;stroke-miterlimit:4;stroke-dasharray:none;stroke-dashoffset:0;stroke-opacity:1;-inkscape-stroke:none;stop-color:#000000;stop-opacity:1"><tspan
         x="424.86523"
         y="5966.5588"
         id="tspan2">figure with holes</tspan></text><text
       xml:space="preserve"
       transform="matrix(0.26458333,0,0,0.26458333,-45.125015,-63.718333)"
       id="text290"
       style="font-style:normal;font-variant:normal;font-weight:normal;font-stretch:normal;font-size:14.6667px;line-height:1.25;font-family:'Liberation Sans';-inkscape-font-specification:'Liberation Sans';font-variant-ligatures:normal;font-variant-position:normal;font-variant-caps:normal;font-variant-numeric:normal;font-variant-alternates:normal;font-variant-east-asian:normal;font-feature-settings:normal;font-variation-settings:normal;text-indent:0;text-align:start;text-decoration-line:none;text-decoration-style:solid;text-decoration-color:#000000;letter-spacing:normal;word-spacing:normal;text-transform:none;writing-mode:lr-tb;direction:ltr;text-orientation:mixed;dominant-baseline:auto;baseline-shift:baseline;white-space:pre;shape-inside:url(#rect290);shape-padding:0;shape-margin:0;inline-size:0;opacity:1;vector-effect:none;fill:#000000;fill-opacity:1;stroke-width:1;stroke-linecap:butt;stroke-linejoin:miter;stroke-miterlimit:4;stroke-dasharray:none;stroke-dashoffset:0;stroke-opacity:1;-inkscape-stroke:none;stop-color:#000000;stop-opacity:1"><tspan
         x="416.67383"
         y="6037.4689"
         id="tspan3">parallel figures</tspan></text><text
       xml:space="preserve"
       transform="matrix(0.26458333,0,0,0.26458333,-45.696778,-36.689452)"
       id="text291"
       style="font-style:normal;font-variant:normal;font-weight:normal;font-stretch:normal;font-size:14.6667px;line-height:1.25;font-family:'Liberation Sans';-inkscape-font-specification:'Liberation Sans';font-variant-ligatures:normal;font-variant-position:normal;font-variant-caps:normal;font-variant-numeric:normal;font-variant-alternates:normal;font-variant-east-asian:normal;font-feature-settings:normal;font-variation-settings:normal;text-indent:0;text-align:start;text-decoration-line:none;text-decoration-style:solid;text-decoration-color:#000000;letter-spacing:normal;word-spacing:normal;text-transform:none;writing-mode:lr-tb;direction:ltr;text-orientation:mixed;dominant-baseline:auto;baseline-shift:baseline;white-space:pre;shape-inside:url(#rect291);shape-padding:0;shape-margin:0;inline-size:0;opacity:1;vector-effect:none;fill:#000000;fill-opacity:1;stroke-width:1;stroke-linecap:butt;stroke-linejoin:miter;stroke-miterlimit:4;stroke-dasharray:none;stroke-dashoffset:0;stroke-opacity:1;-inkscape-stroke:none;stop-color:#000000;stop-opacity:1"><tspan
         x="410.21484"
         y="6084.2541"
         id="tspan4">parallel figures
</tspan><tspan
         x="410.21484"
         y="6102.5876"
         id="tspan5"> with holes</tspan></text><path
       style="fill:#999999;stroke:#000000;stroke-width:0.264583px;stroke-linecap:butt;stroke-linejoin:miter;stroke-opacity:1"
       d="m 61.306004,1565.5825 h 3.36236 c 0,0 -0.27254,-3.3108 0,-4.9296 0.15303,-0.9089 0.30994,-1.9175 0.90454,-2.6046 0.63385,-0.7323 1.61049,-1.3234 2.55965,-1.2949 0.73749,0.022 1.44207,0.5499 1.92919,1.1238 0.54543,0.6428 0.77045,1.5404 0.92801,2.3803 0.30836,1.644 0,5.024 0,5.024 h 3.18005 c 0,0 0.91254,-8.3816 0,-12.4083 -0.25141,-1.1093 -0.63117,-2.3225 -1.46854,-3.0615 -0.81195,-0.7166 -2.00102,-0.8191 -3.05566,-0.9852 -1.11489,-0.1755 -2.26735,-0.1696 -3.38309,0 -1.07501,0.1635 -2.24763,0.3023 -3.12213,0.9701 -0.94258,0.7198 -1.62347,1.8586 -1.95914,3.0206 -1.17754,4.0768 0.12476,12.7653 0.12476,12.7653 z"
       id="path2-0"
       sodipodi:nodetypes="ccaaaaaccaaaaaac" /><path
       style="fill:#999999;stroke:#000000;stroke-width:0.264583px;stroke-linecap:butt;stroke-linejoin:miter;stroke-opacity:1"
       d="m 79.555795,1558.1992 h 3.36236 c 0,0 -0.27254,-3.3107 0,-4.9295 0.15303,-0.9089 0.30993,-1.9175 0.90454,-2.6046 0.63384,-0.7323 1.61049,-1.3234 2.55965,-1.2949 0.73748,0.022 1.44207,0.5499 1.92919,1.1238 0.54542,0.6428 0.77045,1.5404 0.92801,2.3803 0.30836,1.644 0,5.024 0,5.024 h 3.18005 c 0,0 0.91254,-8.3816 0,-12.4084 -0.25141,-1.1093 -0.63117,-2.3224 -1.46854,-3.0615 -0.81196,-0.7166 -2.00103,-0.819 -3.05567,-0.9852 -1.11488,-0.1755 -2.26734,-0.1696 -3.38309,0 -1.07501,0.1636 -2.24762,0.3023 -3.12213,0.9701 -0.94258,0.7198 -1.62346,1.8586 -1.95913,3.0206 -1.17754,4.0769 0.12476,12.7653 0.12476,12.7653 z"
       id="path2-06"
       sodipodi:nodetypes="ccaaaaaccaaaaaac" /><path
       style="fill:#999999;stroke:#000000;stroke-width:0.264583px;stroke-linecap:butt;stroke-linejoin:miter;stroke-opacity:1"
       d="m 29.14606,1601.8657 h 3.36236 c 0,0 -0.27254,-3.3108 0,-4.9296 0.15303,-0.9088 0.30993,-1.9175 0.90454,-2.6045 0.63384,-0.7323 1.61049,-1.3234 2.55965,-1.2949 0.73748,0.022 1.44207,0.5498 1.92919,1.1238 0.54542,0.6428 0.77045,1.5404 0.92801,2.3803 0.30836,1.644 0,5.024 0,5.024 h 3.18005 c 0,0 0.91254,-8.3816 0,-12.4084 -0.25141,-1.1093 -0.63117,-2.3225 -1.46854,-3.0615 -0.81196,-0.7166 -2.00102,-0.8191 -3.05567,-0.9852 -1.11488,-0.1755 -2.26734,-0.1696 -3.38309,0 -1.07501,0.1635 -2.24762,0.3023 -3.12213,0.9701 -0.94258,0.7198 -1.62346,1.8586 -1.95913,3.0206 -1.17754,4.0768 0.12476,12.7653 0.12476,12.7653 z"
       id="path2-8"
       sodipodi:nodetypes="ccaaaaaccaaaaaac" /><ellipse
       style="fill:#ffffff;stroke:#1a1a1a;stroke-width:0.264583;stroke-linejoin:bevel"
       id="path292"
       cx="35.325302"
       cy="1588.6439"
       rx="2.172765"
       ry="2.1793251" /><rect
       style="fill:#ffffff;stroke:#1a1a1a;stroke-width:0.264583;stroke-linejoin:bevel"
       id="rect292"
       width="2.5011141"
       height="3.1198325"
       x="29.81311"
       y="1590.4792" /><rect
       style="fill:#ffffff;stroke:#1a1a1a;stroke-width:0.264583;stroke-linejoin:bevel"
       id="rect292-9"
       width="2.5011141"
       height="3.1198325"
       x="38.50631"
       y="1590.0205" /><path
       style="fill:#999999;stroke:#000000;stroke-width:0.264583px;stroke-linecap:butt;stroke-linejoin:miter;stroke-opacity:1"
       d="m 59.119472,1604.554 h 3.36236 c 0,0 -0.27254,-3.3108 0,-4.9296 0.15303,-0.9088 0.30993,-1.9175 0.90454,-2.6045 0.63384,-0.7323 1.61049,-1.3234 2.55965,-1.2949 0.73748,0.022 1.44207,0.5498 1.92919,1.1238 0.54542,0.6428 0.77045,1.5404 0.92801,2.3803 0.30836,1.644 0,5.024 0,5.024 h 3.18005 c 0,0 0.91254,-8.3816 0,-12.4084 -0.25141,-1.1093 -0.63117,-2.3225 -1.46854,-3.0615 -0.81196,-0.7166 -2.00102,-0.8191 -3.05567,-0.9852 -1.11488,-0.1755 -2.26734,-0.1696 -3.38309,0 -1.07501,0.1635 -2.24762,0.3023 -3.12213,0.9701 -0.94258,0.7198 -1.62346,1.8586 -1.95913,3.0206 -1.17754,4.0768 0.12476,12.7653 0.12476,12.7653 z"
       id="path2-8-9"
       sodipodi:nodetypes="ccaaaaaccaaaaaac" /><ellipse
       style="fill:#ffffff;stroke:#1a1a1a;stroke-width:0.264583;stroke-linejoin:bevel"
       id="path292-7"
       cx="65.298714"
       cy="1591.3322"
       rx="2.172765"
       ry="2.1793251" /><rect
       style="fill:#ffffff;stroke:#1a1a1a;stroke-width:0.264583;stroke-linejoin:bevel"
       id="rect292-3"
       width="2.5011141"
       height="3.1198325"
       x="59.786522"
       y="1593.1675" /><rect
       style="fill:#ffffff;stroke:#1a1a1a;stroke-width:0.264583;stroke-linejoin:bevel"
       id="rect292-9-6"
       width="2.5011141"
       height="3.1198325"
       x="68.479729"
       y="1592.7087" /><path
       style="fill:#999999;stroke:#000000;stroke-width:0.264583px;stroke-linecap:butt;stroke-linejoin:miter;stroke-opacity:1"
       d="m 76.795477,1598.3328 h 3.36237 c 0,0 -0.27255,-3.3108 0,-4.9296 0.15303,-0.9088 0.30992,-1.9175 0.90453,-2.6045 0.63385,-0.7323 1.61049,-1.3234 2.55965,-1.2949 0.73748,0.022 1.44207,0.5498 1.92919,1.1238 0.54543,0.6428 0.77045,1.5404 0.92801,2.3803 0.30836,1.644 0,5.024 0,5.024 h 3.18005 c 0,0 0.91254,-8.3816 0,-12.4084 -0.25141,-1.1093 -0.63117,-2.3225 -1.46854,-3.0615 -0.81196,-0.7166 -2.00101,-0.8191 -3.05566,-0.9852 -1.11488,-0.1755 -2.26734,-0.1696 -3.3831,0 -1.075,0.1635 -2.24761,0.3023 -3.12213,0.9701 -0.94257,0.7198 -1.62345,1.8586 -1.95913,3.0206 -1.17754,4.0768 0.12476,12.7653 0.12476,12.7653 z"
       id="path2-8-3"
       sodipodi:nodetypes="ccaaaaaccaaaaaac" /><ellipse
       style="fill:#ffffff;stroke:#1a1a1a;stroke-width:0.264583;stroke-linejoin:bevel"
       id="path292-1"
       cx="82.974731"
       cy="1585.111"
       rx="2.172765"
       ry="2.1793251" /><rect
       style="fill:#ffffff;stroke:#1a1a1a;stroke-width:0.264583;stroke-linejoin:bevel"
       id="rect292-94"
       width="2.5011141"
       height="3.1198325"
       x="77.46254"
       y="1586.9463" /><rect
       style="fill:#ffffff;stroke:#1a1a1a;stroke-width:0.264583;stroke-linejoin:bevel"
       id="rect292-9-7"
       width="2.5011141"
       height="3.1198325"
       x="86.155739"
       y="1586.4875" /><text
       xml:space="preserve"
       transform="matrix(0.26458333,0,0,0.26458333,1.7422173,-95.90136)"
       id="text292"
       style="font-style:normal;font-variant:normal;font-weight:normal;font-stretch:normal;font-size:14.6667px;line-height:1.25;font-family:'Liberation Sans';-inkscape-font-specification:'Liberation Sans';font-variant-ligatures:normal;font-variant-position:normal;font-variant-caps:normal;font-variant-numeric:normal;font-variant-alternates:normal;font-variant-east-asian:normal;font-feature-settings:normal;font-variation-settings:normal;text-indent:0;text-align:start;text-decoration-line:none;text-decoration-style:solid;text-decoration-color:#000000;letter-spacing:normal;word-spacing:normal;text-transform:none;writing-mode:lr-tb;direction:ltr;text-orientation:mixed;dominant-baseline:auto;baseline-shift:baseline;white-space:pre;shape-inside:url(#rect293);shape-padding:0;shape-margin:0;inline-size:0;opacity:1;vector-effect:none;fill:#000000;fill-opacity:1;stroke-width:1;stroke-linecap:butt;stroke-linejoin:miter;stroke-miterlimit:4;stroke-dasharray:none;stroke-dashoffset:0;stroke-opacity:1;-inkscape-stroke:none;stop-color:#000000;stop-opacity:1"><tspan
         x="110.61523"
         y="6135.3654"
         id="tspan6">types of contour arrangements</tspan></text></g></svg>
