<svg xmlns="http://www.w3.org/2000/svg" width="600" height="3000" viewBox="0 0 158.75 793.75"><defs><marker id="c" markerHeight="1" markerWidth="1" orient="auto-start-reverse" preserveAspectRatio="xMidYMid" refX="0" refY="0" style="overflow:visible" viewBox="0 0 1 1"><path d="M-.211-4.106 6.21-.894a1 1 90 0 1 0 1.788L-.21 4.106A1.236 1.236 31.717 0 1-2 3v-6A1.236 1.236 148.283 0 1-.211-4.106" style="fill:context-stroke;fill-rule:evenodd;stroke:none" transform="scale(0.7)"/></marker><marker id="d" markerHeight="1" markerWidth="1" orient="auto-start-reverse" preserveAspectRatio="xMidYMid" refX="0" refY="0" style="overflow:visible" viewBox="0 0 1 1"><path d="M-.211-4.106 6.21-.894a1 1 90 0 1 0 1.788L-.21 4.106A1.236 1.236 31.717 0 1-2 3v-6A1.236 1.236 148.283 0 1-.211-4.106" style="fill:context-stroke;fill-rule:evenodd;stroke:none" transform="scale(0.7)"/></marker><marker id="h" markerHeight="1" markerWidth="1" orient="auto-start-reverse" preserveAspectRatio="xMidYMid" refX="0" refY="0" style="overflow:visible" viewBox="0 0 1 1"><path d="M-.211-4.106 6.21-.894a1 1 90 0 1 0 1.788L-.21 4.106A1.236 1.236 31.717 0 1-2 3v-6A1.236 1.236 148.283 0 1-.211-4.106" style="fill:context-stroke;fill-rule:evenodd;stroke:none" transform="scale(0.7)"/></marker><marker id="i" markerHeight="1" markerWidth="1" orient="auto-start-reverse" preserveAspectRatio="xMidYMid" refX="0" refY="0" style="overflow:visible" viewBox="0 0 1 1"><path d="M-.211-4.106 6.21-.894a1 1 90 0 1 0 1.788L-.21 4.106A1.236 1.236 31.717 0 1-2 3v-6A1.236 1.236 148.283 0 1-.211-4.106" style="fill:context-stroke;fill-rule:evenodd;stroke:none" transform="scale(0.7)"/></marker><marker id="l" markerHeight="1" markerWidth="1" orient="auto-start-reverse" preserveAspectRatio="xMidYMid" refX="0" refY="0" style="overflow:visible" viewBox="0 0 1 1"><path d="M-.211-4.106 6.21-.894a1 1 90 0 1 0 1.788L-.21 4.106A1.236 1.236 31.717 0 1-2 3v-6A1.236 1.236 148.283 0 1-.211-4.106" style="fill:context-stroke;fill-rule:evenodd;stroke:none" transform="scale(0.7)"/></marker><marker id="m" markerHeight="1" markerWidth="1" orient="auto-start-reverse" preserveAspectRatio="xMidYMid" refX="0" refY="0" style="overflow:visible" viewBox="0 0 1 1"><path d="M-.211-4.106 6.21-.894a1 1 90 0 1 0 1.788L-.21 4.106A1.236 1.236 31.717 0 1-2 3v-6A1.236 1.236 148.283 0 1-.211-4.106" style="fill:context-stroke;fill-rule:evenodd;stroke:none" transform="scale(0.7)"/></marker><marker id="o" markerHeight="1" markerWidth="1" orient="auto-start-reverse" preserveAspectRatio="xMidYMid" refX="0" refY="0" style="overflow:visible" viewBox="0 0 1 1"><path d="M-.211-4.106 6.21-.894a1 1 90 0 1 0 1.788L-.21 4.106A1.236 1.236 31.717 0 1-2 3v-6A1.236 1.236 148.283 0 1-.211-4.106" style="fill:context-stroke;fill-rule:evenodd;stroke:none" transform="scale(0.7)"/></marker><marker id="q" markerHeight="1" markerWidth="1" orient="auto-start-reverse" preserveAspectRatio="xMidYMid" refX="0" refY="0" style="overflow:visible" viewBox="0 0 1 1"><path d="M-.211-4.106 6.21-.894a1 1 90 0 1 0 1.788L-.21 4.106A1.236 1.236 31.717 0 1-2 3v-6A1.236 1.236 148.283 0 1-.211-4.106" style="fill:context-stroke;fill-rule:evenodd;stroke:none" transform="scale(0.7)"/></marker><marker id="r" markerHeight="1" markerWidth="1" orient="auto-start-reverse" preserveAspectRatio="xMidYMid" refX="0" refY="0" style="overflow:visible" viewBox="0 0 1 1"><path d="M-.211-4.106 6.21-.894a1 1 90 0 1 0 1.788L-.21 4.106A1.236 1.236 31.717 0 1-2 3v-6A1.236 1.236 148.283 0 1-.211-4.106" style="fill:context-stroke;fill-rule:evenodd;stroke:none" transform="scale(0.7)"/></marker><marker id="s" markerHeight="1" markerWidth="1" orient="auto-start-reverse" preserveAspectRatio="xMidYMid" refX="0" refY="0" style="overflow:visible" viewBox="0 0 1 1"><path d="M-.211-4.106 6.21-.894a1 1 90 0 1 0 1.788L-.21 4.106A1.236 1.236 31.717 0 1-2 3v-6A1.236 1.236 148.283 0 1-.211-4.106" style="fill:context-stroke;fill-rule:evenodd;stroke:none" transform="scale(0.7)"/></marker><marker id="t" markerHeight="1" markerWidth="1" orient="auto-start-reverse" preserveAspectRatio="xMidYMid" refX="0" refY="0" style="overflow:visible" viewBox="0 0 1 1"><path d="M-.211-4.106 6.21-.894a1 1 90 0 1 0 1.788L-.21 4.106A1.236 1.236 31.717 0 1-2 3v-6A1.236 1.236 148.283 0 1-.211-4.106" style="fill:context-stroke;fill-rule:evenodd;stroke:none" transform="scale(0.7)"/></marker><marker id="u" markerHeight="1" markerWidth="1" orient="auto-start-reverse" preserveAspectRatio="xMidYMid" refX="0" refY="0" style="overflow:visible" viewBox="0 0 1 1"><path d="M-.211-4.106 6.21-.894a1 1 90 0 1 0 1.788L-.21 4.106A1.236 1.236 31.717 0 1-2 3v-6A1.236 1.236 148.283 0 1-.211-4.106" style="fill:context-stroke;fill-rule:evenodd;stroke:none" transform="scale(0.7)"/></marker><marker id="v" markerHeight="1" markerWidth="1" orient="auto-start-reverse" preserveAspectRatio="xMidYMid" refX="0" refY="0" style="overflow:visible" viewBox="0 0 1 1"><path d="M-.211-4.106 6.21-.894a1 1 90 0 1 0 1.788L-.21 4.106A1.236 1.236 31.717 0 1-2 3v-6A1.236 1.236 148.283 0 1-.211-4.106" style="fill:context-stroke;fill-rule:evenodd;stroke:none" transform="scale(0.7)"/></marker><marker id="w" markerHeight="1" markerWidth="1" orient="auto-start-reverse" preserveAspectRatio="xMidYMid" refX="0" refY="0" style="overflow:visible" viewBox="0 0 1 1"><path d="M-.211-4.106 6.21-.894a1 1 90 0 1 0 1.788L-.21 4.106A1.236 1.236 31.717 0 1-2 3v-6A1.236 1.236 148.283 0 1-.211-4.106" style="fill:context-stroke;fill-rule:evenodd;stroke:none" transform="scale(0.7)"/></marker><marker id="x" markerHeight="1" markerWidth="1" orient="auto-start-reverse" preserveAspectRatio="xMidYMid" refX="0" refY="0" style="overflow:visible" viewBox="0 0 1 1"><path d="M-.211-4.106 6.21-.894a1 1 90 0 1 0 1.788L-.21 4.106A1.236 1.236 31.717 0 1-2 3v-6A1.236 1.236 148.283 0 1-.211-4.106" style="fill:context-stroke;fill-rule:evenodd;stroke:none" transform="scale(0.7)"/></marker><marker id="y" markerHeight="1" markerWidth="1" orient="auto-start-reverse" preserveAspectRatio="xMidYMid" refX="0" refY="0" style="overflow:visible" viewBox="0 0 1 1"><path d="M-.211-4.106 6.21-.894a1 1 90 0 1 0 1.788L-.21 4.106A1.236 1.236 31.717 0 1-2 3v-6A1.236 1.236 148.283 0 1-.211-4.106" style="fill:context-stroke;fill-rule:evenodd;stroke:none" transform="scale(0.7)"/></marker><marker id="z" markerHeight="1" markerWidth="1" orient="auto-start-reverse" preserveAspectRatio="xMidYMid" refX="0" refY="0" style="overflow:visible" viewBox="0 0 1 1"><path d="M-.211-4.106 6.21-.894a1 1 90 0 1 0 1.788L-.21 4.106A1.236 1.236 31.717 0 1-2 3v-6A1.236 1.236 148.283 0 1-.211-4.106" style="fill:context-stroke;fill-rule:evenodd;stroke:none" transform="scale(0.7)"/></marker><marker id="H" markerHeight="1" markerWidth="1" orient="auto-start-reverse" preserveAspectRatio="xMidYMid" refX="0" refY="0" style="overflow:visible" viewBox="0 0 1 1"><path d="M-.211-4.106 6.21-.894a1 1 90 0 1 0 1.788L-.21 4.106A1.236 1.236 31.717 0 1-2 3v-6A1.236 1.236 148.283 0 1-.211-4.106" style="fill:context-stroke;fill-rule:evenodd;stroke:none" transform="scale(0.7)"/></marker><marker id="I" markerHeight="1" markerWidth="1" orient="auto-start-reverse" preserveAspectRatio="xMidYMid" refX="0" refY="0" style="overflow:visible" viewBox="0 0 1 1"><path d="M-.211-4.106 6.21-.894a1 1 90 0 1 0 1.788L-.21 4.106A1.236 1.236 31.717 0 1-2 3v-6A1.236 1.236 148.283 0 1-.211-4.106" style="fill:context-stroke;fill-rule:evenodd;stroke:none" transform="scale(0.7)"/></marker><marker id="J" markerHeight="1" markerWidth="1" orient="auto-start-reverse" preserveAspectRatio="xMidYMid" refX="0" refY="0" style="overflow:visible" viewBox="0 0 1 1"><path d="M-.211-4.106 6.21-.894a1 1 90 0 1 0 1.788L-.21 4.106A1.236 1.236 31.717 0 1-2 3v-6A1.236 1.236 148.283 0 1-.211-4.106" style="fill:context-stroke;fill-rule:evenodd;stroke:none" transform="scale(0.7)"/></marker><marker id="K" markerHeight="1" markerWidth="1" orient="auto-start-reverse" preserveAspectRatio="xMidYMid" refX="0" refY="0" style="overflow:visible" viewBox="0 0 1 1"><path d="M-.211-4.106 6.21-.894a1 1 90 0 1 0 1.788L-.21 4.106A1.236 1.236 31.717 0 1-2 3v-6A1.236 1.236 148.283 0 1-.211-4.106" style="fill:context-stroke;fill-rule:evenodd;stroke:none" transform="scale(0.7)"/></marker><marker id="L" markerHeight="1" markerWidth="1" orient="auto-start-reverse" preserveAspectRatio="xMidYMid" refX="0" refY="0" style="overflow:visible" viewBox="0 0 1 1"><path d="M-.211-4.106 6.21-.894a1 1 90 0 1 0 1.788L-.21 4.106A1.236 1.236 31.717 0 1-2 3v-6A1.236 1.236 148.283 0 1-.211-4.106" style="fill:context-stroke;fill-rule:evenodd;stroke:none" transform="scale(0.7)"/></marker><marker id="M" markerHeight="1" markerWidth="1" orient="auto-start-reverse" preserveAspectRatio="xMidYMid" refX="0" refY="0" style="overflow:visible" viewBox="0 0 1 1"><path d="M-.211-4.106 6.21-.894a1 1 90 0 1 0 1.788L-.21 4.106A1.236 1.236 31.717 0 1-2 3v-6A1.236 1.236 148.283 0 1-.211-4.106" style="fill:context-stroke;fill-rule:evenodd;stroke:none" transform="scale(0.7)"/></marker><marker id="N" markerHeight="1" markerWidth="1" orient="auto-start-reverse" preserveAspectRatio="xMidYMid" refX="0" refY="0" style="overflow:visible" viewBox="0 0 1 1"><path d="M-.211-4.106 6.21-.894a1 1 90 0 1 0 1.788L-.21 4.106A1.236 1.236 31.717 0 1-2 3v-6A1.236 1.236 148.283 0 1-.211-4.106" style="fill:context-stroke;fill-rule:evenodd;stroke:none" transform="scale(0.7)"/></marker><marker id="O" markerHeight="1" markerWidth="1" orient="auto-start-reverse" preserveAspectRatio="xMidYMid" refX="0" refY="0" style="overflow:visible" viewBox="0 0 1 1"><path d="M-.211-4.106 6.21-.894a1 1 90 0 1 0 1.788L-.21 4.106A1.236 1.236 31.717 0 1-2 3v-6A1.236 1.236 148.283 0 1-.211-4.106" style="fill:context-stroke;fill-rule:evenodd;stroke:none" transform="scale(0.7)"/></marker><marker id="W" markerHeight="1" markerWidth="1" orient="auto-start-reverse" preserveAspectRatio="xMidYMid" refX="0" refY="0" style="overflow:visible" viewBox="0 0 1 1"><path d="M-.211-4.106 6.21-.894a1 1 90 0 1 0 1.788L-.21 4.106A1.236 1.236 31.717 0 1-2 3v-6A1.236 1.236 148.283 0 1-.211-4.106" style="fill:context-stroke;fill-rule:evenodd;stroke:none" transform="scale(0.7)"/></marker><path id="V" d="M397.661 808.231h83.54v62.222h-83.54z"/><path id="U" d="M392.927 814.607h97.033v48.925h-97.033z"/><path id="T" d="M401.474 834.38h49.246v41.787h-49.246z"/><path id="S" d="M396.291 830.551h54.771v38.921h-54.771z"/><path id="G" d="M486.536 751.299h47.518v29.784h-47.518z"/><path id="F" d="M424.65 742.723h39.605v37.504H424.65z"/><path id="E" d="M470.511 713.312h59.962v50.546h-59.962z"/><path id="D" d="M485.116 777.938h59.994v44.621h-59.994z"/><path id="C" d="M481.476 710.741h42.246v30.176h-42.246z"/><path id="B" d="M414.714 774.812h77.052v32.094h-77.052z"/><path id="A" d="M429.078 697.149h74.334v49.531h-74.334z"/><path id="p" d="M445.258 705.61h56.016v64.209h-56.016z"/><path id="b" d="M11.538 11.966h322.094V91.07H11.538z"/><path id="e" d="M348.786 275.767h64.579v35.919h-64.579z"/><path id="f" d="M348.786 275.767h64.579v35.919h-64.579z"/><path id="g" d="M348.786 275.767h64.579v35.919h-64.579z"/><path id="j" d="M348.786 275.767h64.579v35.919h-64.579z"/><path id="k" d="M55.144 1137.68h45.352v36.638H55.144z"/><path id="n" d="M348.786 275.767h64.579v35.919h-64.579z"/><path id="P" d="M414.714 774.812h77.052v32.094h-77.052z"/><path id="Q" d="M429.078 697.149h74.334v49.531h-74.334z"/><path id="a" d="M445.258 705.61h56.016v64.209h-56.016z"/><path id="R" d="M486.536 751.299h47.518v29.784h-47.518z"/></defs><path d="M29.182 215.896h109.645v69.137H29.182z" style="fill:#fff;fill-opacity:1;stroke:#fff;stroke-width:.264583"/><path d="M14.606 114.812h109.257v83.31H14.606z" style="fill:#fff;stroke:#fff;stroke-width:.264583"/><text xml:space="preserve" style="font-size:14.6667px;line-height:1.25;font-family:sans-serif;white-space:pre;shape-inside:url(#a);display:inline" transform="matrix(0.26458333,0,0,0.26458333,12.735949,62.411573)"><tspan x="445.258" y="718.588">H1</tspan></text><path d="M21.036 24.546H142.93v63.752H21.036z" style="fill:#fff;stroke:#fff;stroke-width:.264583;stroke-dasharray:none;stroke-dashoffset:0"/><circle cx="64.249" cy="54.359" r="27.757" style="fill:#d7eef4;stroke:#d7eef4;stroke-width:.264583;stroke-dasharray:none"/><text xml:space="preserve" style="font-size:14.6667px;line-height:1.25;font-family:sans-serif;white-space:pre;shape-inside:url(#b);display:inline" transform="scale(0.26458333)"><tspan x="11.537" y="24.943">base.svg</tspan></text><path d="M109.87 73.242v-3.185" style="fill:none;stroke:#000;stroke-width:.264583px;stroke-linecap:butt;stroke-linejoin:miter;stroke-opacity:1;marker-start:url(#c);marker-end:url(#c)"/><circle cx="64.249" cy="54.359" r="24.985" style="fill:#5fbcd3;stroke:#5fbcd3;stroke-width:.264583;stroke-dasharray:none"/><circle cx="64.249" cy="54.359" r="14.412" style="fill:#f9f9f9;stroke:#ccc;stroke-width:.264583;stroke-dasharray:none"/><circle cx="64.142" cy="34.274" r="2.873" style="fill:#f9f9f9;stroke:#ccc;stroke-width:.264583;stroke-dasharray:none;stroke-dashoffset:0"/><circle cx="84.227" cy="54.359" r="2.873" style="fill:#f9f9f9;stroke:#ccc;stroke-width:.264583;stroke-dasharray:none;stroke-dashoffset:0"/><circle cx="64.142" cy="74.444" r="2.873" style="fill:#f9f9f9;stroke:#ccc;stroke-width:.264583;stroke-dasharray:none;stroke-dashoffset:0"/><circle cx="44.057" cy="54.359" r="2.873" style="fill:#f9f9f9;stroke:#ccc;stroke-width:.264583;stroke-dasharray:none;stroke-dashoffset:0"/><circle cx="78.793" cy="40.344" r="2.873" style="fill:#f9f9f9;stroke:#ccc;stroke-width:.264583;stroke-dasharray:none;stroke-dashoffset:0"/><circle cx="78.793" cy="68.903" r="2.873" style="fill:#f9f9f9;stroke:#ccc;stroke-width:.264583;stroke-dasharray:none;stroke-dashoffset:0"/><circle cx="49.705" cy="68.903" r="2.873" style="fill:#f9f9f9;stroke:#ccc;stroke-width:.264583;stroke-dasharray:none;stroke-dashoffset:0"/><circle cx="49.705" cy="39.815" r="2.873" style="fill:#f9f9f9;stroke:#ccc;stroke-width:.264583;stroke-dasharray:none;stroke-dashoffset:0"/><circle cx="64.142" cy="54.359" r="20.085" style="fill:none;stroke:#ccc;stroke-width:.264583;stroke-dasharray:2,1;stroke-dashoffset:0"/><path d="M64.25 29.374h55.936M64.25 79.61h55.936M64.25 69.035h45.51M64.25 39.948h36.213M64.173 74.443h45.728" style="fill:#ccc;stroke:#ccc;stroke-width:.264583px;stroke-linecap:butt;stroke-linejoin:miter;stroke-opacity:1"/><path d="M120.186 77.921v-46.86" style="fill:none;stroke:#000;stroke-width:.264582px;stroke-linecap:butt;stroke-linejoin:miter;stroke-opacity:1;marker-start:url(#d);marker-end:url(#d)"/><text xml:space="preserve" style="font-size:14.6667px;line-height:1.25;font-family:sans-serif;white-space:pre;shape-inside:url(#e);display:inline" transform="matrix(0.26458333,0,0,0.26458333,28.307136,-20.491)"><tspan x="348.785" y="288.744">D1</tspan></text><text xml:space="preserve" style="font-size:14.6667px;line-height:1.25;font-family:sans-serif;white-space:pre;shape-inside:url(#f);display:inline" transform="matrix(0.26458333,0,0,0.26458333,8.6919901,-21.18194)"><tspan x="348.785" y="288.744">D3</tspan></text><text xml:space="preserve" style="font-size:14.6667px;line-height:1.25;font-family:sans-serif;white-space:pre;shape-inside:url(#g);display:inline" transform="matrix(0.26458333,0,0,0.26458333,18.519177,-3.1764197)"><tspan x="348.785" y="288.744">L1</tspan></text><path d="M100.463 67.932V41.05" style="fill:none;stroke:#000;stroke-width:.264583px;stroke-linecap:butt;stroke-linejoin:miter;stroke-opacity:1;marker-start:url(#h);marker-end:url(#h)"/><path d="M29.053 51.487h15.004M29.053 57.232h15.004" style="fill:#ccc;stroke:#ccc;stroke-width:.264583px;stroke-linecap:butt;stroke-linejoin:miter;stroke-opacity:1"/><path d="M29.053 56.056v-3.184" style="fill:none;stroke:#000;stroke-width:.264583px;stroke-linecap:butt;stroke-linejoin:miter;stroke-opacity:1;marker-start:url(#i);marker-end:url(#i)"/><text xml:space="preserve" style="font-size:14.6667px;line-height:1.25;font-family:sans-serif;white-space:pre;shape-inside:url(#j);display:inline" transform="matrix(0.26458333,0,0,0.26458333,-69.816228,-20.52032)"><tspan x="348.785" y="288.744">D5</tspan></text><text xml:space="preserve" style="font-size:14.6667px;line-height:1.25;font-family:sans-serif;white-space:pre;shape-inside:url(#k);display:inline" transform="matrix(0.26458333,0,0,0.26458333,18.234245,-224.4538)"><tspan x="55.145" y="1150.656">N1</tspan></text><path d="m38.617 78.54 7.74-6.497" style="fill:none;stroke:#000;stroke-width:.264583px;stroke-linecap:butt;stroke-linejoin:miter;stroke-opacity:1;marker-end:url(#l)"/><path d="M64.25 26.338h70.858M64.25 82.116h70.858" style="fill:#ccc;stroke:#ccc;stroke-width:.264583px;stroke-linecap:butt;stroke-linejoin:miter;stroke-opacity:1"/><path d="M135.108 80.575V27.879" style="fill:none;stroke:#000;stroke-width:.264582px;stroke-linecap:butt;stroke-linejoin:miter;stroke-opacity:1;marker-start:url(#m);marker-end:url(#m)"/><text xml:space="preserve" style="font-size:14.6667px;line-height:1.25;font-family:sans-serif;white-space:pre;shape-inside:url(#n);display:inline" transform="matrix(0.26458333,0,0,0.26458333,43.590426,-21.641547)"><tspan x="348.785" y="288.744">D2</tspan></text><path d="M45.557 144.487h11.031v3.974H45.557z" style="fill:#5fbcd3;stroke:#5fbcd3;stroke-width:.264583"/><path d="M45.557 144.487h3.365v22.071h-3.365z" style="fill:#5fbcd3;stroke:#5fbcd3;stroke-width:.264582"/><path d="M36.291 166.822h17.226v3.974H36.291z" style="fill:#5fbcd3;stroke:#5fbcd3;stroke-width:.264583"/><path d="M-89.579 144.487h11.031v3.974h-11.031z" style="fill:#5fbcd3;stroke:#5fbcd3;stroke-width:.264583" transform="scale(-1,1)"/><path d="M-89.579 144.487h3.365v22.071h-3.365z" style="fill:#5fbcd3;stroke:#5fbcd3;stroke-width:.264582" transform="scale(-1,1)"/><path d="M-98.845 166.822h17.226v3.974h-17.226z" style="fill:#5fbcd3;stroke:#5fbcd3;stroke-width:.264583" transform="scale(-1,1)"/><path d="M98.978 170.796h15.333M89.711 144.487h24.6" style="fill:#ccc;stroke:#ccc;stroke-width:.264583px;stroke-linecap:butt;stroke-linejoin:miter;stroke-opacity:1"/><path d="M114.311 169.695v-23.823" style="fill:none;stroke:#000;stroke-width:.264583px;stroke-linecap:butt;stroke-linejoin:miter;stroke-opacity:1;marker-start:url(#o);marker-end:url(#o)"/><text xml:space="preserve" style="font-size:14.6667px;line-height:1.25;font-family:sans-serif;white-space:pre;shape-inside:url(#p);display:inline" transform="matrix(0.26458333,0,0,0.26458333,-2.6364509,-31.568187)"><tspan x="445.258" y="718.588">H1</tspan></text><path d="M24.337 170.796h11.821M24.337 166.822h11.821" style="fill:#ccc;stroke:#ccc;stroke-width:.264583px;stroke-linecap:butt;stroke-linejoin:miter;stroke-opacity:1"/><path d="M24.337 175.582v-3.4" style="fill:none;stroke:#000;stroke-width:.264583px;stroke-linecap:butt;stroke-linejoin:miter;stroke-opacity:1;marker-end:url(#q)"/><path d="M24.337 162.3v3.402" style="fill:none;stroke:#000;stroke-width:.264583px;stroke-linecap:butt;stroke-linejoin:miter;stroke-opacity:1;marker-end:url(#r)"/><path d="M37.234 148.46h11.82M37.234 144.487h11.82" style="fill:#ccc;stroke:#ccc;stroke-width:.264583px;stroke-linecap:butt;stroke-linejoin:miter;stroke-opacity:1"/><path d="M37.234 153.247v-3.401" style="fill:none;stroke:#000;stroke-width:.264583px;stroke-linecap:butt;stroke-linejoin:miter;stroke-opacity:1;marker-end:url(#s)"/><path d="M37.234 139.965v3.401" style="fill:none;stroke:#000;stroke-width:.264583px;stroke-linecap:butt;stroke-linejoin:miter;stroke-opacity:1;marker-end:url(#t)"/><path d="M56.588 144.354v-11.82M78.548 144.354v-11.82" style="fill:#ccc;stroke:#ccc;stroke-width:.264583px;stroke-linecap:butt;stroke-linejoin:miter;stroke-opacity:1"/><path d="M77.11 132.533H58.026" style="fill:none;stroke:#000;stroke-width:.264584px;stroke-linecap:butt;stroke-linejoin:miter;stroke-opacity:1;marker-start:url(#u);marker-end:url(#u)"/><path d="M45.425 144.354v-23.183M89.579 144.354v-23.183" style="fill:#ccc;stroke:#ccc;stroke-width:.264583px;stroke-linecap:butt;stroke-linejoin:miter;stroke-opacity:1"/><path d="M88.18 120.905H46.592" style="fill:none;stroke:#000;stroke-width:.264585px;stroke-linecap:butt;stroke-linejoin:miter;stroke-opacity:1;marker-start:url(#v);marker-end:url(#v)"/><path d="M53.517 182.75v-11.822M81.62 182.617v-11.82" style="fill:#ccc;stroke:#ccc;stroke-width:.264583px;stroke-linecap:butt;stroke-linejoin:miter;stroke-opacity:1"/><path d="M80.18 182.75H54.843" style="fill:none;stroke:#000;stroke-width:.264584px;stroke-linecap:butt;stroke-linejoin:miter;stroke-opacity:1;marker-start:url(#w);marker-end:url(#w)"/><path d="M36.29 194.112v-23.184M98.845 194.112v-23.184" style="fill:#ccc;stroke:#ccc;stroke-width:.264583px;stroke-linecap:butt;stroke-linejoin:miter;stroke-opacity:1"/><path d="M97.488 194.112h-59.84" style="fill:none;stroke:#000;stroke-width:.264585px;stroke-linecap:butt;stroke-linejoin:miter;stroke-opacity:1;marker-start:url(#x);marker-end:url(#x)"/><path d="M81.428 155.522h3.4" style="fill:none;stroke:#000;stroke-width:.264583px;stroke-linecap:butt;stroke-linejoin:miter;stroke-opacity:1;marker-end:url(#y)"/><path d="M94.038 155.522h-3.4" style="fill:none;stroke:#000;stroke-width:.264583px;stroke-linecap:butt;stroke-linejoin:miter;stroke-opacity:1;marker-end:url(#z)"/><text xml:space="preserve" style="font-size:14.6667px;line-height:1.25;font-family:sans-serif;white-space:pre;shape-inside:url(#A);display:inline" transform="matrix(0.26458333,0,0,0.26458333,-48.732362,-68.137746)"><tspan x="429.078" y="710.125">D1</tspan></text><text xml:space="preserve" style="font-size:14.6667px;line-height:1.25;font-family:sans-serif;white-space:pre;shape-inside:url(#B);display:inline" transform="matrix(0.26458333,0,0,0.26458333,-45.39432,-15.151006)"><tspan x="414.715" y="787.789">D2</tspan></text><text xml:space="preserve" style="font-size:14.6667px;line-height:1.25;font-family:sans-serif;white-space:pre;shape-inside:url(#C);display:inline" transform="matrix(0.26458333,0,0,0.26458333,-63.027795,-59.5551)"><tspan x="481.475" y="723.719">D3</tspan></text><text xml:space="preserve" style="font-size:14.6667px;line-height:1.25;font-family:sans-serif;white-space:pre;shape-inside:url(#D);display:inline" transform="matrix(0.26458333,0,0,0.26458333,-63.556054,-27.032332)"><tspan x="485.117" y="790.914">D4</tspan></text><text xml:space="preserve" style="font-size:14.6667px;line-height:1.25;font-family:sans-serif;white-space:pre;shape-inside:url(#E);display:inline" transform="matrix(0.26458333,0,0,0.26458333,-93.961644,-44.741075)"><tspan x="470.512" y="726.289">E1</tspan></text><text xml:space="preserve" style="font-size:14.6667px;line-height:1.25;font-family:sans-serif;white-space:pre;shape-inside:url(#F);display:inline" transform="matrix(0.26458333,0,0,0.26458333,-17.864113,-43.413179)"><tspan x="424.65" y="755.699">E2</tspan></text><text xml:space="preserve" style="font-size:14.6667px;line-height:1.25;font-family:sans-serif;white-space:pre;shape-inside:url(#G);display:inline" transform="matrix(0.26458333,0,0,0.26458333,-111.12418,-32.073921)"><tspan x="486.535" y="764.275">E3</tspan></text><path d="M45.318 237.836h11.031v3.974H45.318z" style="fill:#b7c4c8;stroke:#b7c4c8;stroke-width:.264583"/><path d="M45.318 237.836h3.365v22.071h-3.365z" style="fill:#b7c4c8;stroke:#b7c4c8;stroke-width:.264582"/><path d="M36.051 260.172h17.226v3.974H36.051z" style="fill:#5fbcd3;stroke:#5fbcd3;stroke-width:.264583"/><path d="M-89.339 237.836h11.031v3.974h-11.031z" style="fill:#b7c4c8;stroke:#b7c4c8;stroke-width:.264583" transform="scale(-1,1)"/><path d="M-89.339 237.836h3.365v22.071h-3.365z" style="fill:#b7c4c8;stroke:#b7c4c8;stroke-width:.264582" transform="scale(-1,1)"/><path d="M-98.606 260.172h17.226v3.974h-17.226z" style="fill:#5fbcd3;stroke:#5fbcd3;stroke-width:.264583" transform="scale(-1,1)"/><path d="M36.051 260.172h62.555v3.974H36.051z" style="fill:#93a7ac;stroke:#93a7ac;stroke-width:.264584"/><path d="M45.318 237.836H89.34v22.071H45.318z" style="fill:#dbe2e3;stroke:#dbe2e3;stroke-width:.264582;fill-opacity:.80000001"/><circle cx="144.661" cy="305.674" r="2.813" style="fill:#dbe2e3;fill-opacity:.8;stroke:#b7c4c8;stroke-width:.264583"/><circle cx="144.661" cy="313.152" r="2.813" style="fill:#dbe2e3;fill-opacity:.8;stroke:#b7c4c8;stroke-width:.264583"/><path d="M141.847 305.674h5.626v7.346h-5.626z" style="fill:#dbe2e3;fill-opacity:.8;stroke:#b7c4c8;stroke-width:.264583"/><path d="M64.515 247.499s.106-.902.315-1.293a2.9 2.9 0 0 1 .999-1.087c.442-.274.98-.447 1.5-.433.612.015 1.234.248 1.736.6.34.238.603.595.787.969.187.382.29 1.244.29 1.244v7.478s-.095.845-.278 1.22c-.195.397-.477.775-.84 1.026-.491.338-1.101.525-1.696.568a2.1 2.1 0 0 1-.99-.18c-.528-.24-1.04-.603-1.36-1.087-.32-.485-.463-1.679-.463-1.679V247.5M72.258 247.565s.095-.902.282-1.293c.208-.434.52-.828.894-1.087.396-.274.876-.447 1.342-.433.547.015 1.104.248 1.553.6.305.238.54.595.704.969.168.382.26 1.244.26 1.244v7.479s-.085.844-.249 1.219c-.174.397-.426.775-.752 1.026a2.9 2.9 0 0 1-1.516.568c-.3.024-.613-.041-.887-.18-.472-.24-.93-.603-1.216-1.087-.286-.485-.415-1.679-.415-1.679v-7.346M79.41 247.631s.082-.902.246-1.293c.182-.434.455-.828.783-1.087.346-.274.767-.447 1.174-.433.48.016.967.248 1.36.6.267.238.473.595.616.969.147.382.227 1.244.227 1.244v7.479s-.074.845-.217 1.22c-.153.396-.374.774-.659 1.025a2.34 2.34 0 0 1-1.327.568 1.3 1.3 0 0 1-.776-.18 2.74 2.74 0 0 1-1.065-1.087c-.25-.485-.362-1.679-.362-1.679v-7.346M85.404 247.631s.052-.902.155-1.293c.115-.434.287-.828.494-1.087.219-.274.484-.447.742-.433.302.016.61.248.858.6.169.238.299.595.39.969.092.382.142 1.244.142 1.244v7.479s-.046.845-.137 1.22c-.096.396-.236.774-.415 1.025-.243.338-.545.525-.838.568-.166.024-.339-.041-.49-.18a2.54 2.54 0 0 1-.672-1.087c-.158-.485-.23-1.679-.23-1.679v-7.346M62.56 247.217s-.094-.902-.282-1.293c-.207-.434-.519-.828-.893-1.087-.396-.274-.877-.447-1.342-.433-.548.015-1.105.248-1.554.6-.305.238-.54.595-.704.969-.168.382-.26 1.244-.26 1.244v7.478s.085.845.25 1.22c.173.397.426.775.751 1.026.439.338.985.525 1.517.568.3.024.613-.042.886-.18.473-.24.931-.603 1.217-1.088.286-.484.414-1.678.414-1.678v-7.346M55.409 247.283s-.083-.902-.247-1.293c-.181-.434-.454-.828-.782-1.087-.346-.274-.767-.447-1.174-.433-.48.015-.967.248-1.36.6-.267.238-.473.595-.617.969-.146.382-.227 1.244-.227 1.244v7.478s.074.845.218 1.22c.152.397.373.775.658 1.026.384.338.862.525 1.328.568a1.3 1.3 0 0 0 .775-.18c.414-.24.815-.603 1.065-1.087.25-.485.363-1.679.363-1.679v-7.346M49.415 247.283s-.053-.902-.156-1.293c-.115-.434-.287-.828-.494-1.087-.218-.274-.484-.447-.741-.433-.303.015-.61.248-.858.6-.169.238-.299.595-.39.969-.092.382-.143 1.244-.143 1.244v7.478s.047.845.137 1.22c.097.397.236.775.416 1.026.242.338.544.525.838.568.165.024.339-.041.49-.18a2.54 2.54 0 0 0 .672-1.087c.158-.485.229-1.679.229-1.679v-7.346" style="fill:#d7eef4;stroke:#216778;stroke-width:.264583px;stroke-linecap:butt;stroke-linejoin:miter;stroke-opacity:1"/><path d="M45.318 222.392v15.312M89.34 222.392v15.312M89.472 237.836h40.668M89.34 259.907h29.219M98.738 264.41h31.341M36.051 264.278v15.313M98.606 264.543v15.312" style="fill:#ccc;stroke:#ccc;stroke-width:.264583px;stroke-linecap:butt;stroke-linejoin:miter;stroke-opacity:1"/><path d="M97.275 279.59H37.436" style="fill:none;stroke:#000;stroke-width:.264585px;stroke-linecap:butt;stroke-linejoin:miter;stroke-opacity:1;marker-start:url(#H);marker-end:url(#H)"/><path d="M87.965 222.392H46.681" style="fill:none;stroke:#000;stroke-width:.264585px;stroke-linecap:butt;stroke-linejoin:miter;stroke-opacity:1;marker-start:url(#I);marker-end:url(#I)"/><path d="M64.677 232.167v15.313M70.142 232.167v15.313" style="fill:#ccc;stroke:#ccc;stroke-width:.264583px;stroke-linecap:butt;stroke-linejoin:miter;stroke-opacity:1"/><path d="M69.026 232.167h-3.23" style="fill:none;stroke:#000;stroke-width:.264585px;stroke-linecap:butt;stroke-linejoin:miter;stroke-opacity:1;marker-start:url(#J);marker-end:url(#J)"/><path d="M86.795 244.685h12.587M86.795 258.06h31.764" style="fill:#ccc;stroke:#ccc;stroke-width:.264583px;stroke-linecap:butt;stroke-linejoin:miter;stroke-opacity:1"/><path d="M99.382 246.193v10.359" style="fill:none;stroke:#000;stroke-width:.264585px;stroke-linecap:butt;stroke-linejoin:miter;stroke-opacity:1;marker-start:url(#K);marker-end:url(#K)"/><path d="M109.138 263.215v-2.12" style="fill:none;stroke:#000;stroke-width:.264583px;stroke-linecap:butt;stroke-linejoin:miter;stroke-opacity:1;marker-end:url(#L)"/><path d="M109.138 253.274v3.401" style="fill:none;stroke:#000;stroke-width:.264583px;stroke-linecap:butt;stroke-linejoin:miter;stroke-opacity:1;marker-end:url(#M)"/><path d="M130.14 239.203v23.84" style="fill:none;stroke:#000;stroke-width:.264585px;stroke-linecap:butt;stroke-linejoin:miter;stroke-opacity:1;marker-start:url(#N);marker-end:url(#N)"/><path d="M118.559 261.179v2.101" style="fill:none;stroke:#000;stroke-width:.264585px;stroke-linecap:butt;stroke-linejoin:miter;stroke-opacity:1;marker-start:url(#O);marker-end:url(#O)"/><text xml:space="preserve" style="font-size:14.6667px;line-height:1.25;font-family:sans-serif;white-space:pre;shape-inside:url(#P);display:inline" transform="matrix(0.26458333,0,0,0.26458333,-45.008551,69.894117)"><tspan x="414.715" y="787.789">D2</tspan></text><text xml:space="preserve" style="font-size:14.6667px;line-height:1.25;font-family:sans-serif;white-space:pre;shape-inside:url(#Q);display:inline" transform="matrix(0.26458333,0,0,0.26458333,-48.681669,33.277111)"><tspan x="429.078" y="710.125">D1</tspan></text><text xml:space="preserve" style="font-size:14.6667px;line-height:1.25;font-family:sans-serif;white-space:pre;shape-inside:url(#R);display:inline" transform="matrix(0.26458333,0,0,0.26458333,-8.6942566,61.427323)"><tspan x="486.535" y="764.275">E3</tspan></text><text xml:space="preserve" style="font-size:14.6667px;line-height:1.25;font-family:sans-serif;white-space:pre;shape-inside:url(#S)" transform="matrix(0.26458333,0,0,0.26458333,4.618291,31.67272)"><tspan x="396.291" y="843.527">H2</tspan></text><text xml:space="preserve" style="font-size:14.6667px;line-height:1.25;font-family:sans-serif;white-space:pre;shape-inside:url(#T)" transform="matrix(0.26458333,0,0,0.26458333,-6.3743188,28.488668)"><tspan x="401.475" y="847.356">H3</tspan></text><text xml:space="preserve" style="font-size:14.6667px;line-height:1.25;font-family:sans-serif;white-space:pre;shape-inside:url(#U)" transform="matrix(0.26458333,0,0,0.26458333,-38.576679,11.35445)"><tspan x="392.928" y="827.584">L2</tspan></text><text xml:space="preserve" style="font-size:14.6667px;line-height:1.25;font-family:sans-serif;white-space:pre;shape-inside:url(#V)" transform="matrix(0.26458333,0,0,0.26458333,-69.602369,17.862042)"><tspan x="397.662" y="821.207">N2</tspan></text><path d="m40.139 236.176 6.425 7.304" style="fill:none;stroke:#000;stroke-width:.26458333;stroke-linecap:butt;stroke-linejoin:miter;stroke-opacity:1;marker-end:url(#c)"/><path d="m39.928 235.81 10.176 7.773" style="fill:none;stroke:#000;stroke-width:.264583;stroke-linecap:butt;stroke-linejoin:miter;stroke-opacity:1;marker-end:url(#W)"/></svg>