<svg xmlns="http://www.w3.org/2000/svg" width="517.524" height="199.388" viewBox="0 0 136.928 52.755"><defs><marker id="b" markerHeight="1" markerWidth="1" orient="auto-start-reverse" preserveAspectRatio="xMidYMid" refX="0" refY="0" style="overflow:visible" viewBox="0 0 1 1"><path d="M-.211-4.106 6.21-.894a1 1 90 0 1 0 1.788L-.21 4.106A1.236 1.236 31.717 0 1-2 3v-6A1.236 1.236 148.283 0 1-.211-4.106z" style="fill:context-stroke;fill-rule:evenodd;stroke:none" transform="scale(0.7)"/></marker><marker id="c" markerHeight="1" markerWidth="1" orient="auto-start-reverse" preserveAspectRatio="xMidYMid" refX="0" refY="0" style="overflow:visible" viewBox="0 0 1 1"><path d="M-.211-4.106 6.21-.894a1 1 90 0 1 0 1.788L-.21 4.106A1.236 1.236 31.717 0 1-2 3v-6A1.236 1.236 148.283 0 1-.211-4.106z" style="fill:context-stroke;fill-rule:evenodd;stroke:none" transform="scale(0.7)"/></marker><marker id="e" markerHeight="1" markerWidth="1" orient="auto-start-reverse" preserveAspectRatio="xMidYMid" refX="0" refY="0" style="overflow:visible" viewBox="0 0 1 1"><path d="M-.211-4.106 6.21-.894a1 1 90 0 1 0 1.788L-.21 4.106A1.236 1.236 31.717 0 1-2 3v-6A1.236 1.236 148.283 0 1-.211-4.106z" style="fill:context-stroke;fill-rule:evenodd;stroke:none" transform="scale(0.7)"/></marker><marker id="f" markerHeight="1" markerWidth="1" orient="auto-start-reverse" preserveAspectRatio="xMidYMid" refX="0" refY="0" style="overflow:visible" viewBox="0 0 1 1"><path d="M-.211-4.106 6.21-.894a1 1 90 0 1 0 1.788L-.21 4.106A1.236 1.236 31.717 0 1-2 3v-6A1.236 1.236 148.283 0 1-.211-4.106z" style="fill:context-stroke;fill-rule:evenodd;stroke:none" transform="scale(0.7)"/></marker><marker id="g" markerHeight="1" markerWidth="1" orient="auto-start-reverse" preserveAspectRatio="xMidYMid" refX="0" refY="0" style="overflow:visible" viewBox="0 0 1 1"><path d="M-.211-4.106 6.21-.894a1 1 90 0 1 0 1.788L-.21 4.106A1.236 1.236 31.717 0 1-2 3v-6A1.236 1.236 148.283 0 1-.211-4.106z" style="fill:context-stroke;fill-rule:evenodd;stroke:none" transform="scale(0.7)"/></marker><marker id="h" markerHeight="1" markerWidth="1" orient="auto-start-reverse" preserveAspectRatio="xMidYMid" refX="0" refY="0" style="overflow:visible" viewBox="0 0 1 1"><path d="M-.211-4.106 6.21-.894a1 1 90 0 1 0 1.788L-.21 4.106A1.236 1.236 31.717 0 1-2 3v-6A1.236 1.236 148.283 0 1-.211-4.106z" style="fill:context-stroke;fill-rule:evenodd;stroke:none" transform="scale(0.7)"/></marker><path id="d" d="M357.078 143.808h211.558v54.354H357.078z"/><path id="a" d="M119.841 108.3h129.591v29.917H119.841z"/></defs><path d="M14.791 24.35h136.664v52.49H14.791z" style="fill:#fff;stroke:#fff;stroke-width:.264583" transform="translate(-14.658254,-24.217316)"/><path d="M20.25 68.014h65.778v4.541H20.25z" style="fill:#999;stroke:#999;stroke-width:.264583" transform="translate(-14.658254,-24.217316)"/><path d="M-72.555 20.25h4.541v13.718h-4.541zM-72.555 72.31h4.541v13.718h-4.541z" style="fill:#999;stroke:#999;stroke-width:.264583" transform="translate(-14.658254,-24.217316) rotate(-90)"/><path d="M33.967 45.51H72.31v8.521H33.967zM31.84 45.51h1.862v8.521H31.84zM74.702 42.221h4.541v15.1h-4.541zM27.035 42.221h4.541v15.1h-4.541zM72.575 45.51h1.862v8.521h-1.862z" style="fill:#ccc;stroke:#ccc;stroke-width:.264583" transform="translate(-14.658254,-24.217316)"/><path d="M83.277 43.137h2.75v24.877h-2.75zM20.25 42.872H23v24.877h-2.75z" style="fill:#999;stroke:#999;stroke-width:.264583" transform="translate(-14.658254,-24.217316)"/><path d="M23.265 42.872h3.632v1.942h-3.632zM23.265 54.34h3.632v1.942h-3.632zM23.265 46.529h3.632v1.942h-3.632zM23.265 50.186h3.632v1.942h-3.632zM79.38 43.137h3.632v1.942H79.38zM79.38 54.604h3.632v1.942H79.38zM79.38 46.794h3.632v1.942H79.38zM79.38 50.451h3.632v1.942H79.38z" style="fill:#333;stroke:#333;stroke-width:.264583" transform="translate(-14.658254,-24.217316)"/><text xml:space="preserve" style="font-size:14.6667px;line-height:1.25;font-family:sans-serif;white-space:pre;shape-inside:url(#a);display:inline" transform="translate(-14.658254,-24.217316) scale(0.26458333)"><tspan x="119.842" y="121.277">Nb of gear-rings</tspan></text><path d="m31.245 40.425 3.793-7.478" style="fill:none;stroke:#000;stroke-width:.264583px;stroke-linecap:butt;stroke-linejoin:miter;stroke-opacity:1;marker-start:url(#b)" transform="translate(-14.658254,-24.217316)"/><path d="m72.657 41.787-36.135-8.536" style="fill:none;stroke:#000;stroke-width:.264583px;stroke-linecap:butt;stroke-linejoin:miter;stroke-opacity:1;marker-start:url(#c)" transform="translate(-14.658254,-24.217316)"/><text xml:space="preserve" style="font-size:14.6667px;line-height:1.25;font-family:sans-serif;white-space:pre;shape-inside:url(#d);display:inline" transform="translate(-14.658254,-24.217316) matrix(0.26458333,0,0,0.26458333,2.7510875,1.3285873)"><tspan x="357.078" y="156.785">Nb of gear-wheels / motors
</tspan><tspan x="357.078" y="175.119">per gear-rings</tspan></text><path d="m85.27 44.514 10.161-2.059" style="fill:none;stroke:#000;stroke-width:.264583px;stroke-linecap:butt;stroke-linejoin:miter;stroke-opacity:1;marker-start:url(#e)" transform="translate(-14.658254,-24.217316)"/><path d="m84.652 55.157 12.09-12.62" style="fill:none;stroke:#000;stroke-width:.264583px;stroke-linecap:butt;stroke-linejoin:miter;stroke-opacity:1;marker-start:url(#f)" transform="translate(-14.658254,-24.217316)"/><path d="m84.94 47.43 10.179-4.745" style="fill:none;stroke:#000;stroke-width:.264583px;stroke-linecap:butt;stroke-linejoin:miter;stroke-opacity:1;marker-start:url(#g)" transform="translate(-14.658254,-24.217316)"/><path d="m85.106 50.843 10.624-7.94" style="fill:none;stroke:#000;stroke-width:.264583px;stroke-linecap:butt;stroke-linejoin:miter;stroke-opacity:1;marker-start:url(#h)" transform="translate(-14.658254,-24.217316)"/><path d="M33.967 44.053h4.541v23.961h-4.541zM67.769 44.053h4.541v23.961h-4.541z" style="fill:#999;stroke:#999;stroke-width:.264582" transform="translate(-14.658254,-24.217316)"/></svg>