<svg xmlns="http://www.w3.org/2000/svg" width="413.94" height="315.873" viewBox="0 0 109.522 83.575"><defs><marker id="a" markerHeight="1" markerWidth="1" orient="auto-start-reverse" preserveAspectRatio="xMidYMid" refX="0" refY="0" style="overflow:visible" viewBox="0 0 1 1"><path d="M-.211-4.106 6.21-.894a1 1 90 0 1 0 1.788L-.21 4.106A1.236 1.236 31.717 0 1-2 3v-6A1.236 1.236 148.283 0 1-.211-4.106" style="fill:context-stroke;fill-rule:evenodd;stroke:none" transform="scale(.7)"/></marker><marker id="c" markerHeight="1" markerWidth="1" orient="auto-start-reverse" preserveAspectRatio="xMidYMid" refX="0" refY="0" style="overflow:visible" viewBox="0 0 1 1"><path d="M-.211-4.106 6.21-.894a1 1 90 0 1 0 1.788L-.21 4.106A1.236 1.236 31.717 0 1-2 3v-6A1.236 1.236 148.283 0 1-.211-4.106" style="fill:context-stroke;fill-rule:evenodd;stroke:none" transform="scale(.7)"/></marker><marker id="d" markerHeight="1" markerWidth="1" orient="auto-start-reverse" preserveAspectRatio="xMidYMid" refX="0" refY="0" style="overflow:visible" viewBox="0 0 1 1"><path d="M-.211-4.106 6.21-.894a1 1 90 0 1 0 1.788L-.21 4.106A1.236 1.236 31.717 0 1-2 3v-6A1.236 1.236 148.283 0 1-.211-4.106" style="fill:context-stroke;fill-rule:evenodd;stroke:none" transform="scale(.7)"/></marker><marker id="e" markerHeight="1" markerWidth="1" orient="auto-start-reverse" preserveAspectRatio="xMidYMid" refX="0" refY="0" style="overflow:visible" viewBox="0 0 1 1"><path d="M-.211-4.106 6.21-.894a1 1 90 0 1 0 1.788L-.21 4.106A1.236 1.236 31.717 0 1-2 3v-6A1.236 1.236 148.283 0 1-.211-4.106" style="fill:context-stroke;fill-rule:evenodd;stroke:none" transform="scale(.7)"/></marker><marker id="f" markerHeight="1" markerWidth="1" orient="auto-start-reverse" preserveAspectRatio="xMidYMid" refX="0" refY="0" style="overflow:visible" viewBox="0 0 1 1"><path d="M-.211-4.106 6.21-.894a1 1 90 0 1 0 1.788L-.21 4.106A1.236 1.236 31.717 0 1-2 3v-6A1.236 1.236 148.283 0 1-.211-4.106" style="fill:context-stroke;fill-rule:evenodd;stroke:none" transform="scale(.7)"/></marker><marker id="g" markerHeight="1" markerWidth="1" orient="auto-start-reverse" preserveAspectRatio="xMidYMid" refX="0" refY="0" style="overflow:visible" viewBox="0 0 1 1"><path d="M-.211-4.106 6.21-.894a1 1 90 0 1 0 1.788L-.21 4.106A1.236 1.236 31.717 0 1-2 3v-6A1.236 1.236 148.283 0 1-.211-4.106" style="fill:context-stroke;fill-rule:evenodd;stroke:none" transform="scale(.7)"/></marker><marker id="h" markerHeight="1" markerWidth="1" orient="auto-start-reverse" preserveAspectRatio="xMidYMid" refX="0" refY="0" style="overflow:visible" viewBox="0 0 1 1"><path d="M-.211-4.106 6.21-.894a1 1 90 0 1 0 1.788L-.21 4.106A1.236 1.236 31.717 0 1-2 3v-6A1.236 1.236 148.283 0 1-.211-4.106" style="fill:context-stroke;fill-rule:evenodd;stroke:none" transform="scale(.7)"/></marker><marker id="i" markerHeight="1" markerWidth="1" orient="auto-start-reverse" preserveAspectRatio="xMidYMid" refX="0" refY="0" style="overflow:visible" viewBox="0 0 1 1"><path d="M-.211-4.106 6.21-.894a1 1 90 0 1 0 1.788L-.21 4.106A1.236 1.236 31.717 0 1-2 3v-6A1.236 1.236 148.283 0 1-.211-4.106" style="fill:context-stroke;fill-rule:evenodd;stroke:none" transform="scale(.7)"/></marker><marker id="j" markerHeight="1" markerWidth="1" orient="auto-start-reverse" preserveAspectRatio="xMidYMid" refX="0" refY="0" style="overflow:visible" viewBox="0 0 1 1"><path d="M-.211-4.106 6.21-.894a1 1 90 0 1 0 1.788L-.21 4.106A1.236 1.236 31.717 0 1-2 3v-6A1.236 1.236 148.283 0 1-.211-4.106" style="fill:context-stroke;fill-rule:evenodd;stroke:none" transform="scale(.7)"/></marker><marker id="k" markerHeight="1" markerWidth="1" orient="auto-start-reverse" preserveAspectRatio="xMidYMid" refX="0" refY="0" style="overflow:visible" viewBox="0 0 1 1"><path d="M-.211-4.106 6.21-.894a1 1 90 0 1 0 1.788L-.21 4.106A1.236 1.236 31.717 0 1-2 3v-6A1.236 1.236 148.283 0 1-.211-4.106" style="fill:context-stroke;fill-rule:evenodd;stroke:none" transform="scale(.7)"/></marker><marker id="l" markerHeight="1" markerWidth="1" orient="auto-start-reverse" preserveAspectRatio="xMidYMid" refX="0" refY="0" style="overflow:visible" viewBox="0 0 1 1"><path d="M-.211-4.106 6.21-.894a1 1 90 0 1 0 1.788L-.21 4.106A1.236 1.236 31.717 0 1-2 3v-6A1.236 1.236 148.283 0 1-.211-4.106" style="fill:context-stroke;fill-rule:evenodd;stroke:none" transform="scale(.7)"/></marker><path id="s" d="M486.536 751.299h47.518v29.784h-47.518z"/><path id="r" d="M424.65 742.723h39.605v37.504H424.65z"/><path id="q" d="M470.511 713.312h59.962v50.546h-59.962z"/><path id="p" d="M485.116 777.938h59.994v44.621h-59.994z"/><path id="o" d="M481.475 710.741h42.246v30.176h-42.246z"/><path id="n" d="M414.714 774.812h77.052v32.094h-77.052z"/><path id="m" d="M429.078 697.149h74.334v49.531h-74.334z"/><path id="b" d="M445.258 705.61h56.016v64.209h-56.016z"/></defs><path d="M14.606 114.812h109.257v83.31H14.606z" style="fill:#fff;stroke:#fff;stroke-width:.264583" transform="translate(-14.474 -114.68)"/><path d="M45.557 144.487h11.031v3.974H45.557z" style="fill:#5fbcd3;stroke:#5fbcd3;stroke-width:.264583" transform="translate(-14.474 -114.68)"/><path d="M45.557 144.487h3.365v22.071h-3.365z" style="fill:#5fbcd3;stroke:#5fbcd3;stroke-width:.264582" transform="translate(-14.474 -114.68)"/><path d="M36.291 166.822h17.226v3.974H36.291z" style="fill:#5fbcd3;stroke:#5fbcd3;stroke-width:.264583" transform="translate(-14.474 -114.68)"/><path d="M-89.579 144.487h11.031v3.974h-11.031z" style="fill:#5fbcd3;stroke:#5fbcd3;stroke-width:.264583" transform="matrix(-1 0 0 1 -14.474 -114.68)"/><path d="M-89.579 144.487h3.365v22.071h-3.365z" style="fill:#5fbcd3;stroke:#5fbcd3;stroke-width:.264582" transform="matrix(-1 0 0 1 -14.474 -114.68)"/><path d="M-98.845 166.822h17.226v3.974h-17.226z" style="fill:#5fbcd3;stroke:#5fbcd3;stroke-width:.264583" transform="matrix(-1 0 0 1 -14.474 -114.68)"/><path d="M98.978 170.796h15.333M89.711 144.487h24.6" style="fill:#ccc;stroke:#ccc;stroke-width:.264583px;stroke-linecap:butt;stroke-linejoin:miter;stroke-opacity:1" transform="translate(-14.474 -114.68)"/><path d="M114.311 169.695v-23.823" style="fill:none;stroke:#000;stroke-width:.264583px;stroke-linecap:butt;stroke-linejoin:miter;stroke-opacity:1;marker-start:url(#a);marker-end:url(#a)" transform="translate(-14.474 -114.68)"/><text xml:space="preserve" style="font-size:14.6667px;line-height:1.25;font-family:sans-serif;white-space:pre;shape-inside:url(#b)" transform="matrix(.26458 0 0 .26458 -17.11 -146.248)"><tspan x="445.258" y="718.588">H1</tspan></text><path d="M24.337 170.796h11.821M24.337 166.822h11.821" style="fill:#ccc;stroke:#ccc;stroke-width:.264583px;stroke-linecap:butt;stroke-linejoin:miter;stroke-opacity:1" transform="translate(-14.474 -114.68)"/><path d="M24.337 175.582v-3.4" style="fill:none;stroke:#000;stroke-width:.264583px;stroke-linecap:butt;stroke-linejoin:miter;stroke-opacity:1;marker-end:url(#c)" transform="translate(-14.474 -114.68)"/><path d="M24.337 162.3v3.402" style="fill:none;stroke:#000;stroke-width:.264583px;stroke-linecap:butt;stroke-linejoin:miter;stroke-opacity:1;marker-end:url(#d)" transform="translate(-14.474 -114.68)"/><path d="M37.234 148.46h11.82M37.234 144.487h11.82" style="fill:#ccc;stroke:#ccc;stroke-width:.264583px;stroke-linecap:butt;stroke-linejoin:miter;stroke-opacity:1" transform="translate(-14.474 -114.68)"/><path d="M37.234 153.247v-3.401" style="fill:none;stroke:#000;stroke-width:.264583px;stroke-linecap:butt;stroke-linejoin:miter;stroke-opacity:1;marker-end:url(#e)" transform="translate(-14.474 -114.68)"/><path d="M37.234 139.965v3.401" style="fill:none;stroke:#000;stroke-width:.264583px;stroke-linecap:butt;stroke-linejoin:miter;stroke-opacity:1;marker-end:url(#f)" transform="translate(-14.474 -114.68)"/><path d="M56.588 144.354v-11.82M78.548 144.354v-11.82" style="fill:#ccc;stroke:#ccc;stroke-width:.264583px;stroke-linecap:butt;stroke-linejoin:miter;stroke-opacity:1" transform="translate(-14.474 -114.68)"/><path d="M77.11 132.533H58.026" style="fill:none;stroke:#000;stroke-width:.264584px;stroke-linecap:butt;stroke-linejoin:miter;stroke-opacity:1;marker-start:url(#g);marker-end:url(#g)" transform="translate(-14.474 -114.68)"/><path d="M45.425 144.354v-23.183M89.579 144.354v-23.183" style="fill:#ccc;stroke:#ccc;stroke-width:.264583px;stroke-linecap:butt;stroke-linejoin:miter;stroke-opacity:1" transform="translate(-14.474 -114.68)"/><path d="M88.18 120.905H46.592" style="fill:none;stroke:#000;stroke-width:.264585px;stroke-linecap:butt;stroke-linejoin:miter;stroke-opacity:1;marker-start:url(#h);marker-end:url(#h)" transform="translate(-14.474 -114.68)"/><path d="M53.517 182.75v-11.822M81.62 182.617v-11.82" style="fill:#ccc;stroke:#ccc;stroke-width:.264583px;stroke-linecap:butt;stroke-linejoin:miter;stroke-opacity:1" transform="translate(-14.474 -114.68)"/><path d="M80.18 182.75H54.843" style="fill:none;stroke:#000;stroke-width:.264584px;stroke-linecap:butt;stroke-linejoin:miter;stroke-opacity:1;marker-start:url(#i);marker-end:url(#i)" transform="translate(-14.474 -114.68)"/><path d="M36.29 194.112v-23.184M98.845 194.112v-23.184" style="fill:#ccc;stroke:#ccc;stroke-width:.264583px;stroke-linecap:butt;stroke-linejoin:miter;stroke-opacity:1" transform="translate(-14.474 -114.68)"/><path d="M97.488 194.112h-59.84" style="fill:none;stroke:#000;stroke-width:.264585px;stroke-linecap:butt;stroke-linejoin:miter;stroke-opacity:1;marker-start:url(#j);marker-end:url(#j)" transform="translate(-14.474 -114.68)"/><path d="M81.428 155.522h3.4" style="fill:none;stroke:#000;stroke-width:.264583px;stroke-linecap:butt;stroke-linejoin:miter;stroke-opacity:1;marker-end:url(#k)" transform="translate(-14.474 -114.68)"/><path d="M94.038 155.522h-3.4" style="fill:none;stroke:#000;stroke-width:.264583px;stroke-linecap:butt;stroke-linejoin:miter;stroke-opacity:1;marker-end:url(#l)" transform="translate(-14.474 -114.68)"/><text xml:space="preserve" style="font-size:14.6667px;line-height:1.25;font-family:sans-serif;white-space:pre;shape-inside:url(#m)" transform="matrix(.26458 0 0 .26458 -63.206 -182.818)"><tspan x="429.078" y="710.125">D1</tspan></text><text xml:space="preserve" style="font-size:14.6667px;line-height:1.25;font-family:sans-serif;white-space:pre;shape-inside:url(#n)" transform="matrix(.26458 0 0 .26458 -59.868 -129.831)"><tspan x="414.715" y="787.789">D2</tspan></text><text xml:space="preserve" style="font-size:14.6667px;line-height:1.25;font-family:sans-serif;white-space:pre;shape-inside:url(#o)" transform="matrix(.26458 0 0 .26458 -77.502 -174.235)"><tspan x="481.475" y="723.719">D3</tspan></text><text xml:space="preserve" style="font-size:14.6667px;line-height:1.25;font-family:sans-serif;white-space:pre;shape-inside:url(#p)" transform="matrix(.26458 0 0 .26458 -78.03 -141.712)"><tspan x="485.117" y="790.914">D4</tspan></text><text xml:space="preserve" style="font-size:14.6667px;line-height:1.25;font-family:sans-serif;white-space:pre;shape-inside:url(#q)" transform="matrix(.26458 0 0 .26458 -108.436 -159.421)"><tspan x="470.512" y="726.289">E1</tspan></text><text xml:space="preserve" style="font-size:14.6667px;line-height:1.25;font-family:sans-serif;white-space:pre;shape-inside:url(#r)" transform="matrix(.26458 0 0 .26458 -32.338 -158.093)"><tspan x="424.65" y="755.699">E2</tspan></text><text xml:space="preserve" style="font-size:14.6667px;line-height:1.25;font-family:sans-serif;white-space:pre;shape-inside:url(#s)" transform="matrix(.26458 0 0 .26458 -125.598 -146.754)"><tspan x="486.535" y="764.275">E3</tspan></text></svg>