<svg xmlns="http://www.w3.org/2000/svg" width="461.703" height="241.953" viewBox="0 0 122.159 64.017"><defs><marker id="a" markerHeight="1" markerWidth="1" orient="auto-start-reverse" preserveAspectRatio="xMidYMid" refX="0" refY="0" style="overflow:visible" viewBox="0 0 1 1"><path d="M-.211-4.106 6.21-.894a1 1 90 0 1 0 1.788L-.21 4.106A1.236 1.236 31.717 0 1-2 3v-6A1.236 1.236 148.283 0 1-.211-4.106z" style="fill:context-stroke;fill-rule:evenodd;stroke:none" transform="scale(.7)"/></marker><marker id="b" markerHeight="1" markerWidth="1" orient="auto-start-reverse" preserveAspectRatio="xMidYMid" refX="0" refY="0" style="overflow:visible" viewBox="0 0 1 1"><path d="M-.211-4.106 6.21-.894a1 1 90 0 1 0 1.788L-.21 4.106A1.236 1.236 31.717 0 1-2 3v-6A1.236 1.236 148.283 0 1-.211-4.106z" style="fill:context-stroke;fill-rule:evenodd;stroke:none" transform="scale(.7)"/></marker><marker id="f" markerHeight="1" markerWidth="1" orient="auto-start-reverse" preserveAspectRatio="xMidYMid" refX="0" refY="0" style="overflow:visible" viewBox="0 0 1 1"><path d="M-.211-4.106 6.21-.894a1 1 90 0 1 0 1.788L-.21 4.106A1.236 1.236 31.717 0 1-2 3v-6A1.236 1.236 148.283 0 1-.211-4.106z" style="fill:context-stroke;fill-rule:evenodd;stroke:none" transform="scale(.7)"/></marker><marker id="g" markerHeight="1" markerWidth="1" orient="auto-start-reverse" preserveAspectRatio="xMidYMid" refX="0" refY="0" style="overflow:visible" viewBox="0 0 1 1"><path d="M-.211-4.106 6.21-.894a1 1 90 0 1 0 1.788L-.21 4.106A1.236 1.236 31.717 0 1-2 3v-6A1.236 1.236 148.283 0 1-.211-4.106z" style="fill:context-stroke;fill-rule:evenodd;stroke:none" transform="scale(.7)"/></marker><marker id="j" markerHeight="1" markerWidth="1" orient="auto-start-reverse" preserveAspectRatio="xMidYMid" refX="0" refY="0" style="overflow:visible" viewBox="0 0 1 1"><path d="M-.211-4.106 6.21-.894a1 1 90 0 1 0 1.788L-.21 4.106A1.236 1.236 31.717 0 1-2 3v-6A1.236 1.236 148.283 0 1-.211-4.106z" style="fill:context-stroke;fill-rule:evenodd;stroke:none" transform="scale(.7)"/></marker><marker id="k" markerHeight="1" markerWidth="1" orient="auto-start-reverse" preserveAspectRatio="xMidYMid" refX="0" refY="0" style="overflow:visible" viewBox="0 0 1 1"><path d="M-.211-4.106 6.21-.894a1 1 90 0 1 0 1.788L-.21 4.106A1.236 1.236 31.717 0 1-2 3v-6A1.236 1.236 148.283 0 1-.211-4.106z" style="fill:context-stroke;fill-rule:evenodd;stroke:none" transform="scale(.7)"/></marker><path id="c" d="M348.786 275.767h64.579v35.919h-64.579z"/><path id="d" d="M348.786 275.767h64.579v35.919h-64.579z"/><path id="e" d="M348.786 275.767h64.579v35.919h-64.579z"/><path id="h" d="M348.786 275.767h64.579v35.919h-64.579z"/><path id="i" d="M55.144 1137.68h45.352v36.638H55.144z"/><path id="l" d="M348.786 275.767h64.579v35.919h-64.579z"/></defs><g transform="translate(-20.903 -24.414)"><path d="M21.036 24.546H142.93v63.752H21.036z" style="fill:#fff;stroke:#fff;stroke-width:.264583;stroke-dasharray:none;stroke-dashoffset:0"/><circle cx="64.249" cy="54.359" r="27.757" style="fill:#d7eef4;stroke:#d7eef4;stroke-width:.264583;stroke-dasharray:none"/><path d="M109.87 73.242v-3.185" style="fill:none;stroke:#000;stroke-width:.264583px;stroke-linecap:butt;stroke-linejoin:miter;stroke-opacity:1;marker-start:url(#a);marker-end:url(#a)"/><circle cx="64.249" cy="54.359" r="24.985" style="fill:#5fbcd3;stroke:#5fbcd3;stroke-width:.264583;stroke-dasharray:none"/><circle cx="64.249" cy="54.359" r="14.412" style="fill:#f9f9f9;stroke:#ccc;stroke-width:.264583;stroke-dasharray:none"/><circle cx="64.142" cy="34.274" r="2.873" style="fill:#f9f9f9;stroke:#ccc;stroke-width:.264583;stroke-dasharray:none;stroke-dashoffset:0"/><circle cx="84.227" cy="54.359" r="2.873" style="fill:#f9f9f9;stroke:#ccc;stroke-width:.264583;stroke-dasharray:none;stroke-dashoffset:0"/><circle cx="64.142" cy="74.444" r="2.873" style="fill:#f9f9f9;stroke:#ccc;stroke-width:.264583;stroke-dasharray:none;stroke-dashoffset:0"/><circle cx="44.057" cy="54.359" r="2.873" style="fill:#f9f9f9;stroke:#ccc;stroke-width:.264583;stroke-dasharray:none;stroke-dashoffset:0"/><circle cx="78.793" cy="40.344" r="2.873" style="fill:#f9f9f9;stroke:#ccc;stroke-width:.264583;stroke-dasharray:none;stroke-dashoffset:0"/><circle cx="78.793" cy="68.903" r="2.873" style="fill:#f9f9f9;stroke:#ccc;stroke-width:.264583;stroke-dasharray:none;stroke-dashoffset:0"/><circle cx="49.705" cy="68.903" r="2.873" style="fill:#f9f9f9;stroke:#ccc;stroke-width:.264583;stroke-dasharray:none;stroke-dashoffset:0"/><circle cx="49.705" cy="39.815" r="2.873" style="fill:#f9f9f9;stroke:#ccc;stroke-width:.264583;stroke-dasharray:none;stroke-dashoffset:0"/><circle cx="64.142" cy="54.359" r="20.085" style="fill:none;stroke:#ccc;stroke-width:.264583;stroke-dasharray:2,1;stroke-dashoffset:0"/><path d="M64.25 29.374h55.936M64.25 79.61h55.936M64.25 69.035h45.51M64.25 39.948h36.213M64.173 74.443h45.728" style="fill:#ccc;stroke:#ccc;stroke-width:.264583px;stroke-linecap:butt;stroke-linejoin:miter;stroke-opacity:1"/><path d="M120.186 77.921v-46.86" style="fill:none;stroke:#000;stroke-width:.264582px;stroke-linecap:butt;stroke-linejoin:miter;stroke-opacity:1;marker-start:url(#b);marker-end:url(#b)"/><text xml:space="preserve" style="font-size:14.6667px;line-height:1.25;font-family:sans-serif;white-space:pre;shape-inside:url(#c);display:inline" transform="matrix(.26458 0 0 .26458 28.307 -20.491)"><tspan x="348.785" y="288.744">D1</tspan></text><text xml:space="preserve" style="font-size:14.6667px;line-height:1.25;font-family:sans-serif;white-space:pre;shape-inside:url(#d);display:inline" transform="matrix(.26458 0 0 .26458 8.692 -21.182)"><tspan x="348.785" y="288.744">D3</tspan></text><text xml:space="preserve" style="font-size:14.6667px;line-height:1.25;font-family:sans-serif;white-space:pre;shape-inside:url(#e);display:inline" transform="matrix(.26458 0 0 .26458 18.52 -3.176)"><tspan x="348.785" y="288.744">L1</tspan></text><path d="M100.463 67.932V41.05" style="fill:none;stroke:#000;stroke-width:.264583px;stroke-linecap:butt;stroke-linejoin:miter;stroke-opacity:1;marker-start:url(#f);marker-end:url(#f)"/><path d="M29.053 51.487h15.004M29.053 57.232h15.004" style="fill:#ccc;stroke:#ccc;stroke-width:.264583px;stroke-linecap:butt;stroke-linejoin:miter;stroke-opacity:1"/><path d="M29.053 56.056v-3.184" style="fill:none;stroke:#000;stroke-width:.264583px;stroke-linecap:butt;stroke-linejoin:miter;stroke-opacity:1;marker-start:url(#g);marker-end:url(#g)"/><text xml:space="preserve" style="font-size:14.6667px;line-height:1.25;font-family:sans-serif;white-space:pre;shape-inside:url(#h);display:inline" transform="matrix(.26458 0 0 .26458 -69.816 -20.52)"><tspan x="348.785" y="288.744">D5</tspan></text><text xml:space="preserve" style="font-size:14.6667px;line-height:1.25;font-family:sans-serif;white-space:pre;shape-inside:url(#i);display:inline" transform="matrix(.26458 0 0 .26458 18.234 -224.454)"><tspan x="55.145" y="1150.656">N1</tspan></text><path d="m38.617 78.54 7.74-6.497" style="fill:none;stroke:#000;stroke-width:.264583px;stroke-linecap:butt;stroke-linejoin:miter;stroke-opacity:1;marker-end:url(#j)"/><path d="M64.25 26.338h70.858M64.25 82.116h70.858" style="fill:#ccc;stroke:#ccc;stroke-width:.264583px;stroke-linecap:butt;stroke-linejoin:miter;stroke-opacity:1"/><path d="M135.108 80.575V27.879" style="fill:none;stroke:#000;stroke-width:.264582px;stroke-linecap:butt;stroke-linejoin:miter;stroke-opacity:1;marker-start:url(#k);marker-end:url(#k)"/><text xml:space="preserve" style="font-size:14.6667px;line-height:1.25;font-family:sans-serif;white-space:pre;shape-inside:url(#l);display:inline" transform="matrix(.26458 0 0 .26458 43.59 -21.642)"><tspan x="348.785" y="288.744">D2</tspan></text></g></svg>