<svg xmlns="http://www.w3.org/2000/svg" width="415.405" height="262.304" viewBox="0 0 109.909 69.401"><defs><marker id="q" markerHeight="1" markerWidth="1" orient="auto-start-reverse" preserveAspectRatio="xMidYMid" refX="0" refY="0" style="overflow:visible" viewBox="0 0 1 1"><path d="M-.211-4.106 6.21-.894a1 1 90 0 1 0 1.788L-.21 4.106A1.236 1.236 31.717 0 1-2 3v-6A1.236 1.236 148.283 0 1-.211-4.106z" style="fill:context-stroke;fill-rule:evenodd;stroke:none" transform="scale(0.7)"/></marker><marker id="b" markerHeight="1" markerWidth="1" orient="auto-start-reverse" preserveAspectRatio="xMidYMid" refX="0" refY="0" style="overflow:visible" viewBox="0 0 1 1"><path d="M-.211-4.106 6.21-.894a1 1 90 0 1 0 1.788L-.21 4.106A1.236 1.236 31.717 0 1-2 3v-6A1.236 1.236 148.283 0 1-.211-4.106z" style="fill:context-stroke;fill-rule:evenodd;stroke:none" transform="scale(0.7)"/></marker><marker id="c" markerHeight="1" markerWidth="1" orient="auto-start-reverse" preserveAspectRatio="xMidYMid" refX="0" refY="0" style="overflow:visible" viewBox="0 0 1 1"><path d="M-.211-4.106 6.21-.894a1 1 90 0 1 0 1.788L-.21 4.106A1.236 1.236 31.717 0 1-2 3v-6A1.236 1.236 148.283 0 1-.211-4.106z" style="fill:context-stroke;fill-rule:evenodd;stroke:none" transform="scale(0.7)"/></marker><marker id="d" markerHeight="1" markerWidth="1" orient="auto-start-reverse" preserveAspectRatio="xMidYMid" refX="0" refY="0" style="overflow:visible" viewBox="0 0 1 1"><path d="M-.211-4.106 6.21-.894a1 1 90 0 1 0 1.788L-.21 4.106A1.236 1.236 31.717 0 1-2 3v-6A1.236 1.236 148.283 0 1-.211-4.106z" style="fill:context-stroke;fill-rule:evenodd;stroke:none" transform="scale(0.7)"/></marker><marker id="e" markerHeight="1" markerWidth="1" orient="auto-start-reverse" preserveAspectRatio="xMidYMid" refX="0" refY="0" style="overflow:visible" viewBox="0 0 1 1"><path d="M-.211-4.106 6.21-.894a1 1 90 0 1 0 1.788L-.21 4.106A1.236 1.236 31.717 0 1-2 3v-6A1.236 1.236 148.283 0 1-.211-4.106z" style="fill:context-stroke;fill-rule:evenodd;stroke:none" transform="scale(0.7)"/></marker><marker id="f" markerHeight="1" markerWidth="1" orient="auto-start-reverse" preserveAspectRatio="xMidYMid" refX="0" refY="0" style="overflow:visible" viewBox="0 0 1 1"><path d="M-.211-4.106 6.21-.894a1 1 90 0 1 0 1.788L-.21 4.106A1.236 1.236 31.717 0 1-2 3v-6A1.236 1.236 148.283 0 1-.211-4.106z" style="fill:context-stroke;fill-rule:evenodd;stroke:none" transform="scale(0.7)"/></marker><marker id="g" markerHeight="1" markerWidth="1" orient="auto-start-reverse" preserveAspectRatio="xMidYMid" refX="0" refY="0" style="overflow:visible" viewBox="0 0 1 1"><path d="M-.211-4.106 6.21-.894a1 1 90 0 1 0 1.788L-.21 4.106A1.236 1.236 31.717 0 1-2 3v-6A1.236 1.236 148.283 0 1-.211-4.106z" style="fill:context-stroke;fill-rule:evenodd;stroke:none" transform="scale(0.7)"/></marker><marker id="h" markerHeight="1" markerWidth="1" orient="auto-start-reverse" preserveAspectRatio="xMidYMid" refX="0" refY="0" style="overflow:visible" viewBox="0 0 1 1"><path d="M-.211-4.106 6.21-.894a1 1 90 0 1 0 1.788L-.21 4.106A1.236 1.236 31.717 0 1-2 3v-6A1.236 1.236 148.283 0 1-.211-4.106z" style="fill:context-stroke;fill-rule:evenodd;stroke:none" transform="scale(0.7)"/></marker><marker id="i" markerHeight="1" markerWidth="1" orient="auto-start-reverse" preserveAspectRatio="xMidYMid" refX="0" refY="0" style="overflow:visible" viewBox="0 0 1 1"><path d="M-.211-4.106 6.21-.894a1 1 90 0 1 0 1.788L-.21 4.106A1.236 1.236 31.717 0 1-2 3v-6A1.236 1.236 148.283 0 1-.211-4.106z" style="fill:context-stroke;fill-rule:evenodd;stroke:none" transform="scale(0.7)"/></marker><marker id="r" markerHeight="1" markerWidth="1" orient="auto-start-reverse" preserveAspectRatio="xMidYMid" refX="0" refY="0" style="overflow:visible" viewBox="0 0 1 1"><path d="M-.211-4.106 6.21-.894a1 1 90 0 1 0 1.788L-.21 4.106A1.236 1.236 31.717 0 1-2 3v-6A1.236 1.236 148.283 0 1-.211-4.106z" style="fill:context-stroke;fill-rule:evenodd;stroke:none" transform="scale(0.7)"/></marker><path id="p" d="M397.661 808.231h83.54v62.222h-83.54z"/><path id="o" d="M392.927 814.607h97.033v48.925h-97.033z"/><path id="n" d="M401.474 834.38h49.246v41.787h-49.246z"/><path id="m" d="M396.291 830.551h54.771v38.921h-54.771z"/><path id="j" d="M414.714 774.812h77.052v32.094h-77.052z"/><path id="k" d="M429.078 697.149h74.334v49.531h-74.334z"/><path id="a" d="M445.258 705.61h56.016v64.209h-56.016z"/><path id="l" d="M486.536 751.299h47.518v29.784h-47.518z"/></defs><path d="M29.182 215.896h109.645v69.137H29.182z" style="fill:#fff;fill-opacity:1;stroke:#fff;stroke-width:.264583" transform="translate(-29.049347,-215.76419)"/><text xml:space="preserve" style="font-size:14.6667px;line-height:1.25;font-family:sans-serif;white-space:pre;shape-inside:url(#a);display:inline" transform="translate(-29.049347,-215.76419) matrix(0.26458333,0,0,0.26458333,12.735949,62.411573)"><tspan x="445.258" y="718.588">H1</tspan></text><path d="M45.318 237.836h11.031v3.974H45.318z" style="fill:#b7c4c8;stroke:#b7c4c8;stroke-width:.264583" transform="translate(-29.049347,-215.76419)"/><path d="M45.318 237.836h3.365v22.071h-3.365z" style="fill:#b7c4c8;stroke:#b7c4c8;stroke-width:.264582" transform="translate(-29.049347,-215.76419)"/><path d="M36.051 260.172h17.226v3.974H36.051z" style="fill:#5fbcd3;stroke:#5fbcd3;stroke-width:.264583" transform="translate(-29.049347,-215.76419)"/><path d="M-89.339 237.836h11.031v3.974h-11.031z" style="fill:#b7c4c8;stroke:#b7c4c8;stroke-width:.264583" transform="translate(-29.049347,-215.76419) scale(-1,1)"/><path d="M-89.339 237.836h3.365v22.071h-3.365z" style="fill:#b7c4c8;stroke:#b7c4c8;stroke-width:.264582" transform="translate(-29.049347,-215.76419) scale(-1,1)"/><path d="M-98.606 260.172h17.226v3.974h-17.226z" style="fill:#5fbcd3;stroke:#5fbcd3;stroke-width:.264583" transform="translate(-29.049347,-215.76419) scale(-1,1)"/><path d="M36.051 260.172h62.555v3.974H36.051z" style="fill:#93a7ac;stroke:#93a7ac;stroke-width:.264584" transform="translate(-29.049347,-215.76419)"/><path d="M45.318 237.836H89.34v22.071H45.318z" style="fill:#dbe2e3;fill-opacity:.8;stroke:#dbe2e3;stroke-width:.264582" transform="translate(-29.049347,-215.76419)"/><path d="M64.515 247.499s.106-.902.315-1.293a2.89 2.89 0 0 1 .999-1.087c.442-.274.98-.447 1.5-.433.612.015 1.234.248 1.736.6.34.238.603.595.787.969.187.382.29 1.244.29 1.244v7.478s-.095.845-.278 1.22c-.195.397-.477.775-.84 1.026-.491.338-1.101.525-1.696.568a2.07 2.07 0 0 1-.99-.18c-.528-.24-1.04-.603-1.36-1.087-.32-.485-.463-1.679-.463-1.679V247.5M72.258 247.565s.095-.902.282-1.293c.208-.434.52-.828.894-1.087.396-.274.876-.447 1.342-.433.547.015 1.104.248 1.553.6.305.238.54.595.704.969.168.382.26 1.244.26 1.244v7.479s-.085.844-.249 1.219c-.174.397-.426.775-.752 1.026a2.883 2.883 0 0 1-1.516.568c-.3.024-.613-.041-.887-.18-.472-.24-.93-.603-1.216-1.087-.286-.485-.415-1.679-.415-1.679v-7.346M79.41 247.631s.082-.902.246-1.293c.182-.434.455-.828.783-1.087.346-.274.767-.447 1.174-.433.48.016.967.248 1.36.6.267.238.473.595.616.969.147.382.227 1.244.227 1.244v7.479s-.074.845-.217 1.22c-.153.396-.374.774-.659 1.025a2.343 2.343 0 0 1-1.327.568 1.32 1.32 0 0 1-.776-.18 2.735 2.735 0 0 1-1.065-1.087c-.25-.485-.362-1.679-.362-1.679v-7.346M85.404 247.631s.052-.902.155-1.293c.115-.434.287-.828.494-1.087.219-.274.484-.447.742-.433.302.016.61.248.858.6.169.238.299.595.39.969.092.382.142 1.244.142 1.244v7.479s-.046.845-.137 1.22c-.096.396-.236.774-.415 1.025-.243.338-.545.525-.838.568-.166.024-.339-.041-.49-.18a2.54 2.54 0 0 1-.672-1.087c-.158-.485-.23-1.679-.23-1.679v-7.346M62.56 247.217s-.094-.902-.282-1.293c-.207-.434-.519-.828-.893-1.087-.396-.274-.877-.447-1.342-.433-.548.015-1.105.248-1.554.6-.305.238-.54.595-.704.969-.168.382-.26 1.244-.26 1.244v7.478s.085.845.25 1.22c.173.397.426.775.751 1.026.439.338.985.525 1.517.568.3.024.613-.042.886-.18.473-.24.931-.603 1.217-1.088.286-.484.414-1.678.414-1.678v-7.346M55.409 247.283s-.083-.902-.247-1.293c-.181-.434-.454-.828-.782-1.087-.346-.274-.767-.447-1.174-.433-.48.015-.967.248-1.36.6-.267.238-.473.595-.617.969-.146.382-.227 1.244-.227 1.244v7.478s.074.845.218 1.22c.152.397.373.775.658 1.026.384.338.862.525 1.328.568a1.32 1.32 0 0 0 .775-.18c.414-.24.815-.603 1.065-1.087.25-.485.363-1.679.363-1.679v-7.346M49.415 247.283s-.053-.902-.156-1.293c-.115-.434-.287-.828-.494-1.087-.218-.274-.484-.447-.741-.433-.303.015-.61.248-.858.6-.169.238-.299.595-.39.969-.092.382-.143 1.244-.143 1.244v7.478s.047.845.137 1.22c.097.397.236.775.416 1.026.242.338.544.525.838.568.165.024.339-.041.49-.18a2.54 2.54 0 0 0 .672-1.087c.158-.485.229-1.679.229-1.679v-7.346" style="fill:#d7eef4;stroke:#216778;stroke-width:.264583px;stroke-linecap:butt;stroke-linejoin:miter;stroke-opacity:1" transform="translate(-29.049347,-215.76419)"/><path d="M45.318 222.392v15.312M89.34 222.392v15.312M89.472 237.836h40.668M89.34 259.907h29.219M98.738 264.41h31.341M36.051 264.278v15.313M98.606 264.543v15.312" style="fill:#ccc;stroke:#ccc;stroke-width:.264583px;stroke-linecap:butt;stroke-linejoin:miter;stroke-opacity:1" transform="translate(-29.049347,-215.76419)"/><path d="M97.275 279.59H37.436" style="fill:none;stroke:#000;stroke-width:.264585px;stroke-linecap:butt;stroke-linejoin:miter;stroke-opacity:1;marker-start:url(#b);marker-end:url(#b)" transform="translate(-29.049347,-215.76419)"/><path d="M87.965 222.392H46.681" style="fill:none;stroke:#000;stroke-width:.264585px;stroke-linecap:butt;stroke-linejoin:miter;stroke-opacity:1;marker-start:url(#c);marker-end:url(#c)" transform="translate(-29.049347,-215.76419)"/><path d="M64.677 232.167v15.313M70.142 232.167v15.313" style="fill:#ccc;stroke:#ccc;stroke-width:.264583px;stroke-linecap:butt;stroke-linejoin:miter;stroke-opacity:1" transform="translate(-29.049347,-215.76419)"/><path d="M69.026 232.167h-3.23" style="fill:none;stroke:#000;stroke-width:.264585px;stroke-linecap:butt;stroke-linejoin:miter;stroke-opacity:1;marker-start:url(#d);marker-end:url(#d)" transform="translate(-29.049347,-215.76419)"/><path d="M86.795 244.685h12.587M86.795 258.06h31.764" style="fill:#ccc;stroke:#ccc;stroke-width:.264583px;stroke-linecap:butt;stroke-linejoin:miter;stroke-opacity:1" transform="translate(-29.049347,-215.76419)"/><path d="M99.382 246.193v10.359" style="fill:none;stroke:#000;stroke-width:.264585px;stroke-linecap:butt;stroke-linejoin:miter;stroke-opacity:1;marker-start:url(#e);marker-end:url(#e)" transform="translate(-29.049347,-215.76419)"/><path d="M109.138 263.215v-2.12" style="fill:none;stroke:#000;stroke-width:.264583px;stroke-linecap:butt;stroke-linejoin:miter;stroke-opacity:1;marker-end:url(#f)" transform="translate(-29.049347,-215.76419)"/><path d="M109.138 253.274v3.401" style="fill:none;stroke:#000;stroke-width:.264583px;stroke-linecap:butt;stroke-linejoin:miter;stroke-opacity:1;marker-end:url(#g)" transform="translate(-29.049347,-215.76419)"/><path d="M130.14 239.203v23.84" style="fill:none;stroke:#000;stroke-width:.264585px;stroke-linecap:butt;stroke-linejoin:miter;stroke-opacity:1;marker-start:url(#h);marker-end:url(#h)" transform="translate(-29.049347,-215.76419)"/><path d="M118.559 261.179v2.101" style="fill:none;stroke:#000;stroke-width:.264585px;stroke-linecap:butt;stroke-linejoin:miter;stroke-opacity:1;marker-start:url(#i);marker-end:url(#i)" transform="translate(-29.049347,-215.76419)"/><text xml:space="preserve" style="font-size:14.6667px;line-height:1.25;font-family:sans-serif;white-space:pre;shape-inside:url(#j);display:inline" transform="translate(-29.049347,-215.76419) matrix(0.26458333,0,0,0.26458333,-45.008551,69.894117)"><tspan x="414.715" y="787.789">D2</tspan></text><text xml:space="preserve" style="font-size:14.6667px;line-height:1.25;font-family:sans-serif;white-space:pre;shape-inside:url(#k);display:inline" transform="translate(-29.049347,-215.76419) matrix(0.26458333,0,0,0.26458333,-48.681669,33.277111)"><tspan x="429.078" y="710.125">D1</tspan></text><text xml:space="preserve" style="font-size:14.6667px;line-height:1.25;font-family:sans-serif;white-space:pre;shape-inside:url(#l);display:inline" transform="translate(-29.049347,-215.76419) matrix(0.26458333,0,0,0.26458333,-8.6942566,61.427323)"><tspan x="486.535" y="764.275">E3</tspan></text><text xml:space="preserve" style="font-size:14.6667px;line-height:1.25;font-family:sans-serif;white-space:pre;shape-inside:url(#m)" transform="translate(-29.049347,-215.76419) matrix(0.26458333,0,0,0.26458333,4.618291,31.67272)"><tspan x="396.291" y="843.527">H2</tspan></text><text xml:space="preserve" style="font-size:14.6667px;line-height:1.25;font-family:sans-serif;white-space:pre;shape-inside:url(#n)" transform="translate(-29.049347,-215.76419) matrix(0.26458333,0,0,0.26458333,-6.3743188,28.488668)"><tspan x="401.475" y="847.356">H3</tspan></text><text xml:space="preserve" style="font-size:14.6667px;line-height:1.25;font-family:sans-serif;white-space:pre;shape-inside:url(#o)" transform="translate(-29.049347,-215.76419) matrix(0.26458333,0,0,0.26458333,-38.576679,11.35445)"><tspan x="392.928" y="827.584">L2</tspan></text><text xml:space="preserve" style="font-size:14.6667px;line-height:1.25;font-family:sans-serif;white-space:pre;shape-inside:url(#p)" transform="translate(-29.049347,-215.76419) matrix(0.26458333,0,0,0.26458333,-69.602369,17.862042)"><tspan x="397.662" y="821.207">N2</tspan></text><path d="m40.139 236.176 6.425 7.304" style="fill:none;stroke:#000;stroke-width:.264583;stroke-linecap:butt;stroke-linejoin:miter;stroke-opacity:1;marker-end:url(#q)" transform="translate(-29.049347,-215.76419)"/><path d="m39.928 235.81 10.176 7.773" style="fill:none;stroke:#000;stroke-width:.264583;stroke-linecap:butt;stroke-linejoin:miter;stroke-opacity:1;marker-end:url(#r)" transform="translate(-29.049347,-215.76419)"/></svg>