<svg xmlns="http://www.w3.org/2000/svg" width="262.014" height="195.652" viewBox="0 0 69.325 51.766"><defs><path id="a" d="M232.476 161.365h28.095v22.502h-28.095z"/><path id="b" d="M63.429 333.065h256.255v34.363H63.429z"/><path id="c" d="M309.291 1871.785h43.699v17.924h-43.699z"/><path id="d" d="M232.476 161.365h28.095v22.502h-28.095z"/><path id="e" d="M309.291 1871.785h43.699v17.924h-43.699z"/></defs><path d="M46.406 1360.942h69.06v51.502h-69.06z" style="fill:#fff;stroke:#fff;stroke-width:.264583;stroke-dasharray:none;stroke-dashoffset:0" transform="translate(-46.273346,-1360.8096)"/><path d="m90.04 1406.309-16.9-38.757" style="fill:none;stroke:#b3b3b3;stroke-width:.264582px;stroke-linecap:butt;stroke-linejoin:miter;stroke-opacity:1" transform="translate(-46.273346,-1360.8096)"/><path d="M79.749 1382.554h6.68" style="fill:none;stroke:#999;stroke-width:.264583px;stroke-linecap:butt;stroke-linejoin:miter;stroke-opacity:1" transform="translate(-46.273346,-1360.8096)"/><text xml:space="preserve" style="font-size:14.6667px;line-height:1.25;font-family:sans-serif;white-space:pre;shape-inside:url(#a);display:inline" transform="translate(-46.273346,-1360.8096) matrix(0.26458333,0,0,0.26458333,11.580729,1337.3203)"><tspan x="232.477" y="174.342">p1</tspan></text><text xml:space="preserve" style="font-size:14.6667px;line-height:1.25;font-family:sans-serif;white-space:pre;shape-inside:url(#b);display:inline" transform="translate(-46.273346,-1360.8096) matrix(0.26458333,0,0,0.26458333,30.399417,1319.0713)"><tspan x="63.43" y="346.041">construction of line intersection 2</tspan></text><path d="m79.749 1382.554 20.46 22.853M63 1363.84l16.749 18.714" style="fill:none;stroke:green;stroke-width:.264583px;stroke-linecap:butt;stroke-linejoin:miter;stroke-opacity:1" transform="translate(-46.273346,-1360.8096)"/><path d="M78.735 1381.14s1.67-.595 2.32-.173c.43.279.521 1.446.521 1.446" style="fill:none;stroke:#00f;stroke-width:.264583px;stroke-linecap:butt;stroke-linejoin:miter;stroke-opacity:1" transform="translate(-46.273346,-1360.8096)"/><text xml:space="preserve" style="font-size:8px;line-height:1.25;font-family:sans-serif;white-space:pre;shape-inside:url(#c);display:inline;fill:#00f" transform="translate(-46.273346,-1360.8096) matrix(0.26458333,0,0,0.26458333,0.0757789,884.52509)"><tspan x="309.291" y="1878.863">ca1</tspan></text><path d="m79.161 1383.299 1.176-1.49M79.004 1381.966l1.49 1.176" style="fill:none;stroke:#000;stroke-width:.264583px;stroke-linecap:butt;stroke-linejoin:miter;stroke-opacity:1" transform="translate(-46.273346,-1360.8096)"/><path d="M88.75 1402.73h6.68" style="fill:none;stroke:#999;stroke-width:.264583px;stroke-linecap:butt;stroke-linejoin:miter;stroke-opacity:1" transform="translate(-46.273346,-1360.8096)"/><path d="m63.931 1362.169 27.706 45.783" style="fill:none;stroke:green;stroke-width:.264582px;stroke-linecap:butt;stroke-linejoin:miter;stroke-opacity:1" transform="translate(-46.273346,-1360.8096)"/><path d="m88.057 1403.6 1.176-1.49M87.9 1402.267l1.49 1.175" style="fill:none;stroke:#000;stroke-width:.264583px;stroke-linecap:butt;stroke-linejoin:miter;stroke-opacity:1" transform="translate(-46.273346,-1360.8096)"/><text xml:space="preserve" style="font-size:14.6667px;line-height:1.25;font-family:sans-serif;white-space:pre;shape-inside:url(#d);display:inline" transform="translate(-46.273346,-1360.8096) matrix(0.26458333,0,0,0.26458333,21.518799,1359.4251)"><tspan x="232.477" y="174.342">p2</tspan></text><path d="M87.85 1401.67s1.243-.598 1.726-.273c.418.28.344 1.47.344 1.47" style="fill:none;stroke:#00f;stroke-width:.264583px;stroke-linecap:butt;stroke-linejoin:miter;stroke-opacity:1" transform="translate(-46.273346,-1360.8096)"/><text xml:space="preserve" style="font-size:8px;line-height:1.25;font-family:sans-serif;white-space:pre;shape-inside:url(#e);display:inline;fill:#00f" transform="translate(-46.273346,-1360.8096) matrix(0.26458333,0,0,0.26458333,8.3893628,904.97854)"><tspan x="309.291" y="1878.863">ca2</tspan></text><path d="m68.586 1371.434 1.176-1.49M68.429 1370.101l1.49 1.176" style="fill:none;stroke:#f60;stroke-width:.264583px;stroke-linecap:butt;stroke-linejoin:miter;stroke-opacity:1" transform="translate(-46.273346,-1360.8096)"/></svg>