<svg xmlns="http://www.w3.org/2000/svg" width="421.435" height="295.756" viewBox="0 0 111.505 78.252"><defs><marker id="b" markerHeight="1" markerWidth="1" orient="auto-start-reverse" preserveAspectRatio="xMidYMid" refX="0" refY="0" style="overflow:visible" viewBox="0 0 1 1"><path d="M-.211-4.106 6.21-.894a1 1 90 0 1 0 1.788L-.21 4.106A1.236 1.236 31.717 0 1-2 3v-6A1.236 1.236 148.283 0 1-.211-4.106z" style="fill:context-stroke;fill-rule:evenodd;stroke:none" transform="scale(0.7)"/></marker><marker id="c" markerHeight="1" markerWidth="1" orient="auto-start-reverse" preserveAspectRatio="xMidYMid" refX="0" refY="0" style="overflow:visible" viewBox="0 0 1 1"><path d="M-.211-4.106 6.21-.894a1 1 90 0 1 0 1.788L-.21 4.106A1.236 1.236 31.717 0 1-2 3v-6A1.236 1.236 148.283 0 1-.211-4.106z" style="fill:context-stroke;fill-rule:evenodd;stroke:none" transform="scale(0.7)"/></marker><marker id="e" markerHeight="1" markerWidth="1" orient="auto-start-reverse" preserveAspectRatio="xMidYMid" refX="0" refY="0" style="overflow:visible" viewBox="0 0 1 1"><path d="M-.211-4.106 6.21-.894a1 1 90 0 1 0 1.788L-.21 4.106A1.236 1.236 31.717 0 1-2 3v-6A1.236 1.236 148.283 0 1-.211-4.106z" style="fill:context-stroke;fill-rule:evenodd;stroke:none" transform="scale(0.7)"/></marker><marker id="f" markerHeight="1" markerWidth="1" orient="auto-start-reverse" preserveAspectRatio="xMidYMid" refX="0" refY="0" style="overflow:visible" viewBox="0 0 1 1"><path d="M-.211-4.106 6.21-.894a1 1 90 0 1 0 1.788L-.21 4.106A1.236 1.236 31.717 0 1-2 3v-6A1.236 1.236 148.283 0 1-.211-4.106z" style="fill:context-stroke;fill-rule:evenodd;stroke:none" transform="scale(0.7)"/></marker><marker id="j" markerHeight="1" markerWidth="1" orient="auto-start-reverse" preserveAspectRatio="xMidYMid" refX="0" refY="0" style="overflow:visible" viewBox="0 0 1 1"><path d="M-.211-4.106 6.21-.894a1 1 90 0 1 0 1.788L-.21 4.106A1.236 1.236 31.717 0 1-2 3v-6A1.236 1.236 148.283 0 1-.211-4.106z" style="fill:context-stroke;fill-rule:evenodd;stroke:none" transform="scale(0.7)"/></marker><marker id="k" markerHeight="1" markerWidth="1" orient="auto-start-reverse" preserveAspectRatio="xMidYMid" refX="0" refY="0" style="overflow:visible" viewBox="0 0 1 1"><path d="M-.211-4.106 6.21-.894a1 1 90 0 1 0 1.788L-.21 4.106A1.236 1.236 31.717 0 1-2 3v-6A1.236 1.236 148.283 0 1-.211-4.106z" style="fill:context-stroke;fill-rule:evenodd;stroke:none" transform="scale(0.7)"/></marker><marker id="l" markerHeight="1" markerWidth="1" orient="auto-start-reverse" preserveAspectRatio="xMidYMid" refX="0" refY="0" style="overflow:visible" viewBox="0 0 1 1"><path d="M-.211-4.106 6.21-.894a1 1 90 0 1 0 1.788L-.21 4.106A1.236 1.236 31.717 0 1-2 3v-6A1.236 1.236 148.283 0 1-.211-4.106z" style="fill:context-stroke;fill-rule:evenodd;stroke:none" transform="scale(0.7)"/></marker><path id="i" d="M418.966 589.695h104.036v28.821H418.966z"/><path id="h" d="M422.401 370.213h144.531v27.667H422.401z"/><path id="g" d="M380.347 344.354h100.489v27.148H380.347z"/><path id="d" d="M218.098 340.964h144.304v36.314H218.098z"/><path id="a" d="M197.65 585.649h127.995v38.013H197.65z"/></defs><g transform="translate(-26.485029,-88.87133)"><path d="M26.617 89.004h111.24v77.988H26.617z" style="fill:#fff;fill-opacity:1;stroke:#fff;stroke-width:.264583"/><circle cx="52.097" cy="127.998" r="23.39" style="fill:#666;stroke:#4d4d4d;stroke-width:.264583"/><circle cx="52.097" cy="127.998" r="21.342" style="fill:#ececec;stroke:#4d4d4d;stroke-width:.264583"/><circle cx="52.097" cy="127.998" r="19.339" style="fill:#f9f9f9;stroke:#4d4d4d;stroke-width:.264583"/><circle cx="52.295" cy="113.482" r="6.884" style="fill:#e6e6e6;fill-opacity:.5;stroke:#4d4d4d;stroke-width:.264583"/><circle cx="52.295" cy="113.482" r="4.605" style="fill:#666;stroke:#4d4d4d;stroke-width:.264583"/><circle cx="52.295" cy="113.482" r="2.448" style="fill:#f9f9f9;stroke:#4d4d4d;stroke-width:.264583"/><circle cx="65.551" cy="122.335" r="6.884" style="fill:#e6e6e6;fill-opacity:.5;stroke:#4d4d4d;stroke-width:.264583"/><circle cx="65.551" cy="122.335" r="4.605" style="fill:#666;stroke:#4d4d4d;stroke-width:.264583"/><circle cx="65.551" cy="122.335" r="2.448" style="fill:#f9f9f9;stroke:#4d4d4d;stroke-width:.264583"/><circle cx="62.463" cy="138.248" r="6.884" style="fill:#e6e6e6;fill-opacity:.5;stroke:#4d4d4d;stroke-width:.264583"/><circle cx="62.463" cy="138.248" r="4.605" style="fill:#666;stroke:#4d4d4d;stroke-width:.264583"/><circle cx="62.463" cy="138.248" r="2.448" style="fill:#f9f9f9;stroke:#4d4d4d;stroke-width:.264583"/><circle cx="43.258" cy="139.711" r="6.884" style="fill:#e6e6e6;fill-opacity:.5;stroke:#4d4d4d;stroke-width:.264583"/><circle cx="43.258" cy="139.711" r="4.605" style="fill:#666;stroke:#4d4d4d;stroke-width:.264583"/><circle cx="43.258" cy="139.711" r="2.448" style="fill:#f9f9f9;stroke:#4d4d4d;stroke-width:.264583"/><circle cx="38.528" cy="123.15" r="6.884" style="fill:#e6e6e6;fill-opacity:.5;stroke:#4d4d4d;stroke-width:.264583"/><circle cx="38.528" cy="123.15" r="4.605" style="fill:#666;stroke:#4d4d4d;stroke-width:.264583"/><circle cx="38.528" cy="123.15" r="2.448" style="fill:#f9f9f9;stroke:#4d4d4d;stroke-width:.264583"/><path d="M88.892 105.277h4.77v46.595h-4.77z" style="fill:#666;fill-opacity:1;stroke:#4d4d4d;stroke-width:.264583"/><path d="M93.661 107.394h1.601v13.612h-1.601z" style="fill:#ccc;fill-opacity:1;stroke:#ccc;stroke-width:.264583"/><path d="M93.668 116.305h1.601v13.612h-1.601zM93.668 132.828h1.601v13.612h-1.601z" style="fill:#ccc;fill-opacity:1;stroke:#ccc;stroke-width:.264583"/><path d="M-140.434 95.533h1.601v5.87h-1.601zM-123.257 95.533h1.601v5.87h-1.601zM-114.743 95.262h1.601v5.87h-1.601z" style="fill:#ccc;fill-opacity:1;stroke:#ccc;stroke-width:.264583" transform="rotate(-90)"/><text xml:space="preserve" style="font-size:14.6667px;line-height:1.25;font-family:sans-serif;white-space:pre;shape-inside:url(#a)" transform="matrix(0.26458333,0,0,0.26458333,12.329952,4.6044804)"><tspan x="197.65" y="598.625">gear-ring</tspan></text><path d="m61.928 151.64 5.664 8.063" style="fill:none;stroke:#000;stroke-width:.264583;stroke-linecap:butt;stroke-linejoin:miter;stroke-opacity:1;marker-start:url(#b)"/><path d="m87.26 151.094-5.665 8.063" style="fill:none;stroke:#000;stroke-width:.264583;stroke-linecap:butt;stroke-linejoin:miter;stroke-opacity:1;marker-start:url(#c)"/><text xml:space="preserve" style="font-size:14.6667px;line-height:1.25;font-family:sans-serif;white-space:pre;shape-inside:url(#d)" transform="matrix(0.26458333,0,0,0.26458333,9.0984753,6.2085907)"><tspan x="218.098" y="353.941">gear-wheel</tspan></text><circle cx="52.097" cy="127.998" r="3.757" style="fill:#e6e6e6;stroke:#4d4d4d;stroke-width:.264584"/><path d="m58.79 111.478 12.8-10.78" style="fill:none;stroke:#000;stroke-width:.264583;stroke-linecap:butt;stroke-linejoin:miter;stroke-opacity:1;marker-start:url(#e)"/><path d="m93.556 111.272-10.428-11.123" style="fill:none;stroke:#000;stroke-width:.264583;stroke-linecap:butt;stroke-linejoin:miter;stroke-opacity:1;marker-start:url(#f)"/><path d="M101.397 111.155h10.183v5.575h-10.183zM101.668 119.669h10.183v5.575h-10.183zM101.403 136.847h10.183v5.575h-10.183z" style="fill:#4d4d4d;fill-opacity:1;stroke:#ccc;stroke-width:.264583"/><path d="M-114.743 111.845h1.601v2.555h-1.601zM-123.257 112.116h1.601v2.555h-1.601zM-140.434 111.587h1.601v2.555h-1.601z" style="fill:#ccc;fill-opacity:1;stroke:#ccc;stroke-width:.264583" transform="rotate(-90)"/><path d="M114.406 137.703h5.865v3.863h-5.865z" style="fill:#4d4d4d;fill-opacity:1;stroke:#ccc;stroke-width:.264583"/><path d="M-140.434 120.271h1.601v2.555h-1.601z" style="fill:#ccc;fill-opacity:1;stroke:#ccc;stroke-width:.264583" transform="rotate(-90)"/><path d="M123.09 136.114h4.172v7.039h-4.172z" style="fill:#666;fill-opacity:1;stroke:#333;stroke-width:.264583"/><path d="M114.671 120.525h5.865v3.863h-5.865z" style="fill:#4d4d4d;fill-opacity:1;stroke:#ccc;stroke-width:.264583"/><path d="M-123.257 120.535h1.601v2.555h-1.601z" style="fill:#ccc;fill-opacity:1;stroke:#ccc;stroke-width:.264583" transform="rotate(-90)"/><path d="M123.355 118.937h4.172v7.039h-4.172z" style="fill:#666;fill-opacity:1;stroke:#333;stroke-width:.264583"/><path d="M114.664 112.011h5.865v3.863h-5.865z" style="fill:#4d4d4d;fill-opacity:1;stroke:#ccc;stroke-width:.264583"/><path d="M-114.743 120.529h1.601v2.555h-1.601z" style="fill:#ccc;fill-opacity:1;stroke:#ccc;stroke-width:.264583" transform="rotate(-90)"/><path d="M123.348 110.423h4.172v7.039h-4.172z" style="fill:#666;fill-opacity:1;stroke:#333;stroke-width:.264583"/><text xml:space="preserve" style="font-size:14.6667px;line-height:1.25;font-family:sans-serif;white-space:pre;shape-inside:url(#g)" transform="matrix(0.26458333,0,0,0.26458333,-7.4605288,-0.73196598)"><tspan x="380.348" y="357.33">reductor-1</tspan></text><text xml:space="preserve" style="font-size:14.6667px;line-height:1.25;font-family:sans-serif;white-space:pre;shape-inside:url(#h)" transform="matrix(0.26458333,0,0,0.26458333,-2.9665339,-2.0129065)"><tspan x="422.4" y="383.189">reductor-2</tspan></text><text xml:space="preserve" style="font-size:14.6667px;line-height:1.25;font-family:sans-serif;white-space:pre;shape-inside:url(#i)" transform="matrix(0.26458333,0,0,0.26458333,13.350093,-55.342843)"><tspan x="418.967" y="602.672">motor</tspan></text><path d="m106.681 110.01-4.244-14.616" style="fill:none;stroke:#000;stroke-width:.264583;stroke-linecap:butt;stroke-linejoin:miter;stroke-opacity:1;marker-start:url(#j)"/><path d="m118.105 111.06-.684-10.658" style="fill:none;stroke:#000;stroke-width:.264583;stroke-linecap:butt;stroke-linejoin:miter;stroke-opacity:1;marker-start:url(#k)"/><path d="m126.045 109.364 2.245-4.784" style="fill:none;stroke:#000;stroke-width:.264583;stroke-linecap:butt;stroke-linejoin:miter;stroke-opacity:1;marker-start:url(#l)"/></g></svg>