<svg xmlns="http://www.w3.org/2000/svg" width="550.966" height="797.956" viewBox="0 0 145.776 211.126"><defs><marker id="b" markerHeight="1" markerWidth="1" orient="auto-start-reverse" preserveAspectRatio="xMidYMid" refX="0" refY="0" style="overflow:visible" viewBox="0 0 1 1"><path d="M-.211-4.106 6.21-.894a1 1 90 0 1 0 1.788L-.21 4.106A1.236 1.236 31.717 0 1-2 3v-6A1.236 1.236 148.283 0 1-.211-4.106z" style="fill:context-stroke;fill-rule:evenodd;stroke:none" transform="scale(.7)"/></marker><marker id="o" markerHeight="1" markerWidth="1" orient="auto-start-reverse" preserveAspectRatio="xMidYMid" refX="0" refY="0" style="overflow:visible" viewBox="0 0 1 1"><path d="M-.211-4.106 6.21-.894a1 1 90 0 1 0 1.788L-.21 4.106A1.236 1.236 31.717 0 1-2 3v-6A1.236 1.236 148.283 0 1-.211-4.106z" style="fill:context-stroke;fill-rule:evenodd;stroke:none" transform="scale(.7)"/></marker><marker id="p" markerHeight="1" markerWidth="1" orient="auto-start-reverse" preserveAspectRatio="xMidYMid" refX="0" refY="0" style="overflow:visible" viewBox="0 0 1 1"><path d="M-.211-4.106 6.21-.894a1 1 90 0 1 0 1.788L-.21 4.106A1.236 1.236 31.717 0 1-2 3v-6A1.236 1.236 148.283 0 1-.211-4.106z" style="fill:context-stroke;fill-rule:evenodd;stroke:none" transform="scale(.7)"/></marker><marker id="q" markerHeight="1" markerWidth="1" orient="auto-start-reverse" preserveAspectRatio="xMidYMid" refX="0" refY="0" style="overflow:visible" viewBox="0 0 1 1"><path d="M-.211-4.106 6.21-.894a1 1 90 0 1 0 1.788L-.21 4.106A1.236 1.236 31.717 0 1-2 3v-6A1.236 1.236 148.283 0 1-.211-4.106z" style="fill:context-stroke;fill-rule:evenodd;stroke:none" transform="scale(.7)"/></marker><marker id="r" markerHeight="1" markerWidth="1" orient="auto-start-reverse" preserveAspectRatio="xMidYMid" refX="0" refY="0" style="overflow:visible" viewBox="0 0 1 1"><path d="M-.211-4.106 6.21-.894a1 1 90 0 1 0 1.788L-.21 4.106A1.236 1.236 31.717 0 1-2 3v-6A1.236 1.236 148.283 0 1-.211-4.106z" style="fill:context-stroke;fill-rule:evenodd;stroke:none" transform="scale(.7)"/></marker><marker id="s" markerHeight="1" markerWidth="1" orient="auto-start-reverse" preserveAspectRatio="xMidYMid" refX="0" refY="0" style="overflow:visible" viewBox="0 0 1 1"><path d="M-.211-4.106 6.21-.894a1 1 90 0 1 0 1.788L-.21 4.106A1.236 1.236 31.717 0 1-2 3v-6A1.236 1.236 148.283 0 1-.211-4.106z" style="fill:context-stroke;fill-rule:evenodd;stroke:none" transform="scale(.7)"/></marker><marker id="t" markerHeight="1" markerWidth="1" orient="auto-start-reverse" preserveAspectRatio="xMidYMid" refX="0" refY="0" style="overflow:visible" viewBox="0 0 1 1"><path d="M-.211-4.106 6.21-.894a1 1 90 0 1 0 1.788L-.21 4.106A1.236 1.236 31.717 0 1-2 3v-6A1.236 1.236 148.283 0 1-.211-4.106z" style="fill:context-stroke;fill-rule:evenodd;stroke:none" transform="scale(.7)"/></marker><marker id="u" markerHeight="1" markerWidth="1" orient="auto-start-reverse" preserveAspectRatio="xMidYMid" refX="0" refY="0" style="overflow:visible" viewBox="0 0 1 1"><path d="M-.211-4.106 6.21-.894a1 1 90 0 1 0 1.788L-.21 4.106A1.236 1.236 31.717 0 1-2 3v-6A1.236 1.236 148.283 0 1-.211-4.106z" style="fill:context-stroke;fill-rule:evenodd;stroke:none" transform="scale(.7)"/></marker><marker id="v" markerHeight="1" markerWidth="1" orient="auto-start-reverse" preserveAspectRatio="xMidYMid" refX="0" refY="0" style="overflow:visible" viewBox="0 0 1 1"><path d="M-.211-4.106 6.21-.894a1 1 90 0 1 0 1.788L-.21 4.106A1.236 1.236 31.717 0 1-2 3v-6A1.236 1.236 148.283 0 1-.211-4.106z" style="fill:context-stroke;fill-rule:evenodd;stroke:none" transform="scale(.7)"/></marker><marker id="w" markerHeight="1" markerWidth="1" orient="auto-start-reverse" preserveAspectRatio="xMidYMid" refX="0" refY="0" style="overflow:visible" viewBox="0 0 1 1"><path d="M-.211-4.106 6.21-.894a1 1 90 0 1 0 1.788L-.21 4.106A1.236 1.236 31.717 0 1-2 3v-6A1.236 1.236 148.283 0 1-.211-4.106z" style="fill:context-stroke;fill-rule:evenodd;stroke:none" transform="scale(.7)"/></marker><marker id="x" markerHeight="1" markerWidth="1" orient="auto-start-reverse" preserveAspectRatio="xMidYMid" refX="0" refY="0" style="overflow:visible" viewBox="0 0 1 1"><path d="M-.211-4.106 6.21-.894a1 1 90 0 1 0 1.788L-.21 4.106A1.236 1.236 31.717 0 1-2 3v-6A1.236 1.236 148.283 0 1-.211-4.106z" style="fill:context-stroke;fill-rule:evenodd;stroke:none" transform="scale(.7)"/></marker><marker id="y" markerHeight="1" markerWidth="1" orient="auto-start-reverse" preserveAspectRatio="xMidYMid" refX="0" refY="0" style="overflow:visible" viewBox="0 0 1 1"><path d="M-.211-4.106 6.21-.894a1 1 90 0 1 0 1.788L-.21 4.106A1.236 1.236 31.717 0 1-2 3v-6A1.236 1.236 148.283 0 1-.211-4.106z" style="fill:context-stroke;fill-rule:evenodd;stroke:none" transform="scale(.7)"/></marker><marker id="z" markerHeight="1" markerWidth="1" orient="auto-start-reverse" preserveAspectRatio="xMidYMid" refX="0" refY="0" style="overflow:visible" viewBox="0 0 1 1"><path d="M-.211-4.106 6.21-.894a1 1 90 0 1 0 1.788L-.21 4.106A1.236 1.236 31.717 0 1-2 3v-6A1.236 1.236 148.283 0 1-.211-4.106z" style="fill:context-stroke;fill-rule:evenodd;stroke:none" transform="scale(.7)"/></marker><marker id="A" markerHeight="1" markerWidth="1" orient="auto-start-reverse" preserveAspectRatio="xMidYMid" refX="0" refY="0" style="overflow:visible" viewBox="0 0 1 1"><path d="M-.211-4.106 6.21-.894a1 1 90 0 1 0 1.788L-.21 4.106A1.236 1.236 31.717 0 1-2 3v-6A1.236 1.236 148.283 0 1-.211-4.106z" style="fill:context-stroke;fill-rule:evenodd;stroke:none" transform="scale(.7)"/></marker><marker id="B" markerHeight="1" markerWidth="1" orient="auto-start-reverse" preserveAspectRatio="xMidYMid" refX="0" refY="0" style="overflow:visible" viewBox="0 0 1 1"><path d="M-.211-4.106 6.21-.894a1 1 90 0 1 0 1.788L-.21 4.106A1.236 1.236 31.717 0 1-2 3v-6A1.236 1.236 148.283 0 1-.211-4.106z" style="fill:context-stroke;fill-rule:evenodd;stroke:none" transform="scale(.7)"/></marker><marker id="C" markerHeight="1" markerWidth="1" orient="auto-start-reverse" preserveAspectRatio="xMidYMid" refX="0" refY="0" style="overflow:visible" viewBox="0 0 1 1"><path d="M-.211-4.106 6.21-.894a1 1 90 0 1 0 1.788L-.21 4.106A1.236 1.236 31.717 0 1-2 3v-6A1.236 1.236 148.283 0 1-.211-4.106z" style="fill:context-stroke;fill-rule:evenodd;stroke:none" transform="scale(.7)"/></marker><path id="n" d="M390.711 567.375h163.901v53.717H390.711z"/><path id="m" d="M443.269 400.645h108.686v33.052H443.269z"/><path id="l" d="M422.662 515.803h101.739v36.063H422.662z"/><path id="k" d="M402.158 361.595H532.94v44.159H402.158z"/><path id="j" d="M404.022 431.123h135.339v40.229H404.022z"/><path id="i" d="M339.166 1122.708h173.913v53.623H339.166z"/><path id="h" d="M441.651 1017.628h113.588v44.326H441.651z"/><path id="g" d="M366.507 1070.714h138.637v34.936H366.507z"/><path id="f" d="M182.76 1105.717h181.951v36.314H182.76z"/><path id="e" d="M95.684 1014.298h138.497v46.863H95.684z"/><path id="d" d="M400.785 930.823h108.3v54.004h-108.3z"/><path id="c" d="M306.433 1002.115h117.873v41.247H306.433z"/><path id="a" d="M421.012 630.717h117.962v37.466H421.012z"/></defs><path d="M8.92 35.088h145.512v210.861H8.92z" style="opacity:1;fill:#fff;fill-opacity:1;stroke:#fff;stroke-width:.264584;stroke-linejoin:bevel;stroke-opacity:1" transform="translate(-8.788 -34.956)"/><path d="M30.151 203.298h93.862l-1.557 13.359-11.752 22.636-16.272-4.806-23.912 5.894-15.545-4.224-13.98 1.846-8.68-11.634z" style="fill:#d4aa00;stroke:#d4aa00;stroke-width:.264583px;stroke-linecap:butt;stroke-linejoin:miter;stroke-opacity:1" transform="translate(-8.788 -34.956)"/><path d="M41.37 203.096h69.187v24.379H41.37z" style="fill:#e3dedb;stroke:#e3dedb;stroke-width:.264583" transform="translate(-8.788 -34.956)"/><path d="M44.337 212.592h18.059v1.323H44.337zM89.383 212.592h18.059v1.323H89.383z" style="fill:#08a;stroke:#08a;stroke-width:.264583" transform="translate(-8.788 -34.956)"/><path d="M-212.327 52.705h18.059v1.323h-18.059zM-212.327 97.751h18.059v1.323h-18.059z" style="fill:#08a;stroke:#08a;stroke-width:.264583" transform="rotate(-90 -21.872 -13.084)"/><path d="M52.705 194.269h3.824v1.323h-3.824zM95.25 194.269h3.824v1.323H95.25z" style="fill:#08a;stroke:#08a;stroke-width:.264582" transform="translate(-8.788 -34.956)"/><text xml:space="preserve" style="font-size:14.6667px;line-height:1.25;font-family:sans-serif;white-space:pre;shape-inside:url(#a);display:inline" transform="matrix(.26458 0 0 .26458 -12.14 -11.185)"><tspan x="421.012" y="643.693">base</tspan></text><path d="m101.13 197.548 7.655-2.96" style="fill:none;stroke:#000;stroke-width:.264583px;stroke-linecap:butt;stroke-linejoin:miter;stroke-opacity:1;marker-start:url(#b)" transform="translate(-8.788 -34.956)"/><path d="M163.531 52.705h29.679v1.323h-29.679z" style="fill:#08a;stroke:#08a;stroke-width:.264583" transform="matrix(0 1 1 0 -8.788 -34.956)"/><path d="M52.705-193.21h3.824v1.323h-3.824z" style="fill:#08a;stroke:#08a;stroke-width:.264582" transform="matrix(1 0 0 -1 -8.788 -34.956)"/><path d="M163.531-99.074h29.679v1.323h-29.679z" style="fill:#08a;stroke:#08a;stroke-width:.264583" transform="rotate(90 13.084 -21.872)"/><path d="M-99.074-193.21h3.824v1.323h-3.824z" style="fill:#08a;stroke:#08a;stroke-width:.264582" transform="rotate(180 -4.394 -17.478)"/><path d="M83.148 86.104h65.535v1.323H83.148z" style="fill:#08a;stroke:#08a;stroke-width:.264583" transform="scale(-1 1) rotate(77.788 26.059 -12.031)"/><path d="M115.254-62.24h65.535v1.323h-65.535z" style="fill:#08a;stroke:#08a;stroke-width:.264583" transform="rotate(77.788 17.271 -22.924)"/><path d="M93.74 70.11h69.886v1.323H93.74z" style="fill:green;stroke:green;stroke-width:.264583" transform="matrix(0 1 1 0 -8.788 -34.956)"/><path d="M-73.02 162.303h2.91v1.323h-2.91z" style="fill:green;stroke:green;stroke-width:.264583" transform="matrix(-1 0 0 1 -8.788 -34.956)"/><path d="M93.74-81.751h69.886v1.323H93.74z" style="fill:green;stroke:green;stroke-width:.264583" transform="rotate(90 13.084 -21.872)"/><path d="M78.841 162.303h2.91v1.323h-2.91z" style="fill:green;stroke:green;stroke-width:.264583" transform="translate(-8.788 -34.956)"/><path d="M-73.02 93.74h2.91v1.323h-2.91z" style="fill:green;stroke:green;stroke-width:.264583" transform="matrix(-1 0 0 1 -8.788 -34.956)"/><path d="M78.841 93.74h2.91v1.323h-2.91z" style="fill:green;stroke:green;stroke-width:.264583" transform="translate(-8.788 -34.956)"/><path d="M-73.02 164.42h2.91v1.323h-2.91z" style="fill:green;stroke:green;stroke-width:.264583" transform="matrix(-1 0 0 1 -8.788 -34.956)"/><path d="M78.841 164.42h2.91v1.323h-2.91z" style="fill:green;stroke:green;stroke-width:.264583" transform="translate(-8.788 -34.956)"/><path d="M-68.138 168.121h8.057v1.323h-8.057z" style="fill:green;stroke:green;stroke-width:.264584" transform="matrix(-1 0 0 1 -8.788 -34.956)"/><path d="M83.724 168.121h8.057v1.323h-8.057z" style="fill:green;stroke:green;stroke-width:.264584" transform="translate(-8.788 -34.956)"/><path d="M-64.109 172.619h4.028v1.323h-4.028zM-91.781 172.619h4.028v1.323h-4.028z" style="fill:green;stroke:green;stroke-width:.264584" transform="matrix(-1 0 0 1 -8.788 -34.956)"/><path d="M169.576 64.109h4.498v1.323h-4.498zM169.576 86.429h4.498v1.323h-4.498z" style="fill:#5fd35f;stroke:none;stroke-width:.264584" transform="matrix(0 1 1 0 -8.788 -34.956)"/><path d="m70.11 164.42-1.972 3.701v1.323h.966l2.006-3.57zM81.751 164.42l1.973 3.701v1.323h-.966l-2.007-3.57z" style="fill:green;fill-opacity:1;stroke:green;stroke-width:.264583;stroke-linecap:butt;stroke-linejoin:bevel;stroke-opacity:1" transform="translate(-8.788 -34.956)"/><path d="M170.622 66.093h3.32v4.028h-3.32z" style="fill:#7f2aff;fill-opacity:1;stroke:#7f2aff;stroke-width:.264584" transform="matrix(0 1 1 0 -8.788 -34.956)"/><path d="M170.622 70.122h3.32v1.323h-3.32zM170.622 64.771h3.32v1.323h-3.32z" style="fill:#e5d5ff;fill-opacity:1;stroke:#e5d5ff;stroke-width:.264584;stroke-opacity:1" transform="matrix(0 1 1 0 -8.788 -34.956)"/><path d="M170.622 81.871h3.32v4.028h-3.32z" style="fill:#7f2aff;fill-opacity:1;stroke:#7f2aff;stroke-width:.264584" transform="matrix(0 1 1 0 -8.788 -34.956)"/><path d="M170.622 85.9h3.32v1.323h-3.32zM170.622 80.549h3.32v1.323h-3.32z" style="fill:#e5d5ff;fill-opacity:1;stroke:#e5d5ff;stroke-width:.264584;stroke-opacity:1" transform="matrix(0 1 1 0 -8.788 -34.956)"/><path d="M174.207 67.815h3.32v.585h-3.32zM174.207 83.593h3.32v.585h-3.32z" style="fill:#7f2aff;fill-opacity:1;stroke:#7f2aff;stroke-width:.264584" transform="matrix(0 1 1 0 -8.788 -34.956)"/><path d="M177.791 65.3h3.32v5.615h-3.32z" style="fill:#b380ff;fill-opacity:1;stroke:#e6e6e6;stroke-width:.264585" transform="matrix(0 1 1 0 -8.788 -34.956)"/><path d="M181.111 67.815h1.607v.585h-1.607z" style="fill:#95f;fill-opacity:1;stroke:#95f;stroke-width:.264584" transform="matrix(0 1 1 0 -8.788 -34.956)"/><path d="M182.982 65.3h3.32v5.615h-3.32z" style="fill:#b380ff;fill-opacity:1;stroke:#caf;stroke-width:.264585" transform="matrix(0 1 1 0 -8.788 -34.956)"/><path d="M177.791 81.078h3.32v5.615h-3.32z" style="fill:#b380ff;fill-opacity:1;stroke:#e6e6e6;stroke-width:.264585" transform="matrix(0 1 1 0 -8.788 -34.956)"/><path d="M181.111 83.593h1.607v.585h-1.607z" style="fill:#95f;fill-opacity:1;stroke:#95f;stroke-width:.264584" transform="matrix(0 1 1 0 -8.788 -34.956)"/><path d="M182.982 81.078h3.32v5.615h-3.32z" style="fill:#b380ff;fill-opacity:1;stroke:#caf;stroke-width:.264585" transform="matrix(0 1 1 0 -8.788 -34.956)"/><path d="M54.028-177.117h9.979v1.323h-9.979z" style="fill:#00aad4;stroke:#00aad4;stroke-width:.264582" transform="matrix(1 0 0 -1 -8.788 -34.956)"/><path d="M60.325-175.794h3.397v1.852h-3.397z" style="fill:#87cdde;stroke:none;stroke-width:.264582" transform="matrix(1 0 0 -1 -8.788 -34.956)"/><path d="M168.425-59.948h5.214v1.852h-5.214z" style="fill:#87cdde;stroke:none;stroke-width:.264582" transform="rotate(90 13.084 -21.872)"/><path d="M60.37-167.989h3.397v1.852H60.37z" style="fill:#87cdde;stroke:none;stroke-width:.264582" transform="matrix(1 0 0 -1 -8.788 -34.956)"/><path d="M-175.662-57.981h9.979v1.323h-9.979z" style="fill:#00aad4;stroke:#00aad4;stroke-width:.264582" transform="matrix(0 -1 -1 0 -8.788 -34.956)"/><path d="M56.659-166.344h7.267v1.323h-7.267z" style="fill:#00aad4;stroke:#00aad4;stroke-width:.264582" transform="matrix(1 0 0 -1 -8.788 -34.956)"/><path d="M-97.833-177.117h9.979v1.323h-9.979z" style="fill:#00aad4;stroke:#00aad4;stroke-width:.264582" transform="rotate(180 -4.394 -17.478)"/><path d="M-91.518-175.794h3.38v1.852h-3.38z" style="fill:#87cdde;stroke:none;stroke-width:.264582" transform="rotate(180 -4.394 -17.478)"/><path d="M168.425 91.913h5.214v1.852h-5.214z" style="fill:#87cdde;stroke:none;stroke-width:.264582" transform="matrix(0 1 1 0 -8.788 -34.956)"/><path d="M-91.474-167.989h3.38v1.852h-3.38z" style="fill:#87cdde;stroke:none;stroke-width:.264582" transform="rotate(180 -4.394 -17.478)"/><path d="M-175.662 93.88h9.979v1.323h-9.979z" style="fill:#00aad4;stroke:#00aad4;stroke-width:.264582" transform="rotate(-90 -21.872 -13.084)"/><path d="M-95.203-166.344h7.267v1.323h-7.267z" style="fill:#00aad4;stroke:#00aad4;stroke-width:.264582" transform="rotate(180 -4.394 -17.478)"/><path d="M168.121 60.081h5.821v4.028h-5.821z" style="fill:green;fill-opacity:1;stroke:green;stroke-width:.264584" transform="matrix(0 1 1 0 -8.788 -34.956)"/><path d="M168.993 60.798h4.077v2.595h-4.077z" style="fill:#fff;stroke:green;stroke-width:.264584" transform="matrix(0 1 1 0 -8.788 -34.956)"/><path d="M168.121 87.752h5.821v4.028h-5.821z" style="fill:green;stroke:green;stroke-width:.264584" transform="matrix(0 1 1 0 -8.788 -34.956)"/><path d="M168.993 88.469h4.077v2.595h-4.077z" style="fill:#fff;stroke:green;stroke-width:.264584" transform="matrix(0 1 1 0 -8.788 -34.956)"/><path d="m54.028 177.117 2.825.132-2.693 2.934-.132-3.066M97.833 177.117l-2.825.132 2.693 2.934.132-3.066" style="fill:#00aad4;fill-opacity:1;stroke:#00aad4;stroke-width:.264583px;stroke-linecap:butt;stroke-linejoin:miter;stroke-opacity:1" transform="translate(-8.788 -34.956)"/><path d="M107.643-69.921h5.214v1.852h-5.214z" style="fill:#87cdde;stroke:none;stroke-width:.264582" transform="rotate(90 13.084 -21.872)"/><path d="m67.967 107.122.02 6.094h-2.866l1.477-6.386h1.267z" style="fill:#00aad4;fill-opacity:1;stroke:#00aad4;stroke-width:.264583px;stroke-linecap:butt;stroke-linejoin:miter;stroke-opacity:1" transform="translate(-8.788 -34.956)"/><path d="M107.404 81.94h5.214v1.852h-5.214z" style="fill:#87cdde;stroke:none;stroke-width:.264582" transform="matrix(0 1 1 0 -8.788 -34.956)"/><path d="m83.894 106.884-.02 6.093h2.866l-1.477-6.386h-1.266z" style="fill:#00aad4;fill-opacity:1;stroke:#00aad4;stroke-width:.264583px;stroke-linecap:butt;stroke-linejoin:miter;stroke-opacity:1" transform="translate(-8.788 -34.956)"/><path d="M-73.152 91.53h10.005v1.549h-10.005zM-88.713 91.53h10.005v1.549h-10.005z" style="fill:green;stroke:none;stroke-width:.264584" transform="matrix(-1 0 0 1 -8.788 -34.956)"/><path d="M-96.532-63.148h10.005v1.549h-10.005zM-96.532-90.262h10.005v1.549h-10.005z" style="fill:green;stroke:none;stroke-width:.264584" transform="matrix(0 -1 -1 0 -8.788 -34.956)"/><path d="M-30.389-103.323h19.722v1.549h-19.722z" style="fill:green;stroke:none;stroke-width:.264583" transform="scale(1 -1) rotate(52.072 -40.171 8.484)"/><path d="M-123.733 16.462h19.722v1.549h-19.722z" style="fill:green;stroke:none;stroke-width:.264583" transform="rotate(-127.928 -12.932 -15.331)"/><path d="M-108.347 73.022h64.604v1.549h-64.604zM-108.347 76.119h64.604v1.549h-64.604z" style="fill:green;stroke:none;stroke-width:.264583" transform="matrix(-1 0 0 1 -8.788 -34.956)"/><path d="M-108.347 74.571h64.604v1.549h-64.604z" style="fill:#d7f4d7;stroke:none;stroke-width:.264583" transform="matrix(-1 0 0 1 -8.788 -34.956)"/><path d="M-109.798-20.238h12.917v1.088h-12.917z" style="fill:green;stroke:none;stroke-width:.269992" transform="matrix(-.72309 -.69076 .865 -.50178 -8.788 -34.956)"/><path d="M-29.95-129.21h12.863v1.082H-29.95z" style="fill:green;stroke:none;stroke-width:.269704" transform="matrix(.72032 -.69364 -.86324 -.50479 -8.788 -34.956)"/><path d="M-73.022-45.949h7.006v2.206h-7.006zM-73.022-108.347h7.006v2.206h-7.006zM-73.022-65.088h7.006v2.206h-7.006zM-73.022-88.723h7.006v2.206h-7.006z" style="fill:green;stroke:none;stroke-width:.264584" transform="matrix(0 -1 -1 0 -8.788 -34.956)"/><path d="M-132.532 59.587h113.345v6.429h-113.345z" style="fill:#b380ff;stroke:none;stroke-width:.264582" transform="matrix(-1 0 0 1 -8.788 -34.956)"/><path d="M-132.532 58.435h113.345v2.303h-113.345z" style="fill:#7f2aff;stroke:none;stroke-width:.264582" transform="matrix(-1 0 0 1 -8.788 -34.956)"/><path d="M-58.435-21.47h5.414v2.291h-5.414z" style="fill:#7f2aff;stroke:none;stroke-width:.264582" transform="matrix(0 -1 -1 0 -8.788 -34.956)"/><path d="M17.632-53.021h5.385v.915h-5.385z" style="fill:#7f2aff;stroke:none;stroke-width:.264582" transform="matrix(1 0 0 -1 -8.788 -34.956)"/><path d="M-58.435-39.981h5.414v2.291h-5.414z" style="fill:#7f2aff;stroke:none;stroke-width:.264582" transform="matrix(0 -1 -1 0 -8.788 -34.956)"/><path d="M36.144-53.021h5.385v.915h-5.385z" style="fill:#7f2aff;stroke:none;stroke-width:.264582" transform="matrix(1 0 0 -1 -8.788 -34.956)"/><path d="M-58.435-58.493h5.414v2.291h-5.414z" style="fill:#7f2aff;stroke:none;stroke-width:.264582" transform="matrix(0 -1 -1 0 -8.788 -34.956)"/><path d="M54.655-53.021h5.385v.915h-5.385z" style="fill:#7f2aff;stroke:none;stroke-width:.264582" transform="matrix(1 0 0 -1 -8.788 -34.956)"/><path d="M-58.435-77.005h5.414v2.291h-5.414z" style="fill:#7f2aff;stroke:none;stroke-width:.264582" transform="matrix(0 -1 -1 0 -8.788 -34.956)"/><path d="M73.167-53.021h5.385v.915h-5.385z" style="fill:#7f2aff;stroke:none;stroke-width:.264582" transform="matrix(1 0 0 -1 -8.788 -34.956)"/><path d="M-58.435-95.517h5.414v2.291h-5.414z" style="fill:#7f2aff;stroke:none;stroke-width:.264582" transform="matrix(0 -1 -1 0 -8.788 -34.956)"/><path d="M91.679-53.021h5.385v.915h-5.385z" style="fill:#7f2aff;stroke:none;stroke-width:.264582" transform="matrix(1 0 0 -1 -8.788 -34.956)"/><path d="M-58.435-114.029h5.414v2.291h-5.414z" style="fill:#7f2aff;stroke:none;stroke-width:.264582" transform="matrix(0 -1 -1 0 -8.788 -34.956)"/><path d="M110.191-53.021h5.385v.915h-5.385z" style="fill:#7f2aff;stroke:none;stroke-width:.264582" transform="matrix(1 0 0 -1 -8.788 -34.956)"/><path d="M-58.435-132.541h5.414v2.291h-5.414z" style="fill:#7f2aff;stroke:none;stroke-width:.264582" transform="matrix(0 -1 -1 0 -8.788 -34.956)"/><path d="M128.703-53.021h5.385v.915h-5.385zM17.632-52.105h5.385v.915h-5.385z" style="fill:#7f2aff;stroke:none;stroke-width:.264582" transform="matrix(1 0 0 -1 -8.788 -34.956)"/><path d="M11.913-49.073h16.822v.915H11.913z" style="fill:#7f2aff;stroke:none;stroke-width:.264581" transform="matrix(1 0 0 -1 -8.788 -34.956)"/><path d="M11.913 48.158v.915l5.719 2.117v.915h5.385v-.915l5.718-2.117v-.915H11.913" style="fill:#6f7c91;stroke:none;stroke-width:.264583px;stroke-linecap:butt;stroke-linejoin:miter;stroke-opacity:1" transform="translate(-8.788 -34.956)"/><path d="M13.51 48.85h13.24l-5.344 2.058h-2.449z" style="fill:#fff;stroke:none;stroke-width:.264583px;stroke-linecap:butt;stroke-linejoin:miter;stroke-opacity:1" transform="translate(-8.788 -34.956)"/><path d="M11.913-48.158h16.822v.915H11.913z" style="fill:#59f;stroke:none;stroke-width:.264581" transform="matrix(1 0 0 -1 -8.788 -34.956)"/><path d="M30.425 48.158v.915l5.719 2.117v.915h5.384v-.915l5.72-2.117v-.915H30.424" style="fill:#6f7c91;stroke:none;stroke-width:.264583px;stroke-linecap:butt;stroke-linejoin:miter;stroke-opacity:1" transform="translate(-8.788 -34.956)"/><path d="M32.023 48.85h13.24l-5.346 2.058H37.47z" style="fill:#fff;stroke:none;stroke-width:.264583px;stroke-linecap:butt;stroke-linejoin:miter;stroke-opacity:1" transform="translate(-8.788 -34.956)"/><path d="M30.425-48.158h16.822v.915H30.425z" style="fill:#59f;stroke:none;stroke-width:.264581" transform="matrix(1 0 0 -1 -8.788 -34.956)"/><path d="M48.937 48.158v.915l5.718 2.117v.915h5.385v-.915l5.719-2.117v-.915H48.937" style="fill:#6f7c91;stroke:none;stroke-width:.264583px;stroke-linecap:butt;stroke-linejoin:miter;stroke-opacity:1" transform="translate(-8.788 -34.956)"/><path d="M50.534 48.85h13.24l-5.345 2.058h-2.448z" style="fill:#fff;stroke:none;stroke-width:.264583px;stroke-linecap:butt;stroke-linejoin:miter;stroke-opacity:1" transform="translate(-8.788 -34.956)"/><path d="M48.937-48.158h16.822v.915H48.937z" style="fill:#59f;stroke:none;stroke-width:.264581" transform="matrix(1 0 0 -1 -8.788 -34.956)"/><path d="M67.449 48.158v.915l5.718 2.117v.915h5.385v-.915l5.719-2.117v-.915H67.449" style="fill:#6f7c91;stroke:none;stroke-width:.264583px;stroke-linecap:butt;stroke-linejoin:miter;stroke-opacity:1" transform="translate(-8.788 -34.956)"/><path d="M69.046 48.85h13.24l-5.345 2.058h-2.448z" style="fill:#fff;stroke:none;stroke-width:.264583px;stroke-linecap:butt;stroke-linejoin:miter;stroke-opacity:1" transform="translate(-8.788 -34.956)"/><path d="M67.449-48.158h16.822v.915H67.449z" style="fill:#59f;stroke:none;stroke-width:.264581" transform="matrix(1 0 0 -1 -8.788 -34.956)"/><path d="M85.96 48.158v.915l5.72 2.117v.915h5.384v-.915l5.719-2.117v-.915H85.96" style="fill:#6f7c91;stroke:none;stroke-width:.264583px;stroke-linecap:butt;stroke-linejoin:miter;stroke-opacity:1" transform="translate(-8.788 -34.956)"/><path d="M87.558 48.85h13.24l-5.345 2.058h-2.449z" style="fill:#fff;stroke:none;stroke-width:.264583px;stroke-linecap:butt;stroke-linejoin:miter;stroke-opacity:1" transform="translate(-8.788 -34.956)"/><path d="M85.96-48.158h16.822v.915H85.96z" style="fill:#59f;stroke:none;stroke-width:.264581" transform="matrix(1 0 0 -1 -8.788 -34.956)"/><path d="M104.472 48.158v.915l5.719 2.117v.915h5.385v-.915l5.718-2.117v-.915h-16.822" style="fill:#6f7c91;stroke:none;stroke-width:.264583px;stroke-linecap:butt;stroke-linejoin:miter;stroke-opacity:1" transform="translate(-8.788 -34.956)"/><path d="M106.07 48.85h13.24l-5.345 2.058h-2.449z" style="fill:#fff;stroke:none;stroke-width:.264583px;stroke-linecap:butt;stroke-linejoin:miter;stroke-opacity:1" transform="translate(-8.788 -34.956)"/><path d="M104.472-48.158h16.822v.915h-16.822z" style="fill:#59f;stroke:none;stroke-width:.264581" transform="matrix(1 0 0 -1 -8.788 -34.956)"/><path d="M122.984 48.158v.915l5.719 2.117v.915h5.384v-.915l5.72-2.117v-.915h-16.823" style="fill:#6f7c91;stroke:none;stroke-width:.264583px;stroke-linecap:butt;stroke-linejoin:miter;stroke-opacity:1" transform="translate(-8.788 -34.956)"/><path d="M124.582 48.85h13.24l-5.346 2.058h-2.448z" style="fill:#fff;stroke:none;stroke-width:.264583px;stroke-linecap:butt;stroke-linejoin:miter;stroke-opacity:1" transform="translate(-8.788 -34.956)"/><path d="M122.984-48.158h16.822v.915h-16.822z" style="fill:#59f;stroke:none;stroke-width:.264581" transform="matrix(1 0 0 -1 -8.788 -34.956)"/><text xml:space="preserve" style="font-size:14.6667px;line-height:1.25;font-family:sans-serif;white-space:pre;shape-inside:url(#c);display:inline" transform="matrix(.26458 0 0 .26458 -67.065 -104.353)"><tspan x="306.434" y="1015.092">soil</tspan></text><text xml:space="preserve" style="font-size:14.6667px;line-height:1.25;font-family:sans-serif;white-space:pre;shape-inside:url(#d);display:inline" transform="matrix(.26458 0 0 .26458 -87.928 -96.464)"><tspan x="400.785" y="943.801">concrete</tspan></text><text xml:space="preserve" style="font-size:14.6667px;line-height:1.25;font-family:sans-serif;white-space:pre;shape-inside:url(#e);display:inline" transform="matrix(.26458 0 0 .26458 70.03 -158.187)"><tspan x="95.684" y="1027.275">pole-static</tspan></text><text xml:space="preserve" style="font-size:14.6667px;line-height:1.25;font-family:sans-serif;white-space:pre;shape-inside:url(#f);display:inline" transform="matrix(.26458 0 0 .26458 42.319 -200.589)"><tspan x="182.76" y="1118.693">pole-rotor</tspan></text><text xml:space="preserve" style="font-size:14.6667px;line-height:1.25;font-family:sans-serif;white-space:pre;shape-inside:url(#g);display:inline" transform="matrix(.26458 0 0 .26458 -60.421 -179.274)"><tspan x="366.508" y="1083.689">ring</tspan></text><text xml:space="preserve" style="font-size:14.6667px;line-height:1.25;font-family:sans-serif;white-space:pre;shape-inside:url(#h);display:inline" transform="matrix(.26458 0 0 .26458 -91.092 -146.543)"><tspan x="441.65" y="1030.605">bearing</tspan></text><text xml:space="preserve" style="font-size:14.6667px;line-height:1.25;font-family:sans-serif;white-space:pre;shape-inside:url(#i);display:inline" transform="matrix(.26458 0 0 .26458 -28.382 -137.686)"><tspan x="339.166" y="1135.684">motors</tspan></text><text xml:space="preserve" style="font-size:14.6667px;line-height:1.25;font-family:sans-serif;white-space:pre;shape-inside:url(#j);display:inline" transform="matrix(.26458 0 0 .26458 -16.367 -55.42)"><tspan x="404.021" y="444.1">rake</tspan></text><text xml:space="preserve" style="font-size:14.6667px;line-height:1.25;font-family:sans-serif;white-space:pre;shape-inside:url(#k);display:inline" transform="matrix(.26458 0 0 .26458 -89.885 -53.76)"><tspan x="402.158" y="374.572">swing</tspan></text><text xml:space="preserve" style="font-size:14.6667px;line-height:1.25;font-family:sans-serif;white-space:pre;shape-inside:url(#l);display:inline" transform="matrix(.26458 0 0 .26458 -.842 -98.666)"><tspan x="422.662" y="528.779">rods</tspan></text><text xml:space="preserve" style="font-size:14.6667px;line-height:1.25;font-family:sans-serif;white-space:pre;shape-inside:url(#m);display:inline" transform="matrix(.26458 0 0 .26458 11.337 -87.625)"><tspan x="443.27" y="413.621">trapeze</tspan></text><text xml:space="preserve" style="font-size:14.6667px;line-height:1.25;font-family:sans-serif;white-space:pre;shape-inside:url(#n);display:inline" transform="matrix(.26458 0 0 .26458 .316 -148.582)"><tspan x="390.711" y="580.352">solar-panels</tspan></text><path d="m114.9 46.181 6.416-4.823" style="fill:none;stroke:#000;stroke-width:.264583px;stroke-linecap:butt;stroke-linejoin:miter;stroke-opacity:1;marker-start:url(#o)" transform="translate(-8.788 -34.956)"/><path d="m128.706 45.854-6.415-4.823" style="fill:none;stroke:#000;stroke-width:.264583px;stroke-linecap:butt;stroke-linejoin:miter;stroke-opacity:1;marker-start:url(#p)" transform="translate(-8.788 -34.956)"/><path d="m138.53 51.267 3.193 2.576" style="fill:none;stroke:#000;stroke-width:.264583px;stroke-linecap:butt;stroke-linejoin:miter;stroke-opacity:1;marker-start:url(#q)" transform="translate(-8.788 -34.956)"/><path d="m115.349 56.908 8.335 15.138" style="fill:none;stroke:#000;stroke-width:.264583px;stroke-linecap:butt;stroke-linejoin:miter;stroke-opacity:1;marker-start:url(#r)" transform="translate(-8.788 -34.956)"/><path d="m129.418 57.204-4.184 15.082" style="fill:none;stroke:#000;stroke-width:.264583px;stroke-linecap:butt;stroke-linejoin:miter;stroke-opacity:1;marker-start:url(#s)" transform="translate(-8.788 -34.956)"/><path d="m38.557 67.281-5.992 9.644" style="fill:none;stroke:#000;stroke-width:.264583px;stroke-linecap:butt;stroke-linejoin:miter;stroke-opacity:1;marker-start:url(#t)" transform="translate(-8.788 -34.956)"/><path d="m92.57 88.177 7.35 5.404" style="fill:none;stroke:#000;stroke-width:.264583px;stroke-linecap:butt;stroke-linejoin:miter;stroke-opacity:1;marker-start:url(#u)" transform="translate(-8.788 -34.956)"/><path d="m83.925 124.19 14.924 5.404" style="fill:none;stroke:#000;stroke-width:.264583px;stroke-linecap:butt;stroke-linejoin:miter;stroke-opacity:1;marker-start:url(#v)" transform="translate(-8.788 -34.956)"/><path d="m99.688 157.195 10.086-8.005" style="fill:none;stroke:#000;stroke-width:.264583px;stroke-linecap:butt;stroke-linejoin:miter;stroke-opacity:1;marker-start:url(#w)" transform="translate(-8.788 -34.956)"/><path d="m71.368 187.93 4.113 6.82" style="fill:none;stroke:#000;stroke-width:.264583px;stroke-linecap:butt;stroke-linejoin:miter;stroke-opacity:1;marker-start:url(#x)" transform="translate(-8.788 -34.956)"/><path d="m81.824 187.965-4.113 6.819" style="fill:none;stroke:#000;stroke-width:.264583px;stroke-linecap:butt;stroke-linejoin:miter;stroke-opacity:1;marker-start:url(#y)" transform="translate(-8.788 -34.956)"/><path d="m32.51 207.21-4.112-6.819" style="fill:none;stroke:#000;stroke-width:.264583px;stroke-linecap:butt;stroke-linejoin:miter;stroke-opacity:1;marker-start:url(#z)" transform="translate(-8.788 -34.956)"/><path d="M45.443 205.134 39.08 189.03" style="fill:none;stroke:#000;stroke-width:.264583px;stroke-linecap:butt;stroke-linejoin:miter;stroke-opacity:1;marker-start:url(#A)" transform="translate(-8.788 -34.956)"/><path d="m57.353 169.596-10.666-6.82" style="fill:none;stroke:#000;stroke-width:.264582px;stroke-linecap:butt;stroke-linejoin:miter;stroke-opacity:1;marker-start:url(#B)" transform="translate(-8.788 -34.956)"/><path d="m67.759 165.384-17.397-21.248" style="fill:none;stroke:#000;stroke-width:.264583px;stroke-linecap:butt;stroke-linejoin:miter;stroke-opacity:1;marker-start:url(#C)" transform="translate(-8.788 -34.956)"/><path d="M-58.608-43.743h2.218v2.291h-2.218zM-58.608-48.239h2.218v2.291h-2.218zM-58.608-62.882h2.218v2.291h-2.218zM-58.608-67.379h2.218v2.291h-2.218zM-58.608-86.517h2.218v2.291h-2.218zM-58.608-91.014h2.218v2.291h-2.218zM-58.608-106.141h2.218v2.291h-2.218zM-58.608-110.637h2.218v2.291h-2.218z" style="fill:#7f2aff;stroke:none;stroke-width:.264582" transform="matrix(0 -1 -1 0 -8.788 -34.956)"/></svg>