<svg xmlns="http://www.w3.org/2000/svg" width="487.082" height="487.5" viewBox="0 0 128.874 128.984"><defs><marker id="a" markerHeight="1" markerWidth="1" orient="auto-start-reverse" preserveAspectRatio="xMidYMid" refX="0" refY="0" style="overflow:visible" viewBox="0 0 1 1"><path d="M-.211-4.106 6.21-.894a1 1 90 0 1 0 1.788L-.21 4.106A1.236 1.236 31.717 0 1-2 3v-6A1.236 1.236 148.283 0 1-.211-4.106z" style="fill:context-stroke;fill-rule:evenodd;stroke:none" transform="scale(0.7)"/></marker><marker id="b" markerHeight="1" markerWidth="1" orient="auto-start-reverse" preserveAspectRatio="xMidYMid" refX="0" refY="0" style="overflow:visible" viewBox="0 0 1 1"><path d="M-.211-4.106 6.21-.894a1 1 90 0 1 0 1.788L-.21 4.106A1.236 1.236 31.717 0 1-2 3v-6A1.236 1.236 148.283 0 1-.211-4.106z" style="fill:context-stroke;fill-rule:evenodd;stroke:none" transform="scale(0.7)"/></marker><marker id="c" markerHeight="1" markerWidth="1" orient="auto-start-reverse" preserveAspectRatio="xMidYMid" refX="0" refY="0" style="overflow:visible" viewBox="0 0 1 1"><path d="M-.211-4.106 6.21-.894a1 1 90 0 1 0 1.788L-.21 4.106A1.236 1.236 31.717 0 1-2 3v-6A1.236 1.236 148.283 0 1-.211-4.106z" style="fill:context-stroke;fill-rule:evenodd;stroke:none" transform="scale(0.7)"/></marker><marker id="d" markerHeight="1" markerWidth="1" orient="auto-start-reverse" preserveAspectRatio="xMidYMid" refX="0" refY="0" style="overflow:visible" viewBox="0 0 1 1"><path d="M-.211-4.106 6.21-.894a1 1 90 0 1 0 1.788L-.21 4.106A1.236 1.236 31.717 0 1-2 3v-6A1.236 1.236 148.283 0 1-.211-4.106z" style="fill:context-stroke;fill-rule:evenodd;stroke:none" transform="scale(0.7)"/></marker><marker id="e" markerHeight="1" markerWidth="1" orient="auto-start-reverse" preserveAspectRatio="xMidYMid" refX="0" refY="0" style="overflow:visible" viewBox="0 0 1 1"><path d="M-.211-4.106 6.21-.894a1 1 90 0 1 0 1.788L-.21 4.106A1.236 1.236 31.717 0 1-2 3v-6A1.236 1.236 148.283 0 1-.211-4.106z" style="fill:context-stroke;fill-rule:evenodd;stroke:none" transform="scale(0.7)"/></marker><marker id="f" markerHeight="1" markerWidth="1" orient="auto-start-reverse" preserveAspectRatio="xMidYMid" refX="0" refY="0" style="overflow:visible" viewBox="0 0 1 1"><path d="M-.211-4.106 6.21-.894a1 1 90 0 1 0 1.788L-.21 4.106A1.236 1.236 31.717 0 1-2 3v-6A1.236 1.236 148.283 0 1-.211-4.106z" style="fill:context-stroke;fill-rule:evenodd;stroke:none" transform="scale(0.7)"/></marker><marker id="g" markerHeight="1" markerWidth="1" orient="auto-start-reverse" preserveAspectRatio="xMidYMid" refX="0" refY="0" style="overflow:visible" viewBox="0 0 1 1"><path d="M-.211-4.106 6.21-.894a1 1 90 0 1 0 1.788L-.21 4.106A1.236 1.236 31.717 0 1-2 3v-6A1.236 1.236 148.283 0 1-.211-4.106z" style="fill:context-stroke;fill-rule:evenodd;stroke:none" transform="scale(0.7)"/></marker><marker id="h" markerHeight="1" markerWidth="1" orient="auto-start-reverse" preserveAspectRatio="xMidYMid" refX="0" refY="0" style="overflow:visible" viewBox="0 0 1 1"><path d="M-.211-4.106 6.21-.894a1 1 90 0 1 0 1.788L-.21 4.106A1.236 1.236 31.717 0 1-2 3v-6A1.236 1.236 148.283 0 1-.211-4.106z" style="fill:context-stroke;fill-rule:evenodd;stroke:none" transform="scale(0.7)"/></marker><marker id="i" markerHeight="1" markerWidth="1" orient="auto-start-reverse" preserveAspectRatio="xMidYMid" refX="0" refY="0" style="overflow:visible" viewBox="0 0 1 1"><path d="M-.211-4.106 6.21-.894a1 1 90 0 1 0 1.788L-.21 4.106A1.236 1.236 31.717 0 1-2 3v-6A1.236 1.236 148.283 0 1-.211-4.106z" style="fill:context-stroke;fill-rule:evenodd;stroke:none" transform="scale(0.7)"/></marker><marker id="j" markerHeight="1" markerWidth="1" orient="auto-start-reverse" preserveAspectRatio="xMidYMid" refX="0" refY="0" style="overflow:visible" viewBox="0 0 1 1"><path d="M-.211-4.106 6.21-.894a1 1 90 0 1 0 1.788L-.21 4.106A1.236 1.236 31.717 0 1-2 3v-6A1.236 1.236 148.283 0 1-.211-4.106z" style="fill:context-stroke;fill-rule:evenodd;stroke:none" transform="scale(0.7)"/></marker><marker id="z" markerHeight="1" markerWidth="1" orient="auto-start-reverse" preserveAspectRatio="xMidYMid" refX="0" refY="0" style="overflow:visible" viewBox="0 0 1 1"><path d="M-.211-4.106 6.21-.894a1 1 90 0 1 0 1.788L-.21 4.106A1.236 1.236 31.717 0 1-2 3v-6A1.236 1.236 148.283 0 1-.211-4.106z" style="fill:context-stroke;fill-rule:evenodd;stroke:none" transform="scale(0.7)"/></marker><marker id="A" markerHeight="1" markerWidth="1" orient="auto-start-reverse" preserveAspectRatio="xMidYMid" refX="0" refY="0" style="overflow:visible" viewBox="0 0 1 1"><path d="M-.211-4.106 6.21-.894a1 1 90 0 1 0 1.788L-.21 4.106A1.236 1.236 31.717 0 1-2 3v-6A1.236 1.236 148.283 0 1-.211-4.106z" style="fill:context-stroke;fill-rule:evenodd;stroke:none" transform="scale(0.7)"/></marker><marker id="B" markerHeight="1" markerWidth="1" orient="auto-start-reverse" preserveAspectRatio="xMidYMid" refX="0" refY="0" style="overflow:visible" viewBox="0 0 1 1"><path d="M-.211-4.106 6.21-.894a1 1 90 0 1 0 1.788L-.21 4.106A1.236 1.236 31.717 0 1-2 3v-6A1.236 1.236 148.283 0 1-.211-4.106z" style="fill:context-stroke;fill-rule:evenodd;stroke:none" transform="scale(0.7)"/></marker><marker id="C" markerHeight="1" markerWidth="1" orient="auto-start-reverse" preserveAspectRatio="xMidYMid" refX="0" refY="0" style="overflow:visible" viewBox="0 0 1 1"><path d="M-.211-4.106 6.21-.894a1 1 90 0 1 0 1.788L-.21 4.106A1.236 1.236 31.717 0 1-2 3v-6A1.236 1.236 148.283 0 1-.211-4.106z" style="fill:context-stroke;fill-rule:evenodd;stroke:none" transform="scale(0.7)"/></marker><marker id="F" markerHeight="1" markerWidth="1" orient="auto-start-reverse" preserveAspectRatio="xMidYMid" refX="0" refY="0" style="overflow:visible" viewBox="0 0 1 1"><path d="M-.211-4.106 6.21-.894a1 1 90 0 1 0 1.788L-.21 4.106A1.236 1.236 31.717 0 1-2 3v-6A1.236 1.236 148.283 0 1-.211-4.106z" style="fill:context-stroke;fill-rule:evenodd;stroke:none" transform="scale(0.7)"/></marker><marker id="G" markerHeight="1" markerWidth="1" orient="auto-start-reverse" preserveAspectRatio="xMidYMid" refX="0" refY="0" style="overflow:visible" viewBox="0 0 1 1"><path d="M-.211-4.106 6.21-.894a1 1 90 0 1 0 1.788L-.21 4.106A1.236 1.236 31.717 0 1-2 3v-6A1.236 1.236 148.283 0 1-.211-4.106z" style="fill:context-stroke;fill-rule:evenodd;stroke:none" transform="scale(0.7)"/></marker><marker id="H" markerHeight="1" markerWidth="1" orient="auto-start-reverse" preserveAspectRatio="xMidYMid" refX="0" refY="0" style="overflow:visible" viewBox="0 0 1 1"><path d="M-.211-4.106 6.21-.894a1 1 90 0 1 0 1.788L-.21 4.106A1.236 1.236 31.717 0 1-2 3v-6A1.236 1.236 148.283 0 1-.211-4.106z" style="fill:context-stroke;fill-rule:evenodd;stroke:none" transform="scale(0.7)"/></marker><marker id="I" markerHeight="1" markerWidth="1" orient="auto-start-reverse" preserveAspectRatio="xMidYMid" refX="0" refY="0" style="overflow:visible" viewBox="0 0 1 1"><path d="M-.211-4.106 6.21-.894a1 1 90 0 1 0 1.788L-.21 4.106A1.236 1.236 31.717 0 1-2 3v-6A1.236 1.236 148.283 0 1-.211-4.106z" style="fill:context-stroke;fill-rule:evenodd;stroke:none" transform="scale(0.7)"/></marker><marker id="J" markerHeight="1" markerWidth="1" orient="auto-start-reverse" preserveAspectRatio="xMidYMid" refX="0" refY="0" style="overflow:visible" viewBox="0 0 1 1"><path d="M-.211-4.106 6.21-.894a1 1 90 0 1 0 1.788L-.21 4.106A1.236 1.236 31.717 0 1-2 3v-6A1.236 1.236 148.283 0 1-.211-4.106z" style="fill:context-stroke;fill-rule:evenodd;stroke:none" transform="scale(0.7)"/></marker><marker id="K" markerHeight="1" markerWidth="1" orient="auto-start-reverse" preserveAspectRatio="xMidYMid" refX="0" refY="0" style="overflow:visible" viewBox="0 0 1 1"><path d="M-.211-4.106 6.21-.894a1 1 90 0 1 0 1.788L-.21 4.106A1.236 1.236 31.717 0 1-2 3v-6A1.236 1.236 148.283 0 1-.211-4.106z" style="fill:context-stroke;fill-rule:evenodd;stroke:none" transform="scale(0.7)"/></marker><marker id="L" markerHeight="1" markerWidth="1" orient="auto-start-reverse" preserveAspectRatio="xMidYMid" refX="0" refY="0" style="overflow:visible" viewBox="0 0 1 1"><path d="M-.211-4.106 6.21-.894a1 1 90 0 1 0 1.788L-.21 4.106A1.236 1.236 31.717 0 1-2 3v-6A1.236 1.236 148.283 0 1-.211-4.106z" style="fill:context-stroke;fill-rule:evenodd;stroke:none" transform="scale(0.7)"/></marker><marker id="M" markerHeight="1" markerWidth="1" orient="auto-start-reverse" preserveAspectRatio="xMidYMid" refX="0" refY="0" style="overflow:visible" viewBox="0 0 1 1"><path d="M-.211-4.106 6.21-.894a1 1 90 0 1 0 1.788L-.21 4.106A1.236 1.236 31.717 0 1-2 3v-6A1.236 1.236 148.283 0 1-.211-4.106z" style="fill:context-stroke;fill-rule:evenodd;stroke:none" transform="scale(0.7)"/></marker><marker id="N" markerHeight="1" markerWidth="1" orient="auto-start-reverse" preserveAspectRatio="xMidYMid" refX="0" refY="0" style="overflow:visible" viewBox="0 0 1 1"><path d="M-.211-4.106 6.21-.894a1 1 90 0 1 0 1.788L-.21 4.106A1.236 1.236 31.717 0 1-2 3v-6A1.236 1.236 148.283 0 1-.211-4.106z" style="fill:context-stroke;fill-rule:evenodd;stroke:none" transform="scale(0.7)"/></marker><marker id="O" markerHeight="1" markerWidth="1" orient="auto-start-reverse" preserveAspectRatio="xMidYMid" refX="0" refY="0" style="overflow:visible" viewBox="0 0 1 1"><path d="M-.211-4.106 6.21-.894a1 1 90 0 1 0 1.788L-.21 4.106A1.236 1.236 31.717 0 1-2 3v-6A1.236 1.236 148.283 0 1-.211-4.106z" style="fill:context-stroke;fill-rule:evenodd;stroke:none" transform="scale(0.7)"/></marker><marker id="Y" markerHeight="1" markerWidth="1" orient="auto-start-reverse" preserveAspectRatio="xMidYMid" refX="0" refY="0" style="overflow:visible" viewBox="0 0 1 1"><path d="M-.211-4.106 6.21-.894a1 1 90 0 1 0 1.788L-.21 4.106A1.236 1.236 31.717 0 1-2 3v-6A1.236 1.236 148.283 0 1-.211-4.106z" style="fill:context-stroke;fill-rule:evenodd;stroke:none" transform="scale(0.7)"/></marker><marker id="Z" markerHeight="1" markerWidth="1" orient="auto-start-reverse" preserveAspectRatio="xMidYMid" refX="0" refY="0" style="overflow:visible" viewBox="0 0 1 1"><path d="M-.211-4.106 6.21-.894a1 1 90 0 1 0 1.788L-.21 4.106A1.236 1.236 31.717 0 1-2 3v-6A1.236 1.236 148.283 0 1-.211-4.106z" style="fill:context-stroke;fill-rule:evenodd;stroke:none" transform="scale(0.7)"/></marker><marker id="D" markerHeight="1" markerWidth="1" orient="auto-start-reverse" preserveAspectRatio="xMidYMid" refX="0" refY="0" style="overflow:visible" viewBox="0 0 1 1"><path d="M-.211-4.106 6.21-.894a1 1 90 0 1 0 1.788L-.21 4.106A1.236 1.236 31.717 0 1-2 3v-6A1.236 1.236 148.283 0 1-.211-4.106z" style="fill:context-stroke;fill-rule:evenodd;stroke:none" transform="scale(0.7)"/></marker><marker id="E" markerHeight="1" markerWidth="1" orient="auto-start-reverse" preserveAspectRatio="xMidYMid" refX="0" refY="0" style="overflow:visible" viewBox="0 0 1 1"><path d="M-.211-4.106 6.21-.894a1 1 90 0 1 0 1.788L-.21 4.106A1.236 1.236 31.717 0 1-2 3v-6A1.236 1.236 148.283 0 1-.211-4.106z" style="fill:context-stroke;fill-rule:evenodd;stroke:none" transform="scale(0.7)"/></marker><marker id="ac" markerHeight="1" markerWidth="1" orient="auto-start-reverse" preserveAspectRatio="xMidYMid" refX="0" refY="0" style="overflow:visible" viewBox="0 0 1 1"><path d="M-.211-4.106 6.21-.894a1 1 90 0 1 0 1.788L-.21 4.106A1.236 1.236 31.717 0 1-2 3v-6A1.236 1.236 148.283 0 1-.211-4.106z" style="fill:context-stroke;fill-rule:evenodd;stroke:none" transform="scale(0.7)"/></marker><marker id="ad" markerHeight="1" markerWidth="1" orient="auto-start-reverse" preserveAspectRatio="xMidYMid" refX="0" refY="0" style="overflow:visible" viewBox="0 0 1 1"><path d="M-.211-4.106 6.21-.894a1 1 90 0 1 0 1.788L-.21 4.106A1.236 1.236 31.717 0 1-2 3v-6A1.236 1.236 148.283 0 1-.211-4.106z" style="fill:context-stroke;fill-rule:evenodd;stroke:none" transform="scale(0.7)"/></marker><path id="af" d="M101.578 2792.975h57.132v40.15h-57.132z"/><path id="ae" d="M0 2758.898h83.849v53.133H0z"/><path id="ab" d="M116.122 2744.339h35.515v25.664h-35.515z"/><path id="aa" d="M21.77 2494.387h29.796v25.243H21.77z"/><path id="X" d="M-28.59 2692.544h60.21v47.372h-60.21z"/><path id="W" d="M-210.389 2716.334h77.529v53.117h-77.529z"/><path id="k" d="M262.625 2335.759h99.08v71.139h-99.08z"/><path id="l" d="M76.008 2320.722h82.33v62.835h-82.33z"/><path id="m" d="M214.086 2407.869h91.159v48.008h-91.159z"/><path id="n" d="M333.994 2372.979h99.652v71.9h-99.652z"/><path id="o" d="M373.645 2326.059h81.78v46.484h-81.78z"/><path id="p" d="M399.172 2414.332h83.869v49.879h-83.869z"/><path id="q" d="M129.168 2354.55h93.584v45.454h-93.584z"/><path id="r" d="M242.905 2339.45h65.496v48.115h-65.496z"/><path id="s" d="M82.581 2312.307h74.122v52.028H82.581z"/><path id="t" d="M213.868 2361.743h62.624v31.55h-62.624z"/><path id="u" d="M317.746 2349.589h65.68v43.775h-65.68z"/><path id="v" d="M152.281 2344.459h88.97v40.025h-88.97z"/><path id="w" d="M143.563 2344.551h111.223v52.762H143.563z"/><path id="x" d="M206.743 2313.628h58.308v25.556h-58.308z"/><path id="y" d="M285.498 2336.619h72.568v40.456h-72.568z"/><path id="P" d="M232.998 693.148h86.641v36.168h-86.641z"/><path id="Q" d="M232.998 693.148h86.641v36.168h-86.641z"/><path id="R" d="M232.998 693.148h86.641v36.168h-86.641z"/><path id="S" d="M232.998 693.148h86.641v36.168h-86.641z"/><path id="T" d="M183.222 667.304h108.473v49.625H183.222z"/><path id="U" d="M232.998 693.148h86.641v36.168h-86.641z"/><path id="V" d="M232.998 693.148h86.641v36.168h-86.641z"/></defs><path d="M17.748 643.22h128.609v128.72H17.748z" style="fill:#fff;fill-opacity:1;stroke:#fff;stroke-width:.264583;stroke-linejoin:bevel;stroke-opacity:1" transform="translate(-17.615425,-643.08722)"/><path d="M390.823 642.13h9.342v.722h-9.342z" style="fill:green;stroke:none;stroke-width:.265393" transform="translate(-17.615425,-643.08722) matrix(-0.83424756,0.55139006,0.63998195,0.76838994,0,0)"/><path d="M-106.99 676.9h84.804v6.248h-84.804z" style="opacity:1;fill:#9854ff;fill-opacity:1;stroke:none;stroke-width:.264582" transform="translate(-17.615425,-643.08722) scale(-1,1)"/><path d="M754.325 54.79h14.709v.545h-14.709z" style="fill:#08a;stroke:#08a;stroke-width:.264583" transform="translate(-17.615425,-643.08722) matrix(0,1,1,0,0,0)"/><path d="M54.79-769.034h1.575v.656H54.79z" style="fill:#08a;stroke:#08a;stroke-width:.264582" transform="translate(-17.615425,-643.08722) scale(1,-1)"/><path d="M754.325-73.886h14.709v.545h-14.709z" style="fill:#08a;stroke:#08a;stroke-width:.264583" transform="translate(-17.615425,-643.08722) rotate(90)"/><path d="M-73.886-769.034h1.575v.656h-1.575z" style="fill:#08a;stroke:#08a;stroke-width:.264582" transform="translate(-17.615425,-643.08722) scale(-1)"/><path d="M686.03 188.002h32.253v.55H686.03z" style="fill:#08a;stroke:#08a;stroke-width:.264974" transform="translate(-17.615425,-643.08722) matrix(-0.17700955,0.98420913,0.96771702,0.25203922,0,0)"/><path d="M718.557 60.983h32.253v.55h-32.253z" style="fill:#08a;stroke:#08a;stroke-width:.264974" transform="translate(-17.615425,-643.08722) matrix(0.17700955,0.98420913,-0.96771702,0.25203922,0,0)"/><path d="M-724.936-51.596h10.005v1.549h-10.005zM-724.936-78.711h10.005v1.549h-10.005z" style="fill:green;stroke:none;stroke-width:.264584" transform="translate(-17.615425,-643.08722) matrix(0,-1,-1,0,0,0)"/><path d="M-533.164-480.472h19.722v1.549h-19.722z" style="fill:green;stroke:none;stroke-width:.264583" transform="translate(-17.615425,-643.08722) matrix(0.61466975,-0.78878457,-0.78878457,-0.61466975,0,0)"/><path d="M-612.308-378.91h19.722v1.549h-19.722z" style="fill:green;stroke:none;stroke-width:.264583" transform="translate(-17.615425,-643.08722) rotate(-127.92793)"/><path d="M22.32 673.78v-23.66M106.862 673.78v-23.66" style="fill:none;stroke:#b3b3b3;stroke-width:.264582px;stroke-linecap:butt;stroke-linejoin:miter;stroke-opacity:1" transform="translate(-17.615425,-643.08722)"/><path d="M64.587 680.156h64.14M64.215 688.162h65.325M66.588 699.375h76.451M78.71 715.064h64.33M78.71 724.804h64.33M68.177 722.58h70.17M74.019 754.06h64.328M74.019 769.034h64.328" style="fill:none;stroke:#b3b3b3;stroke-width:.264583px;stroke-linecap:butt;stroke-linejoin:miter;stroke-opacity:1" transform="translate(-17.615425,-643.08722)"/><path d="M138.347 755.427v12.354" style="fill:none;stroke:#000;stroke-width:.264583px;stroke-linecap:butt;stroke-linejoin:miter;stroke-opacity:1;marker-start:url(#a);marker-end:url(#a)" transform="translate(-17.615425,-643.08722)"/><path d="M138.347 723.75v29.053" style="fill:none;stroke:#000;stroke-width:.264583px;stroke-linecap:butt;stroke-linejoin:miter;stroke-opacity:1;marker-start:url(#b);marker-end:url(#b)" transform="translate(-17.615425,-643.08722)"/><path d="M143.04 716.377v7.114" style="fill:none;stroke:#000;stroke-width:.264583px;stroke-linecap:butt;stroke-linejoin:miter;stroke-opacity:1;marker-start:url(#c);marker-end:url(#c)" transform="translate(-17.615425,-643.08722)"/><path d="M143.04 700.546v13.246" style="fill:none;stroke:#000;stroke-width:.264584px;stroke-linecap:butt;stroke-linejoin:miter;stroke-opacity:1;marker-start:url(#d);marker-end:url(#d)" transform="translate(-17.615425,-643.08722)"/><path d="M132.965 700.654v5.653" style="fill:none;stroke:#000;stroke-width:.264583px;stroke-linecap:butt;stroke-linejoin:miter;stroke-opacity:1;marker-start:url(#e);marker-end:url(#e)" transform="translate(-17.615425,-643.08722)"/><path d="M111.9 717.891v3.309" style="fill:none;stroke:#000;stroke-width:.264583px;stroke-linecap:butt;stroke-linejoin:miter;stroke-opacity:1;marker-end:url(#f)" transform="translate(-17.615425,-643.08722)"/><path d="M111.79 729.427v-3.309" style="fill:none;stroke:#000;stroke-width:.264583px;stroke-linecap:butt;stroke-linejoin:miter;stroke-opacity:1;marker-end:url(#g)" transform="translate(-17.615425,-643.08722)"/><path d="M128.727 689.638v16.717" style="fill:none;stroke:#000;stroke-width:.264584px;stroke-linecap:butt;stroke-linejoin:miter;stroke-opacity:1;marker-start:url(#h);marker-end:url(#h)" transform="translate(-17.615425,-643.08722)"/><path d="M128.727 681.436v5.54" style="fill:none;stroke:#000;stroke-width:.264584px;stroke-linecap:butt;stroke-linejoin:miter;stroke-opacity:1;marker-start:url(#i);marker-end:url(#i)" transform="translate(-17.615425,-643.08722)"/><path d="M490.095 570.775h9.342v.722h-9.342z" style="fill:green;stroke:none;stroke-width:.265393" transform="translate(-17.615425,-643.08722) matrix(0.83424756,0.55139006,-0.63998195,0.76838994,0,0)"/><path d="M23.734 650.12h81.715" style="fill:none;stroke:#000;stroke-width:.264583px;stroke-linecap:butt;stroke-linejoin:miter;stroke-opacity:1;marker-start:url(#j);marker-end:url(#j)" transform="translate(-17.615425,-643.08722)"/><text xml:space="preserve" style="font-size:14.6667px;line-height:1.25;font-family:sans-serif;white-space:pre;shape-inside:url(#k);display:inline" transform="translate(-17.615425,-643.08722) matrix(0.26458333,0,0,0.26458333,62.371737,141.88961)"><tspan x="262.625" y="2348.736">H1</tspan></text><text xml:space="preserve" style="font-size:14.6667px;line-height:1.25;font-family:sans-serif;white-space:pre;shape-inside:url(#l);display:inline" transform="translate(-17.615425,-643.08722) matrix(0.26458333,0,0,0.26458333,112.28678,122.40426)"><tspan x="76.008" y="2333.699">H2</tspan></text><text xml:space="preserve" style="font-size:14.6667px;line-height:1.25;font-family:sans-serif;white-space:pre;shape-inside:url(#m);display:inline" transform="translate(-17.615425,-643.08722) matrix(0.26458333,0,0,0.26458333,52.735994,92.323209)"><tspan x="214.086" y="2420.846">H3</tspan></text><text xml:space="preserve" style="font-size:14.6667px;line-height:1.25;font-family:sans-serif;white-space:pre;shape-inside:url(#n);display:inline" transform="translate(-17.615425,-643.08722) matrix(0.26458333,0,0,0.26458333,49.053377,89.687459)"><tspan x="333.994" y="2385.955">H4</tspan></text><text xml:space="preserve" style="font-size:14.6667px;line-height:1.25;font-family:sans-serif;white-space:pre;shape-inside:url(#o);display:inline" transform="translate(-17.615425,-643.08722) matrix(0.26458333,0,0,0.26458333,38.771151,89.690389)"><tspan x="373.645" y="2339.035">H5</tspan></text><text xml:space="preserve" style="font-size:14.6667px;line-height:1.25;font-family:sans-serif;white-space:pre;shape-inside:url(#p);display:inline" transform="translate(-17.615425,-643.08722) matrix(0.26458333,0,0,0.26458333,27.955721,62.485309)"><tspan x="399.172" y="2427.309">H6</tspan></text><text xml:space="preserve" style="font-size:14.6667px;line-height:1.25;font-family:sans-serif;white-space:pre;shape-inside:url(#q);display:inline" transform="translate(-17.615425,-643.08722) matrix(0.26458333,0,0,0.26458333,94.99967,70.40719)"><tspan x="129.168" y="2367.527">H7</tspan></text><text xml:space="preserve" style="font-size:14.6667px;line-height:1.25;font-family:sans-serif;white-space:pre;shape-inside:url(#r);display:inline" transform="translate(-17.615425,-643.08722) matrix(0.26458333,0,0,0.26458333,65.012362,63.067339)"><tspan x="242.904" y="2352.426">H8</tspan></text><text xml:space="preserve" style="font-size:14.6667px;line-height:1.25;font-family:sans-serif;white-space:pre;shape-inside:url(#s);display:inline" transform="translate(-17.615425,-643.08722) matrix(0.26458333,0,0,0.26458333,40.781893,33.991297)"><tspan x="82.582" y="2325.283">L1</tspan></text><text xml:space="preserve" style="font-size:14.6667px;line-height:1.25;font-family:sans-serif;white-space:pre;shape-inside:url(#t);display:inline" transform="translate(-17.615425,-643.08722) matrix(0.26458333,0,0,0.26458333,17.938143,129.83785)"><tspan x="213.867" y="2374.721">D1</tspan></text><text xml:space="preserve" style="font-size:14.6667px;line-height:1.25;font-family:sans-serif;white-space:pre;shape-inside:url(#u);display:inline" transform="translate(-17.615425,-643.08722) matrix(0.26458333,0,0,0.26458333,-14.578459,101.12594)"><tspan x="317.746" y="2362.566">D2</tspan></text><text xml:space="preserve" style="font-size:14.6667px;line-height:1.25;font-family:sans-serif;white-space:pre;shape-inside:url(#v);display:inline" transform="translate(-17.615425,-643.08722) matrix(0.26458333,0,0,0.26458333,37.976229,104.09078)"><tspan x="152.281" y="2357.436">D3</tspan></text><text xml:space="preserve" style="font-size:14.6667px;line-height:1.25;font-family:sans-serif;white-space:pre;shape-inside:url(#w);display:inline" transform="translate(-17.615425,-643.08722) matrix(0.26458333,0,0,0.26458333,-9.2929317,85.71781)"><tspan x="143.563" y="2357.527">D5</tspan></text><text xml:space="preserve" style="font-size:14.6667px;line-height:1.25;font-family:sans-serif;white-space:pre;shape-inside:url(#x);display:inline" transform="translate(-17.615425,-643.08722) matrix(0.26458333,0,0,0.26458333,0.94150198,148.92145)"><tspan x="206.742" y="2326.604">E1</tspan></text><path d="M34.653-705.759h59.363v.866H34.653zM34.653-710.143h59.363v.866H34.653z" style="fill:green;stroke:none;stroke-width:.264585" transform="translate(-17.615425,-643.08722) scale(1,-1)"/><path d="M34.653-709.277h59.363v3.493H34.653z" style="fill:#d7f4d7;fill-opacity:1;stroke:none;stroke-width:.264584" transform="translate(-17.615425,-643.08722) scale(1,-1)"/><path d="M64.54 707.673h68.425" style="fill:none;stroke:#b3b3b3;stroke-width:.264583px;stroke-linecap:butt;stroke-linejoin:miter;stroke-opacity:1" transform="translate(-17.615425,-643.08722)"/><text xml:space="preserve" style="font-size:14.6667px;line-height:1.25;font-family:sans-serif;white-space:pre;shape-inside:url(#y);display:inline" transform="translate(-17.615425,-643.08722) matrix(0.26458333,0,0,0.26458333,-8.8465353,77.284509)"><tspan x="285.498" y="2349.596">D4</tspan></text><path d="M-704.893-38.706h29.587v4.053h-29.587zM-704.893-94.016h29.587v4.053h-29.587z" style="opacity:.8;fill:green;stroke:none;stroke-width:.264581" transform="translate(-17.615425,-643.08722) matrix(0,-1,-1,0,0,0)"/><path d="M673.794-58.984h3.12v2.926h-3.12zM673.794-52.004h3.12v2.926h-3.12z" style="fill:#40a;fill-opacity:.701961;stroke:none;stroke-width:.264582" transform="translate(-17.615425,-643.08722) rotate(90)"/><path d="M-704.927-56.058h29.573v4.053h-29.573zM-704.927-76.664h29.573v4.053h-29.573z" style="opacity:.8;fill:green;stroke:none;stroke-width:.264581" transform="translate(-17.615425,-643.08722) matrix(0,-1,-1,0,0,0)"/><path d="M673.794-41.607h3.12v2.926h-3.12zM673.794-34.642h3.12v2.926h-3.12zM673.78-25.111h3.12v2.926h-3.12zM673.78-72.662h3.12v2.926h-3.12zM673.794-79.59h3.12v2.926h-3.12zM673.746-89.963h3.12v2.926h-3.12zM673.746-96.942h3.12v2.926h-3.12zM673.78-106.99h3.12v2.926h-3.12z" style="fill:#40a;fill-opacity:.701961;stroke:none;stroke-width:.264582" transform="translate(-17.615425,-643.08722) rotate(90)"/><path d="M69.868 673.78v-15.244M59.116 673.794V658.55" style="fill:none;stroke:#b3b3b3;stroke-width:.264583px;stroke-linecap:butt;stroke-linejoin:miter;stroke-opacity:1" transform="translate(-17.615425,-643.08722)"/><path d="M60.201 658.55h8.582" style="fill:none;stroke:#000;stroke-width:.264584;stroke-linecap:butt;stroke-linejoin:miter;stroke-opacity:1;marker-start:url(#z);marker-end:url(#A)" transform="translate(-17.615425,-643.08722)"/><path d="M49.078 673.794V658.55" style="fill:none;stroke:#b3b3b3;stroke-width:.264583px;stroke-linecap:butt;stroke-linejoin:miter;stroke-opacity:1" transform="translate(-17.615425,-643.08722)"/><path d="M33.198 658.55h6.893" style="fill:none;stroke:#000;stroke-width:.264584;stroke-linecap:butt;stroke-linejoin:miter;stroke-opacity:1;marker-start:url(#B);marker-end:url(#C)" transform="translate(-17.615425,-643.08722)"/><path d="M36.244 725.12h6.893" style="fill:none;stroke:#000;stroke-width:.264584;stroke-linecap:butt;stroke-linejoin:miter;stroke-opacity:1;marker-start:url(#D);marker-end:url(#E)" transform="translate(-17.615425,-643.08722)"/><path d="M41.474 673.794V658.55M31.849 673.794V658.55M79.723 673.794V658.55M87.037 673.746v-15.244M97.074 673.746v-15.244" style="fill:none;stroke:#b3b3b3;stroke-width:.264583px;stroke-linecap:butt;stroke-linejoin:miter;stroke-opacity:1" transform="translate(-17.615425,-643.08722)"/><path d="M42.69 658.55h5.101" style="fill:none;stroke:#000;stroke-width:.264584;stroke-linecap:butt;stroke-linejoin:miter;stroke-opacity:1;marker-start:url(#F);marker-end:url(#G)" transform="translate(-17.615425,-643.08722)"/><path d="M50.463 658.55h7.207" style="fill:none;stroke:#000;stroke-width:.264584;stroke-linecap:butt;stroke-linejoin:miter;stroke-opacity:1;marker-start:url(#H);marker-end:url(#I)" transform="translate(-17.615425,-643.08722)"/><path d="M71.353 658.55h7.185" style="fill:none;stroke:#000;stroke-width:.264584;stroke-linecap:butt;stroke-linejoin:miter;stroke-opacity:1;marker-start:url(#J);marker-end:url(#K)" transform="translate(-17.615425,-643.08722)"/><path d="M80.926 658.55h4.903" style="fill:none;stroke:#000;stroke-width:.264584;stroke-linecap:butt;stroke-linejoin:miter;stroke-opacity:1;marker-start:url(#L);marker-end:url(#M)" transform="translate(-17.615425,-643.08722)"/><path d="M88.478 658.502h7.419" style="fill:none;stroke:#000;stroke-width:.264584;stroke-linecap:butt;stroke-linejoin:miter;stroke-opacity:1;marker-start:url(#N);marker-end:url(#O)" transform="translate(-17.615425,-643.08722)"/><text xml:space="preserve" style="font-size:14.6667px;line-height:1.25;font-family:sans-serif;white-space:pre;shape-inside:url(#P);display:inline" transform="translate(-17.615425,-643.08722) matrix(0.26458333,0,0,0.26458333,-27.257428,475.21611)"><tspan x="232.998" y="706.125">L4</tspan></text><text xml:space="preserve" style="font-size:14.6667px;line-height:1.25;font-family:sans-serif;white-space:pre;shape-inside:url(#Q);display:inline" transform="translate(-17.615425,-643.08722) matrix(0.26458333,0,0,0.26458333,-9.9591707,475.1263)"><tspan x="232.998" y="706.125">L4</tspan></text><text xml:space="preserve" style="font-size:14.6667px;line-height:1.25;font-family:sans-serif;white-space:pre;shape-inside:url(#R);display:inline" transform="translate(-17.615425,-643.08722) matrix(0.26458333,0,0,0.26458333,11.20963,475.25507)"><tspan x="232.998" y="706.125">L4</tspan></text><text xml:space="preserve" style="font-size:14.6667px;line-height:1.25;font-family:sans-serif;white-space:pre;shape-inside:url(#S);display:inline" transform="translate(-17.615425,-643.08722) matrix(0.26458333,0,0,0.26458333,28.278118,475.25868)"><tspan x="232.998" y="706.125">L4</tspan></text><text xml:space="preserve" style="font-size:14.6667px;line-height:1.25;font-family:sans-serif;white-space:pre;shape-inside:url(#T);display:inline" transform="translate(-17.615425,-643.08722) matrix(0.26458333,0,0,0.26458333,13.74366,478.04333)"><tspan x="183.223" y="680.281">L5</tspan></text><text xml:space="preserve" style="font-size:14.6667px;line-height:1.25;font-family:sans-serif;white-space:pre;shape-inside:url(#U);display:inline" transform="translate(-17.615425,-643.08722) matrix(0.26458333,0,0,0.26458333,-18.431971,470.35136)"><tspan x="232.998" y="706.125">L6</tspan></text><text xml:space="preserve" style="font-size:14.6667px;line-height:1.25;font-family:sans-serif;white-space:pre;shape-inside:url(#V);display:inline" transform="translate(-17.615425,-643.08722) matrix(0.26458333,0,0,0.26458333,19.65608,470.35793)"><tspan x="232.998" y="706.125">L6</tspan></text><text xml:space="preserve" style="font-size:14.6667px;line-height:1.25;font-family:sans-serif;white-space:pre;shape-inside:url(#W);display:inline" transform="translate(-17.615425,-643.08722) matrix(0.26458333,0,0,0.26458333,163.0254,-42.672237)"><tspan x="-210.389" y="2729.311">D6</tspan></text><path d="M56.216 686.788h15.999v2.748H56.216z" style="opacity:1;fill:gray;fill-opacity:1;stroke:none;stroke-width:.132292;stroke-linejoin:bevel" transform="translate(-17.615425,-643.08722)"/><text xml:space="preserve" style="font-size:14.6667px;line-height:1.25;font-family:sans-serif;white-space:pre;shape-inside:url(#X);display:inline" transform="translate(-17.615425,-643.08722) matrix(0.26458333,0,0,0.26458333,57.763672,-26.375976)"><tspan x="-28.59" y="2705.521">D8</tspan></text><path d="M24.979 673.78v-15.244" style="fill:none;stroke:#b3b3b3;stroke-width:.264583px;stroke-linecap:butt;stroke-linejoin:miter;stroke-opacity:1" transform="translate(-17.615425,-643.08722)"/><path d="M18.915 658.536h2.033" style="fill:none;stroke:#000;stroke-width:.264583;stroke-linecap:butt;stroke-linejoin:miter;stroke-opacity:1;marker-end:url(#Y)" transform="translate(-17.615425,-643.08722)"/><path d="M28.397 658.536h-2.033" style="fill:none;stroke:#000;stroke-width:.264583;stroke-linecap:butt;stroke-linejoin:miter;stroke-opacity:1;marker-end:url(#Z)" transform="translate(-17.615425,-643.08722)"/><text xml:space="preserve" style="font-size:14.6667px;line-height:1.25;font-family:sans-serif;white-space:pre;shape-inside:url(#aa);display:inline" transform="translate(-17.615425,-643.08722) matrix(0.26458333,0,0,0.26458333,16.815883,-5.98762)"><tspan x="21.77" y="2507.363">L3</tspan></text><path d="M34.785 725.386v-15.243M44.625 725.386v-15.243" style="fill:none;stroke:#b3b3b3;stroke-width:.264583px;stroke-linecap:butt;stroke-linejoin:miter;stroke-opacity:1" transform="translate(-17.615425,-643.08722)"/><path d="M27.056 714.195h23.507M27.056 715.056h23.06" style="fill:none;stroke:#b3b3b3;stroke-width:.264582px;stroke-linecap:butt;stroke-linejoin:miter;stroke-opacity:1" transform="translate(-17.615425,-643.08722)"/><text xml:space="preserve" style="font-size:14.6667px;line-height:1.25;font-family:sans-serif;white-space:pre;shape-inside:url(#ab);display:inline" transform="translate(-17.615425,-643.08722) matrix(0.26458333,0,0,0.26458333,11.699286,-13.831315)"><tspan x="116.121" y="2757.316">D9</tspan></text><path d="M27.056 710.777v2.033" style="fill:none;stroke:#000;stroke-width:.264583;stroke-linecap:butt;stroke-linejoin:miter;stroke-opacity:1;marker-end:url(#ac)" transform="translate(-17.615425,-643.08722)"/><path d="M27.056 718.474v-2.033" style="fill:none;stroke:#000;stroke-width:.264583;stroke-linecap:butt;stroke-linejoin:miter;stroke-opacity:1;marker-end:url(#ad)" transform="translate(-17.615425,-643.08722)"/><text xml:space="preserve" style="font-size:14.6667px;line-height:1.25;font-family:sans-serif;white-space:pre;shape-inside:url(#ae)" transform="translate(-17.615425,-643.08722) matrix(0.26458333,0,0,0.26458333,23.881836,-11.014648)"><tspan x="0" y="2771.875">L7</tspan></text><text xml:space="preserve" style="font-size:14.6667px;line-height:1.25;font-family:sans-serif;white-space:pre;shape-inside:url(#af)" transform="translate(-17.615425,-643.08722) matrix(0.26458333,0,0,0.26458333,9.8349609,-12.880859)"><tspan x="101.578" y="2805.951">L8</tspan></text></svg>