<svg xmlns="http://www.w3.org/2000/svg" width="600" height="3000" viewBox="0 0 158.75 793.75"><defs><path id="b" d="M421.012 630.717h117.962v37.466H421.012z"/><path id="a" d="M8.231 9.995h342.811v58.022H8.231z"/><marker id="c" markerHeight="1" markerWidth="1" orient="auto-start-reverse" preserveAspectRatio="xMidYMid" refX="0" refY="0" style="overflow:visible" viewBox="0 0 1 1"><path d="M-.211-4.106 6.21-.894a1 1 90 0 1 0 1.788L-.21 4.106A1.236 1.236 31.717 0 1-2 3v-6A1.236 1.236 148.283 0 1-.211-4.106z" style="fill:context-stroke;fill-rule:evenodd;stroke:none" transform="scale(.7)"/></marker></defs><path d="M32.442 185.952h93.862l-1.557 13.358-11.752 22.637-16.272-4.806-23.912 5.894-15.544-4.224-13.981 1.846-8.68-11.634z" style="fill:#d4aa00;stroke:#d4aa00;stroke-width:.264583px;stroke-linecap:butt;stroke-linejoin:miter;stroke-opacity:1"/><path d="M43.662 185.75h69.187v24.379H43.662z" style="fill:#e3dedb;stroke:#e3dedb;stroke-width:.264583"/><text xml:space="preserve" style="font-size:14.6667px;line-height:1.25;font-family:sans-serif;white-space:pre;shape-inside:url(#a);display:inline" transform="scale(.26458)"><tspan x="8.23" y="22.971">heliostat.svg</tspan></text><path d="M46.628 195.246h18.059v1.323H46.628zM91.674 195.246h18.059v1.323H91.674z" style="fill:#08a;stroke:#08a;stroke-width:.264583"/><path d="M-194.981 54.996h18.059v1.323h-18.059zM-194.981 100.042h18.059v1.323h-18.059z" style="fill:#08a;stroke:#08a;stroke-width:.264583" transform="rotate(-90)"/><path d="M54.996 176.922h3.824v1.323h-3.824zM97.541 176.922h3.824v1.323h-3.824z" style="fill:#08a;stroke:#08a;stroke-width:.264582"/><text xml:space="preserve" style="font-size:14.6667px;line-height:1.25;font-family:sans-serif;white-space:pre;shape-inside:url(#b);display:inline" transform="matrix(.26458 0 0 .26458 -1.06 6.425)"><tspan x="421.012" y="643.693">socle</tspan></text><path d="m103.422 180.202 7.654-2.96" style="fill:none;stroke:#000;stroke-width:.264583px;stroke-linecap:butt;stroke-linejoin:miter;stroke-opacity:1;marker-start:url(#c)"/></svg>