<svg xmlns="http://www.w3.org/2000/svg" width="487.082" height="527.989" viewBox="0 0 128.874 139.697"><defs><path id="O" d="M17.209 2038.808h65.972v37.731H17.209z"/><path id="N" d="M309.638 2316.556h56.455v27.999h-56.455z"/><path id="M" d="M206.743 2313.628h58.308v25.556h-58.308z"/><path id="L" d="M491.409 1790.861h52.477v30.885h-52.477z"/><path id="K" d="M446.571 1734.453h64.644v37.442h-64.644z"/><path id="J" d="M489.68 1794.15h78.858v45.177H489.68z"/><path id="I" d="M409.589 1735.523h89.035v43.907h-89.035z"/><path id="H" d="M143.563 2344.551h111.223v52.762H143.563z"/><path id="G" d="M285.498 2336.619h72.568v40.456h-72.568z"/><path id="F" d="M152.281 2344.459h88.97v40.025h-88.97z"/><path id="E" d="M317.746 2349.589h65.68v43.775h-65.68z"/><path id="D" d="M213.868 2361.743h62.624v31.55h-62.624z"/><path id="C" d="M82.581 2312.307h74.122v52.028H82.581z"/><path id="B" d="M393.462 2367.206h70.191v38.478h-70.191z"/><path id="A" d="M242.905 2339.45h65.496v48.115h-65.496z"/><path id="z" d="M129.168 2354.55h93.584v45.454h-93.584z"/><path id="y" d="M399.172 2414.332h83.869v49.879h-83.869z"/><path id="x" d="M373.645 2326.059h81.78v46.484h-81.78z"/><path id="w" d="M333.994 2372.979h99.652v71.9h-99.652z"/><path id="v" d="M214.086 2407.869h91.159v48.008h-91.159z"/><path id="u" d="M76.008 2320.722h82.33v62.835h-82.33z"/><path id="t" d="M262.625 2335.759h99.08v71.139h-99.08z"/><path id="s" d="M382.343 2164.988h48.058v19.942h-48.058z"/><path id="r" d="M170.189 2164.988h50.681v30.45h-50.681z"/><marker id="a" markerHeight="1" markerWidth="1" orient="auto-start-reverse" preserveAspectRatio="xMidYMid" refX="0" refY="0" style="overflow:visible" viewBox="0 0 1 1"><path d="M-.211-4.106 6.21-.894a1 1 90 0 1 0 1.788L-.21 4.106A1.236 1.236 31.717 0 1-2 3v-6A1.236 1.236 148.283 0 1-.211-4.106z" style="fill:context-stroke;fill-rule:evenodd;stroke:none" transform="scale(0.7)"/></marker><marker id="b" markerHeight="1" markerWidth="1" orient="auto-start-reverse" preserveAspectRatio="xMidYMid" refX="0" refY="0" style="overflow:visible" viewBox="0 0 1 1"><path d="M-.211-4.106 6.21-.894a1 1 90 0 1 0 1.788L-.21 4.106A1.236 1.236 31.717 0 1-2 3v-6A1.236 1.236 148.283 0 1-.211-4.106z" style="fill:context-stroke;fill-rule:evenodd;stroke:none" transform="scale(0.7)"/></marker><marker id="c" markerHeight="1" markerWidth="1" orient="auto-start-reverse" preserveAspectRatio="xMidYMid" refX="0" refY="0" style="overflow:visible" viewBox="0 0 1 1"><path d="M-.211-4.106 6.21-.894a1 1 90 0 1 0 1.788L-.21 4.106A1.236 1.236 31.717 0 1-2 3v-6A1.236 1.236 148.283 0 1-.211-4.106z" style="fill:context-stroke;fill-rule:evenodd;stroke:none" transform="scale(0.7)"/></marker><marker id="d" markerHeight="1" markerWidth="1" orient="auto-start-reverse" preserveAspectRatio="xMidYMid" refX="0" refY="0" style="overflow:visible" viewBox="0 0 1 1"><path d="M-.211-4.106 6.21-.894a1 1 90 0 1 0 1.788L-.21 4.106A1.236 1.236 31.717 0 1-2 3v-6A1.236 1.236 148.283 0 1-.211-4.106z" style="fill:context-stroke;fill-rule:evenodd;stroke:none" transform="scale(0.7)"/></marker><marker id="e" markerHeight="1" markerWidth="1" orient="auto-start-reverse" preserveAspectRatio="xMidYMid" refX="0" refY="0" style="overflow:visible" viewBox="0 0 1 1"><path d="M-.211-4.106 6.21-.894a1 1 90 0 1 0 1.788L-.21 4.106A1.236 1.236 31.717 0 1-2 3v-6A1.236 1.236 148.283 0 1-.211-4.106z" style="fill:context-stroke;fill-rule:evenodd;stroke:none" transform="scale(0.7)"/></marker><marker id="g" markerHeight="1" markerWidth="1" orient="auto-start-reverse" preserveAspectRatio="xMidYMid" refX="0" refY="0" style="overflow:visible" viewBox="0 0 1 1"><path d="M-.211-4.106 6.21-.894a1 1 90 0 1 0 1.788L-.21 4.106A1.236 1.236 31.717 0 1-2 3v-6A1.236 1.236 148.283 0 1-.211-4.106z" style="fill:context-stroke;fill-rule:evenodd;stroke:none" transform="scale(0.7)"/></marker><marker id="h" markerHeight="1" markerWidth="1" orient="auto-start-reverse" preserveAspectRatio="xMidYMid" refX="0" refY="0" style="overflow:visible" viewBox="0 0 1 1"><path d="M-.211-4.106 6.21-.894a1 1 90 0 1 0 1.788L-.21 4.106A1.236 1.236 31.717 0 1-2 3v-6A1.236 1.236 148.283 0 1-.211-4.106z" style="fill:context-stroke;fill-rule:evenodd;stroke:none" transform="scale(0.7)"/></marker><marker id="i" markerHeight="1" markerWidth="1" orient="auto-start-reverse" preserveAspectRatio="xMidYMid" refX="0" refY="0" style="overflow:visible" viewBox="0 0 1 1"><path d="M-.211-4.106 6.21-.894a1 1 90 0 1 0 1.788L-.21 4.106A1.236 1.236 31.717 0 1-2 3v-6A1.236 1.236 148.283 0 1-.211-4.106z" style="fill:context-stroke;fill-rule:evenodd;stroke:none" transform="scale(0.7)"/></marker><marker id="j" markerHeight="1" markerWidth="1" orient="auto-start-reverse" preserveAspectRatio="xMidYMid" refX="0" refY="0" style="overflow:visible" viewBox="0 0 1 1"><path d="M-.211-4.106 6.21-.894a1 1 90 0 1 0 1.788L-.21 4.106A1.236 1.236 31.717 0 1-2 3v-6A1.236 1.236 148.283 0 1-.211-4.106z" style="fill:context-stroke;fill-rule:evenodd;stroke:none" transform="scale(0.7)"/></marker><marker id="k" markerHeight="1" markerWidth="1" orient="auto-start-reverse" preserveAspectRatio="xMidYMid" refX="0" refY="0" style="overflow:visible" viewBox="0 0 1 1"><path d="M-.211-4.106 6.21-.894a1 1 90 0 1 0 1.788L-.21 4.106A1.236 1.236 31.717 0 1-2 3v-6A1.236 1.236 148.283 0 1-.211-4.106z" style="fill:context-stroke;fill-rule:evenodd;stroke:none" transform="scale(0.7)"/></marker><marker id="l" markerHeight="1" markerWidth="1" orient="auto-start-reverse" preserveAspectRatio="xMidYMid" refX="0" refY="0" style="overflow:visible" viewBox="0 0 1 1"><path d="M-.211-4.106 6.21-.894a1 1 90 0 1 0 1.788L-.21 4.106A1.236 1.236 31.717 0 1-2 3v-6A1.236 1.236 148.283 0 1-.211-4.106z" style="fill:context-stroke;fill-rule:evenodd;stroke:none" transform="scale(0.7)"/></marker><marker id="f" markerHeight="1" markerWidth="1" orient="auto-start-reverse" preserveAspectRatio="xMidYMid" refX="0" refY="0" style="overflow:visible" viewBox="0 0 1 1"><path d="M-.211-4.106 6.21-.894a1 1 90 0 1 0 1.788L-.21 4.106A1.236 1.236 31.717 0 1-2 3v-6A1.236 1.236 148.283 0 1-.211-4.106z" style="fill:context-stroke;fill-rule:evenodd;stroke:none" transform="scale(0.7)"/></marker><marker id="m" markerHeight="1" markerWidth="1" orient="auto-start-reverse" preserveAspectRatio="xMidYMid" refX="0" refY="0" style="overflow:visible" viewBox="0 0 1 1"><path d="M-.211-4.106 6.21-.894a1 1 90 0 1 0 1.788L-.21 4.106A1.236 1.236 31.717 0 1-2 3v-6A1.236 1.236 148.283 0 1-.211-4.106z" style="fill:context-stroke;fill-rule:evenodd;stroke:none" transform="scale(0.7)"/></marker><marker id="n" markerHeight="1" markerWidth="1" orient="auto-start-reverse" preserveAspectRatio="xMidYMid" refX="0" refY="0" style="overflow:visible" viewBox="0 0 1 1"><path d="M-.211-4.106 6.21-.894a1 1 90 0 1 0 1.788L-.21 4.106A1.236 1.236 31.717 0 1-2 3v-6A1.236 1.236 148.283 0 1-.211-4.106z" style="fill:context-stroke;fill-rule:evenodd;stroke:none" transform="scale(0.7)"/></marker><marker id="o" markerHeight="1" markerWidth="1" orient="auto-start-reverse" preserveAspectRatio="xMidYMid" refX="0" refY="0" style="overflow:visible" viewBox="0 0 1 1"><path d="M-.211-4.106 6.21-.894a1 1 90 0 1 0 1.788L-.21 4.106A1.236 1.236 31.717 0 1-2 3v-6A1.236 1.236 148.283 0 1-.211-4.106z" style="fill:context-stroke;fill-rule:evenodd;stroke:none" transform="scale(0.7)"/></marker><marker id="p" markerHeight="1" markerWidth="1" orient="auto-start-reverse" preserveAspectRatio="xMidYMid" refX="0" refY="0" style="overflow:visible" viewBox="0 0 1 1"><path d="M-.211-4.106 6.21-.894a1 1 90 0 1 0 1.788L-.21 4.106A1.236 1.236 31.717 0 1-2 3v-6A1.236 1.236 148.283 0 1-.211-4.106z" style="fill:context-stroke;fill-rule:evenodd;stroke:none" transform="scale(0.7)"/></marker><marker id="q" markerHeight="1" markerWidth="1" orient="auto-start-reverse" preserveAspectRatio="xMidYMid" refX="0" refY="0" style="overflow:visible" viewBox="0 0 1 1"><path d="M-.211-4.106 6.21-.894a1 1 90 0 1 0 1.788L-.21 4.106A1.236 1.236 31.717 0 1-2 3v-6A1.236 1.236 148.283 0 1-.211-4.106z" style="fill:context-stroke;fill-rule:evenodd;stroke:none" transform="scale(0.7)"/></marker></defs><g transform="translate(-19.626648,-470.18729)"><path d="M19.759 470.32h128.609v139.433H19.759z" style="opacity:1;fill:#fff;fill-opacity:1;stroke:#f9f9f9;stroke-width:.264583;stroke-linejoin:bevel;stroke-opacity:1"/><path d="M97.67 561.878h-9.672M44.621 562.01H34.95" style="fill:none;stroke:#ccc;stroke-width:.264583px;stroke-linecap:butt;stroke-linejoin:miter;stroke-opacity:1"/><circle cx="66.612" cy="525.92" r="33.302" style="fill:none;fill-opacity:.5;stroke:#e6e6e6;stroke-width:.264583;stroke-linejoin:bevel"/><circle cx="66.599" cy="515.908" r="41.864" style="opacity:1;fill:none;fill-opacity:.5;stroke:#e6e6e6;stroke-width:.264583;stroke-linejoin:bevel"/><path d="M103.271 554.755h3.559v.718h-3.559z" style="fill:green;stroke:none;stroke-width:.264748" transform="matrix(0.99995927,-0.00902493,-0.04088513,0.99916385,0,0)"/><path d="M589.944 56.801h14.709v.545h-14.709z" style="fill:#08a;stroke:#08a;stroke-width:.264583" transform="matrix(0,1,1,0,0,0)"/><path d="M56.801-604.653h1.575v.656h-1.575z" style="fill:#08a;stroke:#08a;stroke-width:.264582" transform="scale(1,-1)"/><path d="M589.944-75.898h14.709v.545h-14.709z" style="fill:#08a;stroke:#08a;stroke-width:.264583" transform="rotate(90)"/><path d="M-75.898-604.653h1.575v.656h-1.575z" style="fill:#08a;stroke:#08a;stroke-width:.264582" transform="scale(-1)"/><path d="M525.977 160.804h32.253v.55h-32.253z" style="fill:#08a;stroke:#08a;stroke-width:.264974" transform="matrix(-0.17700955,0.98420913,0.96771702,0.25203922,0,0)"/><path d="M559.521 29.815h32.253v.55h-32.253z" style="fill:#08a;stroke:#08a;stroke-width:.264974" transform="matrix(0.17700955,0.98420913,-0.96771702,0.25203922,0,0)"/><path d="M-560.556-53.608h10.005v1.549h-10.005zM-560.556-80.722h10.005v1.549h-10.005z" style="fill:green;stroke:none;stroke-width:.264584" transform="matrix(0,-1,-1,0,0,0)"/><path d="M-402.267-381.019h19.722v1.549h-19.722z" style="fill:green;stroke:none;stroke-width:.264583" transform="matrix(0.61466975,-0.78878457,-0.78878457,-0.61466975,0,0)"/><path d="M-483.884-276.284h19.722v1.549h-19.722z" style="fill:green;stroke:none;stroke-width:.264583" transform="rotate(-127.92793)"/><circle cx="66.346" cy="543.16" r="4.718" style="fill:green;fill-opacity:1;stroke:none;stroke-width:.264583;stroke-linejoin:bevel;stroke-opacity:1"/><circle cx="66.346" cy="543.16" r="3.124" style="fill:#d7f4d7;fill-opacity:1;stroke:none;stroke-width:.264583;stroke-linejoin:bevel;stroke-opacity:1"/><circle cx="66.346" cy="515.643" r="4.718" style="fill:green;fill-opacity:1;stroke:none;stroke-width:.264583;stroke-linejoin:bevel;stroke-opacity:1"/><circle cx="66.346" cy="515.643" r="3.124" style="fill:#7f2aff;fill-opacity:1;stroke:none;stroke-width:.264583;stroke-linejoin:bevel;stroke-opacity:1"/><path d="M-540.036-68.372h21.269v4.053h-21.269z" style="opacity:.8;fill:green;stroke:none;stroke-width:.264582" transform="matrix(0,-1,-1,0,0,0)"/><circle cx="66.346" cy="515.643" r="1.912" style="fill:#fff;fill-opacity:1;stroke:none;stroke-width:.264583;stroke-linejoin:bevel;stroke-opacity:1"/><path d="M-514.448-60.995h1.915v2.926h-1.915zM-514.448-74.622h1.915v2.926h-1.915zM-514.448-27.127h1.915v2.926h-1.915zM-514.448-109.005h1.915v2.926h-1.915z" style="fill:#9855ff;fill-opacity:.701961;stroke:none;stroke-width:.264582" transform="matrix(0,-1,-1,0,0,0)"/><path d="M-109.005 508.343h84.804v4.19h-84.804z" style="opacity:.7;fill:#95f;stroke:none;stroke-width:.264582" transform="scale(-1,1)"/><circle cx="59.32" cy="537.429" r="1.67" style="fill:#4d4d4d;fill-opacity:1;stroke:#4d4d4d;stroke-width:.264583;stroke-linejoin:bevel;stroke-opacity:1"/><circle cx="72.931" cy="537.244" r="1.67" style="fill:#4d4d4d;fill-opacity:1;stroke:#4d4d4d;stroke-width:.264583;stroke-linejoin:bevel;stroke-opacity:1"/><circle cx="419.343" cy="320.775" r="2.882" style="fill:gray;fill-opacity:1;stroke:none;stroke-width:.264584;stroke-linejoin:bevel;stroke-opacity:1" transform="rotate(45.383275)"/><circle cx="419.349" cy="320.777" r="1.602" style="fill:#fff;fill-opacity:1;stroke:none;stroke-width:.264583;stroke-linejoin:bevel;stroke-opacity:1" transform="rotate(45.383275)"/><path d="m34.632 536.458 13.266-8.229 17.53-.145 1.783.104 18.36.049 12.56 8.549-.411 1.183-12.09-7.834-37.011-.227-13.086 7.981z" style="fill:gray;stroke:none;stroke-width:.264583px;stroke-linecap:butt;stroke-linejoin:miter;stroke-opacity:1"/><path d="m24.2 514.448 10.1 21.859.915 1.573 13.412 15.582 11.895-15.182M109.005 514.448l-10.4 22.321-.456 1.167-13.912 15.694-12.456-15.332" style="fill:none;stroke:#4d4d4d;stroke-width:.529167;stroke-linecap:butt;stroke-linejoin:miter;stroke-opacity:1"/><path d="M24.333 508.872v-14.91M108.873 508.872v-14.91" style="fill:none;stroke:#b3b3b3;stroke-width:.264582px;stroke-linecap:butt;stroke-linejoin:miter;stroke-opacity:1"/><path d="M109.005 512.666h9.903M109.005 514.58h9.903M63.354 515.643v-9.902M69.47 515.643v-9.902M61.76 515.643V500.26M71.196 515.643V500.26M66.599 515.776h64.14M66.227 523.782h65.324M66.551 543.292h68.425M68.6 534.995h76.45M80.722 550.684h64.329M80.722 560.424h64.329M70.188 558.2h70.17M76.03 589.68h64.329M76.03 604.653h64.329" style="fill:none;stroke:#b3b3b3;stroke-width:.264583px;stroke-linecap:butt;stroke-linejoin:miter;stroke-opacity:1"/><path d="M140.359 591.047V603.4" style="fill:none;stroke:#000;stroke-width:.264583px;stroke-linecap:butt;stroke-linejoin:miter;stroke-opacity:1;marker-start:url(#a);marker-end:url(#a)"/><path d="M140.359 559.369v29.054" style="fill:none;stroke:#000;stroke-width:.264583px;stroke-linecap:butt;stroke-linejoin:miter;stroke-opacity:1;marker-start:url(#b);marker-end:url(#b)"/><path d="M145.05 551.997v7.113" style="fill:none;stroke:#000;stroke-width:.264583px;stroke-linecap:butt;stroke-linejoin:miter;stroke-opacity:1;marker-start:url(#c);marker-end:url(#c)"/><path d="M145.05 536.166v13.246" style="fill:none;stroke:#000;stroke-width:.264584px;stroke-linecap:butt;stroke-linejoin:miter;stroke-opacity:1;marker-start:url(#d);marker-end:url(#d)"/><path d="M134.976 536.273v5.654" style="fill:none;stroke:#000;stroke-width:.264583px;stroke-linecap:butt;stroke-linejoin:miter;stroke-opacity:1;marker-start:url(#e);marker-end:url(#e)"/><path d="M64.681 505.741h3.594" style="fill:none;stroke:#000;stroke-width:.264583px;stroke-linecap:butt;stroke-linejoin:miter;stroke-opacity:1;marker-start:url(#f);marker-end:url(#f)"/><path d="M113.912 553.51v3.31" style="fill:none;stroke:#000;stroke-width:.264583px;stroke-linecap:butt;stroke-linejoin:miter;stroke-opacity:1;marker-end:url(#g)"/><path d="M113.8 565.047v-3.31" style="fill:none;stroke:#000;stroke-width:.264583px;stroke-linecap:butt;stroke-linejoin:miter;stroke-opacity:1;marker-end:url(#h)"/><path d="M130.738 525.257v16.718" style="fill:none;stroke:#000;stroke-width:.264584px;stroke-linecap:butt;stroke-linejoin:miter;stroke-opacity:1;marker-start:url(#i);marker-end:url(#i)"/><path d="M130.738 517.055v5.542" style="fill:none;stroke:#000;stroke-width:.264584px;stroke-linecap:butt;stroke-linejoin:miter;stroke-opacity:1;marker-start:url(#j);marker-end:url(#j)"/><path d="M71.431 554.278h3.559v.718h-3.559z" style="fill:green;stroke:none;stroke-width:.264748" transform="matrix(0.99995927,-0.00902493,-0.04088513,0.99916385,0,0)"/><path d="M65.495 525.405h1.406v3.44h-1.406z" style="opacity:1;fill:gray;fill-opacity:1;stroke:none;stroke-width:.264583;stroke-linejoin:bevel;stroke-opacity:1"/><path d="M118.908 507.972v3.309" style="fill:none;stroke:#000;stroke-width:.264583px;stroke-linecap:butt;stroke-linejoin:miter;stroke-opacity:1;marker-end:url(#k)"/><path d="M118.908 519.274v-3.309" style="fill:none;stroke:#000;stroke-width:.264583px;stroke-linecap:butt;stroke-linejoin:miter;stroke-opacity:1;marker-end:url(#l)"/><path d="M62.97 500.26h6.811" style="fill:none;stroke:#000;stroke-width:.264582px;stroke-linecap:butt;stroke-linejoin:miter;stroke-opacity:1;marker-start:url(#m);marker-end:url(#m)"/><path d="M25.746 494.207h81.715" style="fill:none;stroke:#000;stroke-width:.264583px;stroke-linecap:butt;stroke-linejoin:miter;stroke-opacity:1;marker-start:url(#n);marker-end:url(#n)"/><path d="M85.613 528.23h27.81" style="fill:none;stroke:#b3b3b3;stroke-width:.264583px;stroke-linecap:butt;stroke-linejoin:miter;stroke-opacity:1"/><path d="M113.423 525.188v1.656" style="fill:none;stroke:#000;stroke-width:.264583px;stroke-linecap:butt;stroke-linejoin:miter;stroke-opacity:1;marker-start:url(#o);marker-end:url(#o)"/><path d="m47.898 528.23 12.994-8.688M66.346 515.643l-25.61 54.176M66.346 515.643l25.434 54.232" style="fill:none;stroke:#ccc;stroke-width:.264583px;stroke-linecap:butt;stroke-linejoin:miter;stroke-opacity:1"/><path d="M36.073 563.481c.48 3.198 1.97 4.328 3.669 5.03" style="fill:none;stroke:#000;stroke-width:.264583px;stroke-linecap:butt;stroke-linejoin:miter;stroke-opacity:1;marker-start:url(#p);marker-end:url(#p)"/><path d="M96.59 563.33c-.505 3.365-2.072 4.554-3.858 5.293" style="fill:none;stroke:#000;stroke-width:.264583px;stroke-linecap:butt;stroke-linejoin:miter;stroke-opacity:1;marker-start:url(#q);marker-end:url(#q)"/><text xml:space="preserve" style="font-size:14.6667px;line-height:1.25;font-family:sans-serif;white-space:pre;shape-inside:url(#r);display:inline" transform="matrix(0.26458333,0,0,0.26458333,-11.926852,-6.4772899)"><tspan x="170.189" y="2177.965">al</tspan></text><text xml:space="preserve" style="font-size:14.6667px;line-height:1.25;font-family:sans-serif;white-space:pre;shape-inside:url(#s);display:inline" transform="matrix(0.26458333,0,0,0.26458333,-5.1286411,-7.3627828)"><tspan x="382.344" y="2177.965">ar</tspan></text><text xml:space="preserve" style="font-size:14.6667px;line-height:1.25;font-family:sans-serif;white-space:pre;shape-inside:url(#t);display:inline" transform="matrix(0.26458333,0,0,0.26458333,64.382959,-22.490818)"><tspan x="262.625" y="2348.736">H1</tspan></text><text xml:space="preserve" style="font-size:14.6667px;line-height:1.25;font-family:sans-serif;white-space:pre;shape-inside:url(#u);display:inline" transform="matrix(0.26458333,0,0,0.26458333,114.298,-41.976169)"><tspan x="76.008" y="2333.699">H2</tspan></text><text xml:space="preserve" style="font-size:14.6667px;line-height:1.25;font-family:sans-serif;white-space:pre;shape-inside:url(#v);display:inline" transform="matrix(0.26458333,0,0,0.26458333,54.747216,-72.057224)"><tspan x="214.086" y="2420.846">H3</tspan></text><text xml:space="preserve" style="font-size:14.6667px;line-height:1.25;font-family:sans-serif;white-space:pre;shape-inside:url(#w);display:inline" transform="matrix(0.26458333,0,0,0.26458333,51.064599,-74.692966)"><tspan x="333.994" y="2385.955">H4</tspan></text><text xml:space="preserve" style="font-size:14.6667px;line-height:1.25;font-family:sans-serif;white-space:pre;shape-inside:url(#x);display:inline" transform="matrix(0.26458333,0,0,0.26458333,40.782373,-74.690036)"><tspan x="373.645" y="2339.035">H5</tspan></text><text xml:space="preserve" style="font-size:14.6667px;line-height:1.25;font-family:sans-serif;white-space:pre;shape-inside:url(#y);display:inline" transform="matrix(0.26458333,0,0,0.26458333,29.966943,-101.89512)"><tspan x="399.172" y="2427.309">H6</tspan></text><text xml:space="preserve" style="font-size:14.6667px;line-height:1.25;font-family:sans-serif;white-space:pre;shape-inside:url(#z);display:inline" transform="matrix(0.26458333,0,0,0.26458333,97.010888,-93.973239)"><tspan x="129.168" y="2367.527">H7</tspan></text><text xml:space="preserve" style="font-size:14.6667px;line-height:1.25;font-family:sans-serif;white-space:pre;shape-inside:url(#A);display:inline" transform="matrix(0.26458333,0,0,0.26458333,67.023584,-101.31309)"><tspan x="242.904" y="2352.426">H8</tspan></text><text xml:space="preserve" style="font-size:14.6667px;line-height:1.25;font-family:sans-serif;white-space:pre;shape-inside:url(#B);display:inline" transform="matrix(0.26458333,0,0,0.26458333,13.007959,-122.48301)"><tspan x="393.463" y="2380.182">H9</tspan></text><text xml:space="preserve" style="font-size:14.6667px;line-height:1.25;font-family:sans-serif;white-space:pre;shape-inside:url(#C);display:inline" transform="matrix(0.26458333,0,0,0.26458333,42.793115,-121.92246)"><tspan x="82.582" y="2325.283">L2</tspan></text><text xml:space="preserve" style="font-size:14.6667px;line-height:1.25;font-family:sans-serif;white-space:pre;shape-inside:url(#D);display:inline" transform="matrix(0.26458333,0,0,0.26458333,19.949365,-34.542576)"><tspan x="213.867" y="2374.721">D1</tspan></text><text xml:space="preserve" style="font-size:14.6667px;line-height:1.25;font-family:sans-serif;white-space:pre;shape-inside:url(#E);display:inline" transform="matrix(0.26458333,0,0,0.26458333,-12.567237,-63.25449)"><tspan x="317.746" y="2362.566">D2</tspan></text><text xml:space="preserve" style="font-size:14.6667px;line-height:1.25;font-family:sans-serif;white-space:pre;shape-inside:url(#F);display:inline" transform="matrix(0.26458333,0,0,0.26458333,39.987451,-60.289646)"><tspan x="152.281" y="2357.436">D3</tspan></text><text xml:space="preserve" style="font-size:14.6667px;line-height:1.25;font-family:sans-serif;white-space:pre;shape-inside:url(#G);display:inline" transform="matrix(0.26458333,0,0,0.26458333,-6.8270022,-87.244724)"><tspan x="285.498" y="2349.596">D4</tspan></text><text xml:space="preserve" style="font-size:14.6667px;line-height:1.25;font-family:sans-serif;white-space:pre;shape-inside:url(#H);display:inline" transform="matrix(0.26458333,0,0,0.26458333,25.794092,-72.681247)"><tspan x="143.563" y="2357.527">D5</tspan></text><text xml:space="preserve" style="font-size:14.6667px;line-height:1.25;font-family:sans-serif;white-space:pre;shape-inside:url(#I);display:inline" transform="matrix(0.26458333,0,0,0.26458333,-44.088481,42.013257)"><tspan x="409.59" y="1748.5">D6</tspan></text><text xml:space="preserve" style="font-size:14.6667px;line-height:1.25;font-family:sans-serif;white-space:pre;shape-inside:url(#J);display:inline" transform="matrix(0.26458333,0,0,0.26458333,-65.537197,21.561232)"><tspan x="489.68" y="1807.127">D7</tspan></text><text xml:space="preserve" style="font-size:14.6667px;line-height:1.25;font-family:sans-serif;white-space:pre;shape-inside:url(#K);display:inline" transform="matrix(0.26458333,0,0,0.26458333,-49.231468,64.48745)"><tspan x="446.57" y="1747.43">D8</tspan></text><text xml:space="preserve" style="font-size:14.6667px;line-height:1.25;font-family:sans-serif;white-space:pre;shape-inside:url(#L);display:inline" transform="matrix(0.26458333,0,0,0.26458333,-15.599853,50.192842)"><tspan x="491.408" y="1803.838">S1</tspan></text><text xml:space="preserve" style="font-size:14.6667px;line-height:1.25;font-family:sans-serif;white-space:pre;shape-inside:url(#M);display:inline" transform="matrix(0.26458333,0,0,0.26458333,2.9527238,-15.458984)"><tspan x="206.742" y="2326.604">E1</tspan></text><text xml:space="preserve" style="font-size:14.6667px;line-height:1.25;font-family:sans-serif;white-space:pre;shape-inside:url(#N);display:inline" transform="matrix(0.26458333,0,0,0.26458333,-39.700178,-78.165683)"><tspan x="309.637" y="2329.533">E2</tspan></text><path d="m53.19 532.463 12.994-8.688" style="fill:none;stroke:#ccc;stroke-width:.264583px;stroke-linecap:butt;stroke-linejoin:miter;stroke-opacity:1"/><path d="m52.42 526.514 2.227 3.395" style="fill:none;stroke:#1a1a1a;stroke-width:.264583px;stroke-linecap:butt;stroke-linejoin:miter;stroke-opacity:1;marker-start:url(#a);marker-end:url(#a)"/><text xml:space="preserve" style="font-size:14.6667px;line-height:1.25;font-family:sans-serif;white-space:pre;shape-inside:url(#O);display:inline" transform="matrix(0.26458333,0,0,0.26458333,49.218262,-15.339355)"><tspan x="17.209" y="2051.785">S2</tspan></text></g></svg>