<svg xmlns="http://www.w3.org/2000/svg" width="262.014" height="195.652" viewBox="0 0 69.325 51.766"><defs><path id="c" d="M254.321 237.99h38.557v34.914h-38.557z"/><path id="d" d="M130.985 140.536h42.711v43.171h-42.711z"/><path id="e" d="M232.476 161.365h28.095v22.502h-28.095z"/><path id="f" d="M200.715 288.19h52.317v19.745h-52.317z"/><path id="g" d="M200.715 288.19h52.317v19.745h-52.317z"/><path id="h" d="M63.429 333.065h214.01v34.379H63.429z"/><path id="i" d="M309.291 1871.785h43.699v17.924h-43.699z"/><path id="j" d="M323.205 1880.807h59.832v18.928h-59.832z"/><path id="k" d="M346.238 1883.681h29.293v24.056h-29.293z"/><marker id="a" markerHeight="5" markerWidth="8.75" orient="auto-start-reverse" preserveAspectRatio="xMidYMid" refX="0" refY="0" style="overflow:visible" viewBox="0 0 8.75 5"><path d="m0 0 5-5-17.5 5L5 5Z" style="fill:context-stroke;fill-rule:evenodd;stroke:none" transform="scale(-0.5)"/></marker><marker id="b" markerHeight="5" markerWidth="8.75" orient="auto-start-reverse" preserveAspectRatio="xMidYMid" refX="0" refY="0" style="overflow:visible" viewBox="0 0 8.75 5"><path d="m0 0 5-5-17.5 5L5 5Z" style="fill:context-stroke;fill-rule:evenodd;stroke:none" transform="scale(-0.5)"/></marker></defs><path d="M41.598 763.743h69.06v51.502h-69.06z" style="fill:#fff;stroke:#fff;stroke-width:.264583;stroke-dasharray:none;stroke-dashoffset:0" transform="translate(-41.465728,-763.61023)"/><path d="M76.078 780.417h6.68" style="fill:none;stroke:#999;stroke-width:.264583px;stroke-linecap:butt;stroke-linejoin:miter;stroke-opacity:1" transform="translate(-41.465728,-763.61023)"/><path d="M66.56 808.491v-40.627" style="fill:none;stroke:#999;stroke-width:.264583px;stroke-linecap:butt;stroke-linejoin:miter;stroke-opacity:1;marker-end:url(#a)" transform="translate(-41.465728,-763.61023)"/><path d="M45.229 797.36h57.814" style="fill:none;stroke:#999;stroke-width:.264583px;stroke-linecap:butt;stroke-linejoin:miter;stroke-opacity:1;marker-end:url(#b)" transform="translate(-41.465728,-763.61023)"/><text xml:space="preserve" style="font-size:14.6667px;line-height:1.25;font-family:sans-serif;white-space:pre;shape-inside:url(#c);display:inline" transform="translate(-41.465728,-763.61023) matrix(0.26458333,0,0,0.26458333,36.103317,734.14341)"><tspan x="254.32" y="250.967">x</tspan></text><text xml:space="preserve" style="font-size:14.6667px;line-height:1.25;font-family:sans-serif;white-space:pre;shape-inside:url(#d);display:inline" transform="translate(-41.465728,-763.61023) matrix(0.26458333,0,0,0.26458333,28.722916,727.12154)"><tspan x="130.984" y="153.514">y</tspan></text><path d="M76.078 797.36v-16.943h-9.517" style="fill:none;stroke:#ccc;stroke-width:.264583;stroke-linecap:butt;stroke-linejoin:miter;stroke-dasharray:2,1;stroke-dashoffset:0;stroke-opacity:1" transform="translate(-41.465728,-763.61023)"/><text xml:space="preserve" style="font-size:14.6667px;line-height:1.25;font-family:sans-serif;white-space:pre;shape-inside:url(#e);display:inline" transform="translate(-41.465728,-763.61023) matrix(0.26458333,0,0,0.26458333,10.606852,730.7259)"><tspan x="232.477" y="174.342">p1</tspan></text><text xml:space="preserve" style="font-size:8px;line-height:1.25;font-family:sans-serif;white-space:pre;shape-inside:url(#f);display:inline" transform="translate(-41.465728,-763.61023) matrix(0.26458333,0,0,0.26458333,20.49034,722.07065)"><tspan x="200.715" y="295.268">p1.cx</tspan></text><text xml:space="preserve" style="font-size:8px;line-height:1.25;font-family:sans-serif;white-space:pre;shape-inside:url(#g);display:inline" transform="translate(-41.465728,-763.61023) matrix(0.26458333,0,0,0.26458333,6.1575288,703.14564)"><tspan x="200.715" y="295.268">p1.cy</tspan></text><path d="M65.802 780.417h1.517M76.078 798.284v-1.85" style="fill:none;stroke:#000;stroke-width:.264583px;stroke-linecap:butt;stroke-linejoin:miter;stroke-opacity:1" transform="translate(-41.465728,-763.61023)"/><text xml:space="preserve" style="font-size:14.6667px;line-height:1.25;font-family:sans-serif;white-space:pre;shape-inside:url(#h);display:inline" transform="translate(-41.465728,-763.61023) matrix(0.26458333,0,0,0.26458333,26.728545,721.6973)"><tspan x="63.43" y="346.041">line_getAxisYIntersection 2</tspan></text><path d="M77.34 780.427s.309-.761.162-1.103c-.127-.296-.79-.556-.79-.556" style="fill:none;stroke:#00f;stroke-width:.264583px;stroke-linecap:butt;stroke-linejoin:miter;stroke-opacity:1" transform="translate(-41.465728,-763.61023)"/><text xml:space="preserve" style="font-size:8px;line-height:1.25;font-family:sans-serif;white-space:pre;shape-inside:url(#i);display:inline;fill:#00f" transform="translate(-41.465728,-763.61023) matrix(0.26458333,0,0,0.26458333,-4.0520902,282.51368)"><tspan x="309.291" y="1878.863">ca</tspan></text><path d="m76.078 780.417-9.355 16.847" style="fill:purple;stroke:purple;stroke-width:.264583px;stroke-linecap:butt;stroke-linejoin:miter;stroke-opacity:1" transform="translate(-41.465728,-763.61023)"/><path d="M67.408 796.17s.354.206.435.432c.071.2-.006.673-.006.673" style="fill:none;stroke:purple;stroke-width:.264584px;stroke-linecap:butt;stroke-linejoin:miter;stroke-opacity:1" transform="translate(-41.465728,-763.61023)"/><path d="m75.49 781.162 1.176-1.49M75.333 779.83l1.49 1.175" style="fill:none;stroke:#000;stroke-width:.264583px;stroke-linecap:butt;stroke-linejoin:miter;stroke-opacity:1" transform="translate(-41.465728,-763.61023)"/><text xml:space="preserve" style="font-size:8px;line-height:1.25;font-family:sans-serif;white-space:pre;shape-inside:url(#j);display:inline;fill:purple" transform="translate(-41.465728,-763.61023) matrix(0.26458333,0,0,0.26458333,-22.275001,297.04126)"><tspan x="323.205" y="1887.885">a1</tspan></text><text xml:space="preserve" style="font-size:8px;line-height:1.25;font-family:sans-serif;white-space:pre;shape-inside:url(#k);display:inline;fill:purple" transform="translate(-41.465728,-763.61023) matrix(0.26458333,0,0,0.26458333,-21.173618,285.38936)"><tspan x="346.238" y="1890.76">L1</tspan></text><path d="m66.693 797.36.047 6.422M70.828 789.97s.108.29.21.407a.837.837 0 0 0 .328.236c.126.048.405.043.405.043" style="fill:none;stroke:#f60;stroke-width:.264583px;stroke-linecap:butt;stroke-linejoin:miter;stroke-opacity:1" transform="translate(-41.465728,-763.61023)"/><path d="M75.939 780.313 64.899 808.4M81.106 767.13l-5.14 13.2" style="fill:none;stroke:green;stroke-width:.264583px;stroke-linecap:butt;stroke-linejoin:miter;stroke-opacity:1" transform="translate(-41.465728,-763.61023)"/></svg>