<svg xmlns="http://www.w3.org/2000/svg" width="194.247" height="144.374" viewBox="0 0 51.394 38.199"><defs><path id="j" d="M63.429 333.065h158.363v29.331H63.429z"/><path id="i" d="M103.523 268.242h88.409v24.2h-88.409z"/><path id="h" d="M101.084 195.701h124.483v20.586H101.084z"/><path id="f" d="M200.715 288.19h52.317v19.745h-52.317z"/><path id="e" d="M232.476 161.365h28.095v22.502h-28.095z"/><path id="d" d="M130.985 140.536h42.711v43.171h-42.711z"/><path id="c" d="M254.321 237.99h38.557v34.914h-38.557z"/><path id="g" d="M200.715 288.19h52.317v19.745h-52.317z"/><marker id="a" markerHeight="5" markerWidth="8.75" orient="auto-start-reverse" preserveAspectRatio="xMidYMid" refX="0" refY="0" style="overflow:visible" viewBox="0 0 8.75 5"><path d="m0 0 5-5-17.5 5L5 5Z" style="fill:context-stroke;fill-rule:evenodd;stroke:none" transform="scale(-0.5)"/></marker><marker id="b" markerHeight="5" markerWidth="8.75" orient="auto-start-reverse" preserveAspectRatio="xMidYMid" refX="0" refY="0" style="overflow:visible" viewBox="0 0 8.75 5"><path d="m0 0 5-5-17.5 5L5 5Z" style="fill:context-stroke;fill-rule:evenodd;stroke:none" transform="scale(-0.5)"/></marker></defs><path d="M22.131 37.982h51.13v37.934h-51.13z" style="fill:#fff;stroke:#fff;stroke-width:.264583;stroke-dasharray:none;stroke-dashoffset:0" transform="translate(-21.999164,-37.849304)"/><path d="M45.957 68.88V41.06" style="fill:none;stroke:#999;stroke-width:.264583px;stroke-linecap:butt;stroke-linejoin:miter;stroke-opacity:1;marker-end:url(#a)" transform="translate(-21.999164,-37.849304)"/><path d="M24.625 62.968H67.29" style="fill:none;stroke:#999;stroke-width:.264583px;stroke-linecap:butt;stroke-linejoin:miter;stroke-opacity:1;marker-end:url(#b)" transform="translate(-21.999164,-37.849304)"/><text xml:space="preserve" style="font-size:14.6667px;line-height:1.25;font-family:sans-serif;white-space:pre;shape-inside:url(#c);display:inline" transform="translate(-21.999164,-37.849304) matrix(0.26458333,0,0,0.26458333,-0.45275913,0.14425723)"><tspan x="254.32" y="250.967">x</tspan></text><text xml:space="preserve" style="font-size:14.6667px;line-height:1.25;font-family:sans-serif;white-space:pre;shape-inside:url(#d);display:inline" transform="translate(-21.999164,-37.849304) matrix(0.26458333,0,0,0.26458333,8.1839515,1.9354717)"><tspan x="130.984" y="153.514">y</tspan></text><path d="M55.475 62.968V46.026h-9.518" style="fill:none;stroke:#ccc;stroke-width:.264583;stroke-linecap:butt;stroke-linejoin:miter;stroke-dasharray:2,1;stroke-dashoffset:0;stroke-opacity:1" transform="translate(-21.999164,-37.849304)"/><path d="m54.887 46.77 1.176-1.489M54.73 45.438l1.49 1.176" style="fill:none;stroke:#000;stroke-width:.264583px;stroke-linecap:butt;stroke-linejoin:miter;stroke-opacity:1" transform="translate(-21.999164,-37.849304)"/><text xml:space="preserve" style="font-size:14.6667px;line-height:1.25;font-family:sans-serif;white-space:pre;shape-inside:url(#e);display:inline" transform="translate(-21.999164,-37.849304) matrix(0.26458333,0,0,0.26458333,-5.2078176,0.58985028)"><tspan x="232.477" y="174.342">p1</tspan></text><text xml:space="preserve" style="font-size:8px;line-height:1.25;font-family:sans-serif;white-space:pre;shape-inside:url(#f);display:inline" transform="translate(-21.999164,-37.849304) matrix(0.26458333,0,0,0.26458333,-0.11297338,-12.320554)"><tspan x="200.715" y="295.268">p1.cx</tspan></text><text xml:space="preserve" style="font-size:8px;line-height:1.25;font-family:sans-serif;white-space:pre;shape-inside:url(#g);display:inline" transform="translate(-21.999164,-37.849304) matrix(0.26458333,0,0,0.26458333,-14.445785,-31.245546)"><tspan x="200.715" y="295.268">p1.cy</tspan></text><path d="M45.199 46.026h1.517M55.475 63.893v-1.85" style="fill:none;stroke:#000;stroke-width:.264583px;stroke-linecap:butt;stroke-linejoin:miter;stroke-opacity:1" transform="translate(-21.999164,-37.849304)"/><path d="m45.957 62.968 9.518-16.942" style="fill:none;stroke:#00f;stroke-width:.264583px;stroke-linecap:butt;stroke-linejoin:miter;stroke-opacity:1" transform="translate(-21.999164,-37.849304)"/><path d="M48.655 62.968s.487-1.31.31-1.941c-.161-.571-1.157-1.354-1.157-1.354" style="fill:none;stroke:green;stroke-width:.264583px;stroke-linecap:butt;stroke-linejoin:miter;stroke-opacity:1" transform="translate(-21.999164,-37.849304)"/><text xml:space="preserve" style="font-size:10.6667px;line-height:1.25;font-family:sans-serif;white-space:pre;shape-inside:url(#h);display:inline;fill:#00f" transform="translate(-21.999164,-37.849304) matrix(0.26458333,0,0,0.26458333,3.4457501,-0.25194827)"><tspan x="101.084" y="205.139">distanceOrig()</tspan></text><text xml:space="preserve" style="font-size:10.6667px;line-height:1.25;font-family:sans-serif;white-space:pre;shape-inside:url(#i);display:inline;fill:green" transform="translate(-21.999164,-37.849304) matrix(0.26458333,0,0,0.26458333,21.912697,-12.587896)"><tspan x="103.523" y="277.68">angleOrig()</tspan></text><text xml:space="preserve" style="font-size:14.6667px;line-height:1.25;font-family:sans-serif;white-space:pre;shape-inside:url(#j);display:inline" transform="translate(-21.999164,-37.849304) matrix(0.26458333,0,0,0.26458333,6.1252317,-17.456419)"><tspan x="63.43" y="346.041">Point-1</tspan></text></svg>