<svg xmlns="http://www.w3.org/2000/svg" width="415.902" height="241.953" viewBox="0 0 110.041 64.017"><defs><marker id="a" markerHeight="1" markerWidth="1" orient="auto-start-reverse" preserveAspectRatio="xMidYMid" refX="0" refY="0" style="overflow:visible" viewBox="0 0 1 1"><path d="M-.211-4.106 6.21-.894a1 1 90 0 1 0 1.788L-.21 4.106A1.236 1.236 31.717 0 1-2 3v-6A1.236 1.236 148.283 0 1-.211-4.106z" style="fill:context-stroke;fill-rule:evenodd;stroke:none" transform="scale(.7)"/></marker><marker id="b" markerHeight="1" markerWidth="1" orient="auto-start-reverse" preserveAspectRatio="xMidYMid" refX="0" refY="0" style="overflow:visible" viewBox="0 0 1 1"><path d="M-.211-4.106 6.21-.894a1 1 90 0 1 0 1.788L-.21 4.106A1.236 1.236 31.717 0 1-2 3v-6A1.236 1.236 148.283 0 1-.211-4.106z" style="fill:context-stroke;fill-rule:evenodd;stroke:none" transform="scale(.7)"/></marker><marker id="f" markerHeight="1" markerWidth="1" orient="auto-start-reverse" preserveAspectRatio="xMidYMid" refX="0" refY="0" style="overflow:visible" viewBox="0 0 1 1"><path d="M-.211-4.106 6.21-.894a1 1 90 0 1 0 1.788L-.21 4.106A1.236 1.236 31.717 0 1-2 3v-6A1.236 1.236 148.283 0 1-.211-4.106z" style="fill:context-stroke;fill-rule:evenodd;stroke:none" transform="scale(.7)"/></marker><marker id="g" markerHeight="1" markerWidth="1" orient="auto-start-reverse" preserveAspectRatio="xMidYMid" refX="0" refY="0" style="overflow:visible" viewBox="0 0 1 1"><path d="M-.211-4.106 6.21-.894a1 1 90 0 1 0 1.788L-.21 4.106A1.236 1.236 31.717 0 1-2 3v-6A1.236 1.236 148.283 0 1-.211-4.106z" style="fill:context-stroke;fill-rule:evenodd;stroke:none" transform="scale(.7)"/></marker><marker id="j" markerHeight="1" markerWidth="1" orient="auto-start-reverse" preserveAspectRatio="xMidYMid" refX="0" refY="0" style="overflow:visible" viewBox="0 0 1 1"><path d="M-.211-4.106 6.21-.894a1 1 90 0 1 0 1.788L-.21 4.106A1.236 1.236 31.717 0 1-2 3v-6A1.236 1.236 148.283 0 1-.211-4.106z" style="fill:context-stroke;fill-rule:evenodd;stroke:none" transform="scale(.7)"/></marker><path id="c" d="M348.786 275.767h64.579v35.919h-64.579z"/><path id="d" d="M348.786 275.767h64.579v35.919h-64.579z"/><path id="e" d="M348.786 275.767h64.579v35.919h-64.579z"/><path id="h" d="M348.786 275.767h64.579v35.919h-64.579z"/><path id="i" d="M55.144 1137.68h45.352v36.638H55.144z"/></defs><g transform="translate(-21.516 -139.213)"><path d="M21.648 139.345h109.776v63.752H21.648z" style="fill:#fff;stroke:#fff;stroke-width:.264583;stroke-dasharray:none;stroke-dashoffset:0"/><path d="M110.482 188.04v-3.184" style="fill:none;stroke:#000;stroke-width:.264583px;stroke-linecap:butt;stroke-linejoin:miter;stroke-opacity:1;marker-start:url(#a);marker-end:url(#a)"/><circle cx="64.861" cy="169.158" r="24.985" style="fill:#e6e6e6;stroke:#ccc;stroke-width:.264583;stroke-dasharray:none"/><circle cx="64.861" cy="169.158" r="14.412" style="fill:#f9f9f9;stroke:#ccc;stroke-width:.264583;stroke-dasharray:none"/><circle cx="64.754" cy="149.073" r="2.873" style="fill:#f9f9f9;stroke:#ccc;stroke-width:.264583;stroke-dasharray:none;stroke-dashoffset:0"/><circle cx="84.839" cy="169.158" r="2.873" style="fill:#f9f9f9;stroke:#ccc;stroke-width:.264583;stroke-dasharray:none;stroke-dashoffset:0"/><circle cx="64.754" cy="189.243" r="2.873" style="fill:#f9f9f9;stroke:#ccc;stroke-width:.264583;stroke-dasharray:none;stroke-dashoffset:0"/><circle cx="44.669" cy="169.158" r="2.873" style="fill:#f9f9f9;stroke:#ccc;stroke-width:.264583;stroke-dasharray:none;stroke-dashoffset:0"/><circle cx="79.405" cy="155.143" r="2.873" style="fill:#f9f9f9;stroke:#ccc;stroke-width:.264583;stroke-dasharray:none;stroke-dashoffset:0"/><circle cx="79.405" cy="183.702" r="2.873" style="fill:#f9f9f9;stroke:#ccc;stroke-width:.264583;stroke-dasharray:none;stroke-dashoffset:0"/><circle cx="50.317" cy="183.702" r="2.873" style="fill:#f9f9f9;stroke:#ccc;stroke-width:.264583;stroke-dasharray:none;stroke-dashoffset:0"/><circle cx="50.317" cy="154.614" r="2.873" style="fill:#f9f9f9;stroke:#ccc;stroke-width:.264583;stroke-dasharray:none;stroke-dashoffset:0"/><circle cx="64.754" cy="169.158" r="20.085" style="fill:none;stroke:#ccc;stroke-width:.264583;stroke-dasharray:2,1;stroke-dashoffset:0"/><path d="M64.861 144.173h55.937M64.861 194.408h55.937M64.861 183.834h45.511M64.861 154.746h36.214M64.785 189.241h45.728" style="fill:#ccc;stroke:#ccc;stroke-width:.264583px;stroke-linecap:butt;stroke-linejoin:miter;stroke-opacity:1"/><path d="M120.798 192.72v-46.86" style="fill:none;stroke:#000;stroke-width:.264582px;stroke-linecap:butt;stroke-linejoin:miter;stroke-opacity:1;marker-start:url(#b);marker-end:url(#b)"/><text xml:space="preserve" style="font-size:14.6667px;line-height:1.25;font-family:sans-serif;white-space:pre;shape-inside:url(#c);display:inline" transform="matrix(.26458 0 0 .26458 28.92 94.308)"><tspan x="348.785" y="288.744">D1</tspan></text><text xml:space="preserve" style="font-size:14.6667px;line-height:1.25;font-family:sans-serif;white-space:pre;shape-inside:url(#d);display:inline" transform="matrix(.26458 0 0 .26458 9.304 93.617)"><tspan x="348.785" y="288.744">D2</tspan></text><text xml:space="preserve" style="font-size:14.6667px;line-height:1.25;font-family:sans-serif;white-space:pre;shape-inside:url(#e);display:inline" transform="matrix(.26458 0 0 .26458 19.131 111.622)"><tspan x="348.785" y="288.744">L1</tspan></text><path d="M101.075 182.731V155.85" style="fill:none;stroke:#000;stroke-width:.264583px;stroke-linecap:butt;stroke-linejoin:miter;stroke-opacity:1;marker-start:url(#f);marker-end:url(#f)"/><path d="M29.665 166.285h15.004M29.665 172.03h15.004" style="fill:#ccc;stroke:#ccc;stroke-width:.264583px;stroke-linecap:butt;stroke-linejoin:miter;stroke-opacity:1"/><path d="M29.665 170.855v-3.185" style="fill:none;stroke:#000;stroke-width:.264583px;stroke-linecap:butt;stroke-linejoin:miter;stroke-opacity:1;marker-start:url(#g);marker-end:url(#g)"/><text xml:space="preserve" style="font-size:14.6667px;line-height:1.25;font-family:sans-serif;white-space:pre;shape-inside:url(#h);display:inline" transform="matrix(.26458 0 0 .26458 -69.204 94.278)"><tspan x="348.785" y="288.744">D3</tspan></text><text xml:space="preserve" style="font-size:14.6667px;line-height:1.25;font-family:sans-serif;white-space:pre;shape-inside:url(#i);display:inline" transform="matrix(.26458 0 0 .26458 18.846 -109.655)"><tspan x="55.145" y="1150.656">N1</tspan></text><path d="m39.23 193.338 7.74-6.496" style="fill:none;stroke:#000;stroke-width:.264583px;stroke-linecap:butt;stroke-linejoin:miter;stroke-opacity:1;marker-end:url(#j)"/></g></svg>