<svg xmlns="http://www.w3.org/2000/svg" width="303.961" height="358.563" viewBox="0 0 80.423 94.87"><defs><marker id="p" markerHeight="1" markerWidth="1" orient="auto-start-reverse" preserveAspectRatio="xMidYMid" refX="0" refY="0" style="overflow:visible" viewBox="0 0 1 1"><path d="m5.77 0-8.65 5V-5Z" style="fill:context-stroke;fill-rule:evenodd;stroke:context-stroke;stroke-width:1pt" transform="scale(.5)"/></marker><marker id="o" markerHeight="1" markerWidth="1" orient="auto" preserveAspectRatio="xMidYMid" refX="0" refY="0" style="overflow:visible" viewBox="0 0 1 1"><path d="M0-24"/><path d="m0 0-8 5V-5Z" style="fill:context-stroke;fill-rule:evenodd;stroke:none" transform="scale(.6)"/><path d="M0-8v48" style="fill:none;stroke:context-stroke;stroke-width:1;stroke-linecap:square" transform="scale(.6)"/></marker><marker id="a" markerHeight="1" markerWidth="1" orient="auto-start-reverse" preserveAspectRatio="xMidYMid" refX="0" refY="0" style="overflow:visible" viewBox="0 0 1 1"><path d="M-.211-4.106 6.21-.894a1 1 90 0 1 0 1.788L-.21 4.106A1.236 1.236 31.717 0 1-2 3v-6A1.236 1.236 148.283 0 1-.211-4.106z" style="fill:context-stroke;fill-rule:evenodd;stroke:none" transform="scale(.7)"/></marker><marker id="b" markerHeight="1" markerWidth="1" orient="auto-start-reverse" preserveAspectRatio="xMidYMid" refX="0" refY="0" style="overflow:visible" viewBox="0 0 1 1"><path d="M-.211-4.106 6.21-.894a1 1 90 0 1 0 1.788L-.21 4.106A1.236 1.236 31.717 0 1-2 3v-6A1.236 1.236 148.283 0 1-.211-4.106z" style="fill:context-stroke;fill-rule:evenodd;stroke:none" transform="scale(.7)"/></marker><marker id="e" markerHeight="1" markerWidth="1" orient="auto-start-reverse" preserveAspectRatio="xMidYMid" refX="0" refY="0" style="overflow:visible" viewBox="0 0 1 1"><path d="M-.211-4.106 6.21-.894a1 1 90 0 1 0 1.788L-.21 4.106A1.236 1.236 31.717 0 1-2 3v-6A1.236 1.236 148.283 0 1-.211-4.106z" style="fill:context-stroke;fill-rule:evenodd;stroke:none" transform="scale(.7)"/></marker><marker id="g" markerHeight="1" markerWidth="1" orient="auto-start-reverse" preserveAspectRatio="xMidYMid" refX="0" refY="0" style="overflow:visible" viewBox="0 0 1 1"><path d="M-.211-4.106 6.21-.894a1 1 90 0 1 0 1.788L-.21 4.106A1.236 1.236 31.717 0 1-2 3v-6A1.236 1.236 148.283 0 1-.211-4.106z" style="fill:context-stroke;fill-rule:evenodd;stroke:none" transform="scale(.7)"/></marker><marker id="i" markerHeight="1" markerWidth="1" orient="auto-start-reverse" preserveAspectRatio="xMidYMid" refX="0" refY="0" style="overflow:visible" viewBox="0 0 1 1"><path d="M-.211-4.106 6.21-.894a1 1 90 0 1 0 1.788L-.21 4.106A1.236 1.236 31.717 0 1-2 3v-6A1.236 1.236 148.283 0 1-.211-4.106z" style="fill:context-stroke;fill-rule:evenodd;stroke:none" transform="scale(.7)"/></marker><marker id="j" markerHeight="1" markerWidth="1" orient="auto-start-reverse" preserveAspectRatio="xMidYMid" refX="0" refY="0" style="overflow:visible" viewBox="0 0 1 1"><path d="M-.211-4.106 6.21-.894a1 1 90 0 1 0 1.788L-.21 4.106A1.236 1.236 31.717 0 1-2 3v-6A1.236 1.236 148.283 0 1-.211-4.106z" style="fill:context-stroke;fill-rule:evenodd;stroke:none" transform="scale(.7)"/></marker><marker id="k" markerHeight="1" markerWidth="1" orient="auto-start-reverse" preserveAspectRatio="xMidYMid" refX="0" refY="0" style="overflow:visible" viewBox="0 0 1 1"><path d="M-.211-4.106 6.21-.894a1 1 90 0 1 0 1.788L-.21 4.106A1.236 1.236 31.717 0 1-2 3v-6A1.236 1.236 148.283 0 1-.211-4.106z" style="fill:context-stroke;fill-rule:evenodd;stroke:none" transform="scale(.7)"/></marker><path id="q" d="M280.182 884.82h40.668v26.089h-40.668z"/><path id="n" d="M16.065 934.697H53.53v22.096H16.065z"/><path id="m" d="M33.099 733.441H70.11v28.18H33.099z"/><path id="l" d="M25.879 893.84H58.11v22.823H25.879z"/><path id="c" d="M407.767 207.254h46.965v45.65h-46.965z"/><path id="d" d="M433.159 296.914h48.267v45.717h-48.267z"/><path id="f" d="M348.786 275.767h64.579v35.919h-64.579z"/><path id="h" d="M359.141 358.886h76.62v27.985h-76.62z"/></defs><path d="M12.137 151.16h80.159v94.605H12.137z" style="fill:#fff;stroke:#fff;stroke-width:.264583;stroke-dasharray:none;stroke-dashoffset:0" transform="translate(-12.005 -151.028)"/><path d="M42.177 169.163h14.612L67.97 210.89l.043 16.968h-37.06l.043-16.968 11.18-41.727" style="fill:#f9f9f9;stroke:#000;stroke-width:.264583px;stroke-linecap:butt;stroke-linejoin:miter;stroke-opacity:1" transform="translate(-12.005 -151.028)"/><path d="M30.996 210.89H67.97" style="fill:none;stroke:#000;stroke-width:.264583px;stroke-linecap:butt;stroke-linejoin:miter;stroke-opacity:1" transform="translate(-12.005 -151.028)"/><path d="M67.918 210.758h12.236" style="fill:#ccc;stroke:#ccc;stroke-width:.264583px;stroke-linecap:butt;stroke-linejoin:miter;stroke-opacity:1" transform="translate(-12.005 -151.028)"/><path d="M56.737 169.03h23.417" style="fill:#ccc;stroke:#ccc;stroke-width:.264582px;stroke-linecap:butt;stroke-linejoin:miter;stroke-opacity:1" transform="translate(-12.005 -151.028)"/><path d="M80.154 226.523v-14.562" style="fill:none;stroke:#000;stroke-width:.264583px;stroke-linecap:butt;stroke-linejoin:miter;stroke-opacity:1;marker-start:url(#a);marker-end:url(#a)" transform="translate(-12.005 -151.028)"/><path d="M80.154 209.267v-38.745" style="fill:none;stroke:#000;stroke-width:.264583px;stroke-linecap:butt;stroke-linejoin:miter;stroke-opacity:1;marker-start:url(#b);marker-end:url(#b)" transform="translate(-12.005 -151.028)"/><text xml:space="preserve" style="font-size:14.6667px;line-height:1.25;font-family:sans-serif;white-space:pre;shape-inside:url(#c);display:inline" transform="matrix(.26458 0 0 .26458 -38.927 11.086)"><tspan x="407.768" y="220.231">H1</tspan></text><text xml:space="preserve" style="font-size:14.6667px;line-height:1.25;font-family:sans-serif;white-space:pre;shape-inside:url(#d);display:inline" transform="matrix(.26458 0 0 .26458 -45.201 -41.536)"><tspan x="433.158" y="309.891">H2</tspan></text><path d="M68.013 227.858H80.25M67.881 240.227V227.99M30.82 240.227V227.99" style="fill:#ccc;stroke:#ccc;stroke-width:.264583px;stroke-linecap:butt;stroke-linejoin:miter;stroke-opacity:1" transform="translate(-12.005 -151.028)"/><path d="M31.894 240.227h34.692" style="fill:none;stroke:#000;stroke-width:.264583px;stroke-linecap:butt;stroke-linejoin:miter;stroke-opacity:1;marker-start:url(#e);marker-end:url(#e)" transform="translate(-12.005 -151.028)"/><text xml:space="preserve" style="font-size:14.6667px;line-height:1.25;font-family:sans-serif;white-space:pre;shape-inside:url(#f);display:inline" transform="matrix(.26458 0 0 .26458 -57.378 16.523)"><tspan x="348.785" y="288.744">D1</tspan></text><path d="M56.87 168.899v-12.237M42.124 169.03v-12.236" style="fill:#ccc;stroke:#ccc;stroke-width:.264583px;stroke-linecap:butt;stroke-linejoin:miter;stroke-opacity:1" transform="translate(-12.005 -151.028)"/><path d="M43.158 156.794h12.678" style="fill:none;stroke:#000;stroke-width:.264583px;stroke-linecap:butt;stroke-linejoin:miter;stroke-opacity:1;marker-start:url(#g);marker-end:url(#g)" transform="translate(-12.005 -151.028)"/><text xml:space="preserve" style="font-size:14.6667px;line-height:1.25;font-family:sans-serif;white-space:pre;shape-inside:url(#h);display:inline" transform="matrix(.26458 0 0 .26458 -59.55 -93.389)"><tspan x="359.141" y="371.863">D2</tspan></text><path d="M51.982 216.244v3.759s-.194 1.598-.634 2.177c-.63.829-1.62 1.424-2.582 1.475-.777.042-1.613-.35-2.175-.962-.623-.678-1.04-2.69-1.04-2.69v-3.76s.333-1.876.892-2.525a3.334 3.334 0 0 1 2.323-1.127c.694-.03 1.45.244 1.97.766.708.708 1.246 2.887 1.246 2.887z" style="fill:#e6e6e6;stroke:#000;stroke-width:.264583px;stroke-linecap:butt;stroke-linejoin:miter;stroke-opacity:1" transform="translate(-12.005 -151.028)"/><path d="M51.136 216.527v3.19s-.147 1.355-.48 1.846c-.477.703-1.226 1.208-1.955 1.252-.589.035-1.222-.298-1.647-.817-.471-.575-.788-2.282-.788-2.282v-3.189s.253-1.592.676-2.142c.446-.58 1.122-.926 1.759-.956.525-.025 1.098.207 1.492.65.536.6.943 2.448.943 2.448z" style="fill:#f9f9f9;stroke:#000;stroke-width:.264583px;stroke-linecap:butt;stroke-linejoin:miter;stroke-opacity:1" transform="translate(-12.005 -151.028)"/><path d="M22.727 227.99h7.96M22.727 223.79h26.04M22.727 212.59h26.04M45.55 232.24v-12.237M51.982 232.24v-12.237" style="fill:#ccc;stroke:#ccc;stroke-width:.264583px;stroke-linecap:butt;stroke-linejoin:miter;stroke-opacity:1" transform="translate(-12.005 -151.028)"/><path d="M46.5 232.24h4.532" style="fill:none;stroke:#000;stroke-width:.264584px;stroke-linecap:butt;stroke-linejoin:miter;stroke-opacity:1;marker-start:url(#i);marker-end:url(#i)" transform="translate(-12.005 -151.028)"/><path d="M22.727 222.224v-8.066" style="fill:none;stroke:#000;stroke-width:.264583px;stroke-linecap:butt;stroke-linejoin:miter;stroke-opacity:1;marker-start:url(#j);marker-end:url(#j)" transform="translate(-12.005 -151.028)"/><path d="M22.727 227.29v-2.534" style="fill:none;stroke:#000;stroke-width:.264584px;stroke-linecap:butt;stroke-linejoin:miter;stroke-opacity:1;marker-start:url(#k);marker-end:url(#k)" transform="translate(-12.005 -151.028)"/><text xml:space="preserve" style="font-size:14.6667px;line-height:1.25;font-family:sans-serif;white-space:pre;shape-inside:url(#l);display:inline" transform="matrix(.26458 0 0 .26458 -2.625 -163.42)"><tspan x="25.879" y="906.816">H3</tspan></text><text xml:space="preserve" style="font-size:14.6667px;line-height:1.25;font-family:sans-serif;white-space:pre;shape-inside:url(#m);display:inline" transform="matrix(.26458 0 0 .26458 -4.164 -128.913)"><tspan x="33.098" y="746.418">H4</tspan></text><text xml:space="preserve" style="font-size:14.6667px;line-height:1.25;font-family:sans-serif;white-space:pre;shape-inside:url(#n);display:inline" transform="matrix(.26458 0 0 .26458 29.777 -165.596)"><tspan x="16.064" y="947.674">D4</tspan></text><path d="M51.963 216.72v-13.563M51.037 216.72v-13.563" style="fill:#ccc;stroke:#ccc;stroke-width:.264583px;stroke-linecap:butt;stroke-linejoin:miter;stroke-opacity:1" transform="translate(-12.005 -151.028)"/><path d="M51.037 203.157h10.445" style="fill:none;stroke:#000;stroke-width:.264583px;stroke-linecap:butt;stroke-linejoin:miter;stroke-opacity:1;marker-start:url(#o)" transform="translate(-12.005 -151.028)"/><path d="M52.492 203.157h2.976" style="fill:none;stroke:#000;stroke-width:.264583px;stroke-linecap:butt;stroke-linejoin:miter;stroke-opacity:1;marker-start:url(#p)" transform="translate(-12.005 -151.028)"/><text xml:space="preserve" style="font-size:14.6667px;line-height:1.25;font-family:sans-serif;white-space:pre;shape-inside:url(#q);display:inline" transform="matrix(.26458 0 0 .26458 -29.966 -186.227)"><tspan x="280.182" y="897.797">L2</tspan></text></svg>