<svg xmlns="http://www.w3.org/2000/svg" width="430.917" height="449.703" viewBox="0 0 114.013 118.984"><defs><path id="g" d="M98.764 3387.59h64.479v48.027H98.764z"/><path id="f" d="M175.914 3377.816h64.503v44.277h-64.503z"/><path id="e" d="M203.513 3381.326h75.126v49.828h-75.126z"/><path id="b" d="M437.355 1313.514h49.128v36.038h-49.128z"/><path id="i" d="M492.413 1281.653h61.664v44.837h-61.664z"/><path id="k" d="M509.19 985.606h49.059v38.43H509.19z"/><path id="d" d="M509.19 985.606h49.059v38.43H509.19z"/><path id="m" d="M502.509 908.675h63.675v33.807h-63.675z"/><path id="o" d="M203.513 3381.326h75.126v49.828h-75.126z"/><path id="p" d="M175.914 3377.816h64.503v44.277h-64.503z"/><path id="s" d="M175.914 3377.816h64.503v44.277h-64.503z"/><path id="v" d="M98.764 3387.59h64.479v48.027H98.764z"/><path id="w" d="M175.914 3377.816h64.503v44.277h-64.503z"/><path id="y" d="M175.914 3377.816h64.503v44.277h-64.503z"/><marker id="n" markerHeight="1" markerWidth="1" orient="auto-start-reverse" preserveAspectRatio="xMidYMid" refX="0" refY="0" style="overflow:visible" viewBox="0 0 1 1"><path d="M-.211-4.106 6.21-.894a1 1 90 0 1 0 1.788L-.21 4.106A1.236 1.236 31.717 0 1-2 3v-6A1.236 1.236 148.283 0 1-.211-4.106z" style="fill:context-stroke;fill-rule:evenodd;stroke:none" transform="scale(0.7)"/></marker><marker id="a" markerHeight="1" markerWidth="1" orient="auto-start-reverse" preserveAspectRatio="xMidYMid" refX="0" refY="0" style="overflow:visible" viewBox="0 0 1 1"><path d="M-.211-4.106 6.21-.894a1 1 90 0 1 0 1.788L-.21 4.106A1.236 1.236 31.717 0 1-2 3v-6A1.236 1.236 148.283 0 1-.211-4.106z" style="fill:context-stroke;fill-rule:evenodd;stroke:none" transform="scale(0.7)"/></marker><marker id="j" markerHeight="1" markerWidth="1" orient="auto-start-reverse" preserveAspectRatio="xMidYMid" refX="0" refY="0" style="overflow:visible" viewBox="0 0 1 1"><path d="M-.211-4.106 6.21-.894a1 1 90 0 1 0 1.788L-.21 4.106A1.236 1.236 31.717 0 1-2 3v-6A1.236 1.236 148.283 0 1-.211-4.106z" style="fill:context-stroke;fill-rule:evenodd;stroke:none" transform="scale(0.7)"/></marker><marker id="c" markerHeight="1" markerWidth="1" orient="auto-start-reverse" preserveAspectRatio="xMidYMid" refX="0" refY="0" style="overflow:visible" viewBox="0 0 1 1"><path d="M-.211-4.106 6.21-.894a1 1 90 0 1 0 1.788L-.21 4.106A1.236 1.236 31.717 0 1-2 3v-6A1.236 1.236 148.283 0 1-.211-4.106z" style="fill:context-stroke;fill-rule:evenodd;stroke:none" transform="scale(0.7)"/></marker><marker id="l" markerHeight="1" markerWidth="1" orient="auto-start-reverse" preserveAspectRatio="xMidYMid" refX="0" refY="0" style="overflow:visible" viewBox="0 0 1 1"><path d="M-.211-4.106 6.21-.894a1 1 90 0 1 0 1.788L-.21 4.106A1.236 1.236 31.717 0 1-2 3v-6A1.236 1.236 148.283 0 1-.211-4.106z" style="fill:context-stroke;fill-rule:evenodd;stroke:none" transform="scale(0.7)"/></marker><marker id="h" markerHeight="1" markerWidth="1" orient="auto-start-reverse" preserveAspectRatio="xMidYMid" refX="0" refY="0" style="overflow:visible" viewBox="0 0 1 1"><path d="M-.211-4.106 6.21-.894a1 1 90 0 1 0 1.788L-.21 4.106A1.236 1.236 31.717 0 1-2 3v-6A1.236 1.236 148.283 0 1-.211-4.106z" style="fill:context-stroke;fill-rule:evenodd;stroke:none" transform="scale(0.7)"/></marker><marker id="q" markerHeight="1" markerWidth="1" orient="auto-start-reverse" preserveAspectRatio="xMidYMid" refX="0" refY="0" style="overflow:visible" viewBox="0 0 1 1"><path d="M-.211-4.106 6.21-.894a1 1 90 0 1 0 1.788L-.21 4.106A1.236 1.236 31.717 0 1-2 3v-6A1.236 1.236 148.283 0 1-.211-4.106z" style="fill:context-stroke;fill-rule:evenodd;stroke:none" transform="scale(0.7)"/></marker><marker id="t" markerHeight="1" markerWidth="1" orient="auto-start-reverse" preserveAspectRatio="xMidYMid" refX="0" refY="0" style="overflow:visible" viewBox="0 0 1 1"><path d="M-.211-4.106 6.21-.894a1 1 90 0 1 0 1.788L-.21 4.106A1.236 1.236 31.717 0 1-2 3v-6A1.236 1.236 148.283 0 1-.211-4.106z" style="fill:context-stroke;fill-rule:evenodd;stroke:none" transform="scale(0.7)"/></marker><marker id="r" markerHeight="1" markerWidth="1" orient="auto-start-reverse" preserveAspectRatio="xMidYMid" refX="0" refY="0" style="overflow:visible" viewBox="0 0 1 1"><path d="M-.211-4.106 6.21-.894a1 1 90 0 1 0 1.788L-.21 4.106A1.236 1.236 31.717 0 1-2 3v-6A1.236 1.236 148.283 0 1-.211-4.106z" style="fill:context-stroke;fill-rule:evenodd;stroke:none" transform="scale(0.7)"/></marker><marker id="u" markerHeight="1" markerWidth="1" orient="auto-start-reverse" preserveAspectRatio="xMidYMid" refX="0" refY="0" style="overflow:visible" viewBox="0 0 1 1"><path d="M-.211-4.106 6.21-.894a1 1 90 0 1 0 1.788L-.21 4.106A1.236 1.236 31.717 0 1-2 3v-6A1.236 1.236 148.283 0 1-.211-4.106z" style="fill:context-stroke;fill-rule:evenodd;stroke:none" transform="scale(0.7)"/></marker><marker id="x" markerHeight="1" markerWidth="1" orient="auto-start-reverse" preserveAspectRatio="xMidYMid" refX="0" refY="0" style="overflow:visible" viewBox="0 0 1 1"><path d="M-.211-4.106 6.21-.894a1 1 90 0 1 0 1.788L-.21 4.106A1.236 1.236 31.717 0 1-2 3v-6A1.236 1.236 148.283 0 1-.211-4.106z" style="fill:context-stroke;fill-rule:evenodd;stroke:none" transform="scale(0.7)"/></marker><marker id="z" markerHeight="1" markerWidth="1" orient="auto-start-reverse" preserveAspectRatio="xMidYMid" refX="0" refY="0" style="overflow:visible" viewBox="0 0 1 1"><path d="M-.211-4.106 6.21-.894a1 1 90 0 1 0 1.788L-.21 4.106A1.236 1.236 31.717 0 1-2 3v-6A1.236 1.236 148.283 0 1-.211-4.106z" style="fill:context-stroke;fill-rule:evenodd;stroke:none" transform="scale(0.7)"/></marker></defs><g transform="translate(-20.727995,-757.51929)"><path d="M20.86 757.652h113.749v118.719H20.86z" style="fill:#fff;fill-opacity:1;stroke:#fff;stroke-width:.264583;stroke-opacity:1"/><path d="m59.78 796.02-14.213 39.693v21.5h43.71v-21.5L75.063 796.02H59.78" style="fill:#d5f6ff;stroke:#d5f6ff;stroke-width:.264583px;stroke-linecap:butt;stroke-linejoin:miter;stroke-opacity:1"/><path d="M45.567 835.713h3.34v21.501h-3.34z" style="fill:#5fbcd3;stroke:#5fbcd3;stroke-width:.264582"/><path d="M-851.882 49.172h3.34v9.349h-3.34z" style="fill:#5fbcd3;stroke:#5fbcd3;stroke-width:.264583" transform="rotate(-90)"/><path d="M324.621 729.276h3.34v42.16h-3.34z" style="fill:#5fbcd3;stroke:#5fbcd3;stroke-width:.264582" transform="rotate(19.700481)"/><path d="M-89.276 835.713h3.34v21.501h-3.34z" style="fill:#5fbcd3;stroke:#5fbcd3;stroke-width:.264582" transform="scale(-1,1)"/><path d="M-851.882-85.672h3.34v9.349h-3.34z" style="fill:#5fbcd3;stroke:#5fbcd3;stroke-width:.264583" transform="matrix(0,-1,-1,0,0,0)"/><path d="M197.671 774.732h3.34v42.16h-3.34z" style="fill:#5fbcd3;stroke:#5fbcd3;stroke-width:.264582" transform="matrix(-0.94146771,0.33710316,0.33710316,0.94146771,0,0)"/><path d="M-832.641 66.272h21.413v2.3h-21.413z" style="fill:#afdde9;stroke:#afdde9;stroke-width:.264584" transform="rotate(-90)"/><circle cx="67.422" cy="786.435" r="4.196" style="fill:#b380ff;fill-opacity:1;stroke:#b380ff;stroke-width:.264582;stroke-opacity:1"/><circle cx="67.422" cy="786.435" r="2.918" style="fill:#e5d5ff;fill-opacity:1;stroke:#b380ff;stroke-width:.264582;stroke-opacity:1"/><path d="M63.677 788.33s.383.832.694 1.156c.316.327.722.573 1.142.747.6.248 1.259.403 1.909.399.607-.004 1.214-.173 1.78-.396.457-.181.924-.401 1.27-.75.372-.376.796-1.372.796-1.372l1.366.685.525 13.85-11.498.18.64-13.847z" style="fill:#217867;fill-opacity:.8;stroke:none;stroke-width:.264583px;stroke-linecap:butt;stroke-linejoin:miter;stroke-opacity:1"/><circle cx="67.422" cy="805.323" r="6.169" style="fill:#5fbcd3;fill-opacity:1;stroke:#5fbcd3;stroke-width:.264582;stroke-opacity:1"/><circle cx="67.422" cy="805.323" r="4.29" style="fill:#d5f6ff;fill-opacity:1;stroke:#5fbcd3;stroke-width:.264582;stroke-opacity:1"/><path d="M95.534 857.346H89.41M95.534 835.448H89.41" style="fill:#ccc;stroke:#ccc;stroke-width:.264584px;stroke-linecap:butt;stroke-linejoin:miter;stroke-opacity:1"/><path d="M94.75 836.52v19.348" style="fill:none;stroke:#000;stroke-width:.264581px;stroke-linecap:butt;stroke-linejoin:miter;stroke-opacity:1;marker-start:url(#a);marker-end:url(#a)"/><text xml:space="preserve" style="font-size:14.6667px;line-height:1.25;font-family:sans-serif;white-space:pre;shape-inside:url(#b);display:inline" transform="matrix(0.26458333,0,0,0.26458333,-20.188849,496.79407)"><tspan x="437.355" y="1326.49">H1</tspan></text><path d="M104.746 805.455H67.422M67.422 799.154h-37.42M67.422 811.492H30.657" style="fill:#ccc;stroke:#ccc;stroke-width:.264582px;stroke-linecap:butt;stroke-linejoin:miter;stroke-opacity:1"/><path d="M30.657 800.417v9.631" style="fill:none;stroke:#000;stroke-width:.264581px;stroke-linecap:butt;stroke-linejoin:miter;stroke-opacity:1;marker-start:url(#c);marker-end:url(#c)"/><text xml:space="preserve" style="font-size:14.6667px;line-height:1.25;font-family:sans-serif;white-space:pre;shape-inside:url(#d);display:inline" transform="matrix(0.26458333,0,0,0.26458333,-103.66236,542.4386)"><tspan x="509.189" y="998.582">D4</tspan></text><path d="M104.746 786.303H67.422" style="fill:#ccc;stroke:#ccc;stroke-width:.264583px;stroke-linecap:butt;stroke-linejoin:miter;stroke-opacity:1"/><circle cx="67.422" cy="786.435" r="5.721" style="fill:none;stroke:#b3b3b3;stroke-width:.264584;stroke-linejoin:bevel"/><text xml:space="preserve" style="font-size:14.6667px;line-height:1.25;font-family:sans-serif;white-space:pre;shape-inside:url(#e)" transform="matrix(0.26458333,0,0,0.26458333,-13.555134,-56.003466)"><tspan x="203.514" y="3394.303">E7</tspan></text><text xml:space="preserve" style="font-size:14.6667px;line-height:1.25;font-family:sans-serif;white-space:pre;shape-inside:url(#f)" transform="matrix(0.26458333,0,0,0.26458333,-13.351554,-50.462244)"><tspan x="175.914" y="3390.793">S1</tspan></text><path d="M40.143 847.786h-15.58" style="fill:#ccc;stroke:#ccc;stroke-width:.264582px;stroke-linecap:butt;stroke-linejoin:miter;stroke-opacity:1"/><text xml:space="preserve" style="font-size:14.6667px;line-height:1.25;font-family:sans-serif;white-space:pre;shape-inside:url(#g)" transform="matrix(0.26458333,0,0,0.26458333,-0.25560288,-82.048262)"><tspan x="98.764" y="3400.566">S2</tspan></text><path d="M67.422 786.303h-42.86" style="fill:#ccc;stroke:#ccc;stroke-width:.264582px;stroke-linecap:butt;stroke-linejoin:miter;stroke-opacity:1"/><path d="M25.347 787.45v59.07" style="fill:none;stroke:#000;stroke-width:.26458px;stroke-linecap:butt;stroke-linejoin:miter;stroke-opacity:1;marker-start:url(#h);marker-end:url(#h)"/><path d="M793.73-129.023h5.292v61.601h-5.292z" style="opacity:.8;fill:#06f;stroke:none;stroke-width:.264583;stroke-linejoin:bevel" transform="rotate(90)"/><path d="M744.123 302.41h5.806v67.585h-5.806z" style="opacity:.4;fill:#06f;stroke:none;stroke-width:.264583;stroke-linejoin:bevel" transform="rotate(58.911209)"/><path d="M96.804 796.153h-21.74" style="fill:#ccc;stroke:#ccc;stroke-width:.264582px;stroke-linecap:butt;stroke-linejoin:miter;stroke-opacity:1"/><text xml:space="preserve" style="font-size:14.6667px;line-height:1.25;font-family:sans-serif;white-space:pre;shape-inside:url(#i);display:inline" transform="matrix(0.26458333,0,0,0.26458333,-34.76879,474.62931)"><tspan x="492.414" y="1294.629">H2</tspan></text><path d="M81.961 797.77v6.263" style="fill:none;stroke:#000;stroke-width:.264581px;stroke-linecap:butt;stroke-linejoin:miter;stroke-opacity:1;marker-start:url(#j);marker-end:url(#j)"/><text xml:space="preserve" style="font-size:14.6667px;line-height:1.25;font-family:sans-serif;white-space:pre;shape-inside:url(#k);display:inline" transform="matrix(0.26458333,0,0,0.26458333,-52.358075,538.10536)"><tspan x="509.189" y="998.582">H4</tspan></text><path d="M103.961 787.688v16.722" style="fill:none;stroke:#000;stroke-width:.264581px;stroke-linecap:butt;stroke-linejoin:miter;stroke-opacity:1;marker-start:url(#l);marker-end:url(#l)"/><text xml:space="preserve" style="font-size:14.6667px;line-height:1.25;font-family:sans-serif;white-space:pre;shape-inside:url(#m);display:inline" transform="matrix(0.26458333,0,0,0.26458333,-28.429502,553.19886)"><tspan x="502.51" y="921.652">H5</tspan></text><path d="M94.75 797.286v36.696" style="fill:none;stroke:#000;stroke-width:.264581px;stroke-linecap:butt;stroke-linejoin:miter;stroke-opacity:1;marker-start:url(#n);marker-end:url(#n)"/><path d="M123.731 788.438h5.292v5.292h-5.292z" style="fill:#06f;stroke:none;stroke-width:.264583;stroke-linejoin:bevel"/><path d="M124.789 789.497h3.175v3.175h-3.175z" style="fill:#fff;stroke:none;stroke-width:.264583;stroke-linejoin:bevel"/><path d="M40.143 842.627h5.292v5.292h-5.292z" style="fill:#06f;stroke:none;stroke-width:.264583;stroke-linejoin:bevel"/><path d="M41.201 843.685h3.175v3.175h-3.175z" style="fill:#fff;stroke:none;stroke-width:.264583;stroke-linejoin:bevel"/><text xml:space="preserve" style="font-size:14.6667px;line-height:1.25;font-family:sans-serif;white-space:pre;shape-inside:url(#o);display:inline" transform="matrix(0.26458333,0,0,0.26458333,65.060516,-105.57745)"><tspan x="203.514" y="3394.303">E7</tspan></text><text xml:space="preserve" style="font-size:14.6667px;line-height:1.25;font-family:sans-serif;white-space:pre;shape-inside:url(#p);display:inline" transform="matrix(0.26458333,0,0,0.26458333,81.967554,-94.473356)"><tspan x="175.914" y="3390.793">S1</tspan></text><path d="M130.081 795.098v2.607" style="fill:none;stroke:#000;stroke-width:.264581px;stroke-linecap:butt;stroke-linejoin:miter;stroke-opacity:1;marker-start:url(#q);marker-end:url(#q)"/><path d="M38.867 843.969v2.607" style="fill:none;stroke:#000;stroke-width:.264581px;stroke-linecap:butt;stroke-linejoin:miter;stroke-opacity:1;marker-start:url(#r);marker-end:url(#r)"/><text xml:space="preserve" style="font-size:14.6667px;line-height:1.25;font-family:sans-serif;white-space:pre;shape-inside:url(#s);display:inline" transform="matrix(0.26458333,0,0,0.26458333,82.752099,-108.62163)"><tspan x="175.914" y="3390.793">S1</tspan></text><path d="M130.081 789.985v2.607" style="fill:none;stroke:#000;stroke-width:.264581px;stroke-linecap:butt;stroke-linejoin:miter;stroke-opacity:1;marker-start:url(#t);marker-end:url(#t)"/><path d="M67.554 773.34v13.095M128.89 773.34v15.098" style="fill:#ccc;stroke:#ccc;stroke-width:.264584px;stroke-linecap:butt;stroke-linejoin:miter;stroke-opacity:1"/><path d="M127.764 773.34H68.7" style="fill:none;stroke:#000;stroke-width:.264581px;stroke-linecap:butt;stroke-linejoin:miter;stroke-opacity:1;marker-start:url(#u);marker-end:url(#u)"/><text xml:space="preserve" style="font-size:14.6667px;line-height:1.25;font-family:sans-serif;white-space:pre;shape-inside:url(#v);display:inline" transform="matrix(0.26458333,0,0,0.26458333,71.817953,-127.23313)"><tspan x="98.764" y="3400.566">S2</tspan></text><text xml:space="preserve" style="font-size:14.6667px;line-height:1.25;font-family:sans-serif;white-space:pre;shape-inside:url(#w);display:inline" transform="matrix(0.26458333,0,0,0.26458333,-6.5446415,-43.762296)"><tspan x="175.914" y="3390.793">S1</tspan></text><path d="M41.338 849.12h2.607" style="fill:none;stroke:#000;stroke-width:.264581px;stroke-linecap:butt;stroke-linejoin:miter;stroke-opacity:1;marker-start:url(#x);marker-end:url(#x)"/><text xml:space="preserve" style="font-size:14.6667px;line-height:1.25;font-family:sans-serif;white-space:pre;shape-inside:url(#y);display:inline" transform="matrix(0.26458333,0,0,0.26458333,77.319873,-111.26278)"><tspan x="175.914" y="3390.793">S1</tspan></text><path d="M124.997 787.258h2.607" style="fill:none;stroke:#000;stroke-width:.264581px;stroke-linecap:butt;stroke-linejoin:miter;stroke-opacity:1;marker-start:url(#z);marker-end:url(#z)"/></g></svg>