<svg xmlns="http://www.w3.org/2000/svg" width="430.917" height="449.703" viewBox="0 0 114.013 118.984"><defs><marker id="a" markerHeight="1" markerWidth="1" orient="auto-start-reverse" preserveAspectRatio="xMidYMid" refX="0" refY="0" style="overflow:visible" viewBox="0 0 1 1"><path d="M-.211-4.106 6.21-.894a1 1 90 0 1 0 1.788L-.21 4.106A1.236 1.236 31.717 0 1-2 3v-6A1.236 1.236 148.283 0 1-.211-4.106z" style="fill:context-stroke;fill-rule:evenodd;stroke:none" transform="scale(.7)"/></marker><marker id="b" markerHeight="1" markerWidth="1" orient="auto-start-reverse" preserveAspectRatio="xMidYMid" refX="0" refY="0" style="overflow:visible" viewBox="0 0 1 1"><path d="M-.211-4.106 6.21-.894a1 1 90 0 1 0 1.788L-.21 4.106A1.236 1.236 31.717 0 1-2 3v-6A1.236 1.236 148.283 0 1-.211-4.106z" style="fill:context-stroke;fill-rule:evenodd;stroke:none" transform="scale(.7)"/></marker><marker id="d" markerHeight="1" markerWidth="1" orient="auto-start-reverse" preserveAspectRatio="xMidYMid" refX="0" refY="0" style="overflow:visible" viewBox="0 0 1 1"><path d="M-.211-4.106 6.21-.894a1 1 90 0 1 0 1.788L-.21 4.106A1.236 1.236 31.717 0 1-2 3v-6A1.236 1.236 148.283 0 1-.211-4.106z" style="fill:context-stroke;fill-rule:evenodd;stroke:none" transform="scale(.7)"/></marker><marker id="f" markerHeight="1" markerWidth="1" orient="auto-start-reverse" preserveAspectRatio="xMidYMid" refX="0" refY="0" style="overflow:visible" viewBox="0 0 1 1"><path d="M-.211-4.106 6.21-.894a1 1 90 0 1 0 1.788L-.21 4.106A1.236 1.236 31.717 0 1-2 3v-6A1.236 1.236 148.283 0 1-.211-4.106z" style="fill:context-stroke;fill-rule:evenodd;stroke:none" transform="scale(.7)"/></marker><marker id="h" markerHeight="1" markerWidth="1" orient="auto-start-reverse" preserveAspectRatio="xMidYMid" refX="0" refY="0" style="overflow:visible" viewBox="0 0 1 1"><path d="M-.211-4.106 6.21-.894a1 1 90 0 1 0 1.788L-.21 4.106A1.236 1.236 31.717 0 1-2 3v-6A1.236 1.236 148.283 0 1-.211-4.106z" style="fill:context-stroke;fill-rule:evenodd;stroke:none" transform="scale(.7)"/></marker><marker id="j" markerHeight="1" markerWidth="1" orient="auto-start-reverse" preserveAspectRatio="xMidYMid" refX="0" refY="0" style="overflow:visible" viewBox="0 0 1 1"><path d="M-.211-4.106 6.21-.894a1 1 90 0 1 0 1.788L-.21 4.106A1.236 1.236 31.717 0 1-2 3v-6A1.236 1.236 148.283 0 1-.211-4.106z" style="fill:context-stroke;fill-rule:evenodd;stroke:none" transform="scale(.7)"/></marker><marker id="k" markerHeight="1" markerWidth="1" orient="auto-start-reverse" preserveAspectRatio="xMidYMid" refX="0" refY="0" style="overflow:visible" viewBox="0 0 1 1"><path d="M-.211-4.106 6.21-.894a1 1 90 0 1 0 1.788L-.21 4.106A1.236 1.236 31.717 0 1-2 3v-6A1.236 1.236 148.283 0 1-.211-4.106z" style="fill:context-stroke;fill-rule:evenodd;stroke:none" transform="scale(.7)"/></marker><marker id="o" markerHeight="1" markerWidth="1" orient="auto-start-reverse" preserveAspectRatio="xMidYMid" refX="0" refY="0" style="overflow:visible" viewBox="0 0 1 1"><path d="M-.211-4.106 6.21-.894a1 1 90 0 1 0 1.788L-.21 4.106A1.236 1.236 31.717 0 1-2 3v-6A1.236 1.236 148.283 0 1-.211-4.106z" style="fill:context-stroke;fill-rule:evenodd;stroke:none" transform="scale(.7)"/></marker><marker id="n" markerHeight="1" markerWidth="1" orient="auto-start-reverse" preserveAspectRatio="xMidYMid" refX="0" refY="0" style="overflow:visible" viewBox="0 0 1 1"><path d="M-.211-4.106 6.21-.894a1 1 90 0 1 0 1.788L-.21 4.106A1.236 1.236 31.717 0 1-2 3v-6A1.236 1.236 148.283 0 1-.211-4.106z" style="fill:context-stroke;fill-rule:evenodd;stroke:none" transform="scale(.7)"/></marker><marker id="q" markerHeight="1" markerWidth="1" orient="auto-start-reverse" preserveAspectRatio="xMidYMid" refX="0" refY="0" style="overflow:visible" viewBox="0 0 1 1"><path d="M-.211-4.106 6.21-.894a1 1 90 0 1 0 1.788L-.21 4.106A1.236 1.236 31.717 0 1-2 3v-6A1.236 1.236 148.283 0 1-.211-4.106z" style="fill:context-stroke;fill-rule:evenodd;stroke:none" transform="scale(.7)"/></marker><marker id="r" markerHeight="1" markerWidth="1" orient="auto-start-reverse" preserveAspectRatio="xMidYMid" refX="0" refY="0" style="overflow:visible" viewBox="0 0 1 1"><path d="M-.211-4.106 6.21-.894a1 1 90 0 1 0 1.788L-.21 4.106A1.236 1.236 31.717 0 1-2 3v-6A1.236 1.236 148.283 0 1-.211-4.106z" style="fill:context-stroke;fill-rule:evenodd;stroke:none" transform="scale(.7)"/></marker><marker id="t" markerHeight="1" markerWidth="1" orient="auto-start-reverse" preserveAspectRatio="xMidYMid" refX="0" refY="0" style="overflow:visible" viewBox="0 0 1 1"><path d="M-.211-4.106 6.21-.894a1 1 90 0 1 0 1.788L-.21 4.106A1.236 1.236 31.717 0 1-2 3v-6A1.236 1.236 148.283 0 1-.211-4.106z" style="fill:context-stroke;fill-rule:evenodd;stroke:none" transform="scale(.7)"/></marker><marker id="v" markerHeight="1" markerWidth="1" orient="auto-start-reverse" preserveAspectRatio="xMidYMid" refX="0" refY="0" style="overflow:visible" viewBox="0 0 1 1"><path d="M-.211-4.106 6.21-.894a1 1 90 0 1 0 1.788L-.21 4.106A1.236 1.236 31.717 0 1-2 3v-6A1.236 1.236 148.283 0 1-.211-4.106z" style="fill:context-stroke;fill-rule:evenodd;stroke:none" transform="scale(.7)"/></marker><marker id="y" markerHeight="1" markerWidth="1" orient="auto-start-reverse" preserveAspectRatio="xMidYMid" refX="0" refY="0" style="overflow:visible" viewBox="0 0 1 1"><path d="M-.211-4.106 6.21-.894a1 1 90 0 1 0 1.788L-.21 4.106A1.236 1.236 31.717 0 1-2 3v-6A1.236 1.236 148.283 0 1-.211-4.106z" style="fill:context-stroke;fill-rule:evenodd;stroke:none" transform="scale(.7)"/></marker><marker id="x" markerHeight="1" markerWidth="1" orient="auto-start-reverse" preserveAspectRatio="xMidYMid" refX="0" refY="0" style="overflow:visible" viewBox="0 0 1 1"><path d="M-.211-4.106 6.21-.894a1 1 90 0 1 0 1.788L-.21 4.106A1.236 1.236 31.717 0 1-2 3v-6A1.236 1.236 148.283 0 1-.211-4.106z" style="fill:context-stroke;fill-rule:evenodd;stroke:none" transform="scale(.7)"/></marker><marker id="A" markerHeight="1" markerWidth="1" orient="auto-start-reverse" preserveAspectRatio="xMidYMid" refX="0" refY="0" style="overflow:visible" viewBox="0 0 1 1"><path d="M-.211-4.106 6.21-.894a1 1 90 0 1 0 1.788L-.21 4.106A1.236 1.236 31.717 0 1-2 3v-6A1.236 1.236 148.283 0 1-.211-4.106z" style="fill:context-stroke;fill-rule:evenodd;stroke:none" transform="scale(.7)"/></marker><marker id="C" markerHeight="1" markerWidth="1" orient="auto-start-reverse" preserveAspectRatio="xMidYMid" refX="0" refY="0" style="overflow:visible" viewBox="0 0 1 1"><path d="M-.211-4.106 6.21-.894a1 1 90 0 1 0 1.788L-.21 4.106A1.236 1.236 31.717 0 1-2 3v-6A1.236 1.236 148.283 0 1-.211-4.106z" style="fill:context-stroke;fill-rule:evenodd;stroke:none" transform="scale(.7)"/></marker><path id="E" d="M394.877 926.402h43.272v33.54h-43.272z"/><path id="D" d="M502.509 908.675h63.675v33.807h-63.675z"/><path id="z" d="M91.855 1150.085h37.081v23.941H91.855z"/><path id="u" d="M509.19 985.606h49.059v38.43H509.19z"/><path id="s" d="M69.849 1234.667h61.202v55.429H69.849z"/><path id="p" d="M90.341 1234.474h62.011v48.429H90.341z"/><path id="m" d="M492.413 1281.653h61.664v44.837h-61.664z"/><path id="l" d="M437.355 1313.514h49.128v36.038h-49.128z"/><path id="e" d="M269.02 1337.439h89.48v57.232h-89.48z"/><path id="c" d="M453.954 1279.043h64.279v48.515h-64.279z"/><path id="g" d="M269.02 1337.439h89.48v57.232h-89.48z"/><path id="i" d="M269.02 1337.439h89.48v57.232h-89.48z"/><path id="w" d="M509.19 985.606h49.059v38.43H509.19z"/><path id="B" d="M509.19 985.606h49.059v38.43H509.19z"/></defs><g transform="translate(-33.292 -232.61)"><path d="M33.425 232.743h113.749v118.719H33.425z" style="fill:#fff;fill-opacity:1;stroke:#fff;stroke-width:.264583;stroke-opacity:1"/><path d="m72.304 271.112-14.212 39.692v21.501h43.71v-21.5l-14.213-39.693H72.304" style="fill:#d5f6ff;stroke:#d5f6ff;stroke-width:.264583px;stroke-linecap:butt;stroke-linejoin:miter;stroke-opacity:1"/><path d="M58.092 310.804h3.34v21.501h-3.34z" style="fill:#5fbcd3;stroke:#5fbcd3;stroke-width:.264582"/><path d="M-326.974 61.697h3.34v9.349h-3.34z" style="fill:#5fbcd3;stroke:#5fbcd3;stroke-width:.264583" transform="rotate(-90)"/><path d="M159.465 230.869h3.34v42.16h-3.34z" style="fill:#5fbcd3;stroke:#5fbcd3;stroke-width:.264582" transform="rotate(19.7)"/><path d="M-101.801 310.804h3.34v21.501h-3.34z" style="fill:#5fbcd3;stroke:#5fbcd3;stroke-width:.264582" transform="scale(-1 1)"/><path d="M-326.974-98.197h3.34v9.349h-3.34z" style="fill:#5fbcd3;stroke:#5fbcd3;stroke-width:.264583" transform="matrix(0 -1 -1 0 0 0)"/><path d="M8.93 284.77h3.34v42.16H8.93z" style="fill:#5fbcd3;stroke:#5fbcd3;stroke-width:.264582" transform="scale(-1 1) rotate(19.7)"/><path d="M-307.732 78.797h21.413v2.3h-21.413z" style="fill:#afdde9;stroke:#afdde9;stroke-width:.264584" transform="rotate(-90)"/><circle cx="79.947" cy="261.527" r="4.196" style="fill:#b380ff;fill-opacity:1;stroke:#b380ff;stroke-width:.264582;stroke-opacity:1"/><circle cx="79.947" cy="261.527" r="2.918" style="fill:#e5d5ff;fill-opacity:1;stroke:#b380ff;stroke-width:.264582;stroke-opacity:1"/><path d="M76.202 263.421s.383.832.694 1.156c.316.328.722.573 1.142.747.6.249 1.259.404 1.909.4.608-.005 1.214-.174 1.78-.397.457-.18.924-.4 1.27-.75.373-.375.796-1.372.796-1.372l1.453.576.87 16.634H73.777l.803-16.444z" style="fill:#217867;fill-opacity:.8;stroke:none;stroke-width:.264583px;stroke-linecap:butt;stroke-linejoin:miter;stroke-opacity:1"/><circle cx="79.947" cy="280.415" r="6.169" style="fill:#5fbcd3;fill-opacity:1;stroke:#5fbcd3;stroke-width:.264582;stroke-opacity:1"/><circle cx="79.947" cy="280.415" r="4.29" style="fill:#d5f6ff;fill-opacity:1;stroke:#5fbcd3;stroke-width:.264582;stroke-opacity:1"/><path d="M57.827 345.22v-12.782" style="fill:#ccc;stroke:#ccc;stroke-width:.264583px;stroke-linecap:butt;stroke-linejoin:miter;stroke-opacity:1"/><path d="M103.149 318.518h7.673" style="fill:none;stroke:#000;stroke-width:.264583px;stroke-linecap:butt;stroke-linejoin:miter;stroke-opacity:1;marker-start:url(#a)"/><path d="M96.939 318.518h-5.425" style="fill:none;stroke:#000;stroke-width:.264583px;stroke-linecap:butt;stroke-linejoin:miter;stroke-opacity:1;marker-start:url(#b)"/><text xml:space="preserve" style="font-size:14.6667px;line-height:1.25;font-family:sans-serif;white-space:pre;shape-inside:url(#c);display:inline" transform="matrix(.26458 0 0 .26458 -8.955 -21.98)"><tspan x="453.955" y="1292.02">E1</tspan></text><path d="M101.801 345.22v-12.782" style="fill:#ccc;stroke:#ccc;stroke-width:.264583px;stroke-linecap:butt;stroke-linejoin:miter;stroke-opacity:1"/><path d="M100.696 345.22H59.205" style="fill:none;stroke:#000;stroke-width:.264582px;stroke-linecap:butt;stroke-linejoin:miter;stroke-opacity:1;marker-start:url(#d);marker-end:url(#RoundedArrow-7-7-9-1-2-9)"/><text xml:space="preserve" style="font-size:14.6667px;line-height:1.25;font-family:sans-serif;white-space:pre;shape-inside:url(#e);display:inline" transform="matrix(.26458 0 0 .26458 5.86 -8.35)"><tspan x="269.02" y="1350.416">D1</tspan></text><path d="M71.31 339.889v-12.783M88.848 339.889v-12.783" style="fill:#ccc;stroke:#ccc;stroke-width:.264583px;stroke-linecap:butt;stroke-linejoin:miter;stroke-opacity:1"/><path d="M87.742 339.889H72.695" style="fill:none;stroke:#000;stroke-width:.264582px;stroke-linecap:butt;stroke-linejoin:miter;stroke-opacity:1;marker-start:url(#f);marker-end:url(#RoundedArrow-7-7-9-1-2-9-5)"/><text xml:space="preserve" style="font-size:14.6667px;line-height:1.25;font-family:sans-serif;white-space:pre;shape-inside:url(#g);display:inline" transform="matrix(.26458 0 0 .26458 6.324 -18.254)"><tspan x="269.02" y="1350.416">D3</tspan></text><path d="M72.304 271.112V240.42M87.59 271.112V240.42" style="fill:#ccc;stroke:#ccc;stroke-width:.264582px;stroke-linecap:butt;stroke-linejoin:miter;stroke-opacity:1"/><path d="M86.385 241.205H73.509" style="fill:none;stroke:#000;stroke-width:.264582px;stroke-linecap:butt;stroke-linejoin:miter;stroke-opacity:1;marker-start:url(#h);marker-end:url(#RoundedArrow-7-7-9-1-2-9-5-8)"/><text xml:space="preserve" style="font-size:14.6667px;line-height:1.25;font-family:sans-serif;white-space:pre;shape-inside:url(#i);display:inline" transform="matrix(.26458 0 0 .26458 5.73 -116.938)"><tspan x="269.02" y="1350.416">D2</tspan></text><path d="M129.5 332.438h-27.566M129.5 310.54h-27.566" style="fill:#ccc;stroke:#ccc;stroke-width:.264583px;stroke-linecap:butt;stroke-linejoin:miter;stroke-opacity:1"/><path d="M129.5 271.244H87.59" style="fill:#ccc;stroke:#ccc;stroke-width:.264582px;stroke-linecap:butt;stroke-linejoin:miter;stroke-opacity:1"/><path d="M129.5 272.378v36.696" style="fill:none;stroke:#000;stroke-width:.264581px;stroke-linecap:butt;stroke-linejoin:miter;stroke-opacity:1;marker-start:url(#j);marker-end:url(#RoundedArrow-7-7-9-1-2-9-5-8-2)"/><path d="M129.5 311.611v19.349" style="fill:none;stroke:#000;stroke-width:.264581px;stroke-linecap:butt;stroke-linejoin:miter;stroke-opacity:1;marker-start:url(#k);marker-end:url(#RoundedArrow-7-7-9-1-2-9-5-8-2-8)"/><text xml:space="preserve" style="font-size:14.6667px;line-height:1.25;font-family:sans-serif;white-space:pre;shape-inside:url(#l);display:inline" transform="matrix(.26458 0 0 .26458 14.561 -28.114)"><tspan x="437.355" y="1326.49">H1</tspan></text><text xml:space="preserve" style="font-size:14.6667px;line-height:1.25;font-family:sans-serif;white-space:pre;shape-inside:url(#m);display:inline" transform="matrix(.26458 0 0 .26458 -.019 -50.28)"><tspan x="492.414" y="1294.629">H2</tspan></text><path d="m97.327 294.966 7.1-2.912" style="fill:none;stroke:#000;stroke-width:.264583px;stroke-linecap:butt;stroke-linejoin:miter;stroke-opacity:1;marker-start:url(#n)"/><path d="m92.108 296.862-5.02 2.058" style="fill:none;stroke:#000;stroke-width:.264583px;stroke-linecap:butt;stroke-linejoin:miter;stroke-opacity:1;marker-start:url(#o)"/><text xml:space="preserve" style="font-size:14.6667px;line-height:1.25;font-family:sans-serif;white-space:pre;shape-inside:url(#p);display:inline" transform="matrix(.26458 0 0 .26458 80.947 -36.79)"><tspan x="90.342" y="1247.451">E1</tspan></text><path d="M65.505 328.265v7.674" style="fill:none;stroke:#000;stroke-width:.264583px;stroke-linecap:butt;stroke-linejoin:miter;stroke-opacity:1;marker-start:url(#q)"/><path d="M65.568 322.378v-5.424" style="fill:none;stroke:#000;stroke-width:.264583px;stroke-linecap:butt;stroke-linejoin:miter;stroke-opacity:1;marker-start:url(#r)"/><text xml:space="preserve" style="font-size:14.6667px;line-height:1.25;font-family:sans-serif;white-space:pre;shape-inside:url(#s);display:inline" transform="matrix(.26458 0 0 .26458 44.53 9.192)"><tspan x="69.848" y="1247.643">E3</tspan></text><path d="M138.711 280.547H79.947" style="fill:#ccc;stroke:#ccc;stroke-width:.264582px;stroke-linecap:butt;stroke-linejoin:miter;stroke-opacity:1"/><path d="M116.711 272.86v6.264" style="fill:none;stroke:#000;stroke-width:.264581px;stroke-linecap:butt;stroke-linejoin:miter;stroke-opacity:1;marker-start:url(#t);marker-end:url(#RoundedArrow-7-7-9-1-2-9-5-8-2-8-7)"/><text xml:space="preserve" style="font-size:14.6667px;line-height:1.25;font-family:sans-serif;white-space:pre;shape-inside:url(#u);display:inline" transform="matrix(.26458 0 0 .26458 -17.608 13.197)"><tspan x="509.189" y="998.582">H4</tspan></text><path d="M79.947 274.245H43.182M79.947 286.584H43.182" style="fill:#ccc;stroke:#ccc;stroke-width:.264582px;stroke-linecap:butt;stroke-linejoin:miter;stroke-opacity:1"/><path d="M43.182 275.508v9.632" style="fill:none;stroke:#000;stroke-width:.264581px;stroke-linecap:butt;stroke-linejoin:miter;stroke-opacity:1;marker-start:url(#v);marker-end:url(#RoundedArrow-7-7-9-1-2-9-5-8-2-8-7-0)"/><text xml:space="preserve" style="font-size:14.6667px;line-height:1.25;font-family:sans-serif;white-space:pre;shape-inside:url(#w);display:inline" transform="matrix(.26458 0 0 .26458 -98.016 17.53)"><tspan x="509.189" y="998.582">D4</tspan></text><path d="m73.23 283.234-11.954 5.304" style="fill:none;stroke:#000;stroke-width:.264582px;stroke-linecap:butt;stroke-linejoin:miter;stroke-opacity:1;marker-start:url(#x)"/><path d="m76.745 281.761 2.46-1.29" style="fill:none;stroke:#000;stroke-width:.264583px;stroke-linecap:butt;stroke-linejoin:miter;stroke-opacity:1;marker-start:url(#y)"/><text xml:space="preserve" style="font-size:14.6667px;line-height:1.25;font-family:sans-serif;white-space:pre;shape-inside:url(#z);display:inline" transform="matrix(.26458 0 0 .26458 31.371 -16.094)"><tspan x="91.855" y="1163.063">E4</tspan></text><path d="M120.675 323.634H98.329" style="fill:#ccc;stroke:#ccc;stroke-width:.264583px;stroke-linecap:butt;stroke-linejoin:miter;stroke-opacity:1"/><path d="M120.675 311.74v10.596" style="fill:none;stroke:#000;stroke-width:.264582px;stroke-linecap:butt;stroke-linejoin:miter;stroke-opacity:1;marker-start:url(#A);marker-end:url(#RoundedArrow-7-7-9-1-2-9-5-8-2-8-7-2)"/><text xml:space="preserve" style="font-size:14.6667px;line-height:1.25;font-family:sans-serif;white-space:pre;shape-inside:url(#B);display:inline" transform="matrix(.26458 0 0 .26458 -13.645 54.245)"><tspan x="509.189" y="998.582">H3</tspan></text><path d="M138.711 261.395H79.947" style="fill:#ccc;stroke:#ccc;stroke-width:.264583px;stroke-linecap:butt;stroke-linejoin:miter;stroke-opacity:1"/><path d="M138.711 262.78v16.722" style="fill:none;stroke:#000;stroke-width:.264581px;stroke-linecap:butt;stroke-linejoin:miter;stroke-opacity:1;marker-start:url(#C);marker-end:url(#RoundedArrow-7-7-9-1-2-9-5-8-2-8-2)"/><text xml:space="preserve" style="font-size:14.6667px;line-height:1.25;font-family:sans-serif;white-space:pre;shape-inside:url(#D);display:inline" transform="matrix(.26458 0 0 .26458 6.32 28.29)"><tspan x="502.51" y="921.652">H5</tspan></text><text xml:space="preserve" style="font-size:14.6667px;line-height:1.25;font-family:sans-serif;white-space:pre;shape-inside:url(#E);display:inline" transform="matrix(.26458 0 0 .26458 -11.05 5.805)"><tspan x="394.877" y="939.379">D5</tspan></text><path d="m85.55 258.877 8.327-3.977" style="fill:none;stroke:#000;stroke-width:.264583px;stroke-linecap:butt;stroke-linejoin:miter;stroke-opacity:1;marker-start:url(#a)"/></g></svg>