<svg xmlns="http://www.w3.org/2000/svg" width="557.043" height="399.985" viewBox="0 0 147.384 105.829"><defs><marker id="a" markerHeight="1" markerWidth="1" orient="auto-start-reverse" preserveAspectRatio="xMidYMid" refX="0" refY="0" style="overflow:visible" viewBox="0 0 1 1"><path d="M-.211-4.106 6.21-.894a1 1 90 0 1 0 1.788L-.21 4.106A1.236 1.236 31.717 0 1-2 3v-6A1.236 1.236 148.283 0 1-.211-4.106z" style="fill:context-stroke;fill-rule:evenodd;stroke:none" transform="scale(0.7)"/></marker><marker id="b" markerHeight="1" markerWidth="1" orient="auto-start-reverse" preserveAspectRatio="xMidYMid" refX="0" refY="0" style="overflow:visible" viewBox="0 0 1 1"><path d="M-.211-4.106 6.21-.894a1 1 90 0 1 0 1.788L-.21 4.106A1.236 1.236 31.717 0 1-2 3v-6A1.236 1.236 148.283 0 1-.211-4.106z" style="fill:context-stroke;fill-rule:evenodd;stroke:none" transform="scale(0.7)"/></marker><marker id="d" markerHeight="1" markerWidth="1" orient="auto-start-reverse" preserveAspectRatio="xMidYMid" refX="0" refY="0" style="overflow:visible" viewBox="0 0 1 1"><path d="M-.211-4.106 6.21-.894a1 1 90 0 1 0 1.788L-.21 4.106A1.236 1.236 31.717 0 1-2 3v-6A1.236 1.236 148.283 0 1-.211-4.106z" style="fill:context-stroke;fill-rule:evenodd;stroke:none" transform="scale(0.7)"/></marker><marker id="f" markerHeight="1" markerWidth="1" orient="auto-start-reverse" preserveAspectRatio="xMidYMid" refX="0" refY="0" style="overflow:visible" viewBox="0 0 1 1"><path d="M-.211-4.106 6.21-.894a1 1 90 0 1 0 1.788L-.21 4.106A1.236 1.236 31.717 0 1-2 3v-6A1.236 1.236 148.283 0 1-.211-4.106z" style="fill:context-stroke;fill-rule:evenodd;stroke:none" transform="scale(0.7)"/></marker><marker id="g" markerHeight="1" markerWidth="1" orient="auto-start-reverse" preserveAspectRatio="xMidYMid" refX="0" refY="0" style="overflow:visible" viewBox="0 0 1 1"><path d="M-.211-4.106 6.21-.894a1 1 90 0 1 0 1.788L-.21 4.106A1.236 1.236 31.717 0 1-2 3v-6A1.236 1.236 148.283 0 1-.211-4.106z" style="fill:context-stroke;fill-rule:evenodd;stroke:none" transform="scale(0.7)"/></marker><marker id="j" markerHeight="1" markerWidth="1" orient="auto-start-reverse" preserveAspectRatio="xMidYMid" refX="0" refY="0" style="overflow:visible" viewBox="0 0 1 1"><path d="M-.211-4.106 6.21-.894a1 1 90 0 1 0 1.788L-.21 4.106A1.236 1.236 31.717 0 1-2 3v-6A1.236 1.236 148.283 0 1-.211-4.106z" style="fill:context-stroke;fill-rule:evenodd;stroke:none" transform="scale(0.7)"/></marker><marker id="k" markerHeight="1" markerWidth="1" orient="auto-start-reverse" preserveAspectRatio="xMidYMid" refX="0" refY="0" style="overflow:visible" viewBox="0 0 1 1"><path d="M-.211-4.106 6.21-.894a1 1 90 0 1 0 1.788L-.21 4.106A1.236 1.236 31.717 0 1-2 3v-6A1.236 1.236 148.283 0 1-.211-4.106z" style="fill:context-stroke;fill-rule:evenodd;stroke:none" transform="scale(0.7)"/></marker><marker id="l" markerHeight="1" markerWidth="1" orient="auto-start-reverse" preserveAspectRatio="xMidYMid" refX="0" refY="0" style="overflow:visible" viewBox="0 0 1 1"><path d="M-.211-4.106 6.21-.894a1 1 90 0 1 0 1.788L-.21 4.106A1.236 1.236 31.717 0 1-2 3v-6A1.236 1.236 148.283 0 1-.211-4.106z" style="fill:context-stroke;fill-rule:evenodd;stroke:none" transform="scale(0.7)"/></marker><marker id="o" markerHeight="1" markerWidth="1" orient="auto-start-reverse" preserveAspectRatio="xMidYMid" refX="0" refY="0" style="overflow:visible" viewBox="0 0 1 1"><path d="M-.211-4.106 6.21-.894a1 1 90 0 1 0 1.788L-.21 4.106A1.236 1.236 31.717 0 1-2 3v-6A1.236 1.236 148.283 0 1-.211-4.106z" style="fill:context-stroke;fill-rule:evenodd;stroke:none" transform="scale(0.7)"/></marker><marker id="p" markerHeight="1" markerWidth="1" orient="auto-start-reverse" preserveAspectRatio="xMidYMid" refX="0" refY="0" style="overflow:visible" viewBox="0 0 1 1"><path d="M-.211-4.106 6.21-.894a1 1 90 0 1 0 1.788L-.21 4.106A1.236 1.236 31.717 0 1-2 3v-6A1.236 1.236 148.283 0 1-.211-4.106z" style="fill:context-stroke;fill-rule:evenodd;stroke:none" transform="scale(0.7)"/></marker><marker id="q" markerHeight="1" markerWidth="1" orient="auto-start-reverse" preserveAspectRatio="xMidYMid" refX="0" refY="0" style="overflow:visible" viewBox="0 0 1 1"><path d="M-.211-4.106 6.21-.894a1 1 90 0 1 0 1.788L-.21 4.106A1.236 1.236 31.717 0 1-2 3v-6A1.236 1.236 148.283 0 1-.211-4.106z" style="fill:context-stroke;fill-rule:evenodd;stroke:none" transform="scale(0.7)"/></marker><marker id="v" markerHeight="1" markerWidth="1" orient="auto-start-reverse" preserveAspectRatio="xMidYMid" refX="0" refY="0" style="overflow:visible" viewBox="0 0 1 1"><path d="M-.211-4.106 6.21-.894a1 1 90 0 1 0 1.788L-.21 4.106A1.236 1.236 31.717 0 1-2 3v-6A1.236 1.236 148.283 0 1-.211-4.106z" style="fill:context-stroke;fill-rule:evenodd;stroke:none" transform="scale(0.7)"/></marker><marker id="w" markerHeight="1" markerWidth="1" orient="auto-start-reverse" preserveAspectRatio="xMidYMid" refX="0" refY="0" style="overflow:visible" viewBox="0 0 1 1"><path d="M-.211-4.106 6.21-.894a1 1 90 0 1 0 1.788L-.21 4.106A1.236 1.236 31.717 0 1-2 3v-6A1.236 1.236 148.283 0 1-.211-4.106z" style="fill:context-stroke;fill-rule:evenodd;stroke:none" transform="scale(0.7)"/></marker><path id="u" d="M123.234 2688.228h53.513v29.458h-53.513z"/><path id="t" d="M488.379 2688.139h47.798v51.958h-47.798z"/><path id="s" d="M434.064 2707.755h64.968v61.194h-64.968z"/><path id="r" d="M491.49 2600.225h60.39v41.014h-60.39z"/><path id="c" d="M453.954 1279.043h64.279v48.515h-64.279z"/><path id="e" d="M269.02 1337.439h89.48v57.232h-89.48z"/><path id="h" d="M437.355 1313.514h49.128v36.038h-49.128z"/><path id="i" d="M492.413 1281.653h61.664v44.837h-61.664z"/><path id="n" d="M90.341 1234.474h62.011v48.429H90.341z"/><path id="m" d="M509.19 985.606h49.059v38.43H509.19z"/></defs><path d="M6.357 604.944h147.12v105.565H6.357z" style="fill:#fff;fill-opacity:1;stroke:#fff;stroke-width:.264583;stroke-linejoin:bevel;stroke-opacity:1" transform="translate(-6.2247643,-604.8114)"/><path d="M-615.749 8.585h7.484v133.908h-7.484z" style="fill:#e5d5ff;fill-opacity:1;stroke:#e5d5ff;stroke-width:.264582;stroke-opacity:1" transform="translate(-6.2247643,-604.8114) rotate(-90)"/><path d="M67.896 628.978 53.684 668.67v21.501h43.71V668.67L83.18 628.978H67.896" style="fill:#d5f6ff;stroke:#d5f6ff;stroke-width:.264583px;stroke-linecap:butt;stroke-linejoin:miter;stroke-opacity:1" transform="translate(-6.2247643,-604.8114)"/><path d="M53.684 668.67h3.34v21.501h-3.34z" style="fill:#5fbcd3;stroke:#5fbcd3;stroke-width:.264582" transform="translate(-6.2247643,-604.8114)"/><path d="M-684.839 57.289h3.34v9.349h-3.34z" style="fill:#5fbcd3;stroke:#5fbcd3;stroke-width:.264583" transform="translate(-6.2247643,-604.8114) rotate(-90)"/><path d="M275.953 569.274h3.34v42.16h-3.34z" style="fill:#5fbcd3;stroke:#5fbcd3;stroke-width:.264582" transform="translate(-6.2247643,-604.8114) rotate(19.700481)"/><path d="M-97.394 668.67h3.34v21.501h-3.34z" style="fill:#5fbcd3;stroke:#5fbcd3;stroke-width:.264582" transform="translate(-6.2247643,-604.8114) scale(-1,1)"/><path d="M-684.839-93.789h3.34v9.349h-3.34z" style="fill:#5fbcd3;stroke:#5fbcd3;stroke-width:.264583" transform="translate(-6.2247643,-604.8114) matrix(0,-1,-1,0,0,0)"/><path d="M133.718 620.203h3.34v42.16h-3.34z" style="fill:#5fbcd3;stroke:#5fbcd3;stroke-width:.264582" transform="translate(-6.2247643,-604.8114) matrix(-0.94146771,0.33710316,0.33710316,0.94146771,0,0)"/><path d="M66.638 681.5H84.44M57.156 669.333l36.75-.012" style="fill:none;stroke:#dbe3e2;stroke-width:.264583px;stroke-linecap:butt;stroke-linejoin:miter;stroke-opacity:1" transform="translate(-6.2247643,-604.8114)"/><path d="M71.041 630.104h8.996" style="fill:#dbe3de;stroke:#dbe3de;stroke-width:.264583px;stroke-linecap:butt;stroke-linejoin:miter;stroke-opacity:1" transform="translate(-6.2247643,-604.8114)"/><path d="M-636.416 17.354h1.814v116.37h-1.814zM-642.728 17.354h1.814v116.37h-1.814z" style="fill:#5fbcd3;stroke:#5fbcd3;stroke-width:.264583" transform="translate(-6.2247643,-604.8114) rotate(-90)"/><path d="M-640.649 17.354h4.233v116.37h-4.233z" style="fill:#d5f6ff;fill-opacity:1;stroke:#d5f6ff;stroke-width:.264583;stroke-opacity:1" transform="translate(-6.2247643,-604.8114) rotate(-90)"/><path d="M-509.767 350.867h2.082v39.05h-2.082z" style="fill:#5fbcd3;stroke:#5fbcd3;stroke-width:.265072" transform="translate(-6.2247643,-604.8114) matrix(0.51316435,-0.85829036,0.81115094,0.58483686,0,0)"/><path d="M-598.357 220.501h2.082v39.05h-2.082z" style="fill:#5fbcd3;stroke:#5fbcd3;stroke-width:.265072" transform="translate(-6.2247643,-604.8114) matrix(-0.51316435,-0.85829036,-0.81115094,0.58483686,0,0)"/><path d="M-634.602 17.354h21.413v4.89h-21.413zM-634.602 128.834h21.413v4.89h-21.413zM-634.337 50.909h21.413v4.89h-21.413zM-634.337 95.014h21.413v4.89h-21.413z" style="fill:#5fbcd3;stroke:#5fbcd3;stroke-width:.264584" transform="translate(-6.2247643,-604.8114) rotate(-90)"/><path d="M53.42 703.086v-12.783" style="fill:#ccc;stroke:#ccc;stroke-width:.264583px;stroke-linecap:butt;stroke-linejoin:miter;stroke-opacity:1" transform="translate(-6.2247643,-604.8114)"/><path d="M98.779 677.03h7.674" style="fill:none;stroke:#000;stroke-width:.264583px;stroke-linecap:butt;stroke-linejoin:miter;stroke-opacity:1;marker-start:url(#a)" transform="translate(-6.2247643,-604.8114)"/><path d="M92.57 677.03h-5.426" style="fill:none;stroke:#000;stroke-width:.264583px;stroke-linecap:butt;stroke-linejoin:miter;stroke-opacity:1;marker-start:url(#b)" transform="translate(-6.2247643,-604.8114)"/><text xml:space="preserve" style="font-size:14.6667px;line-height:1.25;font-family:sans-serif;white-space:pre;shape-inside:url(#c);display:inline" transform="translate(-6.2247643,-604.8114) matrix(0.26458333,0,0,0.26458333,-13.32463,336.53191)"><tspan x="453.955" y="1292.02">E1</tspan></text><path d="M97.394 703.086v-12.783" style="fill:#ccc;stroke:#ccc;stroke-width:.264583px;stroke-linecap:butt;stroke-linejoin:miter;stroke-opacity:1" transform="translate(-6.2247643,-604.8114)"/><path d="M96.288 703.086h-41.49" style="fill:none;stroke:#000;stroke-width:.264582px;stroke-linecap:butt;stroke-linejoin:miter;stroke-opacity:1;marker-start:url(#d);marker-end:url(#d)" transform="translate(-6.2247643,-604.8114)"/><text xml:space="preserve" style="font-size:14.6667px;line-height:1.25;font-family:sans-serif;white-space:pre;shape-inside:url(#e);display:inline" transform="translate(-6.2247643,-604.8114) matrix(0.26458333,0,0,0.26458333,1.4527907,349.51652)"><tspan x="269.02" y="1350.416">D1</tspan></text><path d="M120.43 690.436H97.527M146.094 668.538H97.526M146.094 628.972H82.973" style="fill:#ccc;stroke:#ccc;stroke-width:.264583px;stroke-linecap:butt;stroke-linejoin:miter;stroke-opacity:1" transform="translate(-6.2247643,-604.8114)"/><path d="M146.094 630.456v36.697" style="fill:none;stroke:#000;stroke-width:.264581px;stroke-linecap:butt;stroke-linejoin:miter;stroke-opacity:1;marker-start:url(#f);marker-end:url(#f)" transform="translate(-6.2247643,-604.8114)"/><path d="M119.271 669.61v19.348" style="fill:none;stroke:#000;stroke-width:.264581px;stroke-linecap:butt;stroke-linejoin:miter;stroke-opacity:1;marker-start:url(#g);marker-end:url(#g)" transform="translate(-6.2247643,-604.8114)"/><text xml:space="preserve" style="font-size:14.6667px;line-height:1.25;font-family:sans-serif;white-space:pre;shape-inside:url(#h);display:inline" transform="translate(-6.2247643,-604.8114) matrix(0.26458333,0,0,0.26458333,4.3326853,329.88362)"><tspan x="437.355" y="1326.49">H1</tspan></text><text xml:space="preserve" style="font-size:14.6667px;line-height:1.25;font-family:sans-serif;white-space:pre;shape-inside:url(#i);display:inline" transform="translate(-6.2247643,-604.8114) matrix(0.26458333,0,0,0.26458333,16.320177,307.57394)"><tspan x="492.414" y="1294.629">H2</tspan></text><path d="m93.108 653.752 7.1-2.911" style="fill:none;stroke:#000;stroke-width:.264583px;stroke-linecap:butt;stroke-linejoin:miter;stroke-opacity:1;marker-start:url(#j)" transform="translate(-6.2247643,-604.8114)"/><path d="m87.889 655.65-5.02 2.057" style="fill:none;stroke:#000;stroke-width:.264583px;stroke-linecap:butt;stroke-linejoin:miter;stroke-opacity:1;marker-start:url(#k)" transform="translate(-6.2247643,-604.8114)"/><path d="M139.543 638.249h-5.819" style="fill:#ccc;stroke:#ccc;stroke-width:.264582px;stroke-linecap:butt;stroke-linejoin:miter;stroke-opacity:1" transform="translate(-6.2247643,-604.8114)"/><path d="M136.754 630.714v6.263" style="fill:none;stroke:#000;stroke-width:.264581px;stroke-linecap:butt;stroke-linejoin:miter;stroke-opacity:1;marker-start:url(#l);marker-end:url(#l)" transform="translate(-6.2247643,-604.8114)"/><text xml:space="preserve" style="font-size:14.6667px;line-height:1.25;font-family:sans-serif;white-space:pre;shape-inside:url(#m);display:inline" transform="translate(-6.2247643,-604.8114) matrix(0.26458333,0,0,0.26458333,2.4350647,371.04999)"><tspan x="509.189" y="998.582">H4</tspan></text><path d="m69.777 665.22 11.25.004s.52-.153.69-.346c.234-.268.35-1.008.35-1.008l-2.313-12.38s-.338-.61-.622-.785c-.272-.167-.937-.191-.937-.191l-5.14-.096s-.84.114-1.158.364c-.267.21-.527.876-.527.876l-2.477 11.987s-.097.797.102 1.112c.162.256.782.464.782.464z" style="fill:#afafe9;fill-opacity:1;stroke:#afafe9;stroke-width:.264583px;stroke-linecap:butt;stroke-linejoin:miter;stroke-opacity:1" transform="translate(-6.2247643,-604.8114)"/><path d="M68.535 665.36h14.008l-2.972-15.055h-8.064l-2.972 15.055" style="fill:none;stroke:#ccc;stroke-width:.264583px;stroke-linecap:butt;stroke-linejoin:miter;stroke-opacity:1" transform="translate(-6.2247643,-604.8114)"/><path d="M127.845 665.36H82.543M128.14 650.305H79.57" style="fill:#ccc;stroke:#ccc;stroke-width:.264583px;stroke-linecap:butt;stroke-linejoin:miter;stroke-opacity:1" transform="translate(-6.2247643,-604.8114)"/><text xml:space="preserve" style="font-size:14.6667px;line-height:1.25;font-family:sans-serif;white-space:pre;shape-inside:url(#n);display:inline" transform="translate(-6.2247643,-604.8114) matrix(0.26458333,0,0,0.26458333,76.728229,321.99713)"><tspan x="90.342" y="1247.451">E1</tspan></text><path d="M128.14 651.623v12.413" style="fill:none;stroke:#000;stroke-width:.264581px;stroke-linecap:butt;stroke-linejoin:miter;stroke-opacity:1;marker-start:url(#o);marker-end:url(#o)" transform="translate(-6.2247643,-604.8114)"/><path d="M128.14 666.463v.862" style="fill:none;stroke:#000;stroke-width:.264581px;stroke-linecap:butt;stroke-linejoin:miter;stroke-opacity:1;marker-start:url(#p);marker-end:url(#p)" transform="translate(-6.2247643,-604.8114)"/><path d="M82.543 673.403v-8.176M68.537 673.572v-8.176" style="fill:#ccc;stroke:#ccc;stroke-width:.264583px;stroke-linecap:butt;stroke-linejoin:miter;stroke-opacity:1" transform="translate(-6.2247643,-604.8114)"/><path d="M81.445 673.572H69.9" style="fill:none;stroke:#000;stroke-width:.264582px;stroke-linecap:butt;stroke-linejoin:miter;stroke-opacity:1;marker-start:url(#q);marker-end:url(#q)" transform="translate(-6.2247643,-604.8114)"/><text xml:space="preserve" style="font-size:14.6667px;line-height:1.25;font-family:sans-serif;white-space:pre;shape-inside:url(#r)" transform="translate(-6.2247643,-604.8114) matrix(0.26458333,0,0,0.26458333,-56.790893,-14.092417)"><tspan x="491.49" y="2613.201">L9</tspan></text><text xml:space="preserve" style="font-size:14.6667px;line-height:1.25;font-family:sans-serif;white-space:pre;shape-inside:url(#s)" transform="translate(-6.2247643,-604.8114) matrix(0.26458333,0,0,0.26458333,14.745662,-51.935749)"><tspan x="434.064" y="2720.733">H6</tspan></text><text xml:space="preserve" style="font-size:14.6667px;line-height:1.25;font-family:sans-serif;white-space:pre;shape-inside:url(#t)" transform="translate(-6.2247643,-604.8114) matrix(0.26458333,0,0,0.26458333,-0.63321963,-54.928523)"><tspan x="488.379" y="2701.115">H7</tspan></text><text xml:space="preserve" style="font-size:14.6667px;line-height:1.25;font-family:sans-serif;white-space:pre;shape-inside:url(#u)" transform="translate(-6.2247643,-604.8114) matrix(0.26458333,0,0,0.26458333,17.854446,-62.344857)"><tspan x="123.234" y="2701.205">R9</tspan></text><path d="m69.345 651.308-13.049.422" style="fill:none;stroke:#000;stroke-width:.264583px;stroke-linecap:butt;stroke-linejoin:miter;stroke-opacity:1;marker-start:url(#v)" transform="translate(-6.2247643,-604.8114)"/><path d="m67.817 663.646-12.339-10.743" style="fill:none;stroke:#000;stroke-width:.264583px;stroke-linecap:butt;stroke-linejoin:miter;stroke-opacity:1;marker-start:url(#w)" transform="translate(-6.2247643,-604.8114)"/></svg>