<svg xmlns="http://www.w3.org/2000/svg" width="207.959" height="158.044" viewBox="0 0 55.022 41.816"><defs><marker id="k" markerHeight="1" markerWidth="1" orient="auto-start-reverse" preserveAspectRatio="xMidYMid" refX="0" refY="0" style="overflow:visible" viewBox="0 0 1 1"><path d="M-.211-4.106 6.21-.894a1 1 90 0 1 0 1.788L-.21 4.106A1.236 1.236 31.717 0 1-2 3v-6A1.236 1.236 148.283 0 1-.211-4.106z" style="fill:context-stroke;fill-rule:evenodd;stroke:none" transform="scale(.7)"/></marker><marker id="a" markerHeight="1" markerWidth="1" orient="auto-start-reverse" preserveAspectRatio="xMidYMid" refX="0" refY="0" style="overflow:visible" viewBox="0 0 1 1"><path d="M-.211-4.106 6.21-.894a1 1 90 0 1 0 1.788L-.21 4.106A1.236 1.236 31.717 0 1-2 3v-6A1.236 1.236 148.283 0 1-.211-4.106z" style="fill:context-stroke;fill-rule:evenodd;stroke:none" transform="scale(.7)"/></marker><marker id="c" markerHeight="1" markerWidth="1" orient="auto-start-reverse" preserveAspectRatio="xMidYMid" refX="0" refY="0" style="overflow:visible" viewBox="0 0 1 1"><path d="M-.211-4.106 6.21-.894a1 1 90 0 1 0 1.788L-.21 4.106A1.236 1.236 31.717 0 1-2 3v-6A1.236 1.236 148.283 0 1-.211-4.106z" style="fill:context-stroke;fill-rule:evenodd;stroke:none" transform="scale(.7)"/></marker><marker id="e" markerHeight="1" markerWidth="1" orient="auto-start-reverse" preserveAspectRatio="xMidYMid" refX="0" refY="0" style="overflow:visible" viewBox="0 0 1 1"><path d="M-.211-4.106 6.21-.894a1 1 90 0 1 0 1.788L-.21 4.106A1.236 1.236 31.717 0 1-2 3v-6A1.236 1.236 148.283 0 1-.211-4.106z" style="fill:context-stroke;fill-rule:evenodd;stroke:none" transform="scale(.7)"/></marker><marker id="g" markerHeight="1" markerWidth="1" orient="auto-start-reverse" preserveAspectRatio="xMidYMid" refX="0" refY="0" style="overflow:visible" viewBox="0 0 1 1"><path d="M-.211-4.106 6.21-.894a1 1 90 0 1 0 1.788L-.21 4.106A1.236 1.236 31.717 0 1-2 3v-6A1.236 1.236 148.283 0 1-.211-4.106z" style="fill:context-stroke;fill-rule:evenodd;stroke:none" transform="scale(.7)"/></marker><marker id="j" markerHeight="1" markerWidth="1" orient="auto-start-reverse" preserveAspectRatio="xMidYMid" refX="0" refY="0" style="overflow:visible" viewBox="0 0 1 1"><path d="M-.211-4.106 6.21-.894a1 1 90 0 1 0 1.788L-.21 4.106A1.236 1.236 31.717 0 1-2 3v-6A1.236 1.236 148.283 0 1-.211-4.106z" style="fill:context-stroke;fill-rule:evenodd;stroke:none" transform="scale(.7)"/></marker><marker id="n" markerHeight="1" markerWidth="1" orient="auto-start-reverse" preserveAspectRatio="xMidYMid" refX="0" refY="0" style="overflow:visible" viewBox="0 0 1 1"><path d="M-.211-4.106 6.21-.894a1 1 90 0 1 0 1.788L-.21 4.106A1.236 1.236 31.717 0 1-2 3v-6A1.236 1.236 148.283 0 1-.211-4.106z" style="fill:context-stroke;fill-rule:evenodd;stroke:none" transform="scale(.7)"/></marker><marker id="b" markerHeight="1" markerWidth="1" orient="auto-start-reverse" preserveAspectRatio="xMidYMid" refX="0" refY="0" style="overflow:visible" viewBox="0 0 1 1"><path d="M-.211-4.106 6.21-.894a1 1 90 0 1 0 1.788L-.21 4.106A1.236 1.236 31.717 0 1-2 3v-6A1.236 1.236 148.283 0 1-.211-4.106z" style="fill:context-stroke;fill-rule:evenodd;stroke:none" transform="scale(.7)"/></marker><path id="p" d="M138.545 670.401h43.618v31.707h-43.618z"/><path id="o" d="M149.91 508.479h56.804v35.83H149.91z"/><path id="m" d="M363.359 611.63h45.86v37.984h-45.86z"/><path id="l" d="M339.814 548.847h50.754v38.249h-50.754z"/><path id="d" d="M71.456 144.442h35.476v24.7H71.456z"/><path id="f" d="M48.042 128.98h33.215v22.711H48.042z"/><path id="h" d="M24.712 134.635h47.599v27.6H24.712z"/><path id="i" d="M34.341 228.742h49.173v44.537H34.341z"/></defs><g transform="translate(-41.79 -141.876)"><path d="M41.923 142.009h54.758v41.551H41.923z" style="fill:#fff;stroke:#fff;stroke-width:.264583"/><rect width="17.477" height="12.75" x="61.647" y="156.442" ry="3.505" style="fill:#5fbcd3;stroke:#5fbcd3;stroke-width:.264582"/><ellipse cx="63.37" cy="165.154" rx="1.477" ry="1.485" style="fill:#fff;stroke:#5fbcd3;stroke-width:.264582"/><ellipse cx="63.329" cy="160.814" rx="1.477" ry="1.485" style="fill:#fff;stroke:#5fbcd3;stroke-width:.264582"/><ellipse cx="77.567" cy="164.935" rx="1.477" ry="1.485" style="fill:#fff;stroke:#5fbcd3;stroke-width:.264582"/><ellipse cx="77.525" cy="160.596" rx="1.477" ry="1.485" style="fill:#fff;stroke:#5fbcd3;stroke-width:.264582"/><ellipse cx="-157.91" cy="73.204" rx="1.485" ry="1.477" style="fill:#fff;stroke:#5fbcd3;stroke-width:.264582" transform="rotate(-90)"/><ellipse cx="-157.952" cy="67.857" rx="1.485" ry="1.477" style="fill:#fff;stroke:#5fbcd3;stroke-width:.264582" transform="rotate(-90)"/><ellipse cx="-167.541" cy="73.155" rx="1.485" ry="1.477" style="fill:#fff;stroke:#5fbcd3;stroke-width:.264582" transform="rotate(-90)"/><ellipse cx="-167.583" cy="67.809" rx="1.485" ry="1.477" style="fill:#fff;stroke:#5fbcd3;stroke-width:.264582" transform="rotate(-90)"/><path d="M69.527 148.938h1.717v32.206h-1.717z" style="fill:#5fbcd3;stroke:#5fbcd3;stroke-width:.264583"/><path d="M62.911 179.228h5.243" style="fill:none;stroke:#000;stroke-width:.264583px;stroke-linecap:butt;stroke-linejoin:miter;stroke-opacity:1;marker-end:url(#a)"/><path d="M54.459 149.806v5.244" style="fill:none;stroke:#000;stroke-width:.264583px;stroke-linecap:butt;stroke-linejoin:miter;stroke-opacity:1;marker-end:url(#b)"/><path d="M76.825 179.149h-4.197" style="fill:none;stroke:#000;stroke-width:.264583px;stroke-linecap:butt;stroke-linejoin:miter;stroke-opacity:1;marker-end:url(#c)"/><text xml:space="preserve" style="font-size:14.6667px;line-height:1.25;font-family:sans-serif;white-space:pre;shape-inside:url(#d);display:inline" transform="matrix(.26458 0 0 .26458 39.107 138.939)"><tspan x="71.455" y="157.418">L2</tspan></text><path d="M48.958 156.467h17.29M48.91 169.332H66.2" style="fill:none;stroke:#ccc;stroke-width:.264583px;stroke-linecap:butt;stroke-linejoin:miter;stroke-opacity:1"/><path d="M48.958 157.628v10.255" style="fill:none;stroke:#000;stroke-width:.264583px;stroke-linecap:butt;stroke-linejoin:miter;stroke-opacity:1;marker-start:url(#e);marker-end:url(#e)"/><text xml:space="preserve" style="font-size:14.6667px;line-height:1.25;font-family:sans-serif;white-space:pre;shape-inside:url(#f);display:inline" transform="matrix(.26458 0 0 .26458 31.142 126.609)"><tspan x="48.043" y="141.957">L3</tspan></text><path d="M79.195 147.712v12.148M61.575 147.712v12.148" style="fill:none;stroke:#ccc;stroke-width:.264583px;stroke-linecap:butt;stroke-linejoin:miter;stroke-opacity:1"/><path d="M62.803 147.712h14.814" style="fill:none;stroke:#000;stroke-width:.264582px;stroke-linecap:butt;stroke-linejoin:miter;stroke-opacity:1;marker-start:url(#g);marker-end:url(#g)"/><text xml:space="preserve" style="font-size:14.6667px;line-height:1.25;font-family:sans-serif;white-space:pre;shape-inside:url(#h);display:inline" transform="matrix(.26458 0 0 .26458 61.562 107.62)"><tspan x="24.711" y="147.611">L4</tspan></text><text xml:space="preserve" style="font-size:14.6667px;line-height:1.25;font-family:sans-serif;white-space:pre;shape-inside:url(#i);display:inline" transform="matrix(.26458 0 0 .26458 74.352 109.47)"><tspan x="34.342" y="241.719">R3</tspan></text><path d="m83.388 172.612-3.86-3.559" style="fill:none;stroke:#000;stroke-width:.264583px;stroke-linecap:butt;stroke-linejoin:miter;stroke-opacity:1;marker-end:url(#j)"/><path d="m70.32 156.221 11.867-4.237" style="fill:none;stroke:#000;stroke-width:.264583px;stroke-linecap:butt;stroke-linejoin:miter;stroke-opacity:1;marker-start:url(#k)"/><path d="m75.43 155.932 6.69-4.097" style="fill:none;stroke:#000;stroke-width:.264583px;stroke-linecap:butt;stroke-linejoin:miter;stroke-opacity:1;marker-start:url(#k)"/><path d="m80.69 164.693 7.83-1.248" style="fill:none;stroke:#000;stroke-width:.264583px;stroke-linecap:butt;stroke-linejoin:miter;stroke-opacity:1;marker-start:url(#k)"/><path d="m80.807 161.143 7.328 2.053" style="fill:none;stroke:#000;stroke-width:.264583px;stroke-linecap:butt;stroke-linejoin:miter;stroke-opacity:1;marker-start:url(#k)"/><text xml:space="preserve" style="font-size:14.6667px;line-height:1.25;font-family:sans-serif;white-space:pre;shape-inside:url(#l)" transform="matrix(.26458 0 0 .26458 -7.38 4.32)"><tspan x="339.814" y="561.824">N4</tspan></text><text xml:space="preserve" style="font-size:14.6667px;line-height:1.25;font-family:sans-serif;white-space:pre;shape-inside:url(#m)" transform="matrix(.26458 0 0 .26458 -7.138 -.332)"><tspan x="363.359" y="624.607">N3</tspan></text><path d="M53.136 158.033h13.003" style="fill:none;stroke:#ccc;stroke-width:.264583px;stroke-linecap:butt;stroke-linejoin:miter;stroke-opacity:1"/><path d="M54.469 163.59v-4.197" style="fill:none;stroke:#000;stroke-width:.264583px;stroke-linecap:butt;stroke-linejoin:miter;stroke-opacity:1;marker-end:url(#n)"/><text xml:space="preserve" style="font-size:14.6667px;line-height:1.25;font-family:sans-serif;white-space:pre;shape-inside:url(#o)" transform="matrix(.26458 0 0 .26458 10.609 13.047)"><tspan x="149.91" y="521.455">L7</tspan></text><text xml:space="preserve" style="font-size:14.6667px;line-height:1.25;font-family:sans-serif;white-space:pre;shape-inside:url(#p)" transform="matrix(.26458 0 0 .26458 7.435 -2.033)"><tspan x="138.545" y="683.377">D2</tspan></text><path d="M49.585 175.848c.813-.243 11.525-8.767 11.525-8.767" style="fill:none;stroke:#000;stroke-width:.264583px;stroke-linecap:butt;stroke-linejoin:miter;stroke-opacity:1;marker-end:url(#k)"/></g></svg>