<svg xmlns="http://www.w3.org/2000/svg" width="225.613" height="369.016" viewBox="0 0 59.693 97.635"><defs><path id="i" d="M37.828 268.431h49.001v47.119H37.828z"/><path id="h" d="M34.341 228.742h49.173v44.537H34.341z"/><path id="g" d="M24.712 134.635h47.599v27.6H24.712z"/><path id="e" d="M71.456 144.442h35.476v24.7H71.456z"/><path id="c" d="M48.042 128.98h33.215v22.711H48.042z"/><path id="b" d="M236.545 204.855h68.335v56.735h-68.335z"/><marker id="a" markerHeight="1" markerWidth="1" orient="auto-start-reverse" preserveAspectRatio="xMidYMid" refX="0" refY="0" style="overflow:visible" viewBox="0 0 1 1"><path d="M-.211-4.106 6.21-.894a1 1 90 0 1 0 1.788L-.21 4.106A1.236 1.236 31.717 0 1-2 3v-6A1.236 1.236 148.283 0 1-.211-4.106" style="fill:context-stroke;fill-rule:evenodd;stroke:none" transform="scale(.7)"/></marker><marker id="d" markerHeight="1" markerWidth="1" orient="auto-start-reverse" preserveAspectRatio="xMidYMid" refX="0" refY="0" style="overflow:visible" viewBox="0 0 1 1"><path d="M-.211-4.106 6.21-.894a1 1 90 0 1 0 1.788L-.21 4.106A1.236 1.236 31.717 0 1-2 3v-6A1.236 1.236 148.283 0 1-.211-4.106" style="fill:context-stroke;fill-rule:evenodd;stroke:none" transform="scale(.7)"/></marker><marker id="f" markerHeight="1" markerWidth="1" orient="auto-start-reverse" preserveAspectRatio="xMidYMid" refX="0" refY="0" style="overflow:visible" viewBox="0 0 1 1"><path d="M-.211-4.106 6.21-.894a1 1 90 0 1 0 1.788L-.21 4.106A1.236 1.236 31.717 0 1-2 3v-6A1.236 1.236 148.283 0 1-.211-4.106" style="fill:context-stroke;fill-rule:evenodd;stroke:none" transform="scale(.7)"/></marker><marker id="j" markerHeight="1" markerWidth="1" orient="auto-start-reverse" preserveAspectRatio="xMidYMid" refX="0" refY="0" style="overflow:visible" viewBox="0 0 1 1"><path d="M-.211-4.106 6.21-.894a1 1 90 0 1 0 1.788L-.21 4.106A1.236 1.236 31.717 0 1-2 3v-6A1.236 1.236 148.283 0 1-.211-4.106" style="fill:context-stroke;fill-rule:evenodd;stroke:none" transform="scale(.7)"/></marker></defs><g transform="translate(-18.896 -15.956)"><path d="M19.028 16.088h59.429v97.371H19.028z" style="fill:#fff;stroke:#fff;stroke-width:.264583"/><path d="M45.825 31.767h1.717v75.98h-1.717z" style="fill:#5fbcd3;stroke:#5fbcd3;stroke-width:.264583"/><rect width="8.982" height="6.519" x="42.06" y="49" ry="1.792" style="fill:#5fbcd3;stroke:#5fbcd3;stroke-width:.264583"/><rect width="8.982" height="6.519" x="42.193" y="101.228" ry="1.792" style="fill:#5fbcd3;stroke:#5fbcd3;stroke-width:.264583"/><rect width="8.982" height="6.519" x="42.06" y="83.995" ry="1.792" style="fill:#5fbcd3;stroke:#5fbcd3;stroke-width:.264583"/><rect width="8.982" height="6.519" x="42.06" y="66.497" ry="1.792" style="fill:#5fbcd3;stroke:#5fbcd3;stroke-width:.264583"/><rect width="8.982" height="6.519" x="42.193" y="31.767" ry="1.792" style="fill:#5fbcd3;stroke:#5fbcd3;stroke-width:.264583"/><path d="M47.674 31.767h17.29M47.886 107.75h17.29" style="fill:none;stroke:#ccc;stroke-width:.264583px;stroke-linecap:butt;stroke-linejoin:miter;stroke-opacity:1"/><path d="m64.964 33.143.423 73.223" style="fill:none;stroke:#000;stroke-width:.264583px;stroke-linecap:butt;stroke-linejoin:miter;stroke-opacity:1;marker-start:url(#a);marker-end:url(#a)"/><text xml:space="preserve" style="font-size:14.6667px;line-height:1.25;font-family:sans-serif;white-space:pre;shape-inside:url(#b)" transform="matrix(.26458 0 0 .26458 3.358 16.217)"><tspan x="236.545" y="217.832">L1</tspan></text><path d="M28.403 31.767h17.29M28.403 38.418h17.29" style="fill:none;stroke:#ccc;stroke-width:.264583px;stroke-linecap:butt;stroke-linejoin:miter;stroke-opacity:1"/><path d="M28.403 33.075v4.276" style="fill:none;stroke:#000;stroke-width:.264583px;stroke-linecap:butt;stroke-linejoin:miter;stroke-opacity:1;marker-start:url(#a);marker-end:url(#a)"/><text xml:space="preserve" style="font-size:14.6667px;line-height:1.25;font-family:sans-serif;white-space:pre;shape-inside:url(#c)" transform="matrix(.26458 0 0 .26458 10.587 -.934)"><tspan x="48.043" y="141.957">L3</tspan></text><path d="M39.193 43.497h5.243" style="fill:none;stroke:#000;stroke-width:.264583px;stroke-linecap:butt;stroke-linejoin:miter;stroke-opacity:1;marker-end:url(#a)"/><path d="M53.106 43.417H48.91" style="fill:none;stroke:#000;stroke-width:.264583px;stroke-linecap:butt;stroke-linejoin:miter;stroke-opacity:1;marker-end:url(#d)"/><text xml:space="preserve" style="font-size:14.6667px;line-height:1.25;font-family:sans-serif;white-space:pre;shape-inside:url(#e)" transform="matrix(.26458 0 0 .26458 15.388 3.207)"><tspan x="71.455" y="157.418">L2</tspan></text><path d="M51.307 22.879v12.147M41.928 22.879v12.147" style="fill:none;stroke:#ccc;stroke-width:.264583px;stroke-linecap:butt;stroke-linejoin:miter;stroke-opacity:1"/><path d="M43.166 23.028h6.982" style="fill:none;stroke:#000;stroke-width:.264582px;stroke-linecap:butt;stroke-linejoin:miter;stroke-opacity:1;marker-start:url(#f);marker-end:url(#f)"/><text xml:space="preserve" style="font-size:14.6667px;line-height:1.25;font-family:sans-serif;white-space:pre;shape-inside:url(#g)" transform="matrix(.26458 0 0 .26458 38.18 -17.22)"><tspan x="24.711" y="147.611">L4</tspan></text><text xml:space="preserve" style="font-size:14.6667px;line-height:1.25;font-family:sans-serif;white-space:pre;shape-inside:url(#h)" transform="matrix(.26458 0 0 .26458 22.845 -2.798)"><tspan x="34.342" y="241.719">R3</tspan></text><path d="m37.501 59.187 3.86-3.558" style="fill:none;stroke:#000;stroke-width:.264583px;stroke-linecap:butt;stroke-linejoin:miter;stroke-opacity:1;marker-end:url(#a)"/><text xml:space="preserve" style="font-size:14.6667px;line-height:1.25;font-family:sans-serif;white-space:pre;shape-inside:url(#i)" transform="matrix(.26458 0 0 .26458 13.47 4.49)"><tspan x="37.828" y="281.408">N1</tspan></text><path d="m29.316 77.943 10.6 7.679" style="fill:none;stroke:#000;stroke-width:.264583px;stroke-linecap:butt;stroke-linejoin:miter;stroke-opacity:1;marker-end:url(#a)"/><path d="m29.304 78.079 10.6-7.679" style="fill:none;stroke:#000;stroke-width:.264583px;stroke-linecap:butt;stroke-linejoin:miter;stroke-opacity:1;marker-end:url(#j)"/><rect width="8.982" height="6.519" x="42.193" y="101.228" ry="1.792" style="fill:#5fbcd3;stroke:#5fbcd3;stroke-width:.264583"/><circle cx="43.078" cy="105.682" r=".759" style="fill:#fff;stroke:#5fbcd3;stroke-width:.264583"/><circle cx="43.057" cy="103.463" r=".759" style="fill:#fff;stroke:#5fbcd3;stroke-width:.264583"/><circle cx="50.374" cy="105.57" r=".759" style="fill:#fff;stroke:#5fbcd3;stroke-width:.264583"/><circle cx="50.353" cy="103.352" r=".759" style="fill:#fff;stroke:#5fbcd3;stroke-width:.264583"/><circle cx="-101.979" cy="48.132" r=".759" style="fill:#fff;stroke:#5fbcd3;stroke-width:.264583" transform="rotate(-90)"/><circle cx="-102" cy="45.384" r=".759" style="fill:#fff;stroke:#5fbcd3;stroke-width:.264583" transform="rotate(-90)"/><circle cx="-106.903" cy="48.107" r=".759" style="fill:#fff;stroke:#5fbcd3;stroke-width:.264583" transform="rotate(-90)"/><circle cx="-106.924" cy="45.36" r=".759" style="fill:#fff;stroke:#5fbcd3;stroke-width:.264583" transform="rotate(-90)"/><rect width="8.982" height="6.519" x="42.06" y="83.995" ry="1.792" style="fill:#5fbcd3;stroke:#5fbcd3;stroke-width:.264583"/><circle cx="42.946" cy="88.449" r=".759" style="fill:#fff;stroke:#5fbcd3;stroke-width:.264583"/><circle cx="42.925" cy="86.23" r=".759" style="fill:#fff;stroke:#5fbcd3;stroke-width:.264583"/><circle cx="50.242" cy="88.337" r=".759" style="fill:#fff;stroke:#5fbcd3;stroke-width:.264583"/><circle cx="50.221" cy="86.119" r=".759" style="fill:#fff;stroke:#5fbcd3;stroke-width:.264583"/><circle cx="-84.746" cy="48" r=".759" style="fill:#fff;stroke:#5fbcd3;stroke-width:.264583" transform="rotate(-90)"/><circle cx="-84.767" cy="45.252" r=".759" style="fill:#fff;stroke:#5fbcd3;stroke-width:.264583" transform="rotate(-90)"/><circle cx="-89.67" cy="47.975" r=".759" style="fill:#fff;stroke:#5fbcd3;stroke-width:.264583" transform="rotate(-90)"/><circle cx="-89.691" cy="45.227" r=".759" style="fill:#fff;stroke:#5fbcd3;stroke-width:.264583" transform="rotate(-90)"/><rect width="8.982" height="6.519" x="42.193" y="66.497" ry="1.792" style="fill:#5fbcd3;stroke:#5fbcd3;stroke-width:.264583"/><circle cx="43.078" cy="70.952" r=".759" style="fill:#fff;stroke:#5fbcd3;stroke-width:.264583"/><circle cx="43.057" cy="68.733" r=".759" style="fill:#fff;stroke:#5fbcd3;stroke-width:.264583"/><circle cx="50.374" cy="70.84" r=".759" style="fill:#fff;stroke:#5fbcd3;stroke-width:.264583"/><circle cx="50.353" cy="68.621" r=".759" style="fill:#fff;stroke:#5fbcd3;stroke-width:.264583"/><circle cx="-67.248" cy="48.132" r=".759" style="fill:#fff;stroke:#5fbcd3;stroke-width:.264583" transform="rotate(-90)"/><circle cx="-67.269" cy="45.384" r=".759" style="fill:#fff;stroke:#5fbcd3;stroke-width:.264583" transform="rotate(-90)"/><circle cx="-72.172" cy="48.107" r=".759" style="fill:#fff;stroke:#5fbcd3;stroke-width:.264583" transform="rotate(-90)"/><circle cx="-72.193" cy="45.36" r=".759" style="fill:#fff;stroke:#5fbcd3;stroke-width:.264583" transform="rotate(-90)"/><rect width="8.982" height="6.519" x="42.06" y="49" ry="1.792" style="fill:#5fbcd3;stroke:#5fbcd3;stroke-width:.264583"/><circle cx="42.946" cy="53.454" r=".759" style="fill:#fff;stroke:#5fbcd3;stroke-width:.264583"/><circle cx="42.925" cy="51.235" r=".759" style="fill:#fff;stroke:#5fbcd3;stroke-width:.264583"/><circle cx="50.242" cy="53.342" r=".759" style="fill:#fff;stroke:#5fbcd3;stroke-width:.264583"/><circle cx="50.221" cy="51.124" r=".759" style="fill:#fff;stroke:#5fbcd3;stroke-width:.264583"/><circle cx="-49.751" cy="48" r=".759" style="fill:#fff;stroke:#5fbcd3;stroke-width:.264583" transform="rotate(-90)"/><circle cx="-49.772" cy="45.252" r=".759" style="fill:#fff;stroke:#5fbcd3;stroke-width:.264583" transform="rotate(-90)"/><circle cx="-54.675" cy="47.975" r=".759" style="fill:#fff;stroke:#5fbcd3;stroke-width:.264583" transform="rotate(-90)"/><circle cx="-54.696" cy="45.227" r=".759" style="fill:#fff;stroke:#5fbcd3;stroke-width:.264583" transform="rotate(-90)"/><rect width="8.982" height="6.519" x="42.193" y="31.767" ry="1.792" style="fill:#5fbcd3;stroke:#5fbcd3;stroke-width:.264583"/><circle cx="43.078" cy="36.221" r=".759" style="fill:#fff;stroke:#5fbcd3;stroke-width:.264583"/><circle cx="43.057" cy="34.002" r=".759" style="fill:#fff;stroke:#5fbcd3;stroke-width:.264583"/><circle cx="50.374" cy="36.109" r=".759" style="fill:#fff;stroke:#5fbcd3;stroke-width:.264583"/><circle cx="50.353" cy="33.891" r=".759" style="fill:#fff;stroke:#5fbcd3;stroke-width:.264583"/><circle cx="-32.518" cy="48.132" r=".759" style="fill:#fff;stroke:#5fbcd3;stroke-width:.264583" transform="rotate(-90)"/><circle cx="-32.539" cy="45.384" r=".759" style="fill:#fff;stroke:#5fbcd3;stroke-width:.264583" transform="rotate(-90)"/><circle cx="-37.442" cy="48.107" r=".759" style="fill:#fff;stroke:#5fbcd3;stroke-width:.264583" transform="rotate(-90)"/><circle cx="-37.463" cy="45.36" r=".759" style="fill:#fff;stroke:#5fbcd3;stroke-width:.264583" transform="rotate(-90)"/></g></svg>