<svg xmlns="http://www.w3.org/2000/svg" width="443.445" height="290.28" viewBox="0 0 117.328 76.803"><defs><marker id="a" markerHeight="1" markerWidth="1" orient="auto-start-reverse" preserveAspectRatio="xMidYMid" refX="0" refY="0" style="overflow:visible" viewBox="0 0 1 1"><path d="M-.211-4.106 6.21-.894a1 1 90 0 1 0 1.788L-.21 4.106A1.236 1.236 31.717 0 1-2 3v-6A1.236 1.236 148.283 0 1-.211-4.106z" style="fill:context-stroke;fill-rule:evenodd;stroke:none" transform="scale(.7)"/></marker><marker id="c" markerHeight="1" markerWidth="1" orient="auto-start-reverse" preserveAspectRatio="xMidYMid" refX="0" refY="0" style="overflow:visible" viewBox="0 0 1 1"><path d="M-.211-4.106 6.21-.894a1 1 90 0 1 0 1.788L-.21 4.106A1.236 1.236 31.717 0 1-2 3v-6A1.236 1.236 148.283 0 1-.211-4.106z" style="fill:context-stroke;fill-rule:evenodd;stroke:none" transform="scale(.7)"/></marker><marker id="e" markerHeight="1" markerWidth="1" orient="auto-start-reverse" preserveAspectRatio="xMidYMid" refX="0" refY="0" style="overflow:visible" viewBox="0 0 1 1"><path d="M-.211-4.106 6.21-.894a1 1 90 0 1 0 1.788L-.21 4.106A1.236 1.236 31.717 0 1-2 3v-6A1.236 1.236 148.283 0 1-.211-4.106z" style="fill:context-stroke;fill-rule:evenodd;stroke:none" transform="scale(.7)"/></marker><marker id="f" markerHeight="1" markerWidth="1" orient="auto-start-reverse" preserveAspectRatio="xMidYMid" refX="0" refY="0" style="overflow:visible" viewBox="0 0 1 1"><path d="M-.211-4.106 6.21-.894a1 1 90 0 1 0 1.788L-.21 4.106A1.236 1.236 31.717 0 1-2 3v-6A1.236 1.236 148.283 0 1-.211-4.106z" style="fill:context-stroke;fill-rule:evenodd;stroke:none" transform="scale(.7)"/></marker><marker id="h" markerHeight="1" markerWidth="1" orient="auto-start-reverse" preserveAspectRatio="xMidYMid" refX="0" refY="0" style="overflow:visible" viewBox="0 0 1 1"><path d="M-.211-4.106 6.21-.894a1 1 90 0 1 0 1.788L-.21 4.106A1.236 1.236 31.717 0 1-2 3v-6A1.236 1.236 148.283 0 1-.211-4.106z" style="fill:context-stroke;fill-rule:evenodd;stroke:none" transform="scale(.7)"/></marker><marker id="g" markerHeight="1" markerWidth="1" orient="auto-start-reverse" preserveAspectRatio="xMidYMid" refX="0" refY="0" style="overflow:visible" viewBox="0 0 1 1"><path d="M-.211-4.106 6.21-.894a1 1 90 0 1 0 1.788L-.21 4.106A1.236 1.236 31.717 0 1-2 3v-6A1.236 1.236 148.283 0 1-.211-4.106z" style="fill:context-stroke;fill-rule:evenodd;stroke:none" transform="scale(.7)"/></marker><path id="k" d="M446.714 1010.391h58.537v41.249h-58.537z"/><path id="j" d="M150.862 977.538h49.225v46.905h-49.225z"/><path id="i" d="M479.343 995.308h54.528v59.936h-54.528z"/><path id="b" d="M24.712 134.635h47.599v27.6H24.712z"/><path id="d" d="M24.712 134.635h47.599v27.6H24.712z"/></defs><path d="M24.19 219.881h117.063v76.539H24.19z" style="fill:#fff;stroke:#fff;stroke-width:.264583" transform="translate(-24.058 -219.749)"/><path d="M63.232 246.238h22.853v30.6H63.232z" style="fill:#5fbcd3;stroke:#5fbcd3;stroke-width:.264583" transform="translate(-24.058 -219.749)"/><path d="M66.728 250.814H82.59v21.448H66.728z" style="fill:#fff;stroke:#5fbcd3;stroke-width:.264583" transform="translate(-24.058 -219.749)"/><path d="M33.986 239.947h81.345v6.026H33.986z" style="fill:#5fbcd3;stroke:#5fbcd3;stroke-width:.264583" transform="translate(-24.058 -219.749)"/><path d="M33.986 227.668v12.147M115.33 227.668v12.147" style="fill:none;stroke:#ccc;stroke-width:.264583px;stroke-linecap:butt;stroke-linejoin:miter;stroke-opacity:1" transform="translate(-24.058 -219.749)"/><path d="M35.12 228.452h79.077" style="fill:none;stroke:#000;stroke-width:.264582px;stroke-linecap:butt;stroke-linejoin:miter;stroke-opacity:1;marker-start:url(#a);marker-end:url(#a)" transform="translate(-24.058 -219.749)"/><text xml:space="preserve" style="font-size:14.6667px;line-height:1.25;font-family:sans-serif;white-space:pre;shape-inside:url(#b);display:inline" transform="matrix(.26458 0 0 .26458 41.666 -31.137)"><tspan x="24.711" y="147.611">L4</tspan></text><path d="M63.1 276.97v12.148M86.35 276.97v12.148" style="fill:none;stroke:#ccc;stroke-width:.264583px;stroke-linecap:butt;stroke-linejoin:miter;stroke-opacity:1" transform="translate(-24.058 -219.749)"/><path d="M64.263 289.118h20.924" style="fill:none;stroke:#000;stroke-width:.264582px;stroke-linecap:butt;stroke-linejoin:miter;stroke-opacity:1;marker-start:url(#c);marker-end:url(#c)" transform="translate(-24.058 -219.749)"/><text xml:space="preserve" style="font-size:14.6667px;line-height:1.25;font-family:sans-serif;white-space:pre;shape-inside:url(#d);display:inline" transform="matrix(.26458 0 0 .26458 41.732 34.629)"><tspan x="24.711" y="147.611">L2</tspan></text><path d="M86.482 277.102h12.147" style="fill:none;stroke:#ccc;stroke-width:.264583px;stroke-linecap:butt;stroke-linejoin:miter;stroke-opacity:1" transform="translate(-24.058 -219.749)"/><path d="M98.63 275.733v-28.39" style="fill:none;stroke:#000;stroke-width:.264581px;stroke-linecap:butt;stroke-linejoin:miter;stroke-opacity:1;marker-start:url(#e);marker-end:url(#e)" transform="translate(-24.058 -219.749)"/><path d="M115.463 239.815h12.148M115.463 246.105h12.148" style="fill:none;stroke:#ccc;stroke-width:.264583px;stroke-linecap:butt;stroke-linejoin:miter;stroke-opacity:1" transform="translate(-24.058 -219.749)"/><path d="M127.61 245v-3.845" style="fill:none;stroke:#000;stroke-width:.264581px;stroke-linecap:butt;stroke-linejoin:miter;stroke-opacity:1;marker-start:url(#f);marker-end:url(#f)" transform="translate(-24.058 -219.749)"/><path d="M56.612 261.548h5.243" style="fill:none;stroke:#000;stroke-width:.264583px;stroke-linecap:butt;stroke-linejoin:miter;stroke-opacity:1;marker-end:url(#g)" transform="translate(-24.058 -219.749)"/><path d="M72.044 261.538h-4.196" style="fill:none;stroke:#000;stroke-width:.264583px;stroke-linecap:butt;stroke-linejoin:miter;stroke-opacity:1;marker-end:url(#h)" transform="translate(-24.058 -219.749)"/><text xml:space="preserve" style="font-size:14.6667px;line-height:1.25;font-family:sans-serif;white-space:pre;shape-inside:url(#i)" transform="matrix(.26458 0 0 .26458 -50.947 -222.909)"><tspan x="479.344" y="1008.285">H1</tspan></text><text xml:space="preserve" style="font-size:14.6667px;line-height:1.25;font-family:sans-serif;white-space:pre;shape-inside:url(#j)" transform="matrix(.26458 0 0 .26458 -12.715 -218.459)"><tspan x="150.861" y="990.514">E1</tspan></text><text xml:space="preserve" style="font-size:14.6667px;line-height:1.25;font-family:sans-serif;white-space:pre;shape-inside:url(#k)" transform="matrix(.26458 0 0 .26458 -13.166 -246.169)"><tspan x="446.715" y="1023.367">E2</tspan></text></svg>