<svg xmlns="http://www.w3.org/2000/svg" width="547.836" height="337.489" viewBox="0 0 144.948 89.294"><defs><path id="r" d="M52.191 79.913h33.107v18.3H52.191z"/><path id="p" d="M217.928 289.918h103.906v60.45H217.928z"/><path id="o" d="M200.476 308.166h65.849v40.154h-65.849z"/><path id="n" d="M229.39 267.514h98.707v40.163H229.39z"/><path id="j" d="M245.594 244.874h54.004v34.66h-54.004z"/><path id="h" d="M241.86 255.216h59.177v38.415H241.86z"/><path id="g" d="M258.305 263.041h70.645v30.995h-70.645z"/><path id="f" d="M282.239 259.527h40.964v30.391h-40.964z"/><path id="e" d="M384.473 255.367h49.055v37.86h-49.055z"/><path id="d" d="M259.937 238.564h82.675v59.419h-82.675z"/><path id="c" d="M356.634 93.008h54.775v29.439h-54.775z"/><path id="l" d="M245.594 244.874h54.004v34.66h-54.004z"/><marker id="a" markerHeight="1" markerWidth="1" orient="auto-start-reverse" preserveAspectRatio="xMidYMid" refX="0" refY="0" style="overflow:visible" viewBox="0 0 1 1"><path d="M-.211-4.106 6.21-.894a1 1 90 0 1 0 1.788L-.21 4.106A1.236 1.236 31.717 0 1-2 3v-6A1.236 1.236 148.283 0 1-.211-4.106" style="fill:context-stroke;fill-rule:evenodd;stroke:none" transform="scale(.7)"/></marker><marker id="i" markerHeight="1" markerWidth="1" orient="auto-start-reverse" preserveAspectRatio="xMidYMid" refX="0" refY="0" style="overflow:visible" viewBox="0 0 1 1"><path d="M-.211-4.106 6.21-.894a1 1 90 0 1 0 1.788L-.21 4.106A1.236 1.236 31.717 0 1-2 3v-6A1.236 1.236 148.283 0 1-.211-4.106" style="fill:context-stroke;fill-rule:evenodd;stroke:none" transform="scale(.7)"/></marker><marker id="k" markerHeight="1" markerWidth="1" orient="auto-start-reverse" preserveAspectRatio="xMidYMid" refX="0" refY="0" style="overflow:visible" viewBox="0 0 1 1"><path d="M-.211-4.106 6.21-.894a1 1 90 0 1 0 1.788L-.21 4.106A1.236 1.236 31.717 0 1-2 3v-6A1.236 1.236 148.283 0 1-.211-4.106" style="fill:context-stroke;fill-rule:evenodd;stroke:none" transform="scale(.7)"/></marker><marker id="m" markerHeight="1" markerWidth="1" orient="auto-start-reverse" preserveAspectRatio="xMidYMid" refX="0" refY="0" style="overflow:visible" viewBox="0 0 1 1"><path d="M-.211-4.106 6.21-.894a1 1 90 0 1 0 1.788L-.21 4.106A1.236 1.236 31.717 0 1-2 3v-6A1.236 1.236 148.283 0 1-.211-4.106" style="fill:context-stroke;fill-rule:evenodd;stroke:none" transform="scale(.7)"/></marker><marker id="b" markerHeight="1" markerWidth="1" orient="auto-start-reverse" preserveAspectRatio="xMidYMid" refX="0" refY="0" style="overflow:visible" viewBox="0 0 1 1"><path d="M-.211-4.106 6.21-.894a1 1 90 0 1 0 1.788L-.21 4.106A1.236 1.236 31.717 0 1-2 3v-6A1.236 1.236 148.283 0 1-.211-4.106" style="fill:context-stroke;fill-rule:evenodd;stroke:none" transform="scale(.7)"/></marker><marker id="q" markerHeight="1" markerWidth="1" orient="auto-start-reverse" preserveAspectRatio="xMidYMid" refX="0" refY="0" style="overflow:visible" viewBox="0 0 1 1"><path d="M-.211-4.106 6.21-.894a1 1 90 0 1 0 1.788L-.21 4.106A1.236 1.236 31.717 0 1-2 3v-6A1.236 1.236 148.283 0 1-.211-4.106" style="fill:context-stroke;fill-rule:evenodd;stroke:none" transform="scale(.7)"/></marker></defs><g transform="translate(-3.138 -25.253)"><path d="M3.271 25.386h144.684v89.029H3.271z" style="fill:#fff;stroke:#fff;stroke-width:.264583;stroke-linejoin:bevel"/><circle cx="79.375" cy="57.185" r="4.593" style="fill:#d45500;stroke:#fff;stroke-width:.264583;stroke-linejoin:bevel"/><circle cx="79.375" cy="57.185" r="2.6" style="fill:#fff;stroke:#d45500;stroke-width:.264583;stroke-linejoin:bevel"/><path d="M78.534 59.785h1.682v18.018h-1.682z" style="fill:#d45500;stroke:#d45500;stroke-width:.264583;stroke-linejoin:bevel"/><path d="M78.067-124.709h1.682v90.667h-1.682z" style="fill:#d45500;stroke:#d45500;stroke-width:.264583;stroke-linejoin:bevel" transform="rotate(90)"/><path d="M78.678 32.604h1.682v18.018h-1.682z" style="fill:#d45500;stroke:#d45500;stroke-width:.264583;stroke-linejoin:bevel" transform="rotate(43.931)"/><path d="M-35.649 142.744h1.682v18.018h-1.682z" style="fill:#d45500;stroke:#d45500;stroke-width:.264583;stroke-linejoin:bevel" transform="scale(-1 1)rotate(43.931)"/><path d="M74.313 48.514h10.529v10.529H74.313z" style="fill:#d45500;stroke:#d45500;stroke-width:.264583;stroke-linejoin:bevel" transform="rotate(43.998)"/><path d="M76.327 50.528h6.501v6.501h-6.501z" style="fill:#f9f9f9;stroke:#d45500;stroke-width:.264583;stroke-linejoin:bevel" transform="rotate(43.998)"/><path d="M159.9-34.243h10.529v10.529H159.9z" style="fill:#d45500;stroke:#d45500;stroke-width:.264583;stroke-linejoin:bevel" transform="rotate(43.998)"/><path d="M161.914-32.229h6.501v6.501h-6.501z" style="fill:#f9f9f9;stroke:#d45500;stroke-width:.264583;stroke-linejoin:bevel" transform="rotate(43.998)"/><path d="M79.375 57.185h31.158M34.004 77.842l42.543-44.027" style="fill:none;stroke:#b3b3b3;stroke-width:.264583px;stroke-linecap:butt;stroke-linejoin:miter;stroke-opacity:1"/><path d="m79.374 57.184 10.264-10.627" style="fill:none;stroke:#b3b3b3;stroke-width:.264584px;stroke-linecap:butt;stroke-linejoin:miter;stroke-opacity:1"/><path d="M88.806 45.513 77.564 34.68" style="fill:#000;stroke:#000;stroke-width:.264582px;stroke-linecap:butt;stroke-linejoin:miter;stroke-opacity:1;marker-start:url(#a);marker-end:url(#a)"/><path d="m31.651 110.878 5.485-5.72" style="fill:#000;stroke:#000;stroke-width:.264582px;stroke-linecap:butt;stroke-linejoin:miter;stroke-opacity:1;marker-start:url(#b);marker-end:url(#b)"/><path d="M110.533 76.846v-18.43" style="fill:#000;stroke:#000;stroke-width:.264583px;stroke-linecap:butt;stroke-linejoin:miter;stroke-opacity:1;marker-start:url(#a);marker-end:url(#a)"/><path d="M88.167 50.234s1.61 1.188 1.958 2.073c.44 1.115-.02 3.596-.02 3.596" style="fill:none;stroke:#000;stroke-width:.264583px;stroke-linecap:butt;stroke-linejoin:miter;stroke-opacity:1;marker-start:url(#a);marker-end:url(#a)"/><text xml:space="preserve" style="font-size:14.6667px;line-height:1.25;font-family:sans-serif;white-space:pre;shape-inside:url(#c);display:inline" transform="matrix(.26458 0 0 .26458 -3.927 25.255)"><tspan x="356.635" y="105.984">45°</tspan></text><text xml:space="preserve" style="font-size:14.6667px;line-height:1.25;font-family:sans-serif;white-space:pre;shape-inside:url(#d);display:inline" transform="matrix(.26458 0 0 .26458 43.205 2.577)"><tspan x="259.938" y="251.541">L1</tspan></text><text xml:space="preserve" style="font-size:14.6667px;line-height:1.25;font-family:sans-serif;white-space:pre;shape-inside:url(#e);display:inline" transform="matrix(.26458 0 0 .26458 -18.387 -32.782)"><tspan x="384.473" y="268.344">L2</tspan></text><text xml:space="preserve" style="font-size:14.6667px;line-height:1.25;font-family:sans-serif;white-space:pre;shape-inside:url(#f);display:inline" transform="matrix(.26458 0 0 .26458 -4.447 -13)"><tspan x="282.238" y="272.504">E1</tspan></text><text xml:space="preserve" style="font-size:14.6667px;line-height:1.25;font-family:sans-serif;white-space:pre;shape-inside:url(#g);display:inline" transform="matrix(.26458 0 0 .26458 12.824 4.022)"><tspan x="258.305" y="276.018">E2</tspan></text><path d="m70.881 63.358 3.53-3.042" style="fill:none;stroke:#000;stroke-width:.264583px;stroke-linecap:butt;stroke-linejoin:miter;stroke-opacity:1;marker-end:url(#a)"/><text xml:space="preserve" style="font-size:14.6667px;line-height:1.25;font-family:sans-serif;white-space:pre;shape-inside:url(#h);display:inline" transform="matrix(.26458 0 0 .26458 1.754 -5.837)"><tspan x="241.859" y="268.193">D1</tspan></text><path d="m73.447 73.702 3.529 3.042" style="fill:none;stroke:#000;stroke-width:.264583px;stroke-linecap:butt;stroke-linejoin:miter;stroke-opacity:1;marker-end:url(#i)"/><text xml:space="preserve" style="font-size:14.6667px;line-height:1.25;font-family:sans-serif;white-space:pre;shape-inside:url(#j);display:inline" transform="matrix(.26458 0 0 .26458 2.906 6.275)"><tspan x="245.594" y="257.85">R2</tspan></text><path d="m39.968 84.418-3.53-3.043" style="fill:none;stroke:#000;stroke-width:.264583px;stroke-linecap:butt;stroke-linejoin:miter;stroke-opacity:1;marker-end:url(#k)"/><text xml:space="preserve" style="font-size:14.6667px;line-height:1.25;font-family:sans-serif;white-space:pre;shape-inside:url(#l);display:inline" transform="matrix(.26458 0 0 .26458 -24.345 18.59)"><tspan x="245.594" y="257.85">R2</tspan></text><path d="m28.713 73.634 3.528 3.042" style="fill:none;stroke:#000;stroke-width:.264583px;stroke-linecap:butt;stroke-linejoin:miter;stroke-opacity:1;marker-end:url(#m)"/><text xml:space="preserve" style="font-size:14.6667px;line-height:1.25;font-family:sans-serif;white-space:pre;shape-inside:url(#n);display:inline" transform="matrix(.26458 0 0 .26458 -39.489 -1.417)"><tspan x="229.391" y="280.49">R2+E2</tspan></text><path d="m30.645 111.672-10.627-10.264M37.959 104.098 27.333 93.834" style="fill:none;stroke:#b3b3b3;stroke-width:.264584px;stroke-linecap:butt;stroke-linejoin:miter;stroke-opacity:1"/><text xml:space="preserve" style="font-size:14.6667px;line-height:1.25;font-family:sans-serif;white-space:pre;shape-inside:url(#o);display:inline" transform="matrix(.26458 0 0 .26458 -17.383 26.861)"><tspan x="200.475" y="321.143">L3</tspan></text><text xml:space="preserve" style="font-size:14.6667px;line-height:1.25;font-family:sans-serif;white-space:pre;shape-inside:url(#p);display:inline" transform="matrix(.26458 0 0 .26458 -33.938 21.052)"><tspan x="217.928" y="302.895">E3</tspan></text><path d="M19.797 86.329 4.901 71.939" style="fill:none;stroke:#b3b3b3;stroke-width:.264584px;stroke-linecap:butt;stroke-linejoin:miter;stroke-opacity:1"/><path d="M79.285 57.148 48.372 27.279" style="fill:none;stroke:#b3b3b3;stroke-width:.264583px;stroke-linecap:butt;stroke-linejoin:miter;stroke-opacity:1"/><path d="M47.353 27.892 5.735 70.89" style="fill:#000;stroke:#000;stroke-width:.264582px;stroke-linecap:butt;stroke-linejoin:miter;stroke-opacity:1;marker-start:url(#q);marker-end:url(#q)"/><text xml:space="preserve" style="font-size:14.6667px;line-height:1.25;font-family:sans-serif;white-space:pre;shape-inside:url(#r);display:inline" transform="matrix(.26458 0 0 .26458 8.844 23.603)"><tspan x="52.191" y="92.889">L4</tspan></text></g></svg>