<svg xmlns="http://www.w3.org/2000/svg" width="365.865" height="299.28" viewBox="0 0 96.802 79.184"><defs><path id="g" d="M443.777 583.586H490.7v46.31h-46.923z"/><path id="f" d="M289.628 519.072h66.666v40.124h-66.666z"/><path id="d" d="M241.004 802.854H310.6v73.609h-69.596z"/><path id="e" d="M241.004 802.854H310.6v73.609h-69.596z"/><marker id="a" markerHeight="1" markerWidth="1" orient="auto-start-reverse" preserveAspectRatio="xMidYMid" refX="0" refY="0" style="overflow:visible" viewBox="0 0 1 1"><path d="M-.211-4.106 6.21-.894a1 1 90 0 1 0 1.788L-.21 4.106A1.236 1.236 31.717 0 1-2 3v-6A1.236 1.236 148.283 0 1-.211-4.106z" style="fill:context-stroke;fill-rule:evenodd;stroke:none" transform="scale(.7)"/></marker><marker id="b" markerHeight="1" markerWidth="1" orient="auto-start-reverse" preserveAspectRatio="xMidYMid" refX="0" refY="0" style="overflow:visible" viewBox="0 0 1 1"><path d="M-.211-4.106 6.21-.894a1 1 90 0 1 0 1.788L-.21 4.106A1.236 1.236 31.717 0 1-2 3v-6A1.236 1.236 148.283 0 1-.211-4.106z" style="fill:context-stroke;fill-rule:evenodd;stroke:none" transform="scale(.7)"/></marker><marker id="c" markerHeight="1" markerWidth="1" orient="auto-start-reverse" preserveAspectRatio="xMidYMid" refX="0" refY="0" style="overflow:visible" viewBox="0 0 1 1"><path d="M-.211-4.106 6.21-.894a1 1 90 0 1 0 1.788L-.21 4.106A1.236 1.236 31.717 0 1-2 3v-6A1.236 1.236 148.283 0 1-.211-4.106z" style="fill:context-stroke;fill-rule:evenodd;stroke:none" transform="scale(.7)"/></marker></defs><path d="M25.454 131.914h96.537v78.92H25.454z" style="fill:#fff;stroke:#fff;stroke-width:.264583;stroke-linejoin:bevel" transform="translate(-25.322 -131.782)"/><path d="M33.728 205.914v-11.943" style="fill:none;stroke:#b3b3b3;stroke-width:.264583px;stroke-linecap:butt;stroke-linejoin:miter;stroke-opacity:1" transform="translate(-25.322 -131.782)"/><path d="M158.922-112.955h4.652v79.226h-4.652zM186.593-112.955h7.246v79.226h-7.246z" style="fill:#ff7f2a;stroke:#ff7f2a;stroke-width:.264583;stroke-linejoin:bevel" transform="rotate(90 53.23 -78.552)"/><path d="M-37.075-186.593h3.346v22.886h-3.346zM-56.045-186.593h3.346v22.886h-3.346zM-75.015-186.593h3.346v22.886h-3.346zM-93.985-186.593h3.346v22.886h-3.346zM-112.955-186.593h3.346v22.886h-3.346z" style="fill:#d45500;stroke:none;stroke-width:.264583;stroke-linejoin:bevel" transform="rotate(180 -12.66 -65.89)"/><path d="M113.087 205.914v-11.943" style="fill:none;stroke:#b3b3b3;stroke-width:.264583px;stroke-linecap:butt;stroke-linejoin:miter;stroke-opacity:1" transform="translate(-25.322 -131.782)"/><path d="M35.078 206.046h76.904" style="fill:none;stroke:#000;stroke-width:.264583px;stroke-linecap:butt;stroke-linejoin:miter;stroke-opacity:1;marker-start:url(#a);marker-end:url(#a)" transform="translate(-25.322 -131.782)"/><path d="M33.86 163.707v-22.658M37.207 163.707v-22.658" style="fill:none;stroke:#b3b3b3;stroke-width:.264582px;stroke-linecap:butt;stroke-linejoin:miter;stroke-opacity:1" transform="translate(-25.322 -131.782)"/><path d="M28.875 141.049h3.715" style="fill:none;stroke:#000;stroke-width:.264583px;stroke-linecap:butt;stroke-linejoin:miter;stroke-opacity:1;marker-end:url(#b)" transform="translate(-25.322 -131.782)"/><path d="M42.307 141.049h-3.715" style="fill:none;stroke:#000;stroke-width:.264583px;stroke-linecap:butt;stroke-linejoin:miter;stroke-opacity:1;marker-end:url(#c)" transform="translate(-25.322 -131.782)"/><text xml:space="preserve" style="font-size:14.6667px;line-height:1.25;font-family:sans-serif;white-space:pre;shape-inside:url(#d);display:inline" transform="matrix(.26458 0 0 .26458 -17.44 -143.096)"><tspan x="241.004" y="815.83">L5</tspan></text><text xml:space="preserve" style="font-size:14.6667px;line-height:1.25;font-family:sans-serif;white-space:pre;shape-inside:url(#e);display:inline" transform="matrix(.26458 0 0 .26458 -55.59 -209.503)"><tspan x="241.004" y="815.83">L6</tspan></text><text xml:space="preserve" style="font-size:14.6667px;line-height:1.25;font-family:sans-serif;white-space:pre;shape-inside:url(#f);display:inline" transform="matrix(.26458 0 0 .26458 -21.209 -121.334)"><tspan x="289.629" y="532.049">N1</tspan></text><path d="m82.56 152.467-6.264 14.023" style="fill:none;stroke:#000;stroke-width:.264583px;stroke-linecap:butt;stroke-linejoin:miter;stroke-opacity:1;marker-end:url(#a)" transform="translate(-25.322 -131.782)"/><path d="m83.307 152.246 6.173 13.414" style="fill:none;stroke:#000;stroke-width:.264583px;stroke-linecap:butt;stroke-linejoin:miter;stroke-opacity:1;marker-end:url(#a)" transform="translate(-25.322 -131.782)"/><text xml:space="preserve" style="font-size:14.6667px;line-height:1.25;font-family:sans-serif;white-space:pre;shape-inside:url(#g);display:inline" transform="matrix(.26458 0 0 .26458 -28.366 -126.773)"><tspan x="443.777" y="596.563">D1</tspan></text></svg>