<svg xmlns="http://www.w3.org/2000/svg" width="225.524" height="190.598" viewBox="0 0 59.67 50.429"><defs><marker id="e" markerHeight="1" markerWidth="1" orient="auto-start-reverse" preserveAspectRatio="xMidYMid" refX="0" refY="0" style="overflow:visible" viewBox="0 0 1 1"><path d="M-.211-4.106 6.21-.894a1 1 90 0 1 0 1.788L-.21 4.106A1.236 1.236 31.717 0 1-2 3v-6A1.236 1.236 148.283 0 1-.211-4.106z" style="fill:context-stroke;fill-rule:evenodd;stroke:none" transform="scale(.7)"/></marker><marker id="b" markerHeight="1" markerWidth="1" orient="auto-start-reverse" preserveAspectRatio="xMidYMid" refX="0" refY="0" style="overflow:visible" viewBox="0 0 1 1"><path d="M3-3 0 0l3 3" style="fill:none;stroke:context-stroke;stroke-width:1;stroke-linecap:butt" transform="rotate(180 .125 0)"/></marker><marker id="c" markerHeight="1" markerWidth="1" orient="auto-start-reverse" preserveAspectRatio="xMidYMid" refX="0" refY="0" style="overflow:visible" viewBox="0 0 1 1"><path d="M3-3 0 0l3 3" style="fill:none;stroke:context-stroke;stroke-width:1;stroke-linecap:butt" transform="rotate(180 .125 0)"/></marker><marker id="f" markerHeight="1" markerWidth="1" orient="auto-start-reverse" preserveAspectRatio="xMidYMid" refX="0" refY="0" style="overflow:visible" viewBox="0 0 1 1"><path d="M-.211-4.106 6.21-.894a1 1 90 0 1 0 1.788L-.21 4.106A1.236 1.236 31.717 0 1-2 3v-6A1.236 1.236 148.283 0 1-.211-4.106z" style="fill:context-stroke;fill-rule:evenodd;stroke:none" transform="scale(.7)"/></marker><marker id="i" markerHeight="1" markerWidth="1" orient="auto-start-reverse" preserveAspectRatio="xMidYMid" refX="0" refY="0" style="overflow:visible" viewBox="0 0 1 1"><path d="M-.211-4.106 6.21-.894a1 1 90 0 1 0 1.788L-.21 4.106A1.236 1.236 31.717 0 1-2 3v-6A1.236 1.236 148.283 0 1-.211-4.106z" style="fill:context-stroke;fill-rule:evenodd;stroke:none" transform="scale(.7)"/></marker><marker id="j" markerHeight="1" markerWidth="1" orient="auto-start-reverse" preserveAspectRatio="xMidYMid" refX="0" refY="0" style="overflow:visible" viewBox="0 0 1 1"><path d="M-.211-4.106 6.21-.894a1 1 90 0 1 0 1.788L-.21 4.106A1.236 1.236 31.717 0 1-2 3v-6A1.236 1.236 148.283 0 1-.211-4.106z" style="fill:context-stroke;fill-rule:evenodd;stroke:none" transform="scale(.7)"/></marker><marker id="k" markerHeight="1" markerWidth="1" orient="auto-start-reverse" preserveAspectRatio="xMidYMid" refX="0" refY="0" style="overflow:visible" viewBox="0 0 1 1"><path d="M-.211-4.106 6.21-.894a1 1 90 0 1 0 1.788L-.21 4.106A1.236 1.236 31.717 0 1-2 3v-6A1.236 1.236 148.283 0 1-.211-4.106z" style="fill:context-stroke;fill-rule:evenodd;stroke:none" transform="scale(.7)"/></marker><path id="m" d="M216.732 664.121h84.323v34.208h-84.323z"/><path id="l" d="M229.337 725.18h48.674v32.593h-48.674z"/><path id="h" d="M194.459 765.617h47.612v26.077h-47.612z"/><path id="g" d="M138.166 764.629h56.084v30.463h-56.084z"/><path id="d" d="M136.937 761.209h45.678v20.556h-45.678z"/><path id="a" d="M71.691 761.379h40.146v20.284H71.691z"/></defs><path d="M13.889 143.227h59.405v50.165H13.889z" style="fill:#fff;stroke:#fff;stroke-width:.264583" transform="translate(-13.757 -143.095)"/><path d="M31.246-173.415h5.292v8.467h-5.292zM31.246-182.675h5.292v8.467h-5.292zM38.39-173.415h5.292v8.467H38.39zM38.39-182.675h5.292v8.467H38.39zM45.533-173.415h5.292v8.467h-5.292zM45.533-182.675h5.292v8.467h-5.292z" style="fill:#00f;stroke:#fff;stroke-width:.264583" transform="matrix(1 0 0 -1 -13.757 -143.095)"/><text xml:space="preserve" style="font-size:14.6667px;line-height:1.25;font-family:sans-serif;white-space:pre;shape-inside:url(#a);display:inline" transform="matrix(.26458 0 0 .26458 -7.764 -157.363)"><tspan x="71.691" y="774.356">nx</tspan></text><path d="M24.356 187.183h6.875" style="fill:none;stroke:#000;stroke-width:.264583px;stroke-linecap:butt;stroke-linejoin:miter;stroke-opacity:1;marker-end:url(#b)" transform="translate(-13.757 -143.095)"/><path d="M20.629 182.433v-6.874" style="fill:none;stroke:#000;stroke-width:.264583px;stroke-linecap:butt;stroke-linejoin:miter;stroke-opacity:1;marker-end:url(#c)" transform="translate(-13.757 -143.095)"/><text xml:space="preserve" style="font-size:14.6667px;line-height:1.25;font-family:sans-serif;white-space:pre;shape-inside:url(#d);display:inline" transform="matrix(.26458 0 0 .26458 -34.888 -167.418)"><tspan x="136.938" y="774.186">ny</tspan></text><path d="M51.753 175.944v5.296" style="fill:none;stroke:#000;stroke-width:.264583px;stroke-linecap:butt;stroke-linejoin:miter;stroke-opacity:1;marker-start:url(#e);marker-end:url(#e)" transform="translate(-13.757 -143.095)"/><path d="M49.36 183.459h-2.476" style="fill:none;stroke:#000;stroke-width:.264583px;stroke-linecap:butt;stroke-linejoin:miter;stroke-opacity:1;marker-start:url(#f);marker-end:url(#f)" transform="translate(-13.757 -143.095)"/><text xml:space="preserve" style="font-size:14.6667px;line-height:1.25;font-family:sans-serif;white-space:pre;shape-inside:url(#g);display:inline" transform="matrix(.26458 0 0 .26458 -4.207 -161.126)"><tspan x="138.166" y="777.606">LH</tspan></text><text xml:space="preserve" style="font-size:14.6667px;line-height:1.25;font-family:sans-serif;white-space:pre;shape-inside:url(#h);display:inline" transform="matrix(.26458 0 0 .26458 -12.293 -168.944)"><tspan x="194.459" y="778.594">LV</tspan></text><path d="M31.246-164.154h5.292v8.467h-5.292zM38.39-164.154h5.292v8.467H38.39zM45.533-164.154h5.292v8.467h-5.292zM24.102-173.415h5.292v8.467h-5.292zM24.102-182.675h5.292v8.467h-5.292zM24.102-164.154h5.292v8.467h-5.292z" style="fill:#00f;stroke:#fff;stroke-width:.264583" transform="matrix(1 0 0 -1 -13.757 -143.095)"/><path d="M50.879 163.9h14.237M50.846 165.232h14.238" style="fill:none;stroke:#b3b3b3;stroke-width:.264583px;stroke-linecap:butt;stroke-linejoin:miter;stroke-opacity:1" transform="translate(-13.757 -143.095)"/><path d="M65 166.69v3.965" style="fill:none;stroke:#000;stroke-width:.264583px;stroke-linecap:butt;stroke-linejoin:miter;stroke-opacity:1;marker-start:url(#e)" transform="translate(-13.757 -143.095)"/><path d="M64.948 162.396v-3.964" style="fill:none;stroke:#000;stroke-width:.264583px;stroke-linecap:butt;stroke-linejoin:miter;stroke-opacity:1;marker-start:url(#i)" transform="translate(-13.757 -143.095)"/><path d="M43.347 155.733v-6.893M45.835 155.741v-6.892" style="fill:none;stroke:#b3b3b3;stroke-width:.264583px;stroke-linecap:butt;stroke-linejoin:miter;stroke-opacity:1" transform="translate(-13.757 -143.095)"/><path d="M41.926 149.02h-3.964" style="fill:none;stroke:#000;stroke-width:.264583px;stroke-linecap:butt;stroke-linejoin:miter;stroke-opacity:1;marker-start:url(#j)" transform="translate(-13.757 -143.095)"/><path d="M47.24 148.973h3.964" style="fill:none;stroke:#000;stroke-width:.264583px;stroke-linecap:butt;stroke-linejoin:miter;stroke-opacity:1;marker-start:url(#k)" transform="translate(-13.757 -143.095)"/><text xml:space="preserve" style="font-size:14.6667px;line-height:1.25;font-family:sans-serif;white-space:pre;shape-inside:url(#l);display:inline" transform="matrix(.26458 0 0 .26458 -8.347 -172.58)"><tspan x="229.336" y="738.156">EV</tspan></text><text xml:space="preserve" style="font-size:14.6667px;line-height:1.25;font-family:sans-serif;white-space:pre;shape-inside:url(#m);display:inline" transform="matrix(.26458 0 0 .26458 -28.982 -174.574)"><tspan x="216.732" y="677.098">EH</tspan></text></svg>