<svg xmlns="http://www.w3.org/2000/svg" width="171.298" height="190.593" viewBox="0 0 45.323 50.428"><defs><path id="c" d="M181.372 1204.575h110.607v33.983H181.372z"/><path id="b" d="M179.615 1157.229h115.524v29.327H179.615z"/><path id="a" d="M182.173 1110.209h105.333v31.541H182.173z"/><path id="d" d="M181.372 1204.575h110.607v33.983H181.372z"/></defs><path d="M22.44 290.846h45.058v50.163H22.44z" style="fill:#fff;stroke:#fff;stroke-width:.264583" transform="translate(-22.307301,-290.71368)"/><path d="M25.607 297.55s1.537 3.425 2.893 3.337c1.34-.087 1.88-2.28 2.525-3.648.854-1.807 1.72-4.049 3.345-4.133 1.571-.082 2.583 1.724 3.527 3.645.787 1.603 1.66 4.067 3.246 4.052 1.597-.014 3.211-4.135 3.211-4.135M25.457 308.732l3.943 4.112 5.054-6.962 5.255 7.068 4.234-4.956" style="fill:none;stroke:#ff8080;stroke-width:.264583px;stroke-linecap:butt;stroke-linejoin:miter;stroke-opacity:1" transform="translate(-22.307301,-290.71368)"/><text xml:space="preserve" style="font-size:14.6667px;line-height:1.25;font-family:sans-serif;white-space:pre;shape-inside:url(#a)" transform="translate(-22.307301,-290.71368) matrix(0.26458333,0,0,0.26458333,-2.5073288,0.87697813)"><tspan x="182.174" y="1123.186">sinusoid</tspan></text><text xml:space="preserve" style="font-size:14.6667px;line-height:1.25;font-family:sans-serif;white-space:pre;shape-inside:url(#b)" transform="translate(-22.307301,-290.71368) matrix(0.26458333,0,0,0.26458333,-1.8237002,0.71539319)"><tspan x="179.615" y="1170.205">triangle</tspan></text><path d="m25.169 319.993 5.984-4.128-.027 9.701 10.548-9.19" style="fill:none;stroke:#ff8080;stroke-width:.264583px;stroke-linecap:butt;stroke-linejoin:miter;stroke-opacity:1" transform="translate(-22.307301,-290.71368)"/><text xml:space="preserve" style="font-size:14.6667px;line-height:1.25;font-family:sans-serif;white-space:pre;shape-inside:url(#c)" transform="translate(-22.307301,-290.71368) matrix(0.26458333,0,0,0.26458333,-2.1392742,-0.29831067)"><tspan x="181.371" y="1217.551">sawUp</tspan></text><path d="m25.297 334.407 5.984 4.128-.027-9.7 10.548 9.19" style="fill:none;stroke:#ff8080;stroke-width:.264583px;stroke-linecap:butt;stroke-linejoin:miter;stroke-opacity:1" transform="translate(-22.307301,-290.71368)"/><text xml:space="preserve" style="font-size:14.6667px;line-height:1.25;font-family:sans-serif;white-space:pre;shape-inside:url(#d);display:inline" transform="translate(-22.307301,-290.71368) matrix(0.26458333,0,0,0.26458333,-1.6570456,11.511953)"><tspan x="181.371" y="1217.551">sawDown</tspan></text></svg>