<svg xmlns="http://www.w3.org/2000/svg" width="600" height="3000" viewBox="0 0 158.75 793.75"><defs><path id="N" d="M94.277 1567.491h179.534v49.04H94.277z"/><path id="J" d="M125.831 1348.826h118.366v43.52H125.831z"/><path id="G" d="M181.372 1204.575h110.607v33.983H181.372z"/><path id="F" d="M179.615 1157.229h115.524v29.327H179.615z"/><path id="E" d="M182.173 1110.209h105.333v31.541H182.173z"/><path id="D" d="M115.161 998.584h102.772v33.6H115.161z"/><path id="C" d="M120.684 998.897h135.884v39.871H120.684z"/><path id="B" d="M26.877 933.433h80.93v47.082h-80.93z"/><path id="A" d="M220.345 984.746h54.818v31.405h-54.818z"/><path id="z" d="M102.18 996.668h51.874v22.816H102.18z"/><path id="y" d="M73.962 971.311h35.93v25.546h-35.93z"/><path id="w" d="M69.311 948.936h90.101v36.711H69.311z"/><path id="v" d="M35.241 948.774h107.976v36.648H35.241z"/><path id="t" d="M216.732 664.121h84.323v34.208h-84.323z"/><path id="s" d="M229.337 725.18h48.674v32.593h-48.674z"/><path id="r" d="M233.895 726.623h66.219v32.881h-66.219z"/><path id="n" d="M194.459 765.617h47.612v26.077h-47.612z"/><path id="m" d="M138.166 764.629h56.084v30.463h-56.084z"/><path id="j" d="M136.937 761.209h45.678v20.556h-45.678z"/><path id="g" d="M71.691 761.379h40.146v20.284H71.691z"/><path id="f" d="M93.906 604.032h76.781v19.286H93.906z"/><path id="d" d="M60 425.68h128.884v18.163H60z"/><path id="b" d="M71.751 210.976h100.371v30.102H71.751z"/><path id="a" d="M9.943 12.667H293.91v38.652H9.943z"/><path id="c" d="M71.751 210.976h100.371v30.102H71.751z"/><path id="e" d="M60 425.68h161.992v19.163H60z"/><path id="H" d="M181.372 1204.575h110.607v33.983H181.372z"/><path id="I" d="M71.751 210.976h108.994v55.632H71.751z"/><marker id="k" markerHeight="1" markerWidth="1" orient="auto-start-reverse" preserveAspectRatio="xMidYMid" refX="0" refY="0" style="overflow:visible" viewBox="0 0 1 1"><path d="M-.211-4.106 6.21-.894a1 1 90 0 1 0 1.788L-.21 4.106A1.236 1.236 31.717 0 1-2 3v-6A1.236 1.236 148.283 0 1-.211-4.106z" style="fill:context-stroke;fill-rule:evenodd;stroke:none" transform="scale(.7)"/></marker><marker id="h" markerHeight="1" markerWidth="1" orient="auto-start-reverse" preserveAspectRatio="xMidYMid" refX="0" refY="0" style="overflow:visible" viewBox="0 0 1 1"><path d="M3-3 0 0l3 3" style="fill:none;stroke:context-stroke;stroke-width:1;stroke-linecap:butt" transform="rotate(180 .125 0)"/></marker><marker id="i" markerHeight="1" markerWidth="1" orient="auto-start-reverse" preserveAspectRatio="xMidYMid" refX="0" refY="0" style="overflow:visible" viewBox="0 0 1 1"><path d="M3-3 0 0l3 3" style="fill:none;stroke:context-stroke;stroke-width:1;stroke-linecap:butt" transform="rotate(180 .125 0)"/></marker><marker id="l" markerHeight="1" markerWidth="1" orient="auto-start-reverse" preserveAspectRatio="xMidYMid" refX="0" refY="0" style="overflow:visible" viewBox="0 0 1 1"><path d="M-.211-4.106 6.21-.894a1 1 90 0 1 0 1.788L-.21 4.106A1.236 1.236 31.717 0 1-2 3v-6A1.236 1.236 148.283 0 1-.211-4.106z" style="fill:context-stroke;fill-rule:evenodd;stroke:none" transform="scale(.7)"/></marker><marker id="o" markerHeight="1" markerWidth="1" orient="auto-start-reverse" preserveAspectRatio="xMidYMid" refX="0" refY="0" style="overflow:visible" viewBox="0 0 1 1"><path d="M-.211-4.106 6.21-.894a1 1 90 0 1 0 1.788L-.21 4.106A1.236 1.236 31.717 0 1-2 3v-6A1.236 1.236 148.283 0 1-.211-4.106z" style="fill:context-stroke;fill-rule:evenodd;stroke:none" transform="scale(.7)"/></marker><marker id="p" markerHeight="1" markerWidth="1" orient="auto-start-reverse" preserveAspectRatio="xMidYMid" refX="0" refY="0" style="overflow:visible" viewBox="0 0 1 1"><path d="M-.211-4.106 6.21-.894a1 1 90 0 1 0 1.788L-.21 4.106A1.236 1.236 31.717 0 1-2 3v-6A1.236 1.236 148.283 0 1-.211-4.106z" style="fill:context-stroke;fill-rule:evenodd;stroke:none" transform="scale(.7)"/></marker><marker id="q" markerHeight="1" markerWidth="1" orient="auto-start-reverse" preserveAspectRatio="xMidYMid" refX="0" refY="0" style="overflow:visible" viewBox="0 0 1 1"><path d="M-.211-4.106 6.21-.894a1 1 90 0 1 0 1.788L-.21 4.106A1.236 1.236 31.717 0 1-2 3v-6A1.236 1.236 148.283 0 1-.211-4.106z" style="fill:context-stroke;fill-rule:evenodd;stroke:none" transform="scale(.7)"/></marker><marker id="u" markerHeight="1" markerWidth="1" orient="auto-start-reverse" preserveAspectRatio="xMidYMid" refX="0" refY="0" style="overflow:visible" viewBox="0 0 1 1"><path d="M3-3 0 0l3 3" style="fill:none;stroke:context-stroke;stroke-width:1;stroke-linecap:butt" transform="rotate(180 .125 0)"/></marker><marker id="x" markerHeight="1" markerWidth="1" orient="auto-start-reverse" preserveAspectRatio="xMidYMid" refX="0" refY="0" style="overflow:visible" viewBox="0 0 1 1"><path d="M-.211-4.106 6.21-.894a1 1 90 0 1 0 1.788L-.21 4.106A1.236 1.236 31.717 0 1-2 3v-6A1.236 1.236 148.283 0 1-.211-4.106z" style="fill:context-stroke;fill-rule:evenodd;stroke:none" transform="scale(.7)"/></marker><marker id="K" markerHeight="1" markerWidth="1" orient="auto-start-reverse" preserveAspectRatio="xMidYMid" refX="0" refY="0" style="overflow:visible" viewBox="0 0 1 1"><path d="M-.211-4.106 6.21-.894a1 1 90 0 1 0 1.788L-.21 4.106A1.236 1.236 31.717 0 1-2 3v-6A1.236 1.236 148.283 0 1-.211-4.106z" style="fill:context-stroke;fill-rule:evenodd;stroke:none" transform="scale(.7)"/></marker><marker id="L" markerHeight="1" markerWidth="1" orient="auto-start-reverse" preserveAspectRatio="xMidYMid" refX="0" refY="0" style="overflow:visible" viewBox="0 0 1 1"><path d="M-.211-4.106 6.21-.894a1 1 90 0 1 0 1.788L-.21 4.106A1.236 1.236 31.717 0 1-2 3v-6A1.236 1.236 148.283 0 1-.211-4.106z" style="fill:context-stroke;fill-rule:evenodd;stroke:none" transform="scale(.7)"/></marker><marker id="M" markerHeight="1" markerWidth="1" orient="auto-start-reverse" preserveAspectRatio="xMidYMid" refX="0" refY="0" style="overflow:visible" viewBox="0 0 1 1"><path d="M3-3 0 0l3 3" style="fill:none;stroke:context-stroke;stroke-width:1;stroke-linecap:butt" transform="rotate(180 .125 0)"/></marker></defs><path d="M24.778 356.246h38.281v67.221H24.778zM22.44 290.846h45.058v50.163H22.44zM14.831 212.347H85.23v59.107H14.831zM13.889 143.227h59.405v50.165H13.889zM13.3 23.409h45.113v97.88H13.3z" style="fill:#fff;stroke:#fff;stroke-width:.264583"/><path d="M33.44 166.928h2.646v4.233H33.44z" style="fill:#00f;stroke:#fff;stroke-width:.264583" transform="rotate(-40.86)"/><text xml:space="preserve" style="font-size:14.6667px;line-height:1.25;font-family:sans-serif;white-space:pre;shape-inside:url(#a);display:inline" transform="scale(.26458)"><tspan x="9.943" y="25.645">photovoltaic_surface.svg</tspan></text><path d="M16.79-31.158h2.646v4.233H16.79z" style="fill:#00f;stroke:#fff;stroke-width:.264583" transform="scale(1 -1)"/><path d="M16.79 36.128h2.646v4.233H16.79zM16.79 40.73h2.646v4.233H16.79zM16.79 45.331h2.646v4.233H16.79z" style="fill:#00f;stroke:#fff;stroke-width:.264583"/><text xml:space="preserve" style="font-size:14.6667px;line-height:1.25;font-family:sans-serif;white-space:pre;shape-inside:url(#b);display:inline" transform="matrix(.26458 0 0 .26458 6.96 -5.074)"><tspan x="71.752" y="223.953">regular</tspan></text><text xml:space="preserve" style="font-size:14.6667px;line-height:1.25;font-family:sans-serif;white-space:pre;shape-inside:url(#c);display:inline" transform="matrix(.26458 0 0 .26458 95.02 -7.219)"><tspan x="71.752" y="223.953">regular eg-2</tspan></text><path d="M27.314-116.087h2.646v4.233h-2.646zM30.224-116.087h2.646v4.233h-2.646zM33.134-116.087h2.646v4.233h-2.646zM36.045-116.087h2.646v4.233h-2.646zM38.955-116.087h2.646v4.233h-2.646zM41.866-116.087h2.646v4.233h-2.646zM27.314-120.585h2.646v4.233h-2.646zM30.224-120.585h2.646v4.233h-2.646zM33.134-120.585h2.646v4.233h-2.646zM36.045-120.585h2.646v4.233h-2.646zM38.955-120.585h2.646v4.233h-2.646zM41.866-120.585h2.646v4.233h-2.646zM27.314-125.082h2.646v4.233h-2.646zM30.224-125.082h2.646v4.233h-2.646zM33.134-125.082h2.646v4.233h-2.646zM36.045-125.082h2.646v4.233h-2.646zM38.955-125.082h2.646v4.233h-2.646zM41.866-125.082h2.646v4.233h-2.646zM27.314-129.58h2.646v4.233h-2.646zM30.224-129.58h2.646v4.233h-2.646zM33.134-129.58h2.646v4.233h-2.646zM36.045-129.58h2.646v4.233h-2.646zM38.955-129.58h2.646v4.233h-2.646zM41.866-129.58h2.646v4.233h-2.646zM27.314-134.078h2.646v4.233h-2.646zM30.224-134.078h2.646v4.233h-2.646zM33.134-134.078h2.646v4.233h-2.646zM36.045-134.078h2.646v4.233h-2.646zM38.955-134.078h2.646v4.233h-2.646zM41.866-134.078h2.646v4.233h-2.646zM27.314-138.576h2.646v4.233h-2.646zM30.224-138.576h2.646v4.233h-2.646zM33.134-138.576h2.646v4.233h-2.646zM36.045-138.576h2.646v4.233h-2.646zM38.955-138.576h2.646v4.233h-2.646zM41.866-138.576h2.646v4.233h-2.646z" style="fill:#00f;stroke:#fff;stroke-width:.264583" transform="rotate(90)"/><path d="M16.79-35.759h2.646v4.233H16.79z" style="fill:#00f;stroke:#fff;stroke-width:.264583" transform="scale(1 -1)"/><path d="M63.31-22.362h2.646v4.233H63.31zM66.22-22.362h2.646v4.233H66.22zM69.131-22.362h2.646v4.233h-2.646zM72.041-22.362h2.646v4.233h-2.646zM74.952-22.362h2.646v4.233h-2.646zM77.862-22.362h2.646v4.233h-2.646zM64.765-26.86h2.646v4.233h-2.646zM67.676-26.86h2.646v4.233h-2.646zM70.586-26.86h2.646v4.233h-2.646zM73.496-26.86h2.646v4.233h-2.646zM76.407-26.86h2.646v4.233h-2.646zM79.317-26.86h2.646v4.233h-2.646zM63.31-31.358h2.646v4.233H63.31zM66.22-31.358h2.646v4.233H66.22zM69.131-31.358h2.646v4.233h-2.646zM72.041-31.358h2.646v4.233h-2.646zM74.952-31.358h2.646v4.233h-2.646zM77.862-31.358h2.646v4.233h-2.646zM64.765-35.856h2.646v4.233h-2.646zM67.676-35.856h2.646v4.233h-2.646zM70.586-35.856h2.646v4.233h-2.646zM73.496-35.856h2.646v4.233h-2.646zM76.407-35.856h2.646v4.233h-2.646zM79.317-35.856h2.646v4.233h-2.646zM63.31-40.354h2.646v4.233H63.31zM66.22-40.354h2.646v4.233H66.22zM69.131-40.354h2.646v4.233h-2.646zM72.041-40.354h2.646v4.233h-2.646zM74.952-40.354h2.646v4.233h-2.646zM77.862-40.354h2.646v4.233h-2.646zM64.765-44.852h2.646v4.233h-2.646zM67.676-44.852h2.646v4.233h-2.646zM70.586-44.852h2.646v4.233h-2.646zM73.496-44.852h2.646v4.233h-2.646zM76.407-44.852h2.646v4.233h-2.646zM79.317-44.852h2.646v4.233h-2.646zM61.867-26.86h2.646v4.233h-2.646zM61.867-35.856h2.646v4.233h-2.646zM63.31-49.349h2.646v4.233H63.31zM66.22-49.349h2.646v4.233H66.22zM69.131-49.349h2.646v4.233h-2.646zM72.041-49.349h2.646v4.233h-2.646zM74.952-49.349h2.646v4.233h-2.646zM77.862-49.349h2.646v4.233h-2.646zM61.855-44.852h2.646v4.233h-2.646z" style="fill:#00f;stroke:#fff;stroke-width:.264583" transform="rotate(90)"/><text xml:space="preserve" style="font-size:14.6667px;line-height:1.25;font-family:sans-serif;white-space:pre;shape-inside:url(#d);display:inline" transform="matrix(.26458 0 0 .26458 3.573 -30.217)"><tspan x="60" y="438.656">crenel vertical</tspan></text><text xml:space="preserve" style="font-size:14.6667px;line-height:1.25;font-family:sans-serif;white-space:pre;shape-inside:url(#e);display:inline" transform="matrix(.26458 0 0 .26458 3.75 2.467)"><tspan x="60" y="438.656">crenel horizontal</tspan></text><path d="M19.7-31.158h2.646v4.233H19.7z" style="fill:#00f;stroke:#fff;stroke-width:.264583" transform="scale(1 -1)"/><path d="M19.7 36.128h2.646v4.233H19.7zM19.7 40.73h2.646v4.233H19.7zM19.7 45.331h2.646v4.233H19.7z" style="fill:#00f;stroke:#fff;stroke-width:.264583"/><path d="M19.7-35.759h2.646v4.233H19.7zM22.611-31.158h2.646v4.233h-2.646z" style="fill:#00f;stroke:#fff;stroke-width:.264583" transform="scale(1 -1)"/><path d="M22.611 36.128h2.646v4.233h-2.646zM22.611 40.73h2.646v4.233h-2.646zM22.611 45.331h2.646v4.233h-2.646z" style="fill:#00f;stroke:#fff;stroke-width:.264583"/><path d="M22.611-35.759h2.646v4.233h-2.646zM31.246-173.415h5.292v8.467h-5.292z" style="fill:#00f;stroke:#fff;stroke-width:.264583" transform="scale(1 -1)"/><path d="M25.521 31.526h2.646v4.233h-2.646zM25.521 36.128h2.646v4.233h-2.646zM25.521 40.73h2.646v4.233h-2.646zM25.521 45.331h2.646v4.233h-2.646zM25.521 26.924h2.646v4.233h-2.646zM28.432 31.526h2.646v4.233h-2.646zM28.432 36.128h2.646v4.233h-2.646zM28.432 40.73h2.646v4.233h-2.646zM28.432 45.331h2.646v4.233h-2.646zM28.432 26.924h2.646v4.233h-2.646zM31.342 31.526h2.646v4.233h-2.646zM31.342 36.128h2.646v4.233h-2.646zM31.342 40.73h2.646v4.233h-2.646zM31.342 45.331h2.646v4.233h-2.646zM31.342 26.924h2.646v4.233h-2.646zM34.252 31.526h2.646v4.233h-2.646zM34.252 36.128h2.646v4.233h-2.646zM34.252 40.73h2.646v4.233h-2.646zM34.252 45.331h2.646v4.233h-2.646zM34.252 26.924h2.646v4.233h-2.646zM37.163 31.526h2.646v4.233h-2.646zM37.163 36.128h2.646v4.233h-2.646zM37.163 40.73h2.646v4.233h-2.646zM37.163 45.331h2.646v4.233h-2.646zM37.163 26.924h2.646v4.233h-2.646zM40.073 31.526h2.646v4.233h-2.646zM40.073 36.128h2.646v4.233h-2.646zM40.073 40.73h2.646v4.233h-2.646zM40.073 45.331h2.646v4.233h-2.646zM40.073 26.924h2.646v4.233h-2.646zM42.984 31.526h2.646v4.233h-2.646zM42.984 36.128h2.646v4.233h-2.646zM42.984 40.73h2.646v4.233h-2.646zM42.984 45.331h2.646v4.233h-2.646zM42.984 26.924h2.646v4.233h-2.646zM45.894 31.526h2.646v4.233h-2.646zM45.894 36.128h2.646v4.233h-2.646zM45.894 40.73h2.646v4.233h-2.646zM45.894 45.331h2.646v4.233h-2.646zM45.894 26.924h2.646v4.233h-2.646zM48.805 31.526h2.646v4.233h-2.646zM48.805 36.128h2.646v4.233h-2.646zM48.805 40.73h2.646v4.233h-2.646zM48.805 45.331h2.646v4.233h-2.646zM48.805 26.924h2.646v4.233h-2.646zM18.32 100.813h2.646v4.233H18.32zM19.776 105.415h2.646v4.233h-2.646zM18.32 110.017h2.646v4.233H18.32zM19.776 96.211h2.646v4.233h-2.646zM21.231 100.813h2.646v4.233h-2.646zM22.686 105.415h2.646v4.233h-2.646zM21.231 110.017h2.646v4.233h-2.646zM22.686 96.211h2.646v4.233h-2.646zM24.141 100.813h2.646v4.233h-2.646zM25.596 105.415h2.646v4.233h-2.646zM24.141 110.017h2.646v4.233h-2.646zM25.596 96.211h2.646v4.233h-2.646zM27.052 100.813h2.646v4.233h-2.646zM28.507 105.415h2.646v4.233h-2.646zM27.052 110.017h2.646v4.233h-2.646zM28.507 96.211h2.646v4.233h-2.646zM29.962 100.813h2.646v4.233h-2.646zM31.417 105.415h2.646v4.233h-2.646zM29.962 110.017h2.646v4.233h-2.646zM31.417 96.211h2.646v4.233h-2.646zM32.873 100.813h2.646v4.233h-2.646zM34.328 105.415h2.646v4.233h-2.646zM32.873 110.017h2.646v4.233h-2.646zM34.328 96.211h2.646v4.233h-2.646zM35.783 100.813h2.646v4.233h-2.646zM37.238 105.415h2.646v4.233h-2.646zM35.783 110.017h2.646v4.233h-2.646zM37.238 96.211h2.646v4.233h-2.646zM38.693 100.813h2.646v4.233h-2.646zM40.149 105.415h2.646v4.233h-2.646zM38.693 110.017h2.646v4.233h-2.646zM40.149 96.211h2.646v4.233h-2.646zM41.604 100.813h2.646v4.233h-2.646zM43.059 105.415h2.646v4.233h-2.646zM41.604 110.017h2.646v4.233h-2.646zM43.059 96.211h2.646v4.233h-2.646zM44.514 100.813h2.646v4.233h-2.646zM45.969 105.415h2.646v4.233h-2.646zM44.514 110.017h2.646v4.233h-2.646zM45.969 96.211h2.646v4.233h-2.646zM47.425 100.813h2.646v4.233h-2.646zM48.88 105.415h2.646v4.233H48.88zM47.425 110.017h2.646v4.233h-2.646zM48.88 96.211h2.646v4.233H48.88zM50.335 100.813h2.646v4.233h-2.646zM51.79 105.415h2.646v4.233H51.79zM50.335 110.017h2.646v4.233h-2.646zM51.79 96.211h2.646v4.233H51.79zM18.32 91.61h2.646v4.233H18.32zM21.231 91.61h2.646v4.233h-2.646zM24.141 91.61h2.646v4.233h-2.646zM27.052 91.61h2.646v4.233h-2.646zM29.962 91.61h2.646v4.233h-2.646zM32.873 91.61h2.646v4.233h-2.646zM35.783 91.61h2.646v4.233h-2.646zM38.693 91.61h2.646v4.233h-2.646zM41.604 91.61h2.646v4.233h-2.646zM44.514 91.61h2.646v4.233h-2.646zM47.425 91.61h2.646v4.233h-2.646zM50.335 91.61h2.646v4.233h-2.646zM16.865 105.415h2.646v4.233h-2.646zM16.865 96.211h2.646v4.233h-2.646z" style="fill:#00f;stroke:#fff;stroke-width:.264583"/><path d="M9.712 160.479h2.646v4.233H9.712zM12.358 162.596h2.646v4.233h-2.646zM12.358 158.363h2.646v4.233h-2.646z" style="fill:#00f;stroke:#fff;stroke-width:.264583" transform="rotate(-40.86)"/><path d="M15.004 164.713h2.646v4.233h-2.646zM15.004 160.479h2.646v4.233h-2.646zM17.65 166.829h2.646v4.233H17.65zM17.65 162.596h2.646v4.233H17.65zM20.296 168.946h2.646v4.233h-2.646zM20.296 164.713h2.646v4.233h-2.646zM22.942 171.063h2.646v4.233h-2.646zM22.942 166.829h2.646v4.233h-2.646z" style="fill:#00f;stroke:#fff;stroke-width:.264583" transform="rotate(-40.86)"/><path d="M25.587 173.179h2.646v4.233h-2.646zM25.587 168.946h2.646v4.233h-2.646zM28.233 175.296h2.646v4.233h-2.646zM28.233 171.063h2.646v4.233h-2.646zM15.004 156.246h2.646v4.233h-2.646zM17.65 158.363h2.646v4.233H17.65zM17.65 154.129h2.646v4.233H17.65zM20.296 160.479h2.646v4.233h-2.646zM20.296 156.246h2.646v4.233h-2.646zM22.942 162.596h2.646v4.233h-2.646zM22.942 158.363h2.646v4.233h-2.646z" style="fill:#00f;stroke:#fff;stroke-width:.264583" transform="rotate(-40.86)"/><path d="M25.587 164.713h2.646v4.233h-2.646zM25.587 160.479h2.646v4.233h-2.646zM28.233 166.829h2.646v4.233h-2.646zM28.233 162.596h2.646v4.233h-2.646z" style="fill:#00f;stroke:#fff;stroke-width:.264583" transform="rotate(-40.86)"/><path d="M30.879 168.946h2.646v4.233h-2.646zM30.879 164.713h2.646v4.233h-2.646zM30.879 173.179h2.646v4.233h-2.646zM33.525 171.063h2.646v4.233h-2.646zM36.171 168.946h2.646v4.233h-2.646z" style="fill:#00f;stroke:#fff;stroke-width:.264583" transform="rotate(-40.86)"/><text xml:space="preserve" style="font-size:14.6667px;line-height:1.25;font-family:sans-serif;white-space:pre;shape-inside:url(#f);display:inline" transform="matrix(.26458 0 0 .26458 96.84 -41.662)"><tspan x="93.906" y="617.008">tilted</tspan></text><circle cx="24.006" cy="-63.511" r=".012" style="fill:#00f;stroke:#fff;stroke-width:.264583" transform="scale(1 -1)"/><path d="M31.246-182.675h5.292v8.467h-5.292zM38.39-173.415h5.292v8.467H38.39zM38.39-182.675h5.292v8.467H38.39zM45.533-173.415h5.292v8.467h-5.292zM45.533-182.675h5.292v8.467h-5.292z" style="fill:#00f;stroke:#fff;stroke-width:.264583" transform="scale(1 -1)"/><text xml:space="preserve" style="font-size:14.6667px;line-height:1.25;font-family:sans-serif;white-space:pre;shape-inside:url(#g);display:inline" transform="matrix(.26458 0 0 .26458 5.993 -14.268)"><tspan x="71.691" y="774.356">nx</tspan></text><path d="M24.356 187.183h6.875" style="fill:none;stroke:#000;stroke-width:.264583px;stroke-linecap:butt;stroke-linejoin:miter;stroke-opacity:1;marker-end:url(#h)"/><path d="M20.629 182.433v-6.874" style="fill:none;stroke:#000;stroke-width:.264583px;stroke-linecap:butt;stroke-linejoin:miter;stroke-opacity:1;marker-end:url(#i)"/><text xml:space="preserve" style="font-size:14.6667px;line-height:1.25;font-family:sans-serif;white-space:pre;shape-inside:url(#j);display:inline" transform="matrix(.26458 0 0 .26458 -21.13 -24.323)"><tspan x="136.938" y="774.186">ny</tspan></text><path d="M51.753 175.944v5.296" style="fill:none;stroke:#000;stroke-width:.264583px;stroke-linecap:butt;stroke-linejoin:miter;stroke-opacity:1;marker-start:url(#k);marker-end:url(#RoundedArrow)"/><path d="M49.36 183.459h-2.476" style="fill:none;stroke:#000;stroke-width:.264583px;stroke-linecap:butt;stroke-linejoin:miter;stroke-opacity:1;marker-start:url(#l);marker-end:url(#RoundedArrow-6)"/><text xml:space="preserve" style="font-size:14.6667px;line-height:1.25;font-family:sans-serif;white-space:pre;shape-inside:url(#m);display:inline" transform="matrix(.26458 0 0 .26458 9.55 -18.03)"><tspan x="138.166" y="777.606">LH</tspan></text><text xml:space="preserve" style="font-size:14.6667px;line-height:1.25;font-family:sans-serif;white-space:pre;shape-inside:url(#n);display:inline" transform="matrix(.26458 0 0 .26458 1.465 -25.85)"><tspan x="194.459" y="778.594">LV</tspan></text><path d="M31.246-164.154h5.292v8.467h-5.292zM38.39-164.154h5.292v8.467H38.39zM45.533-164.154h5.292v8.467h-5.292zM24.102-173.415h5.292v8.467h-5.292zM24.102-182.675h5.292v8.467h-5.292zM24.102-164.154h5.292v8.467h-5.292z" style="fill:#00f;stroke:#fff;stroke-width:.264583" transform="scale(1 -1)"/><path d="M50.879 163.9h14.237M50.846 165.232h14.238" style="fill:none;stroke:#b3b3b3;stroke-width:.264583px;stroke-linecap:butt;stroke-linejoin:miter;stroke-opacity:1"/><path d="M65 166.69v3.965" style="fill:none;stroke:#000;stroke-width:.264583px;stroke-linecap:butt;stroke-linejoin:miter;stroke-opacity:1;marker-start:url(#k)"/><path d="M64.948 162.396v-3.964" style="fill:none;stroke:#000;stroke-width:.264583px;stroke-linecap:butt;stroke-linejoin:miter;stroke-opacity:1;marker-start:url(#o)"/><path d="M43.347 155.733v-6.893M45.835 155.741v-6.892" style="fill:none;stroke:#b3b3b3;stroke-width:.264583px;stroke-linecap:butt;stroke-linejoin:miter;stroke-opacity:1"/><path d="M41.926 149.02h-3.964" style="fill:none;stroke:#000;stroke-width:.264583px;stroke-linecap:butt;stroke-linejoin:miter;stroke-opacity:1;marker-start:url(#p)"/><path d="M47.24 148.973h3.964" style="fill:none;stroke:#000;stroke-width:.264583px;stroke-linecap:butt;stroke-linejoin:miter;stroke-opacity:1;marker-start:url(#q)"/><text xml:space="preserve" style="font-size:14.6667px;line-height:1.25;font-family:sans-serif;white-space:pre;shape-inside:url(#s);display:inline" transform="matrix(.26458 0 0 .26458 5.41 -29.486)"><tspan x="229.336" y="738.156">EV</tspan></text><text xml:space="preserve" style="font-size:14.6667px;line-height:1.25;font-family:sans-serif;white-space:pre;shape-inside:url(#t);display:inline" transform="matrix(.26458 0 0 .26458 -15.225 -31.48)"><tspan x="216.732" y="677.098">EH</tspan></text><path d="M22.56 72.185H43.52" style="fill:none;stroke:red;stroke-width:.52916667;stroke-linecap:butt;stroke-linejoin:miter;stroke-opacity:1;marker-end:url(#h)"/><path d="M36.223 109.773V97.41" style="fill:none;stroke:red;stroke-width:.52916667;stroke-linecap:butt;stroke-linejoin:miter;stroke-opacity:1;marker-end:url(#u)"/><path d="M38.856 215.777v23.883h43.728" style="fill:none;stroke:#000;stroke-width:.264583px;stroke-linecap:butt;stroke-linejoin:miter;stroke-opacity:1;marker-start:url(#k);marker-end:url(#RoundedArrow)"/><path d="M38.826 228.534s2.854 5.467 5.372 5.326c2.488-.139 3.49-3.638 4.689-5.822 1.585-2.884 3.193-6.462 6.21-6.597 2.917-.13 4.796 2.753 6.548 5.818 1.463 2.558 3.081 6.49 6.028 6.467 2.965-.023 5.961-6.6 5.961-6.6" style="fill:none;stroke:#ff8080;stroke-width:.264583px;stroke-linecap:butt;stroke-linejoin:miter;stroke-opacity:1"/><path d="M28.45 233.81h14.238" style="fill:none;stroke:#b3b3b3;stroke-width:.264583px;stroke-linecap:butt;stroke-linejoin:miter;stroke-opacity:1"/><path d="M28.366 221.667H53.38" style="fill:none;stroke:#b3b3b3;stroke-width:.264584px;stroke-linecap:butt;stroke-linejoin:miter;stroke-opacity:1"/><path d="M29.732 222.762v9.863" style="fill:none;stroke:#000;stroke-width:.264583px;stroke-linecap:butt;stroke-linejoin:miter;stroke-opacity:1;marker-start:url(#k);marker-end:url(#RoundedArrow)"/><text xml:space="preserve" style="font-size:14.6667px;line-height:1.25;font-family:sans-serif;white-space:pre;shape-inside:url(#v);display:inline" transform="matrix(.26458 0 0 .26458 13.38 -19.472)"><tspan x="35.242" y="961.75">EV</tspan></text><text xml:space="preserve" style="font-size:14.6667px;line-height:1.25;font-family:sans-serif;white-space:pre;shape-inside:url(#w);display:inline" transform="matrix(.26458 0 0 .26458 -1.786 -25.913)"><tspan x="69.311" y="961.912">EVsup</tspan></text><path d="M38.973 263.871v-23.407" style="fill:none;stroke:#b3b3b3;stroke-width:.264582px;stroke-linecap:butt;stroke-linejoin:miter;stroke-opacity:1"/><path d="M61.884 240.967v-11.971M73.947 254.92v-27.07" style="fill:none;stroke:#b3b3b3;stroke-width:.264583px;stroke-linecap:butt;stroke-linejoin:miter;stroke-opacity:1"/><path d="M40.533 253.912h31.372" style="fill:none;stroke:#000;stroke-width:.264583px;stroke-linecap:butt;stroke-linejoin:miter;stroke-opacity:1;marker-start:url(#x);marker-end:url(#RoundedArrow-7)"/><text xml:space="preserve" style="font-size:14.6667px;line-height:1.25;font-family:sans-serif;white-space:pre;shape-inside:url(#y);display:inline;fill:#00f" transform="matrix(.26458 0 0 .26458 18.685 -17.34)"><tspan x="73.961" y="984.287">0</tspan></text><text xml:space="preserve" style="font-size:14.6667px;line-height:1.25;font-family:sans-serif;white-space:pre;shape-inside:url(#z);display:inline;fill:#00f" transform="matrix(.26458 0 0 .26458 33.53 -23.143)"><tspan x="102.18" y="1009.645">1</tspan></text><text xml:space="preserve" style="font-size:14.6667px;line-height:1.25;font-family:sans-serif;white-space:pre;shape-inside:url(#A);display:inline;fill:#00f" transform="matrix(.26458 0 0 .26458 12.506 -20.89)"><tspan x="220.346" y="997.723">1.5</tspan></text><path d="M49.63 241.478V228.41" style="fill:none;stroke:#b3b3b3;stroke-width:.264583px;stroke-linecap:butt;stroke-linejoin:miter;stroke-opacity:1"/><text xml:space="preserve" style="font-size:14.6667px;line-height:1.25;font-family:sans-serif;white-space:pre;shape-inside:url(#B);display:inline;fill:#00f" transform="matrix(.26458 0 0 .26458 39.137 -7.146)"><tspan x="26.877" y="946.41">0.5</tspan></text><text xml:space="preserve" style="font-size:14.6667px;line-height:1.25;font-family:sans-serif;white-space:pre;shape-inside:url(#C);display:inline" transform="matrix(.26458 0 0 .26458 13.999 -9.632)"><tspan x="120.684" y="1011.873">EVcyc =1.5</tspan></text><text xml:space="preserve" style="font-size:14.6667px;line-height:1.25;font-family:sans-serif;white-space:pre;shape-inside:url(#D);display:inline" transform="matrix(.26458 0 0 .26458 -.563 -.251)"><tspan x="115.162" y="1011.561">EVstart =0.5</tspan></text><path d="M25.607 297.55s1.537 3.425 2.893 3.337c1.34-.087 1.88-2.28 2.525-3.648.854-1.807 1.72-4.049 3.345-4.133 1.571-.082 2.583 1.724 3.527 3.645.787 1.603 1.66 4.067 3.246 4.052 1.597-.014 3.211-4.135 3.211-4.135M25.457 308.732l3.943 4.112 5.054-6.962 5.255 7.068 4.234-4.956" style="fill:none;stroke:#ff8080;stroke-width:.264583px;stroke-linecap:butt;stroke-linejoin:miter;stroke-opacity:1"/><text xml:space="preserve" style="font-size:14.6667px;line-height:1.25;font-family:sans-serif;white-space:pre;shape-inside:url(#E);display:inline" transform="matrix(.26458 0 0 .26458 -2.507 .877)"><tspan x="182.174" y="1123.186">sinusoid</tspan></text><text xml:space="preserve" style="font-size:14.6667px;line-height:1.25;font-family:sans-serif;white-space:pre;shape-inside:url(#F);display:inline" transform="matrix(.26458 0 0 .26458 -1.824 .715)"><tspan x="179.615" y="1170.205">triangle</tspan></text><path d="m25.169 319.993 5.984-4.128-.027 9.701 10.548-9.19" style="fill:none;stroke:#ff8080;stroke-width:.264583px;stroke-linecap:butt;stroke-linejoin:miter;stroke-opacity:1"/><text xml:space="preserve" style="font-size:14.6667px;line-height:1.25;font-family:sans-serif;white-space:pre;shape-inside:url(#G);display:inline" transform="matrix(.26458 0 0 .26458 -2.14 -.298)"><tspan x="181.371" y="1217.551">sawUp</tspan></text><path d="m25.297 334.407 5.984 4.128-.027-9.7 10.548 9.19" style="fill:none;stroke:#ff8080;stroke-width:.264583px;stroke-linecap:butt;stroke-linejoin:miter;stroke-opacity:1"/><text xml:space="preserve" style="font-size:14.6667px;line-height:1.25;font-family:sans-serif;white-space:pre;shape-inside:url(#H);display:inline" transform="matrix(.26458 0 0 .26458 -1.657 11.512)"><tspan x="181.371" y="1217.551">sawDown</tspan></text><path d="M26.946-384.599h2.646v4.233h-2.646z" style="fill:#008066;stroke:#fff;stroke-width:.264583" transform="scale(1 -1)"/><text xml:space="preserve" style="font-size:14.6667px;line-height:1.25;font-family:sans-serif;white-space:pre;shape-inside:url(#I);display:inline;fill:#008066" transform="matrix(.26458 0 0 .26458 18.36 350.68)"><tspan x="71.752" y="223.953">first = 2</tspan></text><path d="M26.946-389.201h2.646v4.233h-2.646z" style="fill:#008066;stroke:#fff;stroke-width:.264583" transform="scale(1 -1)"/><path d="M29.856 382.718h2.646v4.233h-2.646zM29.856 387.32h2.646v4.233h-2.646z" style="fill:#08a;stroke:#fff;stroke-width:.264583"/><path d="M29.856-382.35h2.646v4.233h-2.646z" style="fill:#08a;stroke:#fff;stroke-width:.264583" transform="scale(1 -1)"/><path d="M32.767-377.748h2.646v4.233h-2.646z" style="fill:#00f;stroke:#fff;stroke-width:.264583" transform="scale(1 -1)"/><path d="M32.767 382.718h2.646v4.233h-2.646zM32.767 387.32h2.646v4.233h-2.646zM32.767 391.922h2.646v4.233h-2.646z" style="fill:#00f;stroke:#fff;stroke-width:.264583"/><path d="M32.767-382.35h2.646v4.233h-2.646z" style="fill:#00f;stroke:#fff;stroke-width:.264583" transform="scale(1 -1)"/><path d="M35.677 378.117h2.646v4.233h-2.646zM35.677 382.718h2.646v4.233h-2.646zM35.677 387.32h2.646v4.233h-2.646zM35.677 391.922h2.646v4.233h-2.646zM35.677 373.515h2.646v4.233h-2.646zM38.588 378.117h2.646v4.233h-2.646zM38.588 382.718h2.646v4.233h-2.646zM38.588 387.32h2.646v4.233h-2.646zM38.588 391.922h2.646v4.233h-2.646zM38.588 373.515h2.646v4.233h-2.646zM41.498 378.117h2.646v4.233h-2.646zM41.498 382.718h2.646v4.233h-2.646zM41.498 387.32h2.646v4.233h-2.646zM41.498 391.922h2.646v4.233h-2.646zM41.498 373.515h2.646v4.233h-2.646zM44.408 378.117h2.646v4.233h-2.646zM44.408 382.718h2.646v4.233h-2.646zM44.408 387.32h2.646v4.233h-2.646zM44.408 391.922h2.646v4.233h-2.646zM44.408 373.515h2.646v4.233h-2.646zM47.319 378.117h2.646v4.233h-2.646zM47.319 382.718h2.646v4.233h-2.646zM47.319 387.32h2.646v4.233h-2.646zM47.319 391.922h2.646v4.233h-2.646zM47.319 373.515h2.646v4.233h-2.646zM50.229 378.117h2.646v4.233h-2.646zM50.229 382.718h2.646v4.233h-2.646zM50.229 387.32h2.646v4.233h-2.646zM50.229 391.922h2.646v4.233h-2.646zM50.229 373.515h2.646v4.233h-2.646zM53.14 378.117h2.646v4.233H53.14zM53.14 382.718h2.646v4.233H53.14zM53.14 387.32h2.646v4.233H53.14zM53.14 391.922h2.646v4.233H53.14zM53.14 373.515h2.646v4.233H53.14z" style="fill:#00f;stroke:#fff;stroke-width:.264583"/><path d="M56.05 378.117h2.646v4.233H56.05zM56.05 382.718h2.646v4.233H56.05zM56.05 387.32h2.646v4.233H56.05z" style="fill:#08a;stroke:#fff;stroke-width:.264583"/><path d="M58.96 380.469h2.646v4.233H58.96zM58.96 385.071h2.646v4.233H58.96z" style="fill:#008066;stroke:#fff;stroke-width:.264583"/><text xml:space="preserve" style="font-size:14.6667px;line-height:1.25;font-family:sans-serif;white-space:pre;shape-inside:url(#J);fill:#08a" transform="scale(.26458)"><tspan x="125.83" y="1361.803">second = 3</tspan></text><path d="M30.555 375.599s.19-5.183 1.281-7.457c1.336-2.782 6.14-6.93 6.14-6.93" style="fill:none;stroke:#000;stroke-width:.264583px;stroke-linecap:butt;stroke-linejoin:miter;stroke-opacity:1;marker-start:url(#k)"/><path d="M45.694 361.843s8.019 2.862 10.268 6.16c1.453 2.129 1.285 7.625 1.285 7.625" style="fill:none;stroke:#000;stroke-width:.264583px;stroke-linecap:butt;stroke-linejoin:miter;stroke-opacity:1;marker-end:url(#k)"/><path d="M28.069 391.082s.227 6.283 1.532 9.039c1.597 3.372 7.34 8.4 7.34 8.4" style="fill:none;stroke:#000;stroke-width:.264583px;stroke-linecap:butt;stroke-linejoin:miter;stroke-opacity:1;marker-start:url(#K)"/><path d="M60.591 391.04s-.17 6.317-1.145 9.087c-1.194 3.391-5.488 8.447-5.488 8.447" style="fill:none;stroke:#000;stroke-width:.264583px;stroke-linecap:butt;stroke-linejoin:miter;stroke-opacity:1;marker-start:url(#L)"/><path d="M33.456 385.22h20.958" style="fill:none;stroke:red;stroke-width:.529167;stroke-linecap:butt;stroke-linejoin:miter;stroke-opacity:1;marker-end:url(#M)"/><text xml:space="preserve" style="font-size:14.6667px;line-height:1.25;font-family:sans-serif;white-space:pre;shape-inside:url(#N)" transform="matrix(.26458 0 0 .26458 4.506 -2.513)"><tspan x="94.277" y="1580.467">nx = 12
</tspan><tspan x="94.277" y="1598.8">ny = 5</tspan></text></svg>