<svg xmlns="http://www.w3.org/2000/svg" width="145.685" height="255.062" viewBox="0 0 38.546 67.485"><defs><marker id="c" markerHeight="1" markerWidth="1" orient="auto-start-reverse" preserveAspectRatio="xMidYMid" refX="0" refY="0" style="overflow:visible" viewBox="0 0 1 1"><path d="M-.211-4.106 6.21-.894a1 1 90 0 1 0 1.788L-.21 4.106A1.236 1.236 31.717 0 1-2 3v-6A1.236 1.236 148.283 0 1-.211-4.106" style="fill:context-stroke;fill-rule:evenodd;stroke:none" transform="scale(.7)"/></marker><marker id="d" markerHeight="1" markerWidth="1" orient="auto-start-reverse" preserveAspectRatio="xMidYMid" refX="0" refY="0" style="overflow:visible" viewBox="0 0 1 1"><path d="M-.211-4.106 6.21-.894a1 1 90 0 1 0 1.788L-.21 4.106A1.236 1.236 31.717 0 1-2 3v-6A1.236 1.236 148.283 0 1-.211-4.106" style="fill:context-stroke;fill-rule:evenodd;stroke:none" transform="scale(.7)"/></marker><marker id="e" markerHeight="1" markerWidth="1" orient="auto-start-reverse" preserveAspectRatio="xMidYMid" refX="0" refY="0" style="overflow:visible" viewBox="0 0 1 1"><path d="M-.211-4.106 6.21-.894a1 1 90 0 1 0 1.788L-.21 4.106A1.236 1.236 31.717 0 1-2 3v-6A1.236 1.236 148.283 0 1-.211-4.106" style="fill:context-stroke;fill-rule:evenodd;stroke:none" transform="scale(.7)"/></marker><marker id="f" markerHeight="1" markerWidth="1" orient="auto-start-reverse" preserveAspectRatio="xMidYMid" refX="0" refY="0" style="overflow:visible" viewBox="0 0 1 1"><path d="M3-3 0 0l3 3" style="fill:none;stroke:context-stroke;stroke-width:1;stroke-linecap:butt" transform="rotate(180 .125 0)"/></marker><path id="g" d="M94.277 1567.491h179.534v49.04H94.277z"/><path id="b" d="M125.831 1348.826h118.366v43.52H125.831z"/><path id="a" d="M71.751 210.976h108.994v55.632H71.751z"/></defs><path d="M24.778 356.246h38.281v67.221H24.778z" style="fill:#fff;stroke:#fff;stroke-width:.264583" transform="translate(-24.645 -356.114)"/><path d="M26.946-384.599h2.646v4.233h-2.646z" style="fill:#008066;stroke:#fff;stroke-width:.264583" transform="matrix(1 0 0 -1 -24.645 -356.114)"/><text xml:space="preserve" style="font-size:14.6667px;line-height:1.25;font-family:sans-serif;white-space:pre;shape-inside:url(#a);display:inline;fill:#008066" transform="matrix(.26458 0 0 .26458 -6.285 -5.434)"><tspan x="71.752" y="223.953">first = 2</tspan></text><path d="M26.946-389.201h2.646v4.233h-2.646z" style="fill:#008066;stroke:#fff;stroke-width:.264583" transform="matrix(1 0 0 -1 -24.645 -356.114)"/><path d="M29.856 382.718h2.646v4.233h-2.646zM29.856 387.32h2.646v4.233h-2.646z" style="fill:#08a;stroke:#fff;stroke-width:.264583" transform="translate(-24.645 -356.114)"/><path d="M29.856-382.35h2.646v4.233h-2.646z" style="fill:#08a;stroke:#fff;stroke-width:.264583" transform="matrix(1 0 0 -1 -24.645 -356.114)"/><path d="M32.767-377.748h2.646v4.233h-2.646z" style="fill:#00f;stroke:#fff;stroke-width:.264583" transform="matrix(1 0 0 -1 -24.645 -356.114)"/><path d="M32.767 382.718h2.646v4.233h-2.646zM32.767 387.32h2.646v4.233h-2.646zM32.767 391.922h2.646v4.233h-2.646z" style="fill:#00f;stroke:#fff;stroke-width:.264583" transform="translate(-24.645 -356.114)"/><path d="M32.767-382.35h2.646v4.233h-2.646z" style="fill:#00f;stroke:#fff;stroke-width:.264583" transform="matrix(1 0 0 -1 -24.645 -356.114)"/><path d="M35.677 378.117h2.646v4.233h-2.646zM35.677 382.718h2.646v4.233h-2.646zM35.677 387.32h2.646v4.233h-2.646zM35.677 391.922h2.646v4.233h-2.646zM35.677 373.515h2.646v4.233h-2.646zM38.588 378.117h2.646v4.233h-2.646zM38.588 382.718h2.646v4.233h-2.646zM38.588 387.32h2.646v4.233h-2.646zM38.588 391.922h2.646v4.233h-2.646zM38.588 373.515h2.646v4.233h-2.646zM41.498 378.117h2.646v4.233h-2.646zM41.498 382.718h2.646v4.233h-2.646zM41.498 387.32h2.646v4.233h-2.646zM41.498 391.922h2.646v4.233h-2.646zM41.498 373.515h2.646v4.233h-2.646zM44.408 378.117h2.646v4.233h-2.646zM44.408 382.718h2.646v4.233h-2.646zM44.408 387.32h2.646v4.233h-2.646zM44.408 391.922h2.646v4.233h-2.646zM44.408 373.515h2.646v4.233h-2.646zM47.319 378.117h2.646v4.233h-2.646zM47.319 382.718h2.646v4.233h-2.646zM47.319 387.32h2.646v4.233h-2.646zM47.319 391.922h2.646v4.233h-2.646zM47.319 373.515h2.646v4.233h-2.646zM50.229 378.117h2.646v4.233h-2.646zM50.229 382.718h2.646v4.233h-2.646zM50.229 387.32h2.646v4.233h-2.646zM50.229 391.922h2.646v4.233h-2.646zM50.229 373.515h2.646v4.233h-2.646zM53.14 378.117h2.646v4.233H53.14zM53.14 382.718h2.646v4.233H53.14zM53.14 387.32h2.646v4.233H53.14zM53.14 391.922h2.646v4.233H53.14zM53.14 373.515h2.646v4.233H53.14z" style="fill:#00f;stroke:#fff;stroke-width:.264583" transform="translate(-24.645 -356.114)"/><path d="M56.05 378.117h2.646v4.233H56.05zM56.05 382.718h2.646v4.233H56.05zM56.05 387.32h2.646v4.233H56.05z" style="fill:#08a;stroke:#fff;stroke-width:.264583" transform="translate(-24.645 -356.114)"/><path d="M58.96 380.469h2.646v4.233H58.96zM58.96 385.071h2.646v4.233H58.96z" style="fill:#008066;stroke:#fff;stroke-width:.264583" transform="translate(-24.645 -356.114)"/><text xml:space="preserve" style="font-size:14.6667px;line-height:1.25;font-family:sans-serif;white-space:pre;shape-inside:url(#b);fill:#08a" transform="matrix(.26458 0 0 .26458 -24.645 -356.114)"><tspan x="125.83" y="1361.803">second = 3</tspan></text><path d="M30.555 375.599s.19-5.183 1.281-7.457c1.336-2.782 6.14-6.93 6.14-6.93" style="fill:none;stroke:#000;stroke-width:.264583px;stroke-linecap:butt;stroke-linejoin:miter;stroke-opacity:1;marker-start:url(#c)" transform="translate(-24.645 -356.114)"/><path d="M45.694 361.843s8.019 2.862 10.268 6.16c1.453 2.129 1.285 7.625 1.285 7.625" style="fill:none;stroke:#000;stroke-width:.264583px;stroke-linecap:butt;stroke-linejoin:miter;stroke-opacity:1;marker-end:url(#c)" transform="translate(-24.645 -356.114)"/><path d="M28.069 391.083s.227 6.282 1.532 9.038c1.597 3.372 7.34 8.4 7.34 8.4" style="fill:none;stroke:#000;stroke-width:.264583px;stroke-linecap:butt;stroke-linejoin:miter;stroke-opacity:1;marker-start:url(#d)" transform="translate(-24.645 -356.114)"/><path d="M60.591 391.04s-.17 6.317-1.145 9.087c-1.194 3.391-5.488 8.447-5.488 8.447" style="fill:none;stroke:#000;stroke-width:.264583px;stroke-linecap:butt;stroke-linejoin:miter;stroke-opacity:1;marker-start:url(#e)" transform="translate(-24.645 -356.114)"/><path d="M33.456 385.22h20.958" style="fill:none;stroke:red;stroke-width:.529167;stroke-linecap:butt;stroke-linejoin:miter;stroke-opacity:1;marker-end:url(#f)" transform="translate(-24.645 -356.114)"/><text xml:space="preserve" style="font-size:14.6667px;line-height:1.25;font-family:sans-serif;white-space:pre;shape-inside:url(#g)" transform="matrix(.26458 0 0 .26458 -20.139 -358.627)"><tspan x="94.277" y="1580.467">nx = 12
</tspan><tspan x="94.277" y="1598.8">ny = 5</tspan></text></svg>