<svg xmlns="http://www.w3.org/2000/svg" width="152.187" height="95.849" viewBox="0 0 40.266 25.36"><defs><marker id="a" markerHeight="1" markerWidth="1" orient="auto-start-reverse" preserveAspectRatio="xMidYMid" refX="0" refY="0" style="overflow:visible" viewBox="0 0 1 1"><path d="M-.211-4.106 6.21-.894a1 1 90 0 1 0 1.788L-.21 4.106A1.236 1.236 31.717 0 1-2 3v-6A1.236 1.236 148.283 0 1-.211-4.106" style="fill:context-stroke;fill-rule:evenodd;stroke:none" transform="scale(.7)"/></marker><marker id="c" markerHeight="1" markerWidth="1" orient="auto-start-reverse" preserveAspectRatio="xMidYMid" refX="0" refY="0" style="overflow:visible" viewBox="0 0 1 1"><path d="M-.211-4.106 6.21-.894a1 1 90 0 1 0 1.788L-.21 4.106A1.236 1.236 31.717 0 1-2 3v-6A1.236 1.236 148.283 0 1-.211-4.106" style="fill:context-stroke;fill-rule:evenodd;stroke:none" transform="scale(.7)"/></marker><marker id="e" markerHeight="1" markerWidth="1" orient="auto-start-reverse" preserveAspectRatio="xMidYMid" refX="0" refY="0" style="overflow:visible" viewBox="0 0 1 1"><path d="M-.211-4.106 6.21-.894a1 1 90 0 1 0 1.788L-.21 4.106A1.236 1.236 31.717 0 1-2 3v-6A1.236 1.236 148.283 0 1-.211-4.106" style="fill:context-stroke;fill-rule:evenodd;stroke:none" transform="scale(.7)"/></marker><marker id="f" markerHeight="1" markerWidth="1" orient="auto-start-reverse" preserveAspectRatio="xMidYMid" refX="0" refY="0" style="overflow:visible" viewBox="0 0 1 1"><path d="M-.211-4.106 6.21-.894a1 1 90 0 1 0 1.788L-.21 4.106A1.236 1.236 31.717 0 1-2 3v-6A1.236 1.236 148.283 0 1-.211-4.106" style="fill:context-stroke;fill-rule:evenodd;stroke:none" transform="scale(.7)"/></marker><path id="g" d="M227.536 1651.151h60.337v28.929h-60.337z"/><path id="d" d="M150.942 1645.909h44.774v20.245h-44.774z"/><path id="b" d="M137.874 1639.046h61.642v26.96h-61.642z"/></defs><path d="M14.624 440.293h40.002v25.095H14.624z" style="fill:#fff;fill-opacity:1;stroke:#fff;stroke-width:.264583" transform="translate(-14.491 -440.16)"/><path d="M29.341 456.163h10.727v2.108H29.341zM42.715 456.163h10.727v2.108H42.715z" style="fill:#00f;fill-opacity:1;stroke:#d45500;stroke-width:.264583" transform="translate(-14.491 -440.16)"/><path d="M40.069 456.03v-10.362M42.715 456.03v-10.362M29.21 456.163h-7.304M29.21 458.27h-7.304" style="fill:none;stroke:#b3b3b3;stroke-width:.264583px;stroke-linecap:butt;stroke-linejoin:miter;stroke-opacity:1" transform="translate(-14.491 -440.16)"/><path d="M30.336 453.048h8.739" style="fill:none;stroke:#000;stroke-width:.264583px;stroke-linecap:butt;stroke-linejoin:miter;stroke-opacity:1;marker-start:url(#a);marker-end:url(#a)" transform="translate(-14.491 -440.16)"/><text xml:space="preserve" style="font-size:14.6667px;line-height:1.25;font-family:sans-serif;white-space:pre;shape-inside:url(#b)" transform="matrix(.26458 0 0 .26458 -18.806 -424.995)"><tspan x="137.875" y="1652.024">LH</tspan></text><path d="M34.23 445.668h4.454" style="fill:none;stroke:#000;stroke-width:.264583px;stroke-linecap:butt;stroke-linejoin:miter;stroke-opacity:1;marker-end:url(#a)" transform="translate(-14.491 -440.16)"/><path d="M48.554 445.668H44.1" style="fill:none;stroke:#000;stroke-width:.264583px;stroke-linecap:butt;stroke-linejoin:miter;stroke-opacity:1;marker-end:url(#c)" transform="translate(-14.491 -440.16)"/><text xml:space="preserve" style="font-size:14.6667px;line-height:1.25;font-family:sans-serif;white-space:pre;shape-inside:url(#d)" transform="matrix(.26458 0 0 .26458 -14.943 -434.553)"><tspan x="150.941" y="1658.885">EH</tspan></text><path d="M21.906 450.323v4.455" style="fill:none;stroke:#000;stroke-width:.264583px;stroke-linecap:butt;stroke-linejoin:miter;stroke-opacity:1;marker-end:url(#e)" transform="translate(-14.491 -440.16)"/><path d="M21.906 464.11v-4.454" style="fill:none;stroke:#000;stroke-width:.264583px;stroke-linecap:butt;stroke-linejoin:miter;stroke-opacity:1;marker-end:url(#f)" transform="translate(-14.491 -440.16)"/><text xml:space="preserve" style="font-size:14.6667px;line-height:1.25;font-family:sans-serif;white-space:pre;shape-inside:url(#g)" transform="matrix(.26458 0 0 .26458 -59.183 -421.83)"><tspan x="227.535" y="1664.127">LZ</tspan></text></svg>