<svg xmlns="http://www.w3.org/2000/svg" width="256.282" height="223.573" viewBox="0 0 67.808 59.154"><defs><marker id="a" markerHeight="1" markerWidth="1" orient="auto-start-reverse" preserveAspectRatio="xMidYMid" refX="0" refY="0" style="overflow:visible" viewBox="0 0 1 1"><path d="M3-3 0 0l3 3" style="fill:none;stroke:context-stroke;stroke-width:1;stroke-linecap:butt" transform="rotate(180 .125 0)"/></marker><marker id="b" markerHeight="1" markerWidth="1" orient="auto-start-reverse" preserveAspectRatio="xMidYMid" refX="0" refY="0" style="overflow:visible" viewBox="0 0 1 1"><path d="M3-3 0 0l3 3" style="fill:none;stroke:context-stroke;stroke-width:1;stroke-linecap:butt" transform="rotate(180 .125 0)"/></marker><marker id="c" markerHeight="1" markerWidth="1" orient="auto-start-reverse" preserveAspectRatio="xMidYMid" refX="0" refY="0" style="overflow:visible" viewBox="0 0 1 1"><path d="M3-3 0 0l3 3" style="fill:none;stroke:context-stroke;stroke-width:1;stroke-linecap:butt" transform="rotate(180 .125 0)"/></marker><marker id="d" markerHeight="1" markerWidth="1" orient="auto-start-reverse" preserveAspectRatio="xMidYMid" refX="0" refY="0" style="overflow:visible" viewBox="0 0 1 1"><path d="M3-3 0 0l3 3" style="fill:none;stroke:context-stroke;stroke-width:1;stroke-linecap:butt" transform="rotate(180 .125 0)"/></marker><marker id="f" markerHeight="1" markerWidth="1" orient="auto-start-reverse" preserveAspectRatio="xMidYMid" refX="0" refY="0" style="overflow:visible" viewBox="0 0 1 1"><path d="M3-3 0 0l3 3" style="fill:none;stroke:context-stroke;stroke-width:1;stroke-linecap:butt" transform="rotate(180 .125 0)"/></marker><marker id="g" markerHeight="1" markerWidth="1" orient="auto-start-reverse" preserveAspectRatio="xMidYMid" refX="0" refY="0" style="overflow:visible" viewBox="0 0 1 1"><path d="M3-3 0 0l3 3" style="fill:none;stroke:context-stroke;stroke-width:1;stroke-linecap:butt" transform="rotate(180 .125 0)"/></marker><marker id="h" markerHeight="1" markerWidth="1" orient="auto-start-reverse" preserveAspectRatio="xMidYMid" refX="0" refY="0" style="overflow:visible" viewBox="0 0 1 1"><path d="M3-3 0 0l3 3" style="fill:none;stroke:context-stroke;stroke-width:1;stroke-linecap:butt" transform="rotate(180 .125 0)"/></marker><marker id="i" markerHeight="1" markerWidth="1" orient="auto-start-reverse" preserveAspectRatio="xMidYMid" refX="0" refY="0" style="overflow:visible" viewBox="0 0 1 1"><path d="M3-3 0 0l3 3" style="fill:none;stroke:context-stroke;stroke-width:1;stroke-linecap:butt" transform="rotate(180 .125 0)"/></marker><marker id="j" markerHeight="1" markerWidth="1" orient="auto-start-reverse" preserveAspectRatio="xMidYMid" refX="0" refY="0" style="overflow:visible" viewBox="0 0 1 1"><path d="M3-3 0 0l3 3" style="fill:none;stroke:context-stroke;stroke-width:1;stroke-linecap:butt" transform="rotate(180 .125 0)"/></marker><marker id="k" markerHeight="1" markerWidth="1" orient="auto-start-reverse" preserveAspectRatio="xMidYMid" refX="0" refY="0" style="overflow:visible" viewBox="0 0 1 1"><path d="M3-3 0 0l3 3" style="fill:none;stroke:context-stroke;stroke-width:1;stroke-linecap:butt" transform="rotate(180 .125 0)"/></marker><path id="p" d="M111.282 2086.249h112.841v48.785H111.282z"/><path id="o" d="M243.656 1937.91h103.496v25.383H243.656z"/><path id="m" d="M166.307 2049.822h52.074v33.49h-52.074z"/><path id="e" d="M208.594 1891.295h86.067v32.969h-86.067z"/><path id="l" d="M208.594 1891.295h86.067v32.969h-86.067z"/><path id="n" d="M208.594 1891.295h86.067v32.969h-86.067z"/></defs><g transform="translate(-20.8 -488.081)"><path d="M20.932 488.213h67.543v58.889H20.932z" style="fill:#fff;fill-opacity:1;stroke:#fff;stroke-width:.264583"/><path d="M60.65 536.8s3.342 1.44 3.978 2.968c.352.843-.88 1.946-.384 2.712.8 1.236 4.242 1.228 4.242 1.228" style="fill:none;stroke:#666;stroke-width:.529167;stroke-linecap:butt;stroke-linejoin:miter;stroke-opacity:1"/><circle cx="31.348" cy="495.894" r="6.39" style="fill:#fd5;fill-opacity:1;stroke:#fff;stroke-width:.264583"/><path d="m32.412 505.448 5.076 8.792" style="fill:none;stroke:#fc0;stroke-width:.264583px;stroke-linecap:butt;stroke-linejoin:miter;stroke-opacity:1;marker-end:url(#a)"/><path d="m34.319 504.128 5.076 8.792" style="fill:none;stroke:#fc0;stroke-width:.264583px;stroke-linecap:butt;stroke-linejoin:miter;stroke-opacity:1;marker-end:url(#b)"/><path d="m37.073 502.606 5.076 8.792" style="fill:none;stroke:#fc0;stroke-width:.264583px;stroke-linecap:butt;stroke-linejoin:miter;stroke-opacity:1;marker-end:url(#c)"/><path d="m39.265 500.767 5.076 8.792" style="fill:none;stroke:#fc0;stroke-width:.264583px;stroke-linecap:butt;stroke-linejoin:miter;stroke-opacity:1;marker-end:url(#d)"/><text xml:space="preserve" style="font-size:14.6667px;line-height:1.25;font-family:sans-serif;white-space:pre;shape-inside:url(#e)" transform="matrix(.26458 0 0 .26458 -12.255 -.621)"><tspan x="208.594" y="1904.272">1361 W/m2</tspan></text><path d="M40.03 521.608c4.877 2.246 11.249 2.316 16.11.034 1.079-.507 2.157-1.571 2.278-2.758.078-.753-.352-1.74-1.06-2.008-1.03-.387-3.085 1.175-3.085 1.175s1.289-1.988 1.257-3.103c-.03-1.055-.404-2.405-1.355-2.861-.905-.434-2.085.154-2.929.697-.714.46-1.565 2.01-1.565 2.01s-.812-1.774-1.62-2.188c-1.112-.57-2.612-.568-3.749-.049-.841.385-1.644 1.209-1.79 2.123-.119.75.855 2.113.855 2.113s-2.3-.505-3.38-.178c-1.033.313-2.475.864-2.593 1.936-.147 1.335 1.406 2.495 2.626 3.057z" style="fill:#c8beb7;stroke:#e3dedb;stroke-width:.264583px;stroke-linecap:butt;stroke-linejoin:miter;stroke-opacity:1"/><path d="m50.157 525.773 5.076 8.792" style="fill:none;stroke:#fc0;stroke-width:.264583px;stroke-linecap:butt;stroke-linejoin:miter;stroke-opacity:1;marker-end:url(#f)"/><path d="m52.68 524.069 5.076 8.792" style="fill:none;stroke:#fc0;stroke-width:.264583px;stroke-linecap:butt;stroke-linejoin:miter;stroke-opacity:1;marker-end:url(#g)"/><path d="m55.435 522.546 5.076 8.792" style="fill:none;stroke:#fc0;stroke-width:.264583px;stroke-linecap:butt;stroke-linejoin:miter;stroke-opacity:1;marker-end:url(#h)"/><path d="m30.162 506.715 5.076 8.792" style="fill:none;stroke:#fc0;stroke-width:.264583px;stroke-linecap:butt;stroke-linejoin:miter;stroke-opacity:1;marker-end:url(#i)"/><path d="m43.396 524.694-5.076 8.792" style="fill:none;stroke:#fc0;stroke-width:.264583px;stroke-linecap:butt;stroke-linejoin:miter;stroke-opacity:1;marker-end:url(#j)"/><path d="m40.872 522.99-5.076 8.792" style="fill:none;stroke:#fc0;stroke-width:.264583px;stroke-linecap:butt;stroke-linejoin:miter;stroke-opacity:1;marker-end:url(#k)"/><text xml:space="preserve" style="font-size:14.6667px;line-height:1.25;font-family:sans-serif;white-space:pre;shape-inside:url(#l);display:inline" transform="matrix(.26458 0 0 .26458 4.452 22.823)"><tspan x="208.594" y="1904.272">816 W/m2</tspan></text><path d="m55.042 537.844 9.121-7.184 3.308 3.98-9.993 7.057z" style="fill:#00f;fill-opacity:1;stroke:#ff7f2a;stroke-width:.264583px;stroke-linecap:butt;stroke-linejoin:miter;stroke-opacity:1"/><text xml:space="preserve" style="font-size:14.6667px;line-height:1.25;font-family:sans-serif;white-space:pre;shape-inside:url(#m)" transform="matrix(.26458 0 0 .26458 2.637 -4.744)"><tspan x="166.307" y="2062.799">16%</tspan></text><text xml:space="preserve" style="font-size:14.6667px;line-height:1.25;font-family:sans-serif;white-space:pre;shape-inside:url(#n);display:inline" transform="matrix(.26458 0 0 .26458 11.448 38.18)"><tspan x="208.594" y="1904.272">130 W/m2</tspan></text><text xml:space="preserve" style="font-size:14.6667px;line-height:1.25;font-family:sans-serif;white-space:pre;shape-inside:url(#o)" transform="matrix(.26458 0 0 .26458 -4.6 6.291)"><tspan x="243.656" y="1950.887">direct: 60%</tspan></text><text xml:space="preserve" style="font-size:14.6667px;line-height:1.25;font-family:sans-serif;white-space:pre;shape-inside:url(#p)" transform="matrix(.26458 0 0 .26458 -7.418 -27.946)"><tspan x="111.281" y="2099.227">indirect:
</tspan><tspan x="111.281" y="2117.56">40%</tspan></text></g></svg>