<svg xmlns="http://www.w3.org/2000/svg" width="267.076" height="224.396" viewBox="0 0 70.664 59.372"><defs><path id="j" d="M115.161 998.584h102.772v33.6H115.161z"/><path id="i" d="M120.684 998.897h135.884v39.871H120.684z"/><path id="h" d="M26.877 933.433h80.93v47.082h-80.93z"/><path id="g" d="M220.345 984.746h54.818v31.405h-54.818z"/><path id="f" d="M102.18 996.668h51.874v22.816H102.18z"/><path id="e" d="M73.962 971.31h35.93v25.546h-35.93z"/><path id="c" d="M69.311 948.936h90.101v36.711H69.311z"/><path id="b" d="M35.241 948.774h107.976v36.648H35.241z"/><marker id="a" markerHeight="1" markerWidth="1" orient="auto-start-reverse" preserveAspectRatio="xMidYMid" refX="0" refY="0" style="overflow:visible" viewBox="0 0 1 1"><path d="M-.211-4.106 6.21-.894a1 1 90 0 1 0 1.788L-.21 4.106A1.236 1.236 31.717 0 1-2 3v-6A1.236 1.236 148.283 0 1-.211-4.106z" style="fill:context-stroke;fill-rule:evenodd;stroke:none" transform="scale(.7)"/></marker><marker id="d" markerHeight="1" markerWidth="1" orient="auto-start-reverse" preserveAspectRatio="xMidYMid" refX="0" refY="0" style="overflow:visible" viewBox="0 0 1 1"><path d="M-.211-4.106 6.21-.894a1 1 90 0 1 0 1.788L-.21 4.106A1.236 1.236 31.717 0 1-2 3v-6A1.236 1.236 148.283 0 1-.211-4.106z" style="fill:context-stroke;fill-rule:evenodd;stroke:none" transform="scale(.7)"/></marker></defs><path d="M14.831 212.347H85.23v59.107H14.831z" style="fill:#fff;stroke:#fff;stroke-width:.264583" transform="translate(-14.698 -212.214)"/><path d="M38.856 215.777v23.883h43.728" style="fill:none;stroke:#000;stroke-width:.264583px;stroke-linecap:butt;stroke-linejoin:miter;stroke-opacity:1;marker-start:url(#a);marker-end:url(#RoundedArrow)" transform="translate(-14.698 -212.214)"/><path d="M38.826 228.534s2.854 5.467 5.372 5.326c2.488-.139 3.49-3.638 4.689-5.822 1.585-2.884 3.193-6.462 6.21-6.597 2.917-.13 4.796 2.753 6.548 5.818 1.463 2.558 3.081 6.49 6.028 6.467 2.965-.023 5.961-6.6 5.961-6.6" style="fill:none;stroke:#ff8080;stroke-width:.264583px;stroke-linecap:butt;stroke-linejoin:miter;stroke-opacity:1" transform="translate(-14.698 -212.214)"/><path d="M28.45 233.81h14.238" style="fill:none;stroke:#b3b3b3;stroke-width:.264583px;stroke-linecap:butt;stroke-linejoin:miter;stroke-opacity:1" transform="translate(-14.698 -212.214)"/><path d="M28.366 221.667H53.38" style="fill:none;stroke:#b3b3b3;stroke-width:.264584px;stroke-linecap:butt;stroke-linejoin:miter;stroke-opacity:1" transform="translate(-14.698 -212.214)"/><path d="M29.732 222.762v9.863" style="fill:none;stroke:#000;stroke-width:.264583px;stroke-linecap:butt;stroke-linejoin:miter;stroke-opacity:1;marker-start:url(#a);marker-end:url(#RoundedArrow)" transform="translate(-14.698 -212.214)"/><text xml:space="preserve" style="font-size:14.6667px;line-height:1.25;font-family:sans-serif;white-space:pre;shape-inside:url(#b)" transform="matrix(.26458 0 0 .26458 -1.32 -231.686)"><tspan x="35.242" y="961.75">EV</tspan></text><text xml:space="preserve" style="font-size:14.6667px;line-height:1.25;font-family:sans-serif;white-space:pre;shape-inside:url(#c)" transform="matrix(.26458 0 0 .26458 -16.485 -238.127)"><tspan x="69.311" y="961.912">EVsup</tspan></text><path d="M38.973 263.871v-23.407" style="fill:none;stroke:#b3b3b3;stroke-width:.264582px;stroke-linecap:butt;stroke-linejoin:miter;stroke-opacity:1" transform="translate(-14.698 -212.214)"/><path d="M61.884 240.967v-11.971M73.947 254.92v-27.07" style="fill:none;stroke:#b3b3b3;stroke-width:.264583px;stroke-linecap:butt;stroke-linejoin:miter;stroke-opacity:1" transform="translate(-14.698 -212.214)"/><path d="M40.533 253.912h31.372" style="fill:none;stroke:#000;stroke-width:.264583px;stroke-linecap:butt;stroke-linejoin:miter;stroke-opacity:1;marker-start:url(#d);marker-end:url(#RoundedArrow-7)" transform="translate(-14.698 -212.214)"/><text xml:space="preserve" style="font-size:14.6667px;line-height:1.25;font-family:sans-serif;white-space:pre;shape-inside:url(#e);fill:#00f" transform="matrix(.26458 0 0 .26458 3.987 -229.555)"><tspan x="73.961" y="984.287">0</tspan></text><text xml:space="preserve" style="font-size:14.6667px;line-height:1.25;font-family:sans-serif;white-space:pre;shape-inside:url(#f);fill:#00f" transform="matrix(.26458 0 0 .26458 18.831 -235.358)"><tspan x="102.18" y="1009.645">1</tspan></text><text xml:space="preserve" style="font-size:14.6667px;line-height:1.25;font-family:sans-serif;white-space:pre;shape-inside:url(#g);fill:#00f" transform="matrix(.26458 0 0 .26458 -2.193 -233.105)"><tspan x="220.346" y="997.723">1.5</tspan></text><path d="M49.63 241.478V228.41" style="fill:none;stroke:#b3b3b3;stroke-width:.264583px;stroke-linecap:butt;stroke-linejoin:miter;stroke-opacity:1" transform="translate(-14.698 -212.214)"/><text xml:space="preserve" style="font-size:14.6667px;line-height:1.25;font-family:sans-serif;white-space:pre;shape-inside:url(#h);fill:#00f" transform="matrix(.26458 0 0 .26458 24.44 -219.36)"><tspan x="26.877" y="946.41">0.5</tspan></text><text xml:space="preserve" style="font-size:14.6667px;line-height:1.25;font-family:sans-serif;white-space:pre;shape-inside:url(#i)" transform="matrix(.26458 0 0 .26458 -.7 -221.847)"><tspan x="120.684" y="1011.873">EVcyc =1.5</tspan></text><text xml:space="preserve" style="font-size:14.6667px;line-height:1.25;font-family:sans-serif;white-space:pre;shape-inside:url(#j)" transform="matrix(.26458 0 0 .26458 -15.262 -212.466)"><tspan x="115.162" y="1011.561">EVstart =0.5</tspan></text></svg>