<svg xmlns="http://www.w3.org/2000/svg" width="548.943" height="495.897" viewBox="0 0 145.241 131.206"><defs><marker id="a" markerHeight="1" markerWidth="1" orient="auto-start-reverse" preserveAspectRatio="xMidYMid" refX="0" refY="0" style="overflow:visible" viewBox="0 0 1 1"><path d="M-.211-4.106 6.21-.894a1 1 90 0 1 0 1.788L-.21 4.106A1.236 1.236 31.717 0 1-2 3v-6A1.236 1.236 148.283 0 1-.211-4.106z" style="fill:context-stroke;fill-rule:evenodd;stroke:none" transform="scale(.7)"/></marker><marker id="b" markerHeight="1" markerWidth="1" orient="auto-start-reverse" preserveAspectRatio="xMidYMid" refX="0" refY="0" style="overflow:visible" viewBox="0 0 1 1"><path d="M-.211-4.106 6.21-.894a1 1 90 0 1 0 1.788L-.21 4.106A1.236 1.236 31.717 0 1-2 3v-6A1.236 1.236 148.283 0 1-.211-4.106z" style="fill:context-stroke;fill-rule:evenodd;stroke:none" transform="scale(.7)"/></marker><marker id="c" markerHeight="1" markerWidth="1" orient="auto-start-reverse" preserveAspectRatio="xMidYMid" refX="0" refY="0" style="overflow:visible" viewBox="0 0 1 1"><path d="M-.211-4.106 6.21-.894a1 1 90 0 1 0 1.788L-.21 4.106A1.236 1.236 31.717 0 1-2 3v-6A1.236 1.236 148.283 0 1-.211-4.106z" style="fill:context-stroke;fill-rule:evenodd;stroke:none" transform="scale(.7)"/></marker><marker id="d" markerHeight="1" markerWidth="1" orient="auto-start-reverse" preserveAspectRatio="xMidYMid" refX="0" refY="0" style="overflow:visible" viewBox="0 0 1 1"><path d="M-.211-4.106 6.21-.894a1 1 90 0 1 0 1.788L-.21 4.106A1.236 1.236 31.717 0 1-2 3v-6A1.236 1.236 148.283 0 1-.211-4.106z" style="fill:context-stroke;fill-rule:evenodd;stroke:none" transform="scale(.7)"/></marker><marker id="e" markerHeight="1" markerWidth="1" orient="auto-start-reverse" preserveAspectRatio="xMidYMid" refX="0" refY="0" style="overflow:visible" viewBox="0 0 1 1"><path d="M-.211-4.106 6.21-.894a1 1 90 0 1 0 1.788L-.21 4.106A1.236 1.236 31.717 0 1-2 3v-6A1.236 1.236 148.283 0 1-.211-4.106z" style="fill:context-stroke;fill-rule:evenodd;stroke:none" transform="scale(.7)"/></marker><marker id="f" markerHeight="1" markerWidth="1" orient="auto-start-reverse" preserveAspectRatio="xMidYMid" refX="0" refY="0" style="overflow:visible" viewBox="0 0 1 1"><path d="M-.211-4.106 6.21-.894a1 1 90 0 1 0 1.788L-.21 4.106A1.236 1.236 31.717 0 1-2 3v-6A1.236 1.236 148.283 0 1-.211-4.106z" style="fill:context-stroke;fill-rule:evenodd;stroke:none" transform="scale(.7)"/></marker><marker id="g" markerHeight="1" markerWidth="1" orient="auto-start-reverse" preserveAspectRatio="xMidYMid" refX="0" refY="0" style="overflow:visible" viewBox="0 0 1 1"><path d="M-.211-4.106 6.21-.894a1 1 90 0 1 0 1.788L-.21 4.106A1.236 1.236 31.717 0 1-2 3v-6A1.236 1.236 148.283 0 1-.211-4.106z" style="fill:context-stroke;fill-rule:evenodd;stroke:none" transform="scale(.7)"/></marker><marker id="h" markerHeight="1" markerWidth="1" orient="auto-start-reverse" preserveAspectRatio="xMidYMid" refX="0" refY="0" style="overflow:visible" viewBox="0 0 1 1"><path d="M-.211-4.106 6.21-.894a1 1 90 0 1 0 1.788L-.21 4.106A1.236 1.236 31.717 0 1-2 3v-6A1.236 1.236 148.283 0 1-.211-4.106z" style="fill:context-stroke;fill-rule:evenodd;stroke:none" transform="scale(.7)"/></marker><marker id="i" markerHeight="1" markerWidth="1" orient="auto-start-reverse" preserveAspectRatio="xMidYMid" refX="0" refY="0" style="overflow:visible" viewBox="0 0 1 1"><path d="M-.211-4.106 6.21-.894a1 1 90 0 1 0 1.788L-.21 4.106A1.236 1.236 31.717 0 1-2 3v-6A1.236 1.236 148.283 0 1-.211-4.106z" style="fill:context-stroke;fill-rule:evenodd;stroke:none" transform="scale(.7)"/></marker><marker id="j" markerHeight="1" markerWidth="1" orient="auto-start-reverse" preserveAspectRatio="xMidYMid" refX="0" refY="0" style="overflow:visible" viewBox="0 0 1 1"><path d="M-.211-4.106 6.21-.894a1 1 90 0 1 0 1.788L-.21 4.106A1.236 1.236 31.717 0 1-2 3v-6A1.236 1.236 148.283 0 1-.211-4.106z" style="fill:context-stroke;fill-rule:evenodd;stroke:none" transform="scale(.7)"/></marker><marker id="k" markerHeight="1" markerWidth="1" orient="auto-start-reverse" preserveAspectRatio="xMidYMid" refX="0" refY="0" style="overflow:visible" viewBox="0 0 1 1"><path d="M-.211-4.106 6.21-.894a1 1 90 0 1 0 1.788L-.21 4.106A1.236 1.236 31.717 0 1-2 3v-6A1.236 1.236 148.283 0 1-.211-4.106z" style="fill:context-stroke;fill-rule:evenodd;stroke:none" transform="scale(.7)"/></marker><marker id="l" markerHeight="1" markerWidth="1" orient="auto-start-reverse" preserveAspectRatio="xMidYMid" refX="0" refY="0" style="overflow:visible" viewBox="0 0 1 1"><path d="M-.211-4.106 6.21-.894a1 1 90 0 1 0 1.788L-.21 4.106A1.236 1.236 31.717 0 1-2 3v-6A1.236 1.236 148.283 0 1-.211-4.106z" style="fill:context-stroke;fill-rule:evenodd;stroke:none" transform="scale(.7)"/></marker><marker id="m" markerHeight="1" markerWidth="1" orient="auto-start-reverse" preserveAspectRatio="xMidYMid" refX="0" refY="0" style="overflow:visible" viewBox="0 0 1 1"><path d="M-.211-4.106 6.21-.894a1 1 90 0 1 0 1.788L-.21 4.106A1.236 1.236 31.717 0 1-2 3v-6A1.236 1.236 148.283 0 1-.211-4.106z" style="fill:context-stroke;fill-rule:evenodd;stroke:none" transform="scale(.7)"/></marker><marker id="n" markerHeight="1" markerWidth="1" orient="auto-start-reverse" preserveAspectRatio="xMidYMid" refX="0" refY="0" style="overflow:visible" viewBox="0 0 1 1"><path d="M-.211-4.106 6.21-.894a1 1 90 0 1 0 1.788L-.21 4.106A1.236 1.236 31.717 0 1-2 3v-6A1.236 1.236 148.283 0 1-.211-4.106z" style="fill:context-stroke;fill-rule:evenodd;stroke:none" transform="scale(.7)"/></marker><path id="z" d="M183.222 667.304h108.473v49.625H183.222z"/><path id="v" d="M232.998 693.148h86.641v36.168h-86.641z"/><path id="u" d="M480.524 615.399h71.612v46.321h-71.612z"/><path id="r" d="M77.347 662.314h84.737v47.255H77.347z"/><path id="q" d="M463.985 599.358h90.103v49.333h-90.103z"/><path id="p" d="M18.019 501.341h52.367v43.815H18.019z"/><path id="o" d="M477.343 130.608h70.287v45.627h-70.287z"/><path id="s" d="M77.347 662.314h84.737v47.255H77.347z"/><path id="t" d="M77.347 662.314h84.737v47.255H77.347z"/><path id="w" d="M232.998 693.148h86.641v36.168h-86.641z"/><path id="x" d="M232.998 693.148h86.641v36.168h-86.641z"/><path id="y" d="M232.998 693.148h86.641v36.168h-86.641z"/><path id="A" d="M232.998 693.148h86.641v36.168h-86.641z"/><path id="B" d="M232.998 693.148h86.641v36.168h-86.641z"/></defs><path d="M4.877 41.403h144.977v130.941H4.877z" style="fill:#fff;fill-opacity:1;stroke:#fff;stroke-width:.264583" transform="translate(-4.745 -41.271)"/><path d="M30.454 145.717h93.924v2.73H30.454zM30.454 102.451h93.924v8.477H30.454zM30.454 94.464h93.924v2.73H30.454zM30.454 116.184h93.924v2.73H30.454zM30.454 64.93h93.924v2.73H30.454z" style="fill:#5fbcd3;stroke:#5fbcd3;stroke-width:.264583" transform="translate(-4.745 -41.271)"/><path d="M30.454 64.93h2.536v83.518h-2.536zM121.842 64.93h2.536v83.518h-2.536zM67.534 64.93h2.536v83.518h-2.536zM84.762 64.93h2.536v83.518h-2.536zM91.434 64.93h2.536v83.518h-2.536zM60.862 64.93h2.536v83.518h-2.536zM104.914 64.93h2.536v83.518h-2.536zM111.586 64.93h2.536v83.518h-2.536zM47.382 64.93h2.536v83.518h-2.536zM40.71 64.93h2.536v83.518H40.71z" style="fill:#afdde9;fill-opacity:.8;stroke:#afdde9;stroke-width:.264583" transform="translate(-4.745 -41.271)"/><path d="M124.51 64.666h15.244M124.51 148.712h15.244M15.078 64.666h15.244M15.078 67.925h15.244M15.078 94.199h15.244M15.078 97.459h15.244M15.078 102.45h15.244M15.078 110.927h15.244M124.51 106.557h6.946M124.51 97.459h6.946M30.454 64.533V49.29M124.378 64.533V49.29" style="fill:none;stroke:#b3b3b3;stroke-width:.264583px;stroke-linecap:butt;stroke-linejoin:miter;stroke-opacity:1" transform="translate(-4.745 -41.271)"/><path d="M31.82 49.29h91.21" style="fill:none;stroke:#000;stroke-width:.264583;stroke-linecap:butt;stroke-linejoin:miter;stroke-opacity:1;marker-start:url(#a);marker-end:url(#marker5)" transform="translate(-4.745 -41.271)"/><path d="M139.754 66.027v81.302" style="fill:none;stroke:#000;stroke-width:.264583;stroke-linecap:butt;stroke-linejoin:miter;stroke-opacity:1;marker-start:url(#b);marker-end:url(#marker5-6)" transform="translate(-4.745 -41.271)"/><path d="M131.456 98.783v6.45" style="fill:none;stroke:#000;stroke-width:.264583;stroke-linecap:butt;stroke-linejoin:miter;stroke-opacity:1;marker-start:url(#c);marker-end:url(#marker5-6-3)" transform="translate(-4.745 -41.271)"/><path d="M15.078 103.732v5.914" style="fill:none;stroke:#000;stroke-width:.264583;stroke-linecap:butt;stroke-linejoin:miter;stroke-opacity:1;marker-start:url(#d);marker-end:url(#marker5-6-3-6)" transform="translate(-4.745 -41.271)"/><path d="M15.078 65.844v.903" style="fill:none;stroke:#000;stroke-width:.264583;stroke-linecap:butt;stroke-linejoin:miter;stroke-opacity:1;marker-start:url(#e);marker-end:url(#marker5-6-3-6-9-4)" transform="translate(-4.745 -41.271)"/><path d="M15.078 95.32v.903" style="fill:none;stroke:#000;stroke-width:.264583;stroke-linecap:butt;stroke-linejoin:miter;stroke-opacity:1;marker-start:url(#f);marker-end:url(#marker5-6-3-6-9-4-7)" transform="translate(-4.745 -41.271)"/><path d="M30.19 163.824V148.58M33.255 163.824V148.58" style="fill:none;stroke:#b3b3b3;stroke-width:.264583px;stroke-linecap:butt;stroke-linejoin:miter;stroke-opacity:1" transform="translate(-4.745 -41.271)"/><path d="M31.351 163.824h.742" style="fill:none;stroke:#000;stroke-width:.264583;stroke-linecap:butt;stroke-linejoin:miter;stroke-opacity:1;marker-start:url(#g);marker-end:url(#marker5-6-3-6-9-4-7-5)" transform="translate(-4.745 -41.271)"/><path d="M84.762 163.824V148.58M70.334 163.824V148.58" style="fill:none;stroke:#b3b3b3;stroke-width:.264583px;stroke-linecap:butt;stroke-linejoin:miter;stroke-opacity:1" transform="translate(-4.745 -41.271)"/><path d="M71.906 163.824H83.19" style="fill:none;stroke:#000;stroke-width:.264584;stroke-linecap:butt;stroke-linejoin:miter;stroke-opacity:1;marker-start:url(#h);marker-end:url(#marker5-6-3-6-9-4-7-5-4)" transform="translate(-4.745 -41.271)"/><path d="M60.597 163.824V148.58" style="fill:none;stroke:#b3b3b3;stroke-width:.264583px;stroke-linecap:butt;stroke-linejoin:miter;stroke-opacity:1" transform="translate(-4.745 -41.271)"/><path d="M42.04 163.824h7.096" style="fill:none;stroke:#000;stroke-width:.264584;stroke-linecap:butt;stroke-linejoin:miter;stroke-opacity:1;marker-start:url(#i);marker-end:url(#marker5-6-3-6-9-4-7-5-4-0)" transform="translate(-4.745 -41.271)"/><path d="M50.183 163.824V148.58M40.71 163.824V148.58M93.97 163.691v-15.243M104.65 163.824V148.58M114.122 163.691v-15.243" style="fill:none;stroke:#b3b3b3;stroke-width:.264583px;stroke-linecap:butt;stroke-linejoin:miter;stroke-opacity:1" transform="translate(-4.745 -41.271)"/><path d="M51.738 163.824h7.642" style="fill:none;stroke:#000;stroke-width:.264584;stroke-linecap:butt;stroke-linejoin:miter;stroke-opacity:1;marker-start:url(#j);marker-end:url(#marker5-6-3-6-9-4-7-5-4-0-1)" transform="translate(-4.745 -41.271)"/><path d="M61.814 163.824h7.207" style="fill:none;stroke:#000;stroke-width:.264584;stroke-linecap:butt;stroke-linejoin:miter;stroke-opacity:1;marker-start:url(#k);marker-end:url(#marker5-6-3-6-9-4-7-5-4-0-1-0)" transform="translate(-4.745 -41.271)"/><path d="M86.082 163.824h6.833" style="fill:none;stroke:#000;stroke-width:.264584;stroke-linecap:butt;stroke-linejoin:miter;stroke-opacity:1;marker-start:url(#l);marker-end:url(#marker5-6-3-6-9-4-7-5-4-0-1-0-2)" transform="translate(-4.745 -41.271)"/><path d="M95.445 163.824h7.794" style="fill:none;stroke:#000;stroke-width:.264584;stroke-linecap:butt;stroke-linejoin:miter;stroke-opacity:1;marker-start:url(#m);marker-end:url(#marker5-6-3-6-9-4-7-5-4-0-1-2)" transform="translate(-4.745 -41.271)"/><path d="M105.77 163.691h7.096" style="fill:none;stroke:#000;stroke-width:.264584;stroke-linecap:butt;stroke-linejoin:miter;stroke-opacity:1;marker-start:url(#n);marker-end:url(#marker5-6-3-6-9-4-7-5-4-0-10)" transform="translate(-4.745 -41.271)"/><text xml:space="preserve" style="font-size:14.6667px;line-height:1.25;font-family:sans-serif;white-space:pre;shape-inside:url(#o)" transform="matrix(.26458 0 0 .26458 -56.109 -31.317)"><tspan x="477.342" y="143.584">L1</tspan></text><text xml:space="preserve" style="font-size:14.6667px;line-height:1.25;font-family:sans-serif;white-space:pre;shape-inside:url(#p)" transform="matrix(.26458 0 0 .26458 -.098 -68.818)"><tspan x="18.02" y="514.318">D1</tspan></text><text xml:space="preserve" style="font-size:14.6667px;line-height:1.25;font-family:sans-serif;white-space:pre;shape-inside:url(#q)" transform="matrix(.26458 0 0 .26458 13.412 -96.648)"><tspan x="463.984" y="612.334">L2</tspan></text><text xml:space="preserve" style="font-size:14.6667px;line-height:1.25;font-family:sans-serif;white-space:pre;shape-inside:url(#r)" transform="matrix(.26458 0 0 .26458 3.948 -51.322)"><tspan x="77.348" y="675.291">H1</tspan></text><text xml:space="preserve" style="font-size:14.6667px;line-height:1.25;font-family:sans-serif;white-space:pre;shape-inside:url(#s);display:inline" transform="matrix(.26458 0 0 .26458 -17.11 -152.2)"><tspan x="77.348" y="675.291">H2</tspan></text><text xml:space="preserve" style="font-size:14.6667px;line-height:1.25;font-family:sans-serif;white-space:pre;shape-inside:url(#t);display:inline" transform="matrix(.26458 0 0 .26458 -17.052 -122.982)"><tspan x="77.348" y="675.291">H2</tspan></text><text xml:space="preserve" style="font-size:14.6667px;line-height:1.25;font-family:sans-serif;white-space:pre;shape-inside:url(#u)" transform="matrix(.26458 0 0 .26458 .615 -103.723)"><tspan x="480.523" y="628.375">L3</tspan></text><text xml:space="preserve" style="font-size:14.6667px;line-height:1.25;font-family:sans-serif;white-space:pre;shape-inside:url(#v)" transform="matrix(.26458 0 0 .26458 -23.502 -60.145)"><tspan x="232.998" y="706.125">L4</tspan></text><text xml:space="preserve" style="font-size:14.6667px;line-height:1.25;font-family:sans-serif;white-space:pre;shape-inside:url(#w);display:inline" transform="matrix(.26458 0 0 .26458 -3.506 -59.555)"><tspan x="232.998" y="706.125">L4</tspan></text><text xml:space="preserve" style="font-size:14.6667px;line-height:1.25;font-family:sans-serif;white-space:pre;shape-inside:url(#x);display:inline" transform="matrix(.26458 0 0 .26458 21.153 -59.564)"><tspan x="232.998" y="706.125">L4</tspan></text><text xml:space="preserve" style="font-size:14.6667px;line-height:1.25;font-family:sans-serif;white-space:pre;shape-inside:url(#y);display:inline" transform="matrix(.26458 0 0 .26458 40.281 -60.09)"><tspan x="232.998" y="706.125">L4</tspan></text><text xml:space="preserve" style="font-size:14.6667px;line-height:1.25;font-family:sans-serif;white-space:pre;shape-inside:url(#z)" transform="matrix(.26458 0 0 .26458 21.757 -58.329)"><tspan x="183.223" y="680.281">L5</tspan></text><text xml:space="preserve" style="font-size:14.6667px;line-height:1.25;font-family:sans-serif;white-space:pre;shape-inside:url(#A);display:inline" transform="matrix(.26458 0 0 .26458 -13.096 -65.66)"><tspan x="232.998" y="706.125">L6</tspan></text><text xml:space="preserve" style="font-size:14.6667px;line-height:1.25;font-family:sans-serif;white-space:pre;shape-inside:url(#B);display:inline" transform="matrix(.26458 0 0 .26458 31.247 -65.69)"><tspan x="232.998" y="706.125">L6</tspan></text><path d="M77.548 156.202v-49.513" style="fill:none;stroke:#b3b3b3;stroke-width:.264583px;stroke-linecap:butt;stroke-linejoin:miter;stroke-opacity:1" transform="translate(-4.745 -41.271)"/></svg>