<svg xmlns="http://www.w3.org/2000/svg" width="410.227" height="425.319" viewBox="0 0 108.539 112.532"><defs><marker id="a" markerHeight="1" markerWidth="1" orient="auto-start-reverse" preserveAspectRatio="xMidYMid" refX="0" refY="0" style="overflow:visible" viewBox="0 0 1 1"><path d="M-.211-4.106 6.21-.894a1 1 90 0 1 0 1.788L-.21 4.106A1.236 1.236 31.717 0 1-2 3v-6A1.236 1.236 148.283 0 1-.211-4.106z" style="fill:context-stroke;fill-rule:evenodd;stroke:none" transform="scale(.7)"/></marker><marker id="b" markerHeight="1" markerWidth="1" orient="auto-start-reverse" preserveAspectRatio="xMidYMid" refX="0" refY="0" style="overflow:visible" viewBox="0 0 1 1"><path d="M-.211-4.106 6.21-.894a1 1 90 0 1 0 1.788L-.21 4.106A1.236 1.236 31.717 0 1-2 3v-6A1.236 1.236 148.283 0 1-.211-4.106z" style="fill:context-stroke;fill-rule:evenodd;stroke:none" transform="scale(.7)"/></marker><marker id="c" markerHeight="1" markerWidth="1" orient="auto-start-reverse" preserveAspectRatio="xMidYMid" refX="0" refY="0" style="overflow:visible" viewBox="0 0 1 1"><path d="M-.211-4.106 6.21-.894a1 1 90 0 1 0 1.788L-.21 4.106A1.236 1.236 31.717 0 1-2 3v-6A1.236 1.236 148.283 0 1-.211-4.106z" style="fill:context-stroke;fill-rule:evenodd;stroke:none" transform="scale(.7)"/></marker><marker id="d" markerHeight="1" markerWidth="1" orient="auto-start-reverse" preserveAspectRatio="xMidYMid" refX="0" refY="0" style="overflow:visible" viewBox="0 0 1 1"><path d="M-.211-4.106 6.21-.894a1 1 90 0 1 0 1.788L-.21 4.106A1.236 1.236 31.717 0 1-2 3v-6A1.236 1.236 148.283 0 1-.211-4.106z" style="fill:context-stroke;fill-rule:evenodd;stroke:none" transform="scale(.7)"/></marker><marker id="e" markerHeight="1" markerWidth="1" orient="auto-start-reverse" preserveAspectRatio="xMidYMid" refX="0" refY="0" style="overflow:visible" viewBox="0 0 1 1"><path d="M-.211-4.106 6.21-.894a1 1 90 0 1 0 1.788L-.21 4.106A1.236 1.236 31.717 0 1-2 3v-6A1.236 1.236 148.283 0 1-.211-4.106z" style="fill:context-stroke;fill-rule:evenodd;stroke:none" transform="scale(.7)"/></marker><marker id="f" markerHeight="1" markerWidth="1" orient="auto-start-reverse" preserveAspectRatio="xMidYMid" refX="0" refY="0" style="overflow:visible" viewBox="0 0 1 1"><path d="M-.211-4.106 6.21-.894a1 1 90 0 1 0 1.788L-.21 4.106A1.236 1.236 31.717 0 1-2 3v-6A1.236 1.236 148.283 0 1-.211-4.106z" style="fill:context-stroke;fill-rule:evenodd;stroke:none" transform="scale(.7)"/></marker><path id="g" d="M156.625 1875.121h36.98v22.85h-36.98z"/><path id="i" d="M156.625 1875.121h36.98v22.85h-36.98z"/><path id="h" d="M156.625 1875.121h36.98v22.85h-36.98z"/><path id="j" d="M156.625 1875.121h36.98v22.85h-36.98z"/></defs><g transform="translate(-27.102 -393.402)"><path d="M27.234 393.535h108.275v112.268H27.234z" style="fill:#fff;fill-opacity:1;stroke:#fff;stroke-width:.264583"/><path d="M32.4 479.852h93.924v2.73H32.4zM32.4 436.585h93.924v8.477H32.4zM32.4 428.598h93.924v2.73H32.4zM32.4 450.319h93.924v2.73H32.4zM32.4 399.065h93.924v2.73H32.4z" style="fill:#5fbcd3;stroke:#5fbcd3;stroke-width:.264583"/><path d="M32.4 399.065h2.536v83.518H32.4zM123.788 399.065h2.536v83.518h-2.536zM69.48 399.065h2.536v83.518H69.48zM86.708 399.065h2.536v83.518h-2.536zM93.38 399.065h2.536v83.518H93.38zM62.808 399.065h2.536v83.518h-2.536zM106.86 399.065h2.536v83.518h-2.536zM113.532 399.065h2.536v83.518h-2.536zM49.328 399.065h2.536v83.518h-2.536zM42.656 399.065h2.536v83.518h-2.536z" style="fill:#afdde9;fill-opacity:.8;stroke:#afdde9;stroke-width:.264583"/><rect width="5.661" height="4.561" x="76.481" y="482.207" ry=".971" style="fill:#006680;stroke:#006680;stroke-width:.264583"/><rect width="5.661" height="4.561" x="55.839" y="482.472" ry=".971" style="fill:#006680;stroke:#006680;stroke-width:.264583"/><rect width="1.702" height="91.519" x="37.177" y="395.779" ry="0" style="opacity:.8;fill:#fca;fill-opacity:1;stroke:#fca;stroke-width:.264582;stroke-opacity:1"/><rect width="5.661" height="4.561" x="35.197" y="482.736" ry=".971" style="fill:#f95;stroke:#f95;stroke-width:.264583"/><rect width="5.661" height="4.561" x="35.197" y="426.544" ry=".971" style="fill:#f95;stroke:#f95;stroke-width:.264583"/><rect width="5.661" height="4.561" x="35.197" y="451.971" ry=".971" style="fill:#f95;stroke:#f95;stroke-width:.264583"/><rect width="5.661" height="4.561" x="35.197" y="395.779" ry=".971" style="fill:#f95;stroke:#f95;stroke-width:.264583"/><rect width="1.702" height="91.519" x="57.819" y="395.514" ry="0" style="opacity:.8;fill:#fca;fill-opacity:1;stroke:#fca;stroke-width:.264582;stroke-opacity:1"/><rect width="5.661" height="4.561" x="55.839" y="482.472" ry=".971" style="fill:#f95;stroke:#f95;stroke-width:.264583"/><rect width="5.661" height="4.561" x="55.839" y="426.279" ry=".971" style="fill:#f95;stroke:#f95;stroke-width:.264583"/><rect width="5.661" height="4.561" x="55.839" y="451.707" ry=".971" style="fill:#f95;stroke:#f95;stroke-width:.264583"/><rect width="5.661" height="4.561" x="55.839" y="395.514" ry=".971" style="fill:#f95;stroke:#f95;stroke-width:.264583"/><rect width="1.702" height="91.519" x="78.46" y="395.249" ry="0" style="opacity:.8;fill:#fca;fill-opacity:1;stroke:#fca;stroke-width:.264582;stroke-opacity:1"/><rect width="5.661" height="4.561" x="76.481" y="482.207" ry=".971" style="fill:#f95;stroke:#f95;stroke-width:.264583"/><rect width="5.661" height="4.561" x="76.481" y="426.014" ry=".971" style="fill:#f95;stroke:#f95;stroke-width:.264583"/><rect width="5.661" height="4.561" x="76.481" y="451.442" ry=".971" style="fill:#f95;stroke:#f95;stroke-width:.264583"/><rect width="5.661" height="4.561" x="76.481" y="395.249" ry=".971" style="fill:#f95;stroke:#f95;stroke-width:.264583"/><rect width="1.702" height="91.519" x="99.367" y="395.249" ry="0" style="opacity:.8;fill:#fca;fill-opacity:1;stroke:#fca;stroke-width:.264582;stroke-opacity:1"/><rect width="5.661" height="4.561" x="97.387" y="482.207" ry=".971" style="fill:#f95;stroke:#f95;stroke-width:.264583"/><rect width="5.661" height="4.561" x="97.387" y="426.014" ry=".971" style="fill:#f95;stroke:#f95;stroke-width:.264583"/><rect width="5.661" height="4.561" x="97.387" y="451.442" ry=".971" style="fill:#f95;stroke:#f95;stroke-width:.264583"/><rect width="5.661" height="4.561" x="97.387" y="395.249" ry=".971" style="fill:#f95;stroke:#f95;stroke-width:.264583"/><rect width="1.702" height="91.519" x="120.008" y="394.985" ry="0" style="opacity:.8;fill:#fca;fill-opacity:1;stroke:#fca;stroke-width:.264582;stroke-opacity:1"/><rect width="5.661" height="4.561" x="118.029" y="481.942" ry=".971" style="fill:#f95;stroke:#f95;stroke-width:.264583"/><rect width="5.661" height="4.561" x="118.029" y="425.75" ry=".971" style="fill:#f95;stroke:#f95;stroke-width:.264583"/><rect width="5.661" height="4.561" x="118.029" y="451.177" ry=".971" style="fill:#f95;stroke:#f95;stroke-width:.264583"/><rect width="5.661" height="4.561" x="118.029" y="394.985" ry=".971" style="fill:#f95;stroke:#f95;stroke-width:.264583"/><path d="M97.387 484.487v10.107M103.18 484.487v10.107M121.767 481.81v12.784M119.876 481.81v12.784M58.802 487.165v10.106M79.179 486.9v10.107" style="fill:none;stroke:#ccc;stroke-width:.264583px;stroke-linecap:butt;stroke-linejoin:miter;stroke-opacity:1"/><path d="M59.8 497.271H78.12" style="fill:none;stroke:#000;stroke-width:.264583;stroke-linecap:butt;stroke-linejoin:miter;stroke-opacity:1;marker-start:url(#a);marker-end:url(#a)"/><path d="M98.618 494.594h3.238" style="fill:none;stroke:#000;stroke-width:.264583;stroke-linecap:butt;stroke-linejoin:miter;stroke-opacity:1;marker-start:url(#b);marker-end:url(#b)"/><path d="M115.253 494.594h3.238" style="fill:none;stroke:#000;stroke-width:.264583;stroke-linecap:butt;stroke-linejoin:miter;stroke-opacity:1;marker-end:url(#c)"/><path d="M126.39 494.594h-3.238" style="fill:none;stroke:#000;stroke-width:.264583;stroke-linecap:butt;stroke-linejoin:miter;stroke-opacity:1;marker-end:url(#d)"/><path d="m45.445 495.036-3.737-6.496" style="fill:none;stroke:#000;stroke-width:.264583;stroke-linecap:butt;stroke-linejoin:miter;stroke-opacity:1;marker-end:url(#e)"/><path d="m47.497 494.808 7.492-6.533" style="fill:none;stroke:#000;stroke-width:.264583;stroke-linecap:butt;stroke-linejoin:miter;stroke-opacity:1;marker-end:url(#f)"/><text xml:space="preserve" style="font-size:14.6667px;line-height:1.25;font-family:sans-serif;white-space:pre;shape-inside:url(#g)" transform="matrix(.26458 0 0 .26458 23.418 1.582)"><tspan x="156.625" y="1888.098">rod2</tspan></text><text xml:space="preserve" style="font-size:14.6667px;line-height:1.25;font-family:sans-serif;white-space:pre;shape-inside:url(#h);display:inline" transform="matrix(.26458 0 0 .26458 55.095 -.396)"><tspan x="156.625" y="1888.098">rod3</tspan></text><text xml:space="preserve" style="font-size:14.6667px;line-height:1.25;font-family:sans-serif;white-space:pre;shape-inside:url(#i);display:inline" transform="matrix(.26458 0 0 .26458 1.49 -1.096)"><tspan x="156.625" y="1888.098">rod1</tspan></text><text xml:space="preserve" style="font-size:14.6667px;line-height:1.25;font-family:sans-serif;white-space:pre;shape-inside:url(#j);display:inline" transform="matrix(.26458 0 0 .26458 75.598 -.565)"><tspan x="156.625" y="1888.098">rod4</tspan></text></g></svg>