<svg xmlns="http://www.w3.org/2000/svg" width="313.216" height="350.564" viewBox="0 0 82.872 92.753"><defs><path id="e" d="M17.622 810.846h120.042v49.985H17.622z"/><path id="c" d="M320.399 920.172h144.323v54.388H320.399z"/><path id="b" d="M376.618 761.767h61.995v35.878h-61.995z"/><marker id="d" markerHeight="1" markerWidth="1" orient="auto-start-reverse" preserveAspectRatio="xMidYMid" refX="0" refY="0" style="overflow:visible" viewBox="0 0 1 1"><path d="M-.211-4.106 6.21-.894a1 1 90 0 1 0 1.788L-.21 4.106A1.236 1.236 31.717 0 1-2 3v-6A1.236 1.236 148.283 0 1-.211-4.106z" style="fill:context-stroke;fill-rule:evenodd;stroke:none" transform="scale(0.7)"/></marker><marker id="a" markerHeight="1" markerWidth="1" orient="auto-start-reverse" preserveAspectRatio="xMidYMid" refX="0" refY="0" style="overflow:visible" viewBox="0 0 1 1"><path d="M-.211-4.106 6.21-.894a1 1 90 0 1 0 1.788L-.21 4.106A1.236 1.236 31.717 0 1-2 3v-6A1.236 1.236 148.283 0 1-.211-4.106z" style="fill:context-stroke;fill-rule:evenodd;stroke:none" transform="scale(0.7)"/></marker></defs><g transform="translate(-10.274055,-194.35382)"><path d="M10.406 194.486h82.607v92.489H10.406z" style="fill:#fff;fill-opacity:1;stroke:#fff;stroke-width:.264583;stroke-dasharray:2,.999995;stroke-dashoffset:0;stroke-opacity:1"/><path d="M14.641 278.333h62.395v4.68H14.641z" style="fill:#999;fill-opacity:1;stroke:#999;stroke-width:.264582"/><path d="M-278.333 43.498h35.277v4.68h-35.277z" style="fill:#999;fill-opacity:1;stroke:#999;stroke-width:.264583" transform="rotate(-90)"/><circle cx="45.838" cy="234.912" r="8.418" style="fill:#999;fill-opacity:1;stroke:#999;stroke-width:.264583"/><circle cx="45.838" cy="234.912" r="5.025" style="fill:#f9f9f9;fill-opacity:1;stroke:#999;stroke-width:.264583"/><circle cx="45.838" cy="234.912" r="3.969" style="fill:#ccc;fill-opacity:1;stroke:#ccc;stroke-width:.264583"/><path d="M45.838 233.622h19.723v2.58H45.838z" style="fill:#ccc;fill-opacity:1;stroke:#ccc;stroke-width:.264582;stroke-opacity:1"/><path d="M-260.229 65.826h50.636v4.68h-50.636z" style="fill:#ccc;fill-opacity:1;stroke:#ccc;stroke-width:.264581;stroke-opacity:1" transform="rotate(-90)"/><path d="M45.838 234.912v-32.467M70.507 234.912l.024-32.467" style="fill:none;stroke:#000;stroke-width:.264583px;stroke-linecap:butt;stroke-linejoin:miter;stroke-dasharray:2,1;stroke-dashoffset:0;stroke-opacity:1"/><path d="M47.153 202.445h22.104" style="fill:none;stroke:#000;stroke-width:.264583px;stroke-linecap:butt;stroke-linejoin:miter;stroke-opacity:1;marker-start:url(#a);marker-end:url(#a)"/><text xml:space="preserve" style="font-size:14.6667px;line-height:1.25;font-family:sans-serif;white-space:pre;shape-inside:url(#b);display:inline" transform="matrix(0.26458333,0,0,0.26458333,-44.181671,-4.045707)"><tspan x="376.617" y="774.744">D1</tspan></text><text xml:space="preserve" style="font-size:14.6667px;line-height:1.25;font-family:sans-serif;white-space:pre;shape-inside:url(#c);display:inline" transform="matrix(0.26458333,0,0,0.26458333,-9.2918248,2.3195035)"><tspan x="320.398" y="933.148">load
</tspan><tspan x="320.398" y="951.482">(M kg)</tspan></text><path d="m68.71 246.037 6.688 4.103" style="fill:none;stroke:#000;stroke-width:.264583px;stroke-linecap:butt;stroke-linejoin:miter;stroke-opacity:1;marker-start:url(#a)"/><path d="M35.054 235.93s.006-3.296.593-4.796c.515-1.314 1.457-2.456 2.47-3.439.678-.658 2.352-1.586 2.352-1.586" style="fill:none;stroke:#000;stroke-width:.264583px;stroke-linecap:butt;stroke-linejoin:miter;stroke-opacity:1;marker-start:url(#d);marker-end:url(#d)"/><text xml:space="preserve" style="font-size:14.6667px;line-height:1.25;font-family:sans-serif;white-space:pre;shape-inside:url(#e)" transform="matrix(0.26458333,0,0,0.26458333,15.483843,8.2539523)"><tspan x="17.621" y="823.822">torque
</tspan><tspan x="17.621" y="842.156">(T N.m)</tspan></text></g></svg>