<svg xmlns="http://www.w3.org/2000/svg" xml:space="preserve" width="447.833" height="393.801" viewBox="0 0 118.489 104.193"><defs><path id="c" d="M143.596 621.71H272.3v25.888H143.596z"/><path id="b" d="M327.265 794.914h182.231v27.824H327.265z"/><marker id="a" markerHeight="1" markerWidth="1" orient="auto-start-reverse" preserveAspectRatio="xMidYMid" refX="0" refY="0" style="overflow:visible" viewBox="0 0 1 1"><path d="M3-3 0 0l3 3" style="fill:none;stroke:context-stroke;stroke-width:1;stroke-linecap:butt" transform="rotate(180 .125 0)"/></marker></defs><path d="M14.637 150.031h118.225V253.96H14.637z" style="fill:#fff;stroke:#fff;stroke-width:.264583" transform="translate(-14.504 -149.899)"/><g fill="none" stroke="#4682b4"><path stroke-width=".26458" d="m65.058 68.414.15.005a7 7 0 0 0 .915-.22 11 11 0 0 0 1.133-.422 13 13 0 0 0 1.553-.8 18 18 0 0 0 1.665-1.132l-.083-1.223a18 18 0 0 0-1.805-.895 13 13 0 0 0-1.646-.58 11 11 0 0 0-1.18-.265 7 7 0 0 0-.937-.093l-.148.026a.53.53 0 0 1-.608-.414l-.177-.85a.53.53 0 0 1 .393-.622l.146-.035a7 7 0 0 0 .822-.459 11 11 0 0 0 .977-.713 13 13 0 0 0 1.28-1.188 18 18 0 0 0 1.297-1.54l-.41-1.155a18 18 0 0 0-1.979-.375 13 13 0 0 0-1.742-.114 11 11 0 0 0-1.208.063 7 7 0 0 0-.927.163l-.136.065a.53.53 0 0 1-.696-.235l-.4-.77a.53.53 0 0 1 .21-.705l.132-.074a7 7 0 0 0 .667-.663 11 11 0 0 0 .749-.95 13 13 0 0 0 .91-1.49 18 18 0 0 0 .836-1.833l-.707-1a18 18 0 0 0-2.007.172 13 13 0 0 0-1.708.36 11 11 0 0 0-1.146.387 7 7 0 0 0-.849.407l-.113.099a.53.53 0 0 1-.734-.038l-.593-.634a.53.53 0 0 1 .013-.735l.106-.107a7 7 0 0 0 .464-.819 11 11 0 0 0 .464-1.116 13 13 0 0 0 .476-1.68 18 18 0 0 0 .309-1.99l-.95-.774a18 18 0 0 0-1.886.708 13 13 0 0 0-1.549.807 11 11 0 0 0-.998.682 7 7 0 0 0-.708.62l-.082.126a.53.53 0 0 1-.717.162l-.742-.45a.53.53 0 0 1-.186-.712l.073-.131a7 7 0 0 0 .226-.914 11 11 0 0 0 .146-1.2 13 13 0 0 0 .005-1.746 18 18 0 0 0-.24-2l-1.124-.488a18 18 0 0 0-1.624 1.19 13 13 0 0 0-1.274 1.195 11 11 0 0 0-.777.926 7 7 0 0 0-.514.789l-.045.143a.53.53 0 0 1-.647.349l-.836-.234a.53.53 0 0 1-.372-.635l.036-.146a7 7 0 0 0-.029-.94 11 11 0 0 0-.183-1.196 13 13 0 0 0-.467-1.682 18 18 0 0 0-.77-1.862l-1.214-.166a18 18 0 0 0-1.244 1.584 13 13 0 0 0-.903 1.494 11 11 0 0 0-.5 1.102 7 7 0 0 0-.28.898l-.006.15a.53.53 0 0 1-.529.51h-.868a.53.53 0 0 1-.528-.51l-.006-.15a7 7 0 0 0-.281-.898 11 11 0 0 0-.5-1.102 13 13 0 0 0-.903-1.494 18 18 0 0 0-1.243-1.584l-1.214.166a18 18 0 0 0-.77 1.862 13 13 0 0 0-.467 1.682 11 11 0 0 0-.183 1.195 7 7 0 0 0-.03.941l.036.146a.53.53 0 0 1-.371.635l-.836.234a.53.53 0 0 1-.647-.35l-.045-.142a7 7 0 0 0-.514-.79 11 11 0 0 0-.778-.925 13 13 0 0 0-1.273-1.195 18 18 0 0 0-1.625-1.19l-1.124.488a18 18 0 0 0-.239 2 13 13 0 0 0 .005 1.746 11 11 0 0 0 .145 1.2 7 7 0 0 0 .226.914l.074.131a.53.53 0 0 1-.186.711l-.742.451a.53.53 0 0 1-.717-.162l-.083-.125a7 7 0 0 0-.707-.621 11 11 0 0 0-.999-.682 13 13 0 0 0-1.548-.807 18 18 0 0 0-1.886-.708l-.95.773a18 18 0 0 0 .309 1.99 13 13 0 0 0 .475 1.68 11 11 0 0 0 .465 1.117 7 7 0 0 0 .464.82l.106.106a.53.53 0 0 1 .012.735l-.592.634a.53.53 0 0 1-.734.038l-.114-.099a7 7 0 0 0-.848-.407 11 11 0 0 0-1.146-.387 13 13 0 0 0-1.709-.36 18 18 0 0 0-2.006-.172l-.707 1a18 18 0 0 0 .835 1.834 13 13 0 0 0 .91 1.49 11 11 0 0 0 .75.95 7 7 0 0 0 .667.662l.131.074a.53.53 0 0 1 .21.705l-.399.77a.53.53 0 0 1-.697.235l-.136-.065a7 7 0 0 0-.927-.163 11 11 0 0 0-1.207-.063 13 13 0 0 0-1.743.114 18 18 0 0 0-1.978.375l-.41 1.155a18 18 0 0 0 1.298 1.54 13 13 0 0 0 1.279 1.188 11 11 0 0 0 .977.713 7 7 0 0 0 .822.459l.146.035a.53.53 0 0 1 .392.622l-.176.85a.53.53 0 0 1-.608.414l-.148-.026a7 7 0 0 0-.937.093 11 11 0 0 0-1.18.265 13 13 0 0 0-1.647.58 18 18 0 0 0-1.804.895l-.084 1.223a18 18 0 0 0 1.666 1.132 13 13 0 0 0 1.552.8 11 11 0 0 0 1.133.423 7 7 0 0 0 .916.22l.15-.006a.53.53 0 0 1 .546.493l.059.866a.53.53 0 0 1-.474.562l-.15.016a7 7 0 0 0-.876.342 11 11 0 0 0-1.065.573 13 13 0 0 0-1.429 1.003 18 18 0 0 0-1.496 1.35l.25 1.199a18 18 0 0 0 1.909.64 13 13 0 0 0 1.71.352 11 11 0 0 0 1.205.101 7 7 0 0 0 .94-.035l.144-.046a.53.53 0 0 1 .659.328l.29.817a.53.53 0 0 1-.304.67l-.14.055a7 7 0 0 0-.752.566 11 11 0 0 0-.87.84 13 13 0 0 0-1.106 1.351 18 18 0 0 0-1.076 1.702l.563 1.088a18 18 0 0 0 2.012.102 13 13 0 0 0 1.742-.123 11 11 0 0 0 1.187-.228 7 7 0 0 0 .896-.287l.126-.083a.53.53 0 0 1 .723.138l.5.709a.53.53 0 0 1-.112.726l-.12.091a7 7 0 0 0-.571.748 11 11 0 0 0-.613 1.043 13 13 0 0 0-.7 1.6 18 18 0 0 0-.577 1.93l.837.895a18 18 0 0 0 1.964-.444 13 13 0 0 0 1.644-.59 11 11 0 0 0 1.083-.539 7 7 0 0 0 .785-.519l.099-.113a.53.53 0 0 1 .732-.062l.673.547a.53.53 0 0 1 .088.73l-.09.12a7 7 0 0 0-.349.875 11 11 0 0 0-.308 1.17 13 13 0 0 0-.242 1.728 18 18 0 0 0-.035 2.014l1.047.637a18 18 0 0 0 1.771-.958 13 13 0 0 0 1.424-1.01 11 11 0 0 0 .897-.812 7 7 0 0 0 .616-.712l.065-.135a.53.53 0 0 1 .688-.258l.796.346a.53.53 0 0 1 .282.679l-.055.14a7 7 0 0 0-.1.936 11 11 0 0 0 .02 1.209 13 13 0 0 0 .233 1.73 18 18 0 0 0 .509 1.949l1.18.33a18 18 0 0 0 1.448-1.4 13 13 0 0 0 1.098-1.357 11 11 0 0 0 .645-1.023 7 7 0 0 0 .4-.852l.026-.148a.53.53 0 0 1 .594-.434l.86.118a.53.53 0 0 1 .454.578l-.015.15a7 7 0 0 0 .156.928 11 11 0 0 0 .345 1.16 13 13 0 0 0 .691 1.602 18 18 0 0 0 1.017 1.74h1.225a18 18 0 0 0 1.016-1.74 13 13 0 0 0 .692-1.603 11 11 0 0 0 .344-1.16 7 7 0 0 0 .157-.927l-.015-.15a.53.53 0 0 1 .454-.578l.86-.118a.53.53 0 0 1 .593.434l.026.148a7 7 0 0 0 .401.852 11 11 0 0 0 .645 1.023 13 13 0 0 0 1.098 1.357 18 18 0 0 0 1.448 1.4l1.18-.33a18 18 0 0 0 .509-1.949 13 13 0 0 0 .233-1.73 11 11 0 0 0 .02-1.21 7 7 0 0 0-.1-.935l-.055-.14a.53.53 0 0 1 .281-.68l.796-.345a.53.53 0 0 1 .689.258l.065.135a7 7 0 0 0 .616.712 11 11 0 0 0 .896.811 13 13 0 0 0 1.424 1.011 18 18 0 0 0 1.772.958l1.047-.637a18 18 0 0 0-.035-2.014 13 13 0 0 0-.242-1.729 11 11 0 0 0-.308-1.17 7 7 0 0 0-.349-.874l-.09-.12a.53.53 0 0 1 .087-.73l.674-.547a.53.53 0 0 1 .732.062l.099.113a7 7 0 0 0 .785.52 11 11 0 0 0 1.083.539 13 13 0 0 0 1.643.589 18 18 0 0 0 1.965.444l.836-.895a18 18 0 0 0-.577-1.93 13 13 0 0 0-.7-1.6 11 11 0 0 0-.612-1.043 7 7 0 0 0-.571-.748l-.12-.09a.53.53 0 0 1-.112-.727l.5-.71a.53.53 0 0 1 .722-.137l.126.083a7 7 0 0 0 .896.287 11 11 0 0 0 1.188.228 13 13 0 0 0 1.742.123 18 18 0 0 0 2.011-.102l.564-1.088a18 18 0 0 0-1.076-1.702 13 13 0 0 0-1.106-1.352 11 11 0 0 0-.87-.839 7 7 0 0 0-.753-.566l-.14-.055a.53.53 0 0 1-.304-.67l.291-.817a.53.53 0 0 1 .658-.328l.144.046a7 7 0 0 0 .94.035 11 11 0 0 0 1.205-.101 13 13 0 0 0 1.71-.351 18 18 0 0 0 1.91-.641l.25-1.2a18 18 0 0 0-1.496-1.349 13 13 0 0 0-1.43-1.003 11 11 0 0 0-1.064-.573 7 7 0 0 0-.877-.342l-.15-.016a.53.53 0 0 1-.473-.562l.06-.866a.53.53 0 0 1 .545-.493z"/><path stroke-width=".26458" d="M41.676 66.432h-1.484a.53.53 0 0 1-.458-.265 2.7 2.7 0 0 0-.325-.447.53.53 0 0 1-.11-.518l.458-1.41a.53.53 0 0 0-.34-.668l-1.006-.327a.53.53 0 0 0-.667.34l-.459 1.411a.53.53 0 0 1-.393.354 2.7 2.7 0 0 0-.526.171.53.53 0 0 1-.526-.055l-1.2-.872a.53.53 0 0 0-.74.117l-.622.856a.53.53 0 0 0 .117.74l1.2.871a.53.53 0 0 1 .216.484 2.7 2.7 0 0 0 0 .553.53.53 0 0 1-.215.483l-1.2.872a.53.53 0 0 0-.118.74l.622.856a.53.53 0 0 0 .74.117l1.2-.872a.53.53 0 0 1 .526-.056 2.7 2.7 0 0 0 .526.171.53.53 0 0 1 .393.354l.459 1.411a.53.53 0 0 0 .667.34l1.006-.327a.53.53 0 0 0 .34-.667l-.458-1.41a.53.53 0 0 1 .11-.518 2.7 2.7 0 0 0 .325-.448.53.53 0 0 1 .458-.264h1.484a.53.53 0 0 0 .529-.53v-1.058a.53.53 0 0 0-.53-.53zM58.625 62.221a21.83 21.83 0 0 0-9.626-13.249 2.646 2.646 0 0 0-3.917 1.427l-2.541 7.82a2.65 2.65 0 0 0 .745 2.784 8.7 8.7 0 0 1 2.132 2.934 2.65 2.65 0 0 0 2.417 1.569h8.222a2.646 2.646 0 0 0 2.568-3.285zM38.977 45.716a21.83 21.83 0 0 0-15.575 5.06 2.646 2.646 0 0 0 .147 4.167l6.652 4.833a2.65 2.65 0 0 0 2.878.152 8.7 8.7 0 0 1 3.448-1.121 2.65 2.65 0 0 0 2.24-1.814l2.54-7.82a2.646 2.646 0 0 0-2.33-3.457ZM17.208 59.302a21.83 21.83 0 0 0 0 16.376 2.646 2.646 0 0 0 4.008 1.148l6.652-4.833a2.65 2.65 0 0 0 1.033-2.69 8.7 8.7 0 0 1 0-3.626 2.65 2.65 0 0 0-1.033-2.69l-6.652-4.833a2.646 2.646 0 0 0-4.008 1.148zM23.402 84.204a21.83 21.83 0 0 0 15.575 5.06 2.646 2.646 0 0 0 2.33-3.457l-2.54-7.82a2.65 2.65 0 0 0-2.24-1.814 8.7 8.7 0 0 1-3.448-1.12 2.65 2.65 0 0 0-2.878.151l-6.652 4.833a2.646 2.646 0 0 0-.147 4.167zM49 86.008a21.83 21.83 0 0 0 9.625-13.249 2.646 2.646 0 0 0-2.568-3.284h-8.222a2.65 2.65 0 0 0-2.417 1.569 8.7 8.7 0 0 1-2.132 2.933 2.65 2.65 0 0 0-.745 2.784l2.541 7.82a2.646 2.646 0 0 0 3.917 1.427z"/></g><path fill="none" stroke="violet" stroke-width=".26458" d="m60.51 34.473-.155.018a2 2 0 0 0-.48.116 8 8 0 0 0-.9.4 9.8 9.8 0 0 0-1.647 1.08 15 15 0 0 0-1.782 1.697l.273 1.139a15 15 0 0 0 2.358.705 9.8 9.8 0 0 0 1.957.215 8 8 0 0 0 .984-.052 2 2 0 0 0 .48-.114l.147-.054a.53.53 0 0 1 .67.29l.398.938a.53.53 0 0 1-.258.684l-.141.067a2 2 0 0 0-.416.266 8 8 0 0 0-.722.67 9.8 9.8 0 0 0-1.207 1.556 15 15 0 0 0-1.135 2.184l.628.989a15 15 0 0 0 2.46-.099 9.8 9.8 0 0 0 1.92-.432 8 8 0 0 0 .915-.368 2 2 0 0 0 .417-.264l.12-.099a.53.53 0 0 1 .73.057l.68.758a.53.53 0 0 1-.023.73l-.111.11a2 2 0 0 0-.307.386 8 8 0 0 0-.465.869 9.8 9.8 0 0 0-.637 1.863 15 15 0 0 0-.364 2.434l.915.731a15 15 0 0 0 2.294-.891 9.8 9.8 0 0 0 1.677-1.033 8 8 0 0 0 .745-.645 2 2 0 0 0 .308-.385l.083-.133a.53.53 0 0 1 .707-.183l.89.496a.53.53 0 0 1 .216.699l-.07.14a2 2 0 0 0-.165.464 8 8 0 0 0-.157.973 9.8 9.8 0 0 0 .002 1.97 15 15 0 0 0 .446 2.42l1.103.394a15 15 0 0 0 1.88-1.589 9.8 9.8 0 0 0 1.25-1.52 8 8 0 0 0 .496-.853 2 2 0 0 0 .167-.464l.035-.152a.53.53 0 0 1 .61-.403l1.002.18a.53.53 0 0 1 .43.59l-.02.156a2 2 0 0 0-.005.493 8 8 0 0 0 .167.97 9.8 9.8 0 0 0 .642 1.863 15 15 0 0 0 1.208 2.144l1.171.015a15 15 0 0 0 1.262-2.113 9.8 9.8 0 0 0 .689-1.845 8 8 0 0 0 .192-.966 2 2 0 0 0 .007-.493l-.016-.156a.53.53 0 0 1 .446-.579l1.006-.155a.53.53 0 0 1 .6.419l.03.153a2 2 0 0 0 .156.468 8 8 0 0 0 .473.864 9.8 9.8 0 0 0 1.211 1.553 15 15 0 0 0 1.84 1.636l1.112-.367a15 15 0 0 0 .508-2.408 9.8 9.8 0 0 0 .052-1.968 8 8 0 0 0-.132-.977 2 2 0 0 0-.153-.468l-.067-.142a.53.53 0 0 1 .234-.693l.902-.473a.53.53 0 0 1 .703.201l.079.135a2 2 0 0 0 .298.392 8 8 0 0 0 .729.664 9.8 9.8 0 0 0 1.65 1.075 15 15 0 0 0 2.27.95l.933-.707a15 15 0 0 0-.301-2.443 9.8 9.8 0 0 0-.59-1.879 8 8 0 0 0-.442-.88 2 2 0 0 0-.297-.394l-.109-.112a.53.53 0 0 1-.004-.731l.7-.74a.53.53 0 0 1 .73-.039l.118.102a2 2 0 0 0 .41.274 8 8 0 0 0 .905.391 9.8 9.8 0 0 0 1.909.482 15 15 0 0 0 2.456.161l.653-.972a15 15 0 0 0-1.078-2.212 9.8 9.8 0 0 0-1.168-1.586 8 8 0 0 0-.704-.69 2 2 0 0 0-.41-.275l-.138-.071a.53.53 0 0 1-.241-.69l.42-.928a.53.53 0 0 1 .679-.273l.145.058a2 2 0 0 0 .477.127 8 8 0 0 0 .982.076 9.8 9.8 0 0 0 1.962-.165 15 15 0 0 0 2.375-.645l.302-1.131a15 15 0 0 0-1.738-1.743 9.8 9.8 0 0 0-1.62-1.12 8 8 0 0 0-.889-.424 2 2 0 0 0-.476-.128l-.155-.022a.53.53 0 0 1-.452-.574l.097-1.014a.53.53 0 0 1 .553-.478l.156.007a2 2 0 0 0 .492-.035 8 8 0 0 0 .954-.247 9.8 9.8 0 0 0 1.802-.793 15 15 0 0 0 2.037-1.381l-.081-1.169a15 15 0 0 0-2.21-1.083 9.8 9.8 0 0 0-1.896-.534 8 8 0 0 0-.979-.111 2 2 0 0 0-.492.033l-.153.03a.53.53 0 0 1-.614-.397l-.238-.99a.53.53 0 0 1 .368-.632l.15-.044a2 2 0 0 0 .454-.193 8 8 0 0 0 .822-.543 9.8 9.8 0 0 0 1.447-1.336 15 15 0 0 0 1.479-1.967l-.457-1.079a15 15 0 0 0-2.442-.307 9.8 9.8 0 0 0-1.966.11 8 8 0 0 0-.962.213 2 2 0 0 0-.455.191l-.136.078a.53.53 0 0 1-.709-.176l-.546-.86a.53.53 0 0 1 .142-.717l.128-.09a2 2 0 0 0 .367-.33 8 8 0 0 0 .6-.78 9.8 9.8 0 0 0 .936-1.733 15 15 0 0 0 .76-2.341l-.783-.872a15 15 0 0 0-2.41.502 9.8 9.8 0 0 0-1.823.743 8 8 0 0 0-.841.513 2 2 0 0 0-.368.329l-.103.117a.53.53 0 0 1-.728.065l-.796-.636a.53.53 0 0 1-.098-.724l.092-.127a2 2 0 0 0 .24-.431 8 8 0 0 0 .314-.934 9.8 9.8 0 0 0 .322-1.942 15 15 0 0 0-.042-2.461l-1.023-.57a15 15 0 0 0-2.115 1.257 9.8 9.8 0 0 0-1.484 1.294 8 8 0 0 0-.629.759 2 2 0 0 0-.24.43l-.06.145a.53.53 0 0 1-.668.297l-.96-.343a.53.53 0 0 1-.327-.653l.046-.15a2 2 0 0 0 .086-.485 8 8 0 0 0-.005-.986 9.8 9.8 0 0 0-.326-1.942 15 15 0 0 0-.839-2.314l-1.153-.207a15 15 0 0 0-1.593 1.876 9.8 9.8 0 0 0-.982 1.706 8 8 0 0 0-.349.922 2 2 0 0 0-.088.485l-.01.156a.53.53 0 0 1-.535.498l-1.018-.013a.53.53 0 0 1-.522-.511l-.006-.156a2 2 0 0 0-.076-.488 8 8 0 0 0-.325-.93 9.8 9.8 0 0 0-.939-1.73 15 15 0 0 0-1.544-1.917l-1.158.178a15 15 0 0 0-.897 2.292 9.8 9.8 0 0 0-.376 1.933 8 8 0 0 0-.03.985 2 2 0 0 0 .074.488l.042.15a.53.53 0 0 1-.344.645l-.968.318a.53.53 0 0 1-.66-.314l-.056-.146a2 2 0 0 0-.23-.436 8 8 0 0 0-.61-.775 9.8 9.8 0 0 0-1.45-1.332 15 15 0 0 0-2.082-1.31l-1.038.544a15 15 0 0 0-.104 2.459 9.8 9.8 0 0 0 .272 1.95 8 8 0 0 0 .291.941 2 2 0 0 0 .229.437l.088.13a.53.53 0 0 1-.116.72l-.812.616a.53.53 0 0 1-.726-.083l-.1-.12a2 2 0 0 0-.36-.338 8 8 0 0 0-.827-.534 9.8 9.8 0 0 0-1.804-.79 15 15 0 0 0-2.396-.563l-.804.852a15 15 0 0 0 .7 2.36 9.8 9.8 0 0 0 .89 1.756 8 8 0 0 0 .581.795 2 2 0 0 0 .358.34l.126.093a.53.53 0 0 1 .124.72l-.568.846a.53.53 0 0 1-.714.157l-.134-.08a2 2 0 0 0-.45-.204 8 8 0 0 0-.956-.237 9.8 9.8 0 0 0-1.962-.16 15 15 0 0 0-2.45.245l-.483 1.067a15 15 0 0 0 1.427 2.004A9.8 9.8 0 0 0 60 24.308a8 8 0 0 0 .808.564 2 2 0 0 0 .449.205l.149.047a.53.53 0 0 1 .351.64l-.262.985a.53.53 0 0 1-.624.38l-.153-.032a2 2 0 0 0-.491-.046 8 8 0 0 0-.982.086 9.8 9.8 0 0 0-1.908.486 15 15 0 0 0-2.237 1.026l-.111 1.166a15 15 0 0 0 2.001 1.433 9.8 9.8 0 0 0 1.782.838 8 8 0 0 0 .947.272 2 2 0 0 0 .49.048l.157-.004a.53.53 0 0 1 .54.492l.072 1.016a.53.53 0 0 1-.467.563z"/><path d="m52.012 217.69 45.127-35.943" style="fill:#a80;stroke:red;stroke-width:.529167" transform="translate(-14.504 -149.899)"/><path d="M52.012 217.69h39.004" style="fill:#a80;stroke:#999;stroke-width:.264583" transform="translate(-14.504 -149.899)"/><path d="m76.771 197.961 1.676-1.326" style="fill:#a80;stroke:#1a1a1a;stroke-width:.264583;marker-start:url(#a);marker-end:url(#a)" transform="translate(-14.504 -149.899)"/><path d="M61.173 210.44s2.025 1.402 2.526 2.467c.665 1.41.39 4.66.39 4.66" style="fill:none;stroke:#000;stroke-width:.264583;marker-start:url(#a)" transform="translate(-14.504 -149.899)"/><text xml:space="preserve" x="-73.695" style="font-size:14.6667px;line-height:normal;font-family:&quot;Liberation Mono&quot;;-inkscape-font-specification:&quot;Liberation Mono&quot;;text-align:start;text-decoration-color:#000;white-space:pre;shape-inside:url(#b);fill:#000;stroke-width:1;-inkscape-stroke:none;stop-color:#000" transform="translate(-12.429 -149.004)scale(.26458)"><tspan x="327.266" y="807.964">angleCenterCenter</tspan></text><path d="m64.93 213.672 23.082.256" style="fill:none;stroke:#000;stroke-width:.264583;marker-start:url(#a)" transform="translate(-14.504 -149.899)"/><text xml:space="preserve" style="font-size:14.6667px;line-height:normal;font-family:&quot;Liberation Mono&quot;;-inkscape-font-specification:&quot;Liberation Mono&quot;;text-align:center;text-decoration-color:#000;white-space:pre;shape-inside:url(#c);fill:#000;stroke-width:1;-inkscape-stroke:none;stop-color:#000" transform="translate(-20.98 -150.789)scale(.26458)"><tspan x="155.139" y="634.759">addInterAxis</tspan></text><path d="m53.546 167.888 22.701 27.944" style="fill:none;stroke:#000;stroke-width:.264583;marker-end:url(#a)" transform="translate(-14.504 -149.899)"/></svg>