<svg xmlns="http://www.w3.org/2000/svg" xml:space="preserve" width="476.76" height="346.433" viewBox="0 0 126.143 91.66"><defs><path id="h" d="M338.349 413.542h113.363v28.243H338.349z"/><path id="g" d="M198.092 446.366h121.826v29.252H198.092z"/><path id="f" d="M288.759 429.577h107.036v41.306H288.759z"/><path id="e" d="M31.989 416.05h101.844v32.232H31.989z"/><path id="b" d="M321.238 128.58h58.683v37.879h-58.683z"/><path id="a" d="M253.629 129.478h54.169v45.465h-54.169z"/><marker id="d" markerHeight="1" markerWidth="1" orient="auto-start-reverse" preserveAspectRatio="xMidYMid" refX="0" refY="0" style="overflow:visible" viewBox="0 0 1 1"><path d="M3-3 0 0l3 3" style="fill:none;stroke:context-stroke;stroke-width:1;stroke-linecap:butt" transform="rotate(180 .125 0)"/></marker><marker id="c" markerHeight="1" markerWidth="1" orient="auto-start-reverse" preserveAspectRatio="xMidYMid" refX="0" refY="0" style="overflow:visible" viewBox="0 0 1 1"><path d="M3-3 0 0l3 3" style="fill:none;stroke:context-stroke;stroke-width:1;stroke-linecap:butt" transform="rotate(180 .125 0)"/></marker></defs><path d="M9.441 32.997h125.878v91.396H9.441z" style="fill:#fff;stroke:#fff;stroke-width:.264583;stroke-dasharray:none" transform="translate(-9.309 -32.865)"/><g fill="none" stroke="#4682b4"><path stroke-width=".26458" d="m67.006 44.656.15.005a7 7 0 0 0 .916-.22 11 11 0 0 0 1.133-.423 13 13 0 0 0 1.552-.8 18 18 0 0 0 1.666-1.132l-.084-1.222a18 18 0 0 0-1.804-.895 13 13 0 0 0-1.647-.58 11 11 0 0 0-1.18-.265 7 7 0 0 0-.937-.093l-.148.025a.53.53 0 0 1-.608-.414l-.176-.85a.53.53 0 0 1 .392-.621l.146-.036a7 7 0 0 0 .822-.458 11 11 0 0 0 .977-.713 13 13 0 0 0 1.28-1.189 18 18 0 0 0 1.298-1.54l-.41-1.154a18 18 0 0 0-1.98-.375 13 13 0 0 0-1.742-.115 11 11 0 0 0-1.207.064 7 7 0 0 0-.927.163l-.136.064a.53.53 0 0 1-.697-.234l-.4-.77a.53.53 0 0 1 .21-.705l.132-.074a7 7 0 0 0 .668-.663 11 11 0 0 0 .748-.95 13 13 0 0 0 .911-1.49 18 18 0 0 0 .835-1.833l-.707-1a18 18 0 0 0-2.006.172 13 13 0 0 0-1.709.36 11 11 0 0 0-1.146.386 7 7 0 0 0-.848.408l-.114.098a.53.53 0 0 1-.734-.038l-.592-.634a.53.53 0 0 1 .012-.735l.106-.106a7 7 0 0 0 .464-.82 11 11 0 0 0 .465-1.116 13 13 0 0 0 .475-1.68 18 18 0 0 0 .31-1.99l-.951-.773a18 18 0 0 0-1.886.707 13 13 0 0 0-1.548.807 11 11 0 0 0-.999.682 7 7 0 0 0-.707.621l-.083.126a.53.53 0 0 1-.717.162l-.742-.451a.53.53 0 0 1-.186-.711l.074-.132a7 7 0 0 0 .226-.913 11 11 0 0 0 .146-1.2 13 13 0 0 0 .004-1.747 18 18 0 0 0-.24-2l-1.123-.488a18 18 0 0 0-1.625 1.19 13 13 0 0 0-1.273 1.195 11 11 0 0 0-.778.926 7 7 0 0 0-.513.79l-.046.142a.53.53 0 0 1-.647.35l-.836-.235a.53.53 0 0 1-.371-.634l.035-.146a7 7 0 0 0-.028-.941 11 11 0 0 0-.184-1.195 13 13 0 0 0-.467-1.683 18 18 0 0 0-.77-1.861l-1.213-.167a18 18 0 0 0-1.244 1.585 13 13 0 0 0-.903 1.494 11 11 0 0 0-.5 1.101 7 7 0 0 0-.281.898l-.005.15a.53.53 0 0 1-.53.511h-.867a.53.53 0 0 1-.529-.51l-.005-.15a7 7 0 0 0-.282-.899 11 11 0 0 0-.499-1.101 13 13 0 0 0-.903-1.494 18 18 0 0 0-1.244-1.585l-1.214.167a18 18 0 0 0-.77 1.861 13 13 0 0 0-.467 1.683 11 11 0 0 0-.183 1.195 7 7 0 0 0-.029.94l.036.147a.53.53 0 0 1-.372.634l-.835.235a.53.53 0 0 1-.647-.35l-.046-.143a7 7 0 0 0-.514-.789 11 11 0 0 0-.777-.926 13 13 0 0 0-1.273-1.195 18 18 0 0 0-1.625-1.19l-1.124.488a18 18 0 0 0-.24 2 13 13 0 0 0 .005 1.746 11 11 0 0 0 .146 1.2 7 7 0 0 0 .226.914l.074.132a.53.53 0 0 1-.187.71l-.741.452a.53.53 0 0 1-.718-.162l-.082-.126a7 7 0 0 0-.707-.62 11 11 0 0 0-1-.683 13 13 0 0 0-1.548-.807 18 18 0 0 0-1.885-.707l-.95.773a18 18 0 0 0 .308 1.99 13 13 0 0 0 .476 1.68 11 11 0 0 0 .464 1.117 7 7 0 0 0 .464.819l.107.106a.53.53 0 0 1 .012.735l-.592.634a.53.53 0 0 1-.735.038l-.113-.098a7 7 0 0 0-.849-.408 11 11 0 0 0-1.145-.387 13 13 0 0 0-1.71-.36 18 18 0 0 0-2.006-.172l-.706 1.001a18 18 0 0 0 .834 1.833 13 13 0 0 0 .911 1.49 11 11 0 0 0 .749.95 7 7 0 0 0 .668.663l.13.074a.53.53 0 0 1 .21.704l-.399.77a.53.53 0 0 1-.696.235l-.136-.064a7 7 0 0 0-.927-.163 11 11 0 0 0-1.208-.064 13 13 0 0 0-1.742.115 18 18 0 0 0-1.98.375l-.41 1.154a18 18 0 0 0 1.299 1.54 13 13 0 0 0 1.28 1.189 11 11 0 0 0 .976.713 7 7 0 0 0 .822.458l.146.036a.53.53 0 0 1 .393.622l-.177.85a.53.53 0 0 1-.608.413l-.148-.025a7 7 0 0 0-.936.093 11 11 0 0 0-1.18.264 13 13 0 0 0-1.647.58 18 18 0 0 0-1.805.896l-.083 1.222a18 18 0 0 0 1.665 1.133 13 13 0 0 0 1.553.8 11 11 0 0 0 1.133.422 7 7 0 0 0 .915.22l.15-.005a.53.53 0 0 1 .546.492l.06.866a.53.53 0 0 1-.474.563l-.15.015a7 7 0 0 0-.877.342 11 11 0 0 0-1.065.574 13 13 0 0 0-1.429 1.003 18 18 0 0 0-1.495 1.349l.249 1.2a18 18 0 0 0 1.91.64 13 13 0 0 0 1.71.351 11 11 0 0 0 1.205.102 7 7 0 0 0 .94-.036l.144-.045a.53.53 0 0 1 .658.327l.29.818a.53.53 0 0 1-.303.67l-.14.055a7 7 0 0 0-.752.566 11 11 0 0 0-.871.839 13 13 0 0 0-1.105 1.352A18 18 0 0 0 9.749 58.4l.564 1.088a18 18 0 0 0 2.011.102 13 13 0 0 0 1.742-.124 11 11 0 0 0 1.188-.227 7 7 0 0 0 .896-.288l.126-.082a.53.53 0 0 1 .722.137l.5.71a.53.53 0 0 1-.112.726l-.12.09a7 7 0 0 0-.571.749 11 11 0 0 0-.612 1.043 13 13 0 0 0-.7 1.6 18 18 0 0 0-.577 1.93l.836.895a18 18 0 0 0 1.965-.445 13 13 0 0 0 1.643-.589 11 11 0 0 0 1.083-.54 7 7 0 0 0 .785-.518l.1-.113a.53.53 0 0 1 .732-.063l.673.548a.53.53 0 0 1 .088.73l-.091.12a7 7 0 0 0-.348.874 11 11 0 0 0-.308 1.17 13 13 0 0 0-.243 1.729 18 18 0 0 0-.035 2.014l1.047.636a18 18 0 0 0 1.772-.958 13 13 0 0 0 1.424-1.01 11 11 0 0 0 .896-.812 7 7 0 0 0 .617-.711l.064-.136a.53.53 0 0 1 .689-.258l.796.346a.53.53 0 0 1 .281.68l-.055.14a7 7 0 0 0-.1.935 11 11 0 0 0 .02 1.21 13 13 0 0 0 .233 1.73 18 18 0 0 0 .51 1.949l1.18.33a18 18 0 0 0 1.447-1.4 13 13 0 0 0 1.098-1.358 11 11 0 0 0 .645-1.023 7 7 0 0 0 .401-.851l.026-.148a.53.53 0 0 1 .593-.434l.86.118a.53.53 0 0 1 .454.578l-.015.15a7 7 0 0 0 .157.927 11 11 0 0 0 .344 1.16 13 13 0 0 0 .692 1.603 18 18 0 0 0 1.016 1.739h1.225a18 18 0 0 0 1.017-1.74 13 13 0 0 0 .691-1.602 11 11 0 0 0 .345-1.16 7 7 0 0 0 .156-.928l-.015-.15a.53.53 0 0 1 .454-.577l.86-.118a.53.53 0 0 1 .594.434l.025.148a7 7 0 0 0 .402.851 11 11 0 0 0 .644 1.023 13 13 0 0 0 1.099 1.358 18 18 0 0 0 1.447 1.4l1.18-.33a18 18 0 0 0 .51-1.95 13 13 0 0 0 .233-1.73 11 11 0 0 0 .019-1.209 7 7 0 0 0-.1-.936l-.055-.14a.53.53 0 0 1 .282-.679l.796-.346a.53.53 0 0 1 .688.258l.065.136a7 7 0 0 0 .616.711 11 11 0 0 0 .897.812 13 13 0 0 0 1.424 1.01 18 18 0 0 0 1.772.958l1.046-.636a18 18 0 0 0-.035-2.014 13 13 0 0 0-.242-1.73 11 11 0 0 0-.308-1.169 7 7 0 0 0-.348-.874l-.091-.12a.53.53 0 0 1 .088-.73l.673-.548a.53.53 0 0 1 .732.063l.1.113a7 7 0 0 0 .785.519 11 11 0 0 0 1.082.54 13 13 0 0 0 1.644.588 18 18 0 0 0 1.964.445l.837-.896a18 18 0 0 0-.578-1.93 13 13 0 0 0-.7-1.6 11 11 0 0 0-.611-1.042 7 7 0 0 0-.572-.748l-.12-.091a.53.53 0 0 1-.112-.727l.5-.709a.53.53 0 0 1 .723-.137l.126.082a7 7 0 0 0 .896.288 11 11 0 0 0 1.188.227 13 13 0 0 0 1.741.124 18 18 0 0 0 2.012-.102l.564-1.088a18 18 0 0 0-1.077-1.702 13 13 0 0 0-1.105-1.352 11 11 0 0 0-.871-.84 7 7 0 0 0-.752-.565l-.14-.056a.53.53 0 0 1-.304-.669l.29-.818a.53.53 0 0 1 .659-.327l.143.045a7 7 0 0 0 .94.036 11 11 0 0 0 1.206-.102 13 13 0 0 0 1.71-.35 18 18 0 0 0 1.91-.642l.249-1.2a18 18 0 0 0-1.496-1.348 13 13 0 0 0-1.429-1.003 11 11 0 0 0-1.065-.574 7 7 0 0 0-.877-.342l-.15-.015a.53.53 0 0 1-.473-.563l.06-.866a.53.53 0 0 1 .545-.492z"/><path stroke-width=".26458" d="M43.624 42.673H42.14a.53.53 0 0 1-.458-.264 2.7 2.7 0 0 0-.325-.448.53.53 0 0 1-.11-.517l.458-1.411a.53.53 0 0 0-.34-.667l-1.006-.327a.53.53 0 0 0-.667.34l-.458 1.41a.53.53 0 0 1-.393.355 2.7 2.7 0 0 0-.526.17.53.53 0 0 1-.527-.055l-1.2-.872a.53.53 0 0 0-.74.117l-.621.857a.53.53 0 0 0 .117.739l1.2.872a.53.53 0 0 1 .215.483 2.7 2.7 0 0 0 0 .553.53.53 0 0 1-.215.484l-1.2.872a.53.53 0 0 0-.117.739l.622.856a.53.53 0 0 0 .739.117l1.2-.872a.53.53 0 0 1 .527-.055 2.7 2.7 0 0 0 .526.17.53.53 0 0 1 .393.355l.458 1.41a.53.53 0 0 0 .667.34l1.007-.326a.53.53 0 0 0 .34-.667l-.459-1.411a.53.53 0 0 1 .11-.518 2.7 2.7 0 0 0 .325-.447.53.53 0 0 1 .458-.265h1.484a.53.53 0 0 0 .53-.53v-1.057a.53.53 0 0 0-.53-.53zM60.573 38.463a21.83 21.83 0 0 0-9.625-13.249 2.646 2.646 0 0 0-3.918 1.427l-2.54 7.82a2.65 2.65 0 0 0 .745 2.784 8.7 8.7 0 0 1 2.131 2.933 2.65 2.65 0 0 0 2.417 1.57h8.223a2.646 2.646 0 0 0 2.567-3.285zM40.926 21.958a21.83 21.83 0 0 0-15.575 5.06 2.646 2.646 0 0 0 .146 4.167l6.653 4.833a2.65 2.65 0 0 0 2.877.151 8.7 8.7 0 0 1 3.449-1.12 2.65 2.65 0 0 0 2.239-1.814l2.54-7.82a2.646 2.646 0 0 0-2.33-3.457ZM19.157 35.543a21.83 21.83 0 0 0 0 16.377 2.646 2.646 0 0 0 4.007 1.148l6.653-4.833a2.65 2.65 0 0 0 1.033-2.69 8.7 8.7 0 0 1 0-3.626 2.65 2.65 0 0 0-1.033-2.69l-6.653-4.834a2.646 2.646 0 0 0-4.007 1.148zM25.35 60.445a21.83 21.83 0 0 0 15.576 5.06 2.646 2.646 0 0 0 2.33-3.456l-2.541-7.82a2.65 2.65 0 0 0-2.24-1.814 8.7 8.7 0 0 1-3.448-1.12 2.65 2.65 0 0 0-2.877.15l-6.653 4.834a2.646 2.646 0 0 0-.146 4.166zM50.948 62.25A21.83 21.83 0 0 0 60.573 49a2.646 2.646 0 0 0-2.567-3.284h-8.223a2.65 2.65 0 0 0-2.417 1.57 8.7 8.7 0 0 1-2.131 2.933 2.65 2.65 0 0 0-.746 2.783l2.541 7.82a2.646 2.646 0 0 0 3.918 1.428z"/></g><path fill="none" stroke="violet" stroke-width=".26458" d="m73.582 50.215-.15.045a2 2 0 0 0-.451.199 8 8 0 0 0-.815.554 9.8 9.8 0 0 0-1.43 1.353 15 15 0 0 0-1.454 1.987l.47 1.072a15 15 0 0 0 2.446.276 9.8 9.8 0 0 0 1.965-.135 8 8 0 0 0 .96-.225 2 2 0 0 0 .451-.197l.135-.08a.53.53 0 0 1 .712.167l.557.853a.53.53 0 0 1-.133.719l-.127.091a2 2 0 0 0-.362.335 8 8 0 0 0-.592.788 9.8 9.8 0 0 0-.913 1.745 15 15 0 0 0-.73 2.35l.794.862a15 15 0 0 0 2.403-.533 9.8 9.8 0 0 0 1.814-.766 8 8 0 0 0 .834-.524 2 2 0 0 0 .364-.333l.102-.119a.53.53 0 0 1 .727-.073l.804.625a.53.53 0 0 1 .107.723l-.09.128a2 2 0 0 0-.234.434 8 8 0 0 0-.303.938 9.8 9.8 0 0 0-.298 1.946 15 15 0 0 0 .074 2.46l1.03.558a15 15 0 0 0 2.1-1.284 9.8 9.8 0 0 0 1.466-1.314 8 8 0 0 0 .62-.766 2 2 0 0 0 .235-.434l.058-.145a.53.53 0 0 1 .664-.306l.963.331a.53.53 0 0 1 .336.65l-.044.15a2 2 0 0 0-.08.486 8 8 0 0 0 .018.985 9.8 9.8 0 0 0 .35 1.938 15 15 0 0 0 .869 2.303l1.155.192a15 15 0 0 0 1.57-1.896 9.8 9.8 0 0 0 .96-1.719 8 8 0 0 0 .337-.926 2 2 0 0 0 .082-.486l.007-.156a.53.53 0 0 1 .529-.505h1.019a.53.53 0 0 1 .528.505l.008.156a2 2 0 0 0 .082.486 8 8 0 0 0 .336.926 9.8 9.8 0 0 0 .961 1.72 15 15 0 0 0 1.57 1.895l1.155-.192a15 15 0 0 0 .868-2.303 9.8 9.8 0 0 0 .35-1.938 8 8 0 0 0 .018-.985 2 2 0 0 0-.08-.487l-.044-.15a.53.53 0 0 1 .336-.649l.964-.33a.53.53 0 0 1 .664.305l.057.145a2 2 0 0 0 .236.434 8 8 0 0 0 .62.766 9.8 9.8 0 0 0 1.466 1.314 15 15 0 0 0 2.1 1.284l1.03-.558a15 15 0 0 0 .073-2.46 9.8 9.8 0 0 0-.297-1.946 8 8 0 0 0-.303-.938 2 2 0 0 0-.234-.434l-.09-.128a.53.53 0 0 1 .107-.723l.804-.625a.53.53 0 0 1 .727.073l.102.119a2 2 0 0 0 .363.333 8 8 0 0 0 .835.524 9.8 9.8 0 0 0 1.814.766 15 15 0 0 0 2.402.533l.794-.862a15 15 0 0 0-.73-2.35 9.8 9.8 0 0 0-.913-1.745 8 8 0 0 0-.591-.788 2 2 0 0 0-.362-.335l-.127-.091a.53.53 0 0 1-.133-.719l.557-.853a.53.53 0 0 1 .711-.166l.135.08a2 2 0 0 0 .452.196 8 8 0 0 0 .96.225 9.8 9.8 0 0 0 1.964.135 15 15 0 0 0 2.446-.276l.47-1.072a15 15 0 0 0-1.453-1.987 9.8 9.8 0 0 0-1.43-1.353 8 8 0 0 0-.815-.554 2 2 0 0 0-.451-.2l-.15-.044a.53.53 0 0 1-.36-.637l.25-.987a.53.53 0 0 1 .62-.389l.153.031a2 2 0 0 0 .491.04 8 8 0 0 0 .98-.099 9.8 9.8 0 0 0 1.903-.51 15 15 0 0 0 2.223-1.055l.097-1.167a15 15 0 0 0-2.02-1.407 9.8 9.8 0 0 0-1.792-.816 8 8 0 0 0-.95-.259 2 2 0 0 0-.492-.042l-.156.006a.53.53 0 0 1-.547-.485l-.084-1.016a.53.53 0 0 1 .46-.568l.154-.02a2 2 0 0 0 .478-.122 8 8 0 0 0 .895-.412 9.8 9.8 0 0 0 1.634-1.1 15 15 0 0 0 1.76-1.72l-.287-1.135a15 15 0 0 0-2.367-.675 9.8 9.8 0 0 0-1.96-.19 8 8 0 0 0-.983.064 2 2 0 0 0-.479.12l-.146.056a.53.53 0 0 1-.674-.282l-.41-.933a.53.53 0 0 1 .25-.686l.14-.07a2 2 0 0 0 .413-.27 8 8 0 0 0 .713-.68 9.8 9.8 0 0 0 1.188-1.571 15 15 0 0 0 1.106-2.198l-.64-.981a15 15 0 0 0-2.458.13 9.8 9.8 0 0 0-1.916.457 8 8 0 0 0-.91.38 2 2 0 0 0-.413.268l-.12.1a.53.53 0 0 1-.729-.046l-.69-.75a.53.53 0 0 1 .014-.73l.11-.112a2 2 0 0 0 .302-.39 8 8 0 0 0 .453-.874 9.8 9.8 0 0 0 .614-1.871 15 15 0 0 0 .332-2.439l-.924-.72a15 15 0 0 0-2.282.922 9.8 9.8 0 0 0-1.664 1.054 8 8 0 0 0-.736.654 2 2 0 0 0-.304.389l-.08.133a.53.53 0 0 1-.706.193l-.896-.485a.53.53 0 0 1-.225-.696l.068-.14a2 2 0 0 0 .16-.467 8 8 0 0 0 .144-.975 9.8 9.8 0 0 0-.027-1.969 15 15 0 0 0-.477-2.414l-1.108-.38a15 15 0 0 0-1.86 1.612 9.8 9.8 0 0 0-1.23 1.537 8 8 0 0 0-.485.858 2 2 0 0 0-.161.466l-.033.153a.53.53 0 0 1-.604.41l-1.005-.167a.53.53 0 0 1-.439-.585l.019-.155a2 2 0 0 0-.001-.493 8 8 0 0 0-.18-.97 9.8 9.8 0 0 0-.665-1.853 15 15 0 0 0-1.235-2.128h-1.171a15 15 0 0 0-1.236 2.128 9.8 9.8 0 0 0-.665 1.854 8 8 0 0 0-.18.969 2 2 0 0 0 0 .493l.018.155a.53.53 0 0 1-.438.585l-1.005.167a.53.53 0 0 1-.605-.41l-.033-.153a2 2 0 0 0-.16-.466 8 8 0 0 0-.485-.858 9.8 9.8 0 0 0-1.23-1.537 15 15 0 0 0-1.86-1.613l-1.108.38a15 15 0 0 0-.478 2.415 9.8 9.8 0 0 0-.027 1.97 8 8 0 0 0 .145.974 2 2 0 0 0 .16.467l.067.14a.53.53 0 0 1-.225.696l-.896.485a.53.53 0 0 1-.705-.193l-.08-.133a2 2 0 0 0-.304-.389 8 8 0 0 0-.737-.654 9.8 9.8 0 0 0-1.663-1.054 15 15 0 0 0-2.282-.921l-.925.72a15 15 0 0 0 .333 2.438 9.8 9.8 0 0 0 .613 1.87 8 8 0 0 0 .454.876 2 2 0 0 0 .302.39l.11.11a.53.53 0 0 1 .013.731l-.69.75a.53.53 0 0 1-.73.047l-.119-.1a2 2 0 0 0-.413-.27 8 8 0 0 0-.91-.379 9.8 9.8 0 0 0-1.915-.457 15 15 0 0 0-2.458-.13l-.64.98a15 15 0 0 0 1.106 2.199 9.8 9.8 0 0 0 1.188 1.57 8 8 0 0 0 .713.68 2 2 0 0 0 .412.271l.14.07a.53.53 0 0 1 .25.686l-.41.933a.53.53 0 0 1-.674.282l-.146-.056a2 2 0 0 0-.478-.12 8 8 0 0 0-.983-.064 9.8 9.8 0 0 0-1.96.19 15 15 0 0 0-2.367.675l-.288 1.135a15 15 0 0 0 1.76 1.72 9.8 9.8 0 0 0 1.634 1.1 8 8 0 0 0 .895.412 2 2 0 0 0 .478.122l.155.02a.53.53 0 0 1 .46.568l-.085 1.016a.53.53 0 0 1-.546.485l-.157-.006a2 2 0 0 0-.491.042 8 8 0 0 0-.95.259 9.8 9.8 0 0 0-1.793.816 15 15 0 0 0-2.02 1.407l.097 1.167a15 15 0 0 0 2.224 1.055 9.8 9.8 0 0 0 1.902.51 8 8 0 0 0 .98.1 2 2 0 0 0 .492-.04l.153-.032a.53.53 0 0 1 .619.389l.25.987a.53.53 0 0 1-.36.637z"/><text xml:space="preserve" style="font-size:14.6667px;line-height:normal;font-family:&quot;Liberation Mono&quot;;-inkscape-font-specification:&quot;Liberation Mono&quot;;text-align:center;text-decoration-color:#000;white-space:pre;shape-inside:url(#a);fill:#000;stroke-width:1;-inkscape-stroke:none;stop-color:#000" transform="translate(-9.309 -32.865)scale(.26458)"><tspan x="271.912" y="142.529">N1</tspan></text><text xml:space="preserve" style="font-size:14.6667px;line-height:normal;font-family:&quot;Liberation Mono&quot;;-inkscape-font-specification:&quot;Liberation Mono&quot;;text-align:center;text-decoration-color:#000;white-space:pre;shape-inside:url(#b);fill:#000;stroke-width:1;-inkscape-stroke:none;stop-color:#000" transform="translate(-9.309 -32.865)scale(.26458)"><tspan x="341.778" y="141.63">N2</tspan></text><path d="m55.368 44.63 16.026-6.383-8.27 7.66" style="fill:none;stroke:#000;stroke-width:.264583;stroke-dasharray:none;marker-start:url(#c);marker-end:url(#c)" transform="translate(-9.309 -32.865)"/><path d="m95.897 49.256-1.164-11.093 7.289 10.547" style="fill:none;stroke:#000;stroke-width:.264583;stroke-dasharray:none;marker-start:url(#d);marker-end:url(#d)" transform="translate(-9.309 -32.865)"/><text xml:space="preserve" style="font-size:14.6667px;line-height:normal;font-family:&quot;Liberation Mono&quot;;-inkscape-font-specification:&quot;Liberation Mono&quot;;text-align:center;text-decoration-color:#000;white-space:pre;shape-inside:url(#e);fill:#000;stroke-width:1;-inkscape-stroke:none;stop-color:#000" transform="translate(-9.128 -31.583)scale(.26458)"><tspan x="43.304" y="429.099">(c1x,c1y)</tspan></text><path d="M48.826 74.564v3.945M50.716 76.443H46.77" style="fill:none;stroke:#f0f;stroke-width:.264583;stroke-dasharray:none" transform="translate(-9.309 -32.865)"/><path d="M32.798 112.99 47.93 77.687" style="fill:none;stroke:#000;stroke-width:.264583;stroke-dasharray:none;marker-end:url(#d)" transform="translate(-9.309 -32.865)"/><path d="M35.454 45.379s2.201-1.366 3.411-1.8c1.426-.51 4.45-.911 4.45-.911" style="fill:none;stroke:#000;stroke-width:.264583;stroke-dasharray:none;marker-start:url(#d);marker-end:url(#d)" transform="translate(-9.309 -32.865)"/><text xml:space="preserve" style="font-size:14.6667px;line-height:normal;font-family:&quot;Liberation Mono&quot;;-inkscape-font-specification:&quot;Liberation Mono&quot;;text-align:center;text-decoration-color:#000;white-space:pre;shape-inside:url(#f);fill:#000;stroke-width:1;-inkscape-stroke:none;stop-color:#000" transform="translate(-70.779 -107.533)scale(.26458)"><tspan x="302.671" y="442.626">pi*module</tspan></text><text xml:space="preserve" style="font-size:14.6667px;line-height:normal;font-family:&quot;Liberation Mono&quot;;-inkscape-font-specification:&quot;Liberation Mono&quot;;text-align:center;text-decoration-color:#000;white-space:pre;shape-inside:url(#g);fill:#a80;stroke-width:1;-inkscape-stroke:none;stop-color:#000" transform="translate(-19.108 -33.94)scale(.26458)"><tspan x="219.398" y="459.415">main gear</tspan></text><path d="m56.754 116.968-.904-7.656" style="fill:none;stroke:#a80;stroke-width:.264583;stroke-dasharray:none;marker-end:url(#d)" transform="translate(-9.309 -32.865)"/><text xml:space="preserve" style="font-size:14.6667px;line-height:normal;font-family:&quot;Liberation Mono&quot;;-inkscape-font-specification:&quot;Liberation Mono&quot;;text-align:center;text-decoration-color:#000;white-space:pre;shape-inside:url(#h);fill:#a80;stroke-width:1;-inkscape-stroke:none;stop-color:#000" transform="translate(-15.62 -33.102)scale(.26458)"><tspan x="346.621" y="426.593">second gear</tspan></text><path d="m95.856 109.466 2.36-5.164" style="fill:none;stroke:#a80;stroke-width:.264583;stroke-dasharray:none;marker-end:url(#d)" transform="translate(-9.309 -32.865)"/></svg>