<svg xmlns="http://www.w3.org/2000/svg" xml:space="preserve" width="456.834" height="287.321" viewBox="0 0 120.871 76.02"><defs><path id="c" d="M346.026 3055.352h140.865v93.02H346.026z"/><path id="b" d="M247.157 3202.89h115.579v31.365H247.157z"/><marker id="a" markerHeight="1" markerWidth="1" orient="auto-start-reverse" preserveAspectRatio="xMidYMid" refX="0" refY="0" style="overflow:visible" viewBox="0 0 1 1"><path d="M3-3 0 0l3 3" style="fill:none;stroke:context-stroke;stroke-width:1;stroke-linecap:butt" transform="rotate(180 .125 0)"/></marker></defs><path d="M14.317 780.286h120.606v75.756H14.317z" style="fill:#fff;stroke:#fff;stroke-width:.264583" transform="translate(-14.184 -780.154)"/><path fill="none" stroke="#4682b4" stroke-width=".265" d="m62.452 30.704.152-.021a7 7 0 0 0 .864-.375 11 11 0 0 0 1.042-.614 13 13 0 0 0 1.39-1.056 18 18 0 0 0 1.444-1.405l-.181-.752a18 18 0 0 0-1.925-.595 13 13 0 0 0-1.718-.309 11 11 0 0 0-1.207-.072 7 7 0 0 0-.94.058l-.145.05a.53.53 0 0 1-.665-.308l-.453-1.16a.53.53 0 0 1 .28-.676l.14-.062a7 7 0 0 0 .73-.594 11 11 0 0 0 .839-.872 13 13 0 0 0 1.053-1.393 18 18 0 0 0 1.011-1.742l-.377-.675a18 18 0 0 0-2.013-.053 13 13 0 0 0-1.738.165 11 11 0 0 0-1.182.257 7 7 0 0 0-.89.31l-.126.087a.53.53 0 0 1-.723-.117l-.75-.995a.53.53 0 0 1 .087-.727l.12-.098a7 7 0 0 0 .542-.769 11 11 0 0 0 .572-1.066 13 13 0 0 0 .639-1.625 18 18 0 0 0 .503-1.95l-.545-.548a18 18 0 0 0-1.953.491 13 13 0 0 0-1.63.629 11 11 0 0 0-1.068.566 7 7 0 0 0-.773.538l-.098.118a.53.53 0 0 1-.728.082l-.99-.755a.53.53 0 0 1-.112-.724l.088-.126a7 7 0 0 0 .315-.887 11 11 0 0 0 .263-1.18 13 13 0 0 0 .177-1.737 18 18 0 0 0-.042-2.014l-.673-.381a18 18 0 0 0-1.748 1 13 13 0 0 0-1.399 1.045 11 11 0 0 0-.876.833 7 7 0 0 0-.599.726l-.063.14a.53.53 0 0 1-.679.277l-1.156-.46a.53.53 0 0 1-.304-.667l.05-.145a7 7 0 0 0 .065-.94 11 11 0 0 0-.065-1.207 13 13 0 0 0-.299-1.72 18 18 0 0 0-.583-1.928l-.75-.186a18 18 0 0 0-1.414 1.435 13 13 0 0 0-1.065 1.384 11 11 0 0 0-.62 1.038 7 7 0 0 0-.38.861l-.023.153a.53.53 0 0 1-.579.448l-1.238-.13a.53.53 0 0 1-.472-.56l.01-.154a7 7 0 0 0-.192-.922 11 11 0 0 0-.389-1.145 13 13 0 0 0-.751-1.576 18 18 0 0 0-1.082-1.7l-.773.025a18 18 0 0 0-.974 1.763 13 13 0 0 0-.652 1.62 11 11 0 0 0-.316 1.167 7 7 0 0 0-.135.931l.02.153a.53.53 0 0 1-.437.588l-1.227.208a.53.53 0 0 1-.606-.412l-.032-.15a7 7 0 0 0-.434-.836 11 11 0 0 0-.682-.998 13 13 0 0 0-1.15-1.315 18 18 0 0 0-1.5-1.344l-.737.232a18 18 0 0 0-.462 1.96 13 13 0 0 0-.192 1.736 11 11 0 0 0 .01 1.21 7 7 0 0 0 .123.932l.06.142a.53.53 0 0 1-.262.684l-1.126.532a.53.53 0 0 1-.694-.233l-.072-.137a7 7 0 0 0-.642-.687 11 11 0 0 0-.927-.777 13 13 0 0 0-1.461-.956 18 18 0 0 0-1.807-.89l-.648.422a18 18 0 0 0 .084 2.013 13 13 0 0 0 .284 1.723 11 11 0 0 0 .336 1.161 7 7 0 0 0 .37.866l.095.12a.53.53 0 0 1-.067.73l-.94.815a.53.53 0 0 1-.733-.037l-.105-.112a7 7 0 0 0-.804-.489 11 11 0 0 0-1.102-.498 13 13 0 0 0-1.665-.526 18 18 0 0 0-1.98-.37l-.51.582a18 18 0 0 0 .623 1.915 13 13 0 0 0 .739 1.583 11 11 0 0 0 .637 1.027 7 7 0 0 0 .59.734l.124.09a.53.53 0 0 1 .132.721l-.686 1.039a.53.53 0 0 1-.714.162l-.132-.08a7 7 0 0 0-.907-.253 11 11 0 0 0-1.195-.183 13 13 0 0 0-1.745-.057 18 18 0 0 0-2.007.179l-.334.697a18 18 0 0 0 1.118 1.676 13 13 0 0 0 1.137 1.324 11 11 0 0 0 .891.818 7 7 0 0 0 .766.548l.144.053a.53.53 0 0 1 .322.658l-.38 1.186a.53.53 0 0 1-.645.348l-.148-.04a7 7 0 0 0-.941 0 11 11 0 0 0-1.2.147 13 13 0 0 0-1.697.415 18 18 0 0 0-1.884.713l-.133.762a18 18 0 0 0 1.528 1.312 13 13 0 0 0 1.453.969 11 11 0 0 0 1.079.547 7 7 0 0 0 .884.32l.154.013a.53.53 0 0 1 .487.547l-.046 1.244a.53.53 0 0 1-.527.51h-.154a7 7 0 0 0-.906.254 11 11 0 0 0-1.116.466 13 13 0 0 0-1.521.857 18 18 0 0 0-1.622 1.195l.077.77a18 18 0 0 0 1.826.851 13 13 0 0 0 1.66.54 11 11 0 0 0 1.186.236 7 7 0 0 0 .939.07l.15-.029a.53.53 0 0 1 .618.395l.29 1.21a.53.53 0 0 1-.369.634l-.148.042a7 7 0 0 0-.804.489 11 11 0 0 0-.95.75 13 13 0 0 0-1.232 1.236 18 18 0 0 0-1.24 1.588l.282.72a18 18 0 0 0 1.988.327 13 13 0 0 0 1.744.073 11 11 0 0 0 1.206-.093 7 7 0 0 0 .923-.186l.137-.07a.53.53 0 0 1 .7.215l.608 1.087a.53.53 0 0 1-.185.709l-.131.08a7 7 0 0 0-.643.689 11 11 0 0 0-.712.977 13 13 0 0 0-.853 1.523 18 18 0 0 0-.765 1.864l.466.618a18 18 0 0 0 2.002-.222 13 13 0 0 0 1.699-.4 11 11 0 0 0 1.136-.416 7 7 0 0 0 .838-.427l.114-.104a.53.53 0 0 1 .732.017l.878.883a.53.53 0 0 1 .013.733l-.104.113a7 7 0 0 0-.433.836 11 11 0 0 0-.422 1.133 13 13 0 0 0-.411 1.697 18 18 0 0 0-.234 2l.615.47a18 18 0 0 0 1.868-.753 13 13 0 0 0 1.529-.845 11 11 0 0 0 .982-.706 7 7 0 0 0 .692-.638l.08-.13a.53.53 0 0 1 .71-.181l1.084.613a.53.53 0 0 1 .21.702l-.07.137a7 7 0 0 0-.191.922 11 11 0 0 0-.1 1.205 13 13 0 0 0 .061 1.745 18 18 0 0 0 .315 1.99l.72.285a18 18 0 0 0 1.595-1.23 13 13 0 0 0 1.243-1.225 11 11 0 0 0 .756-.944 7 7 0 0 0 .494-.801l.043-.148a.53.53 0 0 1 .635-.366l1.208.299a.53.53 0 0 1 .392.619l-.03.15a7 7 0 0 0 .064.94 11 11 0 0 0 .229 1.187 13 13 0 0 0 .53 1.664 18 18 0 0 0 .84 1.83l.769.082a18 18 0 0 0 1.205-1.614 13 13 0 0 0 .867-1.516 11 11 0 0 0 .472-1.113 7 7 0 0 0 .26-.905l.001-.154a.53.53 0 0 1 .513-.523l1.244-.039a.53.53 0 0 1 .544.49l.012.154a7 7 0 0 0 .315.887 11 11 0 0 0 .54 1.082 13 13 0 0 0 .96 1.458 18 18 0 0 0 1.303 1.536l.763-.129a18 18 0 0 0 .724-1.879 13 13 0 0 0 .426-1.693 11 11 0 0 0 .154-1.2 7 7 0 0 0 .006-.941l-.04-.149a.53.53 0 0 1 .353-.642l1.188-.373a.53.53 0 0 1 .656.326l.052.144a7 7 0 0 0 .543.77 11 11 0 0 0 .813.895 13 13 0 0 0 1.317 1.146 18 18 0 0 0 1.669 1.128l.7-.33a18 18 0 0 0 .19-2.006 13 13 0 0 0-.047-1.745 11 11 0 0 0-.175-1.197 7 7 0 0 0-.248-.908l-.078-.132a.53.53 0 0 1 .166-.714l1.043-.68a.53.53 0 0 1 .72.137l.089.125a7 7 0 0 0 .73.594 11 11 0 0 0 1.024.644 13 13 0 0 0 1.578.748 18 18 0 0 0 1.911.635l.585-.506a18 18 0 0 0-.358-1.983 13 13 0 0 0-.516-1.668 11 11 0 0 0-.49-1.105 7 7 0 0 0-.485-.807l-.111-.106a.53.53 0 0 1-.033-.732l.821-.936a.53.53 0 0 1 .73-.063l.12.097a7 7 0 0 0 .863.374 11 11 0 0 0 1.16.344 13 13 0 0 0 1.721.294 18 18 0 0 0 2.012.097l.426-.646a18 18 0 0 0-.879-1.812 13 13 0 0 0-.947-1.467 11 11 0 0 0-.771-.932 7 7 0 0 0-.684-.647l-.136-.072a.53.53 0 0 1-.228-.696l.538-1.122a.53.53 0 0 1 .686-.258l.141.06a7 7 0 0 0 .932.129 11 11 0 0 0 1.21.017 13 13 0 0 0 1.736-.18 18 18 0 0 0 1.964-.45l.236-.737a18 18 0 0 0-1.335-1.508 13 13 0 0 0-1.308-1.157 11 11 0 0 0-.994-.689 7 7 0 0 0-.833-.438l-.15-.033a.53.53 0 0 1-.408-.609l.215-1.226a.53.53 0 0 1 .59-.433l.153.02a7 7 0 0 0 .933-.128 11 11 0 0 0 1.169-.31 13 13 0 0 0 1.623-.642 18 18 0 0 0 1.77-.963l.028-.773a18 18 0 0 0-1.692-1.092 13 13 0 0 0-1.572-.761 11 11 0 0 0-1.143-.395 7 7 0 0 0-.92-.198l-.153.01a.53.53 0 0 1-.558-.476L62 31.28a.53.53 0 0 1 .452-.576z"/><path fill="none" stroke="#4682b4" stroke-width=".265" d="m39.084 32.812-1.46.258a.53.53 0 0 1-.498-.181 2.7 2.7 0 0 0-.398-.385.53.53 0 0 1-.198-.49l.206-1.47a.53.53 0 0 0-.45-.597l-1.048-.147a.53.53 0 0 0-.598.45l-.206 1.47a.53.53 0 0 1-.326.416 2.7 2.7 0 0 0-.488.26.53.53 0 0 1-.528.037l-1.334-.65a.53.53 0 0 0-.707.243l-.464.951a.53.53 0 0 0 .243.708l1.334.65a.53.53 0 0 1 .296.439 2.7 2.7 0 0 0 .096.545.53.53 0 0 1-.128.513l-1.03 1.067a.53.53 0 0 0 .012.749l.762.735a.53.53 0 0 0 .748-.013l1.03-1.068a.53.53 0 0 1 .51-.145 2.7 2.7 0 0 0 .547.077.53.53 0 0 1 .449.28l.696 1.31a.53.53 0 0 0 .716.219l.934-.497a.53.53 0 0 0 .22-.716l-.697-1.31a.53.53 0 0 1 .018-.529 2.7 2.7 0 0 0 .242-.497.53.53 0 0 1 .406-.34l1.461-.257a.53.53 0 0 0 .43-.613l-.185-1.043a.53.53 0 0 0-.613-.429z"/><path fill="none" stroke="violet" stroke-width=".265" d="m70.222 43.569-.15.066a2 2 0 0 0-.425.251 8 8 0 0 0-.743.647 9.8 9.8 0 0 0-1.259 1.515 15 15 0 0 0-1.206 2.145l.125.22a15 15 0 0 0 2.46.064 9.8 9.8 0 0 0 1.945-.305 8 8 0 0 0 .937-.306 2 2 0 0 0 .433-.236l.134-.095a.53.53 0 0 1 .718.098l1.107 1.363a.53.53 0 0 1-.053.723l-.12.111a2 2 0 0 0-.32.376 8 8 0 0 0-.494.853 9.8 9.8 0 0 0-.698 1.841 15 15 0 0 0-.445 2.42l.19.168a15 15 0 0 0 2.348-.738 9.8 9.8 0 0 0 1.74-.92 8 8 0 0 0 .787-.594 2 2 0 0 0 .333-.363l.096-.134a.53.53 0 0 1 .71-.14l1.49.93a.53.53 0 0 1 .185.7l-.078.145a2 2 0 0 0-.18.46 8 8 0 0 0-.19.966 9.8 9.8 0 0 0-.063 1.969 15 15 0 0 0 .366 2.433l.233.097a15 15 0 0 0 1.981-1.46 9.8 9.8 0 0 0 1.349-1.435 8 8 0 0 0 .55-.818 2 2 0 0 0 .198-.452l.047-.157a.53.53 0 0 1 .626-.364l1.711.397a.53.53 0 0 1 .403.602l-.027.162a2 2 0 0 0-.022.493 8 8 0 0 0 .135.976 9.8 9.8 0 0 0 .58 1.882 15 15 0 0 0 1.135 2.183l.253.016a15 15 0 0 0 1.4-2.025 9.8 9.8 0 0 0 .808-1.795 8 8 0 0 0 .256-.951 2 2 0 0 0 .04-.492l-.007-.164a.53.53 0 0 1 .474-.548l1.747-.18a.53.53 0 0 1 .576.439l.027.162a2 2 0 0 0 .14.473 8 8 0 0 0 .445.88 9.8 9.8 0 0 0 1.159 1.591 15 15 0 0 0 1.783 1.696l.244-.067a15 15 0 0 0 .666-2.369 9.8 9.8 0 0 0 .183-1.96 8 8 0 0 0-.068-.984 2 2 0 0 0-.122-.477l-.06-.154a.53.53 0 0 1 .272-.672l1.593-.738a.53.53 0 0 1 .688.229l.078.144a2 2 0 0 0 .286.402 8 8 0 0 0 .706.688 9.8 9.8 0 0 0 1.613 1.13 15 15 0 0 0 2.238 1.024l.208-.142a15 15 0 0 0-.139-2.458 9.8 9.8 0 0 0-.464-1.913 8 8 0 0 0-.383-.908 2 2 0 0 0-.27-.413l-.106-.125a.53.53 0 0 1 .038-.724l1.267-1.215a.53.53 0 0 1 .725-.008l.121.111a2 2 0 0 0 .4.288 8 8 0 0 0 .892.42 9.8 9.8 0 0 0 1.892.545 15 15 0 0 0 2.45.243l.15-.203a15 15 0 0 0-.93-2.278 9.8 9.8 0 0 0-1.06-1.66 8 8 0 0 0-.656-.734 2 2 0 0 0-.39-.302l-.141-.085a.53.53 0 0 1-.2-.697l.805-1.56a.53.53 0 0 1 .683-.243l.15.066a2 2 0 0 0 .473.142 8 8 0 0 0 .98.109 9.8 9.8 0 0 0 1.966-.1 15 15 0 0 0 2.395-.565l.077-.24a15 15 0 0 0-1.619-1.854 9.8 9.8 0 0 0-1.541-1.226 8 8 0 0 0-.86-.48 2 2 0 0 0-.467-.16l-.16-.034a.53.53 0 0 1-.415-.595l.254-1.737a.53.53 0 0 1 .567-.451l.164.013a2 2 0 0 0 .493-.019 8 8 0 0 0 .961-.215 9.8 9.8 0 0 0 1.828-.732 15 15 0 0 0 2.082-1.313l-.005-.253a15 15 0 0 0-2.133-1.227 9.8 9.8 0 0 0-1.856-.659 8 8 0 0 0-.97-.176 2 2 0 0 0-.493.001l-.163.02a.53.53 0 0 1-.585-.427l-.324-1.726a.53.53 0 0 1 .39-.61l.16-.041a2 2 0 0 0 .46-.178 8 8 0 0 0 .84-.516 9.8 9.8 0 0 0 1.49-1.287 15 15 0 0 0 1.543-1.917l-.087-.237a15 15 0 0 0-2.416-.469 9.8 9.8 0 0 0-1.97-.02 8 8 0 0 0-.973.149 2 2 0 0 0-.467.16l-.148.073a.53.53 0 0 1-.692-.215l-.866-1.527a.53.53 0 0 1 .17-.704l.138-.09a2 2 0 0 0 .377-.318 8 8 0 0 0 .627-.76 9.8 9.8 0 0 0 .992-1.701 15 15 0 0 0 .837-2.315l-.16-.196a15 15 0 0 0-2.437.342 9.8 9.8 0 0 0-1.869.62 8 8 0 0 0-.873.456 2 2 0 0 0-.389.304l-.116.116a.53.53 0 0 1-.724.022l-1.316-1.163a.53.53 0 0 1-.067-.721l.1-.13a2 2 0 0 0 .254-.423 8 8 0 0 0 .346-.923 9.8 9.8 0 0 0 .386-1.93 15 15 0 0 0 .04-2.462l-.214-.134a15 15 0 0 0-2.194 1.115 9.8 9.8 0 0 0-1.567 1.194 8 8 0 0 0-.677.715 2 2 0 0 0-.27.413l-.072.148a.53.53 0 0 1-.678.256l-1.622-.673a.53.53 0 0 1-.298-.66l.054-.156a2 2 0 0 0 .102-.483 8 8 0 0 0 .028-.985 9.8 9.8 0 0 0-.262-1.951 15 15 0 0 0-.761-2.34l-.246-.058a15 15 0 0 0-1.714 1.767 9.8 9.8 0 0 0-1.094 1.637 8 8 0 0 0-.408.897 2 2 0 0 0-.12.478l-.021.164a.53.53 0 0 1-.558.461l-1.753-.11a.53.53 0 0 1-.496-.527v-.165a2 2 0 0 0-.06-.49 8 8 0 0 0-.294-.94 9.8 9.8 0 0 0-.88-1.76 15 15 0 0 0-1.481-1.967l-.251.026a15 15 0 0 0-1.047 2.227 9.8 9.8 0 0 0-.503 1.904 8 8 0 0 0-.096.98 2 2 0 0 0 .042.492l.033.161a.53.53 0 0 1-.377.618l-1.694.466a.53.53 0 0 1-.64-.338l-.054-.156a2 2 0 0 0-.215-.444 8 8 0 0 0-.584-.794 9.8 9.8 0 0 0-1.405-1.38 15 15 0 0 0-2.038-1.379l-.23.107a15 15 0 0 0-.267 2.446 9.8 9.8 0 0 0 .143 1.964 8 8 0 0 0 .228.959 2 2 0 0 0 .199.451l.084.142a.53.53 0 0 1-.157.707l-1.45.99a.53.53 0 0 1-.716-.112l-.101-.13a2 2 0 0 0-.348-.35 8 8 0 0 0-.81-.561 9.8 9.8 0 0 0-1.776-.849 15 15 0 0 0-2.376-.642l-.183.175a15 15 0 0 0 .542 2.4 9.8 9.8 0 0 0 .773 1.812 8 8 0 0 0 .527.832 2 2 0 0 0 .335.362l.125.107a.53.53 0 0 1 .081.72l-1.05 1.407a.53.53 0 0 1-.713.127l-.138-.09a2 2 0 0 0-.443-.218 8 8 0 0 0-.948-.268 9.8 9.8 0 0 0-1.956-.226 15 15 0 0 0-2.456.164l-.115.224A15 15 0 0 0 67.2 24.07a9.8 9.8 0 0 0 1.318 1.462 8 8 0 0 0 .77.617 2 2 0 0 0 .433.234l.154.06a.53.53 0 0 1 .31.654l-.536 1.672a.53.53 0 0 1-.634.352l-.16-.04a2 2 0 0 0-.488-.063 8 8 0 0 0-.984.054 9.8 9.8 0 0 0-1.924.422 15 15 0 0 0-2.27.952l-.036.25a15 15 0 0 0 1.902 1.562 9.8 9.8 0 0 0 1.723.954 8 8 0 0 0 .927.334 2 2 0 0 0 .486.08l.165.007a.53.53 0 0 1 .506.518l.036 1.756a.53.53 0 0 1-.485.538l-.164.014a2 2 0 0 0-.483.1 8 8 0 0 0-.913.37 9.8 9.8 0 0 0-1.683 1.024 15 15 0 0 0-1.837 1.637l.047.248a15 15 0 0 0 2.306.86 9.8 9.8 0 0 0 1.939.344 8 8 0 0 0 .985.014 2 2 0 0 0 .486-.082l.158-.047a.53.53 0 0 1 .647.326l.604 1.649a.53.53 0 0 1-.284.666z"/><path d="m79.312 809.365-30.053 5.465h24.71" style="fill:none;stroke:red;stroke-width:.264583" transform="translate(-14.184 -780.154)"/><path d="M67.152 811.794s.553.843.585 1.324c.036.537-.452 1.551-.452 1.551" style="fill:none;stroke:#000;stroke-width:.264583;marker-start:url(#a);marker-end:url(#a)" transform="translate(-14.184 -780.154)"/><text xml:space="preserve" style="font-size:14.6667px;line-height:normal;font-family:&quot;Liberation Mono&quot;;-inkscape-font-specification:&quot;Liberation Mono&quot;;text-align:center;text-decoration-color:#000;white-space:pre;shape-inside:url(#b);fill:#000;stroke-width:1;-inkscape-stroke:none;stop-color:#000" transform="translate(-19.974 -777.13)scale(.26458)"><tspan x="260.939" y="3215.941">initAngle1</tspan></text><path d="m68.549 813.275 11.101 37.547" style="fill:none;stroke:#000;stroke-width:.264583;marker-start:url(#a)" transform="translate(-14.184 -780.154)"/><path fill="none" stroke="violet" stroke-width=".265" d="m84.604 824.215-.15.07a2 2 0 0 0-.418.26 8 8 0 0 0-.73.663 9.8 9.8 0 0 0-1.224 1.542 15 15 0 0 0-1.158 2.172l.13.217a15 15 0 0 0 2.46.01 9.8 9.8 0 0 0 1.939-.348 8 8 0 0 0 .93-.327 2 2 0 0 0 .427-.245l.132-.099a.53.53 0 0 1 .72.082l1.136 1.34a.53.53 0 0 1-.036.723l-.119.114a2 2 0 0 0-.31.382 8 8 0 0 0-.475.864 9.8 9.8 0 0 0-.658 1.856 15 15 0 0 0-.39 2.43l.193.163a15 15 0 0 0 2.33-.79 9.8 9.8 0 0 0 1.721-.958 8 8 0 0 0 .773-.61 2 2 0 0 0 .325-.372l.093-.136a.53.53 0 0 1 .708-.156l1.51.897a.53.53 0 0 1 .2.697l-.075.146a2 2 0 0 0-.17.463 8 8 0 0 0-.168.97 9.8 9.8 0 0 0-.02 1.97 15 15 0 0 0 .42 2.425l.235.092a15 15 0 0 0 1.948-1.504 9.8 9.8 0 0 0 1.317-1.465 8 8 0 0 0 .532-.83 2 2 0 0 0 .187-.456l.044-.158a.53.53 0 0 1 .618-.378l1.72.359a.53.53 0 0 1 .415.593l-.023.163a2 2 0 0 0-.011.493 8 8 0 0 0 .157.973 9.8 9.8 0 0 0 .62 1.869 15 15 0 0 0 1.185 2.157l.252.01a15 15 0 0 0 1.354-2.055 9.8 9.8 0 0 0 .77-1.813 8 8 0 0 0 .234-.957 2 2 0 0 0 .03-.492l-.012-.164a.53.53 0 0 1 .463-.558l1.742-.22a.53.53 0 0 1 .586.427l.03.162a2 2 0 0 0 .15.47 8 8 0 0 0 .465.869 9.8 9.8 0 0 0 1.194 1.566 15 15 0 0 0 1.82 1.656l.243-.073a15 15 0 0 0 .613-2.383 9.8 9.8 0 0 0 .139-1.965 8 8 0 0 0-.09-.98 2 2 0 0 0-.132-.476l-.063-.152a.53.53 0 0 1 .256-.678l1.577-.773a.53.53 0 0 1 .693.213l.081.143a2 2 0 0 0 .295.396 8 8 0 0 0 .72.671 9.8 9.8 0 0 0 1.639 1.094 15 15 0 0 0 2.26.975l.205-.147a15 15 0 0 0-.194-2.454 9.8 9.8 0 0 0-.506-1.903 8 8 0 0 0-.403-.899 2 2 0 0 0-.28-.406l-.109-.124a.53.53 0 0 1 .022-.724l1.24-1.243a.53.53 0 0 1 .725-.024l.124.109a2 2 0 0 0 .407.278 8 8 0 0 0 .9.401 9.8 9.8 0 0 0 1.904.503 15 15 0 0 0 2.453.188l.147-.206a15 15 0 0 0-.98-2.257 9.8 9.8 0 0 0-1.096-1.636 8 8 0 0 0-.673-.72 2 2 0 0 0-.397-.293l-.143-.082a.53.53 0 0 1-.214-.692l.77-1.578a.53.53 0 0 1 .677-.257l.152.062a2 2 0 0 0 .475.132 8 8 0 0 0 .982.087 9.8 9.8 0 0 0 1.964-.143 15 15 0 0 0 2.382-.619l.072-.242a15 15 0 0 0-1.66-1.817 9.8 9.8 0 0 0-1.569-1.191 8 8 0 0 0-.87-.462 2 2 0 0 0-.47-.15l-.162-.03a.53.53 0 0 1-.427-.585l.215-1.743a.53.53 0 0 1 .557-.463l.164.01a2 2 0 0 0 .493-.03 8 8 0 0 0 .956-.236 9.8 9.8 0 0 0 1.811-.773 15 15 0 0 0 2.053-1.359l-.011-.252a15 15 0 0 0-2.16-1.18 9.8 9.8 0 0 0-1.87-.617 8 8 0 0 0-.973-.155 2 2 0 0 0-.493.012l-.163.024a.53.53 0 0 1-.594-.415l-.362-1.718a.53.53 0 0 1 .376-.62l.159-.043a2 2 0 0 0 .455-.188 8 8 0 0 0 .828-.535 9.8 9.8 0 0 0 1.462-1.319 15 15 0 0 0 1.5-1.951l-.092-.235a15 15 0 0 0-2.426-.415 9.8 9.8 0 0 0-1.969.024 8 8 0 0 0-.97.17 2 2 0 0 0-.463.17l-.146.076a.53.53 0 0 1-.697-.199l-.9-1.508a.53.53 0 0 1 .154-.707l.136-.093a2 2 0 0 0 .37-.326 8 8 0 0 0 .61-.774 9.8 9.8 0 0 0 .954-1.723 15 15 0 0 0 .785-2.332l-.163-.193a15 15 0 0 0-2.43.395 9.8 9.8 0 0 0-1.854.662 8 8 0 0 0-.863.476 2 2 0 0 0-.382.312l-.114.119a.53.53 0 0 1-.723.038l-1.341-1.134a.53.53 0 0 1-.084-.72l.098-.132a2 2 0 0 0 .244-.428 8 8 0 0 0 .326-.93 9.8 9.8 0 0 0 .343-1.94 15 15 0 0 0-.015-2.46l-.217-.13a15 15 0 0 0-2.169 1.163 9.8 9.8 0 0 0-1.54 1.229 8 8 0 0 0-.66.73 2 2 0 0 0-.26.419l-.07.15a.53.53 0 0 1-.672.27l-1.637-.637a.53.53 0 0 1-.312-.653l.05-.157a2 2 0 0 0 .092-.485 8 8 0 0 0 .006-.985 9.8 9.8 0 0 0-.305-1.946 15 15 0 0 0-.813-2.322l-.248-.052a15 15 0 0 0-1.674 1.804 9.8 9.8 0 0 0-1.057 1.661 8 8 0 0 0-.388.906 2 2 0 0 0-.11.48l-.017.164a.53.53 0 0 1-.548.475l-1.754-.071a.53.53 0 0 1-.508-.517l-.004-.164a2 2 0 0 0-.07-.488 8 8 0 0 0-.315-.934 9.8 9.8 0 0 0-.92-1.741 15 15 0 0 0-1.524-1.933l-.25.031a15 15 0 0 0-.998 2.25 9.8 9.8 0 0 0-.46 1.915 8 8 0 0 0-.074.982 2 2 0 0 0 .053.49l.037.161a.53.53 0 0 1-.364.626l-1.683.503a.53.53 0 0 1-.648-.324l-.057-.154a2 2 0 0 0-.225-.439 8 8 0 0 0-.6-.78 9.8 9.8 0 0 0-1.436-1.349 15 15 0 0 0-2.069-1.333l-.227.11a15 15 0 0 0-.213 2.453 9.8 9.8 0 0 0 .187 1.96 8 8 0 0 0 .249.953 2 2 0 0 0 .209.447l.087.14a.53.53 0 0 1-.14.71l-1.43 1.022a.53.53 0 0 1-.717-.096l-.104-.127a2 2 0 0 0-.356-.342 8 8 0 0 0-.821-.544 9.8 9.8 0 0 0-1.796-.809 15 15 0 0 0-2.39-.59l-.178.18a15 15 0 0 0 .595 2.388 9.8 9.8 0 0 0 .813 1.793 8 8 0 0 0 .545.82 2 2 0 0 0 .343.356l.128.103a.53.53 0 0 1 .097.718l-1.019 1.43a.53.53 0 0 1-.71.143l-.14-.087a2 2 0 0 0-.447-.208 8 8 0 0 0-.954-.247 9.8 9.8 0 0 0-1.96-.182 15 15 0 0 0-2.452.218l-.111.227a15 15 0 0 0 1.338 2.066 9.8 9.8 0 0 0 1.351 1.432 8 8 0 0 0 .782.6 2 2 0 0 0 .44.224l.154.056a.53.53 0 0 1 .325.648l-.499 1.683a.53.53 0 0 1-.626.366l-.16-.037a2 2 0 0 0-.49-.052 8 8 0 0 0-.983.076 9.8 9.8 0 0 0-1.914.465 15 15 0 0 0-2.247 1.002l-.031.25a15 15 0 0 0 1.936 1.52 9.8 9.8 0 0 0 1.743.916 8 8 0 0 0 .934.313 2 2 0 0 0 .489.07l.164.002a.53.53 0 0 1 .518.507l.074 1.755a.53.53 0 0 1-.473.548l-.163.017a2 2 0 0 0-.481.111 8 8 0 0 0-.905.39 9.8 9.8 0 0 0-1.659 1.061 15 15 0 0 0-1.8 1.678l.052.247a15 15 0 0 0 2.324.809 9.8 9.8 0 0 0 1.946.3 8 8 0 0 0 .986-.008 2 2 0 0 0 .484-.092l.157-.05a.53.53 0 0 1 .654.31l.64 1.636a.53.53 0 0 1-.269.672z" style="stroke:#ffe6d5" transform="translate(-14.184 -780.154)"/><path fill="none" stroke="violet" stroke-width=".265" d="m84.83 824.67-.147.073a2 2 0 0 0-.413.27 8 8 0 0 0-.714.679 9.8 9.8 0 0 0-1.19 1.568 15 15 0 0 0-1.11 2.197l.134.214a15 15 0 0 0 2.461-.045 9.8 9.8 0 0 0 1.93-.39 8 8 0 0 0 .922-.348 2 2 0 0 0 .423-.254l.13-.102a.53.53 0 0 1 .72.066l1.167 1.314a.53.53 0 0 1-.02.724l-.117.117a2 2 0 0 0-.303.389 8 8 0 0 0-.454.874 9.8 9.8 0 0 0-.617 1.87 15 15 0 0 0-.337 2.438l.197.159a15 15 0 0 0 2.313-.841 9.8 9.8 0 0 0 1.699-.996 8 8 0 0 0 .759-.628 2 2 0 0 0 .317-.378l.09-.138a.53.53 0 0 1 .703-.172l1.53.864a.53.53 0 0 1 .215.691l-.071.148a2 2 0 0 0-.16.467 8 8 0 0 0-.147.974 9.8 9.8 0 0 0 .024 1.97 15 15 0 0 0 .474 2.414l.237.087a15 15 0 0 0 1.914-1.547 9.8 9.8 0 0 0 1.284-1.493 8 8 0 0 0 .514-.841 2 2 0 0 0 .177-.46l.04-.16a.53.53 0 0 1 .61-.391l1.726.32a.53.53 0 0 1 .43.584l-.02.164a2 2 0 0 0 0 .493 8 8 0 0 0 .178.969 9.8 9.8 0 0 0 .662 1.854 15 15 0 0 0 1.232 2.131l.252.004a15 15 0 0 0 1.309-2.084 9.8 9.8 0 0 0 .729-1.83 8 8 0 0 0 .213-.962 2 2 0 0 0 .018-.493l-.014-.164a.53.53 0 0 1 .45-.568l1.736-.257a.53.53 0 0 1 .596.413l.034.161a2 2 0 0 0 .16.466 8 8 0 0 0 .483.86 9.8 9.8 0 0 0 1.229 1.538 15 15 0 0 0 1.856 1.616l.241-.078a15 15 0 0 0 .56-2.397 9.8 9.8 0 0 0 .096-1.966 8 8 0 0 0-.11-.98 2 2 0 0 0-.144-.472l-.066-.15a.53.53 0 0 1 .241-.683l1.56-.808a.53.53 0 0 1 .696.197l.085.142a2 2 0 0 0 .303.389 8 8 0 0 0 .736.655 9.8 9.8 0 0 0 1.662 1.057 15 15 0 0 0 2.28.925l.203-.152a15 15 0 0 0-.248-2.448 9.8 9.8 0 0 0-.549-1.892 8 8 0 0 0-.422-.89 2 2 0 0 0-.289-.4l-.111-.12a.53.53 0 0 1 .006-.725l1.212-1.27a.53.53 0 0 1 .724-.04l.126.105a2 2 0 0 0 .413.27 8 8 0 0 0 .908.38 9.8 9.8 0 0 0 1.915.461 15 15 0 0 0 2.457.134l.142-.209a15 15 0 0 0-1.029-2.235 9.8 9.8 0 0 0-1.133-1.611 8 8 0 0 0-.689-.705 2 2 0 0 0-.402-.284l-.145-.079a.53.53 0 0 1-.23-.687l.735-1.595a.53.53 0 0 1 .671-.272l.154.06a2 2 0 0 0 .478.12 8 8 0 0 0 .983.065 9.8 9.8 0 0 0 1.96-.186 15 15 0 0 0 2.368-.671l.067-.244a15 15 0 0 0-1.7-1.78 9.8 9.8 0 0 0-1.594-1.156 8 8 0 0 0-.88-.443 2 2 0 0 0-.474-.138l-.162-.027a.53.53 0 0 1-.44-.575l.176-1.748a.53.53 0 0 1 .547-.475l.164.007a2 2 0 0 0 .492-.041 8 8 0 0 0 .951-.258 9.8 9.8 0 0 0 1.794-.813 15 15 0 0 0 2.021-1.403l-.016-.252a15 15 0 0 0-2.185-1.132 9.8 9.8 0 0 0-1.884-.575 8 8 0 0 0-.976-.133 2 2 0 0 0-.493.022l-.162.027a.53.53 0 0 1-.603-.4l-.4-1.71a.53.53 0 0 1 .362-.628l.158-.047a2 2 0 0 0 .451-.199 8 8 0 0 0 .816-.552 9.8 9.8 0 0 0 1.433-1.351 15 15 0 0 0 1.456-1.984l-.097-.234a15 15 0 0 0-2.435-.36 9.8 9.8 0 0 0-1.968.067 8 8 0 0 0-.966.191 2 2 0 0 0-.459.182l-.144.078a.53.53 0 0 1-.701-.183l-.934-1.488a.53.53 0 0 1 .14-.71l.133-.097a2 2 0 0 0 .363-.334 8 8 0 0 0 .592-.787 9.8 9.8 0 0 0 .916-1.744 15 15 0 0 0 .733-2.349l-.167-.189a15 15 0 0 0-2.42.45 9.8 9.8 0 0 0-1.84.702 8 8 0 0 0-.852.495 2 2 0 0 0-.375.32l-.111.121a.53.53 0 0 1-.722.054l-1.366-1.103a.53.53 0 0 1-.1-.718l.096-.134a2 2 0 0 0 .234-.434 8 8 0 0 0 .305-.937 9.8 9.8 0 0 0 .3-1.946 15 15 0 0 0-.069-2.46l-.22-.125a15 15 0 0 0-2.143 1.21 9.8 9.8 0 0 0-1.512 1.263 8 8 0 0 0-.645.744 2 2 0 0 0-.25.425l-.066.15a.53.53 0 0 1-.666.286l-1.65-.6a.53.53 0 0 1-.327-.646l.046-.158a2 2 0 0 0 .081-.487 8 8 0 0 0-.016-.985 9.8 9.8 0 0 0-.348-1.938 15 15 0 0 0-.864-2.305l-.249-.046a15 15 0 0 0-1.633 1.841 9.8 9.8 0 0 0-1.02 1.684 8 8 0 0 0-.37.914 2 2 0 0 0-.098.483l-.013.164a.53.53 0 0 1-.537.487l-1.756-.032a.53.53 0 0 1-.52-.506l-.006-.164a2 2 0 0 0-.082-.487 8 8 0 0 0-.335-.926 9.8 9.8 0 0 0-.958-1.72 15 15 0 0 0-1.566-1.9l-.25.038a15 15 0 0 0-.947 2.271 9.8 9.8 0 0 0-.418 1.924 8 8 0 0 0-.052.984 2 2 0 0 0 .063.49l.04.159a.53.53 0 0 1-.35.634l-1.67.54a.53.53 0 0 1-.655-.31l-.06-.152a2 2 0 0 0-.236-.434 8 8 0 0 0-.617-.768 9.8 9.8 0 0 0-1.465-1.316 15 15 0 0 0-2.098-1.287l-.224.116a15 15 0 0 0-.159 2.456 9.8 9.8 0 0 0 .23 1.956 8 8 0 0 0 .27.947 2 2 0 0 0 .219.442l.09.138a.53.53 0 0 1-.125.714l-1.405 1.053a.53.53 0 0 1-.72-.08l-.107-.126a2 2 0 0 0-.363-.334 8 8 0 0 0-.833-.525 9.8 9.8 0 0 0-1.813-.769 15 15 0 0 0-2.402-.537l-.175.183a15 15 0 0 0 .648 2.374 9.8 9.8 0 0 0 .852 1.776 8 8 0 0 0 .563.808 2 2 0 0 0 .35.347l.13.101a.53.53 0 0 1 .114.716l-.987 1.452a.53.53 0 0 1-.707.158l-.142-.084a2 2 0 0 0-.451-.197 8 8 0 0 0-.96-.227 9.8 9.8 0 0 0-1.964-.138 15 15 0 0 0-2.446.272l-.105.23a15 15 0 0 0 1.383 2.035 9.8 9.8 0 0 0 1.382 1.402 8 8 0 0 0 .796.582 2 2 0 0 0 .444.214l.156.054a.53.53 0 0 1 .34.64l-.463 1.694a.53.53 0 0 1-.618.379l-.16-.033a2 2 0 0 0-.492-.04 8 8 0 0 0-.98.097 9.8 9.8 0 0 0-1.904.506 15 15 0 0 0-2.225 1.052l-.025.251a15 15 0 0 0 1.969 1.476 9.8 9.8 0 0 0 1.763.878 8 8 0 0 0 .94.292 2 2 0 0 0 .49.059h.165a.53.53 0 0 1 .53.494l.112 1.753a.53.53 0 0 1-.46.559l-.164.02a2 2 0 0 0-.478.122 8 8 0 0 0-.896.41 9.8 9.8 0 0 0-1.635 1.098A15 15 0 0 0 77.773 821l.058.246a15 15 0 0 0 2.342.756 9.8 9.8 0 0 0 1.952.258 8 8 0 0 0 .985-.03 2 2 0 0 0 .482-.103l.156-.054a.53.53 0 0 1 .66.297l.677 1.62a.53.53 0 0 1-.255.679z" style="stroke:#fc0" transform="translate(-14.184 -780.154)"/><text xml:space="preserve" x="-47.251" style="font-size:14.6667px;line-height:normal;font-family:&quot;Liberation Mono&quot;;-inkscape-font-specification:&quot;Liberation Mono&quot;;text-align:start;text-decoration-color:#000;white-space:pre;shape-inside:url(#c);fill:#000;stroke-width:1;-inkscape-stroke:none;stop-color:#000" transform="translate(-14.184 -780.154)scale(.26458)"><tspan x="346.027" y="3068.402">gw2Position
</tspan><tspan x="346.027" y="3086.735">- <tspan style="fill:#ff80e5">right</tspan>
</tspan><tspan x="346.027" y="3105.069">- <tspan style="fill:#d4aa00">left</tspan>
</tspan><tspan x="346.027" y="3123.402">- <tspan style="fill:#fca">center</tspan></tspan></text></svg>