<svg xmlns="http://www.w3.org/2000/svg" width="407.264" height="338.046" viewBox="0 0 107.755 89.441"><defs><path id="j" d="M78.394 7491.958H424.23v42.744H78.394z"/><path id="i" d="M80.667 7511.767h294.546v48.978H80.667z"/><path id="h" d="M329.681 7243.825H513.7v22.484H329.681z"/><path id="g" d="M331.183 7462.292h179.56v42.065h-179.56z"/><path id="a" d="M390.748 4224.178h91.064v51.489h-91.064z"/><path id="b" d="M390.748 4224.178h91.064v51.489h-91.064z"/><path id="c" d="M200.983 5603.651h39.486v19.071h-39.486z"/><path id="d" d="M200.983 5603.651h39.486v19.071h-39.486z"/><path id="e" d="M200.983 5603.651h39.486v19.071h-39.486z"/><path id="f" d="M200.983 5603.651h39.486v19.071h-39.486z"/></defs><g transform="translate(-26.224199,-1912.5117)"><path d="M26.356 1912.644h107.491v89.177H26.356z" style="fill:#fff;stroke:#fff;stroke-width:.264583;stroke-dasharray:none"/><path d="m62.208 1948.054 19.192 16.044" style="fill:none;stroke:teal;stroke-width:.264583px;stroke-linecap:butt;stroke-linejoin:miter;stroke-opacity:1"/><path d="m62.141 1947.973 12.747-15.821" style="fill:none;stroke:purple;stroke-width:.264583px;stroke-linecap:butt;stroke-linejoin:miter;stroke-opacity:1"/><ellipse cx="110.819" cy="1948.059" rx="10.356" ry="10.361" style="fill:none;stroke:#0cf;stroke-width:.264581"/><ellipse cx="62.187" cy="1948.059" rx="31.984" ry="31.999" style="fill:none;stroke:maroon;stroke-width:.264583"/><ellipse cx="110.819" cy="1948.059" rx="16.648" ry="16.656" style="fill:none;stroke:maroon;stroke-width:.264583"/><path d="M62.187 1948.06h48.632" style="fill:none;stroke:#000;stroke-width:.264583px;stroke-linecap:butt;stroke-linejoin:miter;stroke-opacity:1"/><text xml:space="preserve" style="font-size:14.6667px;line-height:1.25;font-family:sans-serif;white-space:pre;shape-inside:url(#a);display:inline" transform="matrix(0.26458333,0,0,0.26458333,-67.693584,801.49086)"><tspan x="390.748" y="4237.154">pr1</tspan></text><ellipse cx="62.187" cy="1948.059" rx="20.311" ry="20.321" style="fill:none;stroke:#0cf;stroke-width:.264581"/><text xml:space="preserve" style="font-size:14.6667px;line-height:1.25;font-family:sans-serif;white-space:pre;shape-inside:url(#b);display:inline" transform="matrix(0.26458333,0,0,0.26458333,18.409465,812.96174)"><tspan x="390.748" y="4237.154">pr2</tspan></text><text xml:space="preserve" style="font-size:14.6667px;line-height:1.25;font-family:sans-serif;white-space:pre;shape-inside:url(#c);display:inline;fill:purple" transform="matrix(0.26458333,0,0,0.26458333,7.7940335,452.96703)"><tspan x="200.982" y="5616.627">brr1</tspan></text><path d="m104.296 1956.114 6.469-8.057" style="fill:none;stroke:purple;stroke-width:.264583px;stroke-linecap:butt;stroke-linejoin:miter;stroke-opacity:1"/><path d="m73.6 1933.67 1.443 1.324 1.13-1.46M102.904 1954.942l.817-1.333 1.497 1.098" style="fill:none;stroke:#000;stroke-width:.264583px;stroke-linecap:butt;stroke-linejoin:miter;stroke-opacity:1"/><text xml:space="preserve" style="font-size:14.6667px;line-height:1.25;font-family:sans-serif;white-space:pre;shape-inside:url(#d);display:inline;fill:purple" transform="matrix(0.26458333,0,0,0.26458333,54.260474,469.39855)"><tspan x="200.982" y="5616.627">brr2</tspan></text><ellipse cx="62.216" cy="1948.108" rx="24.901" ry="24.913" style="fill:none;stroke:#0cf;stroke-width:.264581"/><ellipse cx="110.765" cy="1948.057" rx="13.021" ry="13.027" style="fill:none;stroke:#0cf;stroke-width:.264581"/><text xml:space="preserve" style="font-size:14.6667px;line-height:1.25;font-family:sans-serif;white-space:pre;shape-inside:url(#e);display:inline;fill:teal" transform="matrix(0.26458333,0,0,0.26458333,10.966613,473.76512)"><tspan x="200.982" y="5616.627">blr1</tspan></text><text xml:space="preserve" style="font-size:14.6667px;line-height:1.25;font-family:sans-serif;white-space:pre;shape-inside:url(#f);display:inline;fill:teal" transform="matrix(0.26458333,0,0,0.26458333,53.491544,458.19825)"><tspan x="200.982" y="5616.627">blr2</tspan></text><path d="m74.662 1932.147 29.423 23.768" style="fill:none;stroke:red;stroke-width:.264583px;stroke-linecap:butt;stroke-linejoin:miter;stroke-opacity:1"/><path d="m100.714 1939.607 10.017 8.359" style="fill:none;stroke:teal;stroke-width:.264583px;stroke-linecap:butt;stroke-linejoin:miter;stroke-opacity:1"/><path d="m82.48 1962.563-1.443-1.324-1.13 1.46M99.704 1941.103l1.443 1.323 1.13-1.46" style="fill:none;stroke:#000;stroke-width:.264583px;stroke-linecap:butt;stroke-linejoin:miter;stroke-opacity:1"/><path d="m81.233 1964.272 19.604-24.568" style="fill:#f0f;stroke:#f0f;stroke-width:.264583px;stroke-linecap:butt;stroke-linejoin:miter;stroke-opacity:1"/><text xml:space="preserve" style="font-size:14.6667px;line-height:1.25;font-family:sans-serif;white-space:pre;shape-inside:url(#g);fill:#f0f" transform="matrix(0.26458333,0,0,0.26458333,0.11429505,-3.6789489)"><tspan x="331.184" y="7475.268">left line of action</tspan></text><text xml:space="preserve" style="font-size:14.6667px;line-height:1.25;font-family:sans-serif;white-space:pre;shape-inside:url(#h);fill:red" transform="matrix(0.26458333,0,0,0.26458333,-3.3594143,0.36746474)"><tspan x="329.682" y="7256.801">right line of action</tspan></text><path d="m89.037 1943.132 7.234-21.79" style="fill:none;stroke:red;stroke-width:.264583px;stroke-linecap:butt;stroke-linejoin:miter;stroke-opacity:1"/><path d="m87.231 1958.814 7.714 12.481" style="fill:none;stroke:#f0f;stroke-width:.264583px;stroke-linecap:butt;stroke-linejoin:miter;stroke-opacity:1"/><text xml:space="preserve" style="font-size:14.6667px;line-height:1.25;font-family:sans-serif;white-space:pre;shape-inside:url(#i)" transform="matrix(0.26458333,0,0,0.26458333,6.6905806,8.9239605)"><tspan x="80.666" y="7524.742">right and left base circles</tspan></text><text xml:space="preserve" style="font-size:14.6667px;line-height:1.25;font-family:sans-serif;white-space:pre;shape-inside:url(#j)" transform="matrix(0.26458333,0,0,0.26458333,17.034519,4.0435474)"><tspan x="78.395" y="7504.934">N1/N2 = pr1/pr2 = brr1/brr2 = blr1/blr2</tspan></text></g></svg>