<svg xmlns="http://www.w3.org/2000/svg" xml:space="preserve" width="534.578" height="390.854" viewBox="0 0 141.441 103.414"><defs><path id="q" d="M82.441 2027.037h100.364v26.826H82.441z"/><path id="p" d="M98.397 2274.86h121.12v28.519H98.397z"/><path id="o" d="M33.28 2169.292h135.084v36.601H33.28z"/><path id="n" d="M34.398 2307.511h190.115v31.189H34.398z"/><path id="m" d="M8.475 2048.669h195.526v32.283H8.475z"/><path id="l" d="M90.788 1983.933h124.609v41.255H90.788z"/><path id="k" d="M306.335 1967.095h99.118v27.491h-99.118z"/><path id="j" d="M351.522 2003.887h92.366v26.032h-92.366z"/><path id="i" d="M307.131 2317.484h109.944v26.946H307.131z"/><path id="h" d="M458.576 2138.216h77.456v22.834h-77.456z"/><path id="d" d="M431.495 2246.705H537.92v43.121H431.495z"/><path id="c" d="M454.36 2060.889h110.81v26.86H454.36z"/><path id="a" d="M438.263 2009.24h130.029v28.717H438.263z"/><marker id="b" markerHeight="1" markerWidth="1" orient="auto-start-reverse" preserveAspectRatio="xMidYMid" refX="0" refY="0" style="overflow:visible" viewBox="0 0 1 1"><path d="M3-3 0 0l3 3" style="fill:none;stroke:context-stroke;stroke-width:1;stroke-linecap:butt" transform="rotate(180 .125 0)"/></marker><marker id="e" markerHeight="1" markerWidth="1" orient="auto-start-reverse" preserveAspectRatio="xMidYMid" refX="0" refY="0" style="overflow:visible" viewBox="0 0 1 1"><path d="M3-3 0 0l3 3" style="fill:none;stroke:context-stroke;stroke-width:1;stroke-linecap:butt" transform="rotate(180 .125 0)"/></marker><marker id="f" markerHeight="1" markerWidth="1" orient="auto-start-reverse" preserveAspectRatio="xMidYMid" refX="0" refY="0" style="overflow:visible" viewBox="0 0 1 1"><path d="M3-3 0 0l3 3" style="fill:none;stroke:context-stroke;stroke-width:1;stroke-linecap:butt" transform="rotate(180 .125 0)"/></marker><marker id="g" markerHeight="1" markerWidth="1" orient="auto-start-reverse" preserveAspectRatio="xMidYMid" refX="0" refY="0" style="overflow:visible" viewBox="0 0 1 1"><path d="M3-3 0 0l3 3" style="fill:none;stroke:context-stroke;stroke-width:1;stroke-linecap:butt" transform="rotate(180 .125 0)"/></marker></defs><path d="M6.651 518.66h141.176v103.149H6.651z" style="fill:#fff;stroke:#fff;stroke-width:.264583" transform="translate(-6.519 -518.528)"/><text xml:space="preserve" style="font-size:14.6667px;line-height:normal;font-family:&quot;Liberation Mono&quot;;-inkscape-font-specification:&quot;Liberation Mono&quot;;text-align:center;text-decoration-color:#000;white-space:pre;shape-inside:url(#a);fill:#00f;stroke-width:1;-inkscape-stroke:none;stop-color:#000" transform="translate(-6.519 -518.528)scale(.26458)"><tspan x="454.868" y="2022.29">centralAxis</tspan></text><path d="m121.516 536.513-32.874 30.658" style="fill:#00f;stroke:#00f;stroke-width:.264583;marker-end:url(#b)" transform="translate(-6.519 -518.528)"/><text xml:space="preserve" style="font-size:14.6667px;line-height:normal;font-family:&quot;Liberation Mono&quot;;-inkscape-font-specification:&quot;Liberation Mono&quot;;text-align:center;text-decoration-color:#000;white-space:pre;shape-inside:url(#c);fill:#00f;stroke-width:1;-inkscape-stroke:none;stop-color:#000" transform="translate(-6.519 -518.528)scale(.26458)"><tspan x="465.757" y="2073.939">axisRadius</tspan></text><path d="m123.163 549.522-35.485 20.6" style="fill:#00f;stroke:#00f;stroke-width:.264583;marker-end:url(#b)" transform="translate(-6.519 -518.528)"/><text xml:space="preserve" style="font-size:14.6667px;line-height:normal;font-family:&quot;Liberation Mono&quot;;-inkscape-font-specification:&quot;Liberation Mono&quot;;text-align:center;text-decoration-color:#000;white-space:pre;shape-inside:url(#d);fill:#00f;stroke-width:1;-inkscape-stroke:none;stop-color:#000" transform="translate(-6.519 -518.528)scale(.26458)"><tspan x="462.703" y="2259.755">ribNb</tspan></text><path d="m82.381 584.35 39.605 12.646-31.743-20.132" style="fill:none;stroke:#00f;stroke-width:.264583;marker-start:url(#b);marker-end:url(#b)" transform="translate(-6.519 -518.528)"/><path d="M92.317 573.58v-2.197" style="fill:none;stroke:#000;stroke-width:.264583;marker-start:url(#b)" transform="translate(-6.519 -518.528)"/><path d="M92.35 576.443v2.196" style="fill:none;stroke:#000;stroke-width:.264583;marker-start:url(#e)" transform="translate(-6.519 -518.528)"/><path d="M90.927 573.98H93.5M90.938 576.026h2.573" style="fill:none;stroke:#b3b3b3;stroke-width:.264583" transform="translate(-6.519 -518.528)"/><path d="M80.423 582.52v-2.196" style="fill:none;stroke:#000;stroke-width:.264583;marker-start:url(#f)" transform="translate(-6.519 -518.528)"/><path d="M80.457 585.384v2.196" style="fill:none;stroke:#000;stroke-width:.264583;marker-start:url(#g)" transform="translate(-6.519 -518.528)"/><text xml:space="preserve" style="font-size:14.6667px;line-height:normal;font-family:&quot;Liberation Mono&quot;;-inkscape-font-specification:&quot;Liberation Mono&quot;;text-align:center;text-decoration-color:#000;white-space:pre;shape-inside:url(#h);fill:#00f;stroke-width:1;-inkscape-stroke:none;stop-color:#000" transform="translate(-6.519 -518.528)scale(.26458)"><tspan x="462.098" y="2151.265">ribWidth</tspan></text><text xml:space="preserve" style="font-size:14.6667px;line-height:normal;font-family:&quot;Liberation Mono&quot;;-inkscape-font-specification:&quot;Liberation Mono&quot;;text-align:center;text-decoration-color:#000;white-space:pre;shape-inside:url(#i);fill:#00f;stroke-width:1;-inkscape-stroke:none;stop-color:#000" transform="translate(-6.519 -518.528)scale(.26458)"><tspan x="322.496" y="2330.535">ribHeight</tspan></text><path d="m81.063 587.813 11.975 25.493" style="fill:#00f;stroke:#00f;stroke-width:.264583;marker-start:url(#b)" transform="translate(-6.519 -518.528)"/><path d="m93.873 575.025 28.107-6.174" style="fill:#00f;stroke:#00f;stroke-width:.264583;marker-start:url(#b)" transform="translate(-6.519 -518.528)"/><text xml:space="preserve" style="font-size:14.6667px;line-height:normal;font-family:&quot;Liberation Mono&quot;;-inkscape-font-specification:&quot;Liberation Mono&quot;;text-align:center;text-decoration-color:#000;white-space:pre;shape-inside:url(#j);fill:#00f;stroke-width:1;-inkscape-stroke:none;stop-color:#000" transform="translate(-6.519 -518.528)scale(.26458)"><tspan x="358.099" y="2016.937">ribRound2</tspan></text><text xml:space="preserve" style="font-size:14.6667px;line-height:normal;font-family:&quot;Liberation Mono&quot;;-inkscape-font-specification:&quot;Liberation Mono&quot;;text-align:center;text-decoration-color:#000;white-space:pre;shape-inside:url(#k);fill:#00f;stroke-width:1;-inkscape-stroke:none;stop-color:#000" transform="translate(-6.519 -518.528)scale(.26458)"><tspan x="316.288" y="1980.146">ribRound1</tspan></text><path d="m82.526 566.428 19.56-32.017" style="fill:#00f;stroke:#00f;stroke-width:.264583;marker-start:url(#b)" transform="translate(-6.519 -518.528)"/><path d="m81.687 564.3 9.975-40.151" style="fill:#00f;stroke:#00f;stroke-width:.264583;marker-start:url(#b)" transform="translate(-6.519 -518.528)"/><path fill="none" stroke="green" stroke-width=".265" d="m108.187 575.953.15.005a7 7 0 0 0 .915-.22 11 11 0 0 0 1.133-.423 13 13 0 0 0 1.553-.799 18 18 0 0 0 1.665-1.133l-.083-1.222a18 18 0 0 0-1.805-.895 13 13 0 0 0-1.646-.58 11 11 0 0 0-1.18-.265 7 7 0 0 0-.937-.093l-.148.025a.53.53 0 0 1-.608-.414l-.177-.85a.53.53 0 0 1 .393-.621l.146-.036a7 7 0 0 0 .822-.458 11 11 0 0 0 .977-.713 13 13 0 0 0 1.28-1.189 18 18 0 0 0 1.297-1.54l-.41-1.154a18 18 0 0 0-1.979-.375 13 13 0 0 0-1.742-.115 11 11 0 0 0-1.208.064 7 7 0 0 0-.927.163l-.136.064a.53.53 0 0 1-.696-.234l-.4-.77a.53.53 0 0 1 .21-.705l.132-.074a7 7 0 0 0 .667-.663 11 11 0 0 0 .749-.95 13 13 0 0 0 .91-1.49 18 18 0 0 0 .835-1.833l-.706-1a18 18 0 0 0-2.007.172 13 13 0 0 0-1.708.36 11 11 0 0 0-1.146.386 7 7 0 0 0-.849.408l-.113.098a.53.53 0 0 1-.734-.037l-.593-.635a.53.53 0 0 1 .013-.735l.106-.106a7 7 0 0 0 .464-.819 11 11 0 0 0 .464-1.117 13 13 0 0 0 .476-1.68 18 18 0 0 0 .309-1.99l-.95-.773a18 18 0 0 0-1.886.707 13 13 0 0 0-1.549.808 11 11 0 0 0-.998.681 7 7 0 0 0-.708.621l-.082.126a.53.53 0 0 1-.718.162l-.741-.451a.53.53 0 0 1-.186-.711l.073-.132a7 7 0 0 0 .226-.913 11 11 0 0 0 .146-1.2 13 13 0 0 0 .004-1.747 18 18 0 0 0-.24-2l-1.123-.488a18 18 0 0 0-1.625 1.19 13 13 0 0 0-1.273 1.195 11 11 0 0 0-.778.926 7 7 0 0 0-.513.79l-.046.143a.53.53 0 0 1-.647.349l-.836-.234a.53.53 0 0 1-.371-.635l.035-.146a7 7 0 0 0-.028-.94 11 11 0 0 0-.184-1.196 13 13 0 0 0-.467-1.683 18 18 0 0 0-.77-1.861l-1.213-.167a18 18 0 0 0-1.244 1.585 13 13 0 0 0-.903 1.494 11 11 0 0 0-.5 1.101 7 7 0 0 0-.281.898l-.005.15a.53.53 0 0 1-.53.512h-.867a.53.53 0 0 1-.529-.511l-.005-.15a7 7 0 0 0-.282-.899 11 11 0 0 0-.499-1.101 13 13 0 0 0-.903-1.494 18 18 0 0 0-1.244-1.585l-1.214.167a18 18 0 0 0-.77 1.861 13 13 0 0 0-.466 1.683 11 11 0 0 0-.184 1.195 7 7 0 0 0-.029.94l.036.147a.53.53 0 0 1-.372.635l-.835.234a.53.53 0 0 1-.647-.35l-.046-.143a7 7 0 0 0-.513-.789 11 11 0 0 0-.778-.926 13 13 0 0 0-1.273-1.195 18 18 0 0 0-1.625-1.19l-1.124.488a18 18 0 0 0-.24 2 13 13 0 0 0 .005 1.746 11 11 0 0 0 .146 1.2 7 7 0 0 0 .226.914l.074.132a.53.53 0 0 1-.187.71l-.741.452a.53.53 0 0 1-.717-.162l-.083-.126a7 7 0 0 0-.707-.62 11 11 0 0 0-1-.682 13 13 0 0 0-1.547-.808 18 18 0 0 0-1.886-.707l-.95.773a18 18 0 0 0 .309 1.99 13 13 0 0 0 .475 1.68 11 11 0 0 0 .464 1.117 7 7 0 0 0 .464.819l.107.106a.53.53 0 0 1 .012.735l-.592.635a.53.53 0 0 1-.735.037l-.113-.098a7 7 0 0 0-.849-.408 11 11 0 0 0-1.145-.387 13 13 0 0 0-1.709-.36 18 18 0 0 0-2.007-.172l-.706 1.001a18 18 0 0 0 .834 1.833 13 13 0 0 0 .911 1.49 11 11 0 0 0 .749.95 7 7 0 0 0 .668.663l.13.074a.53.53 0 0 1 .21.704l-.398.77a.53.53 0 0 1-.697.235l-.136-.064a7 7 0 0 0-.927-.163 11 11 0 0 0-1.208-.064 13 13 0 0 0-1.742.115 18 18 0 0 0-1.979.375l-.41 1.154a18 18 0 0 0 1.298 1.54 13 13 0 0 0 1.28 1.189 11 11 0 0 0 .976.713 7 7 0 0 0 .822.458l.146.036a.53.53 0 0 1 .393.622l-.177.85a.53.53 0 0 1-.607.413l-.149-.025a7 7 0 0 0-.936.093 11 11 0 0 0-1.18.264 13 13 0 0 0-1.647.58 18 18 0 0 0-1.804.896l-.084 1.222a18 18 0 0 0 1.666 1.133 13 13 0 0 0 1.552.8 11 11 0 0 0 1.133.422 7 7 0 0 0 .915.22l.15-.005a.53.53 0 0 1 .546.493l.06.865a.53.53 0 0 1-.474.563l-.15.015a7 7 0 0 0-.876.343 11 11 0 0 0-1.065.573 13 13 0 0 0-1.43 1.003 18 18 0 0 0-1.495 1.349l.249 1.2a18 18 0 0 0 1.91.64 13 13 0 0 0 1.71.352 11 11 0 0 0 1.205.101 7 7 0 0 0 .94-.035l.144-.046a.53.53 0 0 1 .658.327l.29.818a.53.53 0 0 1-.303.67l-.14.055a7 7 0 0 0-.752.566 11 11 0 0 0-.871.84 13 13 0 0 0-1.105 1.35 18 18 0 0 0-1.077 1.703l.564 1.088a18 18 0 0 0 2.011.102 13 13 0 0 0 1.742-.123 11 11 0 0 0 1.188-.228 7 7 0 0 0 .896-.288l.126-.082a.53.53 0 0 1 .722.137l.5.71a.53.53 0 0 1-.112.726l-.12.091a7 7 0 0 0-.57.748 11 11 0 0 0-.613 1.043 13 13 0 0 0-.7 1.6 18 18 0 0 0-.577 1.93l.836.895a18 18 0 0 0 1.965-.444 13 13 0 0 0 1.644-.59 11 11 0 0 0 1.082-.539 7 7 0 0 0 .785-.519l.1-.113a.53.53 0 0 1 .732-.062l.673.547a.53.53 0 0 1 .088.73l-.091.12a7 7 0 0 0-.348.874 11 11 0 0 0-.308 1.17 13 13 0 0 0-.242 1.73 18 18 0 0 0-.036 2.013l1.047.637a18 18 0 0 0 1.772-.958 13 13 0 0 0 1.424-1.01 11 11 0 0 0 .897-.812 7 7 0 0 0 .616-.712l.064-.136a.53.53 0 0 1 .689-.257l.796.345a.53.53 0 0 1 .281.68l-.055.14a7 7 0 0 0-.1.935 11 11 0 0 0 .02 1.21 13 13 0 0 0 .233 1.73 18 18 0 0 0 .51 1.949l1.18.33a18 18 0 0 0 1.447-1.4 13 13 0 0 0 1.099-1.357 11 11 0 0 0 .644-1.024 7 7 0 0 0 .401-.851l.026-.148a.53.53 0 0 1 .593-.434l.86.118a.53.53 0 0 1 .455.578l-.016.15a7 7 0 0 0 .157.928 11 11 0 0 0 .345 1.159 13 13 0 0 0 .691 1.603 18 18 0 0 0 1.016 1.74h1.226a18 18 0 0 0 1.016-1.74 13 13 0 0 0 .691-1.603 11 11 0 0 0 .345-1.16 7 7 0 0 0 .157-.927l-.016-.15a.53.53 0 0 1 .455-.578l.86-.118a.53.53 0 0 1 .593.434l.025.148a7 7 0 0 0 .402.851 11 11 0 0 0 .644 1.024 13 13 0 0 0 1.099 1.357 18 18 0 0 0 1.447 1.4l1.18-.33a18 18 0 0 0 .51-1.949 13 13 0 0 0 .233-1.73 11 11 0 0 0 .019-1.21 7 7 0 0 0-.1-.936l-.055-.14a.53.53 0 0 1 .282-.679l.796-.345a.53.53 0 0 1 .688.257l.065.136a7 7 0 0 0 .616.712 11 11 0 0 0 .897.811 13 13 0 0 0 1.424 1.01 18 18 0 0 0 1.772.959l1.047-.637a18 18 0 0 0-.036-2.014 13 13 0 0 0-.242-1.729 11 11 0 0 0-.308-1.17 7 7 0 0 0-.348-.874l-.091-.12a.53.53 0 0 1 .088-.73l.673-.547a.53.53 0 0 1 .733.062l.099.113a7 7 0 0 0 .785.52 11 11 0 0 0 1.082.539 13 13 0 0 0 1.644.589 18 18 0 0 0 1.965.444l.836-.896a18 18 0 0 0-.578-1.93 13 13 0 0 0-.7-1.599 11 11 0 0 0-.611-1.043 7 7 0 0 0-.572-.748l-.12-.091a.53.53 0 0 1-.112-.727l.5-.709a.53.53 0 0 1 .723-.137l.126.082a7 7 0 0 0 .896.288 11 11 0 0 0 1.188.228 13 13 0 0 0 1.741.123 18 18 0 0 0 2.012-.102l.564-1.088a18 18 0 0 0-1.077-1.702 13 13 0 0 0-1.105-1.352 11 11 0 0 0-.871-.84 7 7 0 0 0-.752-.565l-.14-.056a.53.53 0 0 1-.304-.669l.29-.818a.53.53 0 0 1 .659-.327l.143.046a7 7 0 0 0 .94.035 11 11 0 0 0 1.206-.102 13 13 0 0 0 1.71-.35 18 18 0 0 0 1.91-.642l.25-1.2a18 18 0 0 0-1.497-1.348 13 13 0 0 0-1.429-1.003 11 11 0 0 0-1.065-.573 7 7 0 0 0-.877-.343l-.15-.015a.53.53 0 0 1-.473-.563l.06-.865a.53.53 0 0 1 .545-.493z" style="stroke:#a80" transform="translate(-6.519 -518.528)"/><path fill="none" stroke="green" stroke-width=".265" d="M90.625 573.97h-2.187a7.94 7.94 0 0 0-6.808-6.808v-2.187h-2.117v2.187a7.94 7.94 0 0 0-6.808 6.809h-2.188v2.116h2.188a7.94 7.94 0 0 0 6.808 6.809v2.187h2.117v-2.187a7.94 7.94 0 0 0 6.808-6.809h2.187z" style="stroke:#00f" transform="translate(-6.519 -518.528)"/><path fill="none" stroke="green" stroke-width=".265" d="M95.762 54.224a21.83 21.83 0 0 0-12.836-17.666.265.265 0 0 0-.359.16L80.3 43.695a.265.265 0 0 0 .131.318 14.02 14.02 0 0 1 7.47 10.28.265.265 0 0 0 .261.224H95.5a.265.265 0 0 0 .263-.293zM78.596 35.151a21.83 21.83 0 0 0-20.768 6.748.265.265 0 0 0 .041.391l5.935 4.312a.265.265 0 0 0 .343-.026 14.02 14.02 0 0 1 12.086-3.927.265.265 0 0 0 .293-.18l2.267-6.977a.265.265 0 0 0-.197-.341zM55.152 45.582a21.83 21.83 0 0 0 0 21.838.265.265 0 0 0 .384.081l5.936-4.312a.265.265 0 0 0 .08-.334 14.02 14.02 0 0 1 0-12.708.265.265 0 0 0-.08-.334l-5.936-4.312a.265.265 0 0 0-.384.081zM57.828 71.103a21.83 21.83 0 0 0 20.768 6.748.265.265 0 0 0 .197-.34l-2.267-6.978a.265.265 0 0 0-.293-.18 14.02 14.02 0 0 1-12.086-3.927.265.265 0 0 0-.343-.026l-5.935 4.312a.265.265 0 0 0-.041.391zM82.926 76.444a21.83 21.83 0 0 0 12.836-17.666.265.265 0 0 0-.263-.293h-7.337a.265.265 0 0 0-.261.223 14.02 14.02 0 0 1-7.47 10.281.265.265 0 0 0-.13.318l2.266 6.977a.265.265 0 0 0 .36.16z"/><text xml:space="preserve" style="font-size:14.6667px;line-height:normal;font-family:&quot;Liberation Mono&quot;;-inkscape-font-specification:&quot;Liberation Mono&quot;;text-align:center;text-decoration-color:#000;white-space:pre;shape-inside:url(#l);fill:#217821;stroke-width:1;-inkscape-stroke:none;stop-color:#000" transform="translate(-6.519 -518.528)scale(.26458)"><tspan x="126.687" y="1996.984">hollow</tspan></text><path d="m47.18 529.562 22.53 24.607" style="fill:#217821;stroke:#217821;stroke-width:.264583;marker-end:url(#b)" transform="translate(-6.519 -518.528)"/><text xml:space="preserve" style="font-size:14.6667px;line-height:normal;font-family:&quot;Liberation Mono&quot;;-inkscape-font-specification:&quot;Liberation Mono&quot;;text-align:center;text-decoration-color:#000;white-space:pre;shape-inside:url(#m);fill:#217821;stroke-width:1;-inkscape-stroke:none;stop-color:#000" transform="translate(-5.807 -513.316)scale(.26458)"><tspan x="31.426" y="2061.72">materialHeightExt</tspan></text><text xml:space="preserve" style="font-size:14.6667px;line-height:normal;font-family:&quot;Liberation Mono&quot;;-inkscape-font-specification:&quot;Liberation Mono&quot;;text-align:center;text-decoration-color:#000;white-space:pre;shape-inside:url(#n);fill:#217821;stroke-width:1;-inkscape-stroke:none;stop-color:#000" transform="translate(14.533 -515.135)scale(.26458)"><tspan x="54.644" y="2320.562">materialHeigthInt</tspan></text><text xml:space="preserve" style="font-size:14.6667px;line-height:normal;font-family:&quot;Liberation Mono&quot;;-inkscape-font-specification:&quot;Liberation Mono&quot;;text-align:center;text-decoration-color:#000;white-space:pre;shape-inside:url(#o);fill:#217821;stroke-width:1;-inkscape-stroke:none;stop-color:#000" transform="translate(1.83 -506.283)scale(.26458)"><tspan x="70.016" y="2182.341">spokeNb</tspan></text><path d="m54.273 569.72 4.693.615" style="fill:#217821;stroke:#000;stroke-width:.264583;marker-start:url(#b);marker-end:url(#b)" transform="translate(-6.519 -518.528)"/><path d="M66.73 574.911h3.457" style="fill:#217821;stroke:#000;stroke-width:.264583;marker-start:url(#b);marker-end:url(#b)" transform="translate(-6.519 -518.528)"/><path d="m64.514 584.49 2.069 2.926" style="fill:#217821;stroke:#000;stroke-width:.264583;marker-start:url(#b);marker-end:url(#b)" transform="translate(-6.519 -518.528)"/><path d="m43.233 551.647 12.722 17.626" style="fill:#217821;stroke:green;stroke-width:.264583;marker-end:url(#b)" transform="translate(-6.519 -518.528)"/><path d="m64.539 566.533-20.62 21.746 17.399-1.55" style="fill:none;stroke:#217821;stroke-width:.264583;marker-start:url(#b);marker-end:url(#b)" transform="translate(-6.519 -518.528)"/><path d="m68.424 575.991.862 36.922" style="fill:none;stroke:#217821;stroke-width:.264583;marker-start:url(#b)" transform="translate(-6.519 -518.528)"/><text xml:space="preserve" style="font-size:14.6667px;line-height:normal;font-family:&quot;Liberation Mono&quot;;-inkscape-font-specification:&quot;Liberation Mono&quot;;text-align:center;text-decoration-color:#000;white-space:pre;shape-inside:url(#p);fill:#217821;stroke-width:1;-inkscape-stroke:none;stop-color:#000" transform="translate(-6.519 -518.528)scale(.26458)"><tspan x="114.95" y="2287.91">spokeWidth</tspan></text><text xml:space="preserve" style="font-size:14.6667px;line-height:normal;font-family:&quot;Liberation Mono&quot;;-inkscape-font-specification:&quot;Liberation Mono&quot;;text-align:center;text-decoration-color:#000;white-space:pre;shape-inside:url(#q);fill:#217821;stroke-width:1;-inkscape-stroke:none;stop-color:#000" transform="translate(-6.519 -518.528)scale(.26458)"><tspan x="88.616" y="2040.087">spokeRound</tspan></text><path d="m54.03 602.11 10.494-15.143" style="fill:#217821;stroke:#217821;stroke-width:.264583;marker-end:url(#b)" transform="translate(-6.519 -518.528)"/><path d="m47.512 540.174 13.874 23.292" style="fill:#217821;stroke:#217821;stroke-width:.264583;marker-end:url(#b)" transform="translate(-6.519 -518.528)"/></svg>