<svg xmlns="http://www.w3.org/2000/svg" xml:space="preserve" width="507.098" height="340.375" viewBox="0 0 134.17 90.058"><defs><path id="i" d="M127.314 1238.302h126.062v27.596H127.314z"/><path id="h" d="M121.798 1205.792h136.677v37.048H121.798z"/><path id="g" d="M99.716 1146.191h136.749v58.671H99.716z"/><path id="f" d="M217.592 1024.905h179.135v44.806H217.592z"/><path id="e" d="M379.841 1246.8h153.774v31.679H379.841z"/><path id="d" d="M410.465 1313.54h136.18v53.776h-136.18z"/><path id="c" d="M89.728 1319.85h143.663v45.051H89.728z"/><path id="b" d="M187.21 1261.686h179.766v25.994H187.21z"/><path id="j" d="M217.592 1024.905h179.135v44.806H217.592z"/><path id="k" d="M121.798 1205.792h136.677v37.048H121.798z"/><path id="l" d="M99.716 1146.191h136.749v58.671H99.716z"/><path id="m" d="M127.314 1238.302h126.062v27.596H127.314z"/><marker id="a" markerHeight="1" markerWidth="1" orient="auto-start-reverse" preserveAspectRatio="xMidYMid" refX="0" refY="0" style="overflow:visible" viewBox="0 0 1 1"><path d="M3-3 0 0l3 3" style="fill:none;stroke:context-stroke;stroke-width:1;stroke-linecap:butt" transform="rotate(180 .125 0)"/></marker></defs><path d="M14.539 274.912h133.905v89.793H14.539z" style="fill:#fff;fill-opacity:1;stroke:#fff;stroke-width:.264583;stroke-opacity:1" transform="translate(-14.406 -274.78)"/><path d="M93.803 362.39c-9.708-7.616-15.945-19.455-15.945-32.751 0-20.315 14.561-37.23 33.817-40.877" style="fill:none;stroke:#d7f4e3;stroke-width:.264584" transform="translate(-14.406 -274.78)"/><path d="M97.148 359.956C87.85 353.1 81.82 342.074 81.82 329.639c0-18.512 13.363-33.902 30.97-37.053" style="fill:none;stroke:#6f918a;stroke-width:.264584" transform="translate(-14.406 -274.78)"/><path d="M99.209 356.55c-8.154-6.147-13.426-15.914-13.426-26.911 0-17 12.598-31.06 28.968-33.353" style="fill:none;stroke:#d7f4e3;stroke-width:.264584" transform="translate(-14.406 -274.78)"/><path d="m114.845 297.304-1.505.251a.793.793 0 0 1-.905-.615l-.05-.229a3 3 0 0 0-.241-.698 12 12 0 0 0-.726-1.285 14.7 14.7 0 0 0-1.843-2.302 23 23 0 0 0-2.785-2.414l-1.66.57a23 23 0 0 0-.715 3.615 14.7 14.7 0 0 0-.04 2.95q.064.735.216 1.459.077.364.239.699l.102.21a.79.79 0 0 1-.337 1.042l-1.342.726a.793.793 0 0 1-1.056-.288l-.121-.2a3 3 0 0 0-.455-.582 12 12 0 0 0-1.104-.98 14.7 14.7 0 0 0-2.49-1.578 23 23 0 0 0-3.42-1.38l-1.384 1.078a23 23 0 0 0 .499 3.652c.211.962.519 1.901.919 2.802q.3.675.679 1.31.19.319.452.584l.165.166c.298.301.306.783.02 1.095l-1.034 1.122a.793.793 0 0 1-1.092.07l-.18-.15a3 3 0 0 0-.619-.402 12 12 0 0 0-1.362-.569 14.7 14.7 0 0 0-2.869-.684 23 23 0 0 0-3.68-.195l-.96 1.469a23 23 0 0 0 1.657 3.292 14.7 14.7 0 0 0 1.78 2.352q.501.541 1.067 1.019.284.24.617.405l.21.104c.38.188.544.64.374 1.028l-.613 1.398a.793.793 0 0 1-1.01.421l-.218-.084a3 3 0 0 0-.717-.18 12 12 0 0 0-1.473-.095c-.985-.004-1.969.091-2.935.284-1.207.241-2.393.58-3.545 1.01l-.431 1.701c.808.928 1.69 1.79 2.637 2.576.758.63 1.577 1.182 2.446 1.647q.652.35 1.34.617.347.135.717.183l.232.03c.42.055.723.43.688.851l-.126 1.521a.79.79 0 0 1-.819.727l-.234-.01a3 3 0 0 0-.736.063q-.724.15-1.424.388c-.934.316-1.833.725-2.684 1.222a23 23 0 0 0-3.025 2.107l.145 1.748a23 23 0 0 0 3.33 1.58c.922.35 1.876.606 2.849.764q.73.118 1.468.148.372.015.737-.06l.23-.046a.793.793 0 0 1 .926.582l.375 1.479a.79.79 0 0 1-.539.953h.001l-.224.068a3 3 0 0 0-.676.298q-.635.377-1.22.829a14.7 14.7 0 0 0-2.143 2.027 23 23 0 0 0-2.176 2.975l.704 1.606c1.208.236 2.433.375 3.663.414.985.031 1.971-.037 2.943-.203q.728-.125 1.437-.337.356-.106.677-.295l.202-.119a.793.793 0 0 1 1.065.25l.835 1.277a.79.79 0 0 1-.2 1.076l-.19.137q-.301.218-.542.502-.478.564-.886 1.18c-.542.823-1 1.698-1.367 2.613a23 23 0 0 0-1.093 3.52l1.188 1.29a23 23 0 0 0 3.6-.797c.941-.29 1.851-.675 2.716-1.147q.649-.356 1.25-.785.302-.217.545-.5l.152-.177a.793.793 0 0 1 1.089-.11l1.204.937" style="fill:none;stroke:#ff80e5;stroke-width:.264584" transform="translate(-14.406 -274.78)"/><path d="M49.579 281.923c20.883 5.82 36.205 24.98 36.205 47.716 0 9.366-2.6 18.126-7.119 25.596" style="fill:none;stroke:#87deaa;stroke-width:.264584" transform="translate(-14.406 -274.78)"/><path d="M48.531 285.745c19.203 5.362 33.29 22.983 33.29 43.894 0 9.365-2.826 18.07-7.67 25.309" style="fill:none;stroke:#2ca05a;stroke-width:.264584" transform="translate(-14.406 -274.78)"/><path d="M45.994 289.18c18.279 4.387 31.864 20.837 31.864 40.459 0 9.058-2.895 17.44-7.81 24.27" style="fill:none;stroke:#87deaa;stroke-width:.264584" transform="translate(-14.406 -274.78)"/><path d="M70.24 355.922a10 10 0 0 0-.856-1.12l-.179-.136a.79.79 0 0 1-.168-1.088l.75-1.062a.793.793 0 0 1 1.081-.206l.189.123q.656.262 1.342.431.88.219 1.779.341 1.298.177 2.608.185a27 27 0 0 0 3.014-.153l.844-1.63a27 27 0 0 0-1.613-2.549 20 20 0 0 0-1.655-2.024 17 17 0 0 0-1.305-1.257 10 10 0 0 0-1.126-.848l-.21-.082a.79.79 0 0 1-.455-1.003l.435-1.224a.793.793 0 0 1 .986-.49l.215.067q.703.075 1.409.053.906-.027 1.805-.152a20 20 0 0 0 2.562-.525 27 27 0 0 0 2.86-.96l.373-1.797a27 27 0 0 0-2.24-2.02 20 20 0 0 0-2.14-1.502 17 17 0 0 0-1.596-.859q-.639-.301-1.313-.512l-.224-.023a.79.79 0 0 1-.71-.843l.09-1.296a.79.79 0 0 1 .817-.738l.225.007a10 10 0 0 0 1.371-.33 17 17 0 0 0 1.697-.633q1.201-.523 2.325-1.197a27 27 0 0 0 2.495-1.696l-.125-1.83a27 27 0 0 0-2.703-1.341 20 20 0 0 0-2.466-.87 17 17 0 0 0-1.768-.396 10 10 0 0 0-1.402-.14l-.222.039a.793.793 0 0 1-.91-.62l-.265-1.272a.793.793 0 0 1 .588-.931l.219-.054q.639-.301 1.23-.686.761-.495 1.464-1.068a20 20 0 0 0 1.916-1.78 27 27 0 0 0 1.945-2.306l-.615-1.73a27 27 0 0 0-2.964-.561 20 20 0 0 0-2.61-.172q-.907 0-1.809.095-.701.075-1.388.245l-.203.096a.793.793 0 0 1-1.044-.351l-.598-1.154a.79.79 0 0 1 .315-1.055l.196-.11q.534-.462 1-.994.599-.681 1.121-1.423.755-1.07 1.365-2.23.702-1.338 1.25-2.746l-1.058-1.499q-1.51.045-3.006.259-1.297.186-2.56.538a17 17 0 0 0-1.715.58q-.657.261-1.271.61l-.17.148a.793.793 0 0 1-1.1-.057l-.887-.95a.79.79 0 0 1 .018-1.1l.16-.16q.389-.59.695-1.226.392-.818.695-1.673.439-1.235.712-2.516c.21-.984.365-1.98.463-2.98l-1.423-1.159q-1.442.45-2.825 1.06-1.199.529-2.319 1.21-.775.47-1.496 1.02-.562.43-1.059.93l-.124.189a.793.793 0 0 1-1.074.242l-1.11-.676a.79.79 0 0 1-.28-1.065l.11-.196q.216-.673.339-1.368.158-.894.218-1.798.09-1.308.006-2.615a27 27 0 0 0-.358-2.996l-1.683-.73a27 27 0 0 0-2.434 1.782 20 20 0 0 0-1.907 1.79 17 17 0 0 0-1.165 1.386q-.425.564-.769 1.182l-.068.214a.793.793 0 0 1-.97.523l-1.25-.35" style="fill:none;stroke:#08a;stroke-width:.264584" transform="translate(-14.406 -274.78)"/><path d="m55.685 284.097-1.363 3.563" style="fill:none;stroke:#000;stroke-width:.264583;marker-start:url(#a);marker-end:url(#a)" transform="translate(-14.406 -274.78)"/><path d="m57.794 293.828 1.903-2.99" style="fill:none;stroke:#000;stroke-width:.264583;marker-start:url(#a);marker-end:url(#a)" transform="translate(-14.406 -274.78)"/><path d="m66.764 301.131 1.709-1.478" style="fill:none;stroke:#000;stroke-width:.264583;marker-start:url(#a)" transform="translate(-14.406 -274.78)"/><path d="m65.648 302.086-2.588 2.205" style="fill:none;stroke:#000;stroke-width:.264583;marker-start:url(#a)" transform="translate(-14.406 -274.78)"/><path d="m105.9 290.251 1.262 3.704" style="fill:none;stroke:#000;stroke-width:.264583;marker-start:url(#a);marker-end:url(#a)" transform="translate(-14.406 -274.78)"/><text xml:space="preserve" style="font-size:14.6667px;line-height:normal;font-family:&quot;Liberation Mono&quot;;-inkscape-font-specification:&quot;Liberation Mono&quot;;text-align:center;text-decoration-color:#000;white-space:pre;shape-inside:url(#b);display:inline;fill:#217844;stroke-width:1;-inkscape-stroke:none;stop-color:#000" transform="translate(-43.61 -268.992)scale(.26458)"><tspan x="202.279" y="1274.736">primitif circle-1</tspan></text><text xml:space="preserve" style="font-size:14.6667px;line-height:normal;font-family:&quot;Liberation Mono&quot;;-inkscape-font-specification:&quot;Liberation Mono&quot;;text-align:center;text-decoration-color:#000;white-space:pre;shape-inside:url(#c);display:inline;fill:#08a;stroke-width:1;-inkscape-stroke:none;stop-color:#000" transform="translate(-14.406 -274.78)scale(.26458)"><tspan x="121.953" y="1332.9">main gear</tspan></text><text xml:space="preserve" style="font-size:14.6667px;line-height:normal;font-family:&quot;Liberation Mono&quot;;-inkscape-font-specification:&quot;Liberation Mono&quot;;text-align:center;text-decoration-color:#000;white-space:pre;shape-inside:url(#d);display:inline;fill:#ff80e5;fill-opacity:1;stroke-width:1;-inkscape-stroke:none;stop-color:#000" transform="translate(-19.687 -271.186)scale(.26458)"><tspan x="430.147" y="1326.589">second gear</tspan></text><text xml:space="preserve" style="font-size:14.6667px;line-height:normal;font-family:&quot;Liberation Mono&quot;;-inkscape-font-specification:&quot;Liberation Mono&quot;;text-align:center;text-decoration-color:#000;white-space:pre;shape-inside:url(#e);display:inline;fill:#6f918a;stroke-width:1;-inkscape-stroke:none;stop-color:#000" transform="translate(-11.876 -263.401)scale(.26458)"><tspan x="381.915" y="1259.849">primitif circle-2</tspan></text><text xml:space="preserve" style="font-size:14.6667px;line-height:normal;font-family:&quot;Liberation Mono&quot;;-inkscape-font-specification:&quot;Liberation Mono&quot;;text-align:center;text-decoration-color:#000;white-space:pre;shape-inside:url(#f);display:inline;fill:#000;stroke-width:1;-inkscape-stroke:none;stop-color:#000" transform="translate(-64.141 -267.444)scale(.26458)"><tspan x="271.953" y="1037.954">addendum
</tspan><tspan x="263.152" y="1056.288"><tspan style="font-weight:700;-inkscape-font-specification:&quot;Liberation Mono Bold&quot;">ah1</tspan>*module</tspan></text><text xml:space="preserve" style="font-size:14.6667px;line-height:normal;font-family:&quot;Liberation Mono&quot;;-inkscape-font-specification:&quot;Liberation Mono&quot;;text-align:center;text-decoration-color:#000;white-space:pre;shape-inside:url(#g);display:inline;fill:#000;stroke-width:1;-inkscape-stroke:none;stop-color:#000" transform="translate(-23.781 -284.043)scale(.26458)"><tspan x="132.884" y="1159.242">dedendum
</tspan><tspan x="124.083" y="1177.575"><tspan style="font-weight:700;-inkscape-font-specification:&quot;Liberation Mono Bold&quot;">dh1</tspan>*module</tspan></text><text xml:space="preserve" style="font-size:14.6667px;line-height:normal;font-family:&quot;Liberation Mono&quot;;-inkscape-font-specification:&quot;Liberation Mono&quot;;text-align:center;text-decoration-color:#000;white-space:pre;shape-inside:url(#h);display:inline;fill:#000;stroke-width:1;-inkscape-stroke:none;stop-color:#000" transform="translate(-16.291 -278.905)scale(.26458)"><tspan x="163.732" y="1218.843">bottom
</tspan><tspan x="146.129" y="1237.176"><tspan style="font-weight:700;-inkscape-font-specification:&quot;Liberation Mono Bold&quot;">bh1</tspan>*module</tspan></text><text xml:space="preserve" style="font-size:14.6667px;line-height:normal;font-family:&quot;Liberation Mono&quot;;-inkscape-font-specification:&quot;Liberation Mono&quot;;text-align:center;text-decoration-color:#000;white-space:pre;shape-inside:url(#i);display:inline;fill:#000;stroke-width:1;-inkscape-stroke:none;stop-color:#000" transform="translate(-8.494 -270.35)scale(.26458)"><tspan x="159.54" y="1251.353"><tspan style="font-weight:700;-inkscape-font-specification:&quot;Liberation Mono Bold&quot;">bRound1</tspan></tspan></text><text xml:space="preserve" style="font-size:14.6667px;line-height:normal;font-family:&quot;Liberation Mono&quot;;-inkscape-font-specification:&quot;Liberation Mono&quot;;text-align:center;text-decoration-color:#000;white-space:pre;shape-inside:url(#j);display:inline;fill:#000;stroke-width:1;-inkscape-stroke:none;stop-color:#000" transform="translate(32.968 -267.313)scale(.26458)"><tspan x="271.953" y="1037.954">addendum
</tspan><tspan x="263.152" y="1056.288"><tspan style="font-weight:700;-inkscape-font-specification:&quot;Liberation Mono Bold&quot;">ah2</tspan>*module</tspan></text><text xml:space="preserve" style="font-size:14.6667px;line-height:normal;font-family:&quot;Liberation Mono&quot;;-inkscape-font-specification:&quot;Liberation Mono&quot;;text-align:center;text-decoration-color:#000;white-space:pre;shape-inside:url(#k);display:inline;fill:#000;stroke-width:1;-inkscape-stroke:none;stop-color:#000" transform="translate(51.88 -280.88)scale(.26458)"><tspan x="163.732" y="1218.843">bottom
</tspan><tspan x="146.129" y="1237.176"><tspan style="font-weight:700;-inkscape-font-specification:&quot;Liberation Mono Bold&quot;">bh2</tspan>*module</tspan></text><text xml:space="preserve" style="font-size:14.6667px;line-height:normal;font-family:&quot;Liberation Mono&quot;;-inkscape-font-specification:&quot;Liberation Mono&quot;;text-align:center;text-decoration-color:#000;white-space:pre;shape-inside:url(#l);display:inline;fill:#000;stroke-width:1;-inkscape-stroke:none;stop-color:#000" transform="translate(67.313 -278.734)scale(.26458)"><tspan x="132.884" y="1159.242">dedendum
</tspan><tspan x="124.083" y="1177.575"><tspan style="font-weight:700;-inkscape-font-specification:&quot;Liberation Mono Bold&quot;">dh2</tspan>*module</tspan></text><text xml:space="preserve" style="font-size:14.6667px;line-height:normal;font-family:&quot;Liberation Mono&quot;;-inkscape-font-specification:&quot;Liberation Mono&quot;;text-align:center;text-decoration-color:#000;white-space:pre;shape-inside:url(#m);display:inline;fill:#000;stroke-width:1;-inkscape-stroke:none;stop-color:#000" transform="translate(36.722 -270.866)scale(.26458)"><tspan x="159.54" y="1251.353"><tspan style="font-weight:700;-inkscape-font-specification:&quot;Liberation Mono Bold&quot;">bRound2</tspan></tspan></text><path d="m101.624 296.568 1.834 3.104" style="fill:none;stroke:#000;stroke-width:.264583;marker-start:url(#a);marker-end:url(#a)" transform="translate(-14.406 -274.78)"/><path d="m94.638 306.844-1.904-1.565" style="fill:none;stroke:#000;stroke-width:.264583;marker-start:url(#a)" transform="translate(-14.406 -274.78)"/><path d="m95.324 307.724 2.586 3.046" style="fill:none;stroke:#000;stroke-width:.264583;marker-start:url(#a)" transform="translate(-14.406 -274.78)"/><path d="m41.857 281.816 11.91 4.04" style="fill:none;stroke:#000;stroke-width:.264583;marker-end:url(#a)" transform="translate(-14.406 -274.78)"/><path d="m45.133 296.614 12.192-4.286" style="fill:none;stroke:#000;stroke-width:.264583;marker-end:url(#a)" transform="translate(-14.406 -274.78)"/><path d="m57.972 318.558 6.566-14.289" style="fill:none;stroke:#000;stroke-width:.264583;marker-end:url(#a)" transform="translate(-14.406 -274.78)"/><path d="m65.101 333.927 10.417-10.638" style="fill:none;stroke:#000;stroke-width:.264583;marker-end:url(#a)" transform="translate(-14.406 -274.78)"/><path d="m116.643 287.283-8.982 4.518" style="fill:none;stroke:#000;stroke-width:.264583;marker-end:url(#a)" transform="translate(-14.406 -274.78)"/><path d="m103.407 297.966 13.041 3.582" style="fill:none;stroke:#000;stroke-width:.264583;marker-start:url(#a)" transform="translate(-14.406 -274.78)"/><path d="m97.22 308.672 11.968 6.155" style="fill:none;stroke:#000;stroke-width:.264583;marker-start:url(#a)" transform="translate(-14.406 -274.78)"/><path d="M89.133 318.435 94 331.015" style="fill:none;stroke:#000;stroke-width:.264583;marker-start:url(#a)" transform="translate(-14.406 -274.78)"/><path d="m64.16 342.321 12.32 7.65" style="fill:none;stroke:#2ca05a;stroke-width:.264583;marker-end:url(#a)" transform="translate(-14.406 -274.78)"/><path d="m53.022 352.38 14.829 1.574" style="fill:none;stroke:#08a;stroke-width:.264583;marker-end:url(#a)" transform="translate(-14.406 -274.78)"/><path d="m107.87 353.286-7.573 1.776" style="fill:none;stroke:#ff80e5;stroke-width:.264583;stroke-opacity:1;marker-end:url(#a)" transform="translate(-14.406 -274.78)"/><path d="m103.252 343.556-10.755 11.276" style="fill:none;stroke:#6f918a;stroke-width:.264583;marker-end:url(#a)" transform="translate(-14.406 -274.78)"/></svg>