<svg xmlns="http://www.w3.org/2000/svg" xml:space="preserve" width="480.2" height="374.427" viewBox="0 0 127.053 99.067"><defs><path id="g" d="M227.721 1517.389H336.01v41.709H227.721z"/><path id="a" d="M187.21 1261.686h179.766v25.994H187.21z"/><path id="b" d="M89.728 1319.85h143.663v45.051H89.728z"/><path id="c" d="M410.465 1313.54h136.18v53.776h-136.18z"/><path id="d" d="M379.841 1246.8h153.774v31.679H379.841z"/><path id="h" d="M227.721 1517.389H336.01v41.709H227.721z"/><marker id="f" markerHeight="1" markerWidth="1" orient="auto-start-reverse" preserveAspectRatio="xMidYMid" refX="0" refY="0" style="overflow:visible" viewBox="0 0 1 1"><path d="M3-3 0 0l3 3" style="fill:none;stroke:context-stroke;stroke-width:1;stroke-linecap:butt" transform="rotate(180 .125 0)"/></marker><marker id="e" markerHeight="1" markerWidth="1" orient="auto-start-reverse" preserveAspectRatio="xMidYMid" refX="0" refY="0" style="overflow:visible" viewBox="0 0 1 1"><path d="M3-3 0 0l3 3" style="fill:none;stroke:context-stroke;stroke-width:1;stroke-linecap:butt" transform="rotate(180 .125 0)"/></marker></defs><path d="M16.669 393.603h126.788v98.803H16.669z" style="fill:#fff;stroke:#fff;stroke-width:.264583" transform="translate(-16.537 -393.471)"/><path d="m83.013 420.495 15.252 17.296M98.075 413.224l7.247 18.954M89.807 416.243l11.727 17.688" style="fill:none;stroke:#b3b3b3;stroke-width:.264583" transform="translate(-16.537 -393.471)"/><path d="m70.228 417.726-11.003 12.741" style="fill:none;stroke:#ccc;stroke-width:.264583" transform="translate(-16.537 -393.471)"/><path d="m64.467 413.36-9.202 13.24M57.16 410.765l-5.86 13.411" style="fill:#fff;stroke:#ccc;stroke-width:.264583" transform="translate(-16.537 -393.471)"/><path d="M91.093 490.204c-9.708-7.616-15.946-19.455-15.946-32.75 0-20.316 14.562-37.23 33.818-40.878" style="fill:none;stroke:#d7f4e3;stroke-width:.264584" transform="translate(-16.537 -393.471)"/><path d="M94.437 487.77c-9.296-6.854-15.327-17.881-15.327-30.317 0-18.511 13.364-33.902 30.97-37.053" style="fill:none;stroke:#6f918a;stroke-width:.264584" transform="translate(-16.537 -393.471)"/><path d="M96.499 484.364c-8.154-6.147-13.426-15.914-13.426-26.91 0-17.002 12.598-31.06 28.968-33.354" style="fill:none;stroke:#d7f4e3;stroke-width:.264584" transform="translate(-16.537 -393.471)"/><path d="m112.135 425.118-1.506.252a.793.793 0 0 1-.905-.616l-.05-.228a3 3 0 0 0-.24-.699 12 12 0 0 0-.726-1.285 14.7 14.7 0 0 0-1.844-2.301 23 23 0 0 0-2.785-2.415l-1.66.57a23 23 0 0 0-.714 3.615 14.7 14.7 0 0 0-.04 2.95q.063.736.216 1.459.076.364.238.7l.102.21a.79.79 0 0 1-.336 1.041l-1.342.726a.793.793 0 0 1-1.056-.287l-.121-.2a3 3 0 0 0-.455-.583 12 12 0 0 0-1.104-.98 14.7 14.7 0 0 0-2.491-1.578 23 23 0 0 0-3.418-1.38l-1.385 1.078c.068 1.229.234 2.45.498 3.652.212.962.52 1.901.92 2.802q.3.676.678 1.31.191.319.453.584l.165.166c.297.301.306.783.02 1.095l-1.034 1.122a.793.793 0 0 1-1.092.07l-.18-.15a3 3 0 0 0-.62-.402 12 12 0 0 0-1.361-.569 14.7 14.7 0 0 0-2.869-.684 23 23 0 0 0-3.681-.195l-.96 1.469a23 23 0 0 0 1.658 3.292 14.7 14.7 0 0 0 1.779 2.352q.503.541 1.067 1.019.286.24.618.405l.21.104c.38.188.544.64.374 1.029l-.613 1.397a.793.793 0 0 1-1.01.421l-.219-.084a3 3 0 0 0-.716-.18 12 12 0 0 0-1.473-.095c-.986-.004-1.97.091-2.936.284-1.207.241-2.392.58-3.545 1.011l-.43 1.7c.808.929 1.69 1.79 2.636 2.576.758.63 1.578 1.182 2.447 1.647q.652.35 1.34.617.347.135.716.183l.232.03c.42.055.723.43.688.852l-.126 1.52a.79.79 0 0 1-.818.727l-.234-.01a3 3 0 0 0-.736.063q-.724.15-1.424.388c-.934.316-1.833.726-2.685 1.222a23 23 0 0 0-3.024 2.107l.145 1.748a23 23 0 0 0 3.33 1.58c.921.35 1.876.606 2.849.764q.73.119 1.468.148.372.015.736-.06l.23-.046a.793.793 0 0 1 .927.582l.374 1.479a.79.79 0 0 1-.538.953l-.223.068a3 3 0 0 0-.676.298q-.636.377-1.221.83a14.7 14.7 0 0 0-2.142 2.026 23 23 0 0 0-2.177 2.975l.705 1.606c1.208.236 2.433.375 3.663.414.985.031 1.97-.037 2.942-.203q.73-.125 1.437-.336.356-.107.677-.296l.202-.118a.793.793 0 0 1 1.066.249l.835 1.277a.79.79 0 0 1-.2 1.076l-.19.137q-.302.218-.542.502-.48.564-.886 1.18c-.542.823-1 1.699-1.368 2.613a23 23 0 0 0-1.092 3.52l1.188 1.291a23 23 0 0 0 3.599-.798c.942-.29 1.852-.675 2.717-1.147q.649-.355 1.25-.785c.2-.144.384-.311.544-.5l.153-.177a.793.793 0 0 1 1.089-.11l1.204.937" style="fill:none;stroke:#ff80e5;stroke-width:.264584" transform="translate(-16.537 -393.471)"/><path d="M46.869 409.737c20.882 5.82 36.204 24.98 36.204 47.716 0 9.367-2.6 18.126-7.118 25.596" style="fill:none;stroke:#87deaa;stroke-width:.264584" transform="translate(-16.537 -393.471)"/><path d="M45.82 413.56c19.204 5.361 33.29 22.982 33.29 43.893 0 9.365-2.825 18.07-7.67 25.309" style="fill:none;stroke:#2ca05a;stroke-width:.264584" transform="translate(-16.537 -393.471)"/><path d="M43.283 416.995c18.28 4.387 31.864 20.836 31.864 40.458 0 9.058-2.894 17.44-7.81 24.27" style="fill:none;stroke:#87deaa;stroke-width:.264584" transform="translate(-16.537 -393.471)"/><path d="M67.53 483.736a10 10 0 0 0-.856-1.12l-.18-.136a.79.79 0 0 1-.168-1.088l.75-1.062a.793.793 0 0 1 1.082-.206l.188.124q.657.261 1.342.43.88.22 1.78.341c.864.119 1.736.18 2.608.185a27 27 0 0 0 3.013-.153l.844-1.629a27 27 0 0 0-1.612-2.55 20 20 0 0 0-1.656-2.024 17 17 0 0 0-1.304-1.257 10 10 0 0 0-1.126-.847l-.21-.083a.79.79 0 0 1-.455-1.003l.435-1.224a.793.793 0 0 1 .986-.49l.215.068q.702.075 1.409.053.906-.029 1.805-.152a20 20 0 0 0 2.562-.526q1.456-.399 2.86-.96l.373-1.797a27 27 0 0 0-2.24-2.02 20 20 0 0 0-2.141-1.502 17 17 0 0 0-1.595-.859q-.64-.3-1.313-.512l-.224-.023a.79.79 0 0 1-.71-.843l.09-1.296a.79.79 0 0 1 .816-.738l.226.007a10 10 0 0 0 1.37-.33 17 17 0 0 0 1.698-.632q1.201-.523 2.325-1.197a27 27 0 0 0 2.495-1.697l-.125-1.83a27 27 0 0 0-2.703-1.34 20 20 0 0 0-2.466-.87 17 17 0 0 0-1.768-.397 10 10 0 0 0-1.403-.139l-.222.038a.793.793 0 0 1-.91-.62l-.264-1.272a.793.793 0 0 1 .587-.931l.22-.054q.638-.301 1.23-.686.76-.495 1.464-1.068a20 20 0 0 0 1.916-1.78 27 27 0 0 0 1.944-2.306l-.614-1.729a27 27 0 0 0-2.964-.562 20 20 0 0 0-2.61-.172q-.907 0-1.809.096-.703.074-1.388.244l-.204.096a.793.793 0 0 1-1.043-.35l-.598-1.155a.79.79 0 0 1 .314-1.055l.197-.11q.534-.462 1-.994.599-.682 1.121-1.422.755-1.072 1.364-2.231.704-1.338 1.25-2.746l-1.058-1.498q-1.51.044-3.005.258-1.297.186-2.56.539a17 17 0 0 0-1.716.58q-.656.26-1.27.609l-.17.148a.793.793 0 0 1-1.1-.057l-.887-.95a.79.79 0 0 1 .018-1.1l.16-.16q.389-.589.694-1.226.393-.818.696-1.673.439-1.234.712-2.516.315-1.477.463-2.98l-1.423-1.158q-1.442.45-2.825 1.06-1.199.528-2.319 1.208-.775.471-1.496 1.021-.562.43-1.06.93l-.123.189a.793.793 0 0 1-1.074.242l-1.11-.675a.79.79 0 0 1-.28-1.065l.11-.197q.216-.673.339-1.368.156-.893.218-1.798.088-1.307.006-2.615a27 27 0 0 0-.358-2.995l-1.683-.731a27 27 0 0 0-2.434 1.782 20 20 0 0 0-1.907 1.79 17 17 0 0 0-1.165 1.387q-.425.563-.77 1.181l-.068.215a.793.793 0 0 1-.969.523l-1.251-.351" style="fill:none;stroke:#08a;stroke-width:.264584" transform="translate(-16.537 -393.471)"/><text xml:space="preserve" style="font-size:14.6667px;line-height:normal;font-family:&quot;Liberation Mono&quot;;-inkscape-font-specification:&quot;Liberation Mono&quot;;text-align:center;text-decoration-color:#000;white-space:pre;shape-inside:url(#a);display:inline;fill:#217844;stroke-width:1;-inkscape-stroke:none;stop-color:#000" transform="translate(-48.45 -259.869)scale(.26458)"><tspan x="202.279" y="1274.736">primitif circle-1</tspan></text><text xml:space="preserve" style="font-size:14.6667px;line-height:normal;font-family:&quot;Liberation Mono&quot;;-inkscape-font-specification:&quot;Liberation Mono&quot;;text-align:center;text-decoration-color:#000;white-space:pre;shape-inside:url(#b);display:inline;fill:#08a;stroke-width:1;-inkscape-stroke:none;stop-color:#000" transform="translate(-19.247 -265.657)scale(.26458)"><tspan x="121.953" y="1332.9">main gear</tspan></text><text xml:space="preserve" style="font-size:14.6667px;line-height:normal;font-family:&quot;Liberation Mono&quot;;-inkscape-font-specification:&quot;Liberation Mono&quot;;text-align:center;text-decoration-color:#000;white-space:pre;shape-inside:url(#c);display:inline;fill:#ff80e5;fill-opacity:1;stroke-width:1;-inkscape-stroke:none;stop-color:#000" transform="translate(-24.527 -262.063)scale(.26458)"><tspan x="430.147" y="1326.589">second gear</tspan></text><text xml:space="preserve" style="font-size:14.6667px;line-height:normal;font-family:&quot;Liberation Mono&quot;;-inkscape-font-specification:&quot;Liberation Mono&quot;;text-align:center;text-decoration-color:#000;white-space:pre;shape-inside:url(#d);display:inline;fill:#6f918a;stroke-width:1;-inkscape-stroke:none;stop-color:#000" transform="translate(-16.717 -254.278)scale(.26458)"><tspan x="381.915" y="1259.849">primitif circle-2</tspan></text><path d="m61.45 470.136 12.32 7.649" style="fill:none;stroke:#2ca05a;stroke-width:.264583;marker-end:url(#e)" transform="translate(-16.537 -393.471)"/><path d="m50.312 480.194 14.828 1.574" style="fill:none;stroke:#08a;stroke-width:.264583;marker-end:url(#e)" transform="translate(-16.537 -393.471)"/><path d="m105.159 481.1-7.572 1.776" style="fill:none;stroke:#ff80e5;stroke-width:.264583;stroke-opacity:1;marker-end:url(#e)" transform="translate(-16.537 -393.471)"/><path d="m100.542 471.37-10.756 11.277" style="fill:none;stroke:#6f918a;stroke-width:.264583;marker-end:url(#e)" transform="translate(-16.537 -393.471)"/><path d="m54.399 417.354 1.74.96 1.395.778 1.848 1.29" style="fill:#fff;stroke:#fc0;stroke-width:.529167" transform="translate(-16.537 -393.471)"/><path d="m60.101 419.965 1.095.792 1.102.811 1.338 1.092 1.134 1.2" style="fill:#fff;stroke:#f60;stroke-width:.529167" transform="translate(-16.537 -393.471)"/><path d="M56.606 412.438s2.93 1.49 4.3 2.393c.96.633 1.839 1.383 2.732 2.108 1.399 1.136 4.11 3.51 4.11 3.51" style="fill:none;stroke:#1a1a1a;stroke-width:.264583;marker-start:url(#f);marker-end:url(#f)" transform="translate(-16.537 -393.471)"/><path d="M63.921 414.59s1.77 1.128 2.563 1.81c.87.748 2.385 2.483 2.385 2.483" style="fill:#fff;stroke:#1a1a1a;stroke-width:.264583;marker-start:url(#f);marker-end:url(#f)" transform="translate(-16.537 -393.471)"/><text xml:space="preserve" style="font-size:14.6667px;line-height:normal;font-family:&quot;Liberation Mono&quot;;-inkscape-font-specification:&quot;Liberation Mono&quot;;text-align:center;text-decoration-color:#000;white-space:pre;shape-inside:url(#g);fill:#000;stroke-width:1;-inkscape-stroke:none;stop-color:#000" transform="translate(-22.897 -397.8)scale(.26458)"><tspan x="237.858" y="1530.439">addendum %
</tspan><tspan x="268.663" y="1548.772"><tspan style="font-weight:700;-inkscape-font-specification:&quot;Liberation Mono Bold&quot;">at1</tspan></tspan></text><path d="m68.37 406.709-3.607 5.984" style="fill:none;stroke:#000;stroke-width:.264583;marker-end:url(#f)" transform="translate(-16.537 -393.471)"/><text xml:space="preserve" style="font-size:14.6667px;line-height:normal;font-family:&quot;Liberation Mono&quot;;-inkscape-font-specification:&quot;Liberation Mono&quot;;text-align:center;text-decoration-color:#000;white-space:pre;shape-inside:url(#h);display:inline;fill:#000;stroke-width:1;-inkscape-stroke:none;stop-color:#000" transform="translate(4.58 -393.17)scale(.26458)"><tspan x="237.858" y="1530.439">addendum %
</tspan><tspan x="268.663" y="1548.772"><tspan style="font-weight:700;-inkscape-font-specification:&quot;Liberation Mono Bold&quot;">at2</tspan></tspan></text><path d="M91.15 429.476s1.323-1.32 2.044-1.912c.89-.73 2.805-2.01 2.805-2.01" style="fill:none;stroke:#f60;stroke-width:.529167" transform="translate(-16.537 -393.471)"/><path d="M96.568 426.115s1.573-.96 2.38-1.406c.926-.513 2.823-1.462 2.823-1.462" style="fill:none;stroke:#fc0;stroke-width:.529167" transform="translate(-16.537 -393.471)"/><path d="M87.213 425.133s2.313-2.163 3.565-3.128c1.36-1.047 2.76-2.065 4.273-2.875 1.394-.746 4.385-1.804 4.385-1.804" style="fill:none;stroke:#000;stroke-width:.264583;marker-start:url(#f);marker-end:url(#f)" transform="translate(-16.537 -393.471)"/><path d="M91.291 418.241s2.07-1.511 3.208-2.089c1.265-.642 3.981-1.51 3.981-1.51" style="fill:none;stroke:#000;stroke-width:.264583;marker-start:url(#f);marker-end:url(#f)" transform="translate(-16.537 -393.471)"/><path d="m94.14 410.548.186 4.702" style="fill:none;stroke:#000;stroke-width:.264583;marker-end:url(#f)" transform="translate(-16.537 -393.471)"/></svg>