<svg xmlns="http://www.w3.org/2000/svg" xml:space="preserve" width="427.578" height="493.798" viewBox="0 0 113.13 130.651"><defs><path id="g" d="M331.51 4343.817h203.157v48.275H331.51z"/><path id="f" d="M129.526 4316.38h185.478v41.334H129.526z"/><path id="e" d="M299.167 4915.453H516.14v35.944H299.167z"/><path id="d" d="M167.128 4855.711h319.043v108.198H167.128z"/><path id="b" d="M170.581 3487.722h135.593v35.6H170.581z"/><path id="c" d="M364.736 3494.31h114.88v28.21h-114.88z"/><marker id="a" markerHeight="1" markerWidth="1" orient="auto-start-reverse" preserveAspectRatio="xMidYMid" refX="0" refY="0" style="overflow:visible" viewBox="0 0 1 1"><path d="M3-3 0 0l3 3" style="fill:none;stroke:context-stroke;stroke-width:1;stroke-linecap:butt" transform="rotate(180 .125 0)"/></marker></defs><g transform="translate(-20.964 -1165.774)"><path d="M21.096 1165.907h112.866v130.386H21.096z" style="fill:#fff;stroke:#fff;stroke-width:.264583"/><path d="M38.747 1279.011a1.8 1.8 0 0 1 3.02.126q1.49.592 3.046.975a39 39 0 0 0 4.037.772 51 51 0 0 0 6.367.469 55 55 0 0 0 6.684-.319l3.186-5.541a61 61 0 0 0-3.658-5.77 45.5 45.5 0 0 0-3.757-4.581 47 47 0 0 0-3.27-3.172 21 21 0 0 0-2.424-1.838h-.435c-1.25 0-2.132-1.219-1.714-2.394l.356-.998a1.8 1.8 0 0 1 2.94-.693h.002q1.595.169 3.197.12a38 38 0 0 0 4.095-.345c2.11-.291 4.2-.711 6.259-1.261a57 57 0 0 0 6.349-2.106l1.57-6.193a61 61 0 0 0-5.085-4.572 46 46 0 0 0-4.856-3.4 47 47 0 0 0-4.007-2.175 21 21 0 0 0-2.832-1.117l-.417.122c-1.2.35-2.383-.6-2.298-1.844l.073-1.056c.089-1.3 1.493-2.074 2.644-1.459h.002a23 23 0 0 0 3.11-.744 39 39 0 0 0 3.852-1.433 51 51 0 0 0 5.685-2.9 56 56 0 0 0 5.544-3.735l-.164-6.386a61 61 0 0 0-6.133-3.034 46 46 0 0 0-5.596-1.968 47 47 0 0 0-4.447-1.015c-1-.18-2.013-.285-3.028-.315l-.369.23a1.8 1.8 0 0 1-2.712-1.157l-.216-1.037c-.265-1.275.877-2.398 2.152-2.116h.002a23.4 23.4 0 0 0 2.794-1.553 39 39 0 0 0 3.32-2.416 51 51 0 0 0 4.69-4.321 56 56 0 0 0 4.328-5.09l-1.885-6.104a61 61 0 0 0-6.726-1.272 46 46 0 0 0-5.921-.389q-2.284-.001-4.557.217a21 21 0 0 0-3.001.513l-.293.319a1.8 1.8 0 0 1-2.924-.385l-.49-.94" style="fill:none;stroke:#00f;stroke-width:.264583"/><path d="m105.347 1195.57-.93 2.113a1.8 1.8 0 0 1-2.772.678h-.01a7 7 0 0 0-1.626-.407 28 28 0 0 0-3.342-.217c-2.361 0-4.718.21-7.037.657a49.3 49.3 0 0 0-7.923 2.226l-1.522 5.037a52 52 0 0 0 5.982 5.83 33.3 33.3 0 0 0 5.551 3.727 35 35 0 0 0 3.375 1.58 6 6 0 0 0 1.494.392l.353-.047a1.796 1.796 0 0 1 2.031 1.926l-.19 2.298a1.798 1.798 0 0 1-2.402 1.54h-.013c-.56-.034-1.121.034-1.67.142a28 28 0 0 0-3.231.878 36.3 36.3 0 0 0-6.442 2.9 49 49 0 0 0-6.769 4.67l.2 5.258a52 52 0 0 0 7.556 3.577 33.3 33.3 0 0 0 6.464 1.728q1.842.299 3.706.4c.516.034 1.034 0 1.541-.111l.319-.16a1.8 1.8 0 0 1 2.548 1.164l.568 2.236a1.795 1.795 0 0 1-1.771 2.234h-.017a7 7 0 0 0-1.534.674 28 28 0 0 0-2.77 1.877 36.2 36.2 0 0 0-5.149 4.829 49 49 0 0 0-4.88 6.61l1.9 4.907c2.74.535 5.52.848 8.311.937a33.2 33.2 0 0 0 6.677-.46 36 36 0 0 0 3.635-.82 6.1 6.1 0 0 0 1.42-.607l.25-.254a1.8 1.8 0 0 1 2.79.275l1.264 1.93c.648.989.178 2.32-.947 2.687h-.013a7 7 0 0 0-1.23 1.135 28 28 0 0 0-2.01 2.671 36 36 0 0 0-3.297 6.235 49 49 0 0 0-2.465 7.832l3.396 4.027a52 52 0 0 0 8.165-1.806 33.3 33.3 0 0 0 6.165-2.597 35 35 0 0 0 3.171-1.953c.425-.295.81-.641 1.147-1.033l.154-.322a1.8 1.8 0 0 1 2.727-.643" style="fill:none;stroke:#ff80e5;stroke-width:.264583"/><path fill="none" stroke="gold" stroke-width=".265" d="m57.612 1229.518.823-.156.965-.223 1.102-.302 1.233-.393 1.36-.495 1.478-.607 1.59-.73 1.696-.861 1.791-1.004 1.88-1.156 1.955-1.314 2.024-1.483-.284-4.143-2.207-1.194-2.118-1.037-2.019-.89-1.912-.75-1.797-.624-1.676-.507-1.547-.4-1.414-.305-1.276-.224-1.132-.149-.987-.091-.837-.044zM99.577 1248.496l-.132.047-.388.16-.629.301-.853.474-1.06.673-1.242.9-1.401 1.148-1.534 1.421-1.638 1.712-1.712 2.02-1.753 2.342-1.761 2.677 1.599 3.636 3.167.52 2.915.301 2.65.112 2.372-.044 2.087-.163 1.797-.25 1.505-.302 1.214-.322.927-.305.649-.258.379-.176.123-.065z"/><path d="m66.854 1211.252 2.576-8.588" style="fill:none;stroke:#000;stroke-width:.264583;marker-start:url(#a)"/><path d="m66.41 1212.86-2.45 9.417" style="fill:none;stroke:#000;stroke-width:.264583;marker-start:url(#a)"/><path d="m97.044 1266.763-.028-9.185" style="fill:none;stroke:#000;stroke-width:.264583;marker-start:url(#a)"/><path d="m97.04 1267.771.019 8.94" style="fill:none;stroke:#000;stroke-width:.264583;marker-start:url(#a)"/><text xml:space="preserve" style="font-size:14.6667px;line-height:normal;font-family:&quot;Liberation Mono&quot;;-inkscape-font-specification:&quot;Liberation Mono&quot;;text-align:center;text-decoration-color:#000;white-space:pre;shape-inside:url(#b);display:inline;fill:#00f;stroke-width:1;-inkscape-stroke:none;stop-color:#000" transform="translate(-24.873 305.476)scale(.26458)"><tspan x="189.969" y="3500.773">gearwheel-1</tspan></text><text xml:space="preserve" style="font-size:14.6667px;line-height:normal;font-family:&quot;Liberation Mono&quot;;-inkscape-font-specification:&quot;Liberation Mono&quot;;text-align:center;text-decoration-color:#000;white-space:pre;shape-inside:url(#c);display:inline;fill:#ff80e5;stroke-width:1;-inkscape-stroke:none;stop-color:#000" transform="translate(5.093 313.414)scale(.26458)"><tspan x="373.769" y="3507.361">gearwheel-2</tspan></text><text xml:space="preserve" style="font-size:14.6667px;line-height:normal;font-family:&quot;Liberation Mono&quot;;-inkscape-font-specification:&quot;Liberation Mono&quot;;text-align:center;text-decoration-color:#000;white-space:pre;shape-inside:url(#d);fill:#000;stroke-width:1;-inkscape-stroke:none;stop-color:#000" transform="translate(-24.58 -87.894)scale(.26458)"><tspan x="265.04" y="4868.761"><tspan style="font-weight:700;-inkscape-font-specification:&quot;Liberation Mono Bold&quot;">skinThickness1</tspan></tspan></text><text xml:space="preserve" style="font-size:14.6667px;line-height:normal;font-family:&quot;Liberation Mono&quot;;-inkscape-font-specification:&quot;Liberation Mono&quot;;text-align:center;text-decoration-color:#000;white-space:pre;shape-inside:url(#e);fill:#000;stroke-width:1;-inkscape-stroke:none;stop-color:#000" transform="translate(-4.45 -22.925)scale(.26458)"><tspan x="346.043" y="4928.503"><tspan style="font-weight:700;-inkscape-font-specification:&quot;Liberation Mono Bold&quot;">skinThickness2</tspan></tspan></text><circle cx="81.766" cy="1200.595" r=".637" style="fill:none;stroke:#000;stroke-width:.264583"/><circle cx="89.9" cy="1198.34" r=".637" style="fill:none;stroke:#000;stroke-width:.264583"/><circle cx="96.543" cy="1197.671" r=".637" style="fill:none;stroke:#000;stroke-width:.264583"/><circle cx="99.591" cy="1197.837" r=".637" style="fill:none;stroke:#000;stroke-width:.264583"/><circle cx="101.426" cy="1198.238" r=".637" style="fill:none;stroke:#000;stroke-width:.264583"/><circle cx="48.637" cy="1184.693" r=".637" style="fill:none;stroke:#000;stroke-width:.264583"/><circle cx="68.604" cy="1185.571" r=".637" style="fill:none;stroke:#000;stroke-width:.264583"/><circle cx="50.454" cy="1184.357" r=".637" style="fill:none;stroke:#000;stroke-width:.264583"/><circle cx="53.452" cy="1184.004" r=".637" style="fill:none;stroke:#000;stroke-width:.264583"/><circle cx="60.13" cy="1184.256" r=".637" style="fill:none;stroke:#000;stroke-width:.264583"/><text xml:space="preserve" style="font-style:normal;font-variant:normal;font-weight:700;font-stretch:normal;font-size:14.6667px;line-height:normal;font-family:&quot;Liberation Mono&quot;;-inkscape-font-specification:&quot;Liberation Mono Bold&quot;;text-align:center;text-decoration-color:#000;white-space:pre;shape-inside:url(#f);fill:#000;stroke-width:1;-inkscape-stroke:none;stop-color:#000" transform="translate(-.012 27.338)scale(.26458)"><tspan x="160.655" y="4329.24">involArcPairs1</tspan></text><text xml:space="preserve" style="font-style:normal;font-variant:normal;font-weight:700;font-stretch:normal;font-size:14.6667px;line-height:normal;font-family:&quot;Liberation Mono&quot;;-inkscape-font-specification:&quot;Liberation Mono Bold&quot;;text-align:center;text-decoration-color:#000;white-space:pre;shape-inside:url(#g);fill:#000;stroke-width:1;-inkscape-stroke:none;stop-color:#000" transform="translate(-18.404 34.183)scale(.26458)"><tspan x="371.479" y="4356.677">involArcPairs2</tspan></text><path d="m48.692 1183.408 9.033-10.409 10.096 11.392" style="fill:none;stroke:#000;stroke-width:.264583;marker-start:url(#a);marker-end:url(#a)"/><path d="m82.152 1199.058 10.84-11.4 8.067 9.167" style="fill:none;stroke:#000;stroke-width:.264583;marker-start:url(#a);marker-end:url(#a)"/></g></svg>