<svg xmlns="http://www.w3.org/2000/svg" xml:space="preserve" width="341.48" height="437.014" viewBox="0 0 90.35 115.627"><defs><path id="i" d="M374.793 3677.19h168.368v153.864H374.793z"/><path id="h" d="M360.362 3656.642h52.12v22.266h-52.12z"/><path id="g" d="M270.111 3653.655h38.096v31.598h-38.096z"/><path id="f" d="M248.493 3598.805h230.912v131.772H248.493z"/><path id="e" d="M364.736 3494.31h114.88v28.21h-114.88z"/><path id="d" d="M170.581 3487.722h135.593v35.6H170.581z"/><path id="b" d="M264.443 3319.99h113.271v19.988H264.443z"/><path id="a" d="M317.142 3384.434H453.43v26.694H317.142z"/><path id="j" d="M374.793 3677.19h168.368v153.864H374.793z"/><marker id="c" markerHeight="1" markerWidth="1" orient="auto-start-reverse" preserveAspectRatio="xMidYMid" refX="0" refY="0" style="overflow:visible" viewBox="0 0 1 1"><path d="M3-3 0 0l3 3" style="fill:none;stroke:context-stroke;stroke-width:1;stroke-linecap:butt" transform="rotate(180 .125 0)"/></marker></defs><path d="M45.401 878.204h90.085v115.362H45.401z" style="fill:#fff;stroke:#fff;stroke-width:.264583" transform="translate(-45.268 -878.072)"/><path d="M90.37 955.315h41.788v4.179H90.37z" style="fill:#d5f6ff;stroke:gray;stroke-width:.264584" transform="translate(-45.268 -878.072)"/><path d="M48.582 959.494H90.37v30.533H48.582zM48.582 955.315H90.37v4.179H48.582z" style="fill:#d7f4e3;stroke:gray;stroke-width:.264584" transform="translate(-45.268 -878.072)"/><path d="m81.41 944.115 1.982 1.21q.118.072.244.125.253.104.513.189.523.17 1.06.27.675.124 1.357.18l.653-1.204a21 21 0 0 0-.773-1.755q-.393-.795-.863-1.546-.392-.629-.839-1.218a14 14 0 0 0-.855-1.022l-.143-.053a.53.53 0 0 1-.32-.66l.347-1.066a.53.53 0 0 1 .647-.345l2.235.63q.132.038.269.054.271.033.545.044.548.022 1.094-.027.683-.06 1.355-.192l.304-1.336a21 21 0 0 0-1.218-1.48 18 18 0 0 0-1.249-1.257 17 17 0 0 0-1.135-.947q-.53-.403-1.1-.752l-.151-.013a.53.53 0 0 1-.486-.549l.046-1.12a.53.53 0 0 1 .53-.508v.001l2.322.004q.137 0 .273-.02.27-.042.537-.105a8 8 0 0 0 1.047-.321q.64-.244 1.252-.55l-.068-1.369a21 21 0 0 0-1.572-1.097q-.75-.475-1.541-.873-.66-.333-1.35-.605a14 14 0 0 0-1.26-.429l-.15.03a.53.53 0 0 1-.616-.398l-.258-1.091a.53.53 0 0 1 .373-.632l2.237-.622q.133-.037.258-.094.249-.114.489-.246.48-.265.92-.591.551-.406 1.058-.868l-.434-1.3a21 21 0 0 0-1.81-.632q-.85-.255-1.72-.425a17 17 0 0 0-1.462-.218q-.663-.069-1.33-.072l-.136.068a.53.53 0 0 1-.701-.217l-.543-.98a.53.53 0 0 1 .19-.71l1.986-1.203q.117-.07.222-.16.21-.176.405-.368.39-.386.727-.818.42-.54.784-1.121l-.768-1.134q-.955-.104-1.914-.12-.886-.017-1.77.054-.738.06-1.467.184a14 14 0 0 0-1.3.29l-.114.103a.53.53 0 0 1-.733-.02l-.787-.799a.53.53 0 0 1-.01-.733l1.59-1.694q.093-.101.17-.214.155-.227.29-.464.272-.477.48-.984.26-.633.452-1.291l-1.045-.885a21 21 0 0 0-1.876.4q-.857.225-1.69.531-.694.256-1.363.573-.602.285-1.173.63l-.081.129a.53.53 0 0 1-.712.179l-.973-.557a.53.53 0 0 1-.207-.704l1.072-2.06q.064-.12.107-.252.088-.26.154-.525.135-.532.197-1.077.08-.68.087-1.365l-1.245-.57q-.87.409-1.698.892-.766.447-1.484.967-.6.434-1.158.92-.503.436-.96.922l-.044.146a.53.53 0 0 1-.636.365" style="fill:none;stroke:#00f;stroke-width:.264583" transform="translate(-45.268 -878.072)"/><path d="m109.674 908.226-1.106.221a.53.53 0 0 1-.616-.39l-.588-2.337a1.6 1.6 0 0 0-.087-.254 6 6 0 0 0-.238-.482 8 8 0 0 0-.582-.904 12 12 0 0 0-.866-1.027l-1.242.395q-.398.913-.694 1.864a15 15 0 0 0-.43 1.754q-.13.71-.183 1.43-.045.63-.014 1.261l.073.14a.53.53 0 0 1-.203.701l-.974.568a.53.53 0 0 1-.71-.168l-1.315-2.02a1.6 1.6 0 0 0-.165-.213 6 6 0 0 0-.382-.378 8 8 0 0 0-.844-.665q-.556-.378-1.152-.691l-1.046.777q-.08.993-.051 1.988.026.904.161 1.799.109.714.293 1.413.161.61.396 1.196l.114.109a.53.53 0 0 1 .036.729l-.737.853a.53.53 0 0 1-.726.072l-1.9-1.484a1.6 1.6 0 0 0-.225-.147 6 6 0 0 0-.484-.234 7.6 7.6 0 0 0-1.014-.356 12 12 0 0 0-1.314-.279l-.737 1.075q.246.965.597 1.897.318.846.737 1.649.335.64.735 1.24.351.526.764 1.004l.143.066a.53.53 0 0 1 .27.678l-.42 1.046a.53.53 0 0 1-.663.303l-2.278-.786a1.6 1.6 0 0 0-.261-.066 6 6 0 0 0-.534-.065 8 8 0 0 0-1.074-.007 12 12 0 0 0-1.334.163l-.348 1.256q.546.833 1.18 1.6.577.698 1.233 1.32.525.498 1.098.936.503.383 1.048.7l.157.016a.53.53 0 0 1 .476.554l-.058 1.126a.53.53 0 0 1-.529.502l-2.41-.004q-.136 0-.268.022-.265.045-.526.113-.522.135-1.019.342-.62.26-1.208.587l.078 1.301q.787.61 1.636 1.13a15 15 0 0 0 1.595.849q.657.3 1.343.527.6.199 1.218.323l.154-.036a.53.53 0 0 1 .63.37l.31 1.083a.53.53 0 0 1-.337.647l-2.28.778a1.6 1.6 0 0 0-.247.108 6 6 0 0 0-.46.277q-.45.297-.853.655-.503.447-.952.947l.496 1.205q.942.322 1.915.538.883.196 1.783.285.72.07 1.442.063.63-.006 1.257-.09l.133-.084a.53.53 0 0 1 .716.144l.646.924" style="fill:none;stroke:#ff80e5;stroke-width:.264583" transform="translate(-45.268 -878.072)"/><path d="M78.956 907.909s.504-.639.668-1.006c.244-.543.453-1.727.453-1.727M100.305 908.399l-.96-.954-1.355-.769" style="fill:none;stroke:#37c837;stroke-width:.529167" transform="translate(-45.268 -878.072)"/><text xml:space="preserve" style="font-size:14.6667px;line-height:normal;font-family:&quot;Liberation Mono&quot;;-inkscape-font-specification:&quot;Liberation Mono&quot;;text-align:center;text-decoration-color:#000;white-space:pre;shape-inside:url(#a);fill:#2ca02c;stroke-width:1;-inkscape-stroke:none;stop-color:#000" transform="translate(-42.876 -888.949)scale(.26458)"><tspan x="341.279" y="3397.484">right-side</tspan></text><path d="M72.321 905.736s.826-.597 1.28-.825c.537-.268 1.113-.452 1.688-.626 1.036-.312 3.16-.741 3.16-.741M102.385 909.68l.089-1.666.352-1.803.908-2.768" style="fill:none;stroke:#d4aa00;stroke-width:.529167" transform="translate(-45.268 -878.072)"/><text xml:space="preserve" style="font-size:14.6667px;line-height:normal;font-family:&quot;Liberation Mono&quot;;-inkscape-font-specification:&quot;Liberation Mono&quot;;text-align:center;text-decoration-color:#000;white-space:pre;shape-inside:url(#b);fill:#d4aa00;stroke-width:1;-inkscape-stroke:none;stop-color:#000" transform="translate(-50.63 -875.972)scale(.26458)"><tspan x="281.473" y="3333.04">left-side</tspan></text><path d="m75.55 903.547 1.348-18.508 25.532 19.341" style="fill:none;stroke:#d4aa00;stroke-width:.264583;marker-start:url(#c);marker-end:url(#c)" transform="translate(-45.268 -878.072)"/><path d="m80.642 906.33 17.686-16.832.444 16.646" style="fill:none;stroke:#2ca02c;stroke-width:.264583;marker-start:url(#c);marker-end:url(#c)" transform="translate(-45.268 -878.072)"/><text xml:space="preserve" style="font-size:14.6667px;line-height:normal;font-family:&quot;Liberation Mono&quot;;-inkscape-font-specification:&quot;Liberation Mono&quot;;text-align:center;text-decoration-color:#000;white-space:pre;shape-inside:url(#d);fill:#00f;stroke-width:1;-inkscape-stroke:none;stop-color:#000" transform="translate(-42.711 -876.7)scale(.26458)"><tspan x="189.969" y="3500.773">gearwheel-1</tspan></text><text xml:space="preserve" style="font-size:14.6667px;line-height:normal;font-family:&quot;Liberation Mono&quot;;-inkscape-font-specification:&quot;Liberation Mono&quot;;text-align:center;text-decoration-color:#000;white-space:pre;shape-inside:url(#e);fill:#ff80e5;stroke-width:1;-inkscape-stroke:none;stop-color:#000" transform="translate(-45.268 -878.072)scale(.26458)"><tspan x="373.769" y="3507.361">gearwheel-2</tspan></text><text xml:space="preserve" style="font-size:14.6667px;line-height:normal;font-family:&quot;Liberation Mono&quot;;-inkscape-font-specification:&quot;Liberation Mono&quot;;text-align:center;text-decoration-color:#000;white-space:pre;shape-inside:url(#f);fill:#000;stroke-width:1;-inkscape-stroke:none;stop-color:#000" transform="translate(-51.106 -879.074)scale(.26458)"><tspan x="328.742" y="3611.855"><tspan style="font-weight:700;-inkscape-font-specification:&quot;Liberation Mono Bold&quot;">involSim</tspan></tspan></text><text xml:space="preserve" style="font-size:14.6667px;line-height:normal;font-family:&quot;Liberation Mono&quot;;-inkscape-font-specification:&quot;Liberation Mono&quot;;text-align:center;text-decoration-color:#000;white-space:pre;shape-inside:url(#g);fill:#000;stroke-width:1;-inkscape-stroke:none;stop-color:#000" transform="translate(-9.557 -889.538)scale(.26458)"><tspan x="280.358" y="3666.706">On</tspan></text><text xml:space="preserve" style="font-size:14.6667px;line-height:normal;font-family:&quot;Liberation Mono&quot;;-inkscape-font-specification:&quot;Liberation Mono&quot;;text-align:center;text-decoration-color:#000;white-space:pre;shape-inside:url(#h);fill:#000;stroke-width:1;-inkscape-stroke:none;stop-color:#000" transform="translate(-78.77 -890.22)scale(.26458)"><tspan x="373.22" y="3669.693">Off</tspan></text><text xml:space="preserve" x="-16.607" style="font-size:14.6667px;line-height:normal;font-family:&quot;Liberation Mono&quot;;-inkscape-font-specification:&quot;Liberation Mono&quot;;text-align:start;text-decoration-color:#000;white-space:pre;shape-inside:url(#i);fill:#000;stroke-width:1;-inkscape-stroke:none;stop-color:#000" transform="translate(-95.556 -890.671)scale(.26458)"><tspan x="374.793" y="3690.24">brr1
</tspan><tspan x="374.793" y="3708.573">blr1
</tspan><tspan x="374.793" y="3726.907">brr2
</tspan><tspan x="374.793" y="3745.24">blr2
</tspan><tspan x="374.793" y="3763.573">rightPressueAngle
</tspan><tspan x="374.793" y="3781.907">leftPressureAngle</tspan></text><path d="M90.37 959.494h41.788v30.533H90.37z" style="fill:#d5f6ff;stroke:gray;stroke-width:.264584" transform="translate(-45.268 -878.072)"/><text xml:space="preserve" x="-16.607" style="font-size:14.6667px;line-height:normal;font-family:&quot;Liberation Mono&quot;;-inkscape-font-specification:&quot;Liberation Mono&quot;;text-align:start;text-decoration-color:#000;white-space:pre;shape-inside:url(#j);display:inline;fill:#000;stroke-width:1;-inkscape-stroke:none;stop-color:#000" transform="translate(-52.882 -890.671)scale(.26458)"><tspan x="374.793" y="3690.24">brr1
</tspan><tspan x="374.793" y="3708.573">blr1
</tspan><tspan x="374.793" y="3726.907">brr2
</tspan><tspan x="374.793" y="3745.24">blr2
</tspan><tspan x="374.793" y="3763.573">rightPressueAngle
</tspan><tspan x="374.793" y="3781.907">leftPressureAngle</tspan></text><path d="M48.582 951.136h83.575v4.179H48.582z" style="fill:none;stroke:gray;stroke-width:.264584" transform="translate(-45.268 -878.072)"/><path d="M90.746 967.567h11.066M91.056 977.169h11.065M91.895 986.78h39.322" style="fill:#d5f6ff;stroke:#f55;stroke-width:.264583" transform="translate(-45.268 -878.072)"/></svg>