<svg xmlns="http://www.w3.org/2000/svg" xml:space="preserve" width="567.46" height="295.64" viewBox="0 0 150.14 78.221"><defs><path id="n" d="M118.458 2798.851h182.739v27.024H118.458z"/><path id="m" d="M32.03 2748.22h183.343v43.908H32.03z"/><path id="l" d="M44.591 2620.644h145.14v34.731H44.591z"/><path id="k" d="M350.489 2769.079h156.517v42.73H350.489z"/><path id="h" d="M240.653 2552.644H376.72v23.239H240.653z"/><path id="f" d="M427.732 2615.138H560.76v24.795H427.732z"/><path id="d" d="M467.88 2641.798h170.16v28.563H467.88z"/><path id="c" d="M447.209 2677.2h126.45v32.869h-126.45z"/><path id="a" d="M77.685 2541.976h156.474v40.943H77.685z"/><path id="i" d="M240.653 2552.644H376.72v23.239H240.653z"/><marker id="b" markerHeight="1" markerWidth="1" orient="auto-start-reverse" preserveAspectRatio="xMidYMid" refX="0" refY="0" style="overflow:visible" viewBox="0 0 1 1"><path d="M3-3 0 0l3 3" style="fill:none;stroke:context-stroke;stroke-width:1;stroke-linecap:butt" transform="rotate(180 .125 0)"/></marker><marker id="e" markerHeight="1" markerWidth="1" orient="auto-start-reverse" preserveAspectRatio="xMidYMid" refX="0" refY="0" style="overflow:visible" viewBox="0 0 1 1"><path d="M3-3 0 0l3 3" style="fill:none;stroke:context-stroke;stroke-width:1;stroke-linecap:butt" transform="rotate(180 .125 0)"/></marker><marker id="g" markerHeight="1" markerWidth="1" orient="auto-start-reverse" preserveAspectRatio="xMidYMid" refX="0" refY="0" style="overflow:visible" viewBox="0 0 1 1"><path d="M3-3 0 0l3 3" style="fill:none;stroke:context-stroke;stroke-width:1;stroke-linecap:butt" transform="rotate(180 .125 0)"/></marker><marker id="j" markerHeight="1" markerWidth="1" orient="auto-start-reverse" preserveAspectRatio="xMidYMid" refX="0" refY="0" style="overflow:visible" viewBox="0 0 1 1"><path d="M3-3 0 0l3 3" style="fill:none;stroke:context-stroke;stroke-width:1;stroke-linecap:butt" transform="rotate(180 .125 0)"/></marker></defs><path d="M5.447 670.766h149.876v77.957H5.447z" style="fill:#fff;stroke:#fff;stroke-width:.264583" transform="translate(-5.314 -670.634)"/><path fill="none" stroke="green" d="M72.679 726.477h13.97v-6.774H98.74l7.012-2.646v-12.832l-7.012-2.646H86.65v-6.773h-13.97Z" style="stroke-width:.264583" transform="translate(-5.314 -670.634)"/><path fill="none" stroke="green" d="M72.679 726.477h-13.97v-6.774H46.617l-7.011-2.646v-12.832l7.011-2.646H58.71v-6.773h13.97z" style="stroke-width:.264583" transform="translate(-5.314 -670.634)"/><text xml:space="preserve" style="font-size:14.6667px;line-height:normal;font-family:&quot;Liberation Mono&quot;;-inkscape-font-specification:&quot;Liberation Mono&quot;;text-align:center;text-decoration-color:#000;white-space:pre;shape-inside:url(#a);fill:#000;stroke-width:1;-inkscape-stroke:none;stop-color:#000" transform="translate(-9.902 -666.886)scale(.26458)"><tspan x="116.315" y="2555.027">wheelAxis</tspan></text><path d="m58.005 697.317-18.372-16.496" style="fill:#fff;stroke:#000;stroke-width:.264583;marker-start:url(#b)" transform="translate(-5.314 -670.634)"/><path d="M105.972 704.312h15.813" style="fill:#fff;stroke:#b3b3b3;stroke-width:.264582" transform="translate(-5.314 -670.634)"/><path d="M106.097 717.001h7.28" style="fill:#fff;stroke:#b3b3b3;stroke-width:.264583" transform="translate(-5.314 -670.634)"/><path d="M113.23 704.334v12.486" style="fill:#fff;stroke:#000;stroke-width:.264583;marker-start:url(#b);marker-end:url(#b)" transform="translate(-5.314 -670.634)"/><text xml:space="preserve" style="font-size:14.6667px;line-height:normal;font-family:&quot;Liberation Mono&quot;;-inkscape-font-specification:&quot;Liberation Mono&quot;;text-align:center;text-decoration-color:#000;white-space:pre;shape-inside:url(#c);fill:#000;stroke-width:1;-inkscape-stroke:none;stop-color:#000" transform="translate(-13.786 -670.688)scale(.26458)"><tspan x="462.027" y="2690.249">wheelHeight</tspan></text><path d="M99.39 701.483h22.221" style="fill:#fff;stroke:#b3b3b3;stroke-width:.264583" transform="translate(-5.314 -670.634)"/><path d="M121.351 701.571v2.552" style="fill:#fff;stroke:#000;stroke-width:.264583;marker-start:url(#b);marker-end:url(#b)" transform="translate(-5.314 -670.634)"/><text xml:space="preserve" x="-56.887" style="font-size:14.6667px;line-height:normal;font-family:&quot;Liberation Mono&quot;;-inkscape-font-specification:&quot;Liberation Mono&quot;;text-align:start;text-decoration-color:#000;white-space:pre;shape-inside:url(#d);fill:#000;stroke-width:1;-inkscape-stroke:none;stop-color:#000" transform="translate(-6.046 -669.074)scale(.26458)"><tspan x="467.881" y="2654.849">wheelMidExtra</tspan></text><path d="M87.238 694.88h22.22" style="fill:#fff;stroke:#b3b3b3;stroke-width:.264583" transform="translate(-5.314 -670.634)"/><path d="M109.073 694.901v6.3" style="fill:#fff;stroke:#000;stroke-width:.264583;marker-start:url(#e);marker-end:url(#e)" transform="translate(-5.314 -670.634)"/><text xml:space="preserve" style="font-size:14.6667px;line-height:normal;font-family:&quot;Liberation Mono&quot;;-inkscape-font-specification:&quot;Liberation Mono&quot;;text-align:center;text-decoration-color:#000;white-space:pre;shape-inside:url(#f);fill:#000;stroke-width:1;-inkscape-stroke:none;stop-color:#000" transform="translate(-8.953 -667.224)scale(.26458)"><tspan x="428.235" y="2628.187">wheelAxisLength</tspan></text><path d="M72.679 693.54V678.3M98.74 701.05v-22.885M86.649 694.277v-7.163" style="fill:#fff;stroke:#b3b3b3;stroke-width:.264582" transform="translate(-5.314 -670.634)"/><path d="M86.285 687.114H72.977" style="fill:#fff;stroke:#000;stroke-width:.264583;marker-start:url(#b);marker-end:url(#b)" transform="translate(-5.314 -670.634)"/><path d="M98.36 678.669H72.955" style="fill:#fff;stroke:#000;stroke-width:.264583;marker-start:url(#g);marker-end:url(#g)" transform="translate(-5.314 -670.634)"/><text xml:space="preserve" style="font-size:14.6667px;line-height:normal;font-family:&quot;Liberation Mono&quot;;-inkscape-font-specification:&quot;Liberation Mono&quot;;text-align:start;text-decoration-color:#000;white-space:pre;shape-inside:url(#h);fill:#000;stroke-width:1;-inkscape-stroke:none;stop-color:#000" transform="translate(-8.687 -663.583)scale(.26458)"><tspan x="240.652" y="2565.695">wheelAxisRadius</tspan></text><text xml:space="preserve" style="font-size:14.6667px;line-height:normal;font-family:&quot;Liberation Mono&quot;;-inkscape-font-specification:&quot;Liberation Mono&quot;;text-align:start;text-decoration-color:#000;white-space:pre;shape-inside:url(#i);display:inline;fill:#000;stroke-width:1;-inkscape-stroke:none;stop-color:#000" transform="translate(.028 -672.467)scale(.26458)"><tspan x="240.652" y="2565.695">wheelMidRadius</tspan></text><path d="M105.753 724.79v-7.164M111.583 724.969v-4.393" style="fill:#fff;stroke:#b3b3b3;stroke-width:.264582" transform="translate(-5.314 -670.634)"/><path d="M111.251 724.398h-5.197" style="fill:#fff;stroke:#000;stroke-width:.264584;marker-start:url(#j);marker-end:url(#j)" transform="translate(-5.314 -670.634)"/><text xml:space="preserve" style="font-size:14.6667px;line-height:normal;font-family:&quot;Liberation Mono&quot;;-inkscape-font-specification:&quot;Liberation Mono&quot;;text-align:center;text-decoration-color:#000;white-space:pre;shape-inside:url(#k);fill:#000;stroke-width:1;-inkscape-stroke:none;stop-color:#000" transform="translate(-2.865 -678.27)scale(.26458)"><tspan x="358.335" y="2782.128">wheelRadiusExtra</tspan></text><text xml:space="preserve" style="font-size:14.6667px;line-height:normal;font-family:&quot;Liberation Mono&quot;;-inkscape-font-specification:&quot;Liberation Mono&quot;;text-align:center;text-decoration-color:#000;white-space:pre;shape-inside:url(#l);fill:#000;stroke-width:1;-inkscape-stroke:none;stop-color:#000" transform="translate(-11.63 -670.803)scale(.26458)"><tspan x="51.149" y="2633.695">wheelExtraRound</tspan></text><text xml:space="preserve" style="font-size:14.6667px;line-height:normal;font-family:&quot;Liberation Mono&quot;;-inkscape-font-specification:&quot;Liberation Mono&quot;;text-align:center;text-decoration-color:#000;white-space:pre;shape-inside:url(#m);fill:#000;stroke-width:1;-inkscape-stroke:none;stop-color:#000" transform="translate(-5.314 -670.634)scale(.26458)"><tspan x="48.889" y="2761.269">wheelAxisIntRound</tspan></text><text xml:space="preserve" style="font-size:14.6667px;line-height:normal;font-family:&quot;Liberation Mono&quot;;-inkscape-font-specification:&quot;Liberation Mono&quot;;text-align:center;text-decoration-color:#000;white-space:pre;shape-inside:url(#n);fill:#000;stroke-width:1;-inkscape-stroke:none;stop-color:#000" transform="translate(-5.314 -670.634)scale(.26458)"><tspan x="135.015" y="2811.902">wheelAxisExtRound</tspan></text><path d="m57.83 720.846-7.496 6.855" style="fill:#fff;stroke:#000;stroke-width:.264583;marker-start:url(#b)" transform="translate(-5.314 -670.634)"/><path d="m58.858 727.34-.923 13.401" style="fill:#fff;stroke:#000;stroke-width:.264583;marker-start:url(#b)" transform="translate(-5.314 -670.634)"/><path d="m39.175 703.551-4.06-6.81" style="fill:#fff;stroke:#000;stroke-width:.264583;marker-start:url(#b)" transform="translate(-5.314 -670.634)"/></svg>