<svg xmlns="http://www.w3.org/2000/svg" xml:space="preserve" width="440.024" height="322.47" viewBox="0 0 116.423 85.32"><defs><path id="i" d="M179.632 4290.362h70.222v36.828h-70.222z"/><path id="h" d="M79.669 4257.201h81.892v37.091H79.669z"/><path id="g" d="M286.366 4270.092h61.864v25.056h-61.864z"/><path id="f" d="M190.359 4270.343h73.728v31.828h-73.728z"/><path id="e" d="M131.634 4246.276h214.752v51.434H131.634z"/><path id="d" d="M313.179 4222.168h192.28v39.458h-192.28z"/><path id="a" d="M170.581 3487.722h135.593v35.6H170.581z"/><path id="b" d="M364.736 3494.31h114.88v28.21h-114.88z"/><marker id="c" markerHeight="1" markerWidth="1" orient="auto-start-reverse" preserveAspectRatio="xMidYMid" refX="0" refY="0" style="overflow:visible" viewBox="0 0 1 1"><path d="M3-3 0 0l3 3" style="fill:none;stroke:context-stroke;stroke-width:1;stroke-linecap:butt" transform="rotate(180 .125 0)"/></marker></defs><g transform="translate(-19.857 -1041.941)"><path d="M19.989 1042.074h116.158v85.056H19.989z" style="fill:#fff;stroke:#fff;stroke-width:.264583"/><path fill="none" stroke="#9acd32" stroke-width=".265" d="m53.412 1117.28 38.049-53.23z" style="stroke:#d4aa00"/><circle cx="52.564" cy="1075.948" r="29.951" fill="none" stroke="#6495ed" stroke-width=".265" style="stroke:#0a0"/><circle cx="52.564" cy="1075.948" r="24.765" fill="none" stroke="#dc143c" stroke-width=".265" style="stroke:#d4aa00"/><circle cx="108.126" cy="1075.948" r="24.742" fill="none" stroke="#6495ed" stroke-width=".265" style="stroke:#0a0"/><circle cx="108.126" cy="1075.948" r="20.458" fill="none" stroke="#dc143c" stroke-width=".265" style="stroke:#d4aa00"/><path d="m75.415 1090.533 1.982 1.21q.118.073.244.125.253.105.513.19a8 8 0 0 0 1.061.269q.674.124 1.356.18l.653-1.204a21 21 0 0 0-.773-1.755 18 18 0 0 0-.863-1.546q-.392-.628-.838-1.218a14 14 0 0 0-.855-1.021l-.144-.053a.53.53 0 0 1-.32-.66l.347-1.067a.53.53 0 0 1 .647-.345l2.235.63q.132.037.269.054.271.034.546.045c.364.015.73.01 1.094-.026q.681-.061 1.354-.193l.304-1.335a21 21 0 0 0-1.218-1.482 18 18 0 0 0-1.248-1.256 17 17 0 0 0-1.136-.946q-.53-.404-1.099-.753l-.152-.012a.53.53 0 0 1-.486-.55l.046-1.12a.53.53 0 0 1 .53-.507v.001h2.322c.092 0 .183-.01.273-.02q.27-.043.537-.106a8 8 0 0 0 1.047-.32q.64-.243 1.252-.551l-.067-1.368a21 21 0 0 0-1.573-1.098q-.75-.474-1.541-.873-.66-.332-1.349-.605a14 14 0 0 0-1.261-.428l-.15.029a.53.53 0 0 1-.616-.398l-.258-1.091a.53.53 0 0 1 .373-.632l2.238-.622a2 2 0 0 0 .257-.094 7 7 0 0 0 .489-.246q.48-.265.92-.591.551-.406 1.058-.868l-.434-1.3a21 21 0 0 0-1.81-.632q-.85-.255-1.72-.425a16 16 0 0 0-1.462-.218q-.663-.069-1.33-.072l-.136.069a.53.53 0 0 1-.7-.217l-.543-.981a.53.53 0 0 1 .189-.709l1.986-1.203q.118-.07.223-.16.21-.176.404-.369.39-.385.727-.817.42-.54.784-1.121l-.768-1.134a21 21 0 0 0-1.914-.121q-.886-.014-1.77.055-.738.058-1.467.184-.657.112-1.3.29l-.113.102a.53.53 0 0 1-.734-.02l-.787-.798a.53.53 0 0 1-.009-.734l1.588-1.694a2 2 0 0 0 .172-.214 7 7 0 0 0 .29-.464q.27-.476.48-.984.258-.634.451-1.291l-1.045-.884q-.947.157-1.876.4-.857.224-1.69.53-.694.256-1.362.573-.603.285-1.174.63l-.081.129a.53.53 0 0 1-.712.179l-.973-.557a.53.53 0 0 1-.207-.703l1.073-2.06q.063-.122.107-.252.087-.26.153-.526.135-.532.197-1.076.08-.681.087-1.366l-1.245-.569a21 21 0 0 0-1.698.891q-.766.447-1.484.967-.6.434-1.158.92-.503.436-.96.922l-.044.147a.53.53 0 0 1-.636.364" style="fill:none;stroke:#00f;stroke-width:.264583"/><path d="m103.68 1054.645-1.106.22a.53.53 0 0 1-.617-.39l-.588-2.337a1.6 1.6 0 0 0-.087-.254 6 6 0 0 0-.238-.482 8 8 0 0 0-.582-.903 12 12 0 0 0-.866-1.028l-1.242.396q-.398.912-.694 1.863a15 15 0 0 0-.43 1.754 13 13 0 0 0-.183 1.431q-.045.63-.014 1.26l.073.14a.53.53 0 0 1-.203.702l-.974.568a.53.53 0 0 1-.71-.17l-1.315-2.02a1.6 1.6 0 0 0-.165-.211 6 6 0 0 0-.382-.379 8 8 0 0 0-.843-.665q-.557-.379-1.153-.69l-1.046.776q-.08.993-.051 1.988.025.905.162 1.8.108.713.292 1.412.161.61.396 1.197l.114.108a.53.53 0 0 1 .036.73l-.737.853a.53.53 0 0 1-.726.07l-1.9-1.483a1.6 1.6 0 0 0-.224-.147 6 6 0 0 0-.484-.234 7.6 7.6 0 0 0-1.015-.356 12 12 0 0 0-1.314-.279l-.737 1.075q.246.965.597 1.897.319.847.737 1.649.334.64.736 1.24.35.526.763 1.004l.143.066a.53.53 0 0 1 .27.678l-.42 1.047a.53.53 0 0 1-.663.303l-2.278-.787a2 2 0 0 0-.26-.066 6 6 0 0 0-.535-.064 8 8 0 0 0-1.074-.01 12 12 0 0 0-1.334.163l-.348 1.256q.546.832 1.18 1.6.577.697 1.233 1.32.525.497 1.099.935.502.384 1.047.701l.157.016a.53.53 0 0 1 .476.554l-.057 1.126a.53.53 0 0 1-.53.502l-2.41-.01q-.136.002-.268.023a7 7 0 0 0-.526.112 7.6 7.6 0 0 0-1.018.343q-.621.258-1.209.586l.079 1.301q.786.61 1.636 1.13.772.473 1.594.849.657.3 1.343.528.6.198 1.218.323l.154-.036a.53.53 0 0 1 .63.369l.31 1.083a.53.53 0 0 1-.337.647l-2.28.778a1.6 1.6 0 0 0-.247.109 6 6 0 0 0-.46.277q-.45.297-.853.654a12 12 0 0 0-.952.948l.496 1.205q.942.322 1.915.538.883.196 1.784.284.72.07 1.44.063c.421 0 .841-.034 1.258-.09l.134-.084a.53.53 0 0 1 .715.145l.646.924" style="fill:none;stroke:#ff80e5;stroke-width:.264583"/><text xml:space="preserve" style="font-size:14.6667px;line-height:normal;font-family:&quot;Liberation Mono&quot;;-inkscape-font-specification:&quot;Liberation Mono&quot;;text-align:center;text-decoration-color:#000;white-space:pre;shape-inside:url(#a);display:inline;fill:#00f;stroke-width:1;-inkscape-stroke:none;stop-color:#000" transform="translate(-9.81 142.153)scale(.26458)"><tspan x="189.969" y="3500.773">gearwheel-1</tspan></text><text xml:space="preserve" style="font-size:14.6667px;line-height:normal;font-family:&quot;Liberation Mono&quot;;-inkscape-font-specification:&quot;Liberation Mono&quot;;text-align:center;text-decoration-color:#000;white-space:pre;shape-inside:url(#b);display:inline;fill:#ff80e5;stroke-width:1;-inkscape-stroke:none;stop-color:#000" transform="translate(-3.848 139.76)scale(.26458)"><tspan x="373.769" y="3507.361">gearwheel-2</tspan></text><path d="m81.946 1069.623 8.105 45.641" style="fill:#d5f6ff;stroke:#0a0;stroke-width:.264582"/><path d="M66.528 1052.695s-.668.498-.958.796c-.272.278-.723.915-.723.915" style="fill:#d5f6ff;stroke:#fd5;stroke-width:.264583"/><path d="M97.111 1056.22s.218.925.405 1.359c.109.251.413.71.413.71" style="fill:#d5f6ff;stroke:#ffd42a;stroke-width:.264583"/><path d="m52.564 1075.948-20.876 13.216" style="fill:#d5f6ff;stroke:#000;stroke-width:.264583;marker-start:url(#c);marker-end:url(#c)"/><path d="m38.693 1102.494 13.87-26.546" style="fill:none;stroke:#000;stroke-width:.264583;marker-start:url(#c);marker-end:url(#c)"/><path d="m108.126 1075.948 19.051 7.456" style="fill:none;stroke:#000;stroke-width:.264583;marker-start:url(#c);marker-end:url(#c)"/><path d="m119.009 1098.168-10.883-22.22" style="fill:none;stroke:#000;stroke-width:.264583;marker-start:url(#c);marker-end:url(#c)"/><path d="M60.072 1107.936v11.656M86.596 1096.382v18.651" style="fill:none;stroke:#b3b3b3;stroke-width:.264583"/><path d="M54.227 1116.511s1.405 1.605 2.365 1.966c1.022.383 3.273.082 3.273.082" style="fill:none;stroke:#000;stroke-width:.264583;marker-start:url(#c);marker-end:url(#c)"/><path d="M86.797 1113.892s.826.415 1.275.432c.514.018 1.494-.388 1.494-.388" style="fill:none;stroke:#000;stroke-width:.264583;marker-start:url(#c);marker-end:url(#c)"/><text xml:space="preserve" style="font-style:normal;font-variant:normal;font-weight:700;font-stretch:normal;font-size:14.6667px;line-height:normal;font-family:&quot;Liberation Mono&quot;;-inkscape-font-specification:&quot;Liberation Mono Bold&quot;;text-align:center;text-decoration-color:#000;white-space:pre;shape-inside:url(#d);fill:#000;stroke-width:1;-inkscape-stroke:none;stop-color:#000" transform="translate(-1.508 -1.76)scale(.26458)"><tspan x="330.106" y="4235.029">rightPressureAngle</tspan></text><text xml:space="preserve" style="font-style:normal;font-variant:normal;font-weight:700;font-stretch:normal;font-size:14.6667px;line-height:normal;font-family:&quot;Liberation Mono&quot;;-inkscape-font-specification:&quot;Liberation Mono Bold&quot;;text-align:center;text-decoration-color:#000;white-space:pre;shape-inside:url(#e);fill:#000;stroke-width:1;-inkscape-stroke:none;stop-color:#000" transform="translate(-4.218 -4.397)scale(.26458)"><tspan x="164.198" y="4259.136">leftPressureAngle</tspan></text><text xml:space="preserve" style="font-style:normal;font-variant:normal;font-weight:700;font-stretch:normal;font-size:14.6667px;line-height:normal;font-family:&quot;Liberation Mono&quot;;-inkscape-font-specification:&quot;Liberation Mono Bold&quot;;text-align:center;text-decoration-color:#000;white-space:pre;shape-inside:url(#f);fill:#000;stroke-width:1;-inkscape-stroke:none;stop-color:#000" transform="translate(-9.81 -40.403)scale(.26458)"><tspan x="209.62" y="4283.205">brr1</tspan></text><text xml:space="preserve" style="font-style:normal;font-variant:normal;font-weight:700;font-stretch:normal;font-size:14.6667px;line-height:normal;font-family:&quot;Liberation Mono&quot;;-inkscape-font-specification:&quot;Liberation Mono Bold&quot;;text-align:center;text-decoration-color:#000;white-space:pre;shape-inside:url(#g);fill:#000;stroke-width:1;-inkscape-stroke:none;stop-color:#000" transform="translate(-45.242 -52.003)scale(.26458)"><tspan x="299.695" y="4282.953">blr1</tspan></text><text xml:space="preserve" style="font-style:normal;font-variant:normal;font-weight:700;font-stretch:normal;font-size:14.6667px;line-height:normal;font-family:&quot;Liberation Mono&quot;;-inkscape-font-specification:&quot;Liberation Mono Bold&quot;;text-align:center;text-decoration-color:#000;white-space:pre;shape-inside:url(#h);fill:#000;stroke-width:1;-inkscape-stroke:none;stop-color:#000" transform="translate(76.345 -40.689)scale(.26458)"><tspan x="103.012" y="4270.062">brr2</tspan></text><text xml:space="preserve" style="font-style:normal;font-variant:normal;font-weight:700;font-stretch:normal;font-size:14.6667px;line-height:normal;font-family:&quot;Liberation Mono&quot;;-inkscape-font-specification:&quot;Liberation Mono Bold&quot;;text-align:center;text-decoration-color:#000;white-space:pre;shape-inside:url(#i);fill:#000;stroke-width:1;-inkscape-stroke:none;stop-color:#000" transform="translate(62.375 -60.434)scale(.26458)"><tspan x="197.14" y="4303.222">blr2</tspan></text></g></svg>