<svg xmlns="http://www.w3.org/2000/svg" width="570.055" height="496.111" viewBox="0 0 150.827 131.263"><defs><path id="m" d="M152.946 783.135h50.197v30.108h-50.197z"/><path id="l" d="M355.69 756.999h157.723v40.717H355.69z"/><path id="k" d="M433.234 1175.506h59.38v56.736h-59.38z"/><path id="j" d="M445.519 1111.086h61.593v52.801h-61.593z"/><path id="i" d="M286.284 727.236h83.647v43.59h-83.647z"/><path id="h" d="M209.616 689.979h115.718v71.502H209.616z"/><path id="g" d="M452.06 645.818h57.555v33.412H452.06z"/><path id="b" d="M274.597 1135.815h121.684v58.77H274.597z"/><marker id="a" markerHeight="1" markerWidth="1" orient="auto-start-reverse" preserveAspectRatio="xMidYMid" refX="0" refY="0" style="overflow:visible" viewBox="0 0 1 1"><path d="M3-3 0 0l3 3" style="fill:none;stroke:context-stroke;stroke-width:1;stroke-linecap:butt" transform="rotate(180 .125 0)"/></marker><marker id="c" markerHeight="1" markerWidth="1" orient="auto-start-reverse" preserveAspectRatio="xMidYMid" refX="0" refY="0" style="overflow:visible" viewBox="0 0 1 1"><path d="M3-3 0 0l3 3" style="fill:none;stroke:context-stroke;stroke-width:1;stroke-linecap:butt" transform="rotate(180 .125 0)"/></marker><marker id="d" markerHeight="1" markerWidth="1" orient="auto-start-reverse" preserveAspectRatio="xMidYMid" refX="0" refY="0" style="overflow:visible" viewBox="0 0 1 1"><path d="M3-3 0 0l3 3" style="fill:none;stroke:context-stroke;stroke-width:1;stroke-linecap:butt" transform="rotate(180 .125 0)"/></marker><marker id="e" markerHeight="1" markerWidth="1" orient="auto-start-reverse" preserveAspectRatio="xMidYMid" refX="0" refY="0" style="overflow:visible" viewBox="0 0 1 1"><path d="M3-3 0 0l3 3" style="fill:none;stroke:context-stroke;stroke-width:1;stroke-linecap:butt" transform="rotate(180 .125 0)"/></marker><marker id="f" markerHeight="1" markerWidth="1" orient="auto-start-reverse" preserveAspectRatio="xMidYMid" refX="0" refY="0" style="overflow:visible" viewBox="0 0 1 1"><path d="M3-3 0 0l3 3" style="fill:none;stroke:context-stroke;stroke-width:1;stroke-linecap:butt" transform="rotate(180 .125 0)"/></marker></defs><g transform="translate(-5.11 -175.215)"><path d="M5.242 175.348h150.563v130.998H5.242z" style="fill:#fff;stroke:#fff;stroke-width:.264583;stroke-linejoin:bevel"/><path d="M31.26 214.831v18.11h18.11" style="fill:none;stroke:#ccc;stroke-width:.264583px;stroke-linecap:butt;stroke-linejoin:miter;stroke-opacity:1"/><path d="M126.378 183.444v13.117M130.371 183.444v13.117" style="fill:none;stroke:#ccc;stroke-width:.264581px;stroke-linecap:butt;stroke-linejoin:miter;stroke-opacity:1"/><circle cx="31.26" cy="232.941" r="14.117" style="fill:none;stroke:#ccc;stroke-width:.264583;stroke-linejoin:bevel"/><circle cx="55.473" cy="263.165" r="10.097" style="fill:none;stroke:#ccc;stroke-width:.264582;stroke-linejoin:bevel"/><path d="M45.376 263.165v-30.223" style="fill:none;stroke:green;stroke-width:.264583px;stroke-linecap:butt;stroke-linejoin:miter;stroke-opacity:1"/><circle cx="31.26" cy="232.941" r="18.11" style="fill:none;stroke:#ccc;stroke-width:.264583;stroke-linejoin:bevel"/><path d="M17.143 277.87v-44.928M31.26 214.832H8.805" style="fill:none;stroke:green;stroke-width:.264583px;stroke-linecap:butt;stroke-linejoin:miter;stroke-opacity:1"/><circle cx="55.473" cy="263.165" r="6.103" style="fill:none;stroke:#ccc;stroke-width:.264582;stroke-linejoin:bevel"/><path d="M49.37 263.165v-30.223" style="fill:none;stroke:green;stroke-width:.264583px;stroke-linecap:butt;stroke-linejoin:miter;stroke-opacity:1"/><circle cx="71.674" cy="232.941" r="10.097" style="fill:none;stroke:#ccc;stroke-width:.264582;stroke-linejoin:bevel"/><circle cx="71.674" cy="232.941" r="6.103" style="fill:none;stroke:#ccc;stroke-width:.264582;stroke-linejoin:bevel"/><path d="M65.57 263.165v-30.223M61.577 263.165v-30.223" style="fill:none;stroke:green;stroke-width:.264583px;stroke-linecap:butt;stroke-linejoin:miter;stroke-opacity:1"/><circle cx="87.874" cy="263.165" r="10.097" style="fill:none;stroke:#ccc;stroke-width:.264582;stroke-linejoin:bevel"/><path d="M77.777 263.165v-30.223" style="fill:none;stroke:green;stroke-width:.264583px;stroke-linecap:butt;stroke-linejoin:miter;stroke-opacity:1"/><circle cx="87.874" cy="263.165" r="6.103" style="fill:none;stroke:#ccc;stroke-width:.264582;stroke-linejoin:bevel"/><path d="M81.77 263.165v-30.223" style="fill:none;stroke:green;stroke-width:.264583px;stroke-linecap:butt;stroke-linejoin:miter;stroke-opacity:1"/><circle cx="104.074" cy="232.941" r="10.097" style="fill:none;stroke:#ccc;stroke-width:.264582;stroke-linejoin:bevel"/><circle cx="104.074" cy="232.941" r="6.103" style="fill:none;stroke:#ccc;stroke-width:.264582;stroke-linejoin:bevel"/><path d="M97.97 263.165v-30.223M93.977 263.165v-30.223" style="fill:none;stroke:green;stroke-width:.264583px;stroke-linecap:butt;stroke-linejoin:miter;stroke-opacity:1"/><circle cx="120.274" cy="263.165" r="10.097" style="fill:none;stroke:#ccc;stroke-width:.264582;stroke-linejoin:bevel"/><path d="M110.178 263.165v-30.223" style="fill:none;stroke:green;stroke-width:.264583px;stroke-linecap:butt;stroke-linejoin:miter;stroke-opacity:1"/><circle cx="120.274" cy="263.165" r="6.103" style="fill:none;stroke:#ccc;stroke-width:.264582;stroke-linejoin:bevel"/><path d="M114.171 263.165v-30.223" style="fill:none;stroke:green;stroke-width:.264583px;stroke-linecap:butt;stroke-linejoin:miter;stroke-opacity:1"/><circle cx="136.475" cy="206.525" r="10.097" style="fill:none;stroke:#ccc;stroke-width:.264582;stroke-linejoin:bevel"/><circle cx="136.475" cy="206.525" r="6.103" style="fill:none;stroke:#ccc;stroke-width:.264582;stroke-linejoin:bevel"/><path d="M130.371 263.165v-56.64M126.378 263.165v-56.64M130.371 206.525s.514-2.942 1.476-3.979c1.154-1.245 2.93-2.128 4.628-2.124 1.715.004 3.506.906 4.667 2.17.944 1.028 1.436 3.933 1.436 3.933h3.994s-.273-2.731-.813-3.969a10.5 10.5 0 0 0-2.528-3.534c-1.018-.927-2.273-1.613-3.568-2.077a8.9 8.9 0 0 0-3.188-.517c-1.415.037-2.864.306-4.152.893-1.333.608-2.534 1.55-3.517 2.636-.741.82-1.318 1.807-1.714 2.84-.453 1.18-.714 3.728-.714 3.728M126.378 206.526v-10.1" style="fill:none;stroke:green;stroke-width:.264583px;stroke-linecap:butt;stroke-linejoin:miter;stroke-opacity:1"/><path d="M150.064 196.295h-30.457" style="fill:none;stroke:#ccc;stroke-width:.264581px;stroke-linecap:butt;stroke-linejoin:miter;stroke-opacity:1"/><path d="M130.371 206.526v-10.1M126.378 196.428h3.993" style="fill:none;stroke:green;stroke-width:.264583px;stroke-linecap:butt;stroke-linejoin:miter;stroke-opacity:1"/><path d="M150.064 263.065h-19.706" style="fill:none;stroke:#ccc;stroke-width:.264582px;stroke-linecap:butt;stroke-linejoin:miter;stroke-opacity:1"/><path d="M150.064 196.388v66.461" style="fill:none;stroke:#000;stroke-width:.264583px;stroke-linecap:butt;stroke-linejoin:miter;stroke-opacity:1;marker-start:url(#a);marker-end:url(#a)"/><path d="M17.143 232.941s.354-3.618 1.025-5.28a14.2 14.2 0 0 1 2.93-4.519c1.26-1.304 2.797-2.395 4.462-3.116a14.7 14.7 0 0 1 5.7-1.201c1.832-.011 3.699.366 5.39 1.07a14.5 14.5 0 0 1 4.666 3.139 14 14 0 0 1 2.976 4.48c.704 1.705 1.084 5.427 1.084 5.427" style="fill:none;stroke:green;stroke-width:.264583px;stroke-linecap:butt;stroke-linejoin:miter;stroke-opacity:1"/><path d="M31.26 214.831s4 .32 5.87.978a19 19 0 0 1 5.703 3.202c1.56 1.279 2.88 2.877 3.943 4.591.892 1.437 1.538 3.04 1.982 4.672.412 1.514.612 4.667.612 4.667M49.37 263.165s.305 2.13.817 3.05c.45.81 1.113 1.539 1.9 2.027 1.002.623 2.207 1.012 3.386 1.026 1.084.013 2.193-.328 3.133-.865a5.6 5.6 0 0 0 1.997-1.93c.595-.984.974-3.308.974-3.308" style="fill:none;stroke:green;stroke-width:.264583px;stroke-linecap:butt;stroke-linejoin:miter;stroke-opacity:1"/><path d="M45.376 263.165s.24 2.606.74 3.794a10.8 10.8 0 0 0 2.492 3.609c.959.909 2.143 1.603 3.378 2.072 1.104.42 2.307.655 3.487.621a11.7 11.7 0 0 0 4.55-1.083c1.029-.478 1.954-1.202 2.737-2.024.814-.855 1.508-1.857 1.965-2.945.532-1.27.845-4.044.845-4.044M81.77 263.165s.306 2.13.817 3.05c.45.81 1.114 1.539 1.9 2.027 1.002.623 2.207 1.012 3.387 1.026 1.083.013 2.192-.328 3.133-.865a5.6 5.6 0 0 0 1.996-1.93c.595-.984.974-3.308.974-3.308" style="fill:none;stroke:green;stroke-width:.264583px;stroke-linecap:butt;stroke-linejoin:miter;stroke-opacity:1"/><path d="M77.777 263.165s.24 2.606.74 3.794a10.8 10.8 0 0 0 2.491 3.609c.96.909 2.144 1.603 3.378 2.072 1.104.42 2.308.655 3.488.621a11.7 11.7 0 0 0 4.55-1.083c1.028-.478 1.954-1.202 2.737-2.024.814-.855 1.508-1.857 1.964-2.945.533-1.27.846-4.044.846-4.044M114.17 263.186s.305 2.13.817 3.05c.45.81 1.113 1.539 1.9 2.028 1.001.622 2.207 1.01 3.386 1.025 1.084.014 2.192-.328 3.133-.865a5.6 5.6 0 0 0 1.997-1.93c.595-.984.974-3.308.974-3.308" style="fill:none;stroke:green;stroke-width:.264583px;stroke-linecap:butt;stroke-linejoin:miter;stroke-opacity:1"/><path d="M110.176 263.186s.24 2.606.74 3.794a10.8 10.8 0 0 0 2.491 3.61c.96.908 2.144 1.602 3.379 2.071 1.103.42 2.307.656 3.487.622a11.7 11.7 0 0 0 4.55-1.083c1.029-.479 1.954-1.203 2.737-2.025.814-.854 1.508-1.857 1.965-2.945.532-1.27.845-4.044.845-4.044M97.97 232.942s.306-2.13.818-3.05c.45-.81 1.113-1.54 1.9-2.028 1.001-.622 2.207-1.011 3.386-1.026 1.084-.013 2.192.328 3.133.866a5.6 5.6 0 0 1 1.997 1.93c.595.983.974 3.308.974 3.308" style="fill:none;stroke:green;stroke-width:.264583px;stroke-linecap:butt;stroke-linejoin:miter;stroke-opacity:1"/><path d="M93.977 232.942s.24-2.607.74-3.794a10.8 10.8 0 0 1 2.491-3.61c.96-.908 2.144-1.602 3.379-2.072 1.103-.42 2.307-.655 3.487-.621a11.7 11.7 0 0 1 4.55 1.083c1.029.478 1.954 1.203 2.737 2.025.814.854 1.508 1.856 1.965 2.944.532 1.27.845 4.045.845 4.045M65.57 232.941s.306-2.13.817-3.05c.45-.81 1.113-1.539 1.9-2.027 1.002-.623 2.207-1.012 3.387-1.026 1.083-.013 2.192.328 3.133.865a5.6 5.6 0 0 1 1.996 1.93c.595.984.974 3.308.974 3.308" style="fill:none;stroke:green;stroke-width:.264583px;stroke-linecap:butt;stroke-linejoin:miter;stroke-opacity:1"/><path d="M61.577 232.941s.24-2.606.74-3.794a10.8 10.8 0 0 1 2.49-3.609c.96-.909 2.144-1.603 3.38-2.072 1.103-.42 2.306-.655 3.487-.621a11.7 11.7 0 0 1 4.549 1.082c1.029.479 1.955 1.203 2.737 2.025.814.855 1.508 1.857 1.965 2.945.533 1.27.845 4.044.845 4.044" style="fill:none;stroke:green;stroke-width:.264583px;stroke-linecap:butt;stroke-linejoin:miter;stroke-opacity:1"/><text xml:space="preserve" style="font-size:14.6667px;line-height:1.25;font-family:sans-serif;white-space:pre;shape-inside:url(#b);display:inline" transform="translate(-2.38 -2.084)scale(.26458)"><tspan x="274.598" y="1148.791">SN1</tspan></text><path d="M151.518 233.089h-37.216" style="fill:none;stroke:#ccc;stroke-width:.264581px;stroke-linecap:butt;stroke-linejoin:miter;stroke-opacity:1"/><path d="M135.62 233.034v30.039" style="fill:none;stroke:#000;stroke-width:.264583px;stroke-linecap:butt;stroke-linejoin:miter;stroke-opacity:1;marker-start:url(#c);marker-end:url(#c)"/><path d="M17.525 256.225h27.488" style="fill:none;stroke:#000;stroke-width:.264583px;stroke-linecap:butt;stroke-linejoin:miter;stroke-opacity:1;marker-start:url(#d);marker-end:url(#d)"/><path d="M49.75 232.95h11.421" style="fill:none;stroke:#000;stroke-width:.264583px;stroke-linecap:butt;stroke-linejoin:miter;stroke-opacity:1;marker-start:url(#e);marker-end:url(#e)"/><path d="M126.378 183.444h-7.6" style="fill:none;stroke:#000;stroke-width:.264583px;stroke-linecap:butt;stroke-linejoin:miter;stroke-opacity:1;marker-start:url(#a)"/><path d="M130.371 183.444h7.6" style="fill:none;stroke:#000;stroke-width:.264583px;stroke-linecap:butt;stroke-linejoin:miter;stroke-opacity:1;marker-start:url(#f)"/><text xml:space="preserve" style="font-size:14.6667px;line-height:1.25;font-family:sans-serif;white-space:pre;shape-inside:url(#g);display:inline" transform="translate(5.126 6.636)scale(.26458)"><tspan x="452.061" y="658.795">SE1</tspan></text><text xml:space="preserve" style="font-size:14.6667px;line-height:1.25;font-family:sans-serif;white-space:pre;shape-inside:url(#h);display:inline" transform="translate(-28.207 69.293)scale(.26458)"><tspan x="209.615" y="702.955">SD1</tspan></text><text xml:space="preserve" style="font-size:14.6667px;line-height:1.25;font-family:sans-serif;white-space:pre;shape-inside:url(#i);display:inline" transform="translate(-24.12 35.568)scale(.26458)"><tspan x="286.285" y="740.213">SD2</tspan></text><path d="m59.133 275.013 13.351 22.643" style="fill:none;stroke:#000;stroke-width:.264583px;stroke-linecap:butt;stroke-linejoin:miter;stroke-opacity:1;marker-start:url(#a)"/><path d="m84.085 273.776-8.39 24.36" style="fill:none;stroke:#000;stroke-width:.264583px;stroke-linecap:butt;stroke-linejoin:miter;stroke-opacity:1;marker-start:url(#a)"/><path d="m114.517 273.699-36.014 25.047" style="fill:none;stroke:#000;stroke-width:.264583px;stroke-linecap:butt;stroke-linejoin:miter;stroke-opacity:1;marker-start:url(#a)"/><text xml:space="preserve" style="font-size:14.6667px;line-height:1.25;font-family:sans-serif;white-space:pre;shape-inside:url(#j);display:inline" transform="translate(18.235 -47.694)scale(.26458)"><tspan x="445.52" y="1124.063">SL1</tspan></text><text xml:space="preserve" style="font-size:14.6667px;line-height:1.25;font-family:sans-serif;white-space:pre;shape-inside:url(#k);display:inline" transform="translate(28.304 -82.838)scale(.26458)"><tspan x="433.234" y="1188.483">SL2</tspan></text><text xml:space="preserve" style="font-size:14.6667px;line-height:1.25;font-family:sans-serif;white-space:pre;shape-inside:url(#l);display:inline" transform="translate(-14.213 -.068)scale(.26458)"><tspan x="355.689" y="769.977">Send [round, pike]</tspan></text><path d="m124.755 204.53-8.968-1.75" style="fill:none;stroke:#000;stroke-width:.264583px;stroke-linecap:butt;stroke-linejoin:miter;stroke-opacity:1;marker-start:url(#a)"/><path d="M31.33 228.26s2.536.576 3.163 1.573c.5.796.039 2.82.039 2.82" style="fill:none;stroke:#000;stroke-width:.264583px;stroke-linecap:butt;stroke-linejoin:miter;stroke-opacity:1;marker-start:url(#a);marker-end:url(#a)"/><text xml:space="preserve" style="font-size:14.6667px;line-height:1.25;font-family:sans-serif;white-space:pre;shape-inside:url(#m);display:inline" transform="translate(-6.642 18.164)scale(.26458)"><tspan x="152.945" y="796.111">SA1</tspan></text></g></svg>