<svg xmlns="http://www.w3.org/2000/svg" width="600" height="3000" viewBox="0 0 158.75 793.75"><defs><path id="x" d="M450.159 529.5h61.453v44.206h-61.453z"/><path id="w" d="M152.946 783.135h50.197v30.108h-50.197z"/><path id="v" d="M355.69 756.999h157.723v40.717H355.69z"/><path id="u" d="M433.234 1175.506h59.38v56.736h-59.38z"/><path id="t" d="M445.519 1111.086h61.593v52.801h-61.593z"/><path id="s" d="M286.284 727.236h83.647v43.59h-83.647z"/><path id="r" d="M209.616 689.979h115.718v71.502H209.616z"/><path id="q" d="M452.06 645.818h57.555v33.412H452.06z"/><path id="l" d="M274.597 1135.815h121.684v58.77H274.597z"/><path id="k" d="M241.362 410.343h80.716v40.915h-80.716z"/><path id="j" d="M511.111 286.783h43.436v48.181h-43.436z"/><path id="i" d="M357.132 123.578h43.314v37.246h-43.314z"/><path id="e" d="M15.839 512.34h57.807v35.348H15.839z"/><path id="d" d="M25.047 572.984H92.27v25.225H25.047z"/><path id="c" d="M19.574 275.367h57.525v53.19H19.574z"/><path id="b" d="M39.295 218.297h53.769v41.714H39.295z"/><path id="a" d="M27.431 17.916h198.927V84.36H27.431z"/><marker id="f" markerHeight="1" markerWidth="1" orient="auto-start-reverse" preserveAspectRatio="xMidYMid" refX="0" refY="0" style="overflow:visible" viewBox="0 0 1 1"><path d="M3-3 0 0l3 3" style="fill:none;stroke:context-stroke;stroke-width:1;stroke-linecap:butt" transform="rotate(180 .125 0)"/></marker><marker id="g" markerHeight="1" markerWidth="1" orient="auto-start-reverse" preserveAspectRatio="xMidYMid" refX="0" refY="0" style="overflow:visible" viewBox="0 0 1 1"><path d="M3-3 0 0l3 3" style="fill:none;stroke:context-stroke;stroke-width:1;stroke-linecap:butt" transform="rotate(180 .125 0)"/></marker><marker id="h" markerHeight="1" markerWidth="1" orient="auto-start-reverse" preserveAspectRatio="xMidYMid" refX="0" refY="0" style="overflow:visible" viewBox="0 0 1 1"><path d="M3-3 0 0l3 3" style="fill:none;stroke:context-stroke;stroke-width:1;stroke-linecap:butt" transform="rotate(180 .125 0)"/></marker><marker id="m" markerHeight="1" markerWidth="1" orient="auto-start-reverse" preserveAspectRatio="xMidYMid" refX="0" refY="0" style="overflow:visible" viewBox="0 0 1 1"><path d="M3-3 0 0l3 3" style="fill:none;stroke:context-stroke;stroke-width:1;stroke-linecap:butt" transform="rotate(180 .125 0)"/></marker><marker id="n" markerHeight="1" markerWidth="1" orient="auto-start-reverse" preserveAspectRatio="xMidYMid" refX="0" refY="0" style="overflow:visible" viewBox="0 0 1 1"><path d="M3-3 0 0l3 3" style="fill:none;stroke:context-stroke;stroke-width:1;stroke-linecap:butt" transform="rotate(180 .125 0)"/></marker><marker id="o" markerHeight="1" markerWidth="1" orient="auto-start-reverse" preserveAspectRatio="xMidYMid" refX="0" refY="0" style="overflow:visible" viewBox="0 0 1 1"><path d="M3-3 0 0l3 3" style="fill:none;stroke:context-stroke;stroke-width:1;stroke-linecap:butt" transform="rotate(180 .125 0)"/></marker><marker id="p" markerHeight="1" markerWidth="1" orient="auto-start-reverse" preserveAspectRatio="xMidYMid" refX="0" refY="0" style="overflow:visible" viewBox="0 0 1 1"><path d="M3-3 0 0l3 3" style="fill:none;stroke:context-stroke;stroke-width:1;stroke-linecap:butt" transform="rotate(180 .125 0)"/></marker></defs><path d="M5.242 175.348h150.563v130.998H5.242zM6.162 43.008h129.25v114.441H6.162z" style="fill:#fff;stroke:#fff;stroke-width:.264583;stroke-linejoin:bevel"/><path d="M31.26 214.831v18.11h18.11" style="fill:none;stroke:#ccc;stroke-width:.264583px;stroke-linecap:butt;stroke-linejoin:miter;stroke-opacity:1"/><path d="M126.378 183.444v13.117M130.371 183.444v13.117" style="fill:none;stroke:#ccc;stroke-width:.264581px;stroke-linecap:butt;stroke-linejoin:miter;stroke-opacity:1"/><text xml:space="preserve" style="font-size:14.6667px;line-height:1.25;font-family:sans-serif;white-space:pre;shape-inside:url(#a);display:inline" transform="scale(.26458)"><tspan x="27.432" y="30.893">haxis_guidance.svg</tspan></text><circle cx="74.75" cy="100.492" r="54.961" style="fill:none;stroke:#b3b3b3;stroke-width:.264582;stroke-linejoin:bevel"/><circle cx="74.75" cy="100.492" r="19.642" style="fill:none;stroke:#b3b3b3;stroke-width:.264582;stroke-linejoin:bevel"/><path d="M74.75 100.492v-54.96M74.75 100.492l47.598 27.48M74.75 100.492l-47.598 27.48" style="fill:none;stroke:#000;stroke-width:.264583px;stroke-linecap:butt;stroke-linejoin:miter;stroke-opacity:1"/><circle cx="74.75" cy="100.492" r="25.567" style="fill:none;stroke:#b3b3b3;stroke-width:.264582;stroke-linejoin:bevel"/><circle cx="74.75" cy="100.492" r="49.322" style="fill:none;stroke:#b3b3b3;stroke-width:.264582;stroke-linejoin:bevel"/><path d="m74.75 100.492 52.02 17.738M74.75 100.492l10.649-53.92" style="fill:none;stroke:#ccc;stroke-width:.264583px;stroke-linecap:butt;stroke-linejoin:miter;stroke-opacity:1"/><text xml:space="preserve" style="font-size:14.6667px;line-height:1.25;font-family:sans-serif;white-space:pre;shape-inside:url(#b);display:inline" transform="translate(49.722 37.126)scale(.26458)"><tspan x="39.295" y="231.273">D5</tspan></text><text xml:space="preserve" style="font-size:14.6667px;line-height:1.25;font-family:sans-serif;white-space:pre;shape-inside:url(#c);display:inline" transform="translate(44.919 22.545)scale(.26458)"><tspan x="19.574" y="288.344">E5</tspan></text><text xml:space="preserve" style="font-size:14.6667px;line-height:1.25;font-family:sans-serif;white-space:pre;shape-inside:url(#d);display:inline" transform="translate(1.933 -32.617)scale(.26458)"><tspan x="25.047" y="585.961">D8</tspan></text><text xml:space="preserve" style="font-size:14.6667px;line-height:1.25;font-family:sans-serif;white-space:pre;shape-inside:url(#e);display:inline" transform="translate(16.175 -39.888)scale(.26458)"><tspan x="15.84" y="525.316">E8</tspan></text><path d="M49.183 100.492h5.925" style="fill:none;stroke:#000;stroke-width:.264583px;stroke-linecap:butt;stroke-linejoin:miter;stroke-opacity:1;marker-start:url(#f);marker-end:url(#f)"/><path d="m62.43 94.665-3.49-4.52" style="fill:none;stroke:#000;stroke-width:.264583px;stroke-linecap:butt;stroke-linejoin:miter;stroke-opacity:1;marker-end:url(#f)"/><path d="M19.879 100.492h5.194" style="fill:none;stroke:#000;stroke-width:.264583px;stroke-linecap:butt;stroke-linejoin:miter;stroke-opacity:1;marker-start:url(#g);marker-end:url(#g)"/><path d="m15.562 118.838 5.141-3.481" style="fill:none;stroke:#000;stroke-width:.264583px;stroke-linecap:butt;stroke-linejoin:miter;stroke-opacity:1;marker-end:url(#h)"/><text xml:space="preserve" style="font-size:14.6667px;line-height:1.25;font-family:sans-serif;white-space:pre;shape-inside:url(#i);display:inline" transform="translate(-6.124 27.557)scale(.26458)"><tspan x="357.133" y="136.555">R9</tspan></text><path d="m84.859 53.103 4.5 7.117" style="fill:none;stroke:#000;stroke-width:.264583px;stroke-linecap:butt;stroke-linejoin:miter;stroke-opacity:1;marker-start:url(#f)"/><path d="m88.375 102.727 10.562 6.042" style="fill:none;stroke:#000;stroke-width:.264583px;stroke-linecap:butt;stroke-linejoin:miter;stroke-opacity:1"/><path d="m86.144 106.757 2.026-3.704" style="fill:none;stroke:#000;stroke-width:.264583px;stroke-linecap:butt;stroke-linejoin:miter;stroke-opacity:1;marker-start:url(#f);marker-end:url(#f)"/><text xml:space="preserve" style="font-size:14.6667px;line-height:1.25;font-family:sans-serif;white-space:pre;shape-inside:url(#j);display:inline" transform="translate(-52.703 25.34)scale(.26458)"><tspan x="511.111" y="299.76">L5</tspan></text><path d="m27.152 127.973 30.588-17.66s3.123 4.267 5.187 5.864c1.809 1.4 3.938 2.414 6.117 3.11 1.832.584 3.783.876 5.706.847 2.31-.035 4.634-.481 6.822-1.223 1.506-.51 2.935-1.28 4.241-2.19 1.505-1.046 2.858-2.324 4.066-3.703.724-.826 1.881-2.705 1.881-2.705l30.624 17.596s-1.872 3.116-2.947 4.58c-1.602 2.18-3.314 4.292-5.2 6.233-1.991 2.048-4.115 3.99-6.424 5.674-3.23 2.354-6.681 4.45-10.31 6.126a51 51 0 0 1-10.102 3.455c-4.14.939-8.405 1.493-12.651 1.476-4.535-.018-9.116-.52-13.5-1.684a60 60 0 0 1-14.795-6.159c-3.813-2.224-7.255-5.09-10.45-8.136-2.105-2.008-3.938-4.297-5.682-6.626-1.162-1.552-3.17-4.875-3.17-4.875z" style="fill:none;stroke:#faa;stroke-width:.264583px;stroke-linecap:butt;stroke-linejoin:miter;stroke-opacity:1"/><path d="M74.75 45.531v29.395l4.954.484 4.602-23.306s3.196.684 4.747 1.185c2.708.876 5.388 1.887 7.926 3.174a49.3 49.3 0 0 1 7.553 4.714c2.478 1.885 4.812 3.989 6.877 6.318 2.392 2.698 4.484 5.676 6.31 8.784 1.227 2.087 2.35 4.268 3.091 6.573.986 3.065 1.983 6.044 2.54 9.229.477 2.73.572 5.655.722 8.411.133 2.433-.162 4.883-.541 7.29-.461 2.924-2.098 8.628-2.098 8.628l-22.484-7.667-2.058 4.532 25.457 14.698s3.304-6.356 4.422-9.743c1.34-4.06 2.289-8.284 2.695-12.54a55 55 0 0 0-.273-12.73 55.2 55.2 0 0 0-3.244-12.454 55.8 55.8 0 0 0-6.131-11.473 55 55 0 0 0-8.34-9.429c-3.036-2.735-6.429-5.095-9.976-7.123-2.85-1.63-5.906-2.909-9.002-4.005a46 46 0 0 0-7.1-1.903c-3.51-.638-10.649-1.042-10.649-1.042" style="fill:none;stroke:#00f;stroke-width:.264583px;stroke-linecap:butt;stroke-linejoin:miter;stroke-opacity:1"/><path d="M69.329 104.101s2.991 2.787 4.834 2.696c1.964-.098 4.842-3.37 4.842-3.37" style="fill:none;stroke:#000;stroke-width:.264583px;stroke-linecap:butt;stroke-linejoin:miter;stroke-opacity:1;marker-start:url(#f);marker-end:url(#f)"/><text xml:space="preserve" style="font-size:14.6667px;line-height:1.25;font-family:sans-serif;white-space:pre;shape-inside:url(#k);display:inline" transform="translate(3.853 -1.571)scale(.26458)"><tspan x="241.361" y="423.32">2/3*Pi</tspan></text><circle cx="31.26" cy="232.941" r="14.117" style="fill:none;stroke:#ccc;stroke-width:.264583;stroke-linejoin:bevel"/><circle cx="55.473" cy="263.165" r="10.097" style="fill:none;stroke:#ccc;stroke-width:.264582;stroke-linejoin:bevel"/><path d="M45.376 263.165v-30.223" style="fill:none;stroke:green;stroke-width:.264583px;stroke-linecap:butt;stroke-linejoin:miter;stroke-opacity:1"/><circle cx="31.26" cy="232.941" r="18.11" style="fill:none;stroke:#ccc;stroke-width:.264583;stroke-linejoin:bevel"/><path d="M17.143 277.87v-44.928M31.26 214.832H8.805" style="fill:none;stroke:green;stroke-width:.264583px;stroke-linecap:butt;stroke-linejoin:miter;stroke-opacity:1"/><circle cx="55.473" cy="263.165" r="6.103" style="fill:none;stroke:#ccc;stroke-width:.264582;stroke-linejoin:bevel"/><path d="M49.37 263.165v-30.223" style="fill:none;stroke:green;stroke-width:.264583px;stroke-linecap:butt;stroke-linejoin:miter;stroke-opacity:1"/><circle cx="71.674" cy="232.941" r="10.097" style="fill:none;stroke:#ccc;stroke-width:.264582;stroke-linejoin:bevel"/><circle cx="71.674" cy="232.941" r="6.103" style="fill:none;stroke:#ccc;stroke-width:.264582;stroke-linejoin:bevel"/><path d="M65.57 263.165v-30.223M61.577 263.165v-30.223" style="fill:none;stroke:green;stroke-width:.264583px;stroke-linecap:butt;stroke-linejoin:miter;stroke-opacity:1"/><circle cx="87.874" cy="263.165" r="10.097" style="fill:none;stroke:#ccc;stroke-width:.264582;stroke-linejoin:bevel"/><path d="M77.777 263.165v-30.223" style="fill:none;stroke:green;stroke-width:.264583px;stroke-linecap:butt;stroke-linejoin:miter;stroke-opacity:1"/><circle cx="87.874" cy="263.165" r="6.103" style="fill:none;stroke:#ccc;stroke-width:.264582;stroke-linejoin:bevel"/><path d="M81.77 263.165v-30.223" style="fill:none;stroke:green;stroke-width:.264583px;stroke-linecap:butt;stroke-linejoin:miter;stroke-opacity:1"/><circle cx="104.074" cy="232.941" r="10.097" style="fill:none;stroke:#ccc;stroke-width:.264582;stroke-linejoin:bevel"/><circle cx="104.074" cy="232.941" r="6.103" style="fill:none;stroke:#ccc;stroke-width:.264582;stroke-linejoin:bevel"/><path d="M97.97 263.165v-30.223M93.977 263.165v-30.223" style="fill:none;stroke:green;stroke-width:.264583px;stroke-linecap:butt;stroke-linejoin:miter;stroke-opacity:1"/><circle cx="120.274" cy="263.165" r="10.097" style="fill:none;stroke:#ccc;stroke-width:.264582;stroke-linejoin:bevel"/><path d="M110.178 263.165v-30.223" style="fill:none;stroke:green;stroke-width:.264583px;stroke-linecap:butt;stroke-linejoin:miter;stroke-opacity:1"/><circle cx="120.274" cy="263.165" r="6.103" style="fill:none;stroke:#ccc;stroke-width:.264582;stroke-linejoin:bevel"/><path d="M114.171 263.165v-30.223" style="fill:none;stroke:green;stroke-width:.264583px;stroke-linecap:butt;stroke-linejoin:miter;stroke-opacity:1"/><circle cx="136.475" cy="206.525" r="10.097" style="fill:none;stroke:#ccc;stroke-width:.264582;stroke-linejoin:bevel"/><circle cx="136.475" cy="206.525" r="6.103" style="fill:none;stroke:#ccc;stroke-width:.264582;stroke-linejoin:bevel"/><path d="M130.371 263.165v-56.64M126.378 263.165v-56.64M130.371 206.525s.514-2.942 1.476-3.979c1.154-1.245 2.93-2.128 4.628-2.124 1.715.004 3.506.906 4.667 2.17.944 1.028 1.436 3.933 1.436 3.933h3.994s-.273-2.731-.813-3.969a10.5 10.5 0 0 0-2.528-3.534c-1.018-.927-2.273-1.613-3.568-2.077a8.9 8.9 0 0 0-3.188-.517c-1.415.037-2.864.306-4.152.893-1.333.608-2.534 1.55-3.517 2.636-.741.82-1.318 1.807-1.714 2.84-.453 1.18-.714 3.728-.714 3.728M126.378 206.526v-10.1" style="fill:none;stroke:green;stroke-width:.264583px;stroke-linecap:butt;stroke-linejoin:miter;stroke-opacity:1"/><path d="M150.064 196.295h-30.457" style="fill:none;stroke:#ccc;stroke-width:.264581px;stroke-linecap:butt;stroke-linejoin:miter;stroke-opacity:1"/><path d="M130.371 206.526v-10.1M126.378 196.428h3.993" style="fill:none;stroke:green;stroke-width:.264583px;stroke-linecap:butt;stroke-linejoin:miter;stroke-opacity:1"/><path d="M150.064 263.065h-19.706" style="fill:none;stroke:#ccc;stroke-width:.264582px;stroke-linecap:butt;stroke-linejoin:miter;stroke-opacity:1"/><path d="M150.064 196.388v66.461" style="fill:none;stroke:#000;stroke-width:.264583px;stroke-linecap:butt;stroke-linejoin:miter;stroke-opacity:1;marker-start:url(#f);marker-end:url(#f)"/><path d="M17.143 232.941s.354-3.618 1.025-5.28a14.2 14.2 0 0 1 2.93-4.519c1.26-1.304 2.797-2.395 4.462-3.116a14.7 14.7 0 0 1 5.7-1.201c1.832-.011 3.699.366 5.39 1.07a14.5 14.5 0 0 1 4.666 3.139 14 14 0 0 1 2.976 4.48c.704 1.705 1.084 5.427 1.084 5.427" style="fill:none;stroke:green;stroke-width:.264583px;stroke-linecap:butt;stroke-linejoin:miter;stroke-opacity:1"/><path d="M31.26 214.831s4 .32 5.87.978a19 19 0 0 1 5.703 3.202c1.56 1.279 2.88 2.877 3.943 4.591.892 1.437 1.538 3.04 1.982 4.672.412 1.514.612 4.667.612 4.667M49.37 263.165s.305 2.13.817 3.05c.45.81 1.113 1.539 1.9 2.027 1.002.623 2.207 1.012 3.386 1.026 1.084.013 2.193-.328 3.133-.865a5.6 5.6 0 0 0 1.997-1.93c.595-.984.974-3.308.974-3.308" style="fill:none;stroke:green;stroke-width:.264583px;stroke-linecap:butt;stroke-linejoin:miter;stroke-opacity:1"/><path d="M45.376 263.165s.24 2.606.74 3.794a10.8 10.8 0 0 0 2.492 3.609c.959.909 2.143 1.603 3.378 2.072 1.104.42 2.307.655 3.487.621a11.7 11.7 0 0 0 4.55-1.083c1.029-.478 1.954-1.202 2.737-2.024.814-.855 1.508-1.857 1.965-2.945.532-1.27.845-4.044.845-4.044M81.77 263.165s.306 2.13.817 3.05c.45.81 1.114 1.539 1.9 2.027 1.002.623 2.207 1.012 3.387 1.026 1.083.013 2.192-.328 3.133-.865a5.6 5.6 0 0 0 1.996-1.93c.595-.984.974-3.308.974-3.308" style="fill:none;stroke:green;stroke-width:.264583px;stroke-linecap:butt;stroke-linejoin:miter;stroke-opacity:1"/><path d="M77.777 263.165s.24 2.606.74 3.794a10.8 10.8 0 0 0 2.491 3.609c.96.909 2.144 1.603 3.378 2.072 1.104.42 2.308.655 3.488.621a11.7 11.7 0 0 0 4.55-1.083c1.028-.478 1.954-1.202 2.737-2.024.814-.855 1.508-1.857 1.964-2.945.533-1.27.846-4.044.846-4.044M114.17 263.186s.305 2.13.817 3.05c.45.81 1.113 1.539 1.9 2.028 1.001.622 2.207 1.01 3.386 1.025 1.084.014 2.192-.328 3.133-.865a5.6 5.6 0 0 0 1.997-1.93c.595-.984.974-3.308.974-3.308" style="fill:none;stroke:green;stroke-width:.264583px;stroke-linecap:butt;stroke-linejoin:miter;stroke-opacity:1"/><path d="M110.176 263.186s.24 2.606.74 3.794a10.8 10.8 0 0 0 2.491 3.61c.96.908 2.144 1.602 3.379 2.071 1.103.42 2.307.656 3.487.622a11.7 11.7 0 0 0 4.55-1.083c1.029-.479 1.954-1.203 2.737-2.025.814-.854 1.508-1.857 1.965-2.945.532-1.27.845-4.044.845-4.044M97.97 232.942s.306-2.13.818-3.05c.45-.81 1.113-1.54 1.9-2.028 1.001-.622 2.207-1.011 3.386-1.026 1.084-.013 2.192.328 3.133.866a5.6 5.6 0 0 1 1.997 1.93c.595.983.974 3.308.974 3.308" style="fill:none;stroke:green;stroke-width:.264583px;stroke-linecap:butt;stroke-linejoin:miter;stroke-opacity:1"/><path d="M93.977 232.942s.24-2.607.74-3.794a10.8 10.8 0 0 1 2.491-3.61c.96-.908 2.144-1.602 3.379-2.072 1.103-.42 2.307-.655 3.487-.621a11.7 11.7 0 0 1 4.55 1.083c1.029.478 1.954 1.203 2.737 2.025.814.854 1.508 1.856 1.965 2.944.532 1.27.845 4.045.845 4.045M65.57 232.941s.306-2.13.817-3.05c.45-.81 1.113-1.539 1.9-2.027 1.002-.623 2.207-1.012 3.387-1.026 1.083-.013 2.192.328 3.133.865a5.6 5.6 0 0 1 1.996 1.93c.595.984.974 3.308.974 3.308" style="fill:none;stroke:green;stroke-width:.264583px;stroke-linecap:butt;stroke-linejoin:miter;stroke-opacity:1"/><path d="M61.577 232.941s.24-2.606.74-3.794a10.8 10.8 0 0 1 2.49-3.609c.96-.909 2.144-1.603 3.38-2.072 1.103-.42 2.306-.655 3.487-.621a11.7 11.7 0 0 1 4.549 1.082c1.029.479 1.955 1.203 2.737 2.025.814.855 1.508 1.857 1.965 2.945.533 1.27.845 4.044.845 4.044" style="fill:none;stroke:green;stroke-width:.264583px;stroke-linecap:butt;stroke-linejoin:miter;stroke-opacity:1"/><text xml:space="preserve" style="font-size:14.6667px;line-height:1.25;font-family:sans-serif;white-space:pre;shape-inside:url(#l);display:inline" transform="translate(-2.38 -2.084)scale(.26458)"><tspan x="274.598" y="1148.791">SN1</tspan></text><path d="M151.518 233.089h-37.216" style="fill:none;stroke:#ccc;stroke-width:.264581px;stroke-linecap:butt;stroke-linejoin:miter;stroke-opacity:1"/><path d="M135.62 233.034v30.039" style="fill:none;stroke:#000;stroke-width:.264583px;stroke-linecap:butt;stroke-linejoin:miter;stroke-opacity:1;marker-start:url(#m);marker-end:url(#m)"/><path d="M17.525 256.225h27.488" style="fill:none;stroke:#000;stroke-width:.264583px;stroke-linecap:butt;stroke-linejoin:miter;stroke-opacity:1;marker-start:url(#n);marker-end:url(#n)"/><path d="M49.75 232.95h11.421" style="fill:none;stroke:#000;stroke-width:.264583px;stroke-linecap:butt;stroke-linejoin:miter;stroke-opacity:1;marker-start:url(#o);marker-end:url(#o)"/><path d="M126.378 183.444h-7.6" style="fill:none;stroke:#000;stroke-width:.264583px;stroke-linecap:butt;stroke-linejoin:miter;stroke-opacity:1;marker-start:url(#f)"/><path d="M130.371 183.444h7.6" style="fill:none;stroke:#000;stroke-width:.264583px;stroke-linecap:butt;stroke-linejoin:miter;stroke-opacity:1;marker-start:url(#p)"/><text xml:space="preserve" style="font-size:14.6667px;line-height:1.25;font-family:sans-serif;white-space:pre;shape-inside:url(#q);display:inline" transform="translate(5.126 6.636)scale(.26458)"><tspan x="452.061" y="658.795">SE1</tspan></text><text xml:space="preserve" style="font-size:14.6667px;line-height:1.25;font-family:sans-serif;white-space:pre;shape-inside:url(#r);display:inline" transform="translate(-28.207 69.293)scale(.26458)"><tspan x="209.615" y="702.955">SD1</tspan></text><text xml:space="preserve" style="font-size:14.6667px;line-height:1.25;font-family:sans-serif;white-space:pre;shape-inside:url(#s);display:inline" transform="translate(-24.12 35.568)scale(.26458)"><tspan x="286.285" y="740.213">SD2</tspan></text><path d="m59.133 275.013 13.351 22.643" style="fill:none;stroke:#000;stroke-width:.264583px;stroke-linecap:butt;stroke-linejoin:miter;stroke-opacity:1;marker-start:url(#f)"/><path d="m84.085 273.776-8.39 24.36" style="fill:none;stroke:#000;stroke-width:.264583px;stroke-linecap:butt;stroke-linejoin:miter;stroke-opacity:1;marker-start:url(#f)"/><path d="m114.517 273.699-36.014 25.047" style="fill:none;stroke:#000;stroke-width:.264583px;stroke-linecap:butt;stroke-linejoin:miter;stroke-opacity:1;marker-start:url(#f)"/><text xml:space="preserve" style="font-size:14.6667px;line-height:1.25;font-family:sans-serif;white-space:pre;shape-inside:url(#t);display:inline" transform="translate(18.235 -47.694)scale(.26458)"><tspan x="445.52" y="1124.063">SL1</tspan></text><text xml:space="preserve" style="font-size:14.6667px;line-height:1.25;font-family:sans-serif;white-space:pre;shape-inside:url(#u);display:inline" transform="translate(28.304 -82.838)scale(.26458)"><tspan x="433.234" y="1188.483">SL2</tspan></text><text xml:space="preserve" style="font-size:14.6667px;line-height:1.25;font-family:sans-serif;white-space:pre;shape-inside:url(#v);display:inline" transform="translate(-14.213 -.068)scale(.26458)"><tspan x="355.689" y="769.977">Send [round, pike]</tspan></text><path d="m124.755 204.53-8.968-1.75" style="fill:none;stroke:#000;stroke-width:.264583px;stroke-linecap:butt;stroke-linejoin:miter;stroke-opacity:1;marker-start:url(#f)"/><path d="M31.33 228.26s2.536.576 3.163 1.573c.5.796.039 2.82.039 2.82" style="fill:none;stroke:#000;stroke-width:.264583px;stroke-linecap:butt;stroke-linejoin:miter;stroke-opacity:1;marker-start:url(#f);marker-end:url(#f)"/><text xml:space="preserve" style="font-size:14.6667px;line-height:1.25;font-family:sans-serif;white-space:pre;shape-inside:url(#w);display:inline" transform="translate(-6.642 18.164)scale(.26458)"><tspan x="152.945" y="796.111">SA1</tspan></text><path d="M33.875 361.215v-4.926M29.257 363.611v-7.322M31.566 353.337h-3.673M34.528 361.215v-4.926M37.178 361.215v-4.926M36.525 361.215v-4.926M39.174 361.215v-4.926M39.828 361.215v-4.926M42.477 361.215v-4.926M41.824 361.215v-4.926M44.474 361.215v-4.926M45.127 361.215v-4.926M47.777 361.215v-9.231M47.124 361.215v-9.231M47.777 351.983s.084-.479.241-.648c.189-.203.48-.347.757-.346.28 0 .574.147.764.353.154.168.235.641.235.641h.653s-.045-.445-.133-.646a1.7 1.7 0 0 0-.414-.576 1.7 1.7 0 0 0-.583-.339 1.5 1.5 0 0 0-.522-.084c-.231.006-.468.05-.679.145a1.8 1.8 0 0 0-.575.43 1.5 1.5 0 0 0-.28.463c-.075.192-.117.607-.117.607M47.124 351.984v-1.647M47.777 351.984v-1.647M47.124 350.338h.653M29.257 356.289s.058-.59.167-.86a2.32 2.32 0 0 1 1.21-1.245c.291-.126.614-.194.932-.196.3-.002.605.06.882.174.283.118.546.295.763.512.206.207.374.46.486.73.116.278.178.885.178.885" style="fill:none;stroke:green;stroke-width:.264583px;stroke-linecap:butt;stroke-linejoin:miter;stroke-opacity:1"/><path d="M31.566 353.337s.654.052.96.16c.336.118.657.296.933.522.255.208.47.468.645.748.146.234.251.495.324.761.067.247.1.76.1.76M34.528 361.215s.05.347.134.497c.073.132.182.25.31.33a1.1 1.1 0 0 0 .554.167c.177.002.359-.053.513-.14a.9.9 0 0 0 .326-.315c.098-.16.16-.54.16-.54" style="fill:none;stroke:green;stroke-width:.264583px;stroke-linecap:butt;stroke-linejoin:miter;stroke-opacity:1"/><path d="M33.875 361.215s.04.424.12.618c.094.22.235.424.408.588a1.67 1.67 0 0 0 1.123.44c.255-.008.513-.07.744-.177a1.5 1.5 0 0 0 .448-.33c.133-.14.247-.303.321-.48.088-.207.139-.66.139-.66M39.828 361.215s.05.347.133.497c.074.132.182.25.31.33a1.1 1.1 0 0 0 .555.167c.177.002.358-.053.512-.14a.9.9 0 0 0 .327-.315c.097-.16.16-.54.16-.54" style="fill:none;stroke:green;stroke-width:.264583px;stroke-linecap:butt;stroke-linejoin:miter;stroke-opacity:1"/><path d="M39.174 361.215s.04.424.121.618c.093.22.234.424.408.588a1.67 1.67 0 0 0 1.123.44c.255-.008.513-.07.744-.177a1.5 1.5 0 0 0 .448-.33c.133-.14.246-.303.321-.48.087-.207.138-.66.138-.66M45.127 361.218s.05.347.134.497c.073.132.182.251.31.33a1.1 1.1 0 0 0 .554.168c.177.002.359-.054.513-.141a.9.9 0 0 0 .326-.315c.098-.16.16-.539.16-.539" style="fill:none;stroke:green;stroke-width:.264583px;stroke-linecap:butt;stroke-linejoin:miter;stroke-opacity:1"/><path d="M44.474 361.218s.039.425.12.618c.094.22.235.425.408.589a1.67 1.67 0 0 0 1.123.439c.255-.007.513-.07.744-.177a1.5 1.5 0 0 0 .448-.33c.133-.139.247-.302.321-.48.088-.207.139-.659.139-.659M42.477 356.289s.05-.347.134-.497a.9.9 0 0 1 .31-.33 1.1 1.1 0 0 1 .555-.168c.177-.002.358.054.512.141a.9.9 0 0 1 .327.315c.097.16.159.539.159.539" style="fill:none;stroke:green;stroke-width:.264583px;stroke-linecap:butt;stroke-linejoin:miter;stroke-opacity:1"/><path d="M41.824 356.289s.04-.425.121-.618c.093-.22.234-.425.408-.589a1.67 1.67 0 0 1 1.123-.439c.254.007.513.07.744.177.168.078.32.196.447.33.134.139.247.302.322.48.087.207.138.659.138.659M37.178 356.289s.05-.347.133-.497a.9.9 0 0 1 .311-.33 1.1 1.1 0 0 1 .554-.168c.177-.002.359.054.513.141a.9.9 0 0 1 .326.315c.097.16.16.539.16.539" style="fill:none;stroke:green;stroke-width:.264583px;stroke-linecap:butt;stroke-linejoin:miter;stroke-opacity:1"/><path d="M36.525 356.289s.039-.425.12-.619c.093-.22.235-.424.408-.588a1.67 1.67 0 0 1 1.123-.439c.255.007.513.07.744.177.168.078.32.196.448.33.133.139.247.302.321.48.087.207.139.659.139.659M107.872 106.94l-4.672-1.561M108.682 112.079l-6.945-2.32M99.67 106.633l-1.165 3.484M108.08 106.32l-4.673-1.56M108.919 103.807l-4.672-1.561M108.712 104.426l-4.672-1.56M109.552 101.913l-4.672-1.56M109.759 101.294l-4.672-1.561M110.598 98.78l-4.672-1.56M110.391 99.4l-4.672-1.561M111.231 96.887l-4.672-1.561M111.438 96.267l-4.672-1.56M112.278 93.754l-8.756-2.925M112.07 94.374l-8.755-2.926M103.522 90.829s-.428-.232-.538-.435a1.08 1.08 0 0 1-.089-.827c.09-.266.322-.498.578-.612.207-.094.682-.02.682-.02l.207-.62s-.436-.098-.656-.078a1.7 1.7 0 0 0-.677.21 1.7 1.7 0 0 0-.506.445c-.109.139-.194.3-.245.468-.068.222-.101.46-.077.69.024.239.108.474.225.682.088.158.21.298.35.413.159.131.54.303.54.303M103.315 91.448l-1.561-.521M103.522 90.829l-1.561-.522M101.755 90.927l.207-.62M101.737 109.759s-.541-.242-.763-.432a2.32 2.32 0 0 1-.797-1.541c-.027-.316.01-.645.11-.946.093-.285.248-.555.445-.781.2-.232.453-.426.727-.562.262-.13.555-.21.847-.23.3-.022.895.112.895.112" style="fill:none;stroke:green;stroke-width:.264583px;stroke-linecap:butt;stroke-linejoin:miter;stroke-opacity:1"/><path d="M99.67 106.633s.256-.604.455-.86c.218-.282.49-.529.79-.72.279-.175.594-.297.914-.374.269-.064.55-.081.825-.066.255.014.753.146.753.146M108.08 106.32s.344.063.513.03a.9.9 0 0 0 .412-.19 1.1 1.1 0 0 0 .334-.472c.058-.167.063-.357.029-.53a.9.9 0 0 0-.195-.41c-.121-.143-.461-.322-.461-.322" style="fill:none;stroke:green;stroke-width:.264583px;stroke-linecap:butt;stroke-linejoin:miter;stroke-opacity:1"/><path d="M107.872 106.94s.416.097.625.081a1.8 1.8 0 0 0 .687-.2 1.67 1.67 0 0 0 .772-.926c.074-.244.097-.509.069-.762a1.5 1.5 0 0 0-.171-.529c-.09-.17-.21-.33-.354-.457-.168-.148-.581-.34-.581-.34M109.759 101.294s.345.062.514.03a.9.9 0 0 0 .411-.19 1.1 1.1 0 0 0 .334-.472c.059-.167.063-.357.03-.53a.9.9 0 0 0-.196-.41c-.121-.143-.46-.322-.46-.322" style="fill:none;stroke:green;stroke-width:.264583px;stroke-linecap:butt;stroke-linejoin:miter;stroke-opacity:1"/><path d="M109.552 101.913s.415.097.624.082a1.8 1.8 0 0 0 .688-.2 1.67 1.67 0 0 0 .772-.926c.074-.244.096-.509.068-.762a1.5 1.5 0 0 0-.171-.53c-.09-.17-.209-.33-.353-.456-.169-.149-.582-.34-.582-.34M111.441 96.269s.345.062.514.03a.9.9 0 0 0 .412-.19 1.1 1.1 0 0 0 .334-.472c.058-.168.063-.357.029-.53a.9.9 0 0 0-.195-.41c-.121-.143-.461-.322-.461-.322" style="fill:none;stroke:green;stroke-width:.264583px;stroke-linecap:butt;stroke-linejoin:miter;stroke-opacity:1"/><path d="M111.234 96.888s.416.097.625.081c.238-.018.477-.087.687-.2a1.67 1.67 0 0 0 .772-.926c.074-.244.097-.508.069-.762a1.5 1.5 0 0 0-.171-.529c-.09-.17-.21-.33-.354-.457-.168-.148-.581-.34-.581-.34M105.926 97.22s-.313-.158-.429-.285a.9.9 0 0 1-.215-.4 1.1 1.1 0 0 1 .017-.578c.055-.168.165-.323.297-.44a.9.9 0 0 1 .401-.21c.183-.042.562.019.562.019" style="fill:none;stroke:green;stroke-width:.264583px;stroke-linecap:butt;stroke-linejoin:miter;stroke-opacity:1"/><path d="M105.72 97.839s-.391-.172-.549-.31a1.8 1.8 0 0 1-.428-.574 1.67 1.67 0 0 1-.061-1.204c.087-.24.228-.464.403-.65a1.5 1.5 0 0 1 .455-.32c.174-.082.365-.138.557-.152.224-.017.67.077.67.077M104.247 102.246s-.314-.158-.43-.284a.9.9 0 0 1-.214-.4 1.1 1.1 0 0 1 .017-.578c.054-.169.164-.323.296-.442a.9.9 0 0 1 .402-.21c.183-.041.562.02.562.02" style="fill:none;stroke:green;stroke-width:.264583px;stroke-linecap:butt;stroke-linejoin:miter;stroke-opacity:1"/><path d="M104.04 102.865s-.39-.171-.548-.31a1.8 1.8 0 0 1-.429-.573 1.67 1.67 0 0 1-.06-1.204c.087-.24.228-.465.403-.65a1.5 1.5 0 0 1 .455-.32c.174-.082.365-.138.557-.153.224-.017.669.078.669.078M85.829 68.587l-.948 4.834M81.758 65.347l-1.409 7.185M82.047 75.873l-3.604-.707M86.47 68.712l-.948 4.834M89.07 69.222l-.948 4.834M88.429 69.096l-.948 4.834M91.03 69.606l-.948 4.834M91.67 69.732l-.947 4.834M94.27 70.242l-.947 4.833M93.63 70.116l-.948 4.834M96.23 70.626l-.948 4.833M96.87 70.751l-.947 4.834M99.471 71.261l-1.776 9.059M98.83 71.135l-1.776 9.06M97.695 80.32s-.01.486.112.683c.147.235.404.432.677.485.275.053.59-.035.817-.2.183-.135.354-.584.354-.584l.64.126s-.129.428-.254.609a1.7 1.7 0 0 1-.517.485 1.7 1.7 0 0 1-.638.22c-.174.026-.356.021-.528-.017-.226-.05-.45-.14-.638-.274a1.8 1.8 0 0 1-.482-.532 1.5 1.5 0 0 1-.186-.508c-.036-.203.002-.619.002-.619M97.054 80.194l-.316 1.615M97.695 80.32l-.316 1.615M96.738 81.809l.64.126M80.35 72.532s-.057.59-.002.877a2.297 2.297 0 0 0 .947 1.454c.262.18.566.308.878.371.293.06.605.058.898-.001.3-.061.594-.185.848-.356a2.3 2.3 0 0 0 .618-.623c.166-.25.344-.833.344-.833" style="fill:none;stroke:green;stroke-width:.264583px;stroke-linecap:butt;stroke-linejoin:miter;stroke-opacity:1"/><path d="M82.047 75.873s.652.075.973.028a3.1 3.1 0 0 0 1.016-.333c.29-.155.552-.369.777-.61.188-.202.342-.437.464-.685.114-.229.245-.727.245-.727M86.47 68.712s.115-.33.226-.462a.9.9 0 0 1 .369-.264 1.1 1.1 0 0 1 .576-.058c.174.032.341.122.475.237.115.099.208.23.26.372.065.176.053.56.053.56" style="fill:none;stroke:green;stroke-width:.264583px;stroke-linecap:butt;stroke-linejoin:miter;stroke-opacity:1"/><path d="M85.829 68.587s.12-.41.237-.584c.134-.197.311-.371.513-.499a1.67 1.67 0 0 1 1.187-.214c.248.055.49.166.696.316.15.109.276.254.376.41.104.162.184.344.223.533.046.22.009.673.009.673M91.67 69.732s.116-.331.227-.462a.9.9 0 0 1 .368-.265 1.1 1.1 0 0 1 .576-.057c.174.032.342.121.476.237.114.098.208.23.26.371.065.176.052.56.052.56" style="fill:none;stroke:green;stroke-width:.264583px;stroke-linecap:butt;stroke-linejoin:miter;stroke-opacity:1"/><path d="M91.03 69.606s.12-.41.237-.583c.133-.198.311-.372.513-.5a1.67 1.67 0 0 1 1.186-.214c.25.056.49.167.697.316.15.11.276.254.375.41.104.163.184.345.224.533.045.22.008.674.008.674M96.871 70.748s.116-.331.227-.462a.9.9 0 0 1 .368-.265 1.1 1.1 0 0 1 .576-.057c.174.032.342.121.476.237.114.098.208.23.26.371.065.176.052.56.052.56" style="fill:none;stroke:green;stroke-width:.264583px;stroke-linecap:butt;stroke-linejoin:miter;stroke-opacity:1"/><path d="M96.23 70.622s.12-.41.238-.583c.133-.198.311-.372.513-.5a1.67 1.67 0 0 1 1.186-.214c.25.056.49.167.697.316.15.11.276.254.376.41.103.163.183.345.223.533.045.22.008.674.008.674M93.323 75.075s-.018.35.035.514c.047.144.13.281.242.384a1.1 1.1 0 0 0 .511.27c.174.037.362.017.53-.04a.9.9 0 0 0 .381-.245c.126-.139.26-.499.26-.499" style="fill:none;stroke:green;stroke-width:.264583px;stroke-linecap:butt;stroke-linejoin:miter;stroke-opacity:1"/><path d="M92.682 74.95s-.043.424 0 .63c.049.233.148.461.286.655a1.67 1.67 0 0 0 1.018.647c.251.042.517.03.764-.03.18-.044.352-.13.503-.238.157-.11.3-.249.408-.409.125-.186.262-.62.262-.62M88.122 74.056s-.017.35.036.514c.047.143.13.28.241.384a1.1 1.1 0 0 0 .512.27c.173.036.362.017.53-.04a.9.9 0 0 0 .38-.246c.127-.138.26-.498.26-.498" style="fill:none;stroke:green;stroke-width:.264583px;stroke-linecap:butt;stroke-linejoin:miter;stroke-opacity:1"/><path d="M87.481 73.93s-.043.425 0 .63c.05.234.148.462.287.656a1.67 1.67 0 0 0 1.017.647c.252.042.517.03.765-.03.18-.044.351-.131.502-.238.158-.111.3-.25.408-.41.125-.185.263-.62.263-.62" style="fill:none;stroke:green;stroke-width:.264583px;stroke-linecap:butt;stroke-linejoin:miter;stroke-opacity:1"/><text xml:space="preserve" style="font-size:14.6667px;line-height:1.25;font-family:sans-serif;white-space:pre;shape-inside:url(#x);display:inline" transform="translate(3.742 5.166)scale(.26458)"><tspan x="450.16" y="542.477">L4</tspan></text><path d="m120.997 146.297 5.071-3.303" style="fill:none;stroke:#000;stroke-width:.264583px;stroke-linecap:butt;stroke-linejoin:miter;stroke-opacity:1;marker-end:url(#f)"/></svg>