<svg xmlns="http://www.w3.org/2000/svg" width="489.504" height="433.534" viewBox="0 0 129.515 114.706"><defs><path id="k" d="M450.159 529.5h61.453v44.206h-61.453z"/><path id="j" d="M241.362 410.343h80.716v40.915h-80.716z"/><path id="i" d="M511.111 286.783h43.436v48.181h-43.436z"/><path id="h" d="M357.132 123.578h43.314v37.246h-43.314z"/><path id="d" d="M15.839 512.34h57.806v35.348H15.839z"/><path id="c" d="M25.047 572.984H92.27v25.225H25.047z"/><path id="b" d="M19.574 275.367h57.525v53.19H19.574z"/><path id="a" d="M39.295 218.297h53.769v41.714H39.295z"/><marker id="e" markerHeight="1" markerWidth="1" orient="auto-start-reverse" preserveAspectRatio="xMidYMid" refX="0" refY="0" style="overflow:visible" viewBox="0 0 1 1"><path d="M3-3 0 0l3 3" style="fill:none;stroke:context-stroke;stroke-width:1;stroke-linecap:butt" transform="rotate(180 .125 0)"/></marker><marker id="f" markerHeight="1" markerWidth="1" orient="auto-start-reverse" preserveAspectRatio="xMidYMid" refX="0" refY="0" style="overflow:visible" viewBox="0 0 1 1"><path d="M3-3 0 0l3 3" style="fill:none;stroke:context-stroke;stroke-width:1;stroke-linecap:butt" transform="rotate(180 .125 0)"/></marker><marker id="g" markerHeight="1" markerWidth="1" orient="auto-start-reverse" preserveAspectRatio="xMidYMid" refX="0" refY="0" style="overflow:visible" viewBox="0 0 1 1"><path d="M3-3 0 0l3 3" style="fill:none;stroke:context-stroke;stroke-width:1;stroke-linecap:butt" transform="rotate(180 .125 0)"/></marker></defs><g transform="translate(-6.03 -42.876)"><path d="M6.162 43.008h129.25v114.441H6.162z" style="fill:#fff;stroke:#fff;stroke-width:.264583;stroke-linejoin:bevel"/><circle cx="74.75" cy="100.492" r="54.961" style="fill:none;stroke:#b3b3b3;stroke-width:.264582;stroke-linejoin:bevel"/><circle cx="74.75" cy="100.492" r="19.642" style="fill:none;stroke:#b3b3b3;stroke-width:.264582;stroke-linejoin:bevel"/><path d="M74.75 100.492v-54.96M74.75 100.492l47.598 27.48M74.75 100.492l-47.598 27.48" style="fill:none;stroke:#000;stroke-width:.264583px;stroke-linecap:butt;stroke-linejoin:miter;stroke-opacity:1"/><circle cx="74.75" cy="100.492" r="25.567" style="fill:none;stroke:#b3b3b3;stroke-width:.264582;stroke-linejoin:bevel"/><circle cx="74.75" cy="100.492" r="49.322" style="fill:none;stroke:#b3b3b3;stroke-width:.264582;stroke-linejoin:bevel"/><path d="m74.75 100.492 52.02 17.738M74.75 100.492l10.649-53.92" style="fill:none;stroke:#ccc;stroke-width:.264583px;stroke-linecap:butt;stroke-linejoin:miter;stroke-opacity:1"/><text xml:space="preserve" style="font-size:14.6667px;line-height:1.25;font-family:sans-serif;white-space:pre;shape-inside:url(#a);display:inline" transform="translate(49.722 37.126)scale(.26458)"><tspan x="39.295" y="231.273">D5</tspan></text><text xml:space="preserve" style="font-size:14.6667px;line-height:1.25;font-family:sans-serif;white-space:pre;shape-inside:url(#b);display:inline" transform="translate(44.919 22.545)scale(.26458)"><tspan x="19.574" y="288.344">E5</tspan></text><text xml:space="preserve" style="font-size:14.6667px;line-height:1.25;font-family:sans-serif;white-space:pre;shape-inside:url(#c);display:inline" transform="translate(1.933 -32.617)scale(.26458)"><tspan x="25.047" y="585.961">D8</tspan></text><text xml:space="preserve" style="font-size:14.6667px;line-height:1.25;font-family:sans-serif;white-space:pre;shape-inside:url(#d);display:inline" transform="translate(16.175 -39.888)scale(.26458)"><tspan x="15.84" y="525.316">E8</tspan></text><path d="M49.183 100.492h5.925" style="fill:none;stroke:#000;stroke-width:.264583px;stroke-linecap:butt;stroke-linejoin:miter;stroke-opacity:1;marker-start:url(#e);marker-end:url(#e)"/><path d="m62.43 94.665-3.49-4.52" style="fill:none;stroke:#000;stroke-width:.264583px;stroke-linecap:butt;stroke-linejoin:miter;stroke-opacity:1;marker-end:url(#e)"/><path d="M19.879 100.492h5.194" style="fill:none;stroke:#000;stroke-width:.264583px;stroke-linecap:butt;stroke-linejoin:miter;stroke-opacity:1;marker-start:url(#f);marker-end:url(#f)"/><path d="m15.562 118.838 5.141-3.481" style="fill:none;stroke:#000;stroke-width:.264583px;stroke-linecap:butt;stroke-linejoin:miter;stroke-opacity:1;marker-end:url(#g)"/><text xml:space="preserve" style="font-size:14.6667px;line-height:1.25;font-family:sans-serif;white-space:pre;shape-inside:url(#h);display:inline" transform="translate(-6.124 27.557)scale(.26458)"><tspan x="357.133" y="136.555">R9</tspan></text><path d="m84.859 53.103 4.5 7.117" style="fill:none;stroke:#000;stroke-width:.264583px;stroke-linecap:butt;stroke-linejoin:miter;stroke-opacity:1;marker-start:url(#e)"/><path d="m88.375 102.727 10.562 6.042" style="fill:none;stroke:#000;stroke-width:.264583px;stroke-linecap:butt;stroke-linejoin:miter;stroke-opacity:1"/><path d="m86.144 106.757 2.026-3.704" style="fill:none;stroke:#000;stroke-width:.264583px;stroke-linecap:butt;stroke-linejoin:miter;stroke-opacity:1;marker-start:url(#e);marker-end:url(#e)"/><text xml:space="preserve" style="font-size:14.6667px;line-height:1.25;font-family:sans-serif;white-space:pre;shape-inside:url(#i);display:inline" transform="translate(-52.703 25.34)scale(.26458)"><tspan x="511.111" y="299.76">L5</tspan></text><path d="m27.152 127.973 30.588-17.66s3.123 4.267 5.187 5.864c1.809 1.4 3.938 2.414 6.117 3.11 1.832.584 3.783.876 5.706.847 2.31-.035 4.634-.481 6.822-1.223 1.506-.51 2.935-1.28 4.241-2.19 1.505-1.046 2.858-2.324 4.066-3.703.724-.826 1.881-2.705 1.881-2.705l30.624 17.596s-1.872 3.116-2.947 4.58c-1.602 2.18-3.314 4.292-5.2 6.233-1.991 2.048-4.115 3.99-6.424 5.674-3.23 2.354-6.681 4.45-10.31 6.126a51 51 0 0 1-10.102 3.455c-4.14.939-8.405 1.493-12.651 1.476-4.535-.018-9.116-.52-13.5-1.684a60 60 0 0 1-14.795-6.159c-3.813-2.224-7.255-5.09-10.45-8.136-2.105-2.008-3.938-4.297-5.682-6.626-1.162-1.552-3.17-4.875-3.17-4.875z" style="fill:none;stroke:#faa;stroke-width:.264583px;stroke-linecap:butt;stroke-linejoin:miter;stroke-opacity:1"/><path d="M74.75 45.531v29.395l4.954.484 4.602-23.306s3.196.684 4.747 1.185c2.708.876 5.388 1.887 7.926 3.174a49.3 49.3 0 0 1 7.553 4.714c2.478 1.885 4.812 3.989 6.877 6.318 2.392 2.698 4.484 5.676 6.31 8.784 1.227 2.087 2.35 4.268 3.091 6.573.986 3.065 1.983 6.044 2.54 9.229.477 2.73.572 5.655.722 8.411.133 2.433-.162 4.883-.541 7.29-.461 2.924-2.098 8.628-2.098 8.628l-22.484-7.667-2.058 4.532 25.457 14.698s3.304-6.356 4.422-9.743c1.34-4.06 2.289-8.284 2.695-12.54a55 55 0 0 0-.273-12.73 55.2 55.2 0 0 0-3.244-12.454 55.8 55.8 0 0 0-6.131-11.473 55 55 0 0 0-8.34-9.429c-3.036-2.735-6.429-5.095-9.976-7.123-2.85-1.63-5.906-2.909-9.002-4.005a46 46 0 0 0-7.1-1.903c-3.51-.638-10.649-1.042-10.649-1.042" style="fill:none;stroke:#00f;stroke-width:.264583px;stroke-linecap:butt;stroke-linejoin:miter;stroke-opacity:1"/><path d="M69.329 104.101s2.991 2.787 4.834 2.696c1.964-.098 4.842-3.37 4.842-3.37" style="fill:none;stroke:#000;stroke-width:.264583px;stroke-linecap:butt;stroke-linejoin:miter;stroke-opacity:1;marker-start:url(#e);marker-end:url(#e)"/><text xml:space="preserve" style="font-size:14.6667px;line-height:1.25;font-family:sans-serif;white-space:pre;shape-inside:url(#j);display:inline" transform="translate(3.853 -1.571)scale(.26458)"><tspan x="241.361" y="423.32">2/3*Pi</tspan></text><path d="m107.872 106.94-4.672-1.561M108.682 112.079l-6.945-2.32M99.67 106.633l-1.165 3.484M108.08 106.32l-4.673-1.56M108.919 103.807l-4.672-1.561M108.712 104.426l-4.672-1.56M109.552 101.913l-4.672-1.56M109.759 101.294l-4.672-1.561M110.598 98.78l-4.672-1.56M110.391 99.4l-4.672-1.561M111.231 96.887l-4.672-1.561M111.438 96.267l-4.672-1.56M112.278 93.754l-8.756-2.925M112.07 94.374l-8.755-2.926M103.522 90.829s-.428-.232-.538-.435a1.08 1.08 0 0 1-.089-.827c.09-.266.322-.498.578-.612.207-.094.682-.02.682-.02l.207-.62s-.436-.098-.656-.078a1.7 1.7 0 0 0-.677.21 1.7 1.7 0 0 0-.506.445c-.109.139-.194.3-.245.468-.068.222-.101.46-.077.69.024.239.108.474.225.682.088.158.21.298.35.413.159.131.54.303.54.303M103.315 91.448l-1.561-.521M103.522 90.829l-1.561-.522M101.755 90.927l.207-.62M101.737 109.759s-.541-.242-.763-.432a2.32 2.32 0 0 1-.797-1.541c-.027-.316.01-.645.11-.946.093-.285.248-.555.445-.781.2-.232.453-.426.727-.562.262-.13.555-.21.847-.23.3-.022.895.112.895.112" style="fill:none;stroke:green;stroke-width:.264583px;stroke-linecap:butt;stroke-linejoin:miter;stroke-opacity:1"/><path d="M99.67 106.633s.256-.604.455-.86c.218-.282.49-.529.79-.72.279-.175.594-.297.914-.374.269-.064.55-.081.825-.066.255.014.753.146.753.146M108.08 106.32s.344.063.513.03a.9.9 0 0 0 .412-.19 1.1 1.1 0 0 0 .334-.472c.058-.167.063-.357.029-.53a.9.9 0 0 0-.195-.41c-.121-.143-.461-.322-.461-.322" style="fill:none;stroke:green;stroke-width:.264583px;stroke-linecap:butt;stroke-linejoin:miter;stroke-opacity:1"/><path d="M107.872 106.94s.416.097.625.081a1.8 1.8 0 0 0 .687-.2 1.67 1.67 0 0 0 .772-.926c.074-.244.097-.509.069-.762a1.5 1.5 0 0 0-.171-.529c-.09-.17-.21-.33-.354-.457-.168-.148-.581-.34-.581-.34M109.759 101.294s.345.062.514.03a.9.9 0 0 0 .411-.19 1.1 1.1 0 0 0 .334-.472c.059-.167.063-.357.03-.53a.9.9 0 0 0-.196-.41c-.121-.143-.46-.322-.46-.322" style="fill:none;stroke:green;stroke-width:.264583px;stroke-linecap:butt;stroke-linejoin:miter;stroke-opacity:1"/><path d="M109.552 101.913s.415.097.624.082a1.8 1.8 0 0 0 .688-.2 1.67 1.67 0 0 0 .772-.926c.074-.244.096-.509.068-.762a1.5 1.5 0 0 0-.171-.53c-.09-.17-.209-.33-.353-.456-.169-.149-.582-.34-.582-.34M111.441 96.269s.345.062.514.03a.9.9 0 0 0 .412-.19 1.1 1.1 0 0 0 .334-.472c.058-.168.063-.357.029-.53a.9.9 0 0 0-.195-.41c-.121-.143-.461-.322-.461-.322" style="fill:none;stroke:green;stroke-width:.264583px;stroke-linecap:butt;stroke-linejoin:miter;stroke-opacity:1"/><path d="M111.234 96.888s.416.097.625.081c.238-.018.477-.087.687-.2a1.67 1.67 0 0 0 .772-.926c.074-.244.097-.508.069-.762a1.5 1.5 0 0 0-.171-.529c-.09-.17-.21-.33-.354-.457-.168-.148-.581-.34-.581-.34M105.926 97.22s-.313-.158-.429-.285a.9.9 0 0 1-.215-.4 1.1 1.1 0 0 1 .017-.578c.055-.168.165-.323.297-.44a.9.9 0 0 1 .401-.21c.183-.042.562.019.562.019" style="fill:none;stroke:green;stroke-width:.264583px;stroke-linecap:butt;stroke-linejoin:miter;stroke-opacity:1"/><path d="M105.72 97.839s-.391-.172-.549-.31a1.8 1.8 0 0 1-.428-.574 1.67 1.67 0 0 1-.061-1.204c.087-.24.228-.464.403-.65a1.5 1.5 0 0 1 .455-.32c.174-.082.365-.138.557-.152.224-.017.67.077.67.077M104.247 102.246s-.314-.158-.43-.284a.9.9 0 0 1-.214-.4 1.1 1.1 0 0 1 .017-.578c.054-.169.164-.323.296-.442a.9.9 0 0 1 .402-.21c.183-.041.562.02.562.02" style="fill:none;stroke:green;stroke-width:.264583px;stroke-linecap:butt;stroke-linejoin:miter;stroke-opacity:1"/><path d="M104.04 102.865s-.39-.171-.548-.31a1.8 1.8 0 0 1-.429-.573 1.67 1.67 0 0 1-.06-1.204c.087-.24.228-.465.403-.65a1.5 1.5 0 0 1 .455-.32c.174-.082.365-.138.557-.153.224-.017.669.078.669.078M85.829 68.587l-.948 4.834M81.758 65.347l-1.409 7.185M82.047 75.873l-3.604-.707M86.47 68.712l-.948 4.834M89.07 69.222l-.948 4.834M88.429 69.096l-.948 4.834M91.03 69.606l-.948 4.834M91.67 69.732l-.947 4.834M94.27 70.242l-.947 4.833M93.63 70.116l-.948 4.834M96.23 70.626l-.948 4.833M96.87 70.751l-.947 4.834M99.471 71.261l-1.776 9.059M98.83 71.135l-1.776 9.06M97.695 80.32s-.01.486.112.683c.147.235.404.432.677.485.275.053.59-.035.817-.2.183-.135.354-.584.354-.584l.64.126s-.129.428-.254.609a1.7 1.7 0 0 1-.517.485 1.7 1.7 0 0 1-.638.22c-.174.026-.356.021-.528-.017-.226-.05-.45-.14-.638-.274a1.8 1.8 0 0 1-.482-.532 1.5 1.5 0 0 1-.186-.508c-.036-.203.002-.619.002-.619M97.054 80.194l-.316 1.615M97.695 80.32l-.316 1.615M96.738 81.809l.64.126M80.35 72.532s-.057.59-.002.877a2.297 2.297 0 0 0 .947 1.454c.262.18.566.308.878.371.293.06.605.058.898-.001.3-.061.594-.185.848-.356a2.3 2.3 0 0 0 .618-.623c.166-.25.344-.833.344-.833" style="fill:none;stroke:green;stroke-width:.264583px;stroke-linecap:butt;stroke-linejoin:miter;stroke-opacity:1"/><path d="M82.047 75.873s.652.075.973.028a3.1 3.1 0 0 0 1.016-.333c.29-.155.552-.369.777-.61.188-.202.342-.437.464-.685.114-.229.245-.727.245-.727M86.47 68.712s.115-.33.226-.462a.9.9 0 0 1 .369-.264 1.1 1.1 0 0 1 .576-.058c.174.032.341.122.475.237.115.099.208.23.26.372.065.176.053.56.053.56" style="fill:none;stroke:green;stroke-width:.264583px;stroke-linecap:butt;stroke-linejoin:miter;stroke-opacity:1"/><path d="M85.829 68.587s.12-.41.237-.584c.134-.197.311-.371.513-.499a1.67 1.67 0 0 1 1.187-.214c.248.055.49.166.696.316.15.109.276.254.376.41.104.162.184.344.223.533.046.22.009.673.009.673M91.67 69.732s.116-.331.227-.462a.9.9 0 0 1 .368-.265 1.1 1.1 0 0 1 .576-.057c.174.032.342.121.476.237.114.098.208.23.26.371.065.176.052.56.052.56" style="fill:none;stroke:green;stroke-width:.264583px;stroke-linecap:butt;stroke-linejoin:miter;stroke-opacity:1"/><path d="M91.03 69.606s.12-.41.237-.583c.133-.198.311-.372.513-.5a1.67 1.67 0 0 1 1.186-.214c.25.056.49.167.697.316.15.11.276.254.375.41.104.163.184.345.224.533.045.22.008.674.008.674M96.871 70.748s.116-.331.227-.462a.9.9 0 0 1 .368-.265 1.1 1.1 0 0 1 .576-.057c.174.032.342.121.476.237.114.098.208.23.26.371.065.176.052.56.052.56" style="fill:none;stroke:green;stroke-width:.264583px;stroke-linecap:butt;stroke-linejoin:miter;stroke-opacity:1"/><path d="M96.23 70.622s.12-.41.238-.583c.133-.198.311-.372.513-.5a1.67 1.67 0 0 1 1.186-.214c.25.056.49.167.697.316.15.11.276.254.376.41.103.163.183.345.223.533.045.22.008.674.008.674M93.323 75.075s-.018.35.035.514c.047.144.13.281.242.384a1.1 1.1 0 0 0 .511.27c.174.037.362.017.53-.04a.9.9 0 0 0 .381-.245c.126-.139.26-.499.26-.499" style="fill:none;stroke:green;stroke-width:.264583px;stroke-linecap:butt;stroke-linejoin:miter;stroke-opacity:1"/><path d="M92.682 74.95s-.043.424 0 .63c.049.233.148.461.286.655a1.67 1.67 0 0 0 1.018.647c.251.042.517.03.764-.03.18-.044.352-.13.503-.238.157-.11.3-.249.408-.409.125-.186.262-.62.262-.62M88.122 74.056s-.017.35.036.514c.047.143.13.28.241.384a1.1 1.1 0 0 0 .512.27c.173.036.362.017.53-.04a.9.9 0 0 0 .38-.246c.127-.138.26-.498.26-.498" style="fill:none;stroke:green;stroke-width:.264583px;stroke-linecap:butt;stroke-linejoin:miter;stroke-opacity:1"/><path d="M87.481 73.93s-.043.425 0 .63c.05.234.148.462.287.656a1.67 1.67 0 0 0 1.017.647c.252.042.517.03.765-.03.18-.044.351-.131.502-.238.158-.111.3-.25.408-.41.125-.185.263-.62.263-.62" style="fill:none;stroke:green;stroke-width:.264583px;stroke-linecap:butt;stroke-linejoin:miter;stroke-opacity:1"/><text xml:space="preserve" style="font-size:14.6667px;line-height:1.25;font-family:sans-serif;white-space:pre;shape-inside:url(#k);display:inline" transform="translate(3.742 5.166)scale(.26458)"><tspan x="450.16" y="542.477">L4</tspan></text><path d="m120.997 146.297 5.071-3.303" style="fill:none;stroke:#000;stroke-width:.264583px;stroke-linecap:butt;stroke-linejoin:miter;stroke-opacity:1;marker-end:url(#e)"/></g></svg>