<svg xmlns="http://www.w3.org/2000/svg" width="487.082" height="527.99" viewBox="0 0 128.874 139.697"><defs><path id="H" d="M418.802 3200.172h40.83v26.971h-40.83z"/><path id="o" d="M170.189 2164.988h50.681v30.45h-50.681z"/><path id="p" d="M262.625 2335.759h99.08v71.139h-99.08z"/><path id="q" d="M76.008 2320.722h82.33v62.835h-82.33z"/><path id="r" d="M214.086 2407.869h91.159v48.008h-91.159z"/><path id="s" d="M333.994 2372.979h99.652v71.9h-99.652z"/><path id="t" d="M373.645 2326.059h81.78v46.484h-81.78z"/><path id="u" d="M399.172 2414.332h83.869v49.879h-83.869z"/><path id="v" d="M129.168 2354.55h93.584v45.454h-93.584z"/><path id="w" d="M393.462 2367.206h70.191v38.478h-70.191z"/><path id="x" d="M82.581 2312.307h74.122v52.028H82.581z"/><path id="y" d="M213.868 2361.743h62.624v31.55h-62.624z"/><path id="z" d="M317.746 2349.589h65.68v43.775h-65.68z"/><path id="A" d="M152.281 2344.459h88.97v40.025h-88.97z"/><path id="B" d="M285.498 2336.619h72.568v40.456h-72.568z"/><path id="C" d="M143.563 2344.551h111.223v52.762H143.563z"/><path id="D" d="M409.589 1735.523h89.035v43.907h-89.035z"/><path id="E" d="M489.68 1794.15h78.858v45.177H489.68z"/><path id="F" d="M206.743 2313.628h58.308v25.556h-58.308z"/><path id="J" d="M418.802 3200.172h40.83v26.971h-40.83z"/><marker id="a" markerHeight="1" markerWidth="1" orient="auto-start-reverse" preserveAspectRatio="xMidYMid" refX="0" refY="0" style="overflow:visible" viewBox="0 0 1 1"><path d="M-.211-4.106 6.21-.894a1 1 90 0 1 0 1.788L-.21 4.106A1.236 1.236 31.717 0 1-2 3v-6A1.236 1.236 148.283 0 1-.211-4.106" style="fill:context-stroke;fill-rule:evenodd;stroke:none" transform="scale(.7)"/></marker><marker id="b" markerHeight="1" markerWidth="1" orient="auto-start-reverse" preserveAspectRatio="xMidYMid" refX="0" refY="0" style="overflow:visible" viewBox="0 0 1 1"><path d="M-.211-4.106 6.21-.894a1 1 90 0 1 0 1.788L-.21 4.106A1.236 1.236 31.717 0 1-2 3v-6A1.236 1.236 148.283 0 1-.211-4.106" style="fill:context-stroke;fill-rule:evenodd;stroke:none" transform="scale(.7)"/></marker><marker id="c" markerHeight="1" markerWidth="1" orient="auto-start-reverse" preserveAspectRatio="xMidYMid" refX="0" refY="0" style="overflow:visible" viewBox="0 0 1 1"><path d="M-.211-4.106 6.21-.894a1 1 90 0 1 0 1.788L-.21 4.106A1.236 1.236 31.717 0 1-2 3v-6A1.236 1.236 148.283 0 1-.211-4.106" style="fill:context-stroke;fill-rule:evenodd;stroke:none" transform="scale(.7)"/></marker><marker id="d" markerHeight="1" markerWidth="1" orient="auto-start-reverse" preserveAspectRatio="xMidYMid" refX="0" refY="0" style="overflow:visible" viewBox="0 0 1 1"><path d="M-.211-4.106 6.21-.894a1 1 90 0 1 0 1.788L-.21 4.106A1.236 1.236 31.717 0 1-2 3v-6A1.236 1.236 148.283 0 1-.211-4.106" style="fill:context-stroke;fill-rule:evenodd;stroke:none" transform="scale(.7)"/></marker><marker id="e" markerHeight="1" markerWidth="1" orient="auto-start-reverse" preserveAspectRatio="xMidYMid" refX="0" refY="0" style="overflow:visible" viewBox="0 0 1 1"><path d="M-.211-4.106 6.21-.894a1 1 90 0 1 0 1.788L-.21 4.106A1.236 1.236 31.717 0 1-2 3v-6A1.236 1.236 148.283 0 1-.211-4.106" style="fill:context-stroke;fill-rule:evenodd;stroke:none" transform="scale(.7)"/></marker><marker id="f" markerHeight="1" markerWidth="1" orient="auto-start-reverse" preserveAspectRatio="xMidYMid" refX="0" refY="0" style="overflow:visible" viewBox="0 0 1 1"><path d="M-.211-4.106 6.21-.894a1 1 90 0 1 0 1.788L-.21 4.106A1.236 1.236 31.717 0 1-2 3v-6A1.236 1.236 148.283 0 1-.211-4.106" style="fill:context-stroke;fill-rule:evenodd;stroke:none" transform="scale(.7)"/></marker><marker id="g" markerHeight="1" markerWidth="1" orient="auto-start-reverse" preserveAspectRatio="xMidYMid" refX="0" refY="0" style="overflow:visible" viewBox="0 0 1 1"><path d="M-.211-4.106 6.21-.894a1 1 90 0 1 0 1.788L-.21 4.106A1.236 1.236 31.717 0 1-2 3v-6A1.236 1.236 148.283 0 1-.211-4.106" style="fill:context-stroke;fill-rule:evenodd;stroke:none" transform="scale(.7)"/></marker><marker id="h" markerHeight="1" markerWidth="1" orient="auto-start-reverse" preserveAspectRatio="xMidYMid" refX="0" refY="0" style="overflow:visible" viewBox="0 0 1 1"><path d="M-.211-4.106 6.21-.894a1 1 90 0 1 0 1.788L-.21 4.106A1.236 1.236 31.717 0 1-2 3v-6A1.236 1.236 148.283 0 1-.211-4.106" style="fill:context-stroke;fill-rule:evenodd;stroke:none" transform="scale(.7)"/></marker><marker id="i" markerHeight="1" markerWidth="1" orient="auto-start-reverse" preserveAspectRatio="xMidYMid" refX="0" refY="0" style="overflow:visible" viewBox="0 0 1 1"><path d="M-.211-4.106 6.21-.894a1 1 90 0 1 0 1.788L-.21 4.106A1.236 1.236 31.717 0 1-2 3v-6A1.236 1.236 148.283 0 1-.211-4.106" style="fill:context-stroke;fill-rule:evenodd;stroke:none" transform="scale(.7)"/></marker><marker id="j" markerHeight="1" markerWidth="1" orient="auto-start-reverse" preserveAspectRatio="xMidYMid" refX="0" refY="0" style="overflow:visible" viewBox="0 0 1 1"><path d="M-.211-4.106 6.21-.894a1 1 90 0 1 0 1.788L-.21 4.106A1.236 1.236 31.717 0 1-2 3v-6A1.236 1.236 148.283 0 1-.211-4.106" style="fill:context-stroke;fill-rule:evenodd;stroke:none" transform="scale(.7)"/></marker><marker id="k" markerHeight="1" markerWidth="1" orient="auto-start-reverse" preserveAspectRatio="xMidYMid" refX="0" refY="0" style="overflow:visible" viewBox="0 0 1 1"><path d="M-.211-4.106 6.21-.894a1 1 90 0 1 0 1.788L-.21 4.106A1.236 1.236 31.717 0 1-2 3v-6A1.236 1.236 148.283 0 1-.211-4.106" style="fill:context-stroke;fill-rule:evenodd;stroke:none" transform="scale(.7)"/></marker><marker id="l" markerHeight="1" markerWidth="1" orient="auto-start-reverse" preserveAspectRatio="xMidYMid" refX="0" refY="0" style="overflow:visible" viewBox="0 0 1 1"><path d="M-.211-4.106 6.21-.894a1 1 90 0 1 0 1.788L-.21 4.106A1.236 1.236 31.717 0 1-2 3v-6A1.236 1.236 148.283 0 1-.211-4.106" style="fill:context-stroke;fill-rule:evenodd;stroke:none" transform="scale(.7)"/></marker><marker id="m" markerHeight="1" markerWidth="1" orient="auto-start-reverse" preserveAspectRatio="xMidYMid" refX="0" refY="0" style="overflow:visible" viewBox="0 0 1 1"><path d="M-.211-4.106 6.21-.894a1 1 90 0 1 0 1.788L-.21 4.106A1.236 1.236 31.717 0 1-2 3v-6A1.236 1.236 148.283 0 1-.211-4.106" style="fill:context-stroke;fill-rule:evenodd;stroke:none" transform="scale(.7)"/></marker><marker id="n" markerHeight="1" markerWidth="1" orient="auto-start-reverse" preserveAspectRatio="xMidYMid" refX="0" refY="0" style="overflow:visible" viewBox="0 0 1 1"><path d="M-.211-4.106 6.21-.894a1 1 90 0 1 0 1.788L-.21 4.106A1.236 1.236 31.717 0 1-2 3v-6A1.236 1.236 148.283 0 1-.211-4.106" style="fill:context-stroke;fill-rule:evenodd;stroke:none" transform="scale(.7)"/></marker><marker id="G" markerHeight="1" markerWidth="1" orient="auto-start-reverse" preserveAspectRatio="xMidYMid" refX="0" refY="0" style="overflow:visible" viewBox="0 0 1 1"><path d="M-.211-4.106 6.21-.894a1 1 90 0 1 0 1.788L-.21 4.106A1.236 1.236 31.717 0 1-2 3v-6A1.236 1.236 148.283 0 1-.211-4.106" style="fill:context-stroke;fill-rule:evenodd;stroke:none" transform="scale(.7)"/></marker><marker id="I" markerHeight="1" markerWidth="1" orient="auto-start-reverse" preserveAspectRatio="xMidYMid" refX="0" refY="0" style="overflow:visible" viewBox="0 0 1 1"><path d="M-.211-4.106 6.21-.894a1 1 90 0 1 0 1.788L-.21 4.106A1.236 1.236 31.717 0 1-2 3v-6A1.236 1.236 148.283 0 1-.211-4.106" style="fill:context-stroke;fill-rule:evenodd;stroke:none" transform="scale(.7)"/></marker></defs><g transform="translate(-15.82 -793.468)"><path d="M15.952 793.6h128.609v139.433H15.952z" style="fill:#fff;fill-opacity:1;stroke:#fff;stroke-width:.264583;stroke-linejoin:bevel;stroke-opacity:1"/><path d="M62.09-856.586h41.182v4.025H62.09z" style="opacity:.8;fill:green;stroke:none;stroke-width:.26458" transform="scale(1 -1)"/><path d="M-366.217-785.592h47.617v3.276h-47.617z" style="opacity:.8;fill:green;stroke:none;stroke-width:.26474" transform="rotate(-31.39)scale(1 -.9988)skewX(2.81)"/><path d="M40.814 885.291h-9.672" style="fill:none;stroke:#ccc;stroke-width:.264583px;stroke-linecap:butt;stroke-linejoin:miter;stroke-opacity:1"/><circle cx="62.791" cy="839.188" r="41.864" style="fill:none;fill-opacity:.5;stroke:#e6e6e6;stroke-width:.264583;stroke-linejoin:bevel"/><path d="M913.225 52.994h14.709v.545h-14.709z" style="fill:#08a;stroke:#08a;stroke-width:.264583" transform="matrix(0 1 1 0 0 0)"/><path d="M52.994-927.934h1.575v.656h-1.575z" style="fill:#08a;stroke:#08a;stroke-width:.264582" transform="scale(1 -1)"/><path d="M913.225-72.09h14.709v.545h-14.709z" style="fill:#08a;stroke:#08a;stroke-width:.264583" transform="rotate(90)"/><path d="M-72.09-927.934h1.575v.656h-1.575z" style="fill:#08a;stroke:#08a;stroke-width:.264582" transform="scale(-1)"/><path d="M840.709 214.439h32.253v.55h-32.253z" style="fill:#08a;stroke:#08a;stroke-width:.264974" transform="matrix(-.17701 .9842 .96772 .25204 0 0)"/><path d="M872.328 90.966h32.253v.55h-32.253z" style="fill:#08a;stroke:#08a;stroke-width:.264974" transform="matrix(.17701 .9842 -.96772 .25204 0 0)"/><path d="M-883.836-76.914h10.005v1.549h-10.005z" style="fill:green;stroke:none;stroke-width:.264584" transform="rotate(90)scale(-1 1)"/><circle cx="62.538" cy="861.149" r="4.718" style="fill:green;fill-opacity:1;stroke:none;stroke-width:.264583;stroke-linejoin:bevel;stroke-opacity:1"/><circle cx="62.538" cy="861.149" r="3.124" style="fill:#d7f4d7;fill-opacity:1;stroke:none;stroke-width:.264583;stroke-linejoin:bevel;stroke-opacity:1"/><circle cx="62.538" cy="838.924" r="4.718" style="fill:green;fill-opacity:1;stroke:none;stroke-width:.264583;stroke-linejoin:bevel;stroke-opacity:1"/><circle cx="62.538" cy="838.924" r="3.124" style="fill:#7f2aff;fill-opacity:1;stroke:none;stroke-width:.264583;stroke-linejoin:bevel;stroke-opacity:1"/><path d="M-856.637-64.565h14.589v4.053h-14.589z" style="opacity:.8;fill:green;stroke:none;stroke-width:.264582" transform="rotate(90)scale(-1 1)"/><circle cx="62.538" cy="838.924" r="1.912" style="fill:#fff;fill-opacity:1;stroke:none;stroke-width:.264583;stroke-linejoin:bevel;stroke-opacity:1"/><path d="M-837.728-57.188h1.915v2.926h-1.915zM-837.728-70.815h1.915v2.926h-1.915zM-837.728-23.32h1.915v2.926h-1.915zM-837.728-105.198h1.915v2.926h-1.915z" style="fill:#9855ff;fill-opacity:.701961;stroke:none;stroke-width:.264582" transform="rotate(90)scale(-1 1)"/><path d="M-105.198 831.623h84.804v4.19h-84.804z" style="opacity:.7;fill:#95f;stroke:none;stroke-width:.264582" transform="scale(-1 1)"/><path d="M20.526 832.152v-14.909M105.066 832.152v-14.909" style="fill:none;stroke:#b3b3b3;stroke-width:.264582px;stroke-linecap:butt;stroke-linejoin:miter;stroke-opacity:1"/><path d="M105.198 835.946h9.902M105.198 837.86h9.902M59.546 838.924v-9.902M65.662 838.924v-9.902M57.953 838.924V823.54M67.388 838.924V823.54M62.791 839.056h61.075M62.538 861.28h68.425M64.792 849.809h76.451M76.914 873.964h64.33M76.914 883.704h64.33M66.381 881.48h70.17M72.223 912.96h64.328M72.223 927.934h64.328" style="fill:none;stroke:#b3b3b3;stroke-width:.264583px;stroke-linecap:butt;stroke-linejoin:miter;stroke-opacity:1"/><path d="M136.551 914.327v12.354" style="fill:none;stroke:#000;stroke-width:.264583px;stroke-linecap:butt;stroke-linejoin:miter;stroke-opacity:1;marker-start:url(#a);marker-end:url(#a)"/><path d="M136.551 882.65v29.053" style="fill:none;stroke:#000;stroke-width:.264583px;stroke-linecap:butt;stroke-linejoin:miter;stroke-opacity:1;marker-start:url(#b);marker-end:url(#b)"/><path d="M141.243 875.277v7.114" style="fill:none;stroke:#000;stroke-width:.264583px;stroke-linecap:butt;stroke-linejoin:miter;stroke-opacity:1;marker-start:url(#c);marker-end:url(#c)"/><path d="M141.243 851.122v21.502" style="fill:none;stroke:#000;stroke-width:.264583px;stroke-linecap:butt;stroke-linejoin:miter;stroke-opacity:1;marker-start:url(#d);marker-end:url(#d)"/><path d="M130.257 851.011v8.689" style="fill:none;stroke:#000;stroke-width:.264583px;stroke-linecap:butt;stroke-linejoin:miter;stroke-opacity:1;marker-start:url(#e);marker-end:url(#e)"/><path d="M60.874 829.022h3.593" style="fill:none;stroke:#000;stroke-width:.264583px;stroke-linecap:butt;stroke-linejoin:miter;stroke-opacity:1;marker-start:url(#f);marker-end:url(#f)"/><path d="M110.105 876.79v3.31" style="fill:none;stroke:#000;stroke-width:.264583px;stroke-linecap:butt;stroke-linejoin:miter;stroke-opacity:1;marker-end:url(#g)"/><path d="M109.993 888.327v-3.309" style="fill:none;stroke:#000;stroke-width:.264583px;stroke-linecap:butt;stroke-linejoin:miter;stroke-opacity:1;marker-end:url(#h)"/><path d="M122.698 840.362v19.747" style="fill:none;stroke:#000;stroke-width:.264585px;stroke-linecap:butt;stroke-linejoin:miter;stroke-opacity:1;marker-start:url(#i);marker-end:url(#i)"/><path d="M115.1 831.252v3.309" style="fill:none;stroke:#000;stroke-width:.264583px;stroke-linecap:butt;stroke-linejoin:miter;stroke-opacity:1;marker-end:url(#j)"/><path d="M115.1 842.555v-3.31" style="fill:none;stroke:#000;stroke-width:.264583px;stroke-linecap:butt;stroke-linejoin:miter;stroke-opacity:1;marker-end:url(#k)"/><path d="M59.162 823.54h6.812" style="fill:none;stroke:#000;stroke-width:.264582px;stroke-linecap:butt;stroke-linejoin:miter;stroke-opacity:1;marker-start:url(#l);marker-end:url(#l)"/><path d="M21.938 817.488h81.715" style="fill:none;stroke:#000;stroke-width:.264583px;stroke-linecap:butt;stroke-linejoin:miter;stroke-opacity:1;marker-start:url(#m);marker-end:url(#m)"/><path d="m62.538 838.924-25.61 54.175" style="fill:none;stroke:#ccc;stroke-width:.264583px;stroke-linecap:butt;stroke-linejoin:miter;stroke-opacity:1"/><path d="M32.266 886.761c.48 3.198 1.97 4.328 3.668 5.03" style="fill:none;stroke:#000;stroke-width:.264583px;stroke-linecap:butt;stroke-linejoin:miter;stroke-opacity:1;marker-start:url(#n);marker-end:url(#n)"/><text xml:space="preserve" style="font-size:14.6667px;line-height:1.25;font-family:sans-serif;white-space:pre;shape-inside:url(#o);display:inline" transform="translate(-15.734 316.803)scale(.26458)"><tspan x="170.189" y="2177.965">al</tspan></text><text xml:space="preserve" style="font-size:14.6667px;line-height:1.25;font-family:sans-serif;white-space:pre;shape-inside:url(#p);display:inline" transform="translate(60.576 300.79)scale(.26458)"><tspan x="262.625" y="2348.736">H1</tspan></text><text xml:space="preserve" style="font-size:14.6667px;line-height:1.25;font-family:sans-serif;white-space:pre;shape-inside:url(#q);display:inline" transform="translate(110.49 281.304)scale(.26458)"><tspan x="76.008" y="2333.699">H2</tspan></text><text xml:space="preserve" style="font-size:14.6667px;line-height:1.25;font-family:sans-serif;white-space:pre;shape-inside:url(#r);display:inline" transform="translate(50.94 251.223)scale(.26458)"><tspan x="214.086" y="2420.846">H3</tspan></text><text xml:space="preserve" style="font-size:14.6667px;line-height:1.25;font-family:sans-serif;white-space:pre;shape-inside:url(#s);display:inline" transform="translate(47.257 248.587)scale(.26458)"><tspan x="333.994" y="2385.955">H4</tspan></text><text xml:space="preserve" style="font-size:14.6667px;line-height:1.25;font-family:sans-serif;white-space:pre;shape-inside:url(#t);display:inline" transform="translate(36.308 245.822)scale(.26458)"><tspan x="373.645" y="2339.035">H5</tspan></text><text xml:space="preserve" style="font-size:14.6667px;line-height:1.25;font-family:sans-serif;white-space:pre;shape-inside:url(#u);display:inline" transform="translate(25.002 214.8)scale(.26458)"><tspan x="399.172" y="2427.309">H6</tspan></text><text xml:space="preserve" style="font-size:14.6667px;line-height:1.25;font-family:sans-serif;white-space:pre;shape-inside:url(#v);display:inline" transform="translate(88.97 221.692)scale(.26458)"><tspan x="129.168" y="2367.527">H7</tspan></text><text xml:space="preserve" style="font-size:14.6667px;line-height:1.25;font-family:sans-serif;white-space:pre;shape-inside:url(#w);display:inline" transform="translate(9.2 200.797)scale(.26458)"><tspan x="393.463" y="2380.182">H9</tspan></text><text xml:space="preserve" style="font-size:14.6667px;line-height:1.25;font-family:sans-serif;white-space:pre;shape-inside:url(#x);display:inline" transform="translate(38.986 201.358)scale(.26458)"><tspan x="82.582" y="2325.283">L2</tspan></text><text xml:space="preserve" style="font-size:14.6667px;line-height:1.25;font-family:sans-serif;white-space:pre;shape-inside:url(#y);display:inline" transform="translate(16.142 288.738)scale(.26458)"><tspan x="213.867" y="2374.721">D1</tspan></text><text xml:space="preserve" style="font-size:14.6667px;line-height:1.25;font-family:sans-serif;white-space:pre;shape-inside:url(#z);display:inline" transform="translate(-16.375 260.026)scale(.26458)"><tspan x="317.746" y="2362.566">D2</tspan></text><text xml:space="preserve" style="font-size:14.6667px;line-height:1.25;font-family:sans-serif;white-space:pre;shape-inside:url(#A);display:inline" transform="translate(36.18 262.99)scale(.26458)"><tspan x="152.281" y="2357.436">D3</tspan></text><text xml:space="preserve" style="font-size:14.6667px;line-height:1.25;font-family:sans-serif;white-space:pre;shape-inside:url(#B);display:inline" transform="translate(-21.31 230.075)scale(.26458)"><tspan x="285.498" y="2349.596">D4</tspan></text><text xml:space="preserve" style="font-size:14.6667px;line-height:1.25;font-family:sans-serif;white-space:pre;shape-inside:url(#C);display:inline" transform="translate(21.987 245.307)scale(.26458)"><tspan x="143.563" y="2357.527">D5</tspan></text><text xml:space="preserve" style="font-size:14.6667px;line-height:1.25;font-family:sans-serif;white-space:pre;shape-inside:url(#D);display:inline" transform="translate(-47.896 365.294)scale(.26458)"><tspan x="409.59" y="1748.5">D6</tspan></text><text xml:space="preserve" style="font-size:14.6667px;line-height:1.25;font-family:sans-serif;white-space:pre;shape-inside:url(#E);display:inline" transform="translate(-69.345 344.842)scale(.26458)"><tspan x="489.68" y="1807.127">D7</tspan></text><text xml:space="preserve" style="font-size:14.6667px;line-height:1.25;font-family:sans-serif;white-space:pre;shape-inside:url(#F);display:inline" transform="translate(-.855 307.821)scale(.26458)"><tspan x="206.742" y="2326.604">E1</tspan></text><circle cx="46.216" cy="878.815" r="2.013" style="fill:green;fill-opacity:1;stroke:none;stroke-width:.264583;stroke-linejoin:bevel;stroke-opacity:1"/><circle cx="46.216" cy="878.815" r="1.333" style="fill:#d7f4d7;fill-opacity:1;stroke:none;stroke-width:.264583;stroke-linejoin:bevel;stroke-opacity:1"/><circle cx="103.255" cy="854.573" r="2.013" style="fill:green;fill-opacity:1;stroke:none;stroke-width:.264583;stroke-linejoin:bevel;stroke-opacity:1"/><circle cx="103.255" cy="854.573" r="1.333" style="fill:#d7f4d7;fill-opacity:1;stroke:none;stroke-width:.264583;stroke-linejoin:bevel;stroke-opacity:1"/><path d="M44.554 880.98h18.245" style="fill:none;stroke:#ccc;stroke-width:.264583px;stroke-linecap:butt;stroke-linejoin:miter;stroke-opacity:1"/><path d="M-883.836-49.8h10.005v1.549h-10.005z" style="fill:green;stroke:none;stroke-width:.264584" transform="rotate(90)scale(-1 1)"/><path d="M106.765 853.798v1.5" style="fill:none;stroke:#000;stroke-width:.264583px;stroke-linecap:butt;stroke-linejoin:miter;stroke-opacity:1;marker-start:url(#G);marker-end:url(#G)"/><text xml:space="preserve" style="font-size:14.6667px;line-height:1.25;font-family:sans-serif;white-space:pre;shape-inside:url(#H);display:inline" transform="translate(-2.96 5.82)scale(.26458)"><tspan x="418.801" y="3213.148">S1</tspan></text><path d="M42.668 878.124v1.499" style="fill:none;stroke:#000;stroke-width:.264583px;stroke-linecap:butt;stroke-linejoin:miter;stroke-opacity:1;marker-start:url(#I);marker-end:url(#I)"/><text xml:space="preserve" style="font-size:14.6667px;line-height:1.25;font-family:sans-serif;white-space:pre;shape-inside:url(#J);display:inline" transform="translate(-74.042 30.012)scale(.26458)"><tspan x="418.801" y="3213.148">S1</tspan></text><path d="M-729.384-422.121h26.934v1.591h-26.934z" style="fill:green;stroke:none;stroke-width:.265152" transform="rotate(-64.57)scale(1 -.99572)skewX(5.28)"/><path d="M-793.754-308.644h26.934v1.591h-26.934z" style="fill:green;stroke:none;stroke-width:.265152" transform="rotate(-115.43)scale(1 .99572)skewX(5.28)"/></g></svg>