<svg xmlns="http://www.w3.org/2000/svg" width="458.775" height="280.446" viewBox="0 0 121.384 74.201"><defs><marker id="c" markerHeight="1" markerWidth="1" orient="auto-start-reverse" preserveAspectRatio="xMidYMid" refX="0" refY="0" style="overflow:visible" viewBox="0 0 1 1"><path d="M3-3 0 0l3 3" style="fill:none;stroke:context-stroke;stroke-width:1;stroke-linecap:butt" transform="rotate(180 .125 0)"/></marker><marker id="a" markerHeight="1" markerWidth="1" orient="auto-start-reverse" preserveAspectRatio="xMidYMid" refX="0" refY="0" style="overflow:visible" viewBox="0 0 1 1"><path d="M3-3 0 0l3 3" style="fill:none;stroke:context-stroke;stroke-width:1;stroke-linecap:butt" transform="rotate(180 .125 0)"/></marker><marker id="b" markerHeight="1" markerWidth="1" orient="auto-start-reverse" preserveAspectRatio="xMidYMid" refX="0" refY="0" style="overflow:visible" viewBox="0 0 1 1"><path d="M3-3 0 0l3 3" style="fill:none;stroke:context-stroke;stroke-width:1;stroke-linecap:butt" transform="rotate(180 .125 0)"/></marker><marker id="d" markerHeight="1" markerWidth="1" orient="auto-start-reverse" preserveAspectRatio="xMidYMid" refX="0" refY="0" style="overflow:visible" viewBox="0 0 1 1"><path d="M3-3 0 0l3 3" style="fill:none;stroke:context-stroke;stroke-width:1;stroke-linecap:butt" transform="rotate(180 .125 0)"/></marker><marker id="e" markerHeight="1" markerWidth="1" orient="auto-start-reverse" preserveAspectRatio="xMidYMid" refX="0" refY="0" style="overflow:visible" viewBox="0 0 1 1"><path d="M3-3 0 0l3 3" style="fill:none;stroke:context-stroke;stroke-width:1;stroke-linecap:butt" transform="rotate(180 .125 0)"/></marker><marker id="f" markerHeight="1" markerWidth="1" orient="auto-start-reverse" preserveAspectRatio="xMidYMid" refX="0" refY="0" style="overflow:visible" viewBox="0 0 1 1"><path d="M3-3 0 0l3 3" style="fill:none;stroke:context-stroke;stroke-width:1;stroke-linecap:butt" transform="rotate(180 .125 0)"/></marker><marker id="g" markerHeight="1" markerWidth="1" orient="auto-start-reverse" preserveAspectRatio="xMidYMid" refX="0" refY="0" style="overflow:visible" viewBox="0 0 1 1"><path d="M3-3 0 0l3 3" style="fill:none;stroke:context-stroke;stroke-width:1;stroke-linecap:butt" transform="rotate(180 .125 0)"/></marker><marker id="k" markerHeight="1" markerWidth="1" orient="auto-start-reverse" preserveAspectRatio="xMidYMid" refX="0" refY="0" style="overflow:visible" viewBox="0 0 1 1"><path d="M3-3 0 0l3 3" style="fill:none;stroke:context-stroke;stroke-width:1;stroke-linecap:butt" transform="rotate(180 .125 0)"/></marker><marker id="l" markerHeight="1" markerWidth="1" orient="auto-start-reverse" preserveAspectRatio="xMidYMid" refX="0" refY="0" style="overflow:visible" viewBox="0 0 1 1"><path d="M3-3 0 0l3 3" style="fill:none;stroke:context-stroke;stroke-width:1;stroke-linecap:butt" transform="rotate(180 .125 0)"/></marker><marker id="o" markerHeight="1" markerWidth="1" orient="auto-start-reverse" preserveAspectRatio="xMidYMid" refX="0" refY="0" style="overflow:visible" viewBox="0 0 1 1"><path d="M3-3 0 0l3 3" style="fill:none;stroke:context-stroke;stroke-width:1;stroke-linecap:butt" transform="rotate(180 .125 0)"/></marker><marker id="p" markerHeight="1" markerWidth="1" orient="auto-start-reverse" preserveAspectRatio="xMidYMid" refX="0" refY="0" style="overflow:visible" viewBox="0 0 1 1"><path d="M3-3 0 0l3 3" style="fill:none;stroke:context-stroke;stroke-width:1;stroke-linecap:butt" transform="rotate(180 .125 0)"/></marker><marker id="q" markerHeight="1" markerWidth="1" orient="auto-start-reverse" preserveAspectRatio="xMidYMid" refX="0" refY="0" style="overflow:visible" viewBox="0 0 1 1"><path d="M3-3 0 0l3 3" style="fill:none;stroke:context-stroke;stroke-width:1;stroke-linecap:butt" transform="rotate(180 .125 0)"/></marker><marker id="r" markerHeight="1" markerWidth="1" orient="auto-start-reverse" preserveAspectRatio="xMidYMid" refX="0" refY="0" style="overflow:visible" viewBox="0 0 1 1"><path d="M3-3 0 0l3 3" style="fill:none;stroke:context-stroke;stroke-width:1;stroke-linecap:butt" transform="rotate(180 .125 0)"/></marker><marker id="t" markerHeight="1" markerWidth="1" orient="auto-start-reverse" preserveAspectRatio="xMidYMid" refX="0" refY="0" style="overflow:visible" viewBox="0 0 1 1"><path d="M3-3 0 0l3 3" style="fill:none;stroke:context-stroke;stroke-width:1;stroke-linecap:butt" transform="rotate(180 .125 0)"/></marker><path id="h" d="M277.207 382.856h52.899v40.498h-52.899z"/><path id="i" d="M277.207 382.856h52.899v40.498h-52.899z"/><path id="j" d="M304.749 74.116h66.936v28.169h-66.936z"/><path id="m" d="M270.823 188.509h54.817v20.022h-54.817z"/><path id="n" d="M57.29 365.382h57.084v26.228H57.29z"/><path id="s" d="M270.823 188.509h54.817v20.022h-54.817z"/><path id="u" d="M68.428 2572.42h70.691v41.341H68.428z"/></defs><path d="M11.502 747.246h121.12v73.937H11.502z" style="fill:#fff;fill-opacity:1;stroke:#fff;stroke-width:.264583;stroke-linejoin:bevel" transform="translate(-11.37 -747.114)"/><path d="M69.083 777.815h5.372v2.608h-5.372z" style="fill:none;stroke:#000;stroke-width:.264583;stroke-linejoin:bevel" transform="translate(-11.37 -747.114)"/><path d="m36.479 812.357 8.67-22.549M39 813.327l8.67-22.55" style="fill:none;stroke:#b3b3b3;stroke-width:.264583px;stroke-linecap:butt;stroke-linejoin:miter;stroke-opacity:1" transform="translate(-11.37 -747.114)"/><path d="M48.523 816.838 39 813.327" style="fill:none;stroke:#00f;stroke-width:.264583px;stroke-linecap:butt;stroke-linejoin:miter;stroke-opacity:1;marker-end:url(#a)" transform="translate(-11.37 -747.114)"/><path d="m26.957 808.846 9.522 3.511" style="fill:none;stroke:#00f;stroke-width:.264583px;stroke-linecap:butt;stroke-linejoin:miter;stroke-opacity:1;marker-end:url(#b)" transform="translate(-11.37 -747.114)"/><path d="m53.817 767.259-8.669 22.55 2.522.969 3.981-10.355h17.432v-2.608h-16.43l3.687-9.586z" style="fill:#ececec;stroke:#000;stroke-width:.264583px;stroke-linecap:butt;stroke-linejoin:miter;stroke-opacity:1" transform="translate(-11.37 -747.114)"/><path d="M74.455 777.815h2.117v2.608h-2.117z" style="fill:#ececec;stroke:#1a1a1a;stroke-width:.264583;stroke-linejoin:bevel" transform="translate(-11.37 -747.114)"/><path d="M69.083 777.815v-21.573M74.455 777.683V756.11M71.769 802.128v-21.572" style="fill:none;stroke:#b3b3b3;stroke-width:.264583px;stroke-linecap:butt;stroke-linejoin:miter;stroke-opacity:1" transform="translate(-11.37 -747.114)"/><path d="M63.646 779.063H49.483" style="fill:none;stroke:#b3b3b3;stroke-width:.264583px;stroke-linecap:butt;stroke-linejoin:miter;stroke-dasharray:1,1;stroke-dashoffset:0;stroke-opacity:1" transform="translate(-11.37 -747.114)"/><path d="M76.572 792.432v-12.009" style="fill:none;stroke:#b3b3b3;stroke-width:.264583px;stroke-linecap:butt;stroke-linejoin:miter;stroke-opacity:1" transform="translate(-11.37 -747.114)"/><path d="M-104.698 777.815h5.372v2.608h-5.372z" style="fill:none;stroke:#000;stroke-width:.264583;stroke-linejoin:bevel" transform="matrix(-1 0 0 1 -11.37 -747.114)"/><path d="m119.963 767.259 8.67 22.55-2.523.969-3.98-10.355h-17.432v-2.608h16.429l-3.686-9.586z" style="fill:#ececec;stroke:#000;stroke-width:.264583px;stroke-linecap:butt;stroke-linejoin:miter;stroke-opacity:1" transform="translate(-11.37 -747.114)"/><path d="M-99.326 777.815h2.117v2.608h-2.117z" style="fill:#ececec;stroke:#1a1a1a;stroke-width:.264583;stroke-linejoin:bevel" transform="matrix(-1 0 0 1 -11.37 -747.114)"/><path d="M102.012 803.101v-22.545" style="fill:none;stroke:#b3b3b3;stroke-width:.264583px;stroke-linecap:butt;stroke-linejoin:miter;stroke-opacity:1" transform="translate(-11.37 -747.114)"/><path d="M124.292 779.15H110.13" style="fill:none;stroke:#b3b3b3;stroke-width:.264583px;stroke-linecap:butt;stroke-linejoin:miter;stroke-dasharray:1,1;stroke-dashoffset:0;stroke-opacity:1" transform="translate(-11.37 -747.114)"/><path d="M71.769 802.128h30.243" style="fill:none;stroke:#00f;stroke-width:.264583px;stroke-linecap:butt;stroke-linejoin:miter;stroke-opacity:1;marker-start:url(#c);marker-end:url(#b)" transform="translate(-11.37 -747.114)"/><path d="M72.058 792.432h4.532" style="fill:none;stroke:#00f;stroke-width:.264583px;stroke-linecap:butt;stroke-linejoin:miter;stroke-opacity:1;marker-start:url(#d);marker-end:url(#e)" transform="translate(-11.37 -747.114)"/><path d="M69.119 756.242h5.202" style="fill:none;stroke:#00f;stroke-width:.264583px;stroke-linecap:butt;stroke-linejoin:miter;stroke-opacity:1;marker-start:url(#f);marker-end:url(#g)" transform="translate(-11.37 -747.114)"/><text xml:space="preserve" style="font-size:14.6667px;line-height:1.25;font-family:sans-serif;white-space:pre;shape-inside:url(#h);display:inline" transform="translate(-2.663 -50.247)scale(.26458)"><tspan x="277.207" y="395.832">PHD1B</tspan></text><text xml:space="preserve" style="font-size:14.6667px;line-height:1.25;font-family:sans-serif;white-space:pre;shape-inside:url(#i);display:inline" transform="translate(-17.388 -97.608)scale(.26458)"><tspan x="277.207" y="395.832">PHD3B</tspan></text><text xml:space="preserve" style="font-size:14.6667px;line-height:1.25;font-family:sans-serif;white-space:pre;shape-inside:url(#j);display:inline" transform="translate(-19.611 26.355)scale(.26458)"><tspan x="304.75" y="87.092">PHR4B</tspan></text><path d="M84.128 780.556h-7.424M84.128 777.815h-7.424" style="fill:none;stroke:#b3b3b3;stroke-width:.264583px;stroke-linecap:butt;stroke-linejoin:miter;stroke-opacity:1" transform="translate(-11.37 -747.114)"/><path d="M84.128 777.815v2.722" style="fill:none;stroke:#00f;stroke-width:.264583px;stroke-linecap:butt;stroke-linejoin:miter;stroke-opacity:1;marker-start:url(#k);marker-end:url(#l)" transform="translate(-11.37 -747.114)"/><text xml:space="preserve" style="font-size:14.6667px;line-height:1.25;font-family:sans-serif;white-space:pre;shape-inside:url(#m);display:inline" transform="translate(-2.798 -23.393)scale(.26458)"><tspan x="270.824" y="201.484">PHE1B</tspan></text><text xml:space="preserve" style="font-size:14.6667px;line-height:1.25;font-family:sans-serif;white-space:pre;shape-inside:url(#n);display:inline" transform="translate(2.3 -29.129)scale(.26458)"><tspan x="57.289" y="378.359">E2</tspan></text><path d="M67.02 792.432h4.532" style="fill:none;stroke:#00f;stroke-width:.264583px;stroke-linecap:butt;stroke-linejoin:miter;stroke-opacity:1;marker-start:url(#o);marker-end:url(#p)" transform="translate(-11.37 -747.114)"/><path d="M66.897 792.987V780.29" style="fill:none;stroke:#b3b3b3;stroke-width:.264583px;stroke-linecap:butt;stroke-linejoin:miter;stroke-opacity:1" transform="translate(-11.37 -747.114)"/><path d="m47.67 790.778 19.031-10.355h-15.05ZM56.34 768.229l-3.686 9.586h14.243v-3.613l-10.557-5.973M117.441 768.229l3.686 9.586h-14.243v-3.613l10.557-5.973M126.11 790.778l-19.03-10.355h15.05Z" style="fill:none;stroke:#000;stroke-width:.264583px;stroke-linecap:butt;stroke-linejoin:miter;stroke-opacity:1" transform="translate(-11.37 -747.114)"/><path d="M106.884 774.202h-6.46" style="fill:none;stroke:#b3b3b3;stroke-width:.264583px;stroke-linecap:butt;stroke-linejoin:miter;stroke-opacity:1" transform="translate(-11.37 -747.114)"/><path d="M101.88 774.355v3.072" style="fill:none;stroke:#00f;stroke-width:.264583px;stroke-linecap:butt;stroke-linejoin:miter;stroke-opacity:1;marker-start:url(#q);marker-end:url(#r)" transform="translate(-11.37 -747.114)"/><text xml:space="preserve" style="font-size:14.6667px;line-height:1.25;font-family:sans-serif;white-space:pre;shape-inside:url(#s);display:inline" transform="translate(11.738 -26.982)scale(.26458)"><tspan x="270.824" y="201.484">PHH1B</tspan></text><path d="M27.793 767.259h26.024" style="fill:#ccc;stroke:#ccc;stroke-width:.264582px;stroke-linecap:butt;stroke-linejoin:miter;stroke-opacity:1" transform="translate(-11.37 -747.114)"/><path d="M27.793 789.628h17.124" style="fill:#ccc;stroke:#ccc;stroke-width:.264584px;stroke-linecap:butt;stroke-linejoin:miter;stroke-opacity:1" transform="translate(-11.37 -747.114)"/><path d="M27.793 789.492v-22.427" style="fill:none;stroke:#000;stroke-width:.264583;stroke-linecap:butt;stroke-linejoin:miter;stroke-opacity:1;marker-start:url(#t);marker-end:url(#t)" transform="translate(-11.37 -747.114)"/><text xml:space="preserve" style="font-size:14.6667px;line-height:1.25;font-family:sans-serif;white-space:pre;shape-inside:url(#u);display:inline" transform="translate(-14.844 -651.435)scale(.26458)"><tspan x="68.428" y="2585.396">PHL1B</tspan></text><path d="M27.793 778.94h20.682" style="fill:#ccc;stroke:#ccc;stroke-width:.264584px;stroke-linecap:butt;stroke-linejoin:miter;stroke-opacity:1" transform="translate(-11.37 -747.114)"/></svg>