<svg xmlns="http://www.w3.org/2000/svg" width="341.848" height="361.909" viewBox="0 0 90.447 95.755"><defs><marker id="n" markerHeight="1" markerWidth="1" orient="auto-start-reverse" preserveAspectRatio="xMidYMid" refX="0" refY="0" style="overflow:visible" viewBox="0 0 1 1"><path d="M3-3 0 0l3 3" style="fill:none;stroke:context-stroke;stroke-width:1;stroke-linecap:butt" transform="rotate(180 .125 0)"/></marker><marker id="a" markerHeight="1" markerWidth="1" orient="auto-start-reverse" preserveAspectRatio="xMidYMid" refX="0" refY="0" style="overflow:visible" viewBox="0 0 1 1"><path d="M-.211-4.106 6.21-.894a1 1 90 0 1 0 1.788L-.21 4.106A1.236 1.236 31.717 0 1-2 3v-6A1.236 1.236 148.283 0 1-.211-4.106" style="fill:context-stroke;fill-rule:evenodd;stroke:none" transform="scale(.7)"/></marker><marker id="b" markerHeight="1" markerWidth="1" orient="auto-start-reverse" preserveAspectRatio="xMidYMid" refX="0" refY="0" style="overflow:visible" viewBox="0 0 1 1"><path d="M-.211-4.106 6.21-.894a1 1 90 0 1 0 1.788L-.21 4.106A1.236 1.236 31.717 0 1-2 3v-6A1.236 1.236 148.283 0 1-.211-4.106" style="fill:context-stroke;fill-rule:evenodd;stroke:none" transform="scale(.7)"/></marker><marker id="c" markerHeight="1" markerWidth="1" orient="auto-start-reverse" preserveAspectRatio="xMidYMid" refX="0" refY="0" style="overflow:visible" viewBox="0 0 1 1"><path d="M-.211-4.106 6.21-.894a1 1 90 0 1 0 1.788L-.21 4.106A1.236 1.236 31.717 0 1-2 3v-6A1.236 1.236 148.283 0 1-.211-4.106" style="fill:context-stroke;fill-rule:evenodd;stroke:none" transform="scale(.7)"/></marker><marker id="d" markerHeight="1" markerWidth="1" orient="auto-start-reverse" preserveAspectRatio="xMidYMid" refX="0" refY="0" style="overflow:visible" viewBox="0 0 1 1"><path d="M-.211-4.106 6.21-.894a1 1 90 0 1 0 1.788L-.21 4.106A1.236 1.236 31.717 0 1-2 3v-6A1.236 1.236 148.283 0 1-.211-4.106" style="fill:context-stroke;fill-rule:evenodd;stroke:none" transform="scale(.7)"/></marker><marker id="j" markerHeight="1" markerWidth="1" orient="auto-start-reverse" preserveAspectRatio="xMidYMid" refX="0" refY="0" style="overflow:visible" viewBox="0 0 1 1"><path d="M-.211-4.106 6.21-.894a1 1 90 0 1 0 1.788L-.21 4.106A1.236 1.236 31.717 0 1-2 3v-6A1.236 1.236 148.283 0 1-.211-4.106" style="fill:context-stroke;fill-rule:evenodd;stroke:none" transform="scale(.7)"/></marker><marker id="k" markerHeight="1" markerWidth="1" orient="auto-start-reverse" preserveAspectRatio="xMidYMid" refX="0" refY="0" style="overflow:visible" viewBox="0 0 1 1"><path d="M-.211-4.106 6.21-.894a1 1 90 0 1 0 1.788L-.21 4.106A1.236 1.236 31.717 0 1-2 3v-6A1.236 1.236 148.283 0 1-.211-4.106" style="fill:context-stroke;fill-rule:evenodd;stroke:none" transform="scale(.7)"/></marker><marker id="l" markerHeight="1" markerWidth="1" orient="auto-start-reverse" preserveAspectRatio="xMidYMid" refX="0" refY="0" style="overflow:visible" viewBox="0 0 1 1"><path d="M-.211-4.106 6.21-.894a1 1 90 0 1 0 1.788L-.21 4.106A1.236 1.236 31.717 0 1-2 3v-6A1.236 1.236 148.283 0 1-.211-4.106" style="fill:context-stroke;fill-rule:evenodd;stroke:none" transform="scale(.7)"/></marker><marker id="o" markerHeight="1" markerWidth="1" orient="auto-start-reverse" preserveAspectRatio="xMidYMid" refX="0" refY="0" style="overflow:visible" viewBox="0 0 1 1"><path d="M3-3 0 0l3 3" style="fill:none;stroke:context-stroke;stroke-width:1;stroke-linecap:butt" transform="rotate(180 .125 0)"/></marker><marker id="r" markerHeight="1" markerWidth="1" orient="auto-start-reverse" preserveAspectRatio="xMidYMid" refX="0" refY="0" style="overflow:visible" viewBox="0 0 1 1"><path d="M3-3 0 0l3 3" style="fill:none;stroke:context-stroke;stroke-width:1;stroke-linecap:butt" transform="rotate(180 .125 0)"/></marker><marker id="t" markerHeight="1" markerWidth="1" orient="auto-start-reverse" preserveAspectRatio="xMidYMid" refX="0" refY="0" style="overflow:visible" viewBox="0 0 1 1"><path d="M3-3 0 0l3 3" style="fill:none;stroke:context-stroke;stroke-width:1;stroke-linecap:butt" transform="rotate(180 .125 0)"/></marker><marker id="v" markerHeight="1" markerWidth="1" orient="auto-start-reverse" preserveAspectRatio="xMidYMid" refX="0" refY="0" style="overflow:visible" viewBox="0 0 1 1"><path d="M3-3 0 0l3 3" style="fill:none;stroke:context-stroke;stroke-width:1;stroke-linecap:butt" transform="rotate(180 .125 0)"/></marker><marker id="x" markerHeight="1" markerWidth="1" orient="auto-start-reverse" preserveAspectRatio="xMidYMid" refX="0" refY="0" style="overflow:visible" viewBox="0 0 1 1"><path d="M3-3 0 0l3 3" style="fill:none;stroke:context-stroke;stroke-width:1;stroke-linecap:butt" transform="rotate(180 .125 0)"/></marker><path id="z" d="M359.56 2386.206h106.134v30.102H359.56z"/><path id="y" d="M101.669 2487.189h90.275v24.131h-90.275z"/><path id="s" d="M68.428 2572.42h70.691v41.341H68.428z"/><path id="p" d="M252.891 2613.455h71.313v30.114h-71.313z"/><path id="e" d="M348.786 275.767h64.579v35.919h-64.579z"/><path id="f" d="M348.786 275.767h64.579v35.919h-64.579z"/><path id="g" d="M359.141 358.886h76.62v27.985h-76.62z"/><path id="h" d="M407.767 207.254h46.965v45.65h-46.965z"/><path id="i" d="M433.159 296.914h48.267v45.717h-48.267z"/><path id="m" d="M411.64 305.323h71.023v39.36H411.64z"/><path id="q" d="M252.891 2613.455h71.313v30.114h-71.313z"/><path id="u" d="M68.428 2572.42h70.691v41.341H68.428z"/><path id="w" d="M68.428 2572.42h70.691v41.341H68.428z"/></defs><path d="M25.748 629.646h90.183v95.49H25.748z" style="fill:#fff;stroke:#fff;stroke-width:.264583;stroke-dasharray:none;stroke-dashoffset:0" transform="translate(-25.615 -629.514)"/><path d="M93.172 689.702h12.236M93.215 706.67h12.236" style="fill:#ccc;stroke:#ccc;stroke-width:.264583px;stroke-linecap:butt;stroke-linejoin:miter;stroke-opacity:1" transform="translate(-25.615 -629.514)"/><path d="M81.991 647.975h23.417" style="fill:#ccc;stroke:#ccc;stroke-width:.264582px;stroke-linecap:butt;stroke-linejoin:miter;stroke-opacity:1" transform="translate(-25.615 -629.514)"/><path d="M82.123 647.842v-12.236M67.378 647.975v-12.237M93.48 719.04v-12.236M56.154 719.04v-12.236" style="fill:#ccc;stroke:#ccc;stroke-width:.264583px;stroke-linecap:butt;stroke-linejoin:miter;stroke-opacity:1" transform="translate(-25.615 -629.514)"/><path d="M57.493 719.04h34.692" style="fill:none;stroke:#000;stroke-width:.264583px;stroke-linecap:butt;stroke-linejoin:miter;stroke-opacity:1;marker-start:url(#a);marker-end:url(#a)" transform="translate(-25.615 -629.514)"/><path d="M105.408 705.467v-14.562" style="fill:none;stroke:#000;stroke-width:.264583px;stroke-linecap:butt;stroke-linejoin:miter;stroke-opacity:1;marker-start:url(#b);marker-end:url(#b)" transform="translate(-25.615 -629.514)"/><path d="M105.408 688.21v-38.744" style="fill:none;stroke:#000;stroke-width:.264583px;stroke-linecap:butt;stroke-linejoin:miter;stroke-opacity:1;marker-start:url(#c);marker-end:url(#c)" transform="translate(-25.615 -629.514)"/><path d="M68.412 635.738H81.09" style="fill:none;stroke:#000;stroke-width:.264583px;stroke-linecap:butt;stroke-linejoin:miter;stroke-opacity:1;marker-start:url(#d);marker-end:url(#d)" transform="translate(-25.615 -629.514)"/><text xml:space="preserve" style="font-size:14.6667px;line-height:1.25;font-family:sans-serif;white-space:pre;shape-inside:url(#e);display:inline" transform="translate(-45.39 16.85)scale(.26458)"><tspan x="348.785" y="288.744">D1</tspan></text><text xml:space="preserve" style="font-size:14.6667px;line-height:1.25;font-family:sans-serif;white-space:pre;shape-inside:url(#f);display:inline" transform="translate(-45.557 7.507)scale(.26458)"><tspan x="348.785" y="288.744">D3</tspan></text><text xml:space="preserve" style="font-size:14.6667px;line-height:1.25;font-family:sans-serif;white-space:pre;shape-inside:url(#g);display:inline" transform="translate(-47.906 -92.931)scale(.26458)"><tspan x="359.141" y="371.863">D2</tspan></text><text xml:space="preserve" style="font-size:14.6667px;line-height:1.25;font-family:sans-serif;white-space:pre;shape-inside:url(#h);display:inline" transform="translate(-27.284 11.544)scale(.26458)"><tspan x="407.768" y="220.231">H1</tspan></text><text xml:space="preserve" style="font-size:14.6667px;line-height:1.25;font-family:sans-serif;white-space:pre;shape-inside:url(#i);display:inline" transform="translate(-33.558 -41.078)scale(.26458)"><tspan x="433.158" y="309.891">H2</tspan></text><path d="M64.174 713.968v-7.249M85.196 713.786v-7.249" style="fill:#ccc;stroke:#ccc;stroke-width:.264583px;stroke-linecap:butt;stroke-linejoin:miter;stroke-opacity:1" transform="translate(-25.615 -629.514)"/><path d="M65.29 713.968h19.098" style="fill:none;stroke:#000;stroke-width:.264583px;stroke-linecap:butt;stroke-linejoin:miter;stroke-opacity:1;marker-start:url(#j);marker-end:url(#j)" transform="translate(-25.615 -629.514)"/><path d="M63.043 694.369h-2.724" style="fill:none;stroke:#000;stroke-width:.264583px;stroke-linecap:butt;stroke-linejoin:miter;stroke-opacity:1;marker-end:url(#k)" transform="translate(-25.615 -629.514)"/><path d="M52.1 694.369h2.724" style="fill:none;stroke:#000;stroke-width:.264583px;stroke-linecap:butt;stroke-linejoin:miter;stroke-opacity:1;marker-end:url(#l)" transform="translate(-25.615 -629.514)"/><text xml:space="preserve" style="font-size:14.6667px;line-height:1.25;font-family:sans-serif;white-space:pre;shape-inside:url(#m);display:inline" transform="translate(-87.781 -18.366)scale(.26458)"><tspan x="411.641" y="318.301">E2</tspan></text><path d="M43.961 689.702h12.236" style="fill:#ccc;stroke:#ccc;stroke-width:.264583px;stroke-linecap:butt;stroke-linejoin:miter;stroke-opacity:1" transform="translate(-25.615 -629.514)"/><path d="M43.829 647.975h23.417" style="fill:#ccc;stroke:#ccc;stroke-width:.264582px;stroke-linecap:butt;stroke-linejoin:miter;stroke-opacity:1" transform="translate(-25.615 -629.514)"/><path d="M67.661 651.22h2.949v2.489h-2.949zM78.547 651.22h2.949v2.489h-2.949z" style="fill:#ccc;fill-opacity:1;stroke:#000;stroke-width:.264583;stroke-linejoin:bevel" transform="translate(-25.615 -629.514)"/><path d="M63.646 668.472h6.964v2.489h-6.964zM78.547 668.472h7.25v2.489h-7.25zM59.413 683.926h6.964v2.489h-6.964zM82.781 683.926h7.25v2.489h-7.25z" style="fill:#ccc;fill-opacity:1;stroke:#000;stroke-width:.264582;stroke-linejoin:bevel" transform="translate(-25.615 -629.514)"/><path d="M69.552 654.768v13.704M79.606 654.9v13.705M65.318 679.018v4.908M83.84 679.018v4.908" style="fill:none;stroke:#b3b3b3;stroke-width:.264583px;stroke-linecap:butt;stroke-linejoin:miter;stroke-opacity:1" transform="translate(-25.615 -629.514)"/><path d="M64.174 703.815h-5.312v-14.002l10.693-41.838h-2.177l-11.18 41.727-.044 16.968 8.02-.133zM85.196 703.815h5.311v-14.002l-10.693-41.838h2.177l11.18 41.727.044 16.968-8.02-.133z" style="fill:#ccc;stroke:#000;stroke-width:.264583px;stroke-linecap:butt;stroke-linejoin:miter;stroke-opacity:1" transform="translate(-25.615 -629.514)"/><path d="M69.573 661.62h10.355" style="fill:none;stroke:#000;stroke-width:.264583;stroke-linecap:butt;stroke-linejoin:miter;stroke-opacity:1;marker-start:url(#n);marker-end:url(#n)" transform="translate(-25.615 -629.514)"/><path d="M65.318 679.018H83.84" style="fill:none;stroke:#000;stroke-width:.264583;stroke-linecap:butt;stroke-linejoin:miter;stroke-opacity:1;marker-start:url(#o);marker-end:url(#o)" transform="translate(-25.615 -629.514)"/><text xml:space="preserve" style="font-size:14.6667px;line-height:1.25;font-family:sans-serif;white-space:pre;shape-inside:url(#p);display:inline" transform="translate(-25.18 -641.54)scale(.26458)"><tspan x="252.891" y="2626.432">PHD1A</tspan></text><text xml:space="preserve" style="font-size:14.6667px;line-height:1.25;font-family:sans-serif;white-space:pre;shape-inside:url(#q);display:inline" transform="translate(-24.244 -658.69)scale(.26458)"><tspan x="252.891" y="2626.432">PHD1B</tspan></text><path d="M43.961 685.171h22.416" style="fill:#ccc;stroke:#ccc;stroke-width:.264582px;stroke-linecap:butt;stroke-linejoin:miter;stroke-opacity:1" transform="translate(-25.615 -629.514)"/><path d="M43.961 689.47v-8.597" style="fill:none;stroke:#000;stroke-width:.264583;stroke-linecap:butt;stroke-linejoin:miter;stroke-opacity:1;marker-start:url(#r);marker-end:url(#r)" transform="translate(-25.615 -629.514)"/><path d="M43.961 680.873h15.105" style="fill:#ccc;stroke:#ccc;stroke-width:.264583px;stroke-linecap:butt;stroke-linejoin:miter;stroke-opacity:1" transform="translate(-25.615 -629.514)"/><text xml:space="preserve" style="font-size:14.6667px;line-height:1.25;font-family:sans-serif;white-space:pre;shape-inside:url(#s);display:inline" transform="translate(-14.363 -627.019)scale(.26458)"><tspan x="68.428" y="2585.396">PHL1A</tspan></text><path d="M48.327 657.149H65.45" style="fill:#ccc;stroke:#ccc;stroke-width:.264584px;stroke-linecap:butt;stroke-linejoin:miter;stroke-opacity:1" transform="translate(-25.615 -629.514)"/><path d="M48.327 652.597h22.415" style="fill:#ccc;stroke:#ccc;stroke-width:.264582px;stroke-linecap:butt;stroke-linejoin:miter;stroke-opacity:1" transform="translate(-25.615 -629.514)"/><path d="M48.327 656.895V648.3" style="fill:none;stroke:#000;stroke-width:.264583;stroke-linecap:butt;stroke-linejoin:miter;stroke-opacity:1;marker-start:url(#t);marker-end:url(#t)" transform="translate(-25.615 -629.514)"/><text xml:space="preserve" style="font-size:14.6667px;line-height:1.25;font-family:sans-serif;white-space:pre;shape-inside:url(#u);display:inline" transform="translate(-8.9 -659.688)scale(.26458)"><tspan x="68.428" y="2585.396">PHL1B</tspan></text><path d="M48.194 669.717H70.61" style="fill:#ccc;stroke:#ccc;stroke-width:.264582px;stroke-linecap:butt;stroke-linejoin:miter;stroke-opacity:1" transform="translate(-25.615 -629.514)"/><path d="M48.194 673.883v-8.597" style="fill:none;stroke:#000;stroke-width:.264583;stroke-linecap:butt;stroke-linejoin:miter;stroke-opacity:1;marker-start:url(#v);marker-end:url(#v)" transform="translate(-25.615 -629.514)"/><path d="M48.194 664.974h15.32" style="fill:#ccc;stroke:#ccc;stroke-width:.264582px;stroke-linecap:butt;stroke-linejoin:miter;stroke-opacity:1" transform="translate(-25.615 -629.514)"/><path d="M48.194 674.148h12.86" style="fill:#ccc;stroke:#ccc;stroke-width:.264584px;stroke-linecap:butt;stroke-linejoin:miter;stroke-opacity:1" transform="translate(-25.615 -629.514)"/><text xml:space="preserve" style="font-size:14.6667px;line-height:1.25;font-family:sans-serif;white-space:pre;shape-inside:url(#w);display:inline" transform="translate(-9.893 -642.568)scale(.26458)"><tspan x="68.428" y="2585.396">PHL1B</tspan></text><path d="M56.081 669.823v-16.936" style="fill:none;stroke:#000;stroke-width:.264583;stroke-linecap:butt;stroke-linejoin:miter;stroke-opacity:1;marker-start:url(#x);marker-end:url(#x)" transform="translate(-25.615 -629.514)"/><text xml:space="preserve" style="font-size:14.6667px;line-height:1.25;font-family:sans-serif;white-space:pre;shape-inside:url(#y);display:inline" transform="translate(-6.999 -628.582)scale(.26458)"><tspan x="101.668" y="2500.166">PHLB</tspan></text><text xml:space="preserve" style="font-size:14.6667px;line-height:1.25;font-family:sans-serif;white-space:pre;shape-inside:url(#z);fill:purple" transform="translate(-25.615 -629.514)scale(.26458)"><tspan x="359.561" y="2399.184">holders</tspan></text><path d="m80.076 652.606 14.952-16.973" style="fill:none;stroke:purple;stroke-width:.264583px;stroke-linecap:butt;stroke-linejoin:miter;stroke-opacity:1;marker-start:url(#n)" transform="translate(-25.615 -629.514)"/><path d="m83.916 669.73 12.542-33.674" style="fill:none;stroke:purple;stroke-width:.264583px;stroke-linecap:butt;stroke-linejoin:miter;stroke-opacity:1;marker-start:url(#n)" transform="translate(-25.615 -629.514)"/><path d="m87.858 685.012 9.731-48.48" style="fill:none;stroke:purple;stroke-width:.264583px;stroke-linecap:butt;stroke-linejoin:miter;stroke-opacity:1;marker-start:url(#n)" transform="translate(-25.615 -629.514)"/></svg>