<svg xmlns="http://www.w3.org/2000/svg" width="498.613" height="344.436" viewBox="0 0 131.925 91.132"><defs><path id="c" d="M481.211 718.845H600v73.231H481.211z"/><path id="e" d="M379.28 450.966h73.333v29.781H379.28z"/><path id="f" d="M469.47 530.86h70.958v43.212H469.47z"/><path id="g" d="M35.361 558.611h69.802v29.424H35.361z"/><path id="h" d="M47.38 682.816h61.03v30.421H47.38z"/><path id="i" d="M104.834 471.822h75.812v35.067h-75.812z"/><path id="j" d="M291.501 655.172h62.669v34.866h-62.669z"/><path id="k" d="M243.579 411.65h83.222v29.63h-83.222z"/><path id="l" d="M469.47 530.86h70.958v43.212H469.47z"/><marker id="d" markerHeight="1" markerWidth="1" orient="auto-start-reverse" preserveAspectRatio="xMidYMid" refX="0" refY="0" style="overflow:visible" viewBox="0 0 1 1"><path d="M3-3 0 0l3 3" style="fill:none;stroke:context-stroke;stroke-width:1;stroke-linecap:butt" transform="rotate(180 .125 0)"/></marker><marker id="a" markerHeight="1" markerWidth="1" orient="auto-start-reverse" preserveAspectRatio="xMidYMid" refX="0" refY="0" style="overflow:visible" viewBox="0 0 1 1"><path d="M3-3 0 0l3 3" style="fill:none;stroke:context-stroke;stroke-width:1;stroke-linecap:butt" transform="rotate(180 .125 0)"/></marker><marker id="b" markerHeight="1" markerWidth="1" orient="auto-start-reverse" preserveAspectRatio="xMidYMid" refX="0" refY="0" style="overflow:visible" viewBox="0 0 1 1"><path d="M3-3 0 0l3 3" style="fill:none;stroke:context-stroke;stroke-width:1;stroke-linecap:butt" transform="rotate(180 .125 0)"/></marker></defs><g transform="translate(-21.652 -840.034)"><path d="M21.785 840.166h131.66v90.867H21.785z" style="fill:#fff;stroke:#fff;stroke-width:.264583;stroke-linejoin:bevel;stroke-dasharray:none;stroke-dashoffset:0"/><circle cx="85.284" cy="889.802" r="37.504" style="fill:none;stroke:#000;stroke-width:.264584;stroke-linejoin:bevel;stroke-dasharray:none;stroke-dashoffset:0"/><circle cx="85.284" cy="889.773" r="28.434" style="fill:none;stroke:#e6e6e6;stroke-width:.264584;stroke-linejoin:bevel;stroke-dasharray:none;stroke-dashoffset:0"/><circle cx="85.284" cy="889.773" r="20.17" style="fill:none;stroke:#e6e6e6;stroke-width:.264584;stroke-linejoin:bevel;stroke-dasharray:none;stroke-dashoffset:0"/><circle cx="84.413" cy="869.88" r="2.652" style="fill:none;stroke:#000;stroke-width:.264583;stroke-linejoin:bevel;stroke-dasharray:none;stroke-dashoffset:0"/><circle cx="65.607" cy="890.311" r="2.652" style="fill:none;stroke:#000;stroke-width:.264583;stroke-linejoin:bevel;stroke-dasharray:none;stroke-dashoffset:0"/><circle cx="105.289" cy="889.171" r="2.652" style="fill:none;stroke:#000;stroke-width:.264583;stroke-linejoin:bevel;stroke-dasharray:none;stroke-dashoffset:0"/><circle cx="86.327" cy="909.748" r="2.652" style="fill:none;stroke:#000;stroke-width:.264583;stroke-linejoin:bevel;stroke-dasharray:none;stroke-dashoffset:0"/><circle cx="84.413" cy="869.747" r="4.208" style="fill:none;stroke:#e6e6e6;stroke-width:.264583;stroke-linejoin:bevel;stroke-dasharray:none;stroke-dashoffset:0"/><circle cx="65.475" cy="890.311" r="4.208" style="fill:none;stroke:#e6e6e6;stroke-width:.264583;stroke-linejoin:bevel;stroke-dasharray:none;stroke-dashoffset:0"/><circle cx="86.327" cy="909.748" r="4.208" style="fill:none;stroke:#e6e6e6;stroke-width:.264583;stroke-linejoin:bevel;stroke-dasharray:none;stroke-dashoffset:0"/><circle cx="105.141" cy="889.171" r="4.208" style="fill:none;stroke:#e6e6e6;stroke-width:.264583;stroke-linejoin:bevel;stroke-dasharray:none;stroke-dashoffset:0"/><path d="M95.266 916.42s-.919.361-1.397.335c-.475-.027-.94-.23-1.344-.484-.237-.149-.598-.59-.598-.59l-1.749-7.625s-.393-.789-.691-1.104c-.504-.532-1.112-1.004-1.796-1.266-.656-.25-1.4-.367-2.092-.243-.83.148-1.618.593-2.256 1.145-.257.221-.544.644-.783.991-.163.238-.443.744-.443.744l-.918 8.405s-.301.3-.48.414c-.293.186-.609.372-.952.425-.408.062-.829-.048-1.23-.143-.55-.132-1.595-.586-1.595-.586M111.872 879.948s.36.92.334 1.397c-.026.475-.23.941-.483 1.344-.15.237-.59.598-.59.598l-7.626 1.75s-.789.392-1.104.69c-.532.504-1.004 1.112-1.265 1.796-.251.656-.368 1.401-.244 2.092.148.83.593 1.619 1.145 2.257.221.256.645.543.991.782.238.164.744.444.744.444l8.405.917s.3.302.414.48c.186.294.372.609.425.953.063.407-.047.828-.143 1.23-.131.55-.586 1.594-.586 1.594M75.407 863.145s.919-.36 1.397-.334c.475.026.94.23 1.344.484.237.149.598.589.598.589l1.749 7.626s.393.789.692 1.104c.503.532 1.11 1.004 1.795 1.265.656.251 1.401.368 2.092.244.83-.148 1.618-.593 2.257-1.145.256-.221.543-.645.782-.991.163-.238.444-.744.444-.744l.917-8.405s.302-.3.48-.414c.293-.186.609-.372.952-.425.408-.063.829.047 1.23.143.55.131 1.595.586 1.595.586M58.51 899.445s-.36-.919-.334-1.397c.026-.475.23-.94.484-1.344.149-.236.589-.598.589-.598l7.626-1.749s.789-.393 1.104-.691c.532-.504 1.004-1.112 1.265-1.796.251-.656.368-1.4.244-2.092-.148-.83-.593-1.618-1.145-2.256-.221-.257-.645-.544-.991-.783-.238-.163-.744-.443-.744-.443l-8.405-.918s-.3-.301-.414-.48c-.186-.293-.372-.608-.425-.952-.063-.408.047-.828.143-1.23.131-.55.586-1.594.586-1.594" style="fill:none;stroke:#000;stroke-width:.264583px;stroke-linecap:butt;stroke-linejoin:miter;stroke-opacity:1"/><path d="M58.093 881.122s1.699-4.722 3.042-6.817c1.491-2.326 3.38-4.42 5.47-6.228 1.447-1.253 3.136-2.211 4.816-3.13 1.28-.7 3.986-1.802 3.986-1.802M93.73 862.728s2.912.948 4.283 1.62a28.3 28.3 0 0 1 4.492 2.747c1.109.83 2.109 1.8 3.081 2.785 1.38 1.398 2.83 2.774 3.896 4.425.596.924.933 1.993 1.36 3.007.366.87 1.03 2.636 1.03 2.636M58.51 899.445s1.135 2.72 1.847 4.007a30 30 0 0 0 2.396 3.666c.743.978 1.55 1.913 2.431 2.767.996.965 2.088 1.83 3.208 2.647 1.317.961 2.659 1.913 4.117 2.644 1.41.707 4.433 1.662 4.433 1.662M95.266 916.42s3.011-1.342 4.448-2.146c1.497-.839 3.025-1.67 4.33-2.785 1.535-1.312 2.844-2.89 4.03-4.525 1.11-1.532 2.054-3.19 2.852-4.904.567-1.216 1.363-3.788 1.363-3.788" style="fill:none;stroke:#000;stroke-width:.264583px;stroke-linecap:butt;stroke-linejoin:miter;stroke-opacity:1"/><circle cx="84.571" cy="890.327" r="33.507" style="fill:none;stroke:#000;stroke-width:.264584;stroke-linejoin:bevel;stroke-dasharray:none;stroke-dashoffset:0"/><path d="M109.655 887.503h8.403v3.336h-8.403zM51.251 888.643h9.752v3.336h-9.752z" style="fill:none;stroke:#000;stroke-width:.264583;stroke-linejoin:bevel;stroke-dasharray:none;stroke-dashoffset:0"/><path d="M914.22-87.995h9.513v3.336h-9.513z" style="fill:none;stroke:#000;stroke-width:.264583;stroke-linejoin:bevel;stroke-dasharray:none;stroke-dashoffset:0" transform="rotate(90)"/><path d="M-865.539 82.745h8.61v3.336h-8.61z" style="fill:none;stroke:#000;stroke-width:.264583;stroke-linejoin:bevel;stroke-dasharray:none;stroke-dashoffset:0" transform="rotate(-90)"/><path d="M118.058 887.503h18.111M118.058 890.839h18.111" style="fill:none;stroke:#ccc;stroke-width:.264583px;stroke-linecap:butt;stroke-linejoin:miter;stroke-opacity:1"/><path d="M136.17 887.503v3.251" style="fill:none;stroke:#00f;stroke-width:.264583px;stroke-linecap:butt;stroke-linejoin:miter;stroke-opacity:1;marker-start:url(#a);marker-end:url(#b)"/><text xml:space="preserve" style="font-size:14.6667px;line-height:1.25;font-family:sans-serif;white-space:pre;shape-inside:url(#c);display:inline" transform="translate(10.465 697.16)scale(.26458)"><tspan x="481.211" y="731.822">PHE3B</tspan></text><path d="m97.83 873.767 18.042-23.723" style="fill:none;stroke:#00f;stroke-width:.264583px;stroke-linecap:butt;stroke-linejoin:miter;stroke-opacity:1;marker-start:url(#d)"/><path d="m110.303 875.919 22.43-7.605" style="fill:none;stroke:#00f;stroke-width:.264583px;stroke-linecap:butt;stroke-linejoin:miter;stroke-opacity:1;marker-start:url(#d)"/><path d="m63.174 892.07-22.772 13.955" style="fill:none;stroke:#00f;stroke-width:.264583px;stroke-linecap:butt;stroke-linejoin:miter;stroke-opacity:1;marker-start:url(#d)"/><path d="m61.668 887.513-24.535-10.788" style="fill:#999;stroke:#00f;stroke-width:.264583px;stroke-linecap:butt;stroke-linejoin:miter;stroke-opacity:1;marker-start:url(#d)"/><text xml:space="preserve" style="font-size:14.6667px;line-height:1.25;font-family:sans-serif;white-space:pre;shape-inside:url(#e);display:inline" transform="translate(12.308 726.428)scale(.26458)"><tspan x="379.279" y="463.943">PHD1B</tspan></text><text xml:space="preserve" style="font-size:14.6667px;line-height:1.25;font-family:sans-serif;white-space:pre;shape-inside:url(#f);display:inline" transform="translate(5.418 723.366)scale(.26458)"><tspan x="469.471" y="543.836">PHD5B1</tspan></text><text xml:space="preserve" style="font-size:14.6667px;line-height:1.25;font-family:sans-serif;white-space:pre;shape-inside:url(#g);display:inline" transform="translate(14.862 727.038)scale(.26458)"><tspan x="35.361" y="571.588">PHR4B</tspan></text><text xml:space="preserve" style="font-size:14.6667px;line-height:1.25;font-family:sans-serif;white-space:pre;shape-inside:url(#h);display:inline" transform="translate(14.452 723.853)scale(.26458)"><tspan x="47.381" y="695.793">PHD3B</tspan></text><path d="m64.275 884.978-11.625-33.28 25.79 16.719" style="fill:none;stroke:#00f;stroke-width:.264583px;stroke-linecap:butt;stroke-linejoin:miter;stroke-opacity:1;marker-start:url(#d);marker-end:url(#d)"/><text xml:space="preserve" style="font-size:14.6667px;line-height:1.25;font-family:sans-serif;white-space:pre;shape-inside:url(#i);display:inline" transform="translate(15.869 722.353)scale(.26458)"><tspan x="104.834" y="484.799">PHN1AB</tspan></text><text xml:space="preserve" style="font-size:14.6667px;line-height:1.25;font-family:sans-serif;white-space:pre;shape-inside:url(#j);display:inline" transform="translate(10.058 724.34)scale(.26458)"><tspan x="291.502" y="668.148">PHR6B</tspan></text><path d="m100.045 899.336 10.93-3.864" style="fill:none;stroke:#00f;stroke-width:.264583px;stroke-linecap:butt;stroke-linejoin:miter;stroke-opacity:1;marker-end:url(#d)"/><path d="M78.709 862.631v-14.733M89.423 862.33v-14.733" style="fill:none;stroke:#ccc;stroke-width:.264583px;stroke-linecap:butt;stroke-linejoin:miter;stroke-opacity:1"/><path d="M78.659 847.946h10.688" style="fill:none;stroke:#00f;stroke-width:.264583px;stroke-linecap:butt;stroke-linejoin:miter;stroke-opacity:1;marker-start:url(#d);marker-end:url(#d)"/><text xml:space="preserve" style="font-size:14.6667px;line-height:1.25;font-family:sans-serif;white-space:pre;shape-inside:url(#k);display:inline" transform="translate(13.657 734.059)scale(.26458)"><tspan x="243.578" y="424.627">PHL2B</tspan></text><text xml:space="preserve" style="font-size:14.6667px;line-height:1.25;font-family:sans-serif;white-space:pre;shape-inside:url(#l);display:inline" transform="translate(5.17 719.47)scale(.26458)"><tspan x="469.471" y="543.836">PHD5B2</tspan></text></g></svg>