<svg xmlns="http://www.w3.org/2000/svg" width="479.188" height="435.874" viewBox="0 0 126.785 115.325"><defs><marker id="f" markerHeight="1" markerWidth="1" orient="auto-start-reverse" preserveAspectRatio="xMidYMid" refX="0" refY="0" style="overflow:visible" viewBox="0 0 1 1"><path d="M3-3 0 0l3 3" style="fill:none;stroke:context-stroke;stroke-width:1;stroke-linecap:butt" transform="rotate(180 .125 0)"/></marker><marker id="a" markerHeight="1" markerWidth="1" orient="auto-start-reverse" preserveAspectRatio="xMidYMid" refX="0" refY="0" style="overflow:visible" viewBox="0 0 1 1"><path d="M3-3 0 0l3 3" style="fill:none;stroke:context-stroke;stroke-width:1;stroke-linecap:butt" transform="rotate(180 .125 0)"/></marker><marker id="k" markerHeight="1" markerWidth="1" orient="auto-start-reverse" preserveAspectRatio="xMidYMid" refX="0" refY="0" style="overflow:visible" viewBox="0 0 1 1"><path d="M3-3 0 0l3 3" style="fill:none;stroke:context-stroke;stroke-width:1;stroke-linecap:butt" transform="rotate(180 .125 0)"/></marker><marker id="b" markerHeight="1" markerWidth="1" orient="auto-start-reverse" preserveAspectRatio="xMidYMid" refX="0" refY="0" style="overflow:visible" viewBox="0 0 1 1"><path d="M3-3 0 0l3 3" style="fill:none;stroke:context-stroke;stroke-width:1;stroke-linecap:butt" transform="rotate(180 .125 0)"/></marker><marker id="c" markerHeight="1" markerWidth="1" orient="auto-start-reverse" preserveAspectRatio="xMidYMid" refX="0" refY="0" style="overflow:visible" viewBox="0 0 1 1"><path d="M3-3 0 0l3 3" style="fill:none;stroke:context-stroke;stroke-width:1;stroke-linecap:butt" transform="rotate(180 .125 0)"/></marker><marker id="h" markerHeight="1" markerWidth="1" orient="auto-start-reverse" preserveAspectRatio="xMidYMid" refX="0" refY="0" style="overflow:visible" viewBox="0 0 1 1"><path d="M3-3 0 0l3 3" style="fill:none;stroke:context-stroke;stroke-width:1;stroke-linecap:butt" transform="rotate(180 .125 0)"/></marker><marker id="l" markerHeight="1" markerWidth="1" orient="auto-start-reverse" preserveAspectRatio="xMidYMid" refX="0" refY="0" style="overflow:visible" viewBox="0 0 1 1"><path d="M3-3 0 0l3 3" style="fill:none;stroke:context-stroke;stroke-width:1;stroke-linecap:butt" transform="rotate(180 .125 0)"/></marker><marker id="m" markerHeight="1" markerWidth="1" orient="auto-start-reverse" preserveAspectRatio="xMidYMid" refX="0" refY="0" style="overflow:visible" viewBox="0 0 1 1"><path d="M3-3 0 0l3 3" style="fill:none;stroke:context-stroke;stroke-width:1;stroke-linecap:butt" transform="rotate(180 .125 0)"/></marker><marker id="n" markerHeight="1" markerWidth="1" orient="auto-start-reverse" preserveAspectRatio="xMidYMid" refX="0" refY="0" style="overflow:visible" viewBox="0 0 1 1"><path d="M3-3 0 0l3 3" style="fill:none;stroke:context-stroke;stroke-width:1;stroke-linecap:butt" transform="rotate(180 .125 0)"/></marker><marker id="q" markerHeight="1" markerWidth="1" orient="auto-start-reverse" preserveAspectRatio="xMidYMid" refX="0" refY="0" style="overflow:visible" viewBox="0 0 1 1"><path d="M3-3 0 0l3 3" style="fill:none;stroke:context-stroke;stroke-width:1;stroke-linecap:butt" transform="rotate(180 .125 0)"/></marker><path id="r" d="M152.795 4373.049h26.301v20.961h-26.301z"/><path id="o" d="M169.49 4381.458h30.225v22.398H169.49z"/><path id="j" d="M438.816 4413.761h51.522v29.27h-51.522z"/><path id="i" d="M455.415 4292.794h63.11v39.55h-63.11z"/><path id="g" d="M542.979 4200.422h36.086v38.952h-36.086z"/><path id="e" d="M252.686 3973.114h65.001v34.145h-65.001z"/><path id="d" d="M507.132 4103.168h74.055v51.681h-74.055z"/><path id="p" d="M169.49 4381.458h30.225v22.398H169.49z"/></defs><g transform="translate(-22.87 -1059.43)"><path d="M23.003 1059.562h126.52v115.061H23.003z" style="fill:#fff;fill-opacity:1;stroke:#fff;stroke-width:.264583;stroke-linejoin:bevel;stroke-opacity:1"/><path d="M47.286 1090.323h55.646v50.984H47.286z" style="fill:#5fbcd3;fill-opacity:1;stroke:#5fbcd3;stroke-width:.264583;stroke-linejoin:bevel;stroke-opacity:1"/><path d="M-1118.461 27.965h5.292v94.288h-5.292z" style="opacity:.8;fill:#06f;stroke:none;stroke-width:.264583;stroke-linejoin:bevel" transform="rotate(-90)"/><path d="M75.11 1115.815v51.993" style="fill:none;stroke:#ccc;stroke-width:.264583px;stroke-linecap:butt;stroke-linejoin:miter;stroke-opacity:1"/><circle cx="60.954" cy="1118.99" r="8.137" style="fill:#00d400;fill-opacity:1;stroke:#00d400;stroke-width:.264582;stroke-linejoin:bevel;stroke-opacity:1"/><circle cx="60.954" cy="1118.99" r="6.779" style="fill:#d5ffd5;fill-opacity:1;stroke:#00d400;stroke-width:.264583;stroke-linejoin:bevel;stroke-opacity:1"/><path d="M61.213 1118.99v48.817" style="fill:none;stroke:#ccc;stroke-width:.264583px;stroke-linecap:butt;stroke-linejoin:miter;stroke-opacity:1"/><path d="M61.596 1167.807h26.91" style="fill:none;stroke:#000;stroke-width:.264584px;stroke-linecap:butt;stroke-linejoin:miter;stroke-opacity:1;marker-start:url(#a);marker-end:url(#a)"/><circle cx="88.63" cy="1118.99" r="8.137" style="fill:#00d400;fill-opacity:1;stroke:#00d400;stroke-width:.264582;stroke-linejoin:bevel;stroke-opacity:1"/><circle cx="88.63" cy="1118.99" r="6.779" style="fill:#d5ffd5;fill-opacity:1;stroke:#00d400;stroke-width:.264583;stroke-linejoin:bevel;stroke-opacity:1"/><path d="M88.89 1118.99v48.817M47.286 1076.344v13.847M102.932 1076.344v13.847" style="fill:none;stroke:#ccc;stroke-width:.264583px;stroke-linecap:butt;stroke-linejoin:miter;stroke-opacity:1"/><path d="M47.67 1080.049h54.878" style="fill:none;stroke:#000;stroke-width:.264582px;stroke-linecap:butt;stroke-linejoin:miter;stroke-opacity:1;marker-start:url(#b);marker-end:url(#b)"/><path d="M28.098 1067.213v45.956M122.12 1067.213v45.956" style="fill:none;stroke:#ccc;stroke-width:.264583px;stroke-linecap:butt;stroke-linejoin:miter;stroke-opacity:1"/><path d="M28.66 1067.213h93.207" style="fill:none;stroke:#000;stroke-width:.264582px;stroke-linecap:butt;stroke-linejoin:miter;stroke-opacity:1;marker-start:url(#c);marker-end:url(#c)"/><text xml:space="preserve" style="font-size:14.6667px;line-height:1.25;font-family:sans-serif;white-space:pre;shape-inside:url(#d);display:inline" transform="translate(-61.166 -10.514)scale(.26458)"><tspan x="507.133" y="4116.145">D1</tspan></text><text xml:space="preserve" style="font-size:14.6667px;line-height:1.25;font-family:sans-serif;white-space:pre;shape-inside:url(#e);display:inline" transform="translate(6.49 11.235)scale(.26458)"><tspan x="252.686" y="3986.09">L5</tspan></text><path d="M122.253 1113.301h19.668M122.253 1118.328h19.668" style="fill:none;stroke:#ccc;stroke-width:.264582px;stroke-linecap:butt;stroke-linejoin:miter;stroke-opacity:1"/><path d="M141.92 1113.65v4.313" style="fill:none;stroke:#000;stroke-width:.264583px;stroke-linecap:butt;stroke-linejoin:miter;stroke-opacity:1;marker-start:url(#f);marker-end:url(#f)"/><text xml:space="preserve" style="font-size:14.6667px;line-height:1.25;font-family:sans-serif;white-space:pre;shape-inside:url(#g);display:inline" transform="translate(-.41 1.905)scale(.26458)"><tspan x="542.979" y="4213.399">S1</tspan></text><path d="M75.241 1115.947h55.382M89.022 1119.122h41.6" style="fill:none;stroke:#ccc;stroke-width:.264583px;stroke-linecap:butt;stroke-linejoin:miter;stroke-opacity:1"/><path d="M130.623 1115.947v3.175" style="fill:none;stroke:#000;stroke-width:.264583px;stroke-linecap:butt;stroke-linejoin:miter;stroke-opacity:1;marker-start:url(#h);marker-end:url(#h)"/><text xml:space="preserve" style="font-size:14.6667px;line-height:1.25;font-family:sans-serif;white-space:pre;shape-inside:url(#i);display:inline" transform="translate(11.711 -20.712)scale(.26458)"><tspan x="455.414" y="4305.77">JH1</tspan></text><text xml:space="preserve" style="font-size:14.6667px;line-height:1.25;font-family:sans-serif;white-space:pre;shape-inside:url(#j);display:inline" transform="translate(-44.264 .283)scale(.26458)"><tspan x="438.816" y="4426.738">JL1</tspan></text><path d="M52.817 1118.99v32.333M69.223 1118.99v32.333M54.175 1118.99v32.333M67.733 1118.99v32.333" style="fill:none;stroke:#ccc;stroke-width:.264583px;stroke-linecap:butt;stroke-linejoin:miter;stroke-opacity:1"/><path d="M52.432 1151.323H48.98" style="fill:none;stroke:#000;stroke-width:.264583px;stroke-linecap:butt;stroke-linejoin:miter;stroke-opacity:1;marker-start:url(#k)"/><path d="M54.56 1151.323h3.451" style="fill:none;stroke:#000;stroke-width:.264583px;stroke-linecap:butt;stroke-linejoin:miter;stroke-opacity:1;marker-start:url(#l)"/><path d="M67.347 1151.323h-3.45" style="fill:none;stroke:#000;stroke-width:.264583px;stroke-linecap:butt;stroke-linejoin:miter;stroke-opacity:1;marker-start:url(#m)"/><path d="M69.476 1151.323h3.45" style="fill:none;stroke:#000;stroke-width:.264583px;stroke-linecap:butt;stroke-linejoin:miter;stroke-opacity:1;marker-start:url(#n)"/><text xml:space="preserve" style="font-size:14.6667px;line-height:1.25;font-family:sans-serif;white-space:pre;shape-inside:url(#o);display:inline" transform="translate(5.49 -6.966)scale(.26458)"><tspan x="169.49" y="4394.436">JE1</tspan></text><text xml:space="preserve" style="font-size:14.6667px;line-height:1.25;font-family:sans-serif;white-space:pre;shape-inside:url(#p);display:inline" transform="translate(20.515 -7.335)scale(.26458)"><tspan x="169.49" y="4394.436">JE1</tspan></text><path d="M52.942 1146.74h16.156" style="fill:none;stroke:#000;stroke-width:.264583px;stroke-linecap:butt;stroke-linejoin:miter;stroke-opacity:1;marker-start:url(#q);marker-end:url(#q)"/><text xml:space="preserve" style="font-size:14.6667px;line-height:1.25;font-family:sans-serif;white-space:pre;shape-inside:url(#r);display:inline" transform="translate(17.506 -14.79)scale(.26458)"><tspan x="152.795" y="4386.025">JD1</tspan></text></g></svg>