<svg xmlns="http://www.w3.org/2000/svg" width="459.895" height="449.703" viewBox="0 0 121.681 118.984"><defs><path id="C" d="M123.387 2986.068h47.809v26.848h-47.809z"/><path id="A" d="M230.38 3227.273h58.839v28.77H230.38z"/><path id="z" d="M240.74 3248.104h47.484v18.606H240.74z"/><path id="s" d="M203.072 3272.399h67.836v38.939h-67.836z"/><path id="o" d="M88.342 3251.589h43.731v20.335H88.342z"/><path id="n" d="M102.622 3250.315h34.41v17.373h-34.41z"/><path id="e" d="M98.764 3387.59h64.479v48.027H98.764z"/><path id="d" d="M203.513 3381.326h75.126v49.828h-75.126z"/><path id="b" d="M437.355 1313.514h49.128v36.038h-49.128z"/><path id="f" d="M492.413 1281.653h61.664v44.837h-61.664z"/><path id="g" d="M509.19 985.606h49.059v38.43H509.19z"/><path id="c" d="M509.19 985.606h49.059v38.43H509.19z"/><path id="h" d="M502.509 908.675h63.675v33.807h-63.675z"/><path id="i" d="M203.513 3381.326h75.126v49.828h-75.126z"/><path id="j" d="M175.914 3377.816h64.503v44.277h-64.503z"/><path id="k" d="M98.764 3387.59h64.479v48.027H98.764z"/><path id="p" d="M175.914 3377.816h64.503v44.277h-64.503z"/><path id="t" d="M203.072 3272.399h67.836v38.939h-67.836z"/><path id="v" d="M175.914 3377.816h64.503v44.277h-64.503z"/><marker id="a" markerHeight="1" markerWidth="1" orient="auto-start-reverse" preserveAspectRatio="xMidYMid" refX="0" refY="0" style="overflow:visible" viewBox="0 0 1 1"><path d="M3-3 0 0l3 3" style="fill:none;stroke:context-stroke;stroke-width:1;stroke-linecap:butt" transform="rotate(180 .125 0)"/></marker><marker id="l" markerHeight="1" markerWidth="1" orient="auto-start-reverse" preserveAspectRatio="xMidYMid" refX="0" refY="0" style="overflow:visible" viewBox="0 0 1 1"><path d="M3-3 0 0l3 3" style="fill:none;stroke:context-stroke;stroke-width:1;stroke-linecap:butt" transform="rotate(180 .125 0)"/></marker><marker id="m" markerHeight="1" markerWidth="1" orient="auto-start-reverse" preserveAspectRatio="xMidYMid" refX="0" refY="0" style="overflow:visible" viewBox="0 0 1 1"><path d="M3-3 0 0l3 3" style="fill:none;stroke:context-stroke;stroke-width:1;stroke-linecap:butt" transform="rotate(180 .125 0)"/></marker><marker id="q" markerHeight="1" markerWidth="1" orient="auto-start-reverse" preserveAspectRatio="xMidYMid" refX="0" refY="0" style="overflow:visible" viewBox="0 0 1 1"><path d="M3-3 0 0l3 3" style="fill:none;stroke:context-stroke;stroke-width:1;stroke-linecap:butt" transform="rotate(180 .125 0)"/></marker><marker id="r" markerHeight="1" markerWidth="1" orient="auto-start-reverse" preserveAspectRatio="xMidYMid" refX="0" refY="0" style="overflow:visible" viewBox="0 0 1 1"><path d="M3-3 0 0l3 3" style="fill:none;stroke:context-stroke;stroke-width:1;stroke-linecap:butt" transform="rotate(180 .125 0)"/></marker><marker id="u" markerHeight="1" markerWidth="1" orient="auto-start-reverse" preserveAspectRatio="xMidYMid" refX="0" refY="0" style="overflow:visible" viewBox="0 0 1 1"><path d="M3-3 0 0l3 3" style="fill:none;stroke:context-stroke;stroke-width:1;stroke-linecap:butt" transform="rotate(180 .125 0)"/></marker><marker id="w" markerHeight="1" markerWidth="1" orient="auto-start-reverse" preserveAspectRatio="xMidYMid" refX="0" refY="0" style="overflow:visible" viewBox="0 0 1 1"><path d="M3-3 0 0l3 3" style="fill:none;stroke:context-stroke;stroke-width:1;stroke-linecap:butt" transform="rotate(180 .125 0)"/></marker><marker id="x" markerHeight="1" markerWidth="1" orient="auto-start-reverse" preserveAspectRatio="xMidYMid" refX="0" refY="0" style="overflow:visible" viewBox="0 0 1 1"><path d="M3-3 0 0l3 3" style="fill:none;stroke:context-stroke;stroke-width:1;stroke-linecap:butt" transform="rotate(180 .125 0)"/></marker><marker id="y" markerHeight="1" markerWidth="1" orient="auto-start-reverse" preserveAspectRatio="xMidYMid" refX="0" refY="0" style="overflow:visible" viewBox="0 0 1 1"><path d="M3-3 0 0l3 3" style="fill:none;stroke:context-stroke;stroke-width:1;stroke-linecap:butt" transform="rotate(180 .125 0)"/></marker><marker id="B" markerHeight="1" markerWidth="1" orient="auto-start-reverse" preserveAspectRatio="xMidYMid" refX="0" refY="0" style="overflow:visible" viewBox="0 0 1 1"><path d="M3-3 0 0l3 3" style="fill:none;stroke:context-stroke;stroke-width:1;stroke-linecap:butt" transform="rotate(180 .125 0)"/></marker></defs><g transform="translate(-13.06 -757.52)"><path d="M13.193 757.652h121.416v118.719H13.193z" style="fill:#fff;fill-opacity:1;stroke:#fff;stroke-width:.264583;stroke-opacity:1"/><path d="M34.693 841.947h10.874v12.621H34.693z" style="fill:#00d400;fill-opacity:1;stroke:#00d400;stroke-width:.264583;stroke-linejoin:bevel;stroke-opacity:1"/><path d="m59.78 796.02-14.213 39.693v21.5h43.71v-21.5L75.063 796.02H59.78" style="fill:#d5f6ff;stroke:#d5f6ff;stroke-width:.264583px;stroke-linecap:butt;stroke-linejoin:miter;stroke-opacity:1"/><path d="M45.567 835.713h3.34v21.501h-3.34z" style="fill:#5fbcd3;stroke:#5fbcd3;stroke-width:.264582"/><path d="M-851.882 49.172h3.34v9.349h-3.34z" style="fill:#5fbcd3;stroke:#5fbcd3;stroke-width:.264583" transform="rotate(-90)"/><path d="M324.621 729.276h3.34v42.16h-3.34z" style="fill:#5fbcd3;stroke:#5fbcd3;stroke-width:.264582" transform="rotate(19.7)"/><path d="M-89.276 835.713h3.34v21.501h-3.34z" style="fill:#5fbcd3;stroke:#5fbcd3;stroke-width:.264582" transform="scale(-1 1)"/><path d="M-851.882-85.672h3.34v9.349h-3.34z" style="fill:#5fbcd3;stroke:#5fbcd3;stroke-width:.264583" transform="rotate(90)scale(-1 1)"/><path d="M197.671 774.732h3.34v42.16h-3.34z" style="fill:#5fbcd3;stroke:#5fbcd3;stroke-width:.264582" transform="rotate(160.3)scale(1 -1)"/><circle cx="67.422" cy="786.435" r="4.196" style="fill:#b380ff;fill-opacity:1;stroke:#b380ff;stroke-width:.264582;stroke-opacity:1"/><circle cx="67.422" cy="786.435" r="2.918" style="fill:#e5d5ff;fill-opacity:1;stroke:#b380ff;stroke-width:.264582;stroke-opacity:1"/><path d="M63.677 788.33s.383.832.694 1.156c.316.327.722.573 1.142.747.6.248 1.259.403 1.909.399.607-.004 1.214-.173 1.78-.396.457-.181.924-.401 1.27-.75.372-.376.796-1.372.796-1.372l1.366.685.525 13.85-11.498.18.64-13.847z" style="fill:#217867;fill-opacity:.8;stroke:none;stroke-width:.264583px;stroke-linecap:butt;stroke-linejoin:miter;stroke-opacity:1"/><circle cx="67.422" cy="805.323" r="6.169" style="fill:#5fbcd3;fill-opacity:1;stroke:#5fbcd3;stroke-width:.264582;stroke-opacity:1"/><circle cx="67.422" cy="805.323" r="4.29" style="fill:#d5f6ff;fill-opacity:1;stroke:#5fbcd3;stroke-width:.264582;stroke-opacity:1"/><path d="M95.534 857.346H89.41M103.177 835.448H89.409" style="fill:#ccc;stroke:#ccc;stroke-width:.264584px;stroke-linecap:butt;stroke-linejoin:miter;stroke-opacity:1"/><path d="M94.75 835.741v21.211" style="fill:none;stroke:#000;stroke-width:.264581px;stroke-linecap:butt;stroke-linejoin:miter;stroke-opacity:1;marker-start:url(#a);marker-end:url(#a)"/><text xml:space="preserve" style="font-size:14.6667px;line-height:1.25;font-family:sans-serif;white-space:pre;shape-inside:url(#b);display:inline" transform="translate(-20.189 496.794)scale(.26458)"><tspan x="437.355" y="1326.49">H1</tspan></text><path d="M104.746 805.455H67.422M67.422 799.154h-37.42M67.422 811.492H30.657" style="fill:#ccc;stroke:#ccc;stroke-width:.264582px;stroke-linecap:butt;stroke-linejoin:miter;stroke-opacity:1"/><path d="M30.657 799.329v11.807" style="fill:none;stroke:#000;stroke-width:.264581px;stroke-linecap:butt;stroke-linejoin:miter;stroke-opacity:1;marker-start:url(#a);marker-end:url(#a)"/><text xml:space="preserve" style="font-size:14.6667px;line-height:1.25;font-family:sans-serif;white-space:pre;shape-inside:url(#c);display:inline" transform="translate(-103.662 542.439)scale(.26458)"><tspan x="509.189" y="998.582">D4</tspan></text><path d="M104.746 786.303H67.422" style="fill:#ccc;stroke:#ccc;stroke-width:.264583px;stroke-linecap:butt;stroke-linejoin:miter;stroke-opacity:1"/><circle cx="67.422" cy="786.435" r="5.721" style="fill:none;stroke:#b3b3b3;stroke-width:.264584;stroke-linejoin:bevel"/><text xml:space="preserve" style="font-size:14.6667px;line-height:1.25;font-family:sans-serif;white-space:pre;shape-inside:url(#d);display:inline" transform="translate(-15.672 -56.003)scale(.26458)"><tspan x="203.514" y="3394.303">E7</tspan></text><text xml:space="preserve" style="font-size:14.6667px;line-height:1.25;font-family:sans-serif;white-space:pre;shape-inside:url(#e);display:inline" transform="translate(-.256 -82.048)scale(.26458)"><tspan x="98.764" y="3400.566">S2</tspan></text><path d="M67.422 786.303h-42.86" style="fill:#ccc;stroke:#ccc;stroke-width:.264582px;stroke-linecap:butt;stroke-linejoin:miter;stroke-opacity:1"/><path d="M25.347 786.692v58.13" style="fill:none;stroke:#000;stroke-width:.26458px;stroke-linecap:butt;stroke-linejoin:miter;stroke-opacity:1;marker-start:url(#a);marker-end:url(#a)"/><path d="M793.73-126.47h5.292v59.049h-5.292z" style="opacity:.8;fill:#06f;stroke:none;stroke-width:.264583;stroke-linejoin:bevel" transform="rotate(90)"/><path d="M96.804 796.153h-21.74" style="fill:#ccc;stroke:#ccc;stroke-width:.264582px;stroke-linecap:butt;stroke-linejoin:miter;stroke-opacity:1"/><text xml:space="preserve" style="font-size:14.6667px;line-height:1.25;font-family:sans-serif;white-space:pre;shape-inside:url(#f);display:inline" transform="translate(-34.769 474.63)scale(.26458)"><tspan x="492.414" y="1294.629">H2</tspan></text><path d="M81.961 796.61v8.581" style="fill:none;stroke:#000;stroke-width:.264581px;stroke-linecap:butt;stroke-linejoin:miter;stroke-opacity:1;marker-start:url(#a);marker-end:url(#a)"/><text xml:space="preserve" style="font-size:14.6667px;line-height:1.25;font-family:sans-serif;white-space:pre;shape-inside:url(#g);display:inline" transform="translate(-52.358 538.105)scale(.26458)"><tspan x="509.189" y="998.582">H4</tspan></text><path d="M103.961 786.452v18.609" style="fill:none;stroke:#000;stroke-width:.264581px;stroke-linecap:butt;stroke-linejoin:miter;stroke-opacity:1;marker-start:url(#a);marker-end:url(#a)"/><text xml:space="preserve" style="font-size:14.6667px;line-height:1.25;font-family:sans-serif;white-space:pre;shape-inside:url(#h);display:inline" transform="translate(-28.43 553.199)scale(.26458)"><tspan x="502.51" y="921.652">H5</tspan></text><path d="M94.75 796.689v38.333" style="fill:none;stroke:#000;stroke-width:.26458px;stroke-linecap:butt;stroke-linejoin:miter;stroke-opacity:1;marker-start:url(#a);marker-end:url(#a)"/><text xml:space="preserve" style="font-size:14.6667px;line-height:1.25;font-family:sans-serif;white-space:pre;shape-inside:url(#i);display:inline" transform="translate(65.06 -105.577)scale(.26458)"><tspan x="203.514" y="3394.303">E7</tspan></text><text xml:space="preserve" style="font-size:14.6667px;line-height:1.25;font-family:sans-serif;white-space:pre;shape-inside:url(#j);display:inline" transform="translate(81.968 -94.473)scale(.26458)"><tspan x="175.914" y="3390.793">S1</tspan></text><path d="M130.081 794.01v4.483" style="fill:none;stroke:#000;stroke-width:.264581px;stroke-linecap:butt;stroke-linejoin:miter;stroke-opacity:1;marker-start:url(#a);marker-end:url(#a)"/><path d="M67.554 773.34v13.095" style="fill:#ccc;stroke:#ccc;stroke-width:.264584px;stroke-linecap:butt;stroke-linejoin:miter;stroke-opacity:1"/><path d="M129.037 773.34v23.09" style="fill:#ccc;stroke:#ccc;stroke-width:.264583px;stroke-linecap:butt;stroke-linejoin:miter;stroke-opacity:1"/><path d="M128.646 773.34H67.68" style="fill:none;stroke:#000;stroke-width:.264581px;stroke-linecap:butt;stroke-linejoin:miter;stroke-opacity:1;marker-start:url(#a);marker-end:url(#a)"/><text xml:space="preserve" style="font-size:14.6667px;line-height:1.25;font-family:sans-serif;white-space:pre;shape-inside:url(#k);display:inline" transform="translate(71.818 -127.233)scale(.26458)"><tspan x="98.764" y="3400.566">S2</tspan></text><circle cx="126.402" cy="796.413" r="2.646" style="opacity:1;fill:#06f;fill-opacity:1;stroke:none;stroke-width:.264583;stroke-linejoin:bevel"/><circle cx="126.402" cy="796.413" r="1.725" style="fill:#fff;fill-opacity:1;stroke:none;stroke-width:.264583;stroke-linejoin:bevel"/><circle cx="40.717" cy="845.081" r="2.646" style="fill:#06f;fill-opacity:1;stroke:none;stroke-width:.264583;stroke-linejoin:bevel"/><circle cx="40.717" cy="845.081" r="1.725" style="fill:#fff;fill-opacity:1;stroke:none;stroke-width:.264583;stroke-linejoin:bevel"/><path d="M40.717 845.213h-15.37M34.56 848.39h-9.04" style="fill:#ccc;stroke:#ccc;stroke-width:.264582px;stroke-linecap:butt;stroke-linejoin:miter;stroke-opacity:1"/><path d="M25.347 848.042v-2.481" style="fill:none;stroke:#000;stroke-width:.26458px;stroke-linecap:butt;stroke-linejoin:miter;stroke-opacity:1;marker-start:url(#l);marker-end:url(#l)"/><path d="M34.56 841.947H21.72M34.56 854.568H21.72" style="fill:#ccc;stroke:#ccc;stroke-width:.264582px;stroke-linecap:butt;stroke-linejoin:miter;stroke-opacity:1"/><path d="M21.72 854.151v-11.8" style="fill:none;stroke:#000;stroke-width:.26458px;stroke-linecap:butt;stroke-linejoin:miter;stroke-opacity:1;marker-start:url(#m);marker-end:url(#m)"/><text xml:space="preserve" style="font-size:14.6667px;line-height:1.25;font-family:sans-serif;white-space:pre;shape-inside:url(#n);display:inline" transform="translate(-12.288 -13.792)scale(.26458)"><tspan x="102.623" y="3263.291">JD1</tspan></text><text xml:space="preserve" style="font-size:14.6667px;line-height:1.25;font-family:sans-serif;white-space:pre;shape-inside:url(#o);display:inline" transform="translate(3.235 -15.466)scale(.26458)"><tspan x="88.342" y="3264.564">JH1</tspan></text><path d="M40.707 845.213v16.593" style="fill:#ccc;stroke:#ccc;stroke-width:.264582px;stroke-linecap:butt;stroke-linejoin:miter;stroke-opacity:1"/><text xml:space="preserve" style="font-size:14.6667px;line-height:1.25;font-family:sans-serif;white-space:pre;shape-inside:url(#p);display:inline" transform="translate(-8.661 -43.762)scale(.26458)"><tspan x="175.914" y="3390.793">S1</tspan></text><path d="M38.262 848.785h4.91" style="fill:none;stroke:#000;stroke-width:.26458px;stroke-linecap:butt;stroke-linejoin:miter;stroke-opacity:1;marker-start:url(#a);marker-end:url(#a)"/><path d="M45.567 857.706v11.547" style="fill:#ccc;stroke:#ccc;stroke-width:.264582px;stroke-linecap:butt;stroke-linejoin:miter;stroke-opacity:1"/><path d="M40.95 861.806h4.516" style="fill:none;stroke:#000;stroke-width:.26458px;stroke-linecap:butt;stroke-linejoin:miter;stroke-opacity:1;marker-start:url(#q);marker-end:url(#q)"/><path d="M34.693 854.7v14.553" style="fill:#ccc;stroke:#ccc;stroke-width:.264582px;stroke-linecap:butt;stroke-linejoin:miter;stroke-opacity:1"/><path d="M35.162 869.253h10.271" style="fill:none;stroke:#000;stroke-width:.264579px;stroke-linecap:butt;stroke-linejoin:miter;stroke-opacity:1;marker-start:url(#r);marker-end:url(#r)"/><text xml:space="preserve" style="font-size:14.6667px;line-height:1.25;font-family:sans-serif;white-space:pre;shape-inside:url(#s);display:inline" transform="translate(-13.482 -3.479)scale(.26458)"><tspan x="203.072" y="3285.375">JS1</tspan></text><text xml:space="preserve" style="font-size:14.6667px;line-height:1.25;font-family:sans-serif;white-space:pre;shape-inside:url(#t);display:inline" transform="translate(-16.442 3.796)scale(.26458)"><tspan x="203.072" y="3285.375">JS2</tspan></text><path d="M103.177 831.156v3.92" style="fill:none;stroke:#000;stroke-width:.264581px;stroke-linecap:butt;stroke-linejoin:miter;stroke-opacity:1;marker-start:url(#u);marker-end:url(#u)"/><text xml:space="preserve" style="font-size:14.6667px;line-height:1.25;font-family:sans-serif;white-space:pre;shape-inside:url(#v);display:inline" transform="translate(57.839 -62.767)scale(.26458)"><tspan x="175.914" y="3390.793">S3</tspan></text><circle cx="67.243" cy="830.804" r="8.137" style="fill:#00d400;fill-opacity:1;stroke:#00d400;stroke-width:.264582;stroke-linejoin:bevel;stroke-opacity:1"/><circle cx="67.243" cy="830.804" r="6.779" style="fill:#d5ffd5;fill-opacity:1;stroke:#00d400;stroke-width:.264583;stroke-linejoin:bevel;stroke-opacity:1"/><path d="M-820.322 66.272h9.094v2.3h-9.094z" style="fill:#afdde9;stroke:#afdde9;stroke-width:.264584" transform="rotate(-90)"/><path d="M748.246 312.759h5.8v68.448h-5.8z" style="opacity:.4;fill:#06f;stroke:none;stroke-width:.264627;stroke-linejoin:bevel" transform="matrix(.52745 .84958 -.86292 .50534 0 0)"/><path d="M103.177 830.804H67.243" style="fill:#ccc;stroke:#ccc;stroke-width:.264584px;stroke-linecap:butt;stroke-linejoin:miter;stroke-opacity:1"/><path d="M59.106 830.804v16.592M75.38 830.804v16.592" style="fill:#ccc;stroke:#ccc;stroke-width:.264582px;stroke-linecap:butt;stroke-linejoin:miter;stroke-opacity:1"/><path d="M59.244 847.396h15.877" style="fill:none;stroke:#000;stroke-width:.264578px;stroke-linecap:butt;stroke-linejoin:miter;stroke-opacity:1;marker-start:url(#w);marker-end:url(#w)"/><path d="M60.464 830.804v11.01" style="fill:#ccc;stroke:#ccc;stroke-width:.264582px;stroke-linecap:butt;stroke-linejoin:miter;stroke-opacity:1"/><path d="M55.145 841.815h3.752" style="fill:none;stroke:#000;stroke-width:.264579px;stroke-linecap:butt;stroke-linejoin:miter;stroke-opacity:1;marker-end:url(#x)"/><path d="M64.216 841.815h-3.752" style="fill:none;stroke:#000;stroke-width:.264579px;stroke-linecap:butt;stroke-linejoin:miter;stroke-opacity:1;marker-end:url(#y)"/><text xml:space="preserve" style="font-size:14.6667px;line-height:1.25;font-family:sans-serif;white-space:pre;shape-inside:url(#z);display:inline" transform="translate(.627 -19.726)scale(.26458)"><tspan x="240.74" y="3261.082">JE3</tspan></text><text xml:space="preserve" style="font-size:14.6667px;line-height:1.25;font-family:sans-serif;white-space:pre;shape-inside:url(#A);display:inline" transform="translate(2.694 -6.088)scale(.26458)"><tspan x="230.381" y="3240.25">JD3</tspan></text><path d="M795.111-69.292h4.043v3.744h-4.043z" style="fill:#00d400;fill-opacity:1;stroke:#00d400;stroke-width:.264583;stroke-linejoin:bevel;stroke-opacity:1" transform="rotate(90)"/><path d="M65.416 795.11H48.712" style="fill:#ccc;stroke:#ccc;stroke-width:.264582px;stroke-linecap:butt;stroke-linejoin:miter;stroke-opacity:1"/><path d="M48.712 795.496v3.45" style="fill:none;stroke:#000;stroke-width:.264581px;stroke-linecap:butt;stroke-linejoin:miter;stroke-opacity:1;marker-start:url(#B);marker-end:url(#B)"/><text xml:space="preserve" style="font-size:14.6667px;line-height:1.25;font-family:sans-serif;white-space:pre;shape-inside:url(#C);display:inline" transform="translate(8.22 4.316)scale(.26458)"><tspan x="123.387" y="2999.045">JS4</tspan></text></g></svg>