<svg xmlns="http://www.w3.org/2000/svg" width="570.484" height="494.353" viewBox="0 0 150.94 130.798"><defs><marker id="a" markerHeight="1" markerWidth="1" orient="auto-start-reverse" preserveAspectRatio="xMidYMid" refX="0" refY="0" style="overflow:visible" viewBox="0 0 1 1"><path d="M-.211-4.106 6.21-.894a1 1 90 0 1 0 1.788L-.21 4.106A1.236 1.236 31.717 0 1-2 3v-6A1.236 1.236 148.283 0 1-.211-4.106" style="fill:context-stroke;fill-rule:evenodd;stroke:none" transform="scale(.7)"/></marker><marker id="b" markerHeight="1" markerWidth="1" orient="auto-start-reverse" preserveAspectRatio="xMidYMid" refX="0" refY="0" style="overflow:visible" viewBox="0 0 1 1"><path d="M-.211-4.106 6.21-.894a1 1 90 0 1 0 1.788L-.21 4.106A1.236 1.236 31.717 0 1-2 3v-6A1.236 1.236 148.283 0 1-.211-4.106" style="fill:context-stroke;fill-rule:evenodd;stroke:none" transform="scale(.7)"/></marker><marker id="d" markerHeight="1" markerWidth="1" orient="auto-start-reverse" preserveAspectRatio="xMidYMid" refX="0" refY="0" style="overflow:visible" viewBox="0 0 1 1"><path d="M-.211-4.106 6.21-.894a1 1 90 0 1 0 1.788L-.21 4.106A1.236 1.236 31.717 0 1-2 3v-6A1.236 1.236 148.283 0 1-.211-4.106" style="fill:context-stroke;fill-rule:evenodd;stroke:none" transform="scale(.7)"/></marker><marker id="g" markerHeight="1" markerWidth="1" orient="auto-start-reverse" preserveAspectRatio="xMidYMid" refX="0" refY="0" style="overflow:visible" viewBox="0 0 1 1"><path d="M-.211-4.106 6.21-.894a1 1 90 0 1 0 1.788L-.21 4.106A1.236 1.236 31.717 0 1-2 3v-6A1.236 1.236 148.283 0 1-.211-4.106" style="fill:context-stroke;fill-rule:evenodd;stroke:none" transform="scale(.7)"/></marker><marker id="i" markerHeight="1" markerWidth="1" orient="auto-start-reverse" preserveAspectRatio="xMidYMid" refX="0" refY="0" style="overflow:visible" viewBox="0 0 1 1"><path d="M-.211-4.106 6.21-.894a1 1 90 0 1 0 1.788L-.21 4.106A1.236 1.236 31.717 0 1-2 3v-6A1.236 1.236 148.283 0 1-.211-4.106" style="fill:context-stroke;fill-rule:evenodd;stroke:none" transform="scale(.7)"/></marker><marker id="j" markerHeight="1" markerWidth="1" orient="auto-start-reverse" preserveAspectRatio="xMidYMid" refX="0" refY="0" style="overflow:visible" viewBox="0 0 1 1"><path d="M-.211-4.106 6.21-.894a1 1 90 0 1 0 1.788L-.21 4.106A1.236 1.236 31.717 0 1-2 3v-6A1.236 1.236 148.283 0 1-.211-4.106" style="fill:context-stroke;fill-rule:evenodd;stroke:none" transform="scale(.7)"/></marker><marker id="m" markerHeight="1" markerWidth="1" orient="auto-start-reverse" preserveAspectRatio="xMidYMid" refX="0" refY="0" style="overflow:visible" viewBox="0 0 1 1"><path d="M-.211-4.106 6.21-.894a1 1 90 0 1 0 1.788L-.21 4.106A1.236 1.236 31.717 0 1-2 3v-6A1.236 1.236 148.283 0 1-.211-4.106" style="fill:context-stroke;fill-rule:evenodd;stroke:none" transform="scale(.7)"/></marker><marker id="n" markerHeight="1" markerWidth="1" orient="auto-start-reverse" preserveAspectRatio="xMidYMid" refX="0" refY="0" style="overflow:visible" viewBox="0 0 1 1"><path d="M-.211-4.106 6.21-.894a1 1 90 0 1 0 1.788L-.21 4.106A1.236 1.236 31.717 0 1-2 3v-6A1.236 1.236 148.283 0 1-.211-4.106" style="fill:context-stroke;fill-rule:evenodd;stroke:none" transform="scale(.7)"/></marker><marker id="p" markerHeight="1" markerWidth="1" orient="auto-start-reverse" preserveAspectRatio="xMidYMid" refX="0" refY="0" style="overflow:visible" viewBox="0 0 1 1"><path d="M-.211-4.106 6.21-.894a1 1 90 0 1 0 1.788L-.21 4.106A1.236 1.236 31.717 0 1-2 3v-6A1.236 1.236 148.283 0 1-.211-4.106" style="fill:context-stroke;fill-rule:evenodd;stroke:none" transform="scale(.7)"/></marker><marker id="q" markerHeight="1" markerWidth="1" orient="auto-start-reverse" preserveAspectRatio="xMidYMid" refX="0" refY="0" style="overflow:visible" viewBox="0 0 1 1"><path d="M-.211-4.106 6.21-.894a1 1 90 0 1 0 1.788L-.21 4.106A1.236 1.236 31.717 0 1-2 3v-6A1.236 1.236 148.283 0 1-.211-4.106" style="fill:context-stroke;fill-rule:evenodd;stroke:none" transform="scale(.7)"/></marker><marker id="s" markerHeight="1" markerWidth="1" orient="auto-start-reverse" preserveAspectRatio="xMidYMid" refX="0" refY="0" style="overflow:visible" viewBox="0 0 1 1"><path d="M-.211-4.106 6.21-.894a1 1 90 0 1 0 1.788L-.21 4.106A1.236 1.236 31.717 0 1-2 3v-6A1.236 1.236 148.283 0 1-.211-4.106" style="fill:context-stroke;fill-rule:evenodd;stroke:none" transform="scale(.7)"/></marker><marker id="u" markerHeight="1" markerWidth="1" orient="auto-start-reverse" preserveAspectRatio="xMidYMid" refX="0" refY="0" style="overflow:visible" viewBox="0 0 1 1"><path d="M-.211-4.106 6.21-.894a1 1 90 0 1 0 1.788L-.21 4.106A1.236 1.236 31.717 0 1-2 3v-6A1.236 1.236 148.283 0 1-.211-4.106" style="fill:context-stroke;fill-rule:evenodd;stroke:none" transform="scale(.7)"/></marker><marker id="w" markerHeight="1" markerWidth="1" orient="auto-start-reverse" preserveAspectRatio="xMidYMid" refX="0" refY="0" style="overflow:visible" viewBox="0 0 1 1"><path d="M-.211-4.106 6.21-.894a1 1 90 0 1 0 1.788L-.21 4.106A1.236 1.236 31.717 0 1-2 3v-6A1.236 1.236 148.283 0 1-.211-4.106" style="fill:context-stroke;fill-rule:evenodd;stroke:none" transform="scale(.7)"/></marker><marker id="y" markerHeight="1" markerWidth="1" orient="auto-start-reverse" preserveAspectRatio="xMidYMid" refX="0" refY="0" style="overflow:visible" viewBox="0 0 1 1"><path d="M-.211-4.106 6.21-.894a1 1 90 0 1 0 1.788L-.21 4.106A1.236 1.236 31.717 0 1-2 3v-6A1.236 1.236 148.283 0 1-.211-4.106" style="fill:context-stroke;fill-rule:evenodd;stroke:none" transform="scale(.7)"/></marker><marker id="B" markerHeight="1" markerWidth="1" orient="auto-start-reverse" preserveAspectRatio="xMidYMid" refX="0" refY="0" style="overflow:visible" viewBox="0 0 1 1"><path d="M-.211-4.106 6.21-.894a1 1 90 0 1 0 1.788L-.21 4.106A1.236 1.236 31.717 0 1-2 3v-6A1.236 1.236 148.283 0 1-.211-4.106" style="fill:context-stroke;fill-rule:evenodd;stroke:none" transform="scale(.7)"/></marker><marker id="A" markerHeight="1" markerWidth="1" orient="auto-start-reverse" preserveAspectRatio="xMidYMid" refX="0" refY="0" style="overflow:visible" viewBox="0 0 1 1"><path d="M-.211-4.106 6.21-.894a1 1 90 0 1 0 1.788L-.21 4.106A1.236 1.236 31.717 0 1-2 3v-6A1.236 1.236 148.283 0 1-.211-4.106" style="fill:context-stroke;fill-rule:evenodd;stroke:none" transform="scale(.7)"/></marker><marker id="D" markerHeight="1" markerWidth="1" orient="auto-start-reverse" preserveAspectRatio="xMidYMid" refX="0" refY="0" style="overflow:visible" viewBox="0 0 1 1"><path d="M-.211-4.106 6.21-.894a1 1 90 0 1 0 1.788L-.21 4.106A1.236 1.236 31.717 0 1-2 3v-6A1.236 1.236 148.283 0 1-.211-4.106" style="fill:context-stroke;fill-rule:evenodd;stroke:none" transform="scale(.7)"/></marker><marker id="e" markerHeight="1" markerWidth="1" orient="auto-start-reverse" preserveAspectRatio="xMidYMid" refX="0" refY="0" style="overflow:visible" viewBox="0 0 1 1"><path d="M-.211-4.106 6.21-.894a1 1 90 0 1 0 1.788L-.21 4.106A1.236 1.236 31.717 0 1-2 3v-6A1.236 1.236 148.283 0 1-.211-4.106" style="fill:context-stroke;fill-rule:evenodd;stroke:none" transform="scale(.7)"/></marker><marker id="F" markerHeight="1" markerWidth="1" orient="auto-start-reverse" preserveAspectRatio="xMidYMid" refX="0" refY="0" style="overflow:visible" viewBox="0 0 1 1"><path d="M-.211-4.106 6.21-.894a1 1 90 0 1 0 1.788L-.21 4.106A1.236 1.236 31.717 0 1-2 3v-6A1.236 1.236 148.283 0 1-.211-4.106" style="fill:context-stroke;fill-rule:evenodd;stroke:none" transform="scale(.7)"/></marker><marker id="G" markerHeight="1" markerWidth="1" orient="auto-start-reverse" preserveAspectRatio="xMidYMid" refX="0" refY="0" style="overflow:visible" viewBox="0 0 1 1"><path d="M-.211-4.106 6.21-.894a1 1 90 0 1 0 1.788L-.21 4.106A1.236 1.236 31.717 0 1-2 3v-6A1.236 1.236 148.283 0 1-.211-4.106" style="fill:context-stroke;fill-rule:evenodd;stroke:none" transform="scale(.7)"/></marker><marker id="H" markerHeight="1" markerWidth="1" orient="auto-start-reverse" preserveAspectRatio="xMidYMid" refX="0" refY="0" style="overflow:visible" viewBox="0 0 1 1"><path d="M-.211-4.106 6.21-.894a1 1 90 0 1 0 1.788L-.21 4.106A1.236 1.236 31.717 0 1-2 3v-6A1.236 1.236 148.283 0 1-.211-4.106" style="fill:context-stroke;fill-rule:evenodd;stroke:none" transform="scale(.7)"/></marker><marker id="I" markerHeight="1" markerWidth="1" orient="auto-start-reverse" preserveAspectRatio="xMidYMid" refX="0" refY="0" style="overflow:visible" viewBox="0 0 1 1"><path d="M-.211-4.106 6.21-.894a1 1 90 0 1 0 1.788L-.21 4.106A1.236 1.236 31.717 0 1-2 3v-6A1.236 1.236 148.283 0 1-.211-4.106" style="fill:context-stroke;fill-rule:evenodd;stroke:none" transform="scale(.7)"/></marker><marker id="J" markerHeight="1" markerWidth="1" orient="auto-start-reverse" preserveAspectRatio="xMidYMid" refX="0" refY="0" style="overflow:visible" viewBox="0 0 1 1"><path d="M-.211-4.106 6.21-.894a1 1 90 0 1 0 1.788L-.21 4.106A1.236 1.236 31.717 0 1-2 3v-6A1.236 1.236 148.283 0 1-.211-4.106" style="fill:context-stroke;fill-rule:evenodd;stroke:none" transform="scale(.7)"/></marker><marker id="K" markerHeight="1" markerWidth="1" orient="auto-start-reverse" preserveAspectRatio="xMidYMid" refX="0" refY="0" style="overflow:visible" viewBox="0 0 1 1"><path d="M-.211-4.106 6.21-.894a1 1 90 0 1 0 1.788L-.21 4.106A1.236 1.236 31.717 0 1-2 3v-6A1.236 1.236 148.283 0 1-.211-4.106" style="fill:context-stroke;fill-rule:evenodd;stroke:none" transform="scale(.7)"/></marker><marker id="M" markerHeight="1" markerWidth="1" orient="auto-start-reverse" preserveAspectRatio="xMidYMid" refX="0" refY="0" style="overflow:visible" viewBox="0 0 1 1"><path d="M-.211-4.106 6.21-.894a1 1 90 0 1 0 1.788L-.21 4.106A1.236 1.236 31.717 0 1-2 3v-6A1.236 1.236 148.283 0 1-.211-4.106" style="fill:context-stroke;fill-rule:evenodd;stroke:none" transform="scale(.7)"/></marker><marker id="L" markerHeight="1" markerWidth="1" orient="auto-start-reverse" preserveAspectRatio="xMidYMid" refX="0" refY="0" style="overflow:visible" viewBox="0 0 1 1"><path d="M-.211-4.106 6.21-.894a1 1 90 0 1 0 1.788L-.21 4.106A1.236 1.236 31.717 0 1-2 3v-6A1.236 1.236 148.283 0 1-.211-4.106" style="fill:context-stroke;fill-rule:evenodd;stroke:none" transform="scale(.7)"/></marker><marker id="W" markerHeight="1" markerWidth="1" orient="auto-start-reverse" preserveAspectRatio="xMidYMid" refX="0" refY="0" style="overflow:visible" viewBox="0 0 1 1"><path d="M-.211-4.106 6.21-.894a1 1 90 0 1 0 1.788L-.21 4.106A1.236 1.236 31.717 0 1-2 3v-6A1.236 1.236 148.283 0 1-.211-4.106" style="fill:context-stroke;fill-rule:evenodd;stroke:none" transform="scale(.7)"/></marker><marker id="Y" markerHeight="1" markerWidth="1" orient="auto-start-reverse" preserveAspectRatio="xMidYMid" refX="0" refY="0" style="overflow:visible" viewBox="0 0 1 1"><path d="M-.211-4.106 6.21-.894a1 1 90 0 1 0 1.788L-.21 4.106A1.236 1.236 31.717 0 1-2 3v-6A1.236 1.236 148.283 0 1-.211-4.106" style="fill:context-stroke;fill-rule:evenodd;stroke:none" transform="scale(.7)"/></marker><marker id="Z" markerHeight="1" markerWidth="1" orient="auto-start-reverse" preserveAspectRatio="xMidYMid" refX="0" refY="0" style="overflow:visible" viewBox="0 0 1 1"><path d="M-.211-4.106 6.21-.894a1 1 90 0 1 0 1.788L-.21 4.106A1.236 1.236 31.717 0 1-2 3v-6A1.236 1.236 148.283 0 1-.211-4.106" style="fill:context-stroke;fill-rule:evenodd;stroke:none" transform="scale(.7)"/></marker><path id="ab" d="M59.521 718.415h47.203v34.644H59.521z"/><path id="aa" d="M81.724 653.984h42.51v19.934h-42.51z"/><path id="V" d="M45.675 650.344h66.906v49.507H45.675z"/><path id="N" d="M245.254 243.195h158.83v32.992h-158.83z"/><path id="c" d="M453.954 1279.043h64.279v48.515h-64.279z"/><path id="f" d="M269.02 1337.439h89.48v57.232h-89.48z"/><path id="h" d="M269.02 1337.439h89.48v57.232h-89.48z"/><path id="k" d="M437.355 1313.514h49.128v36.038h-49.128z"/><path id="l" d="M492.413 1281.653h61.664v44.837h-61.664z"/><path id="o" d="M90.341 1234.474h62.011v48.429H90.341z"/><path id="r" d="M69.849 1234.667h61.202v55.429H69.849z"/><path id="t" d="M509.19 985.606h49.059v38.43H509.19z"/><path id="v" d="M509.19 985.606h49.059v38.43H509.19z"/><path id="x" d="M509.19 985.606h49.059v38.43H509.19z"/><path id="z" d="M502.509 908.675h63.675v33.807h-63.675z"/><path id="C" d="M69.849 1234.667h61.202v55.429H69.849z"/><path id="E" d="M509.19 985.606h49.059v38.43H509.19z"/><path id="O" d="M245.254 243.195h85.427v36.729h-85.427z"/><path id="P" d="M245.254 243.195h85.427v36.729h-85.427z"/><path id="Q" d="M245.254 243.195h85.427v36.729h-85.427z"/><path id="R" d="M245.254 243.195h85.427v36.729h-85.427z"/><path id="S" d="M245.254 243.195h85.427v36.729h-85.427z"/><path id="T" d="M245.254 243.195h85.427v36.729h-85.427z"/><path id="U" d="M245.254 243.195h85.427v36.729h-85.427z"/><path id="X" d="M45.675 650.344h66.906v49.507H45.675z"/></defs><path d="M2.15 72.612h150.676v130.533H2.15z" style="fill:#fff;stroke:#fff;stroke-width:.264583" transform="translate(-2.018 -72.48)"/><path d="M-110.614 8.869h7.484v133.908h-7.484z" style="fill:#e5d5ff;fill-opacity:1;stroke:#e5d5ff;stroke-width:.264582;stroke-opacity:1" transform="rotate(-90 -37.25 -35.231)"/><path d="m68.18 123.844-14.212 39.692v21.5h43.71v-21.5l-14.213-39.692H68.18" style="fill:#d5f6ff;stroke:#d5f6ff;stroke-width:.264583px;stroke-linecap:butt;stroke-linejoin:miter;stroke-opacity:1" transform="translate(-2.018 -72.48)"/><path d="M53.968 163.536h3.34v21.501h-3.34z" style="fill:#5fbcd3;stroke:#5fbcd3;stroke-width:.264582" transform="translate(-2.018 -72.48)"/><path d="M-179.705 57.573h3.34v9.349h-3.34z" style="fill:#5fbcd3;stroke:#5fbcd3;stroke-width:.264583" transform="rotate(-90 -37.25 -35.231)"/><path d="M105.938 93.611h3.34v42.16h-3.34z" style="fill:#5fbcd3;stroke:#5fbcd3;stroke-width:.264582" transform="rotate(19.7 207.707 -42.051)"/><path d="M-97.678 163.536h3.34v21.501h-3.34z" style="fill:#5fbcd3;stroke:#5fbcd3;stroke-width:.264582" transform="matrix(-1 0 0 1 -2.018 -72.48)"/><path d="M-179.705-94.073h3.34v9.349h-3.34z" style="fill:#5fbcd3;stroke:#5fbcd3;stroke-width:.264583" transform="matrix(0 -1 -1 0 -2.018 -72.48)"/><path d="M-36.832 144.731h3.34v42.16h-3.34z" style="fill:#5fbcd3;stroke:#5fbcd3;stroke-width:.264582" transform="rotate(160.3 5.283 -36.415)scale(1 -1)"/><path d="M66.922 176.365h17.802M66.922 179.705h17.802M57.44 164.199l36.75-.012" style="fill:none;stroke:#dbe3e2;stroke-width:.264583px;stroke-linecap:butt;stroke-linejoin:miter;stroke-opacity:1" transform="translate(-2.018 -72.48)"/><path d="M71.325 124.97h8.996" style="fill:#dbe3de;stroke:#dbe3de;stroke-width:.264583px;stroke-linecap:butt;stroke-linejoin:miter;stroke-opacity:1" transform="translate(-2.018 -72.48)"/><path d="M-131.281 17.638h1.814v116.37h-1.814zM-137.593 17.638h1.814v116.37h-1.814z" style="fill:#5fbcd3;stroke:#5fbcd3;stroke-width:.264583" transform="rotate(-90 -37.25 -35.231)"/><path d="M-135.515 17.638h4.233v116.37h-4.233z" style="fill:#d5f6ff;fill-opacity:1;stroke:#d5f6ff;stroke-width:.264583;stroke-opacity:1" transform="rotate(-90 -37.25 -35.231)"/><path d="M-98.347 90.937h2.082v39.05h-2.082z" style="fill:#5fbcd3;stroke:#5fbcd3;stroke-width:.265072" transform="matrix(.51316 -.85829 .81115 .58484 -2.018 -72.48)"/><path d="M-187.27-39.918h2.082v39.05h-2.082z" style="fill:#5fbcd3;stroke:#5fbcd3;stroke-width:.265072" transform="matrix(-.51316 -.85829 -.81115 .58484 -2.018 -72.48)"/><path d="M-129.467 17.638h21.413v4.89h-21.413zM-129.467 129.118h21.413v4.89h-21.413zM-129.203 51.193h21.413v4.89h-21.413zM-129.203 95.298h21.413v4.89h-21.413z" style="fill:#5fbcd3;stroke:#5fbcd3;stroke-width:.264584" transform="rotate(-90 -37.25 -35.231)"/><path d="M53.704 197.952v-12.783" style="fill:#ccc;stroke:#ccc;stroke-width:.264583px;stroke-linecap:butt;stroke-linejoin:miter;stroke-opacity:1" transform="translate(-2.018 -72.48)"/><path d="M99.063 171.896h7.674" style="fill:none;stroke:#000;stroke-width:.264583px;stroke-linecap:butt;stroke-linejoin:miter;stroke-opacity:1;marker-start:url(#a)" transform="translate(-2.018 -72.48)"/><path d="M92.853 171.896h-5.425" style="fill:none;stroke:#000;stroke-width:.264583px;stroke-linecap:butt;stroke-linejoin:miter;stroke-opacity:1;marker-start:url(#b)" transform="translate(-2.018 -72.48)"/><text xml:space="preserve" style="font-size:14.6667px;line-height:1.25;font-family:sans-serif;white-space:pre;shape-inside:url(#c);display:inline" transform="translate(-15.059 -241.082)scale(.26458)"><tspan x="453.955" y="1292.02">E1</tspan></text><path d="M97.678 197.952v-12.783" style="fill:#ccc;stroke:#ccc;stroke-width:.264583px;stroke-linecap:butt;stroke-linejoin:miter;stroke-opacity:1" transform="translate(-2.018 -72.48)"/><path d="M56.347 107.793v-16.72" style="fill:#ccc;stroke:#ccc;stroke-width:.264584px;stroke-linecap:butt;stroke-linejoin:miter;stroke-opacity:1" transform="translate(-2.018 -72.48)"/><path d="M96.572 197.952h-41.49" style="fill:none;stroke:#000;stroke-width:.264582px;stroke-linecap:butt;stroke-linejoin:miter;stroke-opacity:1;marker-start:url(#d);marker-end:url(#d)" transform="translate(-2.018 -72.48)"/><path d="M93.808 91.073H57.574" style="fill:none;stroke:#000;stroke-width:.264582px;stroke-linecap:butt;stroke-linejoin:miter;stroke-opacity:1;marker-start:url(#e);marker-end:url(#e)" transform="translate(-2.018 -72.48)"/><text xml:space="preserve" style="font-size:14.6667px;line-height:1.25;font-family:sans-serif;white-space:pre;shape-inside:url(#f);display:inline" transform="translate(-.281 -228.098)scale(.26458)"><tspan x="269.02" y="1350.416">D1</tspan></text><path d="M67.187 192.62v-12.782M84.724 192.62v-12.782" style="fill:#ccc;stroke:#ccc;stroke-width:.264583px;stroke-linecap:butt;stroke-linejoin:miter;stroke-opacity:1" transform="translate(-2.018 -72.48)"/><path d="M83.618 192.62H68.572" style="fill:none;stroke:#000;stroke-width:.264582px;stroke-linecap:butt;stroke-linejoin:miter;stroke-opacity:1;marker-start:url(#g);marker-end:url(#g)" transform="translate(-2.018 -72.48)"/><text xml:space="preserve" style="font-size:14.6667px;line-height:1.25;font-family:sans-serif;white-space:pre;shape-inside:url(#h);display:inline" transform="translate(.183 -238.003)scale(.26458)"><tspan x="269.02" y="1350.416">D3</tspan></text><path d="M125.376 185.301H97.81M146.378 163.403H97.81M146.378 123.837H83.257" style="fill:#ccc;stroke:#ccc;stroke-width:.264583px;stroke-linecap:butt;stroke-linejoin:miter;stroke-opacity:1" transform="translate(-2.018 -72.48)"/><path d="M146.378 125.322v36.696" style="fill:none;stroke:#000;stroke-width:.264581px;stroke-linecap:butt;stroke-linejoin:miter;stroke-opacity:1;marker-start:url(#i);marker-end:url(#i)" transform="translate(-2.018 -72.48)"/><path d="M125.376 164.475v19.349" style="fill:none;stroke:#000;stroke-width:.264581px;stroke-linecap:butt;stroke-linejoin:miter;stroke-opacity:1;marker-start:url(#j);marker-end:url(#j)" transform="translate(-2.018 -72.48)"/><text xml:space="preserve" style="font-size:14.6667px;line-height:1.25;font-family:sans-serif;white-space:pre;shape-inside:url(#k);display:inline" transform="translate(8.42 -247.73)scale(.26458)"><tspan x="437.355" y="1326.49">H1</tspan></text><text xml:space="preserve" style="font-size:14.6667px;line-height:1.25;font-family:sans-serif;white-space:pre;shape-inside:url(#l);display:inline" transform="translate(14.586 -270.04)scale(.26458)"><tspan x="492.414" y="1294.629">H2</tspan></text><path d="m93.392 148.618 7.1-2.911" style="fill:none;stroke:#000;stroke-width:.264583px;stroke-linecap:butt;stroke-linejoin:miter;stroke-opacity:1;marker-start:url(#m)" transform="translate(-2.018 -72.48)"/><path d="m88.173 150.515-5.02 2.058" style="fill:none;stroke:#000;stroke-width:.264583px;stroke-linecap:butt;stroke-linejoin:miter;stroke-opacity:1;marker-start:url(#n)" transform="translate(-2.018 -72.48)"/><text xml:space="preserve" style="font-size:14.6667px;line-height:1.25;font-family:sans-serif;white-space:pre;shape-inside:url(#o);display:inline" transform="translate(74.994 -255.617)scale(.26458)"><tspan x="90.342" y="1247.451">E1</tspan></text><path d="M62.247 180.764v7.673" style="fill:none;stroke:#000;stroke-width:.264583px;stroke-linecap:butt;stroke-linejoin:miter;stroke-opacity:1;marker-start:url(#p)" transform="translate(-2.018 -72.48)"/><path d="M62.31 174.877v-5.425" style="fill:none;stroke:#000;stroke-width:.264583px;stroke-linecap:butt;stroke-linejoin:miter;stroke-opacity:1;marker-start:url(#q)" transform="translate(-2.018 -72.48)"/><text xml:space="preserve" style="font-size:14.6667px;line-height:1.25;font-family:sans-serif;white-space:pre;shape-inside:url(#r);display:inline" transform="translate(39.254 -210.79)scale(.26458)"><tspan x="69.848" y="1247.643">E3</tspan></text><path d="M150.284 133.115h-16.276" style="fill:#ccc;stroke:#ccc;stroke-width:.264582px;stroke-linecap:butt;stroke-linejoin:miter;stroke-opacity:1" transform="translate(-2.018 -72.48)"/><path d="M137.038 125.58v6.263" style="fill:none;stroke:#000;stroke-width:.264581px;stroke-linecap:butt;stroke-linejoin:miter;stroke-opacity:1;marker-start:url(#s);marker-end:url(#s)" transform="translate(-2.018 -72.48)"/><text xml:space="preserve" style="font-size:14.6667px;line-height:1.25;font-family:sans-serif;white-space:pre;shape-inside:url(#t);display:inline" transform="translate(.701 -206.564)scale(.26458)"><tspan x="509.189" y="998.582">H4</tspan></text><path d="M17.505 129.203H8.737M17.505 137.593H8.737" style="fill:#ccc;stroke:#ccc;stroke-width:.264582px;stroke-linecap:butt;stroke-linejoin:miter;stroke-opacity:1" transform="translate(-2.018 -72.48)"/><path d="M8.737 130.473v6.062" style="fill:none;stroke:#000;stroke-width:.264581px;stroke-linecap:butt;stroke-linejoin:miter;stroke-opacity:1;marker-start:url(#u);marker-end:url(#u)" transform="translate(-2.018 -72.48)"/><text xml:space="preserve" style="font-size:14.6667px;line-height:1.25;font-family:sans-serif;white-space:pre;shape-inside:url(#v);display:inline" transform="translate(-133.704 -202.307)scale(.26458)"><tspan x="509.189" y="998.582">D4</tspan></text><path d="M116.55 176.497H94.206" style="fill:#ccc;stroke:#ccc;stroke-width:.264583px;stroke-linecap:butt;stroke-linejoin:miter;stroke-opacity:1" transform="translate(-2.018 -72.48)"/><path d="M116.55 164.605V175.2" style="fill:none;stroke:#000;stroke-width:.264582px;stroke-linecap:butt;stroke-linejoin:miter;stroke-opacity:1;marker-start:url(#w);marker-end:url(#w)" transform="translate(-2.018 -72.48)"/><text xml:space="preserve" style="font-size:14.6667px;line-height:1.25;font-family:sans-serif;white-space:pre;shape-inside:url(#x);display:inline" transform="translate(-19.787 -165.372)scale(.26458)"><tspan x="509.189" y="998.582">H3</tspan></text><path d="M150.939 106.872h-8.786" style="fill:#ccc;stroke:#ccc;stroke-width:.264583px;stroke-linecap:butt;stroke-linejoin:miter;stroke-opacity:1" transform="translate(-2.018 -72.48)"/><path d="M150.874 108.215v23.557" style="fill:none;stroke:#000;stroke-width:.264581px;stroke-linecap:butt;stroke-linejoin:miter;stroke-opacity:1;marker-start:url(#y);marker-end:url(#y)" transform="translate(-2.018 -72.48)"/><text xml:space="preserve" style="font-size:14.6667px;line-height:1.25;font-family:sans-serif;white-space:pre;shape-inside:url(#z);display:inline" transform="translate(10.133 -195.483)scale(.26458)"><tspan x="502.51" y="921.652">H5</tspan></text><path d="M19.622 138.978v7.674" style="fill:none;stroke:#000;stroke-width:.264583px;stroke-linecap:butt;stroke-linejoin:miter;stroke-opacity:1;marker-start:url(#A)" transform="translate(-2.018 -72.48)"/><path d="M19.622 134.521v-2.42" style="fill:none;stroke:#000;stroke-width:.264583px;stroke-linecap:butt;stroke-linejoin:miter;stroke-opacity:1;marker-start:url(#B)" transform="translate(-2.018 -72.48)"/><text xml:space="preserve" style="font-size:14.6667px;line-height:1.25;font-family:sans-serif;white-space:pre;shape-inside:url(#C);display:inline" transform="translate(-2.842 -252.575)scale(.26458)"><tspan x="69.848" y="1247.643">E4</tspan></text><path d="M8.794 103.13H4.656M8.767 110.879H4.628" style="fill:#ccc;stroke:#ccc;stroke-width:.264582px;stroke-linecap:butt;stroke-linejoin:miter;stroke-opacity:1" transform="translate(-2.018 -72.48)"/><path d="M4.656 104.515v5.296" style="fill:none;stroke:#000;stroke-width:.264581px;stroke-linecap:butt;stroke-linejoin:miter;stroke-opacity:1;marker-start:url(#D);marker-end:url(#D)" transform="translate(-2.018 -72.48)"/><text xml:space="preserve" style="font-size:14.6667px;line-height:1.25;font-family:sans-serif;white-space:pre;shape-inside:url(#E);display:inline" transform="translate(-131.815 -228.27)scale(.26458)"><tspan x="509.189" y="998.582">D5</tspan></text><path d="M50.928 107.793v-16.72M95.034 107.793v-16.72M100.32 107.793v-16.72M128.854 107.793v-16.72M134.008 107.897V77.692M22.792 107.967v-16.72M17.638 108.055V77.849" style="fill:#ccc;stroke:#ccc;stroke-width:.264584px;stroke-linecap:butt;stroke-linejoin:miter;stroke-opacity:1" transform="translate(-2.018 -72.48)"/><path d="M49.519 91.247H23.973" style="fill:none;stroke:#000;stroke-width:.264582px;stroke-linecap:butt;stroke-linejoin:miter;stroke-opacity:1;marker-start:url(#F);marker-end:url(#F)" transform="translate(-2.018 -72.48)"/><path d="M127.459 91.073h-25.744" style="fill:none;stroke:#000;stroke-width:.264582px;stroke-linecap:butt;stroke-linejoin:miter;stroke-opacity:1;marker-start:url(#G);marker-end:url(#G)" transform="translate(-2.018 -72.48)"/><path d="M54.962 91.073h-3.05" style="fill:none;stroke:#000;stroke-width:.264582px;stroke-linecap:butt;stroke-linejoin:miter;stroke-opacity:1;marker-start:url(#H);marker-end:url(#H)" transform="translate(-2.018 -72.48)"/><path d="M99.335 91.073h-3.05" style="fill:none;stroke:#000;stroke-width:.264582px;stroke-linecap:butt;stroke-linejoin:miter;stroke-opacity:1;marker-start:url(#I);marker-end:url(#I)" transform="translate(-2.018 -72.48)"/><path d="M133.024 91.073h-3.05" style="fill:none;stroke:#000;stroke-width:.264582px;stroke-linecap:butt;stroke-linejoin:miter;stroke-opacity:1;marker-start:url(#J);marker-end:url(#J)" transform="translate(-2.018 -72.48)"/><path d="M21.497 91.247h-2.83" style="fill:none;stroke:#000;stroke-width:.264582px;stroke-linecap:butt;stroke-linejoin:miter;stroke-opacity:1;marker-start:url(#K);marker-end:url(#K)" transform="translate(-2.018 -72.48)"/><path d="M21.826 158.606h-3.362" style="fill:none;stroke:#000;stroke-width:.264582px;stroke-linecap:butt;stroke-linejoin:miter;stroke-opacity:1;marker-start:url(#L);marker-end:url(#L)" transform="translate(-2.018 -72.48)"/><path d="M132.357 78.634H19.025" style="fill:none;stroke:#000;stroke-width:.264581px;stroke-linecap:butt;stroke-linejoin:miter;stroke-opacity:1;marker-start:url(#M);marker-end:url(#M)" transform="translate(-2.018 -72.48)"/><text xml:space="preserve" style="font-size:14.6667px;line-height:1.25;font-family:sans-serif;white-space:pre;shape-inside:url(#N);display:inline" transform="translate(-5.934 -62.357)scale(.26458)"><tspan x="245.254" y="256.172">4*L4+L5+2*L6</tspan></text><text xml:space="preserve" style="font-size:14.6667px;line-height:1.25;font-family:sans-serif;white-space:pre;shape-inside:url(#O);display:inline" transform="translate(-48.64 -50.955)scale(.26458)"><tspan x="245.254" y="256.172">L4</tspan></text><text xml:space="preserve" style="font-size:14.6667px;line-height:1.25;font-family:sans-serif;white-space:pre;shape-inside:url(#P);display:inline" transform="translate(-15.257 -50.917)scale(.26458)"><tspan x="245.254" y="256.172">L4</tspan></text><text xml:space="preserve" style="font-size:14.6667px;line-height:1.25;font-family:sans-serif;white-space:pre;shape-inside:url(#Q);display:inline" transform="translate(28.516 -50.747)scale(.26458)"><tspan x="245.254" y="256.172">L4</tspan></text><text xml:space="preserve" style="font-size:14.6667px;line-height:1.25;font-family:sans-serif;white-space:pre;shape-inside:url(#R);display:inline" transform="translate(61.713 -50.876)scale(.26458)"><tspan x="245.254" y="256.172">L4</tspan></text><text xml:space="preserve" style="font-size:14.6667px;line-height:1.25;font-family:sans-serif;white-space:pre;shape-inside:url(#S);display:inline" transform="translate(6.023 -44.926)scale(.26458)"><tspan x="245.254" y="256.172">L5</tspan></text><text xml:space="preserve" style="font-size:14.6667px;line-height:1.25;font-family:sans-serif;white-space:pre;shape-inside:url(#T);display:inline" transform="translate(-33.08 -45.467)scale(.26458)"><tspan x="245.254" y="256.172">L6</tspan></text><text xml:space="preserve" style="font-size:14.6667px;line-height:1.25;font-family:sans-serif;white-space:pre;shape-inside:url(#U);display:inline" transform="translate(46.988 -45.386)scale(.26458)"><tspan x="245.254" y="256.172">L6</tspan></text><path d="M23.296 158.474v-20.88M17.373 158.606v-20.88" style="fill:#ccc;stroke:#ccc;stroke-width:.264583px;stroke-linecap:butt;stroke-linejoin:miter;stroke-opacity:1" transform="translate(-2.018 -72.48)"/><text xml:space="preserve" style="font-size:14.6667px;line-height:1.25;font-family:sans-serif;white-space:pre;shape-inside:url(#V);display:inline" transform="translate(3.217 -84.473)scale(.26458)"><tspan x="45.676" y="663.32">L7</tspan></text><path d="M53.698 163.451H43.433M54.81 160.544H43.433" style="fill:#ccc;stroke:#ccc;stroke-width:.264583px;stroke-linecap:butt;stroke-linejoin:miter;stroke-opacity:1" transform="translate(-2.018 -72.48)"/><path d="M43.433 161.504v.987" style="fill:none;stroke:#000;stroke-width:.264582px;stroke-linecap:butt;stroke-linejoin:miter;stroke-opacity:1;marker-start:url(#W);marker-end:url(#W)" transform="translate(-2.018 -72.48)"/><text xml:space="preserve" style="font-size:14.6667px;line-height:1.25;font-family:sans-serif;white-space:pre;shape-inside:url(#X);display:inline" transform="translate(23.34 -84.311)scale(.26458)"><tspan x="45.676" y="663.32">L8</tspan></text><path d="m37.498 149.4-4.259 6.384" style="fill:none;stroke:#000;stroke-width:.264583px;stroke-linecap:butt;stroke-linejoin:miter;stroke-opacity:1;marker-start:url(#Y)" transform="translate(-2.018 -72.48)"/><path d="m39.971 145.692 1.343-2.013" style="fill:none;stroke:#000;stroke-width:.264583px;stroke-linecap:butt;stroke-linejoin:miter;stroke-opacity:1;marker-start:url(#Z)" transform="translate(-2.018 -72.48)"/><text xml:space="preserve" style="font-size:14.6667px;line-height:1.25;font-family:sans-serif;white-space:pre;shape-inside:url(#aa);display:inline" transform="translate(5.683 -89.63)scale(.26458)"><tspan x="81.723" y="666.961">D6</tspan></text><text xml:space="preserve" style="font-size:14.6667px;line-height:1.25;font-family:sans-serif;white-space:pre;shape-inside:url(#ab);display:inline" transform="translate(11.668 -103.106)scale(.26458)"><tspan x="59.521" y="731.391">E6</tspan></text><path d="m70.131 161.81 11.25.003s.52-.153.689-.346c.235-.267.35-1.008.35-1.008l-2.312-12.38s-.338-.61-.622-.785c-.272-.167-.937-.191-.937-.191l-5.14-.096s-.84.114-1.158.364c-.268.21-.527.876-.527.876l-2.477 11.988s-.097.797.102 1.111c.162.256.782.464.782.464z" style="fill:#afafe9;fill-opacity:1;stroke:#afafe9;stroke-width:.264583px;stroke-linecap:butt;stroke-linejoin:miter;stroke-opacity:1" transform="translate(-2.018 -72.48)"/></svg>