<svg xmlns="http://www.w3.org/2000/svg" width="531.965" height="533.622" viewBox="0 0 140.749 141.187"><defs><path id="F" d="M185.394 3445.034h73.964v25.097h-73.964z"/><path id="C" d="M206.562 3756.48h29.607v20.355h-29.607z"/><path id="i" d="M105.279 3719.702h57.139v41.879h-57.139z"/><path id="e" d="M348.786 275.767h64.579v35.919h-64.579z"/><path id="g" d="M272.342 1674.881h50.345v33.865h-50.345z"/><path id="a" d="M175.914 3377.816h64.503v44.277h-64.503z"/><path id="j" d="M175.914 3377.816h64.503v44.277h-64.503z"/><path id="n" d="M175.914 3377.816h64.503v44.277h-64.503z"/><path id="p" d="M175.914 3377.816h64.503v44.277h-64.503z"/><path id="c" d="M98.764 3387.59h64.479v48.027H98.764z"/><path id="r" d="M102.622 3250.315h34.41v17.373h-34.41z"/><path id="t" d="M102.622 3250.315h34.41v17.373h-34.41z"/><path id="h" d="M438.816 4413.761h51.522v29.27h-51.522z"/><path id="x" d="M203.072 3272.399h67.836v38.939h-67.836z"/><path id="y" d="M203.072 3272.399h67.836v38.939h-67.836z"/><path id="E" d="M206.562 3756.48h29.607v20.355h-29.607z"/><path id="A" d="M230.38 3227.273h58.839v28.77H230.38z"/><marker id="b" markerHeight="1" markerWidth="1" orient="auto-start-reverse" preserveAspectRatio="xMidYMid" refX="0" refY="0" style="overflow:visible" viewBox="0 0 1 1"><path d="M3-3 0 0l3 3" style="fill:none;stroke:context-stroke;stroke-width:1;stroke-linecap:butt" transform="rotate(180 .125 0)"/></marker><marker id="d" markerHeight="1" markerWidth="1" orient="auto-start-reverse" preserveAspectRatio="xMidYMid" refX="0" refY="0" style="overflow:visible" viewBox="0 0 1 1"><path d="M-.211-4.106 6.21-.894a1 1 90 0 1 0 1.788L-.21 4.106A1.236 1.236 31.717 0 1-2 3v-6A1.236 1.236 148.283 0 1-.211-4.106" style="fill:context-stroke;fill-rule:evenodd;stroke:none" transform="scale(.7)"/></marker><marker id="f" markerHeight="1" markerWidth="1" orient="auto-start-reverse" preserveAspectRatio="xMidYMid" refX="0" refY="0" style="overflow:visible" viewBox="0 0 1 1"><path d="M-.211-4.106 6.21-.894a1 1 90 0 1 0 1.788L-.21 4.106A1.236 1.236 31.717 0 1-2 3v-6A1.236 1.236 148.283 0 1-.211-4.106" style="fill:context-stroke;fill-rule:evenodd;stroke:none" transform="scale(.7)"/></marker><marker id="k" markerHeight="1" markerWidth="1" orient="auto-start-reverse" preserveAspectRatio="xMidYMid" refX="0" refY="0" style="overflow:visible" viewBox="0 0 1 1"><path d="M-.211-4.106 6.21-.894a1 1 90 0 1 0 1.788L-.21 4.106A1.236 1.236 31.717 0 1-2 3v-6A1.236 1.236 148.283 0 1-.211-4.106" style="fill:context-stroke;fill-rule:evenodd;stroke:none" transform="scale(.7)"/></marker><marker id="l" markerHeight="1" markerWidth="1" orient="auto-start-reverse" preserveAspectRatio="xMidYMid" refX="0" refY="0" style="overflow:visible" viewBox="0 0 1 1"><path d="M-.211-4.106 6.21-.894a1 1 90 0 1 0 1.788L-.21 4.106A1.236 1.236 31.717 0 1-2 3v-6A1.236 1.236 148.283 0 1-.211-4.106" style="fill:context-stroke;fill-rule:evenodd;stroke:none" transform="scale(.7)"/></marker><marker id="m" markerHeight="1" markerWidth="1" orient="auto-start-reverse" preserveAspectRatio="xMidYMid" refX="0" refY="0" style="overflow:visible" viewBox="0 0 1 1"><path d="M-.211-4.106 6.21-.894a1 1 90 0 1 0 1.788L-.21 4.106A1.236 1.236 31.717 0 1-2 3v-6A1.236 1.236 148.283 0 1-.211-4.106" style="fill:context-stroke;fill-rule:evenodd;stroke:none" transform="scale(.7)"/></marker><marker id="o" markerHeight="1" markerWidth="1" orient="auto-start-reverse" preserveAspectRatio="xMidYMid" refX="0" refY="0" style="overflow:visible" viewBox="0 0 1 1"><path d="M-.211-4.106 6.21-.894a1 1 90 0 1 0 1.788L-.21 4.106A1.236 1.236 31.717 0 1-2 3v-6A1.236 1.236 148.283 0 1-.211-4.106" style="fill:context-stroke;fill-rule:evenodd;stroke:none" transform="scale(.7)"/></marker><marker id="q" markerHeight="1" markerWidth="1" orient="auto-start-reverse" preserveAspectRatio="xMidYMid" refX="0" refY="0" style="overflow:visible" viewBox="0 0 1 1"><path d="M3-3 0 0l3 3" style="fill:none;stroke:context-stroke;stroke-width:1;stroke-linecap:butt" transform="rotate(180 .125 0)"/></marker><marker id="s" markerHeight="1" markerWidth="1" orient="auto-start-reverse" preserveAspectRatio="xMidYMid" refX="0" refY="0" style="overflow:visible" viewBox="0 0 1 1"><path d="M3-3 0 0l3 3" style="fill:none;stroke:context-stroke;stroke-width:1;stroke-linecap:butt" transform="rotate(180 .125 0)"/></marker><marker id="u" markerHeight="1" markerWidth="1" orient="auto-start-reverse" preserveAspectRatio="xMidYMid" refX="0" refY="0" style="overflow:visible" viewBox="0 0 1 1"><path d="M3-3 0 0l3 3" style="fill:none;stroke:context-stroke;stroke-width:1;stroke-linecap:butt" transform="rotate(180 .125 0)"/></marker><marker id="v" markerHeight="1" markerWidth="1" orient="auto-start-reverse" preserveAspectRatio="xMidYMid" refX="0" refY="0" style="overflow:visible" viewBox="0 0 1 1"><path d="M3-3 0 0l3 3" style="fill:none;stroke:context-stroke;stroke-width:1;stroke-linecap:butt" transform="rotate(180 .125 0)"/></marker><marker id="w" markerHeight="1" markerWidth="1" orient="auto-start-reverse" preserveAspectRatio="xMidYMid" refX="0" refY="0" style="overflow:visible" viewBox="0 0 1 1"><path d="M3-3 0 0l3 3" style="fill:none;stroke:context-stroke;stroke-width:1;stroke-linecap:butt" transform="rotate(180 .125 0)"/></marker><marker id="B" markerHeight="1" markerWidth="1" orient="auto-start-reverse" preserveAspectRatio="xMidYMid" refX="0" refY="0" style="overflow:visible" viewBox="0 0 1 1"><path d="M3-3 0 0l3 3" style="fill:none;stroke:context-stroke;stroke-width:1;stroke-linecap:butt" transform="rotate(180 .125 0)"/></marker><marker id="D" markerHeight="1" markerWidth="1" orient="auto-start-reverse" preserveAspectRatio="xMidYMid" refX="0" refY="0" style="overflow:visible" viewBox="0 0 1 1"><path d="M3-3 0 0l3 3" style="fill:none;stroke:context-stroke;stroke-width:1;stroke-linecap:butt" transform="rotate(180 .125 0)"/></marker><marker id="z" markerHeight="1" markerWidth="1" orient="auto-start-reverse" preserveAspectRatio="xMidYMid" refX="0" refY="0" style="overflow:visible" viewBox="0 0 1 1"><path d="M3-3 0 0l3 3" style="fill:none;stroke:context-stroke;stroke-width:1;stroke-linecap:butt" transform="rotate(180 .125 0)"/></marker></defs><g transform="translate(-9.904 -893.592)"><path d="M10.036 893.724h140.485v140.923H10.036z" style="fill:#fff;fill-opacity:1;stroke:#fff;stroke-width:.264583;stroke-opacity:1"/><path d="M970.699-79.849h20.749v12.621h-20.749zM920.72-79.849h20.749v12.621H920.72z" style="fill:#00d400;fill-opacity:1;stroke:#00d400;stroke-width:.264583;stroke-linejoin:bevel;stroke-opacity:1" transform="rotate(90)"/><path d="M35.47 938.369h20.749v12.621H35.47zM35.47 961.574h20.749v12.621H35.47z" style="fill:#00d400;fill-opacity:1;stroke:#00d400;stroke-width:.264583;stroke-linejoin:bevel;stroke-opacity:1"/><text xml:space="preserve" style="font-size:14.6667px;line-height:1.25;font-family:sans-serif;white-space:pre;shape-inside:url(#a);display:inline" transform="translate(-8.023 112.088)scale(.26458)"><tspan x="175.914" y="3390.793">S1</tspan></text><path d="M38.665 1004.757h4.708" style="fill:none;stroke:#000;stroke-width:.264582px;stroke-linecap:butt;stroke-linejoin:miter;stroke-opacity:1;marker-start:url(#b);marker-end:url(#b)"/><text xml:space="preserve" style="font-size:14.6667px;line-height:1.25;font-family:sans-serif;white-space:pre;shape-inside:url(#c);display:inline" transform="translate(76.8 122.057)scale(.26458)"><tspan x="98.764" y="3400.566">S2</tspan></text><circle cx="73.538" cy="956.282" r="27.757" style="fill:#5fbcd3;fill-opacity:1;stroke:#5fbcd3;stroke-width:.264583;stroke-dasharray:none;stroke-opacity:1"/><circle cx="73.538" cy="956.282" r="24.985" style="fill:#d5f6ff;fill-opacity:1;stroke:#d5f6ff;stroke-width:.264583;stroke-dasharray:none;stroke-opacity:1"/><circle cx="73.538" cy="956.282" r="14.412" style="fill:#f9f9f9;stroke:#ccc;stroke-width:.264583;stroke-dasharray:none"/><circle cx="73.431" cy="936.197" r="2.873" style="fill:#f9f9f9;stroke:#ccc;stroke-width:.264583;stroke-dasharray:none;stroke-dashoffset:0"/><circle cx="93.516" cy="956.282" r="2.873" style="fill:#f9f9f9;stroke:#ccc;stroke-width:.264583;stroke-dasharray:none;stroke-dashoffset:0"/><circle cx="73.431" cy="976.367" r="2.873" style="fill:#f9f9f9;stroke:#ccc;stroke-width:.264583;stroke-dasharray:none;stroke-dashoffset:0"/><circle cx="53.346" cy="956.282" r="2.873" style="fill:#f9f9f9;stroke:#ccc;stroke-width:.264583;stroke-dasharray:none;stroke-dashoffset:0"/><circle cx="88.082" cy="942.267" r="2.873" style="fill:#f9f9f9;stroke:#ccc;stroke-width:.264583;stroke-dasharray:none;stroke-dashoffset:0"/><circle cx="88.082" cy="970.826" r="2.873" style="fill:#f9f9f9;stroke:#ccc;stroke-width:.264583;stroke-dasharray:none;stroke-dashoffset:0"/><circle cx="58.995" cy="970.826" r="2.873" style="fill:#f9f9f9;stroke:#ccc;stroke-width:.264583;stroke-dasharray:none;stroke-dashoffset:0"/><circle cx="58.995" cy="941.738" r="2.873" style="fill:#f9f9f9;stroke:#ccc;stroke-width:.264583;stroke-dasharray:none;stroke-dashoffset:0"/><circle cx="73.431" cy="956.282" r="20.085" style="fill:none;stroke:#ccc;stroke-width:.264583;stroke-dasharray:2,1;stroke-dashoffset:0"/><path d="M73.538 928.26h68.413M73.538 984.039h68.413" style="fill:#ccc;stroke:#ccc;stroke-width:.264582px;stroke-linecap:butt;stroke-linejoin:miter;stroke-opacity:1"/><path d="M141.751 982.498v-52.696" style="fill:none;stroke:#000;stroke-width:.264582px;stroke-linecap:butt;stroke-linejoin:miter;stroke-opacity:1;marker-start:url(#d);marker-end:url(#d)"/><path d="M15.27 1002.77v-93.186" style="fill:none;stroke:#000;stroke-width:.264583px;stroke-linecap:butt;stroke-linejoin:miter;stroke-opacity:1;marker-start:url(#b);marker-end:url(#b)"/><text xml:space="preserve" style="font-size:14.6667px;line-height:1.25;font-family:sans-serif;white-space:pre;shape-inside:url(#e);display:inline" transform="translate(50.234 880.281)scale(.26458)"><tspan x="348.785" y="288.744">D1</tspan></text><path d="M65.002 960.78v-8.996" style="fill:#9bd4e1;fill-opacity:.5;stroke:#dbe3de;stroke-width:.264583px;stroke-linecap:butt;stroke-linejoin:miter;stroke-opacity:1"/><path d="M-71.314-1014.467h1.814v116.37h-1.814zM-77.626-1014.467h1.814v116.37h-1.814z" style="fill:#5fd3bc;fill-opacity:.8;stroke:#5fd3bc;stroke-width:.264583" transform="scale(-1)"/><path d="M-75.548-1014.467h4.233v116.37h-4.233z" style="fill:#d7f4ee;fill-opacity:.3;stroke:#d7f4ee;stroke-width:.264583;stroke-opacity:1" transform="scale(-1)"/><circle cx="73.431" cy="956.282" r="10.012" style="fill:none;stroke:#006680;stroke-width:.264583;stroke-dasharray:none"/><path d="M69.5 1027.382V1014.6M77.626 1027.382V1014.6" style="fill:#ccc;stroke:#ccc;stroke-width:.264583px;stroke-linecap:butt;stroke-linejoin:miter;stroke-opacity:1"/><path d="M71.036 1027.382h5.4" style="fill:none;stroke:#000;stroke-width:.264582px;stroke-linecap:butt;stroke-linejoin:miter;stroke-opacity:1;marker-start:url(#f);marker-end:url(#f)"/><text xml:space="preserve" style="font-size:14.6667px;line-height:1.25;font-family:sans-serif;white-space:pre;shape-inside:url(#g);display:inline" transform="translate(-1.256 585.344)scale(.26458)"><tspan x="272.342" y="1687.858">D4</tspan></text><path d="M69.5 1011.404h8.126v3.063H69.5zM69.5 898.097h8.126v3.063H69.5zM69.475 906.075h8.126v3.063h-8.126zM69.475 1003.294h8.126v3.063h-8.126z" style="fill:#2ca089;fill-opacity:.7;stroke:#2ca089;stroke-width:.264583;stroke-opacity:1"/><path d="M38.241 909.138h5.292v94.201h-5.292z" style="opacity:.8;fill:#06f;stroke:none;stroke-width:.264583;stroke-linejoin:bevel"/><text xml:space="preserve" style="font-size:14.6667px;line-height:1.25;font-family:sans-serif;white-space:pre;shape-inside:url(#h);display:inline" transform="translate(-91.463 -213.796)scale(.26458)"><tspan x="438.816" y="4426.738">JL1</tspan></text><path d="M130.399 909.27h5.292v94.024h-5.292z" style="opacity:.8;fill:#06f;stroke:none;stroke-width:.264583;stroke-linejoin:bevel"/><path d="M15.006 909.138h54.337M15.006 1003.161h54.337M135.691 987.881v30.766" style="fill:#ccc;stroke:#ccc;stroke-width:.264582px;stroke-linecap:butt;stroke-linejoin:miter;stroke-opacity:1"/><text xml:space="preserve" style="font-size:14.6667px;line-height:1.25;font-family:sans-serif;white-space:pre;shape-inside:url(#i);display:inline" transform="translate(-17.425 -30.04)scale(.26458)"><tspan x="105.279" y="3732.678">L5</tspan></text><text xml:space="preserve" style="font-size:14.6667px;line-height:1.25;font-family:sans-serif;white-space:pre;shape-inside:url(#j);display:inline" transform="translate(84.334 112.054)scale(.26458)"><tspan x="175.914" y="3390.793">S1</tspan></text><path d="M131.768 1004.722h2.608" style="fill:none;stroke:#000;stroke-width:.264581px;stroke-linecap:butt;stroke-linejoin:miter;stroke-opacity:1;marker-start:url(#k);marker-end:url(#k)"/><path d="M74.794 1018.118h59.51" style="fill:none;stroke:#000;stroke-width:.264582px;stroke-linecap:butt;stroke-linejoin:miter;stroke-opacity:1;marker-start:url(#l);marker-end:url(#l)"/><path d="M73.22 1006.357v13.61" style="fill:#ccc;stroke:#ccc;stroke-width:.264582px;stroke-linecap:butt;stroke-linejoin:miter;stroke-opacity:1"/><path d="M909.27-135.823h5.292v62.285h-5.292zM998.002-135.691h5.292v62.285h-5.292z" style="opacity:.6;fill:#06f;stroke:none;stroke-width:.264583;stroke-linejoin:bevel" transform="rotate(90)"/><path d="M137.023 1002.041v-2.607" style="fill:none;stroke:#000;stroke-width:.264581px;stroke-linecap:butt;stroke-linejoin:miter;stroke-opacity:1;marker-start:url(#m);marker-end:url(#m)"/><text xml:space="preserve" style="font-size:14.6667px;line-height:1.25;font-family:sans-serif;white-space:pre;shape-inside:url(#n);display:inline" transform="translate(91.423 105.003)scale(.26458)"><tspan x="175.914" y="3390.793">S1</tspan></text><path d="M984.039-135.823h5.292v62.285h-5.292zM922.837-135.823h5.292v62.285h-5.292z" style="opacity:.6;fill:#06f;stroke:none;stroke-width:.264583;stroke-linejoin:bevel" transform="rotate(90)"/><path d="M137.022 988.091v-2.607" style="fill:none;stroke:#000;stroke-width:.264581px;stroke-linecap:butt;stroke-linejoin:miter;stroke-opacity:1;marker-start:url(#o);marker-end:url(#o)"/><text xml:space="preserve" style="font-size:14.6667px;line-height:1.25;font-family:sans-serif;white-space:pre;shape-inside:url(#p);display:inline" transform="translate(91.422 91.053)scale(.26458)"><tspan x="175.914" y="3390.793">S1</tspan></text><path d="M24.61 950.556v-11.801" style="fill:none;stroke:#000;stroke-width:.26458px;stroke-linecap:butt;stroke-linejoin:miter;stroke-opacity:1;marker-start:url(#q);marker-end:url(#q)"/><text xml:space="preserve" style="font-size:14.6667px;line-height:1.25;font-family:sans-serif;white-space:pre;shape-inside:url(#r);display:inline" transform="translate(-8.959 82.269)scale(.26458)"><tspan x="102.623" y="3263.291">JD1</tspan></text><path d="M35.334 938.37h-12.84" style="fill:#ccc;stroke:#ccc;stroke-width:.264582px;stroke-linecap:butt;stroke-linejoin:miter;stroke-opacity:1"/><path d="M45.782 956.282v39.51" style="fill:#ccc;stroke:#ccc;stroke-width:.264581px;stroke-linecap:butt;stroke-linejoin:miter;stroke-opacity:1"/><path d="M35.338 950.99H22.497M35.338 961.574H22.497M35.338 974.195H22.497" style="fill:#ccc;stroke:#ccc;stroke-width:.264582px;stroke-linecap:butt;stroke-linejoin:miter;stroke-opacity:1"/><path d="M24.61 973.785v-11.801" style="fill:none;stroke:#000;stroke-width:.26458px;stroke-linecap:butt;stroke-linejoin:miter;stroke-opacity:1;marker-start:url(#s);marker-end:url(#s)"/><text xml:space="preserve" style="font-size:14.6667px;line-height:1.25;font-family:sans-serif;white-space:pre;shape-inside:url(#t);display:inline" transform="translate(-8.959 105.498)scale(.26458)"><tspan x="102.623" y="3263.291">JD1</tspan></text><path d="M31.076 944.812h4.262M31.076 967.752h4.262" style="fill:#ccc;stroke:#ccc;stroke-width:.264582px;stroke-linecap:butt;stroke-linejoin:miter;stroke-opacity:1"/><path d="M31.076 967.404V945.04" style="fill:none;stroke:#000;stroke-width:.26458px;stroke-linecap:butt;stroke-linejoin:miter;stroke-opacity:1;marker-start:url(#u);marker-end:url(#u)"/><path d="M40.887 990.498v12.841" style="fill:#ccc;stroke:#ccc;stroke-width:.264582px;stroke-linecap:butt;stroke-linejoin:miter;stroke-opacity:1"/><path d="M41.074 995.791h4.708" style="fill:none;stroke:#000;stroke-width:.264582px;stroke-linecap:butt;stroke-linejoin:miter;stroke-opacity:1;marker-start:url(#v);marker-end:url(#v)"/><path d="M35.47 974.327v12.84" style="fill:#ccc;stroke:#ccc;stroke-width:.264582px;stroke-linecap:butt;stroke-linejoin:miter;stroke-opacity:1"/><path d="M35.746 987.168h10.017" style="fill:none;stroke:#000;stroke-width:.264583px;stroke-linecap:butt;stroke-linejoin:miter;stroke-opacity:1;marker-start:url(#w);marker-end:url(#w)"/><text xml:space="preserve" style="font-size:14.6667px;line-height:1.25;font-family:sans-serif;white-space:pre;shape-inside:url(#x);display:inline" transform="translate(-12.73 124.223)scale(.26458)"><tspan x="203.072" y="3285.375">JS1</tspan></text><text xml:space="preserve" style="font-size:14.6667px;line-height:1.25;font-family:sans-serif;white-space:pre;shape-inside:url(#y);display:inline" transform="translate(-15.495 116.761)scale(.26458)"><tspan x="203.072" y="3285.375">JS2</tspan></text><path d="M67.419 993.046H79.82" style="fill:none;stroke:#000;stroke-width:.264578px;stroke-linecap:butt;stroke-linejoin:miter;stroke-opacity:1;marker-start:url(#z);marker-end:url(#z)"/><text xml:space="preserve" style="font-size:14.6667px;line-height:1.25;font-family:sans-serif;white-space:pre;shape-inside:url(#A);display:inline" transform="translate(9.56 139.562)scale(.26458)"><tspan x="230.381" y="3240.25">JD3</tspan></text><path d="M73.538 984.039h-12.84M60.697 991.447h6.399" style="fill:#ccc;stroke:#ccc;stroke-width:.264582px;stroke-linecap:butt;stroke-linejoin:miter;stroke-opacity:1"/><path d="M60.697 991.168v-6.85" style="fill:none;stroke:#000;stroke-width:.26458px;stroke-linecap:butt;stroke-linejoin:miter;stroke-opacity:1;marker-start:url(#B);marker-end:url(#B)"/><text xml:space="preserve" style="font-size:14.6667px;line-height:1.25;font-family:sans-serif;white-space:pre;shape-inside:url(#C);display:inline" transform="translate(-.824 -8.807)scale(.26458)"><tspan x="206.563" y="3769.457">JS3</tspan></text><path d="M73.516 928.26h-12.84M60.697 920.72h6.399" style="fill:#ccc;stroke:#ccc;stroke-width:.264582px;stroke-linecap:butt;stroke-linejoin:miter;stroke-opacity:1"/><path d="M60.697 927.955v-6.85" style="fill:none;stroke:#000;stroke-width:.26458px;stroke-linecap:butt;stroke-linejoin:miter;stroke-opacity:1;marker-start:url(#D);marker-end:url(#D)"/><text xml:space="preserve" style="font-size:14.6667px;line-height:1.25;font-family:sans-serif;white-space:pre;shape-inside:url(#E);display:inline" transform="translate(-1.419 -71.754)scale(.26458)"><tspan x="206.563" y="3769.457">JS3</tspan></text><circle cx="73.538" cy="925.482" r="3.241" style="opacity:.7;fill:#165016;fill-opacity:1;stroke:#165016;stroke-width:.264582;stroke-linejoin:bevel;stroke-opacity:1"/><circle cx="73.538" cy="925.482" r="2.002" style="opacity:.7;fill:#d5ffd5;fill-opacity:1;stroke:none;stroke-width:.264583;stroke-linejoin:bevel;stroke-opacity:1"/><circle cx="73.538" cy="986.685" r="3.241" style="opacity:.7;fill:#165016;fill-opacity:1;stroke:#165016;stroke-width:.264582;stroke-linejoin:bevel;stroke-opacity:1"/><circle cx="73.538" cy="986.685" r="2.002" style="opacity:.7;fill:#d5ffd5;fill-opacity:1;stroke:none;stroke-width:.264583;stroke-linejoin:bevel;stroke-opacity:1"/><text xml:space="preserve" style="font-size:14.6667px;line-height:1.25;font-family:sans-serif;white-space:pre;shape-inside:url(#F);display:inline" transform="scale(.26458)"><tspan x="185.395" y="3458.01">JD4, JE4</tspan></text><path d="m63.63 915.45 6.996 7.734" style="fill:none;stroke:#000;stroke-width:.264583;stroke-linecap:butt;stroke-linejoin:miter;stroke-opacity:1;marker-end:url(#b)"/></g></svg>