<svg xmlns="http://www.w3.org/2000/svg" width="548.216" height="542.448" viewBox="0 0 145.049 143.523"><defs><path id="n" d="M322.216 358.948h40.279v41.848h-40.279z"/><path id="m" d="M300.915 367.81h30.159v25.794h-30.159z"/><path id="b" d="M432.272 88.073h56.586v36.71h-56.586z"/><path id="d" d="M503.914 145.637h58.003v43.166h-58.003z"/><path id="e" d="M309.139 65.957h52.16v31.797h-52.16z"/><path id="f" d="M360.738 72.512h39.349v32.277h-39.349z"/><path id="g" d="M546.666 422.076h35.719v33.093h-35.719z"/><path id="h" d="M519.75 43.763h68.4v71.172h-68.4z"/><path id="i" d="M543.218 236.892h42.737v38.238h-42.737z"/><path id="j" d="M479.338 609.681h71.939v53.847h-71.939z"/><path id="k" d="M49.656 97.036h71.156v48.382H49.656z"/><path id="l" d="M77.858 137.531h83.851v43.935H77.858z"/><marker id="a" markerHeight="1" markerWidth="1" orient="auto-start-reverse" preserveAspectRatio="xMidYMid" refX="0" refY="0" style="overflow:visible" viewBox="0 0 1 1"><path d="M3-3 0 0l3 3" style="fill:none;stroke:context-stroke;stroke-width:1;stroke-linecap:butt" transform="rotate(180 .125 0)"/></marker><marker id="c" markerHeight="1" markerWidth="1" orient="auto-start-reverse" preserveAspectRatio="xMidYMid" refX="0" refY="0" style="overflow:visible" viewBox="0 0 1 1"><path d="M3-3 0 0l3 3" style="fill:none;stroke:context-stroke;stroke-width:1;stroke-linecap:butt" transform="rotate(180 .125 0)"/></marker></defs><g transform="translate(-7.912 -31.434)"><path d="M8.044 31.566h144.784v143.258H8.044z" style="fill:#fff;stroke:#fff;stroke-width:.264583;stroke-linejoin:bevel"/><circle cx="76.427" cy="109.411" r="57.927" style="fill:none;stroke:#ccc;stroke-width:.264583;stroke-linejoin:bevel"/><circle cx="76.427" cy="109.411" r="49.458" style="fill:none;stroke:#ccc;stroke-width:.264583;stroke-linejoin:bevel"/><circle cx="76.427" cy="51.484" r="2.853" style="fill:none;stroke:#000;stroke-width:.264583;stroke-linejoin:bevel"/><circle cx="134.486" cy="109.411" r="2.853" style="fill:none;stroke:#000;stroke-width:.264583;stroke-linejoin:bevel"/><circle cx="18.5" cy="109.411" r="2.853" style="fill:none;stroke:#000;stroke-width:.264583;stroke-linejoin:bevel"/><circle cx="76.427" cy="167.47" r="2.853" style="fill:none;stroke:#000;stroke-width:.264583;stroke-linejoin:bevel"/><circle cx="76.427" cy="51.484" r="5.344" style="fill:none;stroke:#ccc;stroke-width:.264583;stroke-linejoin:bevel"/><circle cx="18.368" cy="109.411" r="5.344" style="fill:none;stroke:#ccc;stroke-width:.264583;stroke-linejoin:bevel"/><circle cx="134.353" cy="109.411" r="5.344" style="fill:none;stroke:#ccc;stroke-width:.264583;stroke-linejoin:bevel"/><circle cx="76.427" cy="167.47" r="5.344" style="fill:none;stroke:#ccc;stroke-width:.264583;stroke-linejoin:bevel"/><path d="m69.544 60.5 1.738-10.115s.402-1.706.908-2.394a4.74 4.74 0 0 1 1.96-1.537c.878-.367 1.883-.42 2.833-.36.644.041 1.3.19 1.874.484.549.28 1.004.728 1.42 1.183.405.442.767.938 1.025 1.48.252.528.492 1.684.492 1.684l1.86 9.475M69.191 158.555l2.1 9.816s.403 1.706.909 2.394a4.74 4.74 0 0 0 1.96 1.537c.878.367 1.883.42 2.833.36.644-.041 1.3-.19 1.874-.484.548-.28 1.004-.728 1.42-1.183a6.1 6.1 0 0 0 1.025-1.48c.252-.528.492-1.684.492-1.684l2.012-9.631M27.614 116.8l-10.17-2.253s-1.707-.402-2.395-.908a4.74 4.74 0 0 1-1.537-1.96c-.367-.878-.419-1.883-.36-2.833.042-.644.19-1.3.484-1.874.28-.549.728-1.004 1.183-1.42a6.1 6.1 0 0 1 1.48-1.025c.528-.252 1.684-.492 1.684-.492l9.475-1.86M125.382 102.33l9.816 2.101s1.706.403 2.394.908a4.74 4.74 0 0 1 1.537 1.96c.367.879.42 1.883.36 2.833-.041.644-.19 1.3-.483 1.875-.281.548-.729 1.004-1.184 1.42a6.1 6.1 0 0 1-1.48 1.024c-.527.252-1.684.493-1.684.493l-9.475 1.86" style="fill:none;stroke:#000;stroke-width:.264583px;stroke-linecap:butt;stroke-linejoin:miter;stroke-opacity:1"/><path d="M83.654 60.4s3.903.769 5.816 1.305a57 57 0 0 1 5.499 1.856 39 39 0 0 1 3.667 1.66c2.023 1.053 4.014 2.188 5.888 3.489a50.4 50.4 0 0 1 5.754 4.644 48 48 0 0 1 5.018 5.475c1.693 2.171 3.203 4.493 4.547 6.895 1 1.787 1.852 3.66 2.601 5.565a52 52 0 0 1 1.924 5.971c.434 1.668 1.014 5.07 1.014 5.07M27.614 102.228s.768-3.902 1.304-5.815a57 57 0 0 1 1.857-5.5 39 39 0 0 1 1.66-3.667c1.053-2.023 2.187-4.014 3.488-5.887a50.4 50.4 0 0 1 4.645-5.755 48 48 0 0 1 5.475-5.017c2.17-1.694 4.492-3.203 6.895-4.548 1.787-1 3.659-1.852 5.565-2.601a52 52 0 0 1 5.97-1.924c1.669-.434 5.071-1.014 5.071-1.014M69.342 158.73s-3.902-.769-5.815-1.304a57 57 0 0 1-5.5-1.857 39 39 0 0 1-3.667-1.66c-2.023-1.053-4.014-2.187-5.887-3.489a50.4 50.4 0 0 1-5.755-4.644A48 48 0 0 1 37.7 140.3c-1.694-2.171-3.203-4.493-4.548-6.895-1-1.787-1.852-3.66-2.601-5.565a52 52 0 0 1-1.924-5.971c-.434-1.668-1.014-5.07-1.014-5.07M125.183 116.804s-.32 3.688-.74 5.484c-.441 1.883-1.148 3.699-1.857 5.499a39 39 0 0 1-1.66 3.667c-1.053 2.023-2.187 4.014-3.489 5.888a50.4 50.4 0 0 1-4.644 5.754 48 48 0 0 1-5.475 5.018c-2.171 1.693-4.493 3.203-6.895 4.547-1.787 1-3.66 1.852-5.565 2.601a52 52 0 0 1-5.971 1.924c-1.668.434-5.07 1.014-5.07 1.014" style="fill:none;stroke:#000;stroke-width:.264583px;stroke-linecap:butt;stroke-linejoin:miter;stroke-opacity:1"/><circle cx="76.427" cy="109.411" r="26.61" style="fill:none;stroke:#1a1a1a;stroke-width:.264583;stroke-linejoin:bevel"/><path d="m105.543 58.967 9.42-11.404" style="fill:none;stroke:#00f;stroke-width:.264583px;stroke-linecap:butt;stroke-linejoin:miter;stroke-opacity:1;marker-start:url(#a)"/><text xml:space="preserve" style="font-size:14.6667px;line-height:1.25;font-family:sans-serif;white-space:pre;shape-inside:url(#b);display:inline" transform="translate(-.306 19.94)scale(.26458)"><tspan x="432.271" y="101.051">D1</tspan></text><path d="m111.51 73.951 15.98-11.828" style="fill:none;stroke:#00f;stroke-width:.264583px;stroke-linecap:butt;stroke-linejoin:miter;stroke-opacity:1;marker-start:url(#c)"/><text xml:space="preserve" style="font-size:14.6667px;line-height:1.25;font-family:sans-serif;white-space:pre;shape-inside:url(#d);display:inline" transform="translate(-5.317 20.993)scale(.26458)"><tspan x="503.914" y="158.613">D2</tspan></text><text xml:space="preserve" style="font-size:14.6667px;line-height:1.25;font-family:sans-serif;white-space:pre;shape-inside:url(#e);display:inline" transform="translate(-2 16.216)scale(.26458)"><tspan x="309.139" y="78.934">D3</tspan></text><path d="m77.248 48.042 3.227-10.245" style="fill:none;stroke:#00f;stroke-width:.264583px;stroke-linecap:butt;stroke-linejoin:miter;stroke-opacity:1;marker-start:url(#a)"/><text xml:space="preserve" style="font-size:14.6667px;line-height:1.25;font-family:sans-serif;white-space:pre;shape-inside:url(#f);display:inline" transform="translate(-5.257 20.483)scale(.26458)"><tspan x="360.738" y="85.488">D4</tspan></text><path d="m81.375 48.167 8.031-4.717" style="fill:none;stroke:#00f;stroke-width:.264583px;stroke-linecap:butt;stroke-linejoin:miter;stroke-opacity:1;marker-start:url(#a)"/><path d="M125.417 102.374h21.497M125.16 116.757h21.497" style="fill:none;stroke:#ccc;stroke-width:.264583px;stroke-linecap:butt;stroke-linejoin:miter;stroke-opacity:1"/><path d="M146.475 102.72v14.112" style="fill:none;stroke:#00f;stroke-width:.264583px;stroke-linecap:butt;stroke-linejoin:miter;stroke-opacity:1;marker-start:url(#a);marker-end:url(#a)"/><text xml:space="preserve" style="font-size:14.6667px;line-height:1.25;font-family:sans-serif;white-space:pre;shape-inside:url(#g);display:inline" transform="translate(2.146 -3.943)scale(.26458)"><tspan x="546.666" y="435.053">L1</tspan></text><text xml:space="preserve" style="font-size:14.6667px;line-height:1.25;font-family:sans-serif;white-space:pre;shape-inside:url(#h);display:inline" transform="translate(-40.534 35.088)scale(.26458)"><tspan x="519.75" y="56.738">R5</tspan></text><path d="m84.687 59.36 12.11-9.767" style="fill:none;stroke:#00f;stroke-width:.264583px;stroke-linecap:butt;stroke-linejoin:miter;stroke-opacity:1;marker-start:url(#a)"/><path d="m102.471 100.95 37.494-11.73" style="fill:none;stroke:#00f;stroke-width:.264583px;stroke-linecap:butt;stroke-linejoin:miter;stroke-opacity:1;marker-start:url(#a)"/><text xml:space="preserve" style="font-size:14.6667px;line-height:1.25;font-family:sans-serif;white-space:pre;shape-inside:url(#i);display:inline" transform="translate(-3.469 24.029)scale(.26458)"><tspan x="543.217" y="249.869">D6</tspan></text><path d="m130.444 168.626 8.205-6.535" style="fill:none;stroke:#00f;stroke-width:.264583px;stroke-linecap:butt;stroke-linejoin:miter;stroke-opacity:1;marker-end:url(#a)"/><text xml:space="preserve" style="font-size:14.6667px;line-height:1.25;font-family:sans-serif;white-space:pre;shape-inside:url(#j);display:inline" transform="translate(7.147 4.934)scale(.26458)"><tspan x="479.338" y="622.658">T1</tspan></text><text xml:space="preserve" style="font-size:14.6667px;line-height:1.25;font-family:sans-serif;white-space:pre;shape-inside:url(#k);display:inline" transform="translate(-2 16.216)scale(.26458)"><tspan x="49.656" y="110.012">N1</tspan></text><path d="M16.79 101.269 14.65 46.667l54.253 3.002" style="fill:none;stroke:#00f;stroke-width:.264583px;stroke-linecap:butt;stroke-linejoin:miter;stroke-opacity:1;marker-start:url(#a);marker-end:url(#a)"/><text xml:space="preserve" style="font-size:14.6667px;line-height:1.25;font-family:sans-serif;white-space:pre;shape-inside:url(#l);display:inline" transform="translate(42.088 62.251)scale(.26458)"><tspan x="77.857" y="150.508">N2</tspan></text><path d="m46.996 105.91 15.536-5.774-5.467-11.04" style="fill:none;stroke:#00f;stroke-width:.264583px;stroke-linecap:butt;stroke-linejoin:miter;stroke-opacity:1;marker-start:url(#a);marker-end:url(#a)"/><circle cx="76.427" cy="77.109" r="3.851" style="fill:none;stroke:#ccc;stroke-width:.264583;stroke-linejoin:bevel"/><circle cx="76.427" cy="109.411" r="32.302" style="fill:none;stroke:#ccc;stroke-width:.264583;stroke-linejoin:bevel"/><circle cx="108.728" cy="109.411" r="3.851" style="fill:none;stroke:#ccc;stroke-width:.264583;stroke-linejoin:bevel"/><circle cx="76.427" cy="141.713" r="3.851" style="fill:none;stroke:#ccc;stroke-width:.264583;stroke-linejoin:bevel"/><circle cx="44.125" cy="109.411" r="3.851" style="fill:none;stroke:#ccc;stroke-width:.264583;stroke-linejoin:bevel"/><circle cx="53.742" cy="86.017" r="3.851" style="fill:none;stroke:#ccc;stroke-width:.264583;stroke-linejoin:bevel"/><circle cx="97.73" cy="85.336" r="3.851" style="fill:none;stroke:#ccc;stroke-width:.264583;stroke-linejoin:bevel"/><circle cx="99.322" cy="132.141" r="3.851" style="fill:none;stroke:#ccc;stroke-width:.264583;stroke-linejoin:bevel"/><circle cx="53.772" cy="132.535" r="3.851" style="fill:none;stroke:#ccc;stroke-width:.264583;stroke-linejoin:bevel"/><path d="M76.593 77.372v5.032" style="fill:none;stroke:#00f;stroke-width:.264583px;stroke-linecap:butt;stroke-linejoin:miter;stroke-opacity:1;marker-start:url(#a);marker-end:url(#a)"/><text xml:space="preserve" style="font-size:14.6667px;line-height:1.25;font-family:sans-serif;white-space:pre;shape-inside:url(#m);display:inline" transform="translate(-1.724 -19.429)scale(.26458)"><tspan x="300.916" y="380.787">L2</tspan></text><text xml:space="preserve" style="font-size:14.6667px;line-height:1.25;font-family:sans-serif;white-space:pre;shape-inside:url(#n);display:inline" transform="translate(2.014 -.184)scale(.26458)"><tspan x="322.215" y="371.924">D7</tspan></text><path d="m90.985 94.57 4.148-5.785" style="fill:none;stroke:#00f;stroke-width:.264583px;stroke-linecap:butt;stroke-linejoin:miter;stroke-opacity:1;marker-end:url(#a)"/></g></svg>