<svg xmlns="http://www.w3.org/2000/svg" width="316.498" height="241.689" viewBox="0 0 83.74 63.947"><defs><path id="m" d="M212.051 515.668h37.756v30.921h-37.756z"/><path id="l" d="M40.926 534.307h36.809v34.185H40.926z"/><path id="h" d="M225.81 592.624h42.109v25.752H225.81z"/><path id="f" d="M220.869 384.616h32.064v18.803h-32.064z"/><path id="d" d="M41.14 482.293h29.098v22.732H41.14z"/><path id="c" d="M44.538 457.262h26.485v22.235H44.538z"/><path id="g" d="M220.869 384.616h32.064v18.803h-32.064z"/><path id="o" d="M40.926 534.307h36.809v34.185H40.926z"/><marker id="a" markerHeight="1" markerWidth="1" orient="auto-start-reverse" preserveAspectRatio="xMidYMid" refX="0" refY="0" style="overflow:visible" viewBox="0 0 1 1"><path d="M3-3 0 0l3 3" style="fill:none;stroke:context-stroke;stroke-width:1;stroke-linecap:butt" transform="rotate(180 .125 0)"/></marker><marker id="b" markerHeight="1" markerWidth="1" orient="auto-start-reverse" preserveAspectRatio="xMidYMid" refX="0" refY="0" style="overflow:visible" viewBox="0 0 1 1"><path d="M3-3 0 0l3 3" style="fill:none;stroke:context-stroke;stroke-width:1;stroke-linecap:butt" transform="rotate(180 .125 0)"/></marker><marker id="e" markerHeight="1" markerWidth="1" orient="auto-start-reverse" preserveAspectRatio="xMidYMid" refX="0" refY="0" style="overflow:visible" viewBox="0 0 1 1"><path d="M3-3 0 0l3 3" style="fill:none;stroke:context-stroke;stroke-width:1;stroke-linecap:butt" transform="rotate(180 .125 0)"/></marker><marker id="i" markerHeight="1" markerWidth="1" orient="auto-start-reverse" preserveAspectRatio="xMidYMid" refX="0" refY="0" style="overflow:visible" viewBox="0 0 1 1"><path d="M3-3 0 0l3 3" style="fill:none;stroke:context-stroke;stroke-width:1;stroke-linecap:butt" transform="rotate(180 .125 0)"/></marker><marker id="j" markerHeight="1" markerWidth="1" orient="auto-start-reverse" preserveAspectRatio="xMidYMid" refX="0" refY="0" style="overflow:visible" viewBox="0 0 1 1"><path d="M3-3 0 0l3 3" style="fill:none;stroke:context-stroke;stroke-width:1;stroke-linecap:butt" transform="rotate(180 .125 0)"/></marker><marker id="k" markerHeight="1" markerWidth="1" orient="auto-start-reverse" preserveAspectRatio="xMidYMid" refX="0" refY="0" style="overflow:visible" viewBox="0 0 1 1"><path d="M3-3 0 0l3 3" style="fill:none;stroke:context-stroke;stroke-width:1;stroke-linecap:butt" transform="rotate(180 .125 0)"/></marker><marker id="n" markerHeight="1" markerWidth="1" orient="auto-start-reverse" preserveAspectRatio="xMidYMid" refX="0" refY="0" style="overflow:visible" viewBox="0 0 1 1"><path d="M3-3 0 0l3 3" style="fill:none;stroke:context-stroke;stroke-width:1;stroke-linecap:butt" transform="rotate(180 .125 0)"/></marker></defs><path d="M17.401 112.717h83.476v63.682H17.401z" style="fill:#fff;stroke:#fff;stroke-width:.264583;stroke-linejoin:bevel;stroke-dasharray:none;stroke-dashoffset:0" transform="translate(-17.27 -112.585)"/><path d="M38.919 134.849h55.925v11.333H90.24v-7.54H43.524v7.54h-4.605v-11.333" style="fill:#e6e6e6;stroke:#000;stroke-width:.264583px;stroke-linecap:butt;stroke-linejoin:miter;stroke-opacity:1" transform="translate(-17.27 -112.585)"/><path d="M52.667 134.849h28.429v3.792H52.667z" style="fill:none;stroke:#e6e6e6;stroke-width:.264583;stroke-linejoin:bevel;stroke-dasharray:none;stroke-dashoffset:0" transform="translate(-17.27 -112.585)"/><path d="M81.096 134.849h1.86v3.792h-1.86z" style="fill:none;stroke:#000;stroke-width:.264583;stroke-linejoin:bevel;stroke-dasharray:none;stroke-dashoffset:0" transform="translate(-17.27 -112.585)"/><path d="M-52.667 134.849h1.86v3.792h-1.86z" style="fill:none;stroke:#000;stroke-width:.264583;stroke-linejoin:bevel;stroke-dasharray:none;stroke-dashoffset:0" transform="matrix(-1 0 0 1 -17.27 -112.585)"/><path d="M25.437 134.849H38.92M25.437 138.641H38.92M25.437 146.182H38.92" style="fill:none;stroke:#ccc;stroke-width:.264583px;stroke-linecap:butt;stroke-linejoin:miter;stroke-opacity:1" transform="translate(-17.27 -112.585)"/><path d="M25.437 135.194v3.212" style="fill:none;stroke:#000;stroke-width:.264583px;stroke-linecap:butt;stroke-linejoin:miter;stroke-opacity:1;marker-start:url(#a);marker-end:url(#a)" transform="translate(-17.27 -112.585)"/><path d="M25.437 138.909v6.631" style="fill:none;stroke:#000;stroke-width:.264583px;stroke-linecap:butt;stroke-linejoin:miter;stroke-opacity:1;marker-start:url(#b);marker-end:url(#b)" transform="translate(-17.27 -112.585)"/><text xml:space="preserve" style="font-size:14.6667px;line-height:1.25;font-family:sans-serif;white-space:pre;shape-inside:url(#c)" transform="translate(-10.33 -99.71)scale(.26458)"><tspan x="44.539" y="470.238">H1</tspan></text><text xml:space="preserve" style="font-size:14.6667px;line-height:1.25;font-family:sans-serif;white-space:pre;shape-inside:url(#d)" transform="translate(-9.303 -99.855)scale(.26458)"><tspan x="41.141" y="495.27">H2</tspan></text><path d="M38.786 168.179v-21.865" style="fill:none;stroke:#ccc;stroke-width:.264583px;stroke-linecap:butt;stroke-linejoin:miter;stroke-opacity:1" transform="translate(-17.27 -112.585)"/><path d="M52.667 134.849h28.429v3.792H52.667v-3.792" style="fill:#fff;stroke:#000;stroke-width:.264583px;stroke-linecap:butt;stroke-linejoin:miter;stroke-opacity:1" transform="translate(-17.27 -112.585)"/><path d="M41.909 138.641h1.615v7.541h-1.615zM90.239 138.641h1.615v7.541h-1.615z" style="fill:#fff;stroke:#1a1a1a;stroke-width:.264583;stroke-linejoin:bevel;stroke-dasharray:none;stroke-dashoffset:0" transform="translate(-17.27 -112.585)"/><path d="M41.909 159.796v-13.482M43.524 159.663v-13.481M94.844 168.18v-21.865M52.667 134.849v-13.481M81.096 134.717v-13.482" style="fill:none;stroke:#ccc;stroke-width:.264583px;stroke-linecap:butt;stroke-linejoin:miter;stroke-opacity:1" transform="translate(-17.27 -112.585)"/><path d="M82.956 134.849h3.515v3.792h-3.515z" style="fill:#fff;stroke:#000;stroke-width:.264583;stroke-linejoin:bevel;stroke-dasharray:none;stroke-dashoffset:0" transform="translate(-17.27 -112.585)"/><path d="M-50.807 134.849h3.515v3.792h-3.515z" style="fill:#fff;stroke:#000;stroke-width:.264583;stroke-linejoin:bevel;stroke-dasharray:none;stroke-dashoffset:0" transform="matrix(-1 0 0 1 -17.27 -112.585)"/><path d="m52.667 121.368 28.429-.133" style="fill:none;stroke:#000;stroke-width:.264583px;stroke-linecap:butt;stroke-linejoin:miter;stroke-opacity:1;marker-start:url(#a);marker-end:url(#a)" transform="translate(-17.27 -112.585)"/><path d="m38.96 167.294 55.71-.132" style="fill:none;stroke:#000;stroke-width:.264583px;stroke-linecap:butt;stroke-linejoin:miter;stroke-opacity:1;marker-start:url(#e);marker-end:url(#e)" transform="translate(-17.27 -112.585)"/><path d="M82.956 134.717v-13.482M86.47 134.849v-13.481" style="fill:none;stroke:#ccc;stroke-width:.264583px;stroke-linecap:butt;stroke-linejoin:miter;stroke-opacity:1" transform="translate(-17.27 -112.585)"/><path d="M82.984 121.235h3.46" style="fill:none;stroke:#000;stroke-width:.264584px;stroke-linecap:butt;stroke-linejoin:miter;stroke-opacity:1;marker-start:url(#a);marker-end:url(#a)" transform="translate(-17.27 -112.585)"/><text xml:space="preserve" style="font-size:14.6667px;line-height:1.25;font-family:sans-serif;white-space:pre;shape-inside:url(#f)" transform="translate(-10.686 -97.574)scale(.26458)"><tspan x="220.869" y="397.592">D1</tspan></text><text xml:space="preserve" style="font-size:14.6667px;line-height:1.25;font-family:sans-serif;white-space:pre;shape-inside:url(#g);display:inline" transform="translate(6.619 -97.829)scale(.26458)"><tspan x="220.869" y="397.592">D2</tspan></text><text xml:space="preserve" style="font-size:14.6667px;line-height:1.25;font-family:sans-serif;white-space:pre;shape-inside:url(#h)" transform="translate(-11.197 -102.02)scale(.26458)"><tspan x="225.811" y="605.602">D3</tspan></text><path d="M38.968 159.463h2.886" style="fill:none;stroke:#000;stroke-width:.264584px;stroke-linecap:butt;stroke-linejoin:miter;stroke-opacity:1;marker-start:url(#i);marker-end:url(#i)" transform="translate(-17.27 -112.585)"/><path d="M43.733 154.438h2.886" style="fill:none;stroke:#000;stroke-width:.264584px;stroke-linecap:butt;stroke-linejoin:miter;stroke-opacity:1;marker-start:url(#j)" transform="translate(-17.27 -112.585)"/><path d="M41.656 154.438h-1.209" style="fill:none;stroke:#000;stroke-width:.264584px;stroke-linecap:butt;stroke-linejoin:miter;stroke-opacity:1;marker-start:url(#k)" transform="translate(-17.27 -112.585)"/><text xml:space="preserve" style="font-size:14.6667px;line-height:1.25;font-family:sans-serif;white-space:pre;shape-inside:url(#l)" transform="translate(11.501 -93.516)scale(.26458)"><tspan x="40.926" y="547.283">L3</tspan></text><text xml:space="preserve" style="font-size:14.6667px;line-height:1.25;font-family:sans-serif;white-space:pre;shape-inside:url(#m)" transform="translate(-26.348 -97.022)scale(.26458)"><tspan x="212.051" y="528.645">L2</tspan></text><path d="M81.096 152.123V138.64M84.581 152.255v-13.481" style="fill:none;stroke:#ccc;stroke-width:.264583px;stroke-linecap:butt;stroke-linejoin:miter;stroke-opacity:1" transform="translate(-17.27 -112.585)"/><path d="M81.38 151.846h2.887" style="fill:none;stroke:#000;stroke-width:.264584px;stroke-linecap:butt;stroke-linejoin:miter;stroke-opacity:1;marker-start:url(#n);marker-end:url(#n)" transform="translate(-17.27 -112.585)"/><text xml:space="preserve" style="font-size:14.6667px;line-height:1.25;font-family:sans-serif;white-space:pre;shape-inside:url(#o);display:inline" transform="translate(52.65 -101.06)scale(.26458)"><tspan x="40.926" y="547.283">L1</tspan></text></svg>