<svg xmlns="http://www.w3.org/2000/svg" width="600" height="3000" viewBox="0 0 158.75 793.75"><defs><path id="B" d="M212.051 515.668h37.756v30.921h-37.756z"/><path id="A" d="M40.926 534.307h36.809v34.185H40.926z"/><path id="w" d="M225.81 592.624h42.109v25.752H225.81z"/><path id="u" d="M220.869 384.616h32.064v18.803h-32.064z"/><path id="s" d="M41.14 482.293h29.098v22.732H41.14z"/><path id="r" d="M44.538 457.262h26.485v22.235H44.538z"/><path id="p" d="M98.868 312.083h54.207v35.578H98.868z"/><path id="o" d="M95.955 129.876h41.818v37.692H95.955z"/><path id="l" d="M423.056 76.869h56.465v42.416h-56.465z"/><path id="k" d="M523.597 51.569h50.522v33.908h-50.522z"/><path id="j" d="M438.451 48.306h62.945v46.19h-62.945z"/><path id="i" d="M360.593 50.473h44.436v41.779h-44.436z"/><path id="h" d="M260.613 54.171h48.415v35.5h-48.415z"/><path id="a" d="M18.278 18.44h140.027v50.027H18.278z"/><path id="m" d="M423.056 76.869h56.465v42.416h-56.465z"/><path id="v" d="M220.869 384.616h32.064v18.803h-32.064z"/><path id="D" d="M40.926 534.307h36.809v34.185H40.926z"/><marker id="b" markerHeight="1" markerWidth="1" orient="auto-start-reverse" preserveAspectRatio="xMidYMid" refX="0" refY="0" style="overflow:visible" viewBox="0 0 1 1"><path d="M3-3 0 0l3 3" style="fill:none;stroke:context-stroke;stroke-width:1;stroke-linecap:butt" transform="rotate(180 .125 0)"/></marker><marker id="c" markerHeight="1" markerWidth="1" orient="auto-start-reverse" preserveAspectRatio="xMidYMid" refX="0" refY="0" style="overflow:visible" viewBox="0 0 1 1"><path d="M3-3 0 0l3 3" style="fill:none;stroke:context-stroke;stroke-width:1;stroke-linecap:butt" transform="rotate(180 .125 0)"/></marker><marker id="d" markerHeight="1" markerWidth="1" orient="auto-start-reverse" preserveAspectRatio="xMidYMid" refX="0" refY="0" style="overflow:visible" viewBox="0 0 1 1"><path d="M3-3 0 0l3 3" style="fill:none;stroke:context-stroke;stroke-width:1;stroke-linecap:butt" transform="rotate(180 .125 0)"/></marker><marker id="e" markerHeight="1" markerWidth="1" orient="auto-start-reverse" preserveAspectRatio="xMidYMid" refX="0" refY="0" style="overflow:visible" viewBox="0 0 1 1"><path d="M3-3 0 0l3 3" style="fill:none;stroke:context-stroke;stroke-width:1;stroke-linecap:butt" transform="rotate(180 .125 0)"/></marker><marker id="f" markerHeight="1" markerWidth="1" orient="auto-start-reverse" preserveAspectRatio="xMidYMid" refX="0" refY="0" style="overflow:visible" viewBox="0 0 1 1"><path d="M3-3 0 0l3 3" style="fill:none;stroke:context-stroke;stroke-width:1;stroke-linecap:butt" transform="rotate(180 .125 0)"/></marker><marker id="g" markerHeight="1" markerWidth="1" orient="auto-start-reverse" preserveAspectRatio="xMidYMid" refX="0" refY="0" style="overflow:visible" viewBox="0 0 1 1"><path d="M3-3 0 0l3 3" style="fill:none;stroke:context-stroke;stroke-width:1;stroke-linecap:butt" transform="rotate(180 .125 0)"/></marker><marker id="n" markerHeight="1" markerWidth="1" orient="auto-start-reverse" preserveAspectRatio="xMidYMid" refX="0" refY="0" style="overflow:visible" viewBox="0 0 1 1"><path d="M3-3 0 0l3 3" style="fill:none;stroke:context-stroke;stroke-width:1;stroke-linecap:butt" transform="rotate(180 .125 0)"/></marker><marker id="q" markerHeight="1" markerWidth="1" orient="auto-start-reverse" preserveAspectRatio="xMidYMid" refX="0" refY="0" style="overflow:visible" viewBox="0 0 1 1"><path d="M3-3 0 0l3 3" style="fill:none;stroke:context-stroke;stroke-width:1;stroke-linecap:butt" transform="rotate(180 .125 0)"/></marker><marker id="t" markerHeight="1" markerWidth="1" orient="auto-start-reverse" preserveAspectRatio="xMidYMid" refX="0" refY="0" style="overflow:visible" viewBox="0 0 1 1"><path d="M3-3 0 0l3 3" style="fill:none;stroke:context-stroke;stroke-width:1;stroke-linecap:butt" transform="rotate(180 .125 0)"/></marker><marker id="x" markerHeight="1" markerWidth="1" orient="auto-start-reverse" preserveAspectRatio="xMidYMid" refX="0" refY="0" style="overflow:visible" viewBox="0 0 1 1"><path d="M3-3 0 0l3 3" style="fill:none;stroke:context-stroke;stroke-width:1;stroke-linecap:butt" transform="rotate(180 .125 0)"/></marker><marker id="y" markerHeight="1" markerWidth="1" orient="auto-start-reverse" preserveAspectRatio="xMidYMid" refX="0" refY="0" style="overflow:visible" viewBox="0 0 1 1"><path d="M3-3 0 0l3 3" style="fill:none;stroke:context-stroke;stroke-width:1;stroke-linecap:butt" transform="rotate(180 .125 0)"/></marker><marker id="z" markerHeight="1" markerWidth="1" orient="auto-start-reverse" preserveAspectRatio="xMidYMid" refX="0" refY="0" style="overflow:visible" viewBox="0 0 1 1"><path d="M3-3 0 0l3 3" style="fill:none;stroke:context-stroke;stroke-width:1;stroke-linecap:butt" transform="rotate(180 .125 0)"/></marker><marker id="C" markerHeight="1" markerWidth="1" orient="auto-start-reverse" preserveAspectRatio="xMidYMid" refX="0" refY="0" style="overflow:visible" viewBox="0 0 1 1"><path d="M3-3 0 0l3 3" style="fill:none;stroke:context-stroke;stroke-width:1;stroke-linecap:butt" transform="rotate(180 .125 0)"/></marker></defs><path d="M17.401 112.717h83.476v63.682H17.401z" style="fill:#fff;stroke:#fff;stroke-width:.264583;stroke-linejoin:bevel;stroke-dasharray:none;stroke-dashoffset:0"/><path d="M38.919 134.849h55.925v11.333H90.24v-7.54H43.524v7.54h-4.605v-11.333" style="fill:#e6e6e6;stroke:#000;stroke-width:.264583px;stroke-linecap:butt;stroke-linejoin:miter;stroke-opacity:1"/><path d="M20.693 29.587h125.36v66.08H20.693z" style="fill:#fff;stroke:#fff;stroke-width:.264583;stroke-linejoin:bevel;stroke-dasharray:none;stroke-dashoffset:0"/><text xml:space="preserve" style="font-size:14.6667px;line-height:1.25;font-family:sans-serif;white-space:pre;shape-inside:url(#a);display:inline" transform="scale(.26458)"><tspan x="18.277" y="31.416">ring.svg</tspan></text><circle cx="62.012" cy="62.684" r="27.963" style="fill:#fff;stroke:#4d4d4d;stroke-width:.264583;stroke-linejoin:bevel"/><circle cx="62.012" cy="62.684" r="14.214" style="fill:#fff;stroke:#4d4d4d;stroke-width:.26458333;stroke-linejoin:bevel"/><circle cx="62.012" cy="62.635" r="17.866" style="fill:none;stroke:#ccc;stroke-width:.264583;stroke-linejoin:bevel;stroke-dasharray:none;stroke-dashoffset:0"/><circle cx="62.012" cy="44.637" r="1.754" style="fill:none;stroke:#4d4d4d;stroke-width:.264583;stroke-linejoin:bevel;stroke-dasharray:none;stroke-dashoffset:0"/><circle cx="79.878" cy="62.635" r="1.754" style="fill:none;stroke:#4d4d4d;stroke-width:.264583;stroke-linejoin:bevel;stroke-dasharray:none;stroke-dashoffset:0"/><circle cx="62.012" cy="80.634" r="1.754" style="fill:none;stroke:#4d4d4d;stroke-width:.264583;stroke-linejoin:bevel;stroke-dasharray:none;stroke-dashoffset:0"/><circle cx="44.146" cy="62.635" r="1.754" style="fill:none;stroke:#4d4d4d;stroke-width:.264583;stroke-linejoin:bevel;stroke-dasharray:none;stroke-dashoffset:0"/><circle cx="74.342" cy="49.664" r="1.754" style="fill:none;stroke:#4d4d4d;stroke-width:.264583;stroke-linejoin:bevel;stroke-dasharray:none;stroke-dashoffset:0"/><circle cx="49.167" cy="49.844" r="1.754" style="fill:none;stroke:#4d4d4d;stroke-width:.264583;stroke-linejoin:bevel;stroke-dasharray:none;stroke-dashoffset:0"/><circle cx="48.984" cy="75.142" r="1.754" style="fill:none;stroke:#4d4d4d;stroke-width:.264583;stroke-linejoin:bevel;stroke-dasharray:none;stroke-dashoffset:0"/><circle cx="75.068" cy="75.104" r="1.754" style="fill:none;stroke:#4d4d4d;stroke-width:.264583;stroke-linejoin:bevel;stroke-dasharray:none;stroke-dashoffset:0"/><circle cx="62.012" cy="62.686" r="25.105" style="fill:none;stroke:#ccc;stroke-width:.264583;stroke-linejoin:bevel;stroke-dasharray:none;stroke-dashoffset:0"/><circle cx="62.012" cy="62.686" r="23.49" style="fill:none;stroke:#ccc;stroke-width:.264583;stroke-linejoin:bevel;stroke-dasharray:none;stroke-dashoffset:0"/><path d="m62.012 37.58 2.75 1.777 3.013-1.106 1.713 2.166 2.968-.516.664 2.087 3.108-.329.861 3.014 2.58.168.247 2.64 2.563.856.1 3.001 2.594 1.663-.66 2.94 2.12 1.84-1.317 2.968 1.8 1.937-1.796 1.835 1.471 2.192-2.279 2.72.549 3.203-1.957.582-.013 3.102-2.17.302-.37 2.991-2.867.57-1.326 2.996-2.68-.105-1.05 2.362-3.055-.51-1.553 2.135-2.9-1.092-3.108 1.822-2.324-1.73-2.28 1.304-1.72-2.056-2.528.87-1.684-2.498-3.81-.427-.568-2.62-3.241-.609-.517-2.997-2.764-1.275.596-2.229-2.352-1.226.619-3.113-2.062-1.661 1.24-2.714-1.71-2.124 1.747-2.487-1.2-2.726 2.165-1.882-.518-3.17 2.858-1.97.481-3.488s3.063-.99 3.2-1.123c.139-.133.928-3.089.928-3.089l3.883-.513 1.906-2.726 3 .646 2.076-2.156 2.693 1.061z" style="fill:none;stroke:#000;stroke-width:.264583px;stroke-linecap:butt;stroke-linejoin:miter;stroke-opacity:1"/><path d="M62.012 48.47h43.395M62.012 76.898H97.67" style="fill:none;stroke:#ccc;stroke-width:.264583px;stroke-linecap:butt;stroke-linejoin:miter;stroke-opacity:1"/><path d="M97.67 48.47v28.428" style="fill:none;stroke:#000;stroke-width:.264583px;stroke-linecap:butt;stroke-linejoin:miter;stroke-opacity:1;marker-start:url(#b);marker-end:url(#b)"/><path d="M62.012 44.77h43.395" style="fill:none;stroke:#ccc;stroke-width:.264584px;stroke-linecap:butt;stroke-linejoin:miter;stroke-opacity:1"/><path d="M105.407 44.77v3.627" style="fill:none;stroke:#000;stroke-width:.264584px;stroke-linecap:butt;stroke-linejoin:miter;stroke-opacity:1;marker-start:url(#c);marker-end:url(#c)"/><path d="M62.012 39.196h53.474" style="fill:none;stroke:#ccc;stroke-width:.264584px;stroke-linecap:butt;stroke-linejoin:miter;stroke-opacity:1"/><path d="M115.486 39.196v6.439" style="fill:none;stroke:#000;stroke-width:.264584px;stroke-linecap:butt;stroke-linejoin:miter;stroke-opacity:1;marker-start:url(#d)"/><path d="M62.02 37.55H125.6M62.012 34.72h75.267M62.012 90.646h75.267" style="fill:none;stroke:#ccc;stroke-width:.264584px;stroke-linecap:butt;stroke-linejoin:miter;stroke-opacity:1"/><path d="M137.28 34.974v55.672" style="fill:none;stroke:#000;stroke-width:.264584px;stroke-linecap:butt;stroke-linejoin:miter;stroke-opacity:1;marker-start:url(#e);marker-end:url(#e)"/><path d="M29.337 60.882h14.809M29.337 64.389h14.809" style="fill:none;stroke:#ccc;stroke-width:.264583px;stroke-linecap:butt;stroke-linejoin:miter;stroke-opacity:1"/><path d="M29.337 60.96v3.229" style="fill:none;stroke:#000;stroke-width:.264583px;stroke-linecap:butt;stroke-linejoin:miter;stroke-opacity:1;marker-start:url(#f);marker-end:url(#f)"/><path d="M115.486 37.476v-1.263" style="fill:none;stroke:#000;stroke-width:.264584px;stroke-linecap:butt;stroke-linejoin:miter;stroke-opacity:1;marker-start:url(#g)"/><text xml:space="preserve" style="font-size:14.6667px;line-height:1.25;font-family:sans-serif;white-space:pre;shape-inside:url(#h);display:inline" transform="translate(29.513 45.778)scale(.26458)"><tspan x="260.613" y="67.148">D1</tspan></text><text xml:space="preserve" style="font-size:14.6667px;line-height:1.25;font-family:sans-serif;white-space:pre;shape-inside:url(#i);display:inline" transform="translate(10.965 31.135)scale(.26458)"><tspan x="360.594" y="63.449">L1</tspan></text><text xml:space="preserve" style="font-size:14.6667px;line-height:1.25;font-family:sans-serif;white-space:pre;shape-inside:url(#j);display:inline" transform="translate(22.08 47.082)scale(.26458)"><tspan x="438.451" y="61.283">D3</tspan></text><text xml:space="preserve" style="font-size:14.6667px;line-height:1.25;font-family:sans-serif;white-space:pre;shape-inside:url(#k);display:inline" transform="translate(-116.408 47.08)scale(.26458)"><tspan x="523.596" y="64.545">D2</tspan></text><text xml:space="preserve" style="font-size:14.6667px;line-height:1.25;font-family:sans-serif;white-space:pre;shape-inside:url(#l);display:inline" transform="translate(4.117 22.201)scale(.26458)"><tspan x="423.057" y="89.846">L2</tspan></text><text xml:space="preserve" style="font-size:14.6667px;line-height:1.25;font-family:sans-serif;white-space:pre;shape-inside:url(#m);display:inline" transform="translate(14.7 15.445)scale(.26458)"><tspan x="423.057" y="89.846">L3</tspan></text><path d="M125.599 34.952v2.599" style="fill:none;stroke:#000;stroke-width:.264584px;stroke-linecap:butt;stroke-linejoin:miter;stroke-opacity:1;marker-start:url(#n);marker-end:url(#n)"/><text xml:space="preserve" style="font-size:14.6667px;line-height:1.25;font-family:sans-serif;white-space:pre;shape-inside:url(#o);display:inline" transform="scale(.26458)"><tspan x="95.955" y="142.854">N1</tspan></text><text xml:space="preserve" style="font-size:14.6667px;line-height:1.25;font-family:sans-serif;white-space:pre;shape-inside:url(#p);display:inline" transform="scale(.26458)"><tspan x="98.867" y="325.061">N2</tspan></text><path d="m38.43 51.25-7.399-12.548 10.864 7.343" style="fill:none;stroke:#999;stroke-width:.264583px;stroke-linecap:butt;stroke-linejoin:miter;stroke-opacity:1;marker-start:url(#b);marker-end:url(#b)"/><path d="m42.744 65.252-10.508 17.46 13.879-6.115" style="fill:none;stroke:#999;stroke-width:.264583px;stroke-linecap:butt;stroke-linejoin:miter;stroke-opacity:1;marker-start:url(#b);marker-end:url(#b)"/><path d="M52.667 134.849h28.429v3.792H52.667z" style="fill:none;stroke:#e6e6e6;stroke-width:.264583;stroke-linejoin:bevel;stroke-dasharray:none;stroke-dashoffset:0"/><path d="M81.096 134.849h1.86v3.792h-1.86z" style="fill:none;stroke:#000;stroke-width:.264583;stroke-linejoin:bevel;stroke-dasharray:none;stroke-dashoffset:0"/><path d="M-52.667 134.849h1.86v3.792h-1.86z" style="fill:none;stroke:#000;stroke-width:.264583;stroke-linejoin:bevel;stroke-dasharray:none;stroke-dashoffset:0" transform="scale(-1 1)"/><path d="M25.437 134.849H38.92M25.437 138.641H38.92M25.437 146.182H38.92" style="fill:none;stroke:#ccc;stroke-width:.264583px;stroke-linecap:butt;stroke-linejoin:miter;stroke-opacity:1"/><path d="M25.437 135.194v3.212" style="fill:none;stroke:#000;stroke-width:.264583px;stroke-linecap:butt;stroke-linejoin:miter;stroke-opacity:1;marker-start:url(#b);marker-end:url(#b)"/><path d="M25.437 138.909v6.631" style="fill:none;stroke:#000;stroke-width:.264583px;stroke-linecap:butt;stroke-linejoin:miter;stroke-opacity:1;marker-start:url(#q);marker-end:url(#q)"/><text xml:space="preserve" style="font-size:14.6667px;line-height:1.25;font-family:sans-serif;white-space:pre;shape-inside:url(#r)" transform="translate(6.94 12.875)scale(.26458)"><tspan x="44.539" y="470.238">H1</tspan></text><text xml:space="preserve" style="font-size:14.6667px;line-height:1.25;font-family:sans-serif;white-space:pre;shape-inside:url(#s)" transform="translate(7.966 12.73)scale(.26458)"><tspan x="41.141" y="495.27">H2</tspan></text><path d="M38.786 168.179v-21.865" style="fill:none;stroke:#ccc;stroke-width:.264583px;stroke-linecap:butt;stroke-linejoin:miter;stroke-opacity:1"/><path d="M52.667 134.849h28.429v3.792H52.667v-3.792" style="fill:#fff;stroke:#000;stroke-width:.264583px;stroke-linecap:butt;stroke-linejoin:miter;stroke-opacity:1"/><path d="M41.909 138.641h1.615v7.541h-1.615zM90.239 138.641h1.615v7.541h-1.615z" style="fill:#fff;stroke:#1a1a1a;stroke-width:.264583;stroke-linejoin:bevel;stroke-dasharray:none;stroke-dashoffset:0"/><path d="M41.909 159.796v-13.482M43.524 159.663v-13.481M94.844 168.18v-21.865M52.667 134.849v-13.481M81.096 134.717v-13.482" style="fill:none;stroke:#ccc;stroke-width:.264583px;stroke-linecap:butt;stroke-linejoin:miter;stroke-opacity:1"/><path d="M82.956 134.849h3.515v3.792h-3.515z" style="fill:#fff;stroke:#000;stroke-width:.264583;stroke-linejoin:bevel;stroke-dasharray:none;stroke-dashoffset:0"/><path d="M-50.807 134.849h3.515v3.792h-3.515z" style="fill:#fff;stroke:#000;stroke-width:.264583;stroke-linejoin:bevel;stroke-dasharray:none;stroke-dashoffset:0" transform="scale(-1 1)"/><path d="m52.667 121.368 28.429-.133" style="fill:none;stroke:#000;stroke-width:.264583px;stroke-linecap:butt;stroke-linejoin:miter;stroke-opacity:1;marker-start:url(#b);marker-end:url(#b)"/><path d="m38.96 167.294 55.71-.132" style="fill:none;stroke:#000;stroke-width:.264583px;stroke-linecap:butt;stroke-linejoin:miter;stroke-opacity:1;marker-start:url(#t);marker-end:url(#t)"/><path d="M82.956 134.717v-13.482M86.47 134.849v-13.481" style="fill:none;stroke:#ccc;stroke-width:.264583px;stroke-linecap:butt;stroke-linejoin:miter;stroke-opacity:1"/><path d="M82.984 121.235h3.46" style="fill:none;stroke:#000;stroke-width:.264584px;stroke-linecap:butt;stroke-linejoin:miter;stroke-opacity:1;marker-start:url(#b);marker-end:url(#b)"/><text xml:space="preserve" style="font-size:14.6667px;line-height:1.25;font-family:sans-serif;white-space:pre;shape-inside:url(#u)" transform="translate(6.583 15.011)scale(.26458)"><tspan x="220.869" y="397.592">D1</tspan></text><text xml:space="preserve" style="font-size:14.6667px;line-height:1.25;font-family:sans-serif;white-space:pre;shape-inside:url(#v);display:inline" transform="translate(23.888 14.756)scale(.26458)"><tspan x="220.869" y="397.592">D2</tspan></text><text xml:space="preserve" style="font-size:14.6667px;line-height:1.25;font-family:sans-serif;white-space:pre;shape-inside:url(#w)" transform="translate(6.073 10.564)scale(.26458)"><tspan x="225.811" y="605.602">D3</tspan></text><path d="M38.968 159.463h2.886" style="fill:none;stroke:#000;stroke-width:.264584px;stroke-linecap:butt;stroke-linejoin:miter;stroke-opacity:1;marker-start:url(#x);marker-end:url(#x)"/><path d="M43.733 154.438h2.886" style="fill:none;stroke:#000;stroke-width:.264584px;stroke-linecap:butt;stroke-linejoin:miter;stroke-opacity:1;marker-start:url(#y)"/><path d="M41.656 154.438h-1.209" style="fill:none;stroke:#000;stroke-width:.264584px;stroke-linecap:butt;stroke-linejoin:miter;stroke-opacity:1;marker-start:url(#z)"/><text xml:space="preserve" style="font-size:14.6667px;line-height:1.25;font-family:sans-serif;white-space:pre;shape-inside:url(#A)" transform="translate(28.77 19.07)scale(.26458)"><tspan x="40.926" y="547.283">L3</tspan></text><text xml:space="preserve" style="font-size:14.6667px;line-height:1.25;font-family:sans-serif;white-space:pre;shape-inside:url(#B)" transform="translate(-9.078 15.563)scale(.26458)"><tspan x="212.051" y="528.645">L2</tspan></text><path d="M81.096 152.123V138.64M84.581 152.255v-13.481" style="fill:none;stroke:#ccc;stroke-width:.264583px;stroke-linecap:butt;stroke-linejoin:miter;stroke-opacity:1"/><path d="M81.38 151.846h2.887" style="fill:none;stroke:#000;stroke-width:.264584px;stroke-linecap:butt;stroke-linejoin:miter;stroke-opacity:1;marker-start:url(#C);marker-end:url(#C)"/><text xml:space="preserve" style="font-size:14.6667px;line-height:1.25;font-family:sans-serif;white-space:pre;shape-inside:url(#D);display:inline" transform="translate(69.918 11.526)scale(.26458)"><tspan x="40.926" y="547.283">L1</tspan></text></svg>