<svg xmlns="http://www.w3.org/2000/svg" width="600" height="3000" viewBox="0 0 158.75 793.75"><defs><path id="K" d="M446.714 1010.391h58.537v41.249h-58.537z"/><path id="J" d="M150.862 977.538h49.225v46.905h-49.225z"/><path id="I" d="M479.343 995.308h54.528v59.936h-54.528z"/><path id="z" d="M138.545 670.401h43.618v31.707h-43.618z"/><path id="y" d="M149.91 508.479h56.804v35.83H149.91z"/><path id="w" d="M363.359 611.63h45.86v37.984h-45.86z"/><path id="v" d="M339.814 548.847h50.754v38.249h-50.754z"/><path id="j" d="M37.828 268.431h49.001v47.119H37.828z"/><path id="i" d="M34.341 228.742h49.173v44.537H34.341z"/><path id="h" d="M24.712 134.635h47.599v27.6H24.712z"/><path id="f" d="M71.456 144.442h35.476v24.7H71.456z"/><path id="d" d="M48.042 128.98h33.215v22.711H48.042z"/><path id="c" d="M236.545 204.855h68.335v56.735h-68.335z"/><path id="a" d="M21.009 13.346h249.412v56.036H21.009z"/><path id="o" d="M71.456 144.442h35.476v24.7H71.456z"/><path id="q" d="M48.042 128.98h33.215v22.711H48.042z"/><path id="s" d="M24.712 134.635h47.599v27.6H24.712z"/><path id="t" d="M34.341 228.742h49.173v44.537H34.341z"/><path id="B" d="M24.712 134.635h47.599v27.6H24.712z"/><path id="D" d="M24.712 134.635h47.599v27.6H24.712z"/><marker id="b" markerHeight="1" markerWidth="1" orient="auto-start-reverse" preserveAspectRatio="xMidYMid" refX="0" refY="0" style="overflow:visible" viewBox="0 0 1 1"><path d="M-.211-4.106 6.21-.894a1 1 90 0 1 0 1.788L-.21 4.106A1.236 1.236 31.717 0 1-2 3v-6A1.236 1.236 148.283 0 1-.211-4.106" style="fill:context-stroke;fill-rule:evenodd;stroke:none" transform="scale(.7)"/></marker><marker id="e" markerHeight="1" markerWidth="1" orient="auto-start-reverse" preserveAspectRatio="xMidYMid" refX="0" refY="0" style="overflow:visible" viewBox="0 0 1 1"><path d="M-.211-4.106 6.21-.894a1 1 90 0 1 0 1.788L-.21 4.106A1.236 1.236 31.717 0 1-2 3v-6A1.236 1.236 148.283 0 1-.211-4.106" style="fill:context-stroke;fill-rule:evenodd;stroke:none" transform="scale(.7)"/></marker><marker id="g" markerHeight="1" markerWidth="1" orient="auto-start-reverse" preserveAspectRatio="xMidYMid" refX="0" refY="0" style="overflow:visible" viewBox="0 0 1 1"><path d="M-.211-4.106 6.21-.894a1 1 90 0 1 0 1.788L-.21 4.106A1.236 1.236 31.717 0 1-2 3v-6A1.236 1.236 148.283 0 1-.211-4.106" style="fill:context-stroke;fill-rule:evenodd;stroke:none" transform="scale(.7)"/></marker><marker id="k" markerHeight="1" markerWidth="1" orient="auto-start-reverse" preserveAspectRatio="xMidYMid" refX="0" refY="0" style="overflow:visible" viewBox="0 0 1 1"><path d="M-.211-4.106 6.21-.894a1 1 90 0 1 0 1.788L-.21 4.106A1.236 1.236 31.717 0 1-2 3v-6A1.236 1.236 148.283 0 1-.211-4.106" style="fill:context-stroke;fill-rule:evenodd;stroke:none" transform="scale(.7)"/></marker><marker id="l" markerHeight="1" markerWidth="1" orient="auto-start-reverse" preserveAspectRatio="xMidYMid" refX="0" refY="0" style="overflow:visible" viewBox="0 0 1 1"><path d="M-.211-4.106 6.21-.894a1 1 90 0 1 0 1.788L-.21 4.106A1.236 1.236 31.717 0 1-2 3v-6A1.236 1.236 148.283 0 1-.211-4.106" style="fill:context-stroke;fill-rule:evenodd;stroke:none" transform="scale(.7)"/></marker><marker id="n" markerHeight="1" markerWidth="1" orient="auto-start-reverse" preserveAspectRatio="xMidYMid" refX="0" refY="0" style="overflow:visible" viewBox="0 0 1 1"><path d="M-.211-4.106 6.21-.894a1 1 90 0 1 0 1.788L-.21 4.106A1.236 1.236 31.717 0 1-2 3v-6A1.236 1.236 148.283 0 1-.211-4.106" style="fill:context-stroke;fill-rule:evenodd;stroke:none" transform="scale(.7)"/></marker><marker id="p" markerHeight="1" markerWidth="1" orient="auto-start-reverse" preserveAspectRatio="xMidYMid" refX="0" refY="0" style="overflow:visible" viewBox="0 0 1 1"><path d="M-.211-4.106 6.21-.894a1 1 90 0 1 0 1.788L-.21 4.106A1.236 1.236 31.717 0 1-2 3v-6A1.236 1.236 148.283 0 1-.211-4.106" style="fill:context-stroke;fill-rule:evenodd;stroke:none" transform="scale(.7)"/></marker><marker id="r" markerHeight="1" markerWidth="1" orient="auto-start-reverse" preserveAspectRatio="xMidYMid" refX="0" refY="0" style="overflow:visible" viewBox="0 0 1 1"><path d="M-.211-4.106 6.21-.894a1 1 90 0 1 0 1.788L-.21 4.106A1.236 1.236 31.717 0 1-2 3v-6A1.236 1.236 148.283 0 1-.211-4.106" style="fill:context-stroke;fill-rule:evenodd;stroke:none" transform="scale(.7)"/></marker><marker id="u" markerHeight="1" markerWidth="1" orient="auto-start-reverse" preserveAspectRatio="xMidYMid" refX="0" refY="0" style="overflow:visible" viewBox="0 0 1 1"><path d="M-.211-4.106 6.21-.894a1 1 90 0 1 0 1.788L-.21 4.106A1.236 1.236 31.717 0 1-2 3v-6A1.236 1.236 148.283 0 1-.211-4.106" style="fill:context-stroke;fill-rule:evenodd;stroke:none" transform="scale(.7)"/></marker><marker id="x" markerHeight="1" markerWidth="1" orient="auto-start-reverse" preserveAspectRatio="xMidYMid" refX="0" refY="0" style="overflow:visible" viewBox="0 0 1 1"><path d="M-.211-4.106 6.21-.894a1 1 90 0 1 0 1.788L-.21 4.106A1.236 1.236 31.717 0 1-2 3v-6A1.236 1.236 148.283 0 1-.211-4.106" style="fill:context-stroke;fill-rule:evenodd;stroke:none" transform="scale(.7)"/></marker><marker id="m" markerHeight="1" markerWidth="1" orient="auto-start-reverse" preserveAspectRatio="xMidYMid" refX="0" refY="0" style="overflow:visible" viewBox="0 0 1 1"><path d="M-.211-4.106 6.21-.894a1 1 90 0 1 0 1.788L-.21 4.106A1.236 1.236 31.717 0 1-2 3v-6A1.236 1.236 148.283 0 1-.211-4.106" style="fill:context-stroke;fill-rule:evenodd;stroke:none" transform="scale(.7)"/></marker><marker id="A" markerHeight="1" markerWidth="1" orient="auto-start-reverse" preserveAspectRatio="xMidYMid" refX="0" refY="0" style="overflow:visible" viewBox="0 0 1 1"><path d="M-.211-4.106 6.21-.894a1 1 90 0 1 0 1.788L-.21 4.106A1.236 1.236 31.717 0 1-2 3v-6A1.236 1.236 148.283 0 1-.211-4.106" style="fill:context-stroke;fill-rule:evenodd;stroke:none" transform="scale(.7)"/></marker><marker id="C" markerHeight="1" markerWidth="1" orient="auto-start-reverse" preserveAspectRatio="xMidYMid" refX="0" refY="0" style="overflow:visible" viewBox="0 0 1 1"><path d="M-.211-4.106 6.21-.894a1 1 90 0 1 0 1.788L-.21 4.106A1.236 1.236 31.717 0 1-2 3v-6A1.236 1.236 148.283 0 1-.211-4.106" style="fill:context-stroke;fill-rule:evenodd;stroke:none" transform="scale(.7)"/></marker><marker id="E" markerHeight="1" markerWidth="1" orient="auto-start-reverse" preserveAspectRatio="xMidYMid" refX="0" refY="0" style="overflow:visible" viewBox="0 0 1 1"><path d="M-.211-4.106 6.21-.894a1 1 90 0 1 0 1.788L-.21 4.106A1.236 1.236 31.717 0 1-2 3v-6A1.236 1.236 148.283 0 1-.211-4.106" style="fill:context-stroke;fill-rule:evenodd;stroke:none" transform="scale(.7)"/></marker><marker id="F" markerHeight="1" markerWidth="1" orient="auto-start-reverse" preserveAspectRatio="xMidYMid" refX="0" refY="0" style="overflow:visible" viewBox="0 0 1 1"><path d="M-.211-4.106 6.21-.894a1 1 90 0 1 0 1.788L-.21 4.106A1.236 1.236 31.717 0 1-2 3v-6A1.236 1.236 148.283 0 1-.211-4.106" style="fill:context-stroke;fill-rule:evenodd;stroke:none" transform="scale(.7)"/></marker><marker id="H" markerHeight="1" markerWidth="1" orient="auto-start-reverse" preserveAspectRatio="xMidYMid" refX="0" refY="0" style="overflow:visible" viewBox="0 0 1 1"><path d="M-.211-4.106 6.21-.894a1 1 90 0 1 0 1.788L-.21 4.106A1.236 1.236 31.717 0 1-2 3v-6A1.236 1.236 148.283 0 1-.211-4.106" style="fill:context-stroke;fill-rule:evenodd;stroke:none" transform="scale(.7)"/></marker><marker id="G" markerHeight="1" markerWidth="1" orient="auto-start-reverse" preserveAspectRatio="xMidYMid" refX="0" refY="0" style="overflow:visible" viewBox="0 0 1 1"><path d="M-.211-4.106 6.21-.894a1 1 90 0 1 0 1.788L-.21 4.106A1.236 1.236 31.717 0 1-2 3v-6A1.236 1.236 148.283 0 1-.211-4.106" style="fill:context-stroke;fill-rule:evenodd;stroke:none" transform="scale(.7)"/></marker></defs><path d="M24.19 219.881h117.063v76.539H24.19zM41.923 142.009h54.758v41.551H41.923zM19.028 16.088h59.429v97.371H19.028z" style="fill:#fff;stroke:#fff;stroke-width:.264583"/><text xml:space="preserve" style="font-size:14.6667px;line-height:1.25;font-family:sans-serif;white-space:pre;shape-inside:url(#a);display:inline" transform="scale(.26458)"><tspan x="21.01" y="26.322">rod.svg</tspan></text><path d="M45.825 31.767h1.717v75.98h-1.717z" style="fill:#5fbcd3;stroke:#5fbcd3;stroke-width:.264583"/><rect width="8.982" height="6.519" x="102.371" y="30.053" ry="1.792" style="fill:#5fbcd3;stroke:#5fbcd3;stroke-width:.264583"/><rect width="8.982" height="6.519" x="42.06" y="49" ry="1.792" style="fill:#5fbcd3;stroke:#5fbcd3;stroke-width:.264583"/><rect width="8.982" height="6.519" x="42.193" y="101.228" ry="1.792" style="fill:#5fbcd3;stroke:#5fbcd3;stroke-width:.264583"/><rect width="8.982" height="6.519" x="42.06" y="83.995" ry="1.792" style="fill:#5fbcd3;stroke:#5fbcd3;stroke-width:.264583"/><rect width="17.477" height="12.75" x="61.647" y="156.442" ry="3.505" style="fill:#5fbcd3;stroke:#5fbcd3;stroke-width:.264582"/><rect width="5.231" height="10.714" x="106.122" y="55.331" ry="0" style="fill:#2ca089;stroke:#2ca089;stroke-width:.264583"/><rect width="8.982" height="6.519" x="42.06" y="66.497" ry="1.792" style="fill:#5fbcd3;stroke:#5fbcd3;stroke-width:.264583"/><rect width="8.982" height="6.519" x="42.193" y="31.767" ry="1.792" style="fill:#5fbcd3;stroke:#5fbcd3;stroke-width:.264583"/><path d="M47.674 31.767h17.29M47.886 107.75h17.29" style="fill:none;stroke:#ccc;stroke-width:.264583px;stroke-linecap:butt;stroke-linejoin:miter;stroke-opacity:1"/><path d="m64.964 33.143.423 73.223" style="fill:none;stroke:#000;stroke-width:.264583px;stroke-linecap:butt;stroke-linejoin:miter;stroke-opacity:1;marker-start:url(#b);marker-end:url(#b)"/><text xml:space="preserve" style="font-size:14.6667px;line-height:1.25;font-family:sans-serif;white-space:pre;shape-inside:url(#c);display:inline" transform="translate(3.358 16.217)scale(.26458)"><tspan x="236.545" y="217.832">L1</tspan></text><path d="M28.403 31.767h17.29M28.403 38.418h17.29" style="fill:none;stroke:#ccc;stroke-width:.264583px;stroke-linecap:butt;stroke-linejoin:miter;stroke-opacity:1"/><path d="M28.403 33.075v4.276" style="fill:none;stroke:#000;stroke-width:.264583px;stroke-linecap:butt;stroke-linejoin:miter;stroke-opacity:1;marker-start:url(#b);marker-end:url(#b)"/><text xml:space="preserve" style="font-size:14.6667px;line-height:1.25;font-family:sans-serif;white-space:pre;shape-inside:url(#d);display:inline" transform="translate(10.587 -.934)scale(.26458)"><tspan x="48.043" y="141.957">L3</tspan></text><path d="M39.193 43.497h5.243" style="fill:none;stroke:#000;stroke-width:.264583px;stroke-linecap:butt;stroke-linejoin:miter;stroke-opacity:1;marker-end:url(#b)"/><path d="M53.106 43.417H48.91" style="fill:none;stroke:#000;stroke-width:.264583px;stroke-linecap:butt;stroke-linejoin:miter;stroke-opacity:1;marker-end:url(#e)"/><text xml:space="preserve" style="font-size:14.6667px;line-height:1.25;font-family:sans-serif;white-space:pre;shape-inside:url(#f);display:inline" transform="translate(15.388 3.207)scale(.26458)"><tspan x="71.455" y="157.418">L2</tspan></text><path d="M51.307 22.879v12.147M41.928 22.879v12.147" style="fill:none;stroke:#ccc;stroke-width:.264583px;stroke-linecap:butt;stroke-linejoin:miter;stroke-opacity:1"/><path d="M43.166 23.028h6.982" style="fill:none;stroke:#000;stroke-width:.264582px;stroke-linecap:butt;stroke-linejoin:miter;stroke-opacity:1;marker-start:url(#g);marker-end:url(#g)"/><text xml:space="preserve" style="font-size:14.6667px;line-height:1.25;font-family:sans-serif;white-space:pre;shape-inside:url(#h);display:inline" transform="translate(38.18 -17.22)scale(.26458)"><tspan x="24.711" y="147.611">L4</tspan></text><text xml:space="preserve" style="font-size:14.6667px;line-height:1.25;font-family:sans-serif;white-space:pre;shape-inside:url(#i);display:inline" transform="translate(22.845 -2.798)scale(.26458)"><tspan x="34.342" y="241.719">R3</tspan></text><path d="m37.501 59.187 3.86-3.558" style="fill:none;stroke:#000;stroke-width:.264583px;stroke-linecap:butt;stroke-linejoin:miter;stroke-opacity:1;marker-end:url(#b)"/><text xml:space="preserve" style="font-size:14.6667px;line-height:1.25;font-family:sans-serif;white-space:pre;shape-inside:url(#j);display:inline" transform="translate(13.47 4.49)scale(.26458)"><tspan x="37.828" y="281.408">N1</tspan></text><path d="m29.316 77.943 10.6 7.679" style="fill:none;stroke:#000;stroke-width:.264583px;stroke-linecap:butt;stroke-linejoin:miter;stroke-opacity:1;marker-end:url(#b)"/><path d="m29.304 78.079 10.6-7.679" style="fill:none;stroke:#000;stroke-width:.264583px;stroke-linecap:butt;stroke-linejoin:miter;stroke-opacity:1;marker-end:url(#k)"/><ellipse cx="63.37" cy="165.154" rx="1.477" ry="1.485" style="fill:#fff;stroke:#5fbcd3;stroke-width:.264582"/><ellipse cx="63.329" cy="160.814" rx="1.477" ry="1.485" style="fill:#fff;stroke:#5fbcd3;stroke-width:.264582"/><ellipse cx="77.567" cy="164.935" rx="1.477" ry="1.485" style="fill:#fff;stroke:#5fbcd3;stroke-width:.264582"/><ellipse cx="77.525" cy="160.596" rx="1.477" ry="1.485" style="fill:#fff;stroke:#5fbcd3;stroke-width:.264582"/><ellipse cx="-157.91" cy="73.204" rx="1.485" ry="1.477" style="fill:#fff;stroke:#5fbcd3;stroke-width:.264582" transform="rotate(-90)"/><ellipse cx="-157.952" cy="67.857" rx="1.485" ry="1.477" style="fill:#fff;stroke:#5fbcd3;stroke-width:.264582" transform="rotate(-90)"/><ellipse cx="-167.541" cy="73.155" rx="1.485" ry="1.477" style="fill:#fff;stroke:#5fbcd3;stroke-width:.264582" transform="rotate(-90)"/><ellipse cx="-167.583" cy="67.809" rx="1.485" ry="1.477" style="fill:#fff;stroke:#5fbcd3;stroke-width:.264582" transform="rotate(-90)"/><rect width="8.982" height="6.519" x="42.193" y="101.228" ry="1.792" style="fill:#5fbcd3;stroke:#5fbcd3;stroke-width:.264583"/><circle cx="43.078" cy="105.682" r=".759" style="fill:#fff;stroke:#5fbcd3;stroke-width:.264583"/><circle cx="43.057" cy="103.463" r=".759" style="fill:#fff;stroke:#5fbcd3;stroke-width:.264583"/><circle cx="50.374" cy="105.57" r=".759" style="fill:#fff;stroke:#5fbcd3;stroke-width:.264583"/><circle cx="50.353" cy="103.352" r=".759" style="fill:#fff;stroke:#5fbcd3;stroke-width:.264583"/><circle cx="-101.979" cy="48.132" r=".759" style="fill:#fff;stroke:#5fbcd3;stroke-width:.264583" transform="rotate(-90)"/><circle cx="-102" cy="45.384" r=".759" style="fill:#fff;stroke:#5fbcd3;stroke-width:.264583" transform="rotate(-90)"/><circle cx="-106.903" cy="48.107" r=".759" style="fill:#fff;stroke:#5fbcd3;stroke-width:.264583" transform="rotate(-90)"/><circle cx="-106.924" cy="45.36" r=".759" style="fill:#fff;stroke:#5fbcd3;stroke-width:.264583" transform="rotate(-90)"/><rect width="8.982" height="6.519" x="42.06" y="83.995" ry="1.792" style="fill:#5fbcd3;stroke:#5fbcd3;stroke-width:.264583"/><circle cx="42.946" cy="88.449" r=".759" style="fill:#fff;stroke:#5fbcd3;stroke-width:.264583"/><circle cx="42.925" cy="86.23" r=".759" style="fill:#fff;stroke:#5fbcd3;stroke-width:.264583"/><circle cx="50.242" cy="88.337" r=".759" style="fill:#fff;stroke:#5fbcd3;stroke-width:.264583"/><circle cx="50.221" cy="86.119" r=".759" style="fill:#fff;stroke:#5fbcd3;stroke-width:.264583"/><circle cx="-84.746" cy="48" r=".759" style="fill:#fff;stroke:#5fbcd3;stroke-width:.264583" transform="rotate(-90)"/><circle cx="-84.767" cy="45.252" r=".759" style="fill:#fff;stroke:#5fbcd3;stroke-width:.264583" transform="rotate(-90)"/><circle cx="-89.67" cy="47.975" r=".759" style="fill:#fff;stroke:#5fbcd3;stroke-width:.264583" transform="rotate(-90)"/><circle cx="-89.691" cy="45.227" r=".759" style="fill:#fff;stroke:#5fbcd3;stroke-width:.264583" transform="rotate(-90)"/><rect width="8.982" height="6.519" x="42.193" y="66.497" ry="1.792" style="fill:#5fbcd3;stroke:#5fbcd3;stroke-width:.264583"/><circle cx="43.078" cy="70.952" r=".759" style="fill:#fff;stroke:#5fbcd3;stroke-width:.264583"/><circle cx="43.057" cy="68.733" r=".759" style="fill:#fff;stroke:#5fbcd3;stroke-width:.264583"/><circle cx="50.374" cy="70.84" r=".759" style="fill:#fff;stroke:#5fbcd3;stroke-width:.264583"/><circle cx="50.353" cy="68.621" r=".759" style="fill:#fff;stroke:#5fbcd3;stroke-width:.264583"/><circle cx="-67.248" cy="48.132" r=".759" style="fill:#fff;stroke:#5fbcd3;stroke-width:.264583" transform="rotate(-90)"/><circle cx="-67.269" cy="45.384" r=".759" style="fill:#fff;stroke:#5fbcd3;stroke-width:.264583" transform="rotate(-90)"/><circle cx="-72.172" cy="48.107" r=".759" style="fill:#fff;stroke:#5fbcd3;stroke-width:.264583" transform="rotate(-90)"/><circle cx="-72.193" cy="45.36" r=".759" style="fill:#fff;stroke:#5fbcd3;stroke-width:.264583" transform="rotate(-90)"/><rect width="8.982" height="6.519" x="42.06" y="49" ry="1.792" style="fill:#5fbcd3;stroke:#5fbcd3;stroke-width:.264583"/><circle cx="42.946" cy="53.454" r=".759" style="fill:#fff;stroke:#5fbcd3;stroke-width:.264583"/><circle cx="42.925" cy="51.235" r=".759" style="fill:#fff;stroke:#5fbcd3;stroke-width:.264583"/><circle cx="50.242" cy="53.342" r=".759" style="fill:#fff;stroke:#5fbcd3;stroke-width:.264583"/><circle cx="50.221" cy="51.124" r=".759" style="fill:#fff;stroke:#5fbcd3;stroke-width:.264583"/><circle cx="-49.751" cy="48" r=".759" style="fill:#fff;stroke:#5fbcd3;stroke-width:.264583" transform="rotate(-90)"/><circle cx="-49.772" cy="45.252" r=".759" style="fill:#fff;stroke:#5fbcd3;stroke-width:.264583" transform="rotate(-90)"/><circle cx="-54.675" cy="47.975" r=".759" style="fill:#fff;stroke:#5fbcd3;stroke-width:.264583" transform="rotate(-90)"/><circle cx="-54.696" cy="45.227" r=".759" style="fill:#fff;stroke:#5fbcd3;stroke-width:.264583" transform="rotate(-90)"/><rect width="8.982" height="6.519" x="42.193" y="31.767" ry="1.792" style="fill:#5fbcd3;stroke:#5fbcd3;stroke-width:.264583"/><circle cx="43.078" cy="36.221" r=".759" style="fill:#fff;stroke:#5fbcd3;stroke-width:.264583"/><circle cx="43.057" cy="34.002" r=".759" style="fill:#fff;stroke:#5fbcd3;stroke-width:.264583"/><circle cx="50.374" cy="36.109" r=".759" style="fill:#fff;stroke:#5fbcd3;stroke-width:.264583"/><circle cx="50.353" cy="33.891" r=".759" style="fill:#fff;stroke:#5fbcd3;stroke-width:.264583"/><circle cx="-32.518" cy="48.132" r=".759" style="fill:#fff;stroke:#5fbcd3;stroke-width:.264583" transform="rotate(-90)"/><circle cx="-32.539" cy="45.384" r=".759" style="fill:#fff;stroke:#5fbcd3;stroke-width:.264583" transform="rotate(-90)"/><circle cx="-37.442" cy="48.107" r=".759" style="fill:#fff;stroke:#5fbcd3;stroke-width:.264583" transform="rotate(-90)"/><circle cx="-37.463" cy="45.36" r=".759" style="fill:#fff;stroke:#5fbcd3;stroke-width:.264583" transform="rotate(-90)"/><path d="M69.527 148.938h1.717v32.206h-1.717z" style="fill:#5fbcd3;stroke:#5fbcd3;stroke-width:.264583"/><path d="M62.911 179.228h5.243" style="fill:none;stroke:#000;stroke-width:.264583px;stroke-linecap:butt;stroke-linejoin:miter;stroke-opacity:1;marker-end:url(#l)"/><path d="M54.459 149.806v5.244" style="fill:none;stroke:#000;stroke-width:.264583px;stroke-linecap:butt;stroke-linejoin:miter;stroke-opacity:1;marker-end:url(#m)"/><path d="M76.825 179.149h-4.197" style="fill:none;stroke:#000;stroke-width:.264583px;stroke-linecap:butt;stroke-linejoin:miter;stroke-opacity:1;marker-end:url(#n)"/><text xml:space="preserve" style="font-size:14.6667px;line-height:1.25;font-family:sans-serif;white-space:pre;shape-inside:url(#o);display:inline" transform="translate(39.107 138.939)scale(.26458)"><tspan x="71.455" y="157.418">L2</tspan></text><path d="M48.958 156.467h17.29M48.91 169.332H66.2" style="fill:none;stroke:#ccc;stroke-width:.264583px;stroke-linecap:butt;stroke-linejoin:miter;stroke-opacity:1"/><path d="M48.958 157.628v10.255" style="fill:none;stroke:#000;stroke-width:.264583px;stroke-linecap:butt;stroke-linejoin:miter;stroke-opacity:1;marker-start:url(#p);marker-end:url(#p)"/><text xml:space="preserve" style="font-size:14.6667px;line-height:1.25;font-family:sans-serif;white-space:pre;shape-inside:url(#q);display:inline" transform="translate(31.142 126.609)scale(.26458)"><tspan x="48.043" y="141.957">L3</tspan></text><path d="M79.195 147.712v12.148M61.575 147.712v12.148" style="fill:none;stroke:#ccc;stroke-width:.264583px;stroke-linecap:butt;stroke-linejoin:miter;stroke-opacity:1"/><path d="M62.803 147.712h14.814" style="fill:none;stroke:#000;stroke-width:.264582px;stroke-linecap:butt;stroke-linejoin:miter;stroke-opacity:1;marker-start:url(#r);marker-end:url(#r)"/><text xml:space="preserve" style="font-size:14.6667px;line-height:1.25;font-family:sans-serif;white-space:pre;shape-inside:url(#s);display:inline" transform="translate(61.562 107.62)scale(.26458)"><tspan x="24.711" y="147.611">L4</tspan></text><text xml:space="preserve" style="font-size:14.6667px;line-height:1.25;font-family:sans-serif;white-space:pre;shape-inside:url(#t);display:inline" transform="translate(74.352 109.47)scale(.26458)"><tspan x="34.342" y="241.719">R3</tspan></text><path d="m83.388 172.612-3.86-3.559" style="fill:none;stroke:#000;stroke-width:.264583px;stroke-linecap:butt;stroke-linejoin:miter;stroke-opacity:1;marker-end:url(#u)"/><path d="m70.32 156.221 11.867-4.237" style="fill:none;stroke:#000;stroke-width:.264583px;stroke-linecap:butt;stroke-linejoin:miter;stroke-opacity:1;marker-start:url(#b)"/><path d="m75.43 155.932 6.69-4.097" style="fill:none;stroke:#000;stroke-width:.264583px;stroke-linecap:butt;stroke-linejoin:miter;stroke-opacity:1;marker-start:url(#b)"/><path d="m80.69 164.693 7.83-1.248" style="fill:none;stroke:#000;stroke-width:.264583px;stroke-linecap:butt;stroke-linejoin:miter;stroke-opacity:1;marker-start:url(#b)"/><path d="m80.807 161.143 7.328 2.053" style="fill:none;stroke:#000;stroke-width:.264583px;stroke-linecap:butt;stroke-linejoin:miter;stroke-opacity:1;marker-start:url(#b)"/><text xml:space="preserve" style="font-size:14.6667px;line-height:1.25;font-family:sans-serif;white-space:pre;shape-inside:url(#v);display:inline" transform="translate(-7.38 4.32)scale(.26458)"><tspan x="339.814" y="561.824">N4</tspan></text><text xml:space="preserve" style="font-size:14.6667px;line-height:1.25;font-family:sans-serif;white-space:pre;shape-inside:url(#w);display:inline" transform="translate(-7.138 -.332)scale(.26458)"><tspan x="363.359" y="624.607">N3</tspan></text><path d="M53.136 158.033h13.003" style="fill:none;stroke:#ccc;stroke-width:.264583px;stroke-linecap:butt;stroke-linejoin:miter;stroke-opacity:1"/><path d="M54.469 163.59v-4.197" style="fill:none;stroke:#000;stroke-width:.264583px;stroke-linecap:butt;stroke-linejoin:miter;stroke-opacity:1;marker-end:url(#x)"/><text xml:space="preserve" style="font-size:14.6667px;line-height:1.25;font-family:sans-serif;white-space:pre;shape-inside:url(#y);display:inline" transform="translate(10.609 13.047)scale(.26458)"><tspan x="149.91" y="521.455">L7</tspan></text><text xml:space="preserve" style="font-size:14.6667px;line-height:1.25;font-family:sans-serif;white-space:pre;shape-inside:url(#z);display:inline" transform="translate(7.435 -2.033)scale(.26458)"><tspan x="138.545" y="683.377">D2</tspan></text><path d="M49.585 175.848c.813-.243 11.525-8.767 11.525-8.767" style="fill:none;stroke:#000;stroke-width:.264583px;stroke-linecap:butt;stroke-linejoin:miter;stroke-opacity:1;marker-end:url(#b)"/><path d="M63.232 246.238h22.853v30.6H63.232z" style="fill:#5fbcd3;stroke:#5fbcd3;stroke-width:.264583"/><path d="M66.728 250.814H82.59v21.448H66.728z" style="fill:#fff;stroke:#5fbcd3;stroke-width:.264583"/><path d="M33.986 239.947h81.345v6.026H33.986z" style="fill:#5fbcd3;stroke:#5fbcd3;stroke-width:.264583"/><path d="M33.986 227.668v12.147M115.33 227.668v12.147" style="fill:none;stroke:#ccc;stroke-width:.264583px;stroke-linecap:butt;stroke-linejoin:miter;stroke-opacity:1"/><path d="M35.12 228.452h79.077" style="fill:none;stroke:#000;stroke-width:.264582px;stroke-linecap:butt;stroke-linejoin:miter;stroke-opacity:1;marker-start:url(#A);marker-end:url(#A)"/><text xml:space="preserve" style="font-size:14.6667px;line-height:1.25;font-family:sans-serif;white-space:pre;shape-inside:url(#B);display:inline" transform="translate(65.723 188.612)scale(.26458)"><tspan x="24.711" y="147.611">L4</tspan></text><path d="M63.1 276.97v12.148M86.35 276.97v12.148" style="fill:none;stroke:#ccc;stroke-width:.264583px;stroke-linecap:butt;stroke-linejoin:miter;stroke-opacity:1"/><path d="M64.263 289.118h20.924" style="fill:none;stroke:#000;stroke-width:.264582px;stroke-linecap:butt;stroke-linejoin:miter;stroke-opacity:1;marker-start:url(#C);marker-end:url(#C)"/><text xml:space="preserve" style="font-size:14.6667px;line-height:1.25;font-family:sans-serif;white-space:pre;shape-inside:url(#D);display:inline" transform="translate(65.79 254.378)scale(.26458)"><tspan x="24.711" y="147.611">L2</tspan></text><path d="M86.482 277.102h12.147" style="fill:none;stroke:#ccc;stroke-width:.264583px;stroke-linecap:butt;stroke-linejoin:miter;stroke-opacity:1"/><path d="M98.63 275.733v-28.39" style="fill:none;stroke:#000;stroke-width:.264581px;stroke-linecap:butt;stroke-linejoin:miter;stroke-opacity:1;marker-start:url(#E);marker-end:url(#E)"/><path d="M115.463 239.815h12.148M115.463 246.105h12.148" style="fill:none;stroke:#ccc;stroke-width:.264583px;stroke-linecap:butt;stroke-linejoin:miter;stroke-opacity:1"/><path d="M127.61 245v-3.845" style="fill:none;stroke:#000;stroke-width:.264581px;stroke-linecap:butt;stroke-linejoin:miter;stroke-opacity:1;marker-start:url(#F);marker-end:url(#F)"/><path d="M56.612 261.548h5.243" style="fill:none;stroke:#000;stroke-width:.264583px;stroke-linecap:butt;stroke-linejoin:miter;stroke-opacity:1;marker-end:url(#G)"/><path d="M72.044 261.538h-4.196" style="fill:none;stroke:#000;stroke-width:.264583px;stroke-linecap:butt;stroke-linejoin:miter;stroke-opacity:1;marker-end:url(#H)"/><text xml:space="preserve" style="font-size:14.6667px;line-height:1.25;font-family:sans-serif;white-space:pre;shape-inside:url(#I)" transform="translate(-26.89 -3.16)scale(.26458)"><tspan x="479.344" y="1008.285">H1</tspan></text><text xml:space="preserve" style="font-size:14.6667px;line-height:1.25;font-family:sans-serif;white-space:pre;shape-inside:url(#J)" transform="translate(11.342 1.29)scale(.26458)"><tspan x="150.861" y="990.514">E1</tspan></text><text xml:space="preserve" style="font-size:14.6667px;line-height:1.25;font-family:sans-serif;white-space:pre;shape-inside:url(#K)" transform="translate(10.891 -26.42)scale(.26458)"><tspan x="446.715" y="1023.367">E2</tspan></text></svg>