<svg xmlns="http://www.w3.org/2000/svg" width="171.504" height="370.942" viewBox="0 0 45.377 98.145"><defs><path id="b" d="M60 425.68h128.884v18.163H60z"/><path id="a" d="M71.751 210.976h100.371v30.102H71.751z"/><path id="c" d="M60 425.68h161.992v19.163H60z"/><marker id="d" markerHeight="1" markerWidth="1" orient="auto-start-reverse" preserveAspectRatio="xMidYMid" refX="0" refY="0" style="overflow:visible" viewBox="0 0 1 1"><path d="M3-3 0 0l3 3" style="fill:none;stroke:context-stroke;stroke-width:1;stroke-linecap:butt" transform="rotate(180 .125 0)"/></marker><marker id="e" markerHeight="1" markerWidth="1" orient="auto-start-reverse" preserveAspectRatio="xMidYMid" refX="0" refY="0" style="overflow:visible" viewBox="0 0 1 1"><path d="M3-3 0 0l3 3" style="fill:none;stroke:context-stroke;stroke-width:1;stroke-linecap:butt" transform="rotate(180 .125 0)"/></marker></defs><g transform="translate(-13.167 -23.277)"><path d="M13.3 23.409h45.113v97.88H13.3z" style="fill:#fff;stroke:#fff;stroke-width:.264583"/><path d="M16.79-31.158h2.646v4.233H16.79z" style="fill:#00f;stroke:#fff;stroke-width:.264583" transform="scale(1 -1)"/><path d="M16.79 36.128h2.646v4.233H16.79zM16.79 40.73h2.646v4.233H16.79zM16.79 45.331h2.646v4.233H16.79z" style="fill:#00f;stroke:#fff;stroke-width:.264583"/><text xml:space="preserve" style="font-size:14.6667px;line-height:1.25;font-family:sans-serif;white-space:pre;shape-inside:url(#a);display:inline" transform="translate(6.96 -5.074)scale(.26458)"><tspan x="71.752" y="223.953">regular</tspan></text><path d="M16.79-35.759h2.646v4.233H16.79z" style="fill:#00f;stroke:#fff;stroke-width:.264583" transform="scale(1 -1)"/><path d="M63.31-22.362h2.646v4.233H63.31zM66.22-22.362h2.646v4.233H66.22zM69.131-22.362h2.646v4.233h-2.646zM72.041-22.362h2.646v4.233h-2.646zM74.952-22.362h2.646v4.233h-2.646zM77.862-22.362h2.646v4.233h-2.646zM64.765-26.86h2.646v4.233h-2.646zM67.676-26.86h2.646v4.233h-2.646zM70.586-26.86h2.646v4.233h-2.646zM73.496-26.86h2.646v4.233h-2.646zM76.407-26.86h2.646v4.233h-2.646zM79.317-26.86h2.646v4.233h-2.646zM63.31-31.358h2.646v4.233H63.31zM66.22-31.358h2.646v4.233H66.22zM69.131-31.358h2.646v4.233h-2.646zM72.041-31.358h2.646v4.233h-2.646zM74.952-31.358h2.646v4.233h-2.646zM77.862-31.358h2.646v4.233h-2.646zM64.765-35.856h2.646v4.233h-2.646zM67.676-35.856h2.646v4.233h-2.646zM70.586-35.856h2.646v4.233h-2.646zM73.496-35.856h2.646v4.233h-2.646zM76.407-35.856h2.646v4.233h-2.646zM79.317-35.856h2.646v4.233h-2.646zM63.31-40.354h2.646v4.233H63.31zM66.22-40.354h2.646v4.233H66.22zM69.131-40.354h2.646v4.233h-2.646zM72.041-40.354h2.646v4.233h-2.646zM74.952-40.354h2.646v4.233h-2.646zM77.862-40.354h2.646v4.233h-2.646zM64.765-44.852h2.646v4.233h-2.646zM67.676-44.852h2.646v4.233h-2.646zM70.586-44.852h2.646v4.233h-2.646zM73.496-44.852h2.646v4.233h-2.646zM76.407-44.852h2.646v4.233h-2.646zM79.317-44.852h2.646v4.233h-2.646zM61.867-26.86h2.646v4.233h-2.646zM61.867-35.856h2.646v4.233h-2.646zM63.31-49.349h2.646v4.233H63.31zM66.22-49.349h2.646v4.233H66.22zM69.131-49.349h2.646v4.233h-2.646zM72.041-49.349h2.646v4.233h-2.646zM74.952-49.349h2.646v4.233h-2.646zM77.862-49.349h2.646v4.233h-2.646zM61.855-44.852h2.646v4.233h-2.646z" style="fill:#00f;stroke:#fff;stroke-width:.264583" transform="rotate(90)"/><text xml:space="preserve" style="font-size:14.6667px;line-height:1.25;font-family:sans-serif;white-space:pre;shape-inside:url(#b);display:inline" transform="translate(3.573 -30.217)scale(.26458)"><tspan x="60" y="438.656">crenel vertical</tspan></text><text xml:space="preserve" style="font-size:14.6667px;line-height:1.25;font-family:sans-serif;white-space:pre;shape-inside:url(#c);display:inline" transform="translate(3.75 2.467)scale(.26458)"><tspan x="60" y="438.656">crenel horizontal</tspan></text><path d="M19.7-31.158h2.646v4.233H19.7z" style="fill:#00f;stroke:#fff;stroke-width:.264583" transform="scale(1 -1)"/><path d="M19.7 36.128h2.646v4.233H19.7zM19.7 40.73h2.646v4.233H19.7zM19.7 45.331h2.646v4.233H19.7z" style="fill:#00f;stroke:#fff;stroke-width:.264583"/><path d="M19.7-35.759h2.646v4.233H19.7zM22.611-31.158h2.646v4.233h-2.646z" style="fill:#00f;stroke:#fff;stroke-width:.264583" transform="scale(1 -1)"/><path d="M22.611 36.128h2.646v4.233h-2.646zM22.611 40.73h2.646v4.233h-2.646zM22.611 45.331h2.646v4.233h-2.646z" style="fill:#00f;stroke:#fff;stroke-width:.264583"/><path d="M22.611-35.759h2.646v4.233h-2.646z" style="fill:#00f;stroke:#fff;stroke-width:.264583" transform="scale(1 -1)"/><path d="M25.521 31.526h2.646v4.233h-2.646zM25.521 36.128h2.646v4.233h-2.646zM25.521 40.73h2.646v4.233h-2.646zM25.521 45.331h2.646v4.233h-2.646zM25.521 26.924h2.646v4.233h-2.646zM28.432 31.526h2.646v4.233h-2.646zM28.432 36.128h2.646v4.233h-2.646zM28.432 40.73h2.646v4.233h-2.646zM28.432 45.331h2.646v4.233h-2.646zM28.432 26.924h2.646v4.233h-2.646zM31.342 31.526h2.646v4.233h-2.646zM31.342 36.128h2.646v4.233h-2.646zM31.342 40.73h2.646v4.233h-2.646zM31.342 45.331h2.646v4.233h-2.646zM31.342 26.924h2.646v4.233h-2.646zM34.252 31.526h2.646v4.233h-2.646zM34.252 36.128h2.646v4.233h-2.646zM34.252 40.73h2.646v4.233h-2.646zM34.252 45.331h2.646v4.233h-2.646zM34.252 26.924h2.646v4.233h-2.646zM37.163 31.526h2.646v4.233h-2.646zM37.163 36.128h2.646v4.233h-2.646zM37.163 40.73h2.646v4.233h-2.646zM37.163 45.331h2.646v4.233h-2.646zM37.163 26.924h2.646v4.233h-2.646zM40.073 31.526h2.646v4.233h-2.646zM40.073 36.128h2.646v4.233h-2.646zM40.073 40.73h2.646v4.233h-2.646zM40.073 45.331h2.646v4.233h-2.646zM40.073 26.924h2.646v4.233h-2.646zM42.984 31.526h2.646v4.233h-2.646zM42.984 36.128h2.646v4.233h-2.646zM42.984 40.73h2.646v4.233h-2.646zM42.984 45.331h2.646v4.233h-2.646zM42.984 26.924h2.646v4.233h-2.646zM45.894 31.526h2.646v4.233h-2.646zM45.894 36.128h2.646v4.233h-2.646zM45.894 40.73h2.646v4.233h-2.646zM45.894 45.331h2.646v4.233h-2.646zM45.894 26.924h2.646v4.233h-2.646zM48.805 31.526h2.646v4.233h-2.646zM48.805 36.128h2.646v4.233h-2.646zM48.805 40.73h2.646v4.233h-2.646zM48.805 45.331h2.646v4.233h-2.646zM48.805 26.924h2.646v4.233h-2.646zM18.32 100.813h2.646v4.233H18.32zM19.776 105.415h2.646v4.233h-2.646zM18.32 110.017h2.646v4.233H18.32zM19.776 96.211h2.646v4.233h-2.646zM21.231 100.813h2.646v4.233h-2.646zM22.686 105.415h2.646v4.233h-2.646zM21.231 110.017h2.646v4.233h-2.646zM22.686 96.211h2.646v4.233h-2.646zM24.141 100.813h2.646v4.233h-2.646zM25.596 105.415h2.646v4.233h-2.646zM24.141 110.017h2.646v4.233h-2.646zM25.596 96.211h2.646v4.233h-2.646zM27.052 100.813h2.646v4.233h-2.646zM28.507 105.415h2.646v4.233h-2.646zM27.052 110.017h2.646v4.233h-2.646zM28.507 96.211h2.646v4.233h-2.646zM29.962 100.813h2.646v4.233h-2.646zM31.417 105.415h2.646v4.233h-2.646zM29.962 110.017h2.646v4.233h-2.646zM31.417 96.211h2.646v4.233h-2.646zM32.873 100.813h2.646v4.233h-2.646zM34.328 105.415h2.646v4.233h-2.646zM32.873 110.017h2.646v4.233h-2.646zM34.328 96.211h2.646v4.233h-2.646zM35.783 100.813h2.646v4.233h-2.646zM37.238 105.415h2.646v4.233h-2.646zM35.783 110.017h2.646v4.233h-2.646zM37.238 96.211h2.646v4.233h-2.646zM38.693 100.813h2.646v4.233h-2.646zM40.149 105.415h2.646v4.233h-2.646zM38.693 110.017h2.646v4.233h-2.646zM40.149 96.211h2.646v4.233h-2.646zM41.604 100.813h2.646v4.233h-2.646zM43.059 105.415h2.646v4.233h-2.646zM41.604 110.017h2.646v4.233h-2.646zM43.059 96.211h2.646v4.233h-2.646zM44.514 100.813h2.646v4.233h-2.646zM45.969 105.415h2.646v4.233h-2.646zM44.514 110.017h2.646v4.233h-2.646zM45.969 96.211h2.646v4.233h-2.646zM47.425 100.813h2.646v4.233h-2.646zM48.88 105.415h2.646v4.233H48.88zM47.425 110.017h2.646v4.233h-2.646zM48.88 96.211h2.646v4.233H48.88zM50.335 100.813h2.646v4.233h-2.646zM51.79 105.415h2.646v4.233H51.79zM50.335 110.017h2.646v4.233h-2.646zM51.79 96.211h2.646v4.233H51.79zM18.32 91.61h2.646v4.233H18.32zM21.231 91.61h2.646v4.233h-2.646zM24.141 91.61h2.646v4.233h-2.646zM27.052 91.61h2.646v4.233h-2.646zM29.962 91.61h2.646v4.233h-2.646zM32.873 91.61h2.646v4.233h-2.646zM35.783 91.61h2.646v4.233h-2.646zM38.693 91.61h2.646v4.233h-2.646zM41.604 91.61h2.646v4.233h-2.646zM44.514 91.61h2.646v4.233h-2.646zM47.425 91.61h2.646v4.233h-2.646zM50.335 91.61h2.646v4.233h-2.646zM16.865 105.415h2.646v4.233h-2.646zM16.865 96.211h2.646v4.233h-2.646z" style="fill:#00f;stroke:#fff;stroke-width:.264583"/><circle cx="24.006" cy="-63.511" r=".012" style="fill:#00f;stroke:#fff;stroke-width:.264583" transform="scale(1 -1)"/><path d="M22.56 72.185H43.52" style="fill:none;stroke:red;stroke-width:.529167;stroke-linecap:butt;stroke-linejoin:miter;stroke-opacity:1;marker-end:url(#d)"/><path d="M36.223 109.773V97.41" style="fill:none;stroke:red;stroke-width:.529167;stroke-linecap:butt;stroke-linejoin:miter;stroke-opacity:1;marker-end:url(#e)"/></g></svg>