<svg xmlns="http://www.w3.org/2000/svg" width="387.321" height="353.376" viewBox="0 0 102.479 93.497"><defs><path id="o" d="M193.645 2043.711h32.69v27.291h-32.69z"/><path id="m" d="M422.155 2215.015h90.031v78.6h-90.031z"/><path id="l" d="M424.559 2363.213h38.234v20.991h-38.234z"/><path id="k" d="M479.019 2313.954h51.217v36.651h-51.217z"/><path id="j" d="M453.769 2236.887h44.279v34.606h-44.279z"/><path id="i" d="M436.995 2284.462h47.197v39.827h-47.197z"/><path id="h" d="M364.992 2290.94h39.142v33.595h-39.142z"/><path id="f" d="M443.682 2242.574h98.053v70.01h-98.053z"/><path id="d" d="M430.567 2234.166h123.056v93.723H430.567z"/><path id="b" d="M406.543 2286.072h81.459v57.881h-81.459z"/><marker id="a" markerHeight="1" markerWidth="1" orient="auto-start-reverse" preserveAspectRatio="xMidYMid" refX="0" refY="0" style="overflow:visible" viewBox="0 0 1 1"><path d="M3-3 0 0l3 3" style="fill:none;stroke:context-stroke;stroke-width:1;stroke-linecap:butt" transform="rotate(180,0.125,0)"/></marker><marker id="c" markerHeight="1" markerWidth="1" orient="auto-start-reverse" preserveAspectRatio="xMidYMid" refX="0" refY="0" style="overflow:visible" viewBox="0 0 1 1"><path d="M3-3 0 0l3 3" style="fill:none;stroke:context-stroke;stroke-width:1;stroke-linecap:butt" transform="rotate(180,0.125,0)"/></marker><marker id="e" markerHeight="1" markerWidth="1" orient="auto-start-reverse" preserveAspectRatio="xMidYMid" refX="0" refY="0" style="overflow:visible" viewBox="0 0 1 1"><path d="M3-3 0 0l3 3" style="fill:none;stroke:context-stroke;stroke-width:1;stroke-linecap:butt" transform="rotate(180,0.125,0)"/></marker><marker id="g" markerHeight="1" markerWidth="1" orient="auto-start-reverse" preserveAspectRatio="xMidYMid" refX="0" refY="0" style="overflow:visible" viewBox="0 0 1 1"><path d="M3-3 0 0l3 3" style="fill:none;stroke:context-stroke;stroke-width:1;stroke-linecap:butt" transform="rotate(180,0.125,0)"/></marker><marker id="n" markerHeight="1" markerWidth="1" orient="auto-start-reverse" preserveAspectRatio="xMidYMid" refX="0" refY="0" style="overflow:visible" viewBox="0 0 1 1"><path d="M3-3 0 0l3 3" style="fill:none;stroke:context-stroke;stroke-width:1;stroke-linecap:butt" transform="rotate(180,0.125,0)"/></marker></defs><g transform="translate(-29.149107,-529.32373)"><path d="M29.281 529.456h102.214v93.233H29.281z" style="fill:#fff;stroke:#fff;stroke-width:.264583;stroke-linejoin:bevel"/><path d="M43.366 569.345v-21.392M32.674 556.739v-21.393" style="fill:none;stroke:#ccc;stroke-width:.264584px;stroke-linecap:butt;stroke-linejoin:miter;stroke-opacity:1"/><path d="M76.3 569.336v-33.99" style="fill:none;stroke:#ccc;stroke-width:.264582px;stroke-linecap:butt;stroke-linejoin:miter;stroke-opacity:1"/><circle cx="76.301" cy="582.544" r="12.944" style="fill:none;stroke:#2c89a0;stroke-width:.264583;stroke-linejoin:bevel"/><path d="M32.674 556.871h87.254v12.465H32.674z" style="fill:none;stroke:#2c89a0;stroke-width:.264583;stroke-linejoin:bevel"/><path d="M63.357 582.544v32.49M89.244 582.544v32.49" style="fill:none;stroke:#b3b3b3;stroke-width:.264583px;stroke-linecap:butt;stroke-linejoin:miter;stroke-opacity:1"/><path d="M63.357 615.033h25.887" style="fill:none;stroke:#000;stroke-width:.264583px;stroke-linecap:butt;stroke-linejoin:miter;stroke-opacity:1;marker-start:url(#a);marker-end:url(#a)"/><text xml:space="preserve" style="font-size:14.6667px;line-height:1.25;font-family:sans-serif;white-space:pre;shape-inside:url(#b);display:inline" transform="matrix(0.26458333,0,0,0.26458333,-34.003839,11.334618)"><tspan x="406.543" y="2299.049">D1</tspan></text><path d="M122.044 569.345v-12.604" style="fill:none;stroke:#000;stroke-width:.264583px;stroke-linecap:butt;stroke-linejoin:miter;stroke-opacity:1;marker-start:url(#c);marker-end:url(#c)"/><text xml:space="preserve" style="font-size:14.6667px;line-height:1.25;font-family:sans-serif;white-space:pre;shape-inside:url(#d);display:inline" transform="matrix(0.26458333,0,0,0.26458333,10.324218,-28.999998)"><tspan x="430.566" y="2247.143">E3</tspan></text><path d="M33.135 536.233h43.039" style="fill:none;stroke:#000;stroke-width:.264583px;stroke-linecap:butt;stroke-linejoin:miter;stroke-opacity:1;marker-start:url(#e);marker-end:url(#e)"/><text xml:space="preserve" style="font-size:14.6667px;line-height:1.25;font-family:sans-serif;white-space:pre;shape-inside:url(#f);display:inline" transform="matrix(0.26458333,0,0,0.26458333,-61.193881,-62.864592)"><tspan x="443.682" y="2255.551">L3</tspan></text><path d="m43.282 569.468 23.915 22.278M109.397 569.468l-23.915 22.278" style="fill:none;stroke:teal;stroke-width:.264583px;stroke-linecap:butt;stroke-linejoin:miter;stroke-opacity:1"/><circle cx="76.393" cy="582.845" r="8.866" style="fill:none;stroke:#2c89a0;stroke-width:.264583;stroke-linejoin:bevel"/><path d="M85.392 582.845v23.33" style="fill:none;stroke:#b3b3b3;stroke-width:.264583px;stroke-linecap:butt;stroke-linejoin:miter;stroke-opacity:1"/><path d="M85.59 605.318h3.32" style="fill:none;stroke:#000;stroke-width:.264583px;stroke-linecap:butt;stroke-linejoin:miter;stroke-opacity:1;marker-start:url(#g);marker-end:url(#g)"/><text xml:space="preserve" style="font-size:14.6667px;line-height:1.25;font-family:sans-serif;white-space:pre;shape-inside:url(#h);display:inline" transform="matrix(0.26458333,0,0,0.26458333,-11.893962,0.52304448)"><tspan x="364.992" y="2303.916">E1</tspan></text><path d="m67.197 591.746 9.104-9.202-33.019-13.076M76.3 582.544v-12.943" style="fill:none;stroke:#ccc;stroke-width:.264583px;stroke-linecap:butt;stroke-linejoin:miter;stroke-opacity:1"/><text xml:space="preserve" style="font-size:14.6667px;line-height:1.25;font-family:sans-serif;white-space:pre;shape-inside:url(#i);display:inline" transform="matrix(0.26458333,0,0,0.26458333,-39.258264,-22.189999)"><tspan x="436.994" y="2297.438">A</tspan></text><text xml:space="preserve" style="font-size:14.6667px;line-height:1.25;font-family:sans-serif;white-space:pre;shape-inside:url(#j);display:inline" transform="matrix(0.26458333,0,0,0.26458333,-46.116111,-26.677252)"><tspan x="453.77" y="2249.863">B</tspan></text><text xml:space="preserve" style="font-size:14.6667px;line-height:1.25;font-family:sans-serif;white-space:pre;shape-inside:url(#k);display:inline" transform="matrix(0.26458333,0,0,0.26458333,-86.776381,-46.69921)"><tspan x="479.02" y="2326.93">C</tspan></text><text xml:space="preserve" style="font-size:14.6667px;line-height:1.25;font-family:sans-serif;white-space:pre;shape-inside:url(#l);display:inline" transform="matrix(0.26458333,0,0,0.26458333,-47.121344,-32.790694)"><tspan x="424.559" y="2376.189">D</tspan></text><path d="m66.1 590.787 1.1-1.226 1.156 1.053M74.76 569.306l.035 1.565 1.556-.022" style="fill:none;stroke:#666;stroke-width:.264583px;stroke-linecap:butt;stroke-linejoin:miter;stroke-opacity:1"/><text xml:space="preserve" style="font-size:14.6667px;line-height:1.25;font-family:sans-serif;white-space:pre;shape-inside:url(#m);display:inline" transform="scale(0.26458333)"><tspan x="422.154" y="2227.992">R2</tspan></text><path d="m112.025 583.414-2.002-12.942" style="fill:none;stroke:#000;stroke-width:.264583px;stroke-linecap:butt;stroke-linejoin:miter;stroke-opacity:1;marker-end:url(#a)"/><path d="M43.308 547.953H76.46" style="fill:none;stroke:#000;stroke-width:.264583px;stroke-linecap:butt;stroke-linejoin:miter;stroke-opacity:1;marker-start:url(#n);marker-end:url(#n)"/><text xml:space="preserve" style="font-size:14.6667px;line-height:1.25;font-family:sans-serif;white-space:pre;shape-inside:url(#o);display:inline" transform="matrix(0.26458333,0,0,0.26458333,6.2127924,3.0864256)"><tspan x="193.645" y="2056.688">S1</tspan></text></g></svg>