<svg xmlns="http://www.w3.org/2000/svg" width="600" height="3000" viewBox="0 0 158.75 793.75"><defs><path id="F" d="M385.047 566.254h46.923v30.295h-46.923z"/><path id="E" d="M364.518 1257.999h109.163v81.43H364.518z"/><path id="D" d="M235.652 858.892h75.778v56.139h-75.778z"/><path id="C" d="M264.048 901.183h44.055v28.2h-44.055z"/><path id="B" d="M324.517 1202.192h50.214v40.31h-50.214z"/><path id="A" d="M339.192 1195.127h42.228v45.535h-42.228z"/><path id="z" d="M156.588 973.86h53.422v36.666h-53.422z"/><path id="y" d="M256.083 1047.652h56.452v52.313h-56.452z"/><path id="x" d="M371.085 971.245h91.565v67.194h-91.565z"/><path id="w" d="M326.973 322.165h39.235v27.842h-39.235z"/><path id="v" d="M310.679 291.59h37.609v26.229h-37.609z"/><path id="u" d="M271.403 274.709h40.931v41.672h-40.931z"/><path id="t" d="M41.964 490.506h61.447v32.386H41.964z"/><path id="p" d="M230.477 337.788h43.024v35.763h-43.024z"/><path id="n" d="M66.771 544.293h52.595v41.568H66.771z"/><path id="m" d="M77.858 137.531h83.851v43.935H77.858z"/><path id="l" d="M49.656 97.036h71.156v48.382H49.656z"/><path id="k" d="M479.338 609.681h71.939v53.847h-71.939z"/><path id="j" d="M543.218 236.892h42.737v38.238h-42.737z"/><path id="i" d="M519.75 43.763h68.4v71.172h-68.4z"/><path id="h" d="M546.666 422.076h35.719v33.093h-35.719z"/><path id="g" d="M360.738 72.512h39.349v32.277h-39.349z"/><path id="f" d="M309.139 65.957h52.16v31.797h-52.16z"/><path id="e" d="M503.914 145.637h58.003v43.166h-58.003z"/><path id="c" d="M432.272 88.073h56.586v36.71h-56.586z"/><path id="a" d="M20.95 26.25h232.884v62.281H20.95z"/><path id="s" d="M230.477 337.788h43.024v35.763h-43.024z"/><marker id="b" markerHeight="1" markerWidth="1" orient="auto-start-reverse" preserveAspectRatio="xMidYMid" refX="0" refY="0" style="overflow:visible" viewBox="0 0 1 1"><path d="M3-3 0 0l3 3" style="fill:none;stroke:context-stroke;stroke-width:1;stroke-linecap:butt" transform="rotate(180,0.125,0)"/></marker><marker id="d" markerHeight="1" markerWidth="1" orient="auto-start-reverse" preserveAspectRatio="xMidYMid" refX="0" refY="0" style="overflow:visible" viewBox="0 0 1 1"><path d="M3-3 0 0l3 3" style="fill:none;stroke:context-stroke;stroke-width:1;stroke-linecap:butt" transform="rotate(180,0.125,0)"/></marker><marker id="o" markerHeight="1" markerWidth="1" orient="auto-start-reverse" preserveAspectRatio="xMidYMid" refX="0" refY="0" style="overflow:visible" viewBox="0 0 1 1"><path d="M3-3 0 0l3 3" style="fill:none;stroke:context-stroke;stroke-width:1;stroke-linecap:butt" transform="rotate(180,0.125,0)"/></marker><marker id="q" markerHeight="1" markerWidth="1" orient="auto-start-reverse" preserveAspectRatio="xMidYMid" refX="0" refY="0" style="overflow:visible" viewBox="0 0 1 1"><path d="M3-3 0 0l3 3" style="fill:none;stroke:context-stroke;stroke-width:1;stroke-linecap:butt" transform="rotate(180,0.125,0)"/></marker><marker id="r" markerHeight="1" markerWidth="1" orient="auto-start-reverse" preserveAspectRatio="xMidYMid" refX="0" refY="0" style="overflow:visible" viewBox="0 0 1 1"><path d="M3-3 0 0l3 3" style="fill:none;stroke:context-stroke;stroke-width:1;stroke-linecap:butt" transform="rotate(180,0.125,0)"/></marker></defs><path d="M14.269 213.921H138.45v149.365H14.269z" style="fill:#fff;stroke:#fff;stroke-width:.264583;stroke-linejoin:bevel"/><path d="m127.363 266.314-14.236 3.608" style="fill:none;stroke:#ccc;stroke-width:.264582px;stroke-linecap:butt;stroke-linejoin:miter;stroke-opacity:1"/><path d="M10.045 15.351h144.784v143.258H10.045z" style="fill:#fff;stroke:#fff;stroke-width:.264583;stroke-linejoin:bevel"/><text xml:space="preserve" style="font-size:14.6667px;line-height:1.25;font-family:sans-serif;white-space:pre;shape-inside:url(#a);display:inline" transform="scale(0.26458333)"><tspan x="20.949" y="39.227">vaxis_guidance.svg</tspan></text><circle cx="78.427" cy="93.195" r="57.927" style="fill:none;stroke:#ccc;stroke-width:.264583;stroke-linejoin:bevel"/><circle cx="78.427" cy="93.195" r="49.458" style="fill:none;stroke:#ccc;stroke-width:.264583;stroke-linejoin:bevel"/><circle cx="78.427" cy="35.269" r="2.853" style="fill:none;stroke:#000;stroke-width:.264583;stroke-linejoin:bevel"/><circle cx="136.486" cy="93.195" r="2.853" style="fill:none;stroke:#000;stroke-width:.264583;stroke-linejoin:bevel"/><circle cx="20.5" cy="93.195" r="2.853" style="fill:none;stroke:#000;stroke-width:.264583;stroke-linejoin:bevel"/><circle cx="78.427" cy="151.254" r="2.853" style="fill:none;stroke:#000;stroke-width:.264583;stroke-linejoin:bevel"/><circle cx="78.427" cy="35.269" r="5.344" style="fill:none;stroke:#ccc;stroke-width:.264583;stroke-linejoin:bevel"/><circle cx="20.368" cy="93.195" r="5.344" style="fill:none;stroke:#ccc;stroke-width:.264583;stroke-linejoin:bevel"/><circle cx="136.354" cy="93.195" r="5.344" style="fill:none;stroke:#ccc;stroke-width:.264583;stroke-linejoin:bevel"/><circle cx="78.427" cy="151.254" r="5.344" style="fill:none;stroke:#ccc;stroke-width:.264583;stroke-linejoin:bevel"/><path d="m71.544 44.285 1.738-10.116s.402-1.706.908-2.394a4.74 4.74 0 0 1 1.96-1.537c.878-.367 1.883-.419 2.833-.36.644.042 1.3.19 1.874.484.549.28 1.005.728 1.42 1.183.405.443.767.938 1.025 1.48.252.528.492 1.684.492 1.684l1.86 9.475M71.192 142.339l2.1 9.816s.402 1.706.908 2.394a4.74 4.74 0 0 0 1.96 1.537c.878.367 1.883.42 2.833.36.644-.041 1.3-.19 1.874-.483.549-.281 1.004-.729 1.42-1.184a6.1 6.1 0 0 0 1.025-1.48c.252-.527.492-1.684.492-1.684l2.012-9.631M29.614 100.583l-10.17-2.251s-1.707-.403-2.394-.909a4.74 4.74 0 0 1-1.538-1.96c-.366-.878-.419-1.883-.359-2.833.04-.643.189-1.3.483-1.874.28-.548.728-1.004 1.183-1.42a6.1 6.1 0 0 1 1.48-1.025c.528-.251 1.685-.492 1.685-.492l9.475-1.86M127.382 86.115l9.816 2.1s1.706.403 2.394.908a4.74 4.74 0 0 1 1.537 1.96c.367.879.42 1.883.36 2.833-.041.644-.19 1.3-.483 1.875-.281.548-.729 1.004-1.183 1.42a6.1 6.1 0 0 1-1.48 1.024c-.528.252-1.685.493-1.685.493l-9.475 1.86M85.654 44.184s3.903.769 5.816 1.305a57 57 0 0 1 5.5 1.856 39 39 0 0 1 3.666 1.66c2.024 1.053 4.014 2.188 5.888 3.489a50.4 50.4 0 0 1 5.755 4.644 48 48 0 0 1 5.017 5.476c1.693 2.17 3.203 4.492 4.547 6.895 1 1.786 1.853 3.659 2.602 5.564a52 52 0 0 1 1.923 5.971c.434 1.669 1.014 5.071 1.014 5.071M29.614 86.012s.768-3.902 1.304-5.815a57 57 0 0 1 1.857-5.5 39 39 0 0 1 1.66-3.666c1.053-2.024 2.187-4.014 3.488-5.888a50.4 50.4 0 0 1 4.645-5.755 48 48 0 0 1 5.475-5.017c2.17-1.693 4.492-3.203 6.895-4.548 1.787-1 3.659-1.852 5.565-2.601a52 52 0 0 1 5.97-1.924c1.669-.434 5.071-1.013 5.071-1.013" style="fill:none;stroke:#000;stroke-width:.264583px;stroke-linecap:butt;stroke-linejoin:miter;stroke-opacity:1"/><path d="M71.342 142.514s-3.902-.768-5.815-1.304a57 57 0 0 1-5.5-1.857 39 39 0 0 1-3.667-1.66c-2.023-1.053-4.014-2.187-5.887-3.489a50.4 50.4 0 0 1-5.755-4.644 48 48 0 0 1-5.017-5.475c-1.694-2.171-3.203-4.493-4.548-6.895-1-1.787-1.852-3.66-2.601-5.565a52 52 0 0 1-1.924-5.971c-.434-1.668-1.014-5.07-1.014-5.07M127.183 100.588s-.32 3.688-.74 5.484c-.441 1.884-1.148 3.699-1.857 5.499a39 39 0 0 1-1.66 3.667c-1.053 2.024-2.187 4.014-3.489 5.888a50.4 50.4 0 0 1-4.644 5.755 48 48 0 0 1-5.475 5.017c-2.171 1.693-4.493 3.203-6.895 4.547-1.787 1-3.66 1.853-5.565 2.602a52 52 0 0 1-5.971 1.923c-1.668.434-5.07 1.014-5.07 1.014" style="fill:none;stroke:#000;stroke-width:.264583px;stroke-linecap:butt;stroke-linejoin:miter;stroke-opacity:1"/><circle cx="78.427" cy="93.195" r="42.859" style="fill:none;stroke:#ccc;stroke-width:.264583;stroke-linejoin:bevel"/><path d="m78.427 50.336.172 10.375c1.573 3.222 2.307 1.043 2.875.02v-5.406c.577-3.441 4.446-2.55 4.781 0v5.233c1.249 3.36 1.934 1.85 3.137 0v-5.314c1.452-3.073 3.814-1.81 4.882 0v10.21h-.904v-9.322c-1.595-2.504-2.488-1.662-3.21 0v5.32c-1.322 2.442-2.758 4.067-4.978 0V56.25c-.882-1.656-1.763-3.32-2.764 0v5.614c-1.068 1.614-1.729 4.11-5.445 0l-1.104-1.85M70.979 50.988l5.125 9.35M109.675 64.033l-7.66 7.001c-1.371 3.313.748 2.42 1.89 2.168l4.05-3.582c2.96-1.846 4.856 1.642 3.167 3.583l-3.92 3.466c-1.69 3.16-.105 2.673 2.077 2.35l3.98-3.52c3.266-.948 3.884 1.659 3.235 3.658l-7.65 6.763-.599-.678 6.985-6.175c.82-2.853-.403-2.964-2.125-2.404l-3.987 3.525c-2.705.626-4.874.626-3.298-3.73l3.898-3.447c.658-1.758 1.32-3.52-1.83-2.07l-4.205 3.717c-1.918.27-4.225 1.428-3.607-4.079l.655-2.053M104.253 58.885l-3.61 10.033M48.729 62.545l7.001 7.66c3.313 1.371 2.42-.748 2.167-1.89l-3.581-4.05c-1.847-2.96 1.642-4.856 3.582-3.167l3.467 3.92c3.16 1.69 2.673.105 2.35-2.077l-3.52-3.98c-.948-3.266 1.658-3.884 3.658-3.235l6.763 7.65-.678.599-6.175-6.985c-2.853-.82-2.965.403-2.404 2.125l3.524 3.987c.626 2.705.627 4.874-3.73 3.298L57.706 62.5c-1.758-.657-3.52-1.32-2.07 1.83l3.718 4.206c.269 1.917 1.428 4.225-4.08 3.607l-2.052-.655M43.58 67.967l10.033 3.61M121.233 93.438l-10.375.172c-3.223 1.573-1.043 2.307-.02 2.874h5.406c3.44.577 2.55 4.447 0 4.782h-5.234c-3.359 1.249-1.848 1.934 0 3.136h5.314c3.074 1.453 1.811 3.815 0 4.883h-10.21v-.904h9.323c2.504-1.595 1.662-2.488 0-3.21h-5.32c-2.443-1.322-4.068-2.758 0-4.979h5.203c1.656-.881 3.32-1.762 0-2.763h-5.614c-1.614-1.068-4.11-1.729 0-5.445l1.85-1.104M120.58 85.99l-9.35 5.125M78.37 135.902l-.173-10.375c-1.573-3.222-2.307-1.043-2.874-.02v5.407c-.577 3.44-4.447 2.55-4.782 0v-5.234c-1.248-3.36-1.933-1.849-3.136 0v5.314c-1.452 3.074-3.815 1.81-4.883 0v-10.21h.905v9.322c1.594 2.505 2.487 1.662 3.208 0v-5.32c1.324-2.442 2.76-4.067 4.98 0v5.203c.881 1.657 1.763 3.32 2.763 0v-5.613c1.069-1.615 1.73-4.111 5.445 0l1.104 1.85M85.818 135.25l-5.125-9.35M35.748 94.875l10.375-.172c3.222-1.573 1.042-2.307.02-2.875h-5.407c-3.44-.577-2.55-4.446 0-4.781h5.234c3.359-1.249 1.849-1.934 0-3.137h-5.314c-3.074-1.452-1.81-3.814 0-4.883h10.21v.905h-9.323c-2.504 1.595-1.662 2.488 0 3.209h5.321c2.442 1.323 4.067 2.759 0 4.98h-5.203c-1.657.88-3.32 1.762 0 2.763h5.613c1.615 1.068 4.111 1.729 0 5.444l-1.85 1.105M36.4 102.323l9.35-5.125M47.801 122.961l7.659-7.001c1.372-3.313-.747-2.42-1.889-2.167l-4.05 3.581c-2.96 1.847-4.856-1.642-3.168-3.582l3.921-3.467c1.69-3.16.105-2.673-2.077-2.35l-3.981 3.52c-3.265.948-3.883-1.658-3.234-3.658l7.65-6.763.598.678-6.984 6.175c-.82 2.853.402 2.964 2.125 2.404l3.987-3.524c2.705-.626 4.874-.627 3.298 3.73l-3.899 3.447c-.657 1.757-1.32 3.52 1.83 2.07l4.206-3.718c1.917-.269 4.225-1.428 3.606 4.08l-.654 2.052M53.223 128.11l3.61-10.034M107.098 124.902l-7-7.66c-3.314-1.371-2.42.748-2.168 1.89l3.581 4.05c1.847 2.96-1.642 4.856-3.582 3.167l-3.467-3.92c-3.16-1.69-2.673-.105-2.35 2.077l3.52 3.98c.948 3.266-1.658 3.884-3.658 3.235l-6.763-7.65.678-.599 6.175 6.985c2.854.82 2.965-.403 2.404-2.125l-3.524-3.987c-.626-2.705-.627-4.874 3.73-3.298l3.447 3.899c1.758.657 3.52 1.32 2.07-1.83l-3.718-4.206c-.269-1.917-1.427-4.225 4.08-3.607l2.052.655M112.246 119.48l-10.032-3.61" style="fill:none;stroke:#000;stroke-width:.264583px;stroke-linecap:butt;stroke-linejoin:miter;stroke-opacity:1"/><path d="M78.37 135.902s-4.901-.164-7.308-.588a47.7 47.7 0 0 1-8.773-2.413c-1.62-.62-3.121-1.515-4.655-2.326-1.489-.787-4.41-2.466-4.41-2.466M85.818 135.25s3.922-.721 5.83-1.285c1.716-.508 3.41-1.117 5.03-1.88 1.736-.819 3.401-1.8 4.99-2.879 1.91-1.298 5.43-4.304 5.43-4.304M47.801 122.961s-2.476-2.509-3.55-3.901a38 38 0 0 1-3.176-4.898 49 49 0 0 1-3.028-6.6c-.638-1.727-1.513-5.313-1.513-5.313M35.748 94.875s-.228-4.447-.003-6.654c.2-1.964.684-3.894 1.199-5.8a47 47 0 0 1 1.89-5.637 44 44 0 0 1 2.406-4.897c.756-1.335 2.498-3.864 2.498-3.864M48.729 62.545s3.757-3.506 5.86-4.968c1.832-1.274 3.807-2.352 5.838-3.278 2.323-1.06 4.756-1.879 7.21-2.583 1.096-.314 3.342-.728 3.342-.728M78.427 50.336s6.11.39 9.107.979c2.34.46 4.66 1.094 6.873 1.986 2.34.942 4.537 2.222 6.697 3.525 1.08.653 3.12 2.143 3.12 2.143M109.675 64.033s4.5 5.336 6.23 8.346c1.464 2.544 2.555 5.307 3.452 8.102.575 1.79 1.224 5.508 1.224 5.508M121.233 93.438s-.422 6.802-1.213 10.099c-.716 2.984-1.856 5.87-3.168 8.644-.893 1.889-2.021 3.663-3.18 5.401-.44.658-1.426 1.898-1.426 1.898" style="fill:none;stroke:#000;stroke-width:.264583px;stroke-linecap:butt;stroke-linejoin:miter;stroke-opacity:1"/><path d="m107.543 42.751 9.42-11.403" style="fill:none;stroke:#00f;stroke-width:.264583px;stroke-linecap:butt;stroke-linejoin:miter;stroke-opacity:1;marker-start:url(#b)"/><text xml:space="preserve" style="font-size:14.6667px;line-height:1.25;font-family:sans-serif;white-space:pre;shape-inside:url(#c);display:inline" transform="matrix(0.26458333,0,0,0.26458333,1.6943359,3.7236328)"><tspan x="432.271" y="101.051">D1</tspan></text><path d="m113.51 57.735 15.98-11.828" style="fill:none;stroke:#00f;stroke-width:.264583px;stroke-linecap:butt;stroke-linejoin:miter;stroke-opacity:1;marker-start:url(#d)"/><text xml:space="preserve" style="font-size:14.6667px;line-height:1.25;font-family:sans-serif;white-space:pre;shape-inside:url(#e);display:inline" transform="matrix(0.26458333,0,0,0.26458333,-3.3164062,4.7773437)"><tspan x="503.914" y="158.613">D2</tspan></text><text xml:space="preserve" style="font-size:14.6667px;line-height:1.25;font-family:sans-serif;white-space:pre;shape-inside:url(#f);display:inline" transform="scale(0.26458333)"><tspan x="309.139" y="78.934">D3</tspan></text><path d="m79.248 31.826 3.227-10.245" style="fill:none;stroke:#00f;stroke-width:.264583px;stroke-linecap:butt;stroke-linejoin:miter;stroke-opacity:1;marker-start:url(#b)"/><text xml:space="preserve" style="font-size:14.6667px;line-height:1.25;font-family:sans-serif;white-space:pre;shape-inside:url(#g);display:inline" transform="matrix(0.26458333,0,0,0.26458333,-3.2568359,4.2675781)"><tspan x="360.738" y="85.488">D4</tspan></text><path d="m83.375 31.951 8.031-4.717" style="fill:none;stroke:#00f;stroke-width:.264583px;stroke-linecap:butt;stroke-linejoin:miter;stroke-opacity:1;marker-start:url(#b)"/><path d="M127.417 86.158h21.497M127.16 100.54h21.497" style="fill:none;stroke:#ccc;stroke-width:.264583px;stroke-linecap:butt;stroke-linejoin:miter;stroke-opacity:1"/><path d="M148.476 86.503v14.113" style="fill:none;stroke:#00f;stroke-width:.264583px;stroke-linecap:butt;stroke-linejoin:miter;stroke-opacity:1;marker-start:url(#b);marker-end:url(#b)"/><text xml:space="preserve" style="font-size:14.6667px;line-height:1.25;font-family:sans-serif;white-space:pre;shape-inside:url(#h);display:inline" transform="matrix(0.26458333,0,0,0.26458333,4.1459961,-20.158691)"><tspan x="546.666" y="435.053">L1</tspan></text><text xml:space="preserve" style="font-size:14.6667px;line-height:1.25;font-family:sans-serif;white-space:pre;shape-inside:url(#i);display:inline" transform="matrix(0.26458333,0,0,0.26458333,-38.533535,18.871989)"><tspan x="519.75" y="56.738">R5</tspan></text><path d="m86.687 43.145 12.11-9.768" style="fill:none;stroke:#00f;stroke-width:.264583px;stroke-linecap:butt;stroke-linejoin:miter;stroke-opacity:1;marker-start:url(#b)"/><path d="m120.373 81.926 21.592-8.921" style="fill:none;stroke:#00f;stroke-width:.264583px;stroke-linecap:butt;stroke-linejoin:miter;stroke-opacity:1;marker-start:url(#b)"/><text xml:space="preserve" style="font-size:14.6667px;line-height:1.25;font-family:sans-serif;white-space:pre;shape-inside:url(#j);display:inline" transform="matrix(0.26458333,0,0,0.26458333,-1.4687657,7.8127012)"><tspan x="543.217" y="249.869">D6</tspan></text><path d="m132.444 152.41 8.205-6.535" style="fill:none;stroke:#00f;stroke-width:.264583px;stroke-linecap:butt;stroke-linejoin:miter;stroke-opacity:1;marker-end:url(#b)"/><text xml:space="preserve" style="font-size:14.6667px;line-height:1.25;font-family:sans-serif;white-space:pre;shape-inside:url(#k);display:inline" transform="matrix(0.26458333,0,0,0.26458333,9.1468129,-11.281944)"><tspan x="479.338" y="622.658">T1</tspan></text><text xml:space="preserve" style="font-size:14.6667px;line-height:1.25;font-family:sans-serif;white-space:pre;shape-inside:url(#l);display:inline" transform="scale(0.26458333)"><tspan x="49.656" y="110.012">N1</tspan></text><path d="m18.79 85.053-2.138-54.602 54.252 3.003" style="fill:none;stroke:#00f;stroke-width:.264583px;stroke-linecap:butt;stroke-linejoin:miter;stroke-opacity:1;marker-start:url(#b);marker-end:url(#b)"/><text xml:space="preserve" style="font-size:14.6667px;line-height:1.25;font-family:sans-serif;white-space:pre;shape-inside:url(#m);display:inline" transform="matrix(0.26458333,0,0,0.26458333,6.790711,1.9680218)"><tspan x="77.857" y="150.508">N2</tspan></text><path d="m41.39 77.769-9.003-35.261L59.411 57.97" style="fill:none;stroke:#00f;stroke-width:.264583px;stroke-linecap:butt;stroke-linejoin:miter;stroke-opacity:1;marker-start:url(#b);marker-end:url(#b)"/><path d="m47.639 123.115-18.306 18.36M53.052 128.533l-18.306 18.36" style="fill:none;stroke:#ccc;stroke-width:.264583px;stroke-linecap:butt;stroke-linejoin:miter;stroke-opacity:1"/><path d="m34.779 146.626-5.183-5.183" style="fill:none;stroke:#00f;stroke-width:.264584px;stroke-linecap:butt;stroke-linejoin:miter;stroke-opacity:1;marker-start:url(#b);marker-end:url(#b)"/><text xml:space="preserve" style="font-size:14.6667px;line-height:1.25;font-family:sans-serif;white-space:pre;shape-inside:url(#n);display:inline" transform="matrix(0.26458333,0,0,0.26458333,8.7449221,0.83140289)"><tspan x="66.771" y="557.27">E2</tspan></text><path d="M62.492 120.614V104.56M63.39 120.845v-16.056" style="fill:none;stroke:#ccc;stroke-width:.264583px;stroke-linecap:butt;stroke-linejoin:miter;stroke-opacity:1"/><path d="M62.195 105.047h-5.448" style="fill:none;stroke:#00f;stroke-width:.264583px;stroke-linecap:butt;stroke-linejoin:miter;stroke-opacity:1;marker-start:url(#b)"/><path d="M63.692 105.02h5.449" style="fill:none;stroke:#00f;stroke-width:.264583px;stroke-linecap:butt;stroke-linejoin:miter;stroke-opacity:1;marker-start:url(#o)"/><text xml:space="preserve" style="font-size:14.6667px;line-height:1.25;font-family:sans-serif;white-space:pre;shape-inside:url(#p);display:inline" transform="matrix(0.26458333,0,0,0.26458333,0.22304247,10.805475)"><tspan x="230.477" y="350.764">E1</tspan></text><path d="M71.652 124.61v-14.315M74.517 124.786V110.47" style="fill:none;stroke:#ccc;stroke-width:.264583px;stroke-linecap:butt;stroke-linejoin:miter;stroke-opacity:1"/><path d="M71.673 111.141h-5.449" style="fill:none;stroke:#00f;stroke-width:.264583px;stroke-linecap:butt;stroke-linejoin:miter;stroke-opacity:1;marker-start:url(#q)"/><path d="M74.758 111.115h5.448" style="fill:none;stroke:#00f;stroke-width:.264583px;stroke-linecap:butt;stroke-linejoin:miter;stroke-opacity:1;marker-start:url(#r)"/><text xml:space="preserve" style="font-size:14.6667px;line-height:1.25;font-family:sans-serif;white-space:pre;shape-inside:url(#s);display:inline" transform="matrix(0.26458333,0,0,0.26458333,9.7006736,16.900065)"><tspan x="230.477" y="350.764">W1</tspan></text><path d="M32.757 128.44s2.452-1.473 3.829-1.59c1.014-.086 2.073.211 2.978.678.682.352 1.72 1.534 1.72 1.534" style="fill:none;stroke:#00f;stroke-width:.264583px;stroke-linecap:butt;stroke-linejoin:miter;stroke-opacity:1;marker-start:url(#b);marker-end:url(#b)"/><text xml:space="preserve" style="font-size:14.6667px;line-height:1.25;font-family:sans-serif;white-space:pre;shape-inside:url(#t);display:inline;fill:#000;stroke:none" transform="matrix(0.26458333,0,0,0.26458333,22.066738,-7.1348447)"><tspan x="41.965" y="503.482">a1</tspan></text><text xml:space="preserve" style="font-size:14.6667px;line-height:1.25;font-family:sans-serif;white-space:pre;shape-inside:url(#u);display:inline" transform="matrix(0.26458333,0,0,0.26458333,-1.4459781,-4.5991739)"><tspan x="271.402" y="287.686">L2</tspan></text><text xml:space="preserve" style="font-size:14.6667px;line-height:1.25;font-family:sans-serif;white-space:pre;shape-inside:url(#v);display:inline" transform="matrix(0.26458333,0,0,0.26458333,1.1946237,-7.926857)"><tspan x="310.68" y="304.566">L3</tspan></text><text xml:space="preserve" style="font-size:14.6667px;line-height:1.25;font-family:sans-serif;white-space:pre;shape-inside:url(#w);display:inline" transform="matrix(0.26458333,0,0,0.26458333,7.2001976,-14.300486)"><tspan x="326.973" y="335.143">L4</tspan></text><path d="m77.87 57.453-4.973 10.545" style="fill:none;stroke:#00f;stroke-width:.264583px;stroke-linecap:butt;stroke-linejoin:miter;stroke-opacity:1;marker-start:url(#b)"/><path d="m82.429 58.974 2.87 10.144" style="fill:none;stroke:#00f;stroke-width:.264583px;stroke-linecap:butt;stroke-linejoin:miter;stroke-opacity:1;marker-start:url(#b)"/><path d="m94.663 62.218 1.71 8.627" style="fill:none;stroke:#00f;stroke-width:.264583px;stroke-linecap:butt;stroke-linejoin:miter;stroke-opacity:1;marker-start:url(#b)"/><path d="M19.84 323.077v25.239M42.329 323.077v25.239" style="fill:none;stroke:#ccc;stroke-width:.264583px;stroke-linecap:butt;stroke-linejoin:miter;stroke-opacity:1"/><path d="m42.329 323.077-8.558-33.22" style="fill:none;stroke:#000;stroke-width:.264583px;stroke-linecap:butt;stroke-linejoin:miter;stroke-opacity:1"/><path d="m50.887 356.297-8.558-33.22M42.457 323.077h75.06" style="fill:none;stroke:#ccc;stroke-width:.264583px;stroke-linecap:butt;stroke-linejoin:miter;stroke-opacity:1"/><path d="M19.84 348.316h22.489" style="fill:none;stroke:#00f;stroke-width:.264583px;stroke-linecap:butt;stroke-linejoin:miter;stroke-opacity:1;marker-start:url(#b);marker-end:url(#b)"/><path d="M41.047 316.579s4.937-1.308 6.53.176c1.473 1.37.593 6.005.593 6.005" style="fill:none;stroke:#00f;stroke-width:.264583px;stroke-linecap:butt;stroke-linejoin:miter;stroke-opacity:1;marker-start:url(#b);marker-end:url(#b)"/><text xml:space="preserve" style="font-size:14.6667px;line-height:1.25;font-family:sans-serif;white-space:pre;shape-inside:url(#x);display:inline" transform="matrix(0.26458333,0,0,0.26458333,-50.339787,56.636824)"><tspan x="371.084" y="984.223">a1</tspan></text><text xml:space="preserve" style="font-size:14.6667px;line-height:1.25;font-family:sans-serif;white-space:pre;shape-inside:url(#y);display:inline" transform="matrix(0.26458333,0,0,0.26458333,-38.466772,72.158537)"><tspan x="256.082" y="1060.629">E2</tspan></text><path d="m33.77 289.857-8.054 2.003" style="fill:none;stroke:#e6e6e6;stroke-width:.264583px;stroke-linecap:butt;stroke-linejoin:miter;stroke-opacity:1"/><path d="m19.84 323.077 5.876-31.217" style="fill:none;stroke:#000;stroke-width:.264583px;stroke-linecap:butt;stroke-linejoin:miter;stroke-opacity:1"/><path d="m48.007 286.249-14.236 3.608" style="fill:none;stroke:#ccc;stroke-width:.264582px;stroke-linecap:butt;stroke-linejoin:miter;stroke-opacity:1"/><path d="m56.061 284.245-8.054 2.004" style="fill:none;stroke:#e6e6e6;stroke-width:.264583px;stroke-linecap:butt;stroke-linejoin:miter;stroke-opacity:1"/><path d="m52.82 304.99-4.789-18.753" style="fill:none;stroke:#000;stroke-width:.264583px;stroke-linecap:butt;stroke-linejoin:miter;stroke-opacity:1"/><ellipse cx="40.981" cy="288.291" rx="7.261" ry="7.458" style="fill:none;stroke:#e6e6e6;stroke-width:.264583;stroke-linejoin:bevel"/><ellipse cx="41.028" cy="288.127" rx="15.435" ry="15.849" style="fill:none;stroke:#e6e6e6;stroke-width:.264583;stroke-linejoin:bevel"/><path d="m75.111 299.379-14.236 3.608" style="fill:none;stroke:#ccc;stroke-width:.264582px;stroke-linecap:butt;stroke-linejoin:miter;stroke-opacity:1"/><ellipse cx="67.86" cy="300.981" rx="7.261" ry="7.458" style="fill:none;stroke:#e6e6e6;stroke-width:.264583;stroke-linejoin:bevel"/><ellipse cx="67.907" cy="300.817" rx="15.435" ry="15.849" style="fill:none;stroke:#e6e6e6;stroke-width:.264583;stroke-linejoin:bevel"/><path d="m60.875 302.987-8.055 2.003M83.014 297.414l-8.055 2.003" style="fill:none;stroke:#e6e6e6;stroke-width:.264583px;stroke-linecap:butt;stroke-linejoin:miter;stroke-opacity:1"/><path d="m60.786 303.015-4.79-18.754M74.96 299.417l-4.79-18.754" style="fill:none;stroke:#000;stroke-width:.264583px;stroke-linecap:butt;stroke-linejoin:miter;stroke-opacity:1"/><path d="m78.225 278.66-8.055 2.003" style="fill:none;stroke:#e6e6e6;stroke-width:.264583px;stroke-linecap:butt;stroke-linejoin:miter;stroke-opacity:1"/><path d="m83.138 297.43-4.79-18.754" style="fill:none;stroke:#000;stroke-width:.264583px;stroke-linecap:butt;stroke-linejoin:miter;stroke-opacity:1"/><path d="m92.46 275.052-14.235 3.608" style="fill:none;stroke:#ccc;stroke-width:.264582px;stroke-linecap:butt;stroke-linejoin:miter;stroke-opacity:1"/><path d="m105.305 291.802-8.055 2.004" style="fill:none;stroke:#e6e6e6;stroke-width:.264583px;stroke-linecap:butt;stroke-linejoin:miter;stroke-opacity:1"/><path d="m97.25 293.806-4.79-18.754" style="fill:none;stroke:#000;stroke-width:.264583px;stroke-linecap:butt;stroke-linejoin:miter;stroke-opacity:1"/><path d="m100.515 273.048-8.054 2.004" style="fill:none;stroke:#e6e6e6;stroke-width:.264583px;stroke-linecap:butt;stroke-linejoin:miter;stroke-opacity:1"/><path d="m105.428 291.818-4.789-18.754" style="fill:none;stroke:#000;stroke-width:.264583px;stroke-linecap:butt;stroke-linejoin:miter;stroke-opacity:1"/><path d="m119.664 288.21-14.236 3.608" style="fill:none;stroke:#ccc;stroke-width:.264582px;stroke-linecap:butt;stroke-linejoin:miter;stroke-opacity:1"/><path d="m127.567 286.245-8.054 2.003" style="fill:none;stroke:#e6e6e6;stroke-width:.264583px;stroke-linecap:butt;stroke-linejoin:miter;stroke-opacity:1"/><path d="m119.445 288.282-11.19-43.34" style="fill:none;stroke:#000;stroke-width:.264583px;stroke-linecap:butt;stroke-linejoin:miter;stroke-opacity:1"/><path d="m122.778 267.49-8.054 2.004" style="fill:none;stroke:#e6e6e6;stroke-width:.264583px;stroke-linecap:butt;stroke-linejoin:miter;stroke-opacity:1"/><path d="M60.784 303.01s.82 1.936 1.485 2.73c.678.81 1.525 1.517 2.475 1.977.96.465 2.05.726 3.116.722a7.5 7.5 0 0 0 3.233-.78c.878-.432 1.655-1.093 2.29-1.838.675-.79 1.233-1.715 1.545-2.706.214-.682.198-1.42.193-2.135-.004-.527-.163-1.572-.163-1.572" style="fill:none;stroke:#000;stroke-width:.264583px;stroke-linecap:butt;stroke-linejoin:miter;stroke-opacity:1"/><path d="M52.838 305.03s.557 1.35.854 2.017c.285.64.537 1.298.888 1.904a17 17 0 0 0 1.527 2.17c.446.548.926 1.072 1.45 1.547.611.553 1.26 1.074 1.963 1.503.838.51 1.752.89 2.663 1.256.902.363 1.816.718 2.766.926.977.214 1.983.326 2.983.324.885-.002 1.77-.126 2.638-.299 1.116-.221 2.227-.513 3.282-.94 1.044-.423 2.07-.93 2.98-1.593.8-.583 1.475-1.327 2.133-2.066.794-.893 1.557-1.826 2.176-2.848.41-.676.734-1.405 1.005-2.147.285-.783.459-1.603.646-2.414.193-.84.392-1.68.492-2.535.103-.885.142-1.78.108-2.67-.022-.565-.2-1.684-.2-1.684M48.103 286.223s-.82-1.937-1.485-2.73c-.678-.81-1.525-1.518-2.475-1.978a7.2 7.2 0 0 0-3.115-.721 7.5 7.5 0 0 0-3.234.78c-.878.431-1.655 1.093-2.29 1.837-.675.79-1.233 1.716-1.544 2.706-.215.682-.198 1.42-.194 2.135.004.527.163 1.572.163 1.572" style="fill:none;stroke:#000;stroke-width:.264583px;stroke-linecap:butt;stroke-linejoin:miter;stroke-opacity:1"/><path d="M56.049 284.203s-.557-1.35-.854-2.018c-.284-.64-.537-1.297-.888-1.903a17 17 0 0 0-1.526-2.17 14 14 0 0 0-1.451-1.547c-.611-.553-1.26-1.075-1.963-1.503-.838-.511-1.752-.891-2.663-1.257-.902-.362-1.816-.718-2.766-.926a14 14 0 0 0-2.983-.324c-.885.002-1.77.127-2.638.3-1.116.22-2.227.512-3.282.94-1.044.423-2.07.929-2.98 1.592-.8.584-1.475 1.327-2.133 2.067-.794.892-1.556 1.826-2.176 2.847a12 12 0 0 0-1.005 2.148c-.285.782-.459 1.602-.646 2.414-.193.839-.392 1.68-.491 2.535-.104.885-.143 1.78-.109 2.67.022.565.2 1.683.2 1.683M92.522 275.074s-.82-1.936-1.485-2.73c-.678-.81-1.525-1.517-2.475-1.977a7.2 7.2 0 0 0-3.115-.722 7.5 7.5 0 0 0-3.234.78c-.878.432-1.655 1.093-2.29 1.838-.675.79-1.233 1.715-1.544 2.706-.214.681-.198 1.42-.194 2.134.004.527.164 1.573.164 1.573" style="fill:none;stroke:#000;stroke-width:.264583px;stroke-linecap:butt;stroke-linejoin:miter;stroke-opacity:1"/><path d="M100.718 273.152s-.461-1.5-.811-2.199c-.324-.646-.776-1.22-1.181-1.82-.495-.732-.968-1.484-1.526-2.17a14 14 0 0 0-1.451-1.547c-.611-.553-1.259-1.074-1.963-1.503-.838-.51-1.752-.89-2.663-1.257-.902-.362-1.816-.718-2.766-.926a14 14 0 0 0-2.983-.323c-.885.002-1.77.126-2.638.299-1.116.221-2.227.513-3.282.94-1.043.423-2.07.93-2.98 1.593-.8.583-1.475 1.326-2.133 2.066-.794.893-1.556 1.826-2.176 2.848a12 12 0 0 0-1.005 2.147c-.285.783-.459 1.603-.646 2.414-.193.839-.392 1.68-.491 2.535-.103.885-.143 1.78-.108 2.67.021.565.199 1.684.199 1.684M127.691 286.26l-11.19-43.34M108.256 244.942l8.246-2.021M105.428 291.818s.82 1.936 1.485 2.73c.678.81 1.525 1.518 2.475 1.978.96.464 2.05.726 3.115.721a7.5 7.5 0 0 0 3.234-.78c.878-.431 1.655-1.093 2.29-1.837.675-.79 1.233-1.716 1.544-2.706.215-.682.236-1.422.194-2.135-.031-.518-.324-1.523-.324-1.523" style="fill:none;stroke:#000;stroke-width:.264583px;stroke-linecap:butt;stroke-linejoin:miter;stroke-opacity:1"/><path d="M97.25 293.806s.286 1.396.557 2.05c.288.694.688 1.341 1.122 1.955.538.76 1.2 1.425 1.821 2.118.473.526.927 1.073 1.451 1.547.611.553 1.26 1.074 1.963 1.503.838.511 1.752.891 2.663 1.257.902.362 1.816.718 2.766.926.977.214 1.983.326 2.983.323.885-.002 1.77-.126 2.638-.298 1.116-.222 2.227-.513 3.282-.94 1.044-.424 2.07-.93 2.98-1.593.8-.584 1.475-1.327 2.133-2.067.794-.892 1.556-1.826 2.176-2.847a12 12 0 0 0 1.005-2.148c.285-.782.459-1.602.646-2.414.193-.839.392-1.68.491-2.535.104-.885.179-1.782.109-2.67-.046-.58-.345-1.712-.345-1.712" style="fill:none;stroke:#000;stroke-width:.264583px;stroke-linecap:butt;stroke-linejoin:miter;stroke-opacity:1"/><path d="m108.256 244.942-4.79-18.754M116.502 242.92l-4.79-18.753" style="fill:none;stroke:#ccc;stroke-width:.264583px;stroke-linecap:butt;stroke-linejoin:miter;stroke-opacity:1"/><path d="m103.37 226.027 8.246-2.021" style="fill:none;stroke:#00f;stroke-width:.264583px;stroke-linecap:butt;stroke-linejoin:miter;stroke-opacity:1;marker-start:url(#b);marker-end:url(#b)"/><path d="m125.521 266.517-6.102-24.577" style="fill:none;stroke:#00f;stroke-width:.264583px;stroke-linecap:butt;stroke-linejoin:miter;stroke-opacity:1;marker-start:url(#b);marker-end:url(#b)"/><path d="m100.718 273.152-4.79-18.753" style="fill:none;stroke:#ccc;stroke-width:.264583px;stroke-linecap:butt;stroke-linejoin:miter;stroke-opacity:1"/><path d="m109.84 252.14-13.612 3.43" style="fill:none;stroke:#00f;stroke-width:.264582px;stroke-linecap:butt;stroke-linejoin:miter;stroke-opacity:1;marker-start:url(#b);marker-end:url(#b)"/><path d="m106.985 291.25-4.652-18.266" style="fill:none;stroke:#00f;stroke-width:.264583px;stroke-linecap:butt;stroke-linejoin:miter;stroke-opacity:1;marker-start:url(#b);marker-end:url(#b)"/><path d="m44.896 322.548-8.558-33.22" style="fill:none;stroke:#00f;stroke-width:.264583px;stroke-linecap:butt;stroke-linejoin:miter;stroke-opacity:1;marker-start:url(#b);marker-end:url(#b)"/><text xml:space="preserve" style="font-size:14.6667px;line-height:1.25;font-family:sans-serif;white-space:pre;shape-inside:url(#z);display:inline" transform="matrix(0.26458333,0,0,0.26458333,0.60628882,44.377856)"><tspan x="156.588" y="986.836">L2</tspan></text><text xml:space="preserve" style="font-size:14.6667px;line-height:1.25;font-family:sans-serif;white-space:pre;shape-inside:url(#A);display:inline" transform="matrix(0.26458333,0,0,0.26458333,15.700671,-36.482981)"><tspan x="339.191" y="1208.103">L3</tspan></text><text xml:space="preserve" style="font-size:14.6667px;line-height:1.25;font-family:sans-serif;white-space:pre;shape-inside:url(#B);display:inline" transform="matrix(0.26458333,0,0,0.26458333,39.403939,-63.985567)"><tspan x="324.516" y="1215.168">L4</tspan></text><text xml:space="preserve" style="font-size:14.6667px;line-height:1.25;font-family:sans-serif;white-space:pre;shape-inside:url(#C);display:inline" transform="matrix(0.26458333,0,0,0.26458333,28.291176,10.573456)"><tspan x="264.049" y="914.16">W1</tspan></text><text xml:space="preserve" style="font-size:14.6667px;line-height:1.25;font-family:sans-serif;white-space:pre;shape-inside:url(#D);display:inline" transform="matrix(0.26458333,0,0,0.26458333,41.712395,-7.7574585)"><tspan x="235.652" y="871.869">E1</tspan></text><text xml:space="preserve" style="font-size:14.6667px;line-height:1.25;font-family:sans-serif;white-space:pre;shape-inside:url(#E);display:inline" transform="matrix(0.26458333,0,0,0.26458333,-0.64357765,-0.64495872)"><tspan x="364.518" y="1270.977">N3</tspan></text><path d="m79.964 313.083 16.882 17.583 10.449-24.305" style="fill:none;stroke:#00f;stroke-width:.264583px;stroke-linecap:butt;stroke-linejoin:miter;stroke-opacity:1;marker-start:url(#b);marker-end:url(#b)"/><text xml:space="preserve" style="font-size:14.6667px;line-height:1.25;font-family:sans-serif;white-space:pre;shape-inside:url(#F);display:inline" transform="scale(0.26458333)"><tspan x="385.047" y="579.231">R7</tspan></text><path d="m79.045 136.35 21.403 13.196" style="fill:none;stroke:#00f;stroke-width:.264583px;stroke-linecap:butt;stroke-linejoin:miter;stroke-opacity:1;marker-start:url(#b)"/><path d="m86.714 136.157 15.414 13.032" style="fill:none;stroke:#00f;stroke-width:.264583px;stroke-linecap:butt;stroke-linejoin:miter;stroke-opacity:1;marker-start:url(#b)"/><path d="m114.87 269.477-14.235 3.608" style="fill:none;stroke:#ccc;stroke-width:.264582px;stroke-linecap:butt;stroke-linejoin:miter;stroke-opacity:1"/></svg>