<svg xmlns="http://www.w3.org/2000/svg" width="328.102" height="382.763" viewBox="0 0 86.81 101.273"><defs><path id="h" d="M233.246 47.293h44.299V68.39h-44.299z"/><path id="g" d="M232.386 422.66h31.102v21.1h-31.102z"/><path id="f" d="M44.168 340.133h33.631v34.846H44.168z"/><path id="e" d="M68.458 268.919h42.822v26.822H68.458z"/><path id="b" d="M416.933 216.016h66.522v54.076h-66.522z"/><marker id="a" markerHeight="1" markerWidth="1" orient="auto-start-reverse" preserveAspectRatio="xMidYMid" refX="0" refY="0" style="overflow:visible" viewBox="0 0 1 1"><path d="M-.211-4.106 6.21-.894a1 1 90 0 1 0 1.788L-.21 4.106A1.236 1.236 31.717 0 1-2 3v-6A1.236 1.236 148.283 0 1-.211-4.106" style="fill:context-stroke;fill-rule:evenodd;stroke:none" transform="scale(.7)"/></marker><marker id="c" markerHeight="1" markerWidth="1" orient="auto-start-reverse" preserveAspectRatio="xMidYMid" refX="0" refY="0" style="overflow:visible" viewBox="0 0 1 1"><path d="M-.211-4.106 6.21-.894a1 1 90 0 1 0 1.788L-.21 4.106A1.236 1.236 31.717 0 1-2 3v-6A1.236 1.236 148.283 0 1-.211-4.106" style="fill:context-stroke;fill-rule:evenodd;stroke:none" transform="scale(.7)"/></marker><marker id="d" markerHeight="1" markerWidth="1" orient="auto-start-reverse" preserveAspectRatio="xMidYMid" refX="0" refY="0" style="overflow:visible" viewBox="0 0 1 1"><path d="M-.211-4.106 6.21-.894a1 1 90 0 1 0 1.788L-.21 4.106A1.236 1.236 31.717 0 1-2 3v-6A1.236 1.236 148.283 0 1-.211-4.106" style="fill:context-stroke;fill-rule:evenodd;stroke:none" transform="scale(.7)"/></marker></defs><path d="M23.511 13.948h86.546v101.008H23.511z" style="fill:#fff;stroke:#fff;stroke-width:.264583" transform="translate(-23.379 -13.816)"/><path d="M60.606 34.189h12.732v5.055H60.606z" style="fill:#ccc;stroke:#ccc;stroke-width:.264583" transform="translate(-23.379 -13.816)"/><path d="M73.339 34.189h8.564v5.055h-8.564z" style="fill:#fff;stroke:#999;stroke-width:.264583" transform="translate(-23.379 -13.816)"/><path d="M81.902 34.189h3.509v5.055h-3.509z" style="fill:#fff;stroke:#999;stroke-width:.264583" transform="translate(-23.379 -13.816)"/><path d="M60.606 90.057h12.732v5.055H60.606z" style="fill:#ccc;stroke:#ccc;stroke-width:.264583" transform="translate(-23.379 -13.816)"/><path d="M73.339 90.057h8.564v5.055h-8.564z" style="fill:#fff;stroke:#999;stroke-width:.264583" transform="translate(-23.379 -13.816)"/><path d="M81.902 90.057h3.509v5.055h-3.509z" style="fill:#fff;stroke:#999;stroke-width:.264583" transform="translate(-23.379 -13.816)"/><path d="M73.339 90.057h8.563V39.245H73.34v-5.056H85.41v60.923H73.34v-5.055M60.677 89.858h-8.563V39.046h8.563v-5.055H48.605v60.923h12.072v-5.056" style="fill:#999;stroke:#999;stroke-width:.264583px;stroke-linecap:butt;stroke-linejoin:miter;stroke-opacity:1" transform="translate(-23.379 -13.816)"/><path d="m85.545 34.322 14.708-.133M85.545 95.112l14.708-.132" style="fill:#b3b3b3;stroke:#b3b3b3;stroke-width:.264583px;stroke-linecap:butt;stroke-linejoin:miter;stroke-opacity:1" transform="translate(-23.379 -13.816)"/><path d="M100.253 35.648v57.975" style="fill:none;stroke:#000;stroke-width:.264583px;stroke-linecap:butt;stroke-linejoin:miter;stroke-opacity:1;marker-start:url(#a);marker-end:url(#a)" transform="translate(-23.379 -13.816)"/><text xml:space="preserve" style="font-size:14.6667px;line-height:1.25;font-family:sans-serif;white-space:pre;shape-inside:url(#b);display:inline" transform="translate(-33.036 -8.882)scale(.26458)"><tspan x="416.934" y="228.992">H1</tspan></text><path d="m34.028 95.112 14.708-.132M33.692 89.99l18.422-.132" style="fill:#b3b3b3;stroke:#b3b3b3;stroke-width:.264583px;stroke-linecap:butt;stroke-linejoin:miter;stroke-opacity:1" transform="translate(-23.379 -13.816)"/><path d="M33.692 94.258v-3.012" style="fill:none;stroke:#000;stroke-width:.264583px;stroke-linecap:butt;stroke-linejoin:miter;stroke-opacity:1;marker-start:url(#a);marker-end:url(#a)" transform="translate(-23.379 -13.816)"/><path d="M56.379 76.464h-3.011" style="fill:none;stroke:#000;stroke-width:.264583px;stroke-linecap:butt;stroke-linejoin:miter;stroke-opacity:1;marker-end:url(#c)" transform="translate(-23.379 -13.816)"/><path d="M44.147 76.464h3.01" style="fill:none;stroke:#000;stroke-width:.264583px;stroke-linecap:butt;stroke-linejoin:miter;stroke-opacity:1;marker-end:url(#d)" transform="translate(-23.379 -13.816)"/><text xml:space="preserve" style="font-size:14.6667px;line-height:1.25;font-family:sans-serif;white-space:pre;shape-inside:url(#e);display:inline" transform="translate(-2.67 -10.723)scale(.26458)"><tspan x="68.457" y="281.895">E1</tspan></text><text xml:space="preserve" style="font-size:14.6667px;line-height:1.25;font-family:sans-serif;white-space:pre;shape-inside:url(#f);display:inline" transform="translate(-7.929 -13.005)scale(.26458)"><tspan x="44.168" y="353.109">E2</tspan></text><path d="M48.605 95.046v13.245M60.606 20.944V34.19M85.411 94.848v13.245" style="fill:#ccc;stroke:#b3b3b3;stroke-width:.264583px;stroke-linecap:butt;stroke-linejoin:miter;stroke-opacity:1" transform="translate(-23.379 -13.816)"/><path d="M84.073 108.093H49.9" style="fill:none;stroke:#000;stroke-width:.264583px;stroke-linecap:butt;stroke-linejoin:miter;stroke-opacity:1;marker-start:url(#a);marker-end:url(#a)" transform="translate(-23.379 -13.816)"/><text xml:space="preserve" style="font-size:14.6667px;line-height:1.25;font-family:sans-serif;white-space:pre;shape-inside:url(#g);display:inline" transform="translate(-20.472 -17.372)scale(.26458)"><tspan x="232.387" y="435.637">D1</tspan></text><path d="M73.207 20.812v13.245" style="fill:#ccc;stroke:#b3b3b3;stroke-width:.264583px;stroke-linecap:butt;stroke-linejoin:miter;stroke-opacity:1" transform="translate(-23.379 -13.816)"/><path d="M61.764 20.944h10.417" style="fill:none;stroke:#000;stroke-width:.264583px;stroke-linecap:butt;stroke-linejoin:miter;stroke-opacity:1;marker-start:url(#a);marker-end:url(#a)" transform="translate(-23.379 -13.816)"/><text xml:space="preserve" style="font-size:14.6667px;line-height:1.25;font-family:sans-serif;white-space:pre;shape-inside:url(#h);display:inline" transform="translate(-20.844 -10.03)scale(.26458)"><tspan x="233.246" y="60.27">D2</tspan></text></svg>