<svg xmlns="http://www.w3.org/2000/svg" width="583.904" height="511.197" viewBox="0 0 154.491 135.254"><defs><path id="s" d="M106.855 1728.119h38.808v30.888h-38.808z"/><path id="c" d="M274.597 1135.815h121.684v58.77H274.597z"/><path id="h" d="M452.06 645.818h57.555v33.412H452.06z"/><path id="i" d="M209.616 689.979h115.718v71.502H209.616z"/><path id="j" d="M286.284 727.236h83.647v43.59h-83.647z"/><path id="k" d="M445.519 1111.086h61.593v52.801h-61.593z"/><path id="l" d="M433.234 1175.506h59.38v56.736h-59.38z"/><path id="m" d="M355.69 756.999h157.723v40.717H355.69z"/><path id="n" d="M152.946 783.135h50.197v30.108h-50.197z"/><path id="p" d="M256.083 1047.652h56.452v52.313h-56.452z"/><path id="q" d="M385.047 566.254h46.923v30.295h-46.923z"/><marker id="b" markerHeight="1" markerWidth="1" orient="auto-start-reverse" preserveAspectRatio="xMidYMid" refX="0" refY="0" style="overflow:visible" viewBox="0 0 1 1"><path d="M3-3 0 0l3 3" style="fill:none;stroke:context-stroke;stroke-width:1;stroke-linecap:butt" transform="rotate(180 .125 0)"/></marker><marker id="d" markerHeight="1" markerWidth="1" orient="auto-start-reverse" preserveAspectRatio="xMidYMid" refX="0" refY="0" style="overflow:visible" viewBox="0 0 1 1"><path d="M3-3 0 0l3 3" style="fill:none;stroke:context-stroke;stroke-width:1;stroke-linecap:butt" transform="rotate(180 .125 0)"/></marker><marker id="e" markerHeight="1" markerWidth="1" orient="auto-start-reverse" preserveAspectRatio="xMidYMid" refX="0" refY="0" style="overflow:visible" viewBox="0 0 1 1"><path d="M3-3 0 0l3 3" style="fill:none;stroke:context-stroke;stroke-width:1;stroke-linecap:butt" transform="rotate(180 .125 0)"/></marker><marker id="f" markerHeight="1" markerWidth="1" orient="auto-start-reverse" preserveAspectRatio="xMidYMid" refX="0" refY="0" style="overflow:visible" viewBox="0 0 1 1"><path d="M3-3 0 0l3 3" style="fill:none;stroke:context-stroke;stroke-width:1;stroke-linecap:butt" transform="rotate(180 .125 0)"/></marker><marker id="g" markerHeight="1" markerWidth="1" orient="auto-start-reverse" preserveAspectRatio="xMidYMid" refX="0" refY="0" style="overflow:visible" viewBox="0 0 1 1"><path d="M3-3 0 0l3 3" style="fill:none;stroke:context-stroke;stroke-width:1;stroke-linecap:butt" transform="rotate(180 .125 0)"/></marker><marker id="o" markerHeight="1" markerWidth="1" orient="auto-start-reverse" preserveAspectRatio="xMidYMid" refX="0" refY="0" style="overflow:visible" viewBox="0 0 1 1"><path d="M3-3 0 0l3 3" style="fill:none;stroke:context-stroke;stroke-width:1;stroke-linecap:butt" transform="rotate(180 .125 0)"/></marker><marker id="a" markerHeight="1" markerWidth="1" orient="auto-start-reverse" preserveAspectRatio="xMidYMid" refX="0" refY="0" style="overflow:visible" viewBox="0 0 1 1"><path d="M3-3 0 0l3 3" style="fill:none;stroke:context-stroke;stroke-width:1;stroke-linecap:butt" transform="rotate(180 .125 0)"/></marker><marker id="r" markerHeight="1" markerWidth="1" orient="auto-start-reverse" preserveAspectRatio="xMidYMid" refX="0" refY="0" style="overflow:visible" viewBox="0 0 1 1"><path d="M3-3 0 0l3 3" style="fill:none;stroke:context-stroke;stroke-width:1;stroke-linecap:butt" transform="rotate(180 .125 0)"/></marker></defs><g transform="translate(-2.928 -200.933)"><path d="M17.373 259.715h17.803" style="fill:none;stroke:#ccc;stroke-width:.26458px;stroke-linecap:butt;stroke-linejoin:miter;stroke-opacity:1"/><path d="M3.06 201.066h154.227v134.99H3.06z" style="fill:#fff;stroke:#fff;stroke-width:.264583;stroke-linejoin:bevel"/><path d="m9.952 303.707-2.94-5.731" style="fill:none;stroke:#00f;stroke-width:.264583px;stroke-linecap:butt;stroke-linejoin:miter;stroke-opacity:1;marker-start:url(#a)"/><path d="M35.353 241.646v18.11h18.11" style="fill:none;stroke:#ccc;stroke-width:.264583px;stroke-linecap:butt;stroke-linejoin:miter;stroke-opacity:1"/><path d="M130.471 210.26v13.116M134.464 210.26v13.116" style="fill:none;stroke:#ccc;stroke-width:.264581px;stroke-linecap:butt;stroke-linejoin:miter;stroke-opacity:1"/><circle cx="35.353" cy="259.756" r="14.117" style="fill:none;stroke:#ccc;stroke-width:.264583;stroke-linejoin:bevel"/><circle cx="59.566" cy="289.98" r="10.097" style="fill:none;stroke:#ccc;stroke-width:.264582;stroke-linejoin:bevel"/><path d="M49.47 289.98v-30.223" style="fill:none;stroke:green;stroke-width:.264583px;stroke-linecap:butt;stroke-linejoin:miter;stroke-opacity:1"/><circle cx="35.353" cy="259.756" r="18.11" style="fill:none;stroke:#ccc;stroke-width:.264583;stroke-linejoin:bevel"/><path d="M21.236 304.684v-44.927M35.353 241.647H17.111l-5.958 63.037H5.04" style="fill:none;stroke:green;stroke-width:.264583px;stroke-linecap:butt;stroke-linejoin:miter;stroke-opacity:1"/><circle cx="59.566" cy="289.98" r="6.103" style="fill:none;stroke:#ccc;stroke-width:.264582;stroke-linejoin:bevel"/><path d="M53.463 289.98v-30.223" style="fill:none;stroke:green;stroke-width:.264583px;stroke-linecap:butt;stroke-linejoin:miter;stroke-opacity:1"/><circle cx="75.767" cy="259.756" r="10.097" style="fill:none;stroke:#ccc;stroke-width:.264582;stroke-linejoin:bevel"/><circle cx="75.767" cy="259.756" r="6.103" style="fill:none;stroke:#ccc;stroke-width:.264582;stroke-linejoin:bevel"/><path d="M69.663 289.98v-30.223M65.67 289.98v-30.223" style="fill:none;stroke:green;stroke-width:.264583px;stroke-linecap:butt;stroke-linejoin:miter;stroke-opacity:1"/><circle cx="91.967" cy="289.98" r="10.097" style="fill:none;stroke:#ccc;stroke-width:.264582;stroke-linejoin:bevel"/><path d="M81.87 289.98v-30.223" style="fill:none;stroke:green;stroke-width:.264583px;stroke-linecap:butt;stroke-linejoin:miter;stroke-opacity:1"/><circle cx="91.967" cy="289.98" r="6.103" style="fill:none;stroke:#ccc;stroke-width:.264582;stroke-linejoin:bevel"/><path d="M85.864 289.98v-30.223" style="fill:none;stroke:green;stroke-width:.264583px;stroke-linecap:butt;stroke-linejoin:miter;stroke-opacity:1"/><circle cx="108.167" cy="259.756" r="10.097" style="fill:none;stroke:#ccc;stroke-width:.264582;stroke-linejoin:bevel"/><circle cx="108.167" cy="259.756" r="6.103" style="fill:none;stroke:#ccc;stroke-width:.264582;stroke-linejoin:bevel"/><path d="M102.064 289.98v-30.223M98.07 289.98v-30.223" style="fill:none;stroke:green;stroke-width:.264583px;stroke-linecap:butt;stroke-linejoin:miter;stroke-opacity:1"/><circle cx="124.368" cy="289.98" r="10.097" style="fill:none;stroke:#ccc;stroke-width:.264582;stroke-linejoin:bevel"/><path d="M114.27 289.98v-30.223" style="fill:none;stroke:green;stroke-width:.264583px;stroke-linecap:butt;stroke-linejoin:miter;stroke-opacity:1"/><circle cx="124.368" cy="289.98" r="6.103" style="fill:none;stroke:#ccc;stroke-width:.264582;stroke-linejoin:bevel"/><path d="M118.264 289.98v-30.223" style="fill:none;stroke:green;stroke-width:.264583px;stroke-linecap:butt;stroke-linejoin:miter;stroke-opacity:1"/><circle cx="140.568" cy="233.34" r="10.097" style="fill:none;stroke:#ccc;stroke-width:.264582;stroke-linejoin:bevel"/><circle cx="140.568" cy="233.34" r="6.103" style="fill:none;stroke:#ccc;stroke-width:.264582;stroke-linejoin:bevel"/><path d="M134.464 289.98v-56.64M130.471 289.98v-56.64M134.464 233.34s.514-2.942 1.476-3.979c1.154-1.244 2.93-2.128 4.628-2.124 1.716.004 3.506.906 4.667 2.17.944 1.028 1.436 3.933 1.436 3.933h3.994s-.273-2.731-.813-3.969a10.5 10.5 0 0 0-2.528-3.534c-1.018-.927-2.273-1.613-3.568-2.077a8.9 8.9 0 0 0-3.188-.517c-1.415.037-2.864.307-4.152.893-1.333.608-2.534 1.55-3.516 2.636-.742.82-1.32 1.807-1.715 2.84-.453 1.18-.714 3.728-.714 3.728M130.471 233.34v-10.1" style="fill:none;stroke:green;stroke-width:.264583px;stroke-linecap:butt;stroke-linejoin:miter;stroke-opacity:1"/><path d="M154.157 223.11H123.7" style="fill:none;stroke:#ccc;stroke-width:.264581px;stroke-linecap:butt;stroke-linejoin:miter;stroke-opacity:1"/><path d="M134.464 233.34v-10.1M130.471 223.243h3.993" style="fill:none;stroke:green;stroke-width:.264583px;stroke-linecap:butt;stroke-linejoin:miter;stroke-opacity:1"/><path d="M154.157 289.88H134.45" style="fill:none;stroke:#ccc;stroke-width:.264582px;stroke-linecap:butt;stroke-linejoin:miter;stroke-opacity:1"/><path d="M154.157 223.203v66.461" style="fill:none;stroke:#000;stroke-width:.264583px;stroke-linecap:butt;stroke-linejoin:miter;stroke-opacity:1;marker-start:url(#b);marker-end:url(#b)"/><path d="M21.236 259.756s.354-3.618 1.025-5.28a14.2 14.2 0 0 1 2.93-4.519c1.26-1.304 2.798-2.395 4.462-3.116a14.7 14.7 0 0 1 5.7-1.201c1.832-.011 3.7.366 5.39 1.07a14.5 14.5 0 0 1 4.666 3.139 14 14 0 0 1 2.976 4.48c.704 1.705 1.085 5.427 1.085 5.427" style="fill:none;stroke:green;stroke-width:.264583px;stroke-linecap:butt;stroke-linejoin:miter;stroke-opacity:1"/><path d="M35.353 241.646s4 .32 5.871.978a19 19 0 0 1 5.702 3.202c1.56 1.279 2.88 2.877 3.943 4.591.892 1.437 1.538 3.04 1.982 4.672.412 1.514.612 4.667.612 4.667M53.463 289.98s.306 2.13.817 3.05c.45.81 1.113 1.539 1.9 2.027 1.002.623 2.207 1.012 3.386 1.026 1.084.013 2.193-.328 3.134-.865a5.6 5.6 0 0 0 1.996-1.93c.595-.984.974-3.308.974-3.308" style="fill:none;stroke:green;stroke-width:.264583px;stroke-linecap:butt;stroke-linejoin:miter;stroke-opacity:1"/><path d="M49.47 289.98s.24 2.606.74 3.794a10.8 10.8 0 0 0 2.49 3.609c.96.909 2.144 1.603 3.379 2.072 1.104.42 2.307.655 3.487.622a11.7 11.7 0 0 0 4.55-1.083c1.029-.479 1.954-1.203 2.737-2.025.814-.855 1.508-1.857 1.965-2.945.533-1.27.845-4.044.845-4.044M85.864 289.98s.305 2.13.817 3.05c.45.81 1.113 1.539 1.9 2.027 1.001.623 2.207 1.012 3.386 1.026 1.083.013 2.192-.328 3.133-.865a5.6 5.6 0 0 0 1.997-1.93c.595-.984.973-3.308.973-3.308" style="fill:none;stroke:green;stroke-width:.264583px;stroke-linecap:butt;stroke-linejoin:miter;stroke-opacity:1"/><path d="M81.87 289.98s.24 2.606.74 3.794a10.8 10.8 0 0 0 2.491 3.609c.96.909 2.144 1.603 3.379 2.072 1.103.42 2.307.655 3.487.622a11.7 11.7 0 0 0 4.55-1.083c1.029-.479 1.954-1.203 2.737-2.025.814-.855 1.508-1.857 1.964-2.945.533-1.27.846-4.044.846-4.044M118.263 290.001s.305 2.13.817 3.05c.45.81 1.113 1.539 1.9 2.028 1.002.622 2.207 1.01 3.386 1.025 1.084.014 2.193-.328 3.133-.865a5.6 5.6 0 0 0 1.997-1.93c.595-.984.974-3.308.974-3.308" style="fill:none;stroke:green;stroke-width:.264583px;stroke-linecap:butt;stroke-linejoin:miter;stroke-opacity:1"/><path d="M114.27 290.001s.24 2.606.74 3.794a10.8 10.8 0 0 0 2.49 3.61c.96.908 2.144 1.602 3.379 2.071 1.104.42 2.307.656 3.487.622a11.7 11.7 0 0 0 4.55-1.083c1.029-.479 1.954-1.203 2.737-2.025.814-.854 1.508-1.856 1.965-2.945.533-1.27.845-4.044.845-4.044M102.064 259.757s.305-2.13.817-3.05c.45-.81 1.113-1.54 1.9-2.028 1.002-.622 2.207-1.011 3.386-1.026 1.084-.013 2.193.328 3.133.866a5.6 5.6 0 0 1 1.997 1.93c.595.983.974 3.308.974 3.308" style="fill:none;stroke:green;stroke-width:.264583px;stroke-linecap:butt;stroke-linejoin:miter;stroke-opacity:1"/><path d="M98.07 259.757s.24-2.607.74-3.794a10.8 10.8 0 0 1 2.492-3.61c.959-.908 2.143-1.602 3.378-2.072 1.104-.42 2.307-.655 3.487-.621a11.7 11.7 0 0 1 4.55 1.083c1.029.479 1.954 1.203 2.737 2.025.814.854 1.508 1.856 1.965 2.944.533 1.27.845 4.045.845 4.045M69.663 259.756s.306-2.13.817-3.05c.45-.81 1.113-1.539 1.9-2.027 1.002-.623 2.207-1.012 3.387-1.026 1.083-.013 2.192.328 3.133.865a5.6 5.6 0 0 1 1.996 1.93c.595.984.974 3.308.974 3.308" style="fill:none;stroke:green;stroke-width:.264583px;stroke-linecap:butt;stroke-linejoin:miter;stroke-opacity:1"/><path d="M65.67 259.756s.24-2.606.74-3.794a10.8 10.8 0 0 1 2.491-3.609c.959-.909 2.143-1.603 3.378-2.072 1.104-.42 2.307-.655 3.488-.621a11.7 11.7 0 0 1 4.55 1.083c1.028.478 1.954 1.202 2.737 2.024.813.855 1.508 1.857 1.964 2.945.533 1.27.846 4.044.846 4.044" style="fill:none;stroke:green;stroke-width:.264583px;stroke-linecap:butt;stroke-linejoin:miter;stroke-opacity:1"/><text xml:space="preserve" style="font-size:14.6667px;line-height:1.25;font-family:sans-serif;white-space:pre;shape-inside:url(#c);display:inline" transform="translate(1.713 24.731)scale(.26458)"><tspan x="274.598" y="1148.791">SN1</tspan></text><path d="M155.611 259.904h-37.215" style="fill:none;stroke:#ccc;stroke-width:.264581px;stroke-linecap:butt;stroke-linejoin:miter;stroke-opacity:1"/><path d="M139.713 259.849v30.039" style="fill:none;stroke:#000;stroke-width:.264583px;stroke-linecap:butt;stroke-linejoin:miter;stroke-opacity:1;marker-start:url(#d);marker-end:url(#d)"/><path d="M21.618 267.694h27.488" style="fill:none;stroke:#000;stroke-width:.264583px;stroke-linecap:butt;stroke-linejoin:miter;stroke-opacity:1;marker-start:url(#e);marker-end:url(#e)"/><path d="M53.844 259.765h11.42" style="fill:none;stroke:#000;stroke-width:.264583px;stroke-linecap:butt;stroke-linejoin:miter;stroke-opacity:1;marker-start:url(#f);marker-end:url(#f)"/><path d="M130.471 210.26h-7.6" style="fill:none;stroke:#000;stroke-width:.264583px;stroke-linecap:butt;stroke-linejoin:miter;stroke-opacity:1;marker-start:url(#b)"/><path d="M134.464 210.26h7.6" style="fill:none;stroke:#000;stroke-width:.264583px;stroke-linecap:butt;stroke-linejoin:miter;stroke-opacity:1;marker-start:url(#g)"/><text xml:space="preserve" style="font-size:14.6667px;line-height:1.25;font-family:sans-serif;white-space:pre;shape-inside:url(#h);display:inline" transform="translate(9.22 33.451)scale(.26458)"><tspan x="452.061" y="658.795">SE1</tspan></text><text xml:space="preserve" style="font-size:14.6667px;line-height:1.25;font-family:sans-serif;white-space:pre;shape-inside:url(#i);display:inline" transform="translate(-24.114 80.762)scale(.26458)"><tspan x="209.615" y="702.955">SD1</tspan></text><text xml:space="preserve" style="font-size:14.6667px;line-height:1.25;font-family:sans-serif;white-space:pre;shape-inside:url(#j);display:inline" transform="translate(-20.027 62.383)scale(.26458)"><tspan x="286.285" y="740.213">SD2</tspan></text><path d="m63.226 301.828 13.351 22.643" style="fill:none;stroke:#000;stroke-width:.264583px;stroke-linecap:butt;stroke-linejoin:miter;stroke-opacity:1;marker-start:url(#b)"/><path d="m88.178 300.591-8.39 24.36" style="fill:none;stroke:#000;stroke-width:.264583px;stroke-linecap:butt;stroke-linejoin:miter;stroke-opacity:1;marker-start:url(#b)"/><path d="M118.61 300.514 82.596 325.56" style="fill:none;stroke:#000;stroke-width:.264583px;stroke-linecap:butt;stroke-linejoin:miter;stroke-opacity:1;marker-start:url(#b)"/><text xml:space="preserve" style="font-size:14.6667px;line-height:1.25;font-family:sans-serif;white-space:pre;shape-inside:url(#k);display:inline" transform="translate(22.328 -20.88)scale(.26458)"><tspan x="445.52" y="1124.063">SL1</tspan></text><text xml:space="preserve" style="font-size:14.6667px;line-height:1.25;font-family:sans-serif;white-space:pre;shape-inside:url(#l);display:inline" transform="translate(32.397 -56.023)scale(.26458)"><tspan x="433.234" y="1188.483">SL2</tspan></text><text xml:space="preserve" style="font-size:14.6667px;line-height:1.25;font-family:sans-serif;white-space:pre;shape-inside:url(#m);display:inline" transform="translate(-10.12 26.747)scale(.26458)"><tspan x="355.689" y="769.977">Send [round, pike]</tspan></text><path d="m128.848 231.344-8.968-1.748" style="fill:none;stroke:#000;stroke-width:.264583px;stroke-linecap:butt;stroke-linejoin:miter;stroke-opacity:1;marker-start:url(#b)"/><path d="M35.423 255.075s2.536.576 3.163 1.573c.5.796.04 2.82.04 2.82" style="fill:none;stroke:#000;stroke-width:.264583px;stroke-linecap:butt;stroke-linejoin:miter;stroke-opacity:1;marker-start:url(#b);marker-end:url(#b)"/><text xml:space="preserve" style="font-size:14.6667px;line-height:1.25;font-family:sans-serif;white-space:pre;shape-inside:url(#n);display:inline" transform="translate(-2.55 44.98)scale(.26458)"><tspan x="152.945" y="796.111">SA1</tspan></text><path d="M11.153 304.684v25.24M21.236 304.684v25.24" style="fill:none;stroke:#ccc;stroke-width:.264583px;stroke-linecap:butt;stroke-linejoin:miter;stroke-opacity:1"/><path d="M11.525 329.923h9.34" style="fill:none;stroke:#00f;stroke-width:.264583px;stroke-linecap:butt;stroke-linejoin:miter;stroke-opacity:1;marker-start:url(#o);marker-end:url(#o)"/><text xml:space="preserve" style="font-size:14.6667px;line-height:1.25;font-family:sans-serif;white-space:pre;shape-inside:url(#p);display:inline" transform="translate(-53.739 53.766)scale(.26458)"><tspan x="256.082" y="1060.629">E2</tspan></text><path d="M138.825 304.816H21.37" style="fill:none;stroke:green;stroke-width:.264584px;stroke-linecap:butt;stroke-linejoin:miter;stroke-opacity:1"/><text xml:space="preserve" style="font-size:14.6667px;line-height:1.25;font-family:sans-serif;white-space:pre;shape-inside:url(#q);display:inline" transform="translate(-97.328 143.932)scale(.26458)"><tspan x="385.047" y="579.231">R7</tspan></text><path d="M17.243 241.406v18.723" style="fill:none;stroke:#ccc;stroke-width:.26458px;stroke-linecap:butt;stroke-linejoin:miter;stroke-opacity:1"/><path d="M24.876 259.828v44.632" style="fill:none;stroke:#00f;stroke-width:.264582px;stroke-linecap:butt;stroke-linejoin:miter;stroke-opacity:1;marker-start:url(#r);marker-end:url(#r)"/><text xml:space="preserve" style="font-size:14.6667px;line-height:1.25;font-family:sans-serif;white-space:pre;shape-inside:url(#s);display:inline" transform="translate(-2.46 -176.971)scale(.26458)"><tspan x="106.855" y="1741.096">L2</tspan></text></g></svg>