<svg xmlns="http://www.w3.org/2000/svg" width="600" height="3000" viewBox="0 0 158.75 793.75"><defs><path id="T" d="M85.609 1421.34h48.776v35.52H85.609z"/><path id="S" d="M294.696 1239.416h28.538v23.498h-28.538z"/><path id="R" d="M418.495 1114.827h30.112v29.282h-30.112z"/><path id="Q" d="M333.432 1134.345h30.904v18.979h-30.904z"/><path id="P" d="M307.851 1127.161h23.83v18.001h-23.83z"/><path id="O" d="M284.338 1120.409h19.468v16.563h-19.468z"/><path id="N" d="M423.668 1031.655h49.3v40.159h-49.3z"/><path id="M" d="M332.755 1069.87h29.237v21.295h-29.237z"/><path id="L" d="M176.451 1109.039h44.391v24.136h-44.391z"/><path id="K" d="M177.568 1156.234h118.713v85.291H177.568z"/><path id="J" d="M243.579 411.65h83.222v29.63h-83.222z"/><path id="I" d="M291.501 655.172h62.669v34.866h-62.669z"/><path id="H" d="M104.834 471.822h61.849v33.015h-61.849z"/><path id="G" d="M456.995 477.978h66.359v29.52h-66.359z"/><path id="F" d="M47.38 682.816h61.03v30.421H47.38z"/><path id="E" d="M35.361 558.611h69.802v29.424H35.361z"/><path id="D" d="M469.47 530.86h70.958v43.212H469.47z"/><path id="C" d="M379.28 450.966h73.333v29.781H379.28z"/><path id="B" d="M481.211 718.845H600v73.231H481.211z"/><path id="t" d="M8.487 168.134h66.539v27.696H8.487z"/><path id="s" d="M135.776 133.138h52.578v29.106h-52.578z"/><path id="r" d="M57.29 365.382h57.084v26.228H57.29z"/><path id="q" d="M270.823 188.509h54.817v20.022h-54.817z"/><path id="n" d="M304.749 74.116h66.936v28.169h-66.936z"/><path id="k" d="M277.207 382.856h52.899v40.498h-52.899z"/><path id="a" d="M23.187 21.718h266.826v66.341H23.187z"/><path id="l" d="M277.207 382.856h52.899v40.498h-52.899z"/><path id="m" d="M277.207 382.856h52.899v40.498h-52.899z"/><path id="y" d="M270.823 188.509h54.817v20.022h-54.817z"/><marker id="b" markerHeight="1" markerWidth="1" orient="auto-start-reverse" preserveAspectRatio="xMidYMid" refX="0" refY="0" style="overflow:visible" viewBox="0 0 1 1"><path d="M3-3 0 0l3 3" style="fill:none;stroke:context-stroke;stroke-width:1;stroke-linecap:butt" transform="rotate(180 .125 0)"/></marker><marker id="c" markerHeight="1" markerWidth="1" orient="auto-start-reverse" preserveAspectRatio="xMidYMid" refX="0" refY="0" style="overflow:visible" viewBox="0 0 1 1"><path d="M3-3 0 0l3 3" style="fill:none;stroke:context-stroke;stroke-width:1;stroke-linecap:butt" transform="rotate(180 .125 0)"/></marker><marker id="d" markerHeight="1" markerWidth="1" orient="auto-start-reverse" preserveAspectRatio="xMidYMid" refX="0" refY="0" style="overflow:visible" viewBox="0 0 1 1"><path d="M3-3 0 0l3 3" style="fill:none;stroke:context-stroke;stroke-width:1;stroke-linecap:butt" transform="rotate(180 .125 0)"/></marker><marker id="e" markerHeight="1" markerWidth="1" orient="auto-start-reverse" preserveAspectRatio="xMidYMid" refX="0" refY="0" style="overflow:visible" viewBox="0 0 1 1"><path d="M3-3 0 0l3 3" style="fill:none;stroke:context-stroke;stroke-width:1;stroke-linecap:butt" transform="rotate(180 .125 0)"/></marker><marker id="f" markerHeight="1" markerWidth="1" orient="auto-start-reverse" preserveAspectRatio="xMidYMid" refX="0" refY="0" style="overflow:visible" viewBox="0 0 1 1"><path d="M3-3 0 0l3 3" style="fill:none;stroke:context-stroke;stroke-width:1;stroke-linecap:butt" transform="rotate(180 .125 0)"/></marker><marker id="g" markerHeight="1" markerWidth="1" orient="auto-start-reverse" preserveAspectRatio="xMidYMid" refX="0" refY="0" style="overflow:visible" viewBox="0 0 1 1"><path d="M3-3 0 0l3 3" style="fill:none;stroke:context-stroke;stroke-width:1;stroke-linecap:butt" transform="rotate(180 .125 0)"/></marker><marker id="h" markerHeight="1" markerWidth="1" orient="auto-start-reverse" preserveAspectRatio="xMidYMid" refX="0" refY="0" style="overflow:visible" viewBox="0 0 1 1"><path d="M3-3 0 0l3 3" style="fill:none;stroke:context-stroke;stroke-width:1;stroke-linecap:butt" transform="rotate(180 .125 0)"/></marker><marker id="i" markerHeight="1" markerWidth="1" orient="auto-start-reverse" preserveAspectRatio="xMidYMid" refX="0" refY="0" style="overflow:visible" viewBox="0 0 1 1"><path d="M3-3 0 0l3 3" style="fill:none;stroke:context-stroke;stroke-width:1;stroke-linecap:butt" transform="rotate(180 .125 0)"/></marker><marker id="j" markerHeight="1" markerWidth="1" orient="auto-start-reverse" preserveAspectRatio="xMidYMid" refX="0" refY="0" style="overflow:visible" viewBox="0 0 1 1"><path d="M3-3 0 0l3 3" style="fill:none;stroke:context-stroke;stroke-width:1;stroke-linecap:butt" transform="rotate(180 .125 0)"/></marker><marker id="o" markerHeight="1" markerWidth="1" orient="auto-start-reverse" preserveAspectRatio="xMidYMid" refX="0" refY="0" style="overflow:visible" viewBox="0 0 1 1"><path d="M3-3 0 0l3 3" style="fill:none;stroke:context-stroke;stroke-width:1;stroke-linecap:butt" transform="rotate(180 .125 0)"/></marker><marker id="p" markerHeight="1" markerWidth="1" orient="auto-start-reverse" preserveAspectRatio="xMidYMid" refX="0" refY="0" style="overflow:visible" viewBox="0 0 1 1"><path d="M3-3 0 0l3 3" style="fill:none;stroke:context-stroke;stroke-width:1;stroke-linecap:butt" transform="rotate(180 .125 0)"/></marker><marker id="u" markerHeight="1" markerWidth="1" orient="auto-start-reverse" preserveAspectRatio="xMidYMid" refX="0" refY="0" style="overflow:visible" viewBox="0 0 1 1"><path d="M3-3 0 0l3 3" style="fill:none;stroke:context-stroke;stroke-width:1;stroke-linecap:butt" transform="rotate(180 .125 0)"/></marker><marker id="v" markerHeight="1" markerWidth="1" orient="auto-start-reverse" preserveAspectRatio="xMidYMid" refX="0" refY="0" style="overflow:visible" viewBox="0 0 1 1"><path d="M3-3 0 0l3 3" style="fill:none;stroke:context-stroke;stroke-width:1;stroke-linecap:butt" transform="rotate(180 .125 0)"/></marker><marker id="w" markerHeight="1" markerWidth="1" orient="auto-start-reverse" preserveAspectRatio="xMidYMid" refX="0" refY="0" style="overflow:visible" viewBox="0 0 1 1"><path d="M3-3 0 0l3 3" style="fill:none;stroke:context-stroke;stroke-width:1;stroke-linecap:butt" transform="rotate(180 .125 0)"/></marker><marker id="x" markerHeight="1" markerWidth="1" orient="auto-start-reverse" preserveAspectRatio="xMidYMid" refX="0" refY="0" style="overflow:visible" viewBox="0 0 1 1"><path d="M3-3 0 0l3 3" style="fill:none;stroke:context-stroke;stroke-width:1;stroke-linecap:butt" transform="rotate(180 .125 0)"/></marker><marker id="z" markerHeight="1" markerWidth="1" orient="auto-start-reverse" preserveAspectRatio="xMidYMid" refX="0" refY="0" style="overflow:visible" viewBox="0 0 1 1"><path d="M3-3 0 0l3 3" style="fill:none;stroke:context-stroke;stroke-width:1;stroke-linecap:butt" transform="rotate(180 .125 0)"/></marker><marker id="A" markerHeight="1" markerWidth="1" orient="auto-start-reverse" preserveAspectRatio="xMidYMid" refX="0" refY="0" style="overflow:visible" viewBox="0 0 1 1"><path d="M3-3 0 0l3 3" style="fill:none;stroke:context-stroke;stroke-width:1;stroke-linecap:butt" transform="rotate(180 .125 0)"/></marker></defs><path d="m79.681 276.175 23.721 23.644" style="fill:none;stroke:#0cf;stroke-width:.264583px;stroke-linecap:butt;stroke-linejoin:miter;stroke-opacity:1"/><path d="M13.476 120.285h127.758v90.867H13.476z" style="fill:#fff;stroke:#fff;stroke-width:.26458333;stroke-linejoin:bevel;stroke-dasharray:none;stroke-dashoffset:0"/><path d="M5.697 28.043h116.695v74.844H5.697z" style="fill:#fff;stroke:#fff;stroke-width:.264583;stroke-linejoin:bevel;stroke-dasharray:none;stroke-dashoffset:0"/><text xml:space="preserve" style="font-size:14.6667px;line-height:1.25;font-family:sans-serif;white-space:pre;shape-inside:url(#a);display:inline" transform="scale(.26458)"><tspan x="23.186" y="34.693">vaxis_holder.svg</tspan></text><path d="M59.346 57.934h5.372v2.608h-5.372z" style="fill:none;stroke:#000;stroke-width:.264583;stroke-linejoin:bevel"/><path d="m44.081 47.378-22.549-8.67M35.412 69.927l-22.55-8.669" style="fill:none;stroke:#b3b3b3;stroke-width:.264583px;stroke-linecap:butt;stroke-linejoin:miter;stroke-opacity:1"/><path d="m21.532 38.709-8.67 22.55" style="fill:none;stroke:#00f;stroke-width:.264583px;stroke-linecap:butt;stroke-linejoin:miter;stroke-opacity:1;marker-start:url(#b);marker-end:url(#b)"/><path d="m26.743 92.477 8.669-22.55M29.265 93.446l8.67-22.549" style="fill:none;stroke:#b3b3b3;stroke-width:.264583px;stroke-linecap:butt;stroke-linejoin:miter;stroke-opacity:1"/><path d="m38.787 96.958-9.522-3.512" style="fill:none;stroke:#00f;stroke-width:.264583px;stroke-linecap:butt;stroke-linejoin:miter;stroke-opacity:1;marker-end:url(#c)"/><path d="m17.221 88.965 9.522 3.512" style="fill:none;stroke:#00f;stroke-width:.264583px;stroke-linecap:butt;stroke-linejoin:miter;stroke-opacity:1;marker-end:url(#d)"/><path d="M35.412 69.927V48.355" style="fill:none;stroke:#b3b3b3;stroke-width:.264583px;stroke-linecap:butt;stroke-linejoin:miter;stroke-opacity:1"/><path d="M35.438 52.819s2.026-1.012 3.089-.884c1.143.137 3 1.708 3 1.708" style="fill:none;stroke:#00f;stroke-width:.264583px;stroke-linecap:butt;stroke-linejoin:miter;stroke-opacity:1;marker-start:url(#b);marker-end:url(#b)"/><path d="m44.081 47.378-8.669 22.55 2.522.97 3.981-10.355h17.431v-2.609H42.918l3.685-9.586z" style="fill:#ececec;stroke:#000;stroke-width:.264583px;stroke-linecap:butt;stroke-linejoin:miter;stroke-opacity:1"/><path d="M64.719 57.934h2.117v2.608h-2.117z" style="fill:#ececec;stroke:#1a1a1a;stroke-width:.264583;stroke-linejoin:bevel"/><path d="M59.346 57.934V36.362M64.719 57.802V36.23M62.033 82.248V60.675M39.614 87.646V59.05" style="fill:none;stroke:#b3b3b3;stroke-width:.264583px;stroke-linecap:butt;stroke-linejoin:miter;stroke-opacity:1"/><path d="M53.91 59.182H39.747" style="fill:none;stroke:#b3b3b3;stroke-width:.264583px;stroke-linecap:butt;stroke-linejoin:miter;stroke-opacity:1;stroke-dasharray:1,1;stroke-dashoffset:0"/><path d="M66.835 72.551V60.543" style="fill:none;stroke:#b3b3b3;stroke-width:.264583px;stroke-linecap:butt;stroke-linejoin:miter;stroke-opacity:1"/><path d="M-94.962 57.934h5.372v2.608h-5.372z" style="fill:none;stroke:#000;stroke-width:.264583;stroke-linejoin:bevel" transform="scale(-1 1)"/><path d="m110.227 47.378 8.67 22.55-2.523.97-3.98-10.355H94.961v-2.609h16.429l-3.686-9.586z" style="fill:#ececec;stroke:#000;stroke-width:.264583px;stroke-linecap:butt;stroke-linejoin:miter;stroke-opacity:1"/><path d="M-89.59 57.934h2.117v2.608h-2.117z" style="fill:#ececec;stroke:#1a1a1a;stroke-width:.264583;stroke-linejoin:bevel" transform="scale(-1 1)"/><path d="M92.276 83.22V60.676" style="fill:none;stroke:#b3b3b3;stroke-width:.264583px;stroke-linecap:butt;stroke-linejoin:miter;stroke-opacity:1"/><path d="M114.556 59.27h-14.163" style="fill:none;stroke:#b3b3b3;stroke-width:.264583px;stroke-linecap:butt;stroke-linejoin:miter;stroke-opacity:1;stroke-dasharray:1,1;stroke-dashoffset:0"/><path d="M114.688 87.734V59.138" style="fill:none;stroke:#b3b3b3;stroke-width:.264583px;stroke-linecap:butt;stroke-linejoin:miter;stroke-opacity:1"/><path d="M62.033 82.248h30.243" style="fill:none;stroke:#00f;stroke-width:.264583px;stroke-linecap:butt;stroke-linejoin:miter;stroke-opacity:1;marker-start:url(#b);marker-end:url(#b-9-5)"/><path d="M39.614 87.646h74.952" style="fill:none;stroke:#00f;stroke-width:.264582px;stroke-linecap:butt;stroke-linejoin:miter;stroke-opacity:1;marker-start:url(#e);marker-end:url(#f)"/><path d="M62.322 72.551h4.532" style="fill:none;stroke:#00f;stroke-width:.264583px;stroke-linecap:butt;stroke-linejoin:miter;stroke-opacity:1;marker-start:url(#g);marker-end:url(#h)"/><path d="M59.383 36.362h5.201" style="fill:none;stroke:#00f;stroke-width:.264583px;stroke-linecap:butt;stroke-linejoin:miter;stroke-opacity:1;marker-start:url(#i);marker-end:url(#j)"/><text xml:space="preserve" style="font-size:14.6667px;line-height:1.25;font-family:sans-serif;white-space:pre;shape-inside:url(#k);display:inline" transform="translate(-1.03 -23.014)scale(.26458)"><tspan x="277.207" y="395.832">PHD1</tspan></text><text xml:space="preserve" style="font-size:14.6667px;line-height:1.25;font-family:sans-serif;white-space:pre;shape-inside:url(#l);display:inline" transform="translate(-1.494 -13.266)scale(.26458)"><tspan x="277.207" y="395.832">PHD2</tspan></text><text xml:space="preserve" style="font-size:14.6667px;line-height:1.25;font-family:sans-serif;white-space:pre;shape-inside:url(#m);display:inline" transform="translate(-15.754 -70.375)scale(.26458)"><tspan x="277.207" y="395.832">PHD3</tspan></text><text xml:space="preserve" style="font-size:14.6667px;line-height:1.25;font-family:sans-serif;white-space:pre;shape-inside:url(#n);display:inline" transform="translate(-17.978 53.588)scale(.26458)"><tspan x="304.75" y="87.092">PHR4</tspan></text><path d="M74.392 60.675h-7.424M74.392 57.934h-7.424" style="fill:none;stroke:#b3b3b3;stroke-width:.264583px;stroke-linecap:butt;stroke-linejoin:miter;stroke-opacity:1"/><path d="M74.392 57.934v2.722" style="fill:none;stroke:#00f;stroke-width:.264583px;stroke-linecap:butt;stroke-linejoin:miter;stroke-opacity:1;marker-start:url(#o);marker-end:url(#p)"/><text xml:space="preserve" style="font-size:14.6667px;line-height:1.25;font-family:sans-serif;white-space:pre;shape-inside:url(#q);display:inline" transform="translate(-1.165 3.84)scale(.26458)"><tspan x="270.824" y="201.484">PHE1</tspan></text><text xml:space="preserve" style="font-size:14.6667px;line-height:1.25;font-family:sans-serif;white-space:pre;shape-inside:url(#r);display:inline" transform="translate(3.933 -1.896)scale(.26458)"><tspan x="57.289" y="378.359">PHE2</tspan></text><text xml:space="preserve" style="font-size:14.6667px;line-height:1.25;font-family:sans-serif;white-space:pre;shape-inside:url(#s);display:inline" transform="translate(-1.98 12.193)scale(.26458)"><tspan x="135.775" y="146.115">PHA</tspan></text><text xml:space="preserve" style="font-size:14.6667px;line-height:1.25;font-family:sans-serif;white-space:pre;shape-inside:url(#t);display:inline" transform="translate(4.594 1.974)scale(.26458)"><tspan x="8.488" y="181.111">PHL1</tspan></text><path d="M57.284 72.551h4.532" style="fill:none;stroke:#00f;stroke-width:.264583px;stroke-linecap:butt;stroke-linejoin:miter;stroke-opacity:1;marker-start:url(#u);marker-end:url(#v)"/><path d="M57.16 73.106V60.41" style="fill:none;stroke:#b3b3b3;stroke-width:.264583px;stroke-linecap:butt;stroke-linejoin:miter;stroke-opacity:1"/><path d="m37.934 70.897 19.031-10.354h-15.05ZM46.603 48.348l-3.685 9.586H57.16v-3.613l-10.558-5.973M107.705 48.348l3.686 9.586H97.148v-3.613l10.557-5.973M116.374 70.897l-19.03-10.354h15.05z" style="fill:none;stroke:#000;stroke-width:.264583px;stroke-linecap:butt;stroke-linejoin:miter;stroke-opacity:1"/><path d="M97.148 54.32h-6.461" style="fill:none;stroke:#b3b3b3;stroke-width:.264583px;stroke-linecap:butt;stroke-linejoin:miter;stroke-opacity:1"/><path d="M92.143 54.474v3.073" style="fill:none;stroke:#00f;stroke-width:.264583px;stroke-linecap:butt;stroke-linejoin:miter;stroke-opacity:1;marker-start:url(#w);marker-end:url(#x)"/><text xml:space="preserve" style="font-size:14.6667px;line-height:1.25;font-family:sans-serif;white-space:pre;shape-inside:url(#y);display:inline" transform="translate(13.37 .251)scale(.26458)"><tspan x="270.824" y="201.484">PHH1</tspan></text><circle cx="75.548" cy="169.922" r="37.504" style="fill:none;stroke:#000;stroke-width:.264584;stroke-linejoin:bevel;stroke-dasharray:none;stroke-dashoffset:0"/><circle cx="75.548" cy="169.892" r="28.434" style="fill:none;stroke:#e6e6e6;stroke-width:.264584;stroke-linejoin:bevel;stroke-dasharray:none;stroke-dashoffset:0"/><circle cx="75.548" cy="169.892" r="20.17" style="fill:none;stroke:#e6e6e6;stroke-width:.264584;stroke-linejoin:bevel;stroke-dasharray:none;stroke-dashoffset:0"/><circle cx="74.677" cy="149.999" r="2.652" style="fill:none;stroke:#000;stroke-width:.264583;stroke-linejoin:bevel;stroke-dasharray:none;stroke-dashoffset:0"/><circle cx="55.871" cy="170.43" r="2.652" style="fill:none;stroke:#000;stroke-width:.264583;stroke-linejoin:bevel;stroke-dasharray:none;stroke-dashoffset:0"/><circle cx="95.553" cy="169.29" r="2.652" style="fill:none;stroke:#000;stroke-width:.264583;stroke-linejoin:bevel;stroke-dasharray:none;stroke-dashoffset:0"/><circle cx="76.591" cy="189.867" r="2.652" style="fill:none;stroke:#000;stroke-width:.264583;stroke-linejoin:bevel;stroke-dasharray:none;stroke-dashoffset:0"/><circle cx="74.677" cy="149.867" r="4.208" style="fill:none;stroke:#e6e6e6;stroke-width:.264583;stroke-linejoin:bevel;stroke-dasharray:none;stroke-dashoffset:0"/><circle cx="55.739" cy="170.43" r="4.208" style="fill:none;stroke:#e6e6e6;stroke-width:.264583;stroke-linejoin:bevel;stroke-dasharray:none;stroke-dashoffset:0"/><circle cx="76.591" cy="189.867" r="4.208" style="fill:none;stroke:#e6e6e6;stroke-width:.264583;stroke-linejoin:bevel;stroke-dasharray:none;stroke-dashoffset:0"/><circle cx="95.405" cy="169.29" r="4.208" style="fill:none;stroke:#e6e6e6;stroke-width:.264583;stroke-linejoin:bevel;stroke-dasharray:none;stroke-dashoffset:0"/><path d="M85.53 196.54s-.919.36-1.397.334c-.475-.026-.941-.23-1.344-.483-.237-.15-.598-.59-.598-.59l-1.749-7.626s-.393-.789-.692-1.104c-.503-.531-1.111-1.004-1.795-1.265-.656-.251-1.401-.367-2.092-.244-.83.148-1.618.594-2.257 1.145-.256.221-.543.645-.782.992-.163.237-.444.743-.444.743l-.917 8.405s-.302.3-.48.414c-.293.186-.609.373-.952.425-.408.063-.829-.047-1.23-.143-.55-.131-1.595-.586-1.595-.586M102.136 160.068s.36.918.334 1.397c-.027.475-.23.94-.484 1.343-.149.237-.589.598-.589.598l-7.626 1.75s-.789.392-1.104.691c-.532.503-1.004 1.111-1.265 1.795-.251.656-.368 1.401-.244 2.093.148.83.593 1.618 1.145 2.256.221.256.645.543.991.782.238.164.744.444.744.444l8.405.917s.3.302.414.48c.186.294.372.61.425.953.062.408-.047.828-.143 1.23-.131.55-.586 1.594-.586 1.594M65.671 143.264s.919-.36 1.397-.333c.475.026.94.23 1.344.483.237.149.598.59.598.59l1.749 7.626s.393.788.691 1.103c.504.532 1.112 1.004 1.796 1.266.656.25 1.4.367 2.092.243.83-.148 1.618-.593 2.256-1.144.257-.222.544-.645.783-.992.163-.238.443-.743.443-.743l.918-8.406s.301-.3.48-.414c.293-.186.609-.372.952-.425.408-.062.828.048 1.23.143.55.132 1.595.586 1.595.586M48.774 179.565s-.36-.92-.334-1.397c.026-.476.23-.941.483-1.344.15-.237.59-.598.59-.598l7.626-1.75s.789-.392 1.104-.69c.531-.504 1.004-1.112 1.265-1.796.251-.656.367-1.401.244-2.093-.148-.83-.594-1.618-1.145-2.256-.221-.256-.645-.543-.992-.782-.237-.164-.743-.444-.743-.444l-8.405-.917s-.3-.302-.414-.48c-.186-.294-.373-.61-.425-.953-.063-.408.047-.828.143-1.23.131-.55.586-1.594.586-1.594M48.357 161.24s1.699-4.72 3.042-6.815c1.491-2.326 3.38-4.421 5.47-6.23 1.447-1.252 3.136-2.21 4.816-3.128 1.28-.7 3.986-1.803 3.986-1.803M83.995 142.847s2.911.949 4.282 1.62a28.3 28.3 0 0 1 4.492 2.748c1.108.829 2.108 1.799 3.08 2.784 1.381 1.399 2.83 2.775 3.896 4.426.597.924.934 1.992 1.36 3.006.367.87 1.03 2.637 1.03 2.637M48.774 179.565s1.134 2.72 1.847 4.007a30 30 0 0 0 2.396 3.665c.743.978 1.55 1.913 2.431 2.768.996.965 2.088 1.83 3.208 2.646 1.317.962 2.659 1.913 4.117 2.644 1.41.707 4.433 1.662 4.433 1.662M85.53 196.54s3.011-1.342 4.447-2.147c1.498-.839 3.026-1.67 4.33-2.784 1.536-1.313 2.845-2.89 4.03-4.526 1.11-1.531 2.054-3.19 2.853-4.904.567-1.216 1.363-3.788 1.363-3.788" style="fill:none;stroke:#000;stroke-width:.264583px;stroke-linecap:butt;stroke-linejoin:miter;stroke-opacity:1"/><circle cx="74.835" cy="170.447" r="33.507" style="fill:none;stroke:#000;stroke-width:.264584;stroke-linejoin:bevel;stroke-dasharray:none;stroke-dashoffset:0"/><path d="M99.919 167.622h8.403v3.336h-8.403zM41.515 168.762h9.752v3.336h-9.752z" style="fill:none;stroke:#000;stroke-width:.264583;stroke-linejoin:bevel;stroke-dasharray:none;stroke-dashoffset:0"/><path d="M194.34-78.259h9.513v3.336h-9.513z" style="fill:none;stroke:#000;stroke-width:.264583;stroke-linejoin:bevel;stroke-dasharray:none;stroke-dashoffset:0" transform="rotate(90)"/><path d="M-145.659 73.009h8.61v3.336h-8.61z" style="fill:none;stroke:#000;stroke-width:.264583;stroke-linejoin:bevel;stroke-dasharray:none;stroke-dashoffset:0" transform="rotate(-90)"/><path d="M108.322 167.622h18.111M108.322 170.958h18.111" style="fill:none;stroke:#ccc;stroke-width:.264583px;stroke-linecap:butt;stroke-linejoin:miter;stroke-opacity:1"/><path d="M126.433 167.622v3.252" style="fill:none;stroke:#00f;stroke-width:.264583px;stroke-linecap:butt;stroke-linejoin:miter;stroke-opacity:1;marker-start:url(#z);marker-end:url(#A)"/><text xml:space="preserve" style="font-size:14.6667px;line-height:1.25;font-family:sans-serif;white-space:pre;shape-inside:url(#B);display:inline" transform="translate(.73 -22.72)scale(.26458)"><tspan x="481.211" y="731.822">PHE3</tspan></text><path d="m88.093 153.886 18.043-23.723" style="fill:none;stroke:#00f;stroke-width:.264583px;stroke-linecap:butt;stroke-linejoin:miter;stroke-opacity:1;marker-start:url(#b)"/><path d="m100.567 156.038 22.43-7.605" style="fill:none;stroke:#00f;stroke-width:.264583px;stroke-linecap:butt;stroke-linejoin:miter;stroke-opacity:1;marker-start:url(#b)"/><path d="m53.438 172.19-22.772 13.954" style="fill:none;stroke:#00f;stroke-width:.264583px;stroke-linecap:butt;stroke-linejoin:miter;stroke-opacity:1;marker-start:url(#b)"/><path d="m51.932 167.633-24.535-10.789" style="fill:#999;stroke:#00f;stroke-width:.264583px;stroke-linecap:butt;stroke-linejoin:miter;stroke-opacity:1;marker-start:url(#b)"/><text xml:space="preserve" style="font-size:14.6667px;line-height:1.25;font-family:sans-serif;white-space:pre;shape-inside:url(#C);display:inline" transform="translate(2.572 6.547)scale(.26458)"><tspan x="379.279" y="463.943">PHD1</tspan></text><text xml:space="preserve" style="font-size:14.6667px;line-height:1.25;font-family:sans-serif;white-space:pre;shape-inside:url(#D);display:inline" transform="translate(-4.318 3.486)scale(.26458)"><tspan x="469.471" y="543.836">PHD5</tspan></text><text xml:space="preserve" style="font-size:14.6667px;line-height:1.25;font-family:sans-serif;white-space:pre;shape-inside:url(#E);display:inline" transform="translate(7.242 7.157)scale(.26458)"><tspan x="35.361" y="571.588">PHR4</tspan></text><text xml:space="preserve" style="font-size:14.6667px;line-height:1.25;font-family:sans-serif;white-space:pre;shape-inside:url(#F);display:inline" transform="translate(6.833 3.973)scale(.26458)"><tspan x="47.381" y="695.793">PHD3</tspan></text><path d="m104.776 145.897 17.42-12.4" style="fill:none;stroke:#00f;stroke-width:.264583px;stroke-linecap:butt;stroke-linejoin:miter;stroke-opacity:1;marker-start:url(#b)"/><text xml:space="preserve" style="font-size:14.6667px;line-height:1.25;font-family:sans-serif;white-space:pre;shape-inside:url(#G);display:inline" transform="translate(-1.956 2.913)scale(.26458)"><tspan x="456.994" y="490.955">PHD2</tspan></text><path d="m54.538 165.098-11.624-33.28 25.79 16.718" style="fill:none;stroke:#00f;stroke-width:.264583px;stroke-linecap:butt;stroke-linejoin:miter;stroke-opacity:1;marker-start:url(#b);marker-end:url(#b)"/><text xml:space="preserve" style="font-size:14.6667px;line-height:1.25;font-family:sans-serif;white-space:pre;shape-inside:url(#H);display:inline" transform="translate(6.133 2.473)scale(.26458)"><tspan x="104.834" y="484.799">PHN1</tspan></text><text xml:space="preserve" style="font-size:14.6667px;line-height:1.25;font-family:sans-serif;white-space:pre;shape-inside:url(#I);display:inline" transform="translate(1.91 4.46)scale(.26458)"><tspan x="291.502" y="668.148">PHR6</tspan></text><path d="m90.309 179.455 10.93-3.863" style="fill:none;stroke:#00f;stroke-width:.264583px;stroke-linecap:butt;stroke-linejoin:miter;stroke-opacity:1;marker-end:url(#b)"/><path d="M68.973 142.75v-14.733M79.687 142.45v-14.734" style="fill:none;stroke:#ccc;stroke-width:.264583px;stroke-linecap:butt;stroke-linejoin:miter;stroke-opacity:1"/><path d="M68.922 128.066h10.69" style="fill:none;stroke:#00f;stroke-width:.264583px;stroke-linecap:butt;stroke-linejoin:miter;stroke-opacity:1;marker-start:url(#b);marker-end:url(#b)"/><text xml:space="preserve" style="font-size:14.6667px;line-height:1.25;font-family:sans-serif;white-space:pre;shape-inside:url(#J);display:inline" transform="translate(4.98 14.178)scale(.26458)"><tspan x="243.578" y="424.627">PHL2</tspan></text><path d="M26.365 276.175h77.17M103.402 299.82v-47.025" style="fill:none;stroke:#000;stroke-width:.264583px;stroke-linecap:butt;stroke-linejoin:miter;stroke-opacity:1"/><path d="m26.365 276.175 77.037-23.38" style="fill:none;stroke:teal;stroke-width:.264583px;stroke-linecap:butt;stroke-linejoin:miter;stroke-opacity:1;marker-start:url(#b);marker-end:url(#b)"/><text xml:space="preserve" style="font-size:14.6667px;line-height:1.25;font-family:sans-serif;white-space:pre;shape-inside:url(#K)" transform="translate(16.04 -47.23)scale(.26458)"><tspan x="177.568" y="1169.211">R5</tspan></text><circle cx="79.7" cy="276.307" r="8.139" style="fill:none;stroke:teal;stroke-width:.264583;stroke-linejoin:bevel"/><path d="m79.7 289.007-53.335-.132" style="fill:none;stroke:#000;stroke-width:.264583px;stroke-linecap:butt;stroke-linejoin:miter;stroke-opacity:1;marker-start:url(#b);marker-end:url(#b)"/><path d="M26.365 276.175v12.7M79.7 276.307v12.7" style="fill:none;stroke:#ccc;stroke-width:.264583px;stroke-linecap:butt;stroke-linejoin:miter;stroke-opacity:1;stroke-dasharray:none;stroke-dashoffset:0"/><text xml:space="preserve" style="font-size:14.6667px;line-height:1.25;font-family:sans-serif;white-space:pre;shape-inside:url(#L)" transform="translate(4.637 -8.37)scale(.26458)"><tspan x="176.451" y="1122.016">R1</tspan></text><path d="m26.365 276.175 52.175-7.896 1.16 8.028" style="fill:none;stroke:#f60;stroke-width:.264583px;stroke-linecap:butt;stroke-linejoin:miter;stroke-opacity:1"/><path d="m76.916 268.403.259 1.571 1.505-.287" style="fill:none;stroke:#f60;stroke-width:.264583px;stroke-linecap:butt;stroke-linejoin:miter;stroke-opacity:1"/><path d="m102 276.158-.043-1.304 1.345.082" style="fill:none;stroke:#666;stroke-width:.264583px;stroke-linecap:butt;stroke-linejoin:miter;stroke-opacity:1"/><path d="m79.681 276.175.02 8.27" style="fill:none;stroke:purple;stroke-width:.264583px;stroke-linecap:butt;stroke-linejoin:miter;stroke-opacity:1;marker-start:url(#b);marker-end:url(#b)"/><text xml:space="preserve" style="font-size:14.6667px;line-height:1.25;font-family:sans-serif;white-space:pre;shape-inside:url(#M)" transform="translate(-8.291 -5.108)scale(.26458)"><tspan x="332.754" y="1082.848">R4</tspan></text><path d="M106.048 299.687v-47.024" style="fill:none;stroke:#a02c2c;stroke-width:.264583px;stroke-linecap:butt;stroke-linejoin:miter;stroke-opacity:1;marker-start:url(#b);marker-end:url(#b)"/><text xml:space="preserve" style="font-size:14.6667px;line-height:1.25;font-family:sans-serif;white-space:pre;shape-inside:url(#N)" transform="translate(-5.556 .95)scale(.26458)"><tspan x="423.668" y="1044.631">L2</tspan></text><path d="m103.402 299.82-28.38-16.822 4.66-6.823" style="fill:none;stroke:#00f;stroke-width:.264583px;stroke-linecap:butt;stroke-linejoin:miter;stroke-opacity:1"/><path d="m75.69 282.052.924.568-.7.835" style="fill:none;stroke:#00f;stroke-width:.264583px;stroke-linecap:butt;stroke-linejoin:miter;stroke-opacity:1"/><text xml:space="preserve" style="font-size:14.6667px;line-height:1.25;font-family:sans-serif;white-space:pre;shape-inside:url(#O);fill:#054" transform="translate(5.058 -24.11)scale(.26458)"><tspan x="284.338" y="1133.385">A</tspan></text><text xml:space="preserve" style="font-size:14.6667px;line-height:1.25;font-family:sans-serif;white-space:pre;shape-inside:url(#P);fill:#054" transform="translate(-9.633 -15.583)scale(.26458)"><tspan x="307.85" y="1140.137">B</tspan></text><text xml:space="preserve" style="font-size:14.6667px;line-height:1.25;font-family:sans-serif;white-space:pre;shape-inside:url(#Q);fill:#054" transform="translate(14.614 -.088)scale(.26458)"><tspan x="333.432" y="1147.322">C</tspan></text><text xml:space="preserve" style="font-size:14.6667px;line-height:1.25;font-family:sans-serif;white-space:pre;shape-inside:url(#R);fill:#054" transform="translate(-10.983 -18.351)scale(.26458)"><tspan x="418.494" y="1127.803">D</tspan></text><path d="M181.385 274.48h9.853v42.437h-9.853z" style="fill:none;stroke:#1a1a1a;stroke-width:.264583;stroke-linejoin:bevel" transform="rotate(25.237)"/><path d="M40.407 341.229h41.824v13.724H40.407z" style="fill:none;stroke:#1a1a1a;stroke-width:.264583;stroke-linejoin:bevel"/><path d="M82.232 348.091H36.449" style="fill:none;stroke:#a00;stroke-width:.264583px;stroke-linecap:butt;stroke-linejoin:miter;stroke-opacity:1"/><path d="M191.237 273.462h9.853v42.437h-9.853z" style="fill:none;stroke:#1a1a1a;stroke-width:.264583;stroke-linejoin:bevel" transform="rotate(25.237)"/><path d="M28.949 364.004V317.38" style="fill:none;stroke:#a00;stroke-width:.264583px;stroke-linecap:butt;stroke-linejoin:miter;stroke-opacity:1"/><path d="m27.636 366.24 8.912 4.2" style="fill:none;stroke:#000;stroke-width:.264583;stroke-linecap:butt;stroke-linejoin:miter;stroke-opacity:1;marker-start:url(#b);marker-end:url(#b)"/><path d="M28.97 357.11s1.177-.61 1.797-.533c.494.062 1.284.765 1.284.765" style="fill:none;stroke:#000;stroke-width:.264583px;stroke-linecap:butt;stroke-linejoin:miter;stroke-opacity:1"/><text xml:space="preserve" style="font-size:14.6667px;line-height:1.25;font-family:sans-serif;white-space:pre;shape-inside:url(#S)" transform="translate(-48.288 23.285)scale(.26458)"><tspan x="294.695" y="1252.393">a</tspan></text><text xml:space="preserve" style="font-size:14.6667px;line-height:1.25;font-family:sans-serif;white-space:pre;shape-inside:url(#T)" transform="translate(4.868 -6.042)scale(.26458)"><tspan x="85.609" y="1434.316">E2</tspan></text><path d="m36.45 348.091 8.911 4.201" style="fill:none;stroke:#b3b3b3;stroke-width:.264583;stroke-linecap:butt;stroke-linejoin:miter;stroke-opacity:1"/></svg>