<svg xmlns="http://www.w3.org/2000/svg" width="483.867" height="344.436" viewBox="0 0 128.023 91.132"><defs><path id="l" d="M243.579 411.65h83.222v29.63h-83.222z"/><path id="k" d="M291.501 655.172h62.669v34.866h-62.669z"/><path id="j" d="M104.834 471.822h61.849v33.015h-61.849z"/><path id="i" d="M456.995 477.978h66.359v29.52h-66.359z"/><path id="h" d="M47.38 682.816h61.03v30.421H47.38z"/><path id="g" d="M35.361 558.611h69.802v29.424H35.361z"/><path id="f" d="M469.47 530.86h70.958v43.212H469.47z"/><path id="e" d="M379.28 450.966h73.333v29.781H379.28z"/><path id="c" d="M481.211 718.845H600v73.231H481.211z"/><marker id="d" markerHeight="1" markerWidth="1" orient="auto-start-reverse" preserveAspectRatio="xMidYMid" refX="0" refY="0" style="overflow:visible" viewBox="0 0 1 1"><path d="M3-3 0 0l3 3" style="fill:none;stroke:context-stroke;stroke-width:1;stroke-linecap:butt" transform="rotate(180 .125 0)"/></marker><marker id="a" markerHeight="1" markerWidth="1" orient="auto-start-reverse" preserveAspectRatio="xMidYMid" refX="0" refY="0" style="overflow:visible" viewBox="0 0 1 1"><path d="M3-3 0 0l3 3" style="fill:none;stroke:context-stroke;stroke-width:1;stroke-linecap:butt" transform="rotate(180 .125 0)"/></marker><marker id="b" markerHeight="1" markerWidth="1" orient="auto-start-reverse" preserveAspectRatio="xMidYMid" refX="0" refY="0" style="overflow:visible" viewBox="0 0 1 1"><path d="M3-3 0 0l3 3" style="fill:none;stroke:context-stroke;stroke-width:1;stroke-linecap:butt" transform="rotate(180 .125 0)"/></marker></defs><g transform="translate(-13.344 -120.153)"><path d="M13.476 120.285h127.758v90.867H13.476z" style="fill:#fff;stroke:#fff;stroke-width:.264583;stroke-linejoin:bevel;stroke-dasharray:none;stroke-dashoffset:0"/><circle cx="75.548" cy="169.922" r="37.504" style="fill:none;stroke:#000;stroke-width:.264584;stroke-linejoin:bevel;stroke-dasharray:none;stroke-dashoffset:0"/><circle cx="75.548" cy="169.892" r="28.434" style="fill:none;stroke:#e6e6e6;stroke-width:.264584;stroke-linejoin:bevel;stroke-dasharray:none;stroke-dashoffset:0"/><circle cx="75.548" cy="169.892" r="20.17" style="fill:none;stroke:#e6e6e6;stroke-width:.264584;stroke-linejoin:bevel;stroke-dasharray:none;stroke-dashoffset:0"/><circle cx="74.677" cy="149.999" r="2.652" style="fill:none;stroke:#000;stroke-width:.264583;stroke-linejoin:bevel;stroke-dasharray:none;stroke-dashoffset:0"/><circle cx="55.871" cy="170.43" r="2.652" style="fill:none;stroke:#000;stroke-width:.264583;stroke-linejoin:bevel;stroke-dasharray:none;stroke-dashoffset:0"/><circle cx="95.553" cy="169.29" r="2.652" style="fill:none;stroke:#000;stroke-width:.264583;stroke-linejoin:bevel;stroke-dasharray:none;stroke-dashoffset:0"/><circle cx="76.591" cy="189.867" r="2.652" style="fill:none;stroke:#000;stroke-width:.264583;stroke-linejoin:bevel;stroke-dasharray:none;stroke-dashoffset:0"/><circle cx="74.677" cy="149.867" r="4.208" style="fill:none;stroke:#e6e6e6;stroke-width:.264583;stroke-linejoin:bevel;stroke-dasharray:none;stroke-dashoffset:0"/><circle cx="55.739" cy="170.43" r="4.208" style="fill:none;stroke:#e6e6e6;stroke-width:.264583;stroke-linejoin:bevel;stroke-dasharray:none;stroke-dashoffset:0"/><circle cx="76.591" cy="189.867" r="4.208" style="fill:none;stroke:#e6e6e6;stroke-width:.264583;stroke-linejoin:bevel;stroke-dasharray:none;stroke-dashoffset:0"/><circle cx="95.405" cy="169.29" r="4.208" style="fill:none;stroke:#e6e6e6;stroke-width:.264583;stroke-linejoin:bevel;stroke-dasharray:none;stroke-dashoffset:0"/><path d="M85.53 196.54s-.919.36-1.397.334c-.475-.026-.941-.23-1.344-.483-.237-.15-.598-.59-.598-.59l-1.749-7.626s-.393-.789-.692-1.104c-.503-.531-1.111-1.004-1.795-1.265-.656-.251-1.401-.367-2.092-.244-.83.148-1.618.594-2.257 1.145-.256.221-.543.645-.782.992-.163.237-.444.743-.444.743l-.917 8.405s-.302.3-.48.414c-.293.186-.609.373-.952.425-.408.063-.829-.047-1.23-.143-.55-.131-1.595-.586-1.595-.586M102.136 160.068s.36.918.334 1.397c-.027.475-.23.94-.484 1.343-.149.237-.589.598-.589.598l-7.626 1.75s-.789.392-1.104.691c-.532.503-1.004 1.111-1.265 1.795-.251.656-.368 1.401-.244 2.093.148.83.593 1.618 1.145 2.256.221.256.645.543.991.782.238.164.744.444.744.444l8.405.917s.3.302.414.48c.186.294.372.61.425.953.062.408-.047.828-.143 1.23-.131.55-.586 1.594-.586 1.594M65.671 143.264s.919-.36 1.397-.333c.475.026.94.23 1.344.483.237.149.598.59.598.59l1.749 7.626s.393.788.691 1.103c.504.532 1.112 1.004 1.796 1.266.656.25 1.4.367 2.092.243.83-.148 1.618-.593 2.256-1.144.257-.222.544-.645.783-.992.163-.238.443-.743.443-.743l.918-8.406s.301-.3.48-.414c.293-.186.609-.372.952-.425.408-.062.828.048 1.23.143.55.132 1.595.586 1.595.586M48.774 179.565s-.36-.92-.334-1.397c.026-.476.23-.941.483-1.344.15-.237.59-.598.59-.598l7.626-1.75s.789-.392 1.104-.69c.531-.504 1.004-1.112 1.265-1.796.251-.656.367-1.401.244-2.093-.148-.83-.594-1.618-1.145-2.256-.221-.256-.645-.543-.992-.782-.237-.164-.743-.444-.743-.444l-8.405-.917s-.3-.302-.414-.48c-.186-.294-.373-.61-.425-.953-.063-.408.047-.828.143-1.23.131-.55.586-1.594.586-1.594M48.357 161.24s1.699-4.72 3.042-6.815c1.491-2.326 3.38-4.421 5.47-6.23 1.447-1.252 3.136-2.21 4.816-3.128 1.28-.7 3.986-1.803 3.986-1.803M83.995 142.847s2.911.949 4.282 1.62a28.3 28.3 0 0 1 4.492 2.748c1.108.829 2.108 1.799 3.08 2.784 1.381 1.399 2.83 2.775 3.896 4.426.597.924.934 1.992 1.36 3.006.367.87 1.03 2.637 1.03 2.637M48.774 179.565s1.134 2.72 1.847 4.007a30 30 0 0 0 2.396 3.665c.743.978 1.55 1.913 2.431 2.768.996.965 2.088 1.83 3.208 2.646 1.317.962 2.659 1.913 4.117 2.644 1.41.707 4.433 1.662 4.433 1.662M85.53 196.54s3.011-1.342 4.447-2.147c1.498-.839 3.026-1.67 4.33-2.784 1.536-1.313 2.845-2.89 4.03-4.526 1.11-1.531 2.054-3.19 2.853-4.904.567-1.216 1.363-3.788 1.363-3.788" style="fill:none;stroke:#000;stroke-width:.264583px;stroke-linecap:butt;stroke-linejoin:miter;stroke-opacity:1"/><circle cx="74.835" cy="170.447" r="33.507" style="fill:none;stroke:#000;stroke-width:.264584;stroke-linejoin:bevel;stroke-dasharray:none;stroke-dashoffset:0"/><path d="M99.919 167.622h8.403v3.336h-8.403zM41.515 168.762h9.752v3.336h-9.752z" style="fill:none;stroke:#000;stroke-width:.264583;stroke-linejoin:bevel;stroke-dasharray:none;stroke-dashoffset:0"/><path d="M194.34-78.259h9.513v3.336h-9.513z" style="fill:none;stroke:#000;stroke-width:.264583;stroke-linejoin:bevel;stroke-dasharray:none;stroke-dashoffset:0" transform="rotate(90)"/><path d="M-145.659 73.009h8.61v3.336h-8.61z" style="fill:none;stroke:#000;stroke-width:.264583;stroke-linejoin:bevel;stroke-dasharray:none;stroke-dashoffset:0" transform="rotate(-90)"/><path d="M108.322 167.622h18.111M108.322 170.958h18.111" style="fill:none;stroke:#ccc;stroke-width:.264583px;stroke-linecap:butt;stroke-linejoin:miter;stroke-opacity:1"/><path d="M126.433 167.622v3.252" style="fill:none;stroke:#00f;stroke-width:.264583px;stroke-linecap:butt;stroke-linejoin:miter;stroke-opacity:1;marker-start:url(#a);marker-end:url(#b)"/><text xml:space="preserve" style="font-size:14.6667px;line-height:1.25;font-family:sans-serif;white-space:pre;shape-inside:url(#c);display:inline" transform="translate(.73 -22.72)scale(.26458)"><tspan x="481.211" y="731.822">PHE3</tspan></text><path d="m88.093 153.886 18.043-23.723" style="fill:none;stroke:#00f;stroke-width:.264583px;stroke-linecap:butt;stroke-linejoin:miter;stroke-opacity:1;marker-start:url(#d)"/><path d="m100.567 156.038 22.43-7.605" style="fill:none;stroke:#00f;stroke-width:.264583px;stroke-linecap:butt;stroke-linejoin:miter;stroke-opacity:1;marker-start:url(#d)"/><path d="m53.438 172.19-22.772 13.954" style="fill:none;stroke:#00f;stroke-width:.264583px;stroke-linecap:butt;stroke-linejoin:miter;stroke-opacity:1;marker-start:url(#d)"/><path d="m51.932 167.633-24.535-10.789" style="fill:#999;stroke:#00f;stroke-width:.264583px;stroke-linecap:butt;stroke-linejoin:miter;stroke-opacity:1;marker-start:url(#d)"/><text xml:space="preserve" style="font-size:14.6667px;line-height:1.25;font-family:sans-serif;white-space:pre;shape-inside:url(#e);display:inline" transform="translate(2.572 6.547)scale(.26458)"><tspan x="379.279" y="463.943">PHD1</tspan></text><text xml:space="preserve" style="font-size:14.6667px;line-height:1.25;font-family:sans-serif;white-space:pre;shape-inside:url(#f);display:inline" transform="translate(-4.318 3.486)scale(.26458)"><tspan x="469.471" y="543.836">PHD5</tspan></text><text xml:space="preserve" style="font-size:14.6667px;line-height:1.25;font-family:sans-serif;white-space:pre;shape-inside:url(#g);display:inline" transform="translate(7.242 7.157)scale(.26458)"><tspan x="35.361" y="571.588">PHR4</tspan></text><text xml:space="preserve" style="font-size:14.6667px;line-height:1.25;font-family:sans-serif;white-space:pre;shape-inside:url(#h);display:inline" transform="translate(6.833 3.973)scale(.26458)"><tspan x="47.381" y="695.793">PHD3</tspan></text><path d="m104.776 145.897 17.42-12.4" style="fill:none;stroke:#00f;stroke-width:.264583px;stroke-linecap:butt;stroke-linejoin:miter;stroke-opacity:1;marker-start:url(#d)"/><text xml:space="preserve" style="font-size:14.6667px;line-height:1.25;font-family:sans-serif;white-space:pre;shape-inside:url(#i);display:inline" transform="translate(-1.956 2.913)scale(.26458)"><tspan x="456.994" y="490.955">PHD2</tspan></text><path d="m54.538 165.098-11.624-33.28 25.79 16.718" style="fill:none;stroke:#00f;stroke-width:.264583px;stroke-linecap:butt;stroke-linejoin:miter;stroke-opacity:1;marker-start:url(#d);marker-end:url(#d)"/><text xml:space="preserve" style="font-size:14.6667px;line-height:1.25;font-family:sans-serif;white-space:pre;shape-inside:url(#j);display:inline" transform="translate(6.133 2.473)scale(.26458)"><tspan x="104.834" y="484.799">PHN1</tspan></text><text xml:space="preserve" style="font-size:14.6667px;line-height:1.25;font-family:sans-serif;white-space:pre;shape-inside:url(#k);display:inline" transform="translate(1.91 4.46)scale(.26458)"><tspan x="291.502" y="668.148">PHR6</tspan></text><path d="m90.309 179.455 10.93-3.863" style="fill:none;stroke:#00f;stroke-width:.264583px;stroke-linecap:butt;stroke-linejoin:miter;stroke-opacity:1;marker-end:url(#d)"/><path d="M68.973 142.75v-14.733M79.687 142.45v-14.734" style="fill:none;stroke:#ccc;stroke-width:.264583px;stroke-linecap:butt;stroke-linejoin:miter;stroke-opacity:1"/><path d="M68.922 128.066h10.69" style="fill:none;stroke:#00f;stroke-width:.264583px;stroke-linecap:butt;stroke-linejoin:miter;stroke-opacity:1;marker-start:url(#d);marker-end:url(#d)"/><text xml:space="preserve" style="font-size:14.6667px;line-height:1.25;font-family:sans-serif;white-space:pre;shape-inside:url(#l);display:inline" transform="translate(4.98 14.178)scale(.26458)"><tspan x="243.578" y="424.627">PHL2</tspan></text></g></svg>