<svg xmlns="http://www.w3.org/2000/svg" width="442.051" height="283.876" viewBox="0 0 116.959 75.109"><defs><marker id="a" markerHeight="1" markerWidth="1" orient="auto-start-reverse" preserveAspectRatio="xMidYMid" refX="0" refY="0" style="overflow:visible" viewBox="0 0 1 1"><path d="M3-3 0 0l3 3" style="fill:none;stroke:context-stroke;stroke-width:1;stroke-linecap:butt" transform="rotate(180 .125 0)"/></marker><marker id="b" markerHeight="1" markerWidth="1" orient="auto-start-reverse" preserveAspectRatio="xMidYMid" refX="0" refY="0" style="overflow:visible" viewBox="0 0 1 1"><path d="M3-3 0 0l3 3" style="fill:none;stroke:context-stroke;stroke-width:1;stroke-linecap:butt" transform="rotate(180 .125 0)"/></marker><marker id="c" markerHeight="1" markerWidth="1" orient="auto-start-reverse" preserveAspectRatio="xMidYMid" refX="0" refY="0" style="overflow:visible" viewBox="0 0 1 1"><path d="M3-3 0 0l3 3" style="fill:none;stroke:context-stroke;stroke-width:1;stroke-linecap:butt" transform="rotate(180 .125 0)"/></marker><marker id="d" markerHeight="1" markerWidth="1" orient="auto-start-reverse" preserveAspectRatio="xMidYMid" refX="0" refY="0" style="overflow:visible" viewBox="0 0 1 1"><path d="M3-3 0 0l3 3" style="fill:none;stroke:context-stroke;stroke-width:1;stroke-linecap:butt" transform="rotate(180 .125 0)"/></marker><marker id="e" markerHeight="1" markerWidth="1" orient="auto-start-reverse" preserveAspectRatio="xMidYMid" refX="0" refY="0" style="overflow:visible" viewBox="0 0 1 1"><path d="M3-3 0 0l3 3" style="fill:none;stroke:context-stroke;stroke-width:1;stroke-linecap:butt" transform="rotate(180 .125 0)"/></marker><marker id="f" markerHeight="1" markerWidth="1" orient="auto-start-reverse" preserveAspectRatio="xMidYMid" refX="0" refY="0" style="overflow:visible" viewBox="0 0 1 1"><path d="M3-3 0 0l3 3" style="fill:none;stroke:context-stroke;stroke-width:1;stroke-linecap:butt" transform="rotate(180 .125 0)"/></marker><marker id="g" markerHeight="1" markerWidth="1" orient="auto-start-reverse" preserveAspectRatio="xMidYMid" refX="0" refY="0" style="overflow:visible" viewBox="0 0 1 1"><path d="M3-3 0 0l3 3" style="fill:none;stroke:context-stroke;stroke-width:1;stroke-linecap:butt" transform="rotate(180 .125 0)"/></marker><marker id="h" markerHeight="1" markerWidth="1" orient="auto-start-reverse" preserveAspectRatio="xMidYMid" refX="0" refY="0" style="overflow:visible" viewBox="0 0 1 1"><path d="M3-3 0 0l3 3" style="fill:none;stroke:context-stroke;stroke-width:1;stroke-linecap:butt" transform="rotate(180 .125 0)"/></marker><marker id="i" markerHeight="1" markerWidth="1" orient="auto-start-reverse" preserveAspectRatio="xMidYMid" refX="0" refY="0" style="overflow:visible" viewBox="0 0 1 1"><path d="M3-3 0 0l3 3" style="fill:none;stroke:context-stroke;stroke-width:1;stroke-linecap:butt" transform="rotate(180 .125 0)"/></marker><marker id="n" markerHeight="1" markerWidth="1" orient="auto-start-reverse" preserveAspectRatio="xMidYMid" refX="0" refY="0" style="overflow:visible" viewBox="0 0 1 1"><path d="M3-3 0 0l3 3" style="fill:none;stroke:context-stroke;stroke-width:1;stroke-linecap:butt" transform="rotate(180 .125 0)"/></marker><marker id="o" markerHeight="1" markerWidth="1" orient="auto-start-reverse" preserveAspectRatio="xMidYMid" refX="0" refY="0" style="overflow:visible" viewBox="0 0 1 1"><path d="M3-3 0 0l3 3" style="fill:none;stroke:context-stroke;stroke-width:1;stroke-linecap:butt" transform="rotate(180 .125 0)"/></marker><marker id="t" markerHeight="1" markerWidth="1" orient="auto-start-reverse" preserveAspectRatio="xMidYMid" refX="0" refY="0" style="overflow:visible" viewBox="0 0 1 1"><path d="M3-3 0 0l3 3" style="fill:none;stroke:context-stroke;stroke-width:1;stroke-linecap:butt" transform="rotate(180 .125 0)"/></marker><marker id="u" markerHeight="1" markerWidth="1" orient="auto-start-reverse" preserveAspectRatio="xMidYMid" refX="0" refY="0" style="overflow:visible" viewBox="0 0 1 1"><path d="M3-3 0 0l3 3" style="fill:none;stroke:context-stroke;stroke-width:1;stroke-linecap:butt" transform="rotate(180 .125 0)"/></marker><marker id="v" markerHeight="1" markerWidth="1" orient="auto-start-reverse" preserveAspectRatio="xMidYMid" refX="0" refY="0" style="overflow:visible" viewBox="0 0 1 1"><path d="M3-3 0 0l3 3" style="fill:none;stroke:context-stroke;stroke-width:1;stroke-linecap:butt" transform="rotate(180 .125 0)"/></marker><marker id="w" markerHeight="1" markerWidth="1" orient="auto-start-reverse" preserveAspectRatio="xMidYMid" refX="0" refY="0" style="overflow:visible" viewBox="0 0 1 1"><path d="M3-3 0 0l3 3" style="fill:none;stroke:context-stroke;stroke-width:1;stroke-linecap:butt" transform="rotate(180 .125 0)"/></marker><path id="s" d="M8.487 168.134h66.539v27.696H8.487z"/><path id="r" d="M135.776 133.138h52.578v29.106h-52.578z"/><path id="q" d="M57.29 365.382h57.084v26.228H57.29z"/><path id="p" d="M270.823 188.509h54.817v20.022h-54.817z"/><path id="m" d="M304.749 74.116h66.936v28.169h-66.936z"/><path id="j" d="M277.207 382.856h52.899v40.498h-52.899z"/><path id="k" d="M277.207 382.856h52.899v40.498h-52.899z"/><path id="l" d="M277.207 382.856h52.899v40.498h-52.899z"/><path id="x" d="M270.823 188.509h54.817v20.022h-54.817z"/></defs><path d="M5.697 28.043h116.695v74.844H5.697z" style="fill:#fff;stroke:#fff;stroke-width:.264583;stroke-linejoin:bevel;stroke-dasharray:none;stroke-dashoffset:0" transform="translate(-5.565 -27.91)"/><path d="M59.346 57.934h5.372v2.608h-5.372z" style="fill:none;stroke:#000;stroke-width:.264583;stroke-linejoin:bevel" transform="translate(-5.565 -27.91)"/><path d="m44.081 47.378-22.549-8.67M35.412 69.927l-22.55-8.669" style="fill:none;stroke:#b3b3b3;stroke-width:.264583px;stroke-linecap:butt;stroke-linejoin:miter;stroke-opacity:1" transform="translate(-5.565 -27.91)"/><path d="m21.532 38.709-8.67 22.55" style="fill:none;stroke:#00f;stroke-width:.264583px;stroke-linecap:butt;stroke-linejoin:miter;stroke-opacity:1;marker-start:url(#a);marker-end:url(#a)" transform="translate(-5.565 -27.91)"/><path d="m26.743 92.477 8.669-22.55M29.265 93.446l8.67-22.549" style="fill:none;stroke:#b3b3b3;stroke-width:.264583px;stroke-linecap:butt;stroke-linejoin:miter;stroke-opacity:1" transform="translate(-5.565 -27.91)"/><path d="m38.787 96.958-9.522-3.512" style="fill:none;stroke:#00f;stroke-width:.264583px;stroke-linecap:butt;stroke-linejoin:miter;stroke-opacity:1;marker-end:url(#b)" transform="translate(-5.565 -27.91)"/><path d="m17.221 88.965 9.522 3.512" style="fill:none;stroke:#00f;stroke-width:.264583px;stroke-linecap:butt;stroke-linejoin:miter;stroke-opacity:1;marker-end:url(#c)" transform="translate(-5.565 -27.91)"/><path d="M35.412 69.927V48.355" style="fill:none;stroke:#b3b3b3;stroke-width:.264583px;stroke-linecap:butt;stroke-linejoin:miter;stroke-opacity:1" transform="translate(-5.565 -27.91)"/><path d="M35.438 52.819s2.026-1.012 3.089-.884c1.143.137 3 1.708 3 1.708" style="fill:none;stroke:#00f;stroke-width:.264583px;stroke-linecap:butt;stroke-linejoin:miter;stroke-opacity:1;marker-start:url(#a);marker-end:url(#a)" transform="translate(-5.565 -27.91)"/><path d="m44.081 47.378-8.669 22.55 2.522.97 3.981-10.355h17.431v-2.609H42.918l3.685-9.586z" style="fill:#ececec;stroke:#000;stroke-width:.264583px;stroke-linecap:butt;stroke-linejoin:miter;stroke-opacity:1" transform="translate(-5.565 -27.91)"/><path d="M64.719 57.934h2.117v2.608h-2.117z" style="fill:#ececec;stroke:#1a1a1a;stroke-width:.264583;stroke-linejoin:bevel" transform="translate(-5.565 -27.91)"/><path d="M59.346 57.934V36.362M64.719 57.802V36.23M62.033 82.248V60.675M39.614 87.646V59.05" style="fill:none;stroke:#b3b3b3;stroke-width:.264583px;stroke-linecap:butt;stroke-linejoin:miter;stroke-opacity:1" transform="translate(-5.565 -27.91)"/><path d="M53.91 59.182H39.747" style="fill:none;stroke:#b3b3b3;stroke-width:.264583px;stroke-linecap:butt;stroke-linejoin:miter;stroke-dasharray:1,1;stroke-dashoffset:0;stroke-opacity:1" transform="translate(-5.565 -27.91)"/><path d="M66.835 72.551V60.543" style="fill:none;stroke:#b3b3b3;stroke-width:.264583px;stroke-linecap:butt;stroke-linejoin:miter;stroke-opacity:1" transform="translate(-5.565 -27.91)"/><path d="M-94.962 57.934h5.372v2.608h-5.372z" style="fill:none;stroke:#000;stroke-width:.264583;stroke-linejoin:bevel" transform="matrix(-1 0 0 1 -5.565 -27.91)"/><path d="m110.227 47.378 8.67 22.55-2.523.97-3.98-10.355H94.961v-2.609h16.429l-3.686-9.586z" style="fill:#ececec;stroke:#000;stroke-width:.264583px;stroke-linecap:butt;stroke-linejoin:miter;stroke-opacity:1" transform="translate(-5.565 -27.91)"/><path d="M-89.59 57.934h2.117v2.608h-2.117z" style="fill:#ececec;stroke:#1a1a1a;stroke-width:.264583;stroke-linejoin:bevel" transform="matrix(-1 0 0 1 -5.565 -27.91)"/><path d="M92.276 83.22V60.676" style="fill:none;stroke:#b3b3b3;stroke-width:.264583px;stroke-linecap:butt;stroke-linejoin:miter;stroke-opacity:1" transform="translate(-5.565 -27.91)"/><path d="M114.556 59.27h-14.163" style="fill:none;stroke:#b3b3b3;stroke-width:.264583px;stroke-linecap:butt;stroke-linejoin:miter;stroke-dasharray:1,1;stroke-dashoffset:0;stroke-opacity:1" transform="translate(-5.565 -27.91)"/><path d="M114.688 87.734V59.138" style="fill:none;stroke:#b3b3b3;stroke-width:.264583px;stroke-linecap:butt;stroke-linejoin:miter;stroke-opacity:1" transform="translate(-5.565 -27.91)"/><path d="M62.033 82.248h30.243" style="fill:none;stroke:#00f;stroke-width:.264583px;stroke-linecap:butt;stroke-linejoin:miter;stroke-opacity:1;marker-start:url(#a);marker-end:url(#a-9-5)" transform="translate(-5.565 -27.91)"/><path d="M39.614 87.646h74.952" style="fill:none;stroke:#00f;stroke-width:.264582px;stroke-linecap:butt;stroke-linejoin:miter;stroke-opacity:1;marker-start:url(#d);marker-end:url(#e)" transform="translate(-5.565 -27.91)"/><path d="M62.322 72.551h4.532" style="fill:none;stroke:#00f;stroke-width:.264583px;stroke-linecap:butt;stroke-linejoin:miter;stroke-opacity:1;marker-start:url(#f);marker-end:url(#g)" transform="translate(-5.565 -27.91)"/><path d="M59.383 36.362h5.201" style="fill:none;stroke:#00f;stroke-width:.264583px;stroke-linecap:butt;stroke-linejoin:miter;stroke-opacity:1;marker-start:url(#h);marker-end:url(#i)" transform="translate(-5.565 -27.91)"/><text xml:space="preserve" style="font-size:14.6667px;line-height:1.25;font-family:sans-serif;white-space:pre;shape-inside:url(#j);display:inline" transform="translate(-6.595 -50.924)scale(.26458)"><tspan x="277.207" y="395.832">PHD1</tspan></text><text xml:space="preserve" style="font-size:14.6667px;line-height:1.25;font-family:sans-serif;white-space:pre;shape-inside:url(#k);display:inline" transform="translate(-7.059 -41.176)scale(.26458)"><tspan x="277.207" y="395.832">PHD2</tspan></text><text xml:space="preserve" style="font-size:14.6667px;line-height:1.25;font-family:sans-serif;white-space:pre;shape-inside:url(#l);display:inline" transform="translate(-21.32 -98.285)scale(.26458)"><tspan x="277.207" y="395.832">PHD3</tspan></text><text xml:space="preserve" style="font-size:14.6667px;line-height:1.25;font-family:sans-serif;white-space:pre;shape-inside:url(#m);display:inline" transform="translate(-23.543 25.678)scale(.26458)"><tspan x="304.75" y="87.092">PHR4</tspan></text><path d="M74.392 60.675h-7.424M74.392 57.934h-7.424" style="fill:none;stroke:#b3b3b3;stroke-width:.264583px;stroke-linecap:butt;stroke-linejoin:miter;stroke-opacity:1" transform="translate(-5.565 -27.91)"/><path d="M74.392 57.934v2.722" style="fill:none;stroke:#00f;stroke-width:.264583px;stroke-linecap:butt;stroke-linejoin:miter;stroke-opacity:1;marker-start:url(#n);marker-end:url(#o)" transform="translate(-5.565 -27.91)"/><text xml:space="preserve" style="font-size:14.6667px;line-height:1.25;font-family:sans-serif;white-space:pre;shape-inside:url(#p);display:inline" transform="translate(-6.73 -24.07)scale(.26458)"><tspan x="270.824" y="201.484">PHE1</tspan></text><text xml:space="preserve" style="font-size:14.6667px;line-height:1.25;font-family:sans-serif;white-space:pre;shape-inside:url(#q);display:inline" transform="translate(-1.632 -29.806)scale(.26458)"><tspan x="57.289" y="378.359">PHE2</tspan></text><text xml:space="preserve" style="font-size:14.6667px;line-height:1.25;font-family:sans-serif;white-space:pre;shape-inside:url(#r);display:inline" transform="translate(-7.544 -15.718)scale(.26458)"><tspan x="135.775" y="146.115">PHA</tspan></text><text xml:space="preserve" style="font-size:14.6667px;line-height:1.25;font-family:sans-serif;white-space:pre;shape-inside:url(#s);display:inline" transform="translate(-.97 -25.936)scale(.26458)"><tspan x="8.488" y="181.111">PHL1</tspan></text><path d="M57.284 72.551h4.532" style="fill:none;stroke:#00f;stroke-width:.264583px;stroke-linecap:butt;stroke-linejoin:miter;stroke-opacity:1;marker-start:url(#t);marker-end:url(#u)" transform="translate(-5.565 -27.91)"/><path d="M57.16 73.106V60.41" style="fill:none;stroke:#b3b3b3;stroke-width:.264583px;stroke-linecap:butt;stroke-linejoin:miter;stroke-opacity:1" transform="translate(-5.565 -27.91)"/><path d="m37.934 70.897 19.031-10.354h-15.05ZM46.603 48.348l-3.685 9.586H57.16v-3.613l-10.558-5.973M107.705 48.348l3.686 9.586H97.148v-3.613l10.557-5.973M116.374 70.897l-19.03-10.354h15.05z" style="fill:none;stroke:#000;stroke-width:.264583px;stroke-linecap:butt;stroke-linejoin:miter;stroke-opacity:1" transform="translate(-5.565 -27.91)"/><path d="M97.148 54.32h-6.461" style="fill:none;stroke:#b3b3b3;stroke-width:.264583px;stroke-linecap:butt;stroke-linejoin:miter;stroke-opacity:1" transform="translate(-5.565 -27.91)"/><path d="M92.143 54.474v3.073" style="fill:none;stroke:#00f;stroke-width:.264583px;stroke-linecap:butt;stroke-linejoin:miter;stroke-opacity:1;marker-start:url(#v);marker-end:url(#w)" transform="translate(-5.565 -27.91)"/><text xml:space="preserve" style="font-size:14.6667px;line-height:1.25;font-family:sans-serif;white-space:pre;shape-inside:url(#x);display:inline" transform="translate(7.806 -27.659)scale(.26458)"><tspan x="270.824" y="201.484">PHH1</tspan></text></svg>