<svg xmlns="http://www.w3.org/2000/svg" width="600" height="3000" viewBox="0 0 158.75 793.75"><defs><path id="i" d="M233.246 47.293h44.299V68.39h-44.299z"/><path id="h" d="M232.386 422.66h31.102v21.1h-31.102z"/><path id="g" d="M44.168 340.133h33.631v34.846H44.168z"/><path id="f" d="M68.458 268.919h42.822v26.822H68.458z"/><path id="c" d="M416.933 216.016h66.522v54.076h-66.522z"/><path id="a" d="M19.311 17.982h173.932v50.433H19.311z"/><path id="l" d="M348.786 275.767h64.579v35.919h-64.579z"/><path id="m" d="M348.786 275.767h64.579v35.919h-64.579z"/><path id="n" d="M348.786 275.767h64.579v35.919h-64.579z"/><path id="q" d="M348.786 275.767h64.579v35.919h-64.579z"/><path id="r" d="M55.144 1137.68h45.352v36.638H55.144z"/><marker id="b" markerHeight="1" markerWidth="1" orient="auto-start-reverse" preserveAspectRatio="xMidYMid" refX="0" refY="0" style="overflow:visible" viewBox="0 0 1 1"><path d="M-.211-4.106 6.21-.894a1 1 90 0 1 0 1.788L-.21 4.106A1.236 1.236 31.717 0 1-2 3v-6A1.236 1.236 148.283 0 1-.211-4.106" style="fill:context-stroke;fill-rule:evenodd;stroke:none" transform="scale(.7)"/></marker><marker id="d" markerHeight="1" markerWidth="1" orient="auto-start-reverse" preserveAspectRatio="xMidYMid" refX="0" refY="0" style="overflow:visible" viewBox="0 0 1 1"><path d="M-.211-4.106 6.21-.894a1 1 90 0 1 0 1.788L-.21 4.106A1.236 1.236 31.717 0 1-2 3v-6A1.236 1.236 148.283 0 1-.211-4.106" style="fill:context-stroke;fill-rule:evenodd;stroke:none" transform="scale(.7)"/></marker><marker id="e" markerHeight="1" markerWidth="1" orient="auto-start-reverse" preserveAspectRatio="xMidYMid" refX="0" refY="0" style="overflow:visible" viewBox="0 0 1 1"><path d="M-.211-4.106 6.21-.894a1 1 90 0 1 0 1.788L-.21 4.106A1.236 1.236 31.717 0 1-2 3v-6A1.236 1.236 148.283 0 1-.211-4.106" style="fill:context-stroke;fill-rule:evenodd;stroke:none" transform="scale(.7)"/></marker><marker id="j" markerHeight="1" markerWidth="1" orient="auto-start-reverse" preserveAspectRatio="xMidYMid" refX="0" refY="0" style="overflow:visible" viewBox="0 0 1 1"><path d="M-.211-4.106 6.21-.894a1 1 90 0 1 0 1.788L-.21 4.106A1.236 1.236 31.717 0 1-2 3v-6A1.236 1.236 148.283 0 1-.211-4.106" style="fill:context-stroke;fill-rule:evenodd;stroke:none" transform="scale(.7)"/></marker><marker id="k" markerHeight="1" markerWidth="1" orient="auto-start-reverse" preserveAspectRatio="xMidYMid" refX="0" refY="0" style="overflow:visible" viewBox="0 0 1 1"><path d="M-.211-4.106 6.21-.894a1 1 90 0 1 0 1.788L-.21 4.106A1.236 1.236 31.717 0 1-2 3v-6A1.236 1.236 148.283 0 1-.211-4.106" style="fill:context-stroke;fill-rule:evenodd;stroke:none" transform="scale(.7)"/></marker><marker id="o" markerHeight="1" markerWidth="1" orient="auto-start-reverse" preserveAspectRatio="xMidYMid" refX="0" refY="0" style="overflow:visible" viewBox="0 0 1 1"><path d="M-.211-4.106 6.21-.894a1 1 90 0 1 0 1.788L-.21 4.106A1.236 1.236 31.717 0 1-2 3v-6A1.236 1.236 148.283 0 1-.211-4.106" style="fill:context-stroke;fill-rule:evenodd;stroke:none" transform="scale(.7)"/></marker><marker id="p" markerHeight="1" markerWidth="1" orient="auto-start-reverse" preserveAspectRatio="xMidYMid" refX="0" refY="0" style="overflow:visible" viewBox="0 0 1 1"><path d="M-.211-4.106 6.21-.894a1 1 90 0 1 0 1.788L-.21 4.106A1.236 1.236 31.717 0 1-2 3v-6A1.236 1.236 148.283 0 1-.211-4.106" style="fill:context-stroke;fill-rule:evenodd;stroke:none" transform="scale(.7)"/></marker><marker id="s" markerHeight="1" markerWidth="1" orient="auto-start-reverse" preserveAspectRatio="xMidYMid" refX="0" refY="0" style="overflow:visible" viewBox="0 0 1 1"><path d="M-.211-4.106 6.21-.894a1 1 90 0 1 0 1.788L-.21 4.106A1.236 1.236 31.717 0 1-2 3v-6A1.236 1.236 148.283 0 1-.211-4.106" style="fill:context-stroke;fill-rule:evenodd;stroke:none" transform="scale(.7)"/></marker></defs><path d="M23.511 13.948h86.546v101.008H23.511z" style="fill:#fff;stroke:#fff;stroke-width:.264583"/><text xml:space="preserve" style="font-size:14.6667px;line-height:1.25;font-family:sans-serif;white-space:pre;shape-inside:url(#a);display:inline" transform="scale(.26458)"><tspan x="19.311" y="30.959">vaxis.svg</tspan></text><path d="M60.606 34.189h12.732v5.055H60.606z" style="fill:#ccc;stroke:#ccc;stroke-width:.264583"/><path d="M73.339 34.189h8.564v5.055h-8.564z" style="fill:#fff;stroke:#999;stroke-width:.264583"/><path d="M81.902 34.189h3.509v5.055h-3.509z" style="fill:#fff;stroke:#999;stroke-width:.264583"/><path d="M60.606 90.057h12.732v5.055H60.606z" style="fill:#ccc;stroke:#ccc;stroke-width:.264583"/><path d="M73.339 90.057h8.564v5.055h-8.564z" style="fill:#fff;stroke:#999;stroke-width:.264583"/><path d="M81.902 90.057h3.509v5.055h-3.509z" style="fill:#fff;stroke:#999;stroke-width:.264583"/><path d="M73.339 90.057h8.563V39.245H73.34v-5.056H85.41v60.923H73.34v-5.055M60.677 89.858h-8.563V39.046h8.563v-5.055H48.605v60.923h12.072v-5.056" style="fill:#999;stroke:#999;stroke-width:.264583px;stroke-linecap:butt;stroke-linejoin:miter;stroke-opacity:1"/><path d="m85.545 34.322 14.708-.133M85.545 95.112l14.708-.132" style="fill:#b3b3b3;stroke:#b3b3b3;stroke-width:.264583px;stroke-linecap:butt;stroke-linejoin:miter;stroke-opacity:1"/><path d="M100.253 35.648v57.975" style="fill:none;stroke:#000;stroke-width:.264583px;stroke-linecap:butt;stroke-linejoin:miter;stroke-opacity:1;marker-start:url(#b);marker-end:url(#b)"/><text xml:space="preserve" style="font-size:14.6667px;line-height:1.25;font-family:sans-serif;white-space:pre;shape-inside:url(#c);display:inline" transform="translate(-9.657 4.933)scale(.26458)"><tspan x="416.934" y="228.992">H1</tspan></text><path d="m34.028 95.112 14.708-.132M33.692 89.99l18.422-.132" style="fill:#b3b3b3;stroke:#b3b3b3;stroke-width:.264583px;stroke-linecap:butt;stroke-linejoin:miter;stroke-opacity:1"/><path d="M33.692 94.258v-3.012" style="fill:none;stroke:#000;stroke-width:.264583px;stroke-linecap:butt;stroke-linejoin:miter;stroke-opacity:1;marker-start:url(#b);marker-end:url(#b)"/><path d="M56.379 76.464h-3.011" style="fill:none;stroke:#000;stroke-width:.264583px;stroke-linecap:butt;stroke-linejoin:miter;stroke-opacity:1;marker-end:url(#d)"/><path d="M44.147 76.464h3.01" style="fill:none;stroke:#000;stroke-width:.264583px;stroke-linecap:butt;stroke-linejoin:miter;stroke-opacity:1;marker-end:url(#e)"/><text xml:space="preserve" style="font-size:14.6667px;line-height:1.25;font-family:sans-serif;white-space:pre;shape-inside:url(#f);display:inline" transform="translate(20.709 3.093)scale(.26458)"><tspan x="68.457" y="281.895">E1</tspan></text><text xml:space="preserve" style="font-size:14.6667px;line-height:1.25;font-family:sans-serif;white-space:pre;shape-inside:url(#g);display:inline" transform="translate(15.45 .81)scale(.26458)"><tspan x="44.168" y="353.109">E2</tspan></text><path d="M48.605 95.046v13.245M60.606 20.944V34.19M85.411 94.848v13.245" style="fill:#ccc;stroke:#b3b3b3;stroke-width:.264583px;stroke-linecap:butt;stroke-linejoin:miter;stroke-opacity:1"/><path d="M84.073 108.093H49.9" style="fill:none;stroke:#000;stroke-width:.264583px;stroke-linecap:butt;stroke-linejoin:miter;stroke-opacity:1;marker-start:url(#b);marker-end:url(#b)"/><text xml:space="preserve" style="font-size:14.6667px;line-height:1.25;font-family:sans-serif;white-space:pre;shape-inside:url(#h);display:inline" transform="translate(2.907 -3.556)scale(.26458)"><tspan x="232.387" y="435.637">D1</tspan></text><path d="M73.207 20.812v13.245" style="fill:#ccc;stroke:#b3b3b3;stroke-width:.264583px;stroke-linecap:butt;stroke-linejoin:miter;stroke-opacity:1"/><path d="M61.764 20.944h10.417" style="fill:none;stroke:#000;stroke-width:.264583px;stroke-linecap:butt;stroke-linejoin:miter;stroke-opacity:1;marker-start:url(#b);marker-end:url(#b)"/><text xml:space="preserve" style="font-size:14.6667px;line-height:1.25;font-family:sans-serif;white-space:pre;shape-inside:url(#i);display:inline" transform="translate(2.535 3.786)scale(.26458)"><tspan x="233.246" y="60.27">D2</tspan></text><path d="M21.648 139.345h109.776v63.752H21.648z" style="fill:#fff;stroke:#fff;stroke-width:.264583;stroke-dasharray:none;stroke-dashoffset:0"/><path d="M110.482 188.04v-3.184" style="fill:none;stroke:#000;stroke-width:.264583px;stroke-linecap:butt;stroke-linejoin:miter;stroke-opacity:1;marker-start:url(#j);marker-end:url(#j)"/><circle cx="64.861" cy="169.158" r="24.985" style="fill:#e6e6e6;stroke:#ccc;stroke-width:.264583;stroke-dasharray:none"/><circle cx="64.861" cy="169.158" r="14.412" style="fill:#f9f9f9;stroke:#ccc;stroke-width:.264583;stroke-dasharray:none"/><circle cx="64.754" cy="149.073" r="2.873" style="fill:#f9f9f9;stroke:#ccc;stroke-width:.264583;stroke-dasharray:none;stroke-dashoffset:0"/><circle cx="84.839" cy="169.158" r="2.873" style="fill:#f9f9f9;stroke:#ccc;stroke-width:.264583;stroke-dasharray:none;stroke-dashoffset:0"/><circle cx="64.754" cy="189.243" r="2.873" style="fill:#f9f9f9;stroke:#ccc;stroke-width:.264583;stroke-dasharray:none;stroke-dashoffset:0"/><circle cx="44.669" cy="169.158" r="2.873" style="fill:#f9f9f9;stroke:#ccc;stroke-width:.264583;stroke-dasharray:none;stroke-dashoffset:0"/><circle cx="79.405" cy="155.143" r="2.873" style="fill:#f9f9f9;stroke:#ccc;stroke-width:.264583;stroke-dasharray:none;stroke-dashoffset:0"/><circle cx="79.405" cy="183.702" r="2.873" style="fill:#f9f9f9;stroke:#ccc;stroke-width:.264583;stroke-dasharray:none;stroke-dashoffset:0"/><circle cx="50.317" cy="183.702" r="2.873" style="fill:#f9f9f9;stroke:#ccc;stroke-width:.264583;stroke-dasharray:none;stroke-dashoffset:0"/><circle cx="50.317" cy="154.614" r="2.873" style="fill:#f9f9f9;stroke:#ccc;stroke-width:.264583;stroke-dasharray:none;stroke-dashoffset:0"/><circle cx="64.754" cy="169.158" r="20.085" style="fill:none;stroke:#ccc;stroke-width:.264583;stroke-dasharray:2,1;stroke-dashoffset:0"/><path d="M64.861 144.173h55.937M64.861 194.408h55.937M64.861 183.834h45.511M64.861 154.746h36.214M64.785 189.241h45.728" style="fill:#ccc;stroke:#ccc;stroke-width:.264583px;stroke-linecap:butt;stroke-linejoin:miter;stroke-opacity:1"/><path d="M120.798 192.72v-46.86" style="fill:none;stroke:#000;stroke-width:.264582px;stroke-linecap:butt;stroke-linejoin:miter;stroke-opacity:1;marker-start:url(#k);marker-end:url(#k)"/><text xml:space="preserve" style="font-size:14.6667px;line-height:1.25;font-family:sans-serif;white-space:pre;shape-inside:url(#l);display:inline" transform="translate(28.92 94.308)scale(.26458)"><tspan x="348.785" y="288.744">D1</tspan></text><text xml:space="preserve" style="font-size:14.6667px;line-height:1.25;font-family:sans-serif;white-space:pre;shape-inside:url(#m);display:inline" transform="translate(9.304 93.617)scale(.26458)"><tspan x="348.785" y="288.744">D2</tspan></text><text xml:space="preserve" style="font-size:14.6667px;line-height:1.25;font-family:sans-serif;white-space:pre;shape-inside:url(#n);display:inline" transform="translate(19.131 111.622)scale(.26458)"><tspan x="348.785" y="288.744">L1</tspan></text><path d="M101.075 182.731V155.85" style="fill:none;stroke:#000;stroke-width:.264583px;stroke-linecap:butt;stroke-linejoin:miter;stroke-opacity:1;marker-start:url(#o);marker-end:url(#o)"/><path d="M29.665 166.285h15.004M29.665 172.03h15.004" style="fill:#ccc;stroke:#ccc;stroke-width:.264583px;stroke-linecap:butt;stroke-linejoin:miter;stroke-opacity:1"/><path d="M29.665 170.855v-3.185" style="fill:none;stroke:#000;stroke-width:.264583px;stroke-linecap:butt;stroke-linejoin:miter;stroke-opacity:1;marker-start:url(#p);marker-end:url(#p)"/><text xml:space="preserve" style="font-size:14.6667px;line-height:1.25;font-family:sans-serif;white-space:pre;shape-inside:url(#q);display:inline" transform="translate(-69.204 94.278)scale(.26458)"><tspan x="348.785" y="288.744">D3</tspan></text><text xml:space="preserve" style="font-size:14.6667px;line-height:1.25;font-family:sans-serif;white-space:pre;shape-inside:url(#r);display:inline" transform="translate(18.846 -109.655)scale(.26458)"><tspan x="55.145" y="1150.656">N1</tspan></text><path d="m39.23 193.338 7.74-6.496" style="fill:none;stroke:#000;stroke-width:.264583px;stroke-linecap:butt;stroke-linejoin:miter;stroke-opacity:1;marker-end:url(#s)"/></svg>