<svg xmlns="http://www.w3.org/2000/svg" width="600" height="3000" viewBox="0 0 158.75 793.75"><defs><path id="R" d="M106.855 1728.119h38.808v30.888h-38.808z"/><path id="y" d="M472.504 496.893h114.278v47.35H472.504z"/><path id="w" d="M385.047 566.254h46.923v30.295h-46.923z"/><path id="v" d="M326.973 322.165h39.235v27.842h-39.235z"/><path id="u" d="M310.679 291.59h37.609v26.229h-37.609z"/><path id="t" d="M271.403 274.709h40.931v41.672h-40.931z"/><path id="p" d="M230.477 337.788h43.024v35.763h-43.024z"/><path id="n" d="M66.771 544.293h52.595v41.568H66.771z"/><path id="m" d="M77.858 137.531h83.851v43.935H77.858z"/><path id="l" d="M49.656 97.036h71.156v48.382H49.656z"/><path id="k" d="M479.338 609.681h71.939v53.847h-71.939z"/><path id="j" d="M543.218 236.892h42.737v38.238h-42.737z"/><path id="i" d="M519.75 43.763h68.4v71.172h-68.4z"/><path id="h" d="M546.666 422.076h35.719v33.093h-35.719z"/><path id="g" d="M360.738 72.512h39.349v32.277h-39.349z"/><path id="f" d="M309.139 65.957h52.16v31.797h-52.16z"/><path id="e" d="M503.914 145.637h58.003v43.166h-58.003z"/><path id="c" d="M432.272 88.073h56.586v36.71h-56.586z"/><path id="a" d="M20.95 26.25h232.884v62.281H20.95z"/><path id="s" d="M230.477 337.788h43.024v35.763h-43.024z"/><path id="B" d="M274.597 1135.815h121.684v58.77H274.597z"/><path id="G" d="M452.06 645.818h57.555v33.412H452.06z"/><path id="H" d="M209.616 689.979h115.718v71.502H209.616z"/><path id="I" d="M286.284 727.236h83.647v43.59h-83.647z"/><path id="J" d="M445.519 1111.086h61.593v52.801h-61.593z"/><path id="K" d="M433.234 1175.506h59.38v56.736h-59.38z"/><path id="L" d="M355.69 756.999h157.723v40.717H355.69z"/><path id="M" d="M152.946 783.135h50.197v30.108h-50.197z"/><path id="O" d="M256.083 1047.652h56.452v52.313h-56.452z"/><path id="P" d="M385.047 566.254h46.923v30.295h-46.923z"/><marker id="b" markerHeight="1" markerWidth="1" orient="auto-start-reverse" preserveAspectRatio="xMidYMid" refX="0" refY="0" style="overflow:visible" viewBox="0 0 1 1"><path d="M3-3 0 0l3 3" style="fill:none;stroke:context-stroke;stroke-width:1;stroke-linecap:butt" transform="rotate(180 .125 0)"/></marker><marker id="d" markerHeight="1" markerWidth="1" orient="auto-start-reverse" preserveAspectRatio="xMidYMid" refX="0" refY="0" style="overflow:visible" viewBox="0 0 1 1"><path d="M3-3 0 0l3 3" style="fill:none;stroke:context-stroke;stroke-width:1;stroke-linecap:butt" transform="rotate(180 .125 0)"/></marker><marker id="o" markerHeight="1" markerWidth="1" orient="auto-start-reverse" preserveAspectRatio="xMidYMid" refX="0" refY="0" style="overflow:visible" viewBox="0 0 1 1"><path d="M3-3 0 0l3 3" style="fill:none;stroke:context-stroke;stroke-width:1;stroke-linecap:butt" transform="rotate(180 .125 0)"/></marker><marker id="q" markerHeight="1" markerWidth="1" orient="auto-start-reverse" preserveAspectRatio="xMidYMid" refX="0" refY="0" style="overflow:visible" viewBox="0 0 1 1"><path d="M3-3 0 0l3 3" style="fill:none;stroke:context-stroke;stroke-width:1;stroke-linecap:butt" transform="rotate(180 .125 0)"/></marker><marker id="r" markerHeight="1" markerWidth="1" orient="auto-start-reverse" preserveAspectRatio="xMidYMid" refX="0" refY="0" style="overflow:visible" viewBox="0 0 1 1"><path d="M3-3 0 0l3 3" style="fill:none;stroke:context-stroke;stroke-width:1;stroke-linecap:butt" transform="rotate(180 .125 0)"/></marker><marker id="z" markerHeight="1" markerWidth="1" orient="auto-start-reverse" preserveAspectRatio="xMidYMid" refX="0" refY="0" style="overflow:visible" viewBox="0 0 1 1"><path d="M3-3 0 0l3 3" style="fill:none;stroke:context-stroke;stroke-width:1;stroke-linecap:butt" transform="rotate(180 .125 0)"/></marker><marker id="A" markerHeight="1" markerWidth="1" orient="auto-start-reverse" preserveAspectRatio="xMidYMid" refX="0" refY="0" style="overflow:visible" viewBox="0 0 1 1"><path d="M3-3 0 0l3 3" style="fill:none;stroke:context-stroke;stroke-width:1;stroke-linecap:butt" transform="rotate(180 .125 0)"/></marker><marker id="C" markerHeight="1" markerWidth="1" orient="auto-start-reverse" preserveAspectRatio="xMidYMid" refX="0" refY="0" style="overflow:visible" viewBox="0 0 1 1"><path d="M3-3 0 0l3 3" style="fill:none;stroke:context-stroke;stroke-width:1;stroke-linecap:butt" transform="rotate(180 .125 0)"/></marker><marker id="D" markerHeight="1" markerWidth="1" orient="auto-start-reverse" preserveAspectRatio="xMidYMid" refX="0" refY="0" style="overflow:visible" viewBox="0 0 1 1"><path d="M3-3 0 0l3 3" style="fill:none;stroke:context-stroke;stroke-width:1;stroke-linecap:butt" transform="rotate(180 .125 0)"/></marker><marker id="E" markerHeight="1" markerWidth="1" orient="auto-start-reverse" preserveAspectRatio="xMidYMid" refX="0" refY="0" style="overflow:visible" viewBox="0 0 1 1"><path d="M3-3 0 0l3 3" style="fill:none;stroke:context-stroke;stroke-width:1;stroke-linecap:butt" transform="rotate(180 .125 0)"/></marker><marker id="F" markerHeight="1" markerWidth="1" orient="auto-start-reverse" preserveAspectRatio="xMidYMid" refX="0" refY="0" style="overflow:visible" viewBox="0 0 1 1"><path d="M3-3 0 0l3 3" style="fill:none;stroke:context-stroke;stroke-width:1;stroke-linecap:butt" transform="rotate(180 .125 0)"/></marker><marker id="N" markerHeight="1" markerWidth="1" orient="auto-start-reverse" preserveAspectRatio="xMidYMid" refX="0" refY="0" style="overflow:visible" viewBox="0 0 1 1"><path d="M3-3 0 0l3 3" style="fill:none;stroke:context-stroke;stroke-width:1;stroke-linecap:butt" transform="rotate(180 .125 0)"/></marker><marker id="x" markerHeight="1" markerWidth="1" orient="auto-start-reverse" preserveAspectRatio="xMidYMid" refX="0" refY="0" style="overflow:visible" viewBox="0 0 1 1"><path d="M3-3 0 0l3 3" style="fill:none;stroke:context-stroke;stroke-width:1;stroke-linecap:butt" transform="rotate(180 .125 0)"/></marker><marker id="Q" markerHeight="1" markerWidth="1" orient="auto-start-reverse" preserveAspectRatio="xMidYMid" refX="0" refY="0" style="overflow:visible" viewBox="0 0 1 1"><path d="M3-3 0 0l3 3" style="fill:none;stroke:context-stroke;stroke-width:1;stroke-linecap:butt" transform="rotate(180 .125 0)"/></marker></defs><path d="M17.373 259.715h17.803" style="fill:none;stroke:#ccc;stroke-width:.26458px;stroke-linecap:butt;stroke-linejoin:miter;stroke-opacity:1"/><path d="M3.06 201.066h154.227v134.99H3.06zM8.094 29.288h144.784v143.258H8.094z" style="fill:#fff;stroke:#fff;stroke-width:.264583;stroke-linejoin:bevel"/><text xml:space="preserve" style="font-size:14.6667px;line-height:1.25;font-family:sans-serif;white-space:pre;shape-inside:url(#a);display:inline" transform="scale(.26458)"><tspan x="20.949" y="39.227">vaxis_guidance.svg</tspan></text><circle cx="76.477" cy="107.133" r="57.927" style="fill:none;stroke:#ccc;stroke-width:.264583;stroke-linejoin:bevel"/><circle cx="76.477" cy="107.133" r="49.458" style="fill:none;stroke:#ccc;stroke-width:.264583;stroke-linejoin:bevel"/><circle cx="76.477" cy="49.206" r="2.853" style="fill:none;stroke:#000;stroke-width:.264583;stroke-linejoin:bevel"/><circle cx="134.536" cy="107.133" r="2.853" style="fill:none;stroke:#000;stroke-width:.264583;stroke-linejoin:bevel"/><circle cx="18.55" cy="107.133" r="2.853" style="fill:none;stroke:#000;stroke-width:.264583;stroke-linejoin:bevel"/><circle cx="76.477" cy="165.192" r="2.853" style="fill:none;stroke:#000;stroke-width:.264583;stroke-linejoin:bevel"/><circle cx="76.477" cy="49.206" r="5.344" style="fill:none;stroke:#ccc;stroke-width:.264583;stroke-linejoin:bevel"/><circle cx="18.418" cy="107.133" r="5.344" style="fill:none;stroke:#ccc;stroke-width:.264583;stroke-linejoin:bevel"/><circle cx="134.403" cy="107.133" r="5.344" style="fill:none;stroke:#ccc;stroke-width:.264583;stroke-linejoin:bevel"/><circle cx="76.477" cy="165.192" r="5.344" style="fill:none;stroke:#ccc;stroke-width:.264583;stroke-linejoin:bevel"/><path d="m69.594 58.222 1.738-10.115s.402-1.706.908-2.394a4.74 4.74 0 0 1 1.96-1.537c.878-.367 1.883-.42 2.833-.36.644.041 1.3.19 1.874.484.549.28 1.004.728 1.42 1.183.405.442.767.938 1.025 1.48.252.528.492 1.684.492 1.684l1.86 9.475M69.241 156.277l2.1 9.816s.403 1.706.909 2.394a4.74 4.74 0 0 0 1.96 1.537c.878.367 1.883.42 2.833.36.644-.041 1.3-.19 1.874-.484.549-.28 1.004-.728 1.42-1.183a6.1 6.1 0 0 0 1.025-1.48c.252-.528.492-1.684.492-1.684l2.012-9.631M27.664 114.521l-10.17-2.252s-1.707-.402-2.395-.908a4.74 4.74 0 0 1-1.537-1.96c-.367-.878-.419-1.883-.359-2.833.04-.644.189-1.3.483-1.874.28-.549.728-1.004 1.183-1.42a6.1 6.1 0 0 1 1.48-1.025c.528-.252 1.685-.492 1.685-.492l9.474-1.86M125.432 100.053l9.816 2.1s1.706.402 2.394.908a4.74 4.74 0 0 1 1.537 1.96c.367.878.42 1.883.36 2.833-.041.644-.19 1.3-.483 1.875-.281.548-.729 1.004-1.184 1.42a6.1 6.1 0 0 1-1.48 1.024c-.527.252-1.684.493-1.684.493l-9.475 1.86M83.704 58.122s3.903.769 5.816 1.304a57 57 0 0 1 5.499 1.857 39 39 0 0 1 3.667 1.66c2.023 1.053 4.014 2.187 5.888 3.489a50.4 50.4 0 0 1 5.755 4.644 48 48 0 0 1 5.017 5.475c1.693 2.171 3.203 4.493 4.547 6.895 1 1.787 1.852 3.66 2.601 5.565a52 52 0 0 1 1.924 5.971c.434 1.668 1.014 5.07 1.014 5.07M27.664 99.95s.768-3.903 1.304-5.816a57 57 0 0 1 1.857-5.499 39 39 0 0 1 1.66-3.667c1.053-2.023 2.187-4.014 3.488-5.887a50.4 50.4 0 0 1 4.645-5.755 48 48 0 0 1 5.475-5.017c2.17-1.694 4.492-3.203 6.895-4.548 1.787-1 3.659-1.852 5.565-2.601a52 52 0 0 1 5.97-1.924c1.669-.434 5.071-1.014 5.071-1.014" style="fill:none;stroke:#000;stroke-width:.264583px;stroke-linecap:butt;stroke-linejoin:miter;stroke-opacity:1"/><path d="M69.392 156.452s-3.902-.769-5.815-1.305a57 57 0 0 1-5.5-1.856 39 39 0 0 1-3.667-1.66c-2.023-1.053-4.014-2.188-5.887-3.489a50.4 50.4 0 0 1-5.755-4.644 48 48 0 0 1-5.017-5.475c-1.694-2.171-3.203-4.493-4.548-6.895-1-1.787-1.852-3.66-2.601-5.565a52 52 0 0 1-1.924-5.971c-.434-1.668-1.014-5.071-1.014-5.071M125.233 114.526s-.32 3.687-.74 5.484c-.441 1.883-1.148 3.699-1.857 5.499a39 39 0 0 1-1.66 3.667c-1.053 2.023-2.187 4.014-3.489 5.888a50.4 50.4 0 0 1-4.644 5.754 48 48 0 0 1-5.475 5.018c-2.171 1.693-4.493 3.202-6.895 4.547-1.787 1-3.66 1.852-5.565 2.601a52 52 0 0 1-5.971 1.924c-1.668.434-5.07 1.014-5.07 1.014" style="fill:none;stroke:#000;stroke-width:.264583px;stroke-linecap:butt;stroke-linejoin:miter;stroke-opacity:1"/><circle cx="76.477" cy="107.133" r="42.859" style="fill:none;stroke:#ccc;stroke-width:.264583;stroke-linejoin:bevel"/><path d="m76.477 64.274.172 10.375c1.573 3.222 2.307 1.043 2.875.02v-5.407c.577-3.44 4.446-2.55 4.781 0v5.234c1.249 3.36 1.934 1.849 3.137 0v-5.314c1.452-3.074 3.814-1.81 4.882 0v10.21h-.904V70.07c-1.595-2.505-2.488-1.662-3.21 0v5.32c-1.322 2.442-2.758 4.067-4.979 0v-5.203c-.881-1.657-1.762-3.32-2.763 0V75.8c-1.068 1.615-1.729 4.111-5.445 0l-1.104-1.85M69.028 64.926l5.126 9.35M107.725 77.971l-7.66 7.001c-1.371 3.313.747 2.42 1.89 2.167l4.05-3.581c2.96-1.847 4.856 1.642 3.167 3.582l-3.92 3.467c-1.69 3.16-.105 2.673 2.077 2.35l3.98-3.52c3.266-.948 3.884 1.658 3.235 3.658l-7.65 6.763-.599-.678 6.985-6.175c.82-2.853-.403-2.964-2.125-2.404l-3.987 3.524c-2.706.626-4.874.627-3.298-3.73l3.898-3.447c.658-1.757 1.32-3.52-1.83-2.07l-4.205 3.718c-1.918.269-4.225 1.428-3.607-4.079l.655-2.053M102.303 72.823l-3.61 10.033M46.779 76.483l7 7.659c3.314 1.372 2.42-.747 2.168-1.889l-3.581-4.05c-1.847-2.96 1.642-4.856 3.582-3.168l3.467 3.921c3.16 1.69 2.673.105 2.35-2.077l-3.52-3.981c-.948-3.265 1.658-3.883 3.658-3.234l6.763 7.65-.678.598-6.175-6.984c-2.854-.82-2.965.402-2.404 2.125l3.524 3.986c.626 2.706.627 4.875-3.73 3.299l-3.447-3.899c-1.758-.657-3.52-1.32-2.07 1.83l3.718 4.206c.269 1.917 1.427 4.225-4.08 3.606l-2.052-.654M41.63 81.905l10.033 3.61M119.283 107.375l-10.375.173c-3.223 1.573-1.043 2.307-.02 2.874h5.406c3.44.577 2.55 4.447 0 4.782h-5.234c-3.359 1.248-1.848 1.933 0 3.136h5.314c3.074 1.452 1.811 3.815 0 4.883h-10.21v-.905h9.323c2.504-1.594 1.662-2.487 0-3.209h-5.321c-2.442-1.323-4.067-2.758 0-4.979h5.204c1.656-.881 3.32-1.763 0-2.763h-5.614c-1.614-1.069-4.11-1.73 0-5.445l1.85-1.105M118.63 99.927l-9.35 5.125M76.42 149.84l-.173-10.375c-1.573-3.222-2.307-1.043-2.874-.02v5.406c-.577 3.441-4.447 2.55-4.782 0v-5.233c-1.248-3.36-1.934-1.85-3.136 0v5.314c-1.453 3.073-3.815 1.81-4.883 0v-10.21h.904v9.322c1.595 2.504 2.488 1.662 3.21 0v-5.32c1.323-2.442 2.758-4.067 4.979 0v5.203c.881 1.656 1.762 3.32 2.763 0v-5.614c1.069-1.614 1.729-4.11 5.445 0l1.104 1.85M83.868 149.188l-5.125-9.35M33.797 108.813l10.376-.172c3.222-1.573 1.042-2.307.02-2.875h-5.407c-3.44-.577-2.55-4.447 0-4.782h5.234c3.359-1.248 1.849-1.933 0-3.136h-5.314c-3.074-1.452-1.81-3.814 0-4.883h10.21v.905h-9.323c-2.504 1.594-1.662 2.488 0 3.209h5.321c2.442 1.323 4.067 2.759 0 4.98h-5.203c-1.657.88-3.32 1.762 0 2.763h5.613c1.615 1.068 4.111 1.728 0 5.444l-1.85 1.105M34.45 116.261l9.35-5.125M45.851 136.899l7.659-7.001c1.372-3.313-.747-2.42-1.889-2.167l-4.05 3.58c-2.96 1.847-4.856-1.641-3.168-3.582l3.921-3.466c1.69-3.16.105-2.673-2.077-2.35l-3.981 3.52c-3.265.948-3.883-1.658-3.234-3.658l7.65-6.763.598.678-6.984 6.175c-.82 2.853.402 2.964 2.125 2.404l3.986-3.525c2.706-.626 4.874-.626 3.299 3.73l-3.899 3.448c-.657 1.757-1.32 3.52 1.83 2.07l4.206-3.718c1.917-.27 4.225-1.428 3.606 4.079l-.654 2.053M51.273 142.047l3.61-10.033M105.148 138.84l-7-7.66c-3.314-1.372-2.42.747-2.168 1.89l3.581 4.05c1.847 2.96-1.642 4.856-3.582 3.167l-3.467-3.921c-3.16-1.69-2.673-.104-2.35 2.077l3.52 3.982c.948 3.264-1.658 3.883-3.658 3.234l-6.763-7.65.678-.599 6.175 6.985c2.853.82 2.965-.403 2.404-2.126l-3.524-3.986c-.626-2.706-.627-4.874 3.73-3.298l3.447 3.898c1.758.658 3.52 1.32 2.07-1.83l-3.718-4.206c-.269-1.917-1.428-4.225 4.08-3.606l2.052.655M110.296 133.417l-10.032-3.61" style="fill:none;stroke:#000;stroke-width:.264583px;stroke-linecap:butt;stroke-linejoin:miter;stroke-opacity:1"/><path d="M76.42 149.84s-4.901-.164-7.308-.588a47.7 47.7 0 0 1-8.773-2.414c-1.62-.62-3.121-1.514-4.655-2.325-1.489-.788-4.411-2.466-4.411-2.466M83.868 149.188s3.921-.722 5.83-1.286c1.716-.507 3.41-1.116 5.03-1.88 1.736-.818 3.401-1.799 4.99-2.878 1.91-1.298 5.43-4.305 5.43-4.305M45.851 136.899s-2.476-2.51-3.55-3.902a38 38 0 0 1-3.176-4.897 49 49 0 0 1-3.028-6.6c-.638-1.728-1.513-5.314-1.513-5.314M33.797 108.813s-.227-4.448-.002-6.654c.2-1.964.684-3.894 1.199-5.8a47 47 0 0 1 1.89-5.637 44 44 0 0 1 2.406-4.898c.756-1.334 2.498-3.863 2.498-3.863M46.779 76.483s3.757-3.507 5.86-4.968c1.832-1.274 3.807-2.352 5.838-3.278 2.323-1.06 4.756-1.88 7.21-2.583 1.096-.314 3.342-.728 3.342-.728M76.477 64.274s6.11.39 9.107.978c2.34.46 4.66 1.095 6.873 1.986 2.34.943 4.537 2.222 6.696 3.526 1.08.652 3.12 2.142 3.12 2.142M107.725 77.971s4.5 5.336 6.23 8.345c1.464 2.545 2.554 5.308 3.452 8.103.575 1.79 1.224 5.508 1.224 5.508M119.283 107.375s-.422 6.802-1.213 10.1c-.716 2.984-1.857 5.87-3.168 8.644-.893 1.888-2.021 3.663-3.18 5.4-.44.659-1.426 1.898-1.426 1.898" style="fill:none;stroke:#000;stroke-width:.264583px;stroke-linecap:butt;stroke-linejoin:miter;stroke-opacity:1"/><path d="m105.593 56.689 9.42-11.404" style="fill:none;stroke:#00f;stroke-width:.264583px;stroke-linecap:butt;stroke-linejoin:miter;stroke-opacity:1;marker-start:url(#b)"/><text xml:space="preserve" style="font-size:14.6667px;line-height:1.25;font-family:sans-serif;white-space:pre;shape-inside:url(#c);display:inline" transform="translate(-.256 17.661)scale(.26458)"><tspan x="432.271" y="101.051">D1</tspan></text><path d="m111.56 71.673 15.98-11.828" style="fill:none;stroke:#00f;stroke-width:.264583px;stroke-linecap:butt;stroke-linejoin:miter;stroke-opacity:1;marker-start:url(#d)"/><text xml:space="preserve" style="font-size:14.6667px;line-height:1.25;font-family:sans-serif;white-space:pre;shape-inside:url(#e);display:inline" transform="translate(-5.266 18.715)scale(.26458)"><tspan x="503.914" y="158.613">D2</tspan></text><text xml:space="preserve" style="font-size:14.6667px;line-height:1.25;font-family:sans-serif;white-space:pre;shape-inside:url(#f);display:inline" transform="translate(-1.95 13.938)scale(.26458)"><tspan x="309.139" y="78.934">D3</tspan></text><path d="m77.298 45.764 3.227-10.245" style="fill:none;stroke:#00f;stroke-width:.264583px;stroke-linecap:butt;stroke-linejoin:miter;stroke-opacity:1;marker-start:url(#b)"/><text xml:space="preserve" style="font-size:14.6667px;line-height:1.25;font-family:sans-serif;white-space:pre;shape-inside:url(#g);display:inline" transform="translate(-5.207 18.205)scale(.26458)"><tspan x="360.738" y="85.488">D4</tspan></text><path d="m81.425 45.889 8.031-4.717" style="fill:none;stroke:#00f;stroke-width:.264583px;stroke-linecap:butt;stroke-linejoin:miter;stroke-opacity:1;marker-start:url(#b)"/><path d="M125.467 100.096h21.497M125.21 114.478h21.497" style="fill:none;stroke:#ccc;stroke-width:.264583px;stroke-linecap:butt;stroke-linejoin:miter;stroke-opacity:1"/><path d="M146.526 100.441v14.113" style="fill:none;stroke:#00f;stroke-width:.264583px;stroke-linecap:butt;stroke-linejoin:miter;stroke-opacity:1;marker-start:url(#b);marker-end:url(#b)"/><text xml:space="preserve" style="font-size:14.6667px;line-height:1.25;font-family:sans-serif;white-space:pre;shape-inside:url(#h);display:inline" transform="translate(2.196 -6.221)scale(.26458)"><tspan x="546.666" y="435.053">L1</tspan></text><text xml:space="preserve" style="font-size:14.6667px;line-height:1.25;font-family:sans-serif;white-space:pre;shape-inside:url(#i);display:inline" transform="translate(-40.484 32.81)scale(.26458)"><tspan x="519.75" y="56.738">R5</tspan></text><path d="m84.737 57.083 12.11-9.768" style="fill:none;stroke:#00f;stroke-width:.264583px;stroke-linecap:butt;stroke-linejoin:miter;stroke-opacity:1;marker-start:url(#b)"/><path d="m118.423 95.864 21.592-8.922" style="fill:none;stroke:#00f;stroke-width:.264583px;stroke-linecap:butt;stroke-linejoin:miter;stroke-opacity:1;marker-start:url(#b)"/><text xml:space="preserve" style="font-size:14.6667px;line-height:1.25;font-family:sans-serif;white-space:pre;shape-inside:url(#j);display:inline" transform="translate(-3.419 21.75)scale(.26458)"><tspan x="543.217" y="249.869">D6</tspan></text><path d="m132.611 169.523 8.205-6.535" style="fill:none;stroke:#00f;stroke-width:.264583px;stroke-linecap:butt;stroke-linejoin:miter;stroke-opacity:1;marker-end:url(#b)"/><text xml:space="preserve" style="font-size:14.6667px;line-height:1.25;font-family:sans-serif;white-space:pre;shape-inside:url(#k);display:inline" transform="translate(9.313 5.83)scale(.26458)"><tspan x="479.338" y="622.658">T1</tspan></text><text xml:space="preserve" style="font-size:14.6667px;line-height:1.25;font-family:sans-serif;white-space:pre;shape-inside:url(#l);display:inline" transform="translate(-1.95 13.938)scale(.26458)"><tspan x="49.656" y="110.012">N1</tspan></text><path d="M16.84 98.99 14.7 44.39l54.253 3.002" style="fill:none;stroke:#00f;stroke-width:.264583px;stroke-linecap:butt;stroke-linejoin:miter;stroke-opacity:1;marker-start:url(#b);marker-end:url(#b)"/><text xml:space="preserve" style="font-size:14.6667px;line-height:1.25;font-family:sans-serif;white-space:pre;shape-inside:url(#m);display:inline" transform="translate(4.84 15.906)scale(.26458)"><tspan x="77.857" y="150.508">N2</tspan></text><path d="m39.44 91.706-9.003-35.26 27.024 15.462" style="fill:none;stroke:#00f;stroke-width:.264583px;stroke-linecap:butt;stroke-linejoin:miter;stroke-opacity:1;marker-start:url(#b);marker-end:url(#b)"/><path d="m45.688 137.053-18.306 18.36M51.102 142.471l-18.306 18.36" style="fill:none;stroke:#ccc;stroke-width:.264583px;stroke-linecap:butt;stroke-linejoin:miter;stroke-opacity:1"/><path d="m32.829 160.564-5.183-5.183" style="fill:none;stroke:#00f;stroke-width:.264584px;stroke-linecap:butt;stroke-linejoin:miter;stroke-opacity:1;marker-start:url(#b);marker-end:url(#b)"/><text xml:space="preserve" style="font-size:14.6667px;line-height:1.25;font-family:sans-serif;white-space:pre;shape-inside:url(#n);display:inline" transform="translate(6.795 14.77)scale(.26458)"><tspan x="66.771" y="557.27">E2</tspan></text><path d="M60.542 134.552v-16.056M61.44 134.783v-16.056" style="fill:none;stroke:#ccc;stroke-width:.264583px;stroke-linecap:butt;stroke-linejoin:miter;stroke-opacity:1"/><path d="M60.245 118.985h-5.448" style="fill:none;stroke:#00f;stroke-width:.264583px;stroke-linecap:butt;stroke-linejoin:miter;stroke-opacity:1;marker-start:url(#b)"/><path d="M61.742 118.958h5.449" style="fill:none;stroke:#00f;stroke-width:.264583px;stroke-linecap:butt;stroke-linejoin:miter;stroke-opacity:1;marker-start:url(#o)"/><text xml:space="preserve" style="font-size:14.6667px;line-height:1.25;font-family:sans-serif;white-space:pre;shape-inside:url(#p);display:inline" transform="translate(-3.315 24.743)scale(.26458)"><tspan x="230.477" y="350.764">SE1</tspan></text><path d="M69.702 138.548v-14.315M72.567 138.723V124.41" style="fill:none;stroke:#ccc;stroke-width:.264583px;stroke-linecap:butt;stroke-linejoin:miter;stroke-opacity:1"/><path d="M69.723 125.08h-5.449" style="fill:none;stroke:#00f;stroke-width:.264583px;stroke-linecap:butt;stroke-linejoin:miter;stroke-opacity:1;marker-start:url(#q)"/><path d="M72.807 125.053h5.449" style="fill:none;stroke:#00f;stroke-width:.264583px;stroke-linecap:butt;stroke-linejoin:miter;stroke-opacity:1;marker-start:url(#r)"/><text xml:space="preserve" style="font-size:14.6667px;line-height:1.25;font-family:sans-serif;white-space:pre;shape-inside:url(#s);display:inline" transform="translate(6.692 30.838)scale(.26458)"><tspan x="230.477" y="350.764">SD1</tspan></text><text xml:space="preserve" style="font-size:14.6667px;line-height:1.25;font-family:sans-serif;white-space:pre;shape-inside:url(#t);display:inline" transform="translate(-3.396 9.339)scale(.26458)"><tspan x="271.402" y="287.686">L2</tspan></text><text xml:space="preserve" style="font-size:14.6667px;line-height:1.25;font-family:sans-serif;white-space:pre;shape-inside:url(#u);display:inline" transform="translate(-.755 6.01)scale(.26458)"><tspan x="310.68" y="304.566">SL1</tspan></text><text xml:space="preserve" style="font-size:14.6667px;line-height:1.25;font-family:sans-serif;white-space:pre;shape-inside:url(#v);display:inline" transform="translate(3.663 -1.421)scale(.26458)"><tspan x="326.973" y="335.143">SL2</tspan></text><path d="m75.92 71.39-4.973 10.546" style="fill:none;stroke:#00f;stroke-width:.264583px;stroke-linecap:butt;stroke-linejoin:miter;stroke-opacity:1;marker-start:url(#b)"/><path d="m80.479 72.911 2.87 10.145" style="fill:none;stroke:#00f;stroke-width:.264583px;stroke-linecap:butt;stroke-linejoin:miter;stroke-opacity:1;marker-start:url(#b)"/><path d="m92.712 76.156 1.71 8.626" style="fill:none;stroke:#00f;stroke-width:.264583px;stroke-linecap:butt;stroke-linejoin:miter;stroke-opacity:1;marker-start:url(#b)"/><text xml:space="preserve" style="font-size:14.6667px;line-height:1.25;font-family:sans-serif;white-space:pre;shape-inside:url(#w);display:inline" transform="translate(-1.95 13.938)scale(.26458)"><tspan x="385.047" y="579.231">R7</tspan></text><path d="m77.095 150.287 21.403 13.197" style="fill:none;stroke:#00f;stroke-width:.264583px;stroke-linecap:butt;stroke-linejoin:miter;stroke-opacity:1;marker-start:url(#b)"/><path d="m9.952 303.707-2.94-5.731" style="fill:none;stroke:#00f;stroke-width:.264583px;stroke-linecap:butt;stroke-linejoin:miter;stroke-opacity:1;marker-start:url(#x)"/><path d="m84.764 150.095 15.414 13.032" style="fill:none;stroke:#00f;stroke-width:.264583px;stroke-linecap:butt;stroke-linejoin:miter;stroke-opacity:1;marker-start:url(#b)"/><text xml:space="preserve" style="font-size:14.6667px;line-height:1.25;font-family:sans-serif;white-space:pre;shape-inside:url(#y);display:inline" transform="translate(-5.245 17.108)scale(.26458)"><tspan x="472.504" y="509.869">orientation
</tspan><tspan x="472.504" y="528.203">[ccw, cw, alt]</tspan></text><path d="m100.66 131.425 21.796 17.443" style="fill:none;stroke:#00f;stroke-width:.264583px;stroke-linecap:butt;stroke-linejoin:miter;stroke-opacity:1;marker-start:url(#z)"/><path d="M35.353 241.646v18.11h18.11" style="fill:none;stroke:#ccc;stroke-width:.264583px;stroke-linecap:butt;stroke-linejoin:miter;stroke-opacity:1"/><path d="M130.471 210.26v13.116M134.464 210.26v13.116" style="fill:none;stroke:#ccc;stroke-width:.264581px;stroke-linecap:butt;stroke-linejoin:miter;stroke-opacity:1"/><circle cx="35.353" cy="259.756" r="14.117" style="fill:none;stroke:#ccc;stroke-width:.264583;stroke-linejoin:bevel"/><circle cx="59.566" cy="289.98" r="10.097" style="fill:none;stroke:#ccc;stroke-width:.264582;stroke-linejoin:bevel"/><path d="M49.47 289.98v-30.223" style="fill:none;stroke:green;stroke-width:.264583px;stroke-linecap:butt;stroke-linejoin:miter;stroke-opacity:1"/><circle cx="35.353" cy="259.756" r="18.11" style="fill:none;stroke:#ccc;stroke-width:.264583;stroke-linejoin:bevel"/><path d="M21.236 304.684v-44.927M35.353 241.647H17.111l-5.958 63.037H5.04" style="fill:none;stroke:green;stroke-width:.264583px;stroke-linecap:butt;stroke-linejoin:miter;stroke-opacity:1"/><circle cx="59.566" cy="289.98" r="6.103" style="fill:none;stroke:#ccc;stroke-width:.264582;stroke-linejoin:bevel"/><path d="M53.463 289.98v-30.223" style="fill:none;stroke:green;stroke-width:.264583px;stroke-linecap:butt;stroke-linejoin:miter;stroke-opacity:1"/><circle cx="75.767" cy="259.756" r="10.097" style="fill:none;stroke:#ccc;stroke-width:.264582;stroke-linejoin:bevel"/><circle cx="75.767" cy="259.756" r="6.103" style="fill:none;stroke:#ccc;stroke-width:.264582;stroke-linejoin:bevel"/><path d="M69.663 289.98v-30.223M65.67 289.98v-30.223" style="fill:none;stroke:green;stroke-width:.264583px;stroke-linecap:butt;stroke-linejoin:miter;stroke-opacity:1"/><circle cx="91.967" cy="289.98" r="10.097" style="fill:none;stroke:#ccc;stroke-width:.264582;stroke-linejoin:bevel"/><path d="M81.87 289.98v-30.223" style="fill:none;stroke:green;stroke-width:.264583px;stroke-linecap:butt;stroke-linejoin:miter;stroke-opacity:1"/><circle cx="91.967" cy="289.98" r="6.103" style="fill:none;stroke:#ccc;stroke-width:.264582;stroke-linejoin:bevel"/><path d="M85.864 289.98v-30.223" style="fill:none;stroke:green;stroke-width:.264583px;stroke-linecap:butt;stroke-linejoin:miter;stroke-opacity:1"/><circle cx="108.167" cy="259.756" r="10.097" style="fill:none;stroke:#ccc;stroke-width:.264582;stroke-linejoin:bevel"/><circle cx="108.167" cy="259.756" r="6.103" style="fill:none;stroke:#ccc;stroke-width:.264582;stroke-linejoin:bevel"/><path d="M102.064 289.98v-30.223M98.07 289.98v-30.223" style="fill:none;stroke:green;stroke-width:.264583px;stroke-linecap:butt;stroke-linejoin:miter;stroke-opacity:1"/><circle cx="124.368" cy="289.98" r="10.097" style="fill:none;stroke:#ccc;stroke-width:.264582;stroke-linejoin:bevel"/><path d="M114.27 289.98v-30.223" style="fill:none;stroke:green;stroke-width:.264583px;stroke-linecap:butt;stroke-linejoin:miter;stroke-opacity:1"/><circle cx="124.368" cy="289.98" r="6.103" style="fill:none;stroke:#ccc;stroke-width:.264582;stroke-linejoin:bevel"/><path d="M118.264 289.98v-30.223" style="fill:none;stroke:green;stroke-width:.264583px;stroke-linecap:butt;stroke-linejoin:miter;stroke-opacity:1"/><circle cx="140.568" cy="233.34" r="10.097" style="fill:none;stroke:#ccc;stroke-width:.264582;stroke-linejoin:bevel"/><circle cx="140.568" cy="233.34" r="6.103" style="fill:none;stroke:#ccc;stroke-width:.264582;stroke-linejoin:bevel"/><path d="M134.464 289.98v-56.64M130.471 289.98v-56.64M134.464 233.34s.514-2.942 1.476-3.979c1.154-1.244 2.93-2.128 4.628-2.124 1.716.004 3.506.906 4.667 2.17.944 1.028 1.436 3.933 1.436 3.933h3.994s-.273-2.731-.813-3.969a10.5 10.5 0 0 0-2.528-3.534c-1.018-.927-2.273-1.613-3.568-2.077a8.9 8.9 0 0 0-3.188-.517c-1.415.037-2.864.307-4.152.893-1.333.608-2.534 1.55-3.516 2.636-.742.82-1.32 1.807-1.715 2.84-.453 1.18-.714 3.728-.714 3.728M130.471 233.34v-10.1" style="fill:none;stroke:green;stroke-width:.264583px;stroke-linecap:butt;stroke-linejoin:miter;stroke-opacity:1"/><path d="M154.157 223.11H123.7" style="fill:none;stroke:#ccc;stroke-width:.264581px;stroke-linecap:butt;stroke-linejoin:miter;stroke-opacity:1"/><path d="M134.464 233.34v-10.1M130.471 223.243h3.993" style="fill:none;stroke:green;stroke-width:.264583px;stroke-linecap:butt;stroke-linejoin:miter;stroke-opacity:1"/><path d="M154.157 289.88H134.45" style="fill:none;stroke:#ccc;stroke-width:.264582px;stroke-linecap:butt;stroke-linejoin:miter;stroke-opacity:1"/><path d="M154.157 223.203v66.461" style="fill:none;stroke:#000;stroke-width:.264583px;stroke-linecap:butt;stroke-linejoin:miter;stroke-opacity:1;marker-start:url(#A);marker-end:url(#A)"/><path d="M21.236 259.756s.354-3.618 1.025-5.28a14.2 14.2 0 0 1 2.93-4.519c1.26-1.304 2.798-2.395 4.462-3.116a14.7 14.7 0 0 1 5.7-1.201c1.832-.011 3.7.366 5.39 1.07a14.5 14.5 0 0 1 4.666 3.139 14 14 0 0 1 2.976 4.48c.704 1.705 1.085 5.427 1.085 5.427" style="fill:none;stroke:green;stroke-width:.264583px;stroke-linecap:butt;stroke-linejoin:miter;stroke-opacity:1"/><path d="M35.353 241.646s4 .32 5.871.978a19 19 0 0 1 5.702 3.202c1.56 1.279 2.88 2.877 3.943 4.591.892 1.437 1.538 3.04 1.982 4.672.412 1.514.612 4.667.612 4.667M53.463 289.98s.306 2.13.817 3.05c.45.81 1.113 1.539 1.9 2.027 1.002.623 2.207 1.012 3.386 1.026 1.084.013 2.193-.328 3.134-.865a5.6 5.6 0 0 0 1.996-1.93c.595-.984.974-3.308.974-3.308" style="fill:none;stroke:green;stroke-width:.264583px;stroke-linecap:butt;stroke-linejoin:miter;stroke-opacity:1"/><path d="M49.47 289.98s.24 2.606.74 3.794a10.8 10.8 0 0 0 2.49 3.609c.96.909 2.144 1.603 3.379 2.072 1.104.42 2.307.655 3.487.622a11.7 11.7 0 0 0 4.55-1.083c1.029-.479 1.954-1.203 2.737-2.025.814-.855 1.508-1.857 1.965-2.945.533-1.27.845-4.044.845-4.044M85.864 289.98s.305 2.13.817 3.05c.45.81 1.113 1.539 1.9 2.027 1.001.623 2.207 1.012 3.386 1.026 1.083.013 2.192-.328 3.133-.865a5.6 5.6 0 0 0 1.997-1.93c.595-.984.973-3.308.973-3.308" style="fill:none;stroke:green;stroke-width:.264583px;stroke-linecap:butt;stroke-linejoin:miter;stroke-opacity:1"/><path d="M81.87 289.98s.24 2.606.74 3.794a10.8 10.8 0 0 0 2.491 3.609c.96.909 2.144 1.603 3.379 2.072 1.103.42 2.307.655 3.487.622a11.7 11.7 0 0 0 4.55-1.083c1.029-.479 1.954-1.203 2.737-2.025.814-.855 1.508-1.857 1.964-2.945.533-1.27.846-4.044.846-4.044M118.263 290.001s.305 2.13.817 3.05c.45.81 1.113 1.539 1.9 2.028 1.002.622 2.207 1.01 3.386 1.025 1.084.014 2.193-.328 3.133-.865a5.6 5.6 0 0 0 1.997-1.93c.595-.984.974-3.308.974-3.308" style="fill:none;stroke:green;stroke-width:.264583px;stroke-linecap:butt;stroke-linejoin:miter;stroke-opacity:1"/><path d="M114.27 290.001s.24 2.606.74 3.794a10.8 10.8 0 0 0 2.49 3.61c.96.908 2.144 1.602 3.379 2.071 1.104.42 2.307.656 3.487.622a11.7 11.7 0 0 0 4.55-1.083c1.029-.479 1.954-1.203 2.737-2.025.814-.854 1.508-1.856 1.965-2.945.533-1.27.845-4.044.845-4.044M102.064 259.757s.305-2.13.817-3.05c.45-.81 1.113-1.54 1.9-2.028 1.002-.622 2.207-1.011 3.386-1.026 1.084-.013 2.193.328 3.133.866a5.6 5.6 0 0 1 1.997 1.93c.595.983.974 3.308.974 3.308" style="fill:none;stroke:green;stroke-width:.264583px;stroke-linecap:butt;stroke-linejoin:miter;stroke-opacity:1"/><path d="M98.07 259.757s.24-2.607.74-3.794a10.8 10.8 0 0 1 2.492-3.61c.959-.908 2.143-1.602 3.378-2.072 1.104-.42 2.307-.655 3.487-.621a11.7 11.7 0 0 1 4.55 1.083c1.029.479 1.954 1.203 2.737 2.025.814.854 1.508 1.856 1.965 2.944.533 1.27.845 4.045.845 4.045M69.663 259.756s.306-2.13.817-3.05c.45-.81 1.113-1.539 1.9-2.027 1.002-.623 2.207-1.012 3.387-1.026 1.083-.013 2.192.328 3.133.865a5.6 5.6 0 0 1 1.996 1.93c.595.984.974 3.308.974 3.308" style="fill:none;stroke:green;stroke-width:.264583px;stroke-linecap:butt;stroke-linejoin:miter;stroke-opacity:1"/><path d="M65.67 259.756s.24-2.606.74-3.794a10.8 10.8 0 0 1 2.491-3.609c.959-.909 2.143-1.603 3.378-2.072 1.104-.42 2.307-.655 3.488-.621a11.7 11.7 0 0 1 4.55 1.083c1.028.478 1.954 1.202 2.737 2.024.813.855 1.508 1.857 1.964 2.945.533 1.27.846 4.044.846 4.044" style="fill:none;stroke:green;stroke-width:.264583px;stroke-linecap:butt;stroke-linejoin:miter;stroke-opacity:1"/><text xml:space="preserve" style="font-size:14.6667px;line-height:1.25;font-family:sans-serif;white-space:pre;shape-inside:url(#B);display:inline" transform="translate(1.713 24.731)scale(.26458)"><tspan x="274.598" y="1148.791">SN1</tspan></text><path d="M155.611 259.904h-37.215" style="fill:none;stroke:#ccc;stroke-width:.264581px;stroke-linecap:butt;stroke-linejoin:miter;stroke-opacity:1"/><path d="M139.713 259.849v30.039" style="fill:none;stroke:#000;stroke-width:.264583px;stroke-linecap:butt;stroke-linejoin:miter;stroke-opacity:1;marker-start:url(#C);marker-end:url(#C)"/><path d="M21.618 267.694h27.488" style="fill:none;stroke:#000;stroke-width:.264583px;stroke-linecap:butt;stroke-linejoin:miter;stroke-opacity:1;marker-start:url(#D);marker-end:url(#D)"/><path d="M53.844 259.765h11.42" style="fill:none;stroke:#000;stroke-width:.264583px;stroke-linecap:butt;stroke-linejoin:miter;stroke-opacity:1;marker-start:url(#E);marker-end:url(#E)"/><path d="M130.471 210.26h-7.6" style="fill:none;stroke:#000;stroke-width:.264583px;stroke-linecap:butt;stroke-linejoin:miter;stroke-opacity:1;marker-start:url(#A)"/><path d="M134.464 210.26h7.6" style="fill:none;stroke:#000;stroke-width:.264583px;stroke-linecap:butt;stroke-linejoin:miter;stroke-opacity:1;marker-start:url(#F)"/><text xml:space="preserve" style="font-size:14.6667px;line-height:1.25;font-family:sans-serif;white-space:pre;shape-inside:url(#G);display:inline" transform="translate(9.22 33.451)scale(.26458)"><tspan x="452.061" y="658.795">SE1</tspan></text><text xml:space="preserve" style="font-size:14.6667px;line-height:1.25;font-family:sans-serif;white-space:pre;shape-inside:url(#H);display:inline" transform="translate(-24.114 80.762)scale(.26458)"><tspan x="209.615" y="702.955">SD1</tspan></text><text xml:space="preserve" style="font-size:14.6667px;line-height:1.25;font-family:sans-serif;white-space:pre;shape-inside:url(#I);display:inline" transform="translate(-20.027 62.383)scale(.26458)"><tspan x="286.285" y="740.213">SD2</tspan></text><path d="m63.226 301.828 13.351 22.643" style="fill:none;stroke:#000;stroke-width:.264583px;stroke-linecap:butt;stroke-linejoin:miter;stroke-opacity:1;marker-start:url(#A)"/><path d="m88.178 300.591-8.39 24.36" style="fill:none;stroke:#000;stroke-width:.264583px;stroke-linecap:butt;stroke-linejoin:miter;stroke-opacity:1;marker-start:url(#A)"/><path d="M118.61 300.514 82.596 325.56" style="fill:none;stroke:#000;stroke-width:.264583px;stroke-linecap:butt;stroke-linejoin:miter;stroke-opacity:1;marker-start:url(#A)"/><text xml:space="preserve" style="font-size:14.6667px;line-height:1.25;font-family:sans-serif;white-space:pre;shape-inside:url(#J);display:inline" transform="translate(22.328 -20.88)scale(.26458)"><tspan x="445.52" y="1124.063">SL1</tspan></text><text xml:space="preserve" style="font-size:14.6667px;line-height:1.25;font-family:sans-serif;white-space:pre;shape-inside:url(#K);display:inline" transform="translate(32.397 -56.023)scale(.26458)"><tspan x="433.234" y="1188.483">SL2</tspan></text><text xml:space="preserve" style="font-size:14.6667px;line-height:1.25;font-family:sans-serif;white-space:pre;shape-inside:url(#L);display:inline" transform="translate(-10.12 26.747)scale(.26458)"><tspan x="355.689" y="769.977">Send [round, pike]</tspan></text><path d="m128.848 231.344-8.968-1.748" style="fill:none;stroke:#000;stroke-width:.264583px;stroke-linecap:butt;stroke-linejoin:miter;stroke-opacity:1;marker-start:url(#A)"/><path d="M35.423 255.075s2.536.576 3.163 1.573c.5.796.04 2.82.04 2.82" style="fill:none;stroke:#000;stroke-width:.264583px;stroke-linecap:butt;stroke-linejoin:miter;stroke-opacity:1;marker-start:url(#A);marker-end:url(#A)"/><text xml:space="preserve" style="font-size:14.6667px;line-height:1.25;font-family:sans-serif;white-space:pre;shape-inside:url(#M);display:inline" transform="translate(-2.55 44.98)scale(.26458)"><tspan x="152.945" y="796.111">SA1</tspan></text><path d="M11.153 304.684v25.24M21.236 304.684v25.24" style="fill:none;stroke:#ccc;stroke-width:.264583px;stroke-linecap:butt;stroke-linejoin:miter;stroke-opacity:1"/><path d="M11.525 329.923h9.34" style="fill:none;stroke:#00f;stroke-width:.264583px;stroke-linecap:butt;stroke-linejoin:miter;stroke-opacity:1;marker-start:url(#N);marker-end:url(#N)"/><text xml:space="preserve" style="font-size:14.6667px;line-height:1.25;font-family:sans-serif;white-space:pre;shape-inside:url(#O);display:inline" transform="translate(-53.739 53.766)scale(.26458)"><tspan x="256.082" y="1060.629">E2</tspan></text><path d="M138.825 304.816H21.37" style="fill:none;stroke:green;stroke-width:.264584px;stroke-linecap:butt;stroke-linejoin:miter;stroke-opacity:1"/><text xml:space="preserve" style="font-size:14.6667px;line-height:1.25;font-family:sans-serif;white-space:pre;shape-inside:url(#P);display:inline" transform="translate(-97.328 143.932)scale(.26458)"><tspan x="385.047" y="579.231">R7</tspan></text><path d="M17.243 241.406v18.723" style="fill:none;stroke:#ccc;stroke-width:.26458px;stroke-linecap:butt;stroke-linejoin:miter;stroke-opacity:1"/><path d="M24.876 259.828v44.632" style="fill:none;stroke:#00f;stroke-width:.264582px;stroke-linecap:butt;stroke-linejoin:miter;stroke-opacity:1;marker-start:url(#Q);marker-end:url(#Q)"/><text xml:space="preserve" style="font-size:14.6667px;line-height:1.25;font-family:sans-serif;white-space:pre;shape-inside:url(#R);display:inline" transform="translate(-2.46 -176.971)scale(.26458)"><tspan x="106.855" y="1741.096">L2</tspan></text></svg>