<svg xmlns="http://www.w3.org/2000/svg" width="470.347" height="565.53" viewBox="0 0 124.446 149.63"><defs><path id="i" d="M364.518 1257.999h109.163v81.43H364.518z"/><path id="h" d="M235.652 858.892h75.778v56.139h-75.778z"/><path id="g" d="M264.048 901.183h44.055v28.2h-44.055z"/><path id="f" d="M324.517 1202.192h50.214v40.31h-50.214z"/><path id="e" d="M339.192 1195.127h42.228v45.535h-42.228z"/><path id="d" d="M156.588 973.86h53.422v36.666h-53.422z"/><path id="c" d="M256.083 1047.652h56.452v52.313h-56.452z"/><path id="b" d="M371.085 971.245h91.565v67.194h-91.565z"/><marker id="a" markerHeight="1" markerWidth="1" orient="auto-start-reverse" preserveAspectRatio="xMidYMid" refX="0" refY="0" style="overflow:visible" viewBox="0 0 1 1"><path d="M3-3 0 0l3 3" style="fill:none;stroke:context-stroke;stroke-width:1;stroke-linecap:butt" transform="rotate(180,0.125,0)"/></marker></defs><g transform="translate(-14.136902,-213.78822)"><path d="M14.269 213.921H138.45v149.365H14.269z" style="fill:#fff;stroke:#fff;stroke-width:.264583;stroke-linejoin:bevel"/><path d="m127.363 266.314-14.236 3.608" style="fill:none;stroke:#ccc;stroke-width:.264582px;stroke-linecap:butt;stroke-linejoin:miter;stroke-opacity:1"/><path d="M19.84 323.077v25.239M42.329 323.077v25.239" style="fill:none;stroke:#ccc;stroke-width:.264583px;stroke-linecap:butt;stroke-linejoin:miter;stroke-opacity:1"/><path d="m42.329 323.077-8.558-33.22" style="fill:none;stroke:#000;stroke-width:.264583px;stroke-linecap:butt;stroke-linejoin:miter;stroke-opacity:1"/><path d="m50.887 356.297-8.558-33.22M42.457 323.077h75.06" style="fill:none;stroke:#ccc;stroke-width:.264583px;stroke-linecap:butt;stroke-linejoin:miter;stroke-opacity:1"/><path d="M19.84 348.316h22.489" style="fill:none;stroke:#00f;stroke-width:.264583px;stroke-linecap:butt;stroke-linejoin:miter;stroke-opacity:1;marker-start:url(#a);marker-end:url(#a)"/><path d="M41.047 316.579s4.937-1.308 6.53.176c1.473 1.37.593 6.005.593 6.005" style="fill:none;stroke:#00f;stroke-width:.264583px;stroke-linecap:butt;stroke-linejoin:miter;stroke-opacity:1;marker-start:url(#a);marker-end:url(#a)"/><text xml:space="preserve" style="font-size:14.6667px;line-height:1.25;font-family:sans-serif;white-space:pre;shape-inside:url(#b);display:inline" transform="matrix(0.26458333,0,0,0.26458333,-50.339787,56.636824)"><tspan x="371.084" y="984.223">a1</tspan></text><text xml:space="preserve" style="font-size:14.6667px;line-height:1.25;font-family:sans-serif;white-space:pre;shape-inside:url(#c);display:inline" transform="matrix(0.26458333,0,0,0.26458333,-38.466772,72.158537)"><tspan x="256.082" y="1060.629">E2</tspan></text><path d="m33.77 289.857-8.054 2.003" style="fill:none;stroke:#e6e6e6;stroke-width:.264583px;stroke-linecap:butt;stroke-linejoin:miter;stroke-opacity:1"/><path d="m19.84 323.077 5.876-31.217" style="fill:none;stroke:#000;stroke-width:.264583px;stroke-linecap:butt;stroke-linejoin:miter;stroke-opacity:1"/><path d="m48.007 286.249-14.236 3.608" style="fill:none;stroke:#ccc;stroke-width:.264582px;stroke-linecap:butt;stroke-linejoin:miter;stroke-opacity:1"/><path d="m56.061 284.245-8.054 2.004" style="fill:none;stroke:#e6e6e6;stroke-width:.264583px;stroke-linecap:butt;stroke-linejoin:miter;stroke-opacity:1"/><path d="m52.82 304.99-4.789-18.753" style="fill:none;stroke:#000;stroke-width:.264583px;stroke-linecap:butt;stroke-linejoin:miter;stroke-opacity:1"/><ellipse cx="40.981" cy="288.291" rx="7.261" ry="7.458" style="fill:none;stroke:#e6e6e6;stroke-width:.264583;stroke-linejoin:bevel"/><ellipse cx="41.028" cy="288.127" rx="15.435" ry="15.849" style="fill:none;stroke:#e6e6e6;stroke-width:.264583;stroke-linejoin:bevel"/><path d="m75.111 299.379-14.236 3.608" style="fill:none;stroke:#ccc;stroke-width:.264582px;stroke-linecap:butt;stroke-linejoin:miter;stroke-opacity:1"/><ellipse cx="67.86" cy="300.981" rx="7.261" ry="7.458" style="fill:none;stroke:#e6e6e6;stroke-width:.264583;stroke-linejoin:bevel"/><ellipse cx="67.907" cy="300.817" rx="15.435" ry="15.849" style="fill:none;stroke:#e6e6e6;stroke-width:.264583;stroke-linejoin:bevel"/><path d="m60.875 302.987-8.055 2.003M83.014 297.414l-8.055 2.003" style="fill:none;stroke:#e6e6e6;stroke-width:.264583px;stroke-linecap:butt;stroke-linejoin:miter;stroke-opacity:1"/><path d="m60.786 303.015-4.79-18.754M74.96 299.417l-4.79-18.754" style="fill:none;stroke:#000;stroke-width:.264583px;stroke-linecap:butt;stroke-linejoin:miter;stroke-opacity:1"/><path d="m78.225 278.66-8.055 2.003" style="fill:none;stroke:#e6e6e6;stroke-width:.264583px;stroke-linecap:butt;stroke-linejoin:miter;stroke-opacity:1"/><path d="m83.138 297.43-4.79-18.754" style="fill:none;stroke:#000;stroke-width:.264583px;stroke-linecap:butt;stroke-linejoin:miter;stroke-opacity:1"/><path d="m92.46 275.052-14.235 3.608" style="fill:none;stroke:#ccc;stroke-width:.264582px;stroke-linecap:butt;stroke-linejoin:miter;stroke-opacity:1"/><path d="m105.305 291.802-8.055 2.004" style="fill:none;stroke:#e6e6e6;stroke-width:.264583px;stroke-linecap:butt;stroke-linejoin:miter;stroke-opacity:1"/><path d="m97.25 293.806-4.79-18.754" style="fill:none;stroke:#000;stroke-width:.264583px;stroke-linecap:butt;stroke-linejoin:miter;stroke-opacity:1"/><path d="m100.515 273.048-8.054 2.004" style="fill:none;stroke:#e6e6e6;stroke-width:.264583px;stroke-linecap:butt;stroke-linejoin:miter;stroke-opacity:1"/><path d="m105.428 291.818-4.789-18.754" style="fill:none;stroke:#000;stroke-width:.264583px;stroke-linecap:butt;stroke-linejoin:miter;stroke-opacity:1"/><path d="m119.664 288.21-14.236 3.608" style="fill:none;stroke:#ccc;stroke-width:.264582px;stroke-linecap:butt;stroke-linejoin:miter;stroke-opacity:1"/><path d="m127.567 286.245-8.054 2.003" style="fill:none;stroke:#e6e6e6;stroke-width:.264583px;stroke-linecap:butt;stroke-linejoin:miter;stroke-opacity:1"/><path d="m119.445 288.282-11.19-43.34" style="fill:none;stroke:#000;stroke-width:.264583px;stroke-linecap:butt;stroke-linejoin:miter;stroke-opacity:1"/><path d="m122.778 267.49-8.054 2.004" style="fill:none;stroke:#e6e6e6;stroke-width:.264583px;stroke-linecap:butt;stroke-linejoin:miter;stroke-opacity:1"/><path d="M60.784 303.01s.82 1.936 1.485 2.73c.678.81 1.525 1.517 2.475 1.977.96.465 2.05.726 3.116.722a7.5 7.5 0 0 0 3.233-.78c.878-.432 1.655-1.093 2.29-1.838.675-.79 1.233-1.715 1.545-2.706.214-.682.198-1.42.193-2.135-.004-.527-.163-1.572-.163-1.572" style="fill:none;stroke:#000;stroke-width:.264583px;stroke-linecap:butt;stroke-linejoin:miter;stroke-opacity:1"/><path d="M52.838 305.03s.557 1.35.854 2.017c.285.64.537 1.298.888 1.904a17 17 0 0 0 1.527 2.17c.446.548.926 1.072 1.45 1.547.611.553 1.26 1.074 1.963 1.503.838.51 1.752.89 2.663 1.256.902.363 1.816.718 2.766.926.977.214 1.983.326 2.983.324.885-.002 1.77-.126 2.638-.299 1.116-.221 2.227-.513 3.282-.94 1.044-.423 2.07-.93 2.98-1.593.8-.583 1.475-1.327 2.133-2.066.794-.893 1.557-1.826 2.176-2.848.41-.676.734-1.405 1.005-2.147.285-.783.459-1.603.646-2.414.193-.84.392-1.68.492-2.535.103-.885.142-1.78.108-2.67-.022-.565-.2-1.684-.2-1.684M48.103 286.223s-.82-1.937-1.485-2.73c-.678-.81-1.525-1.518-2.475-1.978a7.2 7.2 0 0 0-3.115-.721 7.5 7.5 0 0 0-3.234.78c-.878.431-1.655 1.093-2.29 1.837-.675.79-1.233 1.716-1.544 2.706-.215.682-.198 1.42-.194 2.135.004.527.163 1.572.163 1.572" style="fill:none;stroke:#000;stroke-width:.264583px;stroke-linecap:butt;stroke-linejoin:miter;stroke-opacity:1"/><path d="M56.049 284.203s-.557-1.35-.854-2.018c-.284-.64-.537-1.297-.888-1.903a17 17 0 0 0-1.526-2.17 14 14 0 0 0-1.451-1.547c-.611-.553-1.26-1.075-1.963-1.503-.838-.511-1.752-.891-2.663-1.257-.902-.362-1.816-.718-2.766-.926a14 14 0 0 0-2.983-.324c-.885.002-1.77.127-2.638.3-1.116.22-2.227.512-3.282.94-1.044.423-2.07.929-2.98 1.592-.8.584-1.475 1.327-2.133 2.067-.794.892-1.556 1.826-2.176 2.847a12 12 0 0 0-1.005 2.148c-.285.782-.459 1.602-.646 2.414-.193.839-.392 1.68-.491 2.535-.104.885-.143 1.78-.109 2.67.022.565.2 1.683.2 1.683M92.522 275.074s-.82-1.936-1.485-2.73c-.678-.81-1.525-1.517-2.475-1.977a7.2 7.2 0 0 0-3.115-.722 7.5 7.5 0 0 0-3.234.78c-.878.432-1.655 1.093-2.29 1.838-.675.79-1.233 1.715-1.544 2.706-.214.681-.198 1.42-.194 2.134.004.527.164 1.573.164 1.573" style="fill:none;stroke:#000;stroke-width:.264583px;stroke-linecap:butt;stroke-linejoin:miter;stroke-opacity:1"/><path d="M100.718 273.152s-.461-1.5-.811-2.199c-.324-.646-.776-1.22-1.181-1.82-.495-.732-.968-1.484-1.526-2.17a14 14 0 0 0-1.451-1.547c-.611-.553-1.259-1.074-1.963-1.503-.838-.51-1.752-.89-2.663-1.257-.902-.362-1.816-.718-2.766-.926a14 14 0 0 0-2.983-.323c-.885.002-1.77.126-2.638.299-1.116.221-2.227.513-3.282.94-1.043.423-2.07.93-2.98 1.593-.8.583-1.475 1.326-2.133 2.066-.794.893-1.556 1.826-2.176 2.848a12 12 0 0 0-1.005 2.147c-.285.783-.459 1.603-.646 2.414-.193.839-.392 1.68-.491 2.535-.103.885-.143 1.78-.108 2.67.021.565.199 1.684.199 1.684M127.691 286.26l-11.19-43.34M108.256 244.942l8.246-2.021M105.428 291.818s.82 1.936 1.485 2.73c.678.81 1.525 1.518 2.475 1.978.96.464 2.05.726 3.115.721a7.5 7.5 0 0 0 3.234-.78c.878-.431 1.655-1.093 2.29-1.837.675-.79 1.233-1.716 1.544-2.706.215-.682.236-1.422.194-2.135-.031-.518-.324-1.523-.324-1.523" style="fill:none;stroke:#000;stroke-width:.264583px;stroke-linecap:butt;stroke-linejoin:miter;stroke-opacity:1"/><path d="M97.25 293.806s.286 1.396.557 2.05c.288.694.688 1.341 1.122 1.955.538.76 1.2 1.425 1.821 2.118.473.526.927 1.073 1.451 1.547.611.553 1.26 1.074 1.963 1.503.838.511 1.752.891 2.663 1.257.902.362 1.816.718 2.766.926.977.214 1.983.326 2.983.323.885-.002 1.77-.126 2.638-.298 1.116-.222 2.227-.513 3.282-.94 1.044-.424 2.07-.93 2.98-1.593.8-.584 1.475-1.327 2.133-2.067.794-.892 1.556-1.826 2.176-2.847a12 12 0 0 0 1.005-2.148c.285-.782.459-1.602.646-2.414.193-.839.392-1.68.491-2.535.104-.885.179-1.782.109-2.67-.046-.58-.345-1.712-.345-1.712" style="fill:none;stroke:#000;stroke-width:.264583px;stroke-linecap:butt;stroke-linejoin:miter;stroke-opacity:1"/><path d="m108.256 244.942-4.79-18.754M116.502 242.92l-4.79-18.753" style="fill:none;stroke:#ccc;stroke-width:.264583px;stroke-linecap:butt;stroke-linejoin:miter;stroke-opacity:1"/><path d="m103.37 226.027 8.246-2.021" style="fill:none;stroke:#00f;stroke-width:.264583px;stroke-linecap:butt;stroke-linejoin:miter;stroke-opacity:1;marker-start:url(#a);marker-end:url(#a)"/><path d="m125.521 266.517-6.102-24.577" style="fill:none;stroke:#00f;stroke-width:.264583px;stroke-linecap:butt;stroke-linejoin:miter;stroke-opacity:1;marker-start:url(#a);marker-end:url(#a)"/><path d="m100.718 273.152-4.79-18.753" style="fill:none;stroke:#ccc;stroke-width:.264583px;stroke-linecap:butt;stroke-linejoin:miter;stroke-opacity:1"/><path d="m109.84 252.14-13.612 3.43" style="fill:none;stroke:#00f;stroke-width:.264582px;stroke-linecap:butt;stroke-linejoin:miter;stroke-opacity:1;marker-start:url(#a);marker-end:url(#a)"/><path d="m106.985 291.25-4.652-18.266" style="fill:none;stroke:#00f;stroke-width:.264583px;stroke-linecap:butt;stroke-linejoin:miter;stroke-opacity:1;marker-start:url(#a);marker-end:url(#a)"/><path d="m44.896 322.548-8.558-33.22" style="fill:none;stroke:#00f;stroke-width:.264583px;stroke-linecap:butt;stroke-linejoin:miter;stroke-opacity:1;marker-start:url(#a);marker-end:url(#a)"/><text xml:space="preserve" style="font-size:14.6667px;line-height:1.25;font-family:sans-serif;white-space:pre;shape-inside:url(#d);display:inline" transform="matrix(0.26458333,0,0,0.26458333,0.60628882,44.377856)"><tspan x="156.588" y="986.836">L2</tspan></text><text xml:space="preserve" style="font-size:14.6667px;line-height:1.25;font-family:sans-serif;white-space:pre;shape-inside:url(#e);display:inline" transform="matrix(0.26458333,0,0,0.26458333,15.700671,-36.482981)"><tspan x="339.191" y="1208.103">L3</tspan></text><text xml:space="preserve" style="font-size:14.6667px;line-height:1.25;font-family:sans-serif;white-space:pre;shape-inside:url(#f);display:inline" transform="matrix(0.26458333,0,0,0.26458333,39.403939,-63.985567)"><tspan x="324.516" y="1215.168">L4</tspan></text><text xml:space="preserve" style="font-size:14.6667px;line-height:1.25;font-family:sans-serif;white-space:pre;shape-inside:url(#g);display:inline" transform="matrix(0.26458333,0,0,0.26458333,28.291176,10.573456)"><tspan x="264.049" y="914.16">W1</tspan></text><text xml:space="preserve" style="font-size:14.6667px;line-height:1.25;font-family:sans-serif;white-space:pre;shape-inside:url(#h);display:inline" transform="matrix(0.26458333,0,0,0.26458333,41.712395,-7.7574585)"><tspan x="235.652" y="871.869">E1</tspan></text><text xml:space="preserve" style="font-size:14.6667px;line-height:1.25;font-family:sans-serif;white-space:pre;shape-inside:url(#i);display:inline" transform="matrix(0.26458333,0,0,0.26458333,-0.64357765,-0.64495872)"><tspan x="364.518" y="1270.977">N3</tspan></text><path d="m79.964 313.083 16.882 17.583 10.449-24.305" style="fill:none;stroke:#00f;stroke-width:.264583px;stroke-linecap:butt;stroke-linejoin:miter;stroke-opacity:1;marker-start:url(#a);marker-end:url(#a)"/><path d="m114.87 269.477-14.235 3.608" style="fill:none;stroke:#ccc;stroke-width:.264582px;stroke-linecap:butt;stroke-linejoin:miter;stroke-opacity:1"/></g></svg>