<?xml version="1.0" encoding="UTF-8" standalone="no"?>
<!-- Created with Inkscape (http://www.inkscape.org/) -->

<svg
   width="413.93973"
   height="315.87305"
   viewBox="0 0 109.52155 83.574744"
   version="1.1"
   id="svg1"
   xmlns="http://www.w3.org/2000/svg"
   xmlns:svg="http://www.w3.org/2000/svg">
  <defs
     id="defs1">
    <rect
       x="486.53607"
       y="751.29919"
       width="47.518307"
       height="29.784088"
       id="rect16" />
    <rect
       x="424.65033"
       y="742.72308"
       width="39.60511"
       height="37.50415"
       id="rect15" />
    <rect
       x="470.51135"
       y="713.31219"
       width="59.962269"
       height="50.54578"
       id="rect14" />
    <rect
       x="485.1163"
       y="777.93835"
       width="59.993587"
       height="44.621326"
       id="rect13" />
    <rect
       x="481.47549"
       y="710.74146"
       width="42.246323"
       height="30.175571"
       id="rect6" />
    <rect
       x="414.71445"
       y="774.81171"
       width="77.051842"
       height="32.093842"
       id="rect5" />
    <rect
       x="429.078"
       y="697.14917"
       width="74.333649"
       height="49.530533"
       id="rect4" />
    <rect
       x="445.25803"
       y="705.61041"
       width="56.016113"
       height="64.208565"
       id="rect3" />
    <marker
       style="overflow:visible"
       id="RoundedArrow-7-7-2"
       refX="0"
       refY="0"
       orient="auto-start-reverse"
       markerWidth="1"
       markerHeight="1"
       viewBox="0 0 1 1"
       preserveAspectRatio="xMidYMid">
      <path
         transform="scale(0.7)"
         d="m -0.21114562,-4.1055728 6.42229122,3.21114561 a 1,1 90 0 1 0,1.78885438 L -0.21114562,4.1055728 A 1.236068,1.236068 31.717474 0 1 -2,3 v -6 a 1.236068,1.236068 148.28253 0 1 1.78885438,-1.1055728 z"
         style="fill:context-stroke;fill-rule:evenodd;stroke:none"
         id="path8-67-2-0" />
    </marker>
    <marker
       style="overflow:visible"
       id="RoundedArrow-7-7-2-1"
       refX="0"
       refY="0"
       orient="auto-start-reverse"
       markerWidth="1"
       markerHeight="1"
       viewBox="0 0 1 1"
       preserveAspectRatio="xMidYMid">
      <path
         transform="scale(0.7)"
         d="m -0.21114562,-4.1055728 6.42229122,3.21114561 a 1,1 90 0 1 0,1.78885438 L -0.21114562,4.1055728 A 1.236068,1.236068 31.717474 0 1 -2,3 v -6 a 1.236068,1.236068 148.28253 0 1 1.78885438,-1.1055728 z"
         style="fill:context-stroke;fill-rule:evenodd;stroke:none"
         id="path8-67-2-0-2" />
    </marker>
    <marker
       style="overflow:visible"
       id="RoundedArrow-7-7-2-1-4"
       refX="0"
       refY="0"
       orient="auto-start-reverse"
       markerWidth="1"
       markerHeight="1"
       viewBox="0 0 1 1"
       preserveAspectRatio="xMidYMid">
      <path
         transform="scale(0.7)"
         d="m -0.21114562,-4.1055728 6.42229122,3.21114561 a 1,1 90 0 1 0,1.78885438 L -0.21114562,4.1055728 A 1.236068,1.236068 31.717474 0 1 -2,3 v -6 a 1.236068,1.236068 148.28253 0 1 1.78885438,-1.1055728 z"
         style="fill:context-stroke;fill-rule:evenodd;stroke:none"
         id="path8-67-2-0-2-7" />
    </marker>
    <marker
       style="overflow:visible"
       id="RoundedArrow-7-7-2-1-3"
       refX="0"
       refY="0"
       orient="auto-start-reverse"
       markerWidth="1"
       markerHeight="1"
       viewBox="0 0 1 1"
       preserveAspectRatio="xMidYMid">
      <path
         transform="scale(0.7)"
         d="m -0.21114562,-4.1055728 6.42229122,3.21114561 a 1,1 90 0 1 0,1.78885438 L -0.21114562,4.1055728 A 1.236068,1.236068 31.717474 0 1 -2,3 v -6 a 1.236068,1.236068 148.28253 0 1 1.78885438,-1.1055728 z"
         style="fill:context-stroke;fill-rule:evenodd;stroke:none"
         id="path8-67-2-0-2-6" />
    </marker>
    <marker
       style="overflow:visible"
       id="RoundedArrow-7-7-2-1-4-1"
       refX="0"
       refY="0"
       orient="auto-start-reverse"
       markerWidth="1"
       markerHeight="1"
       viewBox="0 0 1 1"
       preserveAspectRatio="xMidYMid">
      <path
         transform="scale(0.7)"
         d="m -0.21114562,-4.1055728 6.42229122,3.21114561 a 1,1 90 0 1 0,1.78885438 L -0.21114562,4.1055728 A 1.236068,1.236068 31.717474 0 1 -2,3 v -6 a 1.236068,1.236068 148.28253 0 1 1.78885438,-1.1055728 z"
         style="fill:context-stroke;fill-rule:evenodd;stroke:none"
         id="path8-67-2-0-2-7-0" />
    </marker>
    <marker
       style="overflow:visible"
       id="RoundedArrow-7-7-2-7"
       refX="0"
       refY="0"
       orient="auto-start-reverse"
       markerWidth="1"
       markerHeight="1"
       viewBox="0 0 1 1"
       preserveAspectRatio="xMidYMid">
      <path
         transform="scale(0.7)"
         d="m -0.21114562,-4.1055728 6.42229122,3.21114561 a 1,1 90 0 1 0,1.78885438 L -0.21114562,4.1055728 A 1.236068,1.236068 31.717474 0 1 -2,3 v -6 a 1.236068,1.236068 148.28253 0 1 1.78885438,-1.1055728 z"
         style="fill:context-stroke;fill-rule:evenodd;stroke:none"
         id="path8-67-2-0-4" />
    </marker>
    <marker
       style="overflow:visible"
       id="RoundedArrow-7-7-2-7-8"
       refX="0"
       refY="0"
       orient="auto-start-reverse"
       markerWidth="1"
       markerHeight="1"
       viewBox="0 0 1 1"
       preserveAspectRatio="xMidYMid">
      <path
         transform="scale(0.7)"
         d="m -0.21114562,-4.1055728 6.42229122,3.21114561 a 1,1 90 0 1 0,1.78885438 L -0.21114562,4.1055728 A 1.236068,1.236068 31.717474 0 1 -2,3 v -6 a 1.236068,1.236068 148.28253 0 1 1.78885438,-1.1055728 z"
         style="fill:context-stroke;fill-rule:evenodd;stroke:none"
         id="path8-67-2-0-4-8" />
    </marker>
    <marker
       style="overflow:visible"
       id="RoundedArrow-7-7-2-7-6"
       refX="0"
       refY="0"
       orient="auto-start-reverse"
       markerWidth="1"
       markerHeight="1"
       viewBox="0 0 1 1"
       preserveAspectRatio="xMidYMid">
      <path
         transform="scale(0.7)"
         d="m -0.21114562,-4.1055728 6.42229122,3.21114561 a 1,1 90 0 1 0,1.78885438 L -0.21114562,4.1055728 A 1.236068,1.236068 31.717474 0 1 -2,3 v -6 a 1.236068,1.236068 148.28253 0 1 1.78885438,-1.1055728 z"
         style="fill:context-stroke;fill-rule:evenodd;stroke:none"
         id="path8-67-2-0-4-4" />
    </marker>
    <marker
       style="overflow:visible"
       id="RoundedArrow-7-7-2-7-8-1"
       refX="0"
       refY="0"
       orient="auto-start-reverse"
       markerWidth="1"
       markerHeight="1"
       viewBox="0 0 1 1"
       preserveAspectRatio="xMidYMid">
      <path
         transform="scale(0.7)"
         d="m -0.21114562,-4.1055728 6.42229122,3.21114561 a 1,1 90 0 1 0,1.78885438 L -0.21114562,4.1055728 A 1.236068,1.236068 31.717474 0 1 -2,3 v -6 a 1.236068,1.236068 148.28253 0 1 1.78885438,-1.1055728 z"
         style="fill:context-stroke;fill-rule:evenodd;stroke:none"
         id="path8-67-2-0-4-8-0" />
    </marker>
    <marker
       style="overflow:visible"
       id="RoundedArrow-7-7-2-1-3-4"
       refX="0"
       refY="0"
       orient="auto-start-reverse"
       markerWidth="1"
       markerHeight="1"
       viewBox="0 0 1 1"
       preserveAspectRatio="xMidYMid">
      <path
         transform="scale(0.7)"
         d="m -0.21114562,-4.1055728 6.42229122,3.21114561 a 1,1 90 0 1 0,1.78885438 L -0.21114562,4.1055728 A 1.236068,1.236068 31.717474 0 1 -2,3 v -6 a 1.236068,1.236068 148.28253 0 1 1.78885438,-1.1055728 z"
         style="fill:context-stroke;fill-rule:evenodd;stroke:none"
         id="path8-67-2-0-2-6-9" />
    </marker>
    <marker
       style="overflow:visible"
       id="RoundedArrow-7-7-2-1-4-1-0"
       refX="0"
       refY="0"
       orient="auto-start-reverse"
       markerWidth="1"
       markerHeight="1"
       viewBox="0 0 1 1"
       preserveAspectRatio="xMidYMid">
      <path
         transform="scale(0.7)"
         d="m -0.21114562,-4.1055728 6.42229122,3.21114561 a 1,1 90 0 1 0,1.78885438 L -0.21114562,4.1055728 A 1.236068,1.236068 31.717474 0 1 -2,3 v -6 a 1.236068,1.236068 148.28253 0 1 1.78885438,-1.1055728 z"
         style="fill:context-stroke;fill-rule:evenodd;stroke:none"
         id="path8-67-2-0-2-7-0-9" />
    </marker>
  </defs>
  <g
     id="layer1"
     transform="translate(-14.473883,-114.68002)">
    <rect
       style="fill:#ffffff;stroke:#ffffff;stroke-width:0.264583"
       id="rect17"
       width="109.25697"
       height="83.310158"
       x="14.606174"
       y="114.81231" />
    <rect
       style="fill:#5fbcd3;stroke:#5fbcd3;stroke-width:0.264583"
       id="rect2"
       width="11.030589"
       height="3.9740229"
       x="45.557285"
       y="144.48662" />
    <rect
       style="fill:#5fbcd3;stroke:#5fbcd3;stroke-width:0.264582"
       id="rect2-5"
       width="3.3649719"
       height="22.070847"
       x="45.557285"
       y="144.48662" />
    <rect
       style="fill:#5fbcd3;stroke:#5fbcd3;stroke-width:0.264583"
       id="rect2-2"
       width="17.225868"
       height="3.9740229"
       x="36.290737"
       y="166.82205" />
    <rect
       style="fill:#5fbcd3;stroke:#5fbcd3;stroke-width:0.264583"
       id="rect2-7"
       width="11.030589"
       height="3.9740229"
       x="-89.578896"
       y="144.48662"
       transform="scale(-1,1)" />
    <rect
       style="fill:#5fbcd3;stroke:#5fbcd3;stroke-width:0.264582"
       id="rect2-5-0"
       width="3.3649719"
       height="22.070847"
       x="-89.578896"
       y="144.48662"
       transform="scale(-1,1)" />
    <rect
       style="fill:#5fbcd3;stroke:#5fbcd3;stroke-width:0.264583"
       id="rect2-2-9"
       width="17.225868"
       height="3.9740229"
       x="-98.845444"
       y="166.82205"
       transform="scale(-1,1)" />
    <path
       style="fill:#cccccc;stroke:#cccccc;stroke-width:0.264583px;stroke-linecap:butt;stroke-linejoin:miter;stroke-opacity:1"
       d="M 98.977735,170.79607 H 114.31144"
       id="path27-7-6-6" />
    <path
       style="fill:#cccccc;stroke:#cccccc;stroke-width:0.264583px;stroke-linecap:butt;stroke-linejoin:miter;stroke-opacity:1"
       d="M 89.711186,144.48662 H 114.31144"
       id="path27-7-6-8" />
    <path
       style="fill:none;stroke:#000000;stroke-width:0.264583px;stroke-linecap:butt;stroke-linejoin:miter;stroke-opacity:1;marker-start:url(#RoundedArrow-7-7-2);marker-end:url(#RoundedArrow-7-7-2)"
       d="M 114.31144,169.69484 V 145.87165"
       id="path5-1-0-3" />
    <text
       xml:space="preserve"
       transform="matrix(0.26458333,0,0,0.26458333,-2.6364509,-31.568187)"
       id="text2"
       style="font-size:14.6667px;line-height:1.25;font-family:sans-serif;white-space:pre;shape-inside:url(#rect3)"><tspan
         x="445.25781"
         y="718.58792"
         id="tspan1">H1</tspan></text>
    <path
       style="fill:#cccccc;stroke:#cccccc;stroke-width:0.264583px;stroke-linecap:butt;stroke-linejoin:miter;stroke-opacity:1"
       d="M 24.337494,170.79607 H 36.158446"
       id="path27-7-6-6-2" />
    <path
       style="fill:#cccccc;stroke:#cccccc;stroke-width:0.264583px;stroke-linecap:butt;stroke-linejoin:miter;stroke-opacity:1"
       d="M 24.337494,166.82205 H 36.158446"
       id="path27-7-6-6-2-7" />
    <path
       style="fill:none;stroke:#000000;stroke-width:0.264583px;stroke-linecap:butt;stroke-linejoin:miter;stroke-opacity:1;marker-end:url(#RoundedArrow-7-7-2-1)"
       d="M 24.337494,175.58199 V 172.1811"
       id="path5-1-0-3-3" />
    <path
       style="fill:none;stroke:#000000;stroke-width:0.264583px;stroke-linecap:butt;stroke-linejoin:miter;stroke-opacity:1;marker-end:url(#RoundedArrow-7-7-2-1-4)"
       d="m 24.337494,162.30072 v 3.40089"
       id="path5-1-0-3-3-4" />
    <path
       style="fill:#cccccc;stroke:#cccccc;stroke-width:0.264583px;stroke-linecap:butt;stroke-linejoin:miter;stroke-opacity:1"
       d="M 37.233596,148.46064 H 49.054548"
       id="path27-7-6-6-2-3" />
    <path
       style="fill:#cccccc;stroke:#cccccc;stroke-width:0.264583px;stroke-linecap:butt;stroke-linejoin:miter;stroke-opacity:1"
       d="M 37.233596,144.48662 H 49.054548"
       id="path27-7-6-6-2-7-2" />
    <path
       style="fill:none;stroke:#000000;stroke-width:0.264583px;stroke-linecap:butt;stroke-linejoin:miter;stroke-opacity:1;marker-end:url(#RoundedArrow-7-7-2-1-3)"
       d="m 37.233596,153.24656 v -3.40089"
       id="path5-1-0-3-3-0" />
    <path
       style="fill:none;stroke:#000000;stroke-width:0.264583px;stroke-linecap:butt;stroke-linejoin:miter;stroke-opacity:1;marker-end:url(#RoundedArrow-7-7-2-1-4-1)"
       d="m 37.233596,139.96529 v 3.40089"
       id="path5-1-0-3-3-4-6" />
    <path
       style="fill:#cccccc;stroke:#cccccc;stroke-width:0.264583px;stroke-linecap:butt;stroke-linejoin:miter;stroke-opacity:1"
       d="M 56.587874,144.35433 V 132.53338"
       id="path27-7-6-6-2-4" />
    <path
       style="fill:#cccccc;stroke:#cccccc;stroke-width:0.264583px;stroke-linecap:butt;stroke-linejoin:miter;stroke-opacity:1"
       d="M 78.548306,144.35433 V 132.53337"
       id="path27-7-6-6-2-6" />
    <path
       style="fill:none;stroke:#000000;stroke-width:0.264584px;stroke-linecap:butt;stroke-linejoin:miter;stroke-opacity:1;marker-start:url(#RoundedArrow-7-7-2-7);marker-end:url(#RoundedArrow-7-7-2-7)"
       d="M 77.11032,132.53338 H 58.025859"
       id="path5-1-0-3-2" />
    <path
       style="fill:#cccccc;stroke:#cccccc;stroke-width:0.264583px;stroke-linecap:butt;stroke-linejoin:miter;stroke-opacity:1"
       d="M 45.424994,144.35433 V 121.17065"
       id="path27-7-6-6-2-4-4" />
    <path
       style="fill:#cccccc;stroke:#cccccc;stroke-width:0.264583px;stroke-linecap:butt;stroke-linejoin:miter;stroke-opacity:1"
       d="M 89.578896,144.35433 V 121.17065"
       id="path27-7-6-6-2-4-4-7" />
    <path
       style="fill:none;stroke:#000000;stroke-width:0.264585px;stroke-linecap:butt;stroke-linejoin:miter;stroke-opacity:1;marker-start:url(#RoundedArrow-7-7-2-7-8);marker-end:url(#RoundedArrow-7-7-2-7-8)"
       d="M 88.180495,120.90538 H 46.592212"
       id="path5-1-0-3-2-3" />
    <path
       style="fill:#cccccc;stroke:#cccccc;stroke-width:0.264583px;stroke-linecap:butt;stroke-linejoin:miter;stroke-opacity:1"
       d="M 53.516605,182.74932 V 170.92837"
       id="path27-7-6-6-2-4-2" />
    <path
       style="fill:#cccccc;stroke:#cccccc;stroke-width:0.264583px;stroke-linecap:butt;stroke-linejoin:miter;stroke-opacity:1"
       d="M 81.619576,182.61703 V 170.79608"
       id="path27-7-6-6-2-4-9" />
    <path
       style="fill:none;stroke:#000000;stroke-width:0.264584px;stroke-linecap:butt;stroke-linejoin:miter;stroke-opacity:1;marker-start:url(#RoundedArrow-7-7-2-7-6);marker-end:url(#RoundedArrow-7-7-2-7-6)"
       d="M 80.180822,182.74932 H 54.842032"
       id="path5-1-0-3-2-5" />
    <path
       style="fill:#cccccc;stroke:#cccccc;stroke-width:0.264583px;stroke-linecap:butt;stroke-linejoin:miter;stroke-opacity:1"
       d="M 36.290737,194.11205 V 170.92837"
       id="path27-7-6-6-2-4-4-71" />
    <path
       style="fill:#cccccc;stroke:#cccccc;stroke-width:0.264583px;stroke-linecap:butt;stroke-linejoin:miter;stroke-opacity:1"
       d="M 98.845444,194.11205 V 170.92837"
       id="path27-7-6-6-2-4-4-2" />
    <path
       style="fill:none;stroke:#000000;stroke-width:0.264585px;stroke-linecap:butt;stroke-linejoin:miter;stroke-opacity:1;marker-start:url(#RoundedArrow-7-7-2-7-8-1);marker-end:url(#RoundedArrow-7-7-2-7-8-1)"
       d="M 97.487657,194.11205 H 37.648525"
       id="path5-1-0-3-2-3-1" />
    <path
       style="fill:none;stroke:#000000;stroke-width:0.264583px;stroke-linecap:butt;stroke-linejoin:miter;stroke-opacity:1;marker-end:url(#RoundedArrow-7-7-2-1-3-4)"
       d="m 81.428008,155.52204 h 3.40089"
       id="path5-1-0-3-3-0-7" />
    <path
       style="fill:none;stroke:#000000;stroke-width:0.264583px;stroke-linecap:butt;stroke-linejoin:miter;stroke-opacity:1;marker-end:url(#RoundedArrow-7-7-2-1-4-1-0)"
       d="m 94.038119,155.52204 h -3.40089"
       id="path5-1-0-3-3-4-6-7" />
    <text
       xml:space="preserve"
       transform="matrix(0.26458333,0,0,0.26458333,-48.732362,-68.137746)"
       id="text3"
       style="font-size:14.6667px;line-height:1.25;font-family:sans-serif;white-space:pre;shape-inside:url(#rect4)"><tspan
         x="429.07812"
         y="710.12503"
         id="tspan2">D1</tspan></text>
    <text
       xml:space="preserve"
       transform="matrix(0.26458333,0,0,0.26458333,-45.39432,-15.151006)"
       id="text4"
       style="font-size:14.6667px;line-height:1.25;font-family:sans-serif;white-space:pre;shape-inside:url(#rect5)"><tspan
         x="414.71484"
         y="787.78909"
         id="tspan3">D2</tspan></text>
    <text
       xml:space="preserve"
       transform="matrix(0.26458333,0,0,0.26458333,-63.027795,-59.5551)"
       id="text5"
       style="font-size:14.6667px;line-height:1.25;font-family:sans-serif;white-space:pre;shape-inside:url(#rect6)"><tspan
         x="481.47461"
         y="723.71878"
         id="tspan4">D3</tspan></text>
    <text
       xml:space="preserve"
       transform="matrix(0.26458333,0,0,0.26458333,-63.556054,-27.032332)"
       id="text13"
       style="font-size:14.6667px;line-height:1.25;font-family:sans-serif;white-space:pre;shape-inside:url(#rect13)"><tspan
         x="485.11719"
         y="790.91409"
         id="tspan5">D4</tspan></text>
    <text
       xml:space="preserve"
       transform="matrix(0.26458333,0,0,0.26458333,-93.961644,-44.741075)"
       id="text14"
       style="font-size:14.6667px;line-height:1.25;font-family:sans-serif;white-space:pre;shape-inside:url(#rect14)"><tspan
         x="470.51172"
         y="726.28909"
         id="tspan6">E1</tspan></text>
    <text
       xml:space="preserve"
       transform="matrix(0.26458333,0,0,0.26458333,-17.864113,-43.413179)"
       id="text15"
       style="font-size:14.6667px;line-height:1.25;font-family:sans-serif;white-space:pre;shape-inside:url(#rect15)"><tspan
         x="424.65039"
         y="755.69925"
         id="tspan7">E2</tspan></text>
    <text
       xml:space="preserve"
       transform="matrix(0.26458333,0,0,0.26458333,-111.12418,-32.073921)"
       id="text16"
       style="font-size:14.6667px;line-height:1.25;font-family:sans-serif;white-space:pre;shape-inside:url(#rect16)"><tspan
         x="486.53516"
         y="764.27542"
         id="tspan8">E3</tspan></text>
  </g>
</svg>
