<?xml version="1.0" encoding="UTF-8" standalone="no"?>
<!-- Created with Inkscape (http://www.inkscape.org/) -->

<svg
   width="415.40451"
   height="262.3042"
   viewBox="0 0 109.90911 69.401319"
   version="1.1"
   id="svg1"
   xmlns="http://www.w3.org/2000/svg"
   xmlns:svg="http://www.w3.org/2000/svg">
  <defs
     id="defs1">
    <rect
       x="397.66144"
       y="808.23138"
       width="83.540031"
       height="62.222439"
       id="rect22" />
    <rect
       x="392.92709"
       y="814.60736"
       width="97.03318"
       height="48.925037"
       id="rect21" />
    <rect
       x="401.47449"
       y="834.37988"
       width="49.246056"
       height="41.786983"
       id="rect20" />
    <rect
       x="396.29123"
       y="830.55072"
       width="54.770927"
       height="38.921452"
       id="rect19" />
    <marker
       style="overflow:visible"
       id="RoundedArrow-7-7-9"
       refX="0"
       refY="0"
       orient="auto-start-reverse"
       markerWidth="1"
       markerHeight="1"
       viewBox="0 0 1 1"
       preserveAspectRatio="xMidYMid">
      <path
         transform="scale(0.7)"
         d="m -0.21114562,-4.1055728 6.42229122,3.21114561 a 1,1 90 0 1 0,1.78885438 L -0.21114562,4.1055728 A 1.236068,1.236068 31.717474 0 1 -2,3 v -6 a 1.236068,1.236068 148.28253 0 1 1.78885438,-1.1055728 z"
         style="fill:context-stroke;fill-rule:evenodd;stroke:none"
         id="path8-67-2-9" />
    </marker>
    <marker
       style="overflow:visible"
       id="RoundedArrow-7-7-2-7-8-1-1"
       refX="0"
       refY="0"
       orient="auto-start-reverse"
       markerWidth="1"
       markerHeight="1"
       viewBox="0 0 1 1"
       preserveAspectRatio="xMidYMid">
      <path
         transform="scale(0.7)"
         d="m -0.21114562,-4.1055728 6.42229122,3.21114561 a 1,1 90 0 1 0,1.78885438 L -0.21114562,4.1055728 A 1.236068,1.236068 31.717474 0 1 -2,3 v -6 a 1.236068,1.236068 148.28253 0 1 1.78885438,-1.1055728 z"
         style="fill:context-stroke;fill-rule:evenodd;stroke:none"
         id="path8-67-2-0-4-8-0-8" />
    </marker>
    <marker
       style="overflow:visible"
       id="RoundedArrow-7-7-2-7-8-1-3"
       refX="0"
       refY="0"
       orient="auto-start-reverse"
       markerWidth="1"
       markerHeight="1"
       viewBox="0 0 1 1"
       preserveAspectRatio="xMidYMid">
      <path
         transform="scale(0.7)"
         d="m -0.21114562,-4.1055728 6.42229122,3.21114561 a 1,1 90 0 1 0,1.78885438 L -0.21114562,4.1055728 A 1.236068,1.236068 31.717474 0 1 -2,3 v -6 a 1.236068,1.236068 148.28253 0 1 1.78885438,-1.1055728 z"
         style="fill:context-stroke;fill-rule:evenodd;stroke:none"
         id="path8-67-2-0-4-8-0-88" />
    </marker>
    <marker
       style="overflow:visible"
       id="RoundedArrow-7-7-2-7-8-1-3-8"
       refX="0"
       refY="0"
       orient="auto-start-reverse"
       markerWidth="1"
       markerHeight="1"
       viewBox="0 0 1 1"
       preserveAspectRatio="xMidYMid">
      <path
         transform="scale(0.7)"
         d="m -0.21114562,-4.1055728 6.42229122,3.21114561 a 1,1 90 0 1 0,1.78885438 L -0.21114562,4.1055728 A 1.236068,1.236068 31.717474 0 1 -2,3 v -6 a 1.236068,1.236068 148.28253 0 1 1.78885438,-1.1055728 z"
         style="fill:context-stroke;fill-rule:evenodd;stroke:none"
         id="path8-67-2-0-4-8-0-88-8" />
    </marker>
    <marker
       style="overflow:visible"
       id="RoundedArrow-7-7-2-7-8-1-3-8-5"
       refX="0"
       refY="0"
       orient="auto-start-reverse"
       markerWidth="1"
       markerHeight="1"
       viewBox="0 0 1 1"
       preserveAspectRatio="xMidYMid">
      <path
         transform="scale(0.7)"
         d="m -0.21114562,-4.1055728 6.42229122,3.21114561 a 1,1 90 0 1 0,1.78885438 L -0.21114562,4.1055728 A 1.236068,1.236068 31.717474 0 1 -2,3 v -6 a 1.236068,1.236068 148.28253 0 1 1.78885438,-1.1055728 z"
         style="fill:context-stroke;fill-rule:evenodd;stroke:none"
         id="path8-67-2-0-4-8-0-88-8-4" />
    </marker>
    <marker
       style="overflow:visible"
       id="RoundedArrow-7-7-2-1-3-6"
       refX="0"
       refY="0"
       orient="auto-start-reverse"
       markerWidth="1"
       markerHeight="1"
       viewBox="0 0 1 1"
       preserveAspectRatio="xMidYMid">
      <path
         transform="scale(0.7)"
         d="m -0.21114562,-4.1055728 6.42229122,3.21114561 a 1,1 90 0 1 0,1.78885438 L -0.21114562,4.1055728 A 1.236068,1.236068 31.717474 0 1 -2,3 v -6 a 1.236068,1.236068 148.28253 0 1 1.78885438,-1.1055728 z"
         style="fill:context-stroke;fill-rule:evenodd;stroke:none"
         id="path8-67-2-0-2-6-92" />
    </marker>
    <marker
       style="overflow:visible"
       id="RoundedArrow-7-7-2-1-4-1-2"
       refX="0"
       refY="0"
       orient="auto-start-reverse"
       markerWidth="1"
       markerHeight="1"
       viewBox="0 0 1 1"
       preserveAspectRatio="xMidYMid">
      <path
         transform="scale(0.7)"
         d="m -0.21114562,-4.1055728 6.42229122,3.21114561 a 1,1 90 0 1 0,1.78885438 L -0.21114562,4.1055728 A 1.236068,1.236068 31.717474 0 1 -2,3 v -6 a 1.236068,1.236068 148.28253 0 1 1.78885438,-1.1055728 z"
         style="fill:context-stroke;fill-rule:evenodd;stroke:none"
         id="path8-67-2-0-2-7-0-4" />
    </marker>
    <marker
       style="overflow:visible"
       id="RoundedArrow-7-7-2-7-8-1-3-8-5-2"
       refX="0"
       refY="0"
       orient="auto-start-reverse"
       markerWidth="1"
       markerHeight="1"
       viewBox="0 0 1 1"
       preserveAspectRatio="xMidYMid">
      <path
         transform="scale(0.7)"
         d="m -0.21114562,-4.1055728 6.42229122,3.21114561 a 1,1 90 0 1 0,1.78885438 L -0.21114562,4.1055728 A 1.236068,1.236068 31.717474 0 1 -2,3 v -6 a 1.236068,1.236068 148.28253 0 1 1.78885438,-1.1055728 z"
         style="fill:context-stroke;fill-rule:evenodd;stroke:none"
         id="path8-67-2-0-4-8-0-88-8-4-8" />
    </marker>
    <marker
       style="overflow:visible"
       id="RoundedArrow-7-7-2-7-8-1-3-8-5-0"
       refX="0"
       refY="0"
       orient="auto-start-reverse"
       markerWidth="1"
       markerHeight="1"
       viewBox="0 0 1 1"
       preserveAspectRatio="xMidYMid">
      <path
         transform="scale(0.7)"
         d="m -0.21114562,-4.1055728 6.42229122,3.21114561 a 1,1 90 0 1 0,1.78885438 L -0.21114562,4.1055728 A 1.236068,1.236068 31.717474 0 1 -2,3 v -6 a 1.236068,1.236068 148.28253 0 1 1.78885438,-1.1055728 z"
         style="fill:context-stroke;fill-rule:evenodd;stroke:none"
         id="path8-67-2-0-4-8-0-88-8-4-2" />
    </marker>
    <rect
       x="414.71445"
       y="774.81171"
       width="77.051842"
       height="32.093842"
       id="rect5-1" />
    <rect
       x="429.078"
       y="697.14917"
       width="74.333649"
       height="49.530533"
       id="rect4-6" />
    <rect
       x="445.25803"
       y="705.61041"
       width="56.016113"
       height="64.208565"
       id="rect3-6" />
    <rect
       x="486.53607"
       y="751.29919"
       width="47.518307"
       height="29.784088"
       id="rect16-4" />
    <marker
       style="overflow:visible"
       id="RoundedArrow-7-7-9-8"
       refX="0"
       refY="0"
       orient="auto-start-reverse"
       markerWidth="1"
       markerHeight="1"
       viewBox="0 0 1 1"
       preserveAspectRatio="xMidYMid">
      <path
         transform="scale(0.7)"
         d="m -0.21114562,-4.1055728 6.42229122,3.21114561 a 1,1 90 0 1 0,1.78885438 L -0.21114562,4.1055728 A 1.236068,1.236068 31.717474 0 1 -2,3 v -6 a 1.236068,1.236068 148.28253 0 1 1.78885438,-1.1055728 z"
         style="fill:context-stroke;fill-rule:evenodd;stroke:none"
         id="path8-67-2-9-13" />
    </marker>
  </defs>
  <g
     id="layer1"
     transform="translate(-29.049347,-215.76419)">
    <rect
       style="fill:#ffffff;fill-opacity:1;stroke:#ffffff;stroke-width:0.264583"
       id="rect23"
       width="109.64452"
       height="69.136719"
       x="29.181639"
       y="215.89648" />
    <text
       xml:space="preserve"
       transform="matrix(0.26458333,0,0,0.26458333,12.735949,62.411573)"
       id="text2-8"
       style="font-size:14.6667px;line-height:1.25;font-family:sans-serif;white-space:pre;shape-inside:url(#rect3-6);display:inline"><tspan
         x="445.25781"
         y="718.58792"
         id="tspan1">H1</tspan></text>
    <rect
       style="fill:#b7c4c8;stroke:#b7c4c8;stroke-width:0.264583"
       id="rect2-9"
       width="11.030589"
       height="3.9740229"
       x="45.317654"
       y="237.83646" />
    <rect
       style="fill:#b7c4c8;stroke:#b7c4c8;stroke-width:0.264582"
       id="rect2-5-7"
       width="3.3649719"
       height="22.070847"
       x="45.317654"
       y="237.83646" />
    <rect
       style="fill:#5fbcd3;stroke:#5fbcd3;stroke-width:0.264583"
       id="rect2-2-7"
       width="17.225868"
       height="3.9740229"
       x="36.051105"
       y="260.17191" />
    <rect
       style="fill:#b7c4c8;stroke:#b7c4c8;stroke-width:0.264583"
       id="rect2-7-6"
       width="11.030589"
       height="3.9740229"
       x="-89.339264"
       y="237.83646"
       transform="scale(-1,1)" />
    <rect
       style="fill:#b7c4c8;stroke:#b7c4c8;stroke-width:0.264582"
       id="rect2-5-0-7"
       width="3.3649719"
       height="22.070847"
       x="-89.339264"
       y="237.83646"
       transform="scale(-1,1)" />
    <rect
       style="fill:#5fbcd3;stroke:#5fbcd3;stroke-width:0.264583"
       id="rect2-2-9-3"
       width="17.225868"
       height="3.9740229"
       x="-98.605812"
       y="260.17191"
       transform="scale(-1,1)" />
    <rect
       style="fill:#93a7ac;stroke:#93a7ac;stroke-width:0.264584"
       id="rect2-2-7-3"
       width="62.554707"
       height="3.9740229"
       x="36.051105"
       y="260.17191" />
    <rect
       style="fill:#dbe2e3;fill-opacity:0.8;stroke:#dbe2e3;stroke-width:0.264582"
       id="rect2-5-7-1"
       width="44.021614"
       height="22.070847"
       x="45.317657"
       y="237.83644" />
    <path
       style="fill:#d7eef4;stroke:#216778;stroke-width:0.264583px;stroke-linecap:butt;stroke-linejoin:miter;stroke-opacity:1"
       d="m 64.515235,247.4988 c 0,0 0.10568,-0.90197 0.31486,-1.29323 0.232,-0.43393 0.58041,-0.82796 0.99877,-1.08699 0.44236,-0.27389 0.97948,-0.4464 1.4996,-0.43302 0.61205,0.0157 1.23455,0.2485 1.73613,0.5996 0.34098,0.23868 0.6039,0.59563 0.787,0.96941 0.18734,0.38245 0.29011,1.24423 0.29011,1.24423 v 7.47858 c 0,0 -0.0947,0.84494 -0.27801,1.21938 -0.19435,0.39704 -0.47644,0.77492 -0.8403,1.02595 -0.49045,0.33837 -1.10061,0.52521 -1.69493,0.5679 -0.33468,0.024 -0.68498,-0.0411 -0.99038,-0.1801 -0.52819,-0.24039 -1.04051,-0.60249 -1.3599,-1.08701 -0.31941,-0.48456 -0.46295,-1.67842 -0.46295,-1.67842 v -7.34628"
       id="path18" />
    <path
       style="fill:#d7eef4;stroke:#216778;stroke-width:0.264583px;stroke-linecap:butt;stroke-linejoin:miter;stroke-opacity:1"
       d="m 72.258372,247.56495 c 0,0 0.09457,-0.90197 0.281743,-1.29323 0.207598,-0.43393 0.519363,-0.82796 0.893719,-1.08699 0.395833,-0.27389 0.876459,-0.4464 1.341873,-0.43302 0.547674,0.0157 1.1047,0.2485 1.553524,0.5996 0.305116,0.23868 0.540383,0.59563 0.704224,0.96941 0.167636,0.38245 0.259596,1.24423 0.259596,1.24423 v 7.47858 c 0,0 -0.08474,0.84494 -0.248769,1.21938 -0.173907,0.39704 -0.426328,0.77492 -0.751916,1.02595 -0.438866,0.33837 -0.98485,0.52521 -1.516659,0.5679 -0.299478,0.024 -0.612934,-0.0411 -0.886212,-0.1801 -0.472636,-0.24039 -0.931069,-0.60249 -1.216867,-1.08701 -0.285814,-0.48456 -0.414256,-1.67842 -0.414256,-1.67842 v -7.34628"
       id="path18-5" />
    <path
       style="fill:#d7eef4;stroke:#216778;stroke-width:0.264583px;stroke-linecap:butt;stroke-linejoin:miter;stroke-opacity:1"
       d="m 79.409718,247.6311 c 0,0 0.08277,-0.90197 0.246593,-1.29323 0.181697,-0.43393 0.454567,-0.82796 0.782219,-1.08699 0.346448,-0.27389 0.767111,-0.4464 1.174461,-0.43302 0.479346,0.0157 0.966877,0.2485 1.359706,0.5996 0.26705,0.23868 0.472964,0.59563 0.616365,0.96941 0.146721,0.38245 0.227209,1.24423 0.227209,1.24423 v 7.47858 c 0,0 -0.07416,0.84494 -0.217733,1.21938 -0.152211,0.39704 -0.37314,0.77492 -0.658106,1.02595 -0.384114,0.33837 -0.86198,0.52521 -1.327441,0.5679 -0.262115,0.024 -0.536464,-0.0411 -0.775649,-0.1801 -0.413669,-0.24039 -0.814908,-0.60249 -1.065049,-1.08701 -0.250157,-0.48456 -0.362574,-1.67842 -0.362574,-1.67842 v -7.34628"
       id="path18-5-3" />
    <path
       style="fill:#d7eef4;stroke:#216778;stroke-width:0.264583px;stroke-linecap:butt;stroke-linejoin:miter;stroke-opacity:1"
       d="m 85.403775,247.6311 c 0,0 0.05225,-0.90197 0.155667,-1.29323 0.114699,-0.43393 0.286953,-0.82796 0.49379,-1.08699 0.218701,-0.27389 0.484253,-0.4464 0.7414,-0.43302 0.302596,0.0157 0.610359,0.2485 0.858339,0.5996 0.16858,0.23868 0.298567,0.59563 0.389092,0.96941 0.09262,0.38245 0.14343,1.24423 0.14343,1.24423 v 7.47858 c 0,0 -0.04682,0.84494 -0.137448,1.21938 -0.09609,0.39704 -0.235552,0.77492 -0.415442,1.02595 -0.242479,0.33837 -0.54414,0.52521 -0.837971,0.5679 -0.165465,0.024 -0.338653,-0.0411 -0.489643,-0.1801 -0.261136,-0.24039 -0.514426,-0.60249 -0.672332,-1.08701 -0.157916,-0.48456 -0.228881,-1.67842 -0.228881,-1.67842 v -7.34628"
       id="path18-5-3-1" />
    <path
       style="fill:#d7eef4;stroke:#216778;stroke-width:0.264583px;stroke-linecap:butt;stroke-linejoin:miter;stroke-opacity:1"
       d="m 62.560146,247.21674 c 0,0 -0.09457,-0.90197 -0.281743,-1.29323 -0.207598,-0.43393 -0.519363,-0.82796 -0.893719,-1.08699 -0.395833,-0.27389 -0.876459,-0.4464 -1.341873,-0.43302 -0.547674,0.0157 -1.1047,0.2485 -1.553524,0.5996 -0.305116,0.23868 -0.540383,0.59563 -0.704224,0.96941 -0.167636,0.38245 -0.259596,1.24423 -0.259596,1.24423 v 7.47858 c 0,0 0.08474,0.84494 0.248769,1.21938 0.173907,0.39704 0.426328,0.77492 0.751916,1.02595 0.438866,0.33837 0.98485,0.52521 1.516659,0.5679 0.299478,0.024 0.612934,-0.0411 0.886212,-0.1801 0.472636,-0.24039 0.931069,-0.60249 1.216867,-1.08701 0.285814,-0.48456 0.414256,-1.67842 0.414256,-1.67842 v -7.34628"
       id="path18-5-8" />
    <path
       style="fill:#d7eef4;stroke:#216778;stroke-width:0.264583px;stroke-linecap:butt;stroke-linejoin:miter;stroke-opacity:1"
       d="m 55.4088,247.28289 c 0,0 -0.08277,-0.90197 -0.246593,-1.29323 -0.181697,-0.43393 -0.454567,-0.82796 -0.782219,-1.08699 -0.346448,-0.27389 -0.767111,-0.4464 -1.174461,-0.43302 -0.479346,0.0157 -0.966877,0.2485 -1.359706,0.5996 -0.26705,0.23868 -0.472964,0.59563 -0.616365,0.96941 -0.146721,0.38245 -0.227209,1.24423 -0.227209,1.24423 v 7.47858 c 0,0 0.07416,0.84494 0.217733,1.21938 0.152211,0.39704 0.37314,0.77492 0.658106,1.02595 0.384114,0.33837 0.86198,0.52521 1.327441,0.5679 0.262115,0.024 0.536464,-0.0411 0.775649,-0.1801 0.413669,-0.24039 0.814908,-0.60249 1.065049,-1.08701 0.250157,-0.48456 0.362574,-1.67842 0.362574,-1.67842 v -7.34628"
       id="path18-5-3-4" />
    <path
       style="fill:#d7eef4;stroke:#216778;stroke-width:0.264583px;stroke-linecap:butt;stroke-linejoin:miter;stroke-opacity:1"
       d="m 49.414743,247.28289 c 0,0 -0.05225,-0.90197 -0.155667,-1.29323 -0.114699,-0.43393 -0.286953,-0.82796 -0.49379,-1.08699 -0.218701,-0.27389 -0.484253,-0.4464 -0.7414,-0.43302 -0.302596,0.0157 -0.610359,0.2485 -0.858339,0.5996 -0.16858,0.23868 -0.298567,0.59563 -0.389092,0.96941 -0.09262,0.38245 -0.14343,1.24423 -0.14343,1.24423 v 7.47858 c 0,0 0.04682,0.84494 0.137448,1.21938 0.09609,0.39704 0.235552,0.77492 0.415442,1.02595 0.242479,0.33837 0.54414,0.52521 0.837971,0.5679 0.165465,0.024 0.338653,-0.0411 0.489643,-0.1801 0.261136,-0.24039 0.514426,-0.60249 0.672332,-1.08701 0.157916,-0.48456 0.228881,-1.67842 0.228881,-1.67842 v -7.34628"
       id="path18-5-3-1-8" />
    <path
       style="fill:#cccccc;stroke:#cccccc;stroke-width:0.264583px;stroke-linecap:butt;stroke-linejoin:miter;stroke-opacity:1"
       d="m 45.317658,222.39155 v 15.3126"
       id="path19" />
    <path
       style="fill:#cccccc;stroke:#cccccc;stroke-width:0.264583px;stroke-linecap:butt;stroke-linejoin:miter;stroke-opacity:1"
       d="m 89.339271,222.39155 v 15.3126"
       id="path19-0" />
    <path
       style="fill:#cccccc;stroke:#cccccc;stroke-width:0.264583px;stroke-linecap:butt;stroke-linejoin:miter;stroke-opacity:1"
       d="M 89.471568,237.83645 H 130.14004"
       id="path19-0-4" />
    <path
       style="fill:#cccccc;stroke:#cccccc;stroke-width:0.264583px;stroke-linecap:butt;stroke-linejoin:miter;stroke-opacity:1"
       d="M 89.339261,259.90728 H 118.55898"
       id="path19-0-4-1" />
    <path
       style="fill:#cccccc;stroke:#cccccc;stroke-width:0.264583px;stroke-linecap:butt;stroke-linejoin:miter;stroke-opacity:1"
       d="M 98.738105,264.41052 H 130.07949"
       id="path19-0-4-6" />
    <path
       style="fill:#cccccc;stroke:#cccccc;stroke-width:0.264583px;stroke-linecap:butt;stroke-linejoin:miter;stroke-opacity:1"
       d="m 36.051105,264.27822 v 15.3126"
       id="path19-8" />
    <path
       style="fill:#cccccc;stroke:#cccccc;stroke-width:0.264583px;stroke-linecap:butt;stroke-linejoin:miter;stroke-opacity:1"
       d="m 98.605813,264.5428 v 15.3126"
       id="path19-0-5" />
    <path
       style="fill:none;stroke:#000000;stroke-width:0.264585px;stroke-linecap:butt;stroke-linejoin:miter;stroke-opacity:1;marker-start:url(#RoundedArrow-7-7-2-7-8-1-1);marker-end:url(#RoundedArrow-7-7-2-7-8-1-1)"
       d="M 97.275273,279.59082 H 37.436141"
       id="path5-1-0-3-2-3-1-9" />
    <path
       style="fill:none;stroke:#000000;stroke-width:0.264585px;stroke-linecap:butt;stroke-linejoin:miter;stroke-opacity:1;marker-start:url(#RoundedArrow-7-7-2-7-8-1-3);marker-end:url(#RoundedArrow-7-7-2-7-8-1-3)"
       d="M 87.965131,222.39155 H 46.681284"
       id="path5-1-0-3-2-3-1-1" />
    <path
       style="fill:#cccccc;stroke:#cccccc;stroke-width:0.264583px;stroke-linecap:butt;stroke-linejoin:miter;stroke-opacity:1"
       d="m 64.676814,232.16717 v 15.3126"
       id="path19-0-43" />
    <path
       style="fill:#cccccc;stroke:#cccccc;stroke-width:0.264583px;stroke-linecap:butt;stroke-linejoin:miter;stroke-opacity:1"
       d="m 70.141704,232.16717 v 15.3126"
       id="path19-0-43-6" />
    <path
       style="fill:none;stroke:#000000;stroke-width:0.264585px;stroke-linecap:butt;stroke-linejoin:miter;stroke-opacity:1;marker-start:url(#RoundedArrow-7-7-2-7-8-1-3-8);marker-end:url(#RoundedArrow-7-7-2-7-8-1-3-8)"
       d="M 69.025654,232.16717 H 65.796477"
       id="path5-1-0-3-2-3-1-1-9" />
    <path
       style="fill:#cccccc;stroke:#cccccc;stroke-width:0.264583px;stroke-linecap:butt;stroke-linejoin:miter;stroke-opacity:1"
       d="M 86.794634,244.6848 H 99.382002"
       id="path19-0-4-4" />
    <path
       style="fill:#cccccc;stroke:#cccccc;stroke-width:0.264583px;stroke-linecap:butt;stroke-linejoin:miter;stroke-opacity:1"
       d="M 86.794632,258.06005 H 118.55898"
       id="path19-0-4-4-0" />
    <path
       style="fill:none;stroke:#000000;stroke-width:0.264585px;stroke-linecap:butt;stroke-linejoin:miter;stroke-opacity:1;marker-start:url(#RoundedArrow-7-7-2-7-8-1-3-8-5);marker-end:url(#RoundedArrow-7-7-2-7-8-1-3-8-5)"
       d="m 99.382006,246.19308 v 10.35871"
       id="path5-1-0-3-2-3-1-1-9-5" />
    <path
       style="fill:none;stroke:#000000;stroke-width:0.264583px;stroke-linecap:butt;stroke-linejoin:miter;stroke-opacity:1;marker-end:url(#RoundedArrow-7-7-2-1-3-6)"
       d="m 109.13819,263.21463 v -2.1196"
       id="path5-1-0-3-3-0-5" />
    <path
       style="fill:none;stroke:#000000;stroke-width:0.264583px;stroke-linecap:butt;stroke-linejoin:miter;stroke-opacity:1;marker-end:url(#RoundedArrow-7-7-2-1-4-1-2)"
       d="m 109.13819,253.27413 v 3.40089"
       id="path5-1-0-3-3-4-6-4" />
    <path
       style="fill:none;stroke:#000000;stroke-width:0.264585px;stroke-linecap:butt;stroke-linejoin:miter;stroke-opacity:1;marker-start:url(#RoundedArrow-7-7-2-7-8-1-3-8-5-2);marker-end:url(#RoundedArrow-7-7-2-7-8-1-3-8-5-2)"
       d="m 130.14004,239.20318 v 23.84061"
       id="path5-1-0-3-2-3-1-1-9-5-3" />
    <path
       style="fill:none;stroke:#000000;stroke-width:0.264585px;stroke-linecap:butt;stroke-linejoin:miter;stroke-opacity:1;marker-start:url(#RoundedArrow-7-7-2-7-8-1-3-8-5-0);marker-end:url(#RoundedArrow-7-7-2-7-8-1-3-8-5-0)"
       d="m 118.55897,261.17859 v 2.10138"
       id="path5-1-0-3-2-3-1-1-9-5-0" />
    <text
       xml:space="preserve"
       transform="matrix(0.26458333,0,0,0.26458333,-45.008551,69.894117)"
       id="text4-8"
       style="font-size:14.6667px;line-height:1.25;font-family:sans-serif;white-space:pre;shape-inside:url(#rect5-1);display:inline"><tspan
         x="414.71484"
         y="787.78909"
         id="tspan2">D2</tspan></text>
    <text
       xml:space="preserve"
       transform="matrix(0.26458333,0,0,0.26458333,-48.681669,33.277111)"
       id="text3-6"
       style="font-size:14.6667px;line-height:1.25;font-family:sans-serif;white-space:pre;shape-inside:url(#rect4-6);display:inline"><tspan
         x="429.07812"
         y="710.12503"
         id="tspan3">D1</tspan></text>
    <text
       xml:space="preserve"
       transform="matrix(0.26458333,0,0,0.26458333,-8.6942566,61.427323)"
       id="text16-6"
       style="font-size:14.6667px;line-height:1.25;font-family:sans-serif;white-space:pre;shape-inside:url(#rect16-4);display:inline"><tspan
         x="486.53516"
         y="764.27542"
         id="tspan4">E3</tspan></text>
    <text
       xml:space="preserve"
       transform="matrix(0.26458333,0,0,0.26458333,4.618291,31.67272)"
       id="text19"
       style="font-size:14.6667px;line-height:1.25;font-family:sans-serif;white-space:pre;shape-inside:url(#rect19)"><tspan
         x="396.29102"
         y="843.52737"
         id="tspan5">H2</tspan></text>
    <text
       xml:space="preserve"
       transform="matrix(0.26458333,0,0,0.26458333,-6.3743188,28.488668)"
       id="text20"
       style="font-size:14.6667px;line-height:1.25;font-family:sans-serif;white-space:pre;shape-inside:url(#rect20)"><tspan
         x="401.47461"
         y="847.3555"
         id="tspan6">H3</tspan></text>
    <text
       xml:space="preserve"
       transform="matrix(0.26458333,0,0,0.26458333,-38.576679,11.35445)"
       id="text21"
       style="font-size:14.6667px;line-height:1.25;font-family:sans-serif;white-space:pre;shape-inside:url(#rect21)"><tspan
         x="392.92773"
         y="827.58401"
         id="tspan7">L2</tspan></text>
    <text
       xml:space="preserve"
       transform="matrix(0.26458333,0,0,0.26458333,-69.602369,17.862042)"
       id="text22"
       style="font-size:14.6667px;line-height:1.25;font-family:sans-serif;white-space:pre;shape-inside:url(#rect22)"><tspan
         x="397.66211"
         y="821.20706"
         id="tspan8">N2</tspan></text>
    <path
       style="fill:none;stroke:#000000;stroke-width:0.264583;stroke-linecap:butt;stroke-linejoin:miter;stroke-opacity:1;marker-end:url(#RoundedArrow-7-7-9)"
       d="m 40.138667,236.17642 6.425417,7.30308"
       id="path22" />
    <path
       style="fill:none;stroke:#000000;stroke-width:0.264583;stroke-linecap:butt;stroke-linejoin:miter;stroke-opacity:1;marker-end:url(#RoundedArrow-7-7-9-8)"
       d="m 39.928215,235.81044 10.175707,7.77264"
       id="path22-1" />
  </g>
</svg>
