<?xml version="1.0" encoding="UTF-8" standalone="no"?>
<!-- Created with Inkscape (http://www.inkscape.org/) -->

<svg
   width="487.08194"
   height="527.98938"
   viewBox="0 0 128.87376 139.69719"
   version="1.1"
   id="svg1"
   xmlns="http://www.w3.org/2000/svg"
   xmlns:svg="http://www.w3.org/2000/svg">
  <defs
     id="defs1">
    <rect
       x="17.20903"
       y="2038.8077"
       width="65.971947"
       height="37.730682"
       id="rect5" />
    <rect
       x="309.6376"
       y="2316.5559"
       width="56.454578"
       height="27.998922"
       id="rect69" />
    <rect
       x="206.74261"
       y="2313.6277"
       width="58.307598"
       height="25.556065"
       id="rect68" />
    <rect
       x="491.40875"
       y="1790.861"
       width="52.4771"
       height="30.885464"
       id="rect67" />
    <rect
       x="446.57083"
       y="1734.4534"
       width="64.644417"
       height="37.441513"
       id="rect66" />
    <rect
       x="489.67996"
       y="1794.1498"
       width="78.858032"
       height="45.177166"
       id="rect65" />
    <rect
       x="409.5892"
       y="1735.5229"
       width="89.035439"
       height="43.907478"
       id="rect64" />
    <rect
       x="143.56299"
       y="2344.5508"
       width="111.22293"
       height="52.762058"
       id="rect63" />
    <rect
       x="285.49829"
       y="2336.6191"
       width="72.567665"
       height="40.456448"
       id="rect62" />
    <rect
       x="152.28101"
       y="2344.4587"
       width="88.970222"
       height="40.024605"
       id="rect61" />
    <rect
       x="317.74606"
       y="2349.5891"
       width="65.680367"
       height="43.774605"
       id="rect60" />
    <rect
       x="213.8681"
       y="2361.7434"
       width="62.624264"
       height="31.550198"
       id="rect59" />
    <rect
       x="82.5812"
       y="2312.3069"
       width="74.121552"
       height="52.027557"
       id="rect58" />
    <rect
       x="393.4621"
       y="2367.2058"
       width="70.190697"
       height="38.4781"
       id="rect57" />
    <rect
       x="242.90477"
       y="2339.45"
       width="65.495819"
       height="48.115158"
       id="rect56" />
    <rect
       x="129.1683"
       y="2354.5498"
       width="93.583908"
       height="45.453987"
       id="rect55" />
    <rect
       x="399.172"
       y="2414.3318"
       width="83.869339"
       height="49.879429"
       id="rect54" />
    <rect
       x="373.64542"
       y="2326.0593"
       width="81.780266"
       height="46.483761"
       id="rect53" />
    <rect
       x="333.99359"
       y="2372.9785"
       width="99.651817"
       height="71.899605"
       id="rect52" />
    <rect
       x="214.08588"
       y="2407.8691"
       width="91.158958"
       height="48.008121"
       id="rect51" />
    <rect
       x="76.007629"
       y="2320.7222"
       width="82.330215"
       height="62.834644"
       id="rect50" />
    <rect
       x="262.62549"
       y="2335.759"
       width="99.079727"
       height="71.139275"
       id="rect49" />
    <rect
       x="382.3432"
       y="2164.988"
       width="48.05788"
       height="19.94241"
       id="rect48" />
    <rect
       x="170.18947"
       y="2164.9883"
       width="50.68071"
       height="30.450218"
       id="rect29" />
    <marker
       style="overflow:visible"
       id="RoundedArrow"
       refX="0"
       refY="0"
       orient="auto-start-reverse"
       markerWidth="1"
       markerHeight="1"
       viewBox="0 0 1 1"
       preserveAspectRatio="xMidYMid">
      <path
         transform="scale(0.7)"
         d="m -0.21114562,-4.1055728 6.42229122,3.21114561 a 1,1 90 0 1 0,1.78885438 L -0.21114562,4.1055728 A 1.236068,1.236068 31.717474 0 1 -2,3 v -6 a 1.236068,1.236068 148.28253 0 1 1.78885438,-1.1055728 z"
         style="fill:context-stroke;fill-rule:evenodd;stroke:none"
         id="path8" />
    </marker>
    <marker
       style="overflow:visible"
       id="RoundedArrow-3"
       refX="0"
       refY="0"
       orient="auto-start-reverse"
       markerWidth="1"
       markerHeight="1"
       viewBox="0 0 1 1"
       preserveAspectRatio="xMidYMid">
      <path
         transform="scale(0.7)"
         d="m -0.21114562,-4.1055728 6.42229122,3.21114561 a 1,1 90 0 1 0,1.78885438 L -0.21114562,4.1055728 A 1.236068,1.236068 31.717474 0 1 -2,3 v -6 a 1.236068,1.236068 148.28253 0 1 1.78885438,-1.1055728 z"
         style="fill:context-stroke;fill-rule:evenodd;stroke:none"
         id="path8-38" />
    </marker>
    <marker
       style="overflow:visible"
       id="RoundedArrow-0"
       refX="0"
       refY="0"
       orient="auto-start-reverse"
       markerWidth="1"
       markerHeight="1"
       viewBox="0 0 1 1"
       preserveAspectRatio="xMidYMid">
      <path
         transform="scale(0.7)"
         d="m -0.21114562,-4.1055728 6.42229122,3.21114561 a 1,1 90 0 1 0,1.78885438 L -0.21114562,4.1055728 A 1.236068,1.236068 31.717474 0 1 -2,3 v -6 a 1.236068,1.236068 148.28253 0 1 1.78885438,-1.1055728 z"
         style="fill:context-stroke;fill-rule:evenodd;stroke:none"
         id="path8-0" />
    </marker>
    <marker
       style="overflow:visible"
       id="RoundedArrow-0-9"
       refX="0"
       refY="0"
       orient="auto-start-reverse"
       markerWidth="1"
       markerHeight="1"
       viewBox="0 0 1 1"
       preserveAspectRatio="xMidYMid">
      <path
         transform="scale(0.7)"
         d="m -0.21114562,-4.1055728 6.42229122,3.21114561 a 1,1 90 0 1 0,1.78885438 L -0.21114562,4.1055728 A 1.236068,1.236068 31.717474 0 1 -2,3 v -6 a 1.236068,1.236068 148.28253 0 1 1.78885438,-1.1055728 z"
         style="fill:context-stroke;fill-rule:evenodd;stroke:none"
         id="path8-0-8" />
    </marker>
    <marker
       style="overflow:visible"
       id="RoundedArrow-0-96"
       refX="0"
       refY="0"
       orient="auto-start-reverse"
       markerWidth="1"
       markerHeight="1"
       viewBox="0 0 1 1"
       preserveAspectRatio="xMidYMid">
      <path
         transform="scale(0.7)"
         d="m -0.21114562,-4.1055728 6.42229122,3.21114561 a 1,1 90 0 1 0,1.78885438 L -0.21114562,4.1055728 A 1.236068,1.236068 31.717474 0 1 -2,3 v -6 a 1.236068,1.236068 148.28253 0 1 1.78885438,-1.1055728 z"
         style="fill:context-stroke;fill-rule:evenodd;stroke:none"
         id="path8-0-0" />
    </marker>
    <marker
       style="overflow:visible"
       id="RoundedArrow-0-2"
       refX="0"
       refY="0"
       orient="auto-start-reverse"
       markerWidth="1"
       markerHeight="1"
       viewBox="0 0 1 1"
       preserveAspectRatio="xMidYMid">
      <path
         transform="scale(0.7)"
         d="m -0.21114562,-4.1055728 6.42229122,3.21114561 a 1,1 90 0 1 0,1.78885438 L -0.21114562,4.1055728 A 1.236068,1.236068 31.717474 0 1 -2,3 v -6 a 1.236068,1.236068 148.28253 0 1 1.78885438,-1.1055728 z"
         style="fill:context-stroke;fill-rule:evenodd;stroke:none"
         id="path8-0-1" />
    </marker>
    <marker
       style="overflow:visible"
       id="RoundedArrow-0-2-9"
       refX="0"
       refY="0"
       orient="auto-start-reverse"
       markerWidth="1"
       markerHeight="1"
       viewBox="0 0 1 1"
       preserveAspectRatio="xMidYMid">
      <path
         transform="scale(0.7)"
         d="m -0.21114562,-4.1055728 6.42229122,3.21114561 a 1,1 90 0 1 0,1.78885438 L -0.21114562,4.1055728 A 1.236068,1.236068 31.717474 0 1 -2,3 v -6 a 1.236068,1.236068 148.28253 0 1 1.78885438,-1.1055728 z"
         style="fill:context-stroke;fill-rule:evenodd;stroke:none"
         id="path8-0-1-1" />
    </marker>
    <marker
       style="overflow:visible"
       id="RoundedArrow-0-9-7"
       refX="0"
       refY="0"
       orient="auto-start-reverse"
       markerWidth="1"
       markerHeight="1"
       viewBox="0 0 1 1"
       preserveAspectRatio="xMidYMid">
      <path
         transform="scale(0.7)"
         d="m -0.21114562,-4.1055728 6.42229122,3.21114561 a 1,1 90 0 1 0,1.78885438 L -0.21114562,4.1055728 A 1.236068,1.236068 31.717474 0 1 -2,3 v -6 a 1.236068,1.236068 148.28253 0 1 1.78885438,-1.1055728 z"
         style="fill:context-stroke;fill-rule:evenodd;stroke:none"
         id="path8-0-8-0" />
    </marker>
    <marker
       style="overflow:visible"
       id="RoundedArrow-0-9-7-6"
       refX="0"
       refY="0"
       orient="auto-start-reverse"
       markerWidth="1"
       markerHeight="1"
       viewBox="0 0 1 1"
       preserveAspectRatio="xMidYMid">
      <path
         transform="scale(0.7)"
         d="m -0.21114562,-4.1055728 6.42229122,3.21114561 a 1,1 90 0 1 0,1.78885438 L -0.21114562,4.1055728 A 1.236068,1.236068 31.717474 0 1 -2,3 v -6 a 1.236068,1.236068 148.28253 0 1 1.78885438,-1.1055728 z"
         style="fill:context-stroke;fill-rule:evenodd;stroke:none"
         id="path8-0-8-0-1" />
    </marker>
    <marker
       style="overflow:visible"
       id="RoundedArrow-0-2-3"
       refX="0"
       refY="0"
       orient="auto-start-reverse"
       markerWidth="1"
       markerHeight="1"
       viewBox="0 0 1 1"
       preserveAspectRatio="xMidYMid">
      <path
         transform="scale(0.7)"
         d="m -0.21114562,-4.1055728 6.42229122,3.21114561 a 1,1 90 0 1 0,1.78885438 L -0.21114562,4.1055728 A 1.236068,1.236068 31.717474 0 1 -2,3 v -6 a 1.236068,1.236068 148.28253 0 1 1.78885438,-1.1055728 z"
         style="fill:context-stroke;fill-rule:evenodd;stroke:none"
         id="path8-0-1-8" />
    </marker>
    <marker
       style="overflow:visible"
       id="RoundedArrow-0-2-9-0"
       refX="0"
       refY="0"
       orient="auto-start-reverse"
       markerWidth="1"
       markerHeight="1"
       viewBox="0 0 1 1"
       preserveAspectRatio="xMidYMid">
      <path
         transform="scale(0.7)"
         d="m -0.21114562,-4.1055728 6.42229122,3.21114561 a 1,1 90 0 1 0,1.78885438 L -0.21114562,4.1055728 A 1.236068,1.236068 31.717474 0 1 -2,3 v -6 a 1.236068,1.236068 148.28253 0 1 1.78885438,-1.1055728 z"
         style="fill:context-stroke;fill-rule:evenodd;stroke:none"
         id="path8-0-1-1-4" />
    </marker>
    <marker
       style="overflow:visible"
       id="RoundedArrow-0-96-2"
       refX="0"
       refY="0"
       orient="auto-start-reverse"
       markerWidth="1"
       markerHeight="1"
       viewBox="0 0 1 1"
       preserveAspectRatio="xMidYMid">
      <path
         transform="scale(0.7)"
         d="m -0.21114562,-4.1055728 6.42229122,3.21114561 a 1,1 90 0 1 0,1.78885438 L -0.21114562,4.1055728 A 1.236068,1.236068 31.717474 0 1 -2,3 v -6 a 1.236068,1.236068 148.28253 0 1 1.78885438,-1.1055728 z"
         style="fill:context-stroke;fill-rule:evenodd;stroke:none"
         id="path8-0-0-5" />
    </marker>
    <marker
       style="overflow:visible"
       id="RoundedArrow-0-96-0"
       refX="0"
       refY="0"
       orient="auto-start-reverse"
       markerWidth="1"
       markerHeight="1"
       viewBox="0 0 1 1"
       preserveAspectRatio="xMidYMid">
      <path
         transform="scale(0.7)"
         d="m -0.21114562,-4.1055728 6.42229122,3.21114561 a 1,1 90 0 1 0,1.78885438 L -0.21114562,4.1055728 A 1.236068,1.236068 31.717474 0 1 -2,3 v -6 a 1.236068,1.236068 148.28253 0 1 1.78885438,-1.1055728 z"
         style="fill:context-stroke;fill-rule:evenodd;stroke:none"
         id="path8-0-0-50" />
    </marker>
    <marker
       style="overflow:visible"
       id="RoundedArrow-0-96-1"
       refX="0"
       refY="0"
       orient="auto-start-reverse"
       markerWidth="1"
       markerHeight="1"
       viewBox="0 0 1 1"
       preserveAspectRatio="xMidYMid">
      <path
         transform="scale(0.7)"
         d="m -0.21114562,-4.1055728 6.42229122,3.21114561 a 1,1 90 0 1 0,1.78885438 L -0.21114562,4.1055728 A 1.236068,1.236068 31.717474 0 1 -2,3 v -6 a 1.236068,1.236068 148.28253 0 1 1.78885438,-1.1055728 z"
         style="fill:context-stroke;fill-rule:evenodd;stroke:none"
         id="path8-0-0-7" />
    </marker>
    <marker
       style="overflow:visible"
       id="RoundedArrow-0-96-6"
       refX="0"
       refY="0"
       orient="auto-start-reverse"
       markerWidth="1"
       markerHeight="1"
       viewBox="0 0 1 1"
       preserveAspectRatio="xMidYMid">
      <path
         transform="scale(0.7)"
         d="m -0.21114562,-4.1055728 6.42229122,3.21114561 a 1,1 90 0 1 0,1.78885438 L -0.21114562,4.1055728 A 1.236068,1.236068 31.717474 0 1 -2,3 v -6 a 1.236068,1.236068 148.28253 0 1 1.78885438,-1.1055728 z"
         style="fill:context-stroke;fill-rule:evenodd;stroke:none"
         id="path8-0-0-8" />
    </marker>
    <marker
       style="overflow:visible"
       id="RoundedArrow-0-96-6-6"
       refX="0"
       refY="0"
       orient="auto-start-reverse"
       markerWidth="1"
       markerHeight="1"
       viewBox="0 0 1 1"
       preserveAspectRatio="xMidYMid">
      <path
         transform="scale(0.7)"
         d="m -0.21114562,-4.1055728 6.42229122,3.21114561 a 1,1 90 0 1 0,1.78885438 L -0.21114562,4.1055728 A 1.236068,1.236068 31.717474 0 1 -2,3 v -6 a 1.236068,1.236068 148.28253 0 1 1.78885438,-1.1055728 z"
         style="fill:context-stroke;fill-rule:evenodd;stroke:none"
         id="path8-0-0-8-8" />
    </marker>
    <marker
       style="overflow:visible"
       id="RoundedArrow-0-96-6-6-9"
       refX="0"
       refY="0"
       orient="auto-start-reverse"
       markerWidth="1"
       markerHeight="1"
       viewBox="0 0 1 1"
       preserveAspectRatio="xMidYMid">
      <path
         transform="scale(0.7)"
         d="m -0.21114562,-4.1055728 6.42229122,3.21114561 a 1,1 90 0 1 0,1.78885438 L -0.21114562,4.1055728 A 1.236068,1.236068 31.717474 0 1 -2,3 v -6 a 1.236068,1.236068 148.28253 0 1 1.78885438,-1.1055728 z"
         style="fill:context-stroke;fill-rule:evenodd;stroke:none"
         id="path8-0-0-8-8-0" />
    </marker>
  </defs>
  <g
     id="layer1"
     transform="translate(-19.626648,-470.18729)">
    <rect
       style="opacity:1;fill:#ffffff;fill-opacity:1;stroke:#f9f9f9;stroke-width:0.264583;stroke-linejoin:bevel;stroke-opacity:1"
       id="rect70"
       width="128.60918"
       height="139.43262"
       x="19.75894"
       y="470.31958" />
    <path
       style="fill:none;stroke:#cccccc;stroke-width:0.264583px;stroke-linecap:butt;stroke-linejoin:miter;stroke-opacity:1"
       d="m 97.670301,561.87843 h -9.67224"
       id="path29-2" />
    <path
       style="fill:none;stroke:#cccccc;stroke-width:0.264583px;stroke-linecap:butt;stroke-linejoin:miter;stroke-opacity:1"
       d="M 44.62136,562.01072 H 34.94912"
       id="path29-5" />
    <circle
       style="fill:none;fill-opacity:0.5;stroke:#e6e6e6;stroke-width:0.264583;stroke-linejoin:bevel"
       id="path14-0"
       cx="66.612434"
       cy="525.9198"
       r="33.301704" />
    <circle
       style="opacity:1;fill:none;fill-opacity:0.5;stroke:#e6e6e6;stroke-width:0.264583;stroke-linejoin:bevel"
       id="path14"
       cx="66.598579"
       cy="515.90796"
       r="41.863716" />
    <rect
       style="fill:#008000;stroke:none;stroke-width:0.264748"
       id="rect2-2-5-0-5-1-1-9-10-6-4-4"
       width="3.558774"
       height="0.71841782"
       x="103.27079"
       y="554.75494"
       transform="matrix(0.99995927,-0.00902493,-0.04088513,0.99916385,0,0)" />
    <rect
       style="fill:#0088aa;stroke:#0088aa;stroke-width:0.264583"
       id="rect2-2-5-3-0"
       width="14.70898"
       height="0.54482871"
       x="589.94421"
       y="56.801041"
       transform="matrix(0,1,1,0,0,0)" />
    <rect
       style="fill:#0088aa;stroke:#0088aa;stroke-width:0.264582"
       id="rect2-6-3-4-3"
       width="1.5748962"
       height="0.65563965"
       x="56.801041"
       y="-604.6532"
       transform="scale(1,-1)" />
    <rect
       style="fill:#0088aa;stroke:#0088aa;stroke-width:0.264583"
       id="rect2-2-9-9-6"
       width="14.70898"
       height="0.54482871"
       x="589.94421"
       y="-75.897659"
       transform="rotate(90)" />
    <rect
       style="fill:#0088aa;stroke:#0088aa;stroke-width:0.264582"
       id="rect2-6-1-0-1"
       width="1.5748962"
       height="0.65563965"
       x="-75.897659"
       y="-604.6532"
       transform="scale(-1)" />
    <rect
       style="fill:#0088aa;stroke:#0088aa;stroke-width:0.264974"
       id="rect2-2-5-9-2-0"
       width="32.253361"
       height="0.55026412"
       x="525.97675"
       y="160.80437"
       transform="matrix(-0.17700955,0.98420913,0.96771702,0.25203922,0,0)" />
    <rect
       style="fill:#0088aa;stroke:#0088aa;stroke-width:0.264974"
       id="rect2-2-5-9-6-0-6"
       width="32.253361"
       height="0.55026412"
       x="559.52094"
       y="29.814579"
       transform="matrix(0.17700955,0.98420913,-0.96771702,0.25203922,0,0)" />
    <rect
       style="fill:#008000;stroke:none;stroke-width:0.264584"
       id="rect2-2-5-0-5-1-1-9-10-2"
       width="10.004592"
       height="1.5487213"
       x="-560.55585"
       y="-53.607635"
       transform="matrix(0,-1,-1,0,0,0)" />
    <rect
       style="fill:#008000;stroke:none;stroke-width:0.264584"
       id="rect2-2-5-0-5-1-1-9-3-3-2"
       width="10.004592"
       height="1.5487213"
       x="-560.55585"
       y="-80.721794"
       transform="matrix(0,-1,-1,0,0,0)" />
    <rect
       style="fill:#008000;stroke:none;stroke-width:0.264583"
       id="rect2-2-5-0-5-1-1-9-0-7-6"
       width="19.721786"
       height="1.5487213"
       x="-402.2673"
       y="-381.01917"
       transform="matrix(0.61466975,-0.78878457,-0.78878457,-0.61466975,0,0)" />
    <rect
       style="fill:#008000;stroke:none;stroke-width:0.264583"
       id="rect2-2-5-0-5-1-1-9-0-6-8-1"
       width="19.721786"
       height="1.5487213"
       x="-483.88361"
       y="-276.28384"
       transform="rotate(-127.92793)" />
    <circle
       style="fill:#008000;fill-opacity:1;stroke:none;stroke-width:0.264583;stroke-linejoin:bevel;stroke-opacity:1"
       id="path19-7"
       cx="66.345551"
       cy="543.15991"
       r="4.7177734" />
    <circle
       style="fill:#d7f4d7;fill-opacity:1;stroke:none;stroke-width:0.264583;stroke-linejoin:bevel;stroke-opacity:1"
       id="path19-3-7"
       cx="66.345551"
       cy="543.15991"
       r="3.1240234" />
    <circle
       style="fill:#008000;fill-opacity:1;stroke:none;stroke-width:0.264583;stroke-linejoin:bevel;stroke-opacity:1"
       id="path19-9-6"
       cx="66.345551"
       cy="515.64337"
       r="4.7177734" />
    <circle
       style="fill:#7f2aff;fill-opacity:1;stroke:none;stroke-width:0.264583;stroke-linejoin:bevel;stroke-opacity:1"
       id="path19-3-9-7"
       cx="66.345551"
       cy="515.64337"
       r="3.1240234" />
    <rect
       style="opacity:0.8;fill:#008000;stroke:none;stroke-width:0.264582"
       id="rect2-2-5-0-5-1-1-9-1-7-8-3"
       width="21.268524"
       height="4.0533905"
       x="-540.03589"
       y="-68.372246"
       transform="matrix(0,-1,-1,0,0,0)" />
    <circle
       style="fill:#ffffff;fill-opacity:1;stroke:none;stroke-width:0.264583;stroke-linejoin:bevel;stroke-opacity:1"
       id="path19-3-9-9-5"
       cx="66.345551"
       cy="515.64337"
       r="1.9119263" />
    <rect
       style="fill:#9855ff;fill-opacity:0.701961;stroke:none;stroke-width:0.264582"
       id="rect2-2-5-0-5-1-1-3-5-5-6-6-6-8-1-8-6"
       width="1.9148636"
       height="2.9260547"
       x="-514.44806"
       y="-60.995117"
       transform="matrix(0,-1,-1,0,0,0)" />
    <rect
       style="fill:#9855ff;fill-opacity:0.701961;stroke:none;stroke-width:0.264582"
       id="rect2-2-5-0-5-1-1-3-5-5-6-6-6-8-1-8-2-2"
       width="1.9148636"
       height="2.9260547"
       x="-514.44806"
       y="-74.62204"
       transform="matrix(0,-1,-1,0,0,0)" />
    <rect
       style="fill:#9855ff;fill-opacity:0.701961;stroke:none;stroke-width:0.264582"
       id="rect2-2-5-0-5-1-1-3-5-5-6-6-6-8-1-8-0-1"
       width="1.9148636"
       height="2.9260547"
       x="-514.44806"
       y="-27.12697"
       transform="matrix(0,-1,-1,0,0,0)" />
    <rect
       style="fill:#9855ff;fill-opacity:0.701961;stroke:none;stroke-width:0.264582"
       id="rect2-2-5-0-5-1-1-3-5-5-6-6-6-8-1-8-3-7"
       width="1.9148636"
       height="2.9260547"
       x="-514.44806"
       y="-109.00533"
       transform="matrix(0,-1,-1,0,0,0)" />
    <rect
       style="opacity:0.7;fill:#9955ff;stroke:none;stroke-width:0.264582"
       id="rect2-2-5-0-5-1-1-3-5-5-6-5-0-8"
       width="84.80442"
       height="4.1904411"
       x="-109.00533"
       y="508.3428"
       transform="scale(-1,1)" />
    <circle
       style="fill:#4d4d4d;fill-opacity:1;stroke:#4d4d4d;stroke-width:0.264583;stroke-linejoin:bevel;stroke-opacity:1"
       id="path23-18"
       cx="59.320396"
       cy="537.42859"
       r="1.6699219" />
    <circle
       style="fill:#4d4d4d;fill-opacity:1;stroke:#4d4d4d;stroke-width:0.264583;stroke-linejoin:bevel;stroke-opacity:1"
       id="path23-1-5"
       cx="72.930687"
       cy="537.24359"
       r="1.6699219" />
    <circle
       style="fill:#808080;fill-opacity:1;stroke:none;stroke-width:0.264584;stroke-linejoin:bevel;stroke-opacity:1"
       id="path21-5-1-8-8"
       cx="419.34265"
       cy="320.7753"
       r="2.8822806"
       transform="rotate(45.383275)" />
    <circle
       style="fill:#ffffff;fill-opacity:1;stroke:none;stroke-width:0.264583;stroke-linejoin:bevel;stroke-opacity:1"
       id="path21-5-60-9"
       cx="419.3493"
       cy="320.77734"
       r="1.6018066"
       transform="rotate(45.383275)" />
    <path
       style="fill:#808080;stroke:none;stroke-width:0.264583px;stroke-linecap:butt;stroke-linejoin:miter;stroke-opacity:1"
       d="m 34.632115,536.45828 13.266053,-8.22892 17.530287,-0.14578 1.78208,0.10419 18.359982,0.0488 12.561321,8.54926 -0.41231,1.18277 -12.090193,-7.83386 -37.01065,-0.22635 -13.085411,7.98071 z"
       id="path9-7" />
    <path
       style="fill:none;stroke:#4d4d4d;stroke-width:0.529167;stroke-linecap:butt;stroke-linejoin:miter;stroke-opacity:1"
       d="m 24.200914,514.44808 10.099263,21.85848 0.914555,1.57325 13.412628,15.58255 11.89421,-15.18195"
       id="path10" />
    <path
       style="fill:none;stroke:#4d4d4d;stroke-width:0.529167;stroke-linecap:butt;stroke-linejoin:miter;stroke-opacity:1"
       d="m 109.00534,514.44808 -10.400352,22.32089 -0.4556,1.16704 -13.912563,15.69355 -12.456284,-15.33176"
       id="path11" />
    <path
       style="fill:none;stroke:#b3b3b3;stroke-width:0.264582px;stroke-linecap:butt;stroke-linejoin:miter;stroke-opacity:1"
       d="M 24.333205,508.87199 V 493.96277"
       id="path12" />
    <path
       style="fill:none;stroke:#b3b3b3;stroke-width:0.264582px;stroke-linecap:butt;stroke-linejoin:miter;stroke-opacity:1"
       d="M 108.87304,508.87199 V 493.96277"
       id="path12-5" />
    <path
       style="fill:none;stroke:#b3b3b3;stroke-width:0.264583px;stroke-linecap:butt;stroke-linejoin:miter;stroke-opacity:1"
       d="m 109.00534,512.66555 h 9.90227"
       id="path12-9" />
    <path
       style="fill:none;stroke:#b3b3b3;stroke-width:0.264583px;stroke-linecap:butt;stroke-linejoin:miter;stroke-opacity:1"
       d="m 109.00534,514.58039 h 9.90227"
       id="path12-2" />
    <path
       style="fill:none;stroke:#b3b3b3;stroke-width:0.264583px;stroke-linecap:butt;stroke-linejoin:miter;stroke-opacity:1"
       d="m 63.35382,515.6434 v -9.90227"
       id="path12-7" />
    <path
       style="fill:none;stroke:#b3b3b3;stroke-width:0.264583px;stroke-linecap:butt;stroke-linejoin:miter;stroke-opacity:1"
       d="m 69.469575,515.6434 v -9.90227"
       id="path12-1" />
    <path
       style="fill:none;stroke:#b3b3b3;stroke-width:0.264583px;stroke-linecap:butt;stroke-linejoin:miter;stroke-opacity:1"
       d="M 61.76007,515.6434 V 500.26001"
       id="path12-3" />
    <path
       style="fill:none;stroke:#b3b3b3;stroke-width:0.264583px;stroke-linecap:butt;stroke-linejoin:miter;stroke-opacity:1"
       d="M 71.195617,515.6434 V 500.26001"
       id="path12-3-2" />
    <path
       style="fill:none;stroke:#b3b3b3;stroke-width:0.264583px;stroke-linecap:butt;stroke-linejoin:miter;stroke-opacity:1"
       d="M 66.598584,515.77569 H 130.73836"
       id="path12-3-1" />
    <path
       style="fill:none;stroke:#b3b3b3;stroke-width:0.264583px;stroke-linecap:butt;stroke-linejoin:miter;stroke-opacity:1"
       d="M 66.226626,523.78205 H 131.55108"
       id="path12-3-1-6" />
    <path
       style="fill:none;stroke:#b3b3b3;stroke-width:0.264583px;stroke-linecap:butt;stroke-linejoin:miter;stroke-opacity:1"
       d="M 66.551307,543.29223 H 134.97623"
       id="path12-3-1-62" />
    <path
       style="fill:none;stroke:#b3b3b3;stroke-width:0.264583px;stroke-linecap:butt;stroke-linejoin:miter;stroke-opacity:1"
       d="M 68.599404,534.99503 H 145.05051"
       id="path12-3-1-62-2" />
    <path
       style="fill:none;stroke:#b3b3b3;stroke-width:0.264583px;stroke-linecap:butt;stroke-linejoin:miter;stroke-opacity:1"
       d="M 80.721796,550.68357 H 145.05052"
       id="path12-3-1-62-2-2" />
    <path
       style="fill:none;stroke:#b3b3b3;stroke-width:0.264583px;stroke-linecap:butt;stroke-linejoin:miter;stroke-opacity:1"
       d="M 80.721796,560.42358 H 145.05052"
       id="path12-3-1-62-2-2-8" />
    <path
       style="fill:none;stroke:#b3b3b3;stroke-width:0.264583px;stroke-linecap:butt;stroke-linejoin:miter;stroke-opacity:1"
       d="M 70.188475,558.20006 H 140.35868"
       id="path12-3-1-62-2-2-1" />
    <path
       style="fill:none;stroke:#b3b3b3;stroke-width:0.264583px;stroke-linecap:butt;stroke-linejoin:miter;stroke-opacity:1"
       d="M 76.029952,589.67966 H 140.35868"
       id="path12-3-1-62-2-2-0" />
    <path
       style="fill:none;stroke:#b3b3b3;stroke-width:0.264583px;stroke-linecap:butt;stroke-linejoin:miter;stroke-opacity:1"
       d="M 76.029952,604.65322 H 140.35868"
       id="path12-3-1-62-2-2-9" />
    <path
       style="fill:none;stroke:#000000;stroke-width:0.264583px;stroke-linecap:butt;stroke-linejoin:miter;stroke-opacity:1;marker-start:url(#RoundedArrow);marker-end:url(#RoundedArrow)"
       d="M 140.35868,591.04691 V 603.4001"
       id="path13" />
    <path
       style="fill:none;stroke:#000000;stroke-width:0.264583px;stroke-linecap:butt;stroke-linejoin:miter;stroke-opacity:1;marker-start:url(#RoundedArrow-3);marker-end:url(#RoundedArrow-3)"
       d="m 140.3587,559.36875 v 29.05426"
       id="path13-6" />
    <path
       style="fill:none;stroke:#000000;stroke-width:0.264583px;stroke-linecap:butt;stroke-linejoin:miter;stroke-opacity:1;marker-start:url(#RoundedArrow-0);marker-end:url(#RoundedArrow-0)"
       d="m 145.05052,551.997 v 7.11315"
       id="path13-67" />
    <path
       style="fill:none;stroke:#000000;stroke-width:0.264584px;stroke-linecap:butt;stroke-linejoin:miter;stroke-opacity:1;marker-start:url(#RoundedArrow-0-9);marker-end:url(#RoundedArrow-0-9)"
       d="m 145.05052,536.16603 v 13.2458"
       id="path13-67-8" />
    <path
       style="fill:none;stroke:#000000;stroke-width:0.264583px;stroke-linecap:butt;stroke-linejoin:miter;stroke-opacity:1;marker-start:url(#RoundedArrow-0-96);marker-end:url(#RoundedArrow-0-96)"
       d="m 134.97623,536.27332 v 5.65366"
       id="path13-67-6" />
    <path
       style="fill:none;stroke:#000000;stroke-width:0.264583px;stroke-linecap:butt;stroke-linejoin:miter;stroke-opacity:1;marker-start:url(#RoundedArrow-0-96-2);marker-end:url(#RoundedArrow-0-96-2)"
       d="m 64.681064,505.74112 h 3.593554"
       id="path13-67-6-9" />
    <path
       style="fill:none;stroke:#000000;stroke-width:0.264583px;stroke-linecap:butt;stroke-linejoin:miter;stroke-opacity:1;marker-end:url(#RoundedArrow-0-2)"
       d="m 113.91196,553.51054 v 3.30874"
       id="path13-67-9" />
    <path
       style="fill:none;stroke:#000000;stroke-width:0.264583px;stroke-linecap:butt;stroke-linejoin:miter;stroke-opacity:1;marker-end:url(#RoundedArrow-0-2-9)"
       d="m 113.80064,565.0466 v -3.30874"
       id="path13-67-9-7" />
    <path
       style="fill:none;stroke:#000000;stroke-width:0.264584px;stroke-linecap:butt;stroke-linejoin:miter;stroke-opacity:1;marker-start:url(#RoundedArrow-0-9-7);marker-end:url(#RoundedArrow-0-9-7)"
       d="m 130.73838,525.25742 v 16.71746"
       id="path13-67-8-4" />
    <path
       style="fill:none;stroke:#000000;stroke-width:0.264584px;stroke-linecap:butt;stroke-linejoin:miter;stroke-opacity:1;marker-start:url(#RoundedArrow-0-9-7-6);marker-end:url(#RoundedArrow-0-9-7-6)"
       d="m 130.73837,517.05513 v 5.54137"
       id="path13-67-8-4-2" />
    <rect
       style="fill:#008000;stroke:none;stroke-width:0.264748"
       id="rect2-2-5-0-5-1-1-9-10-6-4-4-5"
       width="3.558774"
       height="0.71841782"
       x="71.430588"
       y="554.27832"
       transform="matrix(0.99995927,-0.00902493,-0.04088513,0.99916385,0,0)" />
    <rect
       style="opacity:1;fill:#808080;fill-opacity:1;stroke:none;stroke-width:0.264583;stroke-linejoin:bevel;stroke-opacity:1"
       id="rect21"
       width="1.40625"
       height="3.4399962"
       x="65.495346"
       y="525.40491" />
    <path
       style="fill:none;stroke:#000000;stroke-width:0.264583px;stroke-linecap:butt;stroke-linejoin:miter;stroke-opacity:1;marker-end:url(#RoundedArrow-0-2-3)"
       d="m 118.90761,507.97178 v 3.30874"
       id="path13-67-9-9" />
    <path
       style="fill:none;stroke:#000000;stroke-width:0.264583px;stroke-linecap:butt;stroke-linejoin:miter;stroke-opacity:1;marker-end:url(#RoundedArrow-0-2-9-0)"
       d="m 118.90761,519.27415 v -3.30874"
       id="path13-67-9-7-1" />
    <path
       style="fill:none;stroke:#000000;stroke-width:0.264582px;stroke-linecap:butt;stroke-linejoin:miter;stroke-opacity:1;marker-start:url(#RoundedArrow-0-96-0);marker-end:url(#RoundedArrow-0-96-0)"
       d="m 62.969252,500.26007 h 6.811985"
       id="path13-67-6-4" />
    <path
       style="fill:none;stroke:#000000;stroke-width:0.264583px;stroke-linecap:butt;stroke-linejoin:miter;stroke-opacity:1;marker-start:url(#RoundedArrow-0-96-1);marker-end:url(#RoundedArrow-0-96-1)"
       d="m 25.74553,494.20717 h 81.71518"
       id="path13-67-6-46" />
    <path
       style="fill:none;stroke:#b3b3b3;stroke-width:0.264583px;stroke-linecap:butt;stroke-linejoin:miter;stroke-opacity:1"
       d="M 85.613417,528.22937 H 113.42292"
       id="path12-3-1-6-2" />
    <path
       style="fill:none;stroke:#000000;stroke-width:0.264583px;stroke-linecap:butt;stroke-linejoin:miter;stroke-opacity:1;marker-start:url(#RoundedArrow-0-96-6);marker-end:url(#RoundedArrow-0-96-6)"
       d="m 113.42292,525.18805 v 1.65629"
       id="path13-67-6-3" />
    <path
       style="fill:none;stroke:#cccccc;stroke-width:0.264583px;stroke-linecap:butt;stroke-linejoin:miter;stroke-opacity:1"
       d="m 47.898165,528.22937 12.993891,-8.6878"
       id="path26" />
    <path
       style="fill:none;stroke:#cccccc;stroke-width:0.264583px;stroke-linecap:butt;stroke-linejoin:miter;stroke-opacity:1"
       d="M 66.345552,515.64339 40.735497,569.81873"
       id="path27" />
    <path
       style="fill:none;stroke:#cccccc;stroke-width:0.264583px;stroke-linecap:butt;stroke-linejoin:miter;stroke-opacity:1"
       d="m 66.345552,515.64339 25.434866,54.23188"
       id="path28" />
    <path
       style="fill:none;stroke:#000000;stroke-width:0.264583px;stroke-linecap:butt;stroke-linejoin:miter;stroke-opacity:1;marker-start:url(#RoundedArrow-0-96-6-6);marker-end:url(#RoundedArrow-0-96-6-6)"
       d="m 36.073208,563.48107 c 0.480138,3.19798 1.969794,4.32774 3.668293,5.02959"
       id="path13-67-6-3-6" />
    <path
       style="fill:none;stroke:#000000;stroke-width:0.264583px;stroke-linecap:butt;stroke-linejoin:miter;stroke-opacity:1;marker-start:url(#RoundedArrow-0-96-6-6-9);marker-end:url(#RoundedArrow-0-96-6-6-9)"
       d="m 96.590194,563.33056 c -0.504996,3.36488 -2.071791,4.55364 -3.858247,5.29212"
       id="path13-67-6-3-6-3" />
    <text
       xml:space="preserve"
       transform="matrix(0.26458333,0,0,0.26458333,-11.926852,-6.4772899)"
       id="text29"
       style="font-size:14.6667px;line-height:1.25;font-family:sans-serif;white-space:pre;shape-inside:url(#rect29);display:inline"><tspan
         x="170.18945"
         y="2177.9649"
         id="tspan1">al</tspan></text>
    <text
       xml:space="preserve"
       transform="matrix(0.26458333,0,0,0.26458333,-5.1286411,-7.3627828)"
       id="text48"
       style="font-size:14.6667px;line-height:1.25;font-family:sans-serif;white-space:pre;shape-inside:url(#rect48);display:inline"><tspan
         x="382.34375"
         y="2177.9649"
         id="tspan2">ar</tspan></text>
    <text
       xml:space="preserve"
       transform="matrix(0.26458333,0,0,0.26458333,64.382959,-22.490818)"
       id="text49"
       style="font-size:14.6667px;line-height:1.25;font-family:sans-serif;white-space:pre;shape-inside:url(#rect49);display:inline"><tspan
         x="262.625"
         y="2348.7364"
         id="tspan3">H1</tspan></text>
    <text
       xml:space="preserve"
       transform="matrix(0.26458333,0,0,0.26458333,114.298,-41.976169)"
       id="text50"
       style="font-size:14.6667px;line-height:1.25;font-family:sans-serif;white-space:pre;shape-inside:url(#rect50);display:inline"><tspan
         x="76.007812"
         y="2333.6992"
         id="tspan4">H2</tspan></text>
    <text
       xml:space="preserve"
       transform="matrix(0.26458333,0,0,0.26458333,54.747216,-72.057224)"
       id="text51"
       style="font-size:14.6667px;line-height:1.25;font-family:sans-serif;white-space:pre;shape-inside:url(#rect51);display:inline"><tspan
         x="214.08594"
         y="2420.8457"
         id="tspan5">H3</tspan></text>
    <text
       xml:space="preserve"
       transform="matrix(0.26458333,0,0,0.26458333,51.064599,-74.692966)"
       id="text52"
       style="font-size:14.6667px;line-height:1.25;font-family:sans-serif;white-space:pre;shape-inside:url(#rect52);display:inline"><tspan
         x="333.99414"
         y="2385.9551"
         id="tspan6">H4</tspan></text>
    <text
       xml:space="preserve"
       transform="matrix(0.26458333,0,0,0.26458333,40.782373,-74.690036)"
       id="text53"
       style="font-size:14.6667px;line-height:1.25;font-family:sans-serif;white-space:pre;shape-inside:url(#rect53);display:inline"><tspan
         x="373.64453"
         y="2339.0352"
         id="tspan7">H5</tspan></text>
    <text
       xml:space="preserve"
       transform="matrix(0.26458333,0,0,0.26458333,29.966943,-101.89512)"
       id="text54"
       style="font-size:14.6667px;line-height:1.25;font-family:sans-serif;white-space:pre;shape-inside:url(#rect54);display:inline"><tspan
         x="399.17188"
         y="2427.3086"
         id="tspan8">H6</tspan></text>
    <text
       xml:space="preserve"
       transform="matrix(0.26458333,0,0,0.26458333,97.010888,-93.973239)"
       id="text55"
       style="font-size:14.6667px;line-height:1.25;font-family:sans-serif;white-space:pre;shape-inside:url(#rect55);display:inline"><tspan
         x="129.16797"
         y="2367.5274"
         id="tspan9">H7</tspan></text>
    <text
       xml:space="preserve"
       transform="matrix(0.26458333,0,0,0.26458333,67.023584,-101.31309)"
       id="text56"
       style="font-size:14.6667px;line-height:1.25;font-family:sans-serif;white-space:pre;shape-inside:url(#rect56);display:inline"><tspan
         x="242.9043"
         y="2352.4258"
         id="tspan10">H8</tspan></text>
    <text
       xml:space="preserve"
       transform="matrix(0.26458333,0,0,0.26458333,13.007959,-122.48301)"
       id="text57"
       style="font-size:14.6667px;line-height:1.25;font-family:sans-serif;white-space:pre;shape-inside:url(#rect57);display:inline"><tspan
         x="393.46289"
         y="2380.1817"
         id="tspan11">H9</tspan></text>
    <text
       xml:space="preserve"
       transform="matrix(0.26458333,0,0,0.26458333,42.793115,-121.92246)"
       id="text58"
       style="font-size:14.6667px;line-height:1.25;font-family:sans-serif;white-space:pre;shape-inside:url(#rect58);display:inline"><tspan
         x="82.582031"
         y="2325.2832"
         id="tspan12">L2</tspan></text>
    <text
       xml:space="preserve"
       transform="matrix(0.26458333,0,0,0.26458333,19.949365,-34.542576)"
       id="text59"
       style="font-size:14.6667px;line-height:1.25;font-family:sans-serif;white-space:pre;shape-inside:url(#rect59);display:inline"><tspan
         x="213.86719"
         y="2374.7207"
         id="tspan13">D1</tspan></text>
    <text
       xml:space="preserve"
       transform="matrix(0.26458333,0,0,0.26458333,-12.567237,-63.25449)"
       id="text60"
       style="font-size:14.6667px;line-height:1.25;font-family:sans-serif;white-space:pre;shape-inside:url(#rect60);display:inline"><tspan
         x="317.74609"
         y="2362.5664"
         id="tspan14">D2</tspan></text>
    <text
       xml:space="preserve"
       transform="matrix(0.26458333,0,0,0.26458333,39.987451,-60.289646)"
       id="text61"
       style="font-size:14.6667px;line-height:1.25;font-family:sans-serif;white-space:pre;shape-inside:url(#rect61);display:inline"><tspan
         x="152.28125"
         y="2357.4356"
         id="tspan15">D3</tspan></text>
    <text
       xml:space="preserve"
       transform="matrix(0.26458333,0,0,0.26458333,-6.8270022,-87.244724)"
       id="text62"
       style="font-size:14.6667px;line-height:1.25;font-family:sans-serif;white-space:pre;shape-inside:url(#rect62);display:inline"><tspan
         x="285.49805"
         y="2349.5957"
         id="tspan16">D4</tspan></text>
    <text
       xml:space="preserve"
       transform="matrix(0.26458333,0,0,0.26458333,25.794092,-72.681247)"
       id="text63"
       style="font-size:14.6667px;line-height:1.25;font-family:sans-serif;white-space:pre;shape-inside:url(#rect63);display:inline"><tspan
         x="143.5625"
         y="2357.5274"
         id="tspan17">D5</tspan></text>
    <text
       xml:space="preserve"
       transform="matrix(0.26458333,0,0,0.26458333,-44.088481,42.013257)"
       id="text64"
       style="font-size:14.6667px;line-height:1.25;font-family:sans-serif;white-space:pre;shape-inside:url(#rect64);display:inline"><tspan
         x="409.58984"
         y="1748.5"
         id="tspan18">D6</tspan></text>
    <text
       xml:space="preserve"
       transform="matrix(0.26458333,0,0,0.26458333,-65.537197,21.561232)"
       id="text65"
       style="font-size:14.6667px;line-height:1.25;font-family:sans-serif;white-space:pre;shape-inside:url(#rect65);display:inline"><tspan
         x="489.67969"
         y="1807.127"
         id="tspan19">D7</tspan></text>
    <text
       xml:space="preserve"
       transform="matrix(0.26458333,0,0,0.26458333,-49.231468,64.48745)"
       id="text66"
       style="font-size:14.6667px;line-height:1.25;font-family:sans-serif;white-space:pre;shape-inside:url(#rect66);display:inline"><tspan
         x="446.57031"
         y="1747.4297"
         id="tspan20">D8</tspan></text>
    <text
       xml:space="preserve"
       transform="matrix(0.26458333,0,0,0.26458333,-15.599853,50.192842)"
       id="text67"
       style="font-size:14.6667px;line-height:1.25;font-family:sans-serif;white-space:pre;shape-inside:url(#rect67);display:inline"><tspan
         x="491.4082"
         y="1803.8379"
         id="tspan21">S1</tspan></text>
    <text
       xml:space="preserve"
       transform="matrix(0.26458333,0,0,0.26458333,2.9527238,-15.458984)"
       id="text68"
       style="font-size:14.6667px;line-height:1.25;font-family:sans-serif;white-space:pre;shape-inside:url(#rect68);display:inline"><tspan
         x="206.74219"
         y="2326.6035"
         id="tspan22">E1</tspan></text>
    <text
       xml:space="preserve"
       transform="matrix(0.26458333,0,0,0.26458333,-39.700178,-78.165683)"
       id="text69"
       style="font-size:14.6667px;line-height:1.25;font-family:sans-serif;white-space:pre;shape-inside:url(#rect69);display:inline"><tspan
         x="309.63672"
         y="2329.5332"
         id="tspan23">E2</tspan></text>
    <path
       style="fill:none;stroke:#cccccc;stroke-width:0.264583px;stroke-linecap:butt;stroke-linejoin:miter;stroke-opacity:1"
       d="M 53.189839,532.4627 66.18373,523.7749"
       id="path26-5" />
    <path
       style="fill:none;stroke:#1a1a1a;stroke-width:0.264583px;stroke-linecap:butt;stroke-linejoin:miter;stroke-opacity:1;marker-start:url(#RoundedArrow);marker-end:url(#RoundedArrow)"
       d="m 52.419457,526.51427 2.227897,3.39493"
       id="path26-2" />
    <text
       xml:space="preserve"
       transform="matrix(0.26458333,0,0,0.26458333,49.218262,-15.339355)"
       id="text2"
       style="font-size:14.6667px;line-height:1.25;font-family:sans-serif;white-space:pre;shape-inside:url(#rect5);display:inline"><tspan
         x="17.208984"
         y="2051.7852"
         id="tspan24">S2</tspan></text>
  </g>
</svg>
