<?xml version="1.0" encoding="UTF-8" standalone="no"?>
<!-- Created with Inkscape (http://www.inkscape.org/) -->

<svg
   width="498.61252"
   height="344.43555"
   viewBox="0 0 131.92456 91.131905"
   version="1.1"
   id="svg1"
   inkscape:version="1.3.2 (1:1.3.2+202311252150+091e20ef0f)"
   sodipodi:docname="pole_stator.svg"
   xmlns:inkscape="http://www.inkscape.org/namespaces/inkscape"
   xmlns:sodipodi="http://sodipodi.sourceforge.net/DTD/sodipodi-0.dtd"
   xmlns="http://www.w3.org/2000/svg"
   xmlns:svg="http://www.w3.org/2000/svg">
  <sodipodi:namedview
     id="namedview1"
     pagecolor="#ffffff"
     bordercolor="#666666"
     borderopacity="1.0"
     inkscape:showpageshadow="2"
     inkscape:pageopacity="0.0"
     inkscape:pagecheckerboard="0"
     inkscape:deskcolor="#d1d1d1"
     inkscape:document-units="px"
     inkscape:zoom="0.7483547"
     inkscape:cx="276.6068"
     inkscape:cy="3301.9102"
     inkscape:window-width="1370"
     inkscape:window-height="836"
     inkscape:window-x="0"
     inkscape:window-y="0"
     inkscape:window-maximized="1"
     inkscape:current-layer="layer1" />
  <defs
     id="defs1">
    <marker
       style="overflow:visible"
       id="ArrowWide-96"
       refX="0"
       refY="0"
       orient="auto-start-reverse"
       inkscape:stockid="Wide arrow"
       markerWidth="1"
       markerHeight="1"
       viewBox="0 0 1 1"
       inkscape:isstock="true"
       inkscape:collect="always"
       preserveAspectRatio="xMidYMid">
      <path
         style="fill:none;stroke:context-stroke;stroke-width:1;stroke-linecap:butt"
         d="M 3,-3 0,0 3,3"
         transform="rotate(180,0.125,0)"
         sodipodi:nodetypes="ccc"
         id="path1-4" />
    </marker>
    <marker
       style="overflow:visible"
       id="ArrowWide-43-91-9"
       refX="0"
       refY="0"
       orient="auto-start-reverse"
       inkscape:stockid="Wide arrow"
       markerWidth="1"
       markerHeight="1"
       viewBox="0 0 1 1"
       inkscape:isstock="true"
       inkscape:collect="always"
       preserveAspectRatio="xMidYMid">
      <path
         style="fill:none;stroke:context-stroke;stroke-width:1;stroke-linecap:butt"
         d="M 3,-3 0,0 3,3"
         transform="rotate(180,0.125,0)"
         sodipodi:nodetypes="ccc"
         id="path1-1-7-3" />
    </marker>
    <marker
       style="overflow:visible"
       id="ArrowWide-9-5-4-7-6"
       refX="0"
       refY="0"
       orient="auto-start-reverse"
       inkscape:stockid="Wide arrow"
       markerWidth="1"
       markerHeight="1"
       viewBox="0 0 1 1"
       inkscape:isstock="true"
       inkscape:collect="always"
       preserveAspectRatio="xMidYMid">
      <path
         style="fill:none;stroke:context-stroke;stroke-width:1;stroke-linecap:butt"
         d="M 3,-3 0,0 3,3"
         transform="rotate(180,0.125,0)"
         sodipodi:nodetypes="ccc"
         id="path1-2-9-9-1-8" />
    </marker>
    <rect
       x="481.21094"
       y="718.84491"
       width="118.78907"
       height="73.231277"
       id="rect22-97" />
    <rect
       x="379.27997"
       y="450.96588"
       width="73.332748"
       height="29.781479"
       id="rect25" />
    <rect
       x="469.47"
       y="530.85986"
       width="70.957748"
       height="43.211983"
       id="rect26" />
    <rect
       x="35.361427"
       y="558.61084"
       width="69.801567"
       height="29.423923"
       id="rect27-3" />
    <rect
       x="47.379982"
       y="682.81561"
       width="61.029716"
       height="30.420902"
       id="rect28-0" />
    <rect
       x="104.83415"
       y="471.82153"
       width="75.812149"
       height="35.066513"
       id="rect30-5" />
    <rect
       x="291.50146"
       y="655.17163"
       width="62.668732"
       height="34.865547"
       id="rect2-9" />
    <rect
       x="243.57861"
       y="411.65045"
       width="83.221634"
       height="29.630106"
       id="rect14" />
  </defs>
  <g
     inkscape:label="Layer 1"
     inkscape:groupmode="layer"
     id="layer1"
     transform="translate(-21.652275,-840.03387)">
    <rect
       style="fill:#ffffff;stroke:#ffffff;stroke-width:0.264583;stroke-linejoin:bevel;stroke-dasharray:none;stroke-dashoffset:0"
       id="rect31-7"
       width="131.65997"
       height="90.867363"
       x="21.784567"
       y="840.16614"
       inkscape:export-filename="pole_stator_holderB_top.svg"
       inkscape:export-xdpi="96"
       inkscape:export-ydpi="96" />
    <circle
       style="fill:none;stroke:#000000;stroke-width:0.264584;stroke-linejoin:bevel;stroke-dasharray:none;stroke-dashoffset:0"
       id="circle23"
       cx="85.284004"
       cy="889.80237"
       r="37.503586" />
    <circle
       style="fill:none;stroke:#e6e6e6;stroke-width:0.264584;stroke-linejoin:bevel;stroke-dasharray:none;stroke-dashoffset:0"
       id="path14-4"
       cx="85.284004"
       cy="889.77301"
       r="28.434113" />
    <circle
       style="fill:none;stroke:#e6e6e6;stroke-width:0.264584;stroke-linejoin:bevel;stroke-dasharray:none;stroke-dashoffset:0"
       id="path14-4-1"
       cx="85.284004"
       cy="889.77301"
       r="20.169689" />
    <circle
       style="fill:none;stroke:#000000;stroke-width:0.264583;stroke-linejoin:bevel;stroke-dasharray:none;stroke-dashoffset:0"
       id="circle24"
       cx="84.413399"
       cy="869.8797"
       r="2.6519957" />
    <circle
       style="fill:none;stroke:#000000;stroke-width:0.264583;stroke-linejoin:bevel;stroke-dasharray:none;stroke-dashoffset:0"
       id="path15-6"
       cx="65.607483"
       cy="890.31061"
       r="2.6519957" />
    <circle
       style="fill:none;stroke:#000000;stroke-width:0.264583;stroke-linejoin:bevel;stroke-dasharray:none;stroke-dashoffset:0"
       id="path15-8"
       cx="105.28922"
       cy="889.17096"
       r="2.6519957" />
    <circle
       style="fill:none;stroke:#000000;stroke-width:0.264583;stroke-linejoin:bevel;stroke-dasharray:none;stroke-dashoffset:0"
       id="path15-1"
       cx="86.326843"
       cy="909.7478"
       r="2.6519957" />
    <circle
       style="fill:none;stroke:#e6e6e6;stroke-width:0.264583;stroke-linejoin:bevel;stroke-dasharray:none;stroke-dashoffset:0"
       id="path15-7"
       cx="84.413399"
       cy="869.74744"
       r="4.2080421" />
    <circle
       style="fill:none;stroke:#e6e6e6;stroke-width:0.264583;stroke-linejoin:bevel;stroke-dasharray:none;stroke-dashoffset:0"
       id="path15-7-8"
       cx="65.475189"
       cy="890.31061"
       r="4.2080421" />
    <circle
       style="fill:none;stroke:#e6e6e6;stroke-width:0.264583;stroke-linejoin:bevel;stroke-dasharray:none;stroke-dashoffset:0"
       id="path15-7-9"
       cx="86.326843"
       cy="909.7478"
       r="4.2080421" />
    <circle
       style="fill:none;stroke:#e6e6e6;stroke-width:0.264583;stroke-linejoin:bevel;stroke-dasharray:none;stroke-dashoffset:0"
       id="path15-7-3"
       cx="105.1412"
       cy="889.17096"
       r="4.2080421" />
    <path
       style="fill:none;stroke:#000000;stroke-width:0.264583px;stroke-linecap:butt;stroke-linejoin:miter;stroke-opacity:1"
       d="m 95.266009,916.42078 c 0,0 -0.91891,0.36037 -1.39695,0.33387 -0.47529,-0.0263 -0.9409,-0.22982 -1.34378,-0.48337 -0.23687,-0.14907 -0.598,-0.58937 -0.598,-0.58937 l -1.74912,-7.62626 c 0,0 -0.39299,-0.78859 -0.69157,-1.10382 -0.50349,-0.53157 -1.11144,-1.00408 -1.79539,-1.2654 -0.65591,-0.25076 -1.4011,-0.36725 -2.09232,-0.24376 -0.83024,0.14833 -1.61814,0.59351 -2.25631,1.14491 -0.25624,0.22139 -0.54347,0.64487 -0.78225,0.9916 -0.16368,0.23768 -0.4438,0.74336 -0.4438,0.74336 l -0.91737,8.40553 c 0,0 -0.30162,0.30045 -0.47992,0.41363 -0.29358,0.18635 -0.60888,0.37255 -0.95259,0.42519 -0.40785,0.0625 -0.82814,-0.0474 -1.2295,-0.14311 -0.55091,-0.13131 -1.59479,-0.58592 -1.59479,-0.58592"
       id="path24-5"
       sodipodi:nodetypes="caaaaccasaccaaac" />
    <path
       style="fill:none;stroke:#000000;stroke-width:0.264583px;stroke-linecap:butt;stroke-linejoin:miter;stroke-opacity:1"
       d="m 111.872,879.94823 c 0,0 0.36037,0.91892 0.33387,1.39695 -0.0263,0.4753 -0.22982,0.9409 -0.48337,1.34378 -0.14907,0.23687 -0.58937,0.598 -0.58937,0.598 l -7.62626,1.74913 c 0,0 -0.78859,0.39299 -1.10382,0.69157 -0.53157,0.50349 -1.00408,1.11144 -1.2654,1.79539 -0.25076,0.65591 -0.36725,1.4011 -0.24376,2.09231 0.14833,0.83025 0.59351,1.61815 1.14491,2.25632 0.22139,0.25623 0.64487,0.54346 0.9916,0.78224 0.23768,0.16368 0.74336,0.44381 0.74336,0.44381 l 8.40553,0.91737 c 0,0 0.30045,0.30162 0.41363,0.47992 0.18635,0.29358 0.37255,0.60887 0.42519,0.95259 0.0625,0.40785 -0.0474,0.82814 -0.14311,1.2295 -0.13131,0.5509 -0.58592,1.59479 -0.58592,1.59479"
       id="path16-8"
       sodipodi:nodetypes="caaaaccasaccaaac" />
    <path
       style="fill:none;stroke:#000000;stroke-width:0.264583px;stroke-linecap:butt;stroke-linejoin:miter;stroke-opacity:1"
       d="m 75.407079,863.14503 c 0,0 0.91892,-0.36037 1.39695,-0.33387 0.4753,0.0263 0.9409,0.22982 1.34378,0.48337 0.23687,0.14907 0.598,0.58937 0.598,0.58937 l 1.74913,7.62626 c 0,0 0.39299,0.78859 0.69157,1.10382 0.50349,0.53157 1.11144,1.00408 1.79539,1.2654 0.65591,0.25076 1.4011,0.36725 2.09231,0.24376 0.83025,-0.14833 1.61815,-0.59351 2.25632,-1.14491 0.25623,-0.22139 0.54346,-0.64487 0.78224,-0.9916 0.16368,-0.23768 0.44381,-0.74336 0.44381,-0.74336 l 0.91737,-8.40553 c 0,0 0.30162,-0.30045 0.47992,-0.41363 0.29358,-0.18635 0.60887,-0.37255 0.95259,-0.42519 0.40785,-0.0625 0.82814,0.0474 1.2295,0.14311 0.5509,0.13131 1.59479,0.58592 1.59479,0.58592"
       id="path16-8-6"
       sodipodi:nodetypes="caaaaccasaccaaac" />
    <path
       style="fill:none;stroke:#000000;stroke-width:0.264583px;stroke-linecap:butt;stroke-linejoin:miter;stroke-opacity:1"
       d="m 58.510002,899.44517 c 0,0 -0.36037,-0.91892 -0.33387,-1.39695 0.0263,-0.4753 0.22982,-0.9409 0.48337,-1.34378 0.14907,-0.23687 0.58937,-0.598 0.58937,-0.598 l 7.62626,-1.74913 c 0,0 0.78859,-0.39299 1.10382,-0.69157 0.53157,-0.50349 1.00408,-1.11144 1.2654,-1.79539 0.25076,-0.65591 0.36725,-1.4011 0.24376,-2.09231 -0.14833,-0.83025 -0.59351,-1.61815 -1.14491,-2.25632 -0.22139,-0.25623 -0.64487,-0.54346 -0.9916,-0.78224 -0.23768,-0.16368 -0.74336,-0.44381 -0.74336,-0.44381 l -8.40553,-0.91737 c 0,0 -0.30045,-0.30162 -0.41363,-0.47992 -0.18635,-0.29358 -0.37255,-0.60887 -0.42519,-0.95259 -0.0625,-0.40785 0.0474,-0.82814 0.14311,-1.2295 0.13131,-0.5509 0.58592,-1.59479 0.58592,-1.59479"
       id="path16-8-3"
       sodipodi:nodetypes="caaaaccasaccaaac" />
    <path
       style="fill:none;stroke:#000000;stroke-width:0.264583px;stroke-linecap:butt;stroke-linejoin:miter;stroke-opacity:1"
       d="m 58.092921,881.1215 c 0,0 1.698935,-4.72175 3.041933,-6.81622 1.49144,-2.32598 3.379763,-4.42096 5.46944,-6.22867 1.448007,-1.25262 3.136759,-2.21065 4.816639,-3.12923 1.279436,-0.69961 3.986146,-1.80235 3.986146,-1.80235"
       id="path25"
       sodipodi:nodetypes="caaac" />
    <path
       style="fill:none;stroke:#000000;stroke-width:0.264583px;stroke-linecap:butt;stroke-linejoin:miter;stroke-opacity:1"
       d="m 93.730749,862.72795 c 0,0 2.91161,0.94825 4.2822,1.61928 1.57652,0.77185 3.086091,1.6972 4.491981,2.74821 1.10868,0.82883 2.10866,1.79911 3.08106,2.78429 1.38056,1.3987 2.82944,2.77457 3.89554,4.42555 0.59668,0.92402 0.93344,1.99263 1.36045,3.00629 0.36631,0.86957 1.03002,2.63666 1.03002,2.63666"
       id="path26-06"
       sodipodi:nodetypes="caaaaac" />
    <path
       style="fill:none;stroke:#000000;stroke-width:0.264583px;stroke-linecap:butt;stroke-linejoin:miter;stroke-opacity:1"
       d="m 58.510002,899.44517 c 0,0 1.134585,2.72042 1.846681,4.00733 0.70677,1.27728 1.512904,2.50343 2.396276,3.6656 0.743058,0.97757 1.54987,1.91257 2.431476,2.76729 0.995198,0.96485 2.087599,1.82969 3.207332,2.64673 1.317474,0.96132 2.659156,1.91261 4.117092,2.64358 1.41087,0.70738 4.43349,1.66216 4.43349,1.66216"
       id="path27-4"
       sodipodi:nodetypes="caaaaac" />
    <path
       style="fill:none;stroke:#000000;stroke-width:0.264583px;stroke-linecap:butt;stroke-linejoin:miter;stroke-opacity:1"
       d="m 95.266009,916.42078 c 0,0 3.01136,-1.34247 4.44761,-2.14701 1.497171,-0.83866 3.025821,-1.66939 4.330131,-2.78458 1.53525,-1.31265 2.84429,-2.89019 4.02975,-4.52565 1.10985,-1.53113 2.05407,-3.18962 2.85291,-4.90367 0.56684,-1.21627 1.36267,-3.78797 1.36267,-3.78797"
       id="path28-6"
       sodipodi:nodetypes="caaaac" />
    <circle
       style="fill:none;stroke:#000000;stroke-width:0.264584;stroke-linejoin:bevel;stroke-dasharray:none;stroke-dashoffset:0"
       id="path14-5"
       cx="84.571167"
       cy="890.32727"
       r="33.506947" />
    <rect
       style="fill:none;stroke:#000000;stroke-width:0.264583;stroke-linejoin:bevel;stroke-dasharray:none;stroke-dashoffset:0"
       id="rect20"
       width="8.4033175"
       height="3.3359375"
       x="109.65485"
       y="887.50299" />
    <rect
       style="fill:none;stroke:#000000;stroke-width:0.264583;stroke-linejoin:bevel;stroke-dasharray:none;stroke-dashoffset:0"
       id="rect20-9"
       width="9.7515306"
       height="3.3359375"
       x="51.25103"
       y="888.64264" />
    <rect
       style="fill:none;stroke:#000000;stroke-width:0.264583;stroke-linejoin:bevel;stroke-dasharray:none;stroke-dashoffset:0"
       id="rect20-9-2"
       width="9.5131807"
       height="3.3359375"
       x="914.22046"
       y="-87.99482"
       transform="rotate(90)" />
    <rect
       style="fill:none;stroke:#000000;stroke-width:0.264583;stroke-linejoin:bevel;stroke-dasharray:none;stroke-dashoffset:0"
       id="rect20-9-7"
       width="8.6101046"
       height="3.3359375"
       x="-865.53937"
       y="82.745438"
       transform="rotate(-90)" />
    <path
       style="fill:none;stroke:#cccccc;stroke-width:0.264583px;stroke-linecap:butt;stroke-linejoin:miter;stroke-opacity:1"
       d="m 118.05816,887.50303 h 18.11107"
       id="path29" />
    <path
       style="fill:none;stroke:#cccccc;stroke-width:0.264583px;stroke-linecap:butt;stroke-linejoin:miter;stroke-opacity:1"
       d="m 118.05817,890.83897 h 18.11107"
       id="path21-1" />
    <path
       style="fill:none;stroke:#0000ff;stroke-width:0.264583px;stroke-linecap:butt;stroke-linejoin:miter;stroke-opacity:1;marker-start:url(#ArrowWide-43-91-9);marker-end:url(#ArrowWide-9-5-4-7-6)"
       d="m 136.16923,887.50303 v 3.25122"
       id="path7-0-5-2" />
    <text
       xml:space="preserve"
       transform="matrix(0.26458333,0,0,0.26458333,10.465336,697.16071)"
       id="text22-2"
       style="font-size:14.6667px;line-height:1.25;font-family:sans-serif;white-space:pre;shape-inside:url(#rect22-97);display:inline"><tspan
         x="481.21094"
         y="731.8223"
         id="tspan1">PHE3B</tspan></text>
    <path
       style="fill:none;stroke:#0000ff;stroke-width:0.264583px;stroke-linecap:butt;stroke-linejoin:miter;stroke-opacity:1;marker-start:url(#ArrowWide-96)"
       d="M 97.829619,873.76684 115.87189,850.04355"
       id="path30" />
    <path
       style="fill:none;stroke:#0000ff;stroke-width:0.264583px;stroke-linecap:butt;stroke-linejoin:miter;stroke-opacity:1;marker-start:url(#ArrowWide-96)"
       d="m 110.30273,875.91855 22.42993,-7.60485"
       id="path31-8" />
    <path
       style="fill:none;stroke:#0000ff;stroke-width:0.264583px;stroke-linecap:butt;stroke-linejoin:miter;stroke-opacity:1;marker-start:url(#ArrowWide-96)"
       d="m 63.174482,892.07013 -22.772428,13.955"
       id="path32-6" />
    <path
       style="fill:#999999;stroke:#0000ff;stroke-width:0.264583px;stroke-linecap:butt;stroke-linejoin:miter;stroke-opacity:1;marker-start:url(#ArrowWide-96)"
       d="M 61.668429,887.5133 37.133068,876.72509"
       id="path33-2"
       sodipodi:nodetypes="cc" />
    <text
       xml:space="preserve"
       transform="matrix(0.26458333,0,0,0.26458333,12.30768,726.42761)"
       id="text25"
       style="font-size:14.6667px;line-height:1.25;font-family:sans-serif;white-space:pre;shape-inside:url(#rect25);display:inline"><tspan
         x="379.2793"
         y="463.94339"
         id="tspan2">PHD1B</tspan></text>
    <text
       xml:space="preserve"
       transform="matrix(0.26458333,0,0,0.26458333,5.4182231,723.36648)"
       id="text26"
       style="font-size:14.6667px;line-height:1.25;font-family:sans-serif;white-space:pre;shape-inside:url(#rect26);display:inline"><tspan
         x="469.4707"
         y="543.83597"
         id="tspan3">PHD5B</tspan></text>
    <text
       xml:space="preserve"
       transform="matrix(0.26458333,0,0,0.26458333,14.861784,727.03804)"
       id="text27-7"
       style="font-size:14.6667px;line-height:1.25;font-family:sans-serif;white-space:pre;shape-inside:url(#rect27-3);display:inline"><tspan
         x="35.361328"
         y="571.58792"
         id="tspan4">PHR4B</tspan></text>
    <text
       xml:space="preserve"
       transform="matrix(0.26458333,0,0,0.26458333,14.452298,723.8533)"
       id="text28"
       style="font-size:14.6667px;line-height:1.25;font-family:sans-serif;white-space:pre;shape-inside:url(#rect28-0);display:inline"><tspan
         x="47.380859"
         y="695.793"
         id="tspan5">PHD3B</tspan></text>
    <path
       style="fill:none;stroke:#0000ff;stroke-width:0.264583px;stroke-linecap:butt;stroke-linejoin:miter;stroke-opacity:1;marker-start:url(#ArrowWide-96);marker-end:url(#ArrowWide-96)"
       d="M 64.274503,884.97835 52.650056,851.69807 78.439429,868.41659"
       id="path35-29" />
    <text
       xml:space="preserve"
       transform="matrix(0.26458333,0,0,0.26458333,15.868764,722.35346)"
       id="text30"
       style="font-size:14.6667px;line-height:1.25;font-family:sans-serif;white-space:pre;shape-inside:url(#rect30-5);display:inline"><tspan
         x="104.83398"
         y="484.79886"
         id="tspan6">PHN1AB</tspan></text>
    <text
       xml:space="preserve"
       transform="matrix(0.26458333,0,0,0.26458333,10.057957,724.34082)"
       id="text2"
       style="font-size:14.6667px;line-height:1.25;font-family:sans-serif;white-space:pre;shape-inside:url(#rect2-9);display:inline"><tspan
         x="291.50195"
         y="668.14847"
         id="tspan7">PHR6B</tspan></text>
    <path
       style="fill:none;stroke:#0000ff;stroke-width:0.264583px;stroke-linecap:butt;stroke-linejoin:miter;stroke-opacity:1;marker-end:url(#ArrowWide-96)"
       d="m 100.04485,899.33593 10.93046,-3.86353"
       id="path36" />
    <path
       style="fill:none;stroke:#cccccc;stroke-width:0.264583px;stroke-linecap:butt;stroke-linejoin:miter;stroke-opacity:1"
       d="M 78.708729,862.63107 V 847.89783"
       id="path37-8" />
    <path
       style="fill:none;stroke:#cccccc;stroke-width:0.264583px;stroke-linecap:butt;stroke-linejoin:miter;stroke-opacity:1"
       d="M 89.422669,862.32977 V 847.59653"
       id="path8-5" />
    <path
       style="fill:none;stroke:#0000ff;stroke-width:0.264583px;stroke-linecap:butt;stroke-linejoin:miter;stroke-opacity:1;marker-start:url(#ArrowWide-96);marker-end:url(#ArrowWide-96)"
       d="m 78.658529,847.94638 h 10.68878"
       id="path8-2-13" />
    <text
       xml:space="preserve"
       transform="matrix(0.26458333,0,0,0.26458333,13.657238,734.0587)"
       id="text13"
       style="font-size:14.6667px;line-height:1.25;font-family:sans-serif;white-space:pre;shape-inside:url(#rect14);display:inline"><tspan
         x="243.57812"
         y="424.62698"
         id="tspan8">PHL2B</tspan></text>
  </g>
</svg>
