<?xml version="1.0" encoding="UTF-8" standalone="no"?>
<!-- Created with Inkscape (http://www.inkscape.org/) -->

<svg
   width="482.86664"
   height="343.4357"
   viewBox="0 0 127.75846 90.867362"
   version="1.1"
   id="svg1"
   inkscape:version="1.3.2 (1:1.3.2+202311252150+091e20ef0f)"
   sodipodi:docname="pole_holder.svg"
   xmlns:inkscape="http://www.inkscape.org/namespaces/inkscape"
   xmlns:sodipodi="http://sodipodi.sourceforge.net/DTD/sodipodi-0.dtd"
   xmlns="http://www.w3.org/2000/svg"
   xmlns:svg="http://www.w3.org/2000/svg">
  <sodipodi:namedview
     id="namedview1"
     pagecolor="#ffffff"
     bordercolor="#666666"
     borderopacity="1.0"
     inkscape:showpageshadow="2"
     inkscape:pageopacity="0.0"
     inkscape:pagecheckerboard="0"
     inkscape:deskcolor="#d1d1d1"
     inkscape:document-units="px"
     inkscape:zoom="0.74835468"
     inkscape:cx="252.55404"
     inkscape:cy="276.60681"
     inkscape:window-width="1370"
     inkscape:window-height="836"
     inkscape:window-x="0"
     inkscape:window-y="0"
     inkscape:window-maximized="1"
     inkscape:current-layer="layer1" />
  <defs
     id="defs1">
    <rect
       x="104.83415"
       y="471.82153"
       width="61.849224"
       height="33.015137"
       id="rect30" />
    <rect
       x="456.99472"
       y="477.97827"
       width="66.359116"
       height="29.520491"
       id="rect29" />
    <rect
       x="47.379982"
       y="682.81561"
       width="61.029716"
       height="30.420902"
       id="rect28" />
    <rect
       x="35.361427"
       y="558.61084"
       width="69.801567"
       height="29.423923"
       id="rect27" />
    <rect
       x="469.47"
       y="530.85986"
       width="70.957748"
       height="43.211983"
       id="rect26" />
    <rect
       x="379.27997"
       y="450.96588"
       width="73.332748"
       height="29.781479"
       id="rect25" />
    <rect
       x="481.21094"
       y="718.84491"
       width="118.78907"
       height="73.231277"
       id="rect22" />
    <marker
       style="overflow:visible"
       id="ArrowWide"
       refX="0"
       refY="0"
       orient="auto-start-reverse"
       inkscape:stockid="Wide arrow"
       markerWidth="1"
       markerHeight="1"
       viewBox="0 0 1 1"
       inkscape:isstock="true"
       inkscape:collect="always"
       preserveAspectRatio="xMidYMid">
      <path
         style="fill:none;stroke:context-stroke;stroke-width:1;stroke-linecap:butt"
         d="M 3,-3 0,0 3,3"
         transform="rotate(180,0.125,0)"
         sodipodi:nodetypes="ccc"
         id="path1" />
    </marker>
    <marker
       style="overflow:visible"
       id="ArrowWide-43-91-9"
       refX="0"
       refY="0"
       orient="auto-start-reverse"
       inkscape:stockid="Wide arrow"
       markerWidth="1"
       markerHeight="1"
       viewBox="0 0 1 1"
       inkscape:isstock="true"
       inkscape:collect="always"
       preserveAspectRatio="xMidYMid">
      <path
         style="fill:none;stroke:context-stroke;stroke-width:1;stroke-linecap:butt"
         d="M 3,-3 0,0 3,3"
         transform="rotate(180,0.125,0)"
         sodipodi:nodetypes="ccc"
         id="path1-1-7-3" />
    </marker>
    <marker
       style="overflow:visible"
       id="ArrowWide-9-5-4-7-6"
       refX="0"
       refY="0"
       orient="auto-start-reverse"
       inkscape:stockid="Wide arrow"
       markerWidth="1"
       markerHeight="1"
       viewBox="0 0 1 1"
       inkscape:isstock="true"
       inkscape:collect="always"
       preserveAspectRatio="xMidYMid">
      <path
         style="fill:none;stroke:context-stroke;stroke-width:1;stroke-linecap:butt"
         d="M 3,-3 0,0 3,3"
         transform="rotate(180,0.125,0)"
         sodipodi:nodetypes="ccc"
         id="path1-2-9-9-1-8" />
    </marker>
  </defs>
  <g
     inkscape:label="Layer 1"
     inkscape:groupmode="layer"
     id="layer1"
     transform="translate(-13.476461,-120.2855)">
    <rect
       style="fill:#ffffff;stroke:#ffffff;stroke-width:0;stroke-linejoin:bevel;stroke-dasharray:none;stroke-dashoffset:0"
       id="rect31"
       width="127.75845"
       height="90.867363"
       x="13.47646"
       y="120.28549" />
    <circle
       style="fill:none;stroke:#000000;stroke-width:0.264584;stroke-linejoin:bevel;stroke-dasharray:none;stroke-dashoffset:0"
       id="path14"
       cx="75.547874"
       cy="169.92175"
       r="37.503586" />
    <circle
       style="fill:none;stroke:#e6e6e6;stroke-width:0.264584;stroke-linejoin:bevel;stroke-dasharray:none;stroke-dashoffset:0"
       id="path14-4"
       cx="75.547874"
       cy="169.8924"
       r="28.434113" />
    <circle
       style="fill:none;stroke:#e6e6e6;stroke-width:0.264584;stroke-linejoin:bevel;stroke-dasharray:none;stroke-dashoffset:0"
       id="path14-4-1"
       cx="75.547874"
       cy="169.8924"
       r="20.169689" />
    <circle
       style="fill:none;stroke:#000000;stroke-width:0.264583;stroke-linejoin:bevel;stroke-dasharray:none;stroke-dashoffset:0"
       id="path15"
       cx="74.677269"
       cy="149.99907"
       r="2.6519957" />
    <circle
       style="fill:none;stroke:#000000;stroke-width:0.264583;stroke-linejoin:bevel;stroke-dasharray:none;stroke-dashoffset:0"
       id="path15-6"
       cx="55.871349"
       cy="170.42999"
       r="2.6519957" />
    <circle
       style="fill:none;stroke:#000000;stroke-width:0.264583;stroke-linejoin:bevel;stroke-dasharray:none;stroke-dashoffset:0"
       id="path15-8"
       cx="95.553085"
       cy="169.29034"
       r="2.6519957" />
    <circle
       style="fill:none;stroke:#000000;stroke-width:0.264583;stroke-linejoin:bevel;stroke-dasharray:none;stroke-dashoffset:0"
       id="path15-1"
       cx="76.590714"
       cy="189.86717"
       r="2.6519957" />
    <circle
       style="fill:none;stroke:#e6e6e6;stroke-width:0.264583;stroke-linejoin:bevel;stroke-dasharray:none;stroke-dashoffset:0"
       id="path15-7"
       cx="74.677269"
       cy="149.86678"
       r="4.2080421" />
    <circle
       style="fill:none;stroke:#e6e6e6;stroke-width:0.264583;stroke-linejoin:bevel;stroke-dasharray:none;stroke-dashoffset:0"
       id="path15-7-8"
       cx="55.739056"
       cy="170.42999"
       r="4.2080421" />
    <circle
       style="fill:none;stroke:#e6e6e6;stroke-width:0.264583;stroke-linejoin:bevel;stroke-dasharray:none;stroke-dashoffset:0"
       id="path15-7-9"
       cx="76.590714"
       cy="189.86717"
       r="4.2080421" />
    <circle
       style="fill:none;stroke:#e6e6e6;stroke-width:0.264583;stroke-linejoin:bevel;stroke-dasharray:none;stroke-dashoffset:0"
       id="path15-7-3"
       cx="95.405067"
       cy="169.29034"
       r="4.2080421" />
    <path
       style="fill:none;stroke:#000000;stroke-width:0.264583px;stroke-linecap:butt;stroke-linejoin:miter;stroke-opacity:1"
       d="m 85.529882,196.54012 c 0,0 -0.91892,0.36037 -1.396952,0.33387 -0.475295,-0.0263 -0.940899,-0.22982 -1.343779,-0.48337 -0.236869,-0.14907 -0.598001,-0.58937 -0.598001,-0.58937 l -1.749123,-7.62626 c 0,0 -0.392992,-0.78859 -0.691571,-1.10382 -0.503491,-0.53157 -1.111441,-1.00408 -1.795388,-1.2654 -0.65591,-0.25076 -1.401106,-0.36725 -2.092317,-0.24376 -0.830246,0.14833 -1.618143,0.59351 -2.256319,1.14491 -0.256232,0.22139 -0.543461,0.64487 -0.782243,0.9916 -0.163679,0.23768 -0.443802,0.74336 -0.443802,0.74336 l -0.917372,8.40553 c 0,0 -0.301618,0.30045 -0.479922,0.41363 -0.293577,0.18635 -0.608873,0.37255 -0.952591,0.42519 -0.407844,0.0625 -0.82814,-0.0474 -1.229496,-0.14311 -0.550906,-0.13131 -1.594788,-0.58592 -1.594788,-0.58592"
       id="path16"
       sodipodi:nodetypes="caaaaccasaccaaac" />
    <path
       style="fill:none;stroke:#000000;stroke-width:0.264583px;stroke-linecap:butt;stroke-linejoin:miter;stroke-opacity:1"
       d="m 102.13587,160.06757 c 0,0 0.36037,0.91892 0.33387,1.39695 -0.0263,0.4753 -0.22982,0.9409 -0.48337,1.34378 -0.14907,0.23687 -0.58937,0.598 -0.58937,0.598 l -7.62626,1.74913 c 0,0 -0.78859,0.39299 -1.10382,0.69157 -0.53157,0.50349 -1.00408,1.11144 -1.2654,1.79539 -0.25076,0.65591 -0.36725,1.4011 -0.24376,2.09231 0.14833,0.83025 0.59351,1.61815 1.14491,2.25632 0.22139,0.25623 0.64487,0.54346 0.9916,0.78224 0.23768,0.16368 0.74336,0.44381 0.74336,0.44381 l 8.40553,0.91737 c 0,0 0.30045,0.30162 0.41363,0.47992 0.18635,0.29358 0.37255,0.60887 0.42519,0.95259 0.0625,0.40785 -0.0474,0.82814 -0.14311,1.2295 -0.13131,0.5509 -0.58592,1.59479 -0.58592,1.59479"
       id="path16-8"
       sodipodi:nodetypes="caaaaccasaccaaac" />
    <path
       style="fill:none;stroke:#000000;stroke-width:0.264583px;stroke-linecap:butt;stroke-linejoin:miter;stroke-opacity:1"
       d="m 65.67095,143.26437 c 0,0 0.91892,-0.36037 1.39695,-0.33387 0.4753,0.0263 0.9409,0.22982 1.34378,0.48337 0.23687,0.14907 0.598,0.58937 0.598,0.58937 l 1.74913,7.62626 c 0,0 0.39299,0.78859 0.69157,1.10382 0.50349,0.53157 1.11144,1.00408 1.79539,1.2654 0.65591,0.25076 1.4011,0.36725 2.09231,0.24376 0.83025,-0.14833 1.61815,-0.59351 2.25632,-1.14491 0.25623,-0.22139 0.54346,-0.64487 0.78224,-0.9916 0.16368,-0.23768 0.44381,-0.74336 0.44381,-0.74336 l 0.91737,-8.40553 c 0,0 0.30162,-0.30045 0.47992,-0.41363 0.29358,-0.18635 0.60887,-0.37255 0.95259,-0.42519 0.40785,-0.0625 0.82814,0.0474 1.2295,0.14311 0.5509,0.13131 1.59479,0.58592 1.59479,0.58592"
       id="path16-8-6"
       sodipodi:nodetypes="caaaaccasaccaaac" />
    <path
       style="fill:none;stroke:#000000;stroke-width:0.264583px;stroke-linecap:butt;stroke-linejoin:miter;stroke-opacity:1"
       d="m 48.77387,179.56451 c 0,0 -0.36037,-0.91892 -0.33387,-1.39695 0.0263,-0.4753 0.22982,-0.9409 0.48337,-1.34378 0.14907,-0.23687 0.58937,-0.598 0.58937,-0.598 l 7.62626,-1.74913 c 0,0 0.78859,-0.39299 1.10382,-0.69157 0.53157,-0.50349 1.00408,-1.11144 1.2654,-1.79539 0.25076,-0.65591 0.36725,-1.4011 0.24376,-2.09231 -0.14833,-0.83025 -0.59351,-1.61815 -1.14491,-2.25632 -0.22139,-0.25623 -0.64487,-0.54346 -0.9916,-0.78224 -0.23768,-0.16368 -0.74336,-0.44381 -0.74336,-0.44381 l -8.40553,-0.91737 c 0,0 -0.30045,-0.30162 -0.41363,-0.47992 -0.18635,-0.29358 -0.37255,-0.60887 -0.42519,-0.95259 -0.0625,-0.40785 0.0474,-0.82814 0.14311,-1.2295 0.13131,-0.5509 0.58592,-1.59479 0.58592,-1.59479"
       id="path16-8-3"
       sodipodi:nodetypes="caaaaccasaccaaac" />
    <path
       style="fill:none;stroke:#000000;stroke-width:0.264583px;stroke-linecap:butt;stroke-linejoin:miter;stroke-opacity:1"
       d="m 48.356789,161.24084 c 0,0 1.698935,-4.72175 3.041933,-6.81622 1.49144,-2.32598 3.379763,-4.42096 5.46944,-6.22867 1.448007,-1.25262 3.136759,-2.21065 4.816639,-3.12923 1.27944,-0.69961 3.986149,-1.80235 3.986149,-1.80235"
       id="path17"
       sodipodi:nodetypes="caaac" />
    <path
       style="fill:none;stroke:#000000;stroke-width:0.264583px;stroke-linecap:butt;stroke-linejoin:miter;stroke-opacity:1"
       d="m 83.994619,142.84729 c 0,0 2.911608,0.94825 4.282201,1.61928 1.576518,0.77185 3.086084,1.6972 4.491977,2.74821 1.108683,0.82883 2.108658,1.79911 3.081057,2.78429 1.380559,1.3987 2.829441,2.77457 3.895545,4.42555 0.596681,0.92402 0.933441,1.99263 1.360451,3.00629 0.36631,0.86957 1.03002,2.63666 1.03002,2.63666"
       id="path18"
       sodipodi:nodetypes="caaaaac" />
    <path
       style="fill:none;stroke:#000000;stroke-width:0.264583px;stroke-linecap:butt;stroke-linejoin:miter;stroke-opacity:1"
       d="m 48.77387,179.56451 c 0,0 1.134585,2.72042 1.846681,4.00733 0.70677,1.27728 1.512904,2.50343 2.396276,3.6656 0.743058,0.97757 1.54987,1.91257 2.431476,2.76729 0.995198,0.96485 2.087599,1.82969 3.207332,2.64673 1.317474,0.96132 2.659156,1.91261 4.117088,2.64358 1.410878,0.70738 4.433493,1.66216 4.433493,1.66216"
       id="path19"
       sodipodi:nodetypes="caaaaac" />
    <path
       style="fill:none;stroke:#000000;stroke-width:0.264583px;stroke-linecap:butt;stroke-linejoin:miter;stroke-opacity:1"
       d="m 85.529882,196.54012 c 0,0 3.011356,-1.34247 4.447606,-2.14701 1.497171,-0.83866 3.025818,-1.66939 4.330128,-2.78458 1.535253,-1.31265 2.84429,-2.89019 4.029755,-4.52565 1.109844,-1.53113 2.054069,-3.18962 2.852909,-4.90367 0.56684,-1.21627 1.36267,-3.78797 1.36267,-3.78797"
       id="path20"
       sodipodi:nodetypes="caaaac" />
    <circle
       style="fill:none;stroke:#000000;stroke-width:0.264584;stroke-linejoin:bevel;stroke-dasharray:none;stroke-dashoffset:0"
       id="path14-5"
       cx="74.835045"
       cy="170.44666"
       r="33.506947" />
    <rect
       style="fill:none;stroke:#000000;stroke-width:0.264583;stroke-linejoin:bevel;stroke-dasharray:none;stroke-dashoffset:0"
       id="rect20"
       width="8.4033175"
       height="3.3359375"
       x="99.918716"
       y="167.62238" />
    <rect
       style="fill:none;stroke:#000000;stroke-width:0.264583;stroke-linejoin:bevel;stroke-dasharray:none;stroke-dashoffset:0"
       id="rect20-9"
       width="9.7515306"
       height="3.3359375"
       x="41.5149"
       y="168.76202" />
    <rect
       style="fill:none;stroke:#000000;stroke-width:0.264583;stroke-linejoin:bevel;stroke-dasharray:none;stroke-dashoffset:0"
       id="rect20-9-2"
       width="9.5131807"
       height="3.3359375"
       x="194.3398"
       y="-78.258682"
       transform="rotate(90)" />
    <rect
       style="fill:none;stroke:#000000;stroke-width:0.264583;stroke-linejoin:bevel;stroke-dasharray:none;stroke-dashoffset:0"
       id="rect20-9-7"
       width="8.6101046"
       height="3.3359375"
       x="-145.65874"
       y="73.0093"
       transform="rotate(-90)" />
    <path
       style="fill:none;stroke:#cccccc;stroke-width:0.264583px;stroke-linecap:butt;stroke-linejoin:miter;stroke-opacity:1"
       d="M 108.32203,167.62237 H 126.4331"
       id="path21" />
    <path
       style="fill:none;stroke:#cccccc;stroke-width:0.264583px;stroke-linecap:butt;stroke-linejoin:miter;stroke-opacity:1"
       d="m 108.32204,170.95831 h 18.11107"
       id="path21-1" />
    <path
       style="fill:none;stroke:#000000;stroke-width:0.264583px;stroke-linecap:butt;stroke-linejoin:miter;stroke-opacity:1;marker-start:url(#ArrowWide-43-91-9);marker-end:url(#ArrowWide-9-5-4-7-6)"
       d="m 126.4331,167.62237 v 3.25122"
       id="path7-0-5-2" />
    <text
       xml:space="preserve"
       transform="matrix(0.26458333,0,0,0.26458333,0.72920386,-22.719948)"
       id="text22"
       style="font-size:14.6667px;line-height:1.25;font-family:sans-serif;white-space:pre;shape-inside:url(#rect22)"><tspan
         x="481.21094"
         y="731.8223"
         id="tspan1">PHE3</tspan></text>
    <path
       style="fill:none;stroke:#666666;stroke-width:0.264583px;stroke-linecap:butt;stroke-linejoin:miter;stroke-opacity:1;marker-start:url(#ArrowWide)"
       d="M 88.093488,153.88618 106.13576,130.16289"
       id="path22" />
    <path
       style="fill:none;stroke:#666666;stroke-width:0.264583px;stroke-linecap:butt;stroke-linejoin:miter;stroke-opacity:1;marker-start:url(#ArrowWide)"
       d="m 100.5666,156.03789 22.42993,-7.60485"
       id="path23" />
    <path
       style="fill:none;stroke:#666666;stroke-width:0.264583px;stroke-linecap:butt;stroke-linejoin:miter;stroke-opacity:1;marker-start:url(#ArrowWide)"
       d="m 53.43835,172.18947 -22.772428,13.955"
       id="path24" />
    <path
       style="fill:#999999;stroke:#666666;stroke-width:0.264583px;stroke-linecap:butt;stroke-linejoin:miter;stroke-opacity:1;marker-start:url(#ArrowWide)"
       d="M 51.932297,167.63264 27.396936,156.84443"
       id="path25"
       sodipodi:nodetypes="cc" />
    <text
       xml:space="preserve"
       transform="matrix(0.26458333,0,0,0.26458333,2.5715485,6.5469525)"
       id="text25"
       style="font-size:14.6667px;line-height:1.25;font-family:sans-serif;white-space:pre;shape-inside:url(#rect25)"><tspan
         x="379.2793"
         y="463.94339"
         id="tspan2">PHD1</tspan></text>
    <text
       xml:space="preserve"
       transform="matrix(0.26458333,0,0,0.26458333,-4.3179089,3.4858154)"
       id="text26"
       style="font-size:14.6667px;line-height:1.25;font-family:sans-serif;white-space:pre;shape-inside:url(#rect26)"><tspan
         x="469.4707"
         y="543.83597"
         id="tspan3">PHD5</tspan></text>
    <text
       xml:space="preserve"
       transform="matrix(0.26458333,0,0,0.26458333,7.2423202,7.1573845)"
       id="text27"
       style="font-size:14.6667px;line-height:1.25;font-family:sans-serif;white-space:pre;shape-inside:url(#rect27)"><tspan
         x="35.361328"
         y="571.58792"
         id="tspan4">PHR4</tspan></text>
    <text
       xml:space="preserve"
       transform="matrix(0.26458333,0,0,0.26458333,6.8328336,3.9726419)"
       id="text28"
       style="font-size:14.6667px;line-height:1.25;font-family:sans-serif;white-space:pre;shape-inside:url(#rect28)"><tspan
         x="47.380859"
         y="695.793"
         id="tspan5">PHD3</tspan></text>
    <path
       style="fill:none;stroke:#666666;stroke-width:0.264583px;stroke-linecap:butt;stroke-linejoin:miter;stroke-opacity:1;marker-start:url(#ArrowWide)"
       d="M 104.7761,145.89739 122.19551,133.4961"
       id="path28" />
    <text
       xml:space="preserve"
       transform="matrix(0.26458333,0,0,0.26458333,-1.9555922,2.9126723)"
       id="text29"
       style="font-size:14.6667px;line-height:1.25;font-family:sans-serif;white-space:pre;shape-inside:url(#rect29)"><tspan
         x="456.99414"
         y="490.95511"
         id="tspan6">PHD2</tspan></text>
    <path
       style="fill:none;stroke:#000000;stroke-width:0.264583px;stroke-linecap:butt;stroke-linejoin:miter;stroke-opacity:1;marker-start:url(#ArrowWide);marker-end:url(#ArrowWide)"
       d="M 54.538371,165.09769 42.913924,131.81741 68.703295,148.53593"
       id="path29" />
    <text
       xml:space="preserve"
       transform="matrix(0.26458333,0,0,0.26458333,6.1326321,2.4728021)"
       id="text30"
       style="font-size:14.6667px;line-height:1.25;font-family:sans-serif;white-space:pre;shape-inside:url(#rect30)"><tspan
         x="104.83398"
         y="484.79886"
         id="tspan7">PHN1</tspan></text>
  </g>
</svg>
