<?xml version="1.0" encoding="UTF-8" standalone="no"?>
<!-- Created with Inkscape (http://www.inkscape.org/) -->

<svg
   width="600"
   height="3000"
   viewBox="0 0 158.75 793.75"
   version="1.1"
   id="svg1"
   inkscape:version="1.3 (1:1.3+202307231459+0e150ed6c4)"
   sodipodi:docname="pole_stator.svg"
   xmlns:inkscape="http://www.inkscape.org/namespaces/inkscape"
   xmlns:sodipodi="http://sodipodi.sourceforge.net/DTD/sodipodi-0.dtd"
   xmlns="http://www.w3.org/2000/svg"
   xmlns:svg="http://www.w3.org/2000/svg">
  <sodipodi:namedview
     id="namedview1"
     pagecolor="#ffffff"
     bordercolor="#666666"
     borderopacity="1.0"
     inkscape:showpageshadow="2"
     inkscape:pageopacity="0.0"
     inkscape:pagecheckerboard="0"
     inkscape:deskcolor="#d1d1d1"
     inkscape:document-units="px"
     inkscape:zoom="1.4967094"
     inkscape:cx="214.80456"
     inkscape:cy="709.5566"
     inkscape:window-width="1370"
     inkscape:window-height="836"
     inkscape:window-x="0"
     inkscape:window-y="0"
     inkscape:window-maximized="1"
     inkscape:current-layer="layer1" />
  <defs
     id="defs1">
    <rect
       x="55.143904"
       y="1137.6799"
       width="45.351579"
       height="36.638478"
       id="rect27" />
    <rect
       x="16.064838"
       y="934.69673"
       width="37.464936"
       height="22.095842"
       id="rect24" />
    <rect
       x="33.098548"
       y="733.44058"
       width="37.01095"
       height="28.180364"
       id="rect23" />
    <rect
       x="25.87906"
       y="893.83981"
       width="32.231176"
       height="22.823106"
       id="rect22" />
    <rect
       x="411.64002"
       y="305.32345"
       width="71.022995"
       height="39.359784"
       id="rect19" />
    <rect
       x="378.972"
       y="381.03904"
       width="85.090314"
       height="36.193345"
       id="rect18" />
    <rect
       x="433.15858"
       y="296.91438"
       width="48.267346"
       height="45.717481"
       id="rect8" />
    <rect
       x="407.76694"
       y="207.25415"
       width="46.965009"
       height="45.649624"
       id="rect7" />
    <rect
       x="359.14064"
       y="358.88627"
       width="76.62"
       height="27.985055"
       id="rect6" />
    <rect
       x="348.78599"
       y="275.76745"
       width="64.579172"
       height="35.918923"
       id="rect5" />
    <marker
       style="overflow:visible"
       id="RoundedArrow"
       refX="0"
       refY="0"
       orient="auto-start-reverse"
       inkscape:stockid="Rounded arrow"
       markerWidth="1"
       markerHeight="1"
       viewBox="0 0 1 1"
       inkscape:isstock="true"
       inkscape:collect="always"
       preserveAspectRatio="xMidYMid">
      <path
         transform="scale(0.7)"
         d="m -0.21114562,-4.1055728 6.42229122,3.21114561 a 1,1 90 0 1 0,1.78885438 L -0.21114562,4.1055728 A 1.236068,1.236068 31.717474 0 1 -2,3 v -6 a 1.236068,1.236068 148.28253 0 1 1.78885438,-1.1055728 z"
         style="fill:context-stroke;fill-rule:evenodd;stroke:none"
         id="path8" />
    </marker>
    <rect
       x="9.6259843"
       y="22.433563"
       width="282.18012"
       height="41.560039"
       id="rect1" />
    <marker
       style="overflow:visible"
       id="RoundedArrow-9"
       refX="0"
       refY="0"
       orient="auto-start-reverse"
       inkscape:stockid="Rounded arrow"
       markerWidth="1"
       markerHeight="1"
       viewBox="0 0 1 1"
       inkscape:isstock="true"
       inkscape:collect="always"
       preserveAspectRatio="xMidYMid">
      <path
         transform="scale(0.7)"
         d="m -0.21114562,-4.1055728 6.42229122,3.21114561 a 1,1 90 0 1 0,1.78885438 L -0.21114562,4.1055728 A 1.236068,1.236068 31.717474 0 1 -2,3 v -6 a 1.236068,1.236068 148.28253 0 1 1.78885438,-1.1055728 z"
         style="fill:context-stroke;fill-rule:evenodd;stroke:none"
         id="path8-2" />
    </marker>
    <marker
       style="overflow:visible"
       id="RoundedArrow-9-3"
       refX="0"
       refY="0"
       orient="auto-start-reverse"
       inkscape:stockid="Rounded arrow"
       markerWidth="1"
       markerHeight="1"
       viewBox="0 0 1 1"
       inkscape:isstock="true"
       inkscape:collect="always"
       preserveAspectRatio="xMidYMid">
      <path
         transform="scale(0.7)"
         d="m -0.21114562,-4.1055728 6.42229122,3.21114561 a 1,1 90 0 1 0,1.78885438 L -0.21114562,4.1055728 A 1.236068,1.236068 31.717474 0 1 -2,3 v -6 a 1.236068,1.236068 148.28253 0 1 1.78885438,-1.1055728 z"
         style="fill:context-stroke;fill-rule:evenodd;stroke:none"
         id="path8-2-6" />
    </marker>
    <marker
       style="overflow:visible"
       id="RoundedArrow-1"
       refX="0"
       refY="0"
       orient="auto-start-reverse"
       inkscape:stockid="Rounded arrow"
       markerWidth="1"
       markerHeight="1"
       viewBox="0 0 1 1"
       inkscape:isstock="true"
       inkscape:collect="always"
       preserveAspectRatio="xMidYMid">
      <path
         transform="scale(0.7)"
         d="m -0.21114562,-4.1055728 6.42229122,3.21114561 a 1,1 90 0 1 0,1.78885438 L -0.21114562,4.1055728 A 1.236068,1.236068 31.717474 0 1 -2,3 v -6 a 1.236068,1.236068 148.28253 0 1 1.78885438,-1.1055728 z"
         style="fill:context-stroke;fill-rule:evenodd;stroke:none"
         id="path8-9" />
    </marker>
    <marker
       style="overflow:visible"
       id="RoundedArrow-5"
       refX="0"
       refY="0"
       orient="auto-start-reverse"
       inkscape:stockid="Rounded arrow"
       markerWidth="1"
       markerHeight="1"
       viewBox="0 0 1 1"
       inkscape:isstock="true"
       inkscape:collect="always"
       preserveAspectRatio="xMidYMid">
      <path
         transform="scale(0.7)"
         d="m -0.21114562,-4.1055728 6.42229122,3.21114561 a 1,1 90 0 1 0,1.78885438 L -0.21114562,4.1055728 A 1.236068,1.236068 31.717474 0 1 -2,3 v -6 a 1.236068,1.236068 148.28253 0 1 1.78885438,-1.1055728 z"
         style="fill:context-stroke;fill-rule:evenodd;stroke:none"
         id="path8-6" />
    </marker>
    <rect
       x="348.78598"
       y="275.76746"
       width="64.57917"
       height="35.918922"
       id="rect5-5" />
    <marker
       style="overflow:visible"
       id="RoundedArrow-4"
       refX="0"
       refY="0"
       orient="auto-start-reverse"
       inkscape:stockid="Rounded arrow"
       markerWidth="1"
       markerHeight="1"
       viewBox="0 0 1 1"
       inkscape:isstock="true"
       inkscape:collect="always"
       preserveAspectRatio="xMidYMid">
      <path
         transform="scale(0.7)"
         d="m -0.21114562,-4.1055728 6.42229122,3.21114561 a 1,1 90 0 1 0,1.78885438 L -0.21114562,4.1055728 A 1.236068,1.236068 31.717474 0 1 -2,3 v -6 a 1.236068,1.236068 148.28253 0 1 1.78885438,-1.1055728 z"
         style="fill:context-stroke;fill-rule:evenodd;stroke:none"
         id="path8-3" />
    </marker>
    <marker
       style="overflow:visible"
       id="RoundedArrow-8"
       refX="0"
       refY="0"
       orient="auto-start-reverse"
       inkscape:stockid="Rounded arrow"
       markerWidth="1"
       markerHeight="1"
       viewBox="0 0 1 1"
       inkscape:isstock="true"
       inkscape:collect="always"
       preserveAspectRatio="xMidYMid">
      <path
         transform="scale(0.7)"
         d="m -0.21114562,-4.1055728 6.42229122,3.21114561 a 1,1 90 0 1 0,1.78885438 L -0.21114562,4.1055728 A 1.236068,1.236068 31.717474 0 1 -2,3 v -6 a 1.236068,1.236068 148.28253 0 1 1.78885438,-1.1055728 z"
         style="fill:context-stroke;fill-rule:evenodd;stroke:none"
         id="path8-8" />
    </marker>
    <marker
       style="overflow:visible"
       id="RoundedArrow-4-4"
       refX="0"
       refY="0"
       orient="auto-start-reverse"
       inkscape:stockid="Rounded arrow"
       markerWidth="1"
       markerHeight="1"
       viewBox="0 0 1 1"
       inkscape:isstock="true"
       inkscape:collect="always"
       preserveAspectRatio="xMidYMid">
      <path
         transform="scale(0.7)"
         d="m -0.21114562,-4.1055728 6.42229122,3.21114561 a 1,1 90 0 1 0,1.78885438 L -0.21114562,4.1055728 A 1.236068,1.236068 31.717474 0 1 -2,3 v -6 a 1.236068,1.236068 148.28253 0 1 1.78885438,-1.1055728 z"
         style="fill:context-stroke;fill-rule:evenodd;stroke:none"
         id="path8-3-3" />
    </marker>
    <marker
       style="overflow:visible"
       id="RoundedArrow-6"
       refX="0"
       refY="0"
       orient="auto-start-reverse"
       inkscape:stockid="Rounded arrow"
       markerWidth="1"
       markerHeight="1"
       viewBox="0 0 1 1"
       inkscape:isstock="true"
       inkscape:collect="always"
       preserveAspectRatio="xMidYMid">
      <path
         transform="scale(0.7)"
         d="m -0.21114562,-4.1055728 6.42229122,3.21114561 a 1,1 90 0 1 0,1.78885438 L -0.21114562,4.1055728 A 1.236068,1.236068 31.717474 0 1 -2,3 v -6 a 1.236068,1.236068 148.28253 0 1 1.78885438,-1.1055728 z"
         style="fill:context-stroke;fill-rule:evenodd;stroke:none"
         id="path8-89" />
    </marker>
    <marker
       style="overflow:visible"
       id="RoundedArrow-4-2"
       refX="0"
       refY="0"
       orient="auto-start-reverse"
       inkscape:stockid="Rounded arrow"
       markerWidth="1"
       markerHeight="1"
       viewBox="0 0 1 1"
       inkscape:isstock="true"
       inkscape:collect="always"
       preserveAspectRatio="xMidYMid">
      <path
         transform="scale(0.7)"
         d="m -0.21114562,-4.1055728 6.42229122,3.21114561 a 1,1 90 0 1 0,1.78885438 L -0.21114562,4.1055728 A 1.236068,1.236068 31.717474 0 1 -2,3 v -6 a 1.236068,1.236068 148.28253 0 1 1.78885438,-1.1055728 z"
         style="fill:context-stroke;fill-rule:evenodd;stroke:none"
         id="path8-3-6" />
    </marker>
    <rect
       x="411.64001"
       y="305.32346"
       width="71.022995"
       height="39.359783"
       id="rect19-8" />
    <marker
       style="overflow:visible"
       id="RoundedArrow-9-2"
       refX="0"
       refY="0"
       orient="auto-start-reverse"
       inkscape:stockid="Rounded arrow"
       markerWidth="1"
       markerHeight="1"
       viewBox="0 0 1 1"
       inkscape:isstock="true"
       inkscape:collect="always"
       preserveAspectRatio="xMidYMid">
      <path
         transform="scale(0.7)"
         d="m -0.21114562,-4.1055728 6.42229122,3.21114561 a 1,1 90 0 1 0,1.78885438 L -0.21114562,4.1055728 A 1.236068,1.236068 31.717474 0 1 -2,3 v -6 a 1.236068,1.236068 148.28253 0 1 1.78885438,-1.1055728 z"
         style="fill:context-stroke;fill-rule:evenodd;stroke:none"
         id="path8-2-2" />
    </marker>
    <marker
       style="overflow:visible"
       id="RoundedArrow-9-3-6"
       refX="0"
       refY="0"
       orient="auto-start-reverse"
       inkscape:stockid="Rounded arrow"
       markerWidth="1"
       markerHeight="1"
       viewBox="0 0 1 1"
       inkscape:isstock="true"
       inkscape:collect="always"
       preserveAspectRatio="xMidYMid">
      <path
         transform="scale(0.7)"
         d="m -0.21114562,-4.1055728 6.42229122,3.21114561 a 1,1 90 0 1 0,1.78885438 L -0.21114562,4.1055728 A 1.236068,1.236068 31.717474 0 1 -2,3 v -6 a 1.236068,1.236068 148.28253 0 1 1.78885438,-1.1055728 z"
         style="fill:context-stroke;fill-rule:evenodd;stroke:none"
         id="path8-2-6-1" />
    </marker>
    <rect
       x="407.76694"
       y="207.25415"
       width="46.965008"
       height="45.649624"
       id="rect7-6" />
    <rect
       x="433.15857"
       y="296.91437"
       width="48.267345"
       height="45.71748"
       id="rect8-1" />
    <marker
       style="overflow:visible"
       id="RoundedArrow-7"
       refX="0"
       refY="0"
       orient="auto-start-reverse"
       inkscape:stockid="Rounded arrow"
       markerWidth="1"
       markerHeight="1"
       viewBox="0 0 1 1"
       inkscape:isstock="true"
       inkscape:collect="always"
       preserveAspectRatio="xMidYMid">
      <path
         transform="scale(0.7)"
         d="m -0.21114562,-4.1055728 6.42229122,3.21114561 a 1,1 90 0 1 0,1.78885438 L -0.21114562,4.1055728 A 1.236068,1.236068 31.717474 0 1 -2,3 v -6 a 1.236068,1.236068 148.28253 0 1 1.78885438,-1.1055728 z"
         style="fill:context-stroke;fill-rule:evenodd;stroke:none"
         id="path8-67" />
    </marker>
    <rect
       x="348.78598"
       y="275.76746"
       width="64.57917"
       height="35.918922"
       id="rect5-3" />
    <rect
       x="348.78598"
       y="275.76746"
       width="64.57917"
       height="35.918922"
       id="rect5-5-6" />
    <marker
       style="overflow:visible"
       id="RoundedArrow-1-9"
       refX="0"
       refY="0"
       orient="auto-start-reverse"
       inkscape:stockid="Rounded arrow"
       markerWidth="1"
       markerHeight="1"
       viewBox="0 0 1 1"
       inkscape:isstock="true"
       inkscape:collect="always"
       preserveAspectRatio="xMidYMid">
      <path
         transform="scale(0.7)"
         d="m -0.21114562,-4.1055728 6.42229122,3.21114561 a 1,1 90 0 1 0,1.78885438 L -0.21114562,4.1055728 A 1.236068,1.236068 31.717474 0 1 -2,3 v -6 a 1.236068,1.236068 148.28253 0 1 1.78885438,-1.1055728 z"
         style="fill:context-stroke;fill-rule:evenodd;stroke:none"
         id="path8-9-6" />
    </marker>
    <rect
       x="359.14062"
       y="358.88626"
       width="76.620003"
       height="27.985056"
       id="rect6-3" />
    <marker
       style="overflow:visible"
       id="RoundedArrow-7-9"
       refX="0"
       refY="0"
       orient="auto-start-reverse"
       inkscape:stockid="Rounded arrow"
       markerWidth="1"
       markerHeight="1"
       viewBox="0 0 1 1"
       inkscape:isstock="true"
       inkscape:collect="always"
       preserveAspectRatio="xMidYMid">
      <path
         transform="scale(0.7)"
         d="m -0.21114562,-4.1055728 6.42229122,3.21114561 a 1,1 90 0 1 0,1.78885438 L -0.21114562,4.1055728 A 1.236068,1.236068 31.717474 0 1 -2,3 v -6 a 1.236068,1.236068 148.28253 0 1 1.78885438,-1.1055728 z"
         style="fill:context-stroke;fill-rule:evenodd;stroke:none"
         id="path8-67-7" />
    </marker>
    <marker
       style="overflow:visible"
       id="RoundedArrow-7-9-3"
       refX="0"
       refY="0"
       orient="auto-start-reverse"
       inkscape:stockid="Rounded arrow"
       markerWidth="1"
       markerHeight="1"
       viewBox="0 0 1 1"
       inkscape:isstock="true"
       inkscape:collect="always"
       preserveAspectRatio="xMidYMid">
      <path
         transform="scale(0.7)"
         d="m -0.21114562,-4.1055728 6.42229122,3.21114561 a 1,1 90 0 1 0,1.78885438 L -0.21114562,4.1055728 A 1.236068,1.236068 31.717474 0 1 -2,3 v -6 a 1.236068,1.236068 148.28253 0 1 1.78885438,-1.1055728 z"
         style="fill:context-stroke;fill-rule:evenodd;stroke:none"
         id="path8-67-7-1" />
    </marker>
    <marker
       style="overflow:visible"
       id="RoundedArrow-7-9-33"
       refX="0"
       refY="0"
       orient="auto-start-reverse"
       inkscape:stockid="Rounded arrow"
       markerWidth="1"
       markerHeight="1"
       viewBox="0 0 1 1"
       inkscape:isstock="true"
       inkscape:collect="always"
       preserveAspectRatio="xMidYMid">
      <path
         transform="scale(0.7)"
         d="m -0.21114562,-4.1055728 6.42229122,3.21114561 a 1,1 90 0 1 0,1.78885438 L -0.21114562,4.1055728 A 1.236068,1.236068 31.717474 0 1 -2,3 v -6 a 1.236068,1.236068 148.28253 0 1 1.78885438,-1.1055728 z"
         style="fill:context-stroke;fill-rule:evenodd;stroke:none"
         id="path8-67-7-3" />
    </marker>
    <marker
       style="overflow:visible"
       id="RoundedArrow-7-7"
       refX="0"
       refY="0"
       orient="auto-start-reverse"
       inkscape:stockid="Rounded arrow"
       markerWidth="1"
       markerHeight="1"
       viewBox="0 0 1 1"
       inkscape:isstock="true"
       inkscape:collect="always"
       preserveAspectRatio="xMidYMid">
      <path
         transform="scale(0.7)"
         d="m -0.21114562,-4.1055728 6.42229122,3.21114561 a 1,1 90 0 1 0,1.78885438 L -0.21114562,4.1055728 A 1.236068,1.236068 31.717474 0 1 -2,3 v -6 a 1.236068,1.236068 148.28253 0 1 1.78885438,-1.1055728 z"
         style="fill:context-stroke;fill-rule:evenodd;stroke:none"
         id="path8-67-2" />
    </marker>
    <marker
       style="overflow:visible"
       id="RoundedArrow-7-7-9"
       refX="0"
       refY="0"
       orient="auto-start-reverse"
       inkscape:stockid="Rounded arrow"
       markerWidth="1"
       markerHeight="1"
       viewBox="0 0 1 1"
       inkscape:isstock="true"
       inkscape:collect="always"
       preserveAspectRatio="xMidYMid">
      <path
         transform="scale(0.7)"
         d="m -0.21114562,-4.1055728 6.42229122,3.21114561 a 1,1 90 0 1 0,1.78885438 L -0.21114562,4.1055728 A 1.236068,1.236068 31.717474 0 1 -2,3 v -6 a 1.236068,1.236068 148.28253 0 1 1.78885438,-1.1055728 z"
         style="fill:context-stroke;fill-rule:evenodd;stroke:none"
         id="path8-67-2-9" />
    </marker>
    <marker
       style="overflow:visible"
       id="RoundedArrow-7-7-9-1"
       refX="0"
       refY="0"
       orient="auto-start-reverse"
       inkscape:stockid="Rounded arrow"
       markerWidth="1"
       markerHeight="1"
       viewBox="0 0 1 1"
       inkscape:isstock="true"
       inkscape:collect="always"
       preserveAspectRatio="xMidYMid">
      <path
         transform="scale(0.7)"
         d="m -0.21114562,-4.1055728 6.42229122,3.21114561 a 1,1 90 0 1 0,1.78885438 L -0.21114562,4.1055728 A 1.236068,1.236068 31.717474 0 1 -2,3 v -6 a 1.236068,1.236068 148.28253 0 1 1.78885438,-1.1055728 z"
         style="fill:context-stroke;fill-rule:evenodd;stroke:none"
         id="path8-67-2-9-1" />
    </marker>
    <rect
       x="348.78598"
       y="275.76746"
       width="64.57917"
       height="35.918922"
       id="rect5-3-3" />
    <rect
       x="348.78598"
       y="275.76746"
       width="64.57917"
       height="35.918922"
       id="rect5-3-3-3" />
    <rect
       x="348.78598"
       y="275.76746"
       width="64.57917"
       height="35.918922"
       id="rect5-3-3-0" />
    <marker
       style="overflow:visible"
       id="RoundedArrow-7-7-9-2"
       refX="0"
       refY="0"
       orient="auto-start-reverse"
       inkscape:stockid="Rounded arrow"
       markerWidth="1"
       markerHeight="1"
       viewBox="0 0 1 1"
       inkscape:isstock="true"
       inkscape:collect="always"
       preserveAspectRatio="xMidYMid">
      <path
         transform="scale(0.7)"
         d="m -0.21114562,-4.1055728 6.42229122,3.21114561 a 1,1 90 0 1 0,1.78885438 L -0.21114562,4.1055728 A 1.236068,1.236068 31.717474 0 1 -2,3 v -6 a 1.236068,1.236068 148.28253 0 1 1.78885438,-1.1055728 z"
         style="fill:context-stroke;fill-rule:evenodd;stroke:none"
         id="path8-67-2-9-9" />
    </marker>
    <rect
       x="348.78598"
       y="275.76746"
       width="64.57917"
       height="35.918922"
       id="rect5-3-3-3-7" />
  </defs>
  <g
     inkscape:label="Layer 1"
     inkscape:groupmode="layer"
     id="layer1">
    <rect
       style="fill:#ffffff;stroke:#ffffff;stroke-width:0.264583;stroke-dasharray:none;stroke-dashoffset:0"
       id="rect30"
       width="76.055412"
       height="95.490479"
       x="14.10968"
       y="25.286663"
       inkscape:export-filename="pole_stator_cut.svg"
       inkscape:export-xdpi="96"
       inkscape:export-ydpi="96" />
    <rect
       style="fill:#ffffff;stroke:#ffffff;stroke-width:0.264583;stroke-dasharray:none;stroke-dashoffset:0"
       id="rect29"
       width="80.158562"
       height="94.605225"
       x="12.136825"
       y="151.16039"
       inkscape:export-filename="pole_stator_face.svg"
       inkscape:export-xdpi="96"
       inkscape:export-ydpi="96" />
    <rect
       style="fill:#ffffff;stroke:#ffffff;stroke-width:0.264583;stroke-dasharray:none;stroke-dashoffset:0"
       id="rect28"
       width="109.77625"
       height="63.752167"
       x="6.5731926"
       y="253.64969"
       inkscape:export-filename="pole_stator_bottom.svg"
       inkscape:export-xdpi="96"
       inkscape:export-ydpi="96" />
    <text
       xml:space="preserve"
       transform="matrix(0.26458333,0,0,0.26458333,1.4550781,-2.1445313)"
       id="text1"
       style="font-size:14.6667px;line-height:1.25;font-family:sans-serif;white-space:pre;shape-inside:url(#rect1);display:inline"><tspan
         x="9.6269531"
         y="35.410186"
         id="tspan3">pole_stator.svg</tspan></text>
    <rect
       style="fill:#ececec;stroke:#333333;stroke-width:0.264583;stroke-dasharray:none"
       id="rect2"
       width="21.021925"
       height="2.7220848"
       x="38.408436"
       y="99.455536" />
    <path
       style="fill:#cccccc;stroke:#000000;stroke-width:0.264583px;stroke-linecap:butt;stroke-linejoin:miter;stroke-opacity:1"
       d="m 59.430357,99.455537 h 5.31181 V 85.452888 L 54.048558,43.614815 h 2.177254 l 11.180757,41.727154 0.04318,16.967951 -8.019392,-0.1323 z"
       id="path2"
       sodipodi:nodetypes="ccccccccc" />
    <path
       style="fill:#cccccc;stroke:#000000;stroke-width:0.264583px;stroke-linecap:butt;stroke-linejoin:miter;stroke-opacity:1"
       d="m 38.408434,99.455539 h -5.31181 V 85.45289 L 43.790233,43.614817 h -2.177254 l -11.180757,41.727154 -0.04318,16.967949 8.019392,-0.1323 z"
       id="path2-5"
       sodipodi:nodetypes="ccccccccc" />
    <path
       style="fill:#f2f2f2;stroke:#000000;stroke-width:0.264583px;stroke-linecap:butt;stroke-linejoin:miter;stroke-opacity:1"
       d="m 43.790233,43.614817 10.258325,-2e-6 10.693609,41.838073 V 99.455537 H 33.096624 V 85.45289 Z"
       id="path3" />
    <path
       style="fill:#cccccc;stroke:#cccccc;stroke-width:0.264583px;stroke-linecap:butt;stroke-linejoin:miter;stroke-opacity:1"
       d="M 67.406568,85.341969 H 79.642981"
       id="path4" />
    <path
       style="fill:#cccccc;stroke:#cccccc;stroke-width:0.264583px;stroke-linecap:butt;stroke-linejoin:miter;stroke-opacity:1"
       d="M 67.449749,102.30992 H 79.686162"
       id="path4-2" />
    <path
       style="fill:#cccccc;stroke:#cccccc;stroke-width:0.264583px;stroke-linecap:butt;stroke-linejoin:miter;stroke-opacity:1"
       d="m 23.602026,102.44442 h 7.66585"
       id="path4-2-0" />
    <path
       style="fill:#cccccc;stroke:#cccccc;stroke-width:0.264582px;stroke-linecap:butt;stroke-linejoin:miter;stroke-opacity:1"
       d="M 56.22581,43.614814 H 79.642979"
       id="path4-7" />
    <path
       style="fill:#cccccc;stroke:#cccccc;stroke-width:0.264583px;stroke-linecap:butt;stroke-linejoin:miter;stroke-opacity:1"
       d="M 56.358101,43.482523 V 31.246113"
       id="path4-6" />
    <path
       style="fill:#cccccc;stroke:#cccccc;stroke-width:0.264583px;stroke-linecap:butt;stroke-linejoin:miter;stroke-opacity:1"
       d="M 41.612979,43.614817 V 31.378407"
       id="path4-6-6" />
    <path
       style="fill:#cccccc;stroke:#cccccc;stroke-width:0.264583px;stroke-linecap:butt;stroke-linejoin:miter;stroke-opacity:1"
       d="M 67.714675,114.68083 V 102.44442"
       id="path4-6-9" />
    <path
       style="fill:#cccccc;stroke:#cccccc;stroke-width:0.264583px;stroke-linecap:butt;stroke-linejoin:miter;stroke-opacity:1"
       d="M 30.388699,114.68083 V 102.44442"
       id="path4-6-3" />
    <path
       style="fill:none;stroke:#000000;stroke-width:0.264583px;stroke-linecap:butt;stroke-linejoin:miter;stroke-opacity:1;marker-start:url(#RoundedArrow);marker-end:url(#RoundedArrow)"
       d="M 31.727282,114.68083 H 66.419653"
       id="path5" />
    <path
       style="fill:none;stroke:#000000;stroke-width:0.264583px;stroke-linecap:butt;stroke-linejoin:miter;stroke-opacity:1;marker-start:url(#RoundedArrow-9);marker-end:url(#RoundedArrow-9)"
       d="M 79.642981,101.10697 V 86.544922"
       id="path5-8" />
    <path
       style="fill:none;stroke:#000000;stroke-width:0.264583px;stroke-linecap:butt;stroke-linejoin:miter;stroke-opacity:1;marker-start:url(#RoundedArrow-9-3);marker-end:url(#RoundedArrow-9-3)"
       d="M 79.642975,83.850477 V 45.1063"
       id="path5-8-2" />
    <path
       style="fill:none;stroke:#000000;stroke-width:0.264583px;stroke-linecap:butt;stroke-linejoin:miter;stroke-opacity:1;marker-start:url(#RoundedArrow-1);marker-end:url(#RoundedArrow-1)"
       d="M 42.646573,31.378407 H 55.324506"
       id="path5-7" />
    <text
       xml:space="preserve"
       transform="matrix(0.26458333,0,0,0.26458333,-45.539674,42.005181)"
       id="text5"
       style="font-size:14.6667px;line-height:1.25;font-family:sans-serif;white-space:pre;shape-inside:url(#rect5);display:inline"><tspan
         x="348.78516"
         y="288.74417"
         id="tspan4">D1</tspan></text>
    <text
       xml:space="preserve"
       transform="matrix(0.26458333,0,0,0.26458333,-45.706794,32.661003)"
       id="text5-5"
       style="font-size:14.6667px;line-height:1.25;font-family:sans-serif;white-space:pre;shape-inside:url(#rect5-5);display:inline"><tspan
         x="348.78516"
         y="288.74417"
         id="tspan5">D3</tspan></text>
    <text
       xml:space="preserve"
       transform="matrix(0.26458333,0,0,0.26458333,-48.05633,-67.776599)"
       id="text6"
       style="font-size:14.6667px;line-height:1.25;font-family:sans-serif;white-space:pre;shape-inside:url(#rect6);display:inline"><tspan
         x="359.14062"
         y="371.86331"
         id="tspan9">D2</tspan></text>
    <text
       xml:space="preserve"
       transform="matrix(0.26458333,0,0,0.26458333,-27.434224,36.698428)"
       id="text7"
       style="font-size:14.6667px;line-height:1.25;font-family:sans-serif;white-space:pre;shape-inside:url(#rect7);display:inline"><tspan
         x="407.76758"
         y="220.2305"
         id="tspan10">H1</tspan></text>
    <text
       xml:space="preserve"
       transform="matrix(0.26458333,0,0,0.26458333,-33.708416,-15.923713)"
       id="text8"
       style="font-size:14.6667px;line-height:1.25;font-family:sans-serif;white-space:pre;shape-inside:url(#rect8);display:inline"><tspan
         x="433.1582"
         y="309.89065"
         id="tspan11">H2</tspan></text>
    <path
       style="fill:#cccccc;stroke:#cccccc;stroke-width:0.264583px;stroke-linecap:butt;stroke-linejoin:miter;stroke-opacity:1"
       d="m 23.602027,99.720124 h 9.362307"
       id="path4-2-06" />
    <path
       style="fill:#cccccc;stroke:#cccccc;stroke-width:0.264583px;stroke-linecap:butt;stroke-linejoin:miter;stroke-opacity:1"
       d="M 38.408436,109.60818 V 102.3595"
       id="path4-6-3-6" />
    <path
       style="fill:#cccccc;stroke:#cccccc;stroke-width:0.264583px;stroke-linecap:butt;stroke-linejoin:miter;stroke-opacity:1"
       d="m 59.430357,109.4263 v -7.24868"
       id="path4-6-3-6-4" />
    <path
       style="fill:none;stroke:#000000;stroke-width:0.264583px;stroke-linecap:butt;stroke-linejoin:miter;stroke-opacity:1;marker-start:url(#RoundedArrow-5);marker-end:url(#RoundedArrow-5)"
       d="m 39.524598,109.60818 h 19.09774"
       id="path5-3" />
    <path
       style="fill:none;stroke:#000000;stroke-width:0.264583px;stroke-linecap:butt;stroke-linejoin:miter;stroke-opacity:1;marker-end:url(#RoundedArrow)"
       d="m 23.840831,106.55375 10e-7,-2.7243"
       id="path18" />
    <path
       style="fill:none;stroke:#000000;stroke-width:0.264583px;stroke-linecap:butt;stroke-linejoin:miter;stroke-opacity:1;marker-end:url(#RoundedArrow-4)"
       d="m 23.840832,95.610798 1e-6,2.7243"
       id="path18-7" />
    <text
       xml:space="preserve"
       transform="matrix(0.26458333,0,0,0.26458333,-82.724135,-1.8780535)"
       id="text18"
       style="font-size:14.6667px;line-height:1.25;font-family:sans-serif;white-space:pre;shape-inside:url(#rect18);display:inline"><tspan
         x="378.97266"
         y="394.01565"
         id="tspan12">E1</tspan></text>
    <path
       style="fill:none;stroke:#000000;stroke-width:0.264583px;stroke-linecap:butt;stroke-linejoin:miter;stroke-opacity:1;marker-end:url(#RoundedArrow-8)"
       d="m 37.277573,90.009015 h -2.7243"
       id="path18-4" />
    <path
       style="fill:none;stroke:#000000;stroke-width:0.264583px;stroke-linecap:butt;stroke-linejoin:miter;stroke-opacity:1;marker-end:url(#RoundedArrow-4-4)"
       d="m 26.334613,90.009015 h 2.7243"
       id="path18-7-9" />
    <text
       xml:space="preserve"
       transform="matrix(0.26458333,0,0,0.26458333,-87.931214,6.7886394)"
       id="text19"
       style="font-size:14.6667px;line-height:1.25;font-family:sans-serif;white-space:pre;shape-inside:url(#rect19);display:inline"><tspan
         x="411.64062"
         y="318.30081"
         id="tspan13">E2</tspan></text>
    <path
       style="fill:none;stroke:#000000;stroke-width:0.264583px;stroke-linecap:butt;stroke-linejoin:miter;stroke-opacity:1;marker-end:url(#RoundedArrow-6)"
       d="m 41.162883,70.529613 -2.64789,-0.640706"
       id="path18-49" />
    <path
       style="fill:none;stroke:#000000;stroke-width:0.264583px;stroke-linecap:butt;stroke-linejoin:miter;stroke-opacity:1;marker-end:url(#RoundedArrow-4-2)"
       d="m 30.792383,67.883523 2.64789,0.640696"
       id="path18-7-5" />
    <text
       xml:space="preserve"
       transform="matrix(0.26458333,0,0,0.26458333,-84.086871,-15.363567)"
       id="text19-1"
       style="font-size:14.6667px;line-height:1.25;font-family:sans-serif;white-space:pre;shape-inside:url(#rect19-8);display:inline"><tspan
         x="411.64062"
         y="318.30081"
         id="tspan14">E2</tspan></text>
    <path
       style="fill:#f9f9f9;stroke:#000000;stroke-width:0.264583px;stroke-linecap:butt;stroke-linejoin:miter;stroke-opacity:1"
       d="m 42.176528,169.16315 14.61284,0 11.18075,41.72715 0.0432,16.96795 H 30.952592 l 0.04318,-16.96795 11.180756,-41.72715"
       id="path19" />
    <path
       style="fill:none;stroke:#000000;stroke-width:0.264583px;stroke-linecap:butt;stroke-linejoin:miter;stroke-opacity:1"
       d="M 30.995772,210.8903 H 67.970118"
       id="path20" />
    <path
       style="fill:#cccccc;stroke:#cccccc;stroke-width:0.264583px;stroke-linecap:butt;stroke-linejoin:miter;stroke-opacity:1"
       d="m 67.918018,210.75801 h 12.23641"
       id="path4-9" />
    <path
       style="fill:#cccccc;stroke:#cccccc;stroke-width:0.264582px;stroke-linecap:butt;stroke-linejoin:miter;stroke-opacity:1"
       d="m 56.737258,169.03086 h 23.41717"
       id="path4-7-4" />
    <path
       style="fill:none;stroke:#000000;stroke-width:0.264583px;stroke-linecap:butt;stroke-linejoin:miter;stroke-opacity:1;marker-start:url(#RoundedArrow-9-2);marker-end:url(#RoundedArrow-9-2)"
       d="M 80.154428,226.52301 V 211.96096"
       id="path5-8-9" />
    <path
       style="fill:none;stroke:#000000;stroke-width:0.264583px;stroke-linecap:butt;stroke-linejoin:miter;stroke-opacity:1;marker-start:url(#RoundedArrow-9-3-6);marker-end:url(#RoundedArrow-9-3-6)"
       d="M 80.154428,209.26652 V 170.52234"
       id="path5-8-2-0" />
    <text
       xml:space="preserve"
       transform="matrix(0.26458333,0,0,0.26458333,-26.922769,162.11447)"
       id="text7-9"
       style="font-size:14.6667px;line-height:1.25;font-family:sans-serif;white-space:pre;shape-inside:url(#rect7-6);display:inline"><tspan
         x="407.76758"
         y="220.2305"
         id="tspan15">H1</tspan></text>
    <text
       xml:space="preserve"
       transform="matrix(0.26458333,0,0,0.26458333,-33.196961,109.49233)"
       id="text8-7"
       style="font-size:14.6667px;line-height:1.25;font-family:sans-serif;white-space:pre;shape-inside:url(#rect8-1);display:inline"><tspan
         x="433.1582"
         y="309.89065"
         id="tspan16">H2</tspan></text>
    <path
       style="fill:#cccccc;stroke:#cccccc;stroke-width:0.264583px;stroke-linecap:butt;stroke-linejoin:miter;stroke-opacity:1"
       d="m 68.013318,227.85825 h 12.23641"
       id="path4-2-5" />
    <path
       style="fill:#cccccc;stroke:#cccccc;stroke-width:0.264583px;stroke-linecap:butt;stroke-linejoin:miter;stroke-opacity:1"
       d="M 67.881028,240.22695 V 227.99054"
       id="path4-6-9-4" />
    <path
       style="fill:#cccccc;stroke:#cccccc;stroke-width:0.264583px;stroke-linecap:butt;stroke-linejoin:miter;stroke-opacity:1"
       d="M 30.819963,240.22695 V 227.99054"
       id="path4-6-3-8" />
    <path
       style="fill:none;stroke:#000000;stroke-width:0.264583px;stroke-linecap:butt;stroke-linejoin:miter;stroke-opacity:1;marker-start:url(#RoundedArrow-7);marker-end:url(#RoundedArrow-7)"
       d="M 31.893634,240.22695 H 66.586008"
       id="path5-1" />
    <path
       style="fill:none;stroke:#000000;stroke-width:0.264583px;stroke-linecap:butt;stroke-linejoin:miter;stroke-opacity:1;marker-start:url(#RoundedArrow-7-7-9);marker-end:url(#RoundedArrow-7-7-9)"
       d="m 95.407237,302.34517 v -3.18481"
       id="path5-1-0-8" />
    <text
       xml:space="preserve"
       transform="matrix(0.26458333,0,0,0.26458333,-45.373322,167.55131)"
       id="text5-2"
       style="font-size:14.6667px;line-height:1.25;font-family:sans-serif;white-space:pre;shape-inside:url(#rect5-3);display:inline"><tspan
         x="348.78516"
         y="288.74417"
         id="tspan17">D1</tspan></text>
    <path
       style="fill:#cccccc;stroke:#cccccc;stroke-width:0.264583px;stroke-linecap:butt;stroke-linejoin:miter;stroke-opacity:1"
       d="M 56.869548,168.89857 V 156.66216"
       id="path4-6-5" />
    <path
       style="fill:#cccccc;stroke:#cccccc;stroke-width:0.264583px;stroke-linecap:butt;stroke-linejoin:miter;stroke-opacity:1"
       d="M 42.124418,169.03086 V 156.79445"
       id="path4-6-6-6" />
    <path
       style="fill:none;stroke:#000000;stroke-width:0.264583px;stroke-linecap:butt;stroke-linejoin:miter;stroke-opacity:1;marker-start:url(#RoundedArrow-1-9);marker-end:url(#RoundedArrow-1-9)"
       d="m 43.158018,156.79445 h 12.67793"
       id="path5-7-1" />
    <text
       xml:space="preserve"
       transform="matrix(0.26458333,0,0,0.26458333,-47.54489,57.639445)"
       id="text6-1"
       style="font-size:14.6667px;line-height:1.25;font-family:sans-serif;white-space:pre;shape-inside:url(#rect6-3);display:inline"><tspan
         x="359.14062"
         y="371.86331"
         id="tspan18">D2</tspan></text>
    <circle
       style="fill:#f9f9f9;stroke:#cccccc;stroke-width:0.264583;stroke-dasharray:none"
       id="path21"
       cx="117.28076"
       cy="218.47411"
       r="4.5415039" />
    <circle
       style="fill:#f9f9f9;stroke:#cccccc;stroke-width:0.264583;stroke-dasharray:none"
       id="path21-0"
       cx="117.28076"
       cy="223.1479"
       r="4.5415039" />
    <path
       style="fill:#e6e6e6;stroke:#000000;stroke-width:0.264583px;stroke-linecap:butt;stroke-linejoin:miter;stroke-opacity:1"
       d="m 51.981926,216.24353 v 3.75912 c 0,0 -0.19411,1.5987 -0.63383,2.17743 -0.62947,0.82844 -1.61964,1.42353 -2.58198,1.47529 -0.77728,0.0418 -1.61345,-0.35087 -2.17525,-0.96243 -0.62258,-0.67774 -1.04056,-2.69029 -1.04056,-2.69029 v -3.75912 c 0,0 0.33389,-1.87685 0.89227,-2.52523 0.58893,-0.68388 1.48189,-1.0921 2.32354,-1.12748 0.69372,-0.0292 1.44962,0.2446 1.9704,0.76599 0.70773,0.70854 1.24541,2.88672 1.24541,2.88672 z"
       id="path22"
       sodipodi:nodetypes="ccaaaccaaac" />
    <path
       style="fill:#cccccc;stroke:#cccccc;stroke-width:0.264583px;stroke-linecap:butt;stroke-linejoin:miter;stroke-opacity:1"
       d="m 22.727062,227.99054 h 7.96061"
       id="path4-2-5-4" />
    <path
       style="fill:#cccccc;stroke:#cccccc;stroke-width:0.264583px;stroke-linecap:butt;stroke-linejoin:miter;stroke-opacity:1"
       d="M 22.727062,223.79076 H 48.766116"
       id="path4-2-5-4-1" />
    <path
       style="fill:#cccccc;stroke:#cccccc;stroke-width:0.264583px;stroke-linecap:butt;stroke-linejoin:miter;stroke-opacity:1"
       d="M 22.727062,212.59082 H 48.766116"
       id="path4-2-5-4-1-6" />
    <path
       style="fill:#cccccc;stroke:#cccccc;stroke-width:0.264583px;stroke-linecap:butt;stroke-linejoin:miter;stroke-opacity:1"
       d="M 45.550306,232.23906 V 220.00265"
       id="path4-6-9-4-8" />
    <path
       style="fill:#cccccc;stroke:#cccccc;stroke-width:0.264583px;stroke-linecap:butt;stroke-linejoin:miter;stroke-opacity:1"
       d="M 51.981926,232.23906 V 220.00265"
       id="path4-6-9-4-8-1" />
    <path
       style="fill:none;stroke:#000000;stroke-width:0.264584px;stroke-linecap:butt;stroke-linejoin:miter;stroke-opacity:1;marker-start:url(#RoundedArrow-7-9);marker-end:url(#RoundedArrow-7-9)"
       d="M 46.500223,232.23906 H 51.03201"
       id="path5-1-3" />
    <path
       style="fill:none;stroke:#000000;stroke-width:0.264583px;stroke-linecap:butt;stroke-linejoin:miter;stroke-opacity:1;marker-start:url(#RoundedArrow-7-9-3);marker-end:url(#RoundedArrow-7-9-3)"
       d="m 22.727061,222.22363 v -8.06569"
       id="path5-1-3-9" />
    <path
       style="fill:none;stroke:#000000;stroke-width:0.264584px;stroke-linecap:butt;stroke-linejoin:miter;stroke-opacity:1;marker-start:url(#RoundedArrow-7-9-33);marker-end:url(#RoundedArrow-7-9-33)"
       d="m 22.727062,227.2898 v -2.53371"
       id="path5-1-3-6" />
    <text
       xml:space="preserve"
       transform="matrix(0.26458333,0,0,0.26458333,9.3793946,-12.391601)"
       id="text22"
       style="font-size:14.6667px;line-height:1.25;font-family:sans-serif;white-space:pre;shape-inside:url(#rect22);display:inline"><tspan
         x="25.878906"
         y="906.81644"
         id="tspan19">H3</tspan></text>
    <text
       xml:space="preserve"
       transform="matrix(0.26458333,0,0,0.26458333,7.8408203,22.115499)"
       id="text23"
       style="font-size:14.6667px;line-height:1.25;font-family:sans-serif;white-space:pre;shape-inside:url(#rect23);display:inline"><tspan
         x="33.097656"
         y="746.418"
         id="tspan20">H4</tspan></text>
    <text
       xml:space="preserve"
       transform="matrix(0.26458333,0,0,0.26458333,41.781738,-14.567871)"
       id="text24"
       style="font-size:14.6667px;line-height:1.25;font-family:sans-serif;white-space:pre;shape-inside:url(#rect24);display:inline"><tspan
         x="16.064453"
         y="947.67386"
         id="tspan21">D4</tspan></text>
    <circle
       style="fill:#e6e6e6;stroke:#cccccc;stroke-width:0.264583;stroke-dasharray:none"
       id="path24"
       cx="49.786617"
       cy="283.46237"
       r="24.985352" />
    <circle
       style="fill:#f9f9f9;stroke:#cccccc;stroke-width:0.264583;stroke-dasharray:none"
       id="path24-8"
       cx="49.786617"
       cy="283.46237"
       r="14.411621" />
    <circle
       style="fill:#f9f9f9;stroke:#cccccc;stroke-width:0.264583;stroke-dasharray:none;stroke-dashoffset:0"
       id="path26"
       cx="49.679241"
       cy="263.37741"
       r="2.8725588" />
    <circle
       style="fill:#f9f9f9;stroke:#cccccc;stroke-width:0.264583;stroke-dasharray:none;stroke-dashoffset:0"
       id="path26-0"
       cx="69.764206"
       cy="283.46237"
       r="2.8725588" />
    <circle
       style="fill:#f9f9f9;stroke:#cccccc;stroke-width:0.264583;stroke-dasharray:none;stroke-dashoffset:0"
       id="path26-0-2"
       cx="49.679241"
       cy="303.54733"
       r="2.8725588" />
    <circle
       style="fill:#f9f9f9;stroke:#cccccc;stroke-width:0.264583;stroke-dasharray:none;stroke-dashoffset:0"
       id="path26-0-5"
       cx="29.59428"
       cy="283.46237"
       r="2.8725588" />
    <circle
       style="fill:#f9f9f9;stroke:#cccccc;stroke-width:0.264583;stroke-dasharray:none;stroke-dashoffset:0"
       id="path26-0-9"
       cx="64.330528"
       cy="269.44763"
       r="2.8725588" />
    <circle
       style="fill:#f9f9f9;stroke:#cccccc;stroke-width:0.264583;stroke-dasharray:none;stroke-dashoffset:0"
       id="path26-0-7"
       cx="64.330528"
       cy="298.00629"
       r="2.8725588" />
    <circle
       style="fill:#f9f9f9;stroke:#cccccc;stroke-width:0.264583;stroke-dasharray:none;stroke-dashoffset:0"
       id="path26-0-8"
       cx="35.242706"
       cy="298.00629"
       r="2.8725588" />
    <circle
       style="fill:#f9f9f9;stroke:#cccccc;stroke-width:0.264583;stroke-dasharray:none;stroke-dashoffset:0"
       id="path26-0-93"
       cx="35.242706"
       cy="268.91846"
       r="2.8725588" />
    <circle
       style="fill:none;stroke:#cccccc;stroke-width:0.264583;stroke-dasharray:2,1;stroke-dashoffset:0"
       id="path24-7"
       cx="49.679241"
       cy="283.46237"
       r="20.084961" />
    <path
       style="fill:#cccccc;stroke:#cccccc;stroke-width:0.264583px;stroke-linecap:butt;stroke-linejoin:miter;stroke-opacity:1"
       d="M 49.786614,258.47702 H 105.72363"
       id="path27" />
    <path
       style="fill:#cccccc;stroke:#cccccc;stroke-width:0.264583px;stroke-linecap:butt;stroke-linejoin:miter;stroke-opacity:1"
       d="M 49.786615,308.71231 H 105.72363"
       id="path27-2" />
    <path
       style="fill:#cccccc;stroke:#cccccc;stroke-width:0.264583px;stroke-linecap:butt;stroke-linejoin:miter;stroke-opacity:1"
       d="M 49.786617,298.13858 H 95.29736"
       id="path27-1" />
    <path
       style="fill:#cccccc;stroke:#cccccc;stroke-width:0.264583px;stroke-linecap:butt;stroke-linejoin:miter;stroke-opacity:1"
       d="M 49.786617,269.05075 H 86.000491"
       id="path27-5" />
    <path
       style="fill:#cccccc;stroke:#cccccc;stroke-width:0.264583px;stroke-linecap:butt;stroke-linejoin:miter;stroke-opacity:1"
       d="M 49.710495,303.54583 H 95.438493"
       id="path27-62" />
    <path
       style="fill:none;stroke:#000000;stroke-width:0.264582px;stroke-linecap:butt;stroke-linejoin:miter;stroke-opacity:1;marker-start:url(#RoundedArrow-7-7-9-1);marker-end:url(#RoundedArrow-7-7-9-1)"
       d="M 105.72363,307.02441 V 260.16493"
       id="path5-1-0-8-3" />
    <text
       xml:space="preserve"
       transform="matrix(0.26458333,0,0,0.26458333,13.844587,208.61225)"
       id="text5-2-1"
       style="font-size:14.6667px;line-height:1.25;font-family:sans-serif;white-space:pre;shape-inside:url(#rect5-3-3);display:inline"><tspan
         x="348.78516"
         y="288.74417"
         id="tspan22">D1</tspan></text>
    <text
       xml:space="preserve"
       transform="matrix(0.26458333,0,0,0.26458333,-5.7705588,207.92131)"
       id="text5-2-1-0"
       style="font-size:14.6667px;line-height:1.25;font-family:sans-serif;white-space:pre;shape-inside:url(#rect5-3-3-3);display:inline"><tspan
         x="348.78516"
         y="288.74417"
         id="tspan23">D3</tspan></text>
    <text
       xml:space="preserve"
       transform="matrix(0.26458333,0,0,0.26458333,4.0566283,225.92683)"
       id="text5-2-1-4"
       style="font-size:14.6667px;line-height:1.25;font-family:sans-serif;white-space:pre;shape-inside:url(#rect5-3-3-0);display:inline"><tspan
         x="348.78516"
         y="288.74417"
         id="tspan24">L1</tspan></text>
    <path
       style="fill:none;stroke:#000000;stroke-width:0.264583px;stroke-linecap:butt;stroke-linejoin:miter;stroke-opacity:1;marker-start:url(#RoundedArrow-7-7);marker-end:url(#RoundedArrow-7-7)"
       d="M 86.000486,297.03559 V 270.15374"
       id="path5-1-0" />
    <path
       style="fill:#cccccc;stroke:#cccccc;stroke-width:0.264583px;stroke-linecap:butt;stroke-linejoin:miter;stroke-opacity:1"
       d="M 14.590158,280.58981 H 29.59428"
       id="path27-5-5" />
    <path
       style="fill:#cccccc;stroke:#cccccc;stroke-width:0.264583px;stroke-linecap:butt;stroke-linejoin:miter;stroke-opacity:1"
       d="M 14.590158,286.33493 H 29.59428"
       id="path27-5-5-7" />
    <path
       style="fill:none;stroke:#000000;stroke-width:0.264583px;stroke-linecap:butt;stroke-linejoin:miter;stroke-opacity:1;marker-start:url(#RoundedArrow-7-7-9-2);marker-end:url(#RoundedArrow-7-7-9-2)"
       d="m 14.590158,285.15965 v -3.18481"
       id="path5-1-0-8-6" />
    <text
       xml:space="preserve"
       transform="matrix(0.26458333,0,0,0.26458333,-84.278777,208.58293)"
       id="text5-2-1-0-1"
       style="font-size:14.6667px;line-height:1.25;font-family:sans-serif;white-space:pre;shape-inside:url(#rect5-3-3-3-7);display:inline"><tspan
         x="348.78516"
         y="288.74417"
         id="tspan25">D5</tspan></text>
    <text
       xml:space="preserve"
       transform="matrix(0.26458333,0,0,0.26458333,3.7716965,4.6494546)"
       id="text27"
       style="font-size:14.6667px;line-height:1.25;font-family:sans-serif;white-space:pre;shape-inside:url(#rect27)"><tspan
         x="55.144531"
         y="1150.6563"
         id="tspan26">N1</tspan></text>
    <path
       style="fill:none;stroke:#000000;stroke-width:0.264583px;stroke-linecap:butt;stroke-linejoin:miter;stroke-opacity:1;marker-end:url(#RoundedArrow)"
       d="m 24.154332,307.64243 7.740051,-6.49573"
       id="path28" />
  </g>
</svg>
