<?xml version="1.0" encoding="UTF-8" standalone="no"?>
<!-- Created with Inkscape (http://www.inkscape.org/) -->

<svg
   width="303.96149"
   height="358.56311"
   viewBox="0 0 80.423143 94.869823"
   version="1.1"
   id="svg1"
   xmlns="http://www.w3.org/2000/svg"
   xmlns:svg="http://www.w3.org/2000/svg">
  <defs
     id="defs1">
    <rect
       x="57.746677"
       y="1453.1157"
       width="46.595615"
       height="34.390377"
       id="rect32" />
    <marker
       orient="auto"
       refY="0"
       refX="0"
       id="DistanceStart"
       style="overflow:visible"
       markerWidth="1"
       markerHeight="1"
       viewBox="0 0 1 1"
       preserveAspectRatio="xMidYMid">
      <g
         transform="scale(0.6)"
         id="g13">
        <path
           d="m 0,-40 v 0"
           id="path11" />
        <path
           d="M 0,0 8,5 V -5 Z"
           style="fill:context-stroke;fill-rule:evenodd;stroke:none"
           id="path12" />
        <path
           d="M 0,-8 V 40"
           style="fill:none;stroke:context-stroke;stroke-width:1;stroke-linecap:square"
           id="path13" />
      </g>
    </marker>
    <marker
       style="overflow:visible"
       id="Triangle"
       refX="0"
       refY="0"
       orient="auto-start-reverse"
       markerWidth="1"
       markerHeight="1"
       viewBox="0 0 1 1"
       preserveAspectRatio="xMidYMid">
      <path
         transform="scale(0.5)"
         style="fill:context-stroke;fill-rule:evenodd;stroke:context-stroke;stroke-width:1pt"
         d="M 5.77,0 -2.88,5 V -5 Z"
         id="path135" />
    </marker>
    <marker
       style="overflow:visible"
       id="RoundedArrow-9-2-3"
       refX="0"
       refY="0"
       orient="auto-start-reverse"
       markerWidth="1"
       markerHeight="1"
       viewBox="0 0 1 1"
       preserveAspectRatio="xMidYMid">
      <path
         transform="scale(0.7)"
         d="m -0.21114562,-4.1055728 6.42229122,3.21114561 a 1,1 90 0 1 0,1.78885438 L -0.21114562,4.1055728 A 1.236068,1.236068 31.717474 0 1 -2,3 v -6 a 1.236068,1.236068 148.28253 0 1 1.78885438,-1.1055728 z"
         style="fill:context-stroke;fill-rule:evenodd;stroke:none"
         id="path8-2-2-6" />
    </marker>
    <marker
       style="overflow:visible"
       id="RoundedArrow-9-3-6-6"
       refX="0"
       refY="0"
       orient="auto-start-reverse"
       markerWidth="1"
       markerHeight="1"
       viewBox="0 0 1 1"
       preserveAspectRatio="xMidYMid">
      <path
         transform="scale(0.7)"
         d="m -0.21114562,-4.1055728 6.42229122,3.21114561 a 1,1 90 0 1 0,1.78885438 L -0.21114562,4.1055728 A 1.236068,1.236068 31.717474 0 1 -2,3 v -6 a 1.236068,1.236068 148.28253 0 1 1.78885438,-1.1055728 z"
         style="fill:context-stroke;fill-rule:evenodd;stroke:none"
         id="path8-2-6-1-2" />
    </marker>
    <rect
       x="407.76694"
       y="207.25415"
       width="46.965008"
       height="45.649624"
       id="rect7-6-1" />
    <rect
       x="433.15857"
       y="296.91437"
       width="48.267345"
       height="45.71748"
       id="rect8-1-8" />
    <marker
       style="overflow:visible"
       id="RoundedArrow-7-79"
       refX="0"
       refY="0"
       orient="auto-start-reverse"
       markerWidth="1"
       markerHeight="1"
       viewBox="0 0 1 1"
       preserveAspectRatio="xMidYMid">
      <path
         transform="scale(0.7)"
         d="m -0.21114562,-4.1055728 6.42229122,3.21114561 a 1,1 90 0 1 0,1.78885438 L -0.21114562,4.1055728 A 1.236068,1.236068 31.717474 0 1 -2,3 v -6 a 1.236068,1.236068 148.28253 0 1 1.78885438,-1.1055728 z"
         style="fill:context-stroke;fill-rule:evenodd;stroke:none"
         id="path8-67-20" />
    </marker>
    <rect
       x="348.78598"
       y="275.76746"
       width="64.57917"
       height="35.918922"
       id="rect5-3-37" />
    <marker
       style="overflow:visible"
       id="RoundedArrow-1-9-5"
       refX="0"
       refY="0"
       orient="auto-start-reverse"
       markerWidth="1"
       markerHeight="1"
       viewBox="0 0 1 1"
       preserveAspectRatio="xMidYMid">
      <path
         transform="scale(0.7)"
         d="m -0.21114562,-4.1055728 6.42229122,3.21114561 a 1,1 90 0 1 0,1.78885438 L -0.21114562,4.1055728 A 1.236068,1.236068 31.717474 0 1 -2,3 v -6 a 1.236068,1.236068 148.28253 0 1 1.78885438,-1.1055728 z"
         style="fill:context-stroke;fill-rule:evenodd;stroke:none"
         id="path8-9-6-9" />
    </marker>
    <rect
       x="359.14062"
       y="358.88626"
       width="76.620003"
       height="27.985056"
       id="rect6-3-8" />
    <marker
       style="overflow:visible"
       id="RoundedArrow-7-9-3-1"
       refX="0"
       refY="0"
       orient="auto-start-reverse"
       markerWidth="1"
       markerHeight="1"
       viewBox="0 0 1 1"
       preserveAspectRatio="xMidYMid">
      <path
         transform="scale(0.7)"
         d="m -0.21114562,-4.1055728 6.42229122,3.21114561 a 1,1 90 0 1 0,1.78885438 L -0.21114562,4.1055728 A 1.236068,1.236068 31.717474 0 1 -2,3 v -6 a 1.236068,1.236068 148.28253 0 1 1.78885438,-1.1055728 z"
         style="fill:context-stroke;fill-rule:evenodd;stroke:none"
         id="path8-67-7-1-2" />
    </marker>
    <marker
       style="overflow:visible"
       id="RoundedArrow-7-9-33-3"
       refX="0"
       refY="0"
       orient="auto-start-reverse"
       markerWidth="1"
       markerHeight="1"
       viewBox="0 0 1 1"
       preserveAspectRatio="xMidYMid">
      <path
         transform="scale(0.7)"
         d="m -0.21114562,-4.1055728 6.42229122,3.21114561 a 1,1 90 0 1 0,1.78885438 L -0.21114562,4.1055728 A 1.236068,1.236068 31.717474 0 1 -2,3 v -6 a 1.236068,1.236068 148.28253 0 1 1.78885438,-1.1055728 z"
         style="fill:context-stroke;fill-rule:evenodd;stroke:none"
         id="path8-67-7-3-1" />
    </marker>
    <rect
       x="25.879061"
       y="893.83978"
       width="32.231174"
       height="22.823107"
       id="rect22-9" />
    <rect
       x="33.098549"
       y="733.44055"
       width="37.010948"
       height="28.180365"
       id="rect23-4" />
  </defs>
  <g
     id="layer1"
     transform="translate(-20.710321,-361.82071)">
    <rect
       style="fill:#ffffff;stroke:#ffffff;stroke-width:0.264583;stroke-dasharray:none;stroke-dashoffset:0"
       id="rect29-3"
       width="80.158562"
       height="94.605225"
       x="20.842613"
       y="361.953" />
    <path
       style="fill:#cccccc;stroke:#cccccc;stroke-width:0.264583px;stroke-linecap:butt;stroke-linejoin:miter;stroke-opacity:1"
       d="M 37.823818,423.25112 V 401.5796"
       id="path4-6-3-8-6-48" />
    <path
       style="fill:#cccccc;stroke:#cccccc;stroke-width:0.264583px;stroke-linecap:butt;stroke-linejoin:miter;stroke-opacity:1"
       d="M 39.697237,423.25112 V 401.5796"
       id="path4-6-3-8-6-4" />
    <path
       style="fill:#f9f9f9;stroke:#000000;stroke-width:0.264583px;stroke-linecap:butt;stroke-linejoin:miter;stroke-opacity:1"
       d="m 50.882319,379.95575 h 14.61284 l 11.18075,41.72715 0.0432,16.96795 H 39.658383 l 0.04318,-16.96795 11.180756,-41.72715"
       id="path19-2" />
    <path
       style="fill:none;stroke:#000000;stroke-width:0.264583px;stroke-linecap:butt;stroke-linejoin:miter;stroke-opacity:1"
       d="M 39.701563,421.6829 H 76.675909"
       id="path20-0" />
    <path
       style="fill:#cccccc;stroke:#cccccc;stroke-width:0.264583px;stroke-linecap:butt;stroke-linejoin:miter;stroke-opacity:1"
       d="M 76.623809,421.55061 H 88.860221"
       id="path4-9-6" />
    <path
       style="fill:#cccccc;stroke:#cccccc;stroke-width:0.264582px;stroke-linecap:butt;stroke-linejoin:miter;stroke-opacity:1"
       d="M 65.443049,379.82346 H 88.860221"
       id="path4-7-4-1" />
    <path
       style="fill:none;stroke:#000000;stroke-width:0.264583px;stroke-linecap:butt;stroke-linejoin:miter;stroke-opacity:1;marker-start:url(#RoundedArrow-9-2-3);marker-end:url(#RoundedArrow-9-2-3)"
       d="M 88.860221,437.31561 V 422.75356"
       id="path5-8-9-5" />
    <path
       style="fill:none;stroke:#000000;stroke-width:0.264583px;stroke-linecap:butt;stroke-linejoin:miter;stroke-opacity:1;marker-start:url(#RoundedArrow-9-3-6-6);marker-end:url(#RoundedArrow-9-3-6-6)"
       d="M 88.860221,420.05912 V 381.31494"
       id="path5-8-2-0-5" />
    <text
       xml:space="preserve"
       transform="matrix(0.26458333,0,0,0.26458333,-18.216978,372.90707)"
       id="text7-9-4"
       style="font-size:14.6667px;line-height:1.25;font-family:sans-serif;white-space:pre;shape-inside:url(#rect7-6-1);display:inline"><tspan
         x="407.76758"
         y="220.2305"
         id="tspan1">H1</tspan></text>
    <text
       xml:space="preserve"
       transform="matrix(0.26458333,0,0,0.26458333,-24.49117,320.28493)"
       id="text8-7-7"
       style="font-size:14.6667px;line-height:1.25;font-family:sans-serif;white-space:pre;shape-inside:url(#rect8-1-8);display:inline"><tspan
         x="433.1582"
         y="309.89065"
         id="tspan2">H2</tspan></text>
    <path
       style="fill:#cccccc;stroke:#cccccc;stroke-width:0.264583px;stroke-linecap:butt;stroke-linejoin:miter;stroke-opacity:1"
       d="M 76.719109,438.65085 H 88.955521"
       id="path4-2-5-6" />
    <path
       style="fill:#cccccc;stroke:#cccccc;stroke-width:0.264583px;stroke-linecap:butt;stroke-linejoin:miter;stroke-opacity:1"
       d="M 76.586819,451.01955 V 438.78314"
       id="path4-6-9-4-5" />
    <path
       style="fill:#cccccc;stroke:#cccccc;stroke-width:0.264583px;stroke-linecap:butt;stroke-linejoin:miter;stroke-opacity:1"
       d="M 39.525754,451.01955 V 438.78314"
       id="path4-6-3-8-6" />
    <path
       style="fill:none;stroke:#000000;stroke-width:0.264583px;stroke-linecap:butt;stroke-linejoin:miter;stroke-opacity:1;marker-start:url(#RoundedArrow-7-79);marker-end:url(#RoundedArrow-7-79)"
       d="M 40.599425,451.01955 H 75.291799"
       id="path5-1-9" />
    <text
       xml:space="preserve"
       transform="matrix(0.26458333,0,0,0.26458333,-36.667531,378.34391)"
       id="text5-2-3"
       style="font-size:14.6667px;line-height:1.25;font-family:sans-serif;white-space:pre;shape-inside:url(#rect5-3-37);display:inline"><tspan
         x="348.78516"
         y="288.74417"
         id="tspan3">D1</tspan></text>
    <path
       style="fill:#cccccc;stroke:#cccccc;stroke-width:0.264583px;stroke-linecap:butt;stroke-linejoin:miter;stroke-opacity:1"
       d="M 65.575339,379.69117 V 367.45476"
       id="path4-6-5-4" />
    <path
       style="fill:#cccccc;stroke:#cccccc;stroke-width:0.264583px;stroke-linecap:butt;stroke-linejoin:miter;stroke-opacity:1"
       d="M 50.830209,379.82346 V 367.58705"
       id="path4-6-6-6-5" />
    <path
       style="fill:none;stroke:#000000;stroke-width:0.264583px;stroke-linecap:butt;stroke-linejoin:miter;stroke-opacity:1;marker-start:url(#RoundedArrow-1-9-5);marker-end:url(#RoundedArrow-1-9-5)"
       d="m 51.863809,367.58705 h 12.67793"
       id="path5-7-1-2" />
    <text
       xml:space="preserve"
       transform="matrix(0.26458333,0,0,0.26458333,-38.839099,268.43204)"
       id="text6-1-5"
       style="font-size:14.6667px;line-height:1.25;font-family:sans-serif;white-space:pre;shape-inside:url(#rect6-3-8);display:inline"><tspan
         x="359.14062"
         y="371.86331"
         id="tspan4">D2</tspan></text>
    <path
       style="fill:#cccccc;stroke:#cccccc;stroke-width:0.264583px;stroke-linecap:butt;stroke-linejoin:miter;stroke-opacity:1"
       d="m 31.432853,438.78314 h 7.96061"
       id="path4-2-5-4-4" />
    <path
       style="fill:#cccccc;stroke:#cccccc;stroke-width:0.264583px;stroke-linecap:butt;stroke-linejoin:miter;stroke-opacity:1"
       d="m 31.432853,434.58336 h 8.264382"
       id="path4-2-5-4-1-3" />
    <path
       style="fill:#cccccc;stroke:#cccccc;stroke-width:0.264583px;stroke-linecap:butt;stroke-linejoin:miter;stroke-opacity:1"
       d="m 31.432853,423.38342 h 8.264382"
       id="path4-2-5-4-1-6-0" />
    <path
       style="fill:none;stroke:#000000;stroke-width:0.264583px;stroke-linecap:butt;stroke-linejoin:miter;stroke-opacity:1;marker-start:url(#RoundedArrow-7-9-3-1);marker-end:url(#RoundedArrow-7-9-3-1)"
       d="m 31.432852,433.01623 v -8.06569"
       id="path5-1-3-9-8" />
    <path
       style="fill:none;stroke:#000000;stroke-width:0.264584px;stroke-linecap:butt;stroke-linejoin:miter;stroke-opacity:1;marker-start:url(#RoundedArrow-7-9-33-3);marker-end:url(#RoundedArrow-7-9-33-3)"
       d="m 31.432853,438.0824 v -2.53371"
       id="path5-1-3-6-4" />
    <text
       xml:space="preserve"
       transform="matrix(0.26458333,0,0,0.26458333,18.085186,198.401)"
       id="text22-3"
       style="font-size:14.6667px;line-height:1.25;font-family:sans-serif;white-space:pre;shape-inside:url(#rect22-9);display:inline"><tspan
         x="25.878906"
         y="906.81644"
         id="tspan5">H3</tspan></text>
    <text
       xml:space="preserve"
       transform="matrix(0.26458333,0,0,0.26458333,16.546611,232.9081)"
       id="text23-4"
       style="font-size:14.6667px;line-height:1.25;font-family:sans-serif;white-space:pre;shape-inside:url(#rect23-4);display:inline"><tspan
         x="33.097656"
         y="746.418"
         id="tspan6">H4</tspan></text>
    <rect
       style="fill:#f9f9f9;fill-opacity:1;stroke:#000000;stroke-width:0.264583"
       id="rect31"
       width="1.8734185"
       height="11.199925"
       x="37.823818"
       y="423.38342" />
    <path
       style="fill:none;stroke:#000000;stroke-width:0.264583px;stroke-linecap:butt;stroke-linejoin:miter;stroke-opacity:1;marker-end:url(#DistanceStart)"
       d="m 30.277634,401.5796 h 9.419603"
       id="path31" />
    <path
       style="fill:none;stroke:#000000;stroke-width:0.264583px;stroke-linecap:butt;stroke-linejoin:miter;stroke-opacity:1;marker-end:url(#Triangle)"
       d="m 31.787877,401.5796 h 4.964096"
       id="path32" />
    <text
       xml:space="preserve"
       transform="matrix(0.26458333,0,0,0.26458333,15.907161,12.669601)"
       id="text32"
       style="font-size:14.6667px;line-height:1.25;font-family:sans-serif;white-space:pre;shape-inside:url(#rect32);display:inline"><tspan
         x="57.746094"
         y="1466.0918"
         id="tspan7">E3</tspan></text>
  </g>
</svg>
