<?xml version="1.0" encoding="UTF-8" standalone="no"?>
<!-- Created with Inkscape (http://www.inkscape.org/) -->

<svg
   width="443.44458"
   height="290.28046"
   viewBox="0 0 117.32805 76.803371"
   version="1.1"
   id="svg1"
   xmlns="http://www.w3.org/2000/svg"
   xmlns:svg="http://www.w3.org/2000/svg">
  <defs
     id="defs1">
    <rect
       x="446.71436"
       y="1010.391"
       width="58.53727"
       height="41.249344"
       id="rect24" />
    <rect
       x="150.8622"
       y="977.53772"
       width="49.225174"
       height="46.90498"
       id="rect23" />
    <rect
       x="479.34277"
       y="995.30841"
       width="54.52784"
       height="59.936172"
       id="rect12" />
    <marker
       style="overflow:visible"
       id="RoundedArrow-7-8-7"
       refX="0"
       refY="0"
       orient="auto-start-reverse"
       markerWidth="1"
       markerHeight="1"
       viewBox="0 0 1 1"
       preserveAspectRatio="xMidYMid">
      <path
         transform="scale(0.7)"
         d="m -0.21114562,-4.1055728 6.42229122,3.21114561 a 1,1 90 0 1 0,1.78885438 L -0.21114562,4.1055728 A 1.236068,1.236068 31.717474 0 1 -2,3 v -6 a 1.236068,1.236068 148.28253 0 1 1.78885438,-1.1055728 z"
         style="fill:context-stroke;fill-rule:evenodd;stroke:none"
         id="path8-5-1-7" />
    </marker>
    <rect
       x="24.711763"
       y="134.63503"
       width="47.599213"
       height="27.599791"
       id="rect8-0-6" />
    <marker
       style="overflow:visible"
       id="RoundedArrow-7-8-7-9"
       refX="0"
       refY="0"
       orient="auto-start-reverse"
       markerWidth="1"
       markerHeight="1"
       viewBox="0 0 1 1"
       preserveAspectRatio="xMidYMid">
      <path
         transform="scale(0.7)"
         d="m -0.21114562,-4.1055728 6.42229122,3.21114561 a 1,1 90 0 1 0,1.78885438 L -0.21114562,4.1055728 A 1.236068,1.236068 31.717474 0 1 -2,3 v -6 a 1.236068,1.236068 148.28253 0 1 1.78885438,-1.1055728 z"
         style="fill:context-stroke;fill-rule:evenodd;stroke:none"
         id="path8-5-1-7-2" />
    </marker>
    <rect
       x="24.711763"
       y="134.63503"
       width="47.599213"
       height="27.599791"
       id="rect8-0-6-5" />
    <marker
       style="overflow:visible"
       id="RoundedArrow-7-8-7-9-2"
       refX="0"
       refY="0"
       orient="auto-start-reverse"
       markerWidth="1"
       markerHeight="1"
       viewBox="0 0 1 1"
       preserveAspectRatio="xMidYMid">
      <path
         transform="scale(0.7)"
         d="m -0.21114562,-4.1055728 6.42229122,3.21114561 a 1,1 90 0 1 0,1.78885438 L -0.21114562,4.1055728 A 1.236068,1.236068 31.717474 0 1 -2,3 v -6 a 1.236068,1.236068 148.28253 0 1 1.78885438,-1.1055728 z"
         style="fill:context-stroke;fill-rule:evenodd;stroke:none"
         id="path8-5-1-7-2-1" />
    </marker>
    <marker
       style="overflow:visible"
       id="RoundedArrow-7-8-7-9-2-5"
       refX="0"
       refY="0"
       orient="auto-start-reverse"
       markerWidth="1"
       markerHeight="1"
       viewBox="0 0 1 1"
       preserveAspectRatio="xMidYMid">
      <path
         transform="scale(0.7)"
         d="m -0.21114562,-4.1055728 6.42229122,3.21114561 a 1,1 90 0 1 0,1.78885438 L -0.21114562,4.1055728 A 1.236068,1.236068 31.717474 0 1 -2,3 v -6 a 1.236068,1.236068 148.28253 0 1 1.78885438,-1.1055728 z"
         style="fill:context-stroke;fill-rule:evenodd;stroke:none"
         id="path8-5-1-7-2-1-8" />
    </marker>
    <marker
       style="overflow:visible"
       id="RoundedArrow-3-1-5-7"
       refX="0"
       refY="0"
       orient="auto-start-reverse"
       markerWidth="1"
       markerHeight="1"
       viewBox="0 0 1 1"
       preserveAspectRatio="xMidYMid">
      <path
         transform="scale(0.7)"
         d="m -0.21114562,-4.1055728 6.42229122,3.21114561 a 1,1 90 0 1 0,1.78885438 L -0.21114562,4.1055728 A 1.236068,1.236068 31.717474 0 1 -2,3 v -6 a 1.236068,1.236068 148.28253 0 1 1.78885438,-1.1055728 z"
         style="fill:context-stroke;fill-rule:evenodd;stroke:none"
         id="path8-6-2-9-2" />
    </marker>
    <marker
       style="overflow:visible"
       id="RoundedArrow-94-8-4"
       refX="0"
       refY="0"
       orient="auto-start-reverse"
       markerWidth="1"
       markerHeight="1"
       viewBox="0 0 1 1"
       preserveAspectRatio="xMidYMid">
      <path
         transform="scale(0.7)"
         d="m -0.21114562,-4.1055728 6.42229122,3.21114561 a 1,1 90 0 1 0,1.78885438 L -0.21114562,4.1055728 A 1.236068,1.236068 31.717474 0 1 -2,3 v -6 a 1.236068,1.236068 148.28253 0 1 1.78885438,-1.1055728 z"
         style="fill:context-stroke;fill-rule:evenodd;stroke:none"
         id="path8-8-3-0" />
    </marker>
  </defs>
  <g
     id="layer1"
     transform="translate(-24.057508,-219.74892)">
    <rect
       style="fill:#ffffff;stroke:#ffffff;stroke-width:0.264583"
       id="rect22"
       width="117.06347"
       height="76.53878"
       x="24.1898"
       y="219.8812" />
    <rect
       style="fill:#5fbcd3;stroke:#5fbcd3;stroke-width:0.264583"
       id="rect20"
       width="22.852528"
       height="30.600313"
       x="63.232193"
       y="246.2375" />
    <rect
       style="fill:#ffffff;stroke:#5fbcd3;stroke-width:0.264583"
       id="rect20-3"
       width="15.861562"
       height="21.447977"
       x="66.727676"
       y="250.81367" />
    <rect
       style="fill:#5fbcd3;stroke:#5fbcd3;stroke-width:0.264583"
       id="rect21"
       width="81.344826"
       height="6.0256095"
       x="33.986046"
       y="239.94731" />
    <path
       style="fill:none;stroke:#cccccc;stroke-width:0.264583px;stroke-linecap:butt;stroke-linejoin:miter;stroke-opacity:1"
       d="m 33.986046,227.66752 v 12.1475"
       id="path3-2-8-0-4-6" />
    <path
       style="fill:none;stroke:#cccccc;stroke-width:0.264583px;stroke-linecap:butt;stroke-linejoin:miter;stroke-opacity:1"
       d="m 115.33087,227.66752 v 12.1475"
       id="path3-2-8-0-4-8" />
    <path
       style="fill:none;stroke:#000000;stroke-width:0.264582px;stroke-linecap:butt;stroke-linejoin:miter;stroke-opacity:1;marker-start:url(#RoundedArrow-7-8-7);marker-end:url(#RoundedArrow-7-8-7)"
       d="M 35.119502,228.45207 H 114.19741"
       id="path5-2-4-3" />
    <text
       xml:space="preserve"
       transform="matrix(0.26458333,0,0,0.26458333,65.723423,188.61201)"
       id="text7-4-0"
       style="font-size:14.6667px;line-height:1.25;font-family:sans-serif;white-space:pre;shape-inside:url(#rect8-0-6);display:inline"><tspan
         x="24.710938"
         y="147.61136"
         id="tspan1">L4</tspan></text>
    <path
       style="fill:none;stroke:#cccccc;stroke-width:0.264583px;stroke-linecap:butt;stroke-linejoin:miter;stroke-opacity:1"
       d="m 63.099901,276.97011 v 12.1475"
       id="path3-2-8-0-4-6-5" />
    <path
       style="fill:none;stroke:#cccccc;stroke-width:0.264583px;stroke-linecap:butt;stroke-linejoin:miter;stroke-opacity:1"
       d="m 86.349304,276.97011 v 12.1475"
       id="path3-2-8-0-4-6-9" />
    <path
       style="fill:none;stroke:#000000;stroke-width:0.264582px;stroke-linecap:butt;stroke-linejoin:miter;stroke-opacity:1;marker-start:url(#RoundedArrow-7-8-7-9);marker-end:url(#RoundedArrow-7-8-7-9)"
       d="M 64.262527,289.11761 H 85.186678"
       id="path5-2-4-3-4" />
    <text
       xml:space="preserve"
       transform="matrix(0.26458333,0,0,0.26458333,65.78957,254.37781)"
       id="text7-4-0-8"
       style="font-size:14.6667px;line-height:1.25;font-family:sans-serif;white-space:pre;shape-inside:url(#rect8-0-6-5);display:inline"><tspan
         x="24.710938"
         y="147.61136"
         id="tspan2">L2</tspan></text>
    <path
       style="fill:none;stroke:#cccccc;stroke-width:0.264583px;stroke-linecap:butt;stroke-linejoin:miter;stroke-opacity:1"
       d="M 86.481595,277.1024 H 98.629093"
       id="path3-2-8-0-4-6-9-6" />
    <path
       style="fill:none;stroke:#000000;stroke-width:0.264581px;stroke-linecap:butt;stroke-linejoin:miter;stroke-opacity:1;marker-start:url(#RoundedArrow-7-8-7-9-2);marker-end:url(#RoundedArrow-7-8-7-9-2)"
       d="M 98.629093,275.73299 V 247.34233"
       id="path5-2-4-3-4-5" />
    <path
       style="fill:none;stroke:#cccccc;stroke-width:0.264583px;stroke-linecap:butt;stroke-linejoin:miter;stroke-opacity:1"
       d="m 115.46316,239.81502 h 12.1475"
       id="path3-2-8-0-4-6-9-6-8" />
    <path
       style="fill:none;stroke:#cccccc;stroke-width:0.264583px;stroke-linecap:butt;stroke-linejoin:miter;stroke-opacity:1"
       d="m 115.46316,246.10521 h 12.1475"
       id="path3-2-8-0-4-6-9-6-8-4" />
    <path
       style="fill:none;stroke:#000000;stroke-width:0.264581px;stroke-linecap:butt;stroke-linejoin:miter;stroke-opacity:1;marker-start:url(#RoundedArrow-7-8-7-9-2-5);marker-end:url(#RoundedArrow-7-8-7-9-2-5)"
       d="m 127.61066,244.99949 v -3.84462"
       id="path5-2-4-3-4-5-2" />
    <path
       style="fill:none;stroke:#000000;stroke-width:0.264583px;stroke-linecap:butt;stroke-linejoin:miter;stroke-opacity:1;marker-end:url(#RoundedArrow-94-8-4)"
       d="m 56.611909,261.54786 h 5.24316"
       id="path6-9-8-2" />
    <path
       style="fill:none;stroke:#000000;stroke-width:0.264583px;stroke-linecap:butt;stroke-linejoin:miter;stroke-opacity:1;marker-end:url(#RoundedArrow-3-1-5-7)"
       d="M 72.04439,261.53766 H 67.84812"
       id="path6-6-0-5-9" />
    <text
       xml:space="preserve"
       transform="matrix(0.26458333,0,0,0.26458333,-26.889392,-3.1598833)"
       id="text2"
       style="font-size:14.6667px;line-height:1.25;font-family:sans-serif;white-space:pre;shape-inside:url(#rect12)"><tspan
         x="479.34375"
         y="1008.2852"
         id="tspan3">H1</tspan></text>
    <text
       xml:space="preserve"
       transform="matrix(0.26458333,0,0,0.26458333,11.34202,1.2899174)"
       id="text19"
       style="font-size:14.6667px;line-height:1.25;font-family:sans-serif;white-space:pre;shape-inside:url(#rect23)"><tspan
         x="150.86133"
         y="990.5137"
         id="tspan4">E1</tspan></text>
    <text
       xml:space="preserve"
       transform="matrix(0.26458333,0,0,0.26458333,10.891101,-26.419829)"
       id="text23"
       style="font-size:14.6667px;line-height:1.25;font-family:sans-serif;white-space:pre;shape-inside:url(#rect24)"><tspan
         x="446.71484"
         y="1023.3672"
         id="tspan5">E2</tspan></text>
  </g>
</svg>
