<?xml version="1.0" encoding="UTF-8" standalone="no"?>
<!-- Created with Inkscape (http://www.inkscape.org/) -->

<svg
   width="365.86469"
   height="299.28"
   viewBox="0 0 96.801698 79.1845"
   version="1.1"
   id="svg1"
   xmlns="http://www.w3.org/2000/svg"
   xmlns:svg="http://www.w3.org/2000/svg">
  <defs
     id="defs1">
    <rect
       x="443.77707"
       y="583.58636"
       width="46.922981"
       height="46.310284"
       id="rect18" />
    <rect
       x="289.62845"
       y="519.07233"
       width="66.665848"
       height="40.124264"
       id="rect17" />
    <rect
       x="241.00394"
       y="802.85431"
       width="69.596458"
       height="73.608513"
       id="rect16" />
    <marker
       style="overflow:visible"
       id="RoundedArrow"
       refX="0"
       refY="0"
       orient="auto-start-reverse"
       markerWidth="1"
       markerHeight="1"
       viewBox="0 0 1 1"
       preserveAspectRatio="xMidYMid">
      <path
         transform="scale(0.7)"
         d="m -0.21114562,-4.1055728 6.42229122,3.21114561 a 1,1 90 0 1 0,1.78885438 L -0.21114562,4.1055728 A 1.236068,1.236068 31.717474 0 1 -2,3 v -6 a 1.236068,1.236068 148.28253 0 1 1.78885438,-1.1055728 z"
         style="fill:context-stroke;fill-rule:evenodd;stroke:none"
         id="path8" />
    </marker>
    <marker
       style="overflow:visible"
       id="RoundedArrow-4"
       refX="0"
       refY="0"
       orient="auto-start-reverse"
       markerWidth="1"
       markerHeight="1"
       viewBox="0 0 1 1"
       preserveAspectRatio="xMidYMid">
      <path
         transform="scale(0.7)"
         d="m -0.21114562,-4.1055728 6.42229122,3.21114561 a 1,1 90 0 1 0,1.78885438 L -0.21114562,4.1055728 A 1.236068,1.236068 31.717474 0 1 -2,3 v -6 a 1.236068,1.236068 148.28253 0 1 1.78885438,-1.1055728 z"
         style="fill:context-stroke;fill-rule:evenodd;stroke:none"
         id="path8-8" />
    </marker>
    <marker
       style="overflow:visible"
       id="RoundedArrow-4-4"
       refX="0"
       refY="0"
       orient="auto-start-reverse"
       markerWidth="1"
       markerHeight="1"
       viewBox="0 0 1 1"
       preserveAspectRatio="xMidYMid">
      <path
         transform="scale(0.7)"
         d="m -0.21114562,-4.1055728 6.42229122,3.21114561 a 1,1 90 0 1 0,1.78885438 L -0.21114562,4.1055728 A 1.236068,1.236068 31.717474 0 1 -2,3 v -6 a 1.236068,1.236068 148.28253 0 1 1.78885438,-1.1055728 z"
         style="fill:context-stroke;fill-rule:evenodd;stroke:none"
         id="path8-8-4" />
    </marker>
    <rect
       x="241.00394"
       y="802.85431"
       width="69.596458"
       height="73.608513"
       id="rect16-3" />
  </defs>
  <g
     id="layer1"
     transform="translate(-25.32181,-131.78177)">
    <rect
       style="fill:#ffffff;stroke:#ffffff;stroke-width:0.264583;stroke-linejoin:bevel"
       id="rect19"
       width="96.537109"
       height="78.919922"
       x="25.454102"
       y="131.91406" />
    <path
       style="fill:none;stroke:#b3b3b3;stroke-width:0.264583px;stroke-linecap:butt;stroke-linejoin:miter;stroke-opacity:1"
       d="M 33.728279,205.91406 V 193.97135"
       id="path3-9" />
    <rect
       style="fill:#ff7f2a;stroke:#ff7f2a;stroke-width:0.264583;stroke-linejoin:bevel"
       id="rect2-2-8"
       width="4.6522131"
       height="79.226303"
       x="158.92244"
       y="-112.95458"
       transform="rotate(90)" />
    <rect
       style="fill:#ff7f2a;stroke:#ff7f2a;stroke-width:0.264583;stroke-linejoin:bevel"
       id="rect2-2-8-2"
       width="7.2459631"
       height="79.226303"
       x="186.59309"
       y="-112.95458"
       transform="rotate(90)" />
    <rect
       style="fill:#d45500;stroke:none;stroke-width:0.264583;stroke-linejoin:bevel"
       id="rect2-2-8-2-6"
       width="3.346312"
       height="22.886154"
       x="-37.074593"
       y="-186.59309"
       transform="scale(-1)" />
    <rect
       style="fill:#d45500;stroke:none;stroke-width:0.264583;stroke-linejoin:bevel"
       id="rect2-2-8-2-6-7"
       width="3.346312"
       height="22.886154"
       x="-56.04459"
       y="-186.59309"
       transform="scale(-1)" />
    <rect
       style="fill:#d45500;stroke:none;stroke-width:0.264583;stroke-linejoin:bevel"
       id="rect2-2-8-2-6-7-9"
       width="3.346312"
       height="22.886154"
       x="-75.014587"
       y="-186.59309"
       transform="scale(-1)" />
    <rect
       style="fill:#d45500;stroke:none;stroke-width:0.264583;stroke-linejoin:bevel"
       id="rect2-2-8-2-6-7-3"
       width="3.346312"
       height="22.886154"
       x="-93.984581"
       y="-186.59311"
       transform="scale(-1)" />
    <rect
       style="fill:#d45500;stroke:none;stroke-width:0.264583;stroke-linejoin:bevel"
       id="rect2-2-8-2-6-7-94"
       width="3.346312"
       height="22.886154"
       x="-112.95458"
       y="-186.59311"
       transform="scale(-1)" />
    <path
       style="fill:none;stroke:#b3b3b3;stroke-width:0.264583px;stroke-linecap:butt;stroke-linejoin:miter;stroke-opacity:1"
       d="M 113.08687,205.91406 V 193.97135"
       id="path3-9-8" />
    <path
       style="fill:none;stroke:#000000;stroke-width:0.264583px;stroke-linecap:butt;stroke-linejoin:miter;stroke-opacity:1;marker-start:url(#RoundedArrow);marker-end:url(#RoundedArrow)"
       d="M 35.078374,206.04635 H 111.98213"
       id="path3-9-9" />
    <path
       style="fill:none;stroke:#b3b3b3;stroke-width:0.264582px;stroke-linecap:butt;stroke-linejoin:miter;stroke-opacity:1"
       d="M 33.860573,163.70695 V 141.04853"
       id="path3-9-5" />
    <path
       style="fill:none;stroke:#b3b3b3;stroke-width:0.264582px;stroke-linecap:butt;stroke-linejoin:miter;stroke-opacity:1"
       d="M 37.206884,163.70694 V 141.04852"
       id="path3-9-5-5" />
    <path
       style="fill:none;stroke:#000000;stroke-width:0.264583px;stroke-linecap:butt;stroke-linejoin:miter;stroke-opacity:1;marker-end:url(#RoundedArrow-4)"
       d="m 28.874938,141.04853 h 3.71551"
       id="path3-9-9-0" />
    <path
       style="fill:none;stroke:#000000;stroke-width:0.264583px;stroke-linecap:butt;stroke-linejoin:miter;stroke-opacity:1;marker-end:url(#RoundedArrow-4-4)"
       d="M 42.30742,141.04852 H 38.59191"
       id="path3-9-9-0-4" />
    <text
       xml:space="preserve"
       transform="matrix(0.26458333,0,0,0.26458333,7.8811015,-11.313902)"
       id="text16"
       style="font-size:14.6667px;line-height:1.25;font-family:sans-serif;white-space:pre;shape-inside:url(#rect16);display:inline"><tspan
         x="241.00391"
         y="815.83011"
         id="tspan1">L5</tspan></text>
    <text
       xml:space="preserve"
       transform="matrix(0.26458333,0,0,0.26458333,-30.267371,-77.721675)"
       id="text16-7"
       style="font-size:14.6667px;line-height:1.25;font-family:sans-serif;white-space:pre;shape-inside:url(#rect16-3);display:inline"><tspan
         x="241.00391"
         y="815.83011"
         id="tspan2">L6</tspan></text>
    <text
       xml:space="preserve"
       transform="matrix(0.26458333,0,0,0.26458333,4.1132813,10.448242)"
       id="text17"
       style="font-size:14.6667px;line-height:1.25;font-family:sans-serif;white-space:pre;shape-inside:url(#rect17);display:inline"><tspan
         x="289.62891"
         y="532.04886"
         id="tspan3">N1</tspan></text>
    <path
       style="fill:none;stroke:#000000;stroke-width:0.264583px;stroke-linecap:butt;stroke-linejoin:miter;stroke-opacity:1;marker-end:url(#RoundedArrow)"
       d="m 82.560545,152.46679 -6.264648,14.02344"
       id="path17" />
    <path
       style="fill:none;stroke:#000000;stroke-width:0.264583px;stroke-linecap:butt;stroke-linejoin:miter;stroke-opacity:1;marker-end:url(#RoundedArrow)"
       d="m 83.306638,152.24609 6.17383,13.41407"
       id="path18" />
    <text
       xml:space="preserve"
       transform="matrix(0.26458333,0,0,0.26458333,-3.0439453,5.0087891)"
       id="text18"
       style="font-size:14.6667px;line-height:1.25;font-family:sans-serif;white-space:pre;shape-inside:url(#rect18);display:inline"><tspan
         x="443.77734"
         y="596.56253"
         id="tspan4">D1</tspan></text>
  </g>
</svg>
