<?xml version="1.0" encoding="UTF-8" standalone="no"?>
<!-- Created with Inkscape (http://www.inkscape.org/) -->

<svg
   width="152.18712"
   height="95.848755"
   viewBox="0 0 40.266175 25.359983"
   version="1.1"
   id="svg1"
   xmlns="http://www.w3.org/2000/svg"
   xmlns:svg="http://www.w3.org/2000/svg">
  <defs
     id="defs1">
    <rect
       x="227.53561"
       y="1651.1508"
       width="60.336788"
       height="28.928877"
       id="rect41" />
    <rect
       x="150.9416"
       y="1645.9089"
       width="44.774204"
       height="20.244932"
       id="rect40" />
    <rect
       x="137.87407"
       y="1639.0461"
       width="61.641735"
       height="26.960184"
       id="rect18" />
    <marker
       style="overflow:visible"
       id="RoundedArrow"
       refX="0"
       refY="0"
       orient="auto-start-reverse"
       markerWidth="1"
       markerHeight="1"
       viewBox="0 0 1 1"
       preserveAspectRatio="xMidYMid">
      <path
         transform="scale(0.7)"
         d="m -0.21114562,-4.1055728 6.42229122,3.21114561 a 1,1 90 0 1 0,1.78885438 L -0.21114562,4.1055728 A 1.236068,1.236068 31.717474 0 1 -2,3 v -6 a 1.236068,1.236068 148.28253 0 1 1.78885438,-1.1055728 z"
         style="fill:context-stroke;fill-rule:evenodd;stroke:none"
         id="path8" />
    </marker>
    <marker
       style="overflow:visible"
       id="RoundedArrow-9"
       refX="0"
       refY="0"
       orient="auto-start-reverse"
       markerWidth="1"
       markerHeight="1"
       viewBox="0 0 1 1"
       preserveAspectRatio="xMidYMid">
      <path
         transform="scale(0.7)"
         d="m -0.21114562,-4.1055728 6.42229122,3.21114561 a 1,1 90 0 1 0,1.78885438 L -0.21114562,4.1055728 A 1.236068,1.236068 31.717474 0 1 -2,3 v -6 a 1.236068,1.236068 148.28253 0 1 1.78885438,-1.1055728 z"
         style="fill:context-stroke;fill-rule:evenodd;stroke:none"
         id="path8-2" />
    </marker>
    <marker
       style="overflow:visible"
       id="RoundedArrow-9-5"
       refX="0"
       refY="0"
       orient="auto-start-reverse"
       markerWidth="1"
       markerHeight="1"
       viewBox="0 0 1 1"
       preserveAspectRatio="xMidYMid">
      <path
         transform="scale(0.7)"
         d="m -0.21114562,-4.1055728 6.42229122,3.21114561 a 1,1 90 0 1 0,1.78885438 L -0.21114562,4.1055728 A 1.236068,1.236068 31.717474 0 1 -2,3 v -6 a 1.236068,1.236068 148.28253 0 1 1.78885438,-1.1055728 z"
         style="fill:context-stroke;fill-rule:evenodd;stroke:none"
         id="path8-2-9" />
    </marker>
    <marker
       style="overflow:visible"
       id="RoundedArrow-9-5-7"
       refX="0"
       refY="0"
       orient="auto-start-reverse"
       markerWidth="1"
       markerHeight="1"
       viewBox="0 0 1 1"
       preserveAspectRatio="xMidYMid">
      <path
         transform="scale(0.7)"
         d="m -0.21114562,-4.1055728 6.42229122,3.21114561 a 1,1 90 0 1 0,1.78885438 L -0.21114562,4.1055728 A 1.236068,1.236068 31.717474 0 1 -2,3 v -6 a 1.236068,1.236068 148.28253 0 1 1.78885438,-1.1055728 z"
         style="fill:context-stroke;fill-rule:evenodd;stroke:none"
         id="path8-2-9-3" />
    </marker>
  </defs>
  <g
     id="layer1"
     transform="translate(-14.491492,-440.1608)">
    <rect
       style="fill:#ffffff;fill-opacity:1;stroke:#ffffff;stroke-width:0.264583"
       id="rect42"
       width="40.001595"
       height="25.095385"
       x="14.623783"
       y="440.29309" />
    <rect
       style="fill:#0000ff;fill-opacity:1;stroke:#d45500;stroke-width:0.264583"
       id="rect15"
       width="10.727443"
       height="2.1082001"
       x="29.34148"
       y="456.1626" />
    <rect
       style="fill:#0000ff;fill-opacity:1;stroke:#d45500;stroke-width:0.264583"
       id="rect15-2"
       width="10.727443"
       height="2.1082001"
       x="42.71476"
       y="456.1626" />
    <path
       style="fill:none;stroke:#b3b3b3;stroke-width:0.264583px;stroke-linecap:butt;stroke-linejoin:miter;stroke-opacity:1"
       d="M 40.068923,456.03031 V 445.6675"
       id="path17" />
    <path
       style="fill:none;stroke:#b3b3b3;stroke-width:0.264583px;stroke-linecap:butt;stroke-linejoin:miter;stroke-opacity:1"
       d="M 42.71476,456.03031 V 445.6675"
       id="path17-7" />
    <path
       style="fill:none;stroke:#b3b3b3;stroke-width:0.264583px;stroke-linecap:butt;stroke-linejoin:miter;stroke-opacity:1"
       d="m 29.209189,456.1626 h -7.30308"
       id="path17-6" />
    <path
       style="fill:none;stroke:#b3b3b3;stroke-width:0.264583px;stroke-linecap:butt;stroke-linejoin:miter;stroke-opacity:1"
       d="m 29.209189,458.2708 h -7.30308"
       id="path17-61" />
    <path
       style="fill:none;stroke:#000000;stroke-width:0.264583px;stroke-linecap:butt;stroke-linejoin:miter;stroke-opacity:1;marker-start:url(#RoundedArrow);marker-end:url(#RoundedArrow)"
       d="m 30.335575,453.04793 h 8.739254"
       id="path18" />
    <text
       xml:space="preserve"
       transform="matrix(0.26458333,0,0,0.26458333,-4.3142132,15.165506)"
       id="text18"
       style="font-size:14.6667px;line-height:1.25;font-family:sans-serif;white-space:pre;shape-inside:url(#rect18)"><tspan
         x="137.875"
         y="1652.0235"
         id="tspan1">LH</tspan></text>
    <path
       style="fill:none;stroke:#000000;stroke-width:0.264583px;stroke-linecap:butt;stroke-linejoin:miter;stroke-opacity:1;marker-end:url(#RoundedArrow)"
       d="m 34.229699,445.6675 h 4.454198"
       id="path30" />
    <path
       style="fill:none;stroke:#000000;stroke-width:0.264583px;stroke-linecap:butt;stroke-linejoin:miter;stroke-opacity:1;marker-end:url(#RoundedArrow-9)"
       d="M 48.553984,445.6675 H 44.099786"
       id="path30-2" />
    <text
       xml:space="preserve"
       transform="matrix(0.26458333,0,0,0.26458333,-0.45104423,5.6078262)"
       id="text35"
       style="font-size:14.6667px;line-height:1.25;font-family:sans-serif;white-space:pre;shape-inside:url(#rect40)"><tspan
         x="150.94141"
         y="1658.8848"
         id="tspan2">EH</tspan></text>
    <path
       style="fill:none;stroke:#000000;stroke-width:0.264583px;stroke-linecap:butt;stroke-linejoin:miter;stroke-opacity:1;marker-end:url(#RoundedArrow-9-5)"
       d="m 21.906109,450.32337 v 4.4542"
       id="path30-2-2" />
    <path
       style="fill:none;stroke:#000000;stroke-width:0.264583px;stroke-linecap:butt;stroke-linejoin:miter;stroke-opacity:1;marker-end:url(#RoundedArrow-9-5-7)"
       d="m 21.906109,464.11003 v -4.4542"
       id="path30-2-2-1" />
    <text
       xml:space="preserve"
       transform="matrix(0.26458333,0,0,0.26458333,-44.691702,18.330912)"
       id="text40"
       style="font-size:14.6667px;line-height:1.25;font-family:sans-serif;white-space:pre;shape-inside:url(#rect41)"><tspan
         x="227.53516"
         y="1664.127"
         id="tspan3">LZ</tspan></text>
  </g>
</svg>
