<?xml version="1.0" encoding="UTF-8" standalone="no"?>
<!-- Created with Inkscape (http://www.inkscape.org/) -->

<svg
   width="145.68459"
   height="255.06248"
   viewBox="0 0 38.545713 67.485282"
   version="1.1"
   id="svg1"
   xmlns="http://www.w3.org/2000/svg"
   xmlns:svg="http://www.w3.org/2000/svg">
  <defs
     id="defs1">
    <rect
       x="94.277138"
       y="1567.4908"
       width="179.53448"
       height="49.039871"
       id="rect38" />
    <rect
       x="125.83073"
       y="1348.8262"
       width="118.36644"
       height="43.519951"
       id="rect37" />
    <marker
       style="overflow:visible"
       id="RoundedArrow"
       refX="0"
       refY="0"
       orient="auto-start-reverse"
       markerWidth="1"
       markerHeight="1"
       viewBox="0 0 1 1"
       preserveAspectRatio="xMidYMid">
      <path
         transform="scale(0.7)"
         d="m -0.21114562,-4.1055728 6.42229122,3.21114561 a 1,1 90 0 1 0,1.78885438 L -0.21114562,4.1055728 A 1.236068,1.236068 31.717474 0 1 -2,3 v -6 a 1.236068,1.236068 148.28253 0 1 1.78885438,-1.1055728 z"
         style="fill:context-stroke;fill-rule:evenodd;stroke:none"
         id="path8" />
    </marker>
    <rect
       x="71.751152"
       y="210.97585"
       width="108.99431"
       height="55.632462"
       id="rect3-2" />
    <marker
       style="overflow:visible"
       id="RoundedArrow-76"
       refX="0"
       refY="0"
       orient="auto-start-reverse"
       markerWidth="1"
       markerHeight="1"
       viewBox="0 0 1 1"
       preserveAspectRatio="xMidYMid">
      <path
         transform="scale(0.7)"
         d="m -0.21114562,-4.1055728 6.42229122,3.21114561 a 1,1 90 0 1 0,1.78885438 L -0.21114562,4.1055728 A 1.236068,1.236068 31.717474 0 1 -2,3 v -6 a 1.236068,1.236068 148.28253 0 1 1.78885438,-1.1055728 z"
         style="fill:context-stroke;fill-rule:evenodd;stroke:none"
         id="path8-73" />
    </marker>
    <marker
       style="overflow:visible"
       id="RoundedArrow-76-9"
       refX="0"
       refY="0"
       orient="auto-start-reverse"
       markerWidth="1"
       markerHeight="1"
       viewBox="0 0 1 1"
       preserveAspectRatio="xMidYMid">
      <path
         transform="scale(0.7)"
         d="m -0.21114562,-4.1055728 6.42229122,3.21114561 a 1,1 90 0 1 0,1.78885438 L -0.21114562,4.1055728 A 1.236068,1.236068 31.717474 0 1 -2,3 v -6 a 1.236068,1.236068 148.28253 0 1 1.78885438,-1.1055728 z"
         style="fill:context-stroke;fill-rule:evenodd;stroke:none"
         id="path8-73-4" />
    </marker>
    <marker
       style="overflow:visible"
       id="ArrowWide-3"
       refX="0"
       refY="0"
       orient="auto-start-reverse"
       markerWidth="1"
       markerHeight="1"
       viewBox="0 0 1 1"
       preserveAspectRatio="xMidYMid">
      <path
         style="fill:none;stroke:context-stroke;stroke-width:1;stroke-linecap:butt"
         d="M 3,-3 0,0 3,3"
         transform="rotate(180,0.125,0)"
         id="path1-9" />
    </marker>
  </defs>
  <g
     id="layer1"
     transform="translate(-24.645447,-356.11417)">
    <rect
       style="fill:#ffffff;stroke:#ffffff;stroke-width:0.264583"
       id="rect39"
       width="38.281132"
       height="67.220726"
       x="24.777739"
       y="356.24646" />
    <rect
       style="fill:#008066;stroke:#ffffff;stroke-width:0.264583"
       id="rect2-61"
       width="2.6458333"
       height="4.2333331"
       x="26.945889"
       y="-384.59891"
       transform="scale(1,-1)" />
    <text
       xml:space="preserve"
       transform="matrix(0.26458333,0,0,0.26458333,18.359982,350.67968)"
       id="text2-5"
       style="font-size:14.6667px;line-height:1.25;font-family:sans-serif;white-space:pre;shape-inside:url(#rect3-2);display:inline;fill:#008066"><tspan
         x="71.751953"
         y="223.95315"
         id="tspan1">first = 2</tspan></text>
    <rect
       style="fill:#008066;stroke:#ffffff;stroke-width:0.264583"
       id="rect2-6-9"
       width="2.6458333"
       height="4.2333331"
       x="26.945889"
       y="-389.20065"
       transform="scale(1,-1)" />
    <rect
       style="fill:#0088aa;stroke:#ffffff;stroke-width:0.264583"
       id="rect2-5-2-7"
       width="2.6458333"
       height="4.2333331"
       x="29.856304"
       y="382.71835" />
    <rect
       style="fill:#0088aa;stroke:#ffffff;stroke-width:0.264583"
       id="rect2-1-54-45"
       width="2.6458333"
       height="4.2333331"
       x="29.856304"
       y="387.32013" />
    <rect
       style="fill:#0088aa;stroke:#ffffff;stroke-width:0.264583"
       id="rect2-6-5-5"
       width="2.6458333"
       height="4.2333331"
       x="29.856304"
       y="-382.34991"
       transform="scale(1,-1)" />
    <rect
       style="fill:#0000ff;stroke:#ffffff;stroke-width:0.264583"
       id="rect2-92-4"
       width="2.6458333"
       height="4.2333331"
       x="32.76672"
       y="-377.74817"
       transform="scale(1,-1)" />
    <rect
       style="fill:#0000ff;stroke:#ffffff;stroke-width:0.264583"
       id="rect2-5-24-7"
       width="2.6458333"
       height="4.2333331"
       x="32.76672"
       y="382.71835" />
    <rect
       style="fill:#0000ff;stroke:#ffffff;stroke-width:0.264583"
       id="rect2-1-7-4"
       width="2.6458333"
       height="4.2333331"
       x="32.76672"
       y="387.32013" />
    <rect
       style="fill:#0000ff;stroke:#ffffff;stroke-width:0.264583"
       id="rect2-1-5-7-4"
       width="2.6458333"
       height="4.2333331"
       x="32.76672"
       y="391.92188" />
    <rect
       style="fill:#0000ff;stroke:#ffffff;stroke-width:0.264583"
       id="rect2-6-54-3"
       width="2.6458333"
       height="4.2333331"
       x="32.76672"
       y="-382.34991"
       transform="scale(1,-1)" />
    <rect
       style="fill:#0000ff;stroke:#ffffff;stroke-width:0.264583"
       id="rect2-9-8-07"
       width="2.6458333"
       height="4.2333331"
       x="35.677135"
       y="378.11661" />
    <rect
       style="fill:#0000ff;stroke:#ffffff;stroke-width:0.264583"
       id="rect2-5-2-1-8"
       width="2.6458333"
       height="4.2333331"
       x="35.677135"
       y="382.71835" />
    <rect
       style="fill:#0000ff;stroke:#ffffff;stroke-width:0.264583"
       id="rect2-1-54-2-6"
       width="2.6458333"
       height="4.2333331"
       x="35.677135"
       y="387.32013" />
    <rect
       style="fill:#0000ff;stroke:#ffffff;stroke-width:0.264583"
       id="rect2-1-5-0-8-88"
       width="2.6458333"
       height="4.2333331"
       x="35.677135"
       y="391.92188" />
    <rect
       style="fill:#0000ff;stroke:#ffffff;stroke-width:0.264583"
       id="rect2-6-5-9-43"
       width="2.6458333"
       height="4.2333331"
       x="35.677135"
       y="373.51483" />
    <rect
       style="fill:#0000ff;stroke:#ffffff;stroke-width:0.264583"
       id="rect2-0-1"
       width="2.6458333"
       height="4.2333331"
       x="38.587551"
       y="378.11661" />
    <rect
       style="fill:#0000ff;stroke:#ffffff;stroke-width:0.264583"
       id="rect2-5-21-4"
       width="2.6458333"
       height="4.2333331"
       x="38.587551"
       y="382.71835" />
    <rect
       style="fill:#0000ff;stroke:#ffffff;stroke-width:0.264583"
       id="rect2-1-0-9"
       width="2.6458333"
       height="4.2333331"
       x="38.587551"
       y="387.32013" />
    <rect
       style="fill:#0000ff;stroke:#ffffff;stroke-width:0.264583"
       id="rect2-1-5-5-2"
       width="2.6458333"
       height="4.2333331"
       x="38.587551"
       y="391.92188" />
    <rect
       style="fill:#0000ff;stroke:#ffffff;stroke-width:0.264583"
       id="rect2-6-1-0"
       width="2.6458333"
       height="4.2333331"
       x="38.587551"
       y="373.51483" />
    <rect
       style="fill:#0000ff;stroke:#ffffff;stroke-width:0.264583"
       id="rect2-9-1-6"
       width="2.6458333"
       height="4.2333331"
       x="41.497967"
       y="378.11661" />
    <rect
       style="fill:#0000ff;stroke:#ffffff;stroke-width:0.264583"
       id="rect2-5-2-0-8"
       width="2.6458333"
       height="4.2333331"
       x="41.497967"
       y="382.71835" />
    <rect
       style="fill:#0000ff;stroke:#ffffff;stroke-width:0.264583"
       id="rect2-1-54-8-9"
       width="2.6458333"
       height="4.2333331"
       x="41.497967"
       y="387.32013" />
    <rect
       style="fill:#0000ff;stroke:#ffffff;stroke-width:0.264583"
       id="rect2-1-5-0-5-2"
       width="2.6458333"
       height="4.2333331"
       x="41.497967"
       y="391.92188" />
    <rect
       style="fill:#0000ff;stroke:#ffffff;stroke-width:0.264583"
       id="rect2-6-5-0-6"
       width="2.6458333"
       height="4.2333331"
       x="41.497967"
       y="373.51483" />
    <rect
       style="fill:#0000ff;stroke:#ffffff;stroke-width:0.264583"
       id="rect2-92-6-6"
       width="2.6458333"
       height="4.2333331"
       x="44.408382"
       y="378.11661" />
    <rect
       style="fill:#0000ff;stroke:#ffffff;stroke-width:0.264583"
       id="rect2-5-24-4-4"
       width="2.6458333"
       height="4.2333331"
       x="44.408382"
       y="382.71835" />
    <rect
       style="fill:#0000ff;stroke:#ffffff;stroke-width:0.264583"
       id="rect2-1-7-6-9"
       width="2.6458333"
       height="4.2333331"
       x="44.408382"
       y="387.32013" />
    <rect
       style="fill:#0000ff;stroke:#ffffff;stroke-width:0.264583"
       id="rect2-1-5-7-2-5"
       width="2.6458333"
       height="4.2333331"
       x="44.408382"
       y="391.92188" />
    <rect
       style="fill:#0000ff;stroke:#ffffff;stroke-width:0.264583"
       id="rect2-6-54-5-0"
       width="2.6458333"
       height="4.2333331"
       x="44.408382"
       y="373.51483" />
    <rect
       style="fill:#0000ff;stroke:#ffffff;stroke-width:0.264583"
       id="rect2-9-8-8-4"
       width="2.6458333"
       height="4.2333331"
       x="47.318798"
       y="378.11661" />
    <rect
       style="fill:#0000ff;stroke:#ffffff;stroke-width:0.264583"
       id="rect2-5-2-1-6-8"
       width="2.6458333"
       height="4.2333331"
       x="47.318798"
       y="382.71835" />
    <rect
       style="fill:#0000ff;stroke:#ffffff;stroke-width:0.264583"
       id="rect2-1-54-2-2-7"
       width="2.6458333"
       height="4.2333331"
       x="47.318798"
       y="387.32013" />
    <rect
       style="fill:#0000ff;stroke:#ffffff;stroke-width:0.264583"
       id="rect2-1-5-0-8-8-1"
       width="2.6458333"
       height="4.2333331"
       x="47.318798"
       y="391.92188" />
    <rect
       style="fill:#0000ff;stroke:#ffffff;stroke-width:0.264583"
       id="rect2-6-5-9-4-7"
       width="2.6458333"
       height="4.2333331"
       x="47.318798"
       y="373.51483" />
    <rect
       style="fill:#0000ff;stroke:#ffffff;stroke-width:0.264583"
       id="rect2-06-27"
       width="2.6458333"
       height="4.2333331"
       x="50.229214"
       y="378.11661" />
    <rect
       style="fill:#0000ff;stroke:#ffffff;stroke-width:0.264583"
       id="rect2-5-29-2"
       width="2.6458333"
       height="4.2333331"
       x="50.229214"
       y="382.71835" />
    <rect
       style="fill:#0000ff;stroke:#ffffff;stroke-width:0.264583"
       id="rect2-1-9-2"
       width="2.6458333"
       height="4.2333331"
       x="50.229214"
       y="387.32013" />
    <rect
       style="fill:#0000ff;stroke:#ffffff;stroke-width:0.264583"
       id="rect2-1-5-08-6"
       width="2.6458333"
       height="4.2333331"
       x="50.229214"
       y="391.92188" />
    <rect
       style="fill:#0000ff;stroke:#ffffff;stroke-width:0.264583"
       id="rect2-6-13-1"
       width="2.6458333"
       height="4.2333331"
       x="50.229214"
       y="373.51483" />
    <rect
       style="fill:#0000ff;stroke:#ffffff;stroke-width:0.264583"
       id="rect2-9-11-0"
       width="2.6458333"
       height="4.2333331"
       x="53.139629"
       y="378.11661" />
    <rect
       style="fill:#0000ff;stroke:#ffffff;stroke-width:0.264583"
       id="rect2-5-2-03-6"
       width="2.6458333"
       height="4.2333331"
       x="53.139629"
       y="382.71835" />
    <rect
       style="fill:#0000ff;stroke:#ffffff;stroke-width:0.264583"
       id="rect2-1-54-4-1"
       width="2.6458333"
       height="4.2333331"
       x="53.139629"
       y="387.32013" />
    <rect
       style="fill:#0000ff;stroke:#ffffff;stroke-width:0.264583"
       id="rect2-1-5-0-0-5"
       width="2.6458333"
       height="4.2333331"
       x="53.139629"
       y="391.92188" />
    <rect
       style="fill:#0000ff;stroke:#ffffff;stroke-width:0.264583"
       id="rect2-6-5-3-9"
       width="2.6458333"
       height="4.2333331"
       x="53.139629"
       y="373.51483" />
    <rect
       style="fill:#0088aa;stroke:#ffffff;stroke-width:0.264583"
       id="rect2-92-9-4"
       width="2.6458333"
       height="4.2333331"
       x="56.050045"
       y="378.11661" />
    <rect
       style="fill:#0088aa;stroke:#ffffff;stroke-width:0.264583"
       id="rect2-5-24-1-9"
       width="2.6458333"
       height="4.2333331"
       x="56.050045"
       y="382.71835" />
    <rect
       style="fill:#0088aa;stroke:#ffffff;stroke-width:0.264583"
       id="rect2-1-7-9-0"
       width="2.6458333"
       height="4.2333331"
       x="56.050045"
       y="387.32013" />
    <rect
       style="fill:#008066;stroke:#ffffff;stroke-width:0.264583"
       id="rect2-1-54-2-8-1"
       width="2.6458333"
       height="4.2333331"
       x="58.960461"
       y="380.46939" />
    <rect
       style="fill:#008066;stroke:#ffffff;stroke-width:0.264583"
       id="rect2-1-5-0-8-0-1"
       width="2.6458333"
       height="4.2333331"
       x="58.960461"
       y="385.07114" />
    <text
       xml:space="preserve"
       transform="scale(0.26458333)"
       id="text36"
       style="font-size:14.6667px;line-height:1.25;font-family:sans-serif;white-space:pre;shape-inside:url(#rect37);fill:#0088aa"><tspan
         x="125.83008"
         y="1361.8028"
         id="tspan2">second = 3</tspan></text>
    <path
       style="fill:none;stroke:#000000;stroke-width:0.264583px;stroke-linecap:butt;stroke-linejoin:miter;stroke-opacity:1;marker-start:url(#RoundedArrow)"
       d="m 30.554747,375.59869 c 0,0 0.190137,-5.18292 1.281631,-7.45639 1.335861,-2.78246 6.140228,-6.93089 6.140228,-6.93089"
       id="path37" />
    <path
       style="fill:none;stroke:#000000;stroke-width:0.264583px;stroke-linecap:butt;stroke-linejoin:miter;stroke-opacity:1;marker-end:url(#RoundedArrow)"
       d="m 45.694012,361.84324 c 0,0 8.018806,2.86194 10.268241,6.15889 1.452903,2.12949 1.285084,7.62624 1.285084,7.62624"
       id="path38" />
    <path
       style="fill:none;stroke:#000000;stroke-width:0.264583px;stroke-linecap:butt;stroke-linejoin:miter;stroke-opacity:1;marker-start:url(#RoundedArrow-76)"
       d="m 28.069007,391.0825 c 0,0 0.227306,6.28243 1.532165,9.03819 1.596997,3.37273 7.340529,8.40121 7.340529,8.40121"
       id="path37-5" />
    <path
       style="fill:none;stroke:#000000;stroke-width:0.264583px;stroke-linecap:butt;stroke-linejoin:miter;stroke-opacity:1;marker-start:url(#RoundedArrow-76-9)"
       d="m 60.591421,391.04024 c 0,0 -0.169947,6.31648 -1.145536,9.08717 -1.194007,3.39101 -5.488203,8.44674 -5.488203,8.44674"
       id="path37-5-1" />
    <path
       style="fill:none;stroke:#ff0000;stroke-width:0.529167;stroke-linecap:butt;stroke-linejoin:miter;stroke-opacity:1;marker-end:url(#ArrowWide-3)"
       d="M 33.455562,385.21977 H 54.413954"
       id="path2-8" />
    <text
       xml:space="preserve"
       transform="matrix(0.26458333,0,0,0.26458333,4.5064246,-2.5128531)"
       id="text38"
       style="font-size:14.6667px;line-height:1.25;font-family:sans-serif;white-space:pre;shape-inside:url(#rect38)"><tspan
         x="94.277344"
         y="1580.4668"
         id="tspan3">nx = 12&#10;</tspan><tspan
         x="94.277344"
         y="1598.8002"
         id="tspan4">ny = 5</tspan></text>
  </g>
</svg>
