<?xml version="1.0" encoding="UTF-8" standalone="no"?>
<!-- Created with Inkscape (http://www.inkscape.org/) -->

<svg
   width="267.07587"
   height="224.39636"
   viewBox="0 0 70.663823 59.371538"
   version="1.1"
   id="svg1"
   xmlns="http://www.w3.org/2000/svg"
   xmlns:svg="http://www.w3.org/2000/svg">
  <defs
     id="defs1">
    <rect
       x="115.16149"
       y="998.58386"
       width="102.77233"
       height="33.599751"
       id="rect31" />
    <rect
       x="120.68402"
       y="998.89709"
       width="135.88403"
       height="39.871323"
       id="rect30" />
    <rect
       x="26.876669"
       y="933.43317"
       width="80.930145"
       height="47.082455"
       id="rect29" />
    <rect
       x="220.34537"
       y="984.74622"
       width="54.818176"
       height="31.404833"
       id="rect28" />
    <rect
       x="102.17989"
       y="996.66821"
       width="51.874214"
       height="22.815678"
       id="rect27" />
    <rect
       x="73.961731"
       y="971.31049"
       width="35.930386"
       height="25.545624"
       id="rect26" />
    <rect
       x="69.310905"
       y="948.93591"
       width="90.101311"
       height="36.710743"
       id="rect25" />
    <rect
       x="35.241375"
       y="948.77411"
       width="107.97646"
       height="36.648106"
       id="rect16" />
    <marker
       style="overflow:visible"
       id="RoundedArrow"
       refX="0"
       refY="0"
       orient="auto-start-reverse"
       markerWidth="1"
       markerHeight="1"
       viewBox="0 0 1 1"
       preserveAspectRatio="xMidYMid">
      <path
         transform="scale(0.7)"
         d="m -0.21114562,-4.1055728 6.42229122,3.21114561 a 1,1 90 0 1 0,1.78885438 L -0.21114562,4.1055728 A 1.236068,1.236068 31.717474 0 1 -2,3 v -6 a 1.236068,1.236068 148.28253 0 1 1.78885438,-1.1055728 z"
         style="fill:context-stroke;fill-rule:evenodd;stroke:none"
         id="path8" />
    </marker>
    <marker
       style="overflow:visible"
       id="RoundedArrow-7"
       refX="0"
       refY="0"
       orient="auto-start-reverse"
       markerWidth="1"
       markerHeight="1"
       viewBox="0 0 1 1"
       preserveAspectRatio="xMidYMid">
      <path
         transform="scale(0.7)"
         d="m -0.21114562,-4.1055728 6.42229122,3.21114561 a 1,1 90 0 1 0,1.78885438 L -0.21114562,4.1055728 A 1.236068,1.236068 31.717474 0 1 -2,3 v -6 a 1.236068,1.236068 148.28253 0 1 1.78885438,-1.1055728 z"
         style="fill:context-stroke;fill-rule:evenodd;stroke:none"
         id="path8-5" />
    </marker>
  </defs>
  <g
     id="layer1"
     transform="translate(-14.698306,-212.21449)">
    <rect
       style="fill:#ffffff;stroke:#ffffff;stroke-width:0.264583"
       id="rect32"
       width="70.399246"
       height="59.106945"
       x="14.830598"
       y="212.34679" />
    <path
       style="fill:none;stroke:#000000;stroke-width:0.264583px;stroke-linecap:butt;stroke-linejoin:miter;stroke-opacity:1;marker-start:url(#RoundedArrow);marker-end:url(#RoundedArrow)"
       d="m 38.855655,215.77736 v 23.8828 h 43.728753"
       id="path14" />
    <path
       style="fill:none;stroke:#ff8080;stroke-width:0.264583px;stroke-linecap:butt;stroke-linejoin:miter;stroke-opacity:1"
       d="m 38.825962,228.53428 c 0,0 2.854081,5.4667 5.371665,5.32609 2.487999,-0.13896 3.489473,-3.63795 4.689417,-5.82189 1.584751,-2.8843 3.193401,-6.4628 6.210659,-6.59737 2.916725,-0.13009 4.795749,2.75251 6.547644,5.81775 1.462314,2.55857 3.080787,6.49055 6.027671,6.46754 2.964507,-0.0232 5.961381,-6.60011 5.961381,-6.60011"
       id="path15" />
    <path
       style="fill:none;stroke:#b3b3b3;stroke-width:0.264583px;stroke-linecap:butt;stroke-linejoin:miter;stroke-opacity:1"
       d="M 28.450812,233.80987 H 42.688367"
       id="path9-1-1" />
    <path
       style="fill:none;stroke:#b3b3b3;stroke-width:0.264584px;stroke-linecap:butt;stroke-linejoin:miter;stroke-opacity:1"
       d="m 28.365806,221.66669 h 25.01472"
       id="path9-1-1-9" />
    <path
       style="fill:none;stroke:#000000;stroke-width:0.264583px;stroke-linecap:butt;stroke-linejoin:miter;stroke-opacity:1;marker-start:url(#RoundedArrow);marker-end:url(#RoundedArrow)"
       d="m 29.73163,222.76231 v 9.86315"
       id="path16" />
    <text
       xml:space="preserve"
       transform="matrix(0.26458333,0,0,0.26458333,13.379096,-19.471677)"
       id="text16"
       style="font-size:14.6667px;line-height:1.25;font-family:sans-serif;white-space:pre;shape-inside:url(#rect16)"><tspan
         x="35.242188"
         y="961.75003"
         id="tspan1">EV</tspan></text>
    <text
       xml:space="preserve"
       transform="matrix(0.26458333,0,0,0.26458333,-1.7864112,-25.912978)"
       id="text25"
       style="font-size:14.6667px;line-height:1.25;font-family:sans-serif;white-space:pre;shape-inside:url(#rect25)"><tspan
         x="69.310547"
         y="961.91214"
         id="tspan2">EVsup</tspan></text>
    <path
       style="fill:none;stroke:#b3b3b3;stroke-width:0.264582px;stroke-linecap:butt;stroke-linejoin:miter;stroke-opacity:1"
       d="M 38.97286,263.87147 V 240.46431"
       id="path9-1-1-6" />
    <path
       style="fill:none;stroke:#b3b3b3;stroke-width:0.264583px;stroke-linecap:butt;stroke-linejoin:miter;stroke-opacity:1"
       d="M 61.884047,240.96689 V 228.99566"
       id="path9-1-1-6-8" />
    <path
       style="fill:none;stroke:#b3b3b3;stroke-width:0.264583px;stroke-linecap:butt;stroke-linejoin:miter;stroke-opacity:1"
       d="M 73.947452,254.91995 V 227.85088"
       id="path9-1-1-6-0" />
    <path
       style="fill:none;stroke:#000000;stroke-width:0.264583px;stroke-linecap:butt;stroke-linejoin:miter;stroke-opacity:1;marker-start:url(#RoundedArrow-7);marker-end:url(#RoundedArrow-7)"
       d="M 40.532975,253.91198 H 71.905049"
       id="path16-2" />
    <text
       xml:space="preserve"
       transform="matrix(0.26458333,0,0,0.26458333,18.685159,-17.340688)"
       id="text26"
       style="font-size:14.6667px;line-height:1.25;font-family:sans-serif;white-space:pre;shape-inside:url(#rect26);fill:#0000ff"><tspan
         x="73.960938"
         y="984.28714"
         id="tspan3">0</tspan></text>
    <text
       xml:space="preserve"
       transform="matrix(0.26458333,0,0,0.26458333,33.529567,-23.143246)"
       id="text27"
       style="font-size:14.6667px;line-height:1.25;font-family:sans-serif;white-space:pre;shape-inside:url(#rect27);fill:#0000ff"><tspan
         x="102.17969"
         y="1009.6446"
         id="tspan4">1</tspan></text>
    <text
       xml:space="preserve"
       transform="matrix(0.26458333,0,0,0.26458333,12.50557,-20.890724)"
       id="text28"
       style="font-size:14.6667px;line-height:1.25;font-family:sans-serif;white-space:pre;shape-inside:url(#rect28);fill:#0000ff"><tspan
         x="220.3457"
         y="997.72269"
         id="tspan5">1.5</tspan></text>
    <path
       style="fill:none;stroke:#b3b3b3;stroke-width:0.264583px;stroke-linecap:butt;stroke-linejoin:miter;stroke-opacity:1"
       d="M 49.630274,241.47814 V 228.40896"
       id="path9-1-1-6-8-3" />
    <text
       xml:space="preserve"
       transform="matrix(0.26458333,0,0,0.26458333,39.137393,-7.146336)"
       id="text29"
       style="font-size:14.6667px;line-height:1.25;font-family:sans-serif;white-space:pre;shape-inside:url(#rect29);fill:#0000ff"><tspan
         x="26.876953"
         y="946.41019"
         id="tspan6">0.5</tspan></text>
    <text
       xml:space="preserve"
       transform="matrix(0.26458333,0,0,0.26458333,13.998505,-9.6322583)"
       id="text30"
       style="font-size:14.6667px;line-height:1.25;font-family:sans-serif;white-space:pre;shape-inside:url(#rect30)"><tspan
         x="120.68359"
         y="1011.8731"
         id="tspan7">EVcyc =1.5</tspan></text>
    <text
       xml:space="preserve"
       transform="matrix(0.26458333,0,0,0.26458333,-0.56347571,-0.25135436)"
       id="text31"
       style="font-size:14.6667px;line-height:1.25;font-family:sans-serif;white-space:pre;shape-inside:url(#rect31)"><tspan
         x="115.16211"
         y="1011.5606"
         id="tspan8">EVstart =0.5</tspan></text>
  </g>
</svg>
