<?xml version="1.0" encoding="UTF-8" standalone="no"?>
<!-- Created with Inkscape (http://www.inkscape.org/) -->

<svg
   width="410.22653"
   height="425.31885"
   viewBox="0 0 108.5391 112.53228"
   version="1.1"
   id="svg1"
   xmlns="http://www.w3.org/2000/svg"
   xmlns:svg="http://www.w3.org/2000/svg">
  <defs
     id="defs1">
    <rect
       x="156.62485"
       y="1875.1213"
       width="36.979561"
       height="22.849606"
       id="rect19" />
    <marker
       style="overflow:visible"
       id="marker5"
       refX="0"
       refY="0"
       orient="auto-start-reverse"
       markerWidth="1"
       markerHeight="1"
       viewBox="0 0 1 1"
       preserveAspectRatio="xMidYMid">
      <path
         transform="scale(0.7)"
         d="m -0.21114562,-4.1055728 6.42229122,3.21114561 a 1,1 90 0 1 0,1.78885438 L -0.21114562,4.1055728 A 1.236068,1.236068 31.717474 0 1 -2,3 v -6 a 1.236068,1.236068 148.28253 0 1 1.78885438,-1.1055728 z"
         style="fill:context-stroke;fill-rule:evenodd;stroke:none"
         id="path5" />
    </marker>
    <marker
       style="overflow:visible"
       id="marker5-0"
       refX="0"
       refY="0"
       orient="auto-start-reverse"
       markerWidth="1"
       markerHeight="1"
       viewBox="0 0 1 1"
       preserveAspectRatio="xMidYMid">
      <path
         transform="scale(0.7)"
         d="m -0.21114562,-4.1055728 6.42229122,3.21114561 a 1,1 90 0 1 0,1.78885438 L -0.21114562,4.1055728 A 1.236068,1.236068 31.717474 0 1 -2,3 v -6 a 1.236068,1.236068 148.28253 0 1 1.78885438,-1.1055728 z"
         style="fill:context-stroke;fill-rule:evenodd;stroke:none"
         id="path5-39" />
    </marker>
    <marker
       style="overflow:visible"
       id="marker5-0-3"
       refX="0"
       refY="0"
       orient="auto-start-reverse"
       markerWidth="1"
       markerHeight="1"
       viewBox="0 0 1 1"
       preserveAspectRatio="xMidYMid">
      <path
         transform="scale(0.7)"
         d="m -0.21114562,-4.1055728 6.42229122,3.21114561 a 1,1 90 0 1 0,1.78885438 L -0.21114562,4.1055728 A 1.236068,1.236068 31.717474 0 1 -2,3 v -6 a 1.236068,1.236068 148.28253 0 1 1.78885438,-1.1055728 z"
         style="fill:context-stroke;fill-rule:evenodd;stroke:none"
         id="path5-39-3" />
    </marker>
    <marker
       style="overflow:visible"
       id="marker5-0-3-6"
       refX="0"
       refY="0"
       orient="auto-start-reverse"
       markerWidth="1"
       markerHeight="1"
       viewBox="0 0 1 1"
       preserveAspectRatio="xMidYMid">
      <path
         transform="scale(0.7)"
         d="m -0.21114562,-4.1055728 6.42229122,3.21114561 a 1,1 90 0 1 0,1.78885438 L -0.21114562,4.1055728 A 1.236068,1.236068 31.717474 0 1 -2,3 v -6 a 1.236068,1.236068 148.28253 0 1 1.78885438,-1.1055728 z"
         style="fill:context-stroke;fill-rule:evenodd;stroke:none"
         id="path5-39-3-7" />
    </marker>
    <marker
       style="overflow:visible"
       id="marker5-0-3-7"
       refX="0"
       refY="0"
       orient="auto-start-reverse"
       markerWidth="1"
       markerHeight="1"
       viewBox="0 0 1 1"
       preserveAspectRatio="xMidYMid">
      <path
         transform="scale(0.7)"
         d="m -0.21114562,-4.1055728 6.42229122,3.21114561 a 1,1 90 0 1 0,1.78885438 L -0.21114562,4.1055728 A 1.236068,1.236068 31.717474 0 1 -2,3 v -6 a 1.236068,1.236068 148.28253 0 1 1.78885438,-1.1055728 z"
         style="fill:context-stroke;fill-rule:evenodd;stroke:none"
         id="path5-39-3-2" />
    </marker>
    <marker
       style="overflow:visible"
       id="marker5-0-3-7-6"
       refX="0"
       refY="0"
       orient="auto-start-reverse"
       markerWidth="1"
       markerHeight="1"
       viewBox="0 0 1 1"
       preserveAspectRatio="xMidYMid">
      <path
         transform="scale(0.7)"
         d="m -0.21114562,-4.1055728 6.42229122,3.21114561 a 1,1 90 0 1 0,1.78885438 L -0.21114562,4.1055728 A 1.236068,1.236068 31.717474 0 1 -2,3 v -6 a 1.236068,1.236068 148.28253 0 1 1.78885438,-1.1055728 z"
         style="fill:context-stroke;fill-rule:evenodd;stroke:none"
         id="path5-39-3-2-0" />
    </marker>
    <rect
       x="156.62485"
       y="1875.1213"
       width="36.979561"
       height="22.849606"
       id="rect19-3" />
    <rect
       x="156.62485"
       y="1875.1213"
       width="36.979561"
       height="22.849606"
       id="rect19-1" />
    <rect
       x="156.62485"
       y="1875.1213"
       width="36.979561"
       height="22.849606"
       id="rect19-5" />
  </defs>
  <g
     id="layer1"
     transform="translate(-27.101656,-393.40222)">
    <rect
       style="fill:#ffffff;fill-opacity:1;stroke:#ffffff;stroke-width:0.264583"
       id="rect12-9"
       width="108.27451"
       height="112.26769"
       x="27.233948"
       y="393.53452" />
    <rect
       style="fill:#5fbcd3;stroke:#5fbcd3;stroke-width:0.264583"
       id="rect2-2-6-6-2"
       width="93.92382"
       height="2.7304668"
       x="32.400127"
       y="479.85205" />
    <rect
       style="fill:#5fbcd3;stroke:#5fbcd3;stroke-width:0.264583"
       id="rect2-0"
       width="93.92382"
       height="8.4765606"
       x="32.400127"
       y="436.58542" />
    <rect
       style="fill:#5fbcd3;stroke:#5fbcd3;stroke-width:0.264583"
       id="rect2-2-68"
       width="93.92382"
       height="2.7304668"
       x="32.400127"
       y="428.59827" />
    <rect
       style="fill:#5fbcd3;stroke:#5fbcd3;stroke-width:0.264583"
       id="rect2-2-7-9"
       width="93.92382"
       height="2.7304668"
       x="32.400127"
       y="450.31866" />
    <rect
       style="fill:#5fbcd3;stroke:#5fbcd3;stroke-width:0.264583"
       id="rect2-2-6-2"
       width="93.92382"
       height="2.7304668"
       x="32.400127"
       y="399.06491" />
    <rect
       style="fill:#afdde9;fill-opacity:0.8;stroke:#afdde9;stroke-width:0.264583"
       id="rect2-5-6"
       width="2.5361254"
       height="83.517578"
       x="32.400127"
       y="399.06491" />
    <rect
       style="fill:#afdde9;fill-opacity:0.8;stroke:#afdde9;stroke-width:0.264583"
       id="rect2-5-9-6"
       width="2.5361254"
       height="83.517578"
       x="123.78784"
       y="399.06491" />
    <rect
       style="fill:#afdde9;fill-opacity:0.8;stroke:#afdde9;stroke-width:0.264583"
       id="rect2-5-2-4"
       width="2.5361254"
       height="83.517578"
       x="69.479675"
       y="399.06491" />
    <rect
       style="fill:#afdde9;fill-opacity:0.8;stroke:#afdde9;stroke-width:0.264583"
       id="rect2-5-7-95"
       width="2.5361254"
       height="83.517578"
       x="86.708267"
       y="399.06491" />
    <rect
       style="fill:#afdde9;fill-opacity:0.8;stroke:#afdde9;stroke-width:0.264583"
       id="rect2-5-7-9-0"
       width="2.5361254"
       height="83.517578"
       x="93.380203"
       y="399.06491" />
    <rect
       style="fill:#afdde9;fill-opacity:0.8;stroke:#afdde9;stroke-width:0.264583"
       id="rect2-5-7-9-6-4"
       width="2.5361254"
       height="83.517578"
       x="62.807735"
       y="399.06491" />
    <rect
       style="fill:#afdde9;fill-opacity:0.8;stroke:#afdde9;stroke-width:0.264583"
       id="rect2-5-7-9-1-8"
       width="2.5361254"
       height="83.517578"
       x="106.85976"
       y="399.06491" />
    <rect
       style="fill:#afdde9;fill-opacity:0.8;stroke:#afdde9;stroke-width:0.264583"
       id="rect2-5-7-9-1-9-7"
       width="2.5361254"
       height="83.517578"
       x="113.53168"
       y="399.06491" />
    <rect
       style="fill:#afdde9;fill-opacity:0.8;stroke:#afdde9;stroke-width:0.264583"
       id="rect2-5-7-9-6-7-17"
       width="2.5361254"
       height="83.517578"
       x="49.328167"
       y="399.06491" />
    <rect
       style="fill:#afdde9;fill-opacity:0.8;stroke:#afdde9;stroke-width:0.264583"
       id="rect2-5-7-9-6-7-8-2"
       width="2.5361254"
       height="83.517578"
       x="42.656231"
       y="399.06491" />
    <rect
       style="fill:#006680;stroke:#006680;stroke-width:0.264583"
       id="rect18-1"
       width="5.6609969"
       height="4.5609765"
       x="76.480705"
       y="482.20694"
       ry="0.9708907" />
    <rect
       style="fill:#006680;stroke:#006680;stroke-width:0.264583"
       id="rect18-1-3"
       width="5.6609969"
       height="4.5609765"
       x="55.83905"
       y="482.47153"
       ry="0.9708907" />
    <rect
       style="opacity:0.8;fill:#ffccaa;fill-opacity:1;stroke:#ffccaa;stroke-width:0.264582;stroke-opacity:1"
       id="rect18-7-3-7-0"
       width="1.7017888"
       height="91.518517"
       x="37.176998"
       y="395.77856"
       ry="0" />
    <rect
       style="fill:#ff9955;stroke:#ff9955;stroke-width:0.264583"
       id="rect18-1-8"
       width="5.6609969"
       height="4.5609765"
       x="35.197395"
       y="482.73615"
       ry="0.9708907" />
    <rect
       style="fill:#ff9955;stroke:#ff9955;stroke-width:0.264583"
       id="rect18-7-5-7"
       width="5.6609969"
       height="4.5609765"
       x="35.197395"
       y="426.54361"
       ry="0.9708907" />
    <rect
       style="fill:#ff9955;stroke:#ff9955;stroke-width:0.264583"
       id="rect18-7-3-7"
       width="5.6609969"
       height="4.5609765"
       x="35.197395"
       y="451.97113"
       ry="0.9708907" />
    <rect
       style="fill:#ff9955;stroke:#ff9955;stroke-width:0.264583"
       id="rect18-7-9"
       width="5.6609969"
       height="4.5609765"
       x="35.197395"
       y="395.77856"
       ry="0.9708907" />
    <rect
       style="opacity:0.8;fill:#ffccaa;fill-opacity:1;stroke:#ffccaa;stroke-width:0.264582;stroke-opacity:1"
       id="rect18-7-3-7-0-2"
       width="1.7017888"
       height="91.518517"
       x="57.818653"
       y="395.51395"
       ry="0" />
    <rect
       style="fill:#ff9955;stroke:#ff9955;stroke-width:0.264583"
       id="rect18-1-8-5"
       width="5.6609969"
       height="4.5609765"
       x="55.83905"
       y="482.47153"
       ry="0.9708907" />
    <rect
       style="fill:#ff9955;stroke:#ff9955;stroke-width:0.264583"
       id="rect18-7-5-7-4"
       width="5.6609969"
       height="4.5609765"
       x="55.83905"
       y="426.27899"
       ry="0.9708907" />
    <rect
       style="fill:#ff9955;stroke:#ff9955;stroke-width:0.264583"
       id="rect18-7-3-7-05"
       width="5.6609969"
       height="4.5609765"
       x="55.83905"
       y="451.70651"
       ry="0.9708907" />
    <rect
       style="fill:#ff9955;stroke:#ff9955;stroke-width:0.264583"
       id="rect18-7-9-9"
       width="5.6609969"
       height="4.5609765"
       x="55.83905"
       y="395.51395"
       ry="0.9708907" />
    <rect
       style="opacity:0.8;fill:#ffccaa;fill-opacity:1;stroke:#ffccaa;stroke-width:0.264582;stroke-opacity:1"
       id="rect18-7-3-7-0-22"
       width="1.7017888"
       height="91.518517"
       x="78.460304"
       y="395.24936"
       ry="0" />
    <rect
       style="fill:#ff9955;stroke:#ff9955;stroke-width:0.264583"
       id="rect18-1-8-4"
       width="5.6609969"
       height="4.5609765"
       x="76.480705"
       y="482.20694"
       ry="0.9708907" />
    <rect
       style="fill:#ff9955;stroke:#ff9955;stroke-width:0.264583"
       id="rect18-7-5-7-7"
       width="5.6609969"
       height="4.5609765"
       x="76.480705"
       y="426.0144"
       ry="0.9708907" />
    <rect
       style="fill:#ff9955;stroke:#ff9955;stroke-width:0.264583"
       id="rect18-7-3-7-7"
       width="5.6609969"
       height="4.5609765"
       x="76.480705"
       y="451.44193"
       ry="0.9708907" />
    <rect
       style="fill:#ff9955;stroke:#ff9955;stroke-width:0.264583"
       id="rect18-7-9-5"
       width="5.6609969"
       height="4.5609765"
       x="76.480705"
       y="395.24936"
       ry="0.9708907" />
    <rect
       style="opacity:0.8;fill:#ffccaa;fill-opacity:1;stroke:#ffccaa;stroke-width:0.264582;stroke-opacity:1"
       id="rect18-7-3-7-0-28"
       width="1.7017888"
       height="91.518517"
       x="99.366554"
       y="395.24936"
       ry="0" />
    <rect
       style="fill:#ff9955;stroke:#ff9955;stroke-width:0.264583"
       id="rect18-1-8-9"
       width="5.6609969"
       height="4.5609765"
       x="97.386948"
       y="482.20694"
       ry="0.9708907" />
    <rect
       style="fill:#ff9955;stroke:#ff9955;stroke-width:0.264583"
       id="rect18-7-5-7-3"
       width="5.6609969"
       height="4.5609765"
       x="97.386948"
       y="426.0144"
       ry="0.9708907" />
    <rect
       style="fill:#ff9955;stroke:#ff9955;stroke-width:0.264583"
       id="rect18-7-3-7-6"
       width="5.6609969"
       height="4.5609765"
       x="97.386948"
       y="451.44193"
       ry="0.9708907" />
    <rect
       style="fill:#ff9955;stroke:#ff9955;stroke-width:0.264583"
       id="rect18-7-9-8"
       width="5.6609969"
       height="4.5609765"
       x="97.386948"
       y="395.24936"
       ry="0.9708907" />
    <rect
       style="opacity:0.8;fill:#ffccaa;fill-opacity:1;stroke:#ffccaa;stroke-width:0.264582;stroke-opacity:1"
       id="rect18-7-3-7-0-0"
       width="1.7017888"
       height="91.518517"
       x="120.0082"
       y="394.98477"
       ry="0" />
    <rect
       style="fill:#ff9955;stroke:#ff9955;stroke-width:0.264583"
       id="rect18-1-8-51"
       width="5.6609969"
       height="4.5609765"
       x="118.0286"
       y="481.94235"
       ry="0.9708907" />
    <rect
       style="fill:#ff9955;stroke:#ff9955;stroke-width:0.264583"
       id="rect18-7-5-7-1"
       width="5.6609969"
       height="4.5609765"
       x="118.0286"
       y="425.74982"
       ry="0.9708907" />
    <rect
       style="fill:#ff9955;stroke:#ff9955;stroke-width:0.264583"
       id="rect18-7-3-7-08"
       width="5.6609969"
       height="4.5609765"
       x="118.0286"
       y="451.17734"
       ry="0.9708907" />
    <rect
       style="fill:#ff9955;stroke:#ff9955;stroke-width:0.264583"
       id="rect18-7-9-50"
       width="5.6609969"
       height="4.5609765"
       x="118.0286"
       y="394.98477"
       ry="0.9708907" />
    <path
       style="fill:none;stroke:#cccccc;stroke-width:0.264583px;stroke-linecap:butt;stroke-linejoin:miter;stroke-opacity:1"
       d="m 97.386948,484.48743 v 10.10645"
       id="path18" />
    <path
       style="fill:none;stroke:#cccccc;stroke-width:0.264583px;stroke-linecap:butt;stroke-linejoin:miter;stroke-opacity:1"
       d="m 103.18024,484.48743 v 10.10645"
       id="path18-2" />
    <path
       style="fill:none;stroke:#cccccc;stroke-width:0.264583px;stroke-linecap:butt;stroke-linejoin:miter;stroke-opacity:1"
       d="M 121.76696,481.81008 V 494.5939"
       id="path18-4" />
    <path
       style="fill:none;stroke:#cccccc;stroke-width:0.264583px;stroke-linecap:butt;stroke-linejoin:miter;stroke-opacity:1"
       d="M 119.87591,481.81008 V 494.5939"
       id="path18-9" />
    <path
       style="fill:none;stroke:#cccccc;stroke-width:0.264583px;stroke-linecap:butt;stroke-linejoin:miter;stroke-opacity:1"
       d="M 58.801839,487.16475 V 497.2712"
       id="path18-1" />
    <path
       style="fill:none;stroke:#cccccc;stroke-width:0.264583px;stroke-linecap:butt;stroke-linejoin:miter;stroke-opacity:1"
       d="m 79.178912,486.90021 v 10.10645"
       id="path18-0" />
    <path
       style="fill:none;stroke:#000000;stroke-width:0.264583;stroke-linecap:butt;stroke-linejoin:miter;stroke-opacity:1;marker-start:url(#marker5);marker-end:url(#marker5)"
       d="m 59.800128,497.2712 h 18.3188"
       id="path19" />
    <path
       style="fill:none;stroke:#000000;stroke-width:0.264583;stroke-linecap:butt;stroke-linejoin:miter;stroke-opacity:1;marker-start:url(#marker5-0);marker-end:url(#marker5-0)"
       d="m 98.61832,494.59388 h 3.23751"
       id="path19-9" />
    <path
       style="fill:none;stroke:#000000;stroke-width:0.264583;stroke-linecap:butt;stroke-linejoin:miter;stroke-opacity:1;marker-end:url(#marker5-0-3)"
       d="m 115.25337,494.5939 h 3.23751"
       id="path19-9-0" />
    <path
       style="fill:none;stroke:#000000;stroke-width:0.264583;stroke-linecap:butt;stroke-linejoin:miter;stroke-opacity:1;marker-end:url(#marker5-0-3-6)"
       d="m 126.3895,494.5939 h -3.23751"
       id="path19-9-0-6" />
    <path
       style="fill:none;stroke:#000000;stroke-width:0.264583;stroke-linecap:butt;stroke-linejoin:miter;stroke-opacity:1;marker-end:url(#marker5-0-3-7)"
       d="m 45.445068,495.03626 -3.736883,-6.49629"
       id="path19-9-0-2" />
    <path
       style="fill:none;stroke:#000000;stroke-width:0.264583;stroke-linecap:butt;stroke-linejoin:miter;stroke-opacity:1;marker-end:url(#marker5-0-3-7-6)"
       d="m 47.49725,494.80825 7.492007,-6.53289"
       id="path19-9-0-2-7" />
    <text
       xml:space="preserve"
       transform="matrix(0.26458333,0,0,0.26458333,23.418078,1.5820132)"
       id="text19"
       style="font-size:14.6667px;line-height:1.25;font-family:sans-serif;white-space:pre;shape-inside:url(#rect19)"><tspan
         x="156.625"
         y="1888.0977"
         id="tspan1">rod2</tspan></text>
    <text
       xml:space="preserve"
       transform="matrix(0.26458333,0,0,0.26458333,55.094797,-0.39570039)"
       id="text19-9"
       style="font-size:14.6667px;line-height:1.25;font-family:sans-serif;white-space:pre;shape-inside:url(#rect19-1);display:inline"><tspan
         x="156.625"
         y="1888.0977"
         id="tspan2">rod3</tspan></text>
    <text
       xml:space="preserve"
       transform="matrix(0.26458333,0,0,0.26458333,1.4895822,-1.0955041)"
       id="text19-1"
       style="font-size:14.6667px;line-height:1.25;font-family:sans-serif;white-space:pre;shape-inside:url(#rect19-3);display:inline"><tspan
         x="156.625"
         y="1888.0977"
         id="tspan3">rod1</tspan></text>
    <text
       xml:space="preserve"
       transform="matrix(0.26458333,0,0,0.26458333,75.598034,-0.56502765)"
       id="text19-7"
       style="font-size:14.6667px;line-height:1.25;font-family:sans-serif;white-space:pre;shape-inside:url(#rect19-5);display:inline"><tspan
         x="156.625"
         y="1888.0977"
         id="tspan4">rod4</tspan></text>
  </g>
</svg>
