<?xml version="1.0" encoding="UTF-8" standalone="no"?>
<!-- Created with Inkscape (http://www.inkscape.org/) -->

<svg
   width="510.92682"
   height="250.75218"
   viewBox="0 0 135.18272 66.344848"
   version="1.1"
   id="svg1"
   xmlns="http://www.w3.org/2000/svg"
   xmlns:svg="http://www.w3.org/2000/svg">
  <defs
     id="defs1">
    <rect
       x="472.69449"
       y="1240.8157"
       width="35.290516"
       height="24.365952"
       id="rect16" />
    <marker
       style="overflow:visible"
       id="RoundedArrow-6-2-0-1-3-3-3-7-7"
       refX="0"
       refY="0"
       orient="auto-start-reverse"
       markerWidth="1"
       markerHeight="1"
       viewBox="0 0 1 1"
       preserveAspectRatio="xMidYMid">
      <path
         transform="scale(0.7)"
         d="m -0.21114562,-4.1055728 6.42229122,3.21114561 a 1,1 90 0 1 0,1.78885438 L -0.21114562,4.1055728 A 1.236068,1.236068 31.717474 0 1 -2,3 v -6 a 1.236068,1.236068 148.28253 0 1 1.78885438,-1.1055728 z"
         style="fill:context-stroke;fill-rule:evenodd;stroke:none"
         id="path8-5-9-9-5-0-1-3-8-5" />
    </marker>
    <marker
       style="overflow:visible"
       id="RoundedArrow-6-2-0-1-3-3-3-8-9-3"
       refX="0"
       refY="0"
       orient="auto-start-reverse"
       markerWidth="1"
       markerHeight="1"
       viewBox="0 0 1 1"
       preserveAspectRatio="xMidYMid">
      <path
         transform="scale(0.7)"
         d="m -0.21114562,-4.1055728 6.42229122,3.21114561 a 1,1 90 0 1 0,1.78885438 L -0.21114562,4.1055728 A 1.236068,1.236068 31.717474 0 1 -2,3 v -6 a 1.236068,1.236068 148.28253 0 1 1.78885438,-1.1055728 z"
         style="fill:context-stroke;fill-rule:evenodd;stroke:none"
         id="path8-5-9-9-5-0-1-3-9-0-5" />
    </marker>
    <rect
       x="377.27731"
       y="898.37415"
       width="52.217644"
       height="35.377708"
       id="rect14-6" />
    <rect
       x="77.347443"
       y="662.31421"
       width="84.73671"
       height="47.255165"
       id="rect8-2" />
    <marker
       style="overflow:visible"
       id="RoundedArrow-6-2-0-1-3-3-3-8-9-3-3"
       refX="0"
       refY="0"
       orient="auto-start-reverse"
       markerWidth="1"
       markerHeight="1"
       viewBox="0 0 1 1"
       preserveAspectRatio="xMidYMid">
      <path
         transform="scale(0.7)"
         d="m -0.21114562,-4.1055728 6.42229122,3.21114561 a 1,1 90 0 1 0,1.78885438 L -0.21114562,4.1055728 A 1.236068,1.236068 31.717474 0 1 -2,3 v -6 a 1.236068,1.236068 148.28253 0 1 1.78885438,-1.1055728 z"
         style="fill:context-stroke;fill-rule:evenodd;stroke:none"
         id="path8-5-9-9-5-0-1-3-9-0-5-7" />
    </marker>
    <marker
       style="overflow:visible"
       id="RoundedArrow-6-2-0-1-3-3-3-7-7-5"
       refX="0"
       refY="0"
       orient="auto-start-reverse"
       markerWidth="1"
       markerHeight="1"
       viewBox="0 0 1 1"
       preserveAspectRatio="xMidYMid">
      <path
         transform="scale(0.7)"
         d="m -0.21114562,-4.1055728 6.42229122,3.21114561 a 1,1 90 0 1 0,1.78885438 L -0.21114562,4.1055728 A 1.236068,1.236068 31.717474 0 1 -2,3 v -6 a 1.236068,1.236068 148.28253 0 1 1.78885438,-1.1055728 z"
         style="fill:context-stroke;fill-rule:evenodd;stroke:none"
         id="path8-5-9-9-5-0-1-3-8-5-9" />
    </marker>
    <marker
       style="overflow:visible"
       id="RoundedArrow-6-2-04-2-3"
       refX="0"
       refY="0"
       orient="auto-start-reverse"
       markerWidth="1"
       markerHeight="1"
       viewBox="0 0 1 1"
       preserveAspectRatio="xMidYMid">
      <path
         transform="scale(0.7)"
         d="m -0.21114562,-4.1055728 6.42229122,3.21114561 a 1,1 90 0 1 0,1.78885438 L -0.21114562,4.1055728 A 1.236068,1.236068 31.717474 0 1 -2,3 v -6 a 1.236068,1.236068 148.28253 0 1 1.78885438,-1.1055728 z"
         style="fill:context-stroke;fill-rule:evenodd;stroke:none"
         id="path8-5-9-2-6-6" />
    </marker>
    <marker
       style="overflow:visible"
       id="marker5-6-3-2-1-1"
       refX="0"
       refY="0"
       orient="auto-start-reverse"
       markerWidth="1"
       markerHeight="1"
       viewBox="0 0 1 1"
       preserveAspectRatio="xMidYMid">
      <path
         transform="scale(0.7)"
         d="m -0.21114562,-4.1055728 6.42229122,3.21114561 a 1,1 90 0 1 0,1.78885438 L -0.21114562,4.1055728 A 1.236068,1.236068 31.717474 0 1 -2,3 v -6 a 1.236068,1.236068 148.28253 0 1 1.78885438,-1.1055728 z"
         style="fill:context-stroke;fill-rule:evenodd;stroke:none"
         id="path5-3-9-2-8-2" />
    </marker>
    <marker
       style="overflow:visible"
       id="RoundedArrow-6-2-04-2-2-9"
       refX="0"
       refY="0"
       orient="auto-start-reverse"
       markerWidth="1"
       markerHeight="1"
       viewBox="0 0 1 1"
       preserveAspectRatio="xMidYMid">
      <path
         transform="scale(0.7)"
         d="m -0.21114562,-4.1055728 6.42229122,3.21114561 a 1,1 90 0 1 0,1.78885438 L -0.21114562,4.1055728 A 1.236068,1.236068 31.717474 0 1 -2,3 v -6 a 1.236068,1.236068 148.28253 0 1 1.78885438,-1.1055728 z"
         style="fill:context-stroke;fill-rule:evenodd;stroke:none"
         id="path8-5-9-2-6-3-3" />
    </marker>
    <marker
       style="overflow:visible"
       id="marker5-6-3-2-1-7-1"
       refX="0"
       refY="0"
       orient="auto-start-reverse"
       markerWidth="1"
       markerHeight="1"
       viewBox="0 0 1 1"
       preserveAspectRatio="xMidYMid">
      <path
         transform="scale(0.7)"
         d="m -0.21114562,-4.1055728 6.42229122,3.21114561 a 1,1 90 0 1 0,1.78885438 L -0.21114562,4.1055728 A 1.236068,1.236068 31.717474 0 1 -2,3 v -6 a 1.236068,1.236068 148.28253 0 1 1.78885438,-1.1055728 z"
         style="fill:context-stroke;fill-rule:evenodd;stroke:none"
         id="path5-3-9-2-8-5-9" />
    </marker>
    <rect
       x="457.96124"
       y="914.39246"
       width="60.51133"
       height="51.02951"
       id="rect4-4" />
    <rect
       x="386.61539"
       y="938.71246"
       width="36.163876"
       height="24.295645"
       id="rect15-7" />
    <marker
       style="overflow:visible"
       id="RoundedArrow-6-2-04-2-3-4"
       refX="0"
       refY="0"
       orient="auto-start-reverse"
       markerWidth="1"
       markerHeight="1"
       viewBox="0 0 1 1"
       preserveAspectRatio="xMidYMid">
      <path
         transform="scale(0.7)"
         d="m -0.21114562,-4.1055728 6.42229122,3.21114561 a 1,1 90 0 1 0,1.78885438 L -0.21114562,4.1055728 A 1.236068,1.236068 31.717474 0 1 -2,3 v -6 a 1.236068,1.236068 148.28253 0 1 1.78885438,-1.1055728 z"
         style="fill:context-stroke;fill-rule:evenodd;stroke:none"
         id="path8-5-9-2-6-6-7" />
    </marker>
    <marker
       style="overflow:visible"
       id="marker5-6-3-2-1-1-6"
       refX="0"
       refY="0"
       orient="auto-start-reverse"
       markerWidth="1"
       markerHeight="1"
       viewBox="0 0 1 1"
       preserveAspectRatio="xMidYMid">
      <path
         transform="scale(0.7)"
         d="m -0.21114562,-4.1055728 6.42229122,3.21114561 a 1,1 90 0 1 0,1.78885438 L -0.21114562,4.1055728 A 1.236068,1.236068 31.717474 0 1 -2,3 v -6 a 1.236068,1.236068 148.28253 0 1 1.78885438,-1.1055728 z"
         style="fill:context-stroke;fill-rule:evenodd;stroke:none"
         id="path5-3-9-2-8-2-5" />
    </marker>
    <marker
       style="overflow:visible"
       id="RoundedArrow-4"
       refX="0"
       refY="0"
       orient="auto-start-reverse"
       markerWidth="1"
       markerHeight="1"
       viewBox="0 0 1 1"
       preserveAspectRatio="xMidYMid">
      <path
         transform="scale(0.7)"
         d="m -0.21114562,-4.1055728 6.42229122,3.21114561 a 1,1 90 0 1 0,1.78885438 L -0.21114562,4.1055728 A 1.236068,1.236068 31.717474 0 1 -2,3 v -6 a 1.236068,1.236068 148.28253 0 1 1.78885438,-1.1055728 z"
         style="fill:context-stroke;fill-rule:evenodd;stroke:none"
         id="path8-52" />
    </marker>
    <marker
       style="overflow:visible"
       id="marker5-5"
       refX="0"
       refY="0"
       orient="auto-start-reverse"
       markerWidth="1"
       markerHeight="1"
       viewBox="0 0 1 1"
       preserveAspectRatio="xMidYMid">
      <path
         transform="scale(0.7)"
         d="m -0.21114562,-4.1055728 6.42229122,3.21114561 a 1,1 90 0 1 0,1.78885438 L -0.21114562,4.1055728 A 1.236068,1.236068 31.717474 0 1 -2,3 v -6 a 1.236068,1.236068 148.28253 0 1 1.78885438,-1.1055728 z"
         style="fill:context-stroke;fill-rule:evenodd;stroke:none"
         id="path5-4" />
    </marker>
    <rect
       x="477.34253"
       y="130.60777"
       width="70.286659"
       height="45.62746"
       id="rect5-7" />
    <marker
       style="overflow:visible"
       id="RoundedArrow-6-2-0-1-3-3-9-6-9"
       refX="0"
       refY="0"
       orient="auto-start-reverse"
       markerWidth="1"
       markerHeight="1"
       viewBox="0 0 1 1"
       preserveAspectRatio="xMidYMid">
      <path
         transform="scale(0.7)"
         d="m -0.21114562,-4.1055728 6.42229122,3.21114561 a 1,1 90 0 1 0,1.78885438 L -0.21114562,4.1055728 A 1.236068,1.236068 31.717474 0 1 -2,3 v -6 a 1.236068,1.236068 148.28253 0 1 1.78885438,-1.1055728 z"
         style="fill:context-stroke;fill-rule:evenodd;stroke:none"
         id="path8-5-9-9-5-0-1-7-0-4" />
    </marker>
    <marker
       style="overflow:visible"
       id="marker5-6-3-6-9-4-7-5-4-9"
       refX="0"
       refY="0"
       orient="auto-start-reverse"
       markerWidth="1"
       markerHeight="1"
       viewBox="0 0 1 1"
       preserveAspectRatio="xMidYMid">
      <path
         transform="scale(0.7)"
         d="m -0.21114562,-4.1055728 6.42229122,3.21114561 a 1,1 90 0 1 0,1.78885438 L -0.21114562,4.1055728 A 1.236068,1.236068 31.717474 0 1 -2,3 v -6 a 1.236068,1.236068 148.28253 0 1 1.78885438,-1.1055728 z"
         style="fill:context-stroke;fill-rule:evenodd;stroke:none"
         id="path5-3-9-3-8-4-5-3-8-0" />
    </marker>
    <marker
       style="overflow:visible"
       id="RoundedArrow-6-2-0-1-3-3-9-6-0-9"
       refX="0"
       refY="0"
       orient="auto-start-reverse"
       markerWidth="1"
       markerHeight="1"
       viewBox="0 0 1 1"
       preserveAspectRatio="xMidYMid">
      <path
         transform="scale(0.7)"
         d="m -0.21114562,-4.1055728 6.42229122,3.21114561 a 1,1 90 0 1 0,1.78885438 L -0.21114562,4.1055728 A 1.236068,1.236068 31.717474 0 1 -2,3 v -6 a 1.236068,1.236068 148.28253 0 1 1.78885438,-1.1055728 z"
         style="fill:context-stroke;fill-rule:evenodd;stroke:none"
         id="path8-5-9-9-5-0-1-7-0-3-17" />
    </marker>
    <marker
       style="overflow:visible"
       id="marker5-6-3-6-9-4-7-5-4-0-7"
       refX="0"
       refY="0"
       orient="auto-start-reverse"
       markerWidth="1"
       markerHeight="1"
       viewBox="0 0 1 1"
       preserveAspectRatio="xMidYMid">
      <path
         transform="scale(0.7)"
         d="m -0.21114562,-4.1055728 6.42229122,3.21114561 a 1,1 90 0 1 0,1.78885438 L -0.21114562,4.1055728 A 1.236068,1.236068 31.717474 0 1 -2,3 v -6 a 1.236068,1.236068 148.28253 0 1 1.78885438,-1.1055728 z"
         style="fill:context-stroke;fill-rule:evenodd;stroke:none"
         id="path5-3-9-3-8-4-5-3-8-9-1" />
    </marker>
    <marker
       style="overflow:visible"
       id="RoundedArrow-6-2-0-1-3-3-9-6-0-0-1"
       refX="0"
       refY="0"
       orient="auto-start-reverse"
       markerWidth="1"
       markerHeight="1"
       viewBox="0 0 1 1"
       preserveAspectRatio="xMidYMid">
      <path
         transform="scale(0.7)"
         d="m -0.21114562,-4.1055728 6.42229122,3.21114561 a 1,1 90 0 1 0,1.78885438 L -0.21114562,4.1055728 A 1.236068,1.236068 31.717474 0 1 -2,3 v -6 a 1.236068,1.236068 148.28253 0 1 1.78885438,-1.1055728 z"
         style="fill:context-stroke;fill-rule:evenodd;stroke:none"
         id="path8-5-9-9-5-0-1-7-0-3-2-59" />
    </marker>
    <marker
       style="overflow:visible"
       id="marker5-6-3-6-9-4-7-5-4-0-1-7"
       refX="0"
       refY="0"
       orient="auto-start-reverse"
       markerWidth="1"
       markerHeight="1"
       viewBox="0 0 1 1"
       preserveAspectRatio="xMidYMid">
      <path
         transform="scale(0.7)"
         d="m -0.21114562,-4.1055728 6.42229122,3.21114561 a 1,1 90 0 1 0,1.78885438 L -0.21114562,4.1055728 A 1.236068,1.236068 31.717474 0 1 -2,3 v -6 a 1.236068,1.236068 148.28253 0 1 1.78885438,-1.1055728 z"
         style="fill:context-stroke;fill-rule:evenodd;stroke:none"
         id="path5-3-9-3-8-4-5-3-8-9-0-7" />
    </marker>
    <marker
       style="overflow:visible"
       id="RoundedArrow-6-2-0-1-3-3-9-6-0-0-8-6"
       refX="0"
       refY="0"
       orient="auto-start-reverse"
       markerWidth="1"
       markerHeight="1"
       viewBox="0 0 1 1"
       preserveAspectRatio="xMidYMid">
      <path
         transform="scale(0.7)"
         d="m -0.21114562,-4.1055728 6.42229122,3.21114561 a 1,1 90 0 1 0,1.78885438 L -0.21114562,4.1055728 A 1.236068,1.236068 31.717474 0 1 -2,3 v -6 a 1.236068,1.236068 148.28253 0 1 1.78885438,-1.1055728 z"
         style="fill:context-stroke;fill-rule:evenodd;stroke:none"
         id="path8-5-9-9-5-0-1-7-0-3-2-5-7" />
    </marker>
    <marker
       style="overflow:visible"
       id="marker5-6-3-6-9-4-7-5-4-0-1-0-3"
       refX="0"
       refY="0"
       orient="auto-start-reverse"
       markerWidth="1"
       markerHeight="1"
       viewBox="0 0 1 1"
       preserveAspectRatio="xMidYMid">
      <path
         transform="scale(0.7)"
         d="m -0.21114562,-4.1055728 6.42229122,3.21114561 a 1,1 90 0 1 0,1.78885438 L -0.21114562,4.1055728 A 1.236068,1.236068 31.717474 0 1 -2,3 v -6 a 1.236068,1.236068 148.28253 0 1 1.78885438,-1.1055728 z"
         style="fill:context-stroke;fill-rule:evenodd;stroke:none"
         id="path5-3-9-3-8-4-5-3-8-9-0-6-6" />
    </marker>
    <marker
       style="overflow:visible"
       id="RoundedArrow-6-2-0-1-3-3-9-6-0-0-8-8-5"
       refX="0"
       refY="0"
       orient="auto-start-reverse"
       markerWidth="1"
       markerHeight="1"
       viewBox="0 0 1 1"
       preserveAspectRatio="xMidYMid">
      <path
         transform="scale(0.7)"
         d="m -0.21114562,-4.1055728 6.42229122,3.21114561 a 1,1 90 0 1 0,1.78885438 L -0.21114562,4.1055728 A 1.236068,1.236068 31.717474 0 1 -2,3 v -6 a 1.236068,1.236068 148.28253 0 1 1.78885438,-1.1055728 z"
         style="fill:context-stroke;fill-rule:evenodd;stroke:none"
         id="path8-5-9-9-5-0-1-7-0-3-2-5-6-6" />
    </marker>
    <marker
       style="overflow:visible"
       id="marker5-6-3-6-9-4-7-5-4-0-1-0-2-3"
       refX="0"
       refY="0"
       orient="auto-start-reverse"
       markerWidth="1"
       markerHeight="1"
       viewBox="0 0 1 1"
       preserveAspectRatio="xMidYMid">
      <path
         transform="scale(0.7)"
         d="m -0.21114562,-4.1055728 6.42229122,3.21114561 a 1,1 90 0 1 0,1.78885438 L -0.21114562,4.1055728 A 1.236068,1.236068 31.717474 0 1 -2,3 v -6 a 1.236068,1.236068 148.28253 0 1 1.78885438,-1.1055728 z"
         style="fill:context-stroke;fill-rule:evenodd;stroke:none"
         id="path5-3-9-3-8-4-5-3-8-9-0-6-8-9" />
    </marker>
    <marker
       style="overflow:visible"
       id="RoundedArrow-6-2-0-1-3-3-9-6-0-0-0-4"
       refX="0"
       refY="0"
       orient="auto-start-reverse"
       markerWidth="1"
       markerHeight="1"
       viewBox="0 0 1 1"
       preserveAspectRatio="xMidYMid">
      <path
         transform="scale(0.7)"
         d="m -0.21114562,-4.1055728 6.42229122,3.21114561 a 1,1 90 0 1 0,1.78885438 L -0.21114562,4.1055728 A 1.236068,1.236068 31.717474 0 1 -2,3 v -6 a 1.236068,1.236068 148.28253 0 1 1.78885438,-1.1055728 z"
         style="fill:context-stroke;fill-rule:evenodd;stroke:none"
         id="path8-5-9-9-5-0-1-7-0-3-2-6-8" />
    </marker>
    <marker
       style="overflow:visible"
       id="marker5-6-3-6-9-4-7-5-4-0-1-2-1"
       refX="0"
       refY="0"
       orient="auto-start-reverse"
       markerWidth="1"
       markerHeight="1"
       viewBox="0 0 1 1"
       preserveAspectRatio="xMidYMid">
      <path
         transform="scale(0.7)"
         d="m -0.21114562,-4.1055728 6.42229122,3.21114561 a 1,1 90 0 1 0,1.78885438 L -0.21114562,4.1055728 A 1.236068,1.236068 31.717474 0 1 -2,3 v -6 a 1.236068,1.236068 148.28253 0 1 1.78885438,-1.1055728 z"
         style="fill:context-stroke;fill-rule:evenodd;stroke:none"
         id="path5-3-9-3-8-4-5-3-8-9-0-9-2" />
    </marker>
    <marker
       style="overflow:visible"
       id="RoundedArrow-6-2-0-1-3-3-9-6-0-3-9"
       refX="0"
       refY="0"
       orient="auto-start-reverse"
       markerWidth="1"
       markerHeight="1"
       viewBox="0 0 1 1"
       preserveAspectRatio="xMidYMid">
      <path
         transform="scale(0.7)"
         d="m -0.21114562,-4.1055728 6.42229122,3.21114561 a 1,1 90 0 1 0,1.78885438 L -0.21114562,4.1055728 A 1.236068,1.236068 31.717474 0 1 -2,3 v -6 a 1.236068,1.236068 148.28253 0 1 1.78885438,-1.1055728 z"
         style="fill:context-stroke;fill-rule:evenodd;stroke:none"
         id="path8-5-9-9-5-0-1-7-0-3-1-3" />
    </marker>
    <marker
       style="overflow:visible"
       id="marker5-6-3-6-9-4-7-5-4-0-10-9"
       refX="0"
       refY="0"
       orient="auto-start-reverse"
       markerWidth="1"
       markerHeight="1"
       viewBox="0 0 1 1"
       preserveAspectRatio="xMidYMid">
      <path
         transform="scale(0.7)"
         d="m -0.21114562,-4.1055728 6.42229122,3.21114561 a 1,1 90 0 1 0,1.78885438 L -0.21114562,4.1055728 A 1.236068,1.236068 31.717474 0 1 -2,3 v -6 a 1.236068,1.236068 148.28253 0 1 1.78885438,-1.1055728 z"
         style="fill:context-stroke;fill-rule:evenodd;stroke:none"
         id="path5-3-9-3-8-4-5-3-8-9-3-0" />
    </marker>
    <rect
       x="232.99828"
       y="693.14838"
       width="86.641243"
       height="36.167568"
       id="rect10-8" />
    <rect
       x="232.99828"
       y="693.14838"
       width="86.641243"
       height="36.167568"
       id="rect10-4-8" />
    <rect
       x="232.99828"
       y="693.14838"
       width="86.641243"
       height="36.167568"
       id="rect10-6-5" />
    <rect
       x="232.99828"
       y="693.14838"
       width="86.641243"
       height="36.167568"
       id="rect10-7-0" />
    <rect
       x="183.22218"
       y="667.30438"
       width="108.47318"
       height="49.624756"
       id="rect11-9" />
    <rect
       x="232.99828"
       y="693.14838"
       width="86.641243"
       height="36.167568"
       id="rect10-60-6" />
    <rect
       x="232.99828"
       y="693.14838"
       width="86.641243"
       height="36.167568"
       id="rect10-60-1-3" />
  </defs>
  <g
     id="layer1"
     transform="translate(-15.975817,-282.74008)">
    <rect
       style="fill:#ffffff;stroke:#ffffff;stroke-width:0.264583"
       id="rect25"
       width="134.91814"
       height="66.080246"
       x="16.108109"
       y="282.87238" />
    <rect
       style="fill:#afdde9;fill-opacity:0.8;stroke:#afdde9;stroke-width:0.264583"
       id="rect2-5-94"
       width="2.5361254"
       height="8.310585"
       x="26.590626"
       y="307.46964" />
    <rect
       style="fill:#afdde9;fill-opacity:0.8;stroke:#afdde9;stroke-width:0.264583"
       id="rect2-5-9-7"
       width="2.5361254"
       height="8.310585"
       x="117.97834"
       y="307.46964" />
    <rect
       style="fill:#afdde9;fill-opacity:0.8;stroke:#afdde9;stroke-width:0.264583"
       id="rect2-5-2-8"
       width="2.5361254"
       height="8.310585"
       x="63.670174"
       y="307.46964" />
    <rect
       style="fill:#afdde9;fill-opacity:0.8;stroke:#afdde9;stroke-width:0.264583"
       id="rect2-5-7-4"
       width="2.5361254"
       height="8.310585"
       x="80.898758"
       y="307.46964" />
    <rect
       style="fill:#afdde9;fill-opacity:0.8;stroke:#afdde9;stroke-width:0.264583"
       id="rect2-5-7-9-5"
       width="2.5361254"
       height="8.310585"
       x="87.570694"
       y="307.46964" />
    <rect
       style="fill:#afdde9;fill-opacity:0.8;stroke:#afdde9;stroke-width:0.264583"
       id="rect2-5-7-9-6-0"
       width="2.5361254"
       height="8.310585"
       x="56.99823"
       y="307.46964" />
    <rect
       style="fill:#afdde9;fill-opacity:0.8;stroke:#afdde9;stroke-width:0.264583"
       id="rect2-5-7-9-1-3"
       width="2.5361254"
       height="8.310585"
       x="101.05025"
       y="307.46964" />
    <rect
       style="fill:#afdde9;fill-opacity:0.8;stroke:#afdde9;stroke-width:0.264583"
       id="rect2-5-7-9-1-9-6"
       width="2.5361254"
       height="8.310585"
       x="107.72218"
       y="307.46964" />
    <rect
       style="fill:#afdde9;fill-opacity:0.8;stroke:#afdde9;stroke-width:0.264583"
       id="rect2-5-7-9-6-7-1"
       width="2.5361254"
       height="8.310585"
       x="43.518669"
       y="307.46964" />
    <rect
       style="fill:#afdde9;fill-opacity:0.8;stroke:#afdde9;stroke-width:0.264583"
       id="rect2-5-7-9-6-7-8-0"
       width="2.5361254"
       height="8.310585"
       x="36.846725"
       y="307.46964" />
    <rect
       style="fill:#5fbcd3;stroke:#5fbcd3;stroke-width:0.264583"
       id="rect2-7"
       width="93.92382"
       height="8.4765606"
       x="26.590626"
       y="316.0448" />
    <rect
       style="fill:#2c89a0;stroke:#5fbcd3;stroke-width:0.264583"
       id="rect2-2-7-2"
       width="93.92382"
       height="3.9713562"
       x="26.590626"
       y="316.0448" />
    <rect
       style="fill:#ffffff;fill-opacity:1;stroke:#afdde9;stroke-width:0.264583"
       id="rect2-5-94-0"
       width="1.7782087"
       height="7.6822267"
       x="26.969584"
       y="307.78381" />
    <rect
       style="fill:#ffffff;fill-opacity:1;stroke:#afdde9;stroke-width:0.264583"
       id="rect2-5-94-0-5"
       width="1.7782087"
       height="7.6822267"
       x="37.225685"
       y="307.78381" />
    <rect
       style="fill:#ffffff;fill-opacity:1;stroke:#afdde9;stroke-width:0.264583"
       id="rect2-5-94-0-56"
       width="1.7782087"
       height="7.6822267"
       x="43.897629"
       y="307.78381" />
    <rect
       style="fill:#ffffff;fill-opacity:1;stroke:#afdde9;stroke-width:0.264583"
       id="rect2-5-94-0-4"
       width="1.7782087"
       height="7.6822267"
       x="57.37719"
       y="307.78381" />
    <rect
       style="fill:#ffffff;fill-opacity:1;stroke:#afdde9;stroke-width:0.264583"
       id="rect2-5-94-0-47"
       width="1.7782087"
       height="7.6822267"
       x="64.049133"
       y="307.78381" />
    <rect
       style="fill:#ffffff;fill-opacity:1;stroke:#afdde9;stroke-width:0.264583"
       id="rect2-5-94-0-0"
       width="1.7782087"
       height="7.6822267"
       x="81.277718"
       y="307.78381" />
    <rect
       style="fill:#ffffff;fill-opacity:1;stroke:#afdde9;stroke-width:0.264583"
       id="rect2-5-94-0-8"
       width="1.7782087"
       height="7.6822267"
       x="87.949654"
       y="307.78381" />
    <rect
       style="fill:#ffffff;fill-opacity:1;stroke:#afdde9;stroke-width:0.264583"
       id="rect2-5-94-0-1"
       width="1.7782087"
       height="7.6822267"
       x="101.42921"
       y="307.78381" />
    <rect
       style="fill:#ffffff;fill-opacity:1;stroke:#afdde9;stroke-width:0.264583"
       id="rect2-5-94-0-06"
       width="1.7782087"
       height="7.6822267"
       x="108.10114"
       y="307.78381" />
    <rect
       style="fill:#ffffff;fill-opacity:1;stroke:#afdde9;stroke-width:0.264583"
       id="rect2-5-94-0-6"
       width="1.7782087"
       height="7.6822267"
       x="118.3573"
       y="307.78381" />
    <path
       style="fill:none;stroke:#000000;stroke-width:0.264583;stroke-linecap:butt;stroke-linejoin:miter;stroke-opacity:1;marker-start:url(#RoundedArrow-6-2-0-1-3-3-3-7-7)"
       d="m 28.330746,311.42377 h 1.976711"
       id="path4-4-8-5-8-4-6-4-5-9" />
    <path
       style="fill:none;stroke:#000000;stroke-width:0.264583;stroke-linecap:butt;stroke-linejoin:miter;stroke-opacity:1;marker-start:url(#RoundedArrow-6-2-0-1-3-3-3-8-9-3)"
       d="M 25.043784,311.50026 H 23.067073"
       id="path4-4-8-5-8-4-6-4-6-0-1" />
    <text
       xml:space="preserve"
       transform="matrix(0.26458333,0,0,0.26458333,-81.665347,71.660901)"
       id="text14-2"
       style="font-size:14.6667px;line-height:1.25;font-family:sans-serif;white-space:pre;shape-inside:url(#rect14-6);display:inline"><tspan
         x="377.27734"
         y="911.35159"
         id="tspan1">E3</tspan></text>
    <path
       style="fill:none;stroke:#b3b3b3;stroke-width:0.264583px;stroke-linecap:butt;stroke-linejoin:miter;stroke-opacity:1"
       d="m 26.590626,292.09371 v 15.24363"
       id="path3-15-8-1" />
    <path
       style="fill:none;stroke:#b3b3b3;stroke-width:0.264583px;stroke-linecap:butt;stroke-linejoin:miter;stroke-opacity:1"
       d="m 29.126751,292.09372 v 15.24363"
       id="path3-15-1-8" />
    <text
       xml:space="preserve"
       transform="matrix(0.26458333,0,0,0.26458333,5.3691629,112.10924)"
       id="text8-9"
       style="font-size:14.6667px;line-height:1.25;font-family:sans-serif;white-space:pre;shape-inside:url(#rect8-2);display:inline"><tspan
         x="77.347656"
         y="675.29105"
         id="tspan2">H1</tspan></text>
    <path
       style="fill:none;stroke:#000000;stroke-width:0.264583;stroke-linecap:butt;stroke-linejoin:miter;stroke-opacity:1;marker-start:url(#RoundedArrow-6-2-0-1-3-3-3-7-7-5)"
       d="m 30.320802,292.09372 h 1.976711"
       id="path4-4-8-5-8-4-6-4-5-9-2" />
    <path
       style="fill:none;stroke:#000000;stroke-width:0.264583;stroke-linecap:butt;stroke-linejoin:miter;stroke-opacity:1;marker-start:url(#RoundedArrow-6-2-0-1-3-3-3-8-9-3-3)"
       d="M 25.2056,292.09371 H 23.228889"
       id="path4-4-8-5-8-4-6-4-6-0-1-8" />
    <path
       style="fill:none;stroke:#b3b3b3;stroke-width:0.264582px;stroke-linecap:butt;stroke-linejoin:miter;stroke-opacity:1"
       d="m 120.51445,320.01614 h 12.09391"
       id="path3-94-2-2-4" />
    <path
       style="fill:none;stroke:#b3b3b3;stroke-width:0.264582px;stroke-linecap:butt;stroke-linejoin:miter;stroke-opacity:1"
       d="m 120.64675,316.04479 h 22.40589"
       id="path3-94-2-2-7-5" />
    <path
       style="fill:none;stroke:#b3b3b3;stroke-width:0.264582px;stroke-linecap:butt;stroke-linejoin:miter;stroke-opacity:1"
       d="m 120.64676,307.46963 h 12.09391"
       id="path3-94-2-2-6-0" />
    <path
       style="fill:none;stroke:#000000;stroke-width:0.264582;stroke-linecap:butt;stroke-linejoin:miter;stroke-opacity:1;marker-start:url(#RoundedArrow-6-2-04-2-3);marker-end:url(#marker5-6-3-2-1-1)"
       d="m 132.74068,308.8252 v 5.72849"
       id="path4-4-8-0-9-3" />
    <path
       style="fill:none;stroke:#000000;stroke-width:0.264583;stroke-linecap:butt;stroke-linejoin:miter;stroke-opacity:1;marker-start:url(#RoundedArrow-6-2-04-2-2-9);marker-end:url(#marker5-6-3-2-1-7-1)"
       d="m 132.60836,317.08938 v 1.82465"
       id="path4-4-8-0-9-2-6" />
    <text
       xml:space="preserve"
       transform="matrix(0.26458333,0,0,0.26458333,12.317042,74.049755)"
       id="text2-1"
       style="font-size:14.6667px;line-height:1.25;font-family:sans-serif;white-space:pre;shape-inside:url(#rect4-4);display:inline"><tspan
         x="457.96094"
         y="927.36917"
         id="tspan3">H4</tspan></text>
    <text
       xml:space="preserve"
       transform="matrix(0.26458333,0,0,0.26458333,30.866481,61.131144)"
       id="text12-6"
       style="font-size:14.6667px;line-height:1.25;font-family:sans-serif;white-space:pre;shape-inside:url(#rect15-7);display:inline"><tspan
         x="386.61523"
         y="951.68948"
         id="tspan4">H3</tspan></text>
    <path
       style="fill:none;stroke:#b3b3b3;stroke-width:0.264582px;stroke-linecap:butt;stroke-linejoin:miter;stroke-opacity:1"
       d="m 120.64674,324.52136 h 22.40589"
       id="path3-94-2-2-7-5-1" />
    <path
       style="fill:none;stroke:#000000;stroke-width:0.264582;stroke-linecap:butt;stroke-linejoin:miter;stroke-opacity:1;marker-start:url(#RoundedArrow-6-2-04-2-3-4);marker-end:url(#marker5-6-3-2-1-1-6)"
       d="m 143.05264,317.42981 v 5.72849"
       id="path4-4-8-0-9-3-9" />
    <text
       xml:space="preserve"
       transform="matrix(0.26458333,0,0,0.26458333,18.389032,-10.024199)"
       id="text3"
       style="font-size:14.6667px;line-height:1.25;font-family:sans-serif;white-space:pre;shape-inside:url(#rect16);display:inline"><tspan
         x="472.69531"
         y="1253.793"
         id="tspan5">D1</tspan></text>
    <path
       style="fill:none;stroke:#b3b3b3;stroke-width:0.264583px;stroke-linecap:butt;stroke-linejoin:miter;stroke-opacity:1"
       d="M 26.326043,339.89728 V 324.65365"
       id="path3-15-4" />
    <path
       style="fill:none;stroke:#b3b3b3;stroke-width:0.264583px;stroke-linecap:butt;stroke-linejoin:miter;stroke-opacity:1"
       d="M 120.24987,339.89728 V 324.65365"
       id="path3-6-3" />
    <path
       style="fill:none;stroke:#000000;stroke-width:0.264583;stroke-linecap:butt;stroke-linejoin:miter;stroke-opacity:1;marker-start:url(#RoundedArrow-4);marker-end:url(#marker5-5)"
       d="M 27.588154,339.57905 H 118.7969"
       id="path4-0" />
    <text
       xml:space="preserve"
       transform="matrix(0.26458333,0,0,0.26458333,-55.619599,305.20694)"
       id="text5-7"
       style="font-size:14.6667px;line-height:1.25;font-family:sans-serif;white-space:pre;shape-inside:url(#rect5-7);display:inline"><tspan
         x="477.3418"
         y="143.58401"
         id="tspan6">L1</tspan></text>
    <path
       style="fill:none;stroke:#b3b3b3;stroke-width:0.264583px;stroke-linecap:butt;stroke-linejoin:miter;stroke-opacity:1"
       d="M 66.206299,307.33734 V 292.09371"
       id="path3-15-4-4" />
    <path
       style="fill:none;stroke:#b3b3b3;stroke-width:0.264583px;stroke-linecap:butt;stroke-linejoin:miter;stroke-opacity:1"
       d="M 56.99823,307.33734 V 292.09371"
       id="path3-15-4-9" />
    <path
       style="fill:none;stroke:#b3b3b3;stroke-width:0.264583px;stroke-linecap:butt;stroke-linejoin:miter;stroke-opacity:1"
       d="M 46.054795,307.33734 V 292.09371"
       id="path3-15-4-8" />
    <path
       style="fill:none;stroke:#b3b3b3;stroke-width:0.264583px;stroke-linecap:butt;stroke-linejoin:miter;stroke-opacity:1"
       d="M 36.846725,307.33734 V 292.09371"
       id="path3-15-4-6" />
    <path
       style="fill:none;stroke:#b3b3b3;stroke-width:0.264583px;stroke-linecap:butt;stroke-linejoin:miter;stroke-opacity:1"
       d="M 80.898758,307.33734 V 292.09371"
       id="path3-15-4-0" />
    <path
       style="fill:none;stroke:#b3b3b3;stroke-width:0.264583px;stroke-linecap:butt;stroke-linejoin:miter;stroke-opacity:1"
       d="M 90.106819,307.33734 V 292.09371"
       id="path3-15-4-1" />
    <path
       style="fill:none;stroke:#b3b3b3;stroke-width:0.264583px;stroke-linecap:butt;stroke-linejoin:miter;stroke-opacity:1"
       d="M 101.05025,307.33734 V 292.09371"
       id="path3-15-4-2" />
    <path
       style="fill:none;stroke:#b3b3b3;stroke-width:0.264583px;stroke-linecap:butt;stroke-linejoin:miter;stroke-opacity:1"
       d="M 110.25831,307.33734 V 292.09371"
       id="path3-15-4-06" />
    <path
       style="fill:none;stroke:#000000;stroke-width:0.264584;stroke-linecap:butt;stroke-linejoin:miter;stroke-opacity:1;marker-start:url(#RoundedArrow-6-2-0-1-3-3-9-6-9);marker-end:url(#marker5-6-3-6-9-4-7-5-4-9)"
       d="M 67.649242,292.0937 H 79.455811"
       id="path4-4-8-5-8-4-6-8-8-56" />
    <path
       style="fill:none;stroke:#000000;stroke-width:0.264584;stroke-linecap:butt;stroke-linejoin:miter;stroke-opacity:1;marker-start:url(#RoundedArrow-6-2-0-1-3-3-9-6-0-9);marker-end:url(#marker5-6-3-6-9-4-7-5-4-0-7)"
       d="m 37.725787,292.09371 h 7.095937"
       id="path4-4-8-5-8-4-6-8-8-5-11" />
    <path
       style="fill:none;stroke:#000000;stroke-width:0.264584;stroke-linecap:butt;stroke-linejoin:miter;stroke-opacity:1;marker-start:url(#RoundedArrow-6-2-0-1-3-3-9-6-0-0-1);marker-end:url(#marker5-6-3-6-9-4-7-5-4-0-1-7)"
       d="m 47.523873,292.0937 h 8.253656"
       id="path4-4-8-5-8-4-6-8-8-5-1-5" />
    <path
       style="fill:none;stroke:#000000;stroke-width:0.264584;stroke-linecap:butt;stroke-linejoin:miter;stroke-opacity:1;marker-start:url(#RoundedArrow-6-2-0-1-3-3-9-6-0-0-8-6);marker-end:url(#marker5-6-3-6-9-4-7-5-4-0-1-0-3)"
       d="m 58.269302,292.09371 h 6.550875"
       id="path4-4-8-5-8-4-6-8-8-5-1-6-9" />
    <path
       style="fill:none;stroke:#000000;stroke-width:0.264584;stroke-linecap:butt;stroke-linejoin:miter;stroke-opacity:1;marker-start:url(#RoundedArrow-6-2-0-1-3-3-9-6-0-0-8-8-5);marker-end:url(#marker5-6-3-6-9-4-7-5-4-0-1-0-2-3)"
       d="M 82.100015,292.09371 H 88.65179"
       id="path4-4-8-5-8-4-6-8-8-5-1-6-7-8" />
    <path
       style="fill:none;stroke:#000000;stroke-width:0.264584;stroke-linecap:butt;stroke-linejoin:miter;stroke-opacity:1;marker-start:url(#RoundedArrow-6-2-0-1-3-3-9-6-0-0-0-4);marker-end:url(#marker5-6-3-6-9-4-7-5-4-0-1-2-1)"
       d="m 91.557292,292.0937 h 8.177293"
       id="path4-4-8-5-8-4-6-8-8-5-1-0-4" />
    <path
       style="fill:none;stroke:#000000;stroke-width:0.264584;stroke-linecap:butt;stroke-linejoin:miter;stroke-opacity:1;marker-start:url(#RoundedArrow-6-2-0-1-3-3-9-6-0-3-9);marker-end:url(#marker5-6-3-6-9-4-7-5-4-0-10-9)"
       d="m 102.34944,292.09371 h 6.60968"
       id="path4-4-8-5-8-4-6-8-8-5-0-8" />
    <text
       xml:space="preserve"
       transform="matrix(0.26458333,0,0,0.26458333,-23.072406,109.39592)"
       id="text10-1"
       style="font-size:14.6667px;line-height:1.25;font-family:sans-serif;white-space:pre;shape-inside:url(#rect10-8);display:inline"><tspan
         x="232.99805"
         y="706.12503"
         id="tspan7">L4</tspan></text>
    <text
       xml:space="preserve"
       transform="matrix(0.26458333,0,0,0.26458333,-3.0754656,109.98644)"
       id="text10-0-0"
       style="font-size:14.6667px;line-height:1.25;font-family:sans-serif;white-space:pre;shape-inside:url(#rect10-4-8);display:inline"><tspan
         x="232.99805"
         y="706.12503"
         id="tspan8">L4</tspan></text>
    <text
       xml:space="preserve"
       transform="matrix(0.26458333,0,0,0.26458333,21.583128,109.97687)"
       id="text10-5-4"
       style="font-size:14.6667px;line-height:1.25;font-family:sans-serif;white-space:pre;shape-inside:url(#rect10-6-5);display:inline"><tspan
         x="232.99805"
         y="706.12503"
         id="tspan9">L4</tspan></text>
    <text
       xml:space="preserve"
       transform="matrix(0.26458333,0,0,0.26458333,40.711187,109.45167)"
       id="text10-8-4"
       style="font-size:14.6667px;line-height:1.25;font-family:sans-serif;white-space:pre;shape-inside:url(#rect10-7-0);display:inline"><tspan
         x="232.99805"
         y="706.12503"
         id="tspan10">L4</tspan></text>
    <text
       xml:space="preserve"
       transform="matrix(0.26458333,0,0,0.26458333,22.187359,111.21232)"
       id="text11-6"
       style="font-size:14.6667px;line-height:1.25;font-family:sans-serif;white-space:pre;shape-inside:url(#rect11-9);display:inline"><tspan
         x="183.22266"
         y="680.28128"
         id="tspan11">L5</tspan></text>
    <text
       xml:space="preserve"
       transform="matrix(0.26458333,0,0,0.26458333,-12.665896,103.88078)"
       id="text10-7-3"
       style="font-size:14.6667px;line-height:1.25;font-family:sans-serif;white-space:pre;shape-inside:url(#rect10-60-6);display:inline"><tspan
         x="232.99805"
         y="706.12503"
         id="tspan12">L6</tspan></text>
    <text
       xml:space="preserve"
       transform="matrix(0.26458333,0,0,0.26458333,31.677527,103.85024)"
       id="text10-7-9-7"
       style="font-size:14.6667px;line-height:1.25;font-family:sans-serif;white-space:pre;shape-inside:url(#rect10-60-1-3);display:inline"><tspan
         x="232.99805"
         y="706.12503"
         id="tspan13">L6</tspan></text>
  </g>
</svg>
