<?xml version="1.0" encoding="UTF-8" standalone="no"?>
<!-- Created with Inkscape (http://www.inkscape.org/) -->

<svg
   width="548.94287"
   height="495.89667"
   viewBox="0 0 145.24113 131.20599"
   version="1.1"
   id="svg1"
   xmlns="http://www.w3.org/2000/svg"
   xmlns:svg="http://www.w3.org/2000/svg">
  <defs
     id="defs1">
    <rect
       x="183.22218"
       y="667.30438"
       width="108.47318"
       height="49.624756"
       id="rect11" />
    <rect
       x="232.99828"
       y="693.14838"
       width="86.641243"
       height="36.167568"
       id="rect10" />
    <rect
       x="480.52411"
       y="615.39862"
       width="71.61171"
       height="46.321358"
       id="rect9" />
    <rect
       x="77.347443"
       y="662.31421"
       width="84.73671"
       height="47.255165"
       id="rect8" />
    <rect
       x="463.98499"
       y="599.35779"
       width="90.103348"
       height="49.333168"
       id="rect7" />
    <rect
       x="18.019194"
       y="501.34103"
       width="52.367126"
       height="43.815205"
       id="rect6" />
    <rect
       x="477.34253"
       y="130.60777"
       width="70.286659"
       height="45.62746"
       id="rect5" />
    <marker
       style="overflow:visible"
       id="marker5"
       refX="0"
       refY="0"
       orient="auto-start-reverse"
       markerWidth="1"
       markerHeight="1"
       viewBox="0 0 1 1"
       preserveAspectRatio="xMidYMid">
      <path
         transform="scale(0.7)"
         d="m -0.21114562,-4.1055728 6.42229122,3.21114561 a 1,1 90 0 1 0,1.78885438 L -0.21114562,4.1055728 A 1.236068,1.236068 31.717474 0 1 -2,3 v -6 a 1.236068,1.236068 148.28253 0 1 1.78885438,-1.1055728 z"
         style="fill:context-stroke;fill-rule:evenodd;stroke:none"
         id="path5" />
    </marker>
    <marker
       style="overflow:visible"
       id="RoundedArrow"
       refX="0"
       refY="0"
       orient="auto-start-reverse"
       markerWidth="1"
       markerHeight="1"
       viewBox="0 0 1 1"
       preserveAspectRatio="xMidYMid">
      <path
         transform="scale(0.7)"
         d="m -0.21114562,-4.1055728 6.42229122,3.21114561 a 1,1 90 0 1 0,1.78885438 L -0.21114562,4.1055728 A 1.236068,1.236068 31.717474 0 1 -2,3 v -6 a 1.236068,1.236068 148.28253 0 1 1.78885438,-1.1055728 z"
         style="fill:context-stroke;fill-rule:evenodd;stroke:none"
         id="path8" />
    </marker>
    <marker
       style="overflow:visible"
       id="RoundedArrow-6"
       refX="0"
       refY="0"
       orient="auto-start-reverse"
       markerWidth="1"
       markerHeight="1"
       viewBox="0 0 1 1"
       preserveAspectRatio="xMidYMid">
      <path
         transform="scale(0.7)"
         d="m -0.21114562,-4.1055728 6.42229122,3.21114561 a 1,1 90 0 1 0,1.78885438 L -0.21114562,4.1055728 A 1.236068,1.236068 31.717474 0 1 -2,3 v -6 a 1.236068,1.236068 148.28253 0 1 1.78885438,-1.1055728 z"
         style="fill:context-stroke;fill-rule:evenodd;stroke:none"
         id="path8-5" />
    </marker>
    <marker
       style="overflow:visible"
       id="marker5-6"
       refX="0"
       refY="0"
       orient="auto-start-reverse"
       markerWidth="1"
       markerHeight="1"
       viewBox="0 0 1 1"
       preserveAspectRatio="xMidYMid">
      <path
         transform="scale(0.7)"
         d="m -0.21114562,-4.1055728 6.42229122,3.21114561 a 1,1 90 0 1 0,1.78885438 L -0.21114562,4.1055728 A 1.236068,1.236068 31.717474 0 1 -2,3 v -6 a 1.236068,1.236068 148.28253 0 1 1.78885438,-1.1055728 z"
         style="fill:context-stroke;fill-rule:evenodd;stroke:none"
         id="path5-3" />
    </marker>
    <marker
       style="overflow:visible"
       id="RoundedArrow-6-2"
       refX="0"
       refY="0"
       orient="auto-start-reverse"
       markerWidth="1"
       markerHeight="1"
       viewBox="0 0 1 1"
       preserveAspectRatio="xMidYMid">
      <path
         transform="scale(0.7)"
         d="m -0.21114562,-4.1055728 6.42229122,3.21114561 a 1,1 90 0 1 0,1.78885438 L -0.21114562,4.1055728 A 1.236068,1.236068 31.717474 0 1 -2,3 v -6 a 1.236068,1.236068 148.28253 0 1 1.78885438,-1.1055728 z"
         style="fill:context-stroke;fill-rule:evenodd;stroke:none"
         id="path8-5-9" />
    </marker>
    <marker
       style="overflow:visible"
       id="marker5-6-3"
       refX="0"
       refY="0"
       orient="auto-start-reverse"
       markerWidth="1"
       markerHeight="1"
       viewBox="0 0 1 1"
       preserveAspectRatio="xMidYMid">
      <path
         transform="scale(0.7)"
         d="m -0.21114562,-4.1055728 6.42229122,3.21114561 a 1,1 90 0 1 0,1.78885438 L -0.21114562,4.1055728 A 1.236068,1.236068 31.717474 0 1 -2,3 v -6 a 1.236068,1.236068 148.28253 0 1 1.78885438,-1.1055728 z"
         style="fill:context-stroke;fill-rule:evenodd;stroke:none"
         id="path5-3-9" />
    </marker>
    <marker
       style="overflow:visible"
       id="RoundedArrow-6-2-0"
       refX="0"
       refY="0"
       orient="auto-start-reverse"
       markerWidth="1"
       markerHeight="1"
       viewBox="0 0 1 1"
       preserveAspectRatio="xMidYMid">
      <path
         transform="scale(0.7)"
         d="m -0.21114562,-4.1055728 6.42229122,3.21114561 a 1,1 90 0 1 0,1.78885438 L -0.21114562,4.1055728 A 1.236068,1.236068 31.717474 0 1 -2,3 v -6 a 1.236068,1.236068 148.28253 0 1 1.78885438,-1.1055728 z"
         style="fill:context-stroke;fill-rule:evenodd;stroke:none"
         id="path8-5-9-9" />
    </marker>
    <marker
       style="overflow:visible"
       id="marker5-6-3-6"
       refX="0"
       refY="0"
       orient="auto-start-reverse"
       markerWidth="1"
       markerHeight="1"
       viewBox="0 0 1 1"
       preserveAspectRatio="xMidYMid">
      <path
         transform="scale(0.7)"
         d="m -0.21114562,-4.1055728 6.42229122,3.21114561 a 1,1 90 0 1 0,1.78885438 L -0.21114562,4.1055728 A 1.236068,1.236068 31.717474 0 1 -2,3 v -6 a 1.236068,1.236068 148.28253 0 1 1.78885438,-1.1055728 z"
         style="fill:context-stroke;fill-rule:evenodd;stroke:none"
         id="path5-3-9-3" />
    </marker>
    <marker
       style="overflow:visible"
       id="RoundedArrow-6-2-0-1-3"
       refX="0"
       refY="0"
       orient="auto-start-reverse"
       markerWidth="1"
       markerHeight="1"
       viewBox="0 0 1 1"
       preserveAspectRatio="xMidYMid">
      <path
         transform="scale(0.7)"
         d="m -0.21114562,-4.1055728 6.42229122,3.21114561 a 1,1 90 0 1 0,1.78885438 L -0.21114562,4.1055728 A 1.236068,1.236068 31.717474 0 1 -2,3 v -6 a 1.236068,1.236068 148.28253 0 1 1.78885438,-1.1055728 z"
         style="fill:context-stroke;fill-rule:evenodd;stroke:none"
         id="path8-5-9-9-5-0" />
    </marker>
    <marker
       style="overflow:visible"
       id="marker5-6-3-6-9-4"
       refX="0"
       refY="0"
       orient="auto-start-reverse"
       markerWidth="1"
       markerHeight="1"
       viewBox="0 0 1 1"
       preserveAspectRatio="xMidYMid">
      <path
         transform="scale(0.7)"
         d="m -0.21114562,-4.1055728 6.42229122,3.21114561 a 1,1 90 0 1 0,1.78885438 L -0.21114562,4.1055728 A 1.236068,1.236068 31.717474 0 1 -2,3 v -6 a 1.236068,1.236068 148.28253 0 1 1.78885438,-1.1055728 z"
         style="fill:context-stroke;fill-rule:evenodd;stroke:none"
         id="path5-3-9-3-8-4" />
    </marker>
    <marker
       style="overflow:visible"
       id="RoundedArrow-6-2-0-1-3-3"
       refX="0"
       refY="0"
       orient="auto-start-reverse"
       markerWidth="1"
       markerHeight="1"
       viewBox="0 0 1 1"
       preserveAspectRatio="xMidYMid">
      <path
         transform="scale(0.7)"
         d="m -0.21114562,-4.1055728 6.42229122,3.21114561 a 1,1 90 0 1 0,1.78885438 L -0.21114562,4.1055728 A 1.236068,1.236068 31.717474 0 1 -2,3 v -6 a 1.236068,1.236068 148.28253 0 1 1.78885438,-1.1055728 z"
         style="fill:context-stroke;fill-rule:evenodd;stroke:none"
         id="path8-5-9-9-5-0-1" />
    </marker>
    <marker
       style="overflow:visible"
       id="marker5-6-3-6-9-4-7"
       refX="0"
       refY="0"
       orient="auto-start-reverse"
       markerWidth="1"
       markerHeight="1"
       viewBox="0 0 1 1"
       preserveAspectRatio="xMidYMid">
      <path
         transform="scale(0.7)"
         d="m -0.21114562,-4.1055728 6.42229122,3.21114561 a 1,1 90 0 1 0,1.78885438 L -0.21114562,4.1055728 A 1.236068,1.236068 31.717474 0 1 -2,3 v -6 a 1.236068,1.236068 148.28253 0 1 1.78885438,-1.1055728 z"
         style="fill:context-stroke;fill-rule:evenodd;stroke:none"
         id="path5-3-9-3-8-4-5" />
    </marker>
    <marker
       style="overflow:visible"
       id="RoundedArrow-6-2-0-1-3-3-9"
       refX="0"
       refY="0"
       orient="auto-start-reverse"
       markerWidth="1"
       markerHeight="1"
       viewBox="0 0 1 1"
       preserveAspectRatio="xMidYMid">
      <path
         transform="scale(0.7)"
         d="m -0.21114562,-4.1055728 6.42229122,3.21114561 a 1,1 90 0 1 0,1.78885438 L -0.21114562,4.1055728 A 1.236068,1.236068 31.717474 0 1 -2,3 v -6 a 1.236068,1.236068 148.28253 0 1 1.78885438,-1.1055728 z"
         style="fill:context-stroke;fill-rule:evenodd;stroke:none"
         id="path8-5-9-9-5-0-1-7" />
    </marker>
    <marker
       style="overflow:visible"
       id="marker5-6-3-6-9-4-7-5"
       refX="0"
       refY="0"
       orient="auto-start-reverse"
       markerWidth="1"
       markerHeight="1"
       viewBox="0 0 1 1"
       preserveAspectRatio="xMidYMid">
      <path
         transform="scale(0.7)"
         d="m -0.21114562,-4.1055728 6.42229122,3.21114561 a 1,1 90 0 1 0,1.78885438 L -0.21114562,4.1055728 A 1.236068,1.236068 31.717474 0 1 -2,3 v -6 a 1.236068,1.236068 148.28253 0 1 1.78885438,-1.1055728 z"
         style="fill:context-stroke;fill-rule:evenodd;stroke:none"
         id="path5-3-9-3-8-4-5-3" />
    </marker>
    <marker
       style="overflow:visible"
       id="RoundedArrow-6-2-0-1-3-3-9-6"
       refX="0"
       refY="0"
       orient="auto-start-reverse"
       markerWidth="1"
       markerHeight="1"
       viewBox="0 0 1 1"
       preserveAspectRatio="xMidYMid">
      <path
         transform="scale(0.7)"
         d="m -0.21114562,-4.1055728 6.42229122,3.21114561 a 1,1 90 0 1 0,1.78885438 L -0.21114562,4.1055728 A 1.236068,1.236068 31.717474 0 1 -2,3 v -6 a 1.236068,1.236068 148.28253 0 1 1.78885438,-1.1055728 z"
         style="fill:context-stroke;fill-rule:evenodd;stroke:none"
         id="path8-5-9-9-5-0-1-7-0" />
    </marker>
    <marker
       style="overflow:visible"
       id="marker5-6-3-6-9-4-7-5-4"
       refX="0"
       refY="0"
       orient="auto-start-reverse"
       markerWidth="1"
       markerHeight="1"
       viewBox="0 0 1 1"
       preserveAspectRatio="xMidYMid">
      <path
         transform="scale(0.7)"
         d="m -0.21114562,-4.1055728 6.42229122,3.21114561 a 1,1 90 0 1 0,1.78885438 L -0.21114562,4.1055728 A 1.236068,1.236068 31.717474 0 1 -2,3 v -6 a 1.236068,1.236068 148.28253 0 1 1.78885438,-1.1055728 z"
         style="fill:context-stroke;fill-rule:evenodd;stroke:none"
         id="path5-3-9-3-8-4-5-3-8" />
    </marker>
    <marker
       style="overflow:visible"
       id="RoundedArrow-6-2-0-1-3-3-9-6-0"
       refX="0"
       refY="0"
       orient="auto-start-reverse"
       markerWidth="1"
       markerHeight="1"
       viewBox="0 0 1 1"
       preserveAspectRatio="xMidYMid">
      <path
         transform="scale(0.7)"
         d="m -0.21114562,-4.1055728 6.42229122,3.21114561 a 1,1 90 0 1 0,1.78885438 L -0.21114562,4.1055728 A 1.236068,1.236068 31.717474 0 1 -2,3 v -6 a 1.236068,1.236068 148.28253 0 1 1.78885438,-1.1055728 z"
         style="fill:context-stroke;fill-rule:evenodd;stroke:none"
         id="path8-5-9-9-5-0-1-7-0-3" />
    </marker>
    <marker
       style="overflow:visible"
       id="marker5-6-3-6-9-4-7-5-4-0"
       refX="0"
       refY="0"
       orient="auto-start-reverse"
       markerWidth="1"
       markerHeight="1"
       viewBox="0 0 1 1"
       preserveAspectRatio="xMidYMid">
      <path
         transform="scale(0.7)"
         d="m -0.21114562,-4.1055728 6.42229122,3.21114561 a 1,1 90 0 1 0,1.78885438 L -0.21114562,4.1055728 A 1.236068,1.236068 31.717474 0 1 -2,3 v -6 a 1.236068,1.236068 148.28253 0 1 1.78885438,-1.1055728 z"
         style="fill:context-stroke;fill-rule:evenodd;stroke:none"
         id="path5-3-9-3-8-4-5-3-8-9" />
    </marker>
    <marker
       style="overflow:visible"
       id="RoundedArrow-6-2-0-1-3-3-9-6-0-0"
       refX="0"
       refY="0"
       orient="auto-start-reverse"
       markerWidth="1"
       markerHeight="1"
       viewBox="0 0 1 1"
       preserveAspectRatio="xMidYMid">
      <path
         transform="scale(0.7)"
         d="m -0.21114562,-4.1055728 6.42229122,3.21114561 a 1,1 90 0 1 0,1.78885438 L -0.21114562,4.1055728 A 1.236068,1.236068 31.717474 0 1 -2,3 v -6 a 1.236068,1.236068 148.28253 0 1 1.78885438,-1.1055728 z"
         style="fill:context-stroke;fill-rule:evenodd;stroke:none"
         id="path8-5-9-9-5-0-1-7-0-3-2" />
    </marker>
    <marker
       style="overflow:visible"
       id="marker5-6-3-6-9-4-7-5-4-0-1"
       refX="0"
       refY="0"
       orient="auto-start-reverse"
       markerWidth="1"
       markerHeight="1"
       viewBox="0 0 1 1"
       preserveAspectRatio="xMidYMid">
      <path
         transform="scale(0.7)"
         d="m -0.21114562,-4.1055728 6.42229122,3.21114561 a 1,1 90 0 1 0,1.78885438 L -0.21114562,4.1055728 A 1.236068,1.236068 31.717474 0 1 -2,3 v -6 a 1.236068,1.236068 148.28253 0 1 1.78885438,-1.1055728 z"
         style="fill:context-stroke;fill-rule:evenodd;stroke:none"
         id="path5-3-9-3-8-4-5-3-8-9-0" />
    </marker>
    <marker
       style="overflow:visible"
       id="RoundedArrow-6-2-0-1-3-3-9-6-0-0-8"
       refX="0"
       refY="0"
       orient="auto-start-reverse"
       markerWidth="1"
       markerHeight="1"
       viewBox="0 0 1 1"
       preserveAspectRatio="xMidYMid">
      <path
         transform="scale(0.7)"
         d="m -0.21114562,-4.1055728 6.42229122,3.21114561 a 1,1 90 0 1 0,1.78885438 L -0.21114562,4.1055728 A 1.236068,1.236068 31.717474 0 1 -2,3 v -6 a 1.236068,1.236068 148.28253 0 1 1.78885438,-1.1055728 z"
         style="fill:context-stroke;fill-rule:evenodd;stroke:none"
         id="path8-5-9-9-5-0-1-7-0-3-2-5" />
    </marker>
    <marker
       style="overflow:visible"
       id="marker5-6-3-6-9-4-7-5-4-0-1-0"
       refX="0"
       refY="0"
       orient="auto-start-reverse"
       markerWidth="1"
       markerHeight="1"
       viewBox="0 0 1 1"
       preserveAspectRatio="xMidYMid">
      <path
         transform="scale(0.7)"
         d="m -0.21114562,-4.1055728 6.42229122,3.21114561 a 1,1 90 0 1 0,1.78885438 L -0.21114562,4.1055728 A 1.236068,1.236068 31.717474 0 1 -2,3 v -6 a 1.236068,1.236068 148.28253 0 1 1.78885438,-1.1055728 z"
         style="fill:context-stroke;fill-rule:evenodd;stroke:none"
         id="path5-3-9-3-8-4-5-3-8-9-0-6" />
    </marker>
    <marker
       style="overflow:visible"
       id="RoundedArrow-6-2-0-1-3-3-9-6-0-0-8-8"
       refX="0"
       refY="0"
       orient="auto-start-reverse"
       markerWidth="1"
       markerHeight="1"
       viewBox="0 0 1 1"
       preserveAspectRatio="xMidYMid">
      <path
         transform="scale(0.7)"
         d="m -0.21114562,-4.1055728 6.42229122,3.21114561 a 1,1 90 0 1 0,1.78885438 L -0.21114562,4.1055728 A 1.236068,1.236068 31.717474 0 1 -2,3 v -6 a 1.236068,1.236068 148.28253 0 1 1.78885438,-1.1055728 z"
         style="fill:context-stroke;fill-rule:evenodd;stroke:none"
         id="path8-5-9-9-5-0-1-7-0-3-2-5-6" />
    </marker>
    <marker
       style="overflow:visible"
       id="marker5-6-3-6-9-4-7-5-4-0-1-0-2"
       refX="0"
       refY="0"
       orient="auto-start-reverse"
       markerWidth="1"
       markerHeight="1"
       viewBox="0 0 1 1"
       preserveAspectRatio="xMidYMid">
      <path
         transform="scale(0.7)"
         d="m -0.21114562,-4.1055728 6.42229122,3.21114561 a 1,1 90 0 1 0,1.78885438 L -0.21114562,4.1055728 A 1.236068,1.236068 31.717474 0 1 -2,3 v -6 a 1.236068,1.236068 148.28253 0 1 1.78885438,-1.1055728 z"
         style="fill:context-stroke;fill-rule:evenodd;stroke:none"
         id="path5-3-9-3-8-4-5-3-8-9-0-6-8" />
    </marker>
    <marker
       style="overflow:visible"
       id="RoundedArrow-6-2-0-1-3-3-9-6-0-0-0"
       refX="0"
       refY="0"
       orient="auto-start-reverse"
       markerWidth="1"
       markerHeight="1"
       viewBox="0 0 1 1"
       preserveAspectRatio="xMidYMid">
      <path
         transform="scale(0.7)"
         d="m -0.21114562,-4.1055728 6.42229122,3.21114561 a 1,1 90 0 1 0,1.78885438 L -0.21114562,4.1055728 A 1.236068,1.236068 31.717474 0 1 -2,3 v -6 a 1.236068,1.236068 148.28253 0 1 1.78885438,-1.1055728 z"
         style="fill:context-stroke;fill-rule:evenodd;stroke:none"
         id="path8-5-9-9-5-0-1-7-0-3-2-6" />
    </marker>
    <marker
       style="overflow:visible"
       id="marker5-6-3-6-9-4-7-5-4-0-1-2"
       refX="0"
       refY="0"
       orient="auto-start-reverse"
       markerWidth="1"
       markerHeight="1"
       viewBox="0 0 1 1"
       preserveAspectRatio="xMidYMid">
      <path
         transform="scale(0.7)"
         d="m -0.21114562,-4.1055728 6.42229122,3.21114561 a 1,1 90 0 1 0,1.78885438 L -0.21114562,4.1055728 A 1.236068,1.236068 31.717474 0 1 -2,3 v -6 a 1.236068,1.236068 148.28253 0 1 1.78885438,-1.1055728 z"
         style="fill:context-stroke;fill-rule:evenodd;stroke:none"
         id="path5-3-9-3-8-4-5-3-8-9-0-9" />
    </marker>
    <marker
       style="overflow:visible"
       id="RoundedArrow-6-2-0-1-3-3-9-6-0-3"
       refX="0"
       refY="0"
       orient="auto-start-reverse"
       markerWidth="1"
       markerHeight="1"
       viewBox="0 0 1 1"
       preserveAspectRatio="xMidYMid">
      <path
         transform="scale(0.7)"
         d="m -0.21114562,-4.1055728 6.42229122,3.21114561 a 1,1 90 0 1 0,1.78885438 L -0.21114562,4.1055728 A 1.236068,1.236068 31.717474 0 1 -2,3 v -6 a 1.236068,1.236068 148.28253 0 1 1.78885438,-1.1055728 z"
         style="fill:context-stroke;fill-rule:evenodd;stroke:none"
         id="path8-5-9-9-5-0-1-7-0-3-1" />
    </marker>
    <marker
       style="overflow:visible"
       id="marker5-6-3-6-9-4-7-5-4-0-10"
       refX="0"
       refY="0"
       orient="auto-start-reverse"
       markerWidth="1"
       markerHeight="1"
       viewBox="0 0 1 1"
       preserveAspectRatio="xMidYMid">
      <path
         transform="scale(0.7)"
         d="m -0.21114562,-4.1055728 6.42229122,3.21114561 a 1,1 90 0 1 0,1.78885438 L -0.21114562,4.1055728 A 1.236068,1.236068 31.717474 0 1 -2,3 v -6 a 1.236068,1.236068 148.28253 0 1 1.78885438,-1.1055728 z"
         style="fill:context-stroke;fill-rule:evenodd;stroke:none"
         id="path5-3-9-3-8-4-5-3-8-9-3" />
    </marker>
    <rect
       x="77.347443"
       y="662.31421"
       width="84.73671"
       height="47.255165"
       id="rect8-1" />
    <rect
       x="77.347443"
       y="662.31421"
       width="84.73671"
       height="47.255165"
       id="rect8-1-3" />
    <rect
       x="232.99828"
       y="693.14838"
       width="86.641243"
       height="36.167568"
       id="rect10-4" />
    <rect
       x="232.99828"
       y="693.14838"
       width="86.641243"
       height="36.167568"
       id="rect10-6" />
    <rect
       x="232.99828"
       y="693.14838"
       width="86.641243"
       height="36.167568"
       id="rect10-7" />
    <rect
       x="232.99828"
       y="693.14838"
       width="86.641243"
       height="36.167568"
       id="rect10-60" />
    <rect
       x="232.99828"
       y="693.14838"
       width="86.641243"
       height="36.167568"
       id="rect10-60-1" />
  </defs>
  <g
     id="layer1"
     transform="translate(-4.7446613,-41.271027)">
    <rect
       style="fill:#ffffff;fill-opacity:1;stroke:#ffffff;stroke-width:0.264583"
       id="rect12"
       width="144.97656"
       height="130.94141"
       x="4.8769531"
       y="41.40332" />
    <rect
       style="fill:#5fbcd3;stroke:#5fbcd3;stroke-width:0.264583"
       id="rect2-2-6-6"
       width="93.92382"
       height="2.7304668"
       x="30.454166"
       y="145.71739" />
    <rect
       style="fill:#5fbcd3;stroke:#5fbcd3;stroke-width:0.264583"
       id="rect2"
       width="93.92382"
       height="8.4765606"
       x="30.454166"
       y="102.45078" />
    <rect
       style="fill:#5fbcd3;stroke:#5fbcd3;stroke-width:0.264583"
       id="rect2-2"
       width="93.92382"
       height="2.7304668"
       x="30.454165"
       y="94.463615" />
    <rect
       style="fill:#5fbcd3;stroke:#5fbcd3;stroke-width:0.264583"
       id="rect2-2-7"
       width="93.92382"
       height="2.7304668"
       x="30.454165"
       y="116.18404" />
    <rect
       style="fill:#5fbcd3;stroke:#5fbcd3;stroke-width:0.264583"
       id="rect2-2-6"
       width="93.92382"
       height="2.7304668"
       x="30.454166"
       y="64.930275" />
    <rect
       style="fill:#afdde9;fill-opacity:0.8;stroke:#afdde9;stroke-width:0.264583"
       id="rect2-5"
       width="2.5361254"
       height="83.517578"
       x="30.454166"
       y="64.930275" />
    <rect
       style="fill:#afdde9;fill-opacity:0.8;stroke:#afdde9;stroke-width:0.264583"
       id="rect2-5-9"
       width="2.5361254"
       height="83.517578"
       x="121.84187"
       y="64.930275" />
    <rect
       style="fill:#afdde9;fill-opacity:0.8;stroke:#afdde9;stroke-width:0.264583"
       id="rect2-5-2"
       width="2.5361254"
       height="83.517578"
       x="67.533714"
       y="64.930275" />
    <rect
       style="fill:#afdde9;fill-opacity:0.8;stroke:#afdde9;stroke-width:0.264583"
       id="rect2-5-7"
       width="2.5361254"
       height="83.517578"
       x="84.762299"
       y="64.930275" />
    <rect
       style="fill:#afdde9;fill-opacity:0.8;stroke:#afdde9;stroke-width:0.264583"
       id="rect2-5-7-9"
       width="2.5361254"
       height="83.517578"
       x="91.434235"
       y="64.930275" />
    <rect
       style="fill:#afdde9;fill-opacity:0.8;stroke:#afdde9;stroke-width:0.264583"
       id="rect2-5-7-9-6"
       width="2.5361254"
       height="83.517578"
       x="60.861774"
       y="64.930275" />
    <rect
       style="fill:#afdde9;fill-opacity:0.8;stroke:#afdde9;stroke-width:0.264583"
       id="rect2-5-7-9-1"
       width="2.5361254"
       height="83.517578"
       x="104.91379"
       y="64.930275" />
    <rect
       style="fill:#afdde9;fill-opacity:0.8;stroke:#afdde9;stroke-width:0.264583"
       id="rect2-5-7-9-1-9"
       width="2.5361254"
       height="83.517578"
       x="111.58572"
       y="64.930275" />
    <rect
       style="fill:#afdde9;fill-opacity:0.8;stroke:#afdde9;stroke-width:0.264583"
       id="rect2-5-7-9-6-7"
       width="2.5361254"
       height="83.517578"
       x="47.382214"
       y="64.930275" />
    <rect
       style="fill:#afdde9;fill-opacity:0.8;stroke:#afdde9;stroke-width:0.264583"
       id="rect2-5-7-9-6-7-8"
       width="2.5361254"
       height="83.517578"
       x="40.71027"
       y="64.930275" />
    <path
       style="fill:none;stroke:#b3b3b3;stroke-width:0.264583px;stroke-linecap:butt;stroke-linejoin:miter;stroke-opacity:1"
       d="m 124.51028,64.665692 h 15.24363"
       id="path3" />
    <path
       style="fill:none;stroke:#b3b3b3;stroke-width:0.264583px;stroke-linecap:butt;stroke-linejoin:miter;stroke-opacity:1"
       d="m 124.51029,148.71244 h 15.24363"
       id="path3-1" />
    <path
       style="fill:none;stroke:#b3b3b3;stroke-width:0.264583px;stroke-linecap:butt;stroke-linejoin:miter;stroke-opacity:1"
       d="m 15.078245,64.665692 h 15.24363"
       id="path3-0" />
    <path
       style="fill:none;stroke:#b3b3b3;stroke-width:0.264583px;stroke-linecap:butt;stroke-linejoin:miter;stroke-opacity:1"
       d="m 15.078245,67.925325 h 15.24363"
       id="path3-2" />
    <path
       style="fill:none;stroke:#b3b3b3;stroke-width:0.264583px;stroke-linecap:butt;stroke-linejoin:miter;stroke-opacity:1"
       d="m 15.078243,94.199033 h 15.24363"
       id="path3-9" />
    <path
       style="fill:none;stroke:#b3b3b3;stroke-width:0.264583px;stroke-linecap:butt;stroke-linejoin:miter;stroke-opacity:1"
       d="m 15.078243,97.458666 h 15.24363"
       id="path3-8" />
    <path
       style="fill:none;stroke:#b3b3b3;stroke-width:0.264583px;stroke-linecap:butt;stroke-linejoin:miter;stroke-opacity:1"
       d="m 15.078245,102.45078 h 15.24363"
       id="path3-27" />
    <path
       style="fill:none;stroke:#b3b3b3;stroke-width:0.264583px;stroke-linecap:butt;stroke-linejoin:miter;stroke-opacity:1"
       d="m 15.078245,110.92734 h 15.24363"
       id="path3-10" />
    <path
       style="fill:none;stroke:#b3b3b3;stroke-width:0.264583px;stroke-linecap:butt;stroke-linejoin:miter;stroke-opacity:1"
       d="m 124.51029,106.55677 h 6.94599"
       id="path3-94" />
    <path
       style="fill:none;stroke:#b3b3b3;stroke-width:0.264583px;stroke-linecap:butt;stroke-linejoin:miter;stroke-opacity:1"
       d="m 124.51028,97.458666 h 6.946"
       id="path3-94-1" />
    <path
       style="fill:none;stroke:#b3b3b3;stroke-width:0.264583px;stroke-linecap:butt;stroke-linejoin:miter;stroke-opacity:1"
       d="M 30.454166,64.533401 V 49.289771"
       id="path3-15" />
    <path
       style="fill:none;stroke:#b3b3b3;stroke-width:0.264583px;stroke-linecap:butt;stroke-linejoin:miter;stroke-opacity:1"
       d="M 124.37799,64.533401 V 49.289771"
       id="path3-6" />
    <path
       style="fill:none;stroke:#000000;stroke-width:0.264583;stroke-linecap:butt;stroke-linejoin:miter;stroke-opacity:1;marker-start:url(#RoundedArrow);marker-end:url(#marker5)"
       d="M 31.820707,49.28977 H 123.02944"
       id="path4" />
    <path
       style="fill:none;stroke:#000000;stroke-width:0.264583;stroke-linecap:butt;stroke-linejoin:miter;stroke-opacity:1;marker-start:url(#RoundedArrow-6);marker-end:url(#marker5-6)"
       d="M 139.75391,66.026691 V 147.32945"
       id="path4-4" />
    <path
       style="fill:none;stroke:#000000;stroke-width:0.264583;stroke-linecap:butt;stroke-linejoin:miter;stroke-opacity:1;marker-start:url(#RoundedArrow-6-2);marker-end:url(#marker5-6-3)"
       d="m 131.45628,98.783094 v 6.449246"
       id="path4-4-8" />
    <path
       style="fill:none;stroke:#000000;stroke-width:0.264583;stroke-linecap:butt;stroke-linejoin:miter;stroke-opacity:1;marker-start:url(#RoundedArrow-6-2-0);marker-end:url(#marker5-6-3-6)"
       d="m 15.078245,103.7319 v 5.91432"
       id="path4-4-8-5" />
    <path
       style="fill:none;stroke:#000000;stroke-width:0.264583;stroke-linecap:butt;stroke-linejoin:miter;stroke-opacity:1;marker-start:url(#RoundedArrow-6-2-0-1-3);marker-end:url(#marker5-6-3-6-9-4)"
       d="m 15.078245,65.843994 v 0.903028"
       id="path4-4-8-5-8-4" />
    <path
       style="fill:none;stroke:#000000;stroke-width:0.264583;stroke-linecap:butt;stroke-linejoin:miter;stroke-opacity:1;marker-start:url(#RoundedArrow-6-2-0-1-3-3);marker-end:url(#marker5-6-3-6-9-4-7)"
       d="m 15.078243,95.319476 v 0.903028"
       id="path4-4-8-5-8-4-6" />
    <path
       style="fill:none;stroke:#b3b3b3;stroke-width:0.264583px;stroke-linecap:butt;stroke-linejoin:miter;stroke-opacity:1"
       d="M 30.189583,163.82378 V 148.58015"
       id="path3-15-8" />
    <path
       style="fill:none;stroke:#b3b3b3;stroke-width:0.264583px;stroke-linecap:butt;stroke-linejoin:miter;stroke-opacity:1"
       d="M 33.254875,163.82377 V 148.58014"
       id="path3-15-1" />
    <path
       style="fill:none;stroke:#000000;stroke-width:0.264583;stroke-linecap:butt;stroke-linejoin:miter;stroke-opacity:1;marker-start:url(#RoundedArrow-6-2-0-1-3-3-9);marker-end:url(#marker5-6-3-6-9-4-7-5)"
       d="m 31.351226,163.82378 h 0.742005"
       id="path4-4-8-5-8-4-6-8" />
    <path
       style="fill:none;stroke:#b3b3b3;stroke-width:0.264583px;stroke-linecap:butt;stroke-linejoin:miter;stroke-opacity:1"
       d="M 84.762298,163.82377 V 148.58014"
       id="path3-15-1-9" />
    <path
       style="fill:none;stroke:#b3b3b3;stroke-width:0.264583px;stroke-linecap:butt;stroke-linejoin:miter;stroke-opacity:1"
       d="M 70.334426,163.82377 V 148.58014"
       id="path3-15-1-3" />
    <path
       style="fill:none;stroke:#000000;stroke-width:0.264584;stroke-linecap:butt;stroke-linejoin:miter;stroke-opacity:1;marker-start:url(#RoundedArrow-6-2-0-1-3-3-9-6);marker-end:url(#marker5-6-3-6-9-4-7-5-4)"
       d="M 71.905924,163.82377 H 83.190799"
       id="path4-4-8-5-8-4-6-8-8" />
    <path
       style="fill:none;stroke:#b3b3b3;stroke-width:0.264583px;stroke-linecap:butt;stroke-linejoin:miter;stroke-opacity:1"
       d="M 60.597191,163.82377 V 148.58014"
       id="path3-15-1-3-6" />
    <path
       style="fill:none;stroke:#000000;stroke-width:0.264584;stroke-linecap:butt;stroke-linejoin:miter;stroke-opacity:1;marker-start:url(#RoundedArrow-6-2-0-1-3-3-9-6-0);marker-end:url(#marker5-6-3-6-9-4-7-5-4-0)"
       d="m 42.040381,163.82377 h 7.095937"
       id="path4-4-8-5-8-4-6-8-8-5" />
    <path
       style="fill:none;stroke:#b3b3b3;stroke-width:0.264583px;stroke-linecap:butt;stroke-linejoin:miter;stroke-opacity:1"
       d="M 50.182922,163.82377 V 148.58014"
       id="path3-15-1-3-6-9" />
    <path
       style="fill:none;stroke:#b3b3b3;stroke-width:0.264583px;stroke-linecap:butt;stroke-linejoin:miter;stroke-opacity:1"
       d="M 40.71027,163.82377 V 148.58014"
       id="path3-15-1-3-6-2" />
    <path
       style="fill:none;stroke:#b3b3b3;stroke-width:0.264583px;stroke-linecap:butt;stroke-linejoin:miter;stroke-opacity:1"
       d="M 93.97036,163.69147 V 148.44784"
       id="path3-15-1-3-6-7" />
    <path
       style="fill:none;stroke:#b3b3b3;stroke-width:0.264583px;stroke-linecap:butt;stroke-linejoin:miter;stroke-opacity:1"
       d="M 104.64921,163.82377 V 148.58014"
       id="path3-15-1-3-6-1" />
    <path
       style="fill:none;stroke:#b3b3b3;stroke-width:0.264583px;stroke-linecap:butt;stroke-linejoin:miter;stroke-opacity:1"
       d="M 114.12185,163.69147 V 148.44784"
       id="path3-15-1-3-6-3" />
    <path
       style="fill:none;stroke:#000000;stroke-width:0.264584;stroke-linecap:butt;stroke-linejoin:miter;stroke-opacity:1;marker-start:url(#RoundedArrow-6-2-0-1-3-3-9-6-0-0);marker-end:url(#marker5-6-3-6-9-4-7-5-4-0-1)"
       d="M 51.738219,163.82377 H 59.38032"
       id="path4-4-8-5-8-4-6-8-8-5-1" />
    <path
       style="fill:none;stroke:#000000;stroke-width:0.264584;stroke-linecap:butt;stroke-linejoin:miter;stroke-opacity:1;marker-start:url(#RoundedArrow-6-2-0-1-3-3-9-6-0-0-8);marker-end:url(#marker5-6-3-6-9-4-7-5-4-0-1-0)"
       d="m 61.814382,163.82377 h 7.20643"
       id="path4-4-8-5-8-4-6-8-8-5-1-6" />
    <path
       style="fill:none;stroke:#000000;stroke-width:0.264584;stroke-linecap:butt;stroke-linejoin:miter;stroke-opacity:1;marker-start:url(#RoundedArrow-6-2-0-1-3-3-9-6-0-0-8-8);marker-end:url(#marker5-6-3-6-9-4-7-5-4-0-1-0-2)"
       d="m 86.082337,163.82377 h 6.832565"
       id="path4-4-8-5-8-4-6-8-8-5-1-6-7" />
    <path
       style="fill:none;stroke:#000000;stroke-width:0.264584;stroke-linecap:butt;stroke-linejoin:miter;stroke-opacity:1;marker-start:url(#RoundedArrow-6-2-0-1-3-3-9-6-0-0-0);marker-end:url(#marker5-6-3-6-9-4-7-5-4-0-1-2)"
       d="m 95.44528,163.82377 h 7.79399"
       id="path4-4-8-5-8-4-6-8-8-5-1-0" />
    <path
       style="fill:none;stroke:#000000;stroke-width:0.264584;stroke-linecap:butt;stroke-linejoin:miter;stroke-opacity:1;marker-start:url(#RoundedArrow-6-2-0-1-3-3-9-6-0-3);marker-end:url(#marker5-6-3-6-9-4-7-5-4-0-10)"
       d="m 105.76965,163.69147 h 7.09594"
       id="path4-4-8-5-8-4-6-8-8-5-0" />
    <text
       xml:space="preserve"
       transform="matrix(0.26458333,0,0,0.26458333,-51.364258,9.9541015)"
       id="text5"
       style="font-size:14.6667px;line-height:1.25;font-family:sans-serif;white-space:pre;shape-inside:url(#rect5)"><tspan
         x="477.3418"
         y="143.58401"
         id="tspan2">L1</tspan></text>
    <text
       xml:space="preserve"
       transform="matrix(0.26458333,0,0,0.26458333,4.6464843,-27.546874)"
       id="text6"
       style="font-size:14.6667px;line-height:1.25;font-family:sans-serif;white-space:pre;shape-inside:url(#rect6)"><tspan
         x="18.019531"
         y="514.31839"
         id="tspan3">D1</tspan></text>
    <text
       xml:space="preserve"
       transform="matrix(0.26458333,0,0,0.26458333,18.15625,-55.376952)"
       id="text7"
       style="font-size:14.6667px;line-height:1.25;font-family:sans-serif;white-space:pre;shape-inside:url(#rect7)"><tspan
         x="463.98438"
         y="612.33401"
         id="tspan4">L2</tspan></text>
    <text
       xml:space="preserve"
       transform="matrix(0.26458333,0,0,0.26458333,8.6923827,-10.050781)"
       id="text8"
       style="font-size:14.6667px;line-height:1.25;font-family:sans-serif;white-space:pre;shape-inside:url(#rect8)"><tspan
         x="77.347656"
         y="675.29105"
         id="tspan5">H1</tspan></text>
    <text
       xml:space="preserve"
       transform="matrix(0.26458333,0,0,0.26458333,-12.366135,-110.92879)"
       id="text8-6"
       style="font-size:14.6667px;line-height:1.25;font-family:sans-serif;white-space:pre;shape-inside:url(#rect8-1);display:inline"><tspan
         x="77.347656"
         y="675.29105"
         id="tspan6">H2</tspan></text>
    <text
       xml:space="preserve"
       transform="matrix(0.26458333,0,0,0.26458333,-12.307736,-81.71057)"
       id="text8-6-0"
       style="font-size:14.6667px;line-height:1.25;font-family:sans-serif;white-space:pre;shape-inside:url(#rect8-1-3);display:inline"><tspan
         x="77.347656"
         y="675.29105"
         id="tspan7">H2</tspan></text>
    <text
       xml:space="preserve"
       transform="matrix(0.26458333,0,0,0.26458333,5.359375,-62.452148)"
       id="text9"
       style="font-size:14.6667px;line-height:1.25;font-family:sans-serif;white-space:pre;shape-inside:url(#rect9)"><tspan
         x="480.52344"
         y="628.37503"
         id="tspan8">L3</tspan></text>
    <text
       xml:space="preserve"
       transform="matrix(0.26458333,0,0,0.26458333,-18.757812,-18.874023)"
       id="text10"
       style="font-size:14.6667px;line-height:1.25;font-family:sans-serif;white-space:pre;shape-inside:url(#rect10)"><tspan
         x="232.99805"
         y="706.12503"
         id="tspan9">L4</tspan></text>
    <text
       xml:space="preserve"
       transform="matrix(0.26458333,0,0,0.26458333,1.2391278,-18.283501)"
       id="text10-0"
       style="font-size:14.6667px;line-height:1.25;font-family:sans-serif;white-space:pre;shape-inside:url(#rect10-4);display:inline"><tspan
         x="232.99805"
         y="706.12503"
         id="tspan10">L4</tspan></text>
    <text
       xml:space="preserve"
       transform="matrix(0.26458333,0,0,0.26458333,25.897722,-18.293072)"
       id="text10-5"
       style="font-size:14.6667px;line-height:1.25;font-family:sans-serif;white-space:pre;shape-inside:url(#rect10-6);display:inline"><tspan
         x="232.99805"
         y="706.12503"
         id="tspan12">L4</tspan></text>
    <text
       xml:space="preserve"
       transform="matrix(0.26458333,0,0,0.26458333,45.025781,-18.818267)"
       id="text10-8"
       style="font-size:14.6667px;line-height:1.25;font-family:sans-serif;white-space:pre;shape-inside:url(#rect10-7);display:inline"><tspan
         x="232.99805"
         y="706.12503"
         id="tspan13">L4</tspan></text>
    <text
       xml:space="preserve"
       transform="matrix(0.26458333,0,0,0.26458333,26.501953,-17.057617)"
       id="text11"
       style="font-size:14.6667px;line-height:1.25;font-family:sans-serif;white-space:pre;shape-inside:url(#rect11)"><tspan
         x="183.22266"
         y="680.28128"
         id="tspan14">L5</tspan></text>
    <text
       xml:space="preserve"
       transform="matrix(0.26458333,0,0,0.26458333,-8.3513017,-24.389165)"
       id="text10-7"
       style="font-size:14.6667px;line-height:1.25;font-family:sans-serif;white-space:pre;shape-inside:url(#rect10-60);display:inline"><tspan
         x="232.99805"
         y="706.12503"
         id="tspan15">L6</tspan></text>
    <text
       xml:space="preserve"
       transform="matrix(0.26458333,0,0,0.26458333,35.992121,-24.419703)"
       id="text10-7-9"
       style="font-size:14.6667px;line-height:1.25;font-family:sans-serif;white-space:pre;shape-inside:url(#rect10-60-1);display:inline"><tspan
         x="232.99805"
         y="706.12503"
         id="tspan16">L6</tspan></text>
    <path
       style="fill:none;stroke:#b3b3b3;stroke-width:0.264583px;stroke-linecap:butt;stroke-linejoin:miter;stroke-opacity:1"
       d="M 77.548368,156.20195 V 106.68906"
       id="path3-15-1-9-1" />
  </g>
</svg>
