<?xml version="1.0" encoding="UTF-8" standalone="no"?>
<!-- Created with Inkscape (http://www.inkscape.org/) -->

<svg
   width="583.90381"
   height="511.1973"
   viewBox="0 0 154.49122 135.25428"
   version="1.1"
   id="svg1"
   inkscape:version="1.3.2 (1:1.3.2+202311252150+091e20ef0f)"
   sodipodi:docname="vaxis_guidance.svg"
   xmlns:inkscape="http://www.inkscape.org/namespaces/inkscape"
   xmlns:sodipodi="http://sodipodi.sourceforge.net/DTD/sodipodi-0.dtd"
   xmlns="http://www.w3.org/2000/svg"
   xmlns:svg="http://www.w3.org/2000/svg">
  <sodipodi:namedview
     id="namedview1"
     pagecolor="#ffffff"
     bordercolor="#666666"
     borderopacity="1.0"
     inkscape:showpageshadow="2"
     inkscape:pageopacity="0.0"
     inkscape:pagecheckerboard="0"
     inkscape:deskcolor="#d1d1d1"
     inkscape:document-units="px"
     inkscape:zoom="0.37417733"
     inkscape:cx="251.21779"
     inkscape:cy="606.66423"
     inkscape:window-width="1370"
     inkscape:window-height="836"
     inkscape:window-x="0"
     inkscape:window-y="0"
     inkscape:window-maximized="1"
     inkscape:current-layer="layer1" />
  <defs
     id="defs1">
    <rect
       x="106.8547"
       y="1728.1189"
       width="38.808441"
       height="30.887672"
       id="rect15" />
    <marker
       style="overflow:visible"
       id="ArrowWide-12"
       refX="0"
       refY="0"
       orient="auto-start-reverse"
       inkscape:stockid="Wide arrow"
       markerWidth="1"
       markerHeight="1"
       viewBox="0 0 1 1"
       inkscape:isstock="true"
       inkscape:collect="always"
       preserveAspectRatio="xMidYMid">
      <path
         style="fill:none;stroke:context-stroke;stroke-width:1;stroke-linecap:butt"
         d="M 3,-3 0,0 3,3"
         transform="rotate(180,0.125,0)"
         sodipodi:nodetypes="ccc"
         id="path1-70" />
    </marker>
    <rect
       x="274.5972"
       y="1135.8146"
       width="121.68361"
       height="58.76955"
       id="rect21-3" />
    <marker
       style="overflow:visible"
       id="ArrowWide-0"
       refX="0"
       refY="0"
       orient="auto-start-reverse"
       inkscape:stockid="Wide arrow"
       markerWidth="1"
       markerHeight="1"
       viewBox="0 0 1 1"
       inkscape:isstock="true"
       inkscape:collect="always"
       preserveAspectRatio="xMidYMid">
      <path
         style="fill:none;stroke:context-stroke;stroke-width:1;stroke-linecap:butt"
         d="M 3,-3 0,0 3,3"
         transform="rotate(180,0.125,0)"
         sodipodi:nodetypes="ccc"
         id="path1-96" />
    </marker>
    <marker
       style="overflow:visible"
       id="ArrowWide-0-1"
       refX="0"
       refY="0"
       orient="auto-start-reverse"
       inkscape:stockid="Wide arrow"
       markerWidth="1"
       markerHeight="1"
       viewBox="0 0 1 1"
       inkscape:isstock="true"
       inkscape:collect="always"
       preserveAspectRatio="xMidYMid">
      <path
         style="fill:none;stroke:context-stroke;stroke-width:1;stroke-linecap:butt"
         d="M 3,-3 0,0 3,3"
         transform="rotate(180,0.125,0)"
         sodipodi:nodetypes="ccc"
         id="path1-96-5" />
    </marker>
    <marker
       style="overflow:visible"
       id="ArrowWide-0-1-3"
       refX="0"
       refY="0"
       orient="auto-start-reverse"
       inkscape:stockid="Wide arrow"
       markerWidth="1"
       markerHeight="1"
       viewBox="0 0 1 1"
       inkscape:isstock="true"
       inkscape:collect="always"
       preserveAspectRatio="xMidYMid">
      <path
         style="fill:none;stroke:context-stroke;stroke-width:1;stroke-linecap:butt"
         d="M 3,-3 0,0 3,3"
         transform="rotate(180,0.125,0)"
         sodipodi:nodetypes="ccc"
         id="path1-96-5-0" />
    </marker>
    <marker
       style="overflow:visible"
       id="ArrowWide-1"
       refX="0"
       refY="0"
       orient="auto-start-reverse"
       inkscape:stockid="Wide arrow"
       markerWidth="1"
       markerHeight="1"
       viewBox="0 0 1 1"
       inkscape:isstock="true"
       inkscape:collect="always"
       preserveAspectRatio="xMidYMid">
      <path
         style="fill:none;stroke:context-stroke;stroke-width:1;stroke-linecap:butt"
         d="M 3,-3 0,0 3,3"
         transform="rotate(180,0.125,0)"
         sodipodi:nodetypes="ccc"
         id="path1-7" />
    </marker>
    <rect
       x="452.05978"
       y="645.81781"
       width="57.554684"
       height="33.411839"
       id="rect22-7" />
    <rect
       x="209.61575"
       y="689.97931"
       width="115.71773"
       height="71.502213"
       id="rect23-9" />
    <rect
       x="286.2843"
       y="727.23602"
       width="83.647041"
       height="43.59042"
       id="rect24-2" />
    <rect
       x="445.51904"
       y="1111.0859"
       width="61.593456"
       height="52.800728"
       id="rect26-7" />
    <rect
       x="433.23428"
       y="1175.5059"
       width="59.380264"
       height="56.736446"
       id="rect27-5" />
    <rect
       x="355.68982"
       y="756.99921"
       width="157.72296"
       height="40.716911"
       id="rect28" />
    <rect
       x="152.9462"
       y="783.1347"
       width="50.197361"
       height="30.107716"
       id="rect30-8" />
    <marker
       style="overflow:visible"
       id="ArrowWide-6"
       refX="0"
       refY="0"
       orient="auto-start-reverse"
       inkscape:stockid="Wide arrow"
       markerWidth="1"
       markerHeight="1"
       viewBox="0 0 1 1"
       inkscape:isstock="true"
       inkscape:collect="always"
       preserveAspectRatio="xMidYMid">
      <path
         style="fill:none;stroke:context-stroke;stroke-width:1;stroke-linecap:butt"
         d="M 3,-3 0,0 3,3"
         transform="rotate(180,0.125,0)"
         sodipodi:nodetypes="ccc"
         id="path16-93" />
    </marker>
    <rect
       x="256.08261"
       y="1047.6525"
       width="56.451965"
       height="52.312679"
       id="rect41-5" />
    <rect
       x="385.04675"
       y="566.25372"
       width="46.922985"
       height="30.295277"
       id="rect2-4" />
    <marker
       style="overflow:visible"
       id="ArrowWide-06"
       refX="0"
       refY="0"
       orient="auto-start-reverse"
       inkscape:stockid="Wide arrow"
       markerWidth="1"
       markerHeight="1"
       viewBox="0 0 1 1"
       inkscape:isstock="true"
       inkscape:collect="always"
       preserveAspectRatio="xMidYMid">
      <path
         style="fill:none;stroke:context-stroke;stroke-width:1;stroke-linecap:butt"
         d="M 3,-3 0,0 3,3"
         transform="rotate(180,0.125,0)"
         sodipodi:nodetypes="ccc"
         id="path16-8" />
    </marker>
    <marker
       style="overflow:visible"
       id="ArrowWide-0-1-2"
       refX="0"
       refY="0"
       orient="auto-start-reverse"
       inkscape:stockid="Wide arrow"
       markerWidth="1"
       markerHeight="1"
       viewBox="0 0 1 1"
       inkscape:isstock="true"
       inkscape:collect="always"
       preserveAspectRatio="xMidYMid">
      <path
         style="fill:none;stroke:context-stroke;stroke-width:1;stroke-linecap:butt"
         d="M 3,-3 0,0 3,3"
         transform="rotate(180,0.125,0)"
         sodipodi:nodetypes="ccc"
         id="path1-96-5-7" />
    </marker>
  </defs>
  <g
     inkscape:label="Layer 1"
     inkscape:groupmode="layer"
     id="layer1"
     transform="translate(-2.9281535,-200.93326)">
    <path
       style="fill:none;stroke:#cccccc;stroke-width:0.26458px;stroke-linecap:butt;stroke-linejoin:miter;stroke-opacity:1"
       d="M 17.373006,259.71527 H 35.176127"
       id="path13-1-2-8-8-7-2-0-3-95-7" />
    <rect
       style="fill:#ffffff;stroke:#ffffff;stroke-width:0.264583;stroke-linejoin:bevel"
       id="rect51"
       width="154.22662"
       height="134.98972"
       x="3.0604448"
       y="201.06555"
       inkscape:export-filename="vaxis_guidance_spring.svg"
       inkscape:export-xdpi="96"
       inkscape:export-ydpi="96" />
    <path
       style="fill:none;stroke:#0000ff;stroke-width:0.264583px;stroke-linecap:butt;stroke-linejoin:miter;stroke-opacity:1;marker-start:url(#ArrowWide-06)"
       d="m 9.9522911,303.70733 -2.940426,-5.73144"
       id="path31-2"
       sodipodi:nodetypes="cc" />
    <path
       style="fill:none;stroke:#cccccc;stroke-width:0.264583px;stroke-linecap:butt;stroke-linejoin:miter;stroke-opacity:1"
       d="m 35.353002,241.64617 v 18.10999 l 18.109999,5.3e-4"
       id="path29-7" />
    <path
       style="fill:none;stroke:#cccccc;stroke-width:0.264581px;stroke-linecap:butt;stroke-linejoin:miter;stroke-opacity:1"
       d="M 130.47108,210.25936 V 223.3756"
       id="path13-1-2-8-8-7-2-0-3" />
    <path
       style="fill:none;stroke:#cccccc;stroke-width:0.264581px;stroke-linecap:butt;stroke-linejoin:miter;stroke-opacity:1"
       d="M 134.46449,210.25936 V 223.3756"
       id="path13-1-2-8-8-7-2-0-3-9" />
    <circle
       style="fill:none;stroke:#cccccc;stroke-width:0.264583;stroke-linejoin:bevel"
       id="path14-3"
       cx="35.353008"
       cy="259.75632"
       r="14.116586" />
    <circle
       style="fill:none;stroke:#cccccc;stroke-width:0.264582;stroke-linejoin:bevel"
       id="path14-5"
       cx="59.566444"
       cy="289.97983"
       r="10.096856" />
    <path
       style="fill:none;stroke:#008000;stroke-width:0.264583px;stroke-linecap:butt;stroke-linejoin:miter;stroke-opacity:1"
       d="M 49.469592,289.97989 V 259.7566"
       id="path13-1" />
    <circle
       style="fill:none;stroke:#cccccc;stroke-width:0.264583;stroke-linejoin:bevel"
       id="path14-2"
       cx="35.353008"
       cy="259.75632"
       r="18.109995" />
    <path
       style="fill:none;stroke:#008000;stroke-width:0.264583px;stroke-linecap:butt;stroke-linejoin:miter;stroke-opacity:1"
       d="M 21.236421,304.68413 V 259.75661"
       id="path13-6" />
    <path
       style="fill:none;stroke:#008000;stroke-width:0.264583px;stroke-linecap:butt;stroke-linejoin:miter;stroke-opacity:1"
       d="M 35.353006,241.64661 H 17.110659 l -5.957374,63.03752 H 5.0392381"
       id="path13-5" />
    <circle
       style="fill:none;stroke:#cccccc;stroke-width:0.264582;stroke-linejoin:bevel"
       id="path14-5-6"
       cx="59.566444"
       cy="289.97983"
       r="6.1034451" />
    <path
       style="fill:none;stroke:#008000;stroke-width:0.264583px;stroke-linecap:butt;stroke-linejoin:miter;stroke-opacity:1"
       d="M 53.463001,289.97989 V 259.7566"
       id="path13-1-3" />
    <circle
       style="fill:none;stroke:#cccccc;stroke-width:0.264582;stroke-linejoin:bevel"
       id="path14-5-4"
       cx="75.766747"
       cy="259.75632"
       r="10.096856" />
    <circle
       style="fill:none;stroke:#cccccc;stroke-width:0.264582;stroke-linejoin:bevel"
       id="path14-5-6-4"
       cx="75.766747"
       cy="259.75632"
       r="6.1034451" />
    <path
       style="fill:none;stroke:#008000;stroke-width:0.264583px;stroke-linecap:butt;stroke-linejoin:miter;stroke-opacity:1"
       d="M 69.663303,289.97989 V 259.7566"
       id="path13-1-2-8" />
    <path
       style="fill:none;stroke:#008000;stroke-width:0.264583px;stroke-linecap:butt;stroke-linejoin:miter;stroke-opacity:1"
       d="M 65.669891,289.97989 V 259.7566"
       id="path13-1-2" />
    <circle
       style="fill:none;stroke:#cccccc;stroke-width:0.264582;stroke-linejoin:bevel"
       id="path14-5-43"
       cx="91.967049"
       cy="289.97983"
       r="10.096856" />
    <path
       style="fill:none;stroke:#008000;stroke-width:0.264583px;stroke-linecap:butt;stroke-linejoin:miter;stroke-opacity:1"
       d="M 81.870192,289.97989 V 259.7566"
       id="path13-1-1" />
    <circle
       style="fill:none;stroke:#cccccc;stroke-width:0.264582;stroke-linejoin:bevel"
       id="path14-5-6-49"
       cx="91.967049"
       cy="289.97983"
       r="6.1034451" />
    <path
       style="fill:none;stroke:#008000;stroke-width:0.264583px;stroke-linecap:butt;stroke-linejoin:miter;stroke-opacity:1"
       d="M 85.863602,289.97989 V 259.7566"
       id="path13-1-3-2" />
    <circle
       style="fill:none;stroke:#cccccc;stroke-width:0.264582;stroke-linejoin:bevel"
       id="path14-5-4-0"
       cx="108.16737"
       cy="259.75632"
       r="10.096856" />
    <circle
       style="fill:none;stroke:#cccccc;stroke-width:0.264582;stroke-linejoin:bevel"
       id="path14-5-6-4-6"
       cx="108.16737"
       cy="259.75632"
       r="6.1034451" />
    <path
       style="fill:none;stroke:#008000;stroke-width:0.264583px;stroke-linecap:butt;stroke-linejoin:miter;stroke-opacity:1"
       d="M 102.0639,289.97989 V 259.7566"
       id="path13-1-2-8-8" />
    <path
       style="fill:none;stroke:#008000;stroke-width:0.264583px;stroke-linecap:butt;stroke-linejoin:miter;stroke-opacity:1"
       d="M 98.070496,289.97989 V 259.7566"
       id="path13-1-2-9" />
    <circle
       style="fill:none;stroke:#cccccc;stroke-width:0.264582;stroke-linejoin:bevel"
       id="path14-5-43-4"
       cx="124.36766"
       cy="289.97983"
       r="10.096856" />
    <path
       style="fill:none;stroke:#008000;stroke-width:0.264583px;stroke-linecap:butt;stroke-linejoin:miter;stroke-opacity:1"
       d="M 114.27079,289.9799 V 259.75661"
       id="path13-1-1-9" />
    <circle
       style="fill:none;stroke:#cccccc;stroke-width:0.264582;stroke-linejoin:bevel"
       id="path14-5-6-49-5"
       cx="124.36766"
       cy="289.97983"
       r="6.1034451" />
    <path
       style="fill:none;stroke:#008000;stroke-width:0.264583px;stroke-linecap:butt;stroke-linejoin:miter;stroke-opacity:1"
       d="M 118.26419,289.9799 V 259.75661"
       id="path13-1-3-2-0" />
    <circle
       style="fill:none;stroke:#cccccc;stroke-width:0.264582;stroke-linejoin:bevel"
       id="path14-5-4-0-4"
       cx="140.56801"
       cy="233.34035"
       r="10.096856" />
    <circle
       style="fill:none;stroke:#cccccc;stroke-width:0.264582;stroke-linejoin:bevel"
       id="path14-5-6-4-6-8"
       cx="140.56801"
       cy="233.34035"
       r="6.1034451" />
    <path
       style="fill:none;stroke:#008000;stroke-width:0.264583px;stroke-linecap:butt;stroke-linejoin:miter;stroke-opacity:1"
       d="m 134.46449,289.97991 v -56.6393"
       id="path13-1-2-8-8-7" />
    <path
       style="fill:none;stroke:#008000;stroke-width:0.264583px;stroke-linecap:butt;stroke-linejoin:miter;stroke-opacity:1"
       d="m 130.47108,289.97991 v -56.6393"
       id="path13-1-2-9-1" />
    <path
       style="fill:none;stroke:#008000;stroke-width:0.264583px;stroke-linecap:butt;stroke-linejoin:miter;stroke-opacity:1"
       d="m 134.46449,233.34016 c 0,0 0.51343,-2.94185 1.47535,-3.97904 1.15428,-1.24459 2.93064,-2.12857 4.62809,-2.1244 1.7156,0.004 3.50654,0.90645 4.66696,2.17006 0.94413,1.02808 1.43649,3.93338 1.43649,3.93338 h 3.99341 c 0,0 -0.27271,-2.73117 -0.81277,-3.9689 -0.5793,-1.32765 -1.4569,-2.55943 -2.52803,-3.53458 -1.01763,-0.92644 -2.27249,-1.61292 -3.5681,-2.07688 -1.01349,-0.36293 -2.1118,-0.54408 -3.18796,-0.51649 -1.41515,0.0363 -2.86366,0.3062 -4.15186,0.89313 -1.33301,0.60734 -2.53375,1.54927 -3.51656,2.63548 -0.74178,0.81982 -1.31871,1.80695 -1.7146,2.83924 -0.45317,1.18165 -0.71383,3.729 -0.71383,3.729"
       id="path15-1"
       sodipodi:nodetypes="caaaccaaaaaaac" />
    <path
       style="fill:none;stroke:#008000;stroke-width:0.264583px;stroke-linecap:butt;stroke-linejoin:miter;stroke-opacity:1"
       d="m 130.47108,233.34061 v -10.1005"
       id="path13-1-2-8-8-7-2" />
    <path
       style="fill:none;stroke:#cccccc;stroke-width:0.264581px;stroke-linecap:butt;stroke-linejoin:miter;stroke-opacity:1"
       d="M 154.15668,223.10965 H 123.70066"
       id="path13-1-2-8-8-7-2-0" />
    <path
       style="fill:none;stroke:#008000;stroke-width:0.264583px;stroke-linecap:butt;stroke-linejoin:miter;stroke-opacity:1"
       d="m 134.46449,233.34061 v -10.1005"
       id="path13-1-2-8-8-7-2-9" />
    <path
       style="fill:none;stroke:#008000;stroke-width:0.264583px;stroke-linecap:butt;stroke-linejoin:miter;stroke-opacity:1"
       d="m 130.47108,223.24331 h 3.99341"
       id="path16-29" />
    <path
       style="fill:none;stroke:#cccccc;stroke-width:0.264582px;stroke-linecap:butt;stroke-linejoin:miter;stroke-opacity:1"
       d="M 154.15668,289.88004 H 134.45077"
       id="path13-1-2-8-8-7-2-0-9" />
    <path
       style="fill:none;stroke:#000000;stroke-width:0.264583px;stroke-linecap:butt;stroke-linejoin:miter;stroke-opacity:1;marker-start:url(#ArrowWide-12);marker-end:url(#ArrowWide-12)"
       d="m 154.15669,223.20291 v 66.46154"
       id="path17" />
    <path
       style="fill:none;stroke:#008000;stroke-width:0.264583px;stroke-linecap:butt;stroke-linejoin:miter;stroke-opacity:1"
       d="m 21.236417,259.75616 c 0,0 0.354002,-3.61793 1.024939,-5.28079 0.671609,-1.66452 1.68255,-3.22714 2.929792,-4.51791 1.260645,-1.30464 2.797471,-2.39511 4.462242,-3.11611 1.781723,-0.77165 3.758003,-1.19022 5.699612,-1.20177 1.831892,-0.0109 3.699161,0.36635 5.390647,1.06979 1.730623,0.71971 3.343738,1.80986 4.66507,3.13919 1.26406,1.27171 2.291468,2.8237 2.976131,4.48091 0.704369,1.70491 1.084739,5.42669 1.084739,5.42669"
       id="path18-3"
       sodipodi:nodetypes="caaaaaaac" />
    <path
       style="fill:none;stroke:#008000;stroke-width:0.264583px;stroke-linecap:butt;stroke-linejoin:miter;stroke-opacity:1"
       d="m 35.353002,241.64617 c 0,0 3.999511,0.31943 5.870959,0.97804 2.0563,0.72366 4.015876,1.82071 5.702101,3.20227 1.560367,1.27844 2.879447,2.87666 3.943178,4.59061 0.892082,1.43738 1.537738,3.03975 1.982076,4.67206 0.412102,1.51389 0.611682,4.66701 0.611682,4.66701"
       id="path19-1"
       sodipodi:nodetypes="caaaac" />
    <path
       style="fill:none;stroke:#008000;stroke-width:0.264583px;stroke-linecap:butt;stroke-linejoin:miter;stroke-opacity:1"
       d="m 53.463001,289.97989 c 0,0 0.305569,2.13021 0.816959,3.0502 0.44995,0.80946 1.113222,1.53847 1.899854,2.02724 1.001877,0.62251 2.207197,1.01127 3.386629,1.02576 1.083389,0.0133 2.192293,-0.32804 3.133064,-0.8655 0.80375,-0.45918 1.517085,-1.1384 1.996413,-1.9303 0.595156,-0.98326 0.973969,-3.30763 0.973969,-3.30763"
       id="path20-9"
       sodipodi:nodetypes="caaaaac" />
    <path
       style="fill:none;stroke:#008000;stroke-width:0.264583px;stroke-linecap:butt;stroke-linejoin:miter;stroke-opacity:1"
       d="m 49.469592,289.97989 c 0,0 0.240131,2.60627 0.739947,3.79381 0.567092,1.34738 1.43005,2.60385 2.491237,3.60929 0.958947,0.90857 2.143369,1.60272 3.378176,2.07211 1.103749,0.41957 2.30717,0.65527 3.487491,0.6214 1.558179,-0.0447 3.135864,-0.42568 4.549339,-1.08296 1.029148,-0.47856 1.95465,-1.20297 2.737509,-2.02473 0.813874,-0.85432 1.508093,-1.85656 1.964547,-2.94463 0.532808,-1.27008 0.84546,-4.04452 0.84546,-4.04452"
       id="path21-4"
       sodipodi:nodetypes="caaaaaaac" />
    <path
       style="fill:none;stroke:#008000;stroke-width:0.264583px;stroke-linecap:butt;stroke-linejoin:miter;stroke-opacity:1"
       d="m 85.863602,289.97989 c 0,0 0.305569,2.13021 0.816959,3.0502 0.44995,0.80946 1.113222,1.53847 1.899854,2.02724 1.001877,0.62251 2.207201,1.01127 3.386631,1.02576 1.08339,0.0133 2.19229,-0.32804 3.13307,-0.8655 0.80375,-0.45918 1.51708,-1.1384 1.99641,-1.9303 0.59515,-0.98326 0.97397,-3.30763 0.97397,-3.30763"
       id="path20-1"
       sodipodi:nodetypes="caaaaac" />
    <path
       style="fill:none;stroke:#008000;stroke-width:0.264583px;stroke-linecap:butt;stroke-linejoin:miter;stroke-opacity:1"
       d="m 81.870193,289.97989 c 0,0 0.240131,2.60627 0.739947,3.79381 0.567092,1.34738 1.43005,2.60385 2.491237,3.60929 0.958947,0.90857 2.143369,1.60272 3.378176,2.07211 1.103749,0.41957 2.307173,0.65527 3.487493,0.6214 1.55818,-0.0447 3.13587,-0.42568 4.54934,-1.08296 1.02915,-0.47856 1.95465,-1.20297 2.73751,-2.02473 0.813874,-0.85432 1.508094,-1.85656 1.964544,-2.94463 0.5328,-1.27008 0.84546,-4.04452 0.84546,-4.04452"
       id="path21-1"
       sodipodi:nodetypes="caaaaaaac" />
    <path
       style="fill:none;stroke:#008000;stroke-width:0.264583px;stroke-linecap:butt;stroke-linejoin:miter;stroke-opacity:1"
       d="m 118.26289,290.00117 c 0,0 0.30557,2.13021 0.81696,3.0502 0.44994,0.80946 1.11321,1.53847 1.89984,2.02724 1.00188,0.62251 2.2072,1.01127 3.38663,1.02576 1.08339,0.0133 2.1923,-0.32804 3.13307,-0.8655 0.80375,-0.45918 1.51708,-1.1384 1.99641,-1.9303 0.59516,-0.98326 0.97397,-3.30763 0.97397,-3.30763"
       id="path20-7"
       sodipodi:nodetypes="caaaaac" />
    <path
       style="fill:none;stroke:#008000;stroke-width:0.264583px;stroke-linecap:butt;stroke-linejoin:miter;stroke-opacity:1"
       d="m 114.26947,290.00117 c 0,0 0.24013,2.60627 0.73995,3.79381 0.56709,1.34738 1.43005,2.60385 2.49124,3.60929 0.95894,0.90857 2.14337,1.60272 3.37817,2.07211 1.10375,0.41957 2.30717,0.65527 3.48749,0.6214 1.55818,-0.0447 3.13587,-0.42568 4.54934,-1.08296 1.02915,-0.47856 1.95465,-1.20297 2.73751,-2.02473 0.81388,-0.85432 1.5081,-1.85656 1.96455,-2.94463 0.53281,-1.27008 0.84546,-4.04452 0.84546,-4.04452"
       id="path21-6"
       sodipodi:nodetypes="caaaaaaac" />
    <path
       style="fill:none;stroke:#008000;stroke-width:0.264583px;stroke-linecap:butt;stroke-linejoin:miter;stroke-opacity:1"
       d="m 102.0639,259.7566 c 0,0 0.30557,-2.13021 0.81696,-3.0502 0.44995,-0.80946 1.11322,-1.53847 1.89986,-2.02724 1.00187,-0.62251 2.20719,-1.01127 3.38662,-1.02576 1.08339,-0.0133 2.1923,0.32804 3.13307,0.8655 0.80375,0.45918 1.51709,1.1384 1.99641,1.9303 0.59516,0.98326 0.97397,3.30763 0.97397,3.30763"
       id="path20-5"
       sodipodi:nodetypes="caaaaac" />
    <path
       style="fill:none;stroke:#008000;stroke-width:0.264583px;stroke-linecap:butt;stroke-linejoin:miter;stroke-opacity:1"
       d="m 98.070496,259.7566 c 0,0 0.24013,-2.60627 0.73995,-3.79381 0.56709,-1.34738 1.430054,-2.60385 2.491224,-3.60929 0.95895,-0.90857 2.14337,-1.60272 3.37818,-2.07211 1.10375,-0.41957 2.30717,-0.65527 3.48749,-0.6214 1.55817,0.0447 3.13587,0.42568 4.54935,1.08296 1.02914,0.47856 1.95465,1.20297 2.7375,2.02473 0.81388,0.85432 1.5081,1.85656 1.96455,2.94463 0.53281,1.27008 0.84546,4.04452 0.84546,4.04452"
       id="path21-63"
       sodipodi:nodetypes="caaaaaaac" />
    <path
       style="fill:none;stroke:#008000;stroke-width:0.264583px;stroke-linecap:butt;stroke-linejoin:miter;stroke-opacity:1"
       d="m 69.663304,259.75617 c 0,0 0.305569,-2.13021 0.816959,-3.0502 0.44995,-0.80946 1.113222,-1.53847 1.899854,-2.02724 1.001877,-0.62251 2.207197,-1.01127 3.386629,-1.02576 1.083389,-0.0133 2.192293,0.32804 3.133064,0.8655 0.80375,0.45918 1.517085,1.1384 1.996413,1.9303 0.595156,0.98326 0.973969,3.30763 0.973969,3.30763"
       id="path20-12"
       sodipodi:nodetypes="caaaaac" />
    <path
       style="fill:none;stroke:#008000;stroke-width:0.264583px;stroke-linecap:butt;stroke-linejoin:miter;stroke-opacity:1"
       d="m 65.669895,259.75617 c 0,0 0.240131,-2.60627 0.739947,-3.79381 0.567092,-1.34738 1.43005,-2.60385 2.491237,-3.60929 0.958947,-0.90857 2.143369,-1.60272 3.378176,-2.07211 1.103749,-0.41957 2.30717,-0.65527 3.487491,-0.6214 1.558179,0.0447 3.135864,0.42568 4.549339,1.08296 1.029148,0.47856 1.95465,1.20297 2.737509,2.02473 0.813874,0.85432 1.508093,1.85656 1.964547,2.94463 0.532808,1.27008 0.84546,4.04452 0.84546,4.04452"
       id="path21-9"
       sodipodi:nodetypes="caaaaaaac" />
    <text
       xml:space="preserve"
       transform="matrix(0.26458333,0,0,0.26458333,1.7129161,24.731026)"
       id="text21-7"
       style="font-size:14.6667px;line-height:1.25;font-family:sans-serif;white-space:pre;shape-inside:url(#rect21-3);display:inline"><tspan
         x="274.59766"
         y="1148.791"
         id="tspan1">SN1</tspan></text>
    <path
       style="fill:none;stroke:#cccccc;stroke-width:0.264581px;stroke-linecap:butt;stroke-linejoin:miter;stroke-opacity:1"
       d="M 155.61134,259.90394 H 118.39566"
       id="path13-1-2-8-8-7-2-0-9-8" />
    <path
       style="fill:none;stroke:#000000;stroke-width:0.264583px;stroke-linecap:butt;stroke-linejoin:miter;stroke-opacity:1;marker-start:url(#ArrowWide-0);marker-end:url(#ArrowWide-0)"
       d="m 139.71269,259.84884 v 30.03883"
       id="path17-5" />
    <path
       style="fill:none;stroke:#000000;stroke-width:0.264583px;stroke-linecap:butt;stroke-linejoin:miter;stroke-opacity:1;marker-start:url(#ArrowWide-0-1);marker-end:url(#ArrowWide-0-1)"
       d="M 21.618346,267.69416 H 49.105833"
       id="path17-5-8" />
    <path
       style="fill:none;stroke:#000000;stroke-width:0.264583px;stroke-linecap:butt;stroke-linejoin:miter;stroke-opacity:1;marker-start:url(#ArrowWide-0-1-3);marker-end:url(#ArrowWide-0-1-3)"
       d="M 53.843587,259.76453 H 65.264464"
       id="path17-5-8-4" />
    <path
       style="fill:none;stroke:#000000;stroke-width:0.264583px;stroke-linecap:butt;stroke-linejoin:miter;stroke-opacity:1;marker-start:url(#ArrowWide-12)"
       d="m 130.47108,210.25936 h -7.5995"
       id="path22-4" />
    <path
       style="fill:none;stroke:#000000;stroke-width:0.264583px;stroke-linecap:butt;stroke-linejoin:miter;stroke-opacity:1;marker-start:url(#ArrowWide-1)"
       d="m 134.46449,210.25936 h 7.5995"
       id="path22-5" />
    <text
       xml:space="preserve"
       transform="matrix(0.26458333,0,0,0.26458333,9.2192361,33.451086)"
       id="text22-5"
       style="font-size:14.6667px;line-height:1.25;font-family:sans-serif;white-space:pre;shape-inside:url(#rect22-7);display:inline"><tspan
         x="452.06055"
         y="658.79495"
         id="tspan2">SE1</tspan></text>
    <text
       xml:space="preserve"
       transform="matrix(0.26458333,0,0,0.26458333,-24.113961,80.761805)"
       id="text23-3"
       style="font-size:14.6667px;line-height:1.25;font-family:sans-serif;white-space:pre;shape-inside:url(#rect23-9);display:inline"><tspan
         x="209.61523"
         y="702.95511"
         id="tspan3">SD1</tspan></text>
    <text
       xml:space="preserve"
       transform="matrix(0.26458333,0,0,0.26458333,-20.027163,62.383075)"
       id="text24-1"
       style="font-size:14.6667px;line-height:1.25;font-family:sans-serif;white-space:pre;shape-inside:url(#rect24-2);display:inline"><tspan
         x="286.28516"
         y="740.21292"
         id="tspan4">SD2</tspan></text>
    <path
       style="fill:none;stroke:#000000;stroke-width:0.264583px;stroke-linecap:butt;stroke-linejoin:miter;stroke-opacity:1;marker-start:url(#ArrowWide-12)"
       d="m 63.226372,301.82849 13.350785,22.64259"
       id="path24-6" />
    <path
       style="fill:none;stroke:#000000;stroke-width:0.264583px;stroke-linecap:butt;stroke-linejoin:miter;stroke-opacity:1;marker-start:url(#ArrowWide-12)"
       d="M 88.178127,300.59104 79.78814,324.95032"
       id="path25-3" />
    <path
       style="fill:none;stroke:#000000;stroke-width:0.264583px;stroke-linecap:butt;stroke-linejoin:miter;stroke-opacity:1;marker-start:url(#ArrowWide-12)"
       d="m 118.60995,300.5137 -36.0141,25.04704"
       id="path26-2" />
    <text
       xml:space="preserve"
       transform="matrix(0.26458333,0,0,0.26458333,22.328191,-20.879434)"
       id="text26-0"
       style="font-size:14.6667px;line-height:1.25;font-family:sans-serif;white-space:pre;shape-inside:url(#rect26-7);display:inline"><tspan
         x="445.51953"
         y="1124.0625"
         id="tspan5">SL1</tspan></text>
    <text
       xml:space="preserve"
       transform="matrix(0.26458333,0,0,0.26458333,32.396794,-56.022644)"
       id="text27-1"
       style="font-size:14.6667px;line-height:1.25;font-family:sans-serif;white-space:pre;shape-inside:url(#rect27-5);display:inline"><tspan
         x="433.23438"
         y="1188.4825"
         id="tspan6">SL2</tspan></text>
    <text
       xml:space="preserve"
       transform="matrix(0.26458333,0,0,0.26458333,-10.119382,26.746696)"
       id="text28"
       style="font-size:14.6667px;line-height:1.25;font-family:sans-serif;white-space:pre;shape-inside:url(#rect28);display:inline"><tspan
         x="355.68945"
         y="769.97659"
         id="tspan7">Send [round, pike]</tspan></text>
    <path
       style="fill:none;stroke:#000000;stroke-width:0.264583px;stroke-linecap:butt;stroke-linejoin:miter;stroke-opacity:1;marker-start:url(#ArrowWide-12)"
       d="m 128.84781,231.3443 -8.96796,-1.74843"
       id="path28-4" />
    <path
       style="fill:none;stroke:#000000;stroke-width:0.264583px;stroke-linecap:butt;stroke-linejoin:miter;stroke-opacity:1;marker-start:url(#ArrowWide-12);marker-end:url(#ArrowWide-12)"
       d="m 35.423058,255.07485 c 0,0 2.535969,0.57663 3.162991,1.57338 0.500596,0.79578 0.03901,2.82014 0.03901,2.82014"
       id="path30"
       sodipodi:nodetypes="cac" />
    <text
       xml:space="preserve"
       transform="matrix(0.26458333,0,0,0.26458333,-2.5490589,44.979206)"
       id="text30"
       style="font-size:14.6667px;line-height:1.25;font-family:sans-serif;white-space:pre;shape-inside:url(#rect30-8);display:inline"><tspan
         x="152.94531"
         y="796.11136"
         id="tspan8">SA1</tspan></text>
    <path
       style="fill:none;stroke:#cccccc;stroke-width:0.264583px;stroke-linecap:butt;stroke-linejoin:miter;stroke-opacity:1"
       d="m 11.153285,304.68413 v 25.23901"
       id="path37-5" />
    <path
       style="fill:none;stroke:#cccccc;stroke-width:0.264583px;stroke-linecap:butt;stroke-linejoin:miter;stroke-opacity:1"
       d="m 21.236421,304.68413 v 25.23901"
       id="path37-8-47" />
    <path
       style="fill:none;stroke:#0000ff;stroke-width:0.264583px;stroke-linecap:butt;stroke-linejoin:miter;stroke-opacity:1;marker-start:url(#ArrowWide-6);marker-end:url(#ArrowWide-6)"
       d="m 11.525228,329.92314 h 9.33925"
       id="path39-4"
       sodipodi:nodetypes="cc" />
    <text
       xml:space="preserve"
       transform="matrix(0.26458333,0,0,0.26458333,-53.738556,53.765866)"
       id="text41-4"
       style="font-size:14.6667px;line-height:1.25;font-family:sans-serif;white-space:pre;shape-inside:url(#rect41-5);display:inline"><tspan
         x="256.08203"
         y="1060.6289"
         id="tspan9">E2</tspan></text>
    <path
       style="fill:none;stroke:#008000;stroke-width:0.264584px;stroke-linecap:butt;stroke-linejoin:miter;stroke-opacity:1"
       d="M 138.8254,304.81641 H 21.368711"
       id="path13-6-6" />
    <text
       xml:space="preserve"
       transform="matrix(0.26458333,0,0,0.26458333,-97.328238,143.93197)"
       id="text2-1"
       style="font-size:14.6667px;line-height:1.25;font-family:sans-serif;white-space:pre;shape-inside:url(#rect2-4);display:inline"><tspan
         x="385.04688"
         y="579.2305"
         id="tspan10">R7</tspan></text>
    <path
       style="fill:none;stroke:#cccccc;stroke-width:0.26458px;stroke-linecap:butt;stroke-linejoin:miter;stroke-opacity:1"
       d="m 17.242949,241.40626 v 18.72263"
       id="path13-1-2-8-8-7-2-0-3-95" />
    <path
       style="fill:none;stroke:#0000ff;stroke-width:0.264582px;stroke-linecap:butt;stroke-linejoin:miter;stroke-opacity:1;marker-start:url(#ArrowWide-0-1-2);marker-end:url(#ArrowWide-0-1-2)"
       d="M 24.875703,259.82761 V 304.4596"
       id="path17-5-8-6" />
    <text
       xml:space="preserve"
       transform="matrix(0.26458333,0,0,0.26458333,-2.459297,-176.97096)"
       id="text15"
       style="font-size:14.6667px;line-height:1.25;font-family:sans-serif;white-space:pre;shape-inside:url(#rect15);display:inline"><tspan
         x="106.85547"
         y="1741.0957"
         id="tspan11">L2</tspan></text>
  </g>
</svg>
