<?xml version="1.0" encoding="UTF-8" standalone="no"?>
<!-- Created with Inkscape (http://www.inkscape.org/) -->

<svg
   width="548.21594"
   height="542.44824"
   viewBox="0 0 145.0488 143.52276"
   version="1.1"
   id="svg1"
   inkscape:version="1.3.2 (1:1.3.2+202311252150+091e20ef0f)"
   sodipodi:docname="vaxis_guidance.svg"
   xmlns:inkscape="http://www.inkscape.org/namespaces/inkscape"
   xmlns:sodipodi="http://sodipodi.sourceforge.net/DTD/sodipodi-0.dtd"
   xmlns="http://www.w3.org/2000/svg"
   xmlns:svg="http://www.w3.org/2000/svg">
  <sodipodi:namedview
     id="namedview1"
     pagecolor="#ffffff"
     bordercolor="#666666"
     borderopacity="1.0"
     inkscape:showpageshadow="2"
     inkscape:pageopacity="0.0"
     inkscape:pagecheckerboard="0"
     inkscape:deskcolor="#d1d1d1"
     inkscape:document-units="px"
     inkscape:zoom="1.0583333"
     inkscape:cx="425.19686"
     inkscape:cy="1154.6457"
     inkscape:window-width="1370"
     inkscape:window-height="836"
     inkscape:window-x="0"
     inkscape:window-y="0"
     inkscape:window-maximized="1"
     inkscape:current-layer="layer1" />
  <defs
     id="defs1">
    <rect
       x="385.04675"
       y="566.25372"
       width="46.922985"
       height="30.295277"
       id="rect2" />
    <rect
       x="326.9725"
       y="322.1651"
       width="39.234509"
       height="27.842329"
       id="rect33" />
    <rect
       x="310.67896"
       y="291.59021"
       width="37.608547"
       height="26.229416"
       id="rect32" />
    <rect
       x="271.40268"
       y="274.70941"
       width="40.930939"
       height="41.67215"
       id="rect31" />
    <rect
       x="41.964455"
       y="490.50574"
       width="61.4473"
       height="32.38615"
       id="rect30" />
    <rect
       x="230.47697"
       y="337.7879"
       width="43.024071"
       height="35.763351"
       id="rect29" />
    <rect
       x="66.771484"
       y="544.29303"
       width="52.594547"
       height="41.567753"
       id="rect27" />
    <rect
       x="77.858299"
       y="137.53088"
       width="83.850616"
       height="43.934925"
       id="rect26" />
    <rect
       x="49.655807"
       y="97.035789"
       width="71.156097"
       height="48.382179"
       id="rect25" />
    <rect
       x="479.33801"
       y="609.68121"
       width="71.939064"
       height="53.847294"
       id="rect24" />
    <rect
       x="543.21771"
       y="236.89207"
       width="42.736984"
       height="38.23753"
       id="rect23" />
    <rect
       x="519.74957"
       y="43.762672"
       width="68.400055"
       height="71.171761"
       id="rect22" />
    <rect
       x="546.66583"
       y="422.07614"
       width="35.71912"
       height="33.093014"
       id="rect21" />
    <rect
       x="360.73819"
       y="72.512306"
       width="39.349163"
       height="32.277313"
       id="rect19" />
    <rect
       x="309.13879"
       y="65.957184"
       width="52.160435"
       height="31.797489"
       id="rect18" />
    <rect
       x="503.91364"
       y="145.6373"
       width="58.003197"
       height="43.1656"
       id="rect17" />
    <rect
       x="432.2724"
       y="88.073326"
       width="56.585876"
       height="36.710136"
       id="rect16" />
    <marker
       style="overflow:visible"
       id="ArrowWide"
       refX="0"
       refY="0"
       orient="auto-start-reverse"
       inkscape:stockid="Wide arrow"
       markerWidth="1"
       markerHeight="1"
       viewBox="0 0 1 1"
       inkscape:isstock="true"
       inkscape:collect="always"
       preserveAspectRatio="xMidYMid">
      <path
         style="fill:none;stroke:context-stroke;stroke-width:1;stroke-linecap:butt"
         d="M 3,-3 0,0 3,3"
         transform="rotate(180,0.125,0)"
         sodipodi:nodetypes="ccc"
         id="path16" />
    </marker>
    <marker
       style="overflow:visible"
       id="ArrowWide-7"
       refX="0"
       refY="0"
       orient="auto-start-reverse"
       inkscape:stockid="Wide arrow"
       markerWidth="1"
       markerHeight="1"
       viewBox="0 0 1 1"
       inkscape:isstock="true"
       inkscape:collect="always"
       preserveAspectRatio="xMidYMid">
      <path
         style="fill:none;stroke:context-stroke;stroke-width:1;stroke-linecap:butt"
         d="M 3,-3 0,0 3,3"
         transform="rotate(180,0.125,0)"
         sodipodi:nodetypes="ccc"
         id="path16-2" />
    </marker>
    <marker
       style="overflow:visible"
       id="ArrowWide-77"
       refX="0"
       refY="0"
       orient="auto-start-reverse"
       inkscape:stockid="Wide arrow"
       markerWidth="1"
       markerHeight="1"
       viewBox="0 0 1 1"
       inkscape:isstock="true"
       inkscape:collect="always"
       preserveAspectRatio="xMidYMid">
      <path
         style="fill:none;stroke:context-stroke;stroke-width:1;stroke-linecap:butt"
         d="M 3,-3 0,0 3,3"
         transform="rotate(180,0.125,0)"
         sodipodi:nodetypes="ccc"
         id="path16-6" />
    </marker>
    <marker
       style="overflow:visible"
       id="ArrowWide-3"
       refX="0"
       refY="0"
       orient="auto-start-reverse"
       inkscape:stockid="Wide arrow"
       markerWidth="1"
       markerHeight="1"
       viewBox="0 0 1 1"
       inkscape:isstock="true"
       inkscape:collect="always"
       preserveAspectRatio="xMidYMid">
      <path
         style="fill:none;stroke:context-stroke;stroke-width:1;stroke-linecap:butt"
         d="M 3,-3 0,0 3,3"
         transform="rotate(180,0.125,0)"
         sodipodi:nodetypes="ccc"
         id="path16-9" />
    </marker>
    <marker
       style="overflow:visible"
       id="ArrowWide-77-0"
       refX="0"
       refY="0"
       orient="auto-start-reverse"
       inkscape:stockid="Wide arrow"
       markerWidth="1"
       markerHeight="1"
       viewBox="0 0 1 1"
       inkscape:isstock="true"
       inkscape:collect="always"
       preserveAspectRatio="xMidYMid">
      <path
         style="fill:none;stroke:context-stroke;stroke-width:1;stroke-linecap:butt"
         d="M 3,-3 0,0 3,3"
         transform="rotate(180,0.125,0)"
         sodipodi:nodetypes="ccc"
         id="path16-6-8" />
    </marker>
    <rect
       x="230.47697"
       y="337.7879"
       width="43.024071"
       height="35.763351"
       id="rect29-8" />
  </defs>
  <g
     inkscape:label="Layer 1"
     inkscape:groupmode="layer"
     id="layer1"
     transform="translate(-9.9122162,-15.218278)">
    <rect
       style="fill:#ffffff;stroke:#ffffff;stroke-width:0.264583;stroke-linejoin:bevel"
       id="rect35"
       width="144.78423"
       height="143.25818"
       x="10.044507"
       y="15.35057"
       inkscape:export-filename="vaxis_guidance_top.svg"
       inkscape:export-xdpi="96"
       inkscape:export-ydpi="96" />
    <circle
       style="fill:none;stroke:#cccccc;stroke-width:0.264583;stroke-linejoin:bevel"
       id="path1"
       cx="78.42675"
       cy="93.195312"
       r="57.926758" />
    <circle
       style="fill:none;stroke:#cccccc;stroke-width:0.264583;stroke-linejoin:bevel"
       id="path1-5"
       cx="78.42675"
       cy="93.19532"
       r="49.457523" />
    <circle
       style="fill:none;stroke:#000000;stroke-width:0.264583;stroke-linejoin:bevel"
       id="path2"
       cx="78.42675"
       cy="35.268555"
       r="2.8530273" />
    <circle
       style="fill:none;stroke:#000000;stroke-width:0.264583;stroke-linejoin:bevel"
       id="path2-2"
       cx="136.48579"
       cy="93.195312"
       r="2.8530273" />
    <circle
       style="fill:none;stroke:#000000;stroke-width:0.264583;stroke-linejoin:bevel"
       id="path2-7"
       cx="20.499992"
       cy="93.195312"
       r="2.8530273" />
    <circle
       style="fill:none;stroke:#000000;stroke-width:0.264583;stroke-linejoin:bevel"
       id="path2-6"
       cx="78.42675"
       cy="151.25436"
       r="2.8530273" />
    <circle
       style="fill:none;stroke:#cccccc;stroke-width:0.264583;stroke-linejoin:bevel"
       id="path2-61"
       cx="78.42675"
       cy="35.268555"
       r="5.3442383" />
    <circle
       style="fill:none;stroke:#cccccc;stroke-width:0.264583;stroke-linejoin:bevel"
       id="path2-61-2"
       cx="20.367701"
       cy="93.195312"
       r="5.3442383" />
    <circle
       style="fill:none;stroke:#cccccc;stroke-width:0.264583;stroke-linejoin:bevel"
       id="path2-61-7"
       cx="136.35352"
       cy="93.195312"
       r="5.3442383" />
    <circle
       style="fill:none;stroke:#cccccc;stroke-width:0.264583;stroke-linejoin:bevel"
       id="path2-61-28"
       cx="78.42675"
       cy="151.25436"
       r="5.3442383" />
    <path
       style="fill:none;stroke:#000000;stroke-width:0.264583px;stroke-linecap:butt;stroke-linejoin:miter;stroke-opacity:1"
       d="m 71.544457,44.284503 1.737281,-10.115069 c 0,0 0.4025,-1.706484 0.908203,-2.394045 0.491935,-0.668841 1.193822,-1.217135 1.959959,-1.537107 0.878376,-0.366847 1.882991,-0.419286 2.833008,-0.359376 0.64396,0.04061 1.300235,0.188734 1.874512,0.48291 0.548319,0.280879 1.004109,0.728523 1.419923,1.183105 0.404937,0.442691 0.7664,0.938209 1.024658,1.479737 0.251862,0.528118 0.492431,1.684815 0.492431,1.684815 l 1.859929,9.474917"
       id="path3"
       sodipodi:nodetypes="ccaaaaaacc" />
    <path
       style="fill:none;stroke:#000000;stroke-width:0.264583px;stroke-linecap:butt;stroke-linejoin:miter;stroke-opacity:1"
       d="m 71.191502,142.33897 2.100099,9.81592 c 0,0 0.4025,1.70648 0.908203,2.39404 0.491935,0.66884 1.193822,1.21714 1.959959,1.53711 0.878376,0.36684 1.882991,0.41928 2.833008,0.35937 0.64396,-0.0406 1.300235,-0.18873 1.874512,-0.48291 0.548319,-0.28088 1.004109,-0.72852 1.419923,-1.1831 0.404937,-0.44269 0.7664,-0.93821 1.024658,-1.47974 0.251862,-0.52812 0.492431,-1.68481 0.492431,-1.68481 l 2.011963,-9.63081"
       id="path3-6"
       sodipodi:nodetypes="ccaaaaaacc" />
    <path
       style="fill:none;stroke:#000000;stroke-width:0.264583px;stroke-linecap:butt;stroke-linejoin:miter;stroke-opacity:1"
       d="M 29.614399,100.58331 19.443544,98.331632 c 0,0 -1.70648,-0.4025 -2.39404,-0.90821 -0.66884,-0.49193 -1.21714,-1.19382 -1.537108,-1.95995 -0.366847,-0.87838 -0.419286,-1.883 -0.359376,-2.83301 0.04061,-0.64396 0.188734,-1.30024 0.48291,-1.87451 0.280884,-0.54832 0.728524,-1.00411 1.183104,-1.41993 0.44269,-0.40493 0.93821,-0.7664 1.47974,-1.02466 0.52812,-0.25186 1.68481,-0.49243 1.68481,-0.49243 l 9.47492,-1.859925"
       id="path3-3"
       sodipodi:nodetypes="ccaaaaaacc" />
    <path
       style="fill:none;stroke:#000000;stroke-width:0.264583px;stroke-linecap:butt;stroke-linejoin:miter;stroke-opacity:1"
       d="m 127.38208,86.115062 9.81592,2.100099 c 0,0 1.70649,0.4025 2.39405,0.908203 0.66884,0.491935 1.21713,1.193822 1.5371,1.959959 0.36685,0.878376 0.41929,1.882991 0.35938,2.833008 -0.0406,0.64396 -0.18873,1.300235 -0.48291,1.874512 -0.28088,0.548316 -0.72852,1.004106 -1.18311,1.419926 -0.44269,0.40493 -0.9382,0.7664 -1.47973,1.02466 -0.52812,0.25186 -1.68482,0.49243 -1.68482,0.49243 l -9.47492,1.859931"
       id="path3-7"
       sodipodi:nodetypes="ccaaaaaacc" />
    <path
       style="fill:none;stroke:#000000;stroke-width:0.264583px;stroke-linecap:butt;stroke-linejoin:miter;stroke-opacity:1"
       d="m 85.65436,44.18439 c 0,0 3.902472,0.76843 5.815494,1.304284 1.863017,0.521847 3.699167,1.147405 5.49923,1.856581 1.248286,0.491791 2.476861,1.040088 3.666926,1.659621 2.02354,1.053428 4.014,2.187799 5.8878,3.489068 2.02472,1.406077 3.95791,2.956963 5.75479,4.644493 1.80444,1.694623 3.49478,3.52324 5.01721,5.475147 1.69324,2.170899 3.20291,4.492383 4.54733,6.89496 0.99989,1.786865 1.85241,3.659074 2.60142,5.564761 0.76494,1.946206 1.39738,3.947356 1.92385,5.971135 0.43395,1.66813 1.01367,5.070621 1.01367,5.070621"
       id="path4"
       sodipodi:nodetypes="caaaaaaaaac" />
    <path
       style="fill:none;stroke:#000000;stroke-width:0.264583px;stroke-linecap:butt;stroke-linejoin:miter;stroke-opacity:1"
       d="m 29.613786,86.012223 c 0,0 0.76843,-3.902472 1.304284,-5.815494 0.521847,-1.863017 1.147405,-3.699167 1.856581,-5.49923 0.491791,-1.248286 1.040088,-2.476861 1.659621,-3.666926 1.053428,-2.02354 2.187799,-4.014 3.489068,-5.8878 1.406077,-2.02472 2.956963,-3.95791 4.644493,-5.75479 1.694623,-1.80444 3.52324,-3.49478 5.475147,-5.01721 2.170899,-1.69324 4.492383,-3.20291 6.89496,-4.54733 1.786865,-0.99989 3.659074,-1.85241 5.564761,-2.60142 1.946206,-0.76494 3.947356,-1.39738 5.971135,-1.92385 1.66813,-0.43395 5.070621,-1.01367 5.070621,-1.01367"
       id="path4-0"
       sodipodi:nodetypes="caaaaaaaaac" />
    <path
       style="fill:none;stroke:#000000;stroke-width:0.264583px;stroke-linecap:butt;stroke-linejoin:miter;stroke-opacity:1"
       d="m 71.342121,142.51398 c 0,0 -3.902472,-0.76843 -5.815494,-1.30428 -1.863017,-0.52185 -3.699167,-1.14741 -5.49923,-1.85658 -1.248286,-0.49179 -2.476861,-1.04009 -3.666926,-1.65962 -2.02354,-1.05343 -4.014,-2.1878 -5.8878,-3.48907 -2.02472,-1.40608 -3.95791,-2.95696 -5.75479,-4.64449 -1.80444,-1.69463 -3.49478,-3.52324 -5.01721,-5.47515 -1.69324,-2.1709 -3.20291,-4.49238 -4.54733,-6.89496 -0.999892,-1.78686 -1.852412,-3.65907 -2.601422,-5.56476 -0.76494,-1.94621 -1.39738,-3.94736 -1.92385,-5.97114 -0.43395,-1.66813 -1.01367,-5.07062 -1.01367,-5.07062"
       id="path4-06"
       sodipodi:nodetypes="caaaaaaaaac" />
    <path
       style="fill:none;stroke:#000000;stroke-width:0.264583px;stroke-linecap:butt;stroke-linejoin:miter;stroke-opacity:1"
       d="m 127.18304,100.58779 c 0,0 -0.32005,3.68796 -0.74039,5.48402 -0.44088,1.88382 -1.1474,3.69916 -1.85658,5.49923 -0.49179,1.24828 -1.04009,2.47686 -1.65962,3.66692 -1.05343,2.02354 -2.1878,4.014 -3.48907,5.8878 -1.40608,2.02472 -2.95697,3.95791 -4.6445,5.7548 -1.69462,1.80444 -3.52324,3.49478 -5.47514,5.01721 -2.1709,1.69324 -4.49239,3.20291 -6.89496,4.54733 -1.78687,0.99989 -3.659072,1.85241 -5.564762,2.60142 -1.94621,0.76494 -3.94736,1.39738 -5.97114,1.92385 -1.66813,0.43395 -5.07062,1.01367 -5.07062,1.01367"
       id="path4-6"
       sodipodi:nodetypes="caaaaaaaaac" />
    <circle
       style="fill:none;stroke:#cccccc;stroke-width:0.264583;stroke-linejoin:bevel"
       id="path1-4"
       cx="78.42675"
       cy="93.19532"
       r="42.859386" />
    <path
       style="fill:none;stroke:#000000;stroke-width:0.264583px;stroke-linecap:butt;stroke-linejoin:miter;stroke-opacity:1"
       d="m 78.426748,50.335933 0.172376,10.375122 c 1.57304,3.222313 2.306998,1.042848 2.874561,0.02037 v -5.40688 c 0.576977,-3.440537 4.446527,-2.550186 4.781603,0 v 0 5.233902 c 1.248557,3.358905 1.933602,1.848629 3.136405,0 v -5.314004 c 1.452215,-3.073856 3.814305,-1.810769 4.882766,0 v 10.210198 h -0.9046 v -9.322862 c -1.594628,-2.504268 -2.487693,-1.661997 -3.208911,0 v 5.32091 c -1.323115,2.441745 -2.758864,4.066666 -4.979441,0 V 56.24917 c -0.881395,-1.656577 -1.762616,-3.320398 -2.763516,0 v 5.613351 c -1.068249,1.614496 -1.728639,4.110986 -5.444515,0 l -1.10451,-1.850286"
       id="path5"
       sodipodi:nodetypes="ccccccccccccccccccccc" />
    <path
       style="fill:none;stroke:#000000;stroke-width:0.264583px;stroke-linecap:butt;stroke-linejoin:miter;stroke-opacity:1"
       d="m 70.978518,50.988081 5.125228,9.350087"
       id="path6" />
    <path
       style="fill:none;stroke:#000000;stroke-width:0.264583px;stroke-linecap:butt;stroke-linejoin:miter;stroke-opacity:1"
       d="m 109.67458,64.033303 -7.65876,7.001156 c -1.37222,3.312821 0.74675,2.419116 1.88871,2.167085 l 4.05078,-3.581273 c 2.95979,-1.846591 4.85576,1.642165 3.16712,3.58233 v 0 l -3.92119,3.4667 c -1.68946,3.160194 -0.1042,2.673087 2.07742,2.349765 l 3.9812,-3.519758 c 3.26479,-0.947997 3.88303,1.658268 3.23412,3.658121 l -7.64938,6.762775 -0.59916,-0.677717 6.98459,-6.175044 c 0.81997,-2.853394 -0.40258,-2.964587 -2.12544,-2.404085 l -3.98637,3.524332 c -2.7057,0.626037 -4.87405,0.626662 -3.29815,-3.730548 l 3.89842,-3.446577 c 0.65729,-1.757575 1.32013,-3.519818 -1.83043,-2.070399 l -4.20547,3.71803 c -1.91712,0.269048 -4.224881,1.427853 -3.6062,-4.078977 l 0.65464,-2.053034"
       id="path5-6"
       sodipodi:nodetypes="ccccccccccccccccccccc" />
    <path
       style="fill:none;stroke:#000000;stroke-width:0.264583px;stroke-linecap:butt;stroke-linejoin:miter;stroke-opacity:1"
       d="m 104.25263,58.885117 -3.61028,10.032847"
       id="path6-9" />
    <path
       style="fill:none;stroke:#000000;stroke-width:0.264583px;stroke-linecap:butt;stroke-linejoin:miter;stroke-opacity:1"
       d="m 48.728811,62.545376 7.001156,7.65876 c 3.312821,1.37222 2.419116,-0.74675 2.167085,-1.88871 l -3.581273,-4.05078 c -1.846591,-2.95979 1.642165,-4.85576 3.58233,-3.16712 v 0 l 3.4667,3.92119 c 3.160194,1.68946 2.673087,0.1042 2.349765,-2.07742 l -3.519758,-3.9812 c -0.947997,-3.26479 1.658268,-3.88303 3.658121,-3.23412 l 6.762775,7.64938 -0.677717,0.59916 -6.175044,-6.98459 c -2.853394,-0.81997 -2.964587,0.40258 -2.404085,2.12544 l 3.524332,3.98637 c 0.626037,2.7057 0.626662,4.87405 -3.730548,3.29815 l -3.446577,-3.89842 c -1.757575,-0.65729 -3.519818,-1.32013 -2.070399,1.83043 l 3.71803,4.20547 c 0.269048,1.91712 1.427853,4.224881 -4.078977,3.6062 l -2.053034,-0.65464"
       id="path5-6-5"
       sodipodi:nodetypes="ccccccccccccccccccccc" />
    <path
       style="fill:none;stroke:#000000;stroke-width:0.264583px;stroke-linecap:butt;stroke-linejoin:miter;stroke-opacity:1"
       d="m 43.580625,67.967326 10.032847,3.61028"
       id="path6-9-2" />
    <path
       style="fill:none;stroke:#000000;stroke-width:0.264583px;stroke-linecap:butt;stroke-linejoin:miter;stroke-opacity:1"
       d="m 121.23284,93.437534 -10.37512,0.17238 c -3.22231,1.57304 -1.04285,2.307 -0.0204,2.87456 h 5.40688 c 3.44054,0.57698 2.55019,4.446526 0,4.781596 v 0 h -5.2339 c -3.35891,1.24856 -1.84863,1.9336 0,3.13641 h 5.314 c 3.07386,1.45221 1.81077,3.8143 0,4.88276 h -10.2102 v -0.9046 h 9.32287 c 2.50426,-1.59462 1.66199,-2.48769 0,-3.20891 h -5.32091 c -2.44175,-1.32311 -4.06667,-2.75886 0,-4.97944 h 5.20352 c 1.65657,-0.881386 3.32039,-1.762606 0,-2.763506 h -5.61336 c -1.61449,-1.06825 -4.11098,-1.72864 0,-5.444519 l 1.85029,-1.10451"
       id="path5-4"
       sodipodi:nodetypes="ccccccccccccccccccccc" />
    <path
       style="fill:none;stroke:#000000;stroke-width:0.264583px;stroke-linecap:butt;stroke-linejoin:miter;stroke-opacity:1"
       d="m 120.58069,85.989307 -9.35008,5.125228"
       id="path6-4" />
    <path
       style="fill:none;stroke:#000000;stroke-width:0.264583px;stroke-linecap:butt;stroke-linejoin:miter;stroke-opacity:1"
       d="m 78.369675,135.90235 -0.17237,-10.37512 c -1.57304,-3.22231 -2.307,-1.04284 -2.87457,-0.0204 v 5.40688 c -0.57697,3.44054 -4.44652,2.55019 -4.7816,0 v 0 -5.2339 c -1.24856,-3.3589 -1.9336,-1.84863 -3.1364,0 v 5.31401 c -1.45222,3.07385 -3.81431,1.81076 -4.88277,0 v -10.2102 h 0.9046 v 9.32286 c 1.59463,2.50427 2.48769,1.662 3.20891,0 v -5.32091 c 1.32312,-2.44175 2.75887,-4.06667 4.97944,0 v 5.20352 c 0.8814,1.65657 1.76262,3.3204 2.76352,0 v -5.61335 c 1.06825,-1.6145 1.72864,-4.11099 5.44451,0 l 1.10451,1.85028"
       id="path5-8"
       sodipodi:nodetypes="ccccccccccccccccccccc" />
    <path
       style="fill:none;stroke:#000000;stroke-width:0.264583px;stroke-linecap:butt;stroke-linejoin:miter;stroke-opacity:1"
       d="m 85.817905,135.25021 -5.12523,-9.35009"
       id="path6-6" />
    <path
       style="fill:none;stroke:#000000;stroke-width:0.264583px;stroke-linecap:butt;stroke-linejoin:miter;stroke-opacity:1"
       d="m 35.74752,94.87521 10.375122,-0.172376 c 3.222313,-1.57304 1.042848,-2.306998 0.02037,-2.874561 h -5.40688 c -3.440537,-0.576977 -2.550186,-4.446527 0,-4.781603 v 0 h 5.233902 c 3.358901,-1.248557 1.848629,-1.933602 0,-3.136405 H 40.65603 c -3.073856,-1.452215 -1.810769,-3.814305 0,-4.882766 h 10.210195 v 0.9046 h -9.322859 c -2.504268,1.594628 -1.661997,2.487693 0,3.208911 h 5.32091 c 2.441749,1.323115 4.066669,2.758864 0,4.979441 h -5.203519 c -1.656577,0.881395 -3.320398,1.762616 0,2.763516 h 5.613351 c 1.614497,1.068249 4.110987,1.728639 0,5.444516 l -1.850286,1.10451"
       id="path5-3"
       sodipodi:nodetypes="ccccccccccccccccccccc" />
    <path
       style="fill:none;stroke:#000000;stroke-width:0.264583px;stroke-linecap:butt;stroke-linejoin:miter;stroke-opacity:1"
       d="m 36.399668,102.32344 9.350087,-5.125227"
       id="path6-1" />
    <path
       style="fill:none;stroke:#000000;stroke-width:0.264583px;stroke-linecap:butt;stroke-linejoin:miter;stroke-opacity:1"
       d="m 47.801148,122.96104 7.65876,-7.00115 c 1.37222,-3.31283 -0.74675,-2.41912 -1.88871,-2.16709 l -4.05078,3.58127 c -2.95979,1.84659 -4.85576,-1.64216 -3.16712,-3.58233 v 0 l 3.92119,-3.4667 c 1.68946,-3.16019 0.1042,-2.67308 -2.07742,-2.34976 l -3.9812,3.51976 c -3.264792,0.94799 -3.883032,-1.65827 -3.234122,-3.65812 l 7.649382,-6.76278 0.59916,0.67772 -6.98459,6.17504 c -0.819972,2.8534 0.40258,2.96459 2.12544,2.40409 l 3.98637,-3.52434 c 2.7057,-0.62603 4.87405,-0.62666 3.29815,3.73055 l -3.89842,3.44658 c -0.65729,1.75757 -1.32013,3.51982 1.83043,2.0704 l 4.20547,-3.71803 c 1.91712,-0.26905 4.22488,-1.42785 3.6062,4.07898 l -0.65464,2.05303"
       id="path5-6-5-6"
       sodipodi:nodetypes="ccccccccccccccccccccc" />
    <path
       style="fill:none;stroke:#000000;stroke-width:0.264583px;stroke-linecap:butt;stroke-linejoin:miter;stroke-opacity:1"
       d="m 53.223098,128.10923 3.61028,-10.03285"
       id="path6-9-2-4" />
    <path
       style="fill:none;stroke:#000000;stroke-width:0.264583px;stroke-linecap:butt;stroke-linejoin:miter;stroke-opacity:1"
       d="m 107.09831,124.90161 -7.00116,-7.65876 c -3.31282,-1.37222 -2.41912,0.74675 -2.16709,1.88871 l 3.58128,4.05078 c 1.84659,2.95979 -1.64217,4.85576 -3.58233,3.16712 v 0 l -3.4667,-3.92119 c -3.1602,-1.68946 -2.67309,-0.1042 -2.34977,2.07742 l 3.51976,3.9812 c 0.948,3.26479 -1.65827,3.88303 -3.65812,3.23412 l -6.76278,-7.64938 0.67772,-0.59916 6.17505,6.98459 c 2.85339,0.81997 2.96458,-0.40258 2.40408,-2.12544 l -3.52433,-3.98637 c -0.62604,-2.7057 -0.62666,-4.87405 3.73055,-3.29815 l 3.44657,3.89842 c 1.75758,0.65729 3.51982,1.32013 2.0704,-1.83043 l -3.71803,-4.20547 c -0.26905,-1.91712 -1.42785,-4.22488 4.07898,-3.6062 l 2.05303,0.65464"
       id="path5-6-5-4"
       sodipodi:nodetypes="ccccccccccccccccccccc" />
    <path
       style="fill:none;stroke:#000000;stroke-width:0.264583px;stroke-linecap:butt;stroke-linejoin:miter;stroke-opacity:1"
       d="m 112.24649,119.47966 -10.03285,-3.61028"
       id="path6-9-2-8" />
    <path
       style="fill:none;stroke:#000000;stroke-width:0.264583px;stroke-linecap:butt;stroke-linejoin:miter;stroke-opacity:1"
       d="m 78.369675,135.90235 c 0,0 -4.900874,-0.16452 -7.307538,-0.58855 -2.986861,-0.52626 -5.940623,-1.32812 -8.772755,-2.41316 -1.619709,-0.62054 -3.121733,-1.51451 -4.654984,-2.32548 -1.489117,-0.78762 -4.4113,-2.46593 -4.4113,-2.46593"
       id="path7"
       sodipodi:nodetypes="caaac" />
    <path
       style="fill:none;stroke:#000000;stroke-width:0.264583px;stroke-linecap:butt;stroke-linejoin:miter;stroke-opacity:1"
       d="m 85.817905,135.25021 c 0,0 3.921614,-0.72171 5.830075,-1.28571 1.716255,-0.50719 3.410347,-1.11646 5.029189,-1.87943 1.737112,-0.81872 3.401861,-1.79958 4.990351,-2.87873 1.91076,-1.29809 5.43079,-4.30473 5.43079,-4.30473"
       id="path8"
       sodipodi:nodetypes="caaac" />
    <path
       style="fill:none;stroke:#000000;stroke-width:0.264583px;stroke-linecap:butt;stroke-linejoin:miter;stroke-opacity:1"
       d="m 47.801148,122.96104 c 0,0 -2.476236,-2.50893 -3.549808,-3.9013 -1.188157,-1.54098 -2.23905,-3.19248 -3.17663,-4.89756 -1.166261,-2.12095 -2.189272,-4.32944 -3.027677,-6.60005 -0.637877,-1.72753 -1.512581,-5.31351 -1.512581,-5.31351"
       id="path9"
       sodipodi:nodetypes="caaac" />
    <path
       style="fill:none;stroke:#000000;stroke-width:0.264583px;stroke-linecap:butt;stroke-linejoin:miter;stroke-opacity:1"
       d="m 35.74752,94.875209 c 0,0 -0.227334,-4.447674 -0.0021,-6.654314 0.200441,-1.963741 0.683862,-3.893592 1.198261,-5.799333 0.516503,-1.913534 1.136607,-3.804453 1.890299,-5.637575 0.691627,-1.682169 1.50957,-3.314748 2.405936,-4.897331 0.755842,-1.334481 2.498487,-3.86352 2.498487,-3.86352"
       id="path10"
       sodipodi:nodetypes="caaaac" />
    <path
       style="fill:none;stroke:#000000;stroke-width:0.264583px;stroke-linecap:butt;stroke-linejoin:miter;stroke-opacity:1"
       d="m 48.728809,62.545375 c 0,0 3.756859,-3.506671 5.859539,-4.968277 1.832748,-1.273972 3.807813,-2.352321 5.838714,-3.278286 2.322723,-1.059017 4.755858,-1.878783 7.209716,-2.582444 1.096033,-0.314295 3.342174,-0.728361 3.342174,-0.728361"
       id="path11"
       sodipodi:nodetypes="caaac" />
    <path
       style="fill:none;stroke:#000000;stroke-width:0.264583px;stroke-linecap:butt;stroke-linejoin:miter;stroke-opacity:1"
       d="m 78.426748,50.335933 c 0,0 6.111133,0.389593 9.106858,0.978697 2.339956,0.460148 4.661118,1.094856 6.873145,1.98596 2.340012,0.942662 4.537081,2.222019 6.696749,3.525898 1.07997,0.65202 3.11992,2.142252 3.11992,2.142252"
       id="path12"
       sodipodi:nodetypes="caaac" />
    <path
       style="fill:none;stroke:#000000;stroke-width:0.264583px;stroke-linecap:butt;stroke-linejoin:miter;stroke-opacity:1"
       d="m 109.67458,64.033301 c 0,0 4.50001,5.336049 6.23107,8.345326 1.46379,2.544659 2.55388,5.307386 3.45124,8.10251 0.57493,1.790802 1.2238,5.50817 1.2238,5.50817"
       id="path13"
       sodipodi:nodetypes="caac" />
    <path
       style="fill:none;stroke:#000000;stroke-width:0.264583px;stroke-linecap:butt;stroke-linejoin:miter;stroke-opacity:1"
       d="m 121.23284,93.437532 c 0,0 -0.42218,6.802138 -1.21304,10.099208 -0.7158,2.98413 -1.85626,5.8698 -3.16808,8.64405 -0.89312,1.88878 -2.02075,3.66311 -3.17995,5.40133 -0.43891,0.65814 -1.42528,1.89754 -1.42528,1.89754"
       id="path14"
       sodipodi:nodetypes="caaac" />
    <path
       style="fill:none;stroke:#0000ff;stroke-width:0.264583px;stroke-linecap:butt;stroke-linejoin:miter;stroke-opacity:1;marker-start:url(#ArrowWide)"
       d="m 107.54297,42.750975 9.4209,-11.403319"
       id="path15" />
    <text
       xml:space="preserve"
       transform="matrix(0.26458333,0,0,0.26458333,1.6943359,3.7236328)"
       id="text16"
       style="font-size:14.6667px;line-height:1.25;font-family:sans-serif;white-space:pre;shape-inside:url(#rect16);display:inline"><tspan
         x="432.27148"
         y="101.05081"
         id="tspan1">D1</tspan></text>
    <path
       style="fill:none;stroke:#0000ff;stroke-width:0.264583px;stroke-linecap:butt;stroke-linejoin:miter;stroke-opacity:1;marker-start:url(#ArrowWide-7)"
       d="M 113.50918,57.735361 129.49063,45.907237"
       id="path15-2"
       sodipodi:nodetypes="cc" />
    <text
       xml:space="preserve"
       transform="matrix(0.26458333,0,0,0.26458333,-3.3164062,4.7773437)"
       id="text17"
       style="font-size:14.6667px;line-height:1.25;font-family:sans-serif;white-space:pre;shape-inside:url(#rect17);display:inline"><tspan
         x="503.91406"
         y="158.61331"
         id="tspan2">D2</tspan></text>
    <text
       xml:space="preserve"
       transform="scale(0.26458333)"
       id="text18"
       style="font-size:14.6667px;line-height:1.25;font-family:sans-serif;white-space:pre;shape-inside:url(#rect18);display:inline"><tspan
         x="309.13867"
         y="78.933624"
         id="tspan3">D3</tspan></text>
    <path
       style="fill:none;stroke:#0000ff;stroke-width:0.264583px;stroke-linecap:butt;stroke-linejoin:miter;stroke-opacity:1;marker-start:url(#ArrowWide)"
       d="M 79.248045,31.826171 82.474607,21.581054"
       id="path18" />
    <text
       xml:space="preserve"
       transform="matrix(0.26458333,0,0,0.26458333,-3.2568359,4.2675781)"
       id="text19"
       style="font-size:14.6667px;line-height:1.25;font-family:sans-serif;white-space:pre;shape-inside:url(#rect19);display:inline"><tspan
         x="360.73828"
         y="85.488311"
         id="tspan4">D4</tspan></text>
    <path
       style="fill:none;stroke:#0000ff;stroke-width:0.264583px;stroke-linecap:butt;stroke-linejoin:miter;stroke-opacity:1;marker-start:url(#ArrowWide)"
       d="m 83.375,31.951172 8.03125,-4.716798"
       id="path19" />
    <path
       style="fill:none;stroke:#cccccc;stroke-width:0.264583px;stroke-linecap:butt;stroke-linejoin:miter;stroke-opacity:1"
       d="m 127.41667,86.158202 h 21.49739"
       id="path20" />
    <path
       style="fill:none;stroke:#cccccc;stroke-width:0.264583px;stroke-linecap:butt;stroke-linejoin:miter;stroke-opacity:1"
       d="m 127.15935,100.54072 h 21.49738"
       id="path20-0" />
    <path
       style="fill:none;stroke:#0000ff;stroke-width:0.264583px;stroke-linecap:butt;stroke-linejoin:miter;stroke-opacity:1;marker-start:url(#ArrowWide);marker-end:url(#ArrowWide)"
       d="M 148.47559,86.503363 V 100.61578"
       id="path21" />
    <text
       xml:space="preserve"
       transform="matrix(0.26458333,0,0,0.26458333,4.1459961,-20.158691)"
       id="text21"
       style="font-size:14.6667px;line-height:1.25;font-family:sans-serif;white-space:pre;shape-inside:url(#rect21);display:inline"><tspan
         x="546.66602"
         y="435.05276"
         id="tspan5">L1</tspan></text>
    <text
       xml:space="preserve"
       transform="matrix(0.26458333,0,0,0.26458333,-38.533535,18.871989)"
       id="text22"
       style="font-size:14.6667px;line-height:1.25;font-family:sans-serif;white-space:pre;shape-inside:url(#rect22);display:inline"><tspan
         x="519.75"
         y="56.738311"
         id="tspan6">R5</tspan></text>
    <path
       style="fill:none;stroke:#0000ff;stroke-width:0.264583px;stroke-linecap:butt;stroke-linejoin:miter;stroke-opacity:1;marker-start:url(#ArrowWide)"
       d="M 86.687011,43.145019 98.796873,33.377441"
       id="path22"
       sodipodi:nodetypes="cc" />
    <path
       style="fill:none;stroke:#0000ff;stroke-width:0.264583px;stroke-linecap:butt;stroke-linejoin:miter;stroke-opacity:1;marker-start:url(#ArrowWide)"
       d="M 120.37318,81.926328 141.9648,73.004631"
       id="path23" />
    <text
       xml:space="preserve"
       transform="matrix(0.26458333,0,0,0.26458333,-1.4687657,7.8127012)"
       id="text23"
       style="font-size:14.6667px;line-height:1.25;font-family:sans-serif;white-space:pre;shape-inside:url(#rect23);display:inline"><tspan
         x="543.2168"
         y="249.86917"
         id="tspan7">D6</tspan></text>
    <path
       style="fill:none;stroke:#0000ff;stroke-width:0.264583px;stroke-linecap:butt;stroke-linejoin:miter;stroke-opacity:1;marker-end:url(#ArrowWide)"
       d="m 132.44441,152.41051 8.20493,-6.53521"
       id="path24" />
    <text
       xml:space="preserve"
       transform="matrix(0.26458333,0,0,0.26458333,9.1468129,-11.281944)"
       id="text24"
       style="font-size:14.6667px;line-height:1.25;font-family:sans-serif;white-space:pre;shape-inside:url(#rect24);display:inline"><tspan
         x="479.33789"
         y="622.65823"
         id="tspan8">T1</tspan></text>
    <text
       xml:space="preserve"
       transform="scale(0.26458333)"
       id="text25"
       style="font-size:14.6667px;line-height:1.25;font-family:sans-serif;white-space:pre;shape-inside:url(#rect25);display:inline"><tspan
         x="49.65625"
         y="110.01175"
         id="tspan9">N1</tspan></text>
    <path
       style="fill:none;stroke:#0000ff;stroke-width:0.264583px;stroke-linecap:butt;stroke-linejoin:miter;stroke-opacity:1;marker-start:url(#ArrowWide);marker-end:url(#ArrowWide)"
       d="M 18.789429,85.053066 16.651536,30.451165 70.904025,33.453607"
       id="path25" />
    <text
       xml:space="preserve"
       transform="matrix(0.26458333,0,0,0.26458333,6.790711,1.9680218)"
       id="text26"
       style="font-size:14.6667px;line-height:1.25;font-family:sans-serif;white-space:pre;shape-inside:url(#rect26);display:inline"><tspan
         x="77.857422"
         y="150.50784"
         id="tspan10">N2</tspan></text>
    <path
       style="fill:none;stroke:#0000ff;stroke-width:0.264583px;stroke-linecap:butt;stroke-linejoin:miter;stroke-opacity:1;marker-start:url(#ArrowWide);marker-end:url(#ArrowWide)"
       d="M 41.389915,77.768626 32.387423,42.507889 59.410778,57.970325"
       id="path26"
       sodipodi:nodetypes="ccc" />
    <path
       style="fill:none;stroke:#cccccc;stroke-width:0.264583px;stroke-linecap:butt;stroke-linejoin:miter;stroke-opacity:1"
       d="M 47.638556,123.1153 29.332501,141.4759"
       id="path27" />
    <path
       style="fill:none;stroke:#cccccc;stroke-width:0.264583px;stroke-linecap:butt;stroke-linejoin:miter;stroke-opacity:1"
       d="m 53.052132,128.53333 -18.306055,18.3606"
       id="path27-9" />
    <path
       style="fill:none;stroke:#0000ff;stroke-width:0.264584px;stroke-linecap:butt;stroke-linejoin:miter;stroke-opacity:1;marker-start:url(#ArrowWide);marker-end:url(#ArrowWide)"
       d="m 34.778988,146.62598 -5.182935,-5.18264"
       id="path27-91" />
    <text
       xml:space="preserve"
       transform="matrix(0.26458333,0,0,0.26458333,8.7449221,0.83140289)"
       id="text27"
       style="font-size:14.6667px;line-height:1.25;font-family:sans-serif;white-space:pre;shape-inside:url(#rect27);display:inline"><tspan
         x="66.771484"
         y="557.26956"
         id="tspan11">E2</tspan></text>
    <path
       style="fill:none;stroke:#cccccc;stroke-width:0.264583px;stroke-linecap:butt;stroke-linejoin:miter;stroke-opacity:1"
       d="M 62.491943,120.61419 V 104.55858"
       id="path28" />
    <path
       style="fill:none;stroke:#cccccc;stroke-width:0.264583px;stroke-linecap:butt;stroke-linejoin:miter;stroke-opacity:1"
       d="M 63.390346,120.84501 V 104.7894"
       id="path28-1" />
    <path
       style="fill:none;stroke:#0000ff;stroke-width:0.264583px;stroke-linecap:butt;stroke-linejoin:miter;stroke-opacity:1;marker-start:url(#ArrowWide)"
       d="M 62.194983,105.04678 H 56.746699"
       id="path29" />
    <path
       style="fill:none;stroke:#0000ff;stroke-width:0.264583px;stroke-linecap:butt;stroke-linejoin:miter;stroke-opacity:1;marker-start:url(#ArrowWide-77)"
       d="m 63.692427,105.02039 h 5.448284"
       id="path29-3" />
    <text
       xml:space="preserve"
       transform="matrix(0.26458333,0,0,0.26458333,0.22304247,10.805475)"
       id="text29"
       style="font-size:14.6667px;line-height:1.25;font-family:sans-serif;white-space:pre;shape-inside:url(#rect29);display:inline"><tspan
         x="230.47656"
         y="350.7637"
         id="tspan12">E1</tspan></text>
    <path
       style="fill:none;stroke:#cccccc;stroke-width:0.264583px;stroke-linecap:butt;stroke-linejoin:miter;stroke-opacity:1"
       d="M 71.652288,124.60977 V 110.29502"
       id="path28-1-3" />
    <path
       style="fill:none;stroke:#cccccc;stroke-width:0.264583px;stroke-linecap:butt;stroke-linejoin:miter;stroke-opacity:1"
       d="M 74.516623,124.78559 V 110.47084"
       id="path28-1-1" />
    <path
       style="fill:none;stroke:#0000ff;stroke-width:0.264583px;stroke-linecap:butt;stroke-linejoin:miter;stroke-opacity:1;marker-start:url(#ArrowWide-3)"
       d="M 71.672615,111.14138 H 66.224331"
       id="path29-0" />
    <path
       style="fill:none;stroke:#0000ff;stroke-width:0.264583px;stroke-linecap:butt;stroke-linejoin:miter;stroke-opacity:1;marker-start:url(#ArrowWide-77-0)"
       d="m 74.75756,111.11499 h 5.448284"
       id="path29-3-9" />
    <text
       xml:space="preserve"
       transform="matrix(0.26458333,0,0,0.26458333,9.7006736,16.900065)"
       id="text29-6"
       style="font-size:14.6667px;line-height:1.25;font-family:sans-serif;white-space:pre;shape-inside:url(#rect29-8);display:inline"><tspan
         x="230.47656"
         y="350.7637"
         id="tspan13">W1</tspan></text>
    <path
       style="fill:none;stroke:#0000ff;stroke-width:0.264583px;stroke-linecap:butt;stroke-linejoin:miter;stroke-opacity:1;marker-start:url(#ArrowWide);marker-end:url(#ArrowWide)"
       d="m 32.757004,128.43949 c 0,0 2.45203,-1.47257 3.82902,-1.5896 1.01428,-0.0862 2.07287,0.21152 2.97758,0.6781 0.68287,0.35218 1.72012,1.53437 1.72012,1.53437"
       id="path30"
       sodipodi:nodetypes="caac" />
    <text
       xml:space="preserve"
       transform="matrix(0.26458333,0,0,0.26458333,22.066738,-7.1348447)"
       id="text30"
       style="font-size:14.6667px;line-height:1.25;font-family:sans-serif;white-space:pre;shape-inside:url(#rect30);display:inline;fill:#000000;stroke:none"><tspan
         x="41.964844"
         y="503.48245"
         id="tspan14">a1</tspan></text>
    <text
       xml:space="preserve"
       transform="matrix(0.26458333,0,0,0.26458333,-1.4459781,-4.5991739)"
       id="text31"
       style="font-size:14.6667px;line-height:1.25;font-family:sans-serif;white-space:pre;shape-inside:url(#rect31);display:inline"><tspan
         x="271.40234"
         y="287.68558"
         id="tspan15">L2</tspan></text>
    <text
       xml:space="preserve"
       transform="matrix(0.26458333,0,0,0.26458333,1.1946237,-7.926857)"
       id="text32"
       style="font-size:14.6667px;line-height:1.25;font-family:sans-serif;white-space:pre;shape-inside:url(#rect32);display:inline"><tspan
         x="310.67969"
         y="304.56644"
         id="tspan16">L3</tspan></text>
    <text
       xml:space="preserve"
       transform="matrix(0.26458333,0,0,0.26458333,7.2001976,-14.300486)"
       id="text33"
       style="font-size:14.6667px;line-height:1.25;font-family:sans-serif;white-space:pre;shape-inside:url(#rect33);display:inline"><tspan
         x="326.97266"
         y="335.14261"
         id="tspan17">L4</tspan></text>
    <path
       style="fill:none;stroke:#0000ff;stroke-width:0.264583px;stroke-linecap:butt;stroke-linejoin:miter;stroke-opacity:1;marker-start:url(#ArrowWide)"
       d="M 77.870824,57.453117 72.896906,67.99826"
       id="path33" />
    <path
       style="fill:none;stroke:#0000ff;stroke-width:0.264583px;stroke-linecap:butt;stroke-linejoin:miter;stroke-opacity:1;marker-start:url(#ArrowWide)"
       d="m 82.429037,58.973672 2.870552,10.144633"
       id="path34" />
    <path
       style="fill:none;stroke:#0000ff;stroke-width:0.264583px;stroke-linecap:butt;stroke-linejoin:miter;stroke-opacity:1;marker-start:url(#ArrowWide)"
       d="m 94.662536,62.21849 1.710455,8.626149"
       id="path35" />
    <text
       xml:space="preserve"
       transform="scale(0.26458333)"
       id="text2"
       style="font-size:14.6667px;line-height:1.25;font-family:sans-serif;white-space:pre;shape-inside:url(#rect2);display:inline"><tspan
         x="385.04688"
         y="579.2305"
         id="tspan18">R7</tspan></text>
    <path
       style="fill:none;stroke:#0000ff;stroke-width:0.264583px;stroke-linecap:butt;stroke-linejoin:miter;stroke-opacity:1;marker-start:url(#ArrowWide)"
       d="M 79.044923,136.34961 100.44824,149.5459"
       id="path31" />
    <path
       style="fill:none;stroke:#0000ff;stroke-width:0.264583px;stroke-linecap:butt;stroke-linejoin:miter;stroke-opacity:1;marker-start:url(#ArrowWide)"
       d="m 86.713869,136.15723 15.414061,13.03223"
       id="path32"
       sodipodi:nodetypes="cc" />
  </g>
</svg>
