<svg xmlns="http://www.w3.org/2000/svg" width="342.085" height="366.315" viewBox="0 0 90.51 96.921"><defs><path id="s" d="M42.288 2128.197h177.373v56.473H42.288z"/><path id="r" d="M94.302 1986.699h45.897v28.09H94.302z"/><path id="q" d="M77.434 1892.947h43.208v31.211H77.434z"/><path id="p" d="M84.078 1949.313h57.119v34.437H84.078z"/><path id="o" d="M28.32 2100.697h165.559v53.323H28.32z"/><path id="n" d="M159.606 2001.634h20.7v17.251h-20.7z"/><path id="m" d="M103.861 2026.014h157.524v50.451H103.861z"/><path id="l" d="M191.184 2036.524h28.721v23.743h-28.721z"/><path id="k" d="M155.783 2081.381h28.854v25.368h-28.854z"/><path id="j" d="M145.674 2006.407h34.749v25.298h-34.749z"/><path id="i" d="M165.189 2054.178h30.018v24.607h-30.018z"/><path id="h" d="M233.153 1826.695h124.603v33.374H233.153z"/><path id="g" d="M361.729 1975.844h45.338v32.397h-45.338z"/><path id="c" d="M89.039 2092.137h49.855v42.824H89.039z"/><path id="d" d="M89.039 2092.137h49.855v42.824H89.039z"/><marker id="a" markerHeight="1" markerWidth="1" orient="auto-start-reverse" preserveAspectRatio="xMidYMid" refX="0" refY="0" style="overflow:visible" viewBox="0 0 1 1"><path d="M-.211-4.106 6.21-.894a1 1 90 0 1 0 1.788L-.21 4.106A1.236 1.236 31.717 0 1-2 3v-6A1.236 1.236 148.283 0 1-.211-4.106z" style="fill:context-stroke;fill-rule:evenodd;stroke:none" transform="scale(.7)"/></marker><marker id="b" markerHeight="1" markerWidth="1" orient="auto-start-reverse" preserveAspectRatio="xMidYMid" refX="0" refY="0" style="overflow:visible" viewBox="0 0 1 1"><path d="M-.211-4.106 6.21-.894a1 1 90 0 1 0 1.788L-.21 4.106A1.236 1.236 31.717 0 1-2 3v-6A1.236 1.236 148.283 0 1-.211-4.106z" style="fill:context-stroke;fill-rule:evenodd;stroke:none" transform="scale(.7)"/></marker><marker id="e" markerHeight="1" markerWidth="1" orient="auto-start-reverse" preserveAspectRatio="xMidYMid" refX="0" refY="0" style="overflow:visible" viewBox="0 0 1 1"><path d="M-.211-4.106 6.21-.894a1 1 90 0 1 0 1.788L-.21 4.106A1.236 1.236 31.717 0 1-2 3v-6A1.236 1.236 148.283 0 1-.211-4.106z" style="fill:context-stroke;fill-rule:evenodd;stroke:none" transform="scale(.7)"/></marker><marker id="f" markerHeight="1" markerWidth="1" orient="auto-start-reverse" preserveAspectRatio="xMidYMid" refX="0" refY="0" style="overflow:visible" viewBox="0 0 1 1"><path d="M-.211-4.106 6.21-.894a1 1 90 0 1 0 1.788L-.21 4.106A1.236 1.236 31.717 0 1-2 3v-6A1.236 1.236 148.283 0 1-.211-4.106z" style="fill:context-stroke;fill-rule:evenodd;stroke:none" transform="scale(.7)"/></marker></defs><path d="M8.826 485.201h89.981v96.392H8.826z" style="fill:#fff;fill-opacity:1;stroke:#fff;stroke-width:.529167;stroke-dasharray:none;stroke-dashoffset:0" transform="translate(-8.562 -484.936)"/><path d="m64.987 559.08 14.388.132v-23.204l-9.969-20.528-12.958 6.253 8.407 17.56.132 19.787" style="fill:#f9f9f9;stroke:#000;stroke-width:.264583px;stroke-linecap:butt;stroke-linejoin:miter;stroke-opacity:1" transform="translate(-8.562 -484.936)"/><path d="M65.972 572.665H78.39" style="fill:none;stroke:#000;stroke-width:.264583px;stroke-linecap:butt;stroke-linejoin:miter;stroke-opacity:1;marker-start:url(#a);marker-end:url(#RoundedArrow)" transform="translate(-8.562 -484.936)"/><path d="m49.923 506.843 11.229-5.306" style="fill:none;stroke:#000;stroke-width:.264583px;stroke-linecap:butt;stroke-linejoin:miter;stroke-opacity:1;marker-start:url(#b);marker-end:url(#RoundedArrow-2)" transform="translate(-8.562 -484.936)"/><path d="m69.417 515.473-6.996-14.55M56.448 521.733l-6.995-14.55M64.987 572.533V559.08M79.375 572.665v-13.453" style="fill:none;stroke:#ccc;stroke-width:.264583px;stroke-linecap:butt;stroke-linejoin:miter;stroke-opacity:1" transform="translate(-8.562 -484.936)"/><text xml:space="preserve" style="font-size:14.6667px;line-height:1.25;font-family:sans-serif;white-space:pre;shape-inside:url(#c)" transform="matrix(.26458 0 0 .26458 37.604 -470.034)"><tspan x="89.039" y="2105.113">E2</tspan></text><text xml:space="preserve" style="font-size:14.6667px;line-height:1.25;font-family:sans-serif;white-space:pre;shape-inside:url(#d);display:inline" transform="matrix(.26458 0 0 .26458 19.441 -538.469)"><tspan x="89.039" y="2105.113">E2</tspan></text><path d="M79.375 536.008V494.6" style="fill:none;stroke:#ccc;stroke-width:.264583px;stroke-linecap:butt;stroke-linejoin:miter;stroke-opacity:1" transform="translate(-8.562 -484.936)"/><path d="M69.417 515.473v-20.874" style="fill:none;stroke:#ccc;stroke-width:.264584px;stroke-linecap:butt;stroke-linejoin:miter;stroke-opacity:1" transform="translate(-8.562 -484.936)"/><path d="M70.698 495.384h7.396" style="fill:none;stroke:#000;stroke-width:.264583px;stroke-linecap:butt;stroke-linejoin:miter;stroke-opacity:1;marker-start:url(#e);marker-end:url(#RoundedArrow-3)" transform="translate(-8.562 -484.936)"/><path d="M90.41 515.663H56.496" style="fill:none;stroke:#ccc;stroke-width:.264584px;stroke-linecap:butt;stroke-linejoin:miter;stroke-opacity:1" transform="translate(-8.562 -484.936)"/><path d="M90.41 536.14H63.346" style="fill:none;stroke:#ccc;stroke-width:.264583px;stroke-linecap:butt;stroke-linejoin:miter;stroke-opacity:1" transform="translate(-8.562 -484.936)"/><path d="M90.41 534.662v-17.674" style="fill:none;stroke:#000;stroke-width:.264582px;stroke-linecap:butt;stroke-linejoin:miter;stroke-opacity:1;marker-start:url(#f);marker-end:url(#RoundedArrow-3-9)" transform="translate(-8.562 -484.936)"/><text xml:space="preserve" style="font-size:14.6667px;line-height:1.25;font-family:sans-serif;white-space:pre;shape-inside:url(#g)" transform="matrix(.26458 0 0 .26458 -13.086 -483.5)"><tspan x="361.729" y="1988.82">H2</tspan></text><text xml:space="preserve" style="font-size:14.6667px;line-height:1.25;font-family:sans-serif;white-space:pre;shape-inside:url(#h)" transform="matrix(.26458 0 0 .26458 -1.79 -478.331)"><tspan x="233.152" y="1839.672">R1-R2</tspan></text><path d="m64.855 539.293 14.52-3.285" style="fill:none;stroke:#ccc;stroke-width:.264583px;stroke-linecap:butt;stroke-linejoin:miter;stroke-dasharray:1,1;stroke-dashoffset:0;stroke-opacity:1" transform="translate(-8.562 -484.936)"/><path d="M76.887 530.885s.554-.877 1.004-1.066c.384-.161 1.248.026 1.248.026" style="fill:none;stroke:#ff8080;stroke-width:.264583px;stroke-linecap:butt;stroke-linejoin:miter;stroke-opacity:1" transform="translate(-8.562 -484.936)"/><path d="m76.122 536.2-.082-2.701 3.24-.057" style="fill:none;stroke:purple;stroke-width:.264583px;stroke-linecap:butt;stroke-linejoin:miter;stroke-opacity:1" transform="translate(-8.562 -484.936)"/><path d="m79.355 536.064-14.55 6.995" style="fill:none;stroke:#ccc;stroke-width:.264583px;stroke-linecap:butt;stroke-linejoin:miter;stroke-opacity:1" transform="translate(-8.562 -484.936)"/><path d="m78.065 536.728-.66-1.129 1.314-.748" style="fill:none;stroke:purple;stroke-width:.264583px;stroke-linecap:butt;stroke-linejoin:miter;stroke-opacity:1" transform="translate(-8.562 -484.936)"/><path d="M75.753 528.816s-2.747 1.01-3.522 2.145c-.974 1.424-.904 5.095-.904 5.095" style="fill:none;stroke:#ff8080;stroke-width:.529167;stroke-linecap:butt;stroke-linejoin:miter;stroke-opacity:1" transform="translate(-8.562 -484.936)"/><path d="M73.472 538.645s-.67-.792-.715-1.278c-.038-.414.4-1.183.4-1.183" style="fill:none;stroke:#ff8080;stroke-width:.264583px;stroke-linecap:butt;stroke-linejoin:miter;stroke-opacity:1" transform="translate(-8.562 -484.936)"/><text xml:space="preserve" style="font-size:14.6667px;line-height:1.25;font-family:sans-serif;white-space:pre;shape-inside:url(#i)" transform="matrix(.26458 0 0 .26458 27.924 -493.83)"><tspan x="165.189" y="2067.154">A</tspan></text><text xml:space="preserve" style="font-size:14.6667px;line-height:1.25;font-family:sans-serif;white-space:pre;shape-inside:url(#j)" transform="matrix(.26458 0 0 .26458 12.488 -482.103)"><tspan x="145.674" y="2019.383">B</tspan></text><text xml:space="preserve" style="font-size:14.6667px;line-height:1.25;font-family:sans-serif;white-space:pre;shape-inside:url(#k)" transform="matrix(.26458 0 0 .26458 11.783 -498.184)"><tspan x="155.783" y="2094.358">C</tspan></text><text xml:space="preserve" style="font-size:14.6667px;line-height:1.25;font-family:sans-serif;white-space:pre;shape-inside:url(#l)" transform="matrix(.26458 0 0 .26458 6.237 -480.71)"><tspan x="191.184" y="2049.5">D</tspan></text><text xml:space="preserve" style="font-size:14.6667px;line-height:1.25;font-family:sans-serif;white-space:pre;shape-inside:url(#m)" transform="matrix(.26458 0 0 .26458 -23.149 -483.512)"><tspan x="103.861" y="2038.99">BAC=BAD/2
</tspan><tspan x="103.861" y="2057.324">=atan((R1-R2)/H2)/2</tspan></text><path d="M64.855 539.293v-3.062" style="fill:none;stroke:#ccc;stroke-width:.264583px;stroke-linecap:butt;stroke-linejoin:miter;stroke-opacity:1" transform="translate(-8.562 -484.936)"/><text xml:space="preserve" style="font-size:14.6667px;line-height:1.25;font-family:sans-serif;white-space:pre;shape-inside:url(#n)" transform="matrix(.26458 0 0 .26458 13.445 -482.751)"><tspan x="159.605" y="2014.611">F</tspan></text><text xml:space="preserve" style="font-size:14.6667px;line-height:1.25;font-family:sans-serif;white-space:pre;shape-inside:url(#o)" transform="matrix(.26458 0 0 .26458 -3.542 -487.366)"><tspan x="28.32" y="2113.674">FC=E2*tan(BAC)</tspan></text><path d="M56.448 521.733v-6.082" style="fill:none;stroke:#ccc;stroke-width:.264584px;stroke-linecap:butt;stroke-linejoin:miter;stroke-opacity:1" transform="translate(-8.562 -484.936)"/><text xml:space="preserve" style="font-size:14.6667px;line-height:1.25;font-family:sans-serif;white-space:pre;shape-inside:url(#p)" transform="matrix(.26458 0 0 .26458 39.475 -489.411)"><tspan x="84.078" y="1962.289">K</tspan></text><text xml:space="preserve" style="font-size:14.6667px;line-height:1.25;font-family:sans-serif;white-space:pre;shape-inside:url(#q)" transform="matrix(.26458 0 0 .26458 25.961 -474.675)"><tspan x="77.434" y="1905.924">L</tspan></text><text xml:space="preserve" style="font-size:14.6667px;line-height:1.25;font-family:sans-serif;white-space:pre;shape-inside:url(#r)" transform="matrix(.26458 0 0 .26458 18.838 -489)"><tspan x="94.303" y="1999.676">M</tspan></text><path d="M71.049 518.458s1.028-.393 1.318-.834c.364-.554.338-1.982.338-1.982" style="fill:none;stroke:#ff8080;stroke-width:.529166;stroke-linecap:butt;stroke-linejoin:miter;stroke-opacity:1" transform="translate(-8.562 -484.936)"/><path d="M64.248 517.912s-.877-.554-1.066-1.004c-.161-.384.026-1.248.026-1.248" style="fill:none;stroke:#ff8080;stroke-width:.264583px;stroke-linecap:butt;stroke-linejoin:miter;stroke-opacity:1" transform="translate(-8.562 -484.936)"/><path d="m69.916 516.819-1.13.66-.748-1.315M77.558 515.748l-.044 1.81 1.722.038" style="fill:none;stroke:purple;stroke-width:.264583px;stroke-linecap:butt;stroke-linejoin:miter;stroke-opacity:1" transform="translate(-8.562 -484.936)"/><text xml:space="preserve" style="font-size:14.6667px;line-height:1.25;font-family:sans-serif;white-space:pre;shape-inside:url(#s)" transform="matrix(.26458 0 0 .26458 -7.06 -486.188)"><tspan x="42.287" y="2141.174">LK=E2*cos(BAC)
</tspan><tspan x="42.287" y="2159.507">LM=E2*sin(BAC)</tspan></text></svg>