<svg xmlns="http://www.w3.org/2000/svg" width="200" height="200" viewBox="0 0 52.917 52.917"><defs><path id="k" d="M369.747 249.105h45.15v35.609h-45.15z"/><path id="j" d="M349.559 367h55.785v28.797h-55.785z"/><path id="i" d="M367.875 311.38h30.293v20.167h-30.293z"/><path id="h" d="M349.4 374.28h50.588v42.513H349.4z"/><path id="g" d="M292.848 411.623h56.436v34.832h-56.436z"/><path id="f" d="M249.583 441.078h31.984v20.338h-31.984z"/><path id="e" d="M399.974 129.034h56.102v26.076h-56.102z"/><path id="d" d="M373.346 209.379h65.277v27.878h-65.277z"/><path id="c" d="M372.014 274.981h57.012v32.118h-57.012z"/><marker id="a" markerHeight="5" markerWidth="8.75" orient="auto-start-reverse" preserveAspectRatio="xMidYMid" refX="0" refY="0" style="overflow:visible" viewBox="0 0 8.75 5"><path d="m0 0 5-5-17.5 5L5 5Z" style="fill:context-stroke;fill-rule:evenodd;stroke:none" transform="scale(-0.5)"/></marker><marker id="b" markerHeight="5" markerWidth="8.75" orient="auto-start-reverse" preserveAspectRatio="xMidYMid" refX="0" refY="0" style="overflow:visible" viewBox="0 0 8.75 5"><path d="m0 0 5-5-17.5 5L5 5Z" style="fill:context-stroke;fill-rule:evenodd;stroke:none" transform="scale(-0.5)"/></marker></defs><g transform="translate(-31.287307,-46.275719)"><path d="m67.123 51.098 9.856 45.78" style="fill:#fff;stroke:#f0c;stroke-width:.264583px;stroke-linecap:butt;stroke-linejoin:miter;stroke-opacity:1"/><path d="M31.287 46.276h52.917v52.917H31.287z" style="fill:#fff;stroke:none;stroke-width:.264583"/><path d="M35.136 72.094H77.02" style="fill:#fff;stroke:#000;stroke-width:.264583px;stroke-linecap:butt;stroke-linejoin:miter;stroke-opacity:1;marker-end:url(#a)"/><path d="M56.905 93.863V51.979" style="fill:#fff;stroke:#000;stroke-width:.264583px;stroke-linecap:butt;stroke-linejoin:miter;stroke-opacity:1;marker-end:url(#b)"/><circle cx="69.628" cy="63.946" r="1.04" style="fill:#fff;stroke:#f60;stroke-width:.264583"/><path d="M69.628 72.094v-8.148H56.905" style="fill:#fff;stroke:#999;stroke-width:.264583px;stroke-linecap:butt;stroke-linejoin:miter;stroke-dasharray:1,1;stroke-dashoffset:0;stroke-opacity:1"/><text xml:space="preserve" style="font-size:12px;line-height:1.25;font-family:sans-serif;white-space:pre;shape-inside:url(#c);fill:#2ca02c" transform="matrix(0.26458333,0,0,0.26458333,-32.93323,0.25375368)"><tspan x="372.014" y="285.598">p1x</tspan></text><text xml:space="preserve" style="font-size:12px;line-height:1.25;font-family:sans-serif;white-space:pre;shape-inside:url(#d);fill:#2ca02c" transform="matrix(0.26458333,0,0,0.26458333,-48.297493,6.4833195)"><tspan x="373.346" y="219.996">p1y</tspan></text><text xml:space="preserve" style="font-size:14.6667px;line-height:1.25;font-family:sans-serif;white-space:pre;shape-inside:url(#e);fill:#2ca02c" transform="matrix(0.26458333,0,0,0.26458333,-34.405349,23.944093)"><tspan x="399.975" y="142.012">p1</tspan></text><path d="M57.037 89.83h18.304V72.032" style="fill:#fff;stroke:#999;stroke-width:.264583px;stroke-linecap:butt;stroke-linejoin:miter;stroke-dasharray:1,1;stroke-dashoffset:0;stroke-opacity:1"/><circle cx="75.365" cy="89.733" r="1.04" style="fill:#fff;stroke:#f60;stroke-width:.264583"/><text xml:space="preserve" style="font-size:14.6667px;line-height:1.25;font-family:sans-serif;white-space:pre;shape-inside:url(#f);fill:#04a" transform="matrix(0.26458333,0,0,0.26458333,10.629411,-28.707623)"><tspan x="249.582" y="454.055">p2</tspan></text><text xml:space="preserve" style="font-size:12px;line-height:1.25;font-family:sans-serif;white-space:pre;shape-inside:url(#g);fill:#04a" transform="matrix(0.26458333,0,0,0.26458333,-3.9032008,-41.107661)"><tspan x="292.848" y="422.24">p2x</tspan></text><text xml:space="preserve" style="font-size:12px;line-height:1.25;font-family:sans-serif;white-space:pre;shape-inside:url(#h);fill:#04a" transform="matrix(0.26458333,0,0,0.26458333,-42.201756,-11.295515)"><tspan x="349.4" y="384.896">p2y</tspan></text><path d="M56.864 84.182h-17.49V72.076" style="fill:#fff;stroke:#999;stroke-width:.264583px;stroke-linecap:butt;stroke-linejoin:miter;stroke-dasharray:.999998,.999998;stroke-dashoffset:0;stroke-opacity:1"/><circle cx="39.086" cy="84.031" r="1.04" style="fill:#fff;stroke:#f60;stroke-width:.264583"/><text xml:space="preserve" style="font-size:14.6667px;line-height:1.25;font-family:sans-serif;white-space:pre;shape-inside:url(#i);fill:#80a" transform="matrix(0.26458333,0,0,0.26458333,-65.016124,-1.4282334)"><tspan x="367.875" y="324.357">p3</tspan></text><text xml:space="preserve" style="font-size:12px;line-height:1.25;font-family:sans-serif;white-space:pre;shape-inside:url(#j);fill:#80a" transform="matrix(0.26458333,0,0,0.26458333,-54.95201,-29.030898)"><tspan x="349.559" y="377.617">p3x</tspan></text><text xml:space="preserve" style="font-size:12px;line-height:1.25;font-family:sans-serif;white-space:pre;shape-inside:url(#k);fill:#80a" transform="matrix(0.26458333,0,0,0.26458333,-40.250374,15.757495)"><tspan x="369.748" y="259.723">p3y</tspan></text></g></svg>