<?xml version="1.0" encoding="UTF-8" standalone="no"?>
<!-- Created with Inkscape (http://www.inkscape.org/) -->

<svg
   width="303.96149"
   height="358.56305"
   viewBox="0 0 80.423143 94.869807"
   version="1.1"
   id="svg1"
   inkscape:version="1.3 (1:1.3+202307231459+0e150ed6c4)"
   sodipodi:docname="pole_stator.svg"
   xmlns:inkscape="http://www.inkscape.org/namespaces/inkscape"
   xmlns:sodipodi="http://sodipodi.sourceforge.net/DTD/sodipodi-0.dtd"
   xmlns="http://www.w3.org/2000/svg"
   xmlns:svg="http://www.w3.org/2000/svg">
  <sodipodi:namedview
     id="namedview1"
     pagecolor="#ffffff"
     bordercolor="#666666"
     borderopacity="1.0"
     inkscape:showpageshadow="2"
     inkscape:pageopacity="0.0"
     inkscape:pagecheckerboard="0"
     inkscape:deskcolor="#d1d1d1"
     inkscape:document-units="px"
     inkscape:zoom="2.1166667"
     inkscape:cx="153.30709"
     inkscape:cy="847.55906"
     inkscape:window-width="1370"
     inkscape:window-height="836"
     inkscape:window-x="0"
     inkscape:window-y="0"
     inkscape:window-maximized="1"
     inkscape:current-layer="layer1" />
  <defs
     id="defs1">
    <rect
       x="16.064838"
       y="934.69672"
       width="37.464935"
       height="22.095842"
       id="rect24" />
    <rect
       x="33.098549"
       y="733.44055"
       width="37.010948"
       height="28.180365"
       id="rect23" />
    <rect
       x="25.879061"
       y="893.83978"
       width="32.231174"
       height="22.823107"
       id="rect22" />
    <marker
       style="overflow:visible"
       id="RoundedArrow-9-2"
       refX="0"
       refY="0"
       orient="auto-start-reverse"
       inkscape:stockid="Rounded arrow"
       markerWidth="1"
       markerHeight="1"
       viewBox="0 0 1 1"
       inkscape:isstock="true"
       inkscape:collect="always"
       preserveAspectRatio="xMidYMid">
      <path
         transform="scale(0.7)"
         d="m -0.21114562,-4.1055728 6.42229122,3.21114561 a 1,1 90 0 1 0,1.78885438 L -0.21114562,4.1055728 A 1.236068,1.236068 31.717474 0 1 -2,3 v -6 a 1.236068,1.236068 148.28253 0 1 1.78885438,-1.1055728 z"
         style="fill:context-stroke;fill-rule:evenodd;stroke:none"
         id="path8-2-2" />
    </marker>
    <marker
       style="overflow:visible"
       id="RoundedArrow-9-3-6"
       refX="0"
       refY="0"
       orient="auto-start-reverse"
       inkscape:stockid="Rounded arrow"
       markerWidth="1"
       markerHeight="1"
       viewBox="0 0 1 1"
       inkscape:isstock="true"
       inkscape:collect="always"
       preserveAspectRatio="xMidYMid">
      <path
         transform="scale(0.7)"
         d="m -0.21114562,-4.1055728 6.42229122,3.21114561 a 1,1 90 0 1 0,1.78885438 L -0.21114562,4.1055728 A 1.236068,1.236068 31.717474 0 1 -2,3 v -6 a 1.236068,1.236068 148.28253 0 1 1.78885438,-1.1055728 z"
         style="fill:context-stroke;fill-rule:evenodd;stroke:none"
         id="path8-2-6-1" />
    </marker>
    <rect
       x="407.76694"
       y="207.25415"
       width="46.965008"
       height="45.649624"
       id="rect7-6" />
    <rect
       x="433.15857"
       y="296.91437"
       width="48.267345"
       height="45.71748"
       id="rect8-1" />
    <marker
       style="overflow:visible"
       id="RoundedArrow-7"
       refX="0"
       refY="0"
       orient="auto-start-reverse"
       inkscape:stockid="Rounded arrow"
       markerWidth="1"
       markerHeight="1"
       viewBox="0 0 1 1"
       inkscape:isstock="true"
       inkscape:collect="always"
       preserveAspectRatio="xMidYMid">
      <path
         transform="scale(0.7)"
         d="m -0.21114562,-4.1055728 6.42229122,3.21114561 a 1,1 90 0 1 0,1.78885438 L -0.21114562,4.1055728 A 1.236068,1.236068 31.717474 0 1 -2,3 v -6 a 1.236068,1.236068 148.28253 0 1 1.78885438,-1.1055728 z"
         style="fill:context-stroke;fill-rule:evenodd;stroke:none"
         id="path8-67" />
    </marker>
    <rect
       x="348.78598"
       y="275.76746"
       width="64.57917"
       height="35.918922"
       id="rect5-3" />
    <marker
       style="overflow:visible"
       id="RoundedArrow-1-9"
       refX="0"
       refY="0"
       orient="auto-start-reverse"
       inkscape:stockid="Rounded arrow"
       markerWidth="1"
       markerHeight="1"
       viewBox="0 0 1 1"
       inkscape:isstock="true"
       inkscape:collect="always"
       preserveAspectRatio="xMidYMid">
      <path
         transform="scale(0.7)"
         d="m -0.21114562,-4.1055728 6.42229122,3.21114561 a 1,1 90 0 1 0,1.78885438 L -0.21114562,4.1055728 A 1.236068,1.236068 31.717474 0 1 -2,3 v -6 a 1.236068,1.236068 148.28253 0 1 1.78885438,-1.1055728 z"
         style="fill:context-stroke;fill-rule:evenodd;stroke:none"
         id="path8-9-6" />
    </marker>
    <rect
       x="359.14062"
       y="358.88626"
       width="76.620003"
       height="27.985056"
       id="rect6-3" />
    <marker
       style="overflow:visible"
       id="RoundedArrow-7-9"
       refX="0"
       refY="0"
       orient="auto-start-reverse"
       inkscape:stockid="Rounded arrow"
       markerWidth="1"
       markerHeight="1"
       viewBox="0 0 1 1"
       inkscape:isstock="true"
       inkscape:collect="always"
       preserveAspectRatio="xMidYMid">
      <path
         transform="scale(0.7)"
         d="m -0.21114562,-4.1055728 6.42229122,3.21114561 a 1,1 90 0 1 0,1.78885438 L -0.21114562,4.1055728 A 1.236068,1.236068 31.717474 0 1 -2,3 v -6 a 1.236068,1.236068 148.28253 0 1 1.78885438,-1.1055728 z"
         style="fill:context-stroke;fill-rule:evenodd;stroke:none"
         id="path8-67-7" />
    </marker>
    <marker
       style="overflow:visible"
       id="RoundedArrow-7-9-3"
       refX="0"
       refY="0"
       orient="auto-start-reverse"
       inkscape:stockid="Rounded arrow"
       markerWidth="1"
       markerHeight="1"
       viewBox="0 0 1 1"
       inkscape:isstock="true"
       inkscape:collect="always"
       preserveAspectRatio="xMidYMid">
      <path
         transform="scale(0.7)"
         d="m -0.21114562,-4.1055728 6.42229122,3.21114561 a 1,1 90 0 1 0,1.78885438 L -0.21114562,4.1055728 A 1.236068,1.236068 31.717474 0 1 -2,3 v -6 a 1.236068,1.236068 148.28253 0 1 1.78885438,-1.1055728 z"
         style="fill:context-stroke;fill-rule:evenodd;stroke:none"
         id="path8-67-7-1" />
    </marker>
    <marker
       style="overflow:visible"
       id="RoundedArrow-7-9-33"
       refX="0"
       refY="0"
       orient="auto-start-reverse"
       inkscape:stockid="Rounded arrow"
       markerWidth="1"
       markerHeight="1"
       viewBox="0 0 1 1"
       inkscape:isstock="true"
       inkscape:collect="always"
       preserveAspectRatio="xMidYMid">
      <path
         transform="scale(0.7)"
         d="m -0.21114562,-4.1055728 6.42229122,3.21114561 a 1,1 90 0 1 0,1.78885438 L -0.21114562,4.1055728 A 1.236068,1.236068 31.717474 0 1 -2,3 v -6 a 1.236068,1.236068 148.28253 0 1 1.78885438,-1.1055728 z"
         style="fill:context-stroke;fill-rule:evenodd;stroke:none"
         id="path8-67-7-3" />
    </marker>
  </defs>
  <g
     inkscape:label="Layer 1"
     inkscape:groupmode="layer"
     id="layer1"
     transform="translate(-12.004533,-151.02809)">
    <rect
       style="fill:#ffffff;stroke:#ffffff;stroke-width:0.264583;stroke-dasharray:none;stroke-dashoffset:0"
       id="rect29"
       width="80.158562"
       height="94.605225"
       x="12.136825"
       y="151.16039"
       inkscape:export-filename="pole_stator_face.svg"
       inkscape:export-xdpi="96"
       inkscape:export-ydpi="96" />
    <path
       style="fill:#f9f9f9;stroke:#000000;stroke-width:0.264583px;stroke-linecap:butt;stroke-linejoin:miter;stroke-opacity:1"
       d="m 42.176528,169.16315 h 14.61284 l 11.18075,41.72715 0.0432,16.96795 H 30.952592 l 0.04318,-16.96795 11.180756,-41.72715"
       id="path19" />
    <path
       style="fill:none;stroke:#000000;stroke-width:0.264583px;stroke-linecap:butt;stroke-linejoin:miter;stroke-opacity:1"
       d="M 30.995772,210.8903 H 67.970118"
       id="path20" />
    <path
       style="fill:#cccccc;stroke:#cccccc;stroke-width:0.264583px;stroke-linecap:butt;stroke-linejoin:miter;stroke-opacity:1"
       d="m 67.918018,210.75801 h 12.23641"
       id="path4-9" />
    <path
       style="fill:#cccccc;stroke:#cccccc;stroke-width:0.264582px;stroke-linecap:butt;stroke-linejoin:miter;stroke-opacity:1"
       d="m 56.737258,169.03086 h 23.41717"
       id="path4-7-4" />
    <path
       style="fill:none;stroke:#000000;stroke-width:0.264583px;stroke-linecap:butt;stroke-linejoin:miter;stroke-opacity:1;marker-start:url(#RoundedArrow-9-2);marker-end:url(#RoundedArrow-9-2)"
       d="M 80.154428,226.52301 V 211.96096"
       id="path5-8-9" />
    <path
       style="fill:none;stroke:#000000;stroke-width:0.264583px;stroke-linecap:butt;stroke-linejoin:miter;stroke-opacity:1;marker-start:url(#RoundedArrow-9-3-6);marker-end:url(#RoundedArrow-9-3-6)"
       d="M 80.154428,209.26652 V 170.52234"
       id="path5-8-2-0" />
    <text
       xml:space="preserve"
       transform="matrix(0.26458333,0,0,0.26458333,-26.922769,162.11447)"
       id="text7-9"
       style="font-size:14.6667px;line-height:1.25;font-family:sans-serif;white-space:pre;shape-inside:url(#rect7-6);display:inline"><tspan
         x="407.76758"
         y="220.2305"
         id="tspan1">H1</tspan></text>
    <text
       xml:space="preserve"
       transform="matrix(0.26458333,0,0,0.26458333,-33.196961,109.49233)"
       id="text8-7"
       style="font-size:14.6667px;line-height:1.25;font-family:sans-serif;white-space:pre;shape-inside:url(#rect8-1);display:inline"><tspan
         x="433.1582"
         y="309.89065"
         id="tspan3">H2</tspan></text>
    <path
       style="fill:#cccccc;stroke:#cccccc;stroke-width:0.264583px;stroke-linecap:butt;stroke-linejoin:miter;stroke-opacity:1"
       d="m 68.013318,227.85825 h 12.23641"
       id="path4-2-5" />
    <path
       style="fill:#cccccc;stroke:#cccccc;stroke-width:0.264583px;stroke-linecap:butt;stroke-linejoin:miter;stroke-opacity:1"
       d="M 67.881028,240.22695 V 227.99054"
       id="path4-6-9-4" />
    <path
       style="fill:#cccccc;stroke:#cccccc;stroke-width:0.264583px;stroke-linecap:butt;stroke-linejoin:miter;stroke-opacity:1"
       d="M 30.819963,240.22695 V 227.99054"
       id="path4-6-3-8" />
    <path
       style="fill:none;stroke:#000000;stroke-width:0.264583px;stroke-linecap:butt;stroke-linejoin:miter;stroke-opacity:1;marker-start:url(#RoundedArrow-7);marker-end:url(#RoundedArrow-7)"
       d="M 31.893634,240.22695 H 66.586008"
       id="path5-1" />
    <text
       xml:space="preserve"
       transform="matrix(0.26458333,0,0,0.26458333,-45.373322,167.55131)"
       id="text5-2"
       style="font-size:14.6667px;line-height:1.25;font-family:sans-serif;white-space:pre;shape-inside:url(#rect5-3);display:inline"><tspan
         x="348.78516"
         y="288.74417"
         id="tspan4">D1</tspan></text>
    <path
       style="fill:#cccccc;stroke:#cccccc;stroke-width:0.264583px;stroke-linecap:butt;stroke-linejoin:miter;stroke-opacity:1"
       d="M 56.869548,168.89857 V 156.66216"
       id="path4-6-5" />
    <path
       style="fill:#cccccc;stroke:#cccccc;stroke-width:0.264583px;stroke-linecap:butt;stroke-linejoin:miter;stroke-opacity:1"
       d="M 42.124418,169.03086 V 156.79445"
       id="path4-6-6-6" />
    <path
       style="fill:none;stroke:#000000;stroke-width:0.264583px;stroke-linecap:butt;stroke-linejoin:miter;stroke-opacity:1;marker-start:url(#RoundedArrow-1-9);marker-end:url(#RoundedArrow-1-9)"
       d="m 43.158018,156.79445 h 12.67793"
       id="path5-7-1" />
    <text
       xml:space="preserve"
       transform="matrix(0.26458333,0,0,0.26458333,-47.54489,57.639445)"
       id="text6-1"
       style="font-size:14.6667px;line-height:1.25;font-family:sans-serif;white-space:pre;shape-inside:url(#rect6-3);display:inline"><tspan
         x="359.14062"
         y="371.86331"
         id="tspan5">D2</tspan></text>
    <path
       style="fill:#e6e6e6;stroke:#000000;stroke-width:0.264583px;stroke-linecap:butt;stroke-linejoin:miter;stroke-opacity:1"
       d="m 51.981926,216.24353 v 3.75912 c 0,0 -0.19411,1.5987 -0.63383,2.17743 -0.62947,0.82844 -1.61964,1.42353 -2.58198,1.47529 -0.77728,0.0418 -1.61345,-0.35087 -2.17525,-0.96243 -0.62258,-0.67774 -1.04056,-2.69029 -1.04056,-2.69029 v -3.75912 c 0,0 0.33389,-1.87685 0.89227,-2.52523 0.58893,-0.68388 1.48189,-1.0921 2.32354,-1.12748 0.69372,-0.0292 1.44962,0.2446 1.9704,0.76599 0.70773,0.70854 1.24541,2.88672 1.24541,2.88672 z"
       id="path22"
       sodipodi:nodetypes="ccaaaccaaac" />
    <path
       style="fill:#cccccc;stroke:#cccccc;stroke-width:0.264583px;stroke-linecap:butt;stroke-linejoin:miter;stroke-opacity:1"
       d="m 22.727062,227.99054 h 7.96061"
       id="path4-2-5-4" />
    <path
       style="fill:#cccccc;stroke:#cccccc;stroke-width:0.264583px;stroke-linecap:butt;stroke-linejoin:miter;stroke-opacity:1"
       d="M 22.727062,223.79076 H 48.766116"
       id="path4-2-5-4-1" />
    <path
       style="fill:#cccccc;stroke:#cccccc;stroke-width:0.264583px;stroke-linecap:butt;stroke-linejoin:miter;stroke-opacity:1"
       d="M 22.727062,212.59082 H 48.766116"
       id="path4-2-5-4-1-6" />
    <path
       style="fill:#cccccc;stroke:#cccccc;stroke-width:0.264583px;stroke-linecap:butt;stroke-linejoin:miter;stroke-opacity:1"
       d="M 45.550306,232.23906 V 220.00265"
       id="path4-6-9-4-8" />
    <path
       style="fill:#cccccc;stroke:#cccccc;stroke-width:0.264583px;stroke-linecap:butt;stroke-linejoin:miter;stroke-opacity:1"
       d="M 51.981926,232.23906 V 220.00265"
       id="path4-6-9-4-8-1" />
    <path
       style="fill:none;stroke:#000000;stroke-width:0.264584px;stroke-linecap:butt;stroke-linejoin:miter;stroke-opacity:1;marker-start:url(#RoundedArrow-7-9);marker-end:url(#RoundedArrow-7-9)"
       d="M 46.500223,232.23906 H 51.03201"
       id="path5-1-3" />
    <path
       style="fill:none;stroke:#000000;stroke-width:0.264583px;stroke-linecap:butt;stroke-linejoin:miter;stroke-opacity:1;marker-start:url(#RoundedArrow-7-9-3);marker-end:url(#RoundedArrow-7-9-3)"
       d="m 22.727061,222.22363 v -8.06569"
       id="path5-1-3-9" />
    <path
       style="fill:none;stroke:#000000;stroke-width:0.264584px;stroke-linecap:butt;stroke-linejoin:miter;stroke-opacity:1;marker-start:url(#RoundedArrow-7-9-33);marker-end:url(#RoundedArrow-7-9-33)"
       d="m 22.727062,227.2898 v -2.53371"
       id="path5-1-3-6" />
    <text
       xml:space="preserve"
       transform="matrix(0.26458333,0,0,0.26458333,9.3793946,-12.391601)"
       id="text22"
       style="font-size:14.6667px;line-height:1.25;font-family:sans-serif;white-space:pre;shape-inside:url(#rect22);display:inline"><tspan
         x="25.878906"
         y="906.81644"
         id="tspan6">H3</tspan></text>
    <text
       xml:space="preserve"
       transform="matrix(0.26458333,0,0,0.26458333,7.8408203,22.115499)"
       id="text23"
       style="font-size:14.6667px;line-height:1.25;font-family:sans-serif;white-space:pre;shape-inside:url(#rect23);display:inline"><tspan
         x="33.097656"
         y="746.418"
         id="tspan7">H4</tspan></text>
    <text
       xml:space="preserve"
       transform="matrix(0.26458333,0,0,0.26458333,41.781738,-14.567871)"
       id="text24"
       style="font-size:14.6667px;line-height:1.25;font-family:sans-serif;white-space:pre;shape-inside:url(#rect24);display:inline"><tspan
         x="16.064453"
         y="947.67386"
         id="tspan8">D4</tspan></text>
  </g>
</svg>
