<?xml version="1.0" encoding="UTF-8" standalone="no"?>
<!-- Created with Inkscape (http://www.inkscape.org/) -->

<svg
   width="534.57837"
   height="390.85425"
   viewBox="0 0 141.44053 103.41352"
   version="1.1"
   id="svg1"
   inkscape:version="1.3.2 (1:1.3.2+202404261509+091e20ef0f)"
   sodipodi:docname="src_gearwheel_params.svg"
   xml:space="preserve"
   xmlns:inkscape="http://www.inkscape.org/namespaces/inkscape"
   xmlns:sodipodi="http://sodipodi.sourceforge.net/DTD/sodipodi-0.dtd"
   xmlns="http://www.w3.org/2000/svg"
   xmlns:svg="http://www.w3.org/2000/svg"><sodipodi:namedview
     id="namedview1"
     pagecolor="#ffffff"
     bordercolor="#000000"
     borderopacity="0.25"
     inkscape:showpageshadow="2"
     inkscape:pageopacity="0.0"
     inkscape:pagecheckerboard="0"
     inkscape:deskcolor="#d1d1d1"
     inkscape:document-units="px"
     inkscape:zoom="1.1162328"
     inkscape:cx="336.8473"
     inkscape:cy="1677.0695"
     inkscape:window-width="1854"
     inkscape:window-height="1131"
     inkscape:window-x="0"
     inkscape:window-y="0"
     inkscape:window-maximized="1"
     inkscape:current-layer="layer1" /><defs
     id="defs1"><rect
       x="82.440971"
       y="2027.0369"
       width="100.36389"
       height="26.826227"
       id="rect93" /><rect
       x="98.396652"
       y="2274.8596"
       width="121.12013"
       height="28.518797"
       id="rect92" /><rect
       x="33.279766"
       y="2169.2917"
       width="135.08383"
       height="36.600567"
       id="rect86" /><rect
       x="34.398247"
       y="2307.511"
       width="190.11459"
       height="31.188799"
       id="rect85" /><rect
       x="8.4752169"
       y="2048.6692"
       width="195.52635"
       height="32.282536"
       id="rect84" /><rect
       x="90.787514"
       y="1983.9333"
       width="124.6092"
       height="41.255131"
       id="rect49" /><rect
       x="306.33517"
       y="1967.0955"
       width="99.117973"
       height="27.490635"
       id="rect38" /><rect
       x="351.52231"
       y="2003.8865"
       width="92.366257"
       height="26.031908"
       id="rect37" /><rect
       x="307.13074"
       y="2317.4844"
       width="109.94398"
       height="26.946241"
       id="rect36" /><rect
       x="458.57605"
       y="2138.2156"
       width="77.456062"
       height="22.833595"
       id="rect35" /><rect
       x="431.4946"
       y="2246.7048"
       width="106.42486"
       height="43.120766"
       id="rect32" /><rect
       x="454.36029"
       y="2060.8889"
       width="110.80973"
       height="26.860367"
       id="rect31" /><rect
       x="438.26263"
       y="2009.2397"
       width="130.02895"
       height="28.716848"
       id="rect4" /><marker
       style="overflow:visible"
       id="marker11"
       refX="0"
       refY="0"
       orient="auto-start-reverse"
       inkscape:stockid="Wide arrow"
       markerWidth="1"
       markerHeight="1"
       viewBox="0 0 1 1"
       inkscape:isstock="true"
       inkscape:collect="always"
       preserveAspectRatio="xMidYMid"><path
         style="fill:none;stroke:context-stroke;stroke-width:1;stroke-linecap:butt"
         d="M 3,-3 0,0 3,3"
         transform="rotate(180,0.125,0)"
         sodipodi:nodetypes="ccc"
         id="path11" /></marker><marker
       style="overflow:visible"
       id="marker11-2"
       refX="0"
       refY="0"
       orient="auto-start-reverse"
       inkscape:stockid="Wide arrow"
       markerWidth="1"
       markerHeight="1"
       viewBox="0 0 1 1"
       inkscape:isstock="true"
       inkscape:collect="always"
       preserveAspectRatio="xMidYMid"><path
         style="fill:none;stroke:context-stroke;stroke-width:1;stroke-linecap:butt"
         d="M 3,-3 0,0 3,3"
         transform="rotate(180,0.125,0)"
         sodipodi:nodetypes="ccc"
         id="path11-7" /></marker><marker
       style="overflow:visible"
       id="marker11-37"
       refX="0"
       refY="0"
       orient="auto-start-reverse"
       inkscape:stockid="Wide arrow"
       markerWidth="1"
       markerHeight="1"
       viewBox="0 0 1 1"
       inkscape:isstock="true"
       inkscape:collect="always"
       preserveAspectRatio="xMidYMid"><path
         style="fill:none;stroke:context-stroke;stroke-width:1;stroke-linecap:butt"
         d="M 3,-3 0,0 3,3"
         transform="rotate(180,0.125,0)"
         sodipodi:nodetypes="ccc"
         id="path11-5" /></marker><marker
       style="overflow:visible"
       id="marker11-2-9"
       refX="0"
       refY="0"
       orient="auto-start-reverse"
       inkscape:stockid="Wide arrow"
       markerWidth="1"
       markerHeight="1"
       viewBox="0 0 1 1"
       inkscape:isstock="true"
       inkscape:collect="always"
       preserveAspectRatio="xMidYMid"><path
         style="fill:none;stroke:context-stroke;stroke-width:1;stroke-linecap:butt"
         d="M 3,-3 0,0 3,3"
         transform="rotate(180,0.125,0)"
         sodipodi:nodetypes="ccc"
         id="path11-7-2" /></marker></defs><g
     inkscape:label="Layer 1"
     inkscape:groupmode="layer"
     id="layer1"
     transform="translate(-6.5185041,-518.52789)"><rect
       style="fill:#ffffff;stroke:#ffffff;stroke-width:0.264583"
       id="rect94"
       width="141.17593"
       height="103.1489"
       x="6.6507955"
       y="518.66022" /><text
       xml:space="preserve"
       transform="scale(0.26458333)"
       id="text4"
       style="font-size:14.6667px;line-height:normal;font-family:'Liberation Mono';-inkscape-font-specification:'Liberation Mono';text-align:center;text-decoration-color:#000000;white-space:pre;shape-inside:url(#rect4);fill:#0000ff;stroke-width:1;-inkscape-stroke:none;stop-color:#000000"><tspan
         x="454.86838"
         y="2022.2903"
         id="tspan1">centralAxis</tspan></text><path
       style="fill:#0000ff;stroke:#0000ff;stroke-width:0.264583;marker-end:url(#marker11)"
       d="M 121.51567,536.51311 88.641832,567.17104"
       id="path31"
       sodipodi:nodetypes="cc" /><text
       xml:space="preserve"
       transform="scale(0.26458333)"
       id="text31"
       style="font-size:14.6667px;line-height:normal;font-family:'Liberation Mono';-inkscape-font-specification:'Liberation Mono';text-align:center;text-decoration-color:#000000;white-space:pre;shape-inside:url(#rect31);fill:#0000ff;stroke-width:1;-inkscape-stroke:none;stop-color:#000000"><tspan
         x="465.75739"
         y="2073.9388"
         id="tspan2">axisRadius</tspan></text><path
       style="fill:#0000ff;stroke:#0000ff;stroke-width:0.264583;marker-end:url(#marker11)"
       d="M 123.16286,549.52164 87.67767,570.12195"
       id="path32"
       sodipodi:nodetypes="cc" /><text
       xml:space="preserve"
       transform="scale(0.26458333)"
       id="text32"
       style="font-size:14.6667px;line-height:normal;font-family:'Liberation Mono';-inkscape-font-specification:'Liberation Mono';text-align:center;text-decoration-color:#000000;white-space:pre;shape-inside:url(#rect32);fill:#0000ff;stroke-width:1;-inkscape-stroke:none;stop-color:#000000"><tspan
         x="462.7034"
         y="2259.7552"
         id="tspan3">ribNb</tspan></text><path
       style="fill:none;stroke:#0000ff;stroke-width:0.264583;marker-start:url(#marker11);marker-end:url(#marker11)"
       d="m 82.38137,584.35011 39.6044,12.64638 -31.74323,-20.13227"
       id="path33"
       sodipodi:nodetypes="ccc" /><path
       style="fill:none;stroke:#000000;stroke-width:0.264583;marker-start:url(#marker11)"
       d="m 92.316546,573.57922 v -2.19609"
       id="path34" /><path
       style="fill:none;stroke:#000000;stroke-width:0.264583;marker-start:url(#marker11-2)"
       d="m 92.350674,576.44274 v 2.19609"
       id="path34-9" /><path
       style="fill:none;stroke:#b3b3b3;stroke-width:0.264583"
       d="m 90.926911,573.98071 h 2.573197"
       id="path35" /><path
       style="fill:none;stroke:#b3b3b3;stroke-width:0.264583"
       d="m 90.938134,576.02648 h 2.573197"
       id="path35-6" /><path
       style="fill:none;stroke:#000000;stroke-width:0.264583;marker-start:url(#marker11-37)"
       d="m 80.422713,582.52021 v -2.19609"
       id="path34-8" /><path
       style="fill:none;stroke:#000000;stroke-width:0.264583;marker-start:url(#marker11-2-9)"
       d="m 80.456841,585.38373 v 2.19609"
       id="path34-9-9" /><text
       xml:space="preserve"
       transform="scale(0.26458333)"
       id="text35"
       style="font-size:14.6667px;line-height:normal;font-family:'Liberation Mono';-inkscape-font-specification:'Liberation Mono';text-align:center;text-decoration-color:#000000;white-space:pre;shape-inside:url(#rect35);fill:#0000ff;stroke-width:1;-inkscape-stroke:none;stop-color:#000000"><tspan
         x="462.0979"
         y="2151.2649"
         id="tspan4">ribWidth</tspan></text><text
       xml:space="preserve"
       transform="scale(0.26458333)"
       id="text36"
       style="font-size:14.6667px;line-height:normal;font-family:'Liberation Mono';-inkscape-font-specification:'Liberation Mono';text-align:center;text-decoration-color:#000000;white-space:pre;shape-inside:url(#rect36);fill:#0000ff;stroke-width:1;-inkscape-stroke:none;stop-color:#000000"><tspan
         x="322.496"
         y="2330.5345"
         id="tspan5">ribHeight</tspan></text><path
       style="fill:#0000ff;stroke:#0000ff;stroke-width:0.264583;marker-start:url(#marker11)"
       d="m 81.062966,587.81289 11.975405,25.49299"
       id="path36"
       sodipodi:nodetypes="cc" /><path
       style="fill:#0000ff;stroke:#0000ff;stroke-width:0.264583;marker-start:url(#marker11)"
       d="m 93.872806,575.0253 28.107274,-6.17395"
       id="path37"
       sodipodi:nodetypes="cc" /><text
       xml:space="preserve"
       transform="scale(0.26458333)"
       id="text37"
       style="font-size:14.6667px;line-height:normal;font-family:'Liberation Mono';-inkscape-font-specification:'Liberation Mono';text-align:center;text-decoration-color:#000000;white-space:pre;shape-inside:url(#rect37);fill:#0000ff;stroke-width:1;-inkscape-stroke:none;stop-color:#000000"><tspan
         x="358.09854"
         y="2016.9368"
         id="tspan6">ribRound2</tspan></text><text
       xml:space="preserve"
       transform="scale(0.26458333)"
       id="text38"
       style="font-size:14.6667px;line-height:normal;font-family:'Liberation Mono';-inkscape-font-specification:'Liberation Mono';text-align:center;text-decoration-color:#000000;white-space:pre;shape-inside:url(#rect38);fill:#0000ff;stroke-width:1;-inkscape-stroke:none;stop-color:#000000"><tspan
         x="316.28799"
         y="1980.1458"
         id="tspan7">ribRound1</tspan></text><path
       style="fill:#0000ff;stroke:#0000ff;stroke-width:0.264583;marker-start:url(#marker11)"
       d="M 82.525927,566.42793 102.08654,534.41102"
       id="path48"
       sodipodi:nodetypes="cc" /><path
       style="fill:#0000ff;stroke:#0000ff;stroke-width:0.264583;marker-start:url(#marker11)"
       d="m 81.686583,564.29975 9.975248,-40.15107"
       id="path49"
       sodipodi:nodetypes="cc" /><path
       d="m 108.18665,575.95284 0.15034,0.005 a 6.8850932,6.8850932 0 0 0 0.91519,-0.21966 11.368643,11.368643 0 0 0 1.13311,-0.42283 13.408924,13.408924 0 0 0 1.55228,-0.79933 17.84514,17.84514 0 0 0 1.66566,-1.1326 l -0.0836,-1.2223 a 17.84514,17.84514 0 0 0 -1.80435,-0.89522 13.408924,13.408924 0 0 0 -1.64669,-0.58054 11.368643,11.368643 0 0 0 -1.18012,-0.26461 6.8850932,6.8850932 0 0 0 -0.93657,-0.093 l -0.14827,0.0254 a 0.52916666,0.52916666 0 0 1 -0.60765,-0.41386 l -0.17655,-0.84965 a 0.52916666,0.52916666 0 0 1 0.39245,-0.62169 l 0.14613,-0.0357 a 6.8850932,6.8850932 0 0 0 0.82199,-0.45842 11.368643,11.368643 0 0 0 0.977,-0.71287 13.408924,13.408924 0 0 0 1.27907,-1.18851 17.84514,17.84514 0 0 0 1.29831,-1.53998 l -0.41026,-1.1544 a 17.84514,17.84514 0 0 0 -1.97898,-0.37523 13.408924,13.408924 0 0 0 -1.74225,-0.11473 11.368643,11.368643 0 0 0 -1.20775,0.0636 6.8850932,6.8850932 0 0 0 -0.92694,0.16317 l -0.13589,0.0645 a 0.52916666,0.52916666 0 0 1 -0.69675,-0.23461 l -0.39926,-0.77049 a 0.52916666,0.52916666 0 0 1 0.21016,-0.70453 l 0.13107,-0.0738 a 6.8850932,6.8850932 0 0 0 0.66784,-0.66318 11.368643,11.368643 0 0 0 0.74843,-0.95001 13.408924,13.408924 0 0 0 0.91098,-1.48953 17.84514,17.84514 0 0 0 0.83471,-1.83316 l -0.70652,-1.00092 a 17.84514,17.84514 0 0 0 -2.00683,0.17261 13.408924,13.408924 0 0 0 -1.7086,0.3596 11.368643,11.368643 0 0 0 -1.14581,0.38706 6.8850932,6.8850932 0 0 0 -0.84854,0.40719 l -0.11343,0.0988 a 0.52916666,0.52916666 0 0 1 -0.73425,-0.0379 l -0.59229,-0.63421 a 0.52916666,0.52916666 0 0 1 0.0123,-0.73511 l 0.10629,-0.10642 a 6.8850932,6.8850932 0 0 0 0.46416,-0.81881 11.368643,11.368643 0 0 0 0.46437,-1.1167 13.408924,13.408924 0 0 0 0.47532,-1.68007 17.84514,17.84514 0 0 0 0.30917,-1.99036 l -0.95036,-0.77319 a 17.84514,17.84514 0 0 0 -1.885847,0.70765 13.408924,13.408924 0 0 0 -1.5482,0.80722 11.368643,11.368643 0 0 0 -0.99889,0.68186 6.8850932,6.8850932 0 0 0 -0.70723,0.62103 l -0.0826,0.1257 a 0.52916666,0.52916666 0 0 1 -0.71724,0.16161 l -0.74146,-0.4509 a 0.52916666,0.52916666 0 0 1 -0.18648,-0.71115 l 0.0736,-0.13118 a 6.8850932,6.8850932 0 0 0 0.22603,-0.91363 11.368643,11.368643 0 0 0 0.14587,-1.2006 13.408924,13.408924 0 0 0 0.004,-1.74601 17.84514,17.84514 0 0 0 -0.23929,-1.99996 l -1.12374,-0.48811 a 17.84514,17.84514 0 0 0 -1.62499,1.1902 13.408924,13.408924 0 0 0 -1.27302,1.19497 11.368643,11.368643 0 0 0 -0.77787,0.92607 6.8850932,6.8850932 0 0 0 -0.51345,0.7888 l -0.0456,0.14335 a 0.52916666,0.52916666 0 0 1 -0.64704,0.34912 l -0.83561,-0.23413 a 0.52916666,0.52916666 0 0 1 -0.37144,-0.63447 l 0.0355,-0.14618 a 6.8850932,6.8850932 0 0 0 -0.0288,-0.94076 11.368643,11.368643 0 0 0 -0.18346,-1.19541 13.408924,13.408924 0 0 0 -0.466804,-1.68246 17.84514,17.84514 0 0 0 -0.770017,-1.86124 l -1.213749,-0.16684 a 17.84514,17.84514 0 0 0 -1.243621,1.58448 13.408924,13.408924 0 0 0 -0.903393,1.49413 11.368643,11.368643 0 0 0 -0.49919,1.10162 6.8850932,6.8850932 0 0 0 -0.281596,0.89807 l -0.0052,0.15031 a 0.52916666,0.52916666 0 0 1 -0.528849,0.51073 h -0.86778 a 0.52916666,0.52916666 0 0 1 -0.528849,-0.51073 l -0.0052,-0.15031 a 6.8850932,6.8850932 0 0 0 -0.281596,-0.89807 11.368643,11.368643 0 0 0 -0.49919,-1.10162 13.408924,13.408924 0 0 0 -0.903393,-1.49413 17.84514,17.84514 0 0 0 -1.243621,-1.58448 l -1.213749,0.16684 a 17.84514,17.84514 0 0 0 -0.770017,1.86124 13.408924,13.408924 0 0 0 -0.466805,1.68246 11.368643,11.368643 0 0 0 -0.183462,1.19541 6.8850932,6.8850932 0 0 0 -0.02884,0.94076 l 0.03551,0.14618 a 0.52916666,0.52916666 0 0 1 -0.371449,0.63447 l -0.835607,0.23413 a 0.52916666,0.52916666 0 0 1 -0.647038,-0.34912 l -0.04559,-0.14335 a 6.8850932,6.8850932 0 0 0 -0.513451,-0.7888 11.368643,11.368643 0 0 0 -0.777875,-0.92607 13.408924,13.408924 0 0 0 -1.273016,-1.19497 17.84514,17.84514 0 0 0 -1.624991,-1.1902 l -1.123738,0.48811 a 17.84514,17.84514 0 0 0 -0.23929,1.99996 13.408924,13.408924 0 0 0 0.0044,1.74601 11.368643,11.368643 0 0 0 0.145865,1.2006 6.8850932,6.8850932 0 0 0 0.226033,0.91363 l 0.07363,0.13118 a 0.52916666,0.52916666 0 0 1 -0.186479,0.71115 l -0.741468,0.4509 a 0.52916666,0.52916666 0 0 1 -0.717232,-0.16161 l -0.08258,-0.1257 a 6.8850932,6.8850932 0 0 0 -0.707231,-0.62103 11.368643,11.368643 0 0 0 -0.998882,-0.68186 13.408924,13.408924 0 0 0 -1.548209,-0.80722 17.84514,17.84514 0 0 0 -1.885844,-0.70765 l -0.950357,0.77319 a 17.84514,17.84514 0 0 0 0.309166,1.99036 13.408924,13.408924 0 0 0 0.475324,1.68007 11.368643,11.368643 0 0 0 0.46437,1.1167 6.8850932,6.8850932 0 0 0 0.464158,0.81881 l 0.106284,0.10642 a 0.52916666,0.52916666 0 0 1 0.01228,0.73511 l -0.592296,0.63421 a 0.52916666,0.52916666 0 0 1 -0.734245,0.0379 l -0.113427,-0.0988 a 6.8850932,6.8850932 0 0 0 -0.848545,-0.40719 11.368643,11.368643 0 0 0 -1.145805,-0.38706 13.408924,13.408924 0 0 0 -1.7086,-0.3596 17.84514,17.84514 0 0 0 -2.006838,-0.17261 l -0.706517,1.00092 a 17.84514,17.84514 0 0 0 0.834708,1.83316 13.408924,13.408924 0 0 0 0.910987,1.48953 11.368643,11.368643 0 0 0 0.748427,0.95001 6.8850932,6.8850932 0 0 0 0.667834,0.66318 l 0.131075,0.0738 a 0.52916666,0.52916666 0 0 1 0.210159,0.70453 l -0.399257,0.77049 a 0.52916666,0.52916666 0 0 1 -0.696753,0.23461 l -0.13589,-0.0645 a 6.8850932,6.8850932 0 0 0 -0.926942,-0.16317 11.368643,11.368643 0 0 0 -1.207743,-0.0636 13.408924,13.408924 0 0 0 -1.742255,0.11473 17.84514,17.84514 0 0 0 -1.978977,0.37523 l -0.410263,1.1544 a 17.84514,17.84514 0 0 0 1.29831,1.53998 13.408924,13.408924 0 0 0 1.279075,1.18851 11.368643,11.368643 0 0 0 0.977001,0.71287 6.8850932,6.8850932 0 0 0 0.821981,0.45842 l 0.146129,0.0357 a 0.52916666,0.52916666 0 0 1 0.392456,0.62169 l -0.176556,0.84965 a 0.52916666,0.52916666 0 0 1 -0.607642,0.41386 l -0.148273,-0.0254 a 6.8850932,6.8850932 0 0 0 -0.936572,0.093 11.368643,11.368643 0 0 0 -1.180121,0.26461 13.408924,13.408924 0 0 0 -1.646687,0.58054 17.84514,17.84514 0 0 0 -1.804352,0.89522 l -0.08361,1.2223 a 17.84514,17.84514 0 0 0 1.665658,1.1326 13.408924,13.408924 0 0 0 1.552284,0.79933 11.368643,11.368643 0 0 0 1.133105,0.42283 6.8850932,6.8850932 0 0 0 0.915193,0.21966 l 0.150337,-0.005 a 0.52916666,0.52916666 0 0 1 0.545623,0.49276 l 0.05924,0.86577 a 0.52916666,0.52916666 0 0 1 -0.473472,0.56248 l -0.149596,0.0155 a 6.8850932,6.8850932 0 0 0 -0.876776,0.34221 11.368643,11.368643 0 0 0 -1.064974,0.57319 13.408924,13.408924 0 0 0 -1.428988,1.00328 17.84514,17.84514 0 0 0 -1.495928,1.34884 l 0.249264,1.19954 a 17.84514,17.84514 0 0 0 1.909471,0.6412 13.408924,13.408924 0 0 0 1.710399,0.35089 11.368643,11.368643 0 0 0 1.205151,0.10146 6.8850932,6.8850932 0 0 0 0.940514,-0.0354 l 0.143404,-0.0454 a 0.52916666,0.52916666 0 0 1 0.658337,0.32729 l 0.290618,0.8177 a 0.52916666,0.52916666 0 0 1 -0.304139,0.66934 l -0.139911,0.0553 a 6.8850932,6.8850932 0 0 0 -0.75192,0.56608 11.368643,11.368643 0 0 0 -0.870823,0.83926 13.408924,13.408924 0 0 0 -1.105323,1.35159 17.84514,17.84514 0 0 0 -1.076537,1.70244 l 0.563669,1.08781 a 17.84514,17.84514 0 0 0 2.011627,0.10223 13.408924,13.408924 0 0 0 1.741646,-0.12356 11.368643,11.368643 0 0 0 1.18782,-0.22746 6.8850932,6.8850932 0 0 0 0.896091,-0.28784 l 0.125836,-0.0824 a 0.52916666,0.52916666 0 0 1 0.722233,0.13753 l 0.500459,0.70895 A 0.52916666,0.52916666 0 0 1 58.566264,591.74 l -0.119777,0.091 a 6.8850932,6.8850932 0 0 0 -0.571314,0.74795 11.368643,11.368643 0 0 0 -0.612114,1.04306 13.408924,13.408924 0 0 0 -0.699691,1.5997 17.84514,17.84514 0 0 0 -0.577294,1.92974 l 0.836242,0.8954 a 17.84514,17.84514 0 0 0 1.964637,-0.44429 13.408924,13.408924 0 0 0 1.643698,-0.58885 11.368643,11.368643 0 0 0 1.082437,-0.53952 6.8850932,6.8850932 0 0 0 0.785177,-0.51892 l 0.09895,-0.11332 a 0.52916666,0.52916666 0 0 1 0.732526,-0.0624 l 0.673179,0.54766 a 0.52916666,0.52916666 0 0 1 0.08792,0.72993 l -0.09081,0.11991 a 6.8850932,6.8850932 0 0 0 -0.34835,0.87435 11.368643,11.368643 0 0 0 -0.307975,1.16956 13.408924,13.408924 0 0 0 -0.242147,1.72913 17.84514,17.84514 0 0 0 -0.03527,2.01393 l 1.046824,0.63659 a 17.84514,17.84514 0 0 0 1.771915,-0.95785 13.408924,13.408924 0 0 0 1.423881,-1.01052 11.368643,11.368643 0 0 0 0.896726,-0.81153 6.8850932,6.8850932 0 0 0 0.616056,-0.71154 l 0.06472,-0.13579 a 0.52916666,0.52916666 0 0 1 0.688525,-0.25775 l 0.795973,0.34573 a 0.52916666,0.52916666 0 0 1 0.281569,0.67916 l -0.05509,0.13996 a 6.8850932,6.8850932 0 0 0 -0.09951,0.93591 11.368643,11.368643 0 0 0 0.01897,1.20928 13.408924,13.408924 0 0 0 0.233362,1.73035 17.84514,17.84514 0 0 0 0.509403,1.94876 l 1.179724,0.33054 a 17.84514,17.84514 0 0 0 1.447773,-1.40038 13.408924,13.408924 0 0 0 1.098471,-1.35721 11.368643,11.368643 0 0 0 0.644525,-1.02336 6.8850932,6.8850932 0 0 0 0.40124,-0.85137 l 0.02567,-0.14822 a 0.52916666,0.52916666 0 0 1 0.59346,-0.43397 l 0.859737,0.11819 a 0.52916666,0.52916666 0 0 1 0.454369,0.57798 l -0.01529,0.14962 a 6.8850932,6.8850932 0 0 0 0.156686,0.92806 11.368643,11.368643 0 0 0 0.34454,1.15932 13.408924,13.408924 0 0 0 0.691542,1.60322 17.84514,17.84514 0 0 0 1.016264,1.73908 h 1.22518 a 17.84514,17.84514 0 0 0 1.016264,-1.73908 13.408924,13.408924 0 0 0 0.691542,-1.60322 11.368643,11.368643 0 0 0 0.34454,-1.15932 6.8850932,6.8850932 0 0 0 0.156686,-0.92806 l -0.01529,-0.14962 a 0.52916666,0.52916666 0 0 1 0.454369,-0.57798 l 0.859737,-0.11819 a 0.52916666,0.52916666 0 0 1 0.59346,0.43397 l 0.02567,0.14822 a 6.8850932,6.8850932 0 0 0 0.40124,0.85137 11.368643,11.368643 0 0 0 0.644525,1.02336 13.408924,13.408924 0 0 0 1.098477,1.35721 17.84514,17.84514 0 0 0 1.44777,1.40038 l 1.17973,-0.33054 a 17.84514,17.84514 0 0 0 0.5094,-1.94876 13.408924,13.408924 0 0 0 0.23336,-1.73035 11.368643,11.368643 0 0 0 0.019,-1.20928 6.8850932,6.8850932 0 0 0 -0.0995,-0.93591 l -0.0551,-0.13996 a 0.52916666,0.52916666 0 0 1 0.28157,-0.67916 l 0.79597,-0.34573 a 0.52916666,0.52916666 0 0 1 0.68852,0.25775 l 0.0647,0.13579 a 6.8850932,6.8850932 0 0 0 0.61606,0.71154 11.368643,11.368643 0 0 0 0.89672,0.81153 13.408924,13.408924 0 0 0 1.42388,1.01052 17.84514,17.84514 0 0 0 1.77192,0.95785 l 1.04682,-0.63659 a 17.84514,17.84514 0 0 0 -0.0353,-2.01393 13.408924,13.408924 0 0 0 -0.24214,-1.72913 11.368643,11.368643 0 0 0 -0.30798,-1.16956 6.8850932,6.8850932 0 0 0 -0.34835,-0.87435 l -0.0908,-0.11991 a 0.52916666,0.52916666 0 0 1 0.0879,-0.72993 l 0.67318,-0.54766 a 0.52916666,0.52916666 0 0 1 0.73252,0.0624 l 0.099,0.11332 a 6.8850932,6.8850932 0 0 0 0.78517,0.51892 11.368643,11.368643 0 0 0 1.082437,0.53952 13.408924,13.408924 0 0 0 1.6437,0.58885 17.84514,17.84514 0 0 0 1.96463,0.44429 l 0.83625,-0.8954 a 17.84514,17.84514 0 0 0 -0.5773,-1.92974 13.408924,13.408924 0 0 0 -0.69969,-1.5997 11.368643,11.368643 0 0 0 -0.61211,-1.04306 6.8850932,6.8850932 0 0 0 -0.57132,-0.74795 l -0.11977,-0.091 a 0.52916666,0.52916666 0 0 1 -0.11229,-0.72658 l 0.50046,-0.70895 a 0.52916666,0.52916666 0 0 1 0.72223,-0.13753 l 0.12584,0.0824 a 6.8850932,6.8850932 0 0 0 0.89609,0.28784 11.368643,11.368643 0 0 0 1.18782,0.22746 13.408924,13.408924 0 0 0 1.74164,0.12356 17.84514,17.84514 0 0 0 2.01163,-0.10223 l 0.56367,-1.08781 a 17.84514,17.84514 0 0 0 -1.07654,-1.70244 13.408924,13.408924 0 0 0 -1.10532,-1.35159 11.368643,11.368643 0 0 0 -0.87082,-0.83926 6.8850932,6.8850932 0 0 0 -0.75192,-0.56608 l -0.13992,-0.0553 a 0.52916666,0.52916666 0 0 1 -0.30413,-0.66934 l 0.29061,-0.8177 a 0.52916666,0.52916666 0 0 1 0.65834,-0.32729 l 0.1434,0.0454 a 6.8850932,6.8850932 0 0 0 0.94052,0.0354 11.368643,11.368643 0 0 0 1.20515,-0.10146 13.408924,13.408924 0 0 0 1.7104,-0.35089 17.84514,17.84514 0 0 0 1.90947,-0.6412 l 0.24926,-1.19954 a 17.84514,17.84514 0 0 0 -1.49592,-1.34884 13.408924,13.408924 0 0 0 -1.42899,-1.00328 11.368643,11.368643 0 0 0 -1.06498,-0.57319 6.8850932,6.8850932 0 0 0 -0.87677,-0.34221 l -0.1496,-0.0155 a 0.52916666,0.52916666 0 0 1 -0.47347,-0.56248 l 0.0592,-0.86577 a 0.52916666,0.52916666 0 0 1 0.54562,-0.49276 z"
       stroke="#008000"
       stroke-width="0.264583"
       fill="none"
       id="path1-73"
       style="stroke:#aa8800" /><path
       d="m 90.625443,573.97056 h -2.18755 a 7.9374999,7.9374999 0 0 0 -6.808285,-6.80829 v -2.18754 h -2.116666 v 2.18754 a 7.9374999,7.9374999 0 0 0 -6.808285,6.80829 h -2.187549 v 2.11666 h 2.187549 a 7.9374999,7.9374999 0 0 0 6.808285,6.80829 v 2.18755 h 2.116666 v -2.18755 a 7.9374999,7.9374999 0 0 0 6.808285,-6.80829 h 2.18755 z"
       stroke="#008000"
       stroke-width="0.264583"
       fill="none"
       id="path2-61"
       style="stroke:#0000ff" /><path
       d="m 102.28036,572.75234 a 21.828125,21.828125 0 0 0 -12.835487,-17.66652 0.26458333,0.26458333 0 0 0 -0.35917,0.15996 l -2.267139,6.97749 a 0.26458333,0.26458333 0 0 0 0.131289,0.31739 14.022916,14.022916 0 0 1 7.46953,10.28092 0.26458333,0.26458333 0 0 0 0.26127,0.22294 h 7.336557 a 0.26458333,0.26458333 0 0 0 0.26315,-0.29218 z"
       stroke="#008000"
       stroke-width="0.264583"
       fill="none"
       id="path3-2" /><path
       d="m 85.114621,553.67884 a 21.828125,21.828125 0 0 0 -20.768231,6.74802 0.26458333,0.26458333 0 0 0 0.04114,0.39102 l 5.935398,4.31234 a 0.26458333,0.26458333 0 0 0 0.342423,-0.0268 14.022916,14.022916 0 0 1 12.085955,-3.92695 0.26458333,0.26458333 0 0 0 0.292762,-0.1796 l 2.267109,-6.97748 a 0.26458333,0.26458333 0 0 0 -0.196559,-0.34055 z"
       stroke="#008000"
       stroke-width="0.264583"
       fill="none"
       id="path4-9" /><path
       d="m 61.67013,564.11038 a 21.828125,21.828125 0 0 0 0,21.83702 0.26458333,0.26458333 0 0 0 0.384625,0.0817 l 5.935397,-4.31231 a 0.26458333,0.26458333 0 0 0 0.08035,-0.33393 14.022916,14.022916 0 0 1 0,-12.70794 0.26458333,0.26458333 0 0 0 -0.08035,-0.33393 l -5.935397,-4.31231 a 0.26458333,0.26458333 0 0 0 -0.384625,0.0817 z"
       stroke="#008000"
       stroke-width="0.264583"
       fill="none"
       id="path5-31" /><path
       d="m 64.34639,589.63095 a 21.828125,21.828125 0 0 0 20.768231,6.74799 0.26458333,0.26458333 0 0 0 0.196559,-0.34054 l -2.267109,-6.97746 a 0.26458333,0.26458333 0 0 0 -0.292762,-0.17963 14.022916,14.022916 0 0 1 -12.085955,-3.92695 0.26458333,0.26458333 0 0 0 -0.342423,-0.0268 l -5.935398,4.31231 a 0.26458333,0.26458333 0 0 0 -0.04114,0.39105 z"
       stroke="#008000"
       stroke-width="0.264583"
       fill="none"
       id="path6-9" /><path
       d="m 89.444873,594.97197 a 21.828125,21.828125 0 0 0 12.835487,-17.66652 0.26458333,0.26458333 0 0 0 -0.26315,-0.29218 h -7.336557 a 0.26458333,0.26458333 0 0 0 -0.26127,0.22293 14.022916,14.022916 0 0 1 -7.46953,10.28092 0.26458333,0.26458333 0 0 0 -0.131289,0.31739 l 2.267139,6.97749 a 0.26458333,0.26458333 0 0 0 0.35917,0.15997 z"
       stroke="#008000"
       stroke-width="0.264583"
       fill="none"
       id="path7-4" /><text
       xml:space="preserve"
       transform="scale(0.26458333)"
       id="text49"
       style="font-size:14.6667px;line-height:normal;font-family:'Liberation Mono';-inkscape-font-specification:'Liberation Mono';text-align:center;text-decoration-color:#000000;white-space:pre;shape-inside:url(#rect49);fill:#217821;stroke-width:1;-inkscape-stroke:none;stop-color:#000000"><tspan
         x="126.68744"
         y="1996.9837"
         id="tspan8">hollow</tspan></text><path
       style="fill:#217821;stroke:#217821;stroke-width:0.264583;marker-end:url(#marker11)"
       d="m 47.180775,529.56219 22.529421,24.60684"
       id="path84"
       sodipodi:nodetypes="cc" /><text
       xml:space="preserve"
       transform="matrix(0.26458333,0,0,0.26458333,0.71102123,5.2115368)"
       id="text84"
       style="font-size:14.6667px;line-height:normal;font-family:'Liberation Mono';-inkscape-font-specification:'Liberation Mono';text-align:center;text-decoration-color:#000000;white-space:pre;shape-inside:url(#rect84);fill:#217821;stroke-width:1;-inkscape-stroke:none;stop-color:#000000"><tspan
         x="31.425935"
         y="2061.72"
         id="tspan9">materialHeightExt</tspan></text><text
       xml:space="preserve"
       transform="matrix(0.26458333,0,0,0.26458333,21.051728,3.3927366)"
       id="text85"
       style="font-size:14.6667px;line-height:normal;font-family:'Liberation Mono';-inkscape-font-specification:'Liberation Mono';text-align:center;text-decoration-color:#000000;white-space:pre;shape-inside:url(#rect85);fill:#217821;stroke-width:1;-inkscape-stroke:none;stop-color:#000000"><tspan
         x="54.643708"
         y="2320.5618"
         id="tspan10">materialHeigthInt</tspan></text><text
       xml:space="preserve"
       transform="matrix(0.26458333,0,0,0.26458333,8.3489343,12.245147)"
       id="text86"
       style="font-size:14.6667px;line-height:normal;font-family:'Liberation Mono';-inkscape-font-specification:'Liberation Mono';text-align:center;text-decoration-color:#000000;white-space:pre;shape-inside:url(#rect86);fill:#217821;stroke-width:1;-inkscape-stroke:none;stop-color:#000000"><tspan
         x="70.016205"
         y="2182.3411"
         id="tspan11">spokeNb</tspan></text><path
       style="fill:#217821;stroke:#000000;stroke-width:0.264583;marker-start:url(#marker11);marker-end:url(#marker11)"
       d="m 54.272984,569.7208 4.69333,0.61382"
       id="path87"
       sodipodi:nodetypes="cc" /><path
       style="fill:#217821;stroke:#000000;stroke-width:0.264583;marker-start:url(#marker11);marker-end:url(#marker11)"
       d="m 66.730259,574.91123 h 3.456569"
       id="path88" /><path
       style="fill:#217821;stroke:#000000;stroke-width:0.264583;marker-start:url(#marker11);marker-end:url(#marker11)"
       d="m 64.513554,584.48955 2.06923,2.92659"
       id="path89" /><path
       style="fill:#217821;stroke:#008000;stroke-width:0.264583;marker-end:url(#marker11)"
       d="m 43.233167,551.64707 12.722109,17.62624"
       id="path90"
       sodipodi:nodetypes="cc" /><path
       style="fill:none;stroke:#217821;stroke-width:0.264583;marker-start:url(#marker11);marker-end:url(#marker11)"
       d="m 64.538925,566.533 -20.62027,21.74639 17.399069,-1.5507"
       id="path91" /><path
       style="fill:none;stroke:#217821;stroke-width:0.264583;marker-start:url(#marker11)"
       d="M 68.423681,575.99135 69.28594,612.9134"
       id="path92"
       sodipodi:nodetypes="cc" /><text
       xml:space="preserve"
       transform="scale(0.26458333)"
       id="text92"
       style="font-size:14.6667px;line-height:normal;font-family:'Liberation Mono';-inkscape-font-specification:'Liberation Mono';text-align:center;text-decoration-color:#000000;white-space:pre;shape-inside:url(#rect92);fill:#217821;stroke-width:1;-inkscape-stroke:none;stop-color:#000000"><tspan
         x="114.94977"
         y="2287.9095"
         id="tspan12">spokeWidth</tspan></text><text
       xml:space="preserve"
       transform="scale(0.26458333)"
       id="text93"
       style="font-size:14.6667px;line-height:normal;font-family:'Liberation Mono';-inkscape-font-specification:'Liberation Mono';text-align:center;text-decoration-color:#000000;white-space:pre;shape-inside:url(#rect93);fill:#217821;stroke-width:1;-inkscape-stroke:none;stop-color:#000000"><tspan
         x="88.615784"
         y="2040.0872"
         id="tspan13">spokeRound</tspan></text><path
       style="fill:#217821;stroke:#217821;stroke-width:0.264583;marker-end:url(#marker11)"
       d="M 54.030411,602.10927 64.52354,586.96701"
       id="path93" /><path
       style="fill:#217821;stroke:#217821;stroke-width:0.264583;marker-end:url(#marker11)"
       d="m 47.512062,540.17446 13.87408,23.29151"
       id="path94" /></g></svg>
