<?xml version="1.0" encoding="UTF-8" standalone="no"?>
<!-- Created with Inkscape (http://www.inkscape.org/) -->

<svg
   width="456.83383"
   height="287.32056"
   viewBox="0 0 120.87062 76.020231"
   version="1.1"
   id="svg1"
   inkscape:version="1.3.2 (1:1.3.2+202404261509+091e20ef0f)"
   sodipodi:docname="src_gearwheel_params.svg"
   xml:space="preserve"
   xmlns:inkscape="http://www.inkscape.org/namespaces/inkscape"
   xmlns:sodipodi="http://sodipodi.sourceforge.net/DTD/sodipodi-0.dtd"
   xmlns="http://www.w3.org/2000/svg"
   xmlns:svg="http://www.w3.org/2000/svg"><sodipodi:namedview
     id="namedview1"
     pagecolor="#ffffff"
     bordercolor="#000000"
     borderopacity="0.25"
     inkscape:showpageshadow="2"
     inkscape:pageopacity="0.0"
     inkscape:pagecheckerboard="0"
     inkscape:deskcolor="#d1d1d1"
     inkscape:document-units="px"
     inkscape:zoom="1.1162328"
     inkscape:cx="175.59061"
     inkscape:cy="2693.8825"
     inkscape:window-width="1854"
     inkscape:window-height="1131"
     inkscape:window-x="0"
     inkscape:window-y="0"
     inkscape:window-maximized="1"
     inkscape:current-layer="layer1" /><defs
     id="defs1"><rect
       x="346.02646"
       y="3055.3523"
       width="140.86513"
       height="93.02005"
       id="rect54" /><rect
       x="247.15701"
       y="3202.8899"
       width="115.57866"
       height="31.365089"
       id="rect53" /><marker
       style="overflow:visible"
       id="marker11"
       refX="0"
       refY="0"
       orient="auto-start-reverse"
       inkscape:stockid="Wide arrow"
       markerWidth="1"
       markerHeight="1"
       viewBox="0 0 1 1"
       inkscape:isstock="true"
       inkscape:collect="always"
       preserveAspectRatio="xMidYMid"><path
         style="fill:none;stroke:context-stroke;stroke-width:1;stroke-linecap:butt"
         d="M 3,-3 0,0 3,3"
         transform="rotate(180,0.125,0)"
         sodipodi:nodetypes="ccc"
         id="path11" /></marker></defs><g
     inkscape:label="Layer 1"
     inkscape:groupmode="layer"
     id="layer1"
     transform="translate(-14.184264,-780.15387)"><rect
       style="fill:#ffffff;stroke:#ffffff;stroke-width:0.264583"
       id="rect94-4-0"
       width="120.60604"
       height="75.755646"
       x="14.316556"
       y="780.28613"
       inkscape:export-filename="gearwheel_params_side.svg"
       inkscape:export-xdpi="96"
       inkscape:export-ydpi="96" /><path
       d="m 76.636332,810.85834 0.152374,-0.0216 a 6.8850932,6.8850932 0 0 0 0.86315,-0.37523 11.368643,11.368643 0 0 0 1.042458,-0.61317 13.408924,13.408924 0 0 0 1.38991,-1.05675 17.84514,17.84514 0 0 0 1.443672,-1.40462 l -0.180843,-0.75202 a 17.84514,17.84514 0 0 0 -1.924473,-0.59466 13.408924,13.408924 0 0 0 -1.718389,-0.30927 11.368643,11.368643 0 0 0 -1.207268,-0.0722 6.8850932,6.8850932 0 0 0 -0.939403,0.0582 l -0.145547,0.05 a 0.52916666,0.52916666 0 0 1 -0.664792,-0.30784 l -0.453178,-1.15948 a 0.52916666,0.52916666 0 0 1 0.279849,-0.67705 l 0.140891,-0.062 a 6.8850932,6.8850932 0 0 0 0.729906,-0.59418 11.368643,11.368643 0 0 0 0.838385,-0.87169 13.408924,13.408924 0 0 0 1.053254,-1.39256 17.84514,17.84514 0 0 0 1.011184,-1.74204 l -0.377058,-0.67532 a 17.84514,17.84514 0 0 0 -2.013532,-0.0534 13.408924,13.408924 0 0 0 -1.7381,0.16582 11.368643,11.368643 0 0 0 -1.181974,0.25625 6.8850932,6.8850932 0 0 0 -0.888841,0.30951 l -0.126656,0.0874 a 0.52916666,0.52916666 0 0 1 -0.723185,-0.11706 l -0.749221,-0.99422 a 0.52916666,0.52916666 0 0 1 0.08681,-0.72745 l 0.118956,-0.0977 a 6.8850932,6.8850932 0 0 0 0.542528,-0.7691 11.368643,11.368643 0 0 0 0.572109,-1.06555 13.408924,13.408924 0 0 0 0.638492,-1.62507 17.84514,17.84514 0 0 0 0.503688,-1.95025 l -0.545254,-0.54858 a 17.84514,17.84514 0 0 0 -1.953286,0.49183 13.408924,13.408924 0 0 0 -1.628934,0.62862 11.368643,11.368643 0 0 0 -1.068996,0.56563 6.8850932,6.8850932 0 0 0 -0.772371,0.53785 l -0.09837,0.11834 a 0.52916666,0.52916666 0 0 1 -0.727949,0.0824 l -0.989674,-0.75522 a 0.52916666,0.52916666 0 0 1 -0.112659,-0.72388 l 0.08819,-0.12615 a 6.8850932,6.8850932 0 0 0 0.314907,-0.88693 11.368643,11.368643 0 0 0 0.263419,-1.18039 13.408924,13.408924 0 0 0 0.176371,-1.73707 17.84514,17.84514 0 0 0 -0.04117,-2.01382 l -0.673047,-0.38113 a 17.84514,17.84514 0 0 0 -1.748129,1.0006 13.408924,13.408924 0 0 0 -1.398931,1.04476 11.368643,11.368643 0 0 0 -0.87675,0.83306 6.8850932,6.8850932 0 0 0 -0.59862,0.72628 l -0.06281,0.14053 a 0.52916666,0.52916666 0 0 1 -0.678709,0.27574 l -1.156732,-0.46024 a 0.52916666,0.52916666 0 0 1 -0.303794,-0.66664 l 0.05088,-0.14523 a 6.8850932,6.8850932 0 0 0 0.06395,-0.93901 11.368643,11.368643 0 0 0 -0.06482,-1.20769 13.408924,13.408924 0 0 0 -0.298847,-1.72024 17.84514,17.84514 0 0 0 -0.582957,-1.92805 l -0.750887,-0.18542 a 17.84514,17.84514 0 0 0 -1.413378,1.43513 13.408924,13.408924 0 0 0 -1.065159,1.38348 11.368643,11.368643 0 0 0 -0.619496,1.0387 6.8850932,6.8850932 0 0 0 -0.380471,0.86088 l -0.02257,0.15224 a 0.52916666,0.52916666 0 0 1 -0.579147,0.44862 l -1.238012,-0.13107 a 0.52916666,0.52916666 0 0 1 -0.472387,-0.55996 l 0.0098,-0.15359 a 6.8850932,6.8850932 0 0 0 -0.19177,-0.92144 11.368643,11.368643 0 0 0 -0.388249,-1.14541 13.408924,13.408924 0 0 0 -0.751867,-1.57583 17.84514,17.84514 0 0 0 -1.081511,-1.69926 l -0.773086,0.024 a 17.84514,17.84514 0 0 0 -0.973746,1.76323 13.408924,13.408924 0 0 0 -0.652436,1.61955 11.368643,11.368643 0 0 0 -0.316256,1.16731 6.8850932,6.8850932 0 0 0 -0.134117,0.9316 l 0.01934,0.15269 a 0.52916666,0.52916666 0 0 1 -0.436642,0.58825 l -1.227455,0.2078 a 0.52916666,0.52916666 0 0 1 -0.605923,-0.41177 l -0.03199,-0.15052 a 6.8850932,6.8850932 0 0 0 -0.433281,-0.83555 11.368643,11.368643 0 0 0 -0.682863,-0.99817 13.408924,13.408924 0 0 0 -1.149165,-1.31456 17.84514,17.84514 0 0 0 -1.499844,-1.34445 l -0.737949,0.23175 a 17.84514,17.84514 0 0 0 -0.46191,1.96056 13.408924,13.408924 0 0 0 -0.191293,1.73548 11.368643,11.368643 0 0 0 0.0104,1.20938 6.8850932,6.8850932 0 0 0 0.122211,0.93322 l 0.05982,0.14181 a 0.52916666,0.52916666 0 0 1 -0.261752,0.68424 l -1.125855,0.53126 a 0.52916666,0.52916666 0 0 1 -0.694558,-0.23299 l -0.07144,-0.13634 a 6.8850932,6.8850932 0 0 0 -0.642619,-0.68765 11.368643,11.368643 0 0 0 -0.926862,-0.77693 13.408924,13.408924 0 0 0 -1.461188,-0.95578 17.84514,17.84514 0 0 0 -1.806972,-0.88995 l -0.648044,0.42225 a 17.84514,17.84514 0 0 0 0.08416,2.0125 13.408924,13.408924 0 0 0 0.28403,1.72275 11.368643,11.368643 0 0 0 0.336312,1.16171 6.8850932,6.8850932 0 0 0 0.369464,0.86564 l 0.09586,0.12041 a 0.52916666,0.52916666 0 0 1 -0.06744,0.72948 l -0.940779,0.81531 a 0.52916666,0.52916666 0 0 1 -0.731678,-0.037 l -0.105543,-0.112 a 6.8850932,6.8850932 0 0 0 -0.804333,-0.48879 11.368643,11.368643 0 0 0 -1.102095,-0.49805 13.408924,13.408924 0 0 0 -1.664864,-0.5261 17.84514,17.84514 0 0 0 -1.980089,-0.36943 l -0.51009,0.58142 a 17.84514,17.84514 0 0 0 0.623993,1.91516 13.408924,13.408924 0 0 0 0.73832,1.58223 11.368643,11.368643 0 0 0 0.637249,1.02791 6.8850932,6.8850932 0 0 0 0.589306,0.73387 l 0.124778,0.0901 a 0.52916666,0.52916666 0 0 1 0.131894,0.72062 l -0.685932,1.03891 a 0.52916666,0.52916666 0 0 1 -0.714507,0.16179 l -0.131868,-0.0794 a 6.8850932,6.8850932 0 0 0 -0.906357,-0.25365 11.368643,11.368643 0 0 0 -1.195599,-0.18225 13.408924,13.408924 0 0 0 -1.745086,-0.0574 17.84514,17.84514 0 0 0 -2.006309,0.17849 l -0.334301,0.69746 a 17.84514,17.84514 0 0 0 1.117547,1.6758 13.408924,13.408924 0 0 0 1.137814,1.32437 11.368643,11.368643 0 0 0 0.890958,0.81785 6.8850932,6.8850932 0 0 0 0.76544,0.54766 l 0.144462,0.0531 a 0.52916666,0.52916666 0 0 1 0.321416,0.65831 l -0.380206,1.18546 a 0.52916666,0.52916666 0 0 1 -0.644367,0.34857 l -0.148378,-0.0409 a 6.8850932,6.8850932 0 0 0 -0.941176,2.7e-4 11.368643,11.368643 0 0 0 -1.200441,0.14711 13.408924,13.408924 0 0 0 -1.695847,0.41552 17.84514,17.84514 0 0 0 -1.88378,0.71316 l -0.13372,0.76182 a 17.84514,17.84514 0 0 0 1.528233,1.31212 13.408924,13.408924 0 0 0 1.452933,0.96829 11.368643,11.368643 0 0 0 1.078574,0.54716 6.8850932,6.8850932 0 0 0 0.884793,0.32084 l 0.153432,0.0121 a 0.52916666,0.52916666 0 0 1 0.487124,0.54719 l -0.0463,1.24407 a 0.52916666,0.52916666 0 0 1 -0.526415,0.50948 l -0.153882,6.9e-4 a 6.8850932,6.8850932 0 0 0 -0.906224,0.25421 11.368643,11.368643 0 0 0 -1.116224,0.46551 13.408924,13.408924 0 0 0 -1.520878,0.85767 17.84514,17.84514 0 0 0 -1.621473,1.19494 l 0.07676,0.76965 a 17.84514,17.84514 0 0 0 1.825572,0.85116 13.408924,13.408924 0 0 0 1.660287,0.54039 11.368643,11.368643 0 0 0 1.18618,0.23587 6.8850932,6.8850932 0 0 0 0.938583,0.0702 l 0.150998,-0.0297 a 0.52916666,0.52916666 0 0 1 0.616664,0.3955 l 0.291095,1.21039 a 0.52916666,0.52916666 0 0 1 -0.369438,0.63265 l -0.148008,0.0422 a 6.8850932,6.8850932 0 0 0 -0.804016,0.48927 11.368643,11.368643 0 0 0 -0.949272,0.74941 13.408924,13.408924 0 0 0 -1.233064,1.23618 17.84514,17.84514 0 0 0 -1.238964,1.58811 l 0.281569,0.72041 a 17.84514,17.84514 0 0 0 1.987497,0.32705 13.408924,13.408924 0 0 0 1.74453,0.0724 11.368643,11.368643 0 0 0 1.205839,-0.0929 6.8850932,6.8850932 0 0 0 0.922708,-0.1856 l 0.137371,-0.0694 a 0.52916666,0.52916666 0 0 1 0.700511,0.21445 l 0.606875,1.08699 a 0.52916666,0.52916666 0 0 1 -0.185076,0.70884 l -0.131127,0.0806 a 6.8850932,6.8850932 0 0 0 -0.642197,0.68805 11.368643,11.368643 0 0 0 -0.711862,0.97771 13.408924,13.408924 0 0 0 -0.853836,1.52302 17.84514,17.84514 0 0 0 -0.764567,1.86349 l 0.465482,0.61772 a 17.84514,17.84514 0 0 0 2.002049,-0.2213 13.408924,13.408924 0 0 0 1.699366,-0.40094 11.368643,11.368643 0 0 0 1.136067,-0.41479 6.8850932,6.8850932 0 0 0 0.838412,-0.42767 l 0.113586,-0.10385 a 0.52916666,0.52916666 0 0 1 0.732366,0.0175 l 0.877623,0.88294 a 0.52916666,0.52916666 0 0 1 0.01304,0.7325 l -0.104537,0.11295 a 6.8850932,6.8850932 0 0 0 -0.432752,0.83579 11.368643,11.368643 0 0 0 -0.421667,1.13353 13.408924,13.408924 0 0 0 -0.411268,1.69688 17.84514,17.84514 0 0 0 -0.233442,2.00067 l 0.614865,0.46921 a 17.84514,17.84514 0 0 0 1.868117,-0.75322 13.408924,13.408924 0 0 0 1.528154,-0.84457 11.368643,11.368643 0 0 0 0.982028,-0.70591 6.8850932,6.8850932 0 0 0 0.691938,-0.63802 l 0.08136,-0.13062 a 0.52916666,0.52916666 0 0 1 0.70993,-0.18076 l 1.08331,0.61343 a 0.52916666,0.52916666 0 0 1 0.210185,0.70181 l -0.07019,0.13695 a 6.8850932,6.8850932 0 0 0 -0.191215,0.92157 11.368643,11.368643 0 0 0 -0.100224,1.20525 13.408924,13.408924 0 0 0 0.06181,1.74493 17.84514,17.84514 0 0 0 0.314986,1.98946 l 0.718661,0.28593 a 17.84514,17.84514 0 0 0 1.595623,-1.22931 13.408924,13.408924 0 0 0 1.243621,-1.22555 11.368643,11.368643 0 0 0 0.755174,-0.94466 6.8850932,6.8850932 0 0 0 0.494136,-0.80106 l 0.0431,-0.14774 a 0.52916666,0.52916666 0 0 1 0.634842,-0.3656 l 1.208616,0.29842 a 0.52916666,0.52916666 0 0 1 0.391742,0.61907 l -0.03064,0.15084 a 6.8850932,6.8850932 0 0 0 0.0645,0.93896 11.368643,11.368643 0 0 0 0.228679,1.18761 13.408924,13.408924 0 0 0 0.530278,1.66354 17.84514,17.84514 0 0 0 0.840079,1.8307 l 0.76917,0.0814 a 17.84514,17.84514 0 0 0 1.204754,-1.61422 13.408924,13.408924 0 0 0 0.866881,-1.51561 11.368643,11.368643 0 0 0 0.472281,-1.1134 6.8850932,6.8850932 0 0 0 0.259688,-0.90466 l 0.0016,-0.15388 a 0.52916666,0.52916666 0 0 1 0.512683,-0.52332 l 1.244309,-0.0387 a 0.52916666,0.52916666 0 0 1 0.544221,0.49043 l 0.01119,0.15349 a 6.8850932,6.8850932 0 0 0 0.315463,0.88675 11.368643,11.368643 0 0 0 0.540597,1.08188 13.408924,13.408924 0 0 0 0.959458,1.45878 17.84514,17.84514 0 0 0 1.302808,1.53617 l 0.762609,-0.12911 a 17.84514,17.84514 0 0 0 0.724588,-1.87939 13.408924,13.408924 0 0 0 0.42582,-1.69331 11.368643,11.368643 0 0 0 0.154385,-1.19951 6.8850932,6.8850932 0 0 0 0.006,-0.94118 l -0.03995,-0.14862 a 0.52916666,0.52916666 0 0 1 0.352477,-0.64222 l 1.187715,-0.37301 a 0.52916666,0.52916666 0 0 1 0.656352,0.32541 l 0.0522,0.14478 a 6.8850932,6.8850932 0 0 0 0.543005,0.76875 11.368643,11.368643 0 0 0 0.812429,0.8959 13.408924,13.408924 0 0 0 1.31744,1.14584 17.84514,17.84514 0 0 0 1.668965,1.1277 l 0.699505,-0.33007 a 17.84514,17.84514 0 0 0 0.190659,-2.00519 13.408924,13.408924 0 0 0 -0.04683,-1.74538 11.368643,11.368643 0 0 0 -0.174969,-1.19671 6.8850932,6.8850932 0 0 0 -0.248153,-0.90789 l -0.07855,-0.13232 a 0.52916666,0.52916666 0 0 1 0.166131,-0.71353 l 1.043041,-0.67961 a 0.52916666,0.52916666 0 0 1 0.719825,0.13626 l 0.08932,0.12534 a 6.8850932,6.8850932 0 0 0 0.73025,0.59375 11.368643,11.368643 0 0 0 1.024043,0.64346 13.408924,13.408924 0 0 0 1.57771,0.74793 17.84514,17.84514 0 0 0 1.911324,0.63561 l 0.584517,-0.50657 a 17.84514,17.84514 0 0 0 -0.357399,-1.98226 13.408924,13.408924 0 0 0 -0.51599,-1.66804 11.368643,11.368643 0 0 0 -0.491358,-1.10511 6.8850932,6.8850932 0 0 0 -0.48387,-0.80727 l -0.111363,-0.10623 a 0.52916666,0.52916666 0 0 1 -0.03254,-0.73189 l 0.821029,-0.93581 a 0.52916666,0.52916666 0 0 1 0.729879,-0.063 l 0.119804,0.0966 a 6.8850932,6.8850932 0 0 0 0.863388,0.3747 11.368643,11.368643 0 0 0 1.159669,0.34335 13.408924,13.408924 0 0 0 1.720982,0.29451 17.84514,17.84514 0 0 0 2.011944,0.0964 l 0.426165,-0.64548 a 17.84514,17.84514 0 0 0 -0.878946,-1.81234 13.408924,13.408924 0 0 0 -0.946891,-1.46696 11.368643,11.368643 0 0 0 -0.771287,-0.93157 6.8850932,6.8850932 0 0 0 -0.683736,-0.64677 l -0.13589,-0.0723 a 0.52916666,0.52916666 0 0 1 -0.228785,-0.69596 l 0.538083,-1.12263 a 0.52916666,0.52916666 0 0 1 0.685826,-0.25757 l 0.14142,0.0607 a 6.8850932,6.8850932 0 0 0 0.932471,0.12787 11.368643,11.368643 0 0 0 1.209278,0.0178 13.408924,13.408924 0 0 0 1.736646,-0.18074 17.84514,17.84514 0 0 0 1.963314,-0.45003 l 0.23622,-0.73652 a 17.84514,17.84514 0 0 0 -1.335326,-1.50799 13.408924,13.408924 0 0 0 -1.307544,-1.15711 11.368643,11.368643 0 0 0 -0.994013,-0.68892 6.8850932,6.8850932 0 0 0 -0.832908,-0.43833 l -0.150337,-0.0329 a 0.52916666,0.52916666 0 0 1 -0.408066,-0.60844 l 0.215265,-1.22616 a 0.52916666,0.52916666 0 0 1 0.590894,-0.43307 l 0.152558,0.0203 a 6.8850932,6.8850932 0 0 0 0.932365,-0.12845 11.368643,11.368643 0 0 0 1.169247,-0.30917 13.408924,13.408924 0 0 0 1.623457,-0.64257 17.84514,17.84514 0 0 0 1.76911,-0.96303 l 0.02876,-0.77295 a 17.84514,17.84514 0 0 0 -1.692672,-1.0918 13.408924,13.408924 0 0 0 -1.571228,-0.76142 11.368643,11.368643 0 0 0 -1.143026,-0.39521 6.8850932,6.8850932 0 0 0 -0.920274,-0.19735 l -0.153644,0.009 a 0.52916666,0.52916666 0 0 1 -0.55708,-0.47578 l -0.12356,-1.23878 a 0.52916666,0.52916666 0 0 1 0.452146,-0.57642 z"
       stroke="#4682b4"
       stroke-width="0.264583"
       fill="none"
       id="path1-753" /><path
       d="m 53.268729,812.96594 -1.461161,0.25765 a 0.52916666,0.52916666 0 0 1 -0.497258,-0.18101 2.6458333,2.6458333 0 0 0 -0.39788,-0.38422 0.52916666,0.52916666 0 0 1 -0.198226,-0.49065 l 0.206481,-1.46925 a 0.52916666,0.52916666 0 0 0 -0.450348,-0.59767 l -1.048041,-0.14729 a 0.52916666,0.52916666 0 0 0 -0.597667,0.45037 l -0.206481,1.46926 a 0.52916666,0.52916666 0 0 1 -0.325808,0.41701 2.6458333,2.6458333 0 0 0 -0.488368,0.25966 0.52916666,0.52916666 0 0 1 -0.527896,0.0369 l -1.333527,-0.6504 a 0.52916666,0.52916666 0 0 0 -0.707601,0.24363 l -0.463921,0.95123 a 0.52916666,0.52916666 0 0 0 0.243629,0.70757 l 1.333553,0.65043 a 0.52916666,0.52916666 0 0 1 0.29591,0.4387 2.6458333,2.6458333 0 0 0 0.09604,0.54473 0.52916666,0.52916666 0 0 1 -0.128032,0.51345 l -1.030657,1.06727 a 0.52916666,0.52916666 0 0 0 0.01307,0.74825 l 0.761286,0.73517 a 0.52916666,0.52916666 0 0 0 0.748241,-0.0131 l 1.030685,-1.0673 a 0.52916666,0.52916666 0 0 1 0.508661,-0.14584 2.6458333,2.6458333 0 0 0 0.54774,0.077 0.52916666,0.52916666 0 0 1 0.44876,0.2804 l 0.696569,1.31004 a 0.52916666,0.52916666 0 0 0 0.715645,0.21881 l 0.934455,-0.49686 a 0.52916666,0.52916666 0 0 0 0.218784,-0.71565 l -0.696542,-1.31003 a 0.52916666,0.52916666 0 0 1 0.01847,-0.52885 2.6458333,2.6458333 0 0 0 0.242464,-0.49715 0.52916666,0.52916666 0 0 1 0.405368,-0.34015 l 1.461162,-0.25763 a 0.52916666,0.52916666 0 0 0 0.429233,-0.61303 l -0.183779,-1.04225 a 0.52916666,0.52916666 0 0 0 -0.613014,-0.42923 z"
       stroke="#4682b4"
       stroke-width="0.264583"
       fill="none"
       id="path2-5" /><path
       d="m 84.406457,823.72268 -0.150733,0.0662 a 2.0447264,2.0447264 0 0 0 -0.424339,0.25141 8.1609934,8.1609934 0 0 0 -0.743268,0.64686 9.7894245,9.7894245 0 0 0 -1.258781,1.51429 15.291514,15.291514 0 0 0 -1.206156,2.14526 l 0.124751,0.21982 a 15.291514,15.291514 0 0 0 2.460254,0.0642 9.7894245,9.7894245 0 0 0 1.945508,-0.3044 8.1609934,8.1609934 0 0 0 0.93644,-0.30655 2.0447264,2.0447264 0 0 0 0.433387,-0.23545 l 0.134118,-0.0955 a 0.52916666,0.52916666 0 0 1 0.717788,0.0977 l 1.106434,1.36377 a 0.52916666,0.52916666 0 0 1 -0.05233,0.7225 l -0.121047,0.11157 a 2.0447264,2.0447264 0 0 0 -0.319723,0.37555 8.1609934,8.1609934 0 0 0 -0.492998,0.85315 9.7894245,9.7894245 0 0 0 -0.69887,1.841 15.291514,15.291514 0 0 0 -0.444236,2.42067 l 0.189363,0.16738 a 15.291514,15.291514 0 0 0 2.347806,-0.73811 9.7894245,9.7894245 0 0 0 1.74125,-0.91962 8.1609934,8.1609934 0 0 0 0.786156,-0.59401 2.0447264,2.0447264 0 0 0 0.333455,-0.36341 l 0.09588,-0.13385 a 0.52916666,0.52916666 0 0 1 0.710617,-0.14063 l 1.489287,0.93062 a 0.52916666,0.52916666 0 0 1 0.185103,0.70036 l -0.07826,0.14483 a 2.0447264,2.0447264 0 0 0 -0.180472,0.459 8.1609934,8.1609934 0 0 0 -0.189257,0.967 9.7894245,9.7894245 0 0 0 -0.06323,1.96815 15.291514,15.291514 0 0 0 0.365813,2.43377 l 0.233468,0.0968 a 15.291514,15.291514 0 0 0 1.980935,-1.46045 9.7894245,9.7894245 0 0 0 1.34829,-1.43518 8.1609934,8.1609934 0 0 0 0.550704,-0.81708 2.0447264,2.0447264 0 0 0 0.197379,-0.45199 l 0.04723,-0.15772 a 0.52916666,0.52916666 0 0 1 0.626453,-0.36375 l 1.710744,0.39661 a 0.52916666,0.52916666 0 0 1 0.40248,0.6023 l -0.027,0.1624 a 2.0447264,2.0447264 0 0 0 -0.0216,0.49274 8.1609934,8.1609934 0 0 0 0.13499,0.97604 9.7894245,9.7894245 0 0 0 0.57926,1.88206 15.291514,15.291514 0 0 0 1.13622,2.18311 l 0.25226,0.0158 a 15.291514,15.291514 0 0 0 1.39938,-2.02454 9.7894245,9.7894245 0 0 0 0.80925,-1.79519 8.1609934,8.1609934 0 0 0 0.25556,-0.95163 2.0447264,2.0447264 0 0 0 0.0399,-0.4916 l -0.007,-0.16449 a 0.52916666,0.52916666 0 0 1 0.4744,-0.54747 l 1.74683,-0.18034 a 0.52916666,0.52916666 0 0 1 0.57626,0.43897 l 0.0272,0.16237 a 2.0447264,2.0447264 0 0 0 0.13954,0.47308 8.1609934,8.1609934 0 0 0 0.44461,0.87934 9.7894245,9.7894245 0 0 0 1.15895,1.59197 15.291514,15.291514 0 0 0 1.78353,1.6959 l 0.24371,-0.067 a 15.291514,15.291514 0 0 0 0.6662,-2.36921 9.7894245,9.7894245 0 0 0 0.18251,-1.9607 8.1609934,8.1609934 0 0 0 -0.0673,-0.98303 2.0447264,2.0447264 0 0 0 -0.12186,-0.47792 l -0.0596,-0.15346 a 0.52916666,0.52916666 0 0 1 0.27094,-0.67183 l 1.59364,-0.73779 a 0.52916666,0.52916666 0 0 1 0.68754,0.22807 l 0.0784,0.14476 a 2.0447264,2.0447264 0 0 0 0.28557,0.40214 8.1609934,8.1609934 0 0 0 0.70604,0.68733 9.7894245,9.7894245 0 0 0 1.61308,1.1294 15.291514,15.291514 0 0 0 2.23753,1.02492 l 0.20876,-0.14251 a 15.291514,15.291514 0 0 0 -0.13917,-2.45715 9.7894245,9.7894245 0 0 0 -0.46403,-1.91371 8.1609934,8.1609934 0 0 0 -0.38283,-0.90792 2.0447264,2.0447264 0 0 0 -0.27043,-0.41248 l -0.10623,-0.12579 a 0.52916666,0.52916666 0 0 1 0.0381,-0.72339 l 1.26772,-1.21526 a 0.52916666,0.52916666 0 0 1 0.72438,-0.008 l 0.12118,0.11141 a 2.0447264,2.0447264 0 0 0 0.40068,0.28763 8.1609934,8.1609934 0 0 0 0.89094,0.42085 9.7894245,9.7894245 0 0 0 1.8924,0.54446 15.291514,15.291514 0 0 0 2.44909,0.24283 l 0.15118,-0.20256 a 15.291514,15.291514 0 0 0 -0.92945,-2.27883 9.7894245,9.7894245 0 0 0 -1.06027,-1.65937 8.1609934,8.1609934 0 0 0 -0.6569,-0.73443 2.0447264,2.0447264 0 0 0 -0.38971,-0.30228 l -0.14131,-0.0845 a 0.52916666,0.52916666 0 0 1 -0.19884,-0.6966 l 0.80444,-1.56104 a 0.52916666,0.52916666 0 0 1 0.68268,-0.24233 l 0.15081,0.0661 a 2.0447264,2.0447264 0 0 0 0.47234,0.14193 8.1609934,8.1609934 0 0 0 0.97933,0.10877 9.7894245,9.7894245 0 0 0 1.96664,-0.0995 15.291514,15.291514 0 0 0 2.39525,-0.56555 l 0.0772,-0.24066 a 15.291514,15.291514 0 0 0 -1.61904,-1.85357 9.7894245,9.7894245 0 0 0 -1.54162,-1.22518 8.1609934,8.1609934 0 0 0 -0.85976,-0.48133 2.0447264,2.0447264 0 0 0 -0.46675,-0.15941 l -0.16108,-0.034 a 0.52916666,0.52916666 0 0 1 -0.41426,-0.59428 l 0.254,-1.73768 a 0.52916666,0.52916666 0 0 1 0.567,-0.45085 l 0.16407,0.0135 a 2.0447264,2.0447264 0 0 0 0.49284,-0.0191 8.1609934,8.1609934 0 0 0 0.96158,-0.21511 9.7894245,9.7894245 0 0 0 1.82779,-0.73268 15.291514,15.291514 0 0 0 2.08182,-1.31265 l -0.005,-0.25268 a 15.291514,15.291514 0 0 0 -2.13318,-1.22743 9.7894245,9.7894245 0 0 0 -1.85589,-0.65826 8.1609934,8.1609934 0 0 0 -0.96946,-0.17608 2.0447264,2.0447264 0 0 0 -0.49324,8e-4 l -0.16338,0.0201 a 0.52916666,0.52916666 0 0 1 -0.58476,-0.42759 l -0.32401,-1.72598 a 0.52916666,0.52916666 0 0 1 0.38989,-0.61053 l 0.15958,-0.0405 a 2.0447264,2.0447264 0 0 0 0.45992,-0.17812 8.1609934,8.1609934 0 0 0 0.83963,-0.51567 9.7894245,9.7894245 0 0 0 1.49085,-1.28648 15.291514,15.291514 0 0 0 1.54281,-1.91746 l -0.0869,-0.23736 a 15.291514,15.291514 0 0 0 -2.41615,-0.46829 9.7894245,9.7894245 0 0 0 -1.96906,-0.0199 8.1609934,8.1609934 0 0 0 -0.97414,0.14822 2.0447264,2.0447264 0 0 0 -0.46622,0.16092 l -0.14801,0.0721 a 0.52916666,0.52916666 0 0 1 -0.69191,-0.21452 l -0.86686,-1.52728 a 0.52916666,0.52916666 0 0 1 0.17053,-0.70403 l 0.13776,-0.0901 a 2.0447264,2.0447264 0 0 0 0.37717,-0.31782 8.1609934,8.1609934 0 0 0 0.62669,-0.76038 9.7894245,9.7894245 0 0 0 0.99235,-1.70082 15.291514,15.291514 0 0 0 0.83664,-2.31455 l -0.15926,-0.19627 a 15.291514,15.291514 0 0 0 -2.43726,0.34161 9.7894245,9.7894245 0 0 0 -1.86886,0.62047 8.1609934,8.1609934 0 0 0 -0.87323,0.45651 2.0447264,2.0447264 0 0 0 -0.38872,0.30356 l -0.11658,0.11626 a 0.52916666,0.52916666 0 0 1 -0.72408,0.0217 l -1.3158,-1.16305 a 0.52916666,0.52916666 0 0 1 -0.0673,-0.72125 l 0.10104,-0.12999 a 2.0447264,2.0447264 0 0 0 0.25355,-0.42305 8.1609934,8.1609934 0 0 0 0.34584,-0.92268 9.7894245,9.7894245 0 0 0 0.38632,-1.93087 15.291514,15.291514 0 0 0 0.0398,-2.46079 l -0.21434,-0.13393 a 15.291514,15.291514 0 0 0 -2.19429,1.11448 9.7894245,9.7894245 0 0 0 -1.56615,1.19367 8.1609934,8.1609934 0 0 0 -0.67768,0.7153 2.0447264,2.0447264 0 0 0 -0.26908,0.41333 l -0.0725,0.14779 a 0.52916666,0.52916666 0 0 1 -0.67778,0.2557 l -1.62214,-0.67278 a 0.52916666,0.52916666 0 0 1 -0.29787,-0.66035 l 0.0534,-0.15574 a 2.0447264,2.0447264 0 0 0 0.10245,-0.48246 8.1609934,8.1609934 0 0 0 0.0275,-0.98497 9.7894245,9.7894245 0 0 0 -0.26157,-1.9517 15.291514,15.291514 0 0 0 -0.76139,-2.34037 l -0.24622,-0.0571 a 15.291514,15.291514 0 0 0 -1.71355,1.76657 9.7894245,9.7894245 0 0 0 -1.09368,1.63751 8.1609934,8.1609934 0 0 0 -0.4087,0.89659 2.0447264,2.0447264 0 0 0 -0.12031,0.47831 l -0.0206,0.16336 a 0.52916666,0.52916666 0 0 1 -0.55806,0.46191 l -1.75271,-0.10965 a 0.52916666,0.52916666 0 0 1 -0.49612,-0.52781 l -1e-4,-0.16465 a 2.0447264,2.0447264 0 0 0 -0.0597,-0.48959 8.1609934,8.1609934 0 0 0 -0.29379,-0.94051 9.7894245,9.7894245 0 0 0 -0.88114,-1.76104 15.291514,15.291514 0 0 0 -1.48006,-1.96633 l -0.2514,0.0259 a 15.291514,15.291514 0 0 0 -1.04709,2.22727 9.7894245,9.7894245 0 0 0 -0.50274,1.90391 8.1609934,8.1609934 0 0 0 -0.0954,0.9807 2.0447264,2.0447264 0 0 0 0.0415,0.49147 l 0.0335,0.16118 a 0.52916666,0.52916666 0 0 1 -0.377828,0.61807 l -1.693334,0.46543 a 0.52916666,0.52916666 0 0 1 -0.640635,-0.33817 l -0.05355,-0.15568 a 2.0447264,2.0447264 0 0 0 -0.215503,-0.44365 8.1609934,8.1609934 0 0 0 -0.583248,-0.79415 9.7894245,9.7894245 0 0 0 -1.405202,-1.37953 15.291514,15.291514 0 0 0 -2.038323,-1.3792 l -0.229367,0.10618 a 15.291514,15.291514 0 0 0 -0.26715,2.44655 9.7894245,9.7894245 0 0 0 0.14269,1.964 8.1609934,8.1609934 0 0 0 0.228176,0.95856 2.0447264,2.0447264 0 0 0 0.198861,0.45135 l 0.08406,0.14155 a 0.52916666,0.52916666 0 0 1 -0.15666,0.70726 l -1.450472,0.99002 a 0.52916666,0.52916666 0 0 1 -0.715724,-0.11179 l -0.101177,-0.12988 a 2.0447264,2.0447264 0 0 0 -0.347874,-0.34965 8.1609934,8.1609934 0 0 0 -0.809519,-0.56173 9.7894245,9.7894245 0 0 0 -1.776995,-0.84852 15.291514,15.291514 0 0 0 -2.37572,-0.64262 l -0.182457,0.17489 a 15.291514,15.291514 0 0 0 0.541708,2.40075 9.7894245,9.7894245 0 0 0 0.772689,1.81123 8.1609934,8.1609934 0 0 0 0.52705,0.83254 2.0447264,2.0447264 0 0 0 0.334645,0.36232 l 0.125466,0.1066 a 0.52916666,0.52916666 0 0 1 0.08147,0.7198 l -1.050396,1.40734 a 0.52916666,0.52916666 0 0 1 -0.713264,0.12666 l -0.137874,-0.09 a 2.0447264,2.0447264 0 0 0 -0.442542,-0.21775 8.1609934,8.1609934 0 0 0 -0.948055,-0.26848 9.7894245,9.7894245 0 0 0 -1.956223,-0.22553 15.291514,15.291514 0 0 0 -2.455651,0.16357 l -0.115782,0.22468 a 15.291514,15.291514 0 0 0 1.291881,2.09476 9.7894245,9.7894245 0 0 0 1.318922,1.46222 8.1609934,8.1609934 0 0 0 0.768826,0.6163 2.0447264,2.0447264 0 0 0 0.434155,0.23402 l 0.153273,0.0601 a 0.52916666,0.52916666 0 0 1 0.310779,0.65434 l -0.536522,1.67216 a 0.52916666,0.52916666 0 0 1 -0.633491,0.35137 l -0.159624,-0.0403 a 2.0447264,2.0447264 0 0 0 -0.489267,-0.0623 8.1609934,8.1609934 0 0 0 -0.983853,0.0539 9.7894245,9.7894245 0 0 0 -1.923468,0.42188 15.291514,15.291514 0 0 0 -2.26949,0.95205 l -0.03654,0.25009 a 15.291514,15.291514 0 0 0 1.902037,1.56181 9.7894245,9.7894245 0 0 0 1.722252,0.95472 8.1609934,8.1609934 0 0 0 0.927259,0.33327 2.0447264,2.0447264 0 0 0 0.486621,0.0804 l 0.164492,0.007 a 0.52916666,0.52916666 0 0 1 0.506412,0.51798 l 0.03548,1.75577 a 0.52916666,0.52916666 0 0 1 -0.485061,0.53803 l -0.164068,0.0137 a 2.0447264,2.0447264 0 0 0 -0.48297,0.1 8.1609934,8.1609934 0 0 0 -0.913051,0.37047 9.7894245,9.7894245 0 0 0 -1.682274,1.02354 15.291514,15.291514 0 0 0 -1.837372,1.63737 l 0.04662,0.24842 a 15.291514,15.291514 0 0 0 2.306109,0.85958 9.7894245,9.7894245 0 0 0 1.938919,0.3438 8.1609934,8.1609934 0 0 0 0.985256,0.0141 2.0447264,2.0447264 0 0 0 0.486357,-0.082 l 0.15785,-0.0467 a 0.52916666,0.52916666 0 0 1 0.647171,0.3255 l 0.603647,1.64912 a 0.52916666,0.52916666 0 0 1 -0.284083,0.66638 z"
       stroke="#ee82ee"
       stroke-width="0.264583"
       fill="none"
       id="path15-1" /><path
       style="fill:none;stroke:#ff0000;stroke-width:0.264583"
       d="M 79.311872,809.36469 49.25922,814.82987 H 73.968921"
       id="path52" /><path
       style="fill:none;stroke:#000000;stroke-width:0.264583;marker-start:url(#marker11);marker-end:url(#marker11)"
       d="m 67.152387,811.79428 c 0,0 0.552548,0.84251 0.58448,1.32382 0.03565,0.5374 -0.451612,1.55136 -0.451612,1.55136"
       id="path53"
       sodipodi:nodetypes="cac" /><text
       xml:space="preserve"
       transform="matrix(0.26458333,0,0,0.26458333,-5.7901644,3.023089)"
       id="text53"
       style="font-size:14.6667px;line-height:normal;font-family:'Liberation Mono';-inkscape-font-specification:'Liberation Mono';text-align:center;text-decoration-color:#000000;white-space:pre;shape-inside:url(#rect53);fill:#000000;stroke-width:1;-inkscape-stroke:none;stop-color:#000000"><tspan
         x="260.93903"
         y="3215.9407"
         id="tspan1">initAngle1</tspan></text><path
       style="fill:none;stroke:#000000;stroke-width:0.264583;marker-start:url(#marker11)"
       d="m 68.548888,813.27503 11.101171,37.54694"
       id="path54"
       sodipodi:nodetypes="cc" /><path
       d="m 84.603507,824.21481 -0.149227,0.0695 a 2.0447264,2.0447264 0 0 0 -0.418659,0.26076 8.1609934,8.1609934 0 0 0 -0.728738,0.66319 9.7894245,9.7894245 0 0 0 -1.224885,1.54184 15.291514,15.291514 0 0 0 -1.158278,2.17148 l 0.129596,0.217 a 15.291514,15.291514 0 0 0 2.461073,0.01 9.7894245,9.7894245 0 0 0 1.938278,-0.34748 8.1609934,8.1609934 0 0 0 0.92941,-0.32724 2.0447264,2.0447264 0 0 0 0.428058,-0.24501 l 0.131967,-0.0984 a 0.52916666,0.52916666 0 0 1 0.719779,0.0818 l 1.13641,1.33889 a 0.52916666,0.52916666 0 0 1 -0.03629,0.72348 l -0.118542,0.11423 a 2.0447264,2.0447264 0 0 0 -0.311315,0.38255 8.1609934,8.1609934 0 0 0 -0.473954,0.86388 9.7894245,9.7894245 0 0 0 -0.657866,1.85604 15.291514,15.291514 0 0 0 -0.390437,2.42993 l 0.193029,0.16314 a 15.291514,15.291514 0 0 0 2.330858,-0.79 9.7894245,9.7894245 0 0 0 1.720424,-0.95802 8.1609934,8.1609934 0 0 0 0.772788,-0.6113 2.0447264,2.0447264 0 0 0 0.325313,-0.37071 l 0.09289,-0.13595 a 0.52916666,0.52916666 0 0 1 0.707323,-0.15635 l 1.509562,0.89736 a 0.52916666,0.52916666 0 0 1 0.200591,0.69608 l -0.07503,0.14653 a 2.0447264,2.0447264 0 0 0 -0.170247,0.46289 8.1609934,8.1609934 0 0 0 -0.167763,0.97096 9.7894245,9.7894245 0 0 0 -0.01956,1.96907 15.291514,15.291514 0 0 0 0.419704,2.42505 l 0.235557,0.0916 a 15.291514,15.291514 0 0 0 1.948056,-1.50403 9.7894245,9.7894245 0 0 0 1.316126,-1.46473 8.1609934,8.1609934 0 0 0 0.532446,-0.82909 2.0447264,2.0447264 0 0 0 0.187306,-0.45626 l 0.04372,-0.15873 a 0.52916666,0.52916666 0 0 1 0.618231,-0.37755 l 1.719119,0.35857 a 0.52916666,0.52916666 0 0 1 0.41574,0.59322 l -0.0234,0.16296 a 2.0447264,2.0447264 0 0 0 -0.0107,0.4931 8.1609934,8.1609934 0 0 0 0.1566,0.9728 9.7894245,9.7894245 0 0 0 0.62086,1.86875 15.291514,15.291514 0 0 0 1.18436,2.15738 l 0.25255,0.0102 a 15.291514,15.291514 0 0 0 1.35413,-2.05508 9.7894245,9.7894245 0 0 0 0.76924,-1.8127 8.1609934,8.1609934 0 0 0 0.23439,-0.95706 2.0447264,2.0447264 0 0 0 0.029,-0.49237 l -0.0106,-0.16429 a 0.52916666,0.52916666 0 0 1 0.46214,-0.55786 l 1.7424,-0.21904 a 0.52916666,0.52916666 0 0 1 0.58585,0.42608 l 0.0308,0.16173 a 2.0447264,2.0447264 0 0 0 0.15,0.46987 8.1609934,8.1609934 0 0 0 0.464,0.86926 9.7894245,9.7894245 0 0 0 1.19398,1.56587 15.291514,15.291514 0 0 0 1.8207,1.65593 l 0.24217,-0.0724 a 15.291514,15.291514 0 0 0 0.61348,-2.38341 9.7894245,9.7894245 0 0 0 0.13898,-1.96426 8.1609934,8.1609934 0 0 0 -0.0891,-0.9813 2.0447264,2.0447264 0 0 0 -0.13243,-0.4751 l -0.063,-0.1521 a 0.52916666,0.52916666 0 0 1 0.25597,-0.67767 l 1.57688,-0.77296 a 0.52916666,0.52916666 0 0 1 0.69243,0.21277 l 0.0816,0.14298 a 2.0447264,2.0447264 0 0 0 0.29442,0.39571 8.1609934,8.1609934 0 0 0 0.72111,0.6715 9.7894245,9.7894245 0 0 0 1.63774,1.09335 15.291514,15.291514 0 0 0 2.25971,0.97504 l 0.20555,-0.14711 a 15.291514,15.291514 0 0 0 -0.19364,-2.45346 9.7894245,9.7894245 0 0 0 -0.50636,-1.90294 8.1609934,8.1609934 0 0 0 -0.40287,-0.89921 2.0447264,2.0447264 0 0 0 -0.27952,-0.40638 l -0.10899,-0.1234 a 0.52916666,0.52916666 0 0 1 0.022,-0.72406 l 1.24045,-1.24308 a 0.52916666,0.52916666 0 0 1 0.72402,-0.0241 l 0.12363,0.10869 a 2.0447264,2.0447264 0 0 0 0.40696,0.27867 8.1609934,8.1609934 0 0 0 0.90005,0.40099 9.7894245,9.7894245 0 0 0 1.90401,0.50235 15.291514,15.291514 0 0 0 2.45388,0.18845 l 0.14665,-0.20586 a 15.291514,15.291514 0 0 0 -0.97977,-2.25766 9.7894245,9.7894245 0 0 0 -1.09681,-1.63544 8.1609934,8.1609934 0 0 0 -0.67303,-0.71968 2.0447264,2.0447264 0 0 0 -0.39632,-0.29356 l -0.14315,-0.0814 a 0.52916666,0.52916666 0 0 1 -0.21424,-0.69202 l 0.76962,-1.57849 a 0.52916666,0.52916666 0 0 1 0.67714,-0.25742 l 0.15224,0.0627 a 2.0447264,2.0447264 0 0 0 0.47537,0.13142 8.1609934,8.1609934 0 0 0 0.9815,0.087 9.7894245,9.7894245 0 0 0 1.96395,-0.14309 15.291514,15.291514 0 0 0 2.38211,-0.61854 l 0.0718,-0.24231 a 15.291514,15.291514 0 0 0 -1.65976,-1.81721 9.7894245,9.7894245 0 0 0 -1.56841,-1.19068 8.1609934,8.1609934 0 0 0 -0.87022,-0.46214 2.0447264,2.0447264 0 0 0 -0.47018,-0.14902 l -0.16179,-0.0304 a 0.52916666,0.52916666 0 0 1 -0.42734,-0.58495 l 0.2154,-1.74288 a 0.52916666,0.52916666 0 0 1 0.55686,-0.46332 l 0.16433,0.01 a 2.0447264,2.0447264 0 0 0 0.49229,-0.03 8.1609934,8.1609934 0 0 0 0.95657,-0.23638 9.7894245,9.7894245 0 0 0 1.81109,-0.77304 15.291514,15.291514 0 0 0 2.0522,-1.3585 l -0.0106,-0.25251 a 15.291514,15.291514 0 0 0 -2.15988,-1.17981 9.7894245,9.7894245 0 0 0 -1.87004,-0.61694 8.1609934,8.1609934 0 0 0 -0.97312,-0.15453 2.0447264,2.0447264 0 0 0 -0.49311,0.0117 l -0.16289,0.0237 a 0.52916666,0.52916666 0 0 1 -0.5941,-0.41452 l -0.36221,-1.71837 a 0.52916666,0.52916666 0 0 1 0.37625,-0.61903 l 0.15864,-0.044 a 2.0447264,2.0447264 0 0 0 0.45586,-0.18827 8.1609934,8.1609934 0 0 0 0.82799,-0.53417 9.7894245,9.7894245 0 0 0 1.46195,-1.31923 15.291514,15.291514 0 0 0 1.4999,-1.95121 l -0.0922,-0.23537 a 15.291514,15.291514 0 0 0 -2.42594,-0.41459 9.7894245,9.7894245 0 0 0 -1.96902,0.0238 8.1609934,8.1609934 0 0 0 -0.97061,0.16979 2.0447264,2.0447264 0 0 0 -0.46253,0.17122 l -0.14638,0.0754 a 0.52916666,0.52916666 0 0 1 -0.6965,-0.19912 l -0.90052,-1.50768 a 0.52916666,0.52916666 0 0 1 0.15488,-0.70764 l 0.13572,-0.0931 a 2.0447264,2.0447264 0 0 0 0.37003,-0.32611 8.1609934,8.1609934 0 0 0 0.60967,-0.77409 9.7894245,9.7894245 0 0 0 0.95438,-1.72241 15.291514,15.291514 0 0 0 0.7851,-2.33254 l -0.16357,-0.19269 a 15.291514,15.291514 0 0 0 -2.42909,0.39558 9.7894245,9.7894245 0 0 0 -1.85463,0.66177 8.1609934,8.1609934 0 0 0 -0.86289,0.47577 2.0447264,2.0447264 0 0 0 -0.3819,0.3121 l -0.11397,0.11882 a 0.52916666,0.52916666 0 0 1 -0.72342,0.0378 l -1.34127,-1.13358 a 0.52916666,0.52916666 0 0 1 -0.0833,-0.71958 l 0.0981,-0.1322 a 2.0447264,2.0447264 0 0 0 0.2441,-0.42857 8.1609934,8.1609934 0 0 0 0.3253,-0.93013 9.7894245,9.7894245 0 0 0 0.34339,-1.93896 15.291514,15.291514 0 0 0 -0.0148,-2.46107 l -0.21725,-0.12914 a 15.291514,15.291514 0 0 0 -2.16903,1.16287 9.7894245,9.7894245 0 0 0 -1.53929,1.22812 8.1609934,8.1609934 0 0 0 -0.66165,0.73015 2.0447264,2.0447264 0 0 0 -0.25985,0.4192 l -0.0692,0.14936 a 0.52916666,0.52916666 0 0 1 -0.67194,0.27067 l -1.63667,-0.63664 a 0.52916666,0.52916666 0 0 1 -0.31244,-0.65358 l 0.0499,-0.15688 a 2.0447264,2.0447264 0 0 0 0.0917,-0.48462 8.1609934,8.1609934 0 0 0 0.006,-0.98533 9.7894245,9.7894245 0 0 0 -0.30479,-1.94542 15.291514,15.291514 0 0 0 -0.81311,-2.32291 l -0.24743,-0.0516 a 15.291514,15.291514 0 0 0 -1.67394,1.80414 9.7894245,9.7894245 0 0 0 -1.0571,1.66136 8.1609934,8.1609934 0 0 0 -0.38871,0.90544 2.0447264,2.0447264 0 0 0 -0.10967,0.48086 l -0.017,0.16377 a 0.52916666,0.52916666 0 0 1 -0.54768,0.47418 l -1.75471,-0.0707 a 0.52916666,0.52916666 0 0 1 -0.50771,-0.51668 l -0.004,-0.1646 a 2.0447264,2.0447264 0 0 0 -0.0705,-0.48815 8.1609934,8.1609934 0 0 0 -0.31458,-0.93376 9.7894245,9.7894245 0 0 0 -0.91998,-1.74107 15.291514,15.291514 0 0 0 -1.52331,-1.93301 l -0.25076,0.0315 a 15.291514,15.291514 0 0 0 -0.99744,2.24994 9.7894245,9.7894245 0 0 0 -0.460389,1.91459 8.1609934,8.1609934 0 0 0 -0.07363,0.98258 2.0447264,2.0447264 0 0 0 0.05239,0.49043 l 0.03707,0.16039 a 0.52916666,0.52916666 0 0 1 -0.364027,0.6263 l -1.682594,0.50288 a 0.52916666,0.52916666 0 0 1 -0.647978,-0.32388 l -0.05699,-0.15446 a 2.0447264,2.0447264 0 0 0 -0.22529,-0.43876 8.1609934,8.1609934 0 0 0 -0.600718,-0.78102 9.7894245,9.7894245 0 0 0 -1.435454,-1.34802 15.291514,15.291514 0 0 0 -2.068412,-1.33365 l -0.226955,0.11124 a 15.291514,15.291514 0 0 0 -0.212821,2.45187 9.7894245,9.7894245 0 0 0 0.186216,1.96036 8.1609934,8.1609934 0 0 0 0.24938,0.95326 2.0447264,2.0447264 0 0 0 0.208823,0.44683 l 0.08718,0.13965 a 0.52916666,0.52916666 0 0 1 -0.140935,0.71056 l -1.428156,1.02195 a 0.52916666,0.52916666 0 0 1 -0.718028,-0.0959 l -0.104033,-0.12761 a 2.0447264,2.0447264 0 0 0 -0.355543,-0.34184 8.1609934,8.1609934 0 0 0 -0.821779,-0.54364 9.7894245,9.7894245 0 0 0 -1.795378,-0.8089 15.291514,15.291514 0 0 0 -2.389388,-0.58977 l -0.178534,0.1789 a 15.291514,15.291514 0 0 0 0.594823,2.38814 9.7894245,9.7894245 0 0 0 0.812672,1.79365 8.1609934,8.1609934 0 0 0 0.545385,0.82064 2.0447264,2.0447264 0 0 0 0.342599,0.35481 l 0.1278,0.10379 a 0.52916666,0.52916666 0 0 1 0.09742,0.71782 l -1.018924,1.43029 a 0.52916666,0.52916666 0 0 1 -0.710279,0.14245 l -0.139836,-0.0869 a 2.0447264,2.0447264 0 0 0 -0.447263,-0.20788 8.1609934,8.1609934 0 0 0 -0.953777,-0.24739 9.7894245,9.7894245 0 0 0 -1.960743,-0.18209 15.291514,15.291514 0 0 0 -2.451419,0.218 l -0.110771,0.22719 a 15.291514,15.291514 0 0 0 1.338025,2.06559 9.7894245,9.7894245 0 0 0 1.351029,1.43261 8.1609934,8.1609934 0 0 0 0.782306,0.5991 2.0447264,2.0447264 0 0 0 0.439239,0.22433 l 0.154568,0.0567 a 0.52916666,0.52916666 0 0 1 0.325216,0.64728 l -0.499302,1.68365 a 0.52916666,0.52916666 0 0 1 -0.625542,0.36533 l -0.160479,-0.0367 a 2.0447264,2.0447264 0 0 0 -0.490528,-0.0514 8.1609934,8.1609934 0 0 0 -0.982416,0.0757 9.7894245,9.7894245 0 0 0 -1.913637,0.46444 15.291514,15.291514 0 0 0 -2.247816,1.00215 l -0.03098,0.25084 a 15.291514,15.291514 0 0 0 1.93621,1.51924 9.7894245,9.7894245 0 0 0 1.743003,0.91629 8.1609934,8.1609934 0 0 0 0.934423,0.31262 2.0447264,2.0447264 0 0 0 0.488285,0.0696 l 0.164606,0.003 a 0.52916666,0.52916666 0 0 1 0.517776,0.50662 l 0.07441,1.75456 a 0.52916666,0.52916666 0 0 1 -0.473008,0.54865 l -0.163724,0.0173 a 2.0447264,2.0447264 0 0 0 -0.480633,0.11068 8.1609934,8.1609934 0 0 0 -0.90461,0.39063 9.7894245,9.7894245 0 0 0 -1.659158,1.06061 15.291514,15.291514 0 0 0 -1.800604,1.67771 l 0.05212,0.24733 a 15.291514,15.291514 0 0 0 2.324607,0.80822 9.7894245,9.7894245 0 0 0 1.946067,0.30071 8.1609934,8.1609934 0 0 0 0.985326,-0.008 2.0447264,2.0447264 0 0 0 0.484419,-0.0928 l 0.156775,-0.0502 a 0.52916666,0.52916666 0 0 1 0.654232,0.31106 l 0.640075,1.63533 a 0.52916666,0.52916666 0 0 1 -0.269233,0.67252 z"
       stroke="#ee82ee"
       stroke-width="0.264583"
       fill="none"
       id="path15-1-7"
       style="stroke:#ffe6d5" /><path
       d="m 84.830761,824.66971 -0.147654,0.0729 a 2.0447264,2.0447264 0 0 0 -0.412789,0.26995 8.1609934,8.1609934 0 0 0 -0.713893,0.67914 9.7894245,9.7894245 0 0 0 -1.190485,1.56855 15.291514,15.291514 0 0 0 -1.10997,2.19658 l 0.134363,0.21407 a 15.291514,15.291514 0 0 0 2.460685,-0.0447 9.7894245,9.7894245 0 0 0 1.930119,-0.39026 8.1609934,8.1609934 0 0 0 0.921945,-0.34772 2.0447264,2.0447264 0 0 0 0.422536,-0.25441 l 0.129756,-0.10139 a 0.52916666,0.52916666 0 0 1 0.721411,0.0658 l 1.165743,1.31344 a 0.52916666,0.52916666 0 0 1 -0.02028,0.72411 l -0.115989,0.11681 a 2.0447264,2.0447264 0 0 0 -0.302777,0.38934 8.1609934,8.1609934 0 0 0 -0.454733,0.87415 9.7894245,9.7894245 0 0 0 -0.616656,1.87015 15.291514,15.291514 0 0 0 -0.3366,2.43796 l 0.196588,0.15883 a 15.291514,15.291514 0 0 0 2.312816,-0.84136 9.7894245,9.7894245 0 0 0 1.698817,-0.99582 8.1609934,8.1609934 0 0 0 0.759079,-0.62825 2.0447264,2.0447264 0 0 0 0.317034,-0.37781 l 0.08986,-0.13797 a 0.52916666,0.52916666 0 0 1 0.703692,-0.17196 l 1.529038,0.86375 a 0.52916666,0.52916666 0 0 1 0.215937,0.69148 l -0.07177,0.14815 a 2.0447264,2.0447264 0 0 0 -0.159968,0.46654 8.1609934,8.1609934 0 0 0 -0.146247,0.97443 9.7894245,9.7894245 0 0 0 0.02395,1.96902 15.291514,15.291514 0 0 0 0.473233,2.41519 l 0.237525,0.0864 a 15.291514,15.291514 0 0 0 1.914316,-1.54674 9.7894245,9.7894245 0 0 0 1.283411,-1.49349 8.1609934,8.1609934 0 0 0 0.513981,-0.84066 2.0447264,2.0447264 0 0 0 0.177169,-0.46029 l 0.04017,-0.15966 a 0.52916666,0.52916666 0 0 1 0.609726,-0.39113 l 1.72664,0.32046 a 0.52916666,0.52916666 0 0 1 0.42876,0.58389 l -0.0197,0.16344 a 2.0447264,2.0447264 0 0 0 1.5e-4,0.49321 8.1609934,8.1609934 0 0 0 0.17808,0.96911 9.7894245,9.7894245 0 0 0 0.66203,1.85455 15.291514,15.291514 0 0 0 1.23179,2.13065 l 0.25271,0.004 a 15.291514,15.291514 0 0 0 1.30835,-2.08453 9.7894245,9.7894245 0 0 0 0.72896,-1.82926 8.1609934,8.1609934 0 0 0 0.21316,-0.96202 2.0447264,2.0447264 0 0 0 0.0181,-0.49288 l -0.0143,-0.16402 a 0.52916666,0.52916666 0 0 1 0.44969,-0.56794 l 1.73713,-0.25753 a 0.52916666,0.52916666 0 0 1 0.59513,0.41303 l 0.0343,0.16101 a 2.0447264,2.0447264 0 0 0 0.16034,0.46643 8.1609934,8.1609934 0 0 0 0.48311,0.85878 9.7894245,9.7894245 0 0 0 1.22832,1.5391 15.291514,15.291514 0 0 0 1.85687,1.61525 l 0.24051,-0.0777 a 15.291514,15.291514 0 0 0 0.56063,-2.39638 9.7894245,9.7894245 0 0 0 0.0955,-1.96686 8.1609934,8.1609934 0 0 0 -0.11081,-0.97909 2.0447264,2.0447264 0 0 0 -0.14291,-0.47205 l -0.0663,-0.15067 a 0.52916666,0.52916666 0 0 1 0.24092,-0.68317 l 1.5594,-0.80764 a 0.52916666,0.52916666 0 0 1 0.69697,0.1974 l 0.0848,0.14115 a 2.0447264,2.0447264 0 0 0 0.3031,0.3891 8.1609934,8.1609934 0 0 0 0.73578,0.65539 9.7894245,9.7894245 0 0 0 1.66151,1.05685 15.291514,15.291514 0 0 0 2.28073,0.92483 l 0.20224,-0.15162 a 15.291514,15.291514 0 0 0 -0.24785,-2.44857 9.7894245,9.7894245 0 0 0 -0.54832,-1.89129 8.1609934,8.1609934 0 0 0 -0.42266,-0.89007 2.0447264,2.0447264 0 0 0 -0.28843,-0.4001 l -0.1117,-0.12097 a 0.52916666,0.52916666 0 0 1 0.006,-0.72436 l 1.21266,-1.27021 a 0.52916666,0.52916666 0 0 1 0.72331,-0.0401 l 0.126,0.10593 a 2.0447264,2.0447264 0 0 0 0.41302,0.2696 8.1609934,8.1609934 0 0 0 0.9087,0.38099 9.7894245,9.7894245 0 0 0 1.91466,0.46012 15.291514,15.291514 0 0 0 2.45744,0.13413 l 0.14206,-0.20905 a 15.291514,15.291514 0 0 0 -1.02946,-2.23544 9.7894245,9.7894245 0 0 0 -1.13271,-1.61078 8.1609934,8.1609934 0 0 0 -0.68878,-0.70462 2.0447264,2.0447264 0 0 0 -0.40272,-0.28473 l -0.14491,-0.0782 a 0.52916666,0.52916666 0 0 1 -0.22949,-0.68711 l 0.73452,-1.59513 a 0.52916666,0.52916666 0 0 1 0.67127,-0.27232 l 0.15359,0.0594 a 2.0447264,2.0447264 0 0 0 0.47817,0.12088 8.1609934,8.1609934 0 0 0 0.98318,0.0652 9.7894245,9.7894245 0 0 0 1.96031,-0.1865 15.291514,15.291514 0 0 0 2.36785,-0.67106 l 0.0665,-0.24385 a 15.291514,15.291514 0 0 0 -1.69953,-1.78005 9.7894245,9.7894245 0 0 0 -1.59437,-1.15571 8.1609934,8.1609934 0 0 0 -0.88023,-0.44278 2.0447264,2.0447264 0 0 0 -0.47335,-0.13858 l -0.16243,-0.0269 a 0.52916666,0.52916666 0 0 1 -0.44018,-0.57535 l 0.1768,-1.74723 a 0.52916666,0.52916666 0 0 1 0.54649,-0.47551 l 0.1645,0.007 a 2.0447264,2.0447264 0 0 0 0.49152,-0.0409 8.1609934,8.1609934 0 0 0 0.9511,-0.25748 9.7894245,9.7894245 0 0 0 1.79356,-0.81291 15.291514,15.291514 0 0 0 2.02165,-1.40355 l -0.0162,-0.25221 a 15.291514,15.291514 0 0 0 -2.18544,-1.13176 9.7894245,9.7894245 0 0 0 -1.88323,-0.57542 8.1609934,8.1609934 0 0 0 -0.97631,-0.13298 2.0447264,2.0447264 0 0 0 -0.49271,0.0226 l -0.16233,0.0273 a 0.52916666,0.52916666 0 0 1 -0.60312,-0.40126 l -0.40013,-1.70994 a 0.52916666,0.52916666 0 0 1 0.36246,-0.6272 l 0.15764,-0.0475 a 2.0447264,2.0447264 0 0 0 0.45158,-0.19831 8.1609934,8.1609934 0 0 0 0.81597,-0.55235 9.7894245,9.7894245 0 0 0 1.43242,-1.35124 15.291514,15.291514 0 0 0 1.45637,-1.9839 l -0.0973,-0.23328 a 15.291514,15.291514 0 0 0 -2.43452,-0.36083 9.7894245,9.7894245 0 0 0 -1.96801,0.0673 8.1609934,8.1609934 0 0 0 -0.96662,0.19121 2.0447264,2.0447264 0 0 0 -0.45864,0.18141 l -0.14466,0.0786 a 0.52916666,0.52916666 0 0 1 -0.70074,-0.18366 l -0.93365,-1.48739 a 0.52916666,0.52916666 0 0 1 0.13919,-0.7109 l 0.13364,-0.0961 a 2.0447264,2.0447264 0 0 0 0.36272,-0.33421 8.1609934,8.1609934 0 0 0 0.59241,-0.78739 9.7894245,9.7894245 0 0 0 0.91605,-1.7431 15.291514,15.291514 0 0 0 0.73332,-2.34933 l -0.1678,-0.18903 a 15.291514,15.291514 0 0 0 -2.41974,0.44922 9.7894245,9.7894245 0 0 0 -1.83955,0.70262 8.1609934,8.1609934 0 0 0 -0.85215,0.49474 2.0447264,2.0447264 0 0 0 -0.37489,0.32047 l -0.11133,0.12131 a 0.52916666,0.52916666 0 0 1 -0.7224,0.0538 l -1.36602,-1.10363 a 0.52916666,0.52916666 0 0 1 -0.0992,-0.71757 l 0.0952,-0.13433 a 2.0447264,2.0447264 0 0 0 0.23456,-0.43387 8.1609934,8.1609934 0 0 0 0.30463,-0.93709 9.7894245,9.7894245 0 0 0 0.30044,-1.94608 15.291514,15.291514 0 0 0 -0.0692,-2.46014 l -0.22006,-0.12431 a 15.291514,15.291514 0 0 0 -2.14279,1.21056 9.7894245,9.7894245 0 0 0 -1.51175,1.26186 8.1609934,8.1609934 0 0 0 -0.64533,0.74461 2.0447264,2.0447264 0 0 0 -0.25052,0.42484 l -0.0659,0.15085 a 0.52916666,0.52916666 0 0 1 -0.6658,0.28547 l -1.65034,-0.60029 a 0.52916666,0.52916666 0 0 1 -0.32682,-0.64651 l 0.0464,-0.15795 a 2.0447264,2.0447264 0 0 0 0.081,-0.48652 8.1609934,8.1609934 0 0 0 -0.0163,-0.98522 9.7894245,9.7894245 0 0 0 -0.34775,-1.9382 15.291514,15.291514 0 0 0 -0.86428,-2.30436 l -0.24851,-0.0461 a 15.291514,15.291514 0 0 0 -1.63364,1.84072 9.7894245,9.7894245 0 0 0 -1.02007,1.68434 8.1609934,8.1609934 0 0 0 -0.3686,0.91381 2.0447264,2.0447264 0 0 0 -0.099,0.48317 l -0.0133,0.16411 a 0.52916666,0.52916666 0 0 1 -0.53706,0.48617 l -1.75585,-0.032 a 0.52916666,0.52916666 0 0 1 -0.519,-0.50531 l -0.007,-0.16448 a 2.0447264,2.0447264 0 0 0 -0.0814,-0.48647 8.1609934,8.1609934 0 0 0 -0.33515,-0.92658 9.7894245,9.7894245 0 0 0 -0.95827,-1.72029 15.291514,15.291514 0 0 0 -1.56568,-1.89885 l -0.25001,0.037 a 15.291514,15.291514 0 0 0 -0.947429,2.27144 9.7894245,9.7894245 0 0 0 -0.417928,1.92431 8.1609934,8.1609934 0 0 0 -0.05188,0.98396 2.0447264,2.0447264 0 0 0 0.06323,0.48916 l 0.04061,0.15953 a 0.52916666,0.52916666 0 0 1 -0.35009,0.6342 l -1.671067,0.53996 a 0.52916666,0.52916666 0 0 1 -0.654979,-0.30947 l -0.06039,-0.15315 a 2.0447264,2.0447264 0 0 0 -0.234939,-0.43367 8.1609934,8.1609934 0 0 0 -0.617845,-0.76754 9.7894245,9.7894245 0 0 0 -1.464916,-1.31596 15.291514,15.291514 0 0 0 -2.0974,-1.28757 l -0.22444,0.11623 a 15.291514,15.291514 0 0 0 -0.158543,2.45598 9.7894245,9.7894245 0 0 0 0.229525,1.95575 8.1609934,8.1609934 0 0 0 0.270402,0.94752 2.0447264,2.0447264 0 0 0 0.218654,0.4421 l 0.09025,0.13769 a 0.52916666,0.52916666 0 0 1 -0.125185,0.7135 l -1.405207,1.05329 a 0.52916666,0.52916666 0 0 1 -0.719972,-0.08 l -0.106468,-0.12557 a 2.0447264,2.0447264 0 0 0 -0.363017,-0.3339 8.1609934,8.1609934 0 0 0 -0.833601,-0.52533 9.7894245,9.7894245 0 0 0 -1.812828,-0.76899 15.291514,15.291514 0 0 0 -2.401848,-0.53678 l -0.174533,0.1828 a 15.291514,15.291514 0 0 0 0.647493,2.3744 9.7894245,9.7894245 0 0 0 0.852142,1.77524 8.1609934,8.1609934 0 0 0 0.563402,0.80838 2.0447264,2.0447264 0 0 0 0.350361,0.34714 l 0.130064,0.10095 a 0.52916666,0.52916666 0 0 1 0.113266,0.71548 l -0.987042,1.45247 a 0.52916666,0.52916666 0 0 1 -0.706954,0.15812 l -0.141725,-0.0838 a 2.0447264,2.0447264 0 0 0 -0.451752,-0.19794 8.1609934,8.1609934 0 0 0 -0.959014,-0.22623 9.7894245,9.7894245 0 0 0 -1.964292,-0.13868 15.291514,15.291514 0 0 0 -2.445997,0.27216 l -0.105719,0.22958 a 15.291514,15.291514 0 0 0 1.38338,2.0355 9.7894245,9.7894245 0 0 0 1.382382,1.40238 8.1609934,8.1609934 0 0 0 0.795364,0.58165 2.0447264,2.0447264 0 0 0 0.444093,0.21456 l 0.155785,0.0532 a 0.52916666,0.52916666 0 0 1 0.339451,0.63993 l -0.461945,1.69428 A 0.52916666,0.52916666 0 0 1 82.98636,810.289 l -0.161251,-0.0332 a 2.0447264,2.0447264 0 0 0 -0.491546,-0.0406 8.1609934,8.1609934 0 0 0 -0.980501,0.0974 9.7894245,9.7894245 0 0 0 -1.902898,0.50664 15.291514,15.291514 0 0 0 -2.225103,1.05162 l -0.02543,0.25146 a 15.291514,15.291514 0 0 0 1.969336,1.47605 9.7894245,9.7894245 0 0 0 1.762841,0.87751 8.1609934,8.1609934 0 0 0 0.941109,0.29188 2.0447264,2.0447264 0 0 0 0.489704,0.0588 l 0.164639,-3.9e-4 a 0.52916666,0.52916666 0 0 1 0.528854,0.49505 l 0.113204,1.75247 a 0.52916666,0.52916666 0 0 1 -0.460758,0.55898 l -0.1633,0.021 a 2.0447264,2.0447264 0 0 0 -0.478068,0.12129 8.1609934,8.1609934 0 0 0 -0.895749,0.41054 9.7894245,9.7894245 0 0 0 -1.635296,1.09704 15.291514,15.291514 0 0 0 -1.763059,1.71712 l 0.05757,0.24611 a 15.291514,15.291514 0 0 0 2.341912,0.75662 9.7894245,9.7894245 0 0 0 1.952243,0.25759 8.1609934,8.1609934 0 0 0 0.984913,-0.0296 2.0447264,2.0447264 0 0 0 0.482247,-0.10351 l 0.155627,-0.0537 a 0.52916666,0.52916666 0 0 1 0.660951,0.29652 l 0.676085,1.62077 a 0.52916666,0.52916666 0 0 1 -0.254292,0.6783 z"
       stroke="#ee82ee"
       stroke-width="0.264583"
       fill="none"
       id="path15-1-3"
       style="stroke:#ffcc00" /><text
       xml:space="preserve"
       transform="scale(0.26458333)"
       id="text54"
       style="font-size:14.6667px;line-height:normal;font-family:'Liberation Mono';-inkscape-font-specification:'Liberation Mono';text-align:start;text-decoration-color:#000000;white-space:pre;shape-inside:url(#rect54);fill:#000000;stroke-width:1;-inkscape-stroke:none;stop-color:#000000"
       x="-47.251411"
       y="0"><tspan
         x="346.02734"
         y="3068.4017"
         id="tspan2">gw2Position
</tspan><tspan
         x="346.02734"
         y="3086.7352"
         id="tspan4">- <tspan
   style="fill:#ff80e5"
   id="tspan3">right</tspan>
</tspan><tspan
         x="346.02734"
         y="3105.0687"
         id="tspan6">- <tspan
   style="fill:#d4aa00"
   id="tspan5">left</tspan>
</tspan><tspan
         x="346.02734"
         y="3123.4022"
         id="tspan8">- <tspan
   style="fill:#ffccaa"
   id="tspan7">center</tspan></tspan></text></g></svg>
