<?xml version="1.0" encoding="UTF-8" standalone="no"?>
<!-- Created with Inkscape (http://www.inkscape.org/) -->

<svg
   width="600"
   height="3000"
   viewBox="0 0 158.75 793.75"
   version="1.1"
   id="svg1"
   inkscape:version="1.3.2 (1:1.3.2+202404261509+091e20ef0f)"
   sodipodi:docname="gearwheel_params.svg"
   xml:space="preserve"
   xmlns:inkscape="http://www.inkscape.org/namespaces/inkscape"
   xmlns:sodipodi="http://sodipodi.sourceforge.net/DTD/sodipodi-0.dtd"
   xmlns="http://www.w3.org/2000/svg"
   xmlns:svg="http://www.w3.org/2000/svg"><sodipodi:namedview
     id="namedview1"
     pagecolor="#ffffff"
     bordercolor="#000000"
     borderopacity="0.25"
     inkscape:showpageshadow="2"
     inkscape:pageopacity="0.0"
     inkscape:pagecheckerboard="0"
     inkscape:deskcolor="#d1d1d1"
     inkscape:document-units="px"
     inkscape:zoom="1.1162328"
     inkscape:cx="234.71807"
     inkscape:cy="666.52766"
     inkscape:window-width="1854"
     inkscape:window-height="1131"
     inkscape:window-x="0"
     inkscape:window-y="0"
     inkscape:window-maximized="1"
     inkscape:current-layer="layer1" /><defs
     id="defs1"><rect
       x="143.59562"
       y="621.70964"
       width="128.70352"
       height="25.887508"
       id="rect23" /><rect
       x="327.26482"
       y="794.9136"
       width="182.23091"
       height="27.824478"
       id="rect21" /><rect
       x="338.3486"
       y="413.54223"
       width="113.36262"
       height="28.242668"
       id="rect17" /><rect
       x="198.09237"
       y="446.36573"
       width="121.82614"
       height="29.252272"
       id="rect15" /><rect
       x="288.75901"
       y="429.57691"
       width="107.03553"
       height="41.30628"
       id="rect14" /><rect
       x="31.988877"
       y="416.04962"
       width="101.84403"
       height="32.232091"
       id="rect11" /><marker
       style="overflow:visible"
       id="marker11"
       refX="0"
       refY="0"
       orient="auto-start-reverse"
       inkscape:stockid="Wide arrow"
       markerWidth="1"
       markerHeight="1"
       viewBox="0 0 1 1"
       inkscape:isstock="true"
       inkscape:collect="always"
       preserveAspectRatio="xMidYMid"><path
         style="fill:none;stroke:context-stroke;stroke-width:1;stroke-linecap:butt"
         d="M 3,-3 0,0 3,3"
         transform="rotate(180,0.125,0)"
         sodipodi:nodetypes="ccc"
         id="path11" /></marker><marker
       style="overflow:visible"
       id="ArrowWide"
       refX="0"
       refY="0"
       orient="auto-start-reverse"
       inkscape:stockid="Wide arrow"
       markerWidth="1"
       markerHeight="1"
       viewBox="0 0 1 1"
       inkscape:isstock="true"
       inkscape:collect="always"
       preserveAspectRatio="xMidYMid"><path
         style="fill:none;stroke:context-stroke;stroke-width:1;stroke-linecap:butt"
         d="M 3,-3 0,0 3,3"
         transform="rotate(180,0.125,0)"
         sodipodi:nodetypes="ccc"
         id="path9" /></marker><rect
       x="321.23782"
       y="128.58017"
       width="58.683018"
       height="37.878525"
       id="rect3" /><rect
       x="253.62934"
       y="129.47779"
       width="54.168671"
       height="45.465429"
       id="rect2" /><rect
       x="7.2156889"
       y="12.397326"
       width="228.8284"
       height="44.373023"
       id="rect1" /></defs><g
     inkscape:label="Layer 1"
     inkscape:groupmode="layer"
     id="layer1"><rect
       style="fill:#ffffff;stroke:#ffffff;stroke-width:0.26458333"
       id="rect24"
       width="118.22455"
       height="103.92852"
       x="14.636751"
       y="150.03133"
       inkscape:export-filename="gearwheel_params_interaxis.svg"
       inkscape:export-xdpi="96"
       inkscape:export-ydpi="96" /><rect
       style="fill:#ffffff;stroke:#ffffff;stroke-width:0.264583;stroke-dasharray:none"
       id="rect18"
       width="125.87811"
       height="91.395905"
       x="9.4410191"
       y="32.99704"
       inkscape:export-filename="gearwheel_params_main.svg"
       inkscape:export-xdpi="96"
       inkscape:export-ydpi="96" /><text
       xml:space="preserve"
       transform="matrix(0.26458333,0,0,0.26458333,3.1662052,0.57876869)"
       id="text1"
       style="font-size:14.6667px;line-height:normal;font-family:'Liberation Mono';-inkscape-font-specification:'Liberation Mono';text-align:start;text-decoration-color:#000000;white-space:pre;shape-inside:url(#rect1);display:inline;fill:#000000;stroke-width:1;-inkscape-stroke:none;stop-color:#000000"
       x="-86.875854"
       y="0"><tspan
         x="7.2148438"
         y="25.446585"
         id="tspan8">gearwheel_params.svg</tspan></text><g
       id="main"
       transform="matrix(0.26458333,0,0,0.26458333,48.699493,76.596497)"><path
         d="m 104.3731,3.4921 0.5682,0.019 a 26.0224,26.0224 0 0 0 3.459,-0.8302 42.9681,42.9681 0 0 0 4.2826,-1.5981 50.6794,50.6794 0 0 0 5.8669,-3.0211 67.4462,67.4462 0 0 0 6.2954,-4.2807 l -0.316,-4.6197 a 67.4462,67.4462 0 0 0 -6.8196,-3.3835 50.6794,50.6794 0 0 0 -6.2237,-2.1942 42.9681,42.9681 0 0 0 -4.4603,-1.0001 26.0224,26.0224 0 0 0 -3.5398,-0.3514 l -0.5604,0.0962 a 2,2 0 0 1 -2.2966,-1.5642 l -0.6673,-3.2113 a 2,2 0 0 1 1.4833,-2.3497 l 0.5523,-0.135 a 26.0224,26.0224 0 0 0 3.1067,-1.7326 42.9681,42.9681 0 0 0 3.6926,-2.6943 50.6794,50.6794 0 0 0 4.8343,-4.492 67.4462,67.4462 0 0 0 4.907,-5.8204 l -1.5506,-4.3631 a 67.4462,67.4462 0 0 0 -7.4796,-1.4182 50.6794,50.6794 0 0 0 -6.5849,-0.4336 42.9681,42.9681 0 0 0 -4.5647,0.2403 26.0224,26.0224 0 0 0 -3.5034,0.6167 l -0.5136,0.2438 a 2,2 0 0 1 -2.6334,-0.8867 l -1.509,-2.9121 a 2,2 0 0 1 0.7943,-2.6628 l 0.4954,-0.279 a 26.0224,26.0224 0 0 0 2.5241,-2.5065 42.9681,42.9681 0 0 0 2.8287,-3.5906 50.6794,50.6794 0 0 0 3.4431,-5.6297 67.4462,67.4462 0 0 0 3.1548,-6.9285 l -2.6703,-3.783 a 67.4462,67.4462 0 0 0 -7.5849,0.6524 50.6794,50.6794 0 0 0 -6.4577,1.359 42.9681,42.9681 0 0 0 -4.3306,1.463 26.0224,26.0224 0 0 0 -3.2071,1.539 l -0.4287,0.3734 a 2,2 0 0 1 -2.7751,-0.1433 l -2.2386,-2.397 a 2,2 0 0 1 0.0464,-2.7784 l 0.4017,-0.4023 a 26.0224,26.0224 0 0 0 1.7543,-3.0946 42.9681,42.9681 0 0 0 1.7551,-4.2206 50.6794,50.6794 0 0 0 1.7965,-6.3499 67.4462,67.4462 0 0 0 1.1685,-7.5226 l -3.5919,-2.9223 a 67.4462,67.4462 0 0 0 -7.1276,2.6746 50.6794,50.6794 0 0 0 -5.8515,3.0509 42.9681,42.9681 0 0 0 -3.7753,2.5771 26.0224,26.0224 0 0 0 -2.673,2.3472 l -0.3121,0.4751 a 2,2 0 0 1 -2.7108,0.6108 l -2.8024,-1.7042 a 2,2 0 0 1 -0.7048,-2.6878 l 0.2783,-0.4958 a 26.0224,26.0224 0 0 0 0.8543,-3.4531 42.9681,42.9681 0 0 0 0.5513,-4.5377 50.6794,50.6794 0 0 0 0.0167,-6.5991 67.4462,67.4462 0 0 0 -0.9044,-7.5589 l -4.2472,-1.8448 a 67.4462,67.4462 0 0 0 -6.1417,4.4984 50.6794,50.6794 0 0 0 -4.8114,4.5164 42.9681,42.9681 0 0 0 -2.94,3.5001 26.0224,26.0224 0 0 0 -1.9406,2.9813 l -0.1723,0.5418 a 2,2 0 0 1 -2.4455,1.3195 l -3.1582,-0.8849 a 2,2 0 0 1 -1.4039,-2.398 l 0.1342,-0.5525 a 26.0224,26.0224 0 0 0 -0.109,-3.5556 42.9681,42.9681 0 0 0 -0.6934,-4.5181 50.6794,50.6794 0 0 0 -1.7643,-6.3589 67.4462,67.4462 0 0 0 -2.9103,-7.0346 l -4.5874,-0.6306 a 67.4462,67.4462 0 0 0 -4.7003,5.9886 50.6794,50.6794 0 0 0 -3.4144,5.6471 42.9681,42.9681 0 0 0 -1.8867,4.1635 26.0224,26.0224 0 0 0 -1.0643,3.3944 l -0.0198,0.5681 a 2,2 0 0 1 -1.9988,1.9303 h -3.2798 a 2,2 0 0 1 -1.9988,-1.9303 l -0.0198,-0.5681 a 26.0224,26.0224 0 0 0 -1.0643,-3.3944 42.9681,42.9681 0 0 0 -1.8867,-4.1635 50.6794,50.6794 0 0 0 -3.4144,-5.6471 67.4462,67.4462 0 0 0 -4.7003,-5.9886 l -4.5874,0.6306 a 67.4462,67.4462 0 0 0 -2.9103,7.0346 50.6794,50.6794 0 0 0 -1.7643,6.3589 42.9681,42.9681 0 0 0 -0.6934,4.5181 26.0224,26.0224 0 0 0 -0.109,3.5556 l 0.1342,0.5525 a 2,2 0 0 1 -1.4039,2.398 l -3.1582,0.8849 a 2,2 0 0 1 -2.4455,-1.3195 l -0.1723,-0.5418 a 26.0224,26.0224 0 0 0 -1.9406,-2.9813 42.9681,42.9681 0 0 0 -2.94,-3.5001 50.6794,50.6794 0 0 0 -4.8114,-4.5164 67.4462,67.4462 0 0 0 -6.1417,-4.4984 l -4.2472,1.8448 a 67.4462,67.4462 0 0 0 -0.9044,7.5589 50.6794,50.6794 0 0 0 0.0167,6.5991 42.9681,42.9681 0 0 0 0.5513,4.5377 26.0224,26.0224 0 0 0 0.8543,3.4531 l 0.2783,0.4958 a 2,2 0 0 1 -0.7048,2.6878 l -2.8024,1.7042 a 2,2 0 0 1 -2.7108,-0.6108 l -0.3121,-0.4751 a 26.0224,26.0224 0 0 0 -2.673,-2.3472 42.9681,42.9681 0 0 0 -3.7753,-2.5771 50.6794,50.6794 0 0 0 -5.8515,-3.0509 67.4462,67.4462 0 0 0 -7.1276,-2.6746 l -3.5919,2.9223 a 67.4462,67.4462 0 0 0 1.1685,7.5226 50.6794,50.6794 0 0 0 1.7965,6.3499 42.9681,42.9681 0 0 0 1.7551,4.2206 26.0224,26.0224 0 0 0 1.7543,3.0946 l 0.4017,0.4023 a 2,2 0 0 1 0.0464,2.7784 l -2.2386,2.397 a 2,2 0 0 1 -2.7751,0.1433 l -0.4287,-0.3734 a 26.0224,26.0224 0 0 0 -3.2071,-1.539 42.9681,42.9681 0 0 0 -4.3306,-1.463 50.6794,50.6794 0 0 0 -6.4577,-1.359 67.4462,67.4462 0 0 0 -7.5849,-0.6524 l -2.6703,3.783 a 67.4462,67.4462 0 0 0 3.1548,6.9285 50.6794,50.6794 0 0 0 3.4431,5.6297 42.9681,42.9681 0 0 0 2.8287,3.5906 26.0224,26.0224 0 0 0 2.5241,2.5065 l 0.4954,0.279 a 2,2 0 0 1 0.7943,2.6628 l -1.509,2.9121 a 2,2 0 0 1 -2.6334,0.8867 l -0.5136,-0.2438 a 26.0224,26.0224 0 0 0 -3.5034,-0.6167 42.9681,42.9681 0 0 0 -4.5647,-0.2403 50.6794,50.6794 0 0 0 -6.5849,0.4336 67.4462,67.4462 0 0 0 -7.4796,1.4182 l -1.5506,4.3631 a 67.4462,67.4462 0 0 0 4.907,5.8204 50.6794,50.6794 0 0 0 4.8343,4.492 42.9681,42.9681 0 0 0 3.6926,2.6943 26.0224,26.0224 0 0 0 3.1067,1.7326 l 0.5523,0.135 a 2,2 0 0 1 1.4833,2.3497 l -0.6673,3.2113 a 2,2 0 0 1 -2.2966,1.5642 l -0.5604,-0.0962 a 26.0224,26.0224 0 0 0 -3.5398,0.3514 42.9681,42.9681 0 0 0 -4.4603,1.0001 50.6794,50.6794 0 0 0 -6.2237,2.1942 67.4462,67.4462 0 0 0 -6.8196,3.3835 l -0.316,4.6197 a 67.4462,67.4462 0 0 0 6.2954,4.2807 50.6794,50.6794 0 0 0 5.8669,3.0211 42.9681,42.9681 0 0 0 4.2826,1.5981 26.0224,26.0224 0 0 0 3.459,0.8302 l 0.5682,-0.019 a 2,2 0 0 1 2.0622,1.8624 l 0.2239,3.2722 a 2,2 0 0 1 -1.7895,2.1259 l -0.5654,0.0585 a 26.0224,26.0224 0 0 0 -3.3138,1.2934 42.9681,42.9681 0 0 0 -4.0251,2.1664 50.6794,50.6794 0 0 0 -5.4009,3.7919 67.4462,67.4462 0 0 0 -5.6539,5.098 l 0.9421,4.5337 a 67.4462,67.4462 0 0 0 7.2169,2.4234 50.6794,50.6794 0 0 0 6.4645,1.3262 42.9681,42.9681 0 0 0 4.5549,0.3835 26.0224,26.0224 0 0 0 3.5547,-0.1339 l 0.542,-0.1716 a 2,2 0 0 1 2.4882,1.237 l 1.0984,3.0905 a 2,2 0 0 1 -1.1495,2.5298 l -0.5288,0.2089 a 26.0224,26.0224 0 0 0 -2.8419,2.1395 42.9681,42.9681 0 0 0 -3.2913,3.172 50.6794,50.6794 0 0 0 -4.1776,5.1084 67.4462,67.4462 0 0 0 -4.0688,6.4344 l 2.1304,4.1113 a 67.4462,67.4462 0 0 0 7.603,0.3865 50.6794,50.6794 0 0 0 6.5826,-0.467 42.9681,42.9681 0 0 0 4.4894,-0.8597 26.0224,26.0224 0 0 0 3.3868,-1.0879 l 0.4756,-0.3115 a 2,2 0 0 1 2.7297,0.5198 l 1.8915,2.6795 a 2,2 0 0 1 -0.4244,2.7461 l -0.4527,0.3439 a 26.0224,26.0224 0 0 0 -2.1593,2.8269 42.9681,42.9681 0 0 0 -2.3135,3.9423 50.6794,50.6794 0 0 0 -2.6445,6.0461 67.4462,67.4462 0 0 0 -2.1819,7.2935 l 3.1606,3.3842 a 67.4462,67.4462 0 0 0 7.4254,-1.6792 50.6794,50.6794 0 0 0 6.2124,-2.2256 42.9681,42.9681 0 0 0 4.0911,-2.0391 26.0224,26.0224 0 0 0 2.9676,-1.9613 l 0.374,-0.4283 a 2,2 0 0 1 2.7686,-0.2359 l 2.5443,2.0699 a 2,2 0 0 1 0.3323,2.7587 l -0.3432,0.4533 a 26.0224,26.0224 0 0 0 -1.3166,3.3046 42.9681,42.9681 0 0 0 -1.164,4.4204 50.6794,50.6794 0 0 0 -0.9152,6.5353 67.4462,67.4462 0 0 0 -0.1333,7.6117 l 3.9565,2.406 a 67.4462,67.4462 0 0 0 6.697,-3.6202 50.6794,50.6794 0 0 0 5.3816,-3.8193 42.9681,42.9681 0 0 0 3.3892,-3.0672 26.0224,26.0224 0 0 0 2.3284,-2.6893 l 0.2446,-0.5132 a 2,2 0 0 1 2.6023,-0.9742 l 3.0084,1.3067 a 2,2 0 0 1 1.0642,2.5668 l -0.2082,0.5291 a 26.0224,26.0224 0 0 0 -0.3761,3.5373 42.9681,42.9681 0 0 0 0.0717,4.5704 50.6794,50.6794 0 0 0 0.882,6.54 67.4462,67.4462 0 0 0 1.9253,7.3654 l 4.4588,1.2493 a 67.4462,67.4462 0 0 0 5.4719,-5.2928 50.6794,50.6794 0 0 0 4.1517,-5.1296 42.9681,42.9681 0 0 0 2.436,-3.8678 26.0224,26.0224 0 0 0 1.5165,-3.2178 l 0.097,-0.5602 a 2,2 0 0 1 2.243,-1.6402 l 3.2494,0.4467 a 2,2 0 0 1 1.7173,2.1845 l -0.0578,0.5655 a 26.0224,26.0224 0 0 0 0.5922,3.5076 42.9681,42.9681 0 0 0 1.3022,4.3817 50.6794,50.6794 0 0 0 2.6137,6.0594 67.4462,67.4462 0 0 0 3.841,6.5729 h 4.6306 a 67.4462,67.4462 0 0 0 3.841,-6.5729 50.6794,50.6794 0 0 0 2.6137,-6.0594 42.9681,42.9681 0 0 0 1.3022,-4.3817 26.0224,26.0224 0 0 0 0.5922,-3.5076 l -0.0578,-0.5655 a 2,2 0 0 1 1.7173,-2.1845 l 3.2494,-0.4467 a 2,2 0 0 1 2.243,1.6402 l 0.097,0.5602 a 26.0224,26.0224 0 0 0 1.5165,3.2178 42.9681,42.9681 0 0 0 2.436,3.8678 50.6794,50.6794 0 0 0 4.1517,5.1296 67.4462,67.4462 0 0 0 5.4719,5.2928 l 4.4588,-1.2493 a 67.4462,67.4462 0 0 0 1.9253,-7.3654 50.6794,50.6794 0 0 0 0.882,-6.54 42.9681,42.9681 0 0 0 0.0717,-4.5704 26.0224,26.0224 0 0 0 -0.3761,-3.5373 l -0.2082,-0.5291 a 2,2 0 0 1 1.0642,-2.5668 l 3.0084,-1.3067 a 2,2 0 0 1 2.6023,0.9742 l 0.2446,0.5132 a 26.0224,26.0224 0 0 0 2.3284,2.6893 42.9681,42.9681 0 0 0 3.3892,3.0672 50.6794,50.6794 0 0 0 5.3816,3.8193 67.4462,67.4462 0 0 0 6.697,3.6202 l 3.9565,-2.406 a 67.4462,67.4462 0 0 0 -0.1333,-7.6117 50.6794,50.6794 0 0 0 -0.9152,-6.5353 42.9681,42.9681 0 0 0 -1.164,-4.4204 26.0224,26.0224 0 0 0 -1.3166,-3.3046 l -0.3432,-0.4533 a 2,2 0 0 1 0.3323,-2.7587 l 2.5443,-2.0699 a 2,2 0 0 1 2.7686,0.2359 l 0.374,0.4283 a 26.0224,26.0224 0 0 0 2.9676,1.9613 42.9681,42.9681 0 0 0 4.0911,2.0391 50.6794,50.6794 0 0 0 6.2124,2.2256 67.4462,67.4462 0 0 0 7.4254,1.6792 l 3.1606,-3.3842 a 67.4462,67.4462 0 0 0 -2.1819,-7.2935 50.6794,50.6794 0 0 0 -2.6445,-6.0461 42.9681,42.9681 0 0 0 -2.3135,-3.9423 26.0224,26.0224 0 0 0 -2.1593,-2.8269 l -0.4527,-0.3439 a 2,2 0 0 1 -0.4244,-2.7461 l 1.8915,-2.6795 a 2,2 0 0 1 2.7297,-0.5198 l 0.4756,0.3115 a 26.0224,26.0224 0 0 0 3.3868,1.0879 42.9681,42.9681 0 0 0 4.4894,0.8597 50.6794,50.6794 0 0 0 6.5826,0.467 67.4462,67.4462 0 0 0 7.603,-0.3865 l 2.1304,-4.1113 a 67.4462,67.4462 0 0 0 -4.0688,-6.4344 50.6794,50.6794 0 0 0 -4.1776,-5.1084 42.9681,42.9681 0 0 0 -3.2913,-3.172 26.0224,26.0224 0 0 0 -2.8419,-2.1395 l -0.5288,-0.2089 a 2,2 0 0 1 -1.1495,-2.5298 l 1.0984,-3.0905 a 2,2 0 0 1 2.4882,-1.237 l 0.542,0.1716 a 26.0224,26.0224 0 0 0 3.5547,0.1339 42.9681,42.9681 0 0 0 4.5549,-0.3835 50.6794,50.6794 0 0 0 6.4645,-1.3262 67.4462,67.4462 0 0 0 7.2169,-2.4234 l 0.9421,-4.5337 a 67.4462,67.4462 0 0 0 -5.6539,-5.098 50.6794,50.6794 0 0 0 -5.4009,-3.7919 42.9681,42.9681 0 0 0 -4.0251,-2.1664 26.0224,26.0224 0 0 0 -3.3138,-1.2934 l -0.5654,-0.0585 A 2,2 0 0 1 102.087,8.6267 l 0.2239,-3.2722 a 2,2 0 0 1 2.0622,-1.8624 z"
         stroke="#4682b4"
         stroke-width="1"
         fill="none"
         id="path1" /><path
         d="M 16,-4 H 10.3923 A 2,2 0 0 1 8.6603,-5 10,10 0 0 0 7.4314,-6.6913 2,2 0 0 1 7.0156,-8.6476 l 1.7329,-5.3332 A 2,2 0 0 0 7.4644,-16.501 L 3.6602,-17.7371 A 2,2 0 0 0 1.14,-16.453 l -1.7328,5.3333 a 2,2 0 0 1 -1.4863,1.3382 10,10 0 0 0 -1.9883,0.646 2,2 0 0 1 -1.989,-0.209 l -4.5367,-3.2961 a 2,2 0 0 0 -2.7936,0.4424 l -2.3512,3.2361 a 2,2 0 0 0 0.4425,2.7936 l 4.5367,3.2961 a 2,2 0 0 1 0.8135,1.8271 10,10 0 0 0 0,2.0906 2,2 0 0 1 -0.8135,1.8271 l -4.5367,3.2961 a 2,2 0 0 0 -0.4425,2.7936 l 2.3512,3.2361 a 2,2 0 0 0 2.7936,0.4424 l 4.5367,-3.2961 a 2,2 0 0 1 1.989,-0.209 10,10 0 0 0 1.9883,0.646 2,2 0 0 1 1.4863,1.3382 L 1.14,16.453 a 2,2 0 0 0 2.5202,1.2841 L 7.4644,16.501 A 2,2 0 0 0 8.7485,13.9808 L 7.0156,8.6476 A 2,2 0 0 1 7.4314,6.6913 10,10 0 0 0 8.6603,5 2,2 0 0 1 10.3923,4 H 16 a 2,2 0 0 0 2,-2 v -4 a 2,2 0 0 0 -2,-2 z"
         stroke="#4682b4"
         stroke-width="1"
         fill="none"
         id="path2" /><path
         d="m 80.0605,-19.9138 a 82.5,82.5 0 0 0 -36.3813,-50.0746 10,10 0 0 0 -14.805,5.3933 l -9.6038,29.5573 a 10,10 0 0 0 2.8174,10.5198 33,33 0 0 1 8.0557,11.0878 10,10 0 0 0 9.1344,5.9302 h 31.0783 a 10,10 0 0 0 9.7043,-12.4138 z"
         stroke="#4682b4"
         stroke-width="1"
         fill="none"
         id="path3" /><path
         d="m 5.8009,-82.2958 a 82.5,82.5 0 0 0 -58.8662,19.1268 10,10 0 0 0 0.5543,15.747 l 25.1429,18.2674 a 10,10 0 0 0 10.8756,0.5714 33,33 0 0 1 13.0344,-4.2351 10,10 0 0 0 8.4627,-6.8548 l 9.6037,-29.5573 A 10,10 0 0 0 5.8009,-82.2958 Z"
         stroke="#4682b4"
         stroke-width="1"
         fill="none"
         id="path4" /><path
         d="m -76.4754,-30.9478 a 82.5,82.5 0 0 0 0,61.8956 10,10 0 0 0 15.1476,4.3389 l 25.143,-18.2674 a 10,10 0 0 0 3.9041,-10.1667 33,33 0 0 1 0,-13.7052 10,10 0 0 0 -3.9041,-10.1667 l -25.143,-18.2674 a 10,10 0 0 0 -15.1476,4.3389 z"
         stroke="#4682b4"
         stroke-width="1"
         fill="none"
         id="path5" /><path
         d="M -53.0653,63.169 A 82.5,82.5 0 0 0 5.8009,82.2958 10,10 0 0 0 14.6083,69.2304 L 5.0046,39.6731 a 10,10 0 0 0 -8.4627,-6.8548 33,33 0 0 1 -13.0344,-4.2351 10,10 0 0 0 -10.8756,0.5714 L -52.511,47.422 a 10,10 0 0 0 -0.5543,15.747 z"
         stroke="#4682b4"
         stroke-width="1"
         fill="none"
         id="path6" /><path
         d="M 43.6792,69.9884 A 82.5,82.5 0 0 0 80.0605,19.9138 10,10 0 0 0 70.3562,7.5 H 39.2779 a 10,10 0 0 0 -9.1344,5.9302 33,33 0 0 1 -8.0557,11.0878 10,10 0 0 0 -2.8174,10.5198 l 9.6038,29.5573 a 10,10 0 0 0 14.805,5.3933 z"
         stroke="#4682b4"
         stroke-width="1"
         fill="none"
         id="path7" /></g><g
       id="second"
       transform="matrix(0.26458333,0,0,0.26458333,48.699493,76.596497)"><path
         d="m 129.2253,24.5019 -0.5655,0.1715 a 7.7281,7.7281 0 0 0 -1.7055,0.7523 30.8447,30.8447 0 0 0 -3.0806,2.0927 36.9994,36.9994 0 0 0 -5.4055,5.1158 57.7947,57.7947 0 0 0 -5.4922,7.5073 l 1.7784,4.0543 a 57.7947,57.7947 0 0 0 9.243,1.0437 36.9994,36.9994 0 0 0 7.4249,-0.5121 30.8447,30.8447 0 0 0 3.6261,-0.849 7.7281,7.7281 0 0 0 1.7086,-0.7453 l 0.5092,-0.2999 a 2,2 0 0 1 2.6892,0.6295 l 2.106,3.2235 a 2,2 0 0 1 -0.5038,2.7156 l -0.4791,0.3458 a 7.7281,7.7281 0 0 0 -1.3689,1.2654 30.8447,30.8447 0 0 0 -2.2341,2.9796 36.9994,36.9994 0 0 0 -3.4515,6.5938 57.7947,57.7947 0 0 0 -2.7571,8.8838 l 2.9985,3.2572 a 57.7947,57.7947 0 0 0 9.0811,-2.0141 36.9994,36.9994 0 0 0 6.8563,-2.8952 30.8447,30.8447 0 0 0 3.1539,-1.9804 7.7281,7.7281 0 0 0 1.3741,-1.2597 l 0.3842,-0.449 a 2,2 0 0 1 2.7479,-0.2778 l 3.0386,2.3651 a 2,2 0 0 1 0.4053,2.732 l -0.3409,0.4826 a 7.7281,7.7281 0 0 0 -0.8839,1.6413 30.8447,30.8447 0 0 0 -1.1456,3.5436 36.9994,36.9994 0 0 0 -1.1235,7.3572 57.7947,57.7947 0 0 0 0.2769,9.2977 l 3.8936,2.1071 a 57.7947,57.7947 0 0 0 7.9352,-4.8536 36.9994,36.9994 0 0 0 5.5447,-4.9645 30.8447,30.8447 0 0 0 2.34,-2.8972 7.7281,7.7281 0 0 0 0.8906,-1.6377 l 0.2176,-0.5493 a 2,2 0 0 1 2.5088,-1.155 l 3.6419,1.2502 a 2,2 0 0 1 1.2704,2.4524 l -0.1657,0.5672 a 7.7281,7.7281 0 0 0 -0.3031,1.8393 30.8447,30.8447 0 0 0 0.0671,3.7236 36.9994,36.9994 0 0 0 1.3263,7.3234 57.7947,57.7947 0 0 0 3.2808,8.704 l 4.3668,0.7287 a 57.7947,57.7947 0 0 0 5.9293,-7.1671 36.9994,36.9994 0 0 0 3.6323,-6.496 30.8447,30.8447 0 0 0 1.2724,-3.5 7.7281,7.7281 0 0 0 0.3106,-1.8381 l 0.0275,-0.5902 a 2,2 0 0 1 1.9978,-1.9071 h 3.8506 a 2,2 0 0 1 1.9978,1.9071 l 0.0275,0.5902 a 7.7281,7.7281 0 0 0 0.3106,1.8381 30.8447,30.8447 0 0 0 1.2724,3.5 36.9994,36.9994 0 0 0 3.6323,6.496 57.7947,57.7947 0 0 0 5.9293,7.1671 l 4.3668,-0.7287 a 57.7947,57.7947 0 0 0 3.2808,-8.704 36.9994,36.9994 0 0 0 1.3263,-7.3234 30.8447,30.8447 0 0 0 0.0671,-3.7236 7.7281,7.7281 0 0 0 -0.3031,-1.8393 l -0.1657,-0.5672 a 2,2 0 0 1 1.2704,-2.4524 l 3.6419,-1.2502 a 2,2 0 0 1 2.5088,1.155 l 0.2176,0.5493 a 7.7281,7.7281 0 0 0 0.8906,1.6377 30.8447,30.8447 0 0 0 2.34,2.8972 36.9994,36.9994 0 0 0 5.5447,4.9645 57.7947,57.7947 0 0 0 7.9352,4.8536 l 3.8936,-2.1071 a 57.7947,57.7947 0 0 0 0.2769,-9.2977 36.9994,36.9994 0 0 0 -1.1235,-7.3572 30.8447,30.8447 0 0 0 -1.1456,-3.5436 7.7281,7.7281 0 0 0 -0.8839,-1.6413 l -0.3409,-0.4826 a 2,2 0 0 1 0.4053,-2.732 l 3.0386,-2.3651 a 2,2 0 0 1 2.7479,0.2778 l 0.3842,0.449 a 7.7281,7.7281 0 0 0 1.3741,1.2597 30.8447,30.8447 0 0 0 3.1539,1.9804 36.9994,36.9994 0 0 0 6.8563,2.8952 57.7947,57.7947 0 0 0 9.0811,2.0141 l 2.9985,-3.2572 a 57.7947,57.7947 0 0 0 -2.7571,-8.8838 36.9994,36.9994 0 0 0 -3.4515,-6.5938 30.8447,30.8447 0 0 0 -2.2341,-2.9796 7.7281,7.7281 0 0 0 -1.3689,-1.2654 l -0.4791,-0.3458 a 2,2 0 0 1 -0.5038,-2.7156 l 2.106,-3.2235 a 2,2 0 0 1 2.6892,-0.6295 l 0.5092,0.2999 a 7.7281,7.7281 0 0 0 1.7086,0.7453 30.8447,30.8447 0 0 0 3.6261,0.849 36.9994,36.9994 0 0 0 7.4249,0.5121 57.7947,57.7947 0 0 0 9.243,-1.0437 l 1.7784,-4.0543 a 57.7947,57.7947 0 0 0 -5.4922,-7.5073 36.9994,36.9994 0 0 0 -5.4055,-5.1158 30.8447,30.8447 0 0 0 -3.0806,-2.0927 7.7281,7.7281 0 0 0 -1.7055,-0.7523 l -0.5655,-0.1715 a 2,2 0 0 1 -1.3582,-2.4049 l 0.9452,-3.7327 a 2,2 0 0 1 2.3392,-1.4685 l 0.5789,0.1182 a 7.7281,7.7281 0 0 0 1.858,0.1502 30.8447,30.8447 0 0 0 3.7053,-0.3743 36.9994,36.9994 0 0 0 7.1889,-1.9266 57.7947,57.7947 0 0 0 8.4033,-3.9883 l 0.3656,-4.4121 a 57.7947,57.7947 0 0 0 -7.6322,-5.3172 36.9994,36.9994 0 0 0 -6.7738,-3.0835 30.8447,30.8447 0 0 0 -3.5931,-0.979 7.7281,7.7281 0 0 0 -1.8574,-0.1578 l -0.5905,0.0214 a 2,2 0 0 1 -2.0655,-1.8335 l -0.318,-3.8374 a 2,2 0 0 1 1.7355,-2.1485 l 0.586,-0.0761 a 7.7281,7.7281 0 0 0 1.8061,-0.4613 30.8447,30.8447 0 0 0 3.383,-1.5572 36.9994,36.9994 0 0 0 6.1738,-4.1563 57.7947,57.7947 0 0 0 6.653,-6.5009 l -1.0868,-4.2917 a 57.7947,57.7947 0 0 0 -8.9452,-2.5509 36.9994,36.9994 0 0 0 -7.4079,-0.717 30.8447,30.8447 0 0 0 -3.7164,0.2407 7.7281,7.7281 0 0 0 -1.808,0.4539 l -0.5515,0.212 a 2,2 0 0 1 -2.549,-1.0636 l -1.5467,-3.5262 a 2,2 0 0 1 0.9439,-2.5956 l 0.5295,-0.2622 a 7.7281,7.7281 0 0 0 1.5585,-1.0228 30.8447,30.8447 0 0 0 2.6941,-2.5712 36.9994,36.9994 0 0 0 4.4897,-5.9358 57.7947,57.7947 0 0 0 4.1817,-8.3088 l -2.4215,-3.7064 a 57.7947,57.7947 0 0 0 -9.2888,0.4919 36.9994,36.9994 0 0 0 -7.2393,1.7272 30.8447,30.8447 0 0 0 -3.4368,1.4343 7.7281,7.7281 0 0 0 -1.5627,1.0164 l -0.4529,0.3796 a 2,2 0 0 1 -2.7561,-0.1783 l -2.6079,-2.8329 a 2,2 0 0 1 0.0499,-2.7615 l 0.4157,-0.4199 a 7.7281,7.7281 0 0 0 1.142,-1.4734 30.8447,30.8447 0 0 0 1.7132,-3.3067 36.9994,36.9994 0 0 0 2.3191,-7.072 57.7947,57.7947 0 0 0 1.2573,-9.2164 l -3.4937,-2.7193 a 57.7947,57.7947 0 0 0 -8.6258,3.4813 36.9994,36.9994 0 0 0 -6.2863,3.9842 30.8447,30.8447 0 0 0 -2.7849,2.4726 7.7281,7.7281 0 0 0 -1.148,1.4687 l -0.3051,0.506 a 2,2 0 0 1 -2.6647,0.7263 l -3.3864,-1.8326 a 2,2 0 0 1 -0.8494,-2.6281 l 0.2568,-0.5321 a 7.7281,7.7281 0 0 0 0.6017,-1.7644 30.8447,30.8447 0 0 0 0.5467,-3.6838 36.9994,36.9994 0 0 0 -0.1028,-7.4418 57.7947,57.7947 0 0 0 -1.8035,-9.1253 l -4.1873,-1.4375 a 57.7947,57.7947 0 0 0 -7.0281,6.0934 36.9994,36.9994 0 0 0 -4.6519,5.8095 30.8447,30.8447 0 0 0 -1.8312,3.2429 7.7281,7.7281 0 0 0 -0.6089,1.7618 l -0.1242,0.5777 a 2,2 0 0 1 -2.2845,1.5522 l -3.798,-0.6338 a 2,2 0 0 1 -1.6567,-2.2098 l 0.07,-0.5868 a 7.7281,7.7281 0 0 0 -0.004,-1.8641 30.8447,30.8447 0 0 0 -0.679,-3.6617 36.9994,36.9994 0 0 0 -2.5136,-7.0052 57.7947,57.7947 0 0 0 -4.6687,-8.0453 h -4.4272 a 57.7947,57.7947 0 0 0 -4.6687,8.0453 36.9994,36.9994 0 0 0 -2.5136,7.0052 30.8447,30.8447 0 0 0 -0.679,3.6617 7.7281,7.7281 0 0 0 -0.004,1.8641 l 0.07,0.5868 a 2,2 0 0 1 -1.6567,2.2098 l -3.798,0.6338 a 2,2 0 0 1 -2.2845,-1.5522 l -0.1242,-0.5777 a 7.7281,7.7281 0 0 0 -0.6089,-1.7618 30.8447,30.8447 0 0 0 -1.8312,-3.2429 36.9994,36.9994 0 0 0 -4.6519,-5.8095 57.7947,57.7947 0 0 0 -7.0281,-6.0934 l -4.1873,1.4375 a 57.7947,57.7947 0 0 0 -1.8035,9.1253 36.9994,36.9994 0 0 0 -0.1028,7.4418 30.8447,30.8447 0 0 0 0.5467,3.6838 7.7281,7.7281 0 0 0 0.6017,1.7644 l 0.2568,0.5321 a 2,2 0 0 1 -0.8494,2.6281 l -3.3864,1.8326 a 2,2 0 0 1 -2.6647,-0.7263 l -0.3051,-0.506 a 7.7281,7.7281 0 0 0 -1.148,-1.4687 30.8447,30.8447 0 0 0 -2.7849,-2.4726 36.9994,36.9994 0 0 0 -6.2863,-3.9842 57.7947,57.7947 0 0 0 -8.6258,-3.4813 l -3.4937,2.7193 a 57.7947,57.7947 0 0 0 1.2573,9.2164 36.9994,36.9994 0 0 0 2.3191,7.072 30.8447,30.8447 0 0 0 1.7132,3.3067 7.7281,7.7281 0 0 0 1.142,1.4734 l 0.4157,0.4199 a 2,2 0 0 1 0.0499,2.7615 l -2.6079,2.8329 a 2,2 0 0 1 -2.7561,0.1783 l -0.4529,-0.3796 a 7.7281,7.7281 0 0 0 -1.5627,-1.0164 30.8447,30.8447 0 0 0 -3.4368,-1.4343 36.9994,36.9994 0 0 0 -7.2393,-1.7272 57.7947,57.7947 0 0 0 -9.2888,-0.4919 l -2.4215,3.7064 a 57.7947,57.7947 0 0 0 4.1817,8.3088 36.9994,36.9994 0 0 0 4.4897,5.9358 30.8447,30.8447 0 0 0 2.6941,2.5712 7.7281,7.7281 0 0 0 1.5585,1.0228 l 0.5295,0.2622 a 2,2 0 0 1 0.9439,2.5956 l -1.5467,3.5262 a 2,2 0 0 1 -2.549,1.0636 l -0.5515,-0.212 a 7.7281,7.7281 0 0 0 -1.808,-0.4539 30.8447,30.8447 0 0 0 -3.7164,-0.2407 36.9994,36.9994 0 0 0 -7.4079,0.717 57.7947,57.7947 0 0 0 -8.9452,2.5509 l -1.0868,4.2917 a 57.7947,57.7947 0 0 0 6.653,6.5009 36.9994,36.9994 0 0 0 6.1738,4.1563 30.8447,30.8447 0 0 0 3.383,1.5572 7.7281,7.7281 0 0 0 1.8061,0.4613 l 0.586,0.0761 a 2,2 0 0 1 1.7355,2.1485 l -0.318,3.8374 a 2,2 0 0 1 -2.0655,1.8335 l -0.5905,-0.0214 a 7.7281,7.7281 0 0 0 -1.8574,0.1578 30.8447,30.8447 0 0 0 -3.5931,0.979 36.9994,36.9994 0 0 0 -6.7738,3.0835 57.7947,57.7947 0 0 0 -7.6322,5.3172 l 0.3656,4.4121 a 57.7947,57.7947 0 0 0 8.4033,3.9883 36.9994,36.9994 0 0 0 7.1889,1.9266 30.8447,30.8447 0 0 0 3.7053,0.3743 7.7281,7.7281 0 0 0 1.858,-0.1502 l 0.5789,-0.1182 a 2,2 0 0 1 2.3392,1.4685 l 0.9452,3.7327 a 2,2 0 0 1 -1.3582,2.4049 z"
         stroke="#ee82ee"
         stroke-width="1"
         fill="none"
         id="path15" /></g><g
       id="main-3"
       transform="matrix(0.26458333,0,0,0.26458333,229.60975,170.99149)"><path
         d="m 0,66 h 16 a 4,4 0 0 0 4,-4 V 26 h 40 l 62.3621,-5.6693 A 4,4 0 0 0 126,16.3471 v -32.6942 a 4,4 0 0 0 -3.6379,-3.9836 L 60,-26 H 20 v -36 a 4,4 0 0 0 -4,-4 H 0 Z"
         stroke="#4682b4"
         stroke-width="1"
         fill="none"
         id="path1-6" /></g><g
       id="second-5"
       transform="matrix(0.26458333,0,0,0.26458333,229.60975,170.99149)"><path
         d="m 0,66 h -16 a 4,4 0 0 1 -4,-4 V 26 h -40 l -62.3621,-5.6693 A 4,4 0 0 1 -126,16.3471 v -32.6942 a 4,4 0 0 1 3.6379,-3.9836 L -60,-26 h 40 v -36 a 4,4 0 0 1 4,-4 H 0 Z"
         stroke="#ee82ee"
         stroke-width="1"
         fill="none"
         id="path3-3" /></g><g
       id="dynamics"
       transform="matrix(0.26458333,0,0,0.26458333,73.337325,161.00769)" /><g
       id="main-2"
       transform="matrix(0.26458333,0,0,0.26458333,198.26879,59.970908)"><path
         d="m 104.3731,3.4921 0.5682,0.019 a 26.0224,26.0224 0 0 0 3.459,-0.8302 42.9681,42.9681 0 0 0 4.2826,-1.5981 50.6794,50.6794 0 0 0 5.8669,-3.0211 67.4462,67.4462 0 0 0 6.2954,-4.2807 l -0.316,-4.6197 a 67.4462,67.4462 0 0 0 -6.8196,-3.3835 50.6794,50.6794 0 0 0 -6.2237,-2.1942 42.9681,42.9681 0 0 0 -4.4603,-1.0001 26.0224,26.0224 0 0 0 -3.5398,-0.3514 l -0.5604,0.0962 a 2,2 0 0 1 -2.2966,-1.5642 l -0.6673,-3.2113 a 2,2 0 0 1 1.4833,-2.3497 l 0.5523,-0.135 a 26.0224,26.0224 0 0 0 3.1067,-1.7326 42.9681,42.9681 0 0 0 3.6926,-2.6943 50.6794,50.6794 0 0 0 4.8343,-4.492 67.4462,67.4462 0 0 0 4.907,-5.8204 l -1.5506,-4.3631 a 67.4462,67.4462 0 0 0 -7.4796,-1.4182 50.6794,50.6794 0 0 0 -6.5849,-0.4336 42.9681,42.9681 0 0 0 -4.5647,0.2403 26.0224,26.0224 0 0 0 -3.5034,0.6167 l -0.5136,0.2438 a 2,2 0 0 1 -2.6334,-0.8867 l -1.509,-2.9121 a 2,2 0 0 1 0.7943,-2.6628 l 0.4954,-0.279 a 26.0224,26.0224 0 0 0 2.5241,-2.5065 42.9681,42.9681 0 0 0 2.8287,-3.5906 50.6794,50.6794 0 0 0 3.4431,-5.6297 67.4462,67.4462 0 0 0 3.1548,-6.9285 l -2.6703,-3.783 a 67.4462,67.4462 0 0 0 -7.5849,0.6524 50.6794,50.6794 0 0 0 -6.4577,1.359 42.9681,42.9681 0 0 0 -4.3306,1.463 26.0224,26.0224 0 0 0 -3.2071,1.539 l -0.4287,0.3734 a 2,2 0 0 1 -2.7751,-0.1433 l -2.2386,-2.397 a 2,2 0 0 1 0.0464,-2.7784 l 0.4017,-0.4023 a 26.0224,26.0224 0 0 0 1.7543,-3.0946 42.9681,42.9681 0 0 0 1.7551,-4.2206 50.6794,50.6794 0 0 0 1.7965,-6.3499 67.4462,67.4462 0 0 0 1.1685,-7.5226 l -3.5919,-2.9223 a 67.4462,67.4462 0 0 0 -7.1276,2.6746 50.6794,50.6794 0 0 0 -5.8515,3.0509 42.9681,42.9681 0 0 0 -3.7753,2.5771 26.0224,26.0224 0 0 0 -2.673,2.3472 l -0.3121,0.4751 a 2,2 0 0 1 -2.7108,0.6108 l -2.8024,-1.7042 a 2,2 0 0 1 -0.7048,-2.6878 l 0.2783,-0.4958 a 26.0224,26.0224 0 0 0 0.8543,-3.4531 42.9681,42.9681 0 0 0 0.5513,-4.5377 50.6794,50.6794 0 0 0 0.0167,-6.5991 67.4462,67.4462 0 0 0 -0.9044,-7.5589 l -4.2472,-1.8448 a 67.4462,67.4462 0 0 0 -6.1417,4.4984 50.6794,50.6794 0 0 0 -4.8114,4.5164 42.9681,42.9681 0 0 0 -2.94,3.5001 26.0224,26.0224 0 0 0 -1.9406,2.9813 l -0.1723,0.5418 a 2,2 0 0 1 -2.4455,1.3195 l -3.1582,-0.8849 a 2,2 0 0 1 -1.4039,-2.398 l 0.1342,-0.5525 a 26.0224,26.0224 0 0 0 -0.109,-3.5556 42.9681,42.9681 0 0 0 -0.6934,-4.5181 50.6794,50.6794 0 0 0 -1.7643,-6.3589 67.4462,67.4462 0 0 0 -2.9103,-7.0346 l -4.5874,-0.6306 a 67.4462,67.4462 0 0 0 -4.7003,5.9886 50.6794,50.6794 0 0 0 -3.4144,5.6471 42.9681,42.9681 0 0 0 -1.8867,4.1635 26.0224,26.0224 0 0 0 -1.0643,3.3944 l -0.0198,0.5681 a 2,2 0 0 1 -1.9988,1.9303 h -3.2798 a 2,2 0 0 1 -1.9988,-1.9303 l -0.0198,-0.5681 a 26.0224,26.0224 0 0 0 -1.0643,-3.3944 42.9681,42.9681 0 0 0 -1.8867,-4.1635 50.6794,50.6794 0 0 0 -3.4144,-5.6471 67.4462,67.4462 0 0 0 -4.7003,-5.9886 l -4.5874,0.6306 a 67.4462,67.4462 0 0 0 -2.9103,7.0346 50.6794,50.6794 0 0 0 -1.7643,6.3589 42.9681,42.9681 0 0 0 -0.6934,4.5181 26.0224,26.0224 0 0 0 -0.109,3.5556 l 0.1342,0.5525 a 2,2 0 0 1 -1.4039,2.398 l -3.1582,0.8849 a 2,2 0 0 1 -2.4455,-1.3195 l -0.1723,-0.5418 a 26.0224,26.0224 0 0 0 -1.9406,-2.9813 42.9681,42.9681 0 0 0 -2.94,-3.5001 50.6794,50.6794 0 0 0 -4.8114,-4.5164 67.4462,67.4462 0 0 0 -6.1417,-4.4984 l -4.2472,1.8448 a 67.4462,67.4462 0 0 0 -0.9044,7.5589 50.6794,50.6794 0 0 0 0.0167,6.5991 42.9681,42.9681 0 0 0 0.5513,4.5377 26.0224,26.0224 0 0 0 0.8543,3.4531 l 0.2783,0.4958 a 2,2 0 0 1 -0.7048,2.6878 l -2.8024,1.7042 a 2,2 0 0 1 -2.7108,-0.6108 l -0.3121,-0.4751 a 26.0224,26.0224 0 0 0 -2.673,-2.3472 42.9681,42.9681 0 0 0 -3.7753,-2.5771 50.6794,50.6794 0 0 0 -5.8515,-3.0509 67.4462,67.4462 0 0 0 -7.1276,-2.6746 l -3.5919,2.9223 a 67.4462,67.4462 0 0 0 1.1685,7.5226 50.6794,50.6794 0 0 0 1.7965,6.3499 42.9681,42.9681 0 0 0 1.7551,4.2206 26.0224,26.0224 0 0 0 1.7543,3.0946 l 0.4017,0.4023 a 2,2 0 0 1 0.0464,2.7784 l -2.2386,2.397 a 2,2 0 0 1 -2.7751,0.1433 l -0.4287,-0.3734 a 26.0224,26.0224 0 0 0 -3.2071,-1.539 42.9681,42.9681 0 0 0 -4.3306,-1.463 50.6794,50.6794 0 0 0 -6.4577,-1.359 67.4462,67.4462 0 0 0 -7.5849,-0.6524 l -2.6703,3.783 a 67.4462,67.4462 0 0 0 3.1548,6.9285 50.6794,50.6794 0 0 0 3.4431,5.6297 42.9681,42.9681 0 0 0 2.8287,3.5906 26.0224,26.0224 0 0 0 2.5241,2.5065 l 0.4954,0.279 a 2,2 0 0 1 0.7943,2.6628 l -1.509,2.9121 a 2,2 0 0 1 -2.6334,0.8867 l -0.5136,-0.2438 a 26.0224,26.0224 0 0 0 -3.5034,-0.6167 42.9681,42.9681 0 0 0 -4.5647,-0.2403 50.6794,50.6794 0 0 0 -6.5849,0.4336 67.4462,67.4462 0 0 0 -7.4796,1.4182 l -1.5506,4.3631 a 67.4462,67.4462 0 0 0 4.907,5.8204 50.6794,50.6794 0 0 0 4.8343,4.492 42.9681,42.9681 0 0 0 3.6926,2.6943 26.0224,26.0224 0 0 0 3.1067,1.7326 l 0.5523,0.135 a 2,2 0 0 1 1.4833,2.3497 l -0.6673,3.2113 a 2,2 0 0 1 -2.2966,1.5642 l -0.5604,-0.0962 a 26.0224,26.0224 0 0 0 -3.5398,0.3514 42.9681,42.9681 0 0 0 -4.4603,1.0001 50.6794,50.6794 0 0 0 -6.2237,2.1942 67.4462,67.4462 0 0 0 -6.8196,3.3835 l -0.316,4.6197 a 67.4462,67.4462 0 0 0 6.2954,4.2807 50.6794,50.6794 0 0 0 5.8669,3.0211 42.9681,42.9681 0 0 0 4.2826,1.5981 26.0224,26.0224 0 0 0 3.459,0.8302 l 0.5682,-0.019 a 2,2 0 0 1 2.0622,1.8624 l 0.2239,3.2722 a 2,2 0 0 1 -1.7895,2.1259 l -0.5654,0.0585 a 26.0224,26.0224 0 0 0 -3.3138,1.2934 42.9681,42.9681 0 0 0 -4.0251,2.1664 50.6794,50.6794 0 0 0 -5.4009,3.7919 67.4462,67.4462 0 0 0 -5.6539,5.098 l 0.9421,4.5337 a 67.4462,67.4462 0 0 0 7.2169,2.4234 50.6794,50.6794 0 0 0 6.4645,1.3262 42.9681,42.9681 0 0 0 4.5549,0.3835 26.0224,26.0224 0 0 0 3.5547,-0.1339 l 0.542,-0.1716 a 2,2 0 0 1 2.4882,1.237 l 1.0984,3.0905 a 2,2 0 0 1 -1.1495,2.5298 l -0.5288,0.2089 a 26.0224,26.0224 0 0 0 -2.8419,2.1395 42.9681,42.9681 0 0 0 -3.2913,3.172 50.6794,50.6794 0 0 0 -4.1776,5.1084 67.4462,67.4462 0 0 0 -4.0688,6.4344 l 2.1304,4.1113 a 67.4462,67.4462 0 0 0 7.603,0.3865 50.6794,50.6794 0 0 0 6.5826,-0.467 42.9681,42.9681 0 0 0 4.4894,-0.8597 26.0224,26.0224 0 0 0 3.3868,-1.0879 l 0.4756,-0.3115 a 2,2 0 0 1 2.7297,0.5198 l 1.8915,2.6795 a 2,2 0 0 1 -0.4244,2.7461 l -0.4527,0.3439 a 26.0224,26.0224 0 0 0 -2.1593,2.8269 42.9681,42.9681 0 0 0 -2.3135,3.9423 50.6794,50.6794 0 0 0 -2.6445,6.0461 67.4462,67.4462 0 0 0 -2.1819,7.2935 l 3.1606,3.3842 a 67.4462,67.4462 0 0 0 7.4254,-1.6792 50.6794,50.6794 0 0 0 6.2124,-2.2256 42.9681,42.9681 0 0 0 4.0911,-2.0391 26.0224,26.0224 0 0 0 2.9676,-1.9613 l 0.374,-0.4283 a 2,2 0 0 1 2.7686,-0.2359 l 2.5443,2.0699 a 2,2 0 0 1 0.3323,2.7587 l -0.3432,0.4533 a 26.0224,26.0224 0 0 0 -1.3166,3.3046 42.9681,42.9681 0 0 0 -1.164,4.4204 50.6794,50.6794 0 0 0 -0.9152,6.5353 67.4462,67.4462 0 0 0 -0.1333,7.6117 l 3.9565,2.406 a 67.4462,67.4462 0 0 0 6.697,-3.6202 50.6794,50.6794 0 0 0 5.3816,-3.8193 42.9681,42.9681 0 0 0 3.3892,-3.0672 26.0224,26.0224 0 0 0 2.3284,-2.6893 l 0.2446,-0.5132 a 2,2 0 0 1 2.6023,-0.9742 l 3.0084,1.3067 a 2,2 0 0 1 1.0642,2.5668 l -0.2082,0.5291 a 26.0224,26.0224 0 0 0 -0.3761,3.5373 42.9681,42.9681 0 0 0 0.0717,4.5704 50.6794,50.6794 0 0 0 0.882,6.54 67.4462,67.4462 0 0 0 1.9253,7.3654 l 4.4588,1.2493 a 67.4462,67.4462 0 0 0 5.4719,-5.2928 50.6794,50.6794 0 0 0 4.1517,-5.1296 42.9681,42.9681 0 0 0 2.436,-3.8678 26.0224,26.0224 0 0 0 1.5165,-3.2178 l 0.097,-0.5602 a 2,2 0 0 1 2.243,-1.6402 l 3.2494,0.4467 a 2,2 0 0 1 1.7173,2.1845 l -0.0578,0.5655 a 26.0224,26.0224 0 0 0 0.5922,3.5076 42.9681,42.9681 0 0 0 1.3022,4.3817 50.6794,50.6794 0 0 0 2.6137,6.0594 67.4462,67.4462 0 0 0 3.841,6.5729 h 4.6306 a 67.4462,67.4462 0 0 0 3.841,-6.5729 50.6794,50.6794 0 0 0 2.6137,-6.0594 42.9681,42.9681 0 0 0 1.3022,-4.3817 26.0224,26.0224 0 0 0 0.5922,-3.5076 l -0.0578,-0.5655 a 2,2 0 0 1 1.7173,-2.1845 l 3.2494,-0.4467 a 2,2 0 0 1 2.243,1.6402 l 0.097,0.5602 a 26.0224,26.0224 0 0 0 1.5165,3.2178 42.9681,42.9681 0 0 0 2.436,3.8678 50.6794,50.6794 0 0 0 4.1517,5.1296 67.4462,67.4462 0 0 0 5.4719,5.2928 l 4.4588,-1.2493 a 67.4462,67.4462 0 0 0 1.9253,-7.3654 50.6794,50.6794 0 0 0 0.882,-6.54 42.9681,42.9681 0 0 0 0.0717,-4.5704 26.0224,26.0224 0 0 0 -0.3761,-3.5373 l -0.2082,-0.5291 a 2,2 0 0 1 1.0642,-2.5668 l 3.0084,-1.3067 a 2,2 0 0 1 2.6023,0.9742 l 0.2446,0.5132 a 26.0224,26.0224 0 0 0 2.3284,2.6893 42.9681,42.9681 0 0 0 3.3892,3.0672 50.6794,50.6794 0 0 0 5.3816,3.8193 67.4462,67.4462 0 0 0 6.697,3.6202 l 3.9565,-2.406 a 67.4462,67.4462 0 0 0 -0.1333,-7.6117 50.6794,50.6794 0 0 0 -0.9152,-6.5353 42.9681,42.9681 0 0 0 -1.164,-4.4204 26.0224,26.0224 0 0 0 -1.3166,-3.3046 l -0.3432,-0.4533 a 2,2 0 0 1 0.3323,-2.7587 l 2.5443,-2.0699 a 2,2 0 0 1 2.7686,0.2359 l 0.374,0.4283 a 26.0224,26.0224 0 0 0 2.9676,1.9613 42.9681,42.9681 0 0 0 4.0911,2.0391 50.6794,50.6794 0 0 0 6.2124,2.2256 67.4462,67.4462 0 0 0 7.4254,1.6792 l 3.1606,-3.3842 a 67.4462,67.4462 0 0 0 -2.1819,-7.2935 50.6794,50.6794 0 0 0 -2.6445,-6.0461 42.9681,42.9681 0 0 0 -2.3135,-3.9423 26.0224,26.0224 0 0 0 -2.1593,-2.8269 l -0.4527,-0.3439 a 2,2 0 0 1 -0.4244,-2.7461 l 1.8915,-2.6795 a 2,2 0 0 1 2.7297,-0.5198 l 0.4756,0.3115 a 26.0224,26.0224 0 0 0 3.3868,1.0879 42.9681,42.9681 0 0 0 4.4894,0.8597 50.6794,50.6794 0 0 0 6.5826,0.467 67.4462,67.4462 0 0 0 7.603,-0.3865 l 2.1304,-4.1113 a 67.4462,67.4462 0 0 0 -4.0688,-6.4344 50.6794,50.6794 0 0 0 -4.1776,-5.1084 42.9681,42.9681 0 0 0 -3.2913,-3.172 26.0224,26.0224 0 0 0 -2.8419,-2.1395 l -0.5288,-0.2089 a 2,2 0 0 1 -1.1495,-2.5298 l 1.0984,-3.0905 a 2,2 0 0 1 2.4882,-1.237 l 0.542,0.1716 a 26.0224,26.0224 0 0 0 3.5547,0.1339 42.9681,42.9681 0 0 0 4.5549,-0.3835 50.6794,50.6794 0 0 0 6.4645,-1.3262 67.4462,67.4462 0 0 0 7.2169,-2.4234 l 0.9421,-4.5337 a 67.4462,67.4462 0 0 0 -5.6539,-5.098 50.6794,50.6794 0 0 0 -5.4009,-3.7919 42.9681,42.9681 0 0 0 -4.0251,-2.1664 26.0224,26.0224 0 0 0 -3.3138,-1.2934 l -0.5654,-0.0585 A 2,2 0 0 1 102.087,8.6267 l 0.2239,-3.2722 a 2,2 0 0 1 2.0622,-1.8624 z"
         stroke="#4682b4"
         stroke-width="1"
         fill="none"
         id="path1-7" /><path
         d="M 16,-4 H 10.3923 A 2,2 0 0 1 8.6603,-5 10,10 0 0 0 7.4314,-6.6913 2,2 0 0 1 7.0156,-8.6476 l 1.7329,-5.3332 A 2,2 0 0 0 7.4644,-16.501 L 3.6602,-17.7371 A 2,2 0 0 0 1.14,-16.453 l -1.7328,5.3333 a 2,2 0 0 1 -1.4863,1.3382 10,10 0 0 0 -1.9883,0.646 2,2 0 0 1 -1.989,-0.209 l -4.5367,-3.2961 a 2,2 0 0 0 -2.7936,0.4424 l -2.3512,3.2361 a 2,2 0 0 0 0.4425,2.7936 l 4.5367,3.2961 a 2,2 0 0 1 0.8135,1.8271 10,10 0 0 0 0,2.0906 2,2 0 0 1 -0.8135,1.8271 l -4.5367,3.2961 a 2,2 0 0 0 -0.4425,2.7936 l 2.3512,3.2361 a 2,2 0 0 0 2.7936,0.4424 l 4.5367,-3.2961 a 2,2 0 0 1 1.989,-0.209 10,10 0 0 0 1.9883,0.646 2,2 0 0 1 1.4863,1.3382 L 1.14,16.453 a 2,2 0 0 0 2.5202,1.2841 L 7.4644,16.501 A 2,2 0 0 0 8.7485,13.9808 L 7.0156,8.6476 A 2,2 0 0 1 7.4314,6.6913 10,10 0 0 0 8.6603,5 2,2 0 0 1 10.3923,4 H 16 a 2,2 0 0 0 2,-2 v -4 a 2,2 0 0 0 -2,-2 z"
         stroke="#4682b4"
         stroke-width="1"
         fill="none"
         id="path2-0" /><path
         d="m 80.0605,-19.9138 a 82.5,82.5 0 0 0 -36.3813,-50.0746 10,10 0 0 0 -14.805,5.3933 l -9.6038,29.5573 a 10,10 0 0 0 2.8174,10.5198 33,33 0 0 1 8.0557,11.0878 10,10 0 0 0 9.1344,5.9302 h 31.0783 a 10,10 0 0 0 9.7043,-12.4138 z"
         stroke="#4682b4"
         stroke-width="1"
         fill="none"
         id="path3-9" /><path
         d="m 5.8009,-82.2958 a 82.5,82.5 0 0 0 -58.8662,19.1268 10,10 0 0 0 0.5543,15.747 l 25.1429,18.2674 a 10,10 0 0 0 10.8756,0.5714 33,33 0 0 1 13.0344,-4.2351 10,10 0 0 0 8.4627,-6.8548 l 9.6037,-29.5573 A 10,10 0 0 0 5.8009,-82.2958 Z"
         stroke="#4682b4"
         stroke-width="1"
         fill="none"
         id="path4-3" /><path
         d="m -76.4754,-30.9478 a 82.5,82.5 0 0 0 0,61.8956 10,10 0 0 0 15.1476,4.3389 l 25.143,-18.2674 a 10,10 0 0 0 3.9041,-10.1667 33,33 0 0 1 0,-13.7052 10,10 0 0 0 -3.9041,-10.1667 l -25.143,-18.2674 a 10,10 0 0 0 -15.1476,4.3389 z"
         stroke="#4682b4"
         stroke-width="1"
         fill="none"
         id="path5-6" /><path
         d="M -53.0653,63.169 A 82.5,82.5 0 0 0 5.8009,82.2958 10,10 0 0 0 14.6083,69.2304 L 5.0046,39.6731 a 10,10 0 0 0 -8.4627,-6.8548 33,33 0 0 1 -13.0344,-4.2351 10,10 0 0 0 -10.8756,0.5714 L -52.511,47.422 a 10,10 0 0 0 -0.5543,15.747 z"
         stroke="#4682b4"
         stroke-width="1"
         fill="none"
         id="path6-0" /><path
         d="M 43.6792,69.9884 A 82.5,82.5 0 0 0 80.0605,19.9138 10,10 0 0 0 70.3562,7.5 H 39.2779 a 10,10 0 0 0 -9.1344,5.9302 33,33 0 0 1 -8.0557,11.0878 10,10 0 0 0 -2.8174,10.5198 l 9.6038,29.5573 a 10,10 0 0 0 14.805,5.3933 z"
         stroke="#4682b4"
         stroke-width="1"
         fill="none"
         id="path7-6" /></g><g
       id="second-2"
       transform="matrix(0.26458333,0,0,0.26458333,198.26879,59.970908)"><path
         d="m 129.2253,24.5019 -0.5655,0.1715 a 7.7281,7.7281 0 0 0 -1.7055,0.7523 30.8447,30.8447 0 0 0 -3.0806,2.0927 36.9994,36.9994 0 0 0 -5.4055,5.1158 57.7947,57.7947 0 0 0 -5.4922,7.5073 l 1.7784,4.0543 a 57.7947,57.7947 0 0 0 9.243,1.0437 36.9994,36.9994 0 0 0 7.4249,-0.5121 30.8447,30.8447 0 0 0 3.6261,-0.849 7.7281,7.7281 0 0 0 1.7086,-0.7453 l 0.5092,-0.2999 a 2,2 0 0 1 2.6892,0.6295 l 2.106,3.2235 a 2,2 0 0 1 -0.5038,2.7156 l -0.4791,0.3458 a 7.7281,7.7281 0 0 0 -1.3689,1.2654 30.8447,30.8447 0 0 0 -2.2341,2.9796 36.9994,36.9994 0 0 0 -3.4515,6.5938 57.7947,57.7947 0 0 0 -2.7571,8.8838 l 2.9985,3.2572 a 57.7947,57.7947 0 0 0 9.0811,-2.0141 36.9994,36.9994 0 0 0 6.8563,-2.8952 30.8447,30.8447 0 0 0 3.1539,-1.9804 7.7281,7.7281 0 0 0 1.3741,-1.2597 l 0.3842,-0.449 a 2,2 0 0 1 2.7479,-0.2778 l 3.0386,2.3651 a 2,2 0 0 1 0.4053,2.732 l -0.3409,0.4826 a 7.7281,7.7281 0 0 0 -0.8839,1.6413 30.8447,30.8447 0 0 0 -1.1456,3.5436 36.9994,36.9994 0 0 0 -1.1235,7.3572 57.7947,57.7947 0 0 0 0.2769,9.2977 l 3.8936,2.1071 a 57.7947,57.7947 0 0 0 7.9352,-4.8536 36.9994,36.9994 0 0 0 5.5447,-4.9645 30.8447,30.8447 0 0 0 2.34,-2.8972 7.7281,7.7281 0 0 0 0.8906,-1.6377 l 0.2176,-0.5493 a 2,2 0 0 1 2.5088,-1.155 l 3.6419,1.2502 a 2,2 0 0 1 1.2704,2.4524 l -0.1657,0.5672 a 7.7281,7.7281 0 0 0 -0.3031,1.8393 30.8447,30.8447 0 0 0 0.0671,3.7236 36.9994,36.9994 0 0 0 1.3263,7.3234 57.7947,57.7947 0 0 0 3.2808,8.704 l 4.3668,0.7287 a 57.7947,57.7947 0 0 0 5.9293,-7.1671 36.9994,36.9994 0 0 0 3.6323,-6.496 30.8447,30.8447 0 0 0 1.2724,-3.5 7.7281,7.7281 0 0 0 0.3106,-1.8381 l 0.0275,-0.5902 a 2,2 0 0 1 1.9978,-1.9071 h 3.8506 a 2,2 0 0 1 1.9978,1.9071 l 0.0275,0.5902 a 7.7281,7.7281 0 0 0 0.3106,1.8381 30.8447,30.8447 0 0 0 1.2724,3.5 36.9994,36.9994 0 0 0 3.6323,6.496 57.7947,57.7947 0 0 0 5.9293,7.1671 l 4.3668,-0.7287 a 57.7947,57.7947 0 0 0 3.2808,-8.704 36.9994,36.9994 0 0 0 1.3263,-7.3234 30.8447,30.8447 0 0 0 0.0671,-3.7236 7.7281,7.7281 0 0 0 -0.3031,-1.8393 l -0.1657,-0.5672 a 2,2 0 0 1 1.2704,-2.4524 l 3.6419,-1.2502 a 2,2 0 0 1 2.5088,1.155 l 0.2176,0.5493 a 7.7281,7.7281 0 0 0 0.8906,1.6377 30.8447,30.8447 0 0 0 2.34,2.8972 36.9994,36.9994 0 0 0 5.5447,4.9645 57.7947,57.7947 0 0 0 7.9352,4.8536 l 3.8936,-2.1071 a 57.7947,57.7947 0 0 0 0.2769,-9.2977 36.9994,36.9994 0 0 0 -1.1235,-7.3572 30.8447,30.8447 0 0 0 -1.1456,-3.5436 7.7281,7.7281 0 0 0 -0.8839,-1.6413 l -0.3409,-0.4826 a 2,2 0 0 1 0.4053,-2.732 l 3.0386,-2.3651 a 2,2 0 0 1 2.7479,0.2778 l 0.3842,0.449 a 7.7281,7.7281 0 0 0 1.3741,1.2597 30.8447,30.8447 0 0 0 3.1539,1.9804 36.9994,36.9994 0 0 0 6.8563,2.8952 57.7947,57.7947 0 0 0 9.0811,2.0141 l 2.9985,-3.2572 a 57.7947,57.7947 0 0 0 -2.7571,-8.8838 36.9994,36.9994 0 0 0 -3.4515,-6.5938 30.8447,30.8447 0 0 0 -2.2341,-2.9796 7.7281,7.7281 0 0 0 -1.3689,-1.2654 l -0.4791,-0.3458 a 2,2 0 0 1 -0.5038,-2.7156 l 2.106,-3.2235 a 2,2 0 0 1 2.6892,-0.6295 l 0.5092,0.2999 a 7.7281,7.7281 0 0 0 1.7086,0.7453 30.8447,30.8447 0 0 0 3.6261,0.849 36.9994,36.9994 0 0 0 7.4249,0.5121 57.7947,57.7947 0 0 0 9.243,-1.0437 l 1.7784,-4.0543 a 57.7947,57.7947 0 0 0 -5.4922,-7.5073 36.9994,36.9994 0 0 0 -5.4055,-5.1158 30.8447,30.8447 0 0 0 -3.0806,-2.0927 7.7281,7.7281 0 0 0 -1.7055,-0.7523 l -0.5655,-0.1715 a 2,2 0 0 1 -1.3582,-2.4049 l 0.9452,-3.7327 a 2,2 0 0 1 2.3392,-1.4685 l 0.5789,0.1182 a 7.7281,7.7281 0 0 0 1.858,0.1502 30.8447,30.8447 0 0 0 3.7053,-0.3743 36.9994,36.9994 0 0 0 7.1889,-1.9266 57.7947,57.7947 0 0 0 8.4033,-3.9883 l 0.3656,-4.4121 a 57.7947,57.7947 0 0 0 -7.6322,-5.3172 36.9994,36.9994 0 0 0 -6.7738,-3.0835 30.8447,30.8447 0 0 0 -3.5931,-0.979 7.7281,7.7281 0 0 0 -1.8574,-0.1578 l -0.5905,0.0214 a 2,2 0 0 1 -2.0655,-1.8335 l -0.318,-3.8374 a 2,2 0 0 1 1.7355,-2.1485 l 0.586,-0.0761 a 7.7281,7.7281 0 0 0 1.8061,-0.4613 30.8447,30.8447 0 0 0 3.383,-1.5572 36.9994,36.9994 0 0 0 6.1738,-4.1563 57.7947,57.7947 0 0 0 6.653,-6.5009 l -1.0868,-4.2917 a 57.7947,57.7947 0 0 0 -8.9452,-2.5509 36.9994,36.9994 0 0 0 -7.4079,-0.717 30.8447,30.8447 0 0 0 -3.7164,0.2407 7.7281,7.7281 0 0 0 -1.808,0.4539 l -0.5515,0.212 a 2,2 0 0 1 -2.549,-1.0636 l -1.5467,-3.5262 a 2,2 0 0 1 0.9439,-2.5956 l 0.5295,-0.2622 a 7.7281,7.7281 0 0 0 1.5585,-1.0228 30.8447,30.8447 0 0 0 2.6941,-2.5712 36.9994,36.9994 0 0 0 4.4897,-5.9358 57.7947,57.7947 0 0 0 4.1817,-8.3088 l -2.4215,-3.7064 a 57.7947,57.7947 0 0 0 -9.2888,0.4919 36.9994,36.9994 0 0 0 -7.2393,1.7272 30.8447,30.8447 0 0 0 -3.4368,1.4343 7.7281,7.7281 0 0 0 -1.5627,1.0164 l -0.4529,0.3796 a 2,2 0 0 1 -2.7561,-0.1783 l -2.6079,-2.8329 a 2,2 0 0 1 0.0499,-2.7615 l 0.4157,-0.4199 a 7.7281,7.7281 0 0 0 1.142,-1.4734 30.8447,30.8447 0 0 0 1.7132,-3.3067 36.9994,36.9994 0 0 0 2.3191,-7.072 57.7947,57.7947 0 0 0 1.2573,-9.2164 l -3.4937,-2.7193 a 57.7947,57.7947 0 0 0 -8.6258,3.4813 36.9994,36.9994 0 0 0 -6.2863,3.9842 30.8447,30.8447 0 0 0 -2.7849,2.4726 7.7281,7.7281 0 0 0 -1.148,1.4687 l -0.3051,0.506 a 2,2 0 0 1 -2.6647,0.7263 l -3.3864,-1.8326 a 2,2 0 0 1 -0.8494,-2.6281 l 0.2568,-0.5321 a 7.7281,7.7281 0 0 0 0.6017,-1.7644 30.8447,30.8447 0 0 0 0.5467,-3.6838 36.9994,36.9994 0 0 0 -0.1028,-7.4418 57.7947,57.7947 0 0 0 -1.8035,-9.1253 l -4.1873,-1.4375 a 57.7947,57.7947 0 0 0 -7.0281,6.0934 36.9994,36.9994 0 0 0 -4.6519,5.8095 30.8447,30.8447 0 0 0 -1.8312,3.2429 7.7281,7.7281 0 0 0 -0.6089,1.7618 l -0.1242,0.5777 a 2,2 0 0 1 -2.2845,1.5522 l -3.798,-0.6338 a 2,2 0 0 1 -1.6567,-2.2098 l 0.07,-0.5868 a 7.7281,7.7281 0 0 0 -0.004,-1.8641 30.8447,30.8447 0 0 0 -0.679,-3.6617 36.9994,36.9994 0 0 0 -2.5136,-7.0052 57.7947,57.7947 0 0 0 -4.6687,-8.0453 h -4.4272 a 57.7947,57.7947 0 0 0 -4.6687,8.0453 36.9994,36.9994 0 0 0 -2.5136,7.0052 30.8447,30.8447 0 0 0 -0.679,3.6617 7.7281,7.7281 0 0 0 -0.004,1.8641 l 0.07,0.5868 a 2,2 0 0 1 -1.6567,2.2098 l -3.798,0.6338 a 2,2 0 0 1 -2.2845,-1.5522 l -0.1242,-0.5777 a 7.7281,7.7281 0 0 0 -0.6089,-1.7618 30.8447,30.8447 0 0 0 -1.8312,-3.2429 36.9994,36.9994 0 0 0 -4.6519,-5.8095 57.7947,57.7947 0 0 0 -7.0281,-6.0934 l -4.1873,1.4375 a 57.7947,57.7947 0 0 0 -1.8035,9.1253 36.9994,36.9994 0 0 0 -0.1028,7.4418 30.8447,30.8447 0 0 0 0.5467,3.6838 7.7281,7.7281 0 0 0 0.6017,1.7644 l 0.2568,0.5321 a 2,2 0 0 1 -0.8494,2.6281 l -3.3864,1.8326 a 2,2 0 0 1 -2.6647,-0.7263 l -0.3051,-0.506 a 7.7281,7.7281 0 0 0 -1.148,-1.4687 30.8447,30.8447 0 0 0 -2.7849,-2.4726 36.9994,36.9994 0 0 0 -6.2863,-3.9842 57.7947,57.7947 0 0 0 -8.6258,-3.4813 l -3.4937,2.7193 a 57.7947,57.7947 0 0 0 1.2573,9.2164 36.9994,36.9994 0 0 0 2.3191,7.072 30.8447,30.8447 0 0 0 1.7132,3.3067 7.7281,7.7281 0 0 0 1.142,1.4734 l 0.4157,0.4199 a 2,2 0 0 1 0.0499,2.7615 l -2.6079,2.8329 a 2,2 0 0 1 -2.7561,0.1783 l -0.4529,-0.3796 a 7.7281,7.7281 0 0 0 -1.5627,-1.0164 30.8447,30.8447 0 0 0 -3.4368,-1.4343 36.9994,36.9994 0 0 0 -7.2393,-1.7272 57.7947,57.7947 0 0 0 -9.2888,-0.4919 l -2.4215,3.7064 a 57.7947,57.7947 0 0 0 4.1817,8.3088 36.9994,36.9994 0 0 0 4.4897,5.9358 30.8447,30.8447 0 0 0 2.6941,2.5712 7.7281,7.7281 0 0 0 1.5585,1.0228 l 0.5295,0.2622 a 2,2 0 0 1 0.9439,2.5956 l -1.5467,3.5262 a 2,2 0 0 1 -2.549,1.0636 l -0.5515,-0.212 a 7.7281,7.7281 0 0 0 -1.808,-0.4539 30.8447,30.8447 0 0 0 -3.7164,-0.2407 36.9994,36.9994 0 0 0 -7.4079,0.717 57.7947,57.7947 0 0 0 -8.9452,2.5509 l -1.0868,4.2917 a 57.7947,57.7947 0 0 0 6.653,6.5009 36.9994,36.9994 0 0 0 6.1738,4.1563 30.8447,30.8447 0 0 0 3.383,1.5572 7.7281,7.7281 0 0 0 1.8061,0.4613 l 0.586,0.0761 a 2,2 0 0 1 1.7355,2.1485 l -0.318,3.8374 a 2,2 0 0 1 -2.0655,1.8335 l -0.5905,-0.0214 a 7.7281,7.7281 0 0 0 -1.8574,0.1578 30.8447,30.8447 0 0 0 -3.5931,0.979 36.9994,36.9994 0 0 0 -6.7738,3.0835 57.7947,57.7947 0 0 0 -7.6322,5.3172 l 0.3656,4.4121 a 57.7947,57.7947 0 0 0 8.4033,3.9883 36.9994,36.9994 0 0 0 7.1889,1.9266 30.8447,30.8447 0 0 0 3.7053,0.3743 7.7281,7.7281 0 0 0 1.858,-0.1502 l 0.5789,-0.1182 a 2,2 0 0 1 2.3392,1.4685 l 0.9452,3.7327 a 2,2 0 0 1 -1.3582,2.4049 z"
         stroke="#ee82ee"
         stroke-width="1"
         fill="none"
         id="path15-6" /></g><g
       id="secondB-1"
       transform="matrix(0.26458333,0,0,0.26458333,198.26879,59.970908)"><path
         d="m 131.0522,23.9477 -2.3924,0.7257 a 7.7281,7.7281 0 0 0 -1.7055,0.7523 30.8447,30.8447 0 0 0 -3.0806,2.0927 36.9994,36.9994 0 0 0 -5.4055,5.1158 57.7947,57.7947 0 0 0 -5.4922,7.5073 l 1.7784,4.0543 a 57.7947,57.7947 0 0 0 9.243,1.0437 36.9994,36.9994 0 0 0 7.4249,-0.5121 30.8447,30.8447 0 0 0 3.6261,-0.849 7.7281,7.7281 0 0 0 1.7086,-0.7453 l 2.1542,-1.2686 4.1944,6.42 -2.0271,1.4631 a 7.7281,7.7281 0 0 0 -1.3689,1.2654 30.8447,30.8447 0 0 0 -2.2341,2.9796 36.9994,36.9994 0 0 0 -3.4515,6.5938 57.7947,57.7947 0 0 0 -2.7571,8.8838 l 2.9985,3.2572 a 57.7947,57.7947 0 0 0 9.0811,-2.0141 36.9994,36.9994 0 0 0 6.8563,-2.8952 30.8447,30.8447 0 0 0 3.1539,-1.9804 7.7281,7.7281 0 0 0 1.3741,-1.2597 l 1.6256,-1.8994 6.0517,4.7103 -1.4422,2.042 a 7.7281,7.7281 0 0 0 -0.8839,1.6413 30.8447,30.8447 0 0 0 -1.1456,3.5436 36.9994,36.9994 0 0 0 -1.1235,7.3572 57.7947,57.7947 0 0 0 0.2769,9.2977 l 3.8936,2.1071 a 57.7947,57.7947 0 0 0 7.9352,-4.8536 36.9994,36.9994 0 0 0 5.5447,-4.9645 30.8447,30.8447 0 0 0 2.34,-2.8972 7.7281,7.7281 0 0 0 0.8906,-1.6377 l 0.9207,-2.3242 7.2533,2.49 -0.701,2.3997 a 7.7281,7.7281 0 0 0 -0.3031,1.8393 30.8447,30.8447 0 0 0 0.0671,3.7236 36.9994,36.9994 0 0 0 1.3263,7.3234 57.7947,57.7947 0 0 0 3.2808,8.704 l 4.3668,0.7287 a 57.7947,57.7947 0 0 0 5.9293,-7.1671 36.9994,36.9994 0 0 0 3.6323,-6.496 30.8447,30.8447 0 0 0 1.2724,-3.5 7.7281,7.7281 0 0 0 0.3106,-1.8381 l 0.1162,-2.4973 h 7.6688 l 0.1162,2.4973 a 7.7281,7.7281 0 0 0 0.3106,1.8381 30.8447,30.8447 0 0 0 1.2724,3.5 36.9994,36.9994 0 0 0 3.6323,6.496 57.7947,57.7947 0 0 0 5.9293,7.1671 l 4.3668,-0.7287 a 57.7947,57.7947 0 0 0 3.2808,-8.704 36.9994,36.9994 0 0 0 1.3263,-7.3234 30.8447,30.8447 0 0 0 0.0671,-3.7236 7.7281,7.7281 0 0 0 -0.3031,-1.8393 l -0.701,-2.3997 7.2533,-2.49 0.9207,2.3242 a 7.7281,7.7281 0 0 0 0.8906,1.6377 30.8447,30.8447 0 0 0 2.34,2.8972 36.9994,36.9994 0 0 0 5.5447,4.9645 57.7947,57.7947 0 0 0 7.9352,4.8536 l 3.8936,-2.1071 a 57.7947,57.7947 0 0 0 0.2769,-9.2977 36.9994,36.9994 0 0 0 -1.1235,-7.3572 30.8447,30.8447 0 0 0 -1.1456,-3.5436 7.7281,7.7281 0 0 0 -0.8839,-1.6413 l -1.4422,-2.042 6.0517,-4.7103 1.6256,1.8994 a 7.7281,7.7281 0 0 0 1.3741,1.2597 30.8447,30.8447 0 0 0 3.1539,1.9804 36.9994,36.9994 0 0 0 6.8563,2.8952 57.7947,57.7947 0 0 0 9.0811,2.0141 l 2.9985,-3.2572 a 57.7947,57.7947 0 0 0 -2.7571,-8.8838 36.9994,36.9994 0 0 0 -3.4515,-6.5938 30.8447,30.8447 0 0 0 -2.2341,-2.9796 7.7281,7.7281 0 0 0 -1.3689,-1.2654 l -2.0271,-1.4631 4.1944,-6.42 2.1542,1.2686 a 7.7281,7.7281 0 0 0 1.7086,0.7453 30.8447,30.8447 0 0 0 3.6261,0.849 36.9994,36.9994 0 0 0 7.4249,0.5121 57.7947,57.7947 0 0 0 9.243,-1.0437 l 1.7784,-4.0543 a 57.7947,57.7947 0 0 0 -5.4922,-7.5073 36.9994,36.9994 0 0 0 -5.4055,-5.1158 30.8447,30.8447 0 0 0 -3.0806,-2.0927 7.7281,7.7281 0 0 0 -1.7055,-0.7523 l -2.3924,-0.7257 1.8826,-7.4341 2.4494,0.5004 a 7.7281,7.7281 0 0 0 1.858,0.1502 30.8447,30.8447 0 0 0 3.7053,-0.3743 36.9994,36.9994 0 0 0 7.1889,-1.9266 57.7947,57.7947 0 0 0 8.4033,-3.9883 l 0.3656,-4.4121 a 57.7947,57.7947 0 0 0 -7.6322,-5.3172 36.9994,36.9994 0 0 0 -6.7738,-3.0835 30.8447,30.8447 0 0 0 -3.5931,-0.979 7.7281,7.7281 0 0 0 -1.8574,-0.1578 l -2.4984,0.0904 -0.6333,-7.6425 2.4792,-0.322 a 7.7281,7.7281 0 0 0 1.8061,-0.4613 30.8447,30.8447 0 0 0 3.383,-1.5572 36.9994,36.9994 0 0 0 6.1738,-4.1563 57.7947,57.7947 0 0 0 6.653,-6.5009 l -1.0868,-4.2917 a 57.7947,57.7947 0 0 0 -8.9452,-2.5509 36.9994,36.9994 0 0 0 -7.4079,-0.717 30.8447,30.8447 0 0 0 -3.7164,0.2407 7.7281,7.7281 0 0 0 -1.808,0.4539 l -2.3336,0.8968 -3.0805,-7.0229 2.2403,-1.1095 a 7.7281,7.7281 0 0 0 1.5585,-1.0228 30.8447,30.8447 0 0 0 2.6941,-2.5712 36.9994,36.9994 0 0 0 4.4897,-5.9358 57.7947,57.7947 0 0 0 4.1817,-8.3088 l -2.4215,-3.7064 a 57.7947,57.7947 0 0 0 -9.2888,0.4919 36.9994,36.9994 0 0 0 -7.2393,1.7272 30.8447,30.8447 0 0 0 -3.4368,1.4343 7.7281,7.7281 0 0 0 -1.5627,1.0164 l -1.916,1.6059 -5.1939,-5.6421 1.7586,-1.7768 a 7.7281,7.7281 0 0 0 1.142,-1.4734 30.8447,30.8447 0 0 0 1.7132,-3.3067 36.9994,36.9994 0 0 0 2.3191,-7.072 57.7947,57.7947 0 0 0 1.2573,-9.2164 l -3.4937,-2.7193 a 57.7947,57.7947 0 0 0 -8.6258,3.4813 36.9994,36.9994 0 0 0 -6.2863,3.9842 30.8447,30.8447 0 0 0 -2.7849,2.4726 7.7281,7.7281 0 0 0 -1.148,1.4687 l -1.2907,2.141 -6.7445,-3.6499 1.0864,-2.2516 a 7.7281,7.7281 0 0 0 0.6017,-1.7644 30.8447,30.8447 0 0 0 0.5467,-3.6838 36.9994,36.9994 0 0 0 -0.1028,-7.4418 57.7947,57.7947 0 0 0 -1.8035,-9.1253 l -4.1873,-1.4375 a 57.7947,57.7947 0 0 0 -7.0281,6.0934 36.9994,36.9994 0 0 0 -4.6519,5.8095 30.8447,30.8447 0 0 0 -1.8312,3.2429 7.7281,7.7281 0 0 0 -0.6089,1.7618 l -0.5256,2.4441 -7.5642,-1.2622 0.2964,-2.4824 a 7.7281,7.7281 0 0 0 -0.004,-1.8641 30.8447,30.8447 0 0 0 -0.679,-3.6617 36.9994,36.9994 0 0 0 -2.5136,-7.0052 57.7947,57.7947 0 0 0 -4.6687,-8.0453 h -4.4272 a 57.7947,57.7947 0 0 0 -4.6687,8.0453 36.9994,36.9994 0 0 0 -2.5136,7.0052 30.8447,30.8447 0 0 0 -0.679,3.6617 7.7281,7.7281 0 0 0 -0.004,1.8641 l 0.2964,2.4824 -7.5642,1.2622 -0.5256,-2.4441 a 7.7281,7.7281 0 0 0 -0.6089,-1.7618 30.8447,30.8447 0 0 0 -1.8312,-3.2429 36.9994,36.9994 0 0 0 -4.6519,-5.8095 57.7947,57.7947 0 0 0 -7.0281,-6.0934 l -4.1873,1.4375 a 57.7947,57.7947 0 0 0 -1.8035,9.1253 36.9994,36.9994 0 0 0 -0.1028,7.4418 30.8447,30.8447 0 0 0 0.5467,3.6838 7.7281,7.7281 0 0 0 0.6017,1.7644 l 1.0864,2.2516 -6.7445,3.6499 -1.2907,-2.141 a 7.7281,7.7281 0 0 0 -1.148,-1.4687 30.8447,30.8447 0 0 0 -2.7849,-2.4726 36.9994,36.9994 0 0 0 -6.2863,-3.9842 57.7947,57.7947 0 0 0 -8.6258,-3.4813 l -3.4937,2.7193 a 57.7947,57.7947 0 0 0 1.2573,9.2164 36.9994,36.9994 0 0 0 2.3191,7.072 30.8447,30.8447 0 0 0 1.7132,3.3067 7.7281,7.7281 0 0 0 1.142,1.4734 l 1.7586,1.7768 -5.1939,5.6421 -1.916,-1.6059 a 7.7281,7.7281 0 0 0 -1.5627,-1.0164 30.8447,30.8447 0 0 0 -3.4368,-1.4343 36.9994,36.9994 0 0 0 -7.2393,-1.7272 57.7947,57.7947 0 0 0 -9.2888,-0.4919 l -2.4215,3.7064 a 57.7947,57.7947 0 0 0 4.1817,8.3088 36.9994,36.9994 0 0 0 4.4897,5.9358 30.8447,30.8447 0 0 0 2.6941,2.5712 7.7281,7.7281 0 0 0 1.5585,1.0228 l 2.2403,1.1095 -3.0805,7.0229 -2.3336,-0.8968 a 7.7281,7.7281 0 0 0 -1.808,-0.4539 30.8447,30.8447 0 0 0 -3.7164,-0.2407 36.9994,36.9994 0 0 0 -7.4079,0.717 57.7947,57.7947 0 0 0 -8.9452,2.5509 l -1.0868,4.2917 a 57.7947,57.7947 0 0 0 6.653,6.5009 36.9994,36.9994 0 0 0 6.1738,4.1563 30.8447,30.8447 0 0 0 3.383,1.5572 7.7281,7.7281 0 0 0 1.8061,0.4613 l 2.4792,0.322 -0.6333,7.6425 -2.4984,-0.0904 a 7.7281,7.7281 0 0 0 -1.8574,0.1578 30.8447,30.8447 0 0 0 -3.5931,0.979 36.9994,36.9994 0 0 0 -6.7738,3.0835 57.7947,57.7947 0 0 0 -7.6322,5.3172 l 0.3656,4.4121 a 57.7947,57.7947 0 0 0 8.4033,3.9883 36.9994,36.9994 0 0 0 7.1889,1.9266 30.8447,30.8447 0 0 0 3.7053,0.3743 7.7281,7.7281 0 0 0 1.858,-0.1502 l 2.4494,-0.5004 z"
         stroke="#708090"
         stroke-width="1"
         fill="none"
         id="path16-8" /></g><text
       xml:space="preserve"
       transform="scale(0.26458333)"
       id="text2"
       style="font-size:14.6667px;line-height:normal;font-family:'Liberation Mono';-inkscape-font-specification:'Liberation Mono';text-align:center;text-decoration-color:#000000;white-space:pre;shape-inside:url(#rect2);fill:#000000;stroke-width:1;-inkscape-stroke:none;stop-color:#000000"><tspan
         x="271.91241"
         y="142.52862"
         id="tspan9">N1</tspan></text><text
       xml:space="preserve"
       transform="scale(0.26458333)"
       id="text3"
       style="font-size:14.6667px;line-height:normal;font-family:'Liberation Mono';-inkscape-font-specification:'Liberation Mono';text-align:center;text-decoration-color:#000000;white-space:pre;shape-inside:url(#rect3);fill:#000000;stroke-width:1;-inkscape-stroke:none;stop-color:#000000"><tspan
         x="341.77765"
         y="141.63018"
         id="tspan10">N2</tspan></text><path
       style="fill:none;stroke:#000000;stroke-width:0.26458333;stroke-dasharray:none;marker-start:url(#ArrowWide);marker-end:url(#ArrowWide)"
       d="m 55.367898,44.630609 16.02654,-6.383207 -8.269745,7.659108"
       id="path8" /><path
       style="fill:none;stroke:#000000;stroke-width:0.264583;stroke-dasharray:none;marker-start:url(#marker11);marker-end:url(#marker11)"
       d="M 95.896736,49.255981 94.733334,38.162679 102.02162,48.709696"
       id="path10" /><text
       xml:space="preserve"
       transform="matrix(0.26458333,0,0,0.26458333,0.18101498,1.2819194)"
       id="text11"
       style="font-size:14.6667px;line-height:normal;font-family:'Liberation Mono';-inkscape-font-specification:'Liberation Mono';text-align:center;text-decoration-color:#000000;white-space:pre;shape-inside:url(#rect11);fill:#000000;stroke-width:1;-inkscape-stroke:none;stop-color:#000000"><tspan
         x="43.30362"
         y="429.09893"
         id="tspan11">(c1x,c1y)</tspan></text><path
       style="fill:none;stroke:#ff00ff;stroke-width:0.264583;stroke-dasharray:none"
       d="m 48.826391,74.564059 v 3.94483"
       id="path12" /><path
       style="fill:none;stroke:#ff00ff;stroke-width:0.264583;stroke-dasharray:none"
       d="M 50.715893,76.443349 H 46.771059"
       id="path12-0" /><path
       style="fill:none;stroke:#000000;stroke-width:0.264583;stroke-dasharray:none;marker-end:url(#marker11)"
       d="M 32.797506,112.99085 47.930546,77.685981"
       id="path13" /><path
       style="fill:none;stroke:#000000;stroke-width:0.264583;stroke-dasharray:none;marker-start:url(#marker11);marker-end:url(#marker11)"
       d="m 35.454304,45.37897 c 0,0 2.200762,-1.365775 3.410999,-1.799025 1.425499,-0.510311 4.449725,-0.912223 4.449725,-0.912223"
       id="path14"
       sodipodi:nodetypes="cac" /><text
       xml:space="preserve"
       transform="matrix(0.26458333,0,0,0.26458333,-61.470095,-74.667986)"
       id="text14"
       style="font-size:14.6667px;line-height:normal;font-family:'Liberation Mono';-inkscape-font-specification:'Liberation Mono';text-align:center;text-decoration-color:#000000;white-space:pre;shape-inside:url(#rect14);fill:#000000;stroke-width:1;-inkscape-stroke:none;stop-color:#000000"><tspan
         x="302.67081"
         y="442.62627"
         id="tspan12">pi*module</tspan></text><text
       xml:space="preserve"
       transform="matrix(0.26458333,0,0,0.26458333,-9.7988827,-1.0759049)"
       id="text15"
       style="font-size:14.6667px;line-height:normal;font-family:'Liberation Mono';-inkscape-font-specification:'Liberation Mono';text-align:center;text-decoration-color:#000000;white-space:pre;shape-inside:url(#rect15);fill:#aa8800;stroke-width:1;-inkscape-stroke:none;stop-color:#000000"><tspan
         x="219.39835"
         y="459.41534"
         id="tspan13">main gear</tspan></text><path
       style="fill:none;stroke:#aa8800;stroke-width:0.264583;stroke-dasharray:none;marker-end:url(#marker11)"
       d="m 56.753521,116.96762 -0.903224,-7.6554"
       id="path17" /><text
       xml:space="preserve"
       transform="matrix(0.26458333,0,0,0.26458333,-6.3105249,-0.23703241)"
       id="text17"
       style="font-size:14.6667px;line-height:normal;font-family:'Liberation Mono';-inkscape-font-specification:'Liberation Mono';text-align:center;text-decoration-color:#000000;white-space:pre;shape-inside:url(#rect17);fill:#aa8800;stroke-width:1;-inkscape-stroke:none;stop-color:#000000"><tspan
         x="346.62131"
         y="426.59307"
         id="tspan14">second gear</tspan></text><path
       style="fill:none;stroke:#aa8800;stroke-width:0.264583;stroke-dasharray:none;marker-end:url(#marker11)"
       d="m 95.856461,109.46592 2.35875,-5.16379"
       id="path18" /><g
       id="main-2-5"
       transform="matrix(0.26458333,0,0,0.26458333,51.946797,217.38924)"><path
         d="m 104.3731,3.4921 0.5682,0.019 a 26.0224,26.0224 0 0 0 3.459,-0.8302 42.9681,42.9681 0 0 0 4.2826,-1.5981 50.6794,50.6794 0 0 0 5.8669,-3.0211 67.4462,67.4462 0 0 0 6.2954,-4.2807 l -0.316,-4.6197 a 67.4462,67.4462 0 0 0 -6.8196,-3.3835 50.6794,50.6794 0 0 0 -6.2237,-2.1942 42.9681,42.9681 0 0 0 -4.4603,-1.0001 26.0224,26.0224 0 0 0 -3.5398,-0.3514 l -0.5604,0.0962 a 2,2 0 0 1 -2.2966,-1.5642 l -0.6673,-3.2113 a 2,2 0 0 1 1.4833,-2.3497 l 0.5523,-0.135 a 26.0224,26.0224 0 0 0 3.1067,-1.7326 42.9681,42.9681 0 0 0 3.6926,-2.6943 50.6794,50.6794 0 0 0 4.8343,-4.492 67.4462,67.4462 0 0 0 4.907,-5.8204 l -1.5506,-4.3631 a 67.4462,67.4462 0 0 0 -7.4796,-1.4182 50.6794,50.6794 0 0 0 -6.5849,-0.4336 42.9681,42.9681 0 0 0 -4.5647,0.2403 26.0224,26.0224 0 0 0 -3.5034,0.6167 l -0.5136,0.2438 a 2,2 0 0 1 -2.6334,-0.8867 l -1.509,-2.9121 a 2,2 0 0 1 0.7943,-2.6628 l 0.4954,-0.279 a 26.0224,26.0224 0 0 0 2.5241,-2.5065 42.9681,42.9681 0 0 0 2.8287,-3.5906 50.6794,50.6794 0 0 0 3.4431,-5.6297 67.4462,67.4462 0 0 0 3.1548,-6.9285 l -2.6703,-3.783 a 67.4462,67.4462 0 0 0 -7.5849,0.6524 50.6794,50.6794 0 0 0 -6.4577,1.359 42.9681,42.9681 0 0 0 -4.3306,1.463 26.0224,26.0224 0 0 0 -3.2071,1.539 l -0.4287,0.3734 a 2,2 0 0 1 -2.7751,-0.1433 l -2.2386,-2.397 a 2,2 0 0 1 0.0464,-2.7784 l 0.4017,-0.4023 a 26.0224,26.0224 0 0 0 1.7543,-3.0946 42.9681,42.9681 0 0 0 1.7551,-4.2206 50.6794,50.6794 0 0 0 1.7965,-6.3499 67.4462,67.4462 0 0 0 1.1685,-7.5226 l -3.5919,-2.9223 a 67.4462,67.4462 0 0 0 -7.1276,2.6746 50.6794,50.6794 0 0 0 -5.8515,3.0509 42.9681,42.9681 0 0 0 -3.7753,2.5771 26.0224,26.0224 0 0 0 -2.673,2.3472 l -0.3121,0.4751 a 2,2 0 0 1 -2.7108,0.6108 l -2.8024,-1.7042 a 2,2 0 0 1 -0.7048,-2.6878 l 0.2783,-0.4958 a 26.0224,26.0224 0 0 0 0.8543,-3.4531 42.9681,42.9681 0 0 0 0.5513,-4.5377 50.6794,50.6794 0 0 0 0.0167,-6.5991 67.4462,67.4462 0 0 0 -0.9044,-7.5589 l -4.2472,-1.8448 a 67.4462,67.4462 0 0 0 -6.1417,4.4984 50.6794,50.6794 0 0 0 -4.8114,4.5164 42.9681,42.9681 0 0 0 -2.94,3.5001 26.0224,26.0224 0 0 0 -1.9406,2.9813 l -0.1723,0.5418 a 2,2 0 0 1 -2.4455,1.3195 l -3.1582,-0.8849 a 2,2 0 0 1 -1.4039,-2.398 l 0.1342,-0.5525 a 26.0224,26.0224 0 0 0 -0.109,-3.5556 42.9681,42.9681 0 0 0 -0.6934,-4.5181 50.6794,50.6794 0 0 0 -1.7643,-6.3589 67.4462,67.4462 0 0 0 -2.9103,-7.0346 l -4.5874,-0.6306 a 67.4462,67.4462 0 0 0 -4.7003,5.9886 50.6794,50.6794 0 0 0 -3.4144,5.6471 42.9681,42.9681 0 0 0 -1.8867,4.1635 26.0224,26.0224 0 0 0 -1.0643,3.3944 l -0.0198,0.5681 a 2,2 0 0 1 -1.9988,1.9303 h -3.2798 a 2,2 0 0 1 -1.9988,-1.9303 l -0.0198,-0.5681 a 26.0224,26.0224 0 0 0 -1.0643,-3.3944 42.9681,42.9681 0 0 0 -1.8867,-4.1635 50.6794,50.6794 0 0 0 -3.4144,-5.6471 67.4462,67.4462 0 0 0 -4.7003,-5.9886 l -4.5874,0.6306 a 67.4462,67.4462 0 0 0 -2.9103,7.0346 50.6794,50.6794 0 0 0 -1.7643,6.3589 42.9681,42.9681 0 0 0 -0.6934,4.5181 26.0224,26.0224 0 0 0 -0.109,3.5556 l 0.1342,0.5525 a 2,2 0 0 1 -1.4039,2.398 l -3.1582,0.8849 a 2,2 0 0 1 -2.4455,-1.3195 l -0.1723,-0.5418 a 26.0224,26.0224 0 0 0 -1.9406,-2.9813 42.9681,42.9681 0 0 0 -2.94,-3.5001 50.6794,50.6794 0 0 0 -4.8114,-4.5164 67.4462,67.4462 0 0 0 -6.1417,-4.4984 l -4.2472,1.8448 a 67.4462,67.4462 0 0 0 -0.9044,7.5589 50.6794,50.6794 0 0 0 0.0167,6.5991 42.9681,42.9681 0 0 0 0.5513,4.5377 26.0224,26.0224 0 0 0 0.8543,3.4531 l 0.2783,0.4958 a 2,2 0 0 1 -0.7048,2.6878 l -2.8024,1.7042 a 2,2 0 0 1 -2.7108,-0.6108 l -0.3121,-0.4751 a 26.0224,26.0224 0 0 0 -2.673,-2.3472 42.9681,42.9681 0 0 0 -3.7753,-2.5771 50.6794,50.6794 0 0 0 -5.8515,-3.0509 67.4462,67.4462 0 0 0 -7.1276,-2.6746 l -3.5919,2.9223 a 67.4462,67.4462 0 0 0 1.1685,7.5226 50.6794,50.6794 0 0 0 1.7965,6.3499 42.9681,42.9681 0 0 0 1.7551,4.2206 26.0224,26.0224 0 0 0 1.7543,3.0946 l 0.4017,0.4023 a 2,2 0 0 1 0.0464,2.7784 l -2.2386,2.397 a 2,2 0 0 1 -2.7751,0.1433 l -0.4287,-0.3734 a 26.0224,26.0224 0 0 0 -3.2071,-1.539 42.9681,42.9681 0 0 0 -4.3306,-1.463 50.6794,50.6794 0 0 0 -6.4577,-1.359 67.4462,67.4462 0 0 0 -7.5849,-0.6524 l -2.6703,3.783 a 67.4462,67.4462 0 0 0 3.1548,6.9285 50.6794,50.6794 0 0 0 3.4431,5.6297 42.9681,42.9681 0 0 0 2.8287,3.5906 26.0224,26.0224 0 0 0 2.5241,2.5065 l 0.4954,0.279 a 2,2 0 0 1 0.7943,2.6628 l -1.509,2.9121 a 2,2 0 0 1 -2.6334,0.8867 l -0.5136,-0.2438 a 26.0224,26.0224 0 0 0 -3.5034,-0.6167 42.9681,42.9681 0 0 0 -4.5647,-0.2403 50.6794,50.6794 0 0 0 -6.5849,0.4336 67.4462,67.4462 0 0 0 -7.4796,1.4182 l -1.5506,4.3631 a 67.4462,67.4462 0 0 0 4.907,5.8204 50.6794,50.6794 0 0 0 4.8343,4.492 42.9681,42.9681 0 0 0 3.6926,2.6943 26.0224,26.0224 0 0 0 3.1067,1.7326 l 0.5523,0.135 a 2,2 0 0 1 1.4833,2.3497 l -0.6673,3.2113 a 2,2 0 0 1 -2.2966,1.5642 l -0.5604,-0.0962 a 26.0224,26.0224 0 0 0 -3.5398,0.3514 42.9681,42.9681 0 0 0 -4.4603,1.0001 50.6794,50.6794 0 0 0 -6.2237,2.1942 67.4462,67.4462 0 0 0 -6.8196,3.3835 l -0.316,4.6197 a 67.4462,67.4462 0 0 0 6.2954,4.2807 50.6794,50.6794 0 0 0 5.8669,3.0211 42.9681,42.9681 0 0 0 4.2826,1.5981 26.0224,26.0224 0 0 0 3.459,0.8302 l 0.5682,-0.019 a 2,2 0 0 1 2.0622,1.8624 l 0.2239,3.2722 a 2,2 0 0 1 -1.7895,2.1259 l -0.5654,0.0585 a 26.0224,26.0224 0 0 0 -3.3138,1.2934 42.9681,42.9681 0 0 0 -4.0251,2.1664 50.6794,50.6794 0 0 0 -5.4009,3.7919 67.4462,67.4462 0 0 0 -5.6539,5.098 l 0.9421,4.5337 a 67.4462,67.4462 0 0 0 7.2169,2.4234 50.6794,50.6794 0 0 0 6.4645,1.3262 42.9681,42.9681 0 0 0 4.5549,0.3835 26.0224,26.0224 0 0 0 3.5547,-0.1339 l 0.542,-0.1716 a 2,2 0 0 1 2.4882,1.237 l 1.0984,3.0905 a 2,2 0 0 1 -1.1495,2.5298 l -0.5288,0.2089 a 26.0224,26.0224 0 0 0 -2.8419,2.1395 42.9681,42.9681 0 0 0 -3.2913,3.172 50.6794,50.6794 0 0 0 -4.1776,5.1084 67.4462,67.4462 0 0 0 -4.0688,6.4344 l 2.1304,4.1113 a 67.4462,67.4462 0 0 0 7.603,0.3865 50.6794,50.6794 0 0 0 6.5826,-0.467 42.9681,42.9681 0 0 0 4.4894,-0.8597 26.0224,26.0224 0 0 0 3.3868,-1.0879 l 0.4756,-0.3115 a 2,2 0 0 1 2.7297,0.5198 l 1.8915,2.6795 a 2,2 0 0 1 -0.4244,2.7461 l -0.4527,0.3439 a 26.0224,26.0224 0 0 0 -2.1593,2.8269 42.9681,42.9681 0 0 0 -2.3135,3.9423 50.6794,50.6794 0 0 0 -2.6445,6.0461 67.4462,67.4462 0 0 0 -2.1819,7.2935 l 3.1606,3.3842 a 67.4462,67.4462 0 0 0 7.4254,-1.6792 50.6794,50.6794 0 0 0 6.2124,-2.2256 42.9681,42.9681 0 0 0 4.0911,-2.0391 26.0224,26.0224 0 0 0 2.9676,-1.9613 l 0.374,-0.4283 a 2,2 0 0 1 2.7686,-0.2359 l 2.5443,2.0699 a 2,2 0 0 1 0.3323,2.7587 l -0.3432,0.4533 a 26.0224,26.0224 0 0 0 -1.3166,3.3046 42.9681,42.9681 0 0 0 -1.164,4.4204 50.6794,50.6794 0 0 0 -0.9152,6.5353 67.4462,67.4462 0 0 0 -0.1333,7.6117 l 3.9565,2.406 a 67.4462,67.4462 0 0 0 6.697,-3.6202 50.6794,50.6794 0 0 0 5.3816,-3.8193 42.9681,42.9681 0 0 0 3.3892,-3.0672 26.0224,26.0224 0 0 0 2.3284,-2.6893 l 0.2446,-0.5132 a 2,2 0 0 1 2.6023,-0.9742 l 3.0084,1.3067 a 2,2 0 0 1 1.0642,2.5668 l -0.2082,0.5291 a 26.0224,26.0224 0 0 0 -0.3761,3.5373 42.9681,42.9681 0 0 0 0.0717,4.5704 50.6794,50.6794 0 0 0 0.882,6.54 67.4462,67.4462 0 0 0 1.9253,7.3654 l 4.4588,1.2493 a 67.4462,67.4462 0 0 0 5.4719,-5.2928 50.6794,50.6794 0 0 0 4.1517,-5.1296 42.9681,42.9681 0 0 0 2.436,-3.8678 26.0224,26.0224 0 0 0 1.5165,-3.2178 l 0.097,-0.5602 a 2,2 0 0 1 2.243,-1.6402 l 3.2494,0.4467 a 2,2 0 0 1 1.7173,2.1845 l -0.0578,0.5655 a 26.0224,26.0224 0 0 0 0.5922,3.5076 42.9681,42.9681 0 0 0 1.3022,4.3817 50.6794,50.6794 0 0 0 2.6137,6.0594 67.4462,67.4462 0 0 0 3.841,6.5729 h 4.6306 a 67.4462,67.4462 0 0 0 3.841,-6.5729 50.6794,50.6794 0 0 0 2.6137,-6.0594 42.9681,42.9681 0 0 0 1.3022,-4.3817 26.0224,26.0224 0 0 0 0.5922,-3.5076 l -0.0578,-0.5655 a 2,2 0 0 1 1.7173,-2.1845 l 3.2494,-0.4467 a 2,2 0 0 1 2.243,1.6402 l 0.097,0.5602 a 26.0224,26.0224 0 0 0 1.5165,3.2178 42.9681,42.9681 0 0 0 2.436,3.8678 50.6794,50.6794 0 0 0 4.1517,5.1296 67.4462,67.4462 0 0 0 5.4719,5.2928 l 4.4588,-1.2493 a 67.4462,67.4462 0 0 0 1.9253,-7.3654 50.6794,50.6794 0 0 0 0.882,-6.54 42.9681,42.9681 0 0 0 0.0717,-4.5704 26.0224,26.0224 0 0 0 -0.3761,-3.5373 l -0.2082,-0.5291 a 2,2 0 0 1 1.0642,-2.5668 l 3.0084,-1.3067 a 2,2 0 0 1 2.6023,0.9742 l 0.2446,0.5132 a 26.0224,26.0224 0 0 0 2.3284,2.6893 42.9681,42.9681 0 0 0 3.3892,3.0672 50.6794,50.6794 0 0 0 5.3816,3.8193 67.4462,67.4462 0 0 0 6.697,3.6202 l 3.9565,-2.406 a 67.4462,67.4462 0 0 0 -0.1333,-7.6117 50.6794,50.6794 0 0 0 -0.9152,-6.5353 42.9681,42.9681 0 0 0 -1.164,-4.4204 26.0224,26.0224 0 0 0 -1.3166,-3.3046 l -0.3432,-0.4533 a 2,2 0 0 1 0.3323,-2.7587 l 2.5443,-2.0699 a 2,2 0 0 1 2.7686,0.2359 l 0.374,0.4283 a 26.0224,26.0224 0 0 0 2.9676,1.9613 42.9681,42.9681 0 0 0 4.0911,2.0391 50.6794,50.6794 0 0 0 6.2124,2.2256 67.4462,67.4462 0 0 0 7.4254,1.6792 l 3.1606,-3.3842 a 67.4462,67.4462 0 0 0 -2.1819,-7.2935 50.6794,50.6794 0 0 0 -2.6445,-6.0461 42.9681,42.9681 0 0 0 -2.3135,-3.9423 26.0224,26.0224 0 0 0 -2.1593,-2.8269 l -0.4527,-0.3439 a 2,2 0 0 1 -0.4244,-2.7461 l 1.8915,-2.6795 a 2,2 0 0 1 2.7297,-0.5198 l 0.4756,0.3115 a 26.0224,26.0224 0 0 0 3.3868,1.0879 42.9681,42.9681 0 0 0 4.4894,0.8597 50.6794,50.6794 0 0 0 6.5826,0.467 67.4462,67.4462 0 0 0 7.603,-0.3865 l 2.1304,-4.1113 a 67.4462,67.4462 0 0 0 -4.0688,-6.4344 50.6794,50.6794 0 0 0 -4.1776,-5.1084 42.9681,42.9681 0 0 0 -3.2913,-3.172 26.0224,26.0224 0 0 0 -2.8419,-2.1395 l -0.5288,-0.2089 a 2,2 0 0 1 -1.1495,-2.5298 l 1.0984,-3.0905 a 2,2 0 0 1 2.4882,-1.237 l 0.542,0.1716 a 26.0224,26.0224 0 0 0 3.5547,0.1339 42.9681,42.9681 0 0 0 4.5549,-0.3835 50.6794,50.6794 0 0 0 6.4645,-1.3262 67.4462,67.4462 0 0 0 7.2169,-2.4234 l 0.9421,-4.5337 a 67.4462,67.4462 0 0 0 -5.6539,-5.098 50.6794,50.6794 0 0 0 -5.4009,-3.7919 42.9681,42.9681 0 0 0 -4.0251,-2.1664 26.0224,26.0224 0 0 0 -3.3138,-1.2934 l -0.5654,-0.0585 A 2,2 0 0 1 102.087,8.6267 l 0.2239,-3.2722 a 2,2 0 0 1 2.0622,-1.8624 z"
         stroke="#4682b4"
         stroke-width="1"
         fill="none"
         id="path1-7-3" /><path
         d="M 16,-4 H 10.3923 A 2,2 0 0 1 8.6603,-5 10,10 0 0 0 7.4314,-6.6913 2,2 0 0 1 7.0156,-8.6476 l 1.7329,-5.3332 A 2,2 0 0 0 7.4644,-16.501 L 3.6602,-17.7371 A 2,2 0 0 0 1.14,-16.453 l -1.7328,5.3333 a 2,2 0 0 1 -1.4863,1.3382 10,10 0 0 0 -1.9883,0.646 2,2 0 0 1 -1.989,-0.209 l -4.5367,-3.2961 a 2,2 0 0 0 -2.7936,0.4424 l -2.3512,3.2361 a 2,2 0 0 0 0.4425,2.7936 l 4.5367,3.2961 a 2,2 0 0 1 0.8135,1.8271 10,10 0 0 0 0,2.0906 2,2 0 0 1 -0.8135,1.8271 l -4.5367,3.2961 a 2,2 0 0 0 -0.4425,2.7936 l 2.3512,3.2361 a 2,2 0 0 0 2.7936,0.4424 l 4.5367,-3.2961 a 2,2 0 0 1 1.989,-0.209 10,10 0 0 0 1.9883,0.646 2,2 0 0 1 1.4863,1.3382 L 1.14,16.453 a 2,2 0 0 0 2.5202,1.2841 L 7.4644,16.501 A 2,2 0 0 0 8.7485,13.9808 L 7.0156,8.6476 A 2,2 0 0 1 7.4314,6.6913 10,10 0 0 0 8.6603,5 2,2 0 0 1 10.3923,4 H 16 a 2,2 0 0 0 2,-2 v -4 a 2,2 0 0 0 -2,-2 z"
         stroke="#4682b4"
         stroke-width="1"
         fill="none"
         id="path2-0-5" /><path
         d="m 80.0605,-19.9138 a 82.5,82.5 0 0 0 -36.3813,-50.0746 10,10 0 0 0 -14.805,5.3933 l -9.6038,29.5573 a 10,10 0 0 0 2.8174,10.5198 33,33 0 0 1 8.0557,11.0878 10,10 0 0 0 9.1344,5.9302 h 31.0783 a 10,10 0 0 0 9.7043,-12.4138 z"
         stroke="#4682b4"
         stroke-width="1"
         fill="none"
         id="path3-9-6" /><path
         d="m 5.8009,-82.2958 a 82.5,82.5 0 0 0 -58.8662,19.1268 10,10 0 0 0 0.5543,15.747 l 25.1429,18.2674 a 10,10 0 0 0 10.8756,0.5714 33,33 0 0 1 13.0344,-4.2351 10,10 0 0 0 8.4627,-6.8548 l 9.6037,-29.5573 A 10,10 0 0 0 5.8009,-82.2958 Z"
         stroke="#4682b4"
         stroke-width="1"
         fill="none"
         id="path4-3-2" /><path
         d="m -76.4754,-30.9478 a 82.5,82.5 0 0 0 0,61.8956 10,10 0 0 0 15.1476,4.3389 l 25.143,-18.2674 a 10,10 0 0 0 3.9041,-10.1667 33,33 0 0 1 0,-13.7052 10,10 0 0 0 -3.9041,-10.1667 l -25.143,-18.2674 a 10,10 0 0 0 -15.1476,4.3389 z"
         stroke="#4682b4"
         stroke-width="1"
         fill="none"
         id="path5-6-9" /><path
         d="M -53.0653,63.169 A 82.5,82.5 0 0 0 5.8009,82.2958 10,10 0 0 0 14.6083,69.2304 L 5.0046,39.6731 a 10,10 0 0 0 -8.4627,-6.8548 33,33 0 0 1 -13.0344,-4.2351 10,10 0 0 0 -10.8756,0.5714 L -52.511,47.422 a 10,10 0 0 0 -0.5543,15.747 z"
         stroke="#4682b4"
         stroke-width="1"
         fill="none"
         id="path6-0-1" /><path
         d="M 43.6792,69.9884 A 82.5,82.5 0 0 0 80.0605,19.9138 10,10 0 0 0 70.3562,7.5 H 39.2779 a 10,10 0 0 0 -9.1344,5.9302 33,33 0 0 1 -8.0557,11.0878 10,10 0 0 0 -2.8174,10.5198 l 9.6038,29.5573 a 10,10 0 0 0 14.805,5.3933 z"
         stroke="#4682b4"
         stroke-width="1"
         fill="none"
         id="path7-6-2" /></g><g
       id="second-2-7"
       transform="matrix(0.26039875,0.04687035,-0.04687035,0.26039875,42.513101,171.9348)"><path
         d="m 129.2253,24.5019 -0.5655,0.1715 a 7.7281,7.7281 0 0 0 -1.7055,0.7523 30.8447,30.8447 0 0 0 -3.0806,2.0927 36.9994,36.9994 0 0 0 -5.4055,5.1158 57.7947,57.7947 0 0 0 -5.4922,7.5073 l 1.7784,4.0543 a 57.7947,57.7947 0 0 0 9.243,1.0437 36.9994,36.9994 0 0 0 7.4249,-0.5121 30.8447,30.8447 0 0 0 3.6261,-0.849 7.7281,7.7281 0 0 0 1.7086,-0.7453 l 0.5092,-0.2999 a 2,2 0 0 1 2.6892,0.6295 l 2.106,3.2235 a 2,2 0 0 1 -0.5038,2.7156 l -0.4791,0.3458 a 7.7281,7.7281 0 0 0 -1.3689,1.2654 30.8447,30.8447 0 0 0 -2.2341,2.9796 36.9994,36.9994 0 0 0 -3.4515,6.5938 57.7947,57.7947 0 0 0 -2.7571,8.8838 l 2.9985,3.2572 a 57.7947,57.7947 0 0 0 9.0811,-2.0141 36.9994,36.9994 0 0 0 6.8563,-2.8952 30.8447,30.8447 0 0 0 3.1539,-1.9804 7.7281,7.7281 0 0 0 1.3741,-1.2597 l 0.3842,-0.449 a 2,2 0 0 1 2.7479,-0.2778 l 3.0386,2.3651 a 2,2 0 0 1 0.4053,2.732 l -0.3409,0.4826 a 7.7281,7.7281 0 0 0 -0.8839,1.6413 30.8447,30.8447 0 0 0 -1.1456,3.5436 36.9994,36.9994 0 0 0 -1.1235,7.3572 57.7947,57.7947 0 0 0 0.2769,9.2977 l 3.8936,2.1071 a 57.7947,57.7947 0 0 0 7.9352,-4.8536 36.9994,36.9994 0 0 0 5.5447,-4.9645 30.8447,30.8447 0 0 0 2.34,-2.8972 7.7281,7.7281 0 0 0 0.8906,-1.6377 l 0.2176,-0.5493 a 2,2 0 0 1 2.5088,-1.155 l 3.6419,1.2502 a 2,2 0 0 1 1.2704,2.4524 l -0.1657,0.5672 a 7.7281,7.7281 0 0 0 -0.3031,1.8393 30.8447,30.8447 0 0 0 0.0671,3.7236 36.9994,36.9994 0 0 0 1.3263,7.3234 57.7947,57.7947 0 0 0 3.2808,8.704 l 4.3668,0.7287 a 57.7947,57.7947 0 0 0 5.9293,-7.1671 36.9994,36.9994 0 0 0 3.6323,-6.496 30.8447,30.8447 0 0 0 1.2724,-3.5 7.7281,7.7281 0 0 0 0.3106,-1.8381 l 0.0275,-0.5902 a 2,2 0 0 1 1.9978,-1.9071 h 3.8506 a 2,2 0 0 1 1.9978,1.9071 l 0.0275,0.5902 a 7.7281,7.7281 0 0 0 0.3106,1.8381 30.8447,30.8447 0 0 0 1.2724,3.5 36.9994,36.9994 0 0 0 3.6323,6.496 57.7947,57.7947 0 0 0 5.9293,7.1671 l 4.3668,-0.7287 a 57.7947,57.7947 0 0 0 3.2808,-8.704 36.9994,36.9994 0 0 0 1.3263,-7.3234 30.8447,30.8447 0 0 0 0.0671,-3.7236 7.7281,7.7281 0 0 0 -0.3031,-1.8393 l -0.1657,-0.5672 a 2,2 0 0 1 1.2704,-2.4524 l 3.6419,-1.2502 a 2,2 0 0 1 2.5088,1.155 l 0.2176,0.5493 a 7.7281,7.7281 0 0 0 0.8906,1.6377 30.8447,30.8447 0 0 0 2.34,2.8972 36.9994,36.9994 0 0 0 5.5447,4.9645 57.7947,57.7947 0 0 0 7.9352,4.8536 l 3.8936,-2.1071 a 57.7947,57.7947 0 0 0 0.2769,-9.2977 36.9994,36.9994 0 0 0 -1.1235,-7.3572 30.8447,30.8447 0 0 0 -1.1456,-3.5436 7.7281,7.7281 0 0 0 -0.8839,-1.6413 l -0.3409,-0.4826 a 2,2 0 0 1 0.4053,-2.732 l 3.0386,-2.3651 a 2,2 0 0 1 2.7479,0.2778 l 0.3842,0.449 a 7.7281,7.7281 0 0 0 1.3741,1.2597 30.8447,30.8447 0 0 0 3.1539,1.9804 36.9994,36.9994 0 0 0 6.8563,2.8952 57.7947,57.7947 0 0 0 9.0811,2.0141 l 2.9985,-3.2572 a 57.7947,57.7947 0 0 0 -2.7571,-8.8838 36.9994,36.9994 0 0 0 -3.4515,-6.5938 30.8447,30.8447 0 0 0 -2.2341,-2.9796 7.7281,7.7281 0 0 0 -1.3689,-1.2654 l -0.4791,-0.3458 a 2,2 0 0 1 -0.5038,-2.7156 l 2.106,-3.2235 a 2,2 0 0 1 2.6892,-0.6295 l 0.5092,0.2999 a 7.7281,7.7281 0 0 0 1.7086,0.7453 30.8447,30.8447 0 0 0 3.6261,0.849 36.9994,36.9994 0 0 0 7.4249,0.5121 57.7947,57.7947 0 0 0 9.243,-1.0437 l 1.7784,-4.0543 a 57.7947,57.7947 0 0 0 -5.4922,-7.5073 36.9994,36.9994 0 0 0 -5.4055,-5.1158 30.8447,30.8447 0 0 0 -3.0806,-2.0927 7.7281,7.7281 0 0 0 -1.7055,-0.7523 l -0.5655,-0.1715 a 2,2 0 0 1 -1.3582,-2.4049 l 0.9452,-3.7327 a 2,2 0 0 1 2.3392,-1.4685 l 0.5789,0.1182 a 7.7281,7.7281 0 0 0 1.858,0.1502 30.8447,30.8447 0 0 0 3.7053,-0.3743 36.9994,36.9994 0 0 0 7.1889,-1.9266 57.7947,57.7947 0 0 0 8.4033,-3.9883 l 0.3656,-4.4121 a 57.7947,57.7947 0 0 0 -7.6322,-5.3172 36.9994,36.9994 0 0 0 -6.7738,-3.0835 30.8447,30.8447 0 0 0 -3.5931,-0.979 7.7281,7.7281 0 0 0 -1.8574,-0.1578 l -0.5905,0.0214 a 2,2 0 0 1 -2.0655,-1.8335 l -0.318,-3.8374 a 2,2 0 0 1 1.7355,-2.1485 l 0.586,-0.0761 a 7.7281,7.7281 0 0 0 1.8061,-0.4613 30.8447,30.8447 0 0 0 3.383,-1.5572 36.9994,36.9994 0 0 0 6.1738,-4.1563 57.7947,57.7947 0 0 0 6.653,-6.5009 l -1.0868,-4.2917 a 57.7947,57.7947 0 0 0 -8.9452,-2.5509 36.9994,36.9994 0 0 0 -7.4079,-0.717 30.8447,30.8447 0 0 0 -3.7164,0.2407 7.7281,7.7281 0 0 0 -1.808,0.4539 l -0.5515,0.212 a 2,2 0 0 1 -2.549,-1.0636 l -1.5467,-3.5262 a 2,2 0 0 1 0.9439,-2.5956 l 0.5295,-0.2622 a 7.7281,7.7281 0 0 0 1.5585,-1.0228 30.8447,30.8447 0 0 0 2.6941,-2.5712 36.9994,36.9994 0 0 0 4.4897,-5.9358 57.7947,57.7947 0 0 0 4.1817,-8.3088 l -2.4215,-3.7064 a 57.7947,57.7947 0 0 0 -9.2888,0.4919 36.9994,36.9994 0 0 0 -7.2393,1.7272 30.8447,30.8447 0 0 0 -3.4368,1.4343 7.7281,7.7281 0 0 0 -1.5627,1.0164 l -0.4529,0.3796 a 2,2 0 0 1 -2.7561,-0.1783 l -2.6079,-2.8329 a 2,2 0 0 1 0.0499,-2.7615 l 0.4157,-0.4199 a 7.7281,7.7281 0 0 0 1.142,-1.4734 30.8447,30.8447 0 0 0 1.7132,-3.3067 36.9994,36.9994 0 0 0 2.3191,-7.072 57.7947,57.7947 0 0 0 1.2573,-9.2164 l -3.4937,-2.7193 a 57.7947,57.7947 0 0 0 -8.6258,3.4813 36.9994,36.9994 0 0 0 -6.2863,3.9842 30.8447,30.8447 0 0 0 -2.7849,2.4726 7.7281,7.7281 0 0 0 -1.148,1.4687 l -0.3051,0.506 a 2,2 0 0 1 -2.6647,0.7263 l -3.3864,-1.8326 a 2,2 0 0 1 -0.8494,-2.6281 l 0.2568,-0.5321 a 7.7281,7.7281 0 0 0 0.6017,-1.7644 30.8447,30.8447 0 0 0 0.5467,-3.6838 36.9994,36.9994 0 0 0 -0.1028,-7.4418 57.7947,57.7947 0 0 0 -1.8035,-9.1253 l -4.1873,-1.4375 a 57.7947,57.7947 0 0 0 -7.0281,6.0934 36.9994,36.9994 0 0 0 -4.6519,5.8095 30.8447,30.8447 0 0 0 -1.8312,3.2429 7.7281,7.7281 0 0 0 -0.6089,1.7618 l -0.1242,0.5777 a 2,2 0 0 1 -2.2845,1.5522 l -3.798,-0.6338 a 2,2 0 0 1 -1.6567,-2.2098 l 0.07,-0.5868 a 7.7281,7.7281 0 0 0 -0.004,-1.8641 30.8447,30.8447 0 0 0 -0.679,-3.6617 36.9994,36.9994 0 0 0 -2.5136,-7.0052 57.7947,57.7947 0 0 0 -4.6687,-8.0453 h -4.4272 a 57.7947,57.7947 0 0 0 -4.6687,8.0453 36.9994,36.9994 0 0 0 -2.5136,7.0052 30.8447,30.8447 0 0 0 -0.679,3.6617 7.7281,7.7281 0 0 0 -0.004,1.8641 l 0.07,0.5868 a 2,2 0 0 1 -1.6567,2.2098 l -3.798,0.6338 a 2,2 0 0 1 -2.2845,-1.5522 l -0.1242,-0.5777 a 7.7281,7.7281 0 0 0 -0.6089,-1.7618 30.8447,30.8447 0 0 0 -1.8312,-3.2429 36.9994,36.9994 0 0 0 -4.6519,-5.8095 57.7947,57.7947 0 0 0 -7.0281,-6.0934 l -4.1873,1.4375 a 57.7947,57.7947 0 0 0 -1.8035,9.1253 36.9994,36.9994 0 0 0 -0.1028,7.4418 30.8447,30.8447 0 0 0 0.5467,3.6838 7.7281,7.7281 0 0 0 0.6017,1.7644 l 0.2568,0.5321 a 2,2 0 0 1 -0.8494,2.6281 l -3.3864,1.8326 a 2,2 0 0 1 -2.6647,-0.7263 l -0.3051,-0.506 a 7.7281,7.7281 0 0 0 -1.148,-1.4687 30.8447,30.8447 0 0 0 -2.7849,-2.4726 36.9994,36.9994 0 0 0 -6.2863,-3.9842 57.7947,57.7947 0 0 0 -8.6258,-3.4813 l -3.4937,2.7193 a 57.7947,57.7947 0 0 0 1.2573,9.2164 36.9994,36.9994 0 0 0 2.3191,7.072 30.8447,30.8447 0 0 0 1.7132,3.3067 7.7281,7.7281 0 0 0 1.142,1.4734 l 0.4157,0.4199 a 2,2 0 0 1 0.0499,2.7615 l -2.6079,2.8329 a 2,2 0 0 1 -2.7561,0.1783 l -0.4529,-0.3796 a 7.7281,7.7281 0 0 0 -1.5627,-1.0164 30.8447,30.8447 0 0 0 -3.4368,-1.4343 36.9994,36.9994 0 0 0 -7.2393,-1.7272 57.7947,57.7947 0 0 0 -9.2888,-0.4919 l -2.4215,3.7064 a 57.7947,57.7947 0 0 0 4.1817,8.3088 36.9994,36.9994 0 0 0 4.4897,5.9358 30.8447,30.8447 0 0 0 2.6941,2.5712 7.7281,7.7281 0 0 0 1.5585,1.0228 l 0.5295,0.2622 a 2,2 0 0 1 0.9439,2.5956 l -1.5467,3.5262 a 2,2 0 0 1 -2.549,1.0636 l -0.5515,-0.212 a 7.7281,7.7281 0 0 0 -1.808,-0.4539 30.8447,30.8447 0 0 0 -3.7164,-0.2407 36.9994,36.9994 0 0 0 -7.4079,0.717 57.7947,57.7947 0 0 0 -8.9452,2.5509 l -1.0868,4.2917 a 57.7947,57.7947 0 0 0 6.653,6.5009 36.9994,36.9994 0 0 0 6.1738,4.1563 30.8447,30.8447 0 0 0 3.383,1.5572 7.7281,7.7281 0 0 0 1.8061,0.4613 l 0.586,0.0761 a 2,2 0 0 1 1.7355,2.1485 l -0.318,3.8374 a 2,2 0 0 1 -2.0655,1.8335 l -0.5905,-0.0214 a 7.7281,7.7281 0 0 0 -1.8574,0.1578 30.8447,30.8447 0 0 0 -3.5931,0.979 36.9994,36.9994 0 0 0 -6.7738,3.0835 57.7947,57.7947 0 0 0 -7.6322,5.3172 l 0.3656,4.4121 a 57.7947,57.7947 0 0 0 8.4033,3.9883 36.9994,36.9994 0 0 0 7.1889,1.9266 30.8447,30.8447 0 0 0 3.7053,0.3743 7.7281,7.7281 0 0 0 1.858,-0.1502 l 0.5789,-0.1182 a 2,2 0 0 1 2.3392,1.4685 l 0.9452,3.7327 a 2,2 0 0 1 -1.3582,2.4049 z"
         stroke="#ee82ee"
         stroke-width="1"
         fill="none"
         id="path15-6-0" /></g><path
       style="fill:#aa8800;stroke:#ff0000;stroke-width:0.52916667"
       d="M 52.012251,217.69002 97.13853,181.74679"
       id="path16"
       sodipodi:nodetypes="cc" /><path
       style="fill:#aa8800;stroke:#999999;stroke-width:0.264583"
       d="M 52.012251,217.69002 H 91.016285"
       id="path19" /><path
       style="fill:#aa8800;stroke:#1a1a1a;stroke-width:0.26458333;marker-start:url(#marker11);marker-end:url(#marker11)"
       d="m 76.770976,197.96114 1.676087,-1.32654"
       id="path20"
       sodipodi:nodetypes="cc" /><path
       style="fill:none;stroke:#000000;stroke-width:0.264583;marker-end:;marker-start:url(#marker11)"
       d="m 61.172878,210.43963 c 0,0 2.024901,1.40259 2.526572,2.46755 0.664271,1.41014 0.388879,4.66009 0.388879,4.66009"
       id="path21"
       sodipodi:nodetypes="cac" /><text
       xml:space="preserve"
       transform="matrix(0.26458333,0,0,0.26458333,2.0754224,0.89488992)"
       id="text21"
       style="font-size:14.6667px;line-height:normal;font-family:'Liberation Mono';-inkscape-font-specification:'Liberation Mono';text-align:start;text-decoration-color:#000000;white-space:pre;shape-inside:url(#rect21);fill:#000000;stroke-width:1;-inkscape-stroke:none;stop-color:#000000"
       x="-73.69516"
       y="0"><tspan
         x="327.26562"
         y="807.96416"
         id="tspan15">angleCenterCenter</tspan></text><path
       style="fill:none;stroke:#000000;stroke-width:0.264583;marker-start:url(#marker11)"
       d="m 64.929053,213.67198 23.083115,0.25647"
       id="path22" /><text
       xml:space="preserve"
       transform="matrix(0.26458333,0,0,0.26458333,-6.4762623,-0.88979743)"
       id="text23"
       style="font-size:14.6667px;line-height:normal;font-family:'Liberation Mono';-inkscape-font-specification:'Liberation Mono';text-align:center;text-decoration-color:#000000;white-space:pre;shape-inside:url(#rect23);fill:#000000;stroke-width:1;-inkscape-stroke:none;stop-color:#000000"><tspan
         x="155.13855"
         y="634.75909"
         id="tspan16">addInterAxis</tspan></text><path
       style="fill:none;stroke:#000000;stroke-width:0.264583;marker-end:url(#marker11)"
       d="m 53.545713,167.88838 22.701408,27.94344"
       id="path23" /></g></svg>
