<?xml version="1.0" encoding="UTF-8" standalone="no"?>
<!-- Created with Inkscape (http://www.inkscape.org/) -->

<svg
   width="341.48035"
   height="437.01443"
   viewBox="0 0 90.350008 115.62674"
   version="1.1"
   id="svg1"
   inkscape:version="1.3.2 (1:1.3.2+202404261509+091e20ef0f)"
   sodipodi:docname="src_gearwheel_params.svg"
   xml:space="preserve"
   xmlns:inkscape="http://www.inkscape.org/namespaces/inkscape"
   xmlns:sodipodi="http://sodipodi.sourceforge.net/DTD/sodipodi-0.dtd"
   xmlns="http://www.w3.org/2000/svg"
   xmlns:svg="http://www.w3.org/2000/svg"><sodipodi:namedview
     id="namedview1"
     pagecolor="#ffffff"
     bordercolor="#000000"
     borderopacity="0.25"
     inkscape:showpageshadow="2"
     inkscape:pageopacity="0.0"
     inkscape:pagecheckerboard="0"
     inkscape:deskcolor="#d1d1d1"
     inkscape:document-units="px"
     inkscape:zoom="1.1162328"
     inkscape:cx="352.97296"
     inkscape:cy="4030.5211"
     inkscape:window-width="1854"
     inkscape:window-height="1131"
     inkscape:window-x="66"
     inkscape:window-y="32"
     inkscape:window-maximized="1"
     inkscape:current-layer="layer1" /><defs
     id="defs1"><rect
       x="374.79285"
       y="3677.1899"
       width="168.36809"
       height="153.86382"
       id="rect91" /><rect
       x="360.36215"
       y="3656.6418"
       width="52.119568"
       height="22.266176"
       id="rect90" /><rect
       x="270.11133"
       y="3653.6553"
       width="38.095959"
       height="31.597519"
       id="rect89" /><rect
       x="248.49278"
       y="3598.8049"
       width="230.9122"
       height="131.77176"
       id="rect87" /><rect
       x="364.73618"
       y="3494.3098"
       width="114.88044"
       height="28.209597"
       id="rect83" /><rect
       x="170.58073"
       y="3487.7217"
       width="135.59274"
       height="35.599739"
       id="rect82" /><rect
       x="264.44348"
       y="3319.99"
       width="113.2711"
       height="19.988472"
       id="rect59" /><rect
       x="317.14233"
       y="3384.4336"
       width="136.28767"
       height="26.693617"
       id="rect57" /><marker
       style="overflow:visible"
       id="marker11"
       refX="0"
       refY="0"
       orient="auto-start-reverse"
       inkscape:stockid="Wide arrow"
       markerWidth="1"
       markerHeight="1"
       viewBox="0 0 1 1"
       inkscape:isstock="true"
       inkscape:collect="always"
       preserveAspectRatio="xMidYMid"><path
         style="fill:none;stroke:context-stroke;stroke-width:1;stroke-linecap:butt"
         d="M 3,-3 0,0 3,3"
         transform="rotate(180,0.125,0)"
         sodipodi:nodetypes="ccc"
         id="path11" /></marker><rect
       x="374.79285"
       y="3677.1899"
       width="168.36809"
       height="153.86382"
       id="rect91-1" /></defs><g
     inkscape:label="Layer 1"
     inkscape:groupmode="layer"
     id="layer1"
     transform="translate(-45.268394,-878.07172)"><rect
       style="fill:#ffffff;stroke:#ffffff;stroke-width:0.264583"
       id="rect94-4-0-3"
       width="90.085426"
       height="115.3621"
       x="45.400684"
       y="878.20404"
       inkscape:export-filename="gearwheel_params_involSim.svg"
       inkscape:export-xdpi="96"
       inkscape:export-ydpi="96" /><rect
       style="fill:#d5f6ff;stroke:#808080;stroke-width:0.264584"
       id="rect88-2-4-9-1"
       width="41.787521"
       height="4.1787639"
       x="90.36982"
       y="955.31482" /><rect
       style="fill:#d7f4e3;stroke:#808080;stroke-width:0.264584"
       id="rect88-2-4"
       width="41.787521"
       height="30.532919"
       x="48.582298"
       y="959.49359" /><rect
       style="fill:#d7f4e3;stroke:#808080;stroke-width:0.264584"
       id="rect88-2-4-9"
       width="41.787521"
       height="4.1787639"
       x="48.582294"
       y="955.31482" /><path
       d="m 81.409544,944.11517 1.981994,1.21037 c 0.07801,0.0476 0.159631,0.0891 0.244105,0.12406 0.168676,0.0697 0.340009,0.13289 0.513609,0.18928 0.347329,0.11282 0.701632,0.20292 1.060662,0.26972 0.448595,0.0835 0.90123,0.14353 1.356068,0.17994 l 0.653151,-1.20359 c -0.231129,-0.59633 -0.489114,-1.18189 -0.773166,-1.7549 -0.262383,-0.5293 -0.550532,-1.04543 -0.863414,-1.54654 -0.261119,-0.4182 -0.540779,-0.82452 -0.838147,-1.21777 -0.267943,-0.35435 -0.553285,-0.69519 -0.854975,-1.02129 l -0.143298,-0.053 c -0.266515,-0.0985 -0.407691,-0.38986 -0.319802,-0.66005 l 0.346869,-1.0663 c 0.0879,-0.27019 0.373484,-0.42274 0.646932,-0.34557 l 2.235042,0.63074 c 0.08798,0.0248 0.177758,0.0427 0.268525,0.0536 0.181246,0.0217 0.363267,0.0362 0.54565,0.0437 0.36488,0.0149 0.730345,0.006 1.094079,-0.0264 0.454476,-0.0407 0.906529,-0.10494 1.354323,-0.19259 l 0.304217,-1.33519 c -0.383443,-0.51185 -0.789844,-1.0061 -1.217956,-1.48122 -0.395457,-0.43888 -0.812172,-0.85813 -1.248648,-1.25624 -0.364264,-0.33224 -0.74318,-0.64805 -1.135618,-0.94649 -0.35361,-0.26891 -0.720332,-0.52013 -1.098815,-0.75274 l -0.152267,-0.0123 c -0.283202,-0.0229 -0.497751,-0.26541 -0.486014,-0.5493 l 0.0463,-1.12033 c 0.01174,-0.2839 0.245584,-0.50785 0.529723,-0.50731 l -6.8e-5,10e-4 2.322327,0.004 c 0.09141,1.9e-4 0.182696,-0.007 0.273024,-0.0208 0.180361,-0.0281 0.359558,-0.0631 0.537183,-0.10514 0.355387,-0.0841 0.704926,-0.19118 1.046401,-0.32065 0.426653,-0.16176 0.844598,-0.34561 1.25214,-0.55081 l -0.06731,-1.36776 c -0.507319,-0.38943 -1.031995,-0.7557 -1.572418,-1.09771 -0.499202,-0.31592 -1.013577,-0.60719 -1.541278,-0.87278 -0.440396,-0.22164 -0.890468,-0.4235 -1.348872,-0.60499 -0.413043,-0.16354 -0.833938,-0.30652 -1.261136,-0.42839 l -0.14994,0.0292 c -0.278892,0.0543 -0.550922,-0.12127 -0.616214,-0.3978 l -0.257652,-1.09127 c -0.06529,-0.27653 0.09946,-0.55527 0.373195,-0.63141 l 2.237396,-0.62235 c 0.08807,-0.0245 0.174091,-0.0558 0.257281,-0.0937 0.166106,-0.0757 0.329196,-0.15778 0.488897,-0.24617 0.319519,-0.17684 0.627192,-0.37428 0.921068,-0.59108 0.367187,-0.27088 0.720027,-0.56068 1.057089,-0.86823 l -0.43381,-1.29886 c -0.593577,-0.23811 -1.197621,-0.44924 -1.81028,-0.63276 -0.565918,-0.16951 -1.139799,-0.31121 -1.71958,-0.42457 -0.483865,-0.0946 -0.971713,-0.16758 -1.462087,-0.21868 -0.441853,-0.046 -0.885716,-0.0701 -1.329955,-0.0722 l -0.136498,0.0686 c -0.253885,0.12756 -0.563193,0.0319 -0.70067,-0.2168 l -0.542528,-0.98129 c -0.137478,-0.24866 -0.05405,-0.5615 0.188992,-0.70868 l 1.986518,-1.20293 c 0.0782,-0.0473 0.152578,-0.10072 0.222462,-0.15965 0.139527,-0.11768 0.274408,-0.24076 0.404336,-0.36896 0.259971,-0.25648 0.502975,-0.52961 0.727472,-0.81765 0.280488,-0.35989 0.542057,-0.73414 0.783643,-1.12122 l -0.768165,-1.13366 c -0.635805,-0.0691 -1.274412,-0.10949 -1.913863,-0.12092 -0.590672,-0.0106 -1.181507,0.008 -1.77038,0.0551 -0.491444,0.0394 -0.980881,0.10081 -1.46685,0.18391 -0.437892,0.0749 -0.871803,0.17143 -1.300136,0.28927 l -0.112925,0.10287 c -0.21005,0.19134 -0.533714,0.18264 -0.733186,-0.0197 l -0.787162,-0.79854 c -0.199469,-0.20235 -0.20353,-0.52611 -0.0092,-0.7334 l 1.58832,-1.69429 c 0.06251,-0.0667 0.119722,-0.13815 0.171106,-0.21375 0.102612,-0.15095 0.199294,-0.30586 0.289825,-0.46435 0.181126,-0.31711 0.341423,-0.64568 0.479875,-0.98361 0.172993,-0.42222 0.323895,-0.85316 0.452093,-1.29106 l -1.045554,-0.8844 c -0.630868,0.10497 -1.256665,0.23842 -1.875472,0.39994 -0.571616,0.14921 -1.13558,0.32632 -1.689867,0.53071 -0.462581,0.17057 -0.917314,0.36171 -1.362843,0.57285 -0.401449,0.19025 -0.793222,0.40027 -1.173877,0.62931 l -0.08099,0.12951 c -0.150643,0.24092 -0.464664,0.31987 -0.711332,0.17883 l -0.973402,-0.55655 c -0.246656,-0.14103 -0.337911,-0.45168 -0.206719,-0.70371 l 1.072277,-2.05997 c 0.04221,-0.0811 0.07802,-0.16533 0.107103,-0.25199 0.05808,-0.17304 0.109389,-0.34829 0.153803,-0.52533 0.08886,-0.35422 0.154568,-0.71385 0.196717,-1.07661 0.05265,-0.45324 0.08168,-0.90891 0.08697,-1.36517 L 70.9586,899.36082 c -0.579161,0.27128 -1.145755,0.56862 -1.698043,0.89111 -0.510164,0.29789 -1.005432,0.6206 -1.484022,0.96695 -0.399402,0.28905 -0.785699,0.59579 -1.157737,0.9193 -0.335228,0.2915 -0.655803,0.59944 -0.960543,0.92268 l -0.04305,0.14655 c -0.08006,0.27263 -0.361124,0.43337 -0.636693,0.36412"
       id="path55"
       style="fill:none;stroke:#0000ff;stroke-width:0.264583" /><path
       d="m 109.67405,908.2263 -1.10562,0.2209 c -0.27671,0.0553 -0.54812,-0.1163 -0.61688,-0.38997 l -0.58724,-2.33733 c -0.0219,-0.0871 -0.0512,-0.17216 -0.0875,-0.25429 -0.0725,-0.16395 -0.15195,-0.32474 -0.23812,-0.48194 -0.17242,-0.31453 -0.36695,-0.61643 -0.58211,-0.90342 -0.26881,-0.35854 -0.55775,-0.70153 -0.86543,-1.02733 l -1.24206,0.39529 c -0.26529,0.60793 -0.49694,1.23 -0.6939,1.86338 -0.17897,0.57553 -0.32293,1.16137 -0.43108,1.7543 -0.0863,0.47337 -0.1471,0.95106 -0.18203,1.43097 -0.0306,0.4195 -0.0352,0.84048 -0.0139,1.26055 l 0.0726,0.13983 c 0.13006,0.25044 0.0407,0.55888 -0.20307,0.70102 l -0.97396,0.56793 c -0.24377,0.14214 -0.55619,0.068 -0.71009,-0.16854 l -1.314344,-2.02004 c -0.04898,-0.0753 -0.104286,-0.14623 -0.165312,-0.21212 -0.121812,-0.13152 -0.249165,-0.2578 -0.381714,-0.37849 -0.26521,-0.2415 -0.547224,-0.46387 -0.843915,-0.66545 -0.37066,-0.25183 -0.755313,-0.48242 -1.152102,-0.69067 l -1.0464,0.77716 c -0.05353,0.66114 -0.07065,1.32472 -0.05128,1.98774 0.0176,0.60245 0.07166,1.20328 0.161899,1.79919 0.07205,0.47577 0.169676,0.94732 0.29247,1.41258 0.107332,0.40668 0.239645,0.80635 0.396187,1.19674 l 0.114089,0.10867 c 0.204319,0.19463 0.219964,0.51535 0.03556,0.72895 l -0.736786,0.85341 c -0.1844,0.2136 -0.503966,0.24493 -0.726334,0.0712 l -1.899047,-1.48381 c -0.07076,-0.0553 -0.146105,-0.10447 -0.225213,-0.14698 -0.157915,-0.0848 -0.319369,-0.16293 -0.483923,-0.23405 -0.329253,-0.1423 -0.668189,-0.26105 -1.014254,-0.35536 -0.432349,-0.11783 -0.871037,-0.21104 -1.313947,-0.27916 l -0.737367,1.07481 c 0.164046,0.6427 0.363322,1.27588 0.596926,1.89669 0.212256,0.5641 0.458478,1.11482 0.737315,1.64915 0.22263,0.42659 0.468087,0.84088 0.735303,1.24106 0.233563,0.3498 0.488479,0.68486 0.763297,1.00327 l 0.143192,0.0657 c 0.256454,0.11775 0.375391,0.41602 0.270325,0.67792 l -0.419761,1.0464 c -0.105062,0.26191 -0.397161,0.39529 -0.663893,0.30316 l -2.27793,-0.78679 c -0.08488,-0.0293 -0.172101,-0.0514 -0.260721,-0.0659 -0.176915,-0.029 -0.354981,-0.0504 -0.533717,-0.0642 -0.357612,-0.0277 -0.716742,-0.0301 -1.074685,-0.007 -0.447183,0.0289 -0.892363,0.0832 -1.333394,0.16261 l -0.348403,1.25601 c 0.363833,0.5546 0.757899,1.08877 1.180412,1.60009 0.38392,0.46461 0.795624,0.90554 1.232852,1.32038 0.349077,0.33119 0.715748,0.64333 1.098418,0.93506 0.334486,0.25501 0.684383,0.48914 1.047697,0.70107 l 0.156792,0.0157 c 0.280786,0.0281 0.490126,0.27158 0.475801,0.5534 l -0.05726,1.12599 c -0.01432,0.28184 -0.247286,0.50284 -0.529484,0.50231 l -3.28e-4,6.9e-4 -2.409984,-0.005 c -0.08981,-1.6e-4 -0.179463,0.007 -0.267997,0.0224 -0.176732,0.03 -0.352107,0.0676 -0.525647,0.11253 -0.347223,0.0899 -0.687627,0.2044 -1.018646,0.34253 -0.413559,0.17258 -0.816991,0.36848 -1.208352,0.58677 l 0.07829,1.30106 c 0.524207,0.40642 1.070373,0.78369 1.636025,1.13011 0.513976,0.31477 1.046543,0.59813 1.594776,0.84852 0.437702,0.19991 0.885859,0.37609 1.342522,0.52777 0.399164,0.13257 0.806125,0.2404 1.218565,0.32287 l 0.153379,-0.0361 c 0.274699,-0.0646 0.551756,0.0977 0.629708,0.36894 l 0.311441,1.08357 c 0.07797,0.27121 -0.07061,0.55589 -0.337688,0.64702 l -2.280867,0.77824 c -0.085,0.029 -0.167367,0.0652 -0.246221,0.10816 -0.157398,0.0858 -0.311075,0.17824 -0.460613,0.2771 -0.299213,0.19781 -0.584011,0.41661 -0.852249,0.65474 -0.335119,0.2975 -0.653087,0.61378 -0.952368,0.94731 l 0.496517,1.20515 c 0.627763,0.21419 1.266833,0.39368 1.914313,0.53766 0.58834,0.13084 1.184064,0.22593 1.783901,0.28475 0.478893,0.0469 0.959968,0.068 1.441132,0.0632 0.420584,-0.004 0.840508,-0.0344 1.257379,-0.0903 l 0.13335,-0.0839 c 0.238842,-0.15029 0.553592,-0.0867 0.715381,0.14449 l 0.64643,0.92374"
       id="path15-8"
       style="fill:none;stroke:#ff80e5;stroke-width:0.264583" /><path
       style="fill:none;stroke:#37c837;stroke-width:0.529167"
       d="m 78.956217,907.90881 c 0,0 0.503432,-0.63862 0.66803,-1.00595 0.243385,-0.54315 0.4527,-1.72723 0.4527,-1.72723"
       id="path56"
       sodipodi:nodetypes="cac" /><path
       style="fill:none;stroke:#37c837;stroke-width:0.529167"
       d="m 100.30465,908.39876 -0.959235,-0.95419 -1.355291,-0.76822"
       id="path57" /><text
       xml:space="preserve"
       transform="matrix(0.26458333,0,0,0.26458333,2.392198,-10.877323)"
       id="text57"
       style="font-size:14.6667px;line-height:normal;font-family:'Liberation Mono';-inkscape-font-specification:'Liberation Mono';text-align:center;text-decoration-color:#000000;white-space:pre;shape-inside:url(#rect57);fill:#2ca02c;stroke-width:1;-inkscape-stroke:none;stop-color:#000000"><tspan
         x="341.27887"
         y="3397.4837"
         id="tspan1">right-side</tspan></text><path
       style="fill:none;stroke:#d4aa00;stroke-width:0.529167"
       d="m 72.320977,905.73613 c 0,0 0.826036,-0.59762 1.279964,-0.82466 0.536651,-0.26841 1.113237,-0.45284 1.687725,-0.62605 1.03602,-0.31237 3.160426,-0.74155 3.160426,-0.74155"
       id="path58"
       sodipodi:nodetypes="caac" /><path
       style="fill:none;stroke:#d4aa00;stroke-width:0.529167"
       d="m 102.38455,909.67905 0.089,-1.66473 0.3526,-1.80324 0.90788,-2.76762"
       id="path59" /><text
       xml:space="preserve"
       transform="matrix(0.26458333,0,0,0.26458333,-5.3620701,2.1001591)"
       id="text59"
       style="font-size:14.6667px;line-height:normal;font-family:'Liberation Mono';-inkscape-font-specification:'Liberation Mono';text-align:center;text-decoration-color:#000000;white-space:pre;shape-inside:url(#rect59);fill:#d4aa00;stroke-width:1;-inkscape-stroke:none;stop-color:#000000"><tspan
         x="281.47257"
         y="3333.0403"
         id="tspan2">left-side</tspan></text><path
       style="fill:none;stroke:#d4aa00;stroke-width:0.264583;marker-start:url(#marker11);marker-end:url(#marker11)"
       d="m 75.549098,903.54667 1.348462,-18.50789 25.53251,19.34144"
       id="path81" /><path
       style="fill:none;stroke:#2ca02c;stroke-width:0.264583;marker-start:url(#marker11);marker-end:url(#marker11)"
       d="m 80.642274,906.32917 17.685694,-16.83092 0.444246,16.6461"
       id="path82" /><text
       xml:space="preserve"
       transform="matrix(0.26458333,0,0,0.26458333,2.5570739,1.3715475)"
       id="text82"
       style="font-size:14.6667px;line-height:normal;font-family:'Liberation Mono';-inkscape-font-specification:'Liberation Mono';text-align:center;text-decoration-color:#000000;white-space:pre;shape-inside:url(#rect82);fill:#0000ff;stroke-width:1;-inkscape-stroke:none;stop-color:#000000"><tspan
         x="189.96896"
         y="3500.7728"
         id="tspan3">gearwheel-1</tspan></text><text
       xml:space="preserve"
       transform="scale(0.26458333)"
       id="text83"
       style="font-size:14.6667px;line-height:normal;font-family:'Liberation Mono';-inkscape-font-specification:'Liberation Mono';text-align:center;text-decoration-color:#000000;white-space:pre;shape-inside:url(#rect83);fill:#ff80e5;stroke-width:1;-inkscape-stroke:none;stop-color:#000000"><tspan
         x="373.76877"
         y="3507.3606"
         id="tspan4">gearwheel-2</tspan></text><text
       xml:space="preserve"
       transform="matrix(0.26458333,0,0,0.26458333,-5.8378918,-1.0020328)"
       id="text87"
       style="font-size:14.6667px;line-height:normal;font-family:'Liberation Mono';-inkscape-font-specification:'Liberation Mono';text-align:center;text-decoration-color:#000000;white-space:pre;shape-inside:url(#rect87);fill:#000000;stroke-width:1;-inkscape-stroke:none;stop-color:#000000"><tspan
         x="328.74243"
         y="3611.8548"
         id="tspan6"><tspan
           style="font-weight:bold;-inkscape-font-specification:'Liberation Mono Bold'"
           id="tspan5">involSim</tspan></tspan></text><text
       xml:space="preserve"
       transform="matrix(0.26458333,0,0,0.26458333,35.71164,-11.466144)"
       id="text88"
       style="font-size:14.6667px;line-height:normal;font-family:'Liberation Mono';-inkscape-font-specification:'Liberation Mono';text-align:center;text-decoration-color:#000000;white-space:pre;shape-inside:url(#rect89);fill:#000000;stroke-width:1;-inkscape-stroke:none;stop-color:#000000"><tspan
         x="280.35773"
         y="3666.7064"
         id="tspan7">On</tspan></text><text
       xml:space="preserve"
       transform="matrix(0.26458333,0,0,0.26458333,-33.501972,-12.14828)"
       id="text89"
       style="font-size:14.6667px;line-height:normal;font-family:'Liberation Mono';-inkscape-font-specification:'Liberation Mono';text-align:center;text-decoration-color:#000000;white-space:pre;shape-inside:url(#rect90);fill:#000000;stroke-width:1;-inkscape-stroke:none;stop-color:#000000"><tspan
         x="373.2197"
         y="3669.6927"
         id="tspan8">Off</tspan></text><text
       xml:space="preserve"
       transform="matrix(0.26458333,0,0,0.26458333,-50.28747,-12.599514)"
       id="text90"
       style="font-size:14.6667px;line-height:normal;font-family:'Liberation Mono';-inkscape-font-specification:'Liberation Mono';text-align:start;text-decoration-color:#000000;white-space:pre;shape-inside:url(#rect91);fill:#000000;stroke-width:1;-inkscape-stroke:none;stop-color:#000000"
       x="-16.60746"
       y="0"><tspan
         x="374.79297"
         y="3690.2396"
         id="tspan9">brr1
</tspan><tspan
         x="374.79297"
         y="3708.5731"
         id="tspan10">blr1
</tspan><tspan
         x="374.79297"
         y="3726.9065"
         id="tspan11">brr2
</tspan><tspan
         x="374.79297"
         y="3745.24"
         id="tspan12">blr2
</tspan><tspan
         x="374.79297"
         y="3763.5735"
         id="tspan13">rightPressueAngle
</tspan><tspan
         x="374.79297"
         y="3781.907"
         id="tspan14">leftPressureAngle</tspan></text><rect
       style="fill:#d5f6ff;stroke:#808080;stroke-width:0.264584"
       id="rect88-2-4-4"
       width="41.787521"
       height="30.532919"
       x="90.36982"
       y="959.49359" /><text
       xml:space="preserve"
       transform="matrix(0.26458333,0,0,0.26458333,-7.6139456,-12.599514)"
       id="text90-2"
       style="font-size:14.6667px;line-height:normal;font-family:'Liberation Mono';-inkscape-font-specification:'Liberation Mono';text-align:start;text-decoration-color:#000000;white-space:pre;shape-inside:url(#rect91-1);display:inline;fill:#000000;stroke-width:1;-inkscape-stroke:none;stop-color:#000000"
       x="-16.60746"
       y="0"><tspan
         x="374.79297"
         y="3690.2396"
         id="tspan15">brr1
</tspan><tspan
         x="374.79297"
         y="3708.5731"
         id="tspan16">blr1
</tspan><tspan
         x="374.79297"
         y="3726.9065"
         id="tspan17">brr2
</tspan><tspan
         x="374.79297"
         y="3745.24"
         id="tspan18">blr2
</tspan><tspan
         x="374.79297"
         y="3763.5735"
         id="tspan19">rightPressueAngle
</tspan><tspan
         x="374.79297"
         y="3781.907"
         id="tspan20">leftPressureAngle</tspan></text><rect
       style="fill:none;stroke:#808080;stroke-width:0.264584"
       id="rect88-2-4-9-9"
       width="83.575043"
       height="4.1787777"
       x="48.582294"
       y="951.13605" /><path
       style="fill:#d5f6ff;stroke:#ff5555;stroke-width:0.264583"
       d="M 90.745924,967.56739 H 101.81151"
       id="path95" /><path
       style="fill:#d5f6ff;stroke:#ff5555;stroke-width:0.264583"
       d="M 91.055795,977.16855 H 102.12138"
       id="path95-7" /><path
       style="fill:#d5f6ff;stroke:#ff5555;stroke-width:0.264583"
       d="M 91.895104,986.77911 H 131.21675"
       id="path95-3" /></g></svg>
