<?xml version="1.0" encoding="UTF-8" standalone="no"?>
<!-- Created with Inkscape (http://www.inkscape.org/) -->

<svg
   width="427.5784"
   height="493.79785"
   viewBox="0 0 113.13012 130.65068"
   version="1.1"
   id="svg1"
   inkscape:version="1.3.2 (1:1.3.2+202404261509+091e20ef0f)"
   sodipodi:docname="src_gearwheel_params.svg"
   xml:space="preserve"
   xmlns:inkscape="http://www.inkscape.org/namespaces/inkscape"
   xmlns:sodipodi="http://sodipodi.sourceforge.net/DTD/sodipodi-0.dtd"
   xmlns="http://www.w3.org/2000/svg"
   xmlns:svg="http://www.w3.org/2000/svg"><sodipodi:namedview
     id="namedview1"
     pagecolor="#ffffff"
     bordercolor="#000000"
     borderopacity="0.25"
     inkscape:showpageshadow="2"
     inkscape:pageopacity="0.0"
     inkscape:pagecheckerboard="0"
     inkscape:deskcolor="#d1d1d1"
     inkscape:document-units="px"
     inkscape:zoom="1.1162328"
     inkscape:cx="352.97296"
     inkscape:cy="3672.173"
     inkscape:window-width="1854"
     inkscape:window-height="1131"
     inkscape:window-x="66"
     inkscape:window-y="32"
     inkscape:window-maximized="1"
     inkscape:current-layer="layer1" /><defs
     id="defs1"><rect
       x="331.5105"
       y="4343.8169"
       width="203.15689"
       height="48.275314"
       id="rect96" /><rect
       x="129.52646"
       y="4316.3799"
       width="185.4782"
       height="41.334179"
       id="rect95" /><rect
       x="299.16666"
       y="4915.4531"
       width="216.97348"
       height="35.943699"
       id="rect81" /><rect
       x="167.1284"
       y="4855.7114"
       width="319.04306"
       height="108.19801"
       id="rect80" /><marker
       style="overflow:visible"
       id="marker11"
       refX="0"
       refY="0"
       orient="auto-start-reverse"
       inkscape:stockid="Wide arrow"
       markerWidth="1"
       markerHeight="1"
       viewBox="0 0 1 1"
       inkscape:isstock="true"
       inkscape:collect="always"
       preserveAspectRatio="xMidYMid"><path
         style="fill:none;stroke:context-stroke;stroke-width:1;stroke-linecap:butt"
         d="M 3,-3 0,0 3,3"
         transform="rotate(180,0.125,0)"
         sodipodi:nodetypes="ccc"
         id="path11" /></marker><rect
       x="170.58073"
       y="3487.7217"
       width="135.59274"
       height="35.599739"
       id="rect82-7-8" /><rect
       x="364.73618"
       y="3494.3098"
       width="114.88044"
       height="28.209597"
       id="rect83-5-5" /></defs><g
     inkscape:label="Layer 1"
     inkscape:groupmode="layer"
     id="layer1"
     transform="translate(-20.96361,-1165.7743)"><rect
       style="fill:#ffffff;stroke:#ffffff;stroke-width:0.264583"
       id="rect94-4-0-3-1-1"
       width="112.86554"
       height="130.38603"
       x="21.0959"
       y="1165.9066"
       inkscape:export-filename="gearwheel_params_baseCircles.svg"
       inkscape:export-xdpi="96"
       inkscape:export-ydpi="96" /><path
       d="m 38.747423,1279.0114 c 0.753495,-1.0635 2.356587,-0.9971 3.01878,0.1256 h 0.0014 c 0.991635,0.3941 2.009143,0.7199 3.045398,0.9754 1.330943,0.3288 2.67847,0.5857 4.036851,0.7711 2.110705,0.2881 4.237338,0.4448 6.367564,0.4691 2.232209,0.034 4.463986,-0.081 6.683543,-0.3185 l 3.18648,-5.5412 c -1.109648,-1.9905 -2.331144,-3.917 -3.658649,-5.7701 -1.151036,-1.6068 -2.405857,-3.1372 -3.75648,-4.581 -1.037868,-1.1097 -2.129283,-2.1682 -3.270376,-3.1722 -0.7622,-0.6704 -1.572461,-1.285 -2.424322,-1.8377 h -0.43422 c -1.250526,0 -2.132652,-1.2189 -1.713956,-2.3941 l 0.35554,-0.9975 c 0.437168,-1.2269 1.998507,-1.595 2.940281,-0.6931 h 0.0019 c 1.061495,0.1116 2.129447,0.1525 3.196369,0.1192 1.370433,-0.041 2.737647,-0.156 4.095837,-0.3441 2.110331,-0.2915 4.200479,-0.7118 6.258312,-1.2615 2.15635,-0.5758 4.276496,-1.2791 6.34923,-2.1058 l 1.569448,-6.1929 c -1.606983,-1.6181 -3.304345,-3.1447 -5.083963,-4.5719 -1.543033,-1.2376 -3.165294,-2.3733 -4.856466,-3.4003 -1.299581,-0.7894 -2.636917,-1.515 -4.007265,-2.1747 -0.915328,-0.4405 -1.86167,-0.8137 -2.831479,-1.1168 l -0.416868,0.1217 c -1.200624,0.3494 -2.383465,-0.5997 -2.298073,-1.8442 l 0.07246,-1.0564 c 0.08928,-1.2992 1.4931,-2.0734 2.643817,-1.4582 h 2.48e-4 0.0027 c 1.052585,-0.1763 2.091781,-0.4257 3.110319,-0.7443 1.308223,-0.4094 2.593675,-0.8878 3.850895,-1.4334 1.953471,-0.8478 3.852142,-1.8157 5.68498,-2.8987 1.920578,-1.1347 3.771872,-2.3824 5.544088,-3.7361 l -0.164117,-6.3854 c -1.985132,-1.1259 -4.032445,-2.139 -6.132157,-3.0344 -1.820599,-0.7766 -3.690004,-1.4338 -5.596324,-1.9676 -1.464895,-0.4101 -2.948944,-0.7491 -4.446882,-1.0155 -1.000526,-0.1796 -2.01277,-0.2847 -3.028673,-0.3153 l -0.368582,0.2306 c -1.061559,0.6595 -2.457283,0.065 -2.711701,-1.1576 l -0.215977,-1.0368 c -0.265629,-1.275 0.876683,-2.3983 2.151236,-2.1157 l 0.0027,8e-4 c 0.965653,-0.4539 1.899036,-0.9728 2.793619,-1.5537 1.148964,-0.746 2.257295,-1.5528 3.320282,-2.4164 1.651732,-1.3419 3.218107,-2.7847 4.690027,-4.3208 1.542373,-1.6093 2.987525,-3.3087 4.327819,-5.0893 l -1.885425,-6.1046 c -2.21608,-0.5498 -4.461533,-0.9744 -6.725628,-1.2717 -1.963132,-0.2575 -3.941025,-0.3878 -5.921111,-0.389 -1.521521,0 -3.042213,0.071 -4.556675,0.2168 -1.011591,0.099 -2.014672,0.2711 -3.001246,0.5128 l -0.292954,0.3187 c -0.843703,0.9209 -2.348831,0.7226 -2.924277,-0.3847 l -0.488893,-0.94"
       id="path76"
       style="fill:none;stroke:#0000ff;stroke-width:0.264583" /><path
       d="m 105.34655,1195.5707 -0.92905,2.1123 c -0.47534,1.0809 -1.85005,1.4171 -2.77294,0.6783 h -0.0101 c -0.52347,-0.2 -1.06935,-0.339 -1.62574,-0.4071 -1.108512,-0.139 -2.224437,-0.2101 -3.341695,-0.2169 -2.361466,0 -4.718302,0.2101 -7.036919,0.6565 -2.698618,0.5199 -5.348795,1.2646 -7.922724,2.2261 l -1.52288,5.0374 c 1.833821,2.1004 3.834417,4.05 5.98235,5.8298 1.720165,1.4253 3.580057,2.6743 5.55145,3.7273 1.095948,0.5858 2.222275,1.1128 3.374239,1.5792 0.479323,0.1933 0.981644,0.3254 1.494646,0.3921 l 0.35302,-0.047 c 1.138391,-0.1525 2.126201,0.7843 2.031281,1.9258 l -0.191,2.2987 c -0.0978,1.1762 -1.288527,1.9395 -2.401929,1.5393 h -0.01269 c -0.560481,-0.034 -1.121317,0.034 -1.670268,0.1422 -1.093715,0.2272 -2.172652,0.521 -3.2309,0.8782 -2.236754,0.7553 -4.39424,1.7263 -6.441741,2.8997 -2.383094,1.366 -4.647246,2.9285 -6.768701,4.6713 l 0.199631,5.2573 c 2.418285,1.3928 4.945204,2.5888 7.556211,3.5769 2.091044,0.7911 4.256741,1.37 6.464227,1.7276 1.22716,0.2 2.464036,0.3321 3.705403,0.4006 0.516515,0.034 1.034578,0 1.541491,-0.1116 l 0.318517,-0.1593 c 1.027099,-0.5128 2.266251,0.054 2.548231,1.1636 l 0.56775,2.2359 c 0.29055,1.1444 -0.5873,2.2517 -1.770692,2.2337 h -0.004 l -0.0133,-3e-4 c -0.53664,0.1627 -1.051619,0.3891 -1.533657,0.6748 -0.960384,0.5695 -1.88539,1.1962 -2.769969,1.8768 -1.8697,1.4384 -3.594081,3.0559 -5.14862,4.8286 -1.809325,2.0634 -3.442101,4.2746 -4.881198,6.61 l 1.900543,4.9078 c 2.740733,0.5342 5.520187,0.8473 8.311353,0.9362 2.235303,0.071 4.472098,-0.081 6.67644,-0.4593 1.22541,-0.2101 2.4388,-0.4833 3.6351,-0.8208 0.49778,-0.1424 0.9754,-0.3441 1.42117,-0.6061 l 0.24952,-0.2542 c 0.80429,-0.8176 2.16045,-0.684 2.78894,0.2745 l 1.26499,1.931 c 0.64742,0.988 0.17768,2.3197 -0.94748,2.6861 h -0.0127 c -0.45471,0.3288 -0.86802,0.7083 -1.2309,1.1348 -0.72299,0.8494 -1.39383,1.7417 -2.00889,2.6718 -1.30002,1.9663 -2.40445,4.0541 -3.29754,6.2345 -1.03945,2.5377 -1.8639,5.1574 -2.46469,7.8323 l 3.39546,4.0266 c 2.76614,-0.3823 5.49687,-0.9863 8.16568,-1.8061 2.13733,-0.6567 4.20283,-1.5263 6.16514,-2.5963 1.0909,-0.5949 2.14935,-1.2467 3.17093,-1.9534 0.42509,-0.2949 0.81056,-0.6413 1.14693,-1.0334 l 0.15347,-0.322 c 0.49484,-1.0337 1.82119,-1.3463 2.72754,-0.6427"
       id="path15-87-5"
       style="fill:none;stroke:#ff80e5;stroke-width:0.264583" /><path
       d="m 57.611616,1229.5181 0.82375,-0.1558 0.964929,-0.2237 1.101605,-0.3017 1.233246,-0.3932 1.359136,-0.4948 1.478546,-0.6067 1.590767,-0.7294 1.695345,-0.8619 1.791467,-1.004 1.878691,-1.1555 1.956198,-1.3148 2.02382,-1.4825 -0.284153,-4.1429 -2.207346,-1.1941 -2.117599,-1.0368 -2.018876,-0.8894 -1.91187,-0.7514 -1.797223,-0.6236 -1.67556,-0.5068 -1.547609,-0.4003 -1.413984,-0.305 -1.275419,-0.2237 -1.132718,-0.1491 -0.986507,-0.091 -0.837419,-0.044 z"
       stroke="#ffd700"
       stroke-width="0.264583"
       fill="none"
       id="path35-61-9" /><path
       d="m 99.576708,1248.4962 -0.13183,0.047 -0.38746,0.1592 -0.629085,0.3017 -0.85378,0.4735 -1.059073,0.6735 -1.24242,0.8992 -1.401399,1.1491 -1.533943,1.4207 -1.637882,1.712 -1.711529,2.0198 -1.753074,2.3425 -1.761345,2.6762 1.59913,3.6359 3.16715,0.5202 2.91528,0.3017 2.649299,0.1115 2.372083,-0.044 2.08703,-0.1627 1.79686,-0.2509 1.5049,-0.3017 1.21409,-0.3219 0.92752,-0.3051 0.64833,-0.2576 0.3791,-0.1762 0.12304,-0.065 z"
       stroke="#ffd700"
       stroke-width="0.264583"
       fill="none"
       id="path36-2-2" /><path
       style="fill:none;stroke:#000000;stroke-width:0.264583;marker-start:url(#marker11)"
       d="m 66.853913,1211.2521 2.575769,-8.5885"
       id="path77" /><path
       style="fill:none;stroke:#000000;stroke-width:0.264583;marker-start:url(#marker11)"
       d="m 66.410548,1212.8599 -2.45097,9.417"
       id="path78" /><path
       style="fill:none;stroke:#000000;stroke-width:0.264583;marker-start:url(#marker11)"
       d="m 97.044054,1266.7633 -0.02827,-9.1852"
       id="path79" /><path
       style="fill:none;stroke:#000000;stroke-width:0.264583;marker-start:url(#marker11)"
       d="m 97.039622,1267.7712 0.01902,8.9405"
       id="path80" /><text
       xml:space="preserve"
       transform="matrix(0.26458333,0,0,0.26458333,-24.873293,305.47573)"
       id="text82-2-6"
       style="font-size:14.6667px;line-height:normal;font-family:'Liberation Mono';-inkscape-font-specification:'Liberation Mono';text-align:center;text-decoration-color:#000000;white-space:pre;shape-inside:url(#rect82-7-8);display:inline;fill:#0000ff;stroke-width:1;-inkscape-stroke:none;stop-color:#000000"><tspan
         x="189.96896"
         y="3500.7728"
         id="tspan1">gearwheel-1</tspan></text><text
       xml:space="preserve"
       transform="matrix(0.26458333,0,0,0.26458333,5.0927651,313.41436)"
       id="text83-9-8"
       style="font-size:14.6667px;line-height:normal;font-family:'Liberation Mono';-inkscape-font-specification:'Liberation Mono';text-align:center;text-decoration-color:#000000;white-space:pre;shape-inside:url(#rect83-5-5);display:inline;fill:#ff80e5;stroke-width:1;-inkscape-stroke:none;stop-color:#000000"><tspan
         x="373.76877"
         y="3507.3606"
         id="tspan2">gearwheel-2</tspan></text><text
       xml:space="preserve"
       transform="matrix(0.26458333,0,0,0.26458333,-24.580287,-87.893548)"
       id="text80"
       style="font-size:14.6667px;line-height:normal;font-family:'Liberation Mono';-inkscape-font-specification:'Liberation Mono';text-align:center;text-decoration-color:#000000;white-space:pre;shape-inside:url(#rect80);fill:#000000;stroke-width:1;-inkscape-stroke:none;stop-color:#000000"><tspan
         x="265.04022"
         y="4868.761"
         id="tspan4"><tspan
           style="font-weight:bold;-inkscape-font-specification:'Liberation Mono Bold'"
           id="tspan3">skinThickness1</tspan></tspan></text><text
       xml:space="preserve"
       transform="matrix(0.26458333,0,0,0.26458333,-4.4501284,-22.924778)"
       id="text81"
       style="font-size:14.6667px;line-height:normal;font-family:'Liberation Mono';-inkscape-font-specification:'Liberation Mono';text-align:center;text-decoration-color:#000000;white-space:pre;shape-inside:url(#rect81);fill:#000000;stroke-width:1;-inkscape-stroke:none;stop-color:#000000"><tspan
         x="346.04315"
         y="4928.5032"
         id="tspan6"><tspan
           style="font-weight:bold;-inkscape-font-specification:'Liberation Mono Bold'"
           id="tspan5">skinThickness2</tspan></tspan></text><circle
       style="fill:none;stroke:#000000;stroke-width:0.264583"
       id="path83"
       cx="81.76593"
       cy="1200.5953"
       r="0.6369251" /><circle
       style="fill:none;stroke:#000000;stroke-width:0.264583"
       id="path83-2"
       cx="89.899635"
       cy="1198.3395"
       r="0.6369251" /><circle
       style="fill:none;stroke:#000000;stroke-width:0.264583"
       id="path83-6"
       cx="96.542778"
       cy="1197.671"
       r="0.6369251" /><circle
       style="fill:none;stroke:#000000;stroke-width:0.264583"
       id="path83-9"
       cx="99.590759"
       cy="1197.8372"
       r="0.6369251" /><circle
       style="fill:none;stroke:#000000;stroke-width:0.264583"
       id="path83-7"
       cx="101.4257"
       cy="1198.2383"
       r="0.6369251" /><circle
       style="fill:none;stroke:#000000;stroke-width:0.264583"
       id="path83-77"
       cx="48.637489"
       cy="1184.6932"
       r="0.6369251" /><circle
       style="fill:none;stroke:#000000;stroke-width:0.264583"
       id="path83-5"
       cx="68.603592"
       cy="1185.5714"
       r="0.6369251" /><circle
       style="fill:none;stroke:#000000;stroke-width:0.264583"
       id="path83-8"
       cx="50.453758"
       cy="1184.3566"
       r="0.6369251" /><circle
       style="fill:none;stroke:#000000;stroke-width:0.264583"
       id="path83-90"
       cx="53.452374"
       cy="1184.0037"
       r="0.6369251" /><circle
       style="fill:none;stroke:#000000;stroke-width:0.264583"
       id="path83-96"
       cx="60.130215"
       cy="1184.2562"
       r="0.6369251" /><text
       xml:space="preserve"
       transform="matrix(0.26458333,0,0,0.26458333,-0.01198045,27.338341)"
       id="text91"
       style="font-style:normal;font-variant:normal;font-weight:bold;font-stretch:normal;font-size:14.6667px;line-height:normal;font-family:'Liberation Mono';-inkscape-font-specification:'Liberation Mono Bold';text-align:center;text-decoration-color:#000000;white-space:pre;shape-inside:url(#rect95);fill:#000000;stroke-width:1;-inkscape-stroke:none;stop-color:#000000"><tspan
         x="160.65546"
         y="4329.2399"
         id="tspan7">involArcPairs1</tspan></text><text
       xml:space="preserve"
       transform="matrix(0.26458333,0,0,0.26458333,-18.404481,34.182532)"
       id="text95"
       style="font-style:normal;font-variant:normal;font-weight:bold;font-stretch:normal;font-size:14.6667px;line-height:normal;font-family:'Liberation Mono';-inkscape-font-specification:'Liberation Mono Bold';text-align:center;text-decoration-color:#000000;white-space:pre;shape-inside:url(#rect96);fill:#000000;stroke-width:1;-inkscape-stroke:none;stop-color:#000000"><tspan
         x="371.4787"
         y="4356.6774"
         id="tspan8">involArcPairs2</tspan></text><path
       style="fill:none;stroke:#000000;stroke-width:0.264583;marker-start:url(#marker11);marker-end:url(#marker11)"
       d="m 48.692451,1183.4076 9.032242,-10.4082 10.096495,11.3915"
       id="path96" /><path
       style="fill:none;stroke:#000000;stroke-width:0.264583;marker-start:url(#marker11);marker-end:url(#marker11)"
       d="m 82.152426,1199.0578 10.838987,-11.4002 8.067177,9.1676"
       id="path97" /></g></svg>
