<?xml version="1.0" encoding="UTF-8" standalone="no"?>
<!-- Created with Inkscape (http://www.inkscape.org/) -->

<svg
   width="507.09787"
   height="340.37488"
   viewBox="0 0 134.16964 90.05752"
   version="1.1"
   id="svg1"
   inkscape:version="1.3.2 (1:1.3.2+202404261509+091e20ef0f)"
   sodipodi:docname="src_gearwheel_params.svg"
   xml:space="preserve"
   xmlns:inkscape="http://www.inkscape.org/namespaces/inkscape"
   xmlns:sodipodi="http://sodipodi.sourceforge.net/DTD/sodipodi-0.dtd"
   xmlns="http://www.w3.org/2000/svg"
   xmlns:svg="http://www.w3.org/2000/svg"><sodipodi:namedview
     id="namedview1"
     pagecolor="#ffffff"
     bordercolor="#000000"
     borderopacity="0.25"
     inkscape:showpageshadow="2"
     inkscape:pageopacity="0.0"
     inkscape:pagecheckerboard="0"
     inkscape:deskcolor="#d1d1d1"
     inkscape:document-units="px"
     inkscape:zoom="3.1571831"
     inkscape:cx="308.18611"
     inkscape:cy="1313.8294"
     inkscape:window-width="1854"
     inkscape:window-height="1131"
     inkscape:window-x="0"
     inkscape:window-y="0"
     inkscape:window-maximized="1"
     inkscape:current-layer="layer1" /><defs
     id="defs1"><rect
       x="127.31385"
       y="1238.3022"
       width="126.06174"
       height="27.595802"
       id="rect1884" /><rect
       x="121.79815"
       y="1205.792"
       width="136.67741"
       height="37.048454"
       id="rect1883" /><rect
       x="99.715569"
       y="1146.1908"
       width="136.74918"
       height="58.670773"
       id="rect1882" /><rect
       x="217.59161"
       y="1024.9049"
       width="179.13516"
       height="44.806061"
       id="rect1881" /><rect
       x="379.84067"
       y="1246.7997"
       width="153.77383"
       height="31.678753"
       id="rect1880" /><rect
       x="410.46527"
       y="1313.5399"
       width="136.18004"
       height="53.77618"
       id="rect1879" /><rect
       x="89.728424"
       y="1319.8499"
       width="143.66296"
       height="45.051037"
       id="rect1878" /><rect
       x="187.20981"
       y="1261.6857"
       width="179.7655"
       height="25.994242"
       id="rect1877" /><marker
       style="overflow:visible"
       id="marker11"
       refX="0"
       refY="0"
       orient="auto-start-reverse"
       inkscape:stockid="Wide arrow"
       markerWidth="1"
       markerHeight="1"
       viewBox="0 0 1 1"
       inkscape:isstock="true"
       inkscape:collect="always"
       preserveAspectRatio="xMidYMid"><path
         style="fill:none;stroke:context-stroke;stroke-width:1;stroke-linecap:butt"
         d="M 3,-3 0,0 3,3"
         transform="rotate(180,0.125,0)"
         sodipodi:nodetypes="ccc"
         id="path11" /></marker><rect
       x="217.59161"
       y="1024.9049"
       width="179.13516"
       height="44.806061"
       id="rect1881-9" /><rect
       x="121.79815"
       y="1205.792"
       width="136.67741"
       height="37.048454"
       id="rect1883-9" /><rect
       x="99.715569"
       y="1146.1908"
       width="136.74918"
       height="58.670773"
       id="rect1882-0" /><rect
       x="127.31385"
       y="1238.3022"
       width="126.06174"
       height="27.595802"
       id="rect1884-7" /></defs><g
     inkscape:label="Layer 1"
     inkscape:groupmode="layer"
     id="layer1"
     transform="translate(-14.406325,-274.78018)"><rect
       style="fill:#ffffff;fill-opacity:1;stroke:#ffffff;stroke-width:0.264583;stroke-opacity:1"
       id="rect1903"
       width="133.90508"
       height="89.792953"
       x="14.538616"
       y="274.91248" /><path
       style="fill:none;stroke:#d7f4e3;stroke-width:0.264584"
       d="m 93.8032,362.39018 c -9.708339,-7.61668 -15.945537,-19.45567 -15.945537,-32.75127 0,-20.31499 14.561514,-37.22935 33.817587,-40.8773"
       id="circle30-4-6" /><path
       style="fill:none;stroke:#6f918a;stroke-width:0.264584"
       d="m 97.147644,359.95574 c -9.296476,-6.85435 -15.327067,-17.88142 -15.327067,-30.31683 0,-18.51144 13.363472,-33.90203 30.970623,-37.05307"
       id="circle31-5-8" /><path
       style="fill:none;stroke:#d7f4e3;stroke-width:0.264584"
       d="m 99.208956,356.54958 c -8.154107,-6.14696 -13.425465,-15.9133 -13.425465,-26.91067 0,-17.00077 12.597394,-31.05959 28.967899,-33.35324"
       id="circle32-2-8" /><path
       d="m 114.84496,297.30422 -1.50511,0.25115 c -0.41764,0.0696 -0.81631,-0.20115 -0.90534,-0.61506 l -0.0493,-0.22891 c -0.052,-0.24158 -0.133,-0.47599 -0.24129,-0.6981 -0.21579,-0.44255 -0.45813,-0.87166 -0.7257,-1.28499 -0.53555,-0.82733 -1.15318,-1.59856 -1.8435,-2.30199 -0.86201,-0.87834 -1.79342,-1.68578 -2.78518,-2.41448 l -1.6594,0.5696 c -0.33501,1.18413 -0.57403,2.39334 -0.71471,3.61586 -0.11264,0.97905 -0.12627,1.96699 -0.0407,2.94878 0.0427,0.49049 0.11503,0.97793 0.21664,1.45969 0.0509,0.2418 0.13105,0.47655 0.23845,0.69913 l 0.1017,0.21085 c 0.184,0.38129 0.0358,0.83988 -0.33662,1.04137 l -1.34199,0.72615 c -0.37237,0.20151 -0.83739,0.0747 -1.05601,-0.28778 l -0.12087,-0.2005 c -0.12761,-0.21165 -0.28037,-0.40706 -0.45496,-0.58198 -0.3478,-0.34851 -0.71635,-0.67568 -1.10362,-0.97974 -0.775228,-0.60863 -1.609845,-1.13755 -2.491208,-1.57873 -1.100536,-0.5509 -2.243684,-1.01221 -3.418346,-1.37944 l -1.384517,1.0775 c 0.0677,1.22873 0.234315,2.45 0.498256,3.65196 0.211369,0.9626 0.519271,1.90143 0.919033,2.80225 0.199716,0.45003 0.426438,0.88758 0.678936,1.31026 0.126714,0.21216 0.278695,0.40818 0.452559,0.58382 l 0.164743,0.16639 c 0.297852,0.30091 0.306554,0.78276 0.01977,1.09423 l -1.03348,1.12253 c -0.286753,0.31147 -0.76771,0.34261 -1.092222,0.0707 l -0.179481,-0.15041 c -0.189427,-0.15875 -0.397366,-0.29398 -0.619294,-0.40275 -0.442134,-0.21671 -0.896955,-0.40649 -1.361976,-0.56834 -0.93085,-0.32396 -1.892001,-0.55325 -2.868864,-0.68439 -1.219805,-0.16375 -2.450813,-0.22893 -3.681088,-0.1949 l -0.959608,1.46864 c 0.463028,1.14018 1.017198,2.24119 1.657161,3.29232 0.512501,0.84181 1.108594,1.6298 1.779232,2.35203 0.335042,0.3608 0.691578,0.70103 1.067659,1.01883 0.188768,0.15951 0.396137,0.2956 0.617617,0.40527 l 0.209841,0.10393 c 0.379422,0.1879 0.544134,0.64079 0.374059,1.02849 l -0.612943,1.39724 c -0.170074,0.38773 -0.614905,0.57332 -1.010158,0.42144 l -0.218544,-0.084 c -0.230705,-0.0887 -0.471281,-0.14902 -0.7165,-0.17985 -0.488552,-0.0614 -0.980383,-0.0933 -1.472783,-0.0954 -0.985625,-0.004 -1.969153,0.0911 -2.935681,0.28411 -1.206879,0.24115 -2.392369,0.57918 -3.544924,1.01079 l -0.430676,1.70057 c 0.808196,0.92809 1.689889,1.78952 2.636526,2.57595 0.758109,0.62979 1.577793,1.18156 2.44662,1.64691 0.434046,0.23249 0.881752,0.43854 1.340662,0.61702 0.230331,0.0896 0.470652,0.15096 0.715737,0.1828 l 0.232233,0.0301 c 0.419877,0.0545 0.722732,0.42942 0.687758,0.85133 l -0.125965,1.52055 c -0.0349,0.4219 -0.395403,0.74182 -0.81853,0.72651 l -0.234016,-0.009 c -0.246986,-0.009 -0.494138,0.012 -0.736077,0.0626 -0.48202,0.10049 -0.957526,0.23006 -1.42391,0.38792 -0.933591,0.31603 -1.832943,0.72538 -2.684395,1.22182 -1.06318,0.61991 -2.074642,1.32451 -3.024589,2.10693 l 0.144837,1.74826 c 1.065786,0.61539 2.179458,1.14388 3.33017,1.58035 0.921564,0.34956 1.876019,0.60534 2.848898,0.76341 0.486019,0.0789 0.976383,0.1285 1.468379,0.14827 0.246942,0.0105 0.494183,-0.0105 0.736317,-0.0595 l 0.229402,-0.0469 c 0.414845,-0.0848 0.823069,0.17147 0.927016,0.58188 l 0.374569,1.47906 c 0.103947,0.41041 -0.133004,0.83003 -0.538248,0.95293 h 5.84e-4 l -0.2241,0.068 c -0.236502,0.0717 -0.463448,0.17183 -0.675881,0.2981 -0.423262,0.25157 -0.830947,0.52848 -1.220808,0.82922 -0.780382,0.60199 -1.498066,1.28113 -2.142163,2.02711 -0.804257,0.93149 -1.532111,1.92629 -2.176508,2.97473 l 0.704758,1.60649 c 1.207883,0.23604 2.432825,0.37435 3.662935,0.41357 0.985131,0.0315 1.970935,-0.0365 2.942421,-0.20293 0.485346,-0.0831 0.96521,-0.19544 1.437,-0.33641 0.236787,-0.0707 0.464137,-0.16992 0.677094,-0.29531 l 0.201798,-0.11876 c 0.364848,-0.21482 0.834138,-0.10499 1.065712,0.24944 l 0.834587,1.27729 c 0.231589,0.35443 0.143639,0.82826 -0.199656,1.07604 l -0.189861,0.13703 c -0.200405,0.14467 -0.382552,0.31299 -0.542487,0.50141 -0.318626,0.37536 -0.614276,0.76962 -0.885347,1.18064 -0.542606,0.82274 -1.000857,1.6981 -1.367802,2.61277 -0.458206,1.14213 -0.823593,2.31933 -1.092628,3.52017 l 1.188292,1.29065 c 1.219086,-0.16892 2.422565,-0.43581 3.598755,-0.79808 0.941964,-0.29012 1.852264,-0.67447 2.717107,-1.14721 0.432054,-0.23616 0.84943,-0.49821 1.249866,-0.78472 0.200989,-0.14378 0.38384,-0.31142 0.544538,-0.49916 l 0.152251,-0.17792 c 0.27531,-0.32164 0.754845,-0.37011 1.088973,-0.11007 l 1.204173,0.93716"
       id="path1867-3"
       style="fill:none;stroke:#ff80e5;stroke-width:0.264584" /><path
       style="fill:none;stroke:#87deaa;stroke-width:0.264584"
       d="m 49.578913,281.92268 c 20.882903,5.82097 36.204623,24.97951 36.204623,47.71623 0,9.36656 -2.600234,18.12589 -7.118336,25.59564"
       id="path1864-0" /><path
       style="fill:none;stroke:#2ca05a;stroke-width:0.264584"
       d="m 48.531265,285.74527 c 19.2026,5.36157 33.289357,22.98273 33.289357,43.89364 0,9.36463 -2.825173,18.06947 -7.669809,25.30891"
       id="path1865-7" /><path
       style="fill:none;stroke:#87deaa;stroke-width:0.264584"
       d="m 45.993819,289.18082 c 18.278819,4.38659 31.863889,20.83605 31.863889,40.45809 0,9.05765 -2.894716,17.43929 -7.809584,24.27047"
       id="path1866-8" /><path
       d="m 70.240082,355.92219 c -0.259358,-0.39247 -0.545258,-0.76673 -0.855721,-1.12015 l -0.179406,-0.13628 c -0.34003,-0.25821 -0.414395,-0.73933 -0.168173,-1.08813 l 0.749573,-1.06174 c 0.246237,-0.34881 0.724558,-0.43988 1.081768,-0.20596 l 0.188467,0.1234 c 0.437027,0.17413 0.885468,0.31817 1.342161,0.43107 0.586581,0.14497 1.180458,0.25875 1.779127,0.34065 0.864602,0.11832 1.73599,0.18009 2.608621,0.18505 1.006414,0.006 2.012364,-0.0454 3.013012,-0.15315 l 0.844263,-1.62908 c -0.489046,-0.87955 -1.027384,-1.73077 -1.612438,-2.54961 -0.507288,-0.70996 -1.060305,-1.38612 -1.655544,-2.02416 -0.412163,-0.44182 -0.847558,-0.86138 -1.304326,-1.2569 -0.355621,-0.30794 -0.731913,-0.5912 -1.126222,-0.84777 l -0.209557,-0.0828 c -0.397096,-0.1569 -0.598519,-0.60014 -0.45554,-1.00242 l 0.43529,-1.2246 c 0.143039,-0.40229 0.578988,-0.61903 0.986059,-0.49016 l 0.214784,0.068 c 0.467806,0.0497 0.938474,0.0675 1.408707,0.053 0.603956,-0.0186 1.206505,-0.0693 1.805069,-0.15196 0.864453,-0.11936 1.720219,-0.29487 2.56183,-0.5255 0.970647,-0.26599 1.925507,-0.58659 2.859997,-0.96026 l 0.373341,-1.79646 c -0.708233,-0.71499 -1.456292,-1.38941 -2.240598,-2.02004 -0.68003,-0.54682 -1.394988,-1.04871 -2.140321,-1.50254 -0.516096,-0.31423 -1.048562,-0.60078 -1.595123,-0.85842 -0.425539,-0.20059 -0.864303,-0.37181 -1.313223,-0.5125 l -0.22407,-0.0232 c -0.42473,-0.0439 -0.738309,-0.41643 -0.709161,-0.84238 l 0.08867,-1.2966 c 0.02906,-0.42594 0.390491,-0.75224 0.817228,-0.73796 h 6.29e-4 l 0.225178,0.007 c 0.463898,-0.0783 0.921879,-0.18817 1.370768,-0.32896 0.576562,-0.18083 1.143088,-0.3922 1.697168,-0.63324 0.800183,-0.34811 1.576835,-0.74799 2.324999,-1.19709 0.86288,-0.51799 1.69582,-1.0843 2.494819,-1.69621 l -0.125216,-1.83054 c -0.874892,-0.49742 -1.77718,-0.94503 -2.702548,-1.3407 -0.802369,-0.34309 -1.626247,-0.63351 -2.466406,-0.86944 -0.581744,-0.16336 -1.171771,-0.29565 -1.767579,-0.39629 -0.463868,-0.0783 -0.932558,-0.1249 -1.402791,-0.13928 l -0.222078,0.038 c -0.420821,0.0722 -0.823249,-0.2018 -0.910136,-0.6198 l -0.264436,-1.27246 c -0.08687,-0.418 0.17304,-0.82969 0.58781,-0.93107 l 0.218873,-0.0535 c 0.425569,-0.2005 0.836909,-0.42988 1.231159,-0.68652 0.506374,-0.32966 0.994851,-0.68603 1.463346,-1.06761 0.6766,-0.55107 1.316548,-1.14564 1.915801,-1.77994 0.691113,-0.73154 1.340348,-1.50154 1.944604,-2.3063 l -0.614486,-1.72886 c -0.976668,-0.24297 -1.966277,-0.43058 -2.964108,-0.56195 -0.865187,-0.11397 -1.73689,-0.1713 -2.609551,-0.17182 -0.60424,-3.6e-4 -1.208077,0.0315 -1.808948,0.0953 -0.467821,0.0497 -0.931689,0.13134 -1.388367,0.24436 l -0.203535,0.0966 c -0.385728,0.18307 -0.847169,0.0277 -1.04359,-0.35136 l -0.59801,-1.1539 c -0.196466,-0.37907 -0.05722,-0.84563 0.314777,-1.05513 l 0.196316,-0.11052 c 0.355697,-0.30787 0.6899,-0.63971 1.000288,-0.9932 0.398639,-0.45403 0.772833,-0.92895 1.120981,-1.42276 0.50281,-0.71316 0.958604,-1.45831 1.364477,-2.23074 0.468106,-0.89086 0.885512,-1.80746 1.250225,-2.74539 l -1.058223,-1.49898 c -1.006009,0.0295 -2.009563,0.11576 -3.005837,0.2585 -0.863839,0.1237 -1.718691,0.3036 -2.559134,0.5385 -0.581939,0.16266 -1.154816,0.35615 -1.716175,0.5797 -0.437072,0.17405 -0.861712,0.3778 -1.270955,0.60983 l -0.16988,0.14796 c -0.322026,0.28039 -0.808315,0.25529 -1.099757,-0.0568 l -0.887129,-0.9498 c -0.291456,-0.31203 -0.283308,-0.79883 0.01842,-1.10093 l 0.1592,-0.15941 c 0.259434,-0.39241 0.491712,-0.80211 0.695203,-1.22622 0.26135,-0.54473 0.493523,-1.10298 0.695531,-1.67239 0.291741,-0.82236 0.529561,-1.66284 0.711948,-2.51612 0.21035,-0.98409 0.364953,-1.97927 0.463058,-2.98079 l -1.42343,-1.15795 c -0.960747,0.29981 -1.903789,0.65364 -2.824619,1.05979 -0.798415,0.35217 -1.573031,0.756 -2.318903,1.20891 -0.51647,0.3136 -1.01588,0.65448 -1.496119,1.02117 -0.373894,0.28551 -0.727824,0.59625 -1.059286,0.93007 l -0.123718,0.18825 c -0.23442,0.35684 -0.709431,0.46386 -1.074264,0.24203 l -1.110571,-0.67528 c -0.364803,-0.22184 -0.488297,-0.69275 -0.279294,-1.06503 l 0.110238,-0.19646 c 0.143938,-0.44783 0.257036,-0.905 0.338547,-1.36827 0.104695,-0.59505 0.177608,-1.19525 0.218483,-1.79804 0.05886,-0.87057 0.06081,-1.74404 0.006,-2.61488 -0.06306,-1.00435 -0.182641,-2.00432 -0.358407,-2.99518 l -1.683134,-0.73098 c -0.844218,0.54785 -1.656817,1.14296 -2.433903,1.78246 -0.673784,0.55448 -1.310707,1.15229 -1.906725,1.78961 -0.412703,0.44131 -0.801605,0.90427 -1.165091,1.3869 -0.282993,0.37577 -0.53994,0.77047 -0.769043,1.18133 l -0.0683,0.21468 c -0.12941,0.40686 -0.557974,0.63805 -0.969134,0.52285 l -1.251574,-0.35064"
       id="path1863-4"
       style="fill:none;stroke:#0088aa;stroke-width:0.264584" /><path
       style="fill:none;stroke:#000000;stroke-width:0.264583;marker-start:url(#marker11);marker-end:url(#marker11)"
       d="m 55.684557,284.09699 -1.362242,3.56335"
       id="path1870" /><path
       style="fill:none;stroke:#000000;stroke-width:0.264583;marker-start:url(#marker11);marker-end:url(#marker11)"
       d="m 57.794239,293.82757 1.902507,-2.99046"
       id="path1871" /><path
       style="fill:none;stroke:#000000;stroke-width:0.264583;marker-start:url(#marker11)"
       d="m 66.763971,301.13136 1.708531,-1.47799"
       id="path1872" /><path
       style="fill:none;stroke:#000000;stroke-width:0.264583;marker-start:url(#marker11)"
       d="m 65.648249,302.08643 -2.587911,2.20506"
       id="path1873" /><path
       style="fill:none;stroke:#000000;stroke-width:0.264583;marker-start:url(#marker11);marker-end:url(#marker11)"
       d="m 105.89931,290.25125 1.26248,3.70387"
       id="path1876" /><text
       xml:space="preserve"
       transform="matrix(0.26458333,0,0,0.26458333,-29.203593,5.7883413)"
       id="text1877"
       style="font-size:14.6667px;line-height:normal;font-family:'Liberation Mono';-inkscape-font-specification:'Liberation Mono';text-align:center;text-decoration-color:#000000;white-space:pre;shape-inside:url(#rect1877);display:inline;fill:#217844;stroke-width:1;-inkscape-stroke:none;stop-color:#000000"><tspan
         x="202.27945"
         y="1274.7356"
         id="tspan3">primitif circle-1</tspan></text><text
       xml:space="preserve"
       transform="scale(0.26458333)"
       id="text1878"
       style="font-size:14.6667px;line-height:normal;font-family:'Liberation Mono';-inkscape-font-specification:'Liberation Mono';text-align:center;text-decoration-color:#000000;white-space:pre;shape-inside:url(#rect1878);display:inline;fill:#0088aa;stroke-width:1;-inkscape-stroke:none;stop-color:#000000"><tspan
         x="121.95303"
         y="1332.8997"
         id="tspan4">main gear</tspan></text><text
       xml:space="preserve"
       transform="matrix(0.26458333,0,0,0.26458333,-5.2802819,3.5937344)"
       id="text1879"
       style="font-size:14.6667px;line-height:normal;font-family:'Liberation Mono';-inkscape-font-specification:'Liberation Mono';text-align:center;text-decoration-color:#000000;white-space:pre;shape-inside:url(#rect1879);display:inline;fill:#ff80e5;fill-opacity:1;stroke-width:1;-inkscape-stroke:none;stop-color:#000000"><tspan
         x="430.1467"
         y="1326.5892"
         id="tspan5">second gear</tspan></text><text
       xml:space="preserve"
       transform="matrix(0.26458333,0,0,0.26458333,2.5304761,11.378958)"
       id="text1880"
       style="font-size:14.6667px;line-height:normal;font-family:'Liberation Mono';-inkscape-font-specification:'Liberation Mono';text-align:center;text-decoration-color:#000000;white-space:pre;shape-inside:url(#rect1880);display:inline;fill:#6f918a;stroke-width:1;-inkscape-stroke:none;stop-color:#000000"><tspan
         x="381.91519"
         y="1259.8489"
         id="tspan6">primitif circle-2</tspan></text><text
       xml:space="preserve"
       transform="matrix(0.26458333,0,0,0.26458333,-49.734821,7.3360892)"
       id="text1881"
       style="font-size:14.6667px;line-height:normal;font-family:'Liberation Mono';-inkscape-font-specification:'Liberation Mono';text-align:center;text-decoration-color:#000000;white-space:pre;shape-inside:url(#rect1881);display:inline;fill:#000000;stroke-width:1;-inkscape-stroke:none;stop-color:#000000"><tspan
         x="271.95337"
         y="1037.9544"
         id="tspan7">addendum
</tspan><tspan
         x="263.15192"
         y="1056.2878"
         id="tspan9"><tspan
   style="font-weight:bold;-inkscape-font-specification:'Liberation Mono Bold'"
   id="tspan8">ah1</tspan>*module</tspan></text><text
       xml:space="preserve"
       transform="matrix(0.26458333,0,0,0.26458333,-9.3748738,-9.2629174)"
       id="text1882"
       style="font-size:14.6667px;line-height:normal;font-family:'Liberation Mono';-inkscape-font-specification:'Liberation Mono';text-align:center;text-decoration-color:#000000;white-space:pre;shape-inside:url(#rect1882);display:inline;fill:#000000;stroke-width:1;-inkscape-stroke:none;stop-color:#000000"><tspan
         x="132.88403"
         y="1159.2415"
         id="tspan10">dedendum
</tspan><tspan
         x="124.08258"
         y="1177.5749"
         id="tspan12"><tspan
   style="font-weight:bold;-inkscape-font-specification:'Liberation Mono Bold'"
   id="tspan11">dh1</tspan>*module</tspan></text><text
       xml:space="preserve"
       transform="matrix(0.26458333,0,0,0.26458333,-1.8849264,-4.1247088)"
       id="text1883"
       style="font-size:14.6667px;line-height:normal;font-family:'Liberation Mono';-inkscape-font-specification:'Liberation Mono';text-align:center;text-decoration-color:#000000;white-space:pre;shape-inside:url(#rect1883);display:inline;fill:#000000;stroke-width:1;-inkscape-stroke:none;stop-color:#000000"><tspan
         x="163.73236"
         y="1218.8431"
         id="tspan13">bottom
</tspan><tspan
         x="146.12946"
         y="1237.1764"
         id="tspan15"><tspan
   style="font-weight:bold;-inkscape-font-specification:'Liberation Mono Bold'"
   id="tspan14">bh1</tspan>*module</tspan></text><text
       xml:space="preserve"
       transform="matrix(0.26458333,0,0,0.26458333,5.9127373,4.4298063)"
       id="text1884"
       style="font-size:14.6667px;line-height:normal;font-family:'Liberation Mono';-inkscape-font-specification:'Liberation Mono';text-align:center;text-decoration-color:#000000;white-space:pre;shape-inside:url(#rect1884);display:inline;fill:#000000;stroke-width:1;-inkscape-stroke:none;stop-color:#000000"><tspan
         x="159.53964"
         y="1251.3528"
         id="tspan17"><tspan
           style="font-weight:bold;-inkscape-font-specification:'Liberation Mono Bold'"
           id="tspan16">bRound1</tspan></tspan></text><text
       xml:space="preserve"
       transform="matrix(0.26458333,0,0,0.26458333,47.374731,7.4667056)"
       id="text1881-0"
       style="font-size:14.6667px;line-height:normal;font-family:'Liberation Mono';-inkscape-font-specification:'Liberation Mono';text-align:center;text-decoration-color:#000000;white-space:pre;shape-inside:url(#rect1881-9);display:inline;fill:#000000;stroke-width:1;-inkscape-stroke:none;stop-color:#000000"><tspan
         x="271.95337"
         y="1037.9544"
         id="tspan18">addendum
</tspan><tspan
         x="263.15192"
         y="1056.2878"
         id="tspan20"><tspan
   style="font-weight:bold;-inkscape-font-specification:'Liberation Mono Bold'"
   id="tspan19">ah2</tspan>*module</tspan></text><text
       xml:space="preserve"
       transform="matrix(0.26458333,0,0,0.26458333,66.285664,-6.0999021)"
       id="text1883-6"
       style="font-size:14.6667px;line-height:normal;font-family:'Liberation Mono';-inkscape-font-specification:'Liberation Mono';text-align:center;text-decoration-color:#000000;white-space:pre;shape-inside:url(#rect1883-9);display:inline;fill:#000000;stroke-width:1;-inkscape-stroke:none;stop-color:#000000"><tspan
         x="163.73236"
         y="1218.8431"
         id="tspan21">bottom
</tspan><tspan
         x="146.12946"
         y="1237.1764"
         id="tspan23"><tspan
   style="font-weight:bold;-inkscape-font-specification:'Liberation Mono Bold'"
   id="tspan22">bh2</tspan>*module</tspan></text><text
       xml:space="preserve"
       transform="matrix(0.26458333,0,0,0.26458333,81.718892,-3.9534298)"
       id="text1882-8"
       style="font-size:14.6667px;line-height:normal;font-family:'Liberation Mono';-inkscape-font-specification:'Liberation Mono';text-align:center;text-decoration-color:#000000;white-space:pre;shape-inside:url(#rect1882-0);display:inline;fill:#000000;stroke-width:1;-inkscape-stroke:none;stop-color:#000000"><tspan
         x="132.88403"
         y="1159.2415"
         id="tspan24">dedendum
</tspan><tspan
         x="124.08258"
         y="1177.5749"
         id="tspan26"><tspan
   style="font-weight:bold;-inkscape-font-specification:'Liberation Mono Bold'"
   id="tspan25">dh2</tspan>*module</tspan></text><text
       xml:space="preserve"
       transform="matrix(0.26458333,0,0,0.26458333,51.128265,3.914018)"
       id="text1884-2"
       style="font-size:14.6667px;line-height:normal;font-family:'Liberation Mono';-inkscape-font-specification:'Liberation Mono';text-align:center;text-decoration-color:#000000;white-space:pre;shape-inside:url(#rect1884-7);display:inline;fill:#000000;stroke-width:1;-inkscape-stroke:none;stop-color:#000000"><tspan
         x="159.53964"
         y="1251.3528"
         id="tspan28"><tspan
           style="font-weight:bold;-inkscape-font-specification:'Liberation Mono Bold'"
           id="tspan27">bRound2</tspan></tspan></text><path
       style="fill:none;stroke:#000000;stroke-width:0.264583;marker-start:url(#marker11);marker-end:url(#marker11)"
       d="m 101.62398,296.56786 1.83354,3.10435"
       id="path1884" /><path
       style="fill:none;stroke:#000000;stroke-width:0.264583;marker-start:url(#marker11)"
       d="M 94.637512,306.84396 92.7336,305.27918"
       id="path1885" /><path
       style="fill:none;stroke:#000000;stroke-width:0.264583;marker-start:url(#marker11)"
       d="m 95.32431,307.72356 2.585471,3.04673"
       id="path1886" /><path
       style="fill:none;stroke:#000000;stroke-width:0.264583;marker-end:url(#marker11)"
       d="m 41.856628,281.8158 11.911242,4.04027"
       id="path1887" /><path
       style="fill:none;stroke:#000000;stroke-width:0.264583;marker-end:url(#marker11)"
       d="m 45.132826,296.61434 12.192113,-4.28641"
       id="path1893" /><path
       style="fill:none;stroke:#000000;stroke-width:0.264583;marker-end:url(#marker11)"
       d="m 57.972454,318.5578 6.56549,-14.28851"
       id="path1894" /><path
       style="fill:none;stroke:#000000;stroke-width:0.264583;marker-end:url(#marker11)"
       d="m 65.100998,333.9266 10.41718,-10.63718"
       id="path1895" /><path
       style="fill:none;stroke:#000000;stroke-width:0.264583;marker-end:url(#marker11)"
       d="m 116.64349,287.28334 -8.9827,4.51754"
       id="path1896" /><path
       style="fill:none;stroke:#000000;stroke-width:0.264583;marker-start:url(#marker11)"
       d="m 103.40677,297.96601 13.04161,3.58162"
       id="path1897"
       sodipodi:nodetypes="cc" /><path
       style="fill:none;stroke:#000000;stroke-width:0.264583;marker-start:url(#marker11)"
       d="m 97.219713,308.67192 11.968527,6.15499"
       id="path1898"
       sodipodi:nodetypes="cc" /><path
       style="fill:none;stroke:#000000;stroke-width:0.264583;marker-start:url(#marker11)"
       d="m 89.133319,318.43503 4.867156,12.57938"
       id="path1899" /><path
       style="fill:none;stroke:#2ca05a;stroke-width:0.264583;marker-end:url(#marker11)"
       d="m 64.160172,342.32135 12.320111,7.64937"
       id="path1900" /><path
       style="fill:none;stroke:#0088aa;stroke-width:0.264583;marker-end:url(#marker11)"
       d="m 53.022476,352.3801 14.828329,1.57361"
       id="path1901" /><path
       style="fill:none;stroke:#ff80e5;stroke-width:0.264583;stroke-opacity:1;marker-end:url(#marker11)"
       d="m 107.86932,353.28621 -7.57211,1.7759"
       id="path1902" /><path
       style="fill:none;stroke:#6f918a;stroke-width:0.264583;marker-end:url(#marker11)"
       d="M 103.25226,343.55648 92.496594,354.83233"
       id="path1903" /></g></svg>
