<?xml version="1.0" encoding="UTF-8" standalone="no"?>
<!-- Created with Inkscape (http://www.inkscape.org/) -->

<svg
   width="440.02423"
   height="322.47021"
   viewBox="0 0 116.42308 85.320244"
   version="1.1"
   id="svg1"
   inkscape:version="1.3.2 (1:1.3.2+202404261509+091e20ef0f)"
   sodipodi:docname="src_gearwheel_params.svg"
   xml:space="preserve"
   xmlns:inkscape="http://www.inkscape.org/namespaces/inkscape"
   xmlns:sodipodi="http://sodipodi.sourceforge.net/DTD/sodipodi-0.dtd"
   xmlns="http://www.w3.org/2000/svg"
   xmlns:svg="http://www.w3.org/2000/svg"><sodipodi:namedview
     id="namedview1"
     pagecolor="#ffffff"
     bordercolor="#000000"
     borderopacity="0.25"
     inkscape:showpageshadow="2"
     inkscape:pageopacity="0.0"
     inkscape:pagecheckerboard="0"
     inkscape:deskcolor="#d1d1d1"
     inkscape:document-units="px"
     inkscape:zoom="0.7892958"
     inkscape:cx="387.68735"
     inkscape:cy="3704.568"
     inkscape:window-width="1854"
     inkscape:window-height="1131"
     inkscape:window-x="66"
     inkscape:window-y="32"
     inkscape:window-maximized="1"
     inkscape:current-layer="layer1" /><defs
     id="defs1"><rect
       x="179.63213"
       y="4290.3618"
       width="70.221519"
       height="36.827831"
       id="rect78" /><rect
       x="79.669037"
       y="4257.2012"
       width="81.891891"
       height="37.091293"
       id="rect77" /><rect
       x="286.36566"
       y="4270.0923"
       width="61.864307"
       height="25.055788"
       id="rect76" /><rect
       x="190.35854"
       y="4270.3428"
       width="73.728317"
       height="31.828133"
       id="rect75" /><rect
       x="131.63409"
       y="4246.2759"
       width="214.75226"
       height="51.433586"
       id="rect74" /><rect
       x="313.17932"
       y="4222.1685"
       width="192.28021"
       height="39.457626"
       id="rect73" /><marker
       style="overflow:visible"
       id="marker11"
       refX="0"
       refY="0"
       orient="auto-start-reverse"
       inkscape:stockid="Wide arrow"
       markerWidth="1"
       markerHeight="1"
       viewBox="0 0 1 1"
       inkscape:isstock="true"
       inkscape:collect="always"
       preserveAspectRatio="xMidYMid"><path
         style="fill:none;stroke:context-stroke;stroke-width:1;stroke-linecap:butt"
         d="M 3,-3 0,0 3,3"
         transform="rotate(180,0.125,0)"
         sodipodi:nodetypes="ccc"
         id="path11" /></marker><rect
       x="170.58073"
       y="3487.7217"
       width="135.59274"
       height="35.599739"
       id="rect82-7" /><rect
       x="364.73618"
       y="3494.3098"
       width="114.88044"
       height="28.209597"
       id="rect83-5" /></defs><g
     inkscape:label="Layer 1"
     inkscape:groupmode="layer"
     id="layer1"
     transform="translate(-19.856714,-1041.9413)"><rect
       style="fill:#ffffff;stroke:#ffffff;stroke-width:0.264583"
       id="rect94-4-0-3-1"
       width="116.15849"
       height="85.055649"
       x="19.989004"
       y="1042.0736"
       inkscape:export-filename="gearwheel_params_involSim.svg"
       inkscape:export-xdpi="96"
       inkscape:export-ydpi="96" /><path
       d="m 53.411823,1117.2797 38.048718,-53.2293 z"
       stroke="#9acd32"
       stroke-width="0.264584"
       fill="none"
       id="path21-2-7-0"
       style="stroke:#d4aa00" /><circle
       cx="52.563629"
       cy="1075.9484"
       r="29.950832"
       stroke="#6495ed"
       stroke-width="0.264583"
       fill="none"
       id="circle28-4-9"
       style="stroke:#00aa00" /><circle
       cx="52.563629"
       cy="1075.9484"
       r="24.764999"
       stroke="#dc143c"
       stroke-width="0.264583"
       fill="none"
       id="circle29-3-3"
       style="stroke:#d4aa00" /><circle
       cx="108.12613"
       cy="1075.9484"
       r="24.741982"
       stroke="#6495ed"
       stroke-width="0.264583"
       fill="none"
       id="circle34-8-6"
       style="stroke:#00aa00" /><circle
       cx="108.12613"
       cy="1075.9484"
       r="20.458033"
       stroke="#dc143c"
       stroke-width="0.264583"
       fill="none"
       id="circle35-8-0"
       style="stroke:#d4aa00" /><path
       d="m 75.414723,1090.5334 1.981994,1.2104 c 0.07801,0.048 0.159631,0.089 0.244105,0.1241 0.168676,0.07 0.340009,0.1329 0.513609,0.1893 0.347329,0.1128 0.701632,0.2029 1.060662,0.2697 0.448595,0.083 0.90123,0.1435 1.356068,0.1799 l 0.653151,-1.2036 c -0.231129,-0.5963 -0.489114,-1.1819 -0.773166,-1.7549 -0.262383,-0.5293 -0.550532,-1.0454 -0.863414,-1.5465 -0.261119,-0.4182 -0.540779,-0.8245 -0.838147,-1.2178 -0.267943,-0.3543 -0.553285,-0.6952 -0.854975,-1.0213 l -0.143298,-0.053 c -0.266515,-0.099 -0.407691,-0.3898 -0.319802,-0.66 l 0.346869,-1.0663 c 0.0879,-0.2702 0.373484,-0.4228 0.646932,-0.3456 l 2.235042,0.6307 c 0.08798,0.025 0.177758,0.043 0.268525,0.054 0.181246,0.022 0.363267,0.036 0.54565,0.044 0.36488,0.015 0.730345,0.01 1.094079,-0.026 0.454476,-0.041 0.906529,-0.1049 1.354323,-0.1925 l 0.304217,-1.3352 c -0.383443,-0.5119 -0.789844,-1.0061 -1.217956,-1.4813 -0.395457,-0.4388 -0.812172,-0.8581 -1.248648,-1.2562 -0.364264,-0.3322 -0.74318,-0.648 -1.135618,-0.9465 -0.35361,-0.2689 -0.720332,-0.5201 -1.098815,-0.7527 l -0.152267,-0.012 c -0.283202,-0.023 -0.497751,-0.2654 -0.486014,-0.5493 l 0.0463,-1.1204 c 0.01174,-0.2839 0.245584,-0.5078 0.529723,-0.5073 l -6.8e-5,10e-4 h 2.322327 c 0.09141,2e-4 0.182696,-0.01 0.273024,-0.021 0.180361,-0.028 0.359558,-0.063 0.537183,-0.1051 0.355387,-0.084 0.704926,-0.1912 1.046401,-0.3207 0.426653,-0.1617 0.844598,-0.3456 1.25214,-0.5508 l -0.06731,-1.3677 c -0.507319,-0.3895 -1.031995,-0.7557 -1.572418,-1.0977 -0.499202,-0.316 -1.013577,-0.6072 -1.541278,-0.8728 -0.440396,-0.2217 -0.890468,-0.4235 -1.348872,-0.605 -0.413043,-0.1635 -0.833938,-0.3065 -1.261136,-0.4284 l -0.14994,0.029 c -0.278892,0.054 -0.550922,-0.1213 -0.616214,-0.3978 l -0.257652,-1.0913 c -0.06529,-0.2765 0.09946,-0.5552 0.373195,-0.6314 l 2.237396,-0.6223 c 0.08807,-0.024 0.174091,-0.056 0.257281,-0.094 0.166106,-0.076 0.329196,-0.1578 0.488897,-0.2462 0.319519,-0.1768 0.627192,-0.3743 0.921068,-0.5911 0.367187,-0.2709 0.720027,-0.5607 1.057089,-0.8682 l -0.43381,-1.2989 c -0.593577,-0.2381 -1.197621,-0.4492 -1.81028,-0.6327 -0.565918,-0.1695 -1.139799,-0.3112 -1.71958,-0.4246 -0.483865,-0.095 -0.971713,-0.1676 -1.462087,-0.2187 -0.441853,-0.046 -0.885716,-0.07 -1.329955,-0.072 l -0.136498,0.069 c -0.253885,0.1276 -0.563193,0.032 -0.70067,-0.2168 l -0.542528,-0.9813 c -0.137478,-0.2486 -0.05405,-0.5615 0.188992,-0.7086 l 1.986518,-1.203 c 0.0782,-0.047 0.152578,-0.1007 0.222462,-0.1596 0.139527,-0.1177 0.274408,-0.2408 0.404336,-0.369 0.259971,-0.2565 0.502975,-0.5296 0.727472,-0.8176 0.280488,-0.3599 0.542057,-0.7342 0.783643,-1.1213 l -0.768165,-1.1336 c -0.635805,-0.069 -1.274412,-0.1095 -1.913863,-0.1209 -0.590672,-0.011 -1.181507,0.01 -1.77038,0.055 -0.491444,0.039 -0.980881,0.1008 -1.46685,0.1839 -0.437892,0.075 -0.871803,0.1714 -1.300136,0.2892 l -0.112925,0.1029 c -0.21005,0.1914 -0.533714,0.1827 -0.733186,-0.02 l -0.787162,-0.7985 c -0.199469,-0.2024 -0.20353,-0.5261 -0.0092,-0.7334 l 1.58832,-1.6943 c 0.06251,-0.067 0.119722,-0.1382 0.171106,-0.2138 0.102612,-0.1509 0.199294,-0.3058 0.289825,-0.4643 0.181126,-0.3171 0.341423,-0.6457 0.479875,-0.9836 0.172993,-0.4222 0.323895,-0.8532 0.452093,-1.2911 l -1.045554,-0.8844 c -0.630868,0.105 -1.256665,0.2384 -1.875472,0.4 -0.571616,0.1492 -1.13558,0.3263 -1.689867,0.5307 -0.462581,0.1705 -0.917314,0.3617 -1.362843,0.5728 -0.401449,0.1903 -0.793222,0.4003 -1.173877,0.6293 l -0.08099,0.1295 c -0.150643,0.241 -0.464664,0.3199 -0.711332,0.1789 l -0.973402,-0.5566 c -0.246656,-0.141 -0.337911,-0.4517 -0.206719,-0.7037 l 1.072277,-2.06 c 0.04221,-0.081 0.07802,-0.1653 0.107103,-0.252 0.05808,-0.173 0.109389,-0.3482 0.153803,-0.5253 0.08886,-0.3542 0.154568,-0.7138 0.196717,-1.0766 0.05265,-0.4532 0.08168,-0.9089 0.08697,-1.3652 l -1.245367,-0.5694 c -0.579161,0.2713 -1.145755,0.5686 -1.698043,0.8911 -0.510164,0.2979 -1.005432,0.6206 -1.484022,0.967 -0.399402,0.289 -0.785699,0.5957 -1.157737,0.9193 -0.335228,0.2915 -0.655803,0.5994 -0.960543,0.9226 l -0.04305,0.1466 c -0.08006,0.2726 -0.361124,0.4334 -0.636693,0.3641"
       id="path55-5"
       style="fill:none;stroke:#0000ff;stroke-width:0.264583" /><path
       d="m 103.67923,1054.6446 -1.10562,0.2209 c -0.27671,0.055 -0.54812,-0.1163 -0.61688,-0.39 l -0.58724,-2.3373 c -0.0219,-0.087 -0.0512,-0.1722 -0.0875,-0.2543 -0.0725,-0.164 -0.15195,-0.3248 -0.23812,-0.482 -0.17242,-0.3145 -0.36695,-0.6164 -0.58211,-0.9034 -0.26881,-0.3585 -0.557751,-0.7015 -0.865431,-1.0273 l -1.24206,0.3953 c -0.26529,0.6079 -0.49694,1.23 -0.6939,1.8634 -0.17897,0.5755 -0.32293,1.1613 -0.43108,1.7543 -0.0863,0.4733 -0.1471,0.951 -0.18203,1.4309 -0.0306,0.4195 -0.0352,0.8405 -0.0139,1.2606 l 0.0726,0.1398 c 0.13006,0.2505 0.0407,0.5589 -0.20307,0.701 l -0.97396,0.568 c -0.24377,0.1421 -0.55619,0.068 -0.71009,-0.1686 l -1.314344,-2.02 c -0.04898,-0.075 -0.104286,-0.1462 -0.165312,-0.2121 -0.121812,-0.1316 -0.249165,-0.2578 -0.381714,-0.3785 -0.26521,-0.2415 -0.547224,-0.4639 -0.843915,-0.6655 -0.37066,-0.2518 -0.755313,-0.4824 -1.152102,-0.6906 l -1.0464,0.7771 c -0.05353,0.6612 -0.07065,1.3247 -0.05128,1.9878 0.0176,0.6024 0.07166,1.2032 0.161899,1.7991 0.07205,0.4758 0.169676,0.9474 0.29247,1.4126 0.107332,0.4067 0.239645,0.8064 0.396187,1.1968 l 0.114089,0.1086 c 0.204319,0.1947 0.219964,0.5154 0.03556,0.729 l -0.736786,0.8534 c -0.1844,0.2136 -0.503966,0.2449 -0.726334,0.071 l -1.899047,-1.4838 c -0.07076,-0.055 -0.146105,-0.1045 -0.225213,-0.147 -0.157915,-0.085 -0.319369,-0.1629 -0.483923,-0.234 -0.329253,-0.1423 -0.668189,-0.2611 -1.014254,-0.3554 -0.432349,-0.1178 -0.871037,-0.211 -1.313947,-0.2792 l -0.737367,1.0748 c 0.164046,0.6427 0.363322,1.2759 0.596926,1.8967 0.212256,0.5641 0.458478,1.1149 0.737315,1.6492 0.22263,0.4266 0.468087,0.8409 0.735303,1.241 0.233563,0.3498 0.488479,0.6849 0.763297,1.0033 l 0.143192,0.066 c 0.256454,0.1178 0.375391,0.416 0.270325,0.6779 l -0.419761,1.0464 c -0.105062,0.2619 -0.397161,0.3953 -0.663893,0.3032 l -2.27793,-0.7868 c -0.08488,-0.029 -0.172101,-0.051 -0.260721,-0.066 -0.176915,-0.029 -0.354981,-0.05 -0.533717,-0.064 -0.357612,-0.028 -0.716742,-0.03 -1.074685,-0.01 -0.447183,0.029 -0.892363,0.083 -1.333394,0.1626 l -0.348403,1.256 c 0.363833,0.5546 0.757899,1.0888 1.180412,1.6001 0.38392,0.4646 0.795624,0.9056 1.232852,1.3204 0.349077,0.3312 0.715748,0.6433 1.098418,0.9351 0.334486,0.255 0.684383,0.4891 1.047697,0.701 l 0.156792,0.016 c 0.280786,0.028 0.490126,0.2716 0.475801,0.5534 l -0.05726,1.126 c -0.01432,0.2819 -0.247286,0.5029 -0.529484,0.5023 l -3.28e-4,7e-4 -2.409984,-0.01 c -0.08981,-2e-4 -0.179463,0.01 -0.267997,0.022 -0.176732,0.03 -0.352107,0.068 -0.525647,0.1125 -0.347223,0.09 -0.687627,0.2044 -1.018646,0.3426 -0.413559,0.1726 -0.816991,0.3684 -1.208352,0.5867 l 0.07829,1.3011 c 0.524207,0.4064 1.070373,0.7837 1.636025,1.1301 0.513976,0.3148 1.046543,0.5981 1.594776,0.8485 0.437702,0.1999 0.885859,0.3761 1.342522,0.5278 0.399164,0.1326 0.806125,0.2404 1.218565,0.3229 l 0.153379,-0.036 c 0.274699,-0.065 0.551756,0.098 0.629708,0.3689 l 0.311441,1.0836 c 0.07797,0.2712 -0.07061,0.5559 -0.337688,0.647 l -2.280867,0.7782 c -0.085,0.029 -0.167367,0.065 -0.246221,0.1082 -0.157398,0.086 -0.311075,0.1782 -0.460613,0.2771 -0.299213,0.1978 -0.584011,0.4166 -0.852249,0.6547 -0.335119,0.2975 -0.653087,0.6138 -0.952368,0.9473 l 0.496517,1.2052 c 0.627763,0.2142 1.266833,0.3937 1.914313,0.5377 0.58834,0.1308 1.184064,0.2259 1.783901,0.2847 0.478893,0.047 0.959968,0.068 1.441132,0.063 0.420584,0 0.840508,-0.034 1.257379,-0.09 l 0.13335,-0.084 c 0.238842,-0.1503 0.553592,-0.087 0.715381,0.1445 l 0.64643,0.9237"
       id="path15-8-6"
       style="fill:none;stroke:#ff80e5;stroke-width:0.264583" /><text
       xml:space="preserve"
       transform="matrix(0.26458333,0,0,0.26458333,-9.8106651,142.15282)"
       id="text82-2"
       style="font-size:14.6667px;line-height:normal;font-family:'Liberation Mono';-inkscape-font-specification:'Liberation Mono';text-align:center;text-decoration-color:#000000;white-space:pre;shape-inside:url(#rect82-7);display:inline;fill:#0000ff;stroke-width:1;-inkscape-stroke:none;stop-color:#000000"><tspan
         x="189.96896"
         y="3500.7728"
         id="tspan3">gearwheel-1</tspan></text><text
       xml:space="preserve"
       transform="matrix(0.26458333,0,0,0.26458333,-3.8478503,139.75941)"
       id="text83-9"
       style="font-size:14.6667px;line-height:normal;font-family:'Liberation Mono';-inkscape-font-specification:'Liberation Mono';text-align:center;text-decoration-color:#000000;white-space:pre;shape-inside:url(#rect83-5);display:inline;fill:#ff80e5;stroke-width:1;-inkscape-stroke:none;stop-color:#000000"><tspan
         x="373.76877"
         y="3507.3606"
         id="tspan4">gearwheel-2</tspan></text><path
       style="fill:#d5f6ff;stroke:#00aa00;stroke-width:0.264582"
       d="m 81.946186,1069.623 8.104565,45.641"
       id="path60"
       sodipodi:nodetypes="cc" /><path
       style="fill:#d5f6ff;stroke:#ffdd55;stroke-width:0.264583"
       d="m 66.528192,1052.6949 c 0,0 -0.668662,0.4985 -0.958683,0.7957 -0.271376,0.2781 -0.722246,0.9151 -0.722246,0.9151"
       id="path61"
       sodipodi:nodetypes="cac" /><path
       style="fill:#d5f6ff;stroke:#ffd42a;stroke-width:0.264583"
       d="m 97.111499,1056.2201 c 0,0 0.217467,0.9247 0.404889,1.3585 0.108626,0.2514 0.412543,0.7105 0.412543,0.7105"
       id="path62"
       sodipodi:nodetypes="cac" /><path
       style="fill:#d5f6ff;stroke:#000000;stroke-width:0.264583;marker-start:url(#marker11);marker-end:url(#marker11)"
       d="m 52.563627,1075.9484 -20.8759,13.2159"
       id="path63" /><path
       style="fill:none;stroke:#000000;stroke-width:0.264583;marker-start:url(#marker11);marker-end:url(#marker11)"
       d="m 38.692518,1102.4935 13.871109,-26.5451"
       id="path64" /><path
       style="fill:none;stroke:#000000;stroke-width:0.264583;marker-start:url(#marker11);marker-end:url(#marker11)"
       d="m 108.12613,1075.9484 19.05092,7.456"
       id="path65" /><path
       style="fill:none;stroke:#000000;stroke-width:0.264583;marker-start:url(#marker11);marker-end:url(#marker11)"
       d="m 119.00893,1098.1684 -10.8828,-22.22"
       id="path67" /><path
       style="fill:none;stroke:#b3b3b3;stroke-width:0.264583"
       d="m 60.072028,1107.936 v 11.6563"
       id="path69" /><path
       style="fill:none;stroke:#b3b3b3;stroke-width:0.264583"
       d="m 86.59574,1096.3818 v 18.6516"
       id="path70" /><path
       style="fill:none;stroke:#000000;stroke-width:0.264583;marker-start:url(#marker11);marker-end:url(#marker11)"
       d="m 54.22661,1116.5111 c 0,0 1.405717,1.6052 2.365478,1.9656 1.021557,0.3836 3.27256,0.082 3.27256,0.082"
       id="path71"
       sodipodi:nodetypes="cac" /><path
       style="fill:none;stroke:#000000;stroke-width:0.264583;marker-start:url(#marker11);marker-end:url(#marker11)"
       d="m 86.79731,1113.892 c 0,0 0.826167,0.4151 1.274339,0.4315 0.514161,0.019 1.494182,-0.3871 1.494182,-0.3871"
       id="path72"
       sodipodi:nodetypes="cac" /><text
       xml:space="preserve"
       transform="matrix(0.26458333,0,0,0.26458333,-1.5084649,-1.7598757)"
       id="text73"
       style="font-style:normal;font-variant:normal;font-weight:bold;font-stretch:normal;font-size:14.6667px;line-height:normal;font-family:'Liberation Mono';-inkscape-font-specification:'Liberation Mono Bold';text-align:center;text-decoration-color:#000000;white-space:pre;shape-inside:url(#rect73);fill:#000000;stroke-width:1;-inkscape-stroke:none;stop-color:#000000"><tspan
         x="330.10626"
         y="4235.029"
         id="tspan5">rightPressureAngle</tspan></text><text
       xml:space="preserve"
       transform="matrix(0.26458333,0,0,0.26458333,-4.2184174,-4.3971164)"
       id="text74"
       style="font-style:normal;font-variant:normal;font-weight:bold;font-stretch:normal;font-size:14.6667px;line-height:normal;font-family:'Liberation Mono';-inkscape-font-specification:'Liberation Mono Bold';text-align:center;text-decoration-color:#000000;white-space:pre;shape-inside:url(#rect74);fill:#000000;stroke-width:1;-inkscape-stroke:none;stop-color:#000000"><tspan
         x="164.1984"
         y="4259.1364"
         id="tspan6">leftPressureAngle</tspan></text><text
       xml:space="preserve"
       transform="matrix(0.26458333,0,0,0.26458333,-9.8099884,-40.402949)"
       id="text75"
       style="font-style:normal;font-variant:normal;font-weight:bold;font-stretch:normal;font-size:14.6667px;line-height:normal;font-family:'Liberation Mono';-inkscape-font-specification:'Liberation Mono Bold';text-align:center;text-decoration-color:#000000;white-space:pre;shape-inside:url(#rect75);fill:#000000;stroke-width:1;-inkscape-stroke:none;stop-color:#000000"><tspan
         x="209.61975"
         y="4283.2047"
         id="tspan7">brr1</tspan></text><text
       xml:space="preserve"
       transform="matrix(0.26458333,0,0,0.26458333,-45.242338,-52.003372)"
       id="text76"
       style="font-style:normal;font-variant:normal;font-weight:bold;font-stretch:normal;font-size:14.6667px;line-height:normal;font-family:'Liberation Mono';-inkscape-font-specification:'Liberation Mono Bold';text-align:center;text-decoration-color:#000000;white-space:pre;shape-inside:url(#rect76);fill:#000000;stroke-width:1;-inkscape-stroke:none;stop-color:#000000"><tspan
         x="299.69495"
         y="4282.9528"
         id="tspan8">blr1</tspan></text><text
       xml:space="preserve"
       transform="matrix(0.26458333,0,0,0.26458333,76.344913,-40.688837)"
       id="text77"
       style="font-style:normal;font-variant:normal;font-weight:bold;font-stretch:normal;font-size:14.6667px;line-height:normal;font-family:'Liberation Mono';-inkscape-font-specification:'Liberation Mono Bold';text-align:center;text-decoration-color:#000000;white-space:pre;shape-inside:url(#rect77);fill:#000000;stroke-width:1;-inkscape-stroke:none;stop-color:#000000"><tspan
         x="103.01233"
         y="4270.0622"
         id="tspan9">brr2</tspan></text><text
       xml:space="preserve"
       transform="matrix(0.26458333,0,0,0.26458333,62.375114,-60.433609)"
       id="text78"
       style="font-style:normal;font-variant:normal;font-weight:bold;font-stretch:normal;font-size:14.6667px;line-height:normal;font-family:'Liberation Mono';-inkscape-font-specification:'Liberation Mono Bold';text-align:center;text-decoration-color:#000000;white-space:pre;shape-inside:url(#rect78);fill:#000000;stroke-width:1;-inkscape-stroke:none;stop-color:#000000"><tspan
         x="197.14026"
         y="4303.2223"
         id="tspan10">blr2</tspan></text></g></svg>
