<svg xmlns="http://www.w3.org/2000/svg" width="460.394" height="259.425" viewBox="0 0 121.812 68.639"><defs><path id="h" d="M87.276 1607.435h173.19v33.1H87.276z"/><path id="g" d="M96.984 1526.132h449.848v90.779H96.984z"/><path id="f" d="M249.725 1486.91h49.604v34.092h-49.604z"/><path id="e" d="M107.988 1446.259h32.485v20.271h-32.485z"/><path id="d" d="M189.863 1392.536h60.001v29.567h-60.001z"/><path id="c" d="M79.375 1381.256h49.383v33.743H79.375z"/><path id="b" d="M333.585 1440.774h30.297v32.721h-30.297z"/><path id="a" d="M156.535 1496.766h52.288v39.789h-52.288z"/></defs><path d="M18.277 364.567h121.548v68.375H18.277z" style="fill:#fff;stroke:#fff;stroke-width:.264583;stroke-dasharray:none;stroke-dashoffset:0" transform="translate(-18.145084,-364.43451)"/><path d="m29.961 369.868 18.225 26.59 38.762-11.92z" style="fill:none;stroke:#000;stroke-width:.264583px;stroke-linecap:butt;stroke-linejoin:miter;stroke-opacity:1" transform="translate(-18.145084,-364.43451)"/><text xml:space="preserve" style="font-size:14.6667px;line-height:1.25;font-family:sans-serif;white-space:pre;shape-inside:url(#a);display:inline" transform="translate(-18.145084,-364.43451) matrix(0.26458333,0,0,0.26458333,4.4544346,0.5106408)"><tspan x="156.535" y="1509.742">A</tspan></text><text xml:space="preserve" style="font-size:14.6667px;line-height:1.25;font-family:sans-serif;white-space:pre;shape-inside:url(#b);display:inline" transform="translate(-18.145084,-364.43451) matrix(0.26458333,0,0,0.26458333,0.36500678,1.822576)"><tspan x="333.584" y="1453.75">B</tspan></text><text xml:space="preserve" style="font-size:14.6667px;line-height:1.25;font-family:sans-serif;white-space:pre;shape-inside:url(#c);display:inline" transform="translate(-18.145084,-364.43451) matrix(0.26458333,0,0,0.26458333,5.2262335,2.2011015)"><tspan x="79.375" y="1394.233">C</tspan></text><text xml:space="preserve" style="font-size:14.6667px;line-height:1.25;font-family:sans-serif;white-space:pre;shape-inside:url(#d);display:inline" transform="translate(-18.145084,-364.43451) matrix(0.26458333,0,0,0.26458333,8.4719672,4.6977725)"><tspan x="189.863" y="1405.512">a</tspan></text><text xml:space="preserve" style="font-size:14.6667px;line-height:1.25;font-family:sans-serif;white-space:pre;shape-inside:url(#e);display:inline" transform="translate(-18.145084,-364.43451) matrix(0.26458333,0,0,0.26458333,8.105117,-0.22674664)"><tspan x="107.988" y="1459.236">b</tspan></text><text xml:space="preserve" style="font-size:14.6667px;line-height:1.25;font-family:sans-serif;white-space:pre;shape-inside:url(#f);display:inline" transform="translate(-18.145084,-364.43451) matrix(0.26458333,0,0,0.26458333,-1.4839922,-2.933573)"><tspan x="249.725" y="1499.887">c</tspan></text><text xml:space="preserve" style="font-size:14.6667px;line-height:1.25;font-family:sans-serif;white-space:pre;shape-inside:url(#g);display:inline" transform="translate(-18.145084,-364.43451) matrix(0.26458333,0,0,0.26458333,-0.87196065,1.7881646)"><tspan x="96.984" y="1539.109">A + B + C = Math.PI
</tspan><tspan x="96.984" y="1557.443">c<tspan style="font-size:65%;baseline-shift:super">2</tspan> = a<tspan style="font-size:65%;baseline-shift:super">2</tspan> + b<tspan style="font-size:65%;baseline-shift:super">2</tspan> - 2*a*b*cos(C)  [Al-Kashi or Law of cosinus]
</tspan><tspan x="96.984" y="1575.776">a / sin(A) = b / sin(B) = c / sin(C)   [Law of sinus]</tspan></text><text xml:space="preserve" style="font-size:14.6667px;line-height:1.25;font-family:sans-serif;white-space:pre;shape-inside:url(#h);display:inline" transform="translate(-18.145084,-364.43451) matrix(0.26458333,0,0,0.26458333,-2.3117096,1.1005508)"><tspan x="87.277" y="1620.412">any triangle</tspan></text></svg>