<svg xmlns="http://www.w3.org/2000/svg" width="354.603" height="278.601" viewBox="0 0 93.822 73.713"><defs><path id="p" d="M30.09 231.903h29.507v28.89H30.09z"/><path id="o" d="M371.185 149.973h43.589v42.361h-43.589z"/><path id="n" d="M301.307 105.105h57.787v47.258h-57.787z"/><path id="j" d="M84.628 282.987h29.78v23.241h-29.78z"/><path id="g" d="M226.046 289.119h24.744v20.332h-24.744z"/><path id="e" d="M357.406 309.37h51.209v20.949h-51.209z"/><path id="d" d="M215.869 396.944h60.912v19.773h-60.912z"/><path id="a" d="M120.857 363.347h97.015v49.334h-97.015z"/><path id="b" d="M120.857 363.347h107.647v49.334H120.857z"/><path id="f" d="M120.857 363.347h107.647v49.334H120.857z"/><path id="h" d="M357.406 309.37h51.209v20.949h-51.209z"/><path id="i" d="M226.046 289.119h24.744v20.332h-24.744z"/><path id="k" d="M120.857 363.347H219.9v63.316h-99.043z"/><path id="l" d="M226.046 289.119h24.744v20.332h-24.744z"/><path id="m" d="M120.857 363.347H219.9v63.316h-99.043z"/><marker id="c" markerHeight="1" markerWidth="1" orient="auto-start-reverse" preserveAspectRatio="xMidYMid" refX="0" refY="0" style="overflow:visible" viewBox="0 0 1 1"><path d="M3-3 0 0l3 3" style="fill:none;stroke:context-stroke;stroke-width:1;stroke-linecap:butt" transform="rotate(180 .125 0)"/></marker></defs><g transform="translate(-23.117 -35.91)"><path d="M23.249 36.043h93.558v73.449H23.249z" style="fill:#fff;stroke:#fff;stroke-width:.264583"/><path d="M37.114 73.794h5.897" style="fill:none;stroke:#ccc;stroke-width:.264583"/><circle cx="62.826" cy="75.276" r="19.548" style="fill:none;stroke:#e6e6e6;stroke-width:.264583"/><path d="m92.669 73.838-5.517 16.1h-43.95l-.058-16.194" style="fill:none;stroke:#1a1a1a;stroke-width:.264583"/><circle cx="83.349" cy="62.323" r="14.714" style="fill:none;stroke:#e6e6e6;stroke-width:.264583"/><path d="M92.669 73.838s3.281-3.623 4.249-5.823a13.8 13.8 0 0 0 1.145-5.692c-.032-2.212-.527-4.477-1.496-6.465-.957-1.963-2.412-3.733-4.118-5.097-1.586-1.269-3.519-2.112-5.464-2.696a10.8 10.8 0 0 0-3.636-.456c-2.233.118-4.502.592-6.533 1.53-1.552.717-2.932 1.822-4.128 3.043-1.29 1.319-3.188 4.525-3.188 4.525s-3.113-1.009-4.729-1.129c-2.223-.166-4.516-.03-6.662.572-2.49.7-4.937 1.827-6.944 3.457-2.276 1.85-3.876 4.373-5.45 6.91-1.739 2.804-2.571 7.227-2.571 7.227" style="fill:none;stroke:#000;stroke-width:.264583"/><ellipse cx="87.244" cy="89.924" rx="1.35" ry="1.278" style="fill:none;stroke:red;stroke-width:.264583"/><ellipse cx="92.716" cy="73.943" rx="1.35" ry="1.278" style="fill:none;stroke:red;stroke-width:.264583"/><ellipse cx="69.416" cy="56.743" rx="1.35" ry="1.278" style="fill:none;stroke:red;stroke-width:.264583"/><path d="M41.977 88.637h2.619v2.362h-2.619z" style="fill:none;stroke:red;stroke-width:.264583"/><text xml:space="preserve" x="25.173" style="font-size:14.6667px;line-height:normal;font-family:&quot;Liberation Mono&quot;;-inkscape-font-specification:&quot;Liberation Mono&quot;;text-align:end;text-decoration-color:#000;white-space:pre;shape-inside:url(#a);fill:#000;stroke-width:1;-inkscape-stroke:none;stop-color:#000" transform="translate(-15.82 -5.48)scale(.26458)"><tspan x="200.268" y="376.398">p1
</tspan><tspan x="165.062" y="394.731">A(0,0)</tspan></text><path d="M43.203 89.938v12.855M87.152 89.938v12.855M87.152 89.938h12.856" style="fill:none;stroke:#b3b3b3;stroke-width:.264583"/><text xml:space="preserve" x="-35.149" style="font-size:14.6667px;line-height:normal;font-family:&quot;Liberation Mono&quot;;-inkscape-font-specification:&quot;Liberation Mono&quot;;text-align:start;text-decoration-color:#000;white-space:pre;shape-inside:url(#b);display:inline;fill:#000;stroke-width:1;-inkscape-stroke:none;stop-color:#000" transform="translate(56.913 -5.952)scale(.26458)"><tspan x="120.857" y="376.398">p2
</tspan><tspan x="120.857" y="394.731">R(+L2,0)</tspan></text><path d="M43.203 102.793h43.95" style="fill:none;stroke:teal;stroke-width:.264583;marker-start:url(#c);marker-end:url(#c)"/><text xml:space="preserve" style="font-size:14.6667px;line-height:normal;font-family:&quot;Liberation Mono&quot;;-inkscape-font-specification:&quot;Liberation Mono&quot;;text-align:center;text-decoration-color:#000;white-space:pre;shape-inside:url(#d);fill:teal;stroke-width:1;-inkscape-stroke:none;stop-color:#000" transform="translate(-.037 -2.207)scale(.26458)"><tspan x="237.524" y="409.993">L2</tspan></text><path d="M91.812 89.774s.389-1.857-.031-2.624c-.519-.946-2.707-1.777-2.707-1.777" style="fill:none;stroke:teal;stroke-width:.264583;marker-end:url(#c)"/><text xml:space="preserve" style="font-size:14.6667px;line-height:normal;font-family:&quot;Liberation Mono&quot;;-inkscape-font-specification:&quot;Liberation Mono&quot;;text-align:center;text-decoration-color:#000;white-space:pre;shape-inside:url(#e);fill:teal;stroke-width:1;-inkscape-stroke:none;stop-color:#000" transform="translate(-6.552 2.52)scale(.26458)"><tspan x="374.209" y="322.421">a3</tspan></text><text xml:space="preserve" x="-35.149" style="font-size:14.6667px;line-height:normal;font-family:&quot;Liberation Mono&quot;;-inkscape-font-specification:&quot;Liberation Mono&quot;;text-align:start;text-decoration-color:#000;white-space:pre;shape-inside:url(#f);display:inline;fill:#000;stroke-width:1;-inkscape-stroke:none;stop-color:#000" transform="translate(62.61 -24.2)scale(.26458)"><tspan x="120.857" y="376.398">p3
</tspan><tspan x="120.857" y="394.731">RP(a3,L3)</tspan></text><path d="m87.093 89.87-8.267-2.816M92.558 73.791l-8.267-2.816" style="fill:teal;stroke:#b3b3b3;stroke-width:.264583"/><path d="m78.998 86.781 5.438-15.634" style="fill:teal;stroke:teal;stroke-width:.264583;marker-start:url(#c);marker-end:url(#c)"/><text xml:space="preserve" style="font-size:14.6667px;line-height:normal;font-family:&quot;Liberation Mono&quot;;-inkscape-font-specification:&quot;Liberation Mono&quot;;text-align:center;text-decoration-color:#000;white-space:pre;shape-inside:url(#g);fill:teal;stroke-width:1;-inkscape-stroke:none;stop-color:#000" transform="translate(15.48 -.533)scale(.26458)"><tspan x="229.617" y="302.169">L3</tspan></text><path d="M43.203 89.938 69.5 56.708M48.653 94.2l-5.236-4.159M74.922 60.888l-5.236-4.16" style="fill:teal;stroke:#ccc;stroke-width:.264583"/><path d="m48.832 93.918 25.919-32.843" style="fill:teal;stroke:teal;stroke-width:.264583;marker-start:url(#c);marker-end:url(#c)"/><path d="M47.552 89.828s.413-1.234.213-1.806c-.229-.655-1.478-1.464-1.478-1.464" style="fill:none;stroke:teal;stroke-width:.264583;marker-end:url(#c)"/><text xml:space="preserve" style="font-size:14.6667px;line-height:normal;font-family:&quot;Liberation Mono&quot;;-inkscape-font-specification:&quot;Liberation Mono&quot;;text-align:center;text-decoration-color:#000;white-space:pre;shape-inside:url(#h);display:inline;fill:teal;stroke-width:1;-inkscape-stroke:none;stop-color:#000" transform="translate(-51.4 2.006)scale(.26458)"><tspan x="374.209" y="322.421">a4</tspan></text><text xml:space="preserve" style="font-size:14.6667px;line-height:normal;font-family:&quot;Liberation Mono&quot;;-inkscape-font-specification:&quot;Liberation Mono&quot;;text-align:center;text-decoration-color:#000;white-space:pre;shape-inside:url(#i);display:inline;fill:teal;stroke-width:1;-inkscape-stroke:none;stop-color:#000" transform="translate(.376 1.402)scale(.26458)"><tspan x="229.617" y="302.169">L4</tspan></text><path d="m43.073 73.85 1.297-5.36" style="fill:none;stroke:#d4aa00;stroke-width:.529167;marker-end:url(#c)"/><path d="M43.011 73.794h5.897" style="fill:none;stroke:#b3b3b3;stroke-width:.264583"/><ellipse cx="43.063" cy="73.822" rx="1.35" ry="1.278" style="fill:none;stroke:red;stroke-width:.264583"/><path d="M45.756 73.847s.41-1.294.149-1.858c-.291-.627-1.684-1.21-1.684-1.21" style="fill:none;stroke:teal;stroke-width:.264583;marker-end:url(#c)"/><text xml:space="preserve" style="font-size:14.6667px;line-height:normal;font-family:&quot;Liberation Mono&quot;;-inkscape-font-specification:&quot;Liberation Mono&quot;;text-align:center;text-decoration-color:#000;white-space:pre;shape-inside:url(#j);fill:teal;stroke-width:1;-inkscape-stroke:none;stop-color:#000" transform="translate(22.148 -5.696)scale(.26458)"><tspan x="90.717" y="296.038">a5</tspan></text><text xml:space="preserve" x="25.173" style="font-size:14.6667px;line-height:normal;font-family:&quot;Liberation Mono&quot;;-inkscape-font-specification:&quot;Liberation Mono&quot;;text-align:end;text-decoration-color:#000;white-space:pre;shape-inside:url(#k);display:inline;fill:#000;stroke-width:1;-inkscape-stroke:none;stop-color:#000" transform="translate(-15.818 -32.833)scale(.26458)"><tspan x="158.29" y="376.398">A(0,L5)
</tspan><tspan x="202.297" y="394.731">p5</tspan></text><path d="M37.114 89.938h5.897" style="fill:none;stroke:#ccc;stroke-width:.264583"/><path d="M37.114 74.126v15.521" style="fill:teal;stroke:teal;stroke-width:.264583;marker-start:url(#c);marker-end:url(#c)"/><text xml:space="preserve" style="font-size:14.6667px;line-height:normal;font-family:&quot;Liberation Mono&quot;;-inkscape-font-specification:&quot;Liberation Mono&quot;;text-align:center;text-decoration-color:#000;white-space:pre;shape-inside:url(#l);display:inline;fill:teal;stroke-width:1;-inkscape-stroke:none;stop-color:#000" transform="translate(-29.167 3.428)scale(.26458)"><tspan x="229.617" y="302.169">L5</tspan></text><text xml:space="preserve" x="25.173" style="font-size:14.6667px;line-height:normal;font-family:&quot;Liberation Mono&quot;;-inkscape-font-specification:&quot;Liberation Mono&quot;;text-align:end;text-decoration-color:#000;white-space:pre;shape-inside:url(#m);display:inline;fill:#000;stroke-width:1;-inkscape-stroke:none;stop-color:#000" transform="translate(10.048 -50.297)scale(.26458)"><tspan x="140.687" y="376.398">AP(a4,L4)
</tspan><tspan x="202.297" y="394.731">p4</tspan></text><text xml:space="preserve" style="font-size:14.6667px;line-height:normal;font-family:&quot;Liberation Mono&quot;;-inkscape-font-specification:&quot;Liberation Mono&quot;;text-align:center;text-decoration-color:#000;white-space:pre;shape-inside:url(#n);fill:#f0f;stroke-width:1;-inkscape-stroke:none;stop-color:#000" transform="translate(-12.195 10.044)scale(.26458)"><tspan x="321.399" y="118.156">R4</tspan></text><path d="m74.339 42.83-4.553 11.716" style="fill:#f0f;stroke:#f0f;stroke-width:.264583;marker-end:url(#c)"/><text xml:space="preserve" style="font-size:14.6667px;line-height:normal;font-family:&quot;Liberation Mono&quot;;-inkscape-font-specification:&quot;Liberation Mono&quot;;text-align:center;text-decoration-color:#000;white-space:pre;shape-inside:url(#o);fill:teal;stroke-width:1;-inkscape-stroke:none;stop-color:#000" transform="scale(.26458)"><tspan x="379.777" y="163.023">R34</tspan></text><path d="m101.475 43.947-7.134 6.6" style="fill:teal;stroke:teal;stroke-width:.264583;marker-end:url(#c)"/><path d="m25.698 43.901 7.636-5.187" style="fill:teal;stroke:#00f;stroke-width:.264583;marker-end:url(#c)"/><text xml:space="preserve" style="font-size:14.6667px;line-height:normal;font-family:&quot;Liberation Mono&quot;;-inkscape-font-specification:&quot;Liberation Mono&quot;;text-align:center;text-decoration-color:#000;white-space:pre;shape-inside:url(#p);fill:#00f;stroke-width:1;-inkscape-stroke:none;stop-color:#000" transform="translate(19.271 -19.519)scale(.26458)"><tspan x="36.042" y="244.952">T1</tspan></text></g></svg>