<svg xmlns="http://www.w3.org/2000/svg" xml:space="preserve" width="560.563" height="511.79" viewBox="0 0 148.316 135.411"><defs><path id="u" d="M242.575 7557.246H343.42v66.813H242.575z"/><path id="t" d="M192.422 7974.829h150.33v25.389h-150.33z"/><path id="r" d="M425.865 7960.129h145.748v52.114H425.865z"/><path id="m" d="M341.157 7885.803h176.646v54.95H341.157z"/><path id="l" d="M200.294 7885.444H329.39v72.681H200.294z"/><path id="k" d="M200.315 8020.158h185.197v66.142H200.315z"/><path id="f" d="M286.299 7871.811h146.457v106.772H286.299z"/><path id="i" d="M188.373 7890.709h181.076v85.984H188.373z"/><path id="e" d="M220.157 7941.732h156.85v56.693h-156.85z"/><path id="d" d="M168.189 7751.811h244.724v26.457H168.189z"/><path id="c" d="M174.803 7649.764h122.835v68.032H174.803z"/><path id="b" d="M126.614 7576.063h154.961v92.598H126.614z"/><path id="a" d="M46.299 7482.52h124.724v79.37H46.299z"/><path id="n" d="M188.373 7890.709h181.076v85.984H188.373z"/><marker id="g" markerHeight="1" markerWidth="1" orient="auto-start-reverse" preserveAspectRatio="xMidYMid" refX="0" refY="0" style="overflow:visible" viewBox="0 0 1 1"><path d="m1 0-3 3h-2l3-3-3-3h2z" style="fill:context-stroke;fill-rule:evenodd;stroke:none"/></marker><marker id="h" markerHeight="1" markerWidth="1" orient="auto-start-reverse" preserveAspectRatio="xMidYMid" refX="0" refY="0" style="overflow:visible" viewBox="0 0 1 1"><path d="m1 0-3 3h-2l3-3-3-3h2z" style="fill:context-stroke;fill-rule:evenodd;stroke:none"/></marker><marker id="j" markerHeight="1" markerWidth="1" orient="auto-start-reverse" preserveAspectRatio="xMidYMid" refX="0" refY="0" style="overflow:visible" viewBox="0 0 1 1"><path d="m1 0-3 3h-2l3-3-3-3h2z" style="fill:context-stroke;fill-rule:evenodd;stroke:none"/></marker><marker id="o" markerHeight="1" markerWidth="1" orient="auto-start-reverse" preserveAspectRatio="xMidYMid" refX="0" refY="0" style="overflow:visible" viewBox="0 0 1 1"><path d="m1 0-3 3h-2l3-3-3-3h2z" style="fill:context-stroke;fill-rule:evenodd;stroke:none"/></marker><marker id="p" markerHeight="1" markerWidth="1" orient="auto-start-reverse" preserveAspectRatio="xMidYMid" refX="0" refY="0" style="overflow:visible" viewBox="0 0 1 1"><path d="m1 0-3 3h-2l3-3-3-3h2z" style="fill:context-stroke;fill-rule:evenodd;stroke:none"/></marker><marker id="q" markerHeight="1" markerWidth="1" orient="auto-start-reverse" preserveAspectRatio="xMidYMid" refX="0" refY="0" style="overflow:visible" viewBox="0 0 1 1"><path d="m1 0-3 3h-2l3-3-3-3h2z" style="fill:context-stroke;fill-rule:evenodd;stroke:none"/></marker><marker id="s" markerHeight="1" markerWidth="1" orient="auto-start-reverse" preserveAspectRatio="xMidYMid" refX="0" refY="0" style="overflow:visible" viewBox="0 0 1 1"><path d="m1 0-3 3h-2l3-3-3-3h2z" style="fill:context-stroke;fill-rule:evenodd;stroke:none"/></marker><marker id="v" markerHeight="1" markerWidth="1" orient="auto-start-reverse" preserveAspectRatio="xMidYMid" refX="0" refY="0" style="overflow:visible" viewBox="0 0 1 1"><path d="m1 0-3 3h-2l3-3-3-3h2z" style="fill:context-stroke;fill-rule:evenodd;stroke:none"/></marker></defs><path d="M4.066 1979.369h148.316v135.411H4.066z" style="fill:#fff;stroke:none;stroke-width:.264583;stroke-linejoin:round" transform="translate(-4.066 -1979.369)"/><path d="M64.034 2000.451h24.6v15.124h-24.6z" style="fill:#f4d7ee;stroke:#5aa02c;stroke-width:.79375;stroke-linejoin:round" transform="translate(-4.066 -1979.369)"/><path d="M127.14 2104.361h17.616v7.998H127.14z" style="fill:#ffe680;stroke:#d4aa00;stroke-width:.264583;stroke-linejoin:round" transform="translate(-4.066 -1979.369)"/><path d="M127.14 2083.384h17.616v13.57H127.14z" style="fill:#fff6d5;stroke:#d4aa00;stroke-width:.264583;stroke-linejoin:round" transform="translate(-4.066 -1979.369)"/><path d="M49.519 2083.788h17.616v13.57H49.519zM88.466 2064.442h30.491v15.25H88.466z" style="fill:#fff6d5;stroke:#d4aa00;stroke-width:.79375;stroke-linejoin:round" transform="translate(-4.066 -1979.369)"/><path d="M8.25 2030.755h80.649v28.5H8.25z" style="fill:#aade87;stroke:#5aa02c;stroke-width:.264583;stroke-linejoin:round" transform="translate(-4.066 -1979.369)"/><path d="M12.5 2039.982h34.9v15.25H12.5zM58.324 2040.003h26.25v15.25h-26.25z" style="fill:#e3f4d7;stroke:#5aa02c;stroke-width:.264583;stroke-linejoin:round" transform="translate(-4.066 -1979.369)"/><path d="M8.25 2007.567H34.5v15.25H8.25zM8.25 1982.792H34.5v15.25H8.25z" style="fill:#d7eef4;stroke:#37abc8;stroke-width:.264583;stroke-linejoin:round" transform="translate(-4.066 -1979.369)"/><text xml:space="preserve" style="font-size:16px;line-height:normal;font-family:&quot;Liberation Mono&quot;;-inkscape-font-specification:&quot;Liberation Mono&quot;;text-decoration-color:#000;white-space:pre;shape-inside:url(#a);display:inline;fill:#000;stroke-width:1;-inkscape-stroke:none;stop-color:#000" transform="translate(-4.066 -1974.077)scale(.26458)"><tspan x="46.299" y="7496.756">system
</tspan><tspan x="46.299" y="7516.756">concept</tspan></text><text xml:space="preserve" style="font-size:16px;line-height:normal;font-family:&quot;Liberation Mono&quot;;-inkscape-font-specification:&quot;Liberation Mono&quot;;text-decoration-color:#000;white-space:pre;shape-inside:url(#b);display:inline;fill:#000;stroke-width:1;-inkscape-stroke:none;stop-color:#000" transform="translate(-24.569 -1974.503)scale(.26458)"><tspan x="126.613" y="7590.299">part
</tspan><tspan x="126.613" y="7610.299">concept</tspan></text><text xml:space="preserve" x="61.417" style="font-size:16px;line-height:normal;font-family:&quot;Liberation Mono&quot;;-inkscape-font-specification:&quot;Liberation Mono&quot;;text-align:center;text-decoration-color:#000;white-space:pre;shape-inside:url(#c);display:inline;fill:#000;stroke-width:1;-inkscape-stroke:none;stop-color:#000" transform="translate(-36.609 -1960.785)scale(.26458)"><tspan x="212.221" y="7664">part
</tspan><tspan x="178.611" y="7684">architecture</tspan></text><text xml:space="preserve" style="font-size:16px;line-height:normal;font-family:&quot;Liberation Mono&quot;;-inkscape-font-specification:&quot;Liberation Mono&quot;;text-decoration-color:#000;white-space:pre;shape-inside:url(#d);display:inline;fill:#000;stroke-width:1;-inkscape-stroke:none;stop-color:#000" transform="translate(-17.567 -1997.448)scale(.26458)"><tspan x="168.189" y="7766.049">part definition</tspan></text><text xml:space="preserve" x="78.425" style="font-size:16px;line-height:normal;font-family:&quot;Liberation Mono&quot;;-inkscape-font-specification:&quot;Liberation Mono&quot;;text-align:center;text-decoration-color:#000;white-space:pre;shape-inside:url(#e);display:inline;fill:#000;stroke-width:1;-inkscape-stroke:none;stop-color:#000" transform="translate(-11.609 -2038.785)scale(.26458)"><tspan x="274.583" y="7955.969">part
</tspan><tspan x="269.778" y="7975.969">sizing</tspan></text><text xml:space="preserve" x="73.228" style="font-size:16px;line-height:normal;font-family:&quot;Liberation Mono&quot;;-inkscape-font-specification:&quot;Liberation Mono&quot;;text-align:center;text-decoration-color:#000;white-space:pre;shape-inside:url(#f);display:inline;fill:#000;stroke-width:1;-inkscape-stroke:none;stop-color:#000" transform="translate(4.428 -1995.038)scale(.26458)"><tspan x="306.723" y="7886.049">3D modeler
</tspan><tspan x="301.918" y="7906.049">applications</tspan></text><path d="M21.375 1998.042v9.525" style="fill:#eef4d7;stroke:#000;stroke-width:.264583;stroke-linejoin:round;marker-end:url(#g)" transform="translate(-4.066 -1979.369)"/><path d="M21.375 2022.817v17.033" style="fill:#eef4d7;stroke:#000;stroke-width:.264583;stroke-linejoin:round;marker-end:url(#g)" transform="translate(-4.066 -1979.369)"/><path d="m47.4 2047.607 10.924.021" style="fill:#eef4d7;stroke:#000;stroke-width:.264583;stroke-linejoin:round;marker-end:url(#g)" transform="translate(-4.066 -1979.369)"/><path d="M105.533 2055.274v8.415" style="fill:#eef4d7;stroke:#000;stroke-width:.264583;stroke-linejoin:round;marker-end:url(#g)" transform="translate(-4.066 -1979.369)"/><path d="m84.573 2047.628 9.104.021" style="fill:#eef4d7;stroke:#000;stroke-width:.264583;stroke-linejoin:round;marker-end:url(#h)" transform="translate(-4.066 -1979.369)"/><path d="M93.91 2040.024h23.245v15.25H93.91z" style="fill:#e3f4d7;stroke:#5aa02c;stroke-width:.264583;stroke-linejoin:round" transform="translate(-4.066 -1979.369)"/><text xml:space="preserve" style="font-size:16px;line-height:normal;font-family:&quot;Liberation Mono&quot;;-inkscape-font-specification:&quot;Liberation Mono&quot;;text-decoration-color:#000;white-space:pre;shape-inside:url(#i);display:inline;fill:#000;stroke-width:1;-inkscape-stroke:none;stop-color:#000" transform="translate(43.174 -2025.037)scale(.26458)"><tspan x="188.373" y="7904.945">outline
</tspan><tspan x="188.373" y="7924.945">scripts</tspan></text><path d="M58.327 2076.737v7.051" style="fill:#eef4d7;stroke:#000;stroke-width:.264583;stroke-linejoin:round;marker-end:url(#j)" transform="translate(-4.066 -1979.369)"/><path d="M36.841 2065.282h42.972v13.57H36.841z" style="fill:#fff6d5;stroke:#d4aa00;stroke-width:.264583;stroke-linejoin:round" transform="translate(-4.066 -1979.369)"/><text xml:space="preserve" x="92.598" style="font-size:16px;line-height:normal;font-family:&quot;Liberation Mono&quot;;-inkscape-font-specification:&quot;Liberation Mono&quot;;text-align:center;text-decoration-color:#000;white-space:pre;shape-inside:url(#k);display:inline;fill:#000;stroke-width:1;-inkscape-stroke:none;stop-color:#000" transform="translate(-23.608 -2033.998)scale(.26458)"><tspan x="249.71" y="8034.395">3D files
</tspan><tspan x="216.101" y="8054.395">.stl .step .brep</tspan></text><text xml:space="preserve" x="64.548" style="font-size:16px;line-height:normal;font-family:&quot;Liberation Mono&quot;;-inkscape-font-specification:&quot;Liberation Mono&quot;;text-align:center;text-decoration-color:#000;white-space:pre;shape-inside:url(#l);display:inline;fill:#000;stroke-width:1;-inkscape-stroke:none;stop-color:#000" transform="translate(-15.686 -1980.208)scale(.26458)"><tspan x="245.642" y="7899.68">CAM
</tspan><tspan x="240.837" y="7919.68">tools</tspan></text><path d="M88.28 2072.068h-8.467" style="fill:#eef4d7;stroke:#000;stroke-width:.264583;stroke-linejoin:round;marker-end:url(#g)" transform="translate(-4.066 -1979.369)"/><text xml:space="preserve" style="font-size:16px;line-height:normal;font-family:&quot;Liberation Mono&quot;;-inkscape-font-specification:&quot;Liberation Mono&quot;;text-decoration-color:#000;white-space:pre;shape-inside:url(#m);display:inline;fill:#000;stroke-width:1;-inkscape-stroke:none;stop-color:#000" transform="translate(34.324 -1977.977)scale(.26458)"><tspan x="341.156" y="7900.039">G-code</tspan></text><path d="M123.505 2040.024h23.245v15.25h-23.245z" style="fill:#f4d7ee;stroke:#5aa02c;stroke-width:.79375;stroke-linejoin:round" transform="translate(-4.066 -1979.369)"/><text xml:space="preserve" x="90.538" style="font-style:italic;font-variant:normal;font-weight:400;font-stretch:normal;font-size:16px;line-height:normal;font-family:&quot;Liberation Mono&quot;;-inkscape-font-specification:&quot;Liberation Mono Italic&quot;;text-align:center;text-decoration-color:#000;white-space:pre;shape-inside:url(#n);display:inline;fill:#000;stroke-width:1;-inkscape-stroke:none;stop-color:#000" transform="translate(58.48 -2025.037)scale(.26458)"><tspan x="235.708" y="7904.945">shortcut
</tspan><tspan x="264.509" y="7924.945">TBD</tspan></text><path d="m117.307 2047.65 5.774.02" style="fill:#eef4d7;stroke:#000;stroke-width:.264583;stroke-linejoin:round;marker-end:url(#o)" transform="translate(-4.066 -1979.369)"/><path d="M135.949 2055.407v27.977" style="fill:#eef4d7;stroke:#000;stroke-width:.264583;stroke-linejoin:round;marker-end:url(#p)" transform="translate(-4.066 -1979.369)"/><path d="m67.135 2090.574 59.602.02" style="fill:#eef4d7;stroke:#000;stroke-width:.264583;stroke-linejoin:round;marker-end:url(#q)" transform="translate(-4.066 -1979.369)"/><text xml:space="preserve" style="font-style:normal;font-variant:normal;font-weight:700;font-stretch:normal;font-size:16px;line-height:normal;font-family:&quot;Liberation Mono&quot;;-inkscape-font-specification:&quot;Liberation Mono Bold&quot;;text-decoration-color:#000;white-space:pre;shape-inside:url(#r);display:inline;fill:#000;stroke-width:1;-inkscape-stroke:none;stop-color:#000" transform="translate(15.396 -1979.01)scale(.26458)"><tspan x="425.865" y="7974.159">fab</tspan></text><path d="M135.949 2096.955v7.051" style="fill:#eef4d7;stroke:#000;stroke-width:.264583;stroke-linejoin:round;marker-end:url(#s)" transform="translate(-4.066 -1979.369)"/><path d="M6.364 2028.513H149.73v32.704H6.364z" style="fill:none;stroke:#4a0;stroke-width:.264583;stroke-linejoin:round" transform="translate(-4.066 -1979.369)"/><text xml:space="preserve" style="font-size:16px;line-height:normal;font-family:&quot;Liberation Mono&quot;;-inkscape-font-specification:&quot;Liberation Mono&quot;;text-decoration-color:#000;white-space:pre;shape-inside:url(#t);fill:#338000;stroke-width:1;-inkscape-stroke:none;stop-color:#000" transform="translate(67.011 -2060.332)scale(.26458)"><tspan x="192.422" y="7989.065">Parametrix</tspan></text><text xml:space="preserve" x="50.422" style="font-size:16px;line-height:normal;font-family:&quot;Liberation Mono&quot;;-inkscape-font-specification:&quot;Liberation Mono&quot;;text-align:center;text-decoration-color:#000;white-space:pre;shape-inside:url(#u);fill:#000;stroke-width:1;-inkscape-stroke:none;stop-color:#000" transform="translate(-5.124 -1976.194)scale(.26458)"><tspan x="259.396" y="7571.483">Sizing
</tspan><tspan x="254.591" y="7591.483">guide UI</tspan></text><path d="M76.335 2015.576v24.025" style="fill:#eef4d7;stroke:#000;stroke-width:.264583;stroke-linejoin:round;marker-end:url(#v)" transform="translate(-4.066 -1979.369)"/></svg>