<svg xmlns="http://www.w3.org/2000/svg" width="557.27" height="301.344" viewBox="0 0 147.444 79.731"><defs><path id="f" d="M331.841 7937.826h127.566v28.838H331.841z"/><path id="e" d="M304.053 7883.067H454.57v35.738H304.053z"/><path id="d" d="M78.671 7881.271h129.161v20.865H78.671z"/><path id="c" d="M145.23 7912.669h120.56v27.024H145.23z"/><path id="b" d="M367.253 8168.685h151.402v26.649H367.253z"/><path id="a" d="M374.77 8048.136h166.159v59.762H374.77z"/><marker id="g" markerHeight="1" markerWidth="1" orient="auto-start-reverse" preserveAspectRatio="xMidYMid" refX="0" refY="0" style="overflow:visible" viewBox="0 0 1 1"><path d="M3-3 0 0l3 3" style="fill:none;stroke:context-stroke;stroke-width:1;stroke-linecap:butt" transform="rotate(180 .125 0)"/></marker><marker id="h" markerHeight="1" markerWidth="1" orient="auto-start-reverse" preserveAspectRatio="xMidYMid" refX="0" refY="0" style="overflow:visible" viewBox="0 0 1 1"><path d="M3-3 0 0l3 3" style="fill:none;stroke:context-stroke;stroke-width:1;stroke-linecap:butt" transform="rotate(180 .125 0)"/></marker></defs><g transform="translate(-3.19 -2093.289)"><path d="M3.323 2093.421h147.18v79.466H3.323z" style="opacity:1;fill:#fff;stroke:#fff;stroke-width:.264583;stroke-dasharray:none"/><path d="m96.204 2108.802 24.85 14.045 24.272-16.567-18.078 25.298 17.463 25.2-24.504-13.768-32.445 12.942 27.71-23.156z" style="fill:none;stroke:#000;stroke-width:.264583"/><path d="m20.555 2108.517 24.85 14.045 24.272-16.568-18.077 25.299 17.463 25.2-24.505-13.769-32.445 12.943 27.711-23.156z" style="fill:#fff;stroke:#000;stroke-width:.264583"/><circle cx="35.972" cy="2121.524" r="3.716" style="fill:none;stroke:#b3b3b3;stroke-width:.264583"/><circle cx="15.261" cy="2153.546" r="3.716" style="fill:none;stroke:#b3b3b3;stroke-width:.264583"/><path d="m69.063 2156.493-20.82-18.208M20.555 2108.517l20.351 17.59M12.113 2155.667l23.373-13.675" style="fill:none;stroke:#b3b3b3;stroke-width:.264583"/><circle cx="66.507" cy="2153.911" r="3.716" style="fill:none;stroke:#b3b3b3;stroke-width:.264583"/><path d="m69.16 2151.352-20.82-18.207M64.388 2156.939l-20.82-18.208" style="fill:none;stroke:#b3b3b3;stroke-width:.264583"/><text xml:space="preserve" style="font-style:normal;font-variant:normal;font-weight:700;font-stretch:normal;font-size:14.6667px;line-height:normal;font-family:&quot;Liberation Mono&quot;;-inkscape-font-specification:&quot;Liberation Mono Bold&quot;;text-align:center;text-decoration-color:#000;white-space:pre;shape-inside:url(#a);fill:#000;stroke-width:1;-inkscape-stroke:none;stop-color:#000" transform="translate(-78.737 35.691)scale(.26458)"><tspan x="387.438" y="8060.998">skeleton contour</tspan></text><text xml:space="preserve" style="font-style:normal;font-variant:normal;font-weight:700;font-stretch:normal;font-size:14.6667px;line-height:normal;font-family:&quot;Liberation Mono&quot;;-inkscape-font-specification:&quot;Liberation Mono Bold&quot;;text-align:center;text-decoration-color:#000;white-space:pre;shape-inside:url(#b);fill:#000;stroke-width:1;-inkscape-stroke:none;stop-color:#000" transform="translate(-.25 4.328)scale(.26458)"><tspan x="385.745" y="8181.547">final contour</tspan></text><circle cx="111.62" cy="2121.81" r="3.716" style="fill:none;stroke:#b3b3b3;stroke-width:.264583"/><circle cx="90.91" cy="2153.831" r="3.716" style="fill:none;stroke:#b3b3b3;stroke-width:.264583"/><path d="m144.711 2156.778-20.82-18.207M96.204 2108.802l20.351 17.591M87.762 2155.953l23.373-13.676" style="fill:none;stroke:#b3b3b3;stroke-width:.264583"/><circle cx="142.155" cy="2154.197" r="3.716" style="fill:none;stroke:#b3b3b3;stroke-width:.264583"/><path d="m144.808 2151.638-20.82-18.208M140.036 2157.224l-20.82-18.208" style="fill:none;stroke:#b3b3b3;stroke-width:.264583"/><text xml:space="preserve" style="font-size:14.6667px;line-height:normal;font-family:&quot;Liberation Mono&quot;;-inkscape-font-specification:&quot;Liberation Mono&quot;;text-align:center;text-decoration-color:#000;white-space:pre;shape-inside:url(#c);fill:#000;stroke-width:1;-inkscape-stroke:none;stop-color:#000" transform="translate(11.497 6.7)scale(.26458)"><tspan x="174.706" y="7925.72">pointed</tspan></text><text xml:space="preserve" style="font-size:14.6667px;line-height:normal;font-family:&quot;Liberation Mono&quot;;-inkscape-font-specification:&quot;Liberation Mono&quot;;text-align:center;text-decoration-color:#000;white-space:pre;shape-inside:url(#d);fill:#000;stroke-width:1;-inkscape-stroke:none;stop-color:#000" transform="translate(-14.555 16.94)scale(.26458)"><tspan x="112.447" y="7894.322">rounded</tspan></text><text xml:space="preserve" style="font-size:14.6667px;line-height:normal;font-family:&quot;Liberation Mono&quot;;-inkscape-font-specification:&quot;Liberation Mono&quot;;text-align:center;text-decoration-color:#000;white-space:pre;shape-inside:url(#e);fill:#000;stroke-width:1;-inkscape-stroke:none;stop-color:#000" transform="translate(-84.496 72.046)scale(.26458)"><tspan x="348.506" y="7896.117">widened</tspan></text><text xml:space="preserve" style="font-size:14.6667px;line-height:normal;font-family:&quot;Liberation Mono&quot;;-inkscape-font-specification:&quot;Liberation Mono&quot;;text-align:center;text-decoration-color:#000;white-space:pre;shape-inside:url(#f);fill:#000;stroke-width:1;-inkscape-stroke:none;stop-color:#000" transform="translate(-40.468 58.143)scale(.26458)"><tspan x="364.819" y="7950.876">wideAcc</tspan></text><path d="m127.248 2131.578 18.078-25.298-24.272 16.567-7.434-4.176s-1.502-.542-2.28-.51c-.632.026-1.257.262-1.813.564-.363.197-.709.46-.954.792-.3.407-.47.907-.58 1.4-.115.51-.183 1.054-.076 1.565.157.751 1.022 2.063 1.022 2.063l6.534 8.251-21.855 18.263s-1.15-.595-1.772-.758c-.521-.137-1.073-.243-1.608-.176a3.76 3.76 0 0 0-1.625.611 3.56 3.56 0 0 0-1.091 1.206 3.9 3.9 0 0 0-.475 1.677c-.016.355.083.713.197 1.05.155.456.375.895.652 1.289.246.347.551.654.88.923.27.22.549.459.882.554.819.234 1.74.24 2.554-.01.54-.167 1-.554 1.403-.95.422-.415.854-.885 1.017-1.453.166-.578-.092-1.801-.092-1.801l25.667-10.211 9.9 5.61 9.81 8.572s.994.559 1.546.641c.714.107 1.483.057 2.154-.206.458-.18.822-.553 1.173-.897.38-.374.774-.766.994-1.251.158-.349.236-.748.204-1.129-.055-.67-.368-1.303-.681-1.899-.165-.313-.62-.862-.62-.862l-9.01-7.947z" style="opacity:.8;fill:#ffd5d5;stroke:#f0f;stroke-width:.264583"/><path d="M65.834 2168.03h29.25" style="opacity:1;fill:none;stroke:#1a1a1a;stroke-width:.264583;stroke-dasharray:none;marker-end:url(#g)"/><path d="M65.784 2132.088h29.25" style="fill:none;stroke:#1a1a1a;stroke-width:.264583;stroke-dasharray:none;marker-end:url(#h)"/></g></svg>