<svg xmlns="http://www.w3.org/2000/svg" xml:space="preserve" width="594.625" height="609.314" viewBox="0 0 157.328 161.214"><defs><path id="C" d="M705.047 500.046h173.302v95.512H705.047z"/><path id="A" d="M684.413 658.889h179.832v56.305H684.413z"/><path id="z" d="M666.765 391.494h142.558v72.174H666.765z"/><path id="y" d="M681.375 320.182h166.099v57.762H681.375z"/><path id="x" d="M697.629 421.351H919.7v98.2H697.629z"/><path id="w" d="M705.469 401.13H854.87v70.109H705.469z"/><path id="v" d="M722.183 569.877h163.713v75.252H722.183z"/><path id="u" d="M730.128 505.218h161.015v53.174H730.128z"/><path id="r" d="M663.857 668.456h161.495v35.495H663.857z"/><path id="s" d="M194.213 807.172h149.155v75.358H194.213z"/><path id="q" d="M625.894 333.549h246.734v123.61H625.894z"/><path id="p" d="M666.681 223.689h147.198v42.851H666.681z"/><path id="m" d="M389.84 632.633h139.264v54.218H389.84z"/><path id="l" d="M88.225 558.867h135.746v59.297H88.225z"/><path id="k" d="M356.224 513.024h121.13v53.325h-121.13z"/><path id="j" d="M352.8 470.522h180.565v60.411H352.8z"/><path id="i" d="M360.251 278.739h134.835v51.705H360.251z"/><path id="h" d="M358.941 215.543h119.376v37.246H358.941z"/><path id="g" d="M343.248 285.773h112.58v47.978h-112.58z"/><path id="f" d="M202.893 334.901h161.294v52.788H202.893z"/><path id="e" d="M48.098 262.871h129.547v65.696H48.098z"/><path id="c" d="M207.04 298.449h142.772v71.135H207.04z"/><path id="b" d="M300.221 261.336h134.31v42.421h-134.31z"/><path id="d" d="M120.029 257.753h130.367v46.764H120.029z"/><path id="a" d="M172.289 251.599h165.658v37.877H172.289z"/><path id="n" d="M88.225 558.867h135.746v59.297H88.225z"/><marker id="t" markerHeight="1" markerWidth="1" orient="auto-start-reverse" preserveAspectRatio="xMidYMid" refX="0" refY="0" style="overflow:visible" viewBox="0 0 1 1"><path d="M3-3 0 0l3 3" style="fill:none;stroke:context-stroke;stroke-width:1;stroke-linecap:butt" transform="rotate(180 .125 0)"/></marker><marker id="o" markerHeight="1" markerWidth="1" orient="auto-start-reverse" preserveAspectRatio="xMidYMid" refX="0" refY="0" style="overflow:visible" viewBox="0 0 1 1"><path d="M3-3 0 0l3 3" style="fill:none;stroke:context-stroke;stroke-width:1;stroke-linecap:butt" transform="rotate(180 .125 0)"/></marker><marker id="B" markerHeight="1" markerWidth="1" orient="auto-start-reverse" preserveAspectRatio="xMidYMid" refX="0" refY="0" style="overflow:visible" viewBox="0 0 1 1"><path d="M3-3 0 0l3 3" style="fill:none;stroke:context-stroke;stroke-width:1;stroke-linecap:butt" transform="rotate(180 .125 0)"/></marker></defs><path d="M1.055 24.648h157.063v160.95H1.055z" style="fill:#fff;stroke:#fff;stroke-width:.264583;stroke-linejoin:bevel" transform="translate(-.923 -24.516)"/><path d="M93.022 66.822h63.72v115.721h-63.72z" style="fill:#d5f6ff;stroke:#d5f6ff;stroke-width:.529167;stroke-linejoin:bevel" transform="translate(-.923 -24.516)"/><path d="M2.833 66.822h82.754v115.96H2.833z" style="fill:#ffd5d5;stroke:#ffd5d5;stroke-width:.529167;stroke-linejoin:bevel" transform="translate(-.923 -24.516)"/><path d="M22.77 90.28h38.84v13.791H22.77zM4.034 69.661h35.817v12.934H4.034z" style="fill:#ffe6d5;stroke:#d45500;stroke-width:.529167;stroke-linejoin:bevel" transform="translate(-.923 -24.516)"/><path d="M75.217 98.077h34.759v52.159H75.217z" style="fill:#caf;stroke:#7f2aff;stroke-width:.529168;stroke-linejoin:bevel" transform="translate(-.923 -24.516)"/><path d="M78.282 138.704h28.732v8.123H78.282zM78.089 123.623h28.732v8.123H78.089zM78.035 106.397h28.732v8.123H78.035zM80.452 70.787h24.55v11.497h-24.55z" style="fill:#e5d5ff;stroke:#7f2aff;stroke-width:.529167;stroke-linejoin:bevel" transform="translate(-.923 -24.516)"/><path d="M16.678 26.919h51.837v29.448H16.678z" style="fill:#e3f4d7;stroke:green;stroke-width:.264583;stroke-linejoin:bevel" transform="translate(-.923 -24.516)"/><text xml:space="preserve" style="font-size:14.6667px;line-height:1.25;font-family:sans-serif;white-space:pre;shape-inside:url(#a);display:inline" transform="translate(-13.54 -63.09)scale(.26458)"><tspan x="172.289" y="264.944">Parametrix</tspan></text><path d="M43.689 36.528h23.42v7.694h-23.42z" style="fill:#c6e9af;stroke:green;stroke-width:.264583;stroke-linejoin:bevel" transform="translate(-.923 -24.516)"/><text xml:space="preserve" style="font-size:14.6667px;line-height:1.25;font-family:sans-serif;white-space:pre;shape-inside:url(#b);display:inline" transform="translate(-34.267 -55.337)scale(.26458)"><tspan x="300.221" y="274.681">geomui</tspan></text><path d="M37.696 45.473h23.42v7.694h-23.42z" style="fill:#c6e9af;stroke:green;stroke-width:.264583;stroke-linejoin:bevel" transform="translate(-.923 -24.516)"/><text xml:space="preserve" style="font-size:14.6667px;line-height:1.25;font-family:sans-serif;white-space:pre;shape-inside:url(#c);display:inline" transform="translate(-15.825 -56.809)scale(.26458)"><tspan x="207.041" y="311.794">geomcli</tspan></text><path d="M17.652 34.159h23.42v7.694h-23.42z" style="fill:#aade87;stroke:green;stroke-width:.264583;stroke-linejoin:bevel" transform="translate(-.923 -24.516)"/><text xml:space="preserve" style="font-size:14.6667px;line-height:1.25;font-family:sans-serif;white-space:pre;shape-inside:url(#d);display:inline" transform="translate(-13.99 -57.072)scale(.26458)"><tspan x="120.029" y="271.099">geometrix</tspan></text><text xml:space="preserve" x="54.871" style="font-size:14.6667px;line-height:1.25;font-family:sans-serif;text-align:center;white-space:pre;shape-inside:url(#e);display:inline" transform="translate(-9.215 -22.865)scale(.26458)"><tspan x="60.57" y="276.216">concept design
</tspan><tspan x="99.158" y="294.549">.svg</tspan></text><text xml:space="preserve" x="69.968" style="font-size:14.6667px;line-height:1.25;font-family:sans-serif;text-align:center;white-space:pre;shape-inside:url(#f);display:inline" transform="translate(-34.049 -20.767)scale(.26458)"><tspan x="217.1" y="348.247">architecture design
</tspan><tspan x="256.766" y="366.581">.js or .ts</tspan></text><text xml:space="preserve" style="font-size:14.6667px;line-height:1.25;font-family:sans-serif;white-space:pre;shape-inside:url(#g);display:inline" transform="translate(-8.22 40.559)scale(.26458)"><tspan x="343.248" y="299.118">desiABC</tspan></text><text xml:space="preserve" style="font-size:14.6667px;line-height:1.25;font-family:sans-serif;white-space:pre;shape-inside:url(#h);display:inline" transform="translate(-17.284 16.701)scale(.26458)"><tspan x="358.941" y="228.888">npm-packages</tspan></text><text xml:space="preserve" x="39.281" style="font-size:14.6667px;line-height:1.25;font-family:sans-serif;text-align:center;white-space:pre;shape-inside:url(#i);display:inline" transform="translate(-22.012 -26.898)scale(.26458)"><tspan x="419.822" y="292.083">UI
</tspan><tspan x="390.115" y="310.417">web-pages</tspan></text><text xml:space="preserve" style="font-size:14.6667px;line-height:1.25;font-family:sans-serif;white-space:pre;shape-inside:url(#j);display:inline" transform="translate(-13.203 -40.383)scale(.26458)"><tspan x="352.801" y="483.866">desiABC-cli</tspan></text><text xml:space="preserve" style="font-size:14.6667px;line-height:1.25;font-family:sans-serif;white-space:pre;shape-inside:url(#k);display:inline" transform="translate(-13.997 -34.552)scale(.26458)"><tspan x="356.225" y="526.368">desiABC-uis</tspan></text><text xml:space="preserve" style="font-size:14.6667px;line-height:1.25;font-family:sans-serif;white-space:pre;shape-inside:url(#l);display:inline" transform="translate(-8.411 -22.088)scale(.26458)"><tspan x="88.225" y="572.212">designer</tspan></text><text xml:space="preserve" style="font-size:14.6667px;line-height:1.25;font-family:sans-serif;white-space:pre;shape-inside:url(#m);display:inline" transform="translate(35.989 -18.054)scale(.26458)"><tspan x="389.84" y="645.978">maker</tspan></text><path d="m16.215 147.63 11.807.019-.07-2.695-2.154-.91-2.832-.774.418-2.022 1.703.078 1.222-3.15 1.963.472-2.486-3.84s.631-1.06.329-1.495c-1.056-1.516-3.89-2.003-5.864-1.548-1.817.42-3.233 2.027-3.866 3.561-.563 1.366.342 4.341.342 4.341l2.63 1.043.343 2.36-3.511 1.165zM151.915 173.735l-11.806.02.07-2.695 2.153-.91 2.832-.774-.418-2.023-1.703.079-1.222-3.151-1.963.473 2.487-3.84s-.632-1.06-.33-1.495c1.057-1.516 3.89-2.003 5.864-1.548 1.817.42 3.233 2.026 3.866 3.561.564 1.366-.341 4.341-.341 4.341l-2.632 1.042-.342 2.36 3.512 1.166z" style="fill:#dee3db;stroke:#bec8b7;stroke-width:.529167;stroke-linecap:butt;stroke-linejoin:miter;stroke-opacity:1" transform="translate(-.923 -24.516)"/><text xml:space="preserve" style="font-size:14.6667px;line-height:1.25;font-family:sans-serif;white-space:pre;shape-inside:url(#n);display:inline" transform="translate(15.278 3.745)scale(.26458)"><tspan x="88.225" y="572.212">other designer</tspan></text><path d="m58.442 173.463-11.806.019.07-2.695 2.153-.909 2.832-.775-.417-2.022-1.703.078-1.223-3.15-1.962.472 2.486-3.84s-.631-1.06-.33-1.494c1.057-1.516 3.89-2.004 5.864-1.548 1.818.419 3.233 2.026 3.866 3.56.564 1.366-.341 4.341-.341 4.341l-2.631 1.043-.343 2.36 3.512 1.165z" style="fill:#dee3db;stroke:#bec8b7;stroke-width:.529167;stroke-linecap:butt;stroke-linejoin:miter;stroke-opacity:1" transform="translate(-.923 -24.516)"/><path d="M29.363 41.853s-.927 14.512 3.599 19.187c3.508 3.624 12.047-.972 14.775 3.27 4.786 7.447-5.548 25.97-5.548 25.97" style="fill:none;stroke:#000;stroke-width:.529167;stroke-linecap:butt;stroke-linejoin:miter;stroke-opacity:1;marker-end:url(#o)" transform="translate(-.923 -24.516)"/><text xml:space="preserve" style="font-size:14.6667px;line-height:1.25;font-family:sans-serif;white-space:pre;shape-inside:url(#p);display:inline" transform="translate(-131.451 .306)scale(.26458)"><tspan x="666.682" y="237.034">import</tspan></text><text xml:space="preserve" x=".462" style="font-size:14.6667px;line-height:1.25;font-family:sans-serif;text-align:start;white-space:pre;shape-inside:url(#q);display:inline" transform="translate(-161.654 -2.216)scale(.26458)"><tspan x="625.895" y="346.894">free hand
</tspan><tspan x="625.895" y="365.227">drawing
</tspan><tspan x="625.895" y="383.56">(eg; inkscape)</tspan></text><path d="M14.733 134.817s-7.981-4.16-9.595-8.387c-2.766-7.245-3.8-19.245 1.939-23.626 5.012-3.827 14.865-20.21 14.865-20.21" style="fill:none;stroke:#d5fff6;stroke-width:.529167;stroke-linecap:butt;stroke-linejoin:miter;stroke-opacity:1;marker-end:url(#o)" transform="translate(-.923 -24.516)"/><path d="M80.452 76.535 61.61 97.176l16.426 13.283" style="fill:none;stroke:#000;stroke-width:.529167;stroke-linecap:butt;stroke-linejoin:miter;stroke-opacity:1;marker-start:url(#o);marker-end:url(#o)" transform="translate(-.923 -24.516)"/><path d="m61.61 97.176 16.48 30.508" style="fill:none;stroke:#000;stroke-width:.529167;stroke-linecap:butt;stroke-linejoin:miter;stroke-opacity:1;marker-end:url(#o)" transform="translate(-.923 -24.516)"/><path d="m61.61 97.176 16.672 45.59" style="fill:none;stroke:#000;stroke-width:.529167;stroke-linecap:butt;stroke-linejoin:miter;stroke-opacity:1;marker-end:url(#o)" transform="translate(-.923 -24.516)"/><path d="m92.648 146.828-31.98 20.737" style="fill:none;stroke:#d5fff6;stroke-width:.529167;stroke-linecap:butt;stroke-linejoin:miter;stroke-opacity:1;marker-end:url(#o)" transform="translate(-.923 -24.516)"/><text xml:space="preserve" style="font-size:14.6667px;line-height:1.25;font-family:sans-serif;white-space:pre;shape-inside:url(#r);display:inline" transform="translate(-107.124 -40.105)scale(.26458)"><tspan x="663.857" y="681.8">re-use</tspan></text><path d="M27.788 134.104s10.144-3.007 12.759-7.115c4.112-6.46 1.642-22.917 1.642-22.917" style="fill:none;stroke:#d5fff6;stroke-width:.529167;stroke-linecap:butt;stroke-linejoin:miter;stroke-opacity:1;marker-end:url(#o)" transform="translate(-.923 -24.516)"/><text xml:space="preserve" x="35.757" style="font-size:14.6667px;line-height:1.25;font-family:sans-serif;text-align:center;white-space:pre;shape-inside:url(#s);display:inline" transform="translate(-29.135 -131.065)scale(.26458)"><tspan x="235.834" y="820.517">javascript
</tspan><tspan x="245.389" y="838.85">coding</tspan></text><path d="M32.75 139.206s15.697-7.261 21.516-13.384c8.296-8.729 11.025-21.452 17.498-31.607 2.645-4.148 8.688-11.931 8.688-11.931" style="fill:none;stroke:#d5fff6;stroke-width:.529167;stroke-linecap:butt;stroke-linejoin:miter;stroke-opacity:1;marker-end:url(#o)" transform="translate(-.923 -24.516)"/><path d="m32.75 139.206 45.285-24.686" style="fill:none;stroke:#d5fff6;stroke-width:.529167;stroke-linecap:butt;stroke-linejoin:miter;stroke-opacity:1;marker-end:url(#t)" transform="translate(-.923 -24.516)"/><path d="m32.75 139.206 22.642-12.343 22.697 4.883" style="fill:none;stroke:#d5fff6;stroke-width:.529167;stroke-linecap:butt;stroke-linejoin:miter;stroke-opacity:1;marker-end:url(#t)" transform="translate(-.923 -24.516)"/><path d="m55.392 126.863 22.89 19.965" style="fill:none;stroke:#d5fff6;stroke-width:.529167;stroke-linecap:butt;stroke-linejoin:miter;stroke-opacity:1;marker-end:url(#t)" transform="translate(-.923 -24.516)"/><text xml:space="preserve" style="font-size:14.6667px;line-height:1.25;font-family:sans-serif;white-space:pre;shape-inside:url(#u);display:inline" transform="translate(-152.24 -22.263)scale(.26458)"><tspan x="730.127" y="518.562">publish</tspan></text><path d="m29.541 82.356 1.983 6.7" style="fill:none;stroke:#000;stroke-width:.529167;stroke-linecap:butt;stroke-linejoin:miter;stroke-opacity:1;marker-end:url(#t)" transform="translate(-.923 -24.516)"/><path d="m67.109 44.222 13.343 26.565" style="fill:none;stroke:#6f917c;stroke-width:.529167;stroke-linecap:butt;stroke-linejoin:miter;stroke-opacity:1;marker-end:url(#t)" transform="translate(-.923 -24.516)"/><path d="m61.116 53.167 16.92 53.23" style="fill:none;stroke:#6f917c;stroke-width:.529167;stroke-linecap:butt;stroke-linejoin:miter;stroke-opacity:1;marker-end:url(#t)" transform="translate(-.923 -24.516)"/><path d="M125.702 132.436h30.388v9.361h-30.388z" style="fill:#fea;stroke:#6f917c;stroke-width:.264584;stroke-linejoin:bevel" transform="translate(-.923 -24.516)"/><text xml:space="preserve" style="font-size:14.6667px;line-height:1.25;font-family:sans-serif;white-space:pre;shape-inside:url(#v);display:inline" transform="translate(-60.944 -40.64)scale(.26458)"><tspan x="722.184" y="583.222">3D-scripts</tspan></text><path d="M125.115 111.322h30.388v9.361h-30.388z" style="fill:#fea;stroke:#6f917c;stroke-width:.264584;stroke-linejoin:bevel" transform="translate(-.923 -24.516)"/><text xml:space="preserve" style="font-size:14.6667px;line-height:1.25;font-family:sans-serif;white-space:pre;shape-inside:url(#w);display:inline" transform="translate(-60.639 -17.636)scale(.26458)"><tspan x="705.469" y="414.476">.stl, .brep, .stp</tspan></text><path d="M125.42 89.26h30.388v10.485H125.42z" style="fill:#fea;stroke:#6f917c;stroke-width:.264584;stroke-linejoin:bevel" transform="translate(-.923 -24.516)"/><text xml:space="preserve" x="41.411" style="font-size:14.6667px;line-height:1.25;font-family:sans-serif;text-align:center;white-space:pre;shape-inside:url(#x);display:inline" transform="translate(-74.674 -46.238)scale(.26458)"><tspan x="790.683" y="434.696">slicer
</tspan><tspan x="770.391" y="453.03">(orca, cura)</tspan></text><path d="M124.757 68.328h30.388v10.485h-30.388z" style="fill:#fea;stroke:#6f917c;stroke-width:.264584;stroke-linejoin:bevel" transform="translate(-.923 -24.516)"/><text xml:space="preserve" style="font-size:14.6667px;line-height:1.25;font-family:sans-serif;white-space:pre;shape-inside:url(#y);display:inline" transform="translate(-51.985 -38.02)scale(.26458)"><tspan x="681.375" y="333.527">3D-printing</tspan></text><text xml:space="preserve" style="font-size:14.6667px;line-height:1.25;font-family:sans-serif;white-space:pre;shape-inside:url(#z);display:inline" transform="translate(-34.914 -46.858)scale(.26458)"><tspan x="666.766" y="404.839">G-code</tspan></text><path d="m106.82 127.684 18.882 14.113" style="fill:none;stroke:#000;stroke-width:.529167;stroke-linecap:butt;stroke-linejoin:miter;stroke-opacity:1;marker-end:url(#t)" transform="translate(-.923 -24.516)"/><path d="m106.767 110.459 18.935 26.658" style="fill:none;stroke:#000;stroke-width:.529167;stroke-linecap:butt;stroke-linejoin:miter;stroke-opacity:1;marker-end:url(#t)" transform="translate(-.923 -24.516)"/><path d="m105.002 76.535 20.7 55.901" style="fill:none;stroke:#000;stroke-width:.529167;stroke-linecap:butt;stroke-linejoin:miter;stroke-opacity:1;marker-end:url(#t)" transform="translate(-.923 -24.516)"/><path d="m136.662 132.436-.586-11.753" style="fill:none;stroke:#000;stroke-width:.529167;stroke-linecap:butt;stroke-linejoin:miter;stroke-opacity:1;marker-end:url(#t)" transform="translate(-.923 -24.516)"/><path d="m140.31 111.322.304-11.577" style="fill:none;stroke:#000;stroke-width:.529167;stroke-linecap:butt;stroke-linejoin:miter;stroke-opacity:1;marker-end:url(#t)" transform="translate(-.923 -24.516)"/><path d="m140.614 89.26-.663-10.447" style="fill:none;stroke:#000;stroke-width:.529167;stroke-linecap:butt;stroke-linejoin:miter;stroke-opacity:1;marker-end:url(#t)" transform="translate(-.923 -24.516)"/><path d="M138.293 158.53s-15.665.865-20.07-4.378c-2.065-2.459-.401-6.415-.399-9.626.016-19.09 4.269-38.213 2.467-57.218-.403-4.255-.057-9.333-2.95-12.48-2.928-3.187-12.339-4.041-12.339-4.041" style="fill:none;stroke:#a80;stroke-width:.529167;stroke-linecap:butt;stroke-linejoin:miter;stroke-opacity:1;marker-end:url(#t)" transform="translate(-.923 -24.516)"/><text xml:space="preserve" x="43.581" style="font-size:14.6667px;line-height:1.25;font-family:sans-serif;text-align:center;white-space:pre;shape-inside:url(#A);display:inline" transform="translate(-78.299 -40.484)scale(.26458)"><tspan x="732.565" y="672.234">parametrize
</tspan><tspan x="750.143" y="690.567">(sizing)</tspan></text><path d="m119.372 120.177-12.605-13.78" style="fill:none;stroke:#a80;stroke-width:.529167;stroke-linecap:butt;stroke-linejoin:miter;stroke-opacity:1;marker-end:url(#t)" transform="translate(-.923 -24.516)"/><path d="m118.44 132.911-11.62-9.288" style="fill:none;stroke:#a80;stroke-width:.529167;stroke-linecap:butt;stroke-linejoin:miter;stroke-opacity:1;marker-end:url(#B)" transform="translate(-.923 -24.516)"/><text xml:space="preserve" style="font-size:14.6667px;line-height:1.25;font-family:sans-serif;white-space:pre;shape-inside:url(#C);display:inline" transform="translate(-49.489 -34.913)scale(.26458)"><tspan x="705.047" y="513.392">freecad
</tspan><tspan x="705.047" y="531.725">openscad</tspan></text></svg>