<svg xmlns="http://www.w3.org/2000/svg" width="457.153" height="563.053" viewBox="0 0 120.955 148.974"><defs><path id="h" d="M52.9 1574.07h111.453v43.81H52.9z"/><path id="g" d="M135.373 1618.673h297.969v36.828H135.373z"/><path id="f" d="M69.272 2131.556h420.84v68.734H69.272z"/><path id="e" d="M69.131 2088.222h349.95v42.943H69.131z"/><path id="c" d="M189.175 2086.499h115.211v35.234H189.175z"/><path id="b" d="M147.208 2074.368H286.66v58.133H147.208z"/><path id="a" d="M141.226 2073.115h206.782v57.814H141.226z"/><marker id="d" markerHeight="1" markerWidth="1" orient="auto-start-reverse" preserveAspectRatio="xMidYMid" refX="0" refY="0" style="overflow:visible" viewBox="0 0 1 1"><path d="M-.211-4.106 6.21-.894a1 1 90 0 1 0 1.788L-.21 4.106A1.236 1.236 31.717 0 1-2 3v-6A1.236 1.236 148.283 0 1-.211-4.106" style="fill:context-stroke;fill-rule:evenodd;stroke:none" transform="scale(.7)"/></marker></defs><path d="M7.805 422.883h120.426v148.445H7.805z" style="fill:#fff;fill-opacity:1;stroke:#fff;stroke-width:.529167;stroke-dasharray:2,.999999;stroke-dashoffset:0;stroke-opacity:1" transform="translate(-7.54 -422.618)"/><g style="fill:#f9f9f9" transform="translate(58.087 75.892)"><path d="m49.657-1.788 1.7.465 1.697.66V.663l-1.697.66-1.7.466-.079 1.54 1.643.637 1.62.831-.136 1.318-1.756.482-1.739.288-.237 1.523 1.569.803 1.526.994-.271 1.297L50 11.8l-1.758.108-.393 1.49 1.478.96 1.416 1.145-.403 1.263-1.818.113-1.76-.074-.544 1.442 1.37 1.107 1.292 1.285-.53 1.214-1.82-.075-1.744-.254-.69 1.379 1.25 1.242 1.152 1.41-.652 1.153-1.802-.261-1.709-.432-.827 1.3 1.116 1.364 1 1.522-.767 1.08-1.766-.446-1.655-.605-.957 1.208.97 1.472.839 1.616-.875.995-1.71-.624-1.584-.773-1.076 1.104.813 1.564.668 1.694-.972.9-1.637-.797-1.496-.932-1.184.988.648 1.638.49 1.754-1.059.795-1.547-.96-1.392-1.081-1.279.86.476 1.697.308 1.795-1.136.682-1.44-1.115-1.274-1.218-1.36.725.299 1.736.121 1.818-1.2.561-1.317-1.257-1.142-1.342-1.428.58.12 1.758-.067 1.82-1.251.436-1.181-1.386-.998-1.453-1.48.431-.063 1.761-.252 1.804-1.29.304-1.032-1.5-.844-1.548-1.516.277-.243 1.745-.437 1.768-1.314.17-.873-1.598-.68-1.626-1.536.119-.421 1.71-.617 1.715-1.324.034L0 51.374l-.509-1.687-1.54-.04-.596 1.659-.79 1.641-1.32-.102-.527-1.743-.333-1.73-1.529-.199-.762 1.589-.954 1.551-1.303-.237-.346-1.788-.153-1.756-1.5-.354-.921 1.502-1.109 1.445-1.272-.37-.16-1.814.029-1.762-1.456-.507-1.071 1.4-1.251 1.323-1.228-.5.028-1.82.21-1.75-1.397-.653-1.209 1.281-1.38 1.188-1.17-.622.215-1.81.388-1.718-1.321-.793-1.335 1.15-1.496 1.04-1.099-.74.4-1.777.563-1.67-1.233-.925-1.446 1.007-1.595.88-1.017-.848.58-1.726.732-1.604-1.131-1.047-1.542.853-1.677.712-.924-.949.754-1.657.893-1.52-1.018-1.157-1.621.69-1.74.535-.823-1.039.921-1.57 1.044-1.42-.893-1.257-1.684.52-1.786.354-.711-1.118 1.077-1.468 1.185-1.305-.76-1.341-1.728.343-1.813.169-.592-1.185 1.223-1.35 1.312-1.176-.618-1.412-1.754.164-1.821-.02-.467-1.239 1.355-1.217 1.426-1.034-.469-1.469-1.762-.017-1.81-.206-.337-1.281L-50 11.8l1.525-.883-.316-1.509-1.75-.198-1.78-.391-.203-1.309 1.575-.914 1.608-.72-.158-1.534-1.722-.377-1.729-.572-.068-1.323 1.661-.747 1.673-.552V-.771l-1.673-.552-1.66-.747.067-1.323 1.73-.572 1.72-.377.16-1.533-1.609-.721-1.575-.914.204-1.309 1.778-.391 1.751-.198.316-1.51L-50-11.8l-1.474-1.07.338-1.282 1.81-.206 1.761-.017.47-1.469-1.427-1.035-1.355-1.216.467-1.24 1.821-.019 1.754.164.618-1.412-1.312-1.176-1.223-1.35.592-1.185 1.813.168 1.729.344.759-1.341-1.185-1.305-1.077-1.468.71-1.118 1.787.354 1.684.52.893-1.257-1.044-1.42-.92-1.57.821-1.04 1.741.536 1.621.69 1.018-1.158-.893-1.519-.754-1.658.924-.948 1.677.711 1.542.853 1.13-1.047-.73-1.603-.58-1.726 1.016-.849 1.595.88 1.446 1.008 1.233-.925-.563-1.67-.4-1.777 1.1-.74 1.495 1.04 1.335 1.15 1.321-.793-.388-1.719-.215-1.809 1.17-.622 1.38 1.188 1.21 1.281 1.395-.653-.209-1.75-.028-1.82 1.228-.5 1.25 1.324 1.072 1.399 1.456-.507-.029-1.762.16-1.814 1.272-.37 1.109 1.445.921 1.502 1.5-.354.153-1.756.346-1.788 1.303-.237.954 1.551.762 1.589 1.529-.198.333-1.73.527-1.744 1.32-.102.79 1.641.595 1.659 1.541-.04L0-51.374l.704-1.68 1.324.034.617 1.714.421 1.711 1.537.12.68-1.627.872-1.598 1.314.17.437 1.768.243 1.745 1.517.277.843-1.548 1.032-1.5 1.29.304.252 1.804.063 1.761 1.48.43.998-1.452 1.18-1.386 1.252.436.066 1.82-.119 1.758 1.428.58 1.142-1.342 1.318-1.257 1.2.561-.122 1.818-.3 1.736 1.361.725 1.274-1.218 1.44-1.115 1.136.682-.308 1.795-.476 1.696 1.279.861 1.392-1.08 1.547-.961 1.06.795-.49 1.754-.649 1.638 1.184.988 1.496-.932 1.637-.797.972.9-.668 1.695-.813 1.563 1.076 1.104 1.584-.773 1.71-.624.875.995-.839 1.616-.97 1.472.957 1.208 1.655-.605 1.766-.446.767 1.08-1 1.522-1.116 1.364.827 1.3 1.709-.432 1.802-.261.653 1.153-1.152 1.41-1.25 1.242.689 1.38 1.743-.255 1.82-.075.53 1.214-1.29 1.285-1.371 1.107.544 1.442 1.76-.073 1.818.112.403 1.263-1.416 1.145-1.478.96.393 1.49L50-11.8l1.797.3.27 1.296-1.525.994-1.569.803.237 1.523 1.739.288 1.756.482.136 1.318-1.62.831-1.643.638z" style="fill:#f9f9f9;stroke:#000;stroke-width:.264583"/><circle r="2.646" style="fill:#f9f9f9;stroke:#000;stroke-width:.264583"/></g><path d="m51.898 475.122.56.975-.983.55" style="fill:none;stroke:#f55;stroke-width:.529167;stroke-linecap:butt;stroke-linejoin:miter;stroke-opacity:1" transform="translate(-7.54 -422.618)"/><g style="fill:#ccc" transform="translate(60.859 40.99)"><path d="m14.25-1.395.715-.07.982.144 1.73.741V.58l-1.73.741-.982.144-.716-.07-.319 1.912.7.167.882.454 1.395 1.263-.376 1.097-1.877.14-.975-.183-.655-.299-.923 1.705.608.385.687.716.91 1.648-.713.915-1.82-.477-.863-.49-.522-.495-1.427 1.313.45.561.417.9.326 1.854-.971.634-1.567-1.042-.657-.743-.333-.638-1.776.779.244.677.102.987-.295 1.858-1.124.285-1.143-1.494-.38-.917-.108-.711-1.933.16.011.719-.224.967-.882 1.662-1.156-.096-.596-1.785-.062-.99.13-.708-1.88-.476-.224.684-.526.842-1.374 1.286-1.062-.466.016-1.882.263-.957.352-.627-1.624-1.06-.433.573-.77.626-1.718.77-.853-.786.626-1.774.56-.82.536-.48-1.19-1.53-.597.403-.932.341-1.874.171-.552-1.02 1.168-1.475.795-.594.663-.279-.63-1.834-.694.187-.992.02-1.828-.447-.19-1.143 1.583-1.017.945-.303.718-.048V-.97l-.718-.048-.945-.303-1.584-1.017.19-1.143 1.829-.447.992.02.695.187.63-1.834-.664-.28-.795-.593-1.168-1.475.552-1.02 1.874.17.932.342.596.402 1.191-1.53-.536-.48-.56-.819-.626-1.774.853-.786 1.718.77.77.626.433.574L-7-12.488l-.352-.628-.263-.957-.016-1.882 1.062-.466 1.374 1.286.526.842.224.684 1.88-.476-.13-.708.062-.99.596-1.785 1.156-.096L0-16.002l.224.967-.01.72 1.932.16.108-.712.38-.916 1.143-1.495 1.124.285.295 1.858-.102.987-.244.677 1.776.78.333-.639.657-.743 1.567-1.042.97.634-.325 1.853-.416.9-.45.562 1.426 1.313.522-.495.863-.49 1.82-.477.712.915-.909 1.648-.687.716-.608.385.923 1.705.655-.299.975-.183 1.877.14.376 1.097-1.395 1.263-.882.454-.7.167z" style="fill:#ccc;stroke:#000;stroke-width:.264583"/><circle r="2.646" style="fill:#ccc;stroke:#000;stroke-width:.264583"/></g><g style="fill:#e6e6e6" transform="translate(58.09 75.892)"><path d="m17.625-1.47.514-.043 1.186.191 1.721.723V.6l-1.72.723-1.187.19-.514-.042-.257 1.87.507.097 1.09.504 1.462 1.16-.323 1.154-1.852.232-1.193-.136-.484-.18-.752 1.73.462.231.914.78 1.094 1.512-.622 1.023-1.846-.276-1.112-.454-.418-.304-1.19 1.465.382.346.67.997.646 1.752-.875.817-1.704-.764-.949-.737-.32-.405-1.541 1.089.274.437.377 1.14.15 1.861-1.064.551-1.434-1.195-.715-.965-.198-.477-1.78.632.148.495.054 1.2-.358 1.832-1.172.244-1.058-1.538-.428-1.122-.063-.513-1.883.13.007.515L0 19.37l-.839 1.668-1.195-.082-.604-1.766-.109-1.196.078-.51-1.848-.385-.132.5-.577 1.053-1.258 1.38-1.128-.401-.105-1.864.217-1.182.213-.47-1.676-.868-.262.445-.84.858-1.583.99-.978-.691.402-1.823.528-1.079.331-.396-1.38-1.288-.371.358-1.04.6-1.792.525-.756-.928.879-1.647.8-.897.426-.291-.981-1.613-.455.244-1.164.298-1.866.022-.477-1.098 1.29-1.35 1.012-.647.489-.165-.51-1.818-.503.113-1.201-.028-1.804-.482-.163-1.186 1.607-.951 1.149-.35.515-.028V-.944l-.515-.027-1.15-.35-1.606-.952.163-1.186 1.804-.482 1.2-.028.504.113.51-1.818-.49-.165-1.011-.648-1.29-1.349.477-1.098 1.866.022 1.164.298.455.244.98-1.613-.425-.291-.8-.897-.879-1.647.756-.929 1.791.526 1.04.6.373.358 1.38-1.288-.332-.396-.528-1.079-.402-1.823.978-.69 1.583.988.84.86.262.444 1.676-.868-.213-.47-.217-1.182.105-1.864 1.128-.4 1.258 1.379.577 1.053.132.5 1.848-.385-.078-.51.11-1.196.603-1.766 1.195-.082L0-19.371l.271 1.17-.007.517 1.883.129.063-.513.428-1.122 1.058-1.538 1.172.244.358 1.832-.054 1.2-.147.495 1.779.632.198-.477.715-.965 1.434-1.195 1.063.55-.15 1.861-.376 1.141-.274.437 1.542 1.089.32-.405.949-.737 1.703-.764.875.817-.646 1.752-.67.997-.383.346 1.191 1.465.418-.304 1.112-.454 1.846-.276.623 1.023-1.095 1.512-.914.78-.462.23.752 1.732.484-.18 1.193-.137 1.852.232.323 1.153-1.462 1.161-1.09.504-.507.097z" style="fill:#e6e6e6;stroke:#000;stroke-width:.264583"/><circle r="2.646" style="fill:#e6e6e6;stroke:#000;stroke-width:.264583"/></g><g style="fill:#ccc" transform="translate(92.194 65.416)"><path d="m14.25-1.395.715-.07.982.144 1.73.741V.58l-1.73.741-.982.144-.716-.07-.319 1.912.7.167.882.454 1.395 1.263-.376 1.097-1.877.14-.975-.183-.655-.299-.923 1.705.608.385.687.716.91 1.648-.713.915-1.82-.477-.863-.49-.522-.495-1.427 1.313.45.561.417.9.326 1.854-.971.634-1.567-1.042-.657-.743-.333-.638-1.776.779.244.677.102.987-.295 1.858-1.124.285-1.143-1.494-.38-.917-.108-.711-1.933.16.011.719-.224.967-.882 1.662-1.156-.096-.596-1.785-.062-.99.13-.708-1.88-.476-.224.684-.526.842-1.374 1.286-1.062-.466.016-1.882.263-.957.352-.627-1.624-1.06-.433.573-.77.626-1.718.77-.853-.786.626-1.774.56-.82.536-.48-1.19-1.53-.597.403-.932.341-1.874.171-.552-1.02 1.168-1.475.795-.594.663-.279-.63-1.834-.694.187-.992.02-1.828-.447-.19-1.143 1.583-1.017.945-.303.718-.048V-.97l-.718-.048-.945-.303-1.584-1.017.19-1.143 1.829-.447.992.02.695.187.63-1.834-.664-.28-.795-.593-1.168-1.475.552-1.02 1.874.17.932.342.596.402 1.191-1.53-.536-.48-.56-.819-.626-1.774.853-.786 1.718.77.77.626.433.574L-7-12.488l-.352-.628-.263-.957-.016-1.882 1.062-.466 1.374 1.286.526.842.224.684 1.88-.476-.13-.708.062-.99.596-1.785 1.156-.096L0-16.002l.224.967-.01.72 1.932.16.108-.712.38-.916 1.143-1.495 1.124.285.295 1.858-.102.987-.244.677 1.776.78.333-.639.657-.743 1.567-1.042.97.634-.325 1.853-.416.9-.45.562 1.426 1.313.522-.495.863-.49 1.82-.477.712.915-.909 1.648-.687.716-.608.385.923 1.705.655-.299.975-.183 1.877.14.376 1.097-1.395 1.263-.882.454-.7.167z" style="fill:#ccc;stroke:#000;stroke-width:.264583"/><circle r="2.646" style="fill:#ccc;stroke:#000;stroke-width:.264583"/></g><g style="fill:#ccc" transform="translate(83.934 100.143)"><path d="m14.25-1.395.715-.07.982.144 1.73.741V.58l-1.73.741-.982.144-.716-.07-.319 1.912.7.167.882.454 1.395 1.263-.376 1.097-1.877.14-.975-.183-.655-.299-.923 1.705.608.385.687.716.91 1.648-.713.915-1.82-.477-.863-.49-.522-.495-1.427 1.313.45.561.417.9.326 1.854-.971.634-1.567-1.042-.657-.743-.333-.638-1.776.779.244.677.102.987-.295 1.858-1.124.285-1.143-1.494-.38-.917-.108-.711-1.933.16.011.719-.224.967-.882 1.662-1.156-.096-.596-1.785-.062-.99.13-.708-1.88-.476-.224.684-.526.842-1.374 1.286-1.062-.466.016-1.882.263-.957.352-.627-1.624-1.06-.433.573-.77.626-1.718.77-.853-.786.626-1.774.56-.82.536-.48-1.19-1.53-.597.403-.932.341-1.874.171-.552-1.02 1.168-1.475.795-.594.663-.279-.63-1.834-.694.187-.992.02-1.828-.447-.19-1.143 1.583-1.017.945-.303.718-.048V-.97l-.718-.048-.945-.303-1.584-1.017.19-1.143 1.829-.447.992.02.695.187.63-1.834-.664-.28-.795-.593-1.168-1.475.552-1.02 1.874.17.932.342.596.402 1.191-1.53-.536-.48-.56-.819-.626-1.774.853-.786 1.718.77.77.626.433.574L-7-12.488l-.352-.628-.263-.957-.016-1.882 1.062-.466 1.374 1.286.526.842.224.684 1.88-.476-.13-.708.062-.99.596-1.785 1.156-.096L0-16.002l.224.967-.01.72 1.932.16.108-.712.38-.916 1.143-1.495 1.124.285.295 1.858-.102.987-.244.677 1.776.78.333-.639.657-.743 1.567-1.042.97.634-.325 1.853-.416.9-.45.562 1.426 1.313.522-.495.863-.49 1.82-.477.712.915-.909 1.648-.687.716-.608.385.923 1.705.655-.299.975-.183 1.877.14.376 1.097-1.395 1.263-.882.454-.7.167z" style="fill:#ccc;stroke:#000;stroke-width:.264583"/><circle r="2.646" style="fill:#ccc;stroke:#000;stroke-width:.264583"/></g><g style="fill:#ccc" transform="translate(45.275 109.385)"><path d="m14.25-1.395.715-.07.982.144 1.73.741V.58l-1.73.741-.982.144-.716-.07-.319 1.912.7.167.882.454 1.395 1.263-.376 1.097-1.877.14-.975-.183-.655-.299-.923 1.705.608.385.687.716.91 1.648-.713.915-1.82-.477-.863-.49-.522-.495-1.427 1.313.45.561.417.9.326 1.854-.971.634-1.567-1.042-.657-.743-.333-.638-1.776.779.244.677.102.987-.295 1.858-1.124.285-1.143-1.494-.38-.917-.108-.711-1.933.16.011.719-.224.967-.882 1.662-1.156-.096-.596-1.785-.062-.99.13-.708-1.88-.476-.224.684-.526.842-1.374 1.286-1.062-.466.016-1.882.263-.957.352-.627-1.624-1.06-.433.573-.77.626-1.718.77-.853-.786.626-1.774.56-.82.536-.48-1.19-1.53-.597.403-.932.341-1.874.171-.552-1.02 1.168-1.475.795-.594.663-.279-.63-1.834-.694.187-.992.02-1.828-.447-.19-1.143 1.583-1.017.945-.303.718-.048V-.97l-.718-.048-.945-.303-1.584-1.017.19-1.143 1.829-.447.992.02.695.187.63-1.834-.664-.28-.795-.593-1.168-1.475.552-1.02 1.874.17.932.342.596.402 1.191-1.53-.536-.48-.56-.819-.626-1.774.853-.786 1.718.77.77.626.433.574L-7-12.488l-.352-.628-.263-.957-.016-1.882 1.062-.466 1.374 1.286.526.842.224.684 1.88-.476-.13-.708.062-.99.596-1.785 1.156-.096L0-16.002l.224.967-.01.72 1.932.16.108-.712.38-.916 1.143-1.495 1.124.285.295 1.858-.102.987-.244.677 1.776.78.333-.639.657-.743 1.567-1.042.97.634-.325 1.853-.416.9-.45.562 1.426 1.313.522-.495.863-.49 1.82-.477.712.915-.909 1.648-.687.716-.608.385.923 1.705.655-.299.975-.183 1.877.14.376 1.097-1.395 1.263-.882.454-.7.167z" style="fill:#ccc;stroke:#000;stroke-width:.264583"/><circle r="2.646" style="fill:#ccc;stroke:#000;stroke-width:.264583"/></g><g style="fill:#ccc" transform="translate(22.969 70.742)"><path d="m14.25-1.395.715-.07.982.144 1.73.741V.58l-1.73.741-.982.144-.716-.07-.319 1.912.7.167.882.454 1.395 1.263-.376 1.097-1.877.14-.975-.183-.655-.299-.923 1.705.608.385.687.716.91 1.648-.713.915-1.82-.477-.863-.49-.522-.495-1.427 1.313.45.561.417.9.326 1.854-.971.634-1.567-1.042-.657-.743-.333-.638-1.776.779.244.677.102.987-.295 1.858-1.124.285-1.143-1.494-.38-.917-.108-.711-1.933.16.011.719-.224.967-.882 1.662-1.156-.096-.596-1.785-.062-.99.13-.708-1.88-.476-.224.684-.526.842-1.374 1.286-1.062-.466.016-1.882.263-.957.352-.627-1.624-1.06-.433.573-.77.626-1.718.77-.853-.786.626-1.774.56-.82.536-.48-1.19-1.53-.597.403-.932.341-1.874.171-.552-1.02 1.168-1.475.795-.594.663-.279-.63-1.834-.694.187-.992.02-1.828-.447-.19-1.143 1.583-1.017.945-.303.718-.048V-.97l-.718-.048-.945-.303-1.584-1.017.19-1.143 1.829-.447.992.02.695.187.63-1.834-.664-.28-.795-.593-1.168-1.475.552-1.02 1.874.17.932.342.596.402 1.191-1.53-.536-.48-.56-.819-.626-1.774.853-.786 1.718.77.77.626.433.574L-7-12.488l-.352-.628-.263-.957-.016-1.882 1.062-.466 1.374 1.286.526.842.224.684 1.88-.476-.13-.708.062-.99.596-1.785 1.156-.096L0-16.002l.224.967-.01.72 1.932.16.108-.712.38-.916 1.143-1.495 1.124.285.295 1.858-.102.987-.244.677 1.776.78.333-.639.657-.743 1.567-1.042.97.634-.325 1.853-.416.9-.45.562 1.426 1.313.522-.495.863-.49 1.82-.477.712.915-.909 1.648-.687.716-.608.385.923 1.705.655-.299.975-.183 1.877.14.376 1.097-1.395 1.263-.882.454-.7.167z" style="fill:#ccc;stroke:#000;stroke-width:.264583"/><circle r="2.646" style="fill:#ccc;stroke:#000;stroke-width:.264583"/></g><text xml:space="preserve" style="font-size:21.3333px;line-height:1.25;font-family:sans-serif;white-space:pre;shape-inside:url(#a)" transform="translate(60.811 -522.574)scale(.26458)"><tspan x="141.227" y="2091.99">ring</tspan></text><text xml:space="preserve" style="font-size:21.3333px;line-height:1.25;font-family:sans-serif;white-space:pre;shape-inside:url(#b)" transform="translate(38.415 -532.044)scale(.26458)"><tspan x="147.209" y="2093.244">planet</tspan></text><text xml:space="preserve" style="font-style:normal;font-variant:normal;font-weight:400;font-stretch:normal;font-size:21.3333px;line-height:1.25;font-family:sans-serif;-inkscape-font-specification:sans-serif;white-space:pre;shape-inside:url(#c)" transform="translate(-40.712 -526.585)scale(.26458)"><tspan x="189.176" y="2105.375">sun</tspan></text><path d="m25.195 454.482 27.875 35.042" style="fill:none;stroke:#000;stroke-width:.264583px;stroke-linecap:butt;stroke-linejoin:miter;stroke-opacity:1;marker-end:url(#d)" transform="translate(-7.54 -422.618)"/><path d="m90.298 444.917-13.953 13.098" style="fill:none;stroke:#000;stroke-width:.264583px;stroke-linecap:butt;stroke-linejoin:miter;stroke-opacity:1;marker-end:url(#d)" transform="translate(-7.54 -422.618)"/><path d="m108.82 454.06-4.393 7.065" style="fill:none;stroke:#000;stroke-width:.264583px;stroke-linecap:butt;stroke-linejoin:miter;stroke-opacity:1;marker-end:url(#d)" transform="translate(-7.54 -422.618)"/><text xml:space="preserve" style="font-size:14.6667px;line-height:1.25;font-family:sans-serif;white-space:pre;shape-inside:url(#e)" transform="translate(-7.54 -422.618)scale(.26458)"><tspan x="69.131" y="2101.199">epicyclic gearing</tspan></text><text xml:space="preserve" style="font-size:14.6667px;line-height:1.25;font-family:sans-serif;white-space:pre;shape-inside:url(#f)" transform="translate(-7.803 -428.228)scale(.26458)"><tspan x="69.271" y="2144.533">Zring = Zsun + 2 * Zplanet
</tspan><tspan x="69.271" y="2162.867">R = Zsun / (Zsun+Zring) = Zsun / (2*(Zsun+Zplanet))</tspan></text><path d="M71.177 433.686s-5.55 62.178-5.55 64.824l-29.428-59.44M68.456 463.462l-16.2 7.959" style="fill:none;stroke:#f55;stroke-width:.264583px;stroke-linecap:butt;stroke-linejoin:miter;stroke-opacity:1" transform="translate(-7.54 -422.618)"/><path d="m53.651 470.888.77 1.305-1.351.735" style="fill:none;stroke:#f55;stroke-width:.529167;stroke-linecap:butt;stroke-linejoin:miter;stroke-opacity:1" transform="translate(-7.54 -422.618)"/><path d="M65.627 498.51c0-2.646-37.361-54.484-37.361-54.484" style="fill:none;stroke:#f55;stroke-width:.264583px;stroke-linecap:butt;stroke-linejoin:miter;stroke-opacity:1" transform="translate(-7.54 -422.618)"/><path d="M38.289 440.315s5.609-2.355 8.537-3.143a59 59 0 0 1 10.322-1.804c2.765-.234 5.552-.093 8.324.033 1.376.062 4.117.358 4.117.358" style="fill:none;stroke:#000;stroke-width:.264583px;stroke-linecap:butt;stroke-linejoin:miter;stroke-opacity:1;marker-start:url(#d);marker-end:url(#d)" transform="translate(-7.54 -422.618)"/><path d="M31.656 446.514s1.6-1.283 2.523-1.76c.89-.459 2.855-1.034 2.855-1.034" style="fill:none;stroke:#000;stroke-width:.264583px;stroke-linecap:butt;stroke-linejoin:miter;stroke-opacity:1;marker-start:url(#d);marker-end:url(#d)" transform="translate(-7.54 -422.618)"/><text xml:space="preserve" style="font-size:14.6667px;line-height:1.25;font-family:sans-serif;white-space:pre;shape-inside:url(#g)" transform="translate(-6.616 -426.21)scale(.26458)"><tspan x="135.373" y="1631.65">angular size of 
</tspan><tspan x="135.373" y="1649.984">half of a gear-wheel</tspan></text><text xml:space="preserve" style="font-size:14.6667px;line-height:1.25;font-family:sans-serif;white-space:pre;shape-inside:url(#h)" transform="translate(-2.5 -404.92)scale(.26458)"><tspan x="52.9" y="1587.047">angular
</tspan><tspan x="52.9" y="1605.38">margin</tspan></text><path d="M50.636 475.724c.866 0 17.835-12.202 17.835-12.202" style="fill:none;stroke:#f55;stroke-width:.264583px;stroke-linecap:butt;stroke-linejoin:miter;stroke-opacity:1" transform="translate(-7.54 -422.618)"/></svg>