<svg xmlns="http://www.w3.org/2000/svg" xml:space="preserve" width="295.524" height="277.15" viewBox="0 0 78.191 73.329"><defs><path id="g" d="M392.945 6368.487H563.16v28.735H392.945z"/><path id="f" d="M360.523 6384.945h155.231v35.774H360.523z"/><path id="d" d="M216.514 6210.179h100.45v24.716h-100.45z"/><path id="b" d="M359.962 6301.744h173.464v59.725H359.962z"/><path id="a" d="M358.607 6270.916h97.062v33.527h-97.062z"/><marker id="c" markerHeight="1" markerWidth="1" orient="auto-start-reverse" preserveAspectRatio="xMidYMid" refX="0" refY="0" style="overflow:visible" viewBox="0 0 1 1"><path d="m1 0-3 3h-2l3-3-3-3h2z" style="fill:context-stroke;fill-rule:evenodd;stroke:none"/></marker><marker id="e" markerHeight="1" markerWidth="1" orient="auto-start-reverse" preserveAspectRatio="xMidYMid" refX="0" refY="0" style="overflow:visible" viewBox="0 0 1 1"><path d="M3-3 0 0l3 3" style="fill:none;stroke:context-stroke;stroke-width:1;stroke-linecap:butt" transform="rotate(180 .125 0)"/></marker></defs><g transform="translate(-11.181 -1639.032)"><path d="M11.314 1639.164H89.24v73.065H11.314z" style="fill:#fff;stroke:#fff;stroke-width:.264583"/><path d="M24.566 1651.926h60.497v39.423H24.566z" style="fill:none;stroke:#ff8080;stroke-width:.264583;stroke-linejoin:bevel"/><path d="M40.716 1687.05h5.2s-.422-5.226 0-7.782c.236-1.434.479-3.027 1.398-4.111.98-1.156 2.49-2.09 3.959-2.044 1.14.035 2.23.867 2.983 1.774.843 1.014 1.191 2.431 1.435 3.757.477 2.595 0 7.931 0 7.931h4.918s1.411-13.231 0-19.588c-.389-1.751-.976-3.666-2.271-4.833-1.256-1.131-3.095-1.293-4.726-1.555a16.9 16.9 0 0 0-5.231 0c-1.663.258-3.476.477-4.829 1.531-1.457 1.137-2.51 2.934-3.03 4.769-1.82 6.435.194 20.151.194 20.151z" style="fill:#999;stroke:#00f;stroke-width:.529167;stroke-linecap:butt;stroke-linejoin:miter;stroke-opacity:1"/><ellipse cx="50.272" cy="1666.178" rx="3.36" ry="3.44" style="fill:#fff;stroke:#fc0;stroke-width:.529167;stroke-linejoin:bevel"/><path d="M41.747 1669.075h3.868V1674h-3.868zM55.191 1668.351h3.868v4.925h-3.868z" style="fill:#fff;stroke:#fc0;stroke-width:.529167;stroke-linejoin:bevel"/><path d="M65.643 1680.829h3.362s-.272-3.311 0-4.93c.153-.909.31-1.917.905-2.604.634-.733 1.61-1.324 2.56-1.295.737.022 1.441.55 1.928 1.124.546.642.771 1.543.929 2.38.08.432 0 1.32 0 1.32h3.18s.643-5.875 0-8.704c-.251-1.104-.632-2.323-1.469-3.062-.812-.717-2.001-.82-3.056-.985a11.1 11.1 0 0 0-3.383 0c-1.075.163-2.247.302-3.122.97-.942.72-1.623 1.858-1.959 3.02-1.178 4.077.125 12.766.125 12.766z" style="fill:#999;stroke:#000;stroke-width:.264583px;stroke-linecap:butt;stroke-linejoin:miter;stroke-opacity:1"/><ellipse cx="73.268" cy="1667.607" rx="3.618" ry="2.179" style="fill:#fff;stroke:#1a1a1a;stroke-width:.264584;stroke-linejoin:bevel"/><path d="M66.31 1669.442h2.501v3.12H66.31z" style="fill:#fff;stroke:#1a1a1a;stroke-width:.264583;stroke-linejoin:bevel"/><text xml:space="preserve" style="font-style:normal;font-variant:normal;font-weight:400;font-stretch:normal;font-size:14.6667px;line-height:normal;font-family:&quot;Liberation Mono&quot;;-inkscape-font-specification:&quot;Liberation Mono&quot;;font-variant-ligatures:normal;font-variant-position:normal;font-variant-caps:normal;font-variant-numeric:normal;font-variant-alternates:normal;font-variant-east-asian:normal;font-feature-settings:normal;font-variation-settings:normal;text-indent:0;text-align:start;text-decoration-line:none;text-decoration-style:solid;text-decoration-color:#000;letter-spacing:normal;word-spacing:normal;text-transform:none;writing-mode:lr-tb;direction:ltr;text-orientation:mixed;dominant-baseline:auto;baseline-shift:baseline;white-space:pre;shape-inside:url(#a);shape-padding:0;shape-margin:0;inline-size:0;opacity:1;vector-effect:none;fill:#f55;fill-opacity:1;stroke:none;stroke-width:1;stroke-linecap:butt;stroke-linejoin:miter;stroke-miterlimit:4;stroke-dasharray:none;stroke-dashoffset:0;stroke-opacity:1;-inkscape-stroke:none;stop-color:#000;stop-opacity:1" transform="translate(-34.833 40.873)scale(.26458)"><tspan x="358.607" y="6283.966">figure</tspan></text><text xml:space="preserve" style="font-style:normal;font-variant:normal;font-weight:400;font-stretch:normal;font-size:14.6667px;line-height:normal;font-family:&quot;Liberation Mono&quot;;-inkscape-font-specification:&quot;Liberation Mono&quot;;font-variant-ligatures:normal;font-variant-position:normal;font-variant-caps:normal;font-variant-numeric:normal;font-variant-alternates:normal;font-variant-east-asian:normal;font-feature-settings:normal;font-variation-settings:normal;text-indent:0;text-align:start;text-decoration-line:none;text-decoration-style:solid;text-decoration-color:#000;letter-spacing:normal;word-spacing:normal;text-transform:none;writing-mode:lr-tb;direction:ltr;text-orientation:mixed;dominant-baseline:auto;baseline-shift:baseline;white-space:pre;shape-inside:url(#b);shape-padding:0;shape-margin:0;inline-size:0;opacity:1;vector-effect:none;fill:#000;fill-opacity:1;stroke:none;stroke-width:1;stroke-linecap:butt;stroke-linejoin:miter;stroke-miterlimit:4;stroke-dasharray:none;stroke-dashoffset:0;stroke-opacity:1;-inkscape-stroke:none;stop-color:#000;stop-opacity:1" transform="translate(-47.045 36.825)scale(.26458)"><tspan x="359.961" y="6314.794">(to be extruded)</tspan></text><path d="m66.884 1699.167 2.471-6.525" style="fill:#fff;stroke:#ff8080;stroke-width:.264583;marker-end:url(#c)"/><text xml:space="preserve" style="font-style:normal;font-variant:normal;font-weight:400;font-stretch:normal;font-size:14.6667px;line-height:normal;font-family:&quot;Liberation Mono&quot;;-inkscape-font-specification:&quot;Liberation Mono&quot;;font-variant-ligatures:normal;font-variant-position:normal;font-variant-caps:normal;font-variant-numeric:normal;font-variant-alternates:normal;font-variant-east-asian:normal;font-feature-settings:normal;font-variation-settings:normal;text-indent:0;text-align:start;text-decoration-line:none;text-decoration-style:solid;text-decoration-color:#000;letter-spacing:normal;word-spacing:normal;text-transform:none;writing-mode:lr-tb;direction:ltr;text-orientation:mixed;dominant-baseline:auto;baseline-shift:baseline;white-space:pre;shape-inside:url(#d);shape-padding:0;shape-margin:0;inline-size:0;opacity:1;vector-effect:none;fill:#000;fill-opacity:1;stroke:none;stroke-width:1;stroke-linecap:butt;stroke-linejoin:miter;stroke-miterlimit:4;stroke-dasharray:none;stroke-dashoffset:0;stroke-opacity:1;-inkscape-stroke:none;stop-color:#000;stop-opacity:1" transform="scale(.26458)"><tspan x="216.514" y="6223.23">faces</tspan></text><path d="m61.343 1647.926-4.75 11.94" style="fill:#f55;stroke:#666;stroke-width:.264583;marker-end:url(#e)"/><path d="m63.422 1648.035 5.18 15.084" style="fill:#f55;stroke:#666;stroke-width:.264583;marker-end:url(#e)"/><text xml:space="preserve" style="font-style:normal;font-variant:normal;font-weight:400;font-stretch:normal;font-size:14.6667px;line-height:normal;font-family:&quot;Liberation Mono&quot;;-inkscape-font-specification:&quot;Liberation Mono&quot;;font-variant-ligatures:normal;font-variant-position:normal;font-variant-caps:normal;font-variant-numeric:normal;font-variant-alternates:normal;font-variant-east-asian:normal;font-feature-settings:normal;font-variation-settings:normal;text-indent:0;text-align:start;text-decoration-line:none;text-decoration-style:solid;text-decoration-color:#000;letter-spacing:normal;word-spacing:normal;text-transform:none;writing-mode:lr-tb;direction:ltr;text-orientation:mixed;dominant-baseline:auto;baseline-shift:baseline;white-space:pre;shape-inside:url(#f);shape-padding:0;shape-margin:0;inline-size:0;opacity:1;vector-effect:none;fill:#00f;fill-opacity:1;stroke:none;stroke-width:1;stroke-linecap:butt;stroke-linejoin:miter;stroke-miterlimit:4;stroke-dasharray:none;stroke-dashoffset:0;stroke-opacity:1;-inkscape-stroke:none;stop-color:#000;stop-opacity:1" transform="translate(-77.261 8.976)scale(.26458)"><tspan x="360.523" y="6397.995">outer contour</tspan></text><path d="m30.142 1699.074 11.14-11.205" style="fill:#00f;stroke:#00f;stroke-width:.264583;marker-end:url(#e)"/><text xml:space="preserve" style="font-style:normal;font-variant:normal;font-weight:400;font-stretch:normal;font-size:14.6667px;line-height:normal;font-family:&quot;Liberation Mono&quot;;-inkscape-font-specification:&quot;Liberation Mono&quot;;font-variant-ligatures:normal;font-variant-position:normal;font-variant-caps:normal;font-variant-numeric:normal;font-variant-alternates:normal;font-variant-east-asian:normal;font-feature-settings:normal;font-variation-settings:normal;text-indent:0;text-align:start;text-decoration-line:none;text-decoration-style:solid;text-decoration-color:#000;letter-spacing:normal;word-spacing:normal;text-transform:none;writing-mode:lr-tb;direction:ltr;text-orientation:mixed;dominant-baseline:auto;baseline-shift:baseline;white-space:pre;shape-inside:url(#g);shape-padding:0;shape-margin:0;inline-size:0;opacity:1;vector-effect:none;fill:#d4aa00;fill-opacity:1;stroke:none;stroke-width:1;stroke-linecap:butt;stroke-linejoin:miter;stroke-miterlimit:4;stroke-dasharray:none;stroke-dashoffset:0;stroke-opacity:1;-inkscape-stroke:none;stop-color:#000;stop-opacity:1" transform="translate(-88.73 -41.62)scale(.26458)"><tspan x="392.945" y="6381.536">inner contours</tspan></text><path d="m41.913 1667.36-14.343-18.497 19.367 13.997" style="fill:none;stroke:#d4aa00;stroke-width:.264583;marker-start:url(#e);marker-end:url(#e)"/></g></svg>