<svg xmlns="http://www.w3.org/2000/svg" width="306.394" height="379.46" viewBox="0 0 81.067 100.399"><defs><path id="f" d="M52.55 1454.981h120.347v39.185H52.55z"/><path id="e" d="M360.024 1427.71h104.302v55.238H360.024z"/><path id="d" d="M120.572 1465.822h150.572v46.592H120.572z"/><path id="c" d="M104.988 1493.239H284.83v27.383H104.988z"/><path id="b" d="M156.014 1470.998H397.09v48.596H156.014z"/><marker id="a" markerHeight="1" markerWidth="1" orient="auto-start-reverse" preserveAspectRatio="xMidYMid" refX="0" refY="0" style="overflow:visible" viewBox="0 0 1 1"><path d="M-.211-4.106 6.21-.894a1 1 90 0 1 0 1.788L-.21 4.106A1.236 1.236 31.717 0 1-2 3v-6A1.236 1.236 148.283 0 1-.211-4.106" style="fill:context-stroke;fill-rule:evenodd;stroke:none" transform="scale(.7)"/></marker></defs><path d="M22.927 309.762h80.802v100.134H22.927z" style="fill:#fff;fill-opacity:1;stroke:#fff;stroke-width:.264583;stroke-dasharray:2,.999994;stroke-dashoffset:0;stroke-opacity:1" transform="translate(-22.795 -309.63)"/><g style="stroke-width:.648467" transform="translate(42.978 45.273)scale(1.5421)"><path d="m14.25-1.395.715-.07.982.144 1.73.741V.58l-1.73.741-.982.144-.716-.07-.319 1.912.7.167.882.454 1.395 1.263-.376 1.097-1.877.14-.975-.183-.655-.299-.923 1.705.608.385.687.716.91 1.648-.713.915-1.82-.477-.863-.49-.522-.495-1.427 1.313.45.561.417.9.326 1.854-.971.634-1.567-1.042-.657-.743-.333-.638-1.776.779.244.677.102.987-.295 1.858-1.124.285-1.143-1.494-.38-.917-.108-.711-1.933.16.011.719-.224.967-.882 1.662-1.156-.096-.596-1.785-.062-.99.13-.708-1.88-.476-.224.684-.526.842-1.374 1.286-1.062-.466.016-1.882.263-.957.352-.627-1.624-1.06-.433.573-.77.626-1.718.77-.853-.786.626-1.774.56-.82.536-.48-1.19-1.53-.597.403-.932.341-1.874.171-.552-1.02 1.168-1.475.795-.594.663-.279-.63-1.834-.694.187-.992.02-1.828-.447-.19-1.143 1.583-1.017.945-.303.718-.048V-.97l-.718-.048-.945-.303-1.584-1.017.19-1.143 1.829-.447.992.02.695.187.63-1.834-.664-.28-.795-.593-1.168-1.475.552-1.02 1.874.17.932.342.596.402 1.191-1.53-.536-.48-.56-.819-.626-1.774.853-.786 1.718.77.77.626.433.574L-7-12.488l-.352-.628-.263-.957-.016-1.882 1.062-.466 1.374 1.286.526.842.224.684 1.88-.476-.13-.708.062-.99.596-1.785 1.156-.096L0-16.002l.224.967-.01.72 1.932.16.108-.712.38-.916 1.143-1.495 1.124.285.295 1.858-.102.987-.244.677 1.776.78.333-.639.657-.743 1.567-1.042.97.634-.325 1.853-.416.9-.45.562 1.426 1.313.522-.495.863-.49 1.82-.477.712.915-.909 1.648-.687.716-.608.385.923 1.705.655-.299.975-.183 1.877.14.376 1.097-1.395 1.263-.882.454-.7.167z" style="fill:none;stroke:#000;stroke-width:.171573"/><circle r="2.646" style="fill:none;stroke:#000;stroke-width:.171573"/></g><path d="M37.69 357.036v-36.8M92.987 357.036v-36.8" style="fill:none;stroke:#b3b3b3;stroke-width:.264583px;stroke-linecap:butt;stroke-linejoin:miter;stroke-opacity:1" transform="translate(-22.795 -309.63)"/><path d="M38.754 320.235h52.86" style="fill:none;stroke:#000;stroke-width:.264583px;stroke-linecap:butt;stroke-linejoin:miter;stroke-opacity:1;marker-start:url(#a);marker-end:url(#a)" transform="translate(-22.795 -309.63)"/><text xml:space="preserve" style="font-size:14.6667px;line-height:1.25;font-family:sans-serif;white-space:pre;shape-inside:url(#b)" transform="translate(-6.755 -382.815)scale(.26458)"><tspan x="156.014" y="1483.975">D = Z*m</tspan></text><text xml:space="preserve" style="font-size:14.6667px;line-height:1.25;font-family:sans-serif;white-space:pre;shape-inside:url(#c)" transform="translate(6.745 -392.692)scale(.26458)"><tspan x="104.988" y="1506.215">Diameter</tspan></text><text xml:space="preserve" style="font-size:14.6667px;line-height:1.25;font-family:sans-serif;white-space:pre;shape-inside:url(#d)" transform="translate(-10.984 -299.748)scale(.26458)"><tspan x="120.572" y="1478.799">Z: number of teeth
</tspan><tspan x="120.572" y="1497.132">m: gear module</tspan></text><path d="m81.619 372.109 2.081 2.098" style="fill:none;stroke:#999;stroke-width:.264584px;stroke-linecap:butt;stroke-linejoin:miter;stroke-opacity:1;marker-start:url(#a);marker-end:url(#a)" transform="translate(-22.795 -309.63)"/><path d="m84.463 374.935 6.916 6.97" style="fill:none;stroke:#999;stroke-width:.264584px;stroke-linecap:butt;stroke-linejoin:miter;stroke-opacity:1" transform="translate(-22.795 -309.63)"/><text xml:space="preserve" style="font-size:14.6667px;line-height:1.25;font-family:sans-serif;white-space:pre;shape-inside:url(#e)" transform="translate(-41.936 -305.026)scale(.26458)"><tspan x="360.023" y="1440.688">tooth height
</tspan><tspan x="360.023" y="1459.021">2*m</tspan></text><path d="M46.548 376.561s1.75 2.31 2.909 3.142c1.202.864 4.052 1.821 4.052 1.821" style="fill:none;stroke:#b3b3b3;stroke-width:.264583px;stroke-linecap:butt;stroke-linejoin:miter;stroke-opacity:1;marker-start:url(#a);marker-end:url(#a)" transform="translate(-22.795 -309.63)"/><text xml:space="preserve" style="font-size:14.6667px;line-height:1.25;font-family:sans-serif;white-space:pre;shape-inside:url(#f)" transform="translate(-11.148 -315.114)scale(.26458)"><tspan x="52.551" y="1467.957">tooth length
</tspan><tspan x="52.551" y="1486.29">pi*m</tspan></text></svg>