<svg xmlns="http://www.w3.org/2000/svg" xml:space="preserve" width="536.91" height="284.116" viewBox="0 0 142.057 75.172"><defs><path id="e" d="M306.72 3111.43h278.376v65.367H306.72z"/><path id="d" d="M68.061 3127.309h180.062v48.304H68.061z"/><path id="c" d="M272.76 3171.463h187.5v54.103h-187.5z"/><path id="b" d="M62.491 3131.73h344.803v127.321H62.491z"/><path id="a" d="M213.113 3149.331H376.43v127.097H213.113z"/></defs><path d="M6.604 743.044h141.793v74.908H6.604z" style="fill:#fff;stroke:#fff;stroke-width:.264583;stroke-linejoin:bevel" transform="translate(-6.472 -742.911)"/><text xml:space="preserve" style="font-style:normal;font-variant:normal;font-weight:400;font-stretch:normal;font-size:24px;line-height:1.25;font-family:&quot;Liberation Sans&quot;;-inkscape-font-specification:&quot;Liberation Sans&quot;;font-variant-ligatures:normal;font-variant-position:normal;font-variant-caps:normal;font-variant-numeric:normal;font-variant-alternates:normal;font-variant-east-asian:normal;font-feature-settings:normal;font-variation-settings:normal;text-indent:0;text-align:start;text-decoration-line:none;text-decoration-style:solid;text-decoration-color:#000;letter-spacing:normal;word-spacing:normal;text-transform:none;writing-mode:lr-tb;direction:ltr;text-orientation:mixed;dominant-baseline:auto;baseline-shift:baseline;white-space:pre;shape-inside:url(#a);shape-padding:0;shape-margin:0;inline-size:0;display:inline;opacity:1;vector-effect:none;fill:#000;fill-opacity:1;stroke-width:1;stroke-linecap:butt;stroke-linejoin:miter;stroke-miterlimit:4;stroke-dasharray:none;stroke-dashoffset:0;stroke-opacity:1;-inkscape-stroke:none;stop-color:#000;stop-opacity:1" transform="translate(8.235 -799.06)scale(.26458)"><tspan x="213.113" y="3170.948">VS</tspan></text><text xml:space="preserve" style="font-style:normal;font-variant:normal;font-weight:400;font-stretch:normal;font-size:14.6667px;line-height:1.25;font-family:&quot;Liberation Sans&quot;;-inkscape-font-specification:&quot;Liberation Sans&quot;;font-variant-ligatures:normal;font-variant-position:normal;font-variant-caps:normal;font-variant-numeric:normal;font-variant-alternates:normal;font-variant-east-asian:normal;font-feature-settings:normal;font-variation-settings:normal;text-indent:0;text-align:start;text-decoration-line:none;text-decoration-style:solid;text-decoration-color:#000;letter-spacing:normal;word-spacing:normal;text-transform:none;writing-mode:lr-tb;direction:ltr;text-orientation:mixed;dominant-baseline:auto;baseline-shift:baseline;white-space:pre;shape-inside:url(#b);shape-padding:0;shape-margin:0;inline-size:0;display:inline;opacity:1;vector-effect:none;fill:#000;fill-opacity:1;stroke-width:1;stroke-linecap:butt;stroke-linejoin:miter;stroke-miterlimit:4;stroke-dasharray:none;stroke-dashoffset:0;stroke-opacity:1;-inkscape-stroke:none;stop-color:#000;stop-opacity:1" transform="translate(-6.806 -765.463)scale(.26458)"><tspan x="62.492" y="3144.942">Leonardo da Vinci&apos;s invention</tspan></text><text xml:space="preserve" style="font-style:normal;font-variant:normal;font-weight:400;font-stretch:normal;font-size:14.6667px;line-height:1.25;font-family:&quot;Liberation Sans&quot;;-inkscape-font-specification:&quot;Liberation Sans&quot;;font-variant-ligatures:normal;font-variant-position:normal;font-variant-caps:normal;font-variant-numeric:normal;font-variant-alternates:normal;font-variant-east-asian:normal;font-feature-settings:normal;font-variation-settings:normal;text-indent:0;text-align:start;text-decoration-line:none;text-decoration-style:solid;text-decoration-color:#000;letter-spacing:normal;word-spacing:normal;text-transform:none;writing-mode:lr-tb;direction:ltr;text-orientation:mixed;dominant-baseline:auto;baseline-shift:baseline;white-space:pre;shape-inside:url(#c);shape-padding:0;shape-margin:0;inline-size:0;display:inline;opacity:1;vector-effect:none;fill:#000;fill-opacity:1;stroke-width:1;stroke-linecap:butt;stroke-linejoin:miter;stroke-miterlimit:4;stroke-dasharray:none;stroke-dashoffset:0;stroke-opacity:1;-inkscape-stroke:none;stop-color:#000;stop-opacity:1" transform="translate(17.13 -776.625)scale(.26458)"><tspan x="272.76" y="3184.674">technical drawing</tspan></text><text xml:space="preserve" style="font-style:normal;font-variant:normal;font-weight:400;font-stretch:normal;font-size:14.6667px;line-height:1.25;font-family:&quot;Liberation Sans&quot;;-inkscape-font-specification:&quot;Liberation Sans&quot;;font-variant-ligatures:normal;font-variant-position:normal;font-variant-caps:normal;font-variant-numeric:normal;font-variant-alternates:normal;font-variant-east-asian:normal;font-feature-settings:normal;font-variation-settings:normal;text-indent:0;text-align:start;text-decoration-line:none;text-decoration-style:solid;text-decoration-color:#000;letter-spacing:normal;word-spacing:normal;text-transform:none;writing-mode:lr-tb;direction:ltr;text-orientation:mixed;dominant-baseline:auto;baseline-shift:baseline;white-space:pre;shape-inside:url(#d);shape-padding:0;shape-margin:0;inline-size:0;display:inline;opacity:1;vector-effect:none;fill:#000;fill-opacity:1;stroke-width:1;stroke-linecap:butt;stroke-linejoin:miter;stroke-miterlimit:4;stroke-dasharray:none;stroke-dashoffset:0;stroke-opacity:1;-inkscape-stroke:none;stop-color:#000;stop-opacity:1" transform="translate(5.317 -758.886)scale(.26458)"><tspan x="68.061" y="3140.52">Perspective</tspan></text><text xml:space="preserve" style="font-style:normal;font-variant:normal;font-weight:400;font-stretch:normal;font-size:14.6667px;line-height:1.25;font-family:&quot;Liberation Sans&quot;;-inkscape-font-specification:&quot;Liberation Sans&quot;;font-variant-ligatures:normal;font-variant-position:normal;font-variant-caps:normal;font-variant-numeric:normal;font-variant-alternates:normal;font-variant-east-asian:normal;font-feature-settings:normal;font-variation-settings:normal;text-indent:0;text-align:start;text-decoration-line:none;text-decoration-style:solid;text-decoration-color:#000;letter-spacing:normal;word-spacing:normal;text-transform:none;writing-mode:lr-tb;direction:ltr;text-orientation:mixed;dominant-baseline:auto;baseline-shift:baseline;white-space:pre;shape-inside:url(#e);shape-padding:0;shape-margin:0;inline-size:0;display:inline;opacity:1;vector-effect:none;fill:#000;fill-opacity:1;stroke-width:1;stroke-linecap:butt;stroke-linejoin:miter;stroke-miterlimit:4;stroke-dasharray:none;stroke-dashoffset:0;stroke-opacity:1;-inkscape-stroke:none;stop-color:#000;stop-opacity:1" transform="translate(-10.49 -754.844)scale(.26458)"><tspan x="306.721" y="3124.641">Gaspard Monge&apos;s geometry descriptive</tspan></text><path d="M80.16 775.332v-28.61l12.374-.013c6.805-.006 21.703-.08 33.107-.161l20.734-.148.149 11.55c.081 6.352.148 19.217.148 28.59v17.039h-10.917c-6.005 0-20.97.082-33.256.181l-22.339.182zm44.846 27.973h21.218v-50.29l-4.926.006-4.927.006v2.17h-15.452v-8.2h-13.101c-10.33 0-13.102.072-13.104.341-.003.265-.045.263-.187-.01-.143-.276-1.562-.34-6.547-.3-3.5.028-6.64.109-6.98.18l-.615.131v7.414c0 4.079.067 16.753.149 28.165l.149 20.75 11.552-.18c6.353-.1 21.1-.18 32.77-.18zm2.614-.61c-.306-1.34-.32-1.33 1.697-1.26 1.779.06 1.903.103 1.903.65 0 .487-.12.577-.717.533-.394-.029-.759-.207-.81-.397-.074-.268-.138-.262-.288.03-.151.29-.194.268-.197-.107-.002-.263-.111-.478-.242-.478-.132 0-.182.22-.112.489.1.387-.011.501-.545.55-.37.035-.68.03-.689-.01zm3.824-.631c0-.202.1-.443.224-.536.123-.093.224-.039.224.12 0 .16.151.29.336.29a.344.344 0 0 0 .34-.342q.002-.342.22.069c.348.658.27.765-.56.765-.506 0-.784-.13-.784-.366zm-26.646-.604c-.002-.188-.196-.342-.431-.342-.375 0-.445-.277-.568-2.255-.179-2.874-.302-5.69-.328-7.517-.016-1.102-.1-1.435-.367-1.435-.283 0-.334-.314-.28-1.709l.067-1.708.782-.09c.43-.05.858-.235.952-.41.125-.236.223-.218.374.066.157.3.869.392 3.135.41l2.931.023v14.077l.728.053c.4.029-.914.12-2.92.205-2.9.121-3.691.236-3.86.563q-.211.408-.215.068zm-.004-1.42c0-.291-.1-.606-.224-.699-.127-.096-.224.134-.224.53 0 .386.1.7.224.7.123 0 .224-.238.224-.53m.672-.152c0-.376-.101-.683-.224-.683-.124 0-.224.307-.224.683s.1.683.224.683c.123 0 .224-.307.224-.683m5.32-2.46c.031-1.654-.019-2.875-.112-2.714s-.353.376-.577.477c-.327.148-.393.064-.336-.43.051-.436.217-.607.576-.592.58.026.596-.18.357-4.6-.138-2.54-.169-2.665-.656-2.665-.973 0-.993 2.586-.024 2.816.336.08.261.128-.239.154-.596.029-.727-.065-.727-.528 0-.44-.099-.527-.448-.392-.35.135-.448.05-.448-.391 0-.311.076-.551.168-.533.495.095.728-.09.728-.58 0-.47-.15-.546-1.064-.546h-1.064l.077 1.352.076 1.353.931.103c.71.079.599.115-.468.151l-1.4.048v4.062c0 2.234-.064 4.637-.143 5.34l-.144 1.278 2.44-.079 2.438-.077zm-6.082.519c-.066-.21-.024-.382.097-.382.12 0 .217.246.217.546s.1.547.224.547c.22 0 .24-.33.259-4.374.016-3.593-.03-4.373-.259-4.373-.123 0-.224.185-.224.41s-.1.41-.224.41c-.123 0-.224-.184-.224-.41s-.1-.41-.224-.41c-.247 0-.325 8.26-.08 8.557.234.287.568-.108.438-.521zm.079-2.364a92 92 0 0 0-.12-1.914c-.067-.984-.02-1.571.124-1.571.137 0 .23.78.23 1.913 0 1.053-.05 1.914-.111 1.914-.062 0-.117-.154-.123-.342m-.284-7.312c-.038-1.297-.071-1.367-.656-1.367-.59 0-.617.058-.617 1.367 0 1.329.019 1.367.657 1.367.643 0 .655-.026.616-1.367m-.547.684c.092-.123.065-.373-.059-.554-.155-.229-.12-.437.114-.674.233-.236.34-.247.34-.036 0 .169-.114.306-.252.306-.18 0-.178.109.01.386.202.297.196.433-.028.59-.16.113-.216.105-.125-.019zm2.634-.684v-1.367l-.84.004c-.63.004-.756.071-.504.274.298.239.298.298 0 .538q-.337.27-.056.273a.29.29 0 0 1 .28.294c0 .16-.101.213-.224.12-.127-.095-.224.134-.224.531 0 .617.092.7.783.7h.784zm-.974-.128c-.07-.22-.03-.474.088-.563s.214-.022.214.144c0 .168.1.23.221.139.127-.096.165.013.089.257-.168.535-.448.545-.612.023zm19.785 10.256v-2.201h-1.568v-3.28c0-2.005.087-3.28.224-3.28.124 0 .226-.277.23-.615.012-1.588 1.816-4.48 3.105-4.98.26-.1.472-.413.472-.695s.101-.588.224-.68c.35-.265.263-1.23-.111-1.23-.264 0-.336-.379-.336-1.762v-1.76l.951-.085c.524-.046 1.43-.041 2.016.01 1 .09 1.064.142 1.064.866v.772l4.116.032c3.51.026 4.135-.029 4.248-.388.078-.248.406-.42.806-.42.534 0 .704.144.816.688.27 1.311-.954 2.075-1.528.953-.262-.511-.523-.547-4.015-.547-2.054 0-3.894.075-4.09.166-.194.091-.353.41-.353.71 0 .312-.19.603-.448.685-.462.148-.663 1.446-.224 1.446.123 0 .224.238.224.528 0 .298.206.609.472.712 1.289.499 3.093 3.392 3.106 4.979.004.338.106.615.229.615s.224.307.224.683v.683h2.327c1.862 0 2.353-.082 2.457-.41.07-.225.387-.41.703-.41.665 0 1.078.942.749 1.709-.246.572-1.214.635-1.466.096-.126-.268-.784-.418-2.195-.501-1.11-.066-2.142-.068-2.296-.004-.194.079-.28.819-.28 2.414v2.3h-.783c-.687 0-.784.085-.784.684 0 .376.027.693.056.705s1.341.082 2.911.156c2.634.125 2.901.092 3.44-.425.44-.422.685-.494.995-.292.561.367.66.618.513 1.303-.185.866-.915 1.038-1.51.356-.454-.522-.763-.573-3.452-.573h-2.953v2.46h-1.32c-1.237 0-1.366-.063-2.03-.986-.39-.543-.656-1.158-.59-1.367.065-.21.02-.38-.098-.38s-.217.225-.217.499-.249.784-.553 1.133-.509.72-.455.827c.054.105-.605.217-1.463.247l-1.56.056zm.661 1.33c-.137-.314-.195-.638-.128-.72s.243.175.39.57c.236.633.868 1.024.868.538 0-.194-1.35-2.826-1.45-2.826-.032 0-.063.677-.07 1.504-.008 1.138.069 1.503.315 1.503.26 0 .275-.114.075-.57zm1.802.31c0-.211-1.44-3.422-1.713-3.818-.043-.063-.14-.04-.214.051-.163.2 1.5 4.026 1.75 4.026.098 0 .177-.116.177-.258zm3.676-.082c-.127-.274-.098-.274.143 0 .695.787.84.31.29-.957-.595-1.373-.235-.976.416.458.21.462.54.84.733.84.316 0 .315-.075-.013-.751-.263-.542-.272-.616-.03-.263.303.443.334.322.342-1.299.005-1.258-.075-1.787-.273-1.787-.155 0-.39-.43-.522-.957-.133-.526-.158-.895-.057-.818.442.333.349-.647-.166-1.746-.309-.66-.447-1.112-.307-1.007s.456.675.703 1.267c.247.59.489 1.074.537 1.074s.08-.896.072-1.991c-.013-1.746-.066-1.992-.428-1.992-.508 0-.525.386-.054 1.207.197.344.305.69.24.77-.065.079-.285-.25-.488-.73l-.37-.874-.486.638c-.268.351-.461.733-.43.849.03.115-.035.18-.144.142-.305-.105-1.144 1.18-1.144 1.75 0 .323-.162.505-.448.505-.283 0-.448-.183-.448-.496 0-.272-.312-.857-.693-1.298l-.693-.803.481 1.093c.518 1.175.295.84-.775-1.164-.737-1.382-1.48-2.003-1.014-.849.257.638.255.638-.187-.033-.246-.373-.518-.593-.604-.488s.628 1.861 1.587 3.904c1.034 2.204 1.824 3.614 1.944 3.467s.01-.679-.27-1.311c-.26-.586-.342-.834-.18-.55.16.283.519.854.796 1.27.277.414.504.92.505 1.124 0 .204.308.77.683 1.26.7.91 1.032 1.152.752.546zm-.54-1.025c-.132-.3-.19-.547-.128-.547.061 0 .22.246.351.547.132.3.19.546.128.546-.061 0-.22-.246-.351-.546m1.335-.865c-.256-.61-.25-.618.137-.167.222.26.343.547.268.639s-.257-.121-.405-.472m.443-.82a67 67 0 0 0-.823-1.8c-.302-.64-.495-1.162-.428-1.162.186 0 1.746 3.33 1.628 3.474-.057.07-.226-.161-.377-.512m-2.113-.934c-.33-.688-.564-1.296-.519-1.351s.362.508.705 1.251c.784 1.702.624 1.788-.186.1m.559-.662c-.252-.6-.407-1.093-.346-1.093.062 0 .318.492.57 1.093.25.602.406 1.094.344 1.094-.061 0-.317-.492-.568-1.094m-1.913-.291c-.081-.16-.1-.35-.041-.422s.166.06.24.292c.15.481.02.566-.2.13zm-1.557-1.507c-.33-.688-.558-1.304-.506-1.368s.37.5.706 1.252c.764 1.713.61 1.803-.2.116m4.141-.388c-.131-.3-.189-.547-.127-.547.061 0 .22.246.351.547.132.3.19.546.128.546s-.22-.246-.352-.546m-4.262 3.844c-.521-1.072-.902-2.006-.845-2.075s.499.731.982 1.78c.843 1.829 1.214 2.31 1.214 1.573 0-.335-2.924-6.61-3.255-6.985-.188-.213-.029.914.241 1.703.126.37.102.465-.083.325-.144-.109-.262-.054-.262.121s.15.249.332.163c.439-.205.775.598.632 1.51-.14.899 1.428 4.524 1.774 4.101.142-.173-.113-.949-.73-2.216zm13.668.666c0-.208-.076-.435-.168-.505s-.168.158-.168.505.076.574.168.504.168-.296.168-.504m-.672-.153c0-.31-.1-.487-.224-.394-.123.093-.224.347-.224.563 0 .217.1.394.224.394.123 0 .224-.253.224-.563m-14.78-2.898c0-.487-.214-.461-.71.087-.226.248-.41.323-.41.165 0-.157.151-.357.336-.443s.336-.429.336-.76v-.604l-.56.642c-.633.726-.678.963-.282 1.48.334.436 1.29.016 1.29-.567m8.663.133c.512-.587.695-1.319.33-1.319-.103 0-.508.43-.9.957-.556.745-.63.957-.331.957.21 0 .616-.268.901-.595m.519.151c0-.363-.061-.382-.336-.103-.185.187-.336.387-.336.443 0 .057.15.104.336.104.185 0 .336-.2.336-.444m-.002-2.55c-.001-.27-.323-.026-.885.67-1.17 1.447-1.178 2.213-.01.82.492-.587.894-1.258.893-1.49zm-9.628-.109c0-.52-.027-.516-.56.096-.308.353-.56.888-.56 1.188 0 .522.026.517.56-.095.308-.353.56-.888.56-1.188m4.179.574c-.062-.188-.113-.034-.113.342s.05.53.113.342a1.3 1.3 0 0 0 0-.684m5.45-1.81c0-.281-.211-.163-.672.375-.37.432-.672.97-.672 1.196 0 .28.212.162.672-.376.37-.432.672-.97.672-1.196m-9.63-.13c0-.522-.026-.517-.56.095-.307.353-.56.888-.56 1.189 0 .52.027.516.56-.096.309-.353.56-.888.56-1.188m4.032.521c0-.367-.101-.743-.225-.836-.13-.099-.224.18-.224.667 0 .46.101.836.224.836.124 0 .225-.3.225-.667m.671-.016c0-.376-.1-.683-.224-.683-.123 0-.224.307-.224.683s.101.683.224.683c.124 0 .224-.307.224-.683m11.151-.413c.05-.518.014-.586-.153-.283-.12.218-.169.495-.108.615.06.12-.044.218-.232.218-.2 0-.292-.158-.222-.383.066-.21.013-.463-.119-.563-.264-.199-.337.735-.082 1.046.319.39.853.01.916-.65m-12.592-.066a6 6 0 0 0-.199-.751c-.077-.225-.168-1.148-.202-2.05l-.061-1.64-.594.762c-1.003 1.288-1.015 2.03-.054 3.231.798.998 1.234 1.173 1.11.448m3.597-2.214c-.152-.74-1.152-2.322-1.322-2.09-.055.075-.16 1.237-.235 2.583l-.135 2.447.918-1.121c.751-.917.892-1.247.774-1.819m2.74 1.546c.045-.03-.108-.35-.341-.711-.345-.536-.474-.591-.698-.3a1.6 1.6 0 0 0-.274.822c0 .42.048.415.504-.055l.504-.519-.504.7c-.732 1.015-.648 1.598.112.78.339-.365.653-.688.698-.717m-9.598-.54c0-.2.24-.363.533-.363.372 0 .567-.187.643-.615.06-.338.185-.835.278-1.105.092-.27-.449.295-1.203 1.253-.754.96-1.371 1.908-1.371 2.11 0 .232.204.131.56-.276.308-.353.56-.805.56-1.005zm1.293-2.623c.168-.265.414-.4.548-.299.156.118.178.054.06-.179-.132-.26-.083-.314.173-.195.196.092.478-.012.628-.233.226-.333.201-.368-.152-.21-.405.18-.407.166-.031-.357.215-.301.392-.718.392-.928 0-.512-3.3 3.484-3.737 4.525-.314.746-.248.71.735-.41.594-.677 1.217-1.448 1.384-1.713zm2.778 1.372.04-1.436.084 1.299c.059.903.183 1.298.408 1.298.268 0 .323-.724.323-4.237 0-3.583-.051-4.236-.335-4.236a.36.36 0 0 0-.354.341c-.013.274-.04.274-.13 0-.063-.188-.257-.342-.43-.342-.261 0-.318.758-.318 4.192 0 2.305.067 4.273.149 4.373.363.444.525.083.563-1.252m-.024-5.832c.01-.318.064-.383.136-.165.064.197.056.433-.019.524-.074.09-.127-.071-.118-.359zm4.5 6.268c.417-.462.556-1.188.227-1.188-.1 0-.471.369-.825.82-.55.7-.583.82-.228.82.229 0 .6-.203.826-.452m-.413-.865c.332-.424.535-.857.45-.961-.166-.201-1.42 1.132-1.42 1.509 0 .426.369.217.97-.548m-7.152-1.763c.752-.942 1.52-1.948 1.704-2.234.33-.512.323-.512-.336-.016-.984.742-2.34 2.348-2.712 3.21-.497 1.157-.15.908 1.344-.961zm6.97-.468-.417-.564-.671.758-.671.757.51-.904c.678-1.2.412-1.44-.492-.443l-.726.8.634-.858c.706-.954.443-1.6-.312-.766-.606.67-.541 1.288.205 1.961l.639.577.593-.724c.326-.398.593-.592.593-.43 0 .16-.202.515-.448.787s-.448.689-.448.926c0 .3.217.165.714-.442.703-.858.708-.882.297-1.435m-2.31-1.974c-.209-.255-.269-.182-.269.328s.06.583.269.328.209-.4 0-.656m-2.795-3.96c-.131-.838.021-1.516.295-1.31.102.078.248.017.325-.137.082-.16-.1-.278-.432-.278-.53 0-.573.092-.573 1.23 0 .723.103 1.23.25 1.23.15 0 .204-.292.135-.735m2.078.614c0-.288-.43-.41-.557-.157-.077.153.016.278.208.278s.35-.054.35-.12zm.862-1.11c-.05-1.59-.285-1.589-.36 0-.032.697.042 1.23.17 1.23.126 0 .21-.548.19-1.23zm-1.757.05c0-.038-.185-.069-.411-.069s-.41.152-.41.337c0 .242.115.261.41.069.226-.148.41-.3.41-.337m11.197-.104c0-.55-.065-.659-.254-.428-.14.17-.193.502-.119.738.205.652.373.513.373-.31m.727.397c.12-.4-.027-1.025-.242-1.025-.082 0-.15.307-.15.683 0 .723.22.914.392.342m-11.005-1.38c-.288-.35-.58-.08-.367.34.083.164.253.22.378.125q.23-.172-.01-.465zM95.61 797.506c0-.577.11-.677.769-.708.628-.029.787.076.865.571l.096.606.03-.615c.043-.866.703-.802.703.069 0 .532-.112.679-.504.664a2.8 2.8 0 0 1-.952-.24c-.255-.125-.568-.103-.727.053-.21.203-.28.102-.28-.4zm2.168-.265c-.071-.218-.124-.154-.135.165-.01.288.043.45.118.359.074-.091.082-.327.018-.524zm1.174.803c-.186-.764-.152-1.299.082-1.299.157 0 .306.308.332.683s-.054.684-.176.684c-.121 0-.229-.032-.238-.069zm1.121-.547c-.016-.587-.024-.59-.208-.069-.184.522-.193.519-.208-.068-.014-.539.095-.615.88-.615.773 0 .898.084.918.615.021.59.03.587.201-.069l.18-.683.02.752c.022.699-.04.751-.873.751-.775 0-.897-.083-.911-.615zm-1.437-1.523c-.063-.077-.115-.357-.115-.622 0-.388.176-.474.896-.44.493.023.896.129.896.233s.055.364.122.579c.094.298-.09.39-.78.39-.498 0-.956-.063-1.019-.14m2.06-.596c-.074-.341-.008-.546.177-.546.183 0 .25.205.177.546-.065.3-.145.547-.177.547-.033 0-.113-.246-.177-.547m-14.602-2.143c-.064-.201-.059-.478.01-.615.166-.326 2.34-.324 2.34.002 0 .138.051.415.114.615.087.276-.184.364-1.117.364q-1.233 0-1.347-.366zm3.245-.248c0-.339.107-.615.237-.615s.175.123.1.273c-.077.15-.033.274.098.274.13 0 .237-.123.237-.274 0-.15.403-.273.896-.273.647 0 .896.114.896.41 0 .225.111.41.247.41.137 0 .19-.185.12-.41-.071-.226-.032-.41.088-.41.119 0 .216.243.216.541 0 .632-.525.82-2.071.742-.94-.047-1.064-.124-1.064-.668zm-2.463-1.732c0-.237.151-.432.336-.432.184 0 .336.102.336.228 0 .125.201.228.448.228.246 0 .448-.138.448-.306 0-.178.233-.25.565-.173.31.073.607.05.658-.052.051-.101.431-.136.844-.077.534.076.76.253.782.61.029.462-.157.5-2.193.456-1.863-.04-2.224-.119-2.224-.481zm-.192-4.282-.032-2.528-1.624-.038c-.893-.02-1.397-.09-1.12-.155.358-.084.504-.311.504-.783 0-.593-.212-.796-.727-.697-.093.02-.168-.152-.168-.377 0-.23.2-.41.453-.41.406 0 .45-.16.414-1.509-.036-1.33-.09-1.49-.454-1.348-.282.109-.413.022-.413-.268 0-.252.208-.444.504-.465q.504-.035-.28-.237l-.784-.202.728-.036c.568-.029.727-.155.727-.582q0-.547-.447-.547-.448 0-.448-.547 0-.546.448-.546c.345 0 .447-.182.447-.798 0-.438-.125-.859-.28-.935-.153-.076.073-.145.504-.155.53-.013.684.06.475.221-.346.268-.531 1.955-.34 3.102.108.647.234.751.906.751h.78l-.048-2.01c-.026-1.105.019-2.142.1-2.303.28-.55 1.51.164 2.565 1.488 1.02 1.28 1.035 1.289 1.187.627.114-.502.159-.343.175.627.014.714.123 1.298.247 1.298.123 0 .224-.163.224-.362 0-.2.655-1.182 1.455-2.184 1.346-1.683 1.456-1.912 1.456-3.025 0-.832.107-1.254.345-1.366.41-.192.767.766.59 1.59-.065.302-.159.399-.21.215-.161-.593-.501-.356-.501.348 0 .502.12.684.448.684.41 0 .448.182.448 2.195 0 1.7-.076 2.231-.336 2.353-.185.086-.336.452-.336.811 0 .4.13.655.336.655.234 0 .336.288.336.956v.957l1.4.004c.837.002 1.28.096 1.104.233-.386.298-.27 2.388.127 2.291.154-.037.28.055.28.205 0 .166-1.008.274-2.575.274h-2.576l-.02 2.118c-.014 1.304-.083 1.856-.178 1.435-.143-.63-.27-.69-1.66-.764-1.184-.064-1.534.006-1.636.334-.117.372-.167.372-.473-.002-.2-.244-.633-.383-1.042-.334-.629.074-.714.194-.836 1.176-.094.752-.146.303-.168-1.435zm.64-.615q0-.547.448-.547c.289 0 .448.182.448.515 0 .415.172.517.895.53.86.012 1.002-.138.913-.976-.021-.196.207-.342.533-.342.462 0 .57.132.57.701 0 .604.085.69.616.615.558-.078.622-.2.682-1.319.059-1.102-.019-1.332-.728-2.172-.437-.517-.794-1.1-.794-1.296s-.1-.356-.224-.356c-.123 0-.224.154-.225.342 0 .188-.303.735-.672 1.215-.382.497-.684 1.204-.701 1.64-.027.645-.046.669-.128.151-.083-.527-.238-.615-1.09-.615h-.991v1.23c0 .677.1 1.23.224 1.23.123 0 .224-.245.224-.546zm3.288-.051c-.071-.218-.125-.154-.135.165-.011.288.043.45.117.359s.083-.327.019-.524zm-4.007-4.254-.065-2.119-.84-.085-.84-.085v4.407h1.811zm2.903.95c.4-.469.727-1.044.727-1.277 0-.36.322-.412 2.128-.338l2.128.087v-.839c0-.563-.11-.838-.336-.838-.263 0-.33-.343-.31-1.572.013-.865.072-1.357.128-1.094.231 1.081.517.363.517-1.298 0-2.04-.426-2.457-.488-.478l-.04 1.298-.086-1.342-.085-1.341-1.33 1.606c-.732.884-1.33 1.751-1.33 1.928 0 .651-.682.655-.885.004-.27-.868-2.492-3.44-2.978-3.447-.334-.006-.392.259-.392 1.771 0 1.426.069 1.777.349 1.777.272 0 .333.256.28 1.162-.045.75-.168 1.137-.35 1.093-.203-.05-.279.478-.279 1.936 0 1.103.074 2.095.164 2.205.333.406 1.76-.175 2.467-1.004zm7.315.719c.078-.247.089-.514.024-.592-.064-.08-.117 0-.117.175a.33.33 0 0 1-.336.32c-.185 0-.336-.052-.336-.115s-.061-.309-.136-.547c-.103-.328.008-.432.467-.432.982 0 .53-.673-.516-.767l-.935-.084v2.491h.872c.602 0 .916-.139 1.013-.449zm-2.332-.918v-1.093h-1.68c-.924 0-1.68.086-1.68.192s.322.598.716 1.094c.591.744.883.9 1.68.9h.964zm-7.167-3.963c0-.646-.067-.684-1.231-.684s-1.232.038-1.232.684.067.683 1.232.683c1.164 0 1.231-.037 1.231-.683m25.25 7.883a.72.72 0 0 1 .56 0c.154.075.028.137-.28.137s-.434-.062-.28-.137m-8.63-1.74c-.281-.141-.684-.626-.896-1.08-.21-.452-.56-.824-.775-.825-.216 0-.392-.124-.392-.275 0-.15.179-.273.398-.273.236 0 .501-.33.648-.806.249-.803.247-.806-.678-.917-.864-.104-.85-.112.191-.118.616-.004 1.377-.131 1.691-.285s.846-.215 1.181-.137c.612.143 1.495 1.232 1.495 1.844 0 .488.997.307 1.077-.195a.506.506 0 0 0-.336-.553c-.222-.066.049-.116.603-.111.554.004.838.056.63.114-.43.118-.57.685-.443 1.78.11.947.709 1.005.709.068 0-.532.111-.68.504-.664.465.016.47.035.068.227-.416.199-.414.215.056.365.453.145.492.06.492-1.073 0-1-.084-1.257-.448-1.373-.69-.22-.53-.626.248-.626.542 0 .666.096.56.433-.075.238-.138 1.437-.14 2.665-.002 1.357-.079 2.087-.196 1.86-.107-.204-.144-.604-.083-.888.083-.386-.009-.516-.363-.516-.261 0-.474.123-.474.273s-.303.274-.672.274c-.47 0-.672-.133-.672-.442 0-.308-.136-.399-.448-.3-.311.1-.453.007-.464-.31-.013-.352-.054-.331-.193.095-.144.445-.068.578.408.72.557.163.55.173-.13.204-.395.02-.847.247-1.008.51-.334.547-1.393.711-2.148.335zm1.744-.54c.253-.199.147-.266-.43-.269-.953-.006-1.586-.672-1.586-1.67 0-.846-.43-1.388-.48-.605-.08 1.259.056 1.898.499 2.34.524.523 1.47.62 1.997.204m.672-1.64q0-1.093-.448-1.64c-.495-.604-1.213-.743-1.06-.205.053.188.309.333.568.322.358-.016.424.079.278.399-.106.23-.47.424-.81.43-.339.006-.659.165-.71.353-.053.19.038.29.203.228 1.169-.446 1.53-.433 1.53.054 0 .273-.12.645-.268.825-.209.255-.16.328.224.328.426 0 .493-.149.493-1.093zm-1.852-2.078c-.148-.18-.836.188-.836.448 0 .39.78.432.86.045.042-.204.03-.426-.024-.493m-4.419.096c0-.546.112-.683.56-.683.392 0 .56.15.56.497 0 .273-.1.572-.224.665-.123.093-.224.023-.224-.154 0-.24-.086-.236-.336.016-.283.287-.336.234-.336-.342zm8.398-.478c.076-.15.233-.273.35-.273.115 0 .21.123.21.273s-.157.274-.35.274c-.191 0-.286-.123-.21-.274m-1.68-1.31c-.307-.061-.633-.253-.724-.426-.12-.228-.165-.22-.168.03-.002.187-.144.341-.315.341-.339 0-.568-.51-.436-.97.132-.457 1.606-.129 1.718.383.085.394.1.39.124-.029.028-.529.584-.65.823-.179.23.457-.392.975-1.021.85zm2.52.016c-.154-.066-.28-.294-.28-.507s-.098-.387-.217-.387c-.12 0-.159.185-.088.41.077.244.002.41-.183.41-.172 0-.328-.246-.346-.547-.03-.49.104-.546 1.296-.546 1.11 0 1.332.078 1.345.478.013.411.044.402.22-.069.185-.493.2-.48.152.134-.044.576-.172.685-.836.711-.43.017-.91-.022-1.063-.087zm-8.267-.502c-.155-.494.23-1.08.55-.837.12.09.27.411.335.714.088.412.008.551-.316.551a.64.64 0 0 1-.569-.428m1.669.204c-.43-.209-.246-.766.271-.825 1.241-.14 1.472-.225 1.608-.591.092-.247.159-.038.168.524.01.513-.05.853-.131.754s-.29-.035-.465.142c-.248.25-.363.234-.521-.071-.142-.273-.205-.288-.207-.05-.004.374-.145.397-.723.117m1.857-2.396c.01-.318.064-.383.135-.165.065.197.057.433-.018.524-.075.09-.128-.07-.118-.359zm-7.688-.122c.64-.314.652-.599.021-.487-.266.047-.53-.086-.589-.295-.079-.282.048-.344.492-.24.753.175.659-.381-.108-.643-.352-.12-.051-.195.856-.213l1.4-.025v-2.324c0-1.278.082-2.323.183-2.323s.354-.663.564-1.474.53-1.625.712-1.81c.527-.534.4-.944-.663-2.14-.989-1.113-1.005-1.12-2.463-1.002-1.369.11-1.468.08-1.468-.45 0-.434.106-.534.448-.425.246.078.447.05.447-.063s.455-.064 1.011.108c.706.219 1.341.71 2.106 1.63.602.723 1.18 1.269 1.284 1.211s.568-.391 1.03-.742c.798-.606.84-.71.84-2.076 0-1.387.021-1.434.56-1.308.454.106.56.023.56-.448 0-.318.1-.578.224-.578.123 0 .237-.585.254-1.299.03-1.274.077-1.097.322 1.23.105.996.198 1.162.65 1.162.29 0 .579-.154.64-.342.063-.188.122.182.131.82.016 1.129.04 1.162.76 1.162.532 0 .924-.232 1.386-.82.614-.782.729-.82 2.505-.82 1.092 0 1.862-.113 1.862-.273 0-.446.836-.311.983.159.234.744.152.908-.368.736-.277-.092-1.311-.216-2.298-.276-1.693-.103-1.825-.07-2.334.592l-.54.702 5.357.043c2.947.023 4.884.116 4.305.205l-1.053.162.045 6.287.046 6.287 1.007.164c.555.09-1.436.182-4.423.205l-5.43.041v-.94c0-.518.1-1.017.224-1.11.554-.418.099-.647-1.456-.73-.924-.05-1.68-.016-1.68.073 0 .09-1.007.105-2.239.033-1.967-.116-2.24-.077-2.24.315 0 .246.101.446.225.446.123 0 .224.492.224 1.094v1.093l-2.408-.016c-1.67-.013-2.253-.093-1.903-.264zm2.071-.812c0-.715-.08-.82-.624-.82-.533 0-.631.12-.675.82-.046.744.01.82.624.82.601 0 .675-.09.675-.82m2.016-.136c0-.615-.09-.683-.896-.683s-.896.068-.896.683.09.683.896.683.896-.068.896-.683m9.182-2.187c0-1.585-.093-2.87-.208-2.87s-.32-.66-.458-1.468c-.302-1.773-1.444-3.54-2.585-4-.56-.226-.78-.476-.78-.886 0-.794-.212-.459-.273.43-.027.402-.126.73-.22.73s-.135-.369-.092-.82c.062-.652-.01-.82-.34-.82-.3 0-.429.215-.453.752l-.033.752-.094-.752c-.154-1.244-.51-.846-.51.57 0 1.32.001 1.323.773 1.359.596.025.745-.057.648-.366-.07-.22-.016-.401.122-.401.136 0 .247.19.247.42 0 .232.403.889.895 1.46.516.6.954 1.403 1.035 1.902.112.68.256.865.674.865.515 0 .532.068.532 2.17 0 1.194-.101 2.247-.224 2.34-.124.093-.224.469-.224.836 0 .58.102.667.783.667h.784zm2.645 1.845c.063-.793.01-.888-.504-.888-.47 0-.574-.13-.574-.715 0-.62.077-.698.571-.582.553.128.569.092.504-1.13l-.067-1.263-1.064-.084-1.064-.083v5.8l1.064-.083c1.02-.08 1.067-.12 1.134-.972zm3.85-1.525c0-2.463-.017-2.55-.5-2.528-.522.022-.713-.634-.292-1 .364-.315.526-.247.637.27.056.263.114-1.226.128-3.308l.026-3.787-4.343.097c-3.894.086-4.392.15-4.816.618l-.472.521.617.467c1.003.76 1.663 1.8 2.067 3.255l.38 1.367.752-.947c.56-.705.942-.948 1.492-.948.407 0 .74-.123.74-.274 0-.575.673-.247.703.342l.03.615.098-.62c.114-.724.513-.549.513.226 0 .52-.538.743-.756.312-.061-.12-.5-.247-.976-.281-.676-.05-.982.089-1.397.628-.293.38-.414.692-.27.692.145 0 .264.111.264.247 0 .137-.202.184-.448.105-.25-.08-.448-.01-.448.163 0 .2.714.318 2.071.342 1.14.02 1.82.094 1.512.164s-.634.269-.724.442c-.206.392-.225 4.94-.022 5.188.082.1.889.182 1.792.182h1.642zm-16.322-.525c.034-1.83-.016-2.213-.314-2.438-.133-.101.107-.263.533-.361.65-.149.854-.384 1.264-1.457l.488-1.28-.538-.66c-.678-.834-1.055-.524-1.581 1.297-.203.703-.51 1.602-.681 1.998-.186.427-.304 1.457-.29 2.529.02 1.716.048 1.807.557 1.807.493 0 .537-.113.562-1.435m6.134.02 2.125.106v-2.791l-1.288-.046c-.955-.034-1.07-.074-.447-.153.461-.06.84-.165.84-.236s-.154-.578-.342-1.126l-.341-.997-.896 1.068c-.77.917-.84 1.093-.499 1.245.33.147.304.194-.153.279-.359.067-.605.34-.706.786l-.154.683-.022-.752c-.015-.521-.142-.753-.414-.755-.277-.002-.31-.068-.113-.22.198-.154.028-.514-.597-1.259l-.875-1.042-.355.839c-.486 1.148-.448 1.412.205 1.412.307 0 .56.123.56.274 0 .15-.504.273-1.12.273h-1.12v2.437l1.736.08c.954.044 1.761.013 1.794-.066.032-.08 1.014-.098 2.183-.04zm-1.95-3.848c-.036-.19.176-.638.47-.998.428-.522.615-.594.927-.356.37.282.663.186.663-.218 0-.237-1.042-.819-1.467-.819-.197 0-.338.296-.359.752l-.033.752-.095-.777c-.085-.688-.164-.755-.695-.595-1.024.308-1.074.623-.263 1.644.83 1.046.948 1.131.851.615m-.852-4.199c0-.81-.1-1.472-.224-1.472-.123 0-.224.231-.224.514 0 .311-.261.645-.664.85-1.108.56-1.232.956-.544 1.734.566.64.64.658 1.131.266.443-.354.525-.65.525-1.892zm3.471-1.26c.128-.116.056-.205-.168-.208-.217-.002-.391.199-.391.452 0 .25.075.344.168.208.092-.136.268-.34.391-.451m-2.557-1.1c.013-.274.04-.274.13 0 .062.188.407.341.767.341.503 0 .653-.124.653-.546 0-.49-.15-.547-1.456-.547s-1.456.056-1.456.547c0 .425.15.546.672.546.379 0 .68-.149.69-.341M90.28 774.192c.005-.45.055-.602.112-.336s.053.635-.008.82c-.062.185-.108-.033-.103-.484zm35.116-3.006v-2.87h-.784c-.721 0-.784-.066-.784-.82 0-.79-.038-.82-1.001-.82-.937 0-1.015.056-1.211.888l-.21.888-.022-.868c-.013-.584-.149-.91-.412-.994-.216-.068.332-.139 1.217-.156l1.61-.032.07-.889c.061-.781.158-.899.798-.974l.728-.085v-5.433h8.286v5.467h.784c.746 0 .783.046.783.957v.957h1.584c1.408 0 1.546.045 1.248.41-.236.287-.304.765-.23 1.594.083.915.033 1.185-.22 1.185-.26 0-.301-.294-.203-1.458l.124-1.458h-1.152c-1.13 0-1.15.016-1.15.82 0 .755-.063.82-.784.82h-.784v5.74h-8.286zm3.76.105.064-2.354-.66-.333c-.362-.184-.894-.293-1.183-.243-.497.086-.529.213-.591 2.391-.036 1.266-.013 2.47.053 2.679.083.265.436.353 1.185.296l1.067-.082zm.685.845c-.005-.748-.1-1.36-.212-1.36-.11 0-.202.683-.202 1.519 0 .882.089 1.453.211 1.36.116-.087.207-.771.203-1.52m2.45-1.156.063-2.665h-.694c-1.403 0-1.561.303-1.561 2.987v2.422l1.063-.04 1.064-.039zm-6.223 1.572c0-.58.11-.958.28-.96q.28-.004-.056-.274c-.299-.24-.299-.3 0-.539q.336-.27.056-.273c-.154-.002-.28-.189-.28-.414 0-.226.126-.42.28-.432.224-.016.224-.049 0-.16-.154-.075-.28-.38-.28-.677s-.101-.464-.224-.371-.224 1.268-.224 2.613c0 1.447.091 2.444.224 2.444.123 0 .224-.43.224-.957zm7.39-1.64c0-1.549-.09-2.597-.224-2.597-.123 0-.224.34-.224.754a8.6 8.6 0 0 1-.205 1.625c-.144.614-.128.91.056 1.002.181.091.158.22-.075.421-.228.197-.246.291-.056.294.154.002.28.25.28.551 0 .3.1.547.224.547.134 0 .224-1.048.224-2.597m-3.523-2.503c-.151-.075-.454-.08-.672-.01s-.094.13.276.137c.37.006.548-.051.396-.126zm-4.539-1.87c0-1.422-.03-1.504-.56-1.504-.448 0-.56.137-.56.683 0 .516.124.693.504.721l.504.037-.504.119c-.76.179-.711 1.447.056 1.447.53 0 .56-.082.56-1.504zm.753 1.093c-.082-.26.004-.41.23-.41.199 0 .36.185.36.41 0 .26.215.41.584.41.44 0 .55-.106.448-.432a3 3 0 0 1-.136-.714c0-.173-.297-.214-.766-.106-.444.102-.826.057-.909-.106-.079-.155.04-.292.262-.304.236-.012.288-.079.125-.16-.153-.075-.28-.373-.28-.66 0-.289-.1-.525-.223-.525-.124 0-.225.677-.225 1.504 0 1.14.08 1.503.33 1.503.2 0 .278-.16.2-.41zm3.054.12c0-.159-.1-.213-.224-.12-.123.093-.224-.023-.224-.257s-.1-.427-.222-.427c-.3 0-.14-1.174.178-1.303.15-.061.232.195.203.644-.026.41.078.798.23.861.19.079.254-.14.202-.687-.096-1.007-.305-1.428-.708-1.428-.632 0-.936 1.76-.464 2.691.2.396 1.03.417 1.03.026zm1.75-.394c.207-.553.196-.683-.06-.683-.174 0-.382.255-.463.567-.089.34-.273.507-.463.418-.174-.081-.316-.029-.316.117 0 .59 1.053.252 1.303-.419zm1.353-.82c0-1.42-.03-1.503-.559-1.503-.478 0-.535.088-.396.615.089.338.162.738.162.888s-.073.55-.162.889c-.14.526-.082.615.396.615.529 0 .56-.083.56-1.504m1.182.889.031-.615.099.63c.078.501.223.615.697.548.812-.115 1.006-1.296.222-1.352l-.52-.037.505-.119c.357-.084.504-.311.504-.783 0-.556-.11-.664-.672-.664-.48 0-.68.136-.698.478-.024.433-.036.434-.126.02-.054-.253-.295-.442-.534-.42-.311.029-.43.235-.418.733.013.633.032.645.208.147.178-.504.194-.507.208-.04.01.331.13.455.345.354.18-.084.388-.036.46.108.074.144-.074.261-.328.261-.284 0-.467.184-.477.479-.013.409-.043.399-.208-.069-.136-.387-.197-.423-.208-.123-.016.445.395 1.08.7 1.08.1 0 .194-.277.21-.615zm-3.3-.524c-.064-.125-.21-.228-.326-.228s-.211.102-.211.228c0 .125.147.227.326.227s.274-.102.21-.227m-2.553-.752c0-.138.062-.446.136-.684.103-.326-.009-.432-.447-.432-.322 0-.586.154-.588.342q-.004.341-.22-.069c-.12-.225-.22-.316-.22-.201-.003.115.12.453.273.752.28.545 1.066.76 1.066.292zm2.464.13c0-.066-.101-.196-.224-.29-.123-.092-.224-.038-.224.121 0 .16.1.29.224.29.123 0 .224-.055.224-.12m.92-.494c-.192-.63-.92-1.026-.92-.499 0 .162.111.294.248.294.136 0 .19.184.119.41-.088.277.01.41.304.41.356 0 .4-.11.248-.615zm-4.951-1.845c0-.301.126-.557.28-.569.224-.016.224-.049 0-.16-.154-.075-.28-.311-.28-.524s.126-.39.28-.392q.28-.003-.056-.273c-.299-.24-.299-.3 0-.539q.336-.27.056-.273c-.154-.002-.28-.189-.28-.414 0-.226.126-.42.28-.432.224-.016.224-.049 0-.16-.154-.075-.28-.311-.28-.524s-.101-.388-.224-.388c-.134 0-.224 1.048-.224 2.597 0 1.55.09 2.597.224 2.597.123 0 .224-.246.224-.547zm2.865.314c.208-.162.27-.869.224-2.525l-.066-2.3-1.064-.083-1.063-.083v5.223l.84-.004c.461-.002.97-.105 1.129-.228m3.405-2.364v-2.597h-2.24v2.414c0 1.328.068 2.497.15 2.597s.586.182 1.12.182h.97zm1.12 0c0-1.896-.076-2.597-.28-2.597s-.28.701-.28 2.596.076 2.597.28 2.597.28-.701.28-2.596m-3.583-.804c0-.818-.1-1.564-.224-1.657-.14-.105-.224.453-.224 1.488 0 .922.099 1.656.224 1.656.123 0 .224-.67.224-1.487m-39.72 11.464c-.07-.225-.03-.41.089-.41s.217.185.217.41-.04.41-.089.41-.146-.184-.216-.41m-3.502-.957c0-.15.101-.273.224-.273.124 0 .225.123.225.273s-.101.274-.225.274c-.123 0-.224-.123-.224-.274m3.14.069c.001-.113.1-.39.22-.615.175-.332.217-.293.22.205.002.338-.097.615-.22.615-.124 0-.223-.092-.22-.205m-1.968-.752c.03-.452.181-.683.445-.683.501 0 .538.97.045 1.2-.523.246-.541.227-.49-.517zm9.507-.436c-.067-.316-.035-.839.072-1.162.157-.474.197-.363.209.573.016 1.267-.089 1.485-.28.589m-1.273-.306c0-.118.202-.215.448-.215s.448.116.448.257c0 .14-.202.238-.448.215s-.448-.138-.448-.257m25.188-.98a2.7 2.7 0 0 0 .118-.487c0-.365.414-.03.509.413.084.393.004.517-.316.488-.263-.023-.383-.183-.31-.413m-38.68-1.33a.72.72 0 0 1 .56 0c.153.077.027.139-.28.139-.309 0-.435-.062-.28-.138m1.097-.028c.308-.24.496-4.948.22-5.482-.103-.198-.328-.294-.5-.213-.219.102-.314-.067-.314-.558 0-.497.094-.66.32-.554.465.218.872-.525.712-1.3-.076-.37-.036-.747.087-.84.147-.112.225 1.442.225 4.493 0 4.655 0 4.663-.504 4.659-.3-.002-.4-.086-.245-.205zm1.422-.092c0-.135.302-.246.672-.246h.671V753.28h-1.002c-1.198 0-1.28.22-1.184 3.212.035 1.09-.013 1.982-.106 1.982-.094 0-.17-1.163-.17-2.584v-2.584l-1.4-.097c-.825-.057-.327-.119 1.213-.15 1.847-.037 2.646-.153 2.726-.394.09-.274.116-.274.13 0 .011.188.214.341.453.341.35 0 .452-.23.52-1.161l.087-1.162.039 1.162.039 1.161h5.823v-2.46h-6.914l-.09.889c-.05.488-.097.089-.105-.889-.01-1.258.04-1.577.166-1.093.172.656.18.658.202.068.02-.596.47-.907.47-.325 0 .16.116.202.258.094q.254-.188.084.151c-.236.465.27.823 1.17.828.683.004.828-.187.75-.987-.015-.169.233-.307.555-.307.499 0 .568.097.478.67-.1.642-.064.665.82.527a15 15 0 0 1 1.54-.158c.569-.013.617-.102.641-1.176.013-.639.076-.924.136-.634.123.586.598 1.25.894 1.25.106 0 .216.368.244.82.028.45-.051.82-.176.82s-.228-.124-.228-.274-.151-.273-.336-.273c-.249 0-.336.319-.336 1.23 0 .91.087 1.23.336 1.23q.336 0 .336-.82c0-.451.096-.82.213-.82.129 0 .219 3.22.228 8.2l.016 8.2-1.74.046c-6.197.162-8.123.144-8.123-.073zm2.253-.45c.107-1.619.06-4.797-.072-4.896-.095-.072-.108-.26-.028-.419.25-.494.14-8.19-.121-8.51-.172-.21-.24 1.763-.24 6.867 0 4.593.08 7.162.223 7.162.124 0 .23-.092.238-.205m1.363-.548.034-.751.093.751c.078.624.206.752.75.752h.658v-14.193l-1.232.02-1.232.019v7.078c0 6.897.01 7.079.448 7.079.331 0 .457-.196.482-.752zm.002-1.435c0-.375.051-.53.113-.341.063.188.063.495 0 .683-.062.188-.113.034-.113-.342m0-1.366c0-.376.051-.53.113-.342s.063.495 0 .683c-.062.188-.113.035-.113-.341m-.018-1.253c.01-.319.064-.383.135-.165.065.197.057.433-.018.523s-.128-.07-.118-.358zm0-1.367c.01-.318.064-.383.135-.165.065.197.057.433-.018.524-.075.09-.128-.071-.118-.359zm.018-1.48c0-.376.051-.53.113-.342s.063.495 0 .683c-.062.188-.113.034-.113-.342m0-1.64c0-.376.051-.53.113-.342s.063.495 0 .683c-.062.188-.113.034-.113-.342m0-1.367c0-.376.051-.53.113-.342s.063.495 0 .683c-.062.188-.113.035-.113-.341m.022-1.777c.003-.602.048-.815.102-.475s.051.832-.005 1.093c-.057.261-.1-.016-.098-.618zm2.125 5.809c-.041-1.24-.075-.226-.075 2.255s.034 3.495.075 2.255c.042-1.24.042-3.27 0-4.51m1.419 6.287c.013-.274.04-.274.13 0 .063.187.35.341.638.341h.523l-.061-5.672c-.035-3.12-.077-6.318-.095-7.107l-.033-1.435h-2.24v14.214h.56c.308 0 .568-.154.578-.341m-.018-.905c0-.234.102-.349.227-.254s.17.286.099.426c-.192.379-.327.308-.327-.172zm.018-1.1c.01-.318.064-.383.135-.165.065.197.057.433-.018.524-.074.09-.127-.071-.118-.36zm0-1.093c.01-.319.064-.384.135-.166.065.198.057.433-.018.524-.074.09-.127-.07-.118-.359zm0-4.92c.01-.319.064-.384.135-.166.065.197.057.433-.018.524-.074.09-.127-.07-.118-.359zm0-2.46c.01-.32.064-.384.135-.166.065.197.057.433-.018.524-.074.09-.127-.07-.118-.359zm.019-1.481c0-.376.05-.53.112-.342.063.188.063.495 0 .683-.062.188-.112.034-.112-.341m2.204 5.193c0-4.556-.08-7.107-.224-7.107-.279 0-.26-.54-.258 7.244 0 7.647-.024 6.97.258 6.97.143 0 .224-2.551.224-7.107m-3.878-5.518c-.072-.218-.125-.153-.136.165-.01.289.043.45.118.359.074-.09.082-.327.018-.524zm8.286 2.061c-.084-.103-.147-1.858-.14-3.9.011-2.5.081-3.513.217-3.098.172.52.386.622 1.386.66l1.183.044-1.232.16c-1.194.156-1.234.187-1.302 1.05l-.07.887h5.594c4.266 0 5.621-.08 5.707-.341.07-.213.12-.17.131.114.01.25.144.517.298.593.224.11.224.142 0 .16-.191.016-.28.543-.28 1.661v1.64h.784c.642 0 .783-.101.783-.564 0-.427-.121-.543-.503-.478-.378.064-.504-.05-.504-.461 0-.391.143-.54.504-.525.408.016.503-.126.503-.752 0-.425.082-.773.183-.773s.138.736.085 1.637c-.09 1.51-.057 1.654.417 1.869.369.166-.117.278-1.709.393-3.168.23-11.852.247-12.035.023zm1.596-1.326c-.05-.527-.011-.957.087-.957.099 0 .186.461.195 1.025.013.822.054.917.208.478.165-.467.195-.477.208-.068.013.372.214.478.912.478h.896v-1.64c0-1.567-.024-1.64-.56-1.64-.41 0-.56.146-.56.547 0 .757-.444.691-.466-.069-.01-.354-.069-.457-.139-.242-.103.314-.151.314-.315 0-.139-.268-.195-.18-.2.31-.005.523-.055.59-.213.287-.113-.218-.156-.495-.095-.615s-.198-.218-.574-.218h-.685v3.28h.696c.664 0 .692-.044.605-.957m.934-.342c-.003-.409-.035-.419-.22-.069-.166.313-.214.216-.203-.41.008-.45.065-.666.127-.478s.382.345.71.35c.519.006.545.045.2.29-.217.155-.337.398-.266.539.072.14.024.256-.107.256-.13 0-.239-.215-.24-.478zm2.915 1.109c-.185-.081-.462-.34-.616-.578-.246-.379-.28-.358-.28.168 0 .477.126.595.616.578.34-.013.466-.087.28-.168m1.792-1.45v-1.64h-1.414l.595.623c.752.788.753 1.372.005 2.09l-.59.566h1.404zm1.567.82c0-.693-.087-.82-.56-.82-.472 0-.56.127-.56.82 0 .692.088.82.56.82s.56-.128.56-.82m.687.41c.143.438.184.358.21-.41s.066-.85.208-.41c.097.3.13.7.072.888-.07.23.133.341.62.341.713 0 .723-.016.586-1.025a16 16 0 0 1-.14-1.64c-.003-.473-.132-.615-.563-.615-.455 0-.565.14-.586.752l-.027.752-.17-.82c-.157-.752-.174-.718-.201.41-.022.902-.088 1.12-.248.82-.16-.305-.21-.165-.194.546.013.606.065.756.139.41l.116-.546zm-3.91-1.157c-.228-.278-.416.14-.23.51.142.278.195.279.27 0 .052-.19.034-.42-.04-.51zm.76.183c0-.141-.1-.257-.224-.257-.123 0-.224.192-.224.426 0 .235.1.35.224.257a.6.6 0 0 0 .224-.426m-.112-.804a.55.55 0 0 0-.448-.273.55.55 0 0 0-.448.273c-.078.156.114.274.448.274s.527-.118.448-.274m2.575-.41c0-.546-.111-.683-.56-.683-.447 0-.56.137-.56.683 0 .547.113.684.56.684s.56-.137.56-.684m.38-.336c-.057-.266-.107-.115-.112.336s.042.669.103.484c.062-.185.065-.554.01-.82zm-3.85-.02c.417-.288.405-.31-.169-.318-.492-.006-.615.115-.612.607.002.35.074.487.168.318.09-.163.366-.436.612-.607m.371-1.898c-.035-.878-.049-.889-1.211-.93-.647-.022-.91-.09-.585-.151.444-.084.565-.236.485-.612-.06-.275.002-.583.136-.684s.244-.038.244.14c0 .243.075.245.31.01.24-.244.34-.215.448.127.076.243.082.553.013.69-.07.137.41.27 1.063.297 1.103.044 1.121.055.25.151-.865.096-.945.172-1.027.978l-.09.873zm3.65-1.142c1.43-.143 1.57-.213 1.696-.84.13-.65.143-.64.25.205l.113.889-1.808-.049-1.81-.048zm-13.763-2.327c0-.234.101-.426.224-.426.124 0 .224.115.224.257 0 .141-.1.333-.224.426-.123.093-.224-.022-.224-.257m27.501 5.587c.036-.578-.049-.82-.288-.82-.228 0-.34.27-.34.82 0 .487.118.82.289.82.16 0 .311-.365.34-.82m1.388 0c0-.668-.093-.82-.504-.82-.41 0-.504.152-.504.82 0 .669.094.82.504.82s.504-.151.504-.82m2.24.137c0-.492.12-.683.431-.683.237 0 .468.215.513.478.066.385.109.356.222-.148.138-.616.113-.625-1.465-.547-1.566.078-1.607.098-1.676.832-.068.723-.031.751.952.751.942 0 1.023-.054 1.023-.683m-1.2.22c-.264-.321-.148-.812.192-.812.185 0 .336.156.336.348 0 .42-.33.708-.529.464zm3.57-.56c-.24-.294-.368.118-.199.643.159.492.17.493.249.016.045-.275.024-.572-.05-.66zm2.109.204v-.82l-1.512.038c-1.14.03-1.319.08-.728.205.431.091.794.32.806.508.014.188.038.465.056.615s.336.274.706.274c.597 0 .672-.092.672-.82zm2.463 0c0-.79-.037-.82-1.008-.82-.97 0-1.008.028-1.008.82 0 .79.038.82 1.008.82s1.008-.03 1.008-.82m-1.344-.017c0-.31.101-.486.224-.393.124.093.224.346.224.562s-.1.394-.224.394c-.123 0-.224-.253-.224-.563m2.255-.53c.115 0 .209.184.209.41s.097.41.216.41c.12 0 .16-.184.089-.41-.08-.254 0-.41.21-.41.23 0 .321.221.28.683-.055.609.02.684.691.684.688 0 .753-.072.753-.82v-.82h-2.911l.033.888c.032.827.04.836.127.136.052-.413.188-.751.303-.751zm-10.093-1.367c0-.68-.09-.82-.529-.82-.443 0-.511.11-.421.683.066.428.005.684-.167.684-.152 0-.217-.183-.146-.41s.027-.41-.1-.41c-.128 0-.169-.123-.093-.274.077-.15-.018-.273-.21-.273-.239 0-.35.26-.35.82 0 .79.038.82 1.008.82s1.008-.03 1.008-.82zm1.633.274c-.065-.301-.217-.547-.34-.547-.121 0-.163.185-.092.41.07.225.031.41-.088.41-.12 0-.217-.246-.217-.547 0-.703.892-.77.903-.068.005.44.029.443.288.026.32-.514 1.857-.626 2.096-.153.083.164.033.346-.112.405-.721.294-.104.609 1.192.609h1.455v-1.64h-6.426l-.018.82c-.019.752.043.82.728.82.638 0 .731-.081.631-.547zm.994.381c-.074-.09-.268-.1-.43-.022-.178.087-.125.152.136.165.236.013.368-.053.294-.144zm6.555-.655c0-.692-.087-.82-.56-.82-.458 0-.563.137-.576.752-.013.656-.038.682-.196.205-.099-.3-.136-.639-.083-.752s-.06-.205-.252-.205c-.238 0-.349.26-.349.82 0 .79.037.82 1.008.82.97 0 1.008-.029 1.008-.82zm3.36 0c0-.818-.003-.82-1.289-.798-.708.013-1.161.083-1.007.16.154.075.28.373.28.661 0 .602-.486.587-.712-.023-.11-.296-.157-.238-.168.205-.016.577.074.616 1.44.616h1.455zm-1.73 0c-.02-.3.099-.546.261-.546.163 0 .349.246.413.546.083.388.01.547-.262.547-.219 0-.393-.232-.413-.547m6.141-.068.082-.752h-1.463c-1.443 0-1.463.01-1.479.752-.013.656-.039.682-.196.205-.1-.3-.136-.64-.083-.752.054-.113-.11-.205-.364-.205-.364 0-.461.174-.461.83v.831l1.941-.079c1.93-.078 1.942-.083 2.023-.83zm-2.329.395c-.171-.13-.196-.347-.068-.6.24-.473.519-.216.412.381-.045.253-.184.341-.344.22m8.219-1.42v-1.914h-5.6v3.827h5.6zm-4.927 1.093c0-.3.079-.547.176-.547s.176.246.176.547c0 .3-.08.547-.176.547-.097 0-.176-.246-.176-.547m.687-.066c.016-.586.024-.59.2-.07.17.501.198.507.344.068.114-.338.412-.478 1.02-.478 1.702 0 1.22.991-.516 1.057-.968.037-1.062-.016-1.048-.577zm.072-1.69c-.162-.514.068-.978.486-.978.18 0 .33.271.338.616.016.582.026.585.19.068.134-.419.387-.549 1.077-.555.758-.006.9.08.9.547 0 .492-.163.563-1.432.631-1.1.06-1.46-.016-1.559-.328zm2.305-.482c-.071-.218-.125-.153-.135.165-.011.289.043.45.117.359.075-.09.083-.327.019-.524zm-3.416.237c-.181-.578-.068-.775.29-.505.167.125.19.341.062.592-.168.332-.224.318-.352-.087zm-17.564-.186c0-.79-.037-.82-1.008-.82-.97 0-1.007.03-1.007.82s.037.82 1.007.82 1.008-.029 1.008-.82m-1.344 0c0-.3.101-.546.224-.546.124 0 .224.246.224.546s-.1.547-.224.547c-.123 0-.224-.246-.224-.547m2.352 0c0-.598-.106-.82-.392-.82s-.392.221-.392.82c0 .6.106.82.392.82s.392-.22.392-.82m1.292.641c-.152-.075-.454-.08-.672-.01s-.094.13.276.136.547-.05.396-.126zm4.418-.64v-.82h-1.68c-1.626 0-1.679.019-1.679.66 0 .363-.126.723-.28.798s.602.148 1.68.16l1.96.022zm2.464 0c0-.698-.086-.82-.573-.82-.315 0-.53.092-.476.204.053.113.016.451-.083.752-.158.477-.182.451-.196-.205-.024-1.081-.688-1.015-.688.068 0 .79.037.82 1.008.82.97 0 1.008-.028 1.008-.82zm1.456.561c-.247-.121-.524-.167-.616-.101-.093.065-.168-.131-.168-.436 0-.457.136-.548.775-.52.426.02.726.131.668.247-.06.116-.004.289.124.385a.36.36 0 0 1 .103.429c-.071.14.129.254.444.254.487 0 .573-.122.573-.82v-.82h-2.911v.82c0 .747.065.818.727.801.597-.016.647-.059.28-.24zm2.635-.393c-.1-.64-.07-.651 1.598-.66 1.663-.01 1.701.005 1.701.667 0 .372.092.607.204.523.112-.085.17-.369.129-.631a14 14 0 0 1-.092-.683c-.01-.112-.874-.205-1.92-.205h-1.904v.82c0 .451.087.82.193.82s.147-.293.09-.65m2.297.39c-.072-.144-.28-.192-.46-.108-.464.217-.41.37.131.37.254 0 .402-.118.33-.262zm.554-.285c0-.15-.106-.274-.237-.274-.13 0-.175.123-.099.274.076.15.183.273.237.273.055 0 .1-.123.1-.273m-13.213-.547c0-.394-.14-.538-.503-.515-.38.022-.407.062-.112.156.215.07.392.301.392.515s.05.39.111.39c.062 0 .112-.246.112-.546zm-4.199-1.001a.72.72 0 0 0-.56 0c-.153.076-.028.138.28.138s.434-.062.28-.138m1.288.073c0-.259-.67-.39-.79-.154-.072.144.075.262.329.262s.461-.048.461-.108m1.344.002c0-.057-.252-.163-.56-.235s-.56-.026-.56.105c0 .13.252.235.56.235s.56-.047.56-.105m3.863-.076c-.154-.076-.287-.343-.296-.593-.013-.364-.054-.345-.208.09-.106.302-.2.379-.208.172-.01-.273-.094-.296-.303-.084-.157.16-.838.336-1.511.393-.805.067-.534.112.79.131 1.109.016 1.89-.033 1.736-.109m1.511-.639c0-.79-.035-.818-.951-.774l-.952.046.84.107c.66.085.84.224.84.654 0 .3-.08.485-.18.411-.097-.074-.324-.022-.503.117-.244.188-.171.252.29.255.536.004.616-.102.616-.816zm2.464 0c0-.677-.088-.814-.504-.788-.38.023-.407.063-.112.157.445.141.478.32.168.905-.185.35-.218.34-.22-.069-.003-.263-.105-.478-.228-.478s-.224.176-.224.39c0 .216-.227.445-.504.51s-.026.135.56.156c1.04.036 1.064.02 1.064-.783zm3.359 0c0-.638-.1-.82-.448-.82-.335 0-.452.19-.465.752l-.019.752-.225-.752c-.193-.646-.34-.746-1.046-.71-.76.037-.771.049-.15.16.602.108.996.467 1.005.914.005.233-.76.204-.892-.033-.062-.111-.242-.033-.4.177-.245.322-.064.38 1.175.38h1.464zm10.302 0v-.82h-9.854v1.64h9.854zm-22.466-.598c-.071-.218-.125-.153-.135.166-.011.288.043.45.117.358.075-.09.083-.326.019-.524zm-.438-.114c-.074-.09-.267-.1-.429-.022-.178.087-.125.152.136.165.236.013.368-.053.294-.144z" style="fill:#000;stroke-width:.264583" transform="translate(-6.472 -742.911)"/><path d="m14.02 802.852-.177-.31h.272l.455-.19.454-.19-.177.5-.176.5h-.475zm7.554 0v-.414l.19.207.19.206-.19.207-.19.207zm1.806.103.19-.207.19.207.19.207h-.76zm.94-.038-.139-.244.707-.064.708-.064.496-.289.496-.289.04.598.042.597H24.46zm2.1-.22v-.156h-.285v.31h.286zm1.27-.074.135-.383-.596-.347-.595-.346-1.508-.046-1.509-.046-.208-.227L23.2 801l-.67.183-.67.183v-.687h-1.032l-.553-.456-.554-.455-.57-.015-.57-.015.387-.267.386-.266-.257-.174-.258-.173-.38.255-.379.255.196.345.196.345h-.889l-.57-.62-.57-.621h-.855v.93h-.548l-.743-.853-.744-.853.09.588.091.589-.356.135-.356.136v-3.354l2.78-.429 2.779-.429.214.063.213.063v-1.861l.642-.03.641-.029 1.07-.01 1.068-.012v-.585l-.32-.678-.32-.677.377.388.377.387h.755l-.467-.775-.467-.776h-.79v.657l-.285-.191-.285-.192v-.62l.236.158.236.159-.131-1.726-.132-1.726.393-.264.393-.264.051-.725.051-.724-.62-.296-.62-.296-.087-1.14-.087-1.138.615.175.616.175.214-.378.214-.377-.093-1.317-.094-1.316-.427-1.113-.428-1.113.42-.176.42-.175v-5.166l1.49.015 1.488.015.094-.51.094-.51-.845-.407-.845-.407.452-.36.452-.359.62.728.62.729.186-.202.185-.202v1.655l-.311-.078-.312-.078.044 5.734.043 5.733.325.219.326.218-1.27.122-1.268.122 2.387.054 2.387.054-.355-.465-.355-.466h.64v-1.285l.466.507.466.507 3.097-.072 3.098-.073v-.825h.608l.555.324.556.323.169-.48.17-.479-.164-.708-.164-.71-1.079-.424-1.079-.425v.223l-.57-.512-.57-.512-.713-.648-.712-.647 1.423.95 1.424.95 1.855.595 1.855.594 1.587.195 1.587.195.372-.488.372-.488-.961-.004-.962-.004-.686-.2-.686-.2.242.437.242.437-.411-.346-.411-.347-1.853-.667-1.853-.666-.428-.301-.428-.301.196-.004.195-.004.789.326.789.327-.53-.637-.53-.636h-.56l-1.417-.95-1.417-.948-.13.142-.13.142 1.087.867 1.088.868.285.306.285.307-.855-.563-.855-.564-.611-.603-.612-.602-.197.347-.197.347.344.452.345.451H31.6l-.125-.387-.125-.388-.628.775-.628.776.274-.62.273-.621 1.193-1.474 1.192-1.474h-.833l-1.45 1.62-1.45 1.62-.872 1.87-.871 1.872-.177 1.629-.177 1.628h-.809l.15-.263.149-.263.052-1.909.053-1.908h.485l-.005-.543-.004-.543-.276.465-.277.465-.004-3.645-.005-3.646h8.301l-.18.318-.181.319-.44-.086-.439-.086-.221.636-.222.636h1.328l-.144-.253-.144-.253-.31.208-.309.208.183-.32.182-.322.734-.152.733-.153-.156.442-.156.442.282-.19.282-.189v-1.049h7.261l.083-.466.082-.465-1.915-.069-1.916-.069-.244-.474-.243-.474-.628-.03-.627-.029.57-.202.57-.201.09-.621.091-.62.113-1.031.113-1.03-.343.124-.344.125-.355-.387-.355-.386-.787.12-.788.119-6.842.787-6.842.787-1.196.17-1.196.169.089 5.335.088 5.336.072.31.072.311-.034.648-.033.649-.657.325-.656.325-.47-.628-.468-.63.156-.965.156-.965.227-.983.227-.983-.288-1.5-.289-1.499-.264-.357-.264-.358.344-.125.344-.125.085-2.583.085-2.583.153-.167.153-.166v-1.1l-.577.048-.577.047.13.369.13.368-.365.543-.364.543-.23-.406-.23-.405.329.222.329.22v-1.122l-.285-.039-.285-.039-.143-.077-.142-.078-.262-.039-.261-.039-.196-.213-.195-.213-.612.248-.613.248-.515-.087-.515-.088.106.344.105.343.378.138.378.137-.17-.3-.17-.298h.833l-.424.511-.425.511.352.414.353.414-.357-.22-.356-.219v.533l.342.372.342.373h-.643l-.59-.82-.591-.818v-2.088l2.922-.004 2.922-.004-.428-.301-.427-.301.52-.004.52-.004-.11-.543-.11-.543-.312.068-.313.068.053-.378.053-.378.23-.4.23-.401.617.199.617.199.287.39.287.39 3.055.147 3.054.148.792-.906.792-.906.57-.326.57-.326-.709.896-.71.895-.376.358-.375.357 1.085.164 1.086.164.909-.037.908-.033-.267-.544-.267-.543v-.351h.809l1.377-1.959 1.377-1.958 2.105-2.861 2.105-2.861.143.155.143.156-1.984 2.57-1.984 2.569-.834 1.24-.834 1.242-.642.773-.641.772v.732l-.16.452-.16.453 2.37.192 2.369.193.997-.278.998-.277-.427-.069-.428-.068.855-.2.855-.201.041-.617.041-.616.03-.561.031-.561.285.191.285.192v-.638l.428.179.427.178.022-.731.02-.731.336-4.577.335-4.577h-.289l-1.21 1.941-1.21 1.941-.01.309-.012.309-.838 1.066-.838 1.067-.211-.23-.211-.23.279-.217.28-.215.849-1.397.85-1.396.035-.537.035-.538.395-.543.396-.544-1.263 1.158-1.263 1.16h-.59l1.695-1.63 1.695-1.629.788-.884.789-.885-.122-.215-.122-.214.565-.046.564-.046-.197.677-.198.678.422-.382.423-.381.666.771.666.772h-.555l-.378-.388-.377-.387.728 1.445.728 1.446.975 1.657.975 1.657 1.889 3.258 1.889 3.258.648 1 .648 1 2.216.007 2.216.007-.489-.854-.489-.853.843.841.843.842 2.063-.189 2.063-.188v-.531h1.14v.931l.214-.036.214-.037.427.041.428.042-.414.285-.414.285-.228-.153-.227-.153v.925l.641.134.642.135-1.07.042-1.068.042v-1.241H57.21v.62l.499.023.498.022-.57.249-.57.249 1.853.19 1.853.19 2.623.128 2.623.127.134-.356.134-.355.023.388.022.387h3.706v.786l-2.351-.213-2.352-.213-1.9-.026-1.9-.025.142.974.14.975-.334.225-.335.225.74.153.738.154v-.534h1.356l.352.461.352.462-.173.489-.172.489-.287-.193-.287-.194-.03.562-.03.561.06 2.327.058 2.327.12 1.396.12 1.397-.023 1.532-.024 1.533-.143.251-.142.252h-1.087l-.311-.633-.31-.632.149-.531.15-.531.171-5.01.171-5.01-.305-.206-.305-.205-.227.152-.227.153.192 2.268.19 2.269-.137.39-.137.39h-1.365v-1.862l.357-.037.356-.036.214.036.214.037v-.946l-.775-.32-.774-.32.281-.216.282-.214.084-.98.084-.979-.803-.186-.803-.186-4.276-.793-4.276-.793-2.618-.465-2.618-.465-.946.548-.945.548-.214-.064-.214-.064v.502l.414.602.413.603-.151-.656-.151-.655.49-.205.491-.205-.339.445-.34.445.3.201.299.202v1.514h.889l-.181.388-.182.388.6-.742.598-.742.207.224.206.225-.494.393-.494.393.158.173.159.172-.876.21-.875.209-.017.208-.017.208-.106 2.632-.105 2.632.306.4.306.402.578-.55.578-.551-.246.465-.246.465.482-.425.482-.426v.398l1.164-.646 1.164-.646-.172-.49-.173-.49.434.392.434.392.448-.404.447-.404-.136-.564-.135-.565.263-.177.263-.177-.164-.288-.164-.29h1.618l.595.455.596.455.226-.222.226-.222-.217.409-.217.408.528.423.527.422-.48.204-.482.203.17.517.17.517-.26-.26-.258-.261v-1.173l-.285.071-.285.072.087.285.087.285-.418-.378-.418-.378-.2.353-.2.352.302.33.302.329-.627.516-.626.516-1.29.806-1.29.807-1.672.475-1.673.476-.292.318-.293.318.436.182.437.182-.098.914-.098.914.208.026.209.025 1.347.113 1.347.113.558.325.559.326h4.884v-1.454l-.546-1.725-.545-1.725-.331-.673-.331-.674-.62.486-.62.485-.571.352-.57.353 1.14-1.113 1.14-1.112.147-.015.147-.015.544 1.319.545 1.318.51 1.552.512 1.551.01.983.01.982.213.13.214.13-.428-.144-.428-.144-.683-.16-.684-.16.22.386.218.386-.533-.285-.533-.285-.913.048-.913.049-.441.398-.441.4v.5l.641.132.641.13-1.057-.003-1.058-.004.148-.26.148-.261h-.604v.894l.285.192.285.191v.584h-1.174l.158-.277.157-.277-.752-.205-.752-.206-.3.328-.301.327h-.517l.165-.469.165-.47-.776.197-.776.196-.642.436-.641.435v.813l.214.233.213.233.036.284.036.285.057.077.058.078.095.543.096.543-.474.015-.474.014-.998.595-.997.594 1.436.015 1.437.015 1.663.471 1.662.471 1.816 1.106 1.816 1.105.163.287.163.288-.446.186-.445.186v.554h.859l1.283-1.418 1.284-1.417.433-.91.432-.91h.332l-.148.699-.148.698-.19 1.008-.191 1.009h.93l-.027-2.094-.028-2.095.575-2.137.576-2.136-.152-.268-.153-.268h.791l-.116.853-.115.854.601 5.74.602 5.74.152.543.153.543 1.335.054 1.335.054-1.207.118-1.207.119.057.758.058.758h1.301l.214.018.214.019.155-.717.156-.716.192.543.191.543h3.514l-.153-1.241-.152-1.242h.379l.374.653.375.654-.342-.23-.342-.23.115 1.072.115 1.072-.687-.143-.687-.143-.27.527-.271.526-.371-.335-.372-.335-.167.473-.166.473h.932l-.181.197-.181.197-.89-.401-.891-.402-.188.317-.187.318-.665-.057-.664-.057-.19-.288-.192-.289-.75-.01-.752-.012.144.475.143.475-.675-1.003-.676-1.003-.784-.004-.783-.004v.931h-.926l.359-.47.358-.47-.68.136-.68.137-.285.045-.285.044.57.267.57.267-1.282-.007-1.283-.007.712-.258.713-.257-1.3.033-1.3.033-.336-.227-.338-.227-.5.349-.502.348.579-.13.578-.129.345.403.345.402-.282.19-.282.19v-.658l-.499.025-.499.026.356.157.357.156v.414l-1.623.076-1.623.077-.226-.387-.226-.387-.004.388-.004.388h-.591l.306-.62.305-.621-.082-.026-.081-.025-.77-.139-.77-.138-.298.607-.298.606.498.142.498.142-1.07.037-1.068.036v-.967l.356.223.356.223-.22-.262-.219-.264-.524-.042-.525-.042.143.593.142.593-.681-.113-.681-.112.067-.369.068-.37-.422.177-.423.177.158.278.158.278h-1.141l.09-.543.09-.543-.23-.62-.228-.622-.02.518-.02.517-.357.13-.356.13.391.517.391.515h-1.477l.14-.396.14-.397-.425-.612-.425-.611-.009.406-.01.406-.289-.195-.29-.195.12-.211.12-.211h-1.316l.132.233.132.232-.373.041-.373.04-1.283.075-1.283.074-.347.04-.348.041.153.434.153.434-.311.21-.312.21.041-.256.04-.256-.033-.388-.034-.388h-.57l.034.233.034.233-.034.31-.034.31h-1.431zm12.13.073v-.155h-.286v.31h.285zm6.841-.31v-.155h-.285v.31h.285zm12.259 0v-.155h-.285v.31h.285zm1.529-.309-.164-.464-.285.193-.286.192.387.266.387.267.062.004.062.004zm-21.485-.312v-.155h-.285v.31h.285zm17.105 0v-.155h-.285v.31h.285zm-24.517-.62v-.155h-.285v.31h.285zm.855-.131v-.287l1.04-.373 1.039-.373 1.17-.007 1.17-.007-.071.355-.072.356h.896l.45-.489.448-.488.172.256.173.255.427.11.428.11.802.145.802.144.382-.345.382-.345.099.283.099.282 1.639.144 1.639.144v-.516h1.174l-.15.263-.149.263 1.843-.015 1.843-.015v-.497h-.57v-.744l.32.348.32.348.396-.165.396-.166-.188.578-.187.577.384-.388.384-.387h.774l-.184.325-.185.325 2.143-.075 2.143-.074.279-.667.279-.667-.227-.4-.227-.4-1.386.179-1.385.178.784-.353.784-.353v-1.431l-2.067-.037-2.067-.037-2.138-.03-2.138-.028-.173-.269-.173-.269-1.11.32-1.11.32-3.862.06-3.863.06-.04.574-.04.576h.569l-.214-.388-.214-.388.43.38.432.379 3.148-.186 3.148-.186.538.34.538.34-1.14-.04-1.14-.039-.659.049-.658.049.14.246.14.246-.619.05-.618.05.418-.28.419-.282-1.705.15-1.705.149-3.172-.018-3.172-.019-.168.7-.169.702.318.315.317.316-.2-.388-.202-.388h.604l.214.007.213.007-.034.613-.034.613h.496zm11.974-.8v-.155h.285v.31h-.285zm7.982 0v-.155h.285v.31h-.285Zm-11.973-.62v-.156h.285v.31h-.285zm2.565-.621v-.155h.285v.31h-.285zm.57 0v-.155h.285v.31h-.285zm.57 0v-.155h.286v.31h-.285zm2.091-.052.19-.207.19.207.19.207h-.76zm.76.052v-.155h.285v.31h-.285zm1.14 0v-.155h.286v.31h-.285zm4.223-.367.375-.164.172.188.172.188-.546-.026-.547-.025zm-7.412-.31.375-.164.172.188.172.187-.546-.025-.547-.026zm1.004.003.19-.207.19.207.19.207h-.76zm.76.052v-.155h.285v.31h-.285zm.856 0v-.155h.285v.31h-.285Zm-10.263-.794v-.329l.285.192.285.191v.274h-.57zm1.995 3.586v-.155h-.285v.31h.285zm2.186-.051-.19-.207-.19.207-.19.207h.76zm-13.019-.394v-.292l-.237-.16-.238-.16v.904h.475zm-3.919-.902-.173-.513-.306-.228-.306-.228-.641-.004-.642-.004v1.509l.642.108.641.11.48-.119.479-.118zm-.642.108v-.155h.285v.31h-.285zm11.403.639v-.137l-.265-.178-.266-.179-.179.315-.179.316h.889zm-6.064-.671-.172-.188-.374.163-.374.163.546.026.546.025zm-13.892-.57v-.137l-.329-.221-.329-.222.204.358.203.359h.251zm10.168-.07-.19-.207-.19.207-.19.206h.76zm3.374-.104.176-.31h-1.174v.62h.822zm-5.94-.827-.19-.207-.19.207-.19.206h.76zm1.608-.48.768-.07v-1.105h-1.14l-.214-.047-.214-.047-.332-.494-.332-.494.332-.226.332-.226-.302-.528-.303-.528-.835-.122-.835-.122-.929.19-.93.19v1.508l.885-.193.884-.192.252.433.252.433.004.232.004.233h-.889l.176.309.175.308.589.343.588.343-.194-.34-.193-.342h.478l.406.614.406.613.172-.302.171-.302zm-2.368-1.439v-.225l.57-.046.57-.047v.45l-.57.047-.57.046zm11.573 1.767.204-.358-.378.254-.377.254.178-.505.178-.505-1.056-.23-1.057-.23-.19-.015-.19-.015-.18-.196-.18-.196-.984.241-.984.242-.003-.355-.003-.356-.544-3.257-.544-3.258-.288-1.009-.289-1.008h.505l.187 1.083.186 1.083.205-.137.205-.138-.032 1.048-.032 1.048.2-.134.198-.133.601 1.058.6 1.057L31 794.61l1.146 1.126.278-.187.279-.187-.182-.32-.182-.32.586.341.586.341h6.594v-1.551h-1.293l-.452-.81-.452-.811-.163.68-.164.68.407-.17.407-.17v.6h-5.169l-.575.336-.575.335-.576-.567-.576-.567-.427-.9-.427-.899.456.19.457.191v-.6h.772l.763-.77.764-.77.632-.375.632-.375.428-.042.428-.042 1.496-.545 1.497-.545v-1.228l.273.184.272.183-.16.455-.161.456h1.168l.165-.291.165-.292-.505-.32-.504-.32.56-.01.56-.012-.523-.543-.523-.543-.13.38-.129.378-1.204-.18-1.205-.18-.323.733-.323.731-.02-.636-.019-.636.316-.344.316-.343-.643-.374-.642-.374-1.392.145-1.393.146-.159-.281-.16-.28-.33.293-.331.294-1.426.071-1.425.072-.373-.04-.374-.04.177-.31.176-.31h-.832l.043 1.396.042 1.396h-.723l.162-.701.161-.702-.595-.695-.595-.695-.345.026-.345.025.315.142.315.141-.142.806-.141.805.502.306.502.306-.356.24-.357.24.467 3.525.467 3.525-.002.853-.002.853h.45l-.011.822-.011.822.816.043.816.043.13-.369.13-.369.337.079.336.078.998.5.998.499.91.01.91.012zm-6.156-3.52v-.155h.285v.31h-.285zm10.263-.31v-.155h.285v.31h-.285zm-8.284-3.602-.321-.654.309-.28.309-.279-.122.19-.122.189.26.744.26.744h-.251zm-.816-2.342-.305-1.193.024-.465.024-.465.388 1.54.389 1.54-.108.118-.108.117zm4.424-1.224-.17-.485v-.326l.392.164.393.164.32-.348.32-.348v1.033l-.542.316-.542.315zm-4.732-1.21v-.155h.285v.31h-.285zm1.426 12.101v-.155h-.286v.31h.286zm-8.553-.31v-.155h-.285v.31h.285zm34.883-.31-.164-.466h-.509v.517l.19.207.19.207h.457zm-29.751-.466v-.31h-.604l.176.31.176.31h.252zm8.837.155v-.155h-.285v.31h.285zm8.838-.62v-.156h-.285v.31h.285zm11.87-1.285-.182-1.44v-1.811l-.242.162-.241.162-.059 2.183-.058 2.183h.962zm-39.523.974v-.155h-.285v.311h.285zm2.783-.057-.496-.142-.645.135-.645.135 1.14.007 1.141.007zm7.102-.019-.126-.233-.184-1.69-.185-1.69-.134-.145-.134-.146v4.137h.889zm22.614-1.154v-.785l-1.354-.043-1.354-.042-1.33-.037-1.33-.037-.184-.199-.183-.199-.553.158-.554.158v.817l.001.817 3.42.087 3.421.087zm2.981.478.164-.29-.29-.194-.29-.195v.967h.252zm1.295-.215v-.503l-.427.386-.428.386v.235h.855zm-22.5-.203-.021-.225-.207-.022-.206-.022-.114.373-.115.372.343-.124.342-.124zm11.097-.07v-.154h-.285v.31h.285zm12.448-.05-.19-.208-.19.207-.19.207h.76zm-1.9-.26v-.155h-.285v.31h.285zm-28.033-.362-.19-.206-.19.206-.19.207h.76zm4.846 0-.19-.206-.19.206-.19.207h.76zm23.757.052v-.155h-.285v.31h.285zm-20.1-.647.69-.493.341.23.342.23-.179-.315-.179-.315 1.085-.532 1.085-.533v-.883h-.723l-.746.31-.746.308-1.117.977-1.117.977.15.265.152.266h.271zm-8.408.045v-.137l-.285-.192-.285-.191v.658h.57zm4.846-.296v-.122l-.442-.184-.443-.185.175.307.174.306h.536zm10.145-.936-.017-1.06-.198.134-.198.134.024.925.024.925h.381zm6.39.903v-.155h-.285v.31h.285zm7.412-.155v-.31h-.251l-.176.31-.177.31h.604zm-30.028-.517-.19-.207v.828l.19-.207.19-.207zm24.041.329v-.085l-.265-.179-.265-.178-.15.263-.15.264h.83zm-9.692-.277v-.155h-.285v.31h.285zm2.716-1.337-.182-.197-.253.446-.253.446.34.45.34.45.094-.7.095-.698zM28.7 792.458v-.155h-.285v.31h.285zm7.887-.362-.19-.206v.827l.19-.207.19-.206zm9.218.38v-.136l-.285-.192-.285-.191v.658h.57zm-8.143-.45.157-.278-.411-.172-.411-.172.158.45.159.45h.19zm-11.908-.55-.19-.207v.828l.19-.207.19-.207zm12.639-.259v-.155h-.285v.31h.285zm-13.969-.31v-.155h-.285v.31h.285zm10.263 0v-.155h-.285v.31h.285zm.719-1.648-.149-.162v.76l-.33-.221-.328-.221.203.358.204.358-.374.004-.373.004.426.293.426.293.221-.653.222-.653zm3.842 1.337v-.155h-.285v.31h.285zm-16.063-.722-.472-.567v-.417h.822l.203.359.204.358-.373-.251-.373-.251.206.363.206.363.265-.179.266-.178v-1.204h-1.996v2.171h1.514zm18.059.102v-.155h-.285v.31h.285zM24.12 786.02l.02-.543h-.852l.12.698.12.698.04.465.042.466.245-.62.245-.621zm13.276-.543.176-.31h-.603v.62h.251zm4.419.155v-.155h-.285v.31h.285zm.855.018v-.137l-.329-.22-.33-.222.204.358.204.358h.251zm.456-.67-.184-.523-.143.155-.142.155.184.523.185.523.142-.155.143-.155zm-19.081-.022-.19-.206-.19.206-.19.207h.76zm16.669-.348-.374-.135-.302.328-.3.328.674-.192.676-.192zm3.096.4v-.155h-.285v.31h.285zm1.996 0v-.155h-.285v.31h.285zm1.425 0v-.155h-.285v.31h.285zm-24.44-.747.141-.59-.679-.142-.679-.141v1.465h1.074zm8.114.404-.173-.187-.374.163-.374.163.546.026.547.025zm11.48.033v-.155H42.1v.31h.285zm-8.552-.31v-.155h-.285v.31h.285zm.855 0v-.155h-.285v.31h.285zm4.276 0v-.155h-.285v.31h.285zm5.987-.155.427-.3h-1.14l-.428.3-.427.3h1.14zm3.326.103-.19-.206-.19.206-.19.207h.76zm-7.887-.258v-.155h-.286v.31h.286zm1.425 0v-.155h-.285v.31h.285zm-9.043-.382-1.203-.119-1.363.117-1.362.116 2.565.002 2.566.002zm-9.202-.239v-.155h-.285v.31h.285zm1.045-.362-.19-.207-.19.207-.19.207h.76zm19.623-.58-.855-.426-.57.01-.57.012.997.418.998.418.428-.002.427-.002zm-19.883-1.708-.073-1.875-.498.14-.5.139v-.562h.89l-.177-.311-.176-.31h-.726l-.022.387-.022.388-.206 1.47-.207 1.47.358.469.358.47h1.072zm15.541 1.36-.35-.154-.505.143-.505.143.856.01.855.012zm.073-.977-.16-.174-.35.386-.352.385.51-.211.512-.212zm-1.005.095v-.155h-.285v.31h.285zm.285-.62v-.155h-.285v.31h.285zm24.137-.362-.19-.207v.827l.19-.206.19-.207zm-43.704-.88.164-.465h-.552v.931h.224zm43.8.31v-.154h-.286v.31h.285zm-20.812-.587v-.122l-1.116-.116-1.116-.116.135.238.135.24h1.962zm20.78-2.191.022-2.314-.262-.711-.263-.712-.018 3.025-.018 3.025h.517zm-23.63 1.884v-.119l-.571-.162-.57-.163.159.282.16.281h.821zm-1.521-.398-.19-.207-.19.207-.19.207h.76zm3.797-2.043-.005-2.25-.276.466-.276.466-.005 1.784-.004 1.784h.57zm-22.393-.174.018-1.92h-.427l-.003.853-.004.853-.182 1.206-.183 1.205.381-.139.381-.138zm17.74 1.907-.19-.207-.19.207-.19.206h.76zm2.947-.57v-.154h-.286v.31h.286zm2.716-2.995-.008-1.917-.357-.129-.356-.13.01 2.741.01 2.741.355-.694.354-.695zm-3.572 2.53v-.31h-.251l-.176.31-.177.31h.604zm-15.894-.978-.319-.347.41-.445.409-.446v-.923l-.266.18-.266.179.024-.941.025-.941-.167-.182-.167-.182-.321.216-.32.216.093 1.91.095 1.91.35-.078.35-.078v.724l.195-.212.194-.212zm3.92.513v-.155h-.284v.31h.285zm.856-.31v-.155h-.285v.31h.285zm8.838 0v-.155h-.285v.31h.285zm2.28 0v-.155h-.285v.31h.285zm-11.875-.634-.169-.48-.135.148-.136.149.188.33.188.331h.233zm7.765-.53-.037-1.008-.642-.037-.641-.037-.154.27-.153.271.444.186.444.185-.178.313-.177.312.393.271.393.27.173.005.173.004zm-.55-.068-.161-.455.213-.144.214-.144.041.6.042.599h-.189zm-.756-.63v-.155h.285v.31h-.285zm4.561 1.299v-.117l-.636-.591-.637-.591.386.543.387.543h-.6l-.488-.532-.488-.53-.389-.063-.389-.062.164.288.164.288.265-.178.266-.179.033.406.034.406-.015.171-.015.171.98.072.978.072zm.57-.058v-.155h-.285v.31h.285zm.285-.62v-.156h-.285v.31h.285zm1.099-.544-.083-.698.233-.408.234-.409-.175-.19-.175-.19-1.564-.102-1.564-.103v.24l.482.427.482.425-.214-.387-.214-.388h.497l.766.87.767.87v.741h.61zm-13.357.233v-.155h-.285v.31h.285zm1.005-.405-.16-.174-.351.385-.352.386.512-.212.51-.212zm5.267.405v-.155h-.285v.31h.285zm4.846-.31v-.155h-.285v.31h.285zm14.824 0v-.155h-.285v.31h.285zm-25.886-1.009-.15-.853-.123.398-.122.398.16.455.16.455h.225zm2.51.698v-.155h-.286v.31h.286zm7.697.019v-.137l-.33-.221-.329-.222.204.359.203.358h.252zm-8.838-.33v-.154h-.285v.31h.285zm1.14-.31v-.155h-.285v.311h.286zm1.426-.155v-.31h-.57v.62h.57zm4.846.155v-.155h-.285v.311h.285zm1.71 0v-.155h-.284v.311h.285zm23.663-.155v-.31h-.571v.62h.571zm-32.31-.517-.19-.206v.827l.19-.207.19-.207zm-9.692-.31-.19-.207v.827l.19-.206.19-.207zm31.947.33-.173-.188-.374.163-.374.163.546.026.547.025zm-14.462-.278v-.155h-.285v.31h.285zm26.227 0v-.155h-.285v.31h.285zm-35.635-.31v-.155h-.285v.31h.285zm.76-.051-.19-.207-.19.207-.19.207h.76zm1.14 0-.19-.207-.19.207-.19.207h.76zm1.426 0-.19-.207-.19.207-.19.207h.76zm1.805.051v-.155h-.285v.31h.285zm-12.916-1.623-.131-.549-.01.931-.011.931.142-.382.142-.382zm43.42 1.003v-.155h-.285v.31h.285zm-1.71-.931v-.155H61.2v.31h.286zm-18.246-.466v-.31h-.536l-.176.31-.177.31h.889zm1.426.156v-.156h-.285v.311h.285zM42.1 768.98v-.983l-.102.13-.103.129-.188.853-.188.853h.581zm-1.14-.278v-.949l-.285.192-.286.192v-.76l-.183.198-.183.2.358.469.357.469-.165.47-.166.468h.553zm1.995.33v-.621h-.57v1.24h.57zm20.526-.466v-.155h-.285v.31h.285zm-2.794-1.523-.113-1.057-.898-.17-.899-.17-2.938-.015-2.94-.015.202.355.202.354-.755-.157-.755-.157v.506l.926.179.927.178 2.993.576 2.993.576.585.037.584.037zm-.627.592v-.155h.285v.31h-.285zm-1.14-.31v-.155h.285v.31h-.285Zm-2.186-.363.19-.207.19.208.19.206h-.76zm-1.004-.315.375-.163.172.188.172.187-.546-.025-.547-.026zm-.991-.305.19-.207.19.207.19.207h-.76zm-35.255.93-.19-.206-.19.207-.19.207h.76zm41.716.052v-.155h-.285v.31h.285zm-47.22-.62-.164-.466h-.509v.569l.356.157.357.156.062.026.062.025zm13.99-.332 3.118-.444h.534l-.36-.471-.359-.471-2.811.037-2.812.037v.486l-.552.156-.551.157-.642-.49-.642-.489-.108.351-.107.352-.456-.191-.456-.19.25.44.249.44-.763-.542-.763-.543h-.526l-.125.932-.126.933.165.182.164.182 2.28-.205 2.282-.205zm-6.966.332v-.155h.285v.31h-.285zm.57 0v-.155h.285v.31h-.285zm1.71-.31v-.156h.286v.31h-.285zm1.426-.311v-.155h.285v.31h-.285zm3.136-.31v-.156h.285v.311h-.285zm-.57-.31v-.156h.285v.31h-.285Zm2.78-.051.356-.157.356.157.356.156H29.7Zm-10.572.93-.19-.207v.827l.19-.207.19-.207zm23.376 0-.19-.207-.19.206-.19.207h.76zm.95-.26v-.154h-.285v.31h.285zm7.299-.077-.21-.233-2.19-.517-2.19-.517 2.542-.025 2.542-.026-.12-.125-.118-.124-3.103-.224-3.103-.223.205.36.205.361-.774-.211-.774-.212.13.426.13.425.834.08.834.08 2.138.428 2.138.428.546.041.547.041zm-6.253-.284-.19-.207-.19.207-.19.206h.76zm-8.253-.46 2.343-.356-.153-.27-.153-.269-.268.18-.267.18-.143-.408-.144-.407-5.012.091-5.013.092-.342-.309-.341-.308-.042.606-.042.606 3.628-.138 3.628-.138.417.287.417.287-1.14.011-1.141.01-.428.302-.427.3 1.14.005 1.14.004zm7.207-.11v-.465h-.855v.518l.19.206.19.208h.475zm-2.85 0v-.154h-.285v.31h.285zm1.33-.051-.19-.207-.19.207-.19.207h.76zm13.708-.326-.784-.13v-.61l-1.497.077-1.497.076-.244.133-.244.133.387.267.386.267 2.139-.042 2.138-.042zm-36.134-.243v-.155h-.285v.31h.285zm6.496-.297.156-.169h-.903l-.095-.278-.095-.279-2.78-.223-2.78-.224v.88l.311.338.31.338 2.861-.107 2.86-.107zm-5.07-.014v-.155h.284v.31h-.285zm2.85-.31v-.156h.285v.31h-.285zm31.834.258-.19-.207-.19.207-.19.207h.76zm-13.589-.259v-.155H42.1v.31h.285zm1.633-.033-.172-.187-.374.163-.374.163.546.025.547.026zm.648.033v-.155h-.285v.31h.285zm5.701-.505v-.234l-.304-.205-.305-.205.146-.414.146-.414-.507-.718-.508-.718-.997-1.862-.997-1.861-2.114-3.53-2.114-3.531-.078 6.159-.077 6.159.14.397.14.396h2.316l.14.397.14.397 2.416.01 2.417.012zm-2.185-.477.19-.207.19.207.19.206h-.76zm-2.661-6.152v-.155h.285v.31h-.285zm-6.367 6.465-.19-.207-.19.207-.19.206h.76zm2.02.025-.164-.18-.738-.088-.738-.088v.535h1.806zm3.139-.033-.496-.14-.645.134-.644.135 1.14.007 1.14.007zm.923.058v-.155h-.285v.31h.285zm-3.03-.879-.035-.517-.035-3.879-.036-3.878h-.585l.058 4.506.058 4.507.306-.111.306-.111zm-1.912-.724-.19-.207v.828l.19-.207.19-.207zm1.806-8.016v-.155h-.285v.31h.285zM30.72 802.67l.022-.594.15.407.15.407-.173.188-.172.188zm.547.337v-.155h.285v.31h-.285zm.57 0v-.155h.285v.31h-.285zm.426-.428-.151-.428.923.2.922.202.235.254.234.255-1.006-.03-1.006-.028zm10.977.428v-.155h.285v.31h-.285Zm7.27-.155.176-.31h.537v.62h-.889zm.998.155v-.155h.285v.31h-.285zm.855-.155v-.414l.19.206.19.207-.19.207-.19.207zm-32.924-.316.179-.316.265.179.266.178v.274h-.889zm46.608.16v-.155h.285v.31h-.285Zm-50.46-.31v-.155h.286v.31h-.286zm8.125-.155.176-.31h.286l-.177.31-.176.31h-.285zm7.555.155v-.155h.285v.31h-.285zm3.136 0v-.155h.285v.31h-.285Zm2.566 0v-.155h.285v.31h-.285zm5.701-.155v-.414l.19.207.19.206-.19.208-.19.206zm.665.103.19-.207.19.207.19.207h-.76Zm24.707.052v-.155h.285v.31h-.285Zm-51.03-.31v-.156h.286v.31h-.285zm32.5 0v-.156h.285v.31h-.285Zm4.276 0v-.156h.285v.31h-.285zm8.838 0v-.156h.285v.31h-.285zm3.706-.156v-.413l.19.206.19.207-.19.207-.19.206zm3.42-.155v-.155h.286v.31h-.285zm-52.74-.31v-.155h.286v.31h-.285zm41.338-.31v-.155h.285v.31h-.285zm10.263-.31v-.156h.285v.31h-.285zm-55.591-.466v-.31h.855v.62h-.855zm55.653-.346-.633-.255v-.604l.33-.221.329-.222-.204.359-.203.358h.543l.17-.485.172-.485.358.22.358.22-.356-.418-.356-.417v-.393h.712l.063.911.062.911-.357.388-.356.388zm.983-.792-.19-.207-.19.207-.19.207h.76zm-11.355-.065.38-.263-.018-.267-.02-.267 1.055.099 1.054.098.572.436.571.436-1.275-.004-1.275-.004.428-.3.428-.302-.659-.004-.658-.004.176.31.177.311-.659-.004-.658-.004zm3.183-.504v-.155h.285v.31h-.285zm6.271 0v-.155h.285v.31h-.285zm-.292-.761.312-.635h-.414l.514-.409.514-.409-.48-.522-.48-.522h.611v-.658l-.329.222-.329.222.162-.285.161-.285.189-2 .188-2.002.135-.238.135-.238.546.371.545.371-.345.235-.345.234.642.492.641.492v.651l-.451-.189-.452-.188.13.388.132.388.273-.06.273-.061v.869l-.17-.114-.169-.114-.464.37-.464.368-.163 1.233-.164 1.232-.01.313-.012.313-.587.4-.587.399zm2.003-5.755v-.155h-.285v.31h.285zm-.998 6.05.176-.31h.285l-.176.31-.176.311h-.285zm-6.984-.154v-.155h.285v.31h-.285zm-.226-.675-.368-.161.368-.495.368-.495-.299.194-.298.195-.414-.32-.414-.319.464.16.464.16.32-.348.32-.348v1.986l-.072-.026-.071-.025zm-2.91-.349v-.248l.997.127.998.127v.242H58.35zm11.303-.207-.16-.456.272-.183.273-.183v1.277h-.224Zm-11.18-.508-.157-.278h1.214l-.091-.698-.092-.698-.61-.095-.612-.095-.148-.836-.147-.836.103-.114.104-.115.187.813.187.812.611.049.61.048.376-.018.376-.018-.2.512-.201.512.03.62.029.621-.706.045-.705.044zm3.393-1.77.145-.718-.41-.171-.41-.171.127-1.129.127-1.128.02-.561.02-.562.26.175.26.175-.095.697-.095.697-.142.66-.141.66.746.37.746.37-.376.252-.375.252-.276.424-.276.425zm-1.075-.15.195-.557.16.174.159.174-.354.382-.354.383zm-10.26-.566.121-.214-1.069-.979-1.069-.978.626.33.625.329.176.308.175.309h.536v-.864l.428-.179.428-.178v-1.261h.562l.44-1.147.441-1.147-.139-.395-.139-.394.273-.183.272-.183v-1.472l-.641-.134-.642-.135 1.108-.042 1.108-.042-.175 1.318-.175 1.319-.288 1.099-.289 1.099-.998 1.804-.999 1.805.12.21.119.211h-1.057zm-29.1-.895.177-.31h.285l-.176.31-.177.31h-.285zm40.625-.155v-.155h.285v.31h-.285zm-42.192-.309v-.155h.285v.31h-.285zm37.915-.31v-.155h.286v.31h-.286zm4.562 0v-.155h.285v.31h-.285Zm-14.254-.62v-.156h.285v.31h-.285zm1.14-.494-.713-.634.626.333.625.332.176.309.175.308-.088-.007-.088-.007zm-1.71.183v-.155h.285v.31h-.285Zm-1.14-.465-.428-.301.34-.004.339-.004.176.31.176.31-.088-.003-.088-.004zm11.162-.31v-.776l.144.388.144.387-.144.388-.144.388zm-12.303-.156v-.155h.285v.31h-.285Zm2.68-.203-.202-.358.329.221.329.222v.273h-.252zm-3.82-.107v-.155h.285v.31h-.285zm17.675-.155-.428-.3.34-.005.339-.004.176.31.176.311-.088-.004-.088-.004zm-14.54-.155v-.155h.286v.31h-.286zm21.382 0v-.155h.285v.31h-.285zm-6.272-.62v-.155h.285v.31h-.285zm-17.39-.31v-.156h.285v.31h-.285zm-.909-.368.374-.163.173.188.172.187-.547-.025-.546-.026zm-23.323-.253v-.155h.285v.31h-.285Zm36.49 0v-.155h.285v.31h-.285zm-.57-.621v-.155h.285v.31h-.285zm5.132-.155v-.414l.19.207.19.207-.19.207-.19.206zm-4.847-.62v-.414l.19.206.19.207-.19.207-.19.206zm-.021-.776-.164-.31.044-.621.044-.62.049-.906.048-.905.164.179.164.178.056.416.056.417h.558l-.074-.24-.073-.241 1.142.085 1.142.086v.232l.001.233h-1.425v.62h-1.388l-.09.854-.09.853zm1.277-.514-.203-.358.329.221.329.222v.273h-.252zm2.45.203v-.155h.285v.31h-.285zm-3.136-.31v-.155h.286v.31h-.286Zm-8.267-.62v-.156h.285v.31h-.285zm11.426-.053-.023-.362-.164-.569-.164-.568.327.555.327.554-.14.377-.14.376zm-7.15-.258v-.155h.285v.31h-.285zm1.97-.18-.025-.13-.144-1.703-.143-1.703-.265-.54-.265-.538.14-1.993.14-1.992-.49.139-.49.14v-1.532l.142.01.143.012.362-.037.362-.037-.13-.775-.129-.776h1.332l-.152 5.662-.152 5.663-.105.13-.105.129zm-.058-7.806-.124-.702-.005 1.242-.006 1.24.13-.539.13-.539zm.084-1.012v-.155h-.285v.31h.285zm-.57-.465v-.31h-.57v.62h.57zm7.412 8.843v-.155h.285v.31h-.285zm-11.118-1.241v-.155h.285v.31h-.285zm11.403 0v-.155h.285v.31h-.285zm-42.192-.931v-.155h.285v.31h-.285zm10.976-.466.176-.31h.285l-.176.31-.177.31h-.285Zm-2.709-.155v-.155h.285v.31h-.285zm-7.127-.31v-.155h.285v.31h-.285zm13.114 0v-.155h.285v.31h-.285zm.855 0v-.155h.285v.31h-.285zm30.05-.203-.204-.359.329.222.329.221v.274h-.252Zm-18.552-.16.19-.206.19.207.19.207h-.76zm22.015-.075-.161-.283.42.067.421.067.199.216.198.215h-.917zm-40.058-.253-.011-.38.569-1.016.569-1.016-.011.31-.01.31-.547 1.087-.546 1.086zm16.333.019.19-.207.19.207.19.206h-.76zm-10.643-.26v-.154h.285v.31h-.285zm11.498-.051.19-.207.19.207.19.207h-.76zm19.493-.336.184-.543.306-.228.306-.228.4-.004.4-.004-.472.568-.472.568.19.208.191.207h-1.217zm-18.733.114v-.12l.571-.162.57-.162-.16.281-.159.282h-.822zm1.426-.657v-.155h.285v.31h-.285Zm21.381-1.552v-.155h.285v.31h-.285zm-.57-.62v-.155h.285v.31h-.285zm-.855-.62v-.156h.285v.31h-.285Zm.967-.336.173-.491v-.57h.564l-.06.776-.058.775h-.792zm-16.077.025v-.155h.285v.31h-.285zm4.058-1.086v-1.086l.13.543.13.543-.13.543-.13.543zm10.766.776v-.155h.286v.31h-.286zm.856-.62v-.156h.285v.31h-.285zm-55.876-.311v-.155h.285v.31h-.285zm35.635-.31v-.155h.285v.31h-.285zm-1.14-.62v-.156h.285v.31h-.285Zm-30.343-.996-.195-.556.354.382.355.383-.16.174-.16.173zm40.035.375v-.156h.285v.311h-.285zm1.71 0v-.156h.286v.311h-.285Zm-25.086-.31v-.156h.285v.31h-.285zm13.398 0v-.156h.286v.31h-.286zm.57 0v-.156h.286v.31h-.285zm.666-.053.19-.207.19.207.19.207h-.76zm.76.052v-.155h.285v.31h-.285zm3.136 0v-.155h.285v.31h-.285Zm-7.887-.362.19-.207.19.207.19.207h-.76zm.76.052v-.155h.285v.31h-.285Zm-24.104-.491-.19-.336-.077-1.228-.077-1.228 1.2.068 1.202.068v.82h-.476l.072.349.071.349-.356.142-.357.142v-.983h-.632l.116 1.086.117 1.086h-.422zm-4.574-.333-.203-.358.329.221.329.222v.273h-.252zm40.427.212.204-.245-.285-.58-.285-.58h-.835v.621h.95l-.156.17-.157.171-.727-.199-.727-.198.16-.454.16-.454.715.095.715.094.405.668.406.669-.373.235-.373.234zm11.414-.059-.357-.156.01-.518.008-.517.294.55.294.55.267-.18.268-.18v.657l-.214-.026-.214-.025zm-41.693-.26v-.155h.285v.31h-.285zm32.024-.052.19-.206.19.206.19.207h-.76zm-4.372-.258v-.155h.286v.31h-.285Zm-22.806-.62v-.156h.285v.31h-.285Zm6.272 0v-.156h.285v.31h-.285zm-11.703-.64-.34-.447.248.022.249.022.55.234.549.235-.458.19-.457.191zm2.295.054v-.12l.849-.136.848-.135.363.25.363.251-1.211.004-1.212.004zm2.71-.187-.174-.307.443.185.442.184v.244h-.536zm5.557.151v-.155h.286v.31h-.286zm10.263 0v-.155h.285v.31h-.285zm.802-.056.374-.164.173.188.172.188-.547-.026-.546-.025zm10.602.056v-.155h.285v.31h-.285zm-25.943-.31v-.155h.285v.31h-.285zm26.798 0v-.155h.285v.31h-.285zm-43.618-.31v-.155h.286v.31h-.286zm2.566 0v-.155h.285v.31h-.285zm-1.71-.31v-.156h.285v.31h-.285zm.196-.661-.517-.749-.311.21-.312.21.212-.374.212-.373.357.322.358.323.147-.16.147-.16.309.406.31.406-.198.344-.198.343zm.659.058v-.137l-.33-.221-.328-.221.203.358.203.358h.252zm13.969.602v-.155h.285v.31h-.285zm36.775 0v-.155h.285v.31h-.285zm1.52-.051.19-.207.19.207.191.206h-.76zm-56.255-.57v-.154h.285v.31h-.285zm1.71 0v-.154h.285v.31h-.285zm54.629-.092-.14-.247.253-.447.254-.446-.048.694-.048.694h-.131zm-52.063-.528v-.155h.285v.31h-.285zm20.81 0v-.155h.286v.31h-.285zm6.083-.051.19-.207.19.207.19.207h-.76zm-29.628-.772-.204-.358.33.22.328.222v.274h-.251zm30.103.203v-.155h.285v.31h-.285zm-29.649-.62v-.156h.285v.31h-.285zm1.14-.311v-.155h.286v.31h-.285zm50.959-.981.356-.157.357.157.356.156h-1.425zm1.443-.007.374-.164.173.188.172.188-.547-.026-.546-.026zm.909.056v-.155h.285v.31h-.285zm-6.557-.31v-.155h.285v.31h-.285zm.855 0v-.155h.285v.31h-.285Zm-5.131-.31v-.156h.285v.311h-.285zm-45.537-.37.505-.144.35.155.352.155-.856-.011-.855-.011zm1.563.01.356-.156.357.156.356.157H14.59Zm53.952-.88v-.155h.285v.31h-.285zm-36.206-.432v-.277l.413-.172.414-.173-.159.45-.159.45h-.509zm1.354.072.357-.157.356.157.357.156H33.69Zm19.267-.001.19-.207.19.207.19.207h-.76Zm-23.757-.259v-.155h.285v.31h-.285Zm.57 0v-.155h.286v.31h-.285zm-7.612-.35.18-.195 1.915.045 1.916.045.138.15.138.15h-4.467zm15.902-1.227.023-.595.15.408.15.407-.173.188-.172.187zm27.916.336v-.155h.285v.31h-.285Zm-31.93-.931v-.155h.286v.31h-.285Zm-4.846-.31v-.156h.285v.31h-.285Zm.57-.385v-.262l1.283-1.37 1.283-1.371v.649l-1.283 1.308-1.282 1.309zm4.562.074v-.155h.285v.31h-.285zm5.321-.362-.19-.207v-1.138h.571v1.551h-.19zm12.47-.462-.204-.358.329.22.33.222v.274h-.252zm-17.126-.47.19-.206.19.207.19.207h-.76zm16.44-.258v-.155h.285v.31h-.285zm-.57-.62v-.155h.285v.31h-.285zm-15.11-.466v-.31h.604l-.176.31-.176.31h-.252Zm18.246-.155v-.155h.285v.31h-.285Zm-21.262-.399.212-.399 1.43-1.462 1.431-1.463.328-.125.328-.124-1.163 1.21-1.163 1.21-.807.777-.808.775zm16.816-.454-.543-.698.641.59.641.592v.214h-.196zm11.287-1.94v-.154h.286v.31H61.2Zm-25.087-1.861v-.155h.285v.31h-.285zm20.241-.31v-.155h.285v.31h-.285zm.57 0v-.155h.285v.31h-.285zm-19.1-2.793v-.155h.285v.31h-.285zm30.313-.052.19-.207.19.207.19.207h-.76Zm-50.269-1.19v-.154h.285v.31h-.285Zm32.784-.93v-.465h.925l-.354.465-.355.466h-.216zm-5.986 0v-.155h.285v.31h-.285zm25.087 0v-.155h.285v.31h-.285zm-56.446-.31v-.155h.285v.31h-.285zm33.45-.052.19-.207.19.207.19.207h-.76z" style="fill:maroon;stroke:#d4aa00;stroke-width:.264583" transform="translate(-6.472 -742.911)"/></svg>