<svg xmlns="http://www.w3.org/2000/svg" width="594.75" height="362.856" viewBox="0 0 157.361 96.006"><defs><path id="E" d="M144.103 457.417h136.253v33.128H144.103z"/><path id="D" d="M326.896 472.07h172.705v54.788H326.896z"/><path id="C" d="M251.33 459.966h132.731v35.676H251.33z"/><path id="A" d="M533.229 352.938h78.36v30.579h-78.36z"/><path id="z" d="M528.132 305.157h158.631v50.966H528.132z"/><path id="y" d="M529.406 240.176h136.97v50.329h-136.97z"/><path id="u" d="M373.324 515.391h189.847v28.031H373.324z"/><path id="t" d="M380.332 477.803h165.001v35.676H380.332z"/><path id="s" d="M384.154 452.321h133.785v41.41H384.154z"/><path id="r" d="M388.613 421.741h157.994v33.128H388.613z"/><path id="q" d="M214.056 464.425h154.808v35.039H214.056z"/><path id="p" d="M209.596 437.668h180.928v52.877H209.596z"/><path id="v" d="M235.716 400.718h150.986v31.216H235.716z"/><path id="o" d="M198.766 373.324h128.051v41.41H198.766z"/><path id="f" d="M380.969 345.93h119.132v28.031H380.969z"/><path id="e" d="M302.609 406.452h119.132v22.935H302.609z"/><path id="m" d="M267.57 349.752h159.905v28.031H267.57z"/><path id="l" d="M192.396 440.853h117.221v40.135H192.396z"/><path id="k" d="M167.55 356.76h161.816v46.506H167.55z"/><path id="i" d="M37.587 348.478h124.866v47.143H37.587z"/><path id="j" d="M203.863 430.66h126.14v46.506h-126.14z"/><path id="n" d="M241.45 353.575h102.568v25.483H241.45z"/><path id="h" d="M242.724 313.439h89.827v38.224h-89.827z"/><path id="g" d="M243.998 276.489h74.537v28.668h-74.537z"/><path id="d" d="M212.782 282.223H345.93v35.039H212.782z"/><path id="c" d="M47.143 338.285h106.391v36.95H47.143z"/><path id="b" d="M56.062 236.353h140.156v62.433H56.062z"/><path id="a" d="M48.417 169.461h119.132v31.216H48.417z"/><path id="F" d="M144.103 457.417h136.253v33.128H144.103z"/><path id="G" d="M144.103 457.417h155.365v37.587H144.103z"/><path id="H" d="M144.103 457.417h136.253v33.128H144.103z"/><path id="I" d="M144.103 457.417h136.253v33.128H144.103z"/><path id="J" d="M144.103 457.417h155.365v37.587H144.103z"/><path id="K" d="M144.103 457.417h136.253v33.128H144.103z"/><marker id="B" markerHeight="1" markerWidth="1" orient="auto-start-reverse" preserveAspectRatio="xMidYMid" refX="0" refY="0" style="overflow:visible" viewBox="0 0 1 1"><path d="m1 0-3 3h-2l3-3-3-3h2z" style="fill:context-stroke;fill-rule:evenodd;stroke:none"/></marker><marker id="x" markerHeight="1" markerWidth="1" orient="auto" preserveAspectRatio="xMidYMid" refX="0" refY="0" style="overflow:visible" viewBox="0 0 1 1"><path d="M5 0c0 2.76-2.24 5-5 5s-5-2.24-5-5 2.3-5 5-5c2.76 0 5 2.24 5 5" style="fill:context-stroke;fill-rule:evenodd;stroke:none" transform="scale(.5)"/></marker><marker id="w" markerHeight="1" markerWidth="1" orient="auto-start-reverse" preserveAspectRatio="xMidYMid" refX="0" refY="0" style="overflow:visible" viewBox="0 0 1 1"><path d="m1 0-3 3h-2l3-3-3-3h2z" style="fill:context-stroke;fill-rule:evenodd;stroke:none"/></marker></defs><path d="M1.011 20.564h157.096v95.741H1.011z" style="fill:#fff;stroke:#fff;stroke-width:.264583;stroke-linejoin:round" transform="translate(-.88 -20.432)"/><path d="M132.15 74.121h24.947v6.911H132.15zM127.093 83.942h30.003v6.911h-30.003z" style="fill:#ffe6d5;stroke:#d45500;stroke-width:.264583;stroke-linejoin:round" transform="translate(-.88 -20.432)"/><path d="M95.302 22.79h36.24v19.216h-36.24z" style="fill:#d7eef4;stroke:#164450;stroke-width:.264583;stroke-linejoin:round" transform="translate(-.88 -20.432)"/><path d="M94.464 27.358h36.24v19.216h-36.24z" style="fill:#d7eef4;stroke:#164450;stroke-width:.264583;stroke-linejoin:round" transform="translate(-.88 -20.432)"/><path d="M92.973 32.04h36.24v19.216h-36.24z" style="fill:#d7eef4;stroke:#164450;stroke-width:.264583;stroke-linejoin:round" transform="translate(-.88 -20.432)"/><path d="M91.591 37.233h36.24v19.216h-36.24z" style="fill:#d7eef4;stroke:#164450;stroke-width:.264583;stroke-linejoin:round" transform="translate(-.88 -20.432)"/><path d="M89.846 43.563h36.24v19.216h-36.24z" style="fill:#d7eef4;stroke:#164450;stroke-width:.264583;stroke-linejoin:round" transform="translate(-.88 -20.432)"/><path d="M88.065 49.152h36.24v19.216h-36.24z" style="fill:#d7eef4;stroke:#164450;stroke-width:.264583;stroke-linejoin:round" transform="translate(-.88 -20.432)"/><path d="M86.617 54.248h36.24v19.216h-36.24zM40.397 22.696h32.869v32.195H40.397z" style="fill:#d7eef4;stroke:#164450;stroke-width:.264583;stroke-linejoin:round" transform="translate(-.88 -20.432)"/><path d="M38.901 27.794H71.77v32.195H38.901z" style="fill:#d7eef4;stroke:#164450;stroke-width:.264583;stroke-linejoin:round" transform="translate(-.88 -20.432)"/><path d="M37.668 32.889h32.869v31.015H37.668zM2.392 50.669h25.705v26.127H2.392z" style="fill:#d7eef4;stroke:#164450;stroke-width:.264583;stroke-linejoin:round" transform="translate(-.88 -20.432)"/><path d="M4.606 68.967h22.25v5.057H4.606zM4.606 62.852h22.25v5.057H4.606zM4.606 56.737h22.25v5.057H4.606z" style="fill:#eef4d7;stroke:#677821;stroke-width:.264583;stroke-linejoin:round" transform="translate(-.88 -20.432)"/><text xml:space="preserve" style="font-size:14.6667px;line-height:normal;font-family:&quot;Liberation Mono&quot;;-inkscape-font-specification:&quot;Liberation Mono&quot;;text-decoration-color:#000;white-space:pre;shape-inside:url(#a);display:inline;fill:purple;stroke-width:1;-inkscape-stroke:none;stop-color:#000" transform="translate(-8.601 -8.363)scale(.26458)"><tspan x="48.418" y="182.511">geometrix</tspan></text><text xml:space="preserve" style="font-size:14.6667px;line-height:normal;font-family:&quot;Liberation Mono&quot;;-inkscape-font-specification:&quot;Liberation Mono&quot;;text-decoration-color:#000;white-space:pre;shape-inside:url(#b);display:inline;fill:purple;stroke-width:1;-inkscape-stroke:none;stop-color:#000" transform="translate(-4.41 -13.757)scale(.26458)"><tspan x="56.063" y="249.404">geomui</tspan></text><text xml:space="preserve" style="font-size:14.6667px;line-height:normal;font-family:&quot;Liberation Mono&quot;;-inkscape-font-specification:&quot;Liberation Mono&quot;;text-decoration-color:#000;white-space:pre;shape-inside:url(#c);display:inline;fill:purple;stroke-width:1;-inkscape-stroke:none;stop-color:#000" transform="translate(-4.265 -46.987)scale(.26458)"><tspan x="47.143" y="351.335">geomcli</tspan></text><text xml:space="preserve" style="font-size:14.6667px;line-height:normal;font-family:&quot;Liberation Mono&quot;;-inkscape-font-specification:&quot;Liberation Mono&quot;;text-decoration-color:#000;white-space:pre;shape-inside:url(#d);display:inline;fill:navy;stroke-width:1;-inkscape-stroke:none;stop-color:#000" transform="translate(-53.297 -43.76)scale(.26458)"><tspan x="212.781" y="295.273">parametrix</tspan></text><text xml:space="preserve" style="font-size:14.6667px;line-height:normal;font-family:&quot;Liberation Mono&quot;;-inkscape-font-specification:&quot;Liberation Mono&quot;;text-decoration-color:#000;white-space:pre;shape-inside:url(#e);display:inline;fill:navy;stroke-width:1;-inkscape-stroke:none;stop-color:#000" transform="translate(-40.78 -99.89)scale(.26458)"><tspan x="302.609" y="419.501">parame52</tspan></text><text xml:space="preserve" style="font-size:14.6667px;line-height:normal;font-family:&quot;Liberation Mono&quot;;-inkscape-font-specification:&quot;Liberation Mono&quot;;text-decoration-color:#000;white-space:pre;shape-inside:url(#f);display:inline;fill:navy;stroke-width:1;-inkscape-stroke:none;stop-color:#000" transform="translate(-59.826 -89.271)scale(.26458)"><tspan x="380.969" y="358.98">parame53</tspan></text><path d="M35.938 38.93h32.869v30.678H35.938z" style="fill:#d7eef4;stroke:#164450;stroke-width:.264583;stroke-linejoin:round" transform="translate(-.88 -20.432)"/><path d="M34.201 44.955H67.07V77.15H34.201z" style="fill:#d7eef4;stroke:#164450;stroke-width:.264583;stroke-linejoin:round" transform="translate(-.88 -20.432)"/><path d="M40.905 69.871h25.452v5.057H40.905z" style="fill:#eef4d7;stroke:red;stroke-width:.529167;stroke-linejoin:round" transform="translate(-.88 -20.432)"/><path d="M32.103 50.669h31.352v32.195H32.103z" style="fill:#d7eef4;stroke:#164450;stroke-width:.264583;stroke-linejoin:round" transform="translate(-.88 -20.432)"/><path d="M36.475 68.967h25.452v5.057H36.475zM36.475 62.852h25.452v5.057H36.475zM36.475 56.737h25.452v5.057H36.475z" style="fill:#eef4d7;stroke:#677821;stroke-width:.264583;stroke-linejoin:round" transform="translate(-.88 -20.432)"/><text xml:space="preserve" style="font-size:14.6667px;line-height:normal;font-family:&quot;Liberation Mono&quot;;-inkscape-font-specification:&quot;Liberation Mono&quot;;text-decoration-color:#000;white-space:pre;shape-inside:url(#g);display:inline;fill:purple;stroke-width:1;-inkscape-stroke:none;stop-color:#000" transform="translate(-18.49 -36.681)scale(.26458)"><tspan x="243.998" y="289.538">desi78</tspan></text><text xml:space="preserve" style="font-size:14.6667px;line-height:normal;font-family:&quot;Liberation Mono&quot;;-inkscape-font-specification:&quot;Liberation Mono&quot;;text-decoration-color:#000;white-space:pre;shape-inside:url(#h);display:inline;fill:purple;stroke-width:1;-inkscape-stroke:none;stop-color:#000" transform="translate(-27.087 -40.22)scale(.26458)"><tspan x="242.725" y="326.49">desi78-cli</tspan></text><text xml:space="preserve" style="font-size:14.6667px;line-height:normal;font-family:&quot;Liberation Mono&quot;;-inkscape-font-specification:&quot;Liberation Mono&quot;;text-decoration-color:#000;white-space:pre;shape-inside:url(#i);display:inline;fill:navy;stroke-width:1;-inkscape-stroke:none;stop-color:#000" transform="translate(22.975 -61.29)scale(.26458)"><tspan x="37.588" y="361.529">parame78</tspan></text><path d="M36.475 75.082h25.452v5.057H36.475z" style="fill:#eef4d7;stroke:red;stroke-width:.529167;stroke-linejoin:round" transform="translate(-.88 -20.432)"/><text xml:space="preserve" style="font-size:14.6667px;line-height:normal;font-family:&quot;Liberation Mono&quot;;-inkscape-font-specification:&quot;Liberation Mono&quot;;text-decoration-color:#000;white-space:pre;shape-inside:url(#j);display:inline;fill:purple;stroke-width:1;-inkscape-stroke:none;stop-color:#000" transform="translate(-16.952 -65.247)scale(.26458)"><tspan x="203.863" y="443.71">desi78-uis</tspan></text><text xml:space="preserve" style="font-size:14.6667px;line-height:normal;font-family:&quot;Liberation Mono&quot;;-inkscape-font-specification:&quot;Liberation Mono&quot;;text-decoration-color:#000;white-space:pre;shape-inside:url(#k);display:inline;fill:navy;stroke-width:1;-inkscape-stroke:none;stop-color:#000" transform="translate(-10.102 -69.55)scale(.26458)"><tspan x="167.549" y="369.81">parame82</tspan></text><text xml:space="preserve" style="font-size:14.6667px;line-height:normal;font-family:&quot;Liberation Mono&quot;;-inkscape-font-specification:&quot;Liberation Mono&quot;;text-decoration-color:#000;white-space:pre;shape-inside:url(#l);display:inline;fill:navy;stroke-width:1;-inkscape-stroke:none;stop-color:#000" transform="translate(-14.653 -97.868)scale(.26458)"><tspan x="192.396" y="453.904">parame15L</tspan></text><text xml:space="preserve" style="font-size:14.6667px;line-height:normal;font-family:&quot;Liberation Mono&quot;;-inkscape-font-specification:&quot;Liberation Mono&quot;;text-decoration-color:#000;white-space:pre;shape-inside:url(#m);display:inline;fill:navy;stroke-width:1;-inkscape-stroke:none;stop-color:#000" transform="translate(-32.014 -79.495)scale(.26458)"><tspan x="267.57" y="362.802">parame51</tspan></text><text xml:space="preserve" style="font-size:14.6667px;line-height:normal;font-family:&quot;Liberation Mono&quot;;-inkscape-font-specification:&quot;Liberation Mono&quot;;text-decoration-color:#000;white-space:pre;shape-inside:url(#n);display:inline;fill:purple;stroke-width:1;-inkscape-stroke:none;stop-color:#000" transform="translate(-24.92 -38.367)scale(.26458)"><tspan x="241.449" y="366.624">desi78-ui</tspan></text><path d="M84.15 98.803h26.79v12.979H84.15z" style="fill:#d7eef4;stroke:red;stroke-width:.529167;stroke-linejoin:round" transform="translate(-.88 -20.432)"/><text xml:space="preserve" style="font-size:14.6667px;line-height:normal;font-family:&quot;Liberation Mono&quot;;-inkscape-font-specification:&quot;Liberation Mono&quot;;text-decoration-color:#000;white-space:pre;shape-inside:url(#o);display:inline;fill:navy;stroke-width:1;-inkscape-stroke:none;stop-color:#000" transform="translate(35.444 -18.817)scale(.26458)"><tspan x="198.766" y="386.374">catalos</tspan></text><text xml:space="preserve" style="font-size:14.6667px;line-height:normal;font-family:&quot;Liberation Mono&quot;;-inkscape-font-specification:&quot;Liberation Mono&quot;;text-decoration-color:#000;white-space:pre;shape-inside:url(#p);display:inline;fill:navy;stroke-width:1;-inkscape-stroke:none;stop-color:#000" transform="translate(32.186 -86.961)scale(.26458)"><tspan x="209.596" y="450.718">maker_ustensile</tspan></text><text xml:space="preserve" style="font-size:14.6667px;line-height:normal;font-family:&quot;Liberation Mono&quot;;-inkscape-font-specification:&quot;Liberation Mono&quot;;text-decoration-color:#000;white-space:pre;shape-inside:url(#q);display:inline;fill:navy;stroke-width:1;-inkscape-stroke:none;stop-color:#000" transform="translate(34.714 -105.166)scale(.26458)"><tspan x="214.057" y="477.476">maker_parame51</tspan></text><text xml:space="preserve" style="font-size:14.6667px;line-height:normal;font-family:&quot;Liberation Mono&quot;;-inkscape-font-specification:&quot;Liberation Mono&quot;;text-decoration-color:#000;white-space:pre;shape-inside:url(#r);display:inline;fill:navy;stroke-width:1;-inkscape-stroke:none;stop-color:#000" transform="translate(-12.82 -88.141)scale(.26458)"><tspan x="388.613" y="434.792">ustensile</tspan></text><text xml:space="preserve" style="font-size:14.6667px;line-height:normal;font-family:&quot;Liberation Mono&quot;;-inkscape-font-specification:&quot;Liberation Mono&quot;;text-decoration-color:#000;white-space:pre;shape-inside:url(#s);display:inline;fill:navy;stroke-width:1;-inkscape-stroke:none;stop-color:#000" transform="translate(-8.605 -107.525)scale(.26458)"><tspan x="384.154" y="465.37">cabane</tspan></text><text xml:space="preserve" style="font-size:14.6667px;line-height:normal;font-family:&quot;Liberation Mono&quot;;-inkscape-font-specification:&quot;Liberation Mono&quot;;text-decoration-color:#000;white-space:pre;shape-inside:url(#t);display:inline;fill:navy;stroke-width:1;-inkscape-stroke:none;stop-color:#000" transform="translate(-5.908 -119.591)scale(.26458)"><tspan x="380.332" y="490.853">gears_springs</tspan></text><text xml:space="preserve" style="font-size:14.6667px;line-height:normal;font-family:&quot;Liberation Mono&quot;;-inkscape-font-specification:&quot;Liberation Mono&quot;;text-decoration-color:#000;white-space:pre;shape-inside:url(#u);display:inline;fill:navy;stroke-width:1;-inkscape-stroke:none;stop-color:#000" transform="translate(-3.043 -133.919)scale(.26458)"><tspan x="373.324" y="528.441">heliostat_50cm</tspan></text><text xml:space="preserve" style="font-size:14.6667px;line-height:normal;font-family:&quot;Liberation Mono&quot;;-inkscape-font-specification:&quot;Liberation Mono&quot;;text-decoration-color:#000;white-space:pre;shape-inside:url(#v);display:inline;fill:navy;stroke-width:1;-inkscape-stroke:none;stop-color:#000" transform="translate(24.432 -71.454)scale(.26458)"><tspan x="235.717" y="413.769">maker_parame78</tspan></text><path d="M27.02 59.265h9.43" style="fill:navy;stroke:#666;stroke-width:.264583;stroke-linejoin:round;marker-end:url(#w)" transform="translate(-.88 -20.432)"/><path d="M27.02 65.38h9.43" style="fill:navy;stroke:#666;stroke-width:.264583;stroke-linejoin:round;marker-end:url(#w)" transform="translate(-.88 -20.432)"/><path d="m26.9 71.495 8.925 5.057" style="fill:navy;stroke:#666;stroke-width:.264583;stroke-linejoin:round;marker-end:url(#w)" transform="translate(-.88 -20.432)"/><path d="M61.927 65.38h26.72" style="fill:navy;stroke:#666;stroke-width:.264583;stroke-linejoin:round;marker-end:url(#w)" transform="translate(-.88 -20.432)"/><path d="M61.927 71.495h26.72" style="fill:navy;stroke:#666;stroke-width:.264583;stroke-linejoin:round;marker-end:url(#w)" transform="translate(-.88 -20.432)"/><path d="M111.322 68.02h35.255" style="fill:none;stroke:#666;stroke-width:.264584;stroke-linejoin:round;marker-start:url(#x);marker-end:url(#w)" transform="translate(-.88 -20.432)"/><path d="M84.15 105.29H49.64V80.931" style="fill:none;stroke:#666;stroke-width:.264584;stroke-linejoin:round;marker-end:url(#w)" transform="translate(-.88 -20.432)"/><path d="M84.144 103.546H65.005V75.624" style="fill:none;stroke:#666;stroke-width:.264584;stroke-linejoin:round;marker-end:url(#w)" transform="translate(-.88 -20.432)"/><text xml:space="preserve" style="font-size:14.6667px;line-height:normal;font-family:&quot;Liberation Mono&quot;;-inkscape-font-specification:&quot;Liberation Mono&quot;;text-decoration-color:#000;white-space:pre;shape-inside:url(#y);display:inline;fill:#000;stroke-width:1;-inkscape-stroke:none;stop-color:#000" transform="translate(-8.127 -8.801)scale(.26458)"><tspan x="529.406" y="253.226">3D-printer</tspan></text><text xml:space="preserve" style="font-size:14.6667px;line-height:normal;font-family:&quot;Liberation Mono&quot;;-inkscape-font-specification:&quot;Liberation Mono&quot;;text-decoration-color:#000;white-space:pre;shape-inside:url(#z);display:inline;fill:#000;stroke-width:1;-inkscape-stroke:none;stop-color:#000" transform="translate(-12.004 -15.712)scale(.26458)"><tspan x="528.133" y="318.206">laser cutter</tspan></text><path d="M146.646 64.564h10.451v6.911h-10.451z" style="fill:#ffe6d5;stroke:#d45500;stroke-width:.264583;stroke-linejoin:round" transform="translate(-.88 -20.432)"/><text xml:space="preserve" style="font-size:14.6667px;line-height:normal;font-family:&quot;Liberation Mono&quot;;-inkscape-font-specification:&quot;Liberation Mono&quot;;text-decoration-color:#000;white-space:pre;shape-inside:url(#A);display:inline;fill:#000;stroke-width:1;-inkscape-stroke:none;stop-color:#000" transform="translate(6.369 -48.105)scale(.26458)"><tspan x="533.229" y="365.988">CNC</tspan></text><path d="m111.322 68.02 20.828 9.556" style="fill:none;stroke:#666;stroke-width:.264583;stroke-linejoin:round;marker-end:url(#w)" transform="translate(-.88 -20.432)"/><path d="m111.322 68.02 15.771 15.922" style="fill:none;stroke:#666;stroke-width:.264583;stroke-linejoin:round;marker-end:url(#B)" transform="translate(-.88 -20.432)"/><path d="m111.322 68.02 15.639 29.407v8.57h-15.336" style="fill:none;stroke:#666;stroke-width:.264583;stroke-linejoin:round;marker-end:url(#B)" transform="translate(-.88 -20.432)"/><text xml:space="preserve" style="font-style:italic;font-variant:normal;font-weight:400;font-stretch:normal;font-size:14.6667px;line-height:normal;font-family:&quot;Liberation Mono&quot;;-inkscape-font-specification:&quot;Liberation Mono Italic&quot;;text-decoration-color:#000;white-space:pre;shape-inside:url(#C);display:inline;fill:#666;stroke-width:1;-inkscape-stroke:none;stop-color:#000" transform="translate(21.46 -36.613)scale(.26458)"><tspan x="251.33" y="473.015">catalog</tspan></text><text xml:space="preserve" x="94.539" style="font-style:italic;font-variant:normal;font-weight:400;font-stretch:normal;font-size:14.6667px;line-height:normal;font-family:&quot;Liberation Mono&quot;;-inkscape-font-specification:&quot;Liberation Mono Italic&quot;;text-align:end;text-decoration-color:#000;white-space:pre;shape-inside:url(#D);display:inline;fill:#666;stroke-width:1;-inkscape-stroke:none;stop-color:#000" transform="translate(23.883 -53.226)scale(.26458)"><tspan x="437.991" y="485.12">digital
</tspan><tspan x="402.786" y="503.454">fabrication</tspan></text><text xml:space="preserve" style="font-style:italic;font-variant:normal;font-weight:400;font-stretch:normal;font-size:14.6667px;line-height:normal;font-family:&quot;Liberation Mono&quot;;-inkscape-font-specification:&quot;Liberation Mono Italic&quot;;text-decoration-color:#000;white-space:pre;shape-inside:url(#E);display:inline;fill:#666;stroke-width:1;-inkscape-stroke:none;stop-color:#000" transform="translate(30.955 -74.845)scale(.26458)"><tspan x="144.104" y="470.468">designs</tspan></text><text xml:space="preserve" style="font-style:italic;font-variant:normal;font-weight:400;font-stretch:normal;font-size:14.6667px;line-height:normal;font-family:&quot;Liberation Mono&quot;;-inkscape-font-specification:&quot;Liberation Mono Italic&quot;;text-decoration-color:#000;white-space:pre;shape-inside:url(#F);display:inline;fill:#666;stroke-width:1;-inkscape-stroke:none;stop-color:#000" transform="translate(90.71 -77.82)scale(.26458)"><tspan x="144.104" y="470.468">parts</tspan></text><text xml:space="preserve" style="font-style:italic;font-variant:normal;font-weight:400;font-stretch:normal;font-size:14.6667px;line-height:normal;font-family:&quot;Liberation Mono&quot;;-inkscape-font-specification:&quot;Liberation Mono Italic&quot;;text-decoration-color:#000;white-space:pre;shape-inside:url(#G);display:inline;fill:#666;stroke-width:1;-inkscape-stroke:none;stop-color:#000" transform="translate(48.336 -81.78)scale(.26458)"><tspan x="144.104" y="470.468">parametrization</tspan></text><text xml:space="preserve" style="font-style:italic;font-variant:normal;font-weight:400;font-stretch:normal;font-size:14.6667px;line-height:normal;font-family:&quot;Liberation Mono&quot;;-inkscape-font-specification:&quot;Liberation Mono Italic&quot;;text-decoration-color:#000;white-space:pre;shape-inside:url(#H);display:inline;fill:#666;stroke-width:1;-inkscape-stroke:none;stop-color:#000" transform="translate(73.19 -40.458)scale(.26458)"><tspan x="144.104" y="470.468">upload</tspan></text><text xml:space="preserve" style="font-style:italic;font-variant:normal;font-weight:400;font-stretch:normal;font-size:14.6667px;line-height:normal;font-family:&quot;Liberation Mono&quot;;-inkscape-font-specification:&quot;Liberation Mono Italic&quot;;text-decoration-color:#000;white-space:pre;shape-inside:url(#I);display:inline;fill:#666;stroke-width:1;-inkscape-stroke:none;stop-color:#000" transform="translate(72.672 -31.5)scale(.26458)"><tspan x="144.104" y="470.468">download</tspan></text><path d="M111.08 109.732h18.541V91.359" style="fill:none;stroke:#666;stroke-width:.264583;stroke-linejoin:round;marker-end:url(#B)" transform="translate(-.88 -20.432)"/><text xml:space="preserve" style="font-style:italic;font-variant:normal;font-weight:400;font-stretch:normal;font-size:14.6667px;line-height:normal;font-family:&quot;Liberation Mono&quot;;-inkscape-font-specification:&quot;Liberation Mono Italic&quot;;text-decoration-color:#000;white-space:pre;shape-inside:url(#J);display:inline;fill:#666;stroke-width:1;-inkscape-stroke:none;stop-color:#000" transform="translate(10.116 -35.56)scale(.26458)"><tspan x="144.104" y="470.468">re-parametrize</tspan></text><text xml:space="preserve" style="font-style:italic;font-variant:normal;font-weight:400;font-stretch:normal;font-size:14.6667px;line-height:normal;font-family:&quot;Liberation Mono&quot;;-inkscape-font-specification:&quot;Liberation Mono Italic&quot;;text-decoration-color:#000;white-space:pre;shape-inside:url(#K);display:inline;fill:#666;stroke-width:1;-inkscape-stroke:none;stop-color:#000" transform="translate(31.606 -42.538)scale(.26458)"><tspan x="144.104" y="470.468">links</tspan></text></svg>