<svg xmlns="http://www.w3.org/2000/svg" width="535.266" height="349.67" viewBox="0 0 141.623 92.517"><defs><path id="N" d="M42.345 1094.66h225.239v61.265H42.345z"/><path id="M" d="M242.357 1155.925h140.549v51.354H242.357z"/><path id="B" d="M153.534 935.858h70.715V965.8h-70.715z"/><path id="y" d="M461.24 1029.507h91.101v31.216H461.24z"/><path id="x" d="M370.138 985.549h152.26v46.506h-152.26z"/><path id="w" d="M384.791 936.495H519.85v44.595H384.791z"/><path id="v" d="M228.709 920.568h75.811v41.41h-75.811z"/><path id="u" d="M455.506 949.236h91.101v27.394h-91.101z"/><path id="t" d="M366.953 981.727h131.874v36.95H366.953z"/><path id="s" d="M375.952 953.059h94.207v47.143h-94.207z"/><path id="e" d="M92.375 895.722h183.477v49.054H92.375z"/><path id="d" d="M171.372 810.992h54.151v31.216h-54.151z"/><path id="a" d="M48.417 169.461h119.132v31.216H48.417z"/><path id="b" d="M56.062 236.353h140.156v62.433H56.062z"/><path id="c" d="M47.143 338.285h106.391v36.95H47.143z"/><path id="f" d="M48.417 169.461h119.132v31.216H48.417z"/><path id="g" d="M48.417 169.461h119.132v31.216H48.417z"/><path id="h" d="M48.417 169.461h119.132v31.216H48.417z"/><path id="i" d="M48.417 169.461h119.132v31.216H48.417z"/><path id="n" d="M212.782 282.223H345.93v35.039H212.782z"/><path id="o" d="M212.782 282.223H345.93v35.039H212.782z"/><path id="q" d="M212.782 282.223H345.93v35.039H212.782z"/><path id="F" d="M198.766 373.324h128.051v41.41H198.766z"/><path id="G" d="M251.33 459.966h132.731v35.676H251.33z"/><path id="I" d="M144.103 457.417h136.253v33.128H144.103z"/><path id="J" d="M144.103 457.417h136.253v33.128H144.103z"/><path id="K" d="M529.406 240.176h136.97v50.329h-136.97z"/><marker id="j" markerHeight="1" markerWidth="1" orient="auto-start-reverse" preserveAspectRatio="xMidYMid" refX="0" refY="0" style="overflow:visible" viewBox="0 0 1 1"><path d="m1 0-3 3h-2l3-3-3-3h2z" style="fill:context-stroke;fill-rule:evenodd;stroke:none"/></marker><marker id="H" markerHeight="1" markerWidth="1" orient="auto" preserveAspectRatio="xMidYMid" refX="0" refY="0" style="overflow:visible" viewBox="0 0 1 1"><path d="M5 0c0 2.76-2.24 5-5 5s-5-2.24-5-5 2.3-5 5-5c2.76 0 5 2.24 5 5" style="fill:context-stroke;fill-rule:evenodd;stroke:none" transform="scale(0.5)"/></marker><marker id="k" markerHeight="1" markerWidth="1" orient="auto-start-reverse" preserveAspectRatio="xMidYMid" refX="0" refY="0" style="overflow:visible" viewBox="0 0 1 1"><path d="m1 0-3 3h-2l3-3-3-3h2z" style="fill:context-stroke;fill-rule:evenodd;stroke:none"/></marker><marker id="C" markerHeight="1" markerWidth="1" orient="auto-start-reverse" preserveAspectRatio="xMidYMid" refX="0" refY="0" style="overflow:visible" viewBox="0 0 1 1"><path d="m1 0-3 3h-2l3-3-3-3h2z" style="fill:context-stroke;fill-rule:evenodd;stroke:none"/></marker><marker id="l" markerHeight="1" markerWidth="1" orient="auto-start-reverse" preserveAspectRatio="xMidYMid" refX="0" refY="0" style="overflow:visible" viewBox="0 0 1 1"><path d="m1 0-3 3h-2l3-3-3-3h2z" style="fill:context-stroke;fill-rule:evenodd;stroke:none"/></marker><marker id="m" markerHeight="1" markerWidth="1" orient="auto-start-reverse" preserveAspectRatio="xMidYMid" refX="0" refY="0" style="overflow:visible" viewBox="0 0 1 1"><path d="m1 0-3 3h-2l3-3-3-3h2z" style="fill:context-stroke;fill-rule:evenodd;stroke:none"/></marker><marker id="D" markerHeight="1" markerWidth="1" orient="auto-start-reverse" preserveAspectRatio="xMidYMid" refX="0" refY="0" style="overflow:visible" viewBox="0 0 1 1"><path d="m1 0-3 3h-2l3-3-3-3h2z" style="fill:context-stroke;fill-rule:evenodd;stroke:none"/></marker><marker id="E" markerHeight="1" markerWidth="1" orient="auto-start-reverse" preserveAspectRatio="xMidYMid" refX="0" refY="0" style="overflow:visible" viewBox="0 0 1 1"><path d="m1 0-3 3h-2l3-3-3-3h2z" style="fill:context-stroke;fill-rule:evenodd;stroke:none"/></marker><marker id="p" markerHeight="1" markerWidth="1" orient="auto-start-reverse" preserveAspectRatio="xMidYMid" refX="0" refY="0" style="overflow:visible" viewBox="0 0 1 1"><path d="m1 0-3 3h-2l3-3-3-3h2z" style="fill:context-stroke;fill-rule:evenodd;stroke:none"/></marker><marker id="r" markerHeight="1" markerWidth="1" orient="auto-start-reverse" preserveAspectRatio="xMidYMid" refX="0" refY="0" style="overflow:visible" viewBox="0 0 1 1"><path d="m1 0-3 3h-2l3-3-3-3h2z" style="fill:context-stroke;fill-rule:evenodd;stroke:none"/></marker><marker id="z" markerHeight="1" markerWidth="1" orient="auto-start-reverse" preserveAspectRatio="xMidYMid" refX="0" refY="0" style="overflow:visible" viewBox="0 0 1 1"><path d="m1 0-3 3h-2l3-3-3-3h2z" style="fill:context-stroke;fill-rule:evenodd;stroke:none"/></marker><marker id="A" markerHeight="1" markerWidth="1" orient="auto-start-reverse" preserveAspectRatio="xMidYMid" refX="0" refY="0" style="overflow:visible" viewBox="0 0 1 1"><path d="m1 0-3 3h-2l3-3-3-3h2z" style="fill:context-stroke;fill-rule:evenodd;stroke:none"/></marker><marker id="L" markerHeight="1" markerWidth="1" orient="auto-start-reverse" preserveAspectRatio="xMidYMid" refX="0" refY="0" style="overflow:visible" viewBox="0 0 1 1"><path d="m1 0-3 3h-2l3-3-3-3h2z" style="fill:context-stroke;fill-rule:evenodd;stroke:none"/></marker></defs><g transform="translate(-1.5363522,-181.98825)"><path d="M1.669 182.121h141.358v92.252H1.669z" style="fill:#fff;stroke:#fff;stroke-width:.264583;stroke-linejoin:round"/><path d="M106.606 248.611h23.767v12.642h-23.767z" style="fill:#e5d5ff;stroke:#5500d4;stroke-width:.264583;stroke-linejoin:round"/><path d="M105.032 244.097h23.767v11.799h-23.767z" style="fill:#e5d5ff;stroke:#5500d4;stroke-width:.264583;stroke-linejoin:round"/><path d="M103.523 239.69h23.767v10.619h-23.767z" style="fill:#e5d5ff;stroke:#5500d4;stroke-width:.264583;stroke-linejoin:round"/><path d="M112.498 199.118h29.282v31.689h-29.282zM2.448 199.118h104.759v31.689H2.448zM33.021 184.119h74.186v13.263H33.021z" style="fill:#d7eef4;stroke:#164450;stroke-width:.264583;stroke-linejoin:round"/><path d="M4.72 206.072h23.261v22.755H4.72z" style="fill:#fff6d5;stroke:#d45500;stroke-width:.264583;stroke-linejoin:round"/><path d="M82.203 189.838h22.25v5.057h-22.25zM58.365 189.838h22.25v5.057h-22.25zM34.528 189.838h22.25v5.057h-22.25z" style="fill:#eef4d7;stroke:#677821;stroke-width:.264583;stroke-linejoin:round"/><text xml:space="preserve" style="font-size:14.6667px;line-height:normal;font-family:&quot;Liberation Mono&quot;;-inkscape-font-specification:&quot;Liberation Mono&quot;;text-decoration-color:#000;white-space:pre;shape-inside:url(#a);display:inline;fill:purple;stroke-width:1;-inkscape-stroke:none;stop-color:#000" transform="matrix(0.26458333,0,0,0.26458333,22.199864,145.17063)"><tspan x="48.418" y="182.511">geometrix</tspan></text><text xml:space="preserve" style="font-size:14.6667px;line-height:normal;font-family:&quot;Liberation Mono&quot;;-inkscape-font-specification:&quot;Liberation Mono&quot;;text-decoration-color:#000;white-space:pre;shape-inside:url(#b);display:inline;fill:purple;stroke-width:1;-inkscape-stroke:none;stop-color:#000" transform="matrix(0.26458333,0,0,0.26458333,71.948109,127.5466)"><tspan x="56.063" y="249.404">geomui</tspan></text><text xml:space="preserve" style="font-size:14.6667px;line-height:normal;font-family:&quot;Liberation Mono&quot;;-inkscape-font-specification:&quot;Liberation Mono&quot;;text-decoration-color:#000;white-space:pre;shape-inside:url(#c);display:inline;fill:purple;stroke-width:1;-inkscape-stroke:none;stop-color:#000" transform="matrix(0.26458333,0,0,0.26458333,48.785119,100.4321)"><tspan x="47.143" y="351.335">geomcli</tspan></text><path d="M9.102 208.432h8.934v6.742H9.102z" style="fill:#ffe6d5;stroke:#d45500;stroke-width:.264583;stroke-linejoin:round"/><circle cx="17.53" cy="215.006" r="4.214" style="fill:none;stroke:#d45500;stroke-width:.264583;stroke-linejoin:round"/><text xml:space="preserve" style="font-size:14.6667px;line-height:normal;font-family:&quot;Liberation Mono&quot;;-inkscape-font-specification:&quot;Liberation Mono&quot;;text-align:end;text-decoration-color:#000;white-space:pre;shape-inside:url(#d);fill:#000;stroke-width:1;-inkscape-stroke:none;stop-color:#000" transform="matrix(0.26458333,0,0,0.26458333,-32.531783,-7.6597239)"><tspan x="199.119" y="824.042">SVG</tspan></text><text xml:space="preserve" x="-163.812" style="font-size:12px;line-height:normal;font-family:&quot;Liberation Mono&quot;;-inkscape-font-specification:&quot;Liberation Mono&quot;;text-align:start;text-decoration-color:#000;white-space:pre;shape-inside:url(#e);fill:#000;stroke-width:1;-inkscape-stroke:none;stop-color:#000" transform="matrix(0.26458333,0,0,0.26458333,-19.384223,-17.098996)"><tspan x="92.375" y="906.4">inkscape
</tspan><tspan x="92.375" y="921.4">(svg-editor)</tspan></text><path d="M33.968 206.072h22.81v22.755h-22.81z" style="fill:#eef4d7;stroke:#677821;stroke-width:.264582;stroke-linejoin:round"/><text xml:space="preserve" style="font-size:14.6667px;line-height:normal;font-family:&quot;Liberation Mono&quot;;-inkscape-font-specification:&quot;Liberation Mono&quot;;text-decoration-color:#000;white-space:pre;shape-inside:url(#f);display:inline;fill:purple;stroke-width:1;-inkscape-stroke:none;stop-color:#000" transform="matrix(0.26458333,0,0,0.26458333,22.149574,178.09168)"><tspan x="48.418" y="182.511">myDesigns</tspan></text><path d="M61.558 206.072h31.183v4.975H61.558z" style="fill:#eef4d7;stroke:#677821;stroke-width:.264583;stroke-linejoin:round"/><text xml:space="preserve" style="font-size:14.6667px;line-height:normal;font-family:&quot;Liberation Mono&quot;;-inkscape-font-specification:&quot;Liberation Mono&quot;;text-decoration-color:#000;white-space:pre;shape-inside:url(#g);display:inline;fill:purple;stroke-width:1;-inkscape-stroke:none;stop-color:#000" transform="matrix(0.26458333,0,0,0.26458333,49.421302,161.57808)"><tspan x="48.418" y="182.511">myDesigns-cli</tspan></text><path d="M68.155 215.386h31.183v4.975H68.155z" style="fill:#eef4d7;stroke:red;stroke-width:.529167;stroke-linejoin:round"/><text xml:space="preserve" style="font-size:14.6667px;line-height:normal;font-family:&quot;Liberation Mono&quot;;-inkscape-font-specification:&quot;Liberation Mono&quot;;text-decoration-color:#000;white-space:pre;shape-inside:url(#h);display:inline;fill:purple;stroke-width:1;-inkscape-stroke:none;stop-color:#000" transform="matrix(0.26458333,0,0,0.26458333,57.076908,170.89178)"><tspan x="48.418" y="182.511">myDesigns-ui</tspan></text><path d="M74.505 223.853h31.183v4.975H74.505z" style="fill:#eef4d7;stroke:#677821;stroke-width:.264583;stroke-linejoin:round"/><text xml:space="preserve" style="font-size:14.6667px;line-height:normal;font-family:&quot;Liberation Mono&quot;;-inkscape-font-specification:&quot;Liberation Mono&quot;;text-decoration-color:#000;white-space:pre;shape-inside:url(#i);display:inline;fill:purple;stroke-width:1;-inkscape-stroke:none;stop-color:#000" transform="matrix(0.26458333,0,0,0.26458333,62.368578,179.3585)"><tspan x="48.418" y="182.511">myDesigns-uis</tspan></text><path d="M27.98 217.45h5.988" style="fill:none;stroke:red;stroke-width:.264582;stroke-linejoin:round;marker-end:url(#j)"/><path d="M56.778 208.56h4.78" style="fill:none;stroke:red;stroke-width:.264582;stroke-linejoin:round;marker-end:url(#k)"/><path d="M45.534 195.027v10.515" style="fill:none;stroke:#00f;stroke-width:.264582;stroke-linejoin:round;marker-end:url(#l)"/><path d="M71.607 194.895v10.677" style="fill:none;stroke:#00f;stroke-width:.264582;stroke-linejoin:round;marker-end:url(#m)"/><text xml:space="preserve" style="font-size:14.6667px;line-height:normal;font-family:&quot;Liberation Mono&quot;;-inkscape-font-specification:&quot;Liberation Mono&quot;;text-decoration-color:#000;white-space:pre;shape-inside:url(#n);display:inline;fill:navy;stroke-width:1;-inkscape-stroke:none;stop-color:#000" transform="matrix(0.26458333,0,0,0.26458333,-21.113871,109.63355)"><tspan x="212.781" y="295.273">parametrix</tspan></text><text xml:space="preserve" style="font-size:14.6667px;line-height:normal;font-family:&quot;Liberation Mono&quot;;-inkscape-font-specification:&quot;Liberation Mono&quot;;text-decoration-color:#000;white-space:pre;shape-inside:url(#o);display:inline;fill:navy;stroke-width:1;-inkscape-stroke:none;stop-color:#000" transform="matrix(0.26458333,0,0,0.26458333,-50.896649,125.47428)"><tspan x="212.781" y="295.273">myDesignerRepo</tspan></text><path d="M92.741 208.56h22.205" style="fill:none;stroke:green;stroke-width:.264582;stroke-linejoin:round;marker-end:url(#p)"/><text xml:space="preserve" style="font-size:14.6667px;line-height:normal;font-family:&quot;Liberation Mono&quot;;-inkscape-font-specification:&quot;Liberation Mono&quot;;text-decoration-color:#000;white-space:pre;shape-inside:url(#q);display:inline;fill:navy;stroke-width:1;-inkscape-stroke:none;stop-color:#000" transform="matrix(0.26458333,0,0,0.26458333,58.232783,125.13716)"><tspan x="212.781" y="295.273">myMakerRepo</tspan></text><path d="M105.688 226.34h9.41" style="fill:none;stroke:green;stroke-width:.264582;stroke-linejoin:round;marker-end:url(#r)"/><text xml:space="preserve" style="font-size:14.6667px;line-height:normal;font-family:&quot;Liberation Mono&quot;;-inkscape-font-specification:&quot;Liberation Mono&quot;;text-align:end;text-decoration-color:#000;white-space:pre;shape-inside:url(#s);fill:#000;stroke-width:1;-inkscape-stroke:none;stop-color:#000" transform="matrix(0.26458333,0,0,0.26458333,14.886585,-46.298748)"><tspan x="408.548" y="966.109">px.json</tspan></text><text xml:space="preserve" style="font-size:14.6667px;line-height:normal;font-family:&quot;Liberation Mono&quot;;-inkscape-font-specification:&quot;Liberation Mono&quot;;text-align:end;text-decoration-color:#000;white-space:pre;shape-inside:url(#t);fill:#000;stroke-width:1;-inkscape-stroke:none;stop-color:#000" transform="matrix(0.26458333,0,0,0.26458333,8.4813631,-47.910563)"><tspan x="463.62" y="994.777">.dxf</tspan></text><text xml:space="preserve" style="font-size:14.6667px;line-height:normal;font-family:&quot;Liberation Mono&quot;;-inkscape-font-specification:&quot;Liberation Mono&quot;;text-align:end;text-decoration-color:#000;white-space:pre;shape-inside:url(#u);fill:#000;stroke-width:1;-inkscape-stroke:none;stop-color:#000" transform="matrix(0.26458333,0,0,0.26458333,-18.744473,-30.144721)"><tspan x="502.6" y="962.286">.scad</tspan></text><text xml:space="preserve" style="font-style:normal;font-variant:normal;font-weight:700;font-stretch:normal;font-size:14.6667px;line-height:normal;font-family:&quot;Liberation Mono&quot;;-inkscape-font-specification:&quot;Liberation Mono Bold&quot;;text-align:end;text-decoration-color:#000;white-space:pre;shape-inside:url(#v);fill:#000;stroke-width:1;-inkscape-stroke:none;stop-color:#000" transform="matrix(0.26458333,0,0,0.26458333,58.72882,-19.91339)"><tspan x="269.314" y="933.429">.stl</tspan></text><text xml:space="preserve" x="-68.936" style="font-size:14.6667px;line-height:normal;font-family:&quot;Liberation Mono&quot;;-inkscape-font-specification:&quot;Liberation Mono&quot;;text-align:start;text-decoration-color:#000;white-space:pre;shape-inside:url(#w);fill:#000;stroke-width:1;-inkscape-stroke:none;stop-color:#000" transform="matrix(0.26458333,0,0,0.26458333,4.578689,-2.8654938)"><tspan x="384.791" y="949.544">OpenSCAD</tspan></text><text xml:space="preserve" style="font-size:14.6667px;line-height:normal;font-family:&quot;Liberation Mono&quot;;-inkscape-font-specification:&quot;Liberation Mono&quot;;text-align:end;text-decoration-color:#000;white-space:pre;shape-inside:url(#x);fill:#000;stroke-width:1;-inkscape-stroke:none;stop-color:#000" transform="matrix(0.26458333,0,0,0.26458333,-12.951392,-10.113508)"><tspan x="460.788" y="998.599">FreeCAD</tspan></text><text xml:space="preserve" style="font-size:14.6667px;line-height:normal;font-family:&quot;Liberation Mono&quot;;-inkscape-font-specification:&quot;Liberation Mono&quot;;text-align:end;text-decoration-color:#000;white-space:pre;shape-inside:url(#y);fill:#000;stroke-width:1;-inkscape-stroke:none;stop-color:#000" transform="matrix(0.26458333,0,0,0.26458333,-23.0649,-16.518729)"><tspan x="508.335" y="1042.558">jsCAD</tspan></text><path d="M121.968 225.38v16.615" style="fill:none;stroke:#5500d4;stroke-width:.264582;stroke-linejoin:round;marker-end:url(#z)"/><path d="m125.176 241.67 5.563-13.22" style="fill:none;stroke:#5500d4;stroke-width:.264582;stroke-linejoin:round;marker-end:url(#A)"/><text xml:space="preserve" style="font-size:14.6667px;line-height:normal;font-family:&quot;Liberation Mono&quot;;-inkscape-font-specification:&quot;Liberation Mono&quot;;text-align:end;text-decoration-color:#000;white-space:pre;shape-inside:url(#B);fill:#000;stroke-width:1;-inkscape-stroke:none;stop-color:#000" transform="matrix(0.26458333,0,0,0.26458333,67.92906,-36.071511)"><tspan x="189.044" y="948.908">.svg</tspan></text><path d="M56.586 217.874h11.213" style="fill:none;stroke:red;stroke-width:.264582;stroke-linejoin:round;marker-end:url(#C)"/><path d="M96.502 194.895v20.054" style="fill:none;stroke:#00f;stroke-width:.264583;stroke-linejoin:round;marker-end:url(#D)"/><path d="M96.692 220.361v3.136" style="fill:none;stroke:red;stroke-width:.264582;stroke-linejoin:round;marker-end:url(#E)"/><path d="M57.958 257.094h26.79v12.979h-26.79z" style="fill:#d7eef4;stroke:red;stroke-width:.529167;stroke-linejoin:round"/><text xml:space="preserve" style="font-size:14.6667px;line-height:normal;font-family:&quot;Liberation Mono&quot;;-inkscape-font-specification:&quot;Liberation Mono&quot;;text-decoration-color:#000;white-space:pre;shape-inside:url(#F);display:inline;fill:navy;stroke-width:1;-inkscape-stroke:none;stop-color:#000" transform="matrix(0.26458333,0,0,0.26458333,10.130404,159.90641)"><tspan x="198.766" y="386.374">catalos</tspan></text><text xml:space="preserve" style="font-style:italic;font-variant:normal;font-weight:400;font-stretch:normal;font-size:14.6667px;line-height:normal;font-family:&quot;Liberation Mono&quot;;-inkscape-font-specification:&quot;Liberation Mono Italic&quot;;text-decoration-color:#000;white-space:pre;shape-inside:url(#G);display:inline;fill:#666;stroke-width:1;-inkscape-stroke:none;stop-color:#000" transform="matrix(0.26458333,0,0,0.26458333,-3.8540068,142.10969)"><tspan x="251.33" y="473.015">catalog</tspan></text><path d="M135.359 228.726v35.423H85.188" style="fill:none;stroke:#d4aa00;stroke-width:.264584;stroke-linejoin:round;marker-start:url(#H);marker-end:url(#j)"/><text xml:space="preserve" style="font-style:italic;font-variant:normal;font-weight:400;font-stretch:normal;font-size:14.6667px;line-height:normal;font-family:&quot;Liberation Mono&quot;;-inkscape-font-specification:&quot;Liberation Mono Italic&quot;;text-decoration-color:#000;white-space:pre;shape-inside:url(#I);display:inline;fill:#666;stroke-width:1;-inkscape-stroke:none;stop-color:#000" transform="matrix(0.26458333,0,0,0.26458333,49.365335,138.04421)"><tspan x="144.104" y="470.468">upload</tspan></text><path d="M71.047 256.83v-35.97" style="fill:#f6d5ff;stroke:#d4aa00;stroke-width:.264583;stroke-linejoin:round;marker-end:url(#j)"/><text xml:space="preserve" style="font-style:italic;font-variant:normal;font-weight:400;font-stretch:normal;font-size:14.6667px;line-height:normal;font-family:&quot;Liberation Mono&quot;;-inkscape-font-specification:&quot;Liberation Mono Italic&quot;;text-decoration-color:#000;white-space:pre;shape-inside:url(#J);display:inline;fill:#666;stroke-width:1;-inkscape-stroke:none;stop-color:#000" transform="matrix(0.26458333,0,0,0.26458333,32.989059,129.50036)"><tspan x="144.104" y="470.468">link</tspan></text><path d="M116.603 266.979h24.947v6.911h-24.947z" style="fill:#ffe6d5;stroke:#d45500;stroke-width:.264583;stroke-linejoin:round"/><text xml:space="preserve" style="font-size:14.6667px;line-height:normal;font-family:&quot;Liberation Mono&quot;;-inkscape-font-specification:&quot;Liberation Mono&quot;;text-decoration-color:#000;white-space:pre;shape-inside:url(#K);display:inline;fill:#000;stroke-width:1;-inkscape-stroke:none;stop-color:#000" transform="matrix(0.26458333,0,0,0.26458333,-22.794473,204.48905)"><tspan x="529.406" y="253.226">3D-printer</tspan></text><path d="M138.375 228.518v38.059" style="fill:#f6d5ff;stroke:#d4aa00;stroke-width:.264583;stroke-linejoin:round;marker-start:url(#H);marker-end:url(#L)"/><text xml:space="preserve" style="font-style:normal;font-variant:normal;font-weight:700;font-stretch:normal;font-size:14.6667px;line-height:normal;font-family:&quot;Liberation Mono&quot;;-inkscape-font-specification:&quot;Liberation Mono Bold&quot;;text-align:end;text-decoration-color:#000;white-space:pre;shape-inside:url(#M);fill:#000;stroke-width:1;-inkscape-stroke:none;stop-color:#000" transform="matrix(0.26458333,0,0,0.26458333,39.966304,-85.711135)"><tspan x="338.899" y="1168.787">.step</tspan></text><text xml:space="preserve" style="font-style:normal;font-variant:normal;font-weight:700;font-stretch:normal;font-size:14.6667px;line-height:normal;font-family:&quot;Liberation Mono&quot;;-inkscape-font-specification:&quot;Liberation Mono Bold&quot;;text-decoration-color:#000;white-space:pre;shape-inside:url(#N);fill:#4d4d4d;stroke-width:1;-inkscape-stroke:none;stop-color:#000" transform="matrix(0.26458333,0,0,0.26458333,-6.9129524,-29.854671)"><tspan x="42.346" y="1107.521">The
</tspan><tspan x="42.346" y="1125.854">Parametrix
</tspan><tspan x="42.346" y="1144.188">Workflow</tspan></text></g></svg>