<svg xmlns="http://www.w3.org/2000/svg" width="388.803" height="97.978" viewBox="0 0 102.871 25.923"><defs><path id="c" d="M243.247 961.218h225.018v74.25H243.247z"/><path id="a" d="M94.833 706.202h125.475v74.639H94.833z"/><path id="b" d="M108.114 851.243h152.71v46.306h-152.71z"/><marker id="d" markerHeight="1" markerWidth="1" orient="auto-start-reverse" preserveAspectRatio="xMidYMid" refX="0" refY="0" style="overflow:visible" viewBox="0 0 1 1"><path d="M3-3 0 0l3 3" style="fill:none;stroke:context-stroke;stroke-width:1;stroke-linecap:butt" transform="rotate(180 .125 0)"/></marker></defs><path d="M18.483 245.391h102.606v25.658H18.483z" style="opacity:1;fill:#fff;stroke:#fff;stroke-width:.265112;stroke-dasharray:none" transform="translate(-18.35 -245.258)"/><path d="M60.611 252.431h57.639v12.065H60.611z" style="fill:#e6e6e6;stroke:#999;stroke-width:.265" transform="translate(-18.35 -245.258)"/><path d="M20.288 247.843h27.623v21.24H20.288z" style="fill:#a80;stroke:#d4aa00;stroke-width:.264582" transform="translate(-18.35 -245.258)"/><path d="M21.705 248.728h24.588v15.444H21.705z" style="fill:#fff6d5;stroke:#d4aa00;stroke-width:.264582" transform="translate(-18.35 -245.258)"/><text xml:space="preserve" style="font-size:14.6667px;line-height:normal;font-family:&quot;Liberation Mono&quot;;-inkscape-font-specification:&quot;Liberation Mono&quot;;text-align:center;text-decoration-color:#000;white-space:pre;shape-inside:url(#a);display:inline;fill:#000;stroke-width:1;-inkscape-stroke:none;stop-color:#000" transform="translate(-26.185 -178.703)scale(.26458)"><tspan x="131.167" y="719.253">web-ui</tspan></text><text xml:space="preserve" style="font-size:14.6667px;line-height:normal;font-family:&quot;Liberation Mono&quot;;-inkscape-font-specification:&quot;Liberation Mono&quot;;text-align:center;text-decoration-color:#000;white-space:pre;shape-inside:url(#b);display:inline;fill:#000;stroke-width:1;-inkscape-stroke:none;stop-color:#000" transform="translate(-32.2 -205.908)scale(.26458)"><tspan x="153.664" y="864.294">browser</tspan></text><text xml:space="preserve" style="font-size:14.6667px;line-height:normal;font-family:&quot;Liberation Mono&quot;;-inkscape-font-specification:&quot;Liberation Mono&quot;;text-align:center;text-decoration-color:#000;white-space:pre;shape-inside:url(#c);fill:#000;stroke-width:1;-inkscape-stroke:none;stop-color:#000" transform="translate(-23.295 -246.453)scale(.26458)"><tspan x="302.948" y="974.269">local server
</tspan><tspan x="250.139" y="992.602">(e.g. ROS2-sytem or Vag)</tspan></text><path d="M60.61 258.463h-12.7" style="opacity:1;fill:#fff;stroke:#000;stroke-width:.529167;stroke-dasharray:none;marker-start:url(#d);marker-end:url(#d)" transform="translate(-18.35 -245.258)"/></svg>