<svg xmlns="http://www.w3.org/2000/svg" width="518.397" height="102.258" viewBox="0 0 137.159 27.056"><defs><marker id="d" markerHeight="1" markerWidth="1" orient="auto-start-reverse" preserveAspectRatio="xMidYMid" refX="0" refY="0" style="overflow:visible" viewBox="0 0 1 1"><path d="M3-3 0 0l3 3" style="fill:none;stroke:context-stroke;stroke-width:1;stroke-linecap:butt" transform="rotate(180 .125 0)"/></marker><marker id="e" markerHeight="1" markerWidth="1" orient="auto-start-reverse" preserveAspectRatio="xMidYMid" refX="0" refY="0" style="overflow:visible" viewBox="0 0 1 1"><path d="M3-3 0 0l3 3" style="fill:none;stroke:context-stroke;stroke-width:1;stroke-linecap:butt" transform="rotate(180 .125 0)"/></marker><marker id="g" markerHeight="1" markerWidth="1" orient="auto-start-reverse" preserveAspectRatio="xMidYMid" refX="0" refY="0" style="overflow:visible" viewBox="0 0 1 1"><path d="M3-3 0 0l3 3" style="fill:none;stroke:context-stroke;stroke-width:1;stroke-linecap:butt" transform="rotate(180 .125 0)"/></marker><marker id="h" markerHeight="1" markerWidth="1" orient="auto-start-reverse" preserveAspectRatio="xMidYMid" refX="0" refY="0" style="overflow:visible" viewBox="0 0 1 1"><path d="M3-3 0 0l3 3" style="fill:none;stroke:context-stroke;stroke-width:1;stroke-linecap:butt" transform="rotate(180 .125 0)"/></marker><path id="a" d="M94.833 706.202h125.475v74.639H94.833z"/><path id="b" d="M108.114 851.243h152.71v46.306h-152.71z"/><path id="c" d="M243.247 961.218h225.018v74.25H243.247z"/><path id="f" d="M268.198 1306.059h180.769v50.633H268.198z"/></defs><path d="M10.252 503.8h136.895v26.791H10.252z" style="fill:#fff;stroke:#fff;stroke-width:.264583" transform="translate(-10.12 -503.667)"/><path d="M52.348 510.788h48.444v12.065H52.348z" style="fill:#d7f4d7;stroke:green;stroke-width:.265" transform="translate(-10.12 -503.667)"/><path d="M12.025 506.2h27.623v21.24H12.025z" style="fill:#a80;stroke:#d4aa00;stroke-width:.264582" transform="translate(-10.12 -503.667)"/><path d="M13.442 507.085H38.03v15.444H13.442z" style="fill:#fff6d5;stroke:#d4aa00;stroke-width:.264582" transform="translate(-10.12 -503.667)"/><text xml:space="preserve" style="font-size:14.6667px;line-height:normal;font-family:&quot;Liberation Mono&quot;;-inkscape-font-specification:&quot;Liberation Mono&quot;;text-align:center;text-decoration-color:#000;white-space:pre;shape-inside:url(#a);display:inline;fill:#000;stroke-width:1;-inkscape-stroke:none;stop-color:#000" transform="translate(-26.216 -178.755)scale(.26458)"><tspan x="131.167" y="719.253">web-ui</tspan></text><text xml:space="preserve" style="font-size:14.6667px;line-height:normal;font-family:&quot;Liberation Mono&quot;;-inkscape-font-specification:&quot;Liberation Mono&quot;;text-align:center;text-decoration-color:#000;white-space:pre;shape-inside:url(#b);display:inline;fill:#000;stroke-width:1;-inkscape-stroke:none;stop-color:#000" transform="translate(-32.23 -205.96)scale(.26458)"><tspan x="153.664" y="864.294">browser</tspan></text><text xml:space="preserve" style="font-size:14.6667px;line-height:normal;font-family:&quot;Liberation Mono&quot;;-inkscape-font-specification:&quot;Liberation Mono&quot;;text-align:center;text-decoration-color:#000;white-space:pre;shape-inside:url(#c);display:inline;fill:#000;stroke-width:1;-inkscape-stroke:none;stop-color:#000" transform="translate(-27.56 -246.506)scale(.26458)"><tspan x="267.742" y="974.269">remote/public server
</tspan><tspan x="324.952" y="992.602"><tspan style="font-style:italic;-inkscape-font-specification:&quot;Liberation Mono Italic&quot;">(logic)</tspan></tspan></text><path d="M52.348 516.82h-12.7" style="fill:#fff;stroke:#000;stroke-width:.529167;stroke-dasharray:none;marker-start:url(#d);marker-end:url(#e)" transform="translate(-10.12 -503.667)"/><path d="M114.131 510.788h30.24v12.065h-30.24z" style="fill:#ffe6d5;stroke:#f60;stroke-width:.265" transform="translate(-10.12 -503.667)"/><text xml:space="preserve" style="font-size:14.6667px;line-height:normal;font-family:&quot;Liberation Mono&quot;;-inkscape-font-specification:&quot;Liberation Mono&quot;;text-align:center;text-decoration-color:#000;white-space:pre;shape-inside:url(#f);display:inline;fill:#000;stroke-width:1;-inkscape-stroke:none;stop-color:#000" transform="translate(23.837 -337.17)scale(.26458)"><tspan x="314.575" y="1319.109">git-server
</tspan><tspan x="332.178" y="1337.442"><tspan style="font-style:italic;-inkscape-font-specification:&quot;Liberation Mono Italic&quot;">(data)</tspan></tspan></text><path d="M114.131 516.82h-12.7" style="fill:#fff;stroke:#000;stroke-width:.529167;stroke-dasharray:none;marker-start:url(#g);marker-end:url(#h)" transform="translate(-10.12 -503.667)"/></svg>