<svg xmlns="http://www.w3.org/2000/svg" width="470.66" height="131.433" viewBox="0 0 124.529 34.775"><defs><path id="h" d="M409.542 824.519h67.985v42.995h-67.985z"/><path id="f" d="M321.044 905.901h192.359v76.901H321.044z"/><path id="e" d="M75.968 899.677h224.981v48.743H75.968z"/><path id="d" d="M171.326 841.798h156.882v44.831H171.326z"/><path id="c" d="M108.114 851.243h152.71v46.306h-152.71z"/><path id="b" d="M84.371 769.117H265.12v58.535H84.371z"/><path id="a" d="M94.833 706.202h125.475v74.639H94.833z"/><marker id="g" markerHeight="1" markerWidth="1" orient="auto-start-reverse" preserveAspectRatio="xMidYMid" refX="0" refY="0" style="overflow:visible" viewBox="0 0 1 1"><path d="M3-3 0 0l3 3" style="fill:none;stroke:context-stroke;stroke-width:1;stroke-linecap:butt" transform="rotate(180,0.125,0)"/></marker></defs><path d="M29.464 184.647h124.264v34.51H29.464z" style="opacity:1;fill:#fff;stroke:#fff;stroke-width:.265112;stroke-dasharray:none" transform="translate(-29.331758,-184.51492)"/><path d="M97.188 205.28h55.382v12.18H97.188z" style="opacity:1;fill:#e6e6e6;stroke:#999;stroke-width:.265" transform="translate(-29.331758,-184.51492)"/><path d="M31.333 186.459h36.963v26.415H31.333z" style="fill:#a80;stroke:#d4aa00;stroke-width:.264582" transform="translate(-29.331758,-184.51492)"/><path d="M32.548 187.344h34.331v19.92H32.548z" style="fill:#fff6d5;stroke:#d4aa00;stroke-width:.264582" transform="translate(-29.331758,-184.51492)"/><text xml:space="preserve" style="font-size:14.6667px;line-height:normal;font-family:&quot;Liberation Mono&quot;;-inkscape-font-specification:&quot;Liberation Mono&quot;;text-align:center;text-decoration-color:#000;white-space:pre;shape-inside:url(#a);display:inline;fill:#000;stroke-width:1;-inkscape-stroke:none;stop-color:#000" transform="translate(-29.331758,-184.51492) matrix(0.2645833,0,0,0.2645833,7.880638,0.93755277)"><tspan x="95.961" y="719.253">static web-app</tspan></text><text xml:space="preserve" style="font-style:italic;font-variant:normal;font-weight:400;font-stretch:normal;font-size:14.6667px;line-height:normal;font-family:&quot;Liberation Mono&quot;;-inkscape-font-specification:&quot;Liberation Mono Italic&quot;;text-align:center;text-decoration-color:#000;white-space:pre;shape-inside:url(#b);display:inline;fill:#000;stroke-width:1;-inkscape-stroke:none;stop-color:#000" transform="translate(-29.331758,-184.51492) matrix(0.2645833,0,0,0.2645833,3.9497288,-8.2749508)"><tspan x="152.741" y="782.167"><tspan style="font-weight:700;-inkscape-font-specification:&quot;Liberation Mono Bold Italic&quot;">fully</tspan>
</tspan><tspan x="130.738" y="800.69">in browser</tspan></text><text xml:space="preserve" style="font-size:14.6667px;line-height:normal;font-family:&quot;Liberation Mono&quot;;-inkscape-font-specification:&quot;Liberation Mono&quot;;text-align:center;text-decoration-color:#000;white-space:pre;shape-inside:url(#c);display:inline;fill:#000;stroke-width:1;-inkscape-stroke:none;stop-color:#000" transform="translate(-29.331758,-184.51492) matrix(0.2645833,0,0,0.2645833,2.395435,-17.271398)"><tspan x="153.664" y="864.294">browser</tspan></text><text xml:space="preserve" style="font-style:italic;font-variant:normal;font-weight:400;font-stretch:normal;font-size:14.6667px;line-height:normal;font-family:&quot;Liberation Mono&quot;;-inkscape-font-specification:&quot;Liberation Mono Italic&quot;;text-align:center;text-decoration-color:#000;white-space:pre;shape-inside:url(#d);display:inline;fill:#000;stroke-width:1;-inkscape-stroke:none;stop-color:#000" transform="translate(-29.331758,-184.51492) matrix(0.2645833,0,0,0.2645833,15.847705,-33.33634)"><tspan x="210.16" y="854.849">served by</tspan></text><text xml:space="preserve" style="font-size:14.6667px;line-height:normal;font-family:&quot;Liberation Mono&quot;;-inkscape-font-specification:&quot;Liberation Mono&quot;;text-align:center;text-decoration-color:#000;white-space:pre;shape-inside:url(#e);display:inline;fill:#000;stroke-width:1;-inkscape-stroke:none;stop-color:#000" transform="translate(-29.331758,-184.51492) matrix(0.2645833,0,0,0.2645833,74.435273,-31.902328)"><tspan x="87.24" y="912.728">local static web server
</tspan><tspan x="109.244" y="931.061">(e.g. designix-ui)</tspan></text><path d="M97.347 188.046h46.284v12.18H97.347z" style="fill:#e6e6e6;stroke:#999;stroke-width:.264999" transform="translate(-29.331758,-184.51492)"/><text xml:space="preserve" style="font-size:14.6667px;line-height:normal;font-family:&quot;Liberation Mono&quot;;-inkscape-font-specification:&quot;Liberation Mono&quot;;text-align:center;text-decoration-color:#000;white-space:pre;shape-inside:url(#f);display:inline;fill:#000;stroke-width:1;-inkscape-stroke:none;stop-color:#000" transform="translate(-29.331758,-184.51492) matrix(0.2645833,0,0,0.2645833,10.460392,-50.299837)"><tspan x="333.609" y="918.95">CDN or github-pages
</tspan><tspan x="355.612" y="937.284">(e.g. paramui)</tspan></text><path d="m97.188 211.37-28.892-9.587" style="opacity:1;fill:#e6e6e6;stroke:#000;stroke-width:.529167;stroke-dasharray:none;marker-end:url(#g)" transform="translate(-29.331758,-184.51492)"/><path d="m97.347 194.136-29.051 3.943" style="opacity:1;fill:#e6e6e6;stroke:#000;stroke-width:.529167;stroke-dasharray:none;marker-end:url(#g)" transform="translate(-29.331758,-184.51492)"/><text xml:space="preserve" style="font-style:normal;font-variant:normal;font-weight:400;font-stretch:normal;font-size:14.6667px;line-height:normal;font-family:&quot;Liberation Mono&quot;;-inkscape-font-specification:&quot;Liberation Mono&quot;;text-align:center;text-decoration-color:#000;white-space:pre;shape-inside:url(#h);display:inline;fill:#000;stroke-width:1;-inkscape-stroke:none;stop-color:#000" transform="translate(-29.331758,-184.51492) matrix(0.2645833,0,0,0.2645833,-39.107049,-20.223363)"><tspan x="434.734" y="837.57">or</tspan></text></svg>