<svg xmlns="http://www.w3.org/2000/svg" width="518.834" height="182.658" viewBox="0 0 137.275 48.328"><defs><path id="a" d="M79.286 199.916h153.071v40.874H79.286z"/><path id="b" d="M79.286 199.916h153.071v40.874H79.286z"/><path id="c" d="M79.286 199.916h153.071v40.874H79.286z"/><path id="d" d="M263.145 428.314h266.58v46.625h-266.58z"/><path id="e" d="M79.286 199.916h153.071v40.874H79.286z"/><path id="f" d="M263.145 428.314h266.58v46.625h-266.58z"/><path id="g" d="M295.977 155.038h112.6v41.787h-112.6z"/><path id="h" d="M296.13 250.381H512.7v56.565H296.13z"/><marker id="i" markerHeight="1" markerWidth="1" orient="auto-start-reverse" preserveAspectRatio="xMidYMid" refX="0" refY="0" style="overflow:visible" viewBox="0 0 1 1"><path d="M3-3 0 0l3 3" style="fill:none;stroke:context-stroke;stroke-width:1;stroke-linecap:butt" transform="rotate(180 .125 0)"/></marker><marker id="j" markerHeight="1" markerWidth="1" orient="auto-start-reverse" preserveAspectRatio="xMidYMid" refX="0" refY="0" style="overflow:visible" viewBox="0 0 1 1"><path d="M3-3 0 0l3 3" style="fill:none;stroke:context-stroke;stroke-width:1;stroke-linecap:butt" transform="rotate(180 .125 0)"/></marker><marker id="k" markerHeight="1" markerWidth="1" orient="auto-start-reverse" preserveAspectRatio="xMidYMid" refX="0" refY="0" style="overflow:visible" viewBox="0 0 1 1"><path d="M3-3 0 0l3 3" style="fill:none;stroke:context-stroke;stroke-width:1;stroke-linecap:butt" transform="rotate(180 .125 0)"/></marker></defs><path d="M2.513 112.405h137.01v48.063H2.513z" style="fill:#fff;stroke:#fff;stroke-width:.264999;stroke-dasharray:none" transform="translate(-2.38 -112.273)"/><path d="M31.524 131.678h21.067v7.403H31.524zM4.371 131.678h21.067v7.403H4.371z" style="fill:#d5e5ff;stroke:#00f;stroke-width:.264583" transform="translate(-2.38 -112.273)"/><path d="M58.418 115.422h32.183v13.242H58.418z" style="fill:#f6d5ff;stroke:#c0f;stroke-width:.264582" transform="translate(-2.38 -112.273)"/><path d="M106.373 116.939h31.134v10.208h-31.134z" style="fill:#f6d5ff;stroke:#c0f;stroke-width:.264583" transform="translate(-2.38 -112.273)"/><path d="M58.774 143.512h38.84v11.833h-38.84zM106.409 141.95h28.513v14.956h-28.513z" style="fill:#fff6d5;stroke:#d4aa00;stroke-width:.264583" transform="translate(-2.38 -112.273)"/><text xml:space="preserve" style="font-style:normal;font-variant:normal;font-weight:700;font-stretch:normal;font-size:14.6667px;line-height:normal;font-family:&quot;Liberation Mono&quot;;-inkscape-font-specification:&quot;Liberation Mono Bold&quot;;text-align:center;text-decoration-color:#000;white-space:pre;shape-inside:url(#a);display:inline;fill:#000;stroke-width:1;-inkscape-stroke:none;stop-color:#000" transform="translate(-29.901 -31.879)scale(.26458)"><tspan x="125.016" y="212.777">lib1.js</tspan></text><text xml:space="preserve" style="font-style:normal;font-variant:normal;font-weight:700;font-stretch:normal;font-size:14.6667px;line-height:normal;font-family:&quot;Liberation Mono&quot;;-inkscape-font-specification:&quot;Liberation Mono Bold&quot;;text-align:center;text-decoration-color:#000;white-space:pre;shape-inside:url(#b);display:inline;fill:#000;stroke-width:1;-inkscape-stroke:none;stop-color:#000" transform="translate(-2.233 -32.036)scale(.26458)"><tspan x="125.016" y="212.777">lib2.js</tspan></text><text xml:space="preserve" style="font-style:normal;font-variant:normal;font-weight:700;font-stretch:normal;font-size:14.6667px;line-height:normal;font-family:&quot;Liberation Mono&quot;;-inkscape-font-specification:&quot;Liberation Mono Bold&quot;;text-align:center;text-decoration-color:#000;white-space:pre;shape-inside:url(#c);display:inline;fill:#000;stroke-width:1;-inkscape-stroke:none;stop-color:#000" transform="translate(23.89 -47.7)scale(.26458)"><tspan x="125.016" y="212.777">lib3.js</tspan></text><text xml:space="preserve" style="font-style:italic;font-variant:normal;font-weight:400;font-stretch:normal;font-size:14.6667px;line-height:normal;font-family:&quot;Liberation Mono&quot;;-inkscape-font-specification:&quot;Liberation Mono Italic&quot;;text-align:center;text-decoration-color:#000;white-space:pre;shape-inside:url(#d);display:inline;fill:#000;stroke-width:1;-inkscape-stroke:none;stop-color:#000" transform="translate(-32.526 -103.786)scale(.26458)"><tspan x="343.626" y="441.365">with node:fs</tspan></text><text xml:space="preserve" style="font-style:normal;font-variant:normal;font-weight:700;font-stretch:normal;font-size:14.6667px;line-height:normal;font-family:&quot;Liberation Mono&quot;;-inkscape-font-specification:&quot;Liberation Mono Bold&quot;;text-align:center;text-decoration-color:#000;white-space:pre;shape-inside:url(#e);display:inline;fill:#000;stroke-width:1;-inkscape-stroke:none;stop-color:#000" transform="translate(25.17 -20.759)scale(.26458)"><tspan x="125.016" y="212.777">lib4.js</tspan></text><text xml:space="preserve" x="-65.169" style="font-style:italic;font-variant:normal;font-weight:400;font-stretch:normal;font-size:14.6667px;line-height:normal;font-family:&quot;Liberation Mono&quot;;-inkscape-font-specification:&quot;Liberation Mono Italic&quot;;text-align:start;text-decoration-color:#000;white-space:pre;shape-inside:url(#f);display:inline;fill:#000;stroke-width:1;-inkscape-stroke:none;stop-color:#000" transform="translate(-10.247 -76.559)scale(.26458)"><tspan x="263.145" y="441.365">with DOM access</tspan></text><text xml:space="preserve" style="font-style:normal;font-variant:normal;font-weight:700;font-stretch:normal;font-size:14.6667px;line-height:normal;font-family:&quot;Liberation Mono&quot;;-inkscape-font-specification:&quot;Liberation Mono Bold&quot;;text-align:center;text-decoration-color:#000;white-space:pre;shape-inside:url(#g);display:inline;fill:#000;stroke-width:1;-inkscape-stroke:none;stop-color:#000" transform="translate(26.138 -33.452)scale(.26458)"><tspan x="303.869" y="167.9">node-app.js</tspan></text><text xml:space="preserve" x="-43.091" style="font-size:14.6667px;line-height:normal;font-family:&quot;Liberation Mono&quot;;-inkscape-font-specification:&quot;Liberation Mono&quot;;text-align:start;text-decoration-color:#000;white-space:pre;shape-inside:url(#h);display:inline;fill:#000;stroke-width:1;-inkscape-stroke:none;stop-color:#000" transform="translate(27.08 -35.628)scale(.26458)"><tspan x="296.131" y="263.431">index.html
</tspan><tspan x="296.131" y="281.764"><tspan style="font-weight:700;-inkscape-font-specification:&quot;Liberation Mono Bold&quot;">ui-app.js</tspan></tspan></text><path d="M25.439 135.38h6.085" style="fill:#fff;stroke:#000;stroke-width:.264999;marker-end:url(#i)" transform="translate(-2.38 -112.273)"/><path d="m52.592 131.678 5.826-3.014" style="fill:#fff;stroke:#000;stroke-width:.264999;marker-end:url(#i)" transform="translate(-2.38 -112.273)"/><path d="m52.592 139.08 6.182 4.432" style="fill:#fff;stroke:#000;stroke-width:.264999;marker-end:url(#i)" transform="translate(-2.38 -112.273)"/><path d="M90.602 122.043h15.771" style="fill:#fff;stroke:#000;stroke-width:.265;marker-end:url(#j)" transform="translate(-2.38 -112.273)"/><path d="M97.614 149.428h8.795" style="fill:#fff;stroke:#000;stroke-width:.265;marker-end:url(#k)" transform="translate(-2.38 -112.273)"/></svg>