<svg xmlns="http://www.w3.org/2000/svg" width="388.166" height="165.291" viewBox="0 0 102.702 43.733"><defs><path id="a" d="M94.833 706.202h125.475v74.639H94.833z"/><path id="b" d="M108.114 851.243h152.71v46.306h-152.71z"/><path id="c" d="M243.247 961.218h225.018v74.25H243.247z"/><path id="f" d="M268.198 1306.059h184.814v30.988H268.198z"/><marker id="d" markerHeight="1" markerWidth="1" orient="auto-start-reverse" preserveAspectRatio="xMidYMid" refX="0" refY="0" style="overflow:visible" viewBox="0 0 1 1"><path d="M3-3 0 0l3 3" style="fill:none;stroke:context-stroke;stroke-width:1;stroke-linecap:butt" transform="rotate(180 .125 0)"/></marker><marker id="g" markerHeight="1" markerWidth="1" orient="auto-start-reverse" preserveAspectRatio="xMidYMid" refX="0" refY="0" style="overflow:visible" viewBox="0 0 1 1"><path d="M3-3 0 0l3 3" style="fill:none;stroke:context-stroke;stroke-width:1;stroke-linecap:butt" transform="rotate(180 .125 0)"/></marker><marker id="h" markerHeight="1" markerWidth="1" orient="auto-start-reverse" preserveAspectRatio="xMidYMid" refX="0" refY="0" style="overflow:visible" viewBox="0 0 1 1"><path d="M3-3 0 0l3 3" style="fill:none;stroke:context-stroke;stroke-width:1;stroke-linecap:butt" transform="rotate(180 .125 0)"/></marker></defs><path d="M24.635 366.978h102.438v43.469H24.635z" style="opacity:1;fill:#fff;stroke:#fff;stroke-width:.264583;stroke-dasharray:none" transform="translate(-24.502 -366.846)"/><path d="M67.458 374.259h57.639v12.065H67.458z" style="fill:#e6e6e6;stroke:#999;stroke-width:.265" transform="translate(-24.502 -366.846)"/><path d="M27.135 369.671h27.623v21.24H27.135z" style="fill:#a80;stroke:#d4aa00;stroke-width:.264582" transform="translate(-24.502 -366.846)"/><path d="M28.552 370.557H53.14v15.444H28.552z" style="fill:#fff6d5;stroke:#d4aa00;stroke-width:.264582" transform="translate(-24.502 -366.846)"/><text xml:space="preserve" style="font-size:14.6667px;line-height:normal;font-family:&quot;Liberation Mono&quot;;-inkscape-font-specification:&quot;Liberation Mono&quot;;text-align:center;text-decoration-color:#000;white-space:pre;shape-inside:url(#a);display:inline;fill:#000;stroke-width:1;-inkscape-stroke:none;stop-color:#000" transform="translate(-25.49 -178.462)scale(.26458)"><tspan x="131.167" y="719.253">web-ui</tspan></text><text xml:space="preserve" style="font-size:14.6667px;line-height:normal;font-family:&quot;Liberation Mono&quot;;-inkscape-font-specification:&quot;Liberation Mono&quot;;text-align:center;text-decoration-color:#000;white-space:pre;shape-inside:url(#b);display:inline;fill:#000;stroke-width:1;-inkscape-stroke:none;stop-color:#000" transform="translate(-31.504 -205.667)scale(.26458)"><tspan x="153.664" y="864.294">browser</tspan></text><text xml:space="preserve" style="font-size:14.6667px;line-height:normal;font-family:&quot;Liberation Mono&quot;;-inkscape-font-specification:&quot;Liberation Mono&quot;;text-align:center;text-decoration-color:#000;white-space:pre;shape-inside:url(#c);display:inline;fill:#000;stroke-width:1;-inkscape-stroke:none;stop-color:#000" transform="translate(-22.6 -246.212)scale(.26458)"><tspan x="302.948" y="974.269">local server
</tspan><tspan x="285.345" y="992.602">(e.g. todo-list)</tspan></text><path d="M67.458 380.292h-12.7" style="fill:#fff;stroke:#000;stroke-width:.529167;stroke-dasharray:none;marker-start:url(#d);marker-end:url(#d-2-5)" transform="translate(-24.502 -366.846)"/><path d="M79.824 399.024h32.907v8.466H79.824z" style="fill:#e5d5ff;stroke:#7f2aff;stroke-width:.265" transform="translate(-24.502 -366.846)"/><text xml:space="preserve" style="font-size:14.6667px;line-height:normal;font-family:&quot;Liberation Mono&quot;;-inkscape-font-specification:&quot;Liberation Mono&quot;;text-align:center;text-decoration-color:#000;white-space:pre;shape-inside:url(#f);display:inline;fill:#000;stroke-width:1;-inkscape-stroke:none;stop-color:#000" transform="translate(-22.861 -312.64)scale(.26458)"><tspan x="316.597" y="1319.109">text files</tspan></text><path d="M96.277 399.024v-12.7" style="fill:#fff;stroke:#000;stroke-width:.529167;stroke-dasharray:none;marker-start:url(#g);marker-end:url(#h)" transform="translate(-24.502 -366.846)"/></svg>