<svg xmlns="http://www.w3.org/2000/svg" width="432.859" height="90.916" viewBox="0 0 114.527 24.055"><defs><path id="a" d="M62.588 2321.277h128.914v35.744H62.588z"/><path id="b" d="M221.882 2312.319h222.055v60.013H221.882z"/><path id="c" d="M167.853 2452.876h108.8v45.675h-108.8z"/><marker id="d" markerHeight="1" markerWidth="1" orient="auto-start-reverse" preserveAspectRatio="xMidYMid" refX="0" refY="0" style="overflow:visible" viewBox="0 0 1 1"><path d="M3-3 0 0l3 3" style="fill:none;stroke:context-stroke;stroke-width:1;stroke-linecap:butt" transform="rotate(180 .125 0)"/></marker><marker id="e" markerHeight="1" markerWidth="1" orient="auto-start-reverse" preserveAspectRatio="xMidYMid" refX="0" refY="0" style="overflow:visible" viewBox="0 0 1 1"><path d="M3-3 0 0l3 3" style="fill:none;stroke:context-stroke;stroke-width:1;stroke-linecap:butt" transform="rotate(180 .125 0)"/></marker></defs><path d="M16.187 642.951H130.45v23.79H16.187z" style="fill:#fff;stroke:#fff;stroke-width:.264583" transform="translate(-16.055 -642.819)"/><path d="M70.167 646.907h57.234v16.206H70.167z" style="fill:#e6e6e6;stroke:#999;stroke-width:.265" transform="translate(-16.055 -642.819)"/><path d="M19.295 647.835h31.134v10.208H19.295z" style="fill:#f6d5ff;stroke:#c0f;stroke-width:.264583" transform="translate(-16.055 -642.819)"/><text xml:space="preserve" style="font-size:14.6667px;line-height:normal;font-family:&quot;Liberation Mono&quot;;-inkscape-font-specification:&quot;Liberation Mono&quot;;text-align:center;text-decoration-color:#000;white-space:pre;shape-inside:url(#a);display:inline;fill:#000;stroke-width:1;-inkscape-stroke:none;stop-color:#000" transform="translate(-15.272 -606.222)scale(.26458)"><tspan x="78.637" y="2334.327">node-app.js</tspan></text><text xml:space="preserve" style="font-size:14.6667px;line-height:normal;font-family:&quot;Liberation Mono&quot;;-inkscape-font-specification:&quot;Liberation Mono&quot;;text-align:center;text-decoration-color:#000;white-space:pre;shape-inside:url(#b);display:inline;fill:#000;stroke-width:1;-inkscape-stroke:none;stop-color:#000" transform="translate(-5.842 -606.397)scale(.26458)"><tspan x="288.903" y="2325.369">local data
</tspan><tspan x="280.101" y="2343.702">(e.g. sbook)</tspan></text><text xml:space="preserve" style="font-style:italic;font-variant:normal;font-weight:400;font-stretch:normal;font-size:14.6667px;line-height:normal;font-family:&quot;Liberation Mono&quot;;-inkscape-font-specification:&quot;Liberation Mono Italic&quot;;text-align:center;text-decoration-color:#000;white-space:pre;shape-inside:url(#c);display:inline;fill:#000;stroke-width:1;-inkscape-stroke:none;stop-color:#000" transform="translate(-14.65 -644.435)scale(.26458)"><tspan x="204.65" y="2465.925">uses</tspan></text><path d="M70.167 652.94H50.699" style="fill:#fff;stroke:#000;stroke-width:.529167;stroke-dasharray:none;marker-start:url(#d);marker-end:url(#e)" transform="translate(-16.055 -642.819)"/></svg>