<svg xmlns="http://www.w3.org/2000/svg" width="388.803" height="181.097" viewBox="0 0 102.871 47.915"><defs><path id="f" d="M268.198 1306.059h184.814v30.988H268.198z"/><path id="a" d="M94.833 706.202h125.475v74.639H94.833z"/><path id="b" d="M108.114 851.243h152.71v46.306h-152.71z"/><path id="c" d="M243.247 961.218h225.018v74.25H243.247z"/><marker id="d" markerHeight="1" markerWidth="1" orient="auto-start-reverse" preserveAspectRatio="xMidYMid" refX="0" refY="0" style="overflow:visible" viewBox="0 0 1 1"><path d="M3-3 0 0l3 3" style="fill:none;stroke:context-stroke;stroke-width:1;stroke-linecap:butt" transform="rotate(180 .125 0)"/></marker></defs><path d="M21.666 291.012h102.606v47.65H21.666z" style="fill:#fff;stroke:#fff;stroke-width:.265112;stroke-dasharray:none" transform="translate(-21.533 -290.88)"/><path d="M63.793 298.052h57.639v12.065H63.793z" style="fill:#e6e6e6;stroke:#999;stroke-width:.265" transform="translate(-21.533 -290.88)"/><path d="M23.47 293.465h27.623v21.24H23.47z" style="fill:#a80;stroke:#d4aa00;stroke-width:.264582" transform="translate(-21.533 -290.88)"/><path d="M24.887 294.35h24.588v15.444H24.887z" style="fill:#fff6d5;stroke:#d4aa00;stroke-width:.264582" transform="translate(-21.533 -290.88)"/><text xml:space="preserve" style="font-size:14.6667px;line-height:normal;font-family:&quot;Liberation Mono&quot;;-inkscape-font-specification:&quot;Liberation Mono&quot;;text-align:center;text-decoration-color:#000;white-space:pre;shape-inside:url(#a);display:inline;fill:#000;stroke-width:1;-inkscape-stroke:none;stop-color:#000" transform="translate(-26.185 -178.703)scale(.26458)"><tspan x="131.167" y="719.253">web-ui</tspan></text><text xml:space="preserve" style="font-size:14.6667px;line-height:normal;font-family:&quot;Liberation Mono&quot;;-inkscape-font-specification:&quot;Liberation Mono&quot;;text-align:center;text-decoration-color:#000;white-space:pre;shape-inside:url(#b);display:inline;fill:#000;stroke-width:1;-inkscape-stroke:none;stop-color:#000" transform="translate(-32.2 -205.908)scale(.26458)"><tspan x="153.664" y="864.294">browser</tspan></text><text xml:space="preserve" style="font-size:14.6667px;line-height:normal;font-family:&quot;Liberation Mono&quot;;-inkscape-font-specification:&quot;Liberation Mono&quot;;text-align:center;text-decoration-color:#000;white-space:pre;shape-inside:url(#c);display:inline;fill:#000;stroke-width:1;-inkscape-stroke:none;stop-color:#000" transform="translate(-23.295 -246.453)scale(.26458)"><tspan x="302.948" y="974.269">local server</tspan></text><path d="M63.793 304.085h-12.7" style="fill:#fff;stroke:#000;stroke-width:.529167;stroke-dasharray:none;marker-start:url(#d);marker-end:url(#d-2)" transform="translate(-21.533 -290.88)"/><path d="M72.331 322.817h40.564v12.065H72.331z" style="fill:#d7f4d7;stroke:green;stroke-width:.265" transform="translate(-21.533 -290.88)"/><text xml:space="preserve" style="font-size:14.6667px;line-height:normal;font-family:&quot;Liberation Mono&quot;;-inkscape-font-specification:&quot;Liberation Mono&quot;;text-align:center;text-decoration-color:#000;white-space:pre;shape-inside:url(#f);fill:#000;stroke-width:1;-inkscape-stroke:none;stop-color:#000" transform="translate(-23.556 -312.881)scale(.26458)"><tspan x="303.395" y="1319.109">public server</tspan></text><path d="M92.613 322.817v-12.7" style="fill:#fff;stroke:#000;stroke-width:.529167;stroke-dasharray:none;marker-start:url(#d);marker-end:url(#d-2-6)" transform="translate(-21.533 -290.88)"/></svg>