<svg xmlns="http://www.w3.org/2000/svg" width="76.447" height="74.5" viewBox="0 0 20.227 19.712"><g transform="translate(-17.632 -320.305)"><path d="m28.565 328.678.099-.109.327-.22.549-.208.259.275-.24.535-.24.314-.115.091.342.477.123-.08.373-.13.583-.058.178.333-.37.456-.313.241-.134.059.207.55.14-.046.392-.029.578.095.085.368-.475.345-.364.152-.144.023.057.585.146-.008.386.074.533.24-.013.379-.547.211-.391.053-.145-.016-.096.58.142.031.354.172.45.37-.11.363-.582.063-.39-.05-.136-.053-.243.537.13.067.296.257.339.475-.2.323-.578-.09-.364-.15-.117-.086-.374.457.108.098.22.326.203.547-.276.26-.534-.236-.312-.239-.091-.114-.479.345.08.123.126.372.055.582-.334.18-.454-.367-.239-.311-.058-.134-.55.21.044.14.026.392-.098.578-.369.088-.342-.473-.15-.363-.022-.145-.586.061.007.146-.076.387-.244.533-.379-.01-.207-.546-.051-.39.016-.145-.58-.093-.031.143-.174.355-.373.453-.363-.108-.059-.582.052-.39.054-.137-.536-.24-.067.13-.26.298-.477.342-.321-.198.094-.579.151-.364.087-.118-.454-.37-.099.108-.327.221-.55.207-.258-.275.24-.535.24-.313.115-.092-.342-.476-.123.08-.373.129-.583.058-.178-.333.37-.455.313-.241.134-.06-.207-.549-.14.046-.392.028-.578-.094-.086-.368.475-.346.365-.152.144-.022-.057-.585-.146.008-.386-.074-.533-.241.013-.378.547-.212.39-.052.146.015.096-.58-.143-.03-.353-.173-.451-.37.11-.363.583-.063.39.05.136.053.243-.537-.13-.066-.296-.258-.34-.475.201-.323.578.09.364.15.117.086.374-.457-.109-.097-.219-.326-.204-.548.277-.26.534.237.312.238.091.114.478-.345-.079-.123-.126-.372-.055-.582.334-.18.453.367.24.311.058.134.55-.21-.044-.139-.026-.393.098-.577.369-.088.342.472.15.363.022.145.585-.06-.007-.147.077-.386.244-.534.378.01.208.546.05.39-.016.145.58.093.032-.143.174-.354.373-.454.362.108.06.582-.053.39-.053.137.535.24.067-.13.26-.298.477-.342.322.198-.094.579-.151.364-.087.118z" style="fill:#00f;stroke:#00f;stroke-width:.264583"/><ellipse cx="-210.266" cy="259.392" rx="4.943" ry="4.913" style="fill:#fff;stroke:#fff;stroke-width:.264583" transform="rotate(-43.26)skewY(-.002)"/><path d="m35.29 322.445.169-.196.227-.163.56-.203.244.26-.236.546-.177.217-.206.156.33.516.228-.122.27-.07.595.012.133.33-.418.426-.242.14-.248.071.12.602.256-.033.277.033.549.226.004.356-.542.247-.276.043-.257-.023-.105.606.25.062.246.13.428.41-.124.335-.594.035-.272-.06-.23-.114-.317.528.21.149.181.21.25.538-.236.268-.565-.182-.232-.154-.173-.19-.486.38.142.214.093.263.039.592-.318.165-.46-.374-.16-.227-.092-.24-.589.179.055.252-.009.279-.178.568-.355.039-.292-.515-.067-.27v-.259l-.612-.045-.04.255-.109.258-.37.466-.345-.09-.086-.588.036-.277.094-.24-.554-.264-.13.223-.194.202-.513.302-.288-.21.132-.58.134-.245.174-.192-.42-.446-.201.162-.254.119-.587.096-.191-.3.332-.494.213-.181.231-.116-.23-.568-.245.078-.279.02-.58-.122-.07-.35.487-.341.264-.093.257-.025-.008-.614-.257-.015-.266-.083-.497-.323.061-.352.578-.143.278.009.248.07.215-.578-.234-.107-.217-.173-.346-.482.184-.306.59.074.256.109.205.154.408-.461-.179-.185-.14-.24-.146-.575.282-.22.52.282.2.194.135.219.547-.284-.1-.237-.043-.276.071-.59.342-.104.382.452.116.253.047.254.61-.069-.007-.257.06-.273.28-.526.355.026.192.56.016.28-.048.253.593.157.087-.244.154-.233.45-.391.32.153-.023.594-.086.265-.136.22z" style="fill:purple;stroke:purple;stroke-width:.264583"/><ellipse cx="-199.235" cy="259.42" rx="3.194" ry="3.175" style="fill:#fff;stroke:#fff;stroke-width:.264583" transform="rotate(-43.26)skewY(-.002)"/><path d="M17.12 319.587h21.167v21.167H17.12z" style="fill:none;stroke:#e6e6e6;stroke-width:.264583"/></g></svg>