<svg xmlns="http://www.w3.org/2000/svg" width="58.721" height="36.041" viewBox="0 0 15.536 9.536"><path d="M20.738 262.874H36.01v6.534H20.738z" style="fill:#e6e6e6;stroke:#e6e6e6;stroke-width:.264583" transform="translate(-20.605 -260.005)"/><path d="M18.721 251.198h21.167v21.167H18.721z" style="fill:none;stroke:#e6e6e6;stroke-width:.264583" transform="translate(-20.605 -260.005)"/><path d="M21.565 265.091h4.447v1.014h-4.447z" style="fill:#6495ed;fill-opacity:1;stroke:#6495ed;stroke-width:.264584;stroke-opacity:1" transform="translate(-20.605 -260.005)"/><path d="M-265.091 23.281h4.447v1.014h-4.447z" style="fill:#6495ed;fill-opacity:1;stroke:#6495ed;stroke-width:.264584;stroke-opacity:1" transform="rotate(-90 -140.305 -119.7)"/><path d="M-25.574-261.151h2.293v1.014h-2.293z" style="fill:#6495ed;fill-opacity:1;stroke:#6495ed;stroke-width:.264584;stroke-opacity:1" transform="matrix(-1 0 0 -1 -20.605 -260.005)"/><path d="M-35.22 265.091h4.447v1.014h-4.447z" style="fill:#6495ed;fill-opacity:1;stroke:#6495ed;stroke-width:.264584;stroke-opacity:1" transform="matrix(-1 0 0 1 -20.605 -260.005)"/><path d="M-265.091-33.504h4.447v1.014h-4.447z" style="fill:#6495ed;fill-opacity:1;stroke:#6495ed;stroke-width:.264584;stroke-opacity:1" transform="matrix(0 -1 -1 0 -20.605 -260.005)"/><path d="M31.211-261.151h2.293v1.014h-2.293z" style="fill:#6495ed;fill-opacity:1;stroke:#6495ed;stroke-width:.264584;stroke-opacity:1" transform="matrix(1 0 0 -1 -20.605 -260.005)"/></svg>