<svg xmlns="http://www.w3.org/2000/svg" width="75.614" height="75.614" viewBox="0 0 20.006 20.006"><g transform="translate(-105.545 -322.011)"><circle cx="115.548" cy="332.014" r="9.871" style="fill:#00f;stroke:#00f;stroke-width:.264583"/><path d="M105.115 321.497h21.167v21.167h-21.167z" style="fill:none;stroke:#e6e6e6;stroke-width:.264583"/><path d="m124.123 331.636.369.092.368.145v.282l-.368.145-.369.093-.022.34.354.14.347.19-.037.28-.383.097-.378.044-.065.336.333.182.32.234-.072.273-.393.047-.38-.005-.108.325.307.224.287.272-.106.262-.395-.004-.377-.053-.148.308.276.261.25.307-.139.246-.392-.054-.366-.1-.187.286.24.294.209.337-.17.226-.381-.104-.35-.147-.222.26.2.323.164.36-.196.203-.366-.151-.328-.19-.254.23.158.345.116.378-.22.176-.343-.197-.302-.231-.28.196.112.362.066.39-.24.147-.316-.24-.27-.267-.303.158.065.374.016.396-.258.114-.282-.278-.233-.3-.32.119.016.379-.035.394-.27.08-.244-.31-.193-.328-.334.076-.032.379-.084.386-.28.045-.201-.34-.15-.349-.34.033-.08.371-.134.373-.282.01-.157-.364-.104-.365-.341-.01-.127.357-.18.353-.281-.027-.11-.38-.056-.376-.337-.055-.172.339-.223.326-.276-.062-.06-.392-.007-.38-.328-.097-.214.314-.263.296-.265-.098-.01-.396.04-.377-.312-.138-.252.284-.299.259-.25-.13.041-.394.09-.37-.293-.177-.287.25-.33.219-.23-.162.09-.385.136-.355-.267-.213-.316.211-.355.175-.21-.19.141-.37.18-.335-.238-.245-.34.168-.375.129-.183-.215.186-.35.221-.309-.204-.274-.36.124-.387.08-.154-.237.23-.323.258-.278-.168-.298-.372.077-.395.03-.122-.255.269-.29.292-.244-.129-.316-.378.028-.396-.022-.088-.267.303-.254.32-.204-.086-.33-.379-.02-.39-.073-.053-.277.333-.213.345-.16-.044-.34-.374-.068-.377-.121-.018-.282.358-.168.362-.116v-.342l-.362-.115-.358-.169.018-.281.377-.122.374-.068.044-.34-.345-.16-.333-.213.054-.277.389-.072.38-.02.086-.33-.32-.204-.304-.254.088-.268.396-.022.378.029.129-.317-.292-.243-.27-.29.123-.255.395.03.372.076.168-.298-.259-.278-.23-.322.155-.237.388.08.359.123.204-.274-.22-.309-.187-.35.183-.214.375.128.34.169.238-.246-.18-.334-.14-.37.209-.19.355.175.316.21.267-.213-.135-.355-.092-.385.232-.161.33.219.286.25.292-.178-.089-.37-.041-.393.25-.13.3.259.251.284.313-.138-.041-.378.01-.396.265-.097.263.295.214.314.328-.097.008-.38.06-.391.275-.063.223.327.172.338.337-.054.057-.376.109-.38.28-.027.18.352.128.358.341-.01.104-.366.157-.363.282.01.134.372.08.371.34.033.15-.349.202-.34.279.045.084.387.032.378.334.076.193-.327.244-.312.27.08.035.395-.017.38.321.118.233-.3.282-.278.258.114-.016.396-.065.374.303.158.27-.267.315-.24.241.147-.066.39-.113.363.28.195.303-.23.343-.198.22.176-.116.379-.158.345.254.23.328-.19.366-.152.196.203-.163.36-.2.322.22.26.351-.146.382-.104.169.227-.208.336-.24.294.186.287.366-.1.392-.055.139.246-.25.307-.276.261.148.308.377-.053.395-.004.106.262-.287.273-.307.223.108.325.38-.005.393.047.071.273-.319.234-.333.182.065.336.378.044.383.097.037.28-.347.191-.354.139z" style="fill:#fff;stroke:#fff;stroke-width:.264583"/><path d="m114.69 324.68.094-.108.125-.09.308-.111.134.142-.13.301-.097.12-.113.086.181.284.126-.067.149-.039.327.007.073.182-.23.234-.133.077-.137.04.067.33.14-.017.153.018.302.125.003.196-.299.136-.151.023-.142-.012-.058.333.138.035.135.071.236.226-.068.184-.327.02-.15-.033-.127-.063-.175.291.116.082.1.116.138.296-.13.147-.312-.1-.127-.084-.096-.105-.267.209.078.118.051.144.022.327-.175.09-.253-.205-.088-.125-.052-.133-.324.099.03.139-.004.153-.098.313-.195.022-.162-.284-.036-.15v-.141l-.337-.025-.022.14-.06.142-.205.257-.19-.05-.047-.324.02-.152.052-.133-.305-.145-.072.124-.106.11-.283.167-.159-.115.073-.32.074-.135.096-.106-.232-.245-.11.09-.14.064-.323.054-.106-.165.183-.273.117-.1.128-.063-.127-.314-.135.044-.154.01-.32-.067-.038-.193.269-.188.145-.051.141-.014-.004-.339-.141-.009-.147-.045-.273-.178.033-.194.318-.079.154.004.136.038.119-.317-.13-.06-.119-.095-.19-.265.101-.169.325.041.14.06.114.085.225-.254-.099-.102-.077-.132-.08-.317.155-.121.287.156.11.106.074.12.3-.156-.054-.13-.024-.152.04-.325.188-.057.21.249.064.14.026.139.336-.038-.004-.142.033-.15.154-.29.196.015.106.309.009.153-.027.14.327.086.048-.134.084-.129.248-.215.177.084-.013.327-.047.147-.075.12z" style="fill:purple;stroke:purple;stroke-width:.264583"/><ellipse cx="-141.158" cy="315.271" rx="1.759" ry="1.749" style="fill:#fff;stroke:#fff;stroke-width:.264583" transform="rotate(-43.26)skewY(-.005)"/><path d="m122.273 326.617.093-.108.125-.09.309-.111.134.142-.13.301-.098.12-.113.086.182.284.125-.067.15-.039.326.007.074.182-.23.234-.134.077-.137.04.067.33.141-.017.152.018.302.124.003.197-.298.136-.152.023-.142-.012-.057.333.137.035.136.071.236.226-.069.184-.327.02-.15-.033-.127-.063-.174.291.115.082.1.116.138.296-.13.147-.311-.1-.128-.085-.095-.104-.268.209.078.118.051.144.022.327-.175.09-.253-.205-.088-.126-.051-.132-.325.099.03.138-.004.154-.098.313-.195.022-.161-.284-.037-.15v-.141l-.337-.025-.022.14-.06.142-.204.257-.19-.05-.047-.324.02-.152.051-.133-.305-.145-.071.123-.107.111-.283.167-.158-.116.073-.32.073-.134.096-.106-.231-.245-.111.089-.14.065-.323.054-.106-.165.183-.273.118-.1.127-.064-.126-.313-.136.044-.153.01-.32-.067-.039-.193.269-.188.145-.051.142-.014-.004-.339-.142-.009-.147-.045-.273-.178.033-.194.319-.079.153.004.137.038.118-.317-.129-.06-.12-.095-.19-.265.101-.169.325.041.141.06.113.085.225-.254-.098-.102-.077-.132-.081-.317.155-.121.287.155.11.107.074.12.301-.156-.055-.13-.023-.152.039-.325.188-.057.21.249.064.14.026.139.336-.038-.004-.142.033-.15.154-.29.196.015.106.309.009.153-.026.14.326.086.048-.134.085-.129.247-.215.177.084-.012.327-.048.147-.075.12z" style="fill:purple;stroke:purple;stroke-width:.264583"/><ellipse cx="-136.964" cy="321.878" rx="1.759" ry="1.749" style="fill:#fff;stroke:#fff;stroke-width:.264583" transform="rotate(-43.26)skewY(-.005)"/><path d="m122.22 333.898.093-.108.125-.09.309-.111.134.143-.13.3-.098.12-.113.086.182.285.125-.068.149-.039.327.007.073.182-.23.235-.133.076-.137.04.067.331.14-.018.153.018.302.125.003.196-.298.136-.152.024-.142-.013-.057.334.137.034.136.072.235.225-.068.185-.327.019-.15-.033-.127-.063-.174.291.115.082.1.116.138.296-.13.148-.311-.1-.128-.085-.095-.105-.268.21.078.117.051.145.022.326-.175.091-.253-.206-.088-.125-.051-.132-.325.098.03.139-.004.153-.098.313-.195.022-.161-.284-.037-.149v-.142l-.337-.025-.022.14-.06.143-.204.256-.19-.05-.047-.323.02-.153.051-.132-.305-.145-.071.123-.107.11-.283.167-.158-.115.072-.32.074-.135.096-.105-.231-.246-.111.09-.14.065-.323.053-.106-.165.183-.272.118-.1.127-.064-.126-.313-.136.043-.153.01-.32-.067-.039-.192.269-.189.145-.05.142-.015-.004-.338-.142-.01-.147-.045-.273-.178.033-.194.319-.079.153.004.137.039.118-.318-.129-.059-.12-.095-.19-.266.101-.169.325.042.141.06.113.085.225-.255-.099-.101-.076-.133-.081-.317.155-.12.287.155.11.107.074.12.301-.156-.055-.13-.023-.152.039-.326.188-.057.21.25.064.139.026.14.336-.038-.004-.142.033-.15.154-.29.196.014.106.31.009.152-.027.14.327.087.048-.135.085-.128.247-.216.177.085-.012.327-.048.146-.075.121z" style="fill:purple;stroke:purple;stroke-width:.264583"/><ellipse cx="-141.992" cy="327.144" rx="1.759" ry="1.749" style="fill:#fff;stroke:#fff;stroke-width:.264583" transform="rotate(-43.26)skewY(-.005)"/><path d="m114.604 336.037.093-.108.125-.09.308-.112.135.143-.13.301-.098.12-.113.086.182.284.125-.068.149-.038.327.007.073.182-.23.234-.133.077-.137.04.067.33.14-.017.153.018.302.124.003.197-.298.136-.152.023-.142-.013-.058.334.138.034.136.072.235.226-.068.184-.327.02-.15-.034-.127-.062-.175.29.116.083.1.116.138.296-.13.147-.311-.1-.128-.085-.095-.104-.268.209.078.118.051.144.022.327-.175.09-.253-.205-.088-.126-.051-.132-.325.099.03.138-.004.154-.098.313-.195.021-.161-.284-.037-.149v-.142l-.337-.024-.022.14-.06.142-.204.257-.19-.05-.047-.324.02-.152.051-.133-.305-.145-.071.123-.107.111-.283.167-.158-.116.072-.32.074-.135.096-.105-.231-.246-.111.09-.14.065-.323.053-.106-.165.183-.272.118-.1.127-.064-.126-.313-.136.043-.153.01-.32-.067-.039-.192.269-.188.145-.051.142-.015-.004-.338-.142-.009-.147-.045-.273-.179.033-.193.318-.08.154.005.137.038.118-.318-.13-.059-.119-.095-.19-.265.101-.17.325.042.14.06.114.085.225-.254-.099-.102-.077-.133-.08-.316.155-.121.287.155.11.107.074.12.301-.156-.055-.13-.024-.152.04-.325.188-.058.21.25.064.14.026.139.336-.038-.004-.142.033-.15.154-.29.196.014.106.31.009.153-.027.14.327.086.048-.134.084-.129.248-.215.177.084-.013.327-.047.147-.075.12z" style="fill:purple;stroke:purple;stroke-width:.264583"/><ellipse cx="-149.004" cy="323.481" rx="1.759" ry="1.749" style="fill:#fff;stroke:#fff;stroke-width:.264583" transform="rotate(-43.26)skewY(-.005)"/><path d="m110.695 330.075.093-.108.126-.09.308-.111.134.142-.13.302-.097.12-.114.085.182.284.125-.067.15-.039.327.007.073.182-.23.234-.134.077-.136.04.066.331.141-.018.153.018.302.125.003.196-.299.136-.152.024-.141-.013-.058.334.138.034.135.072.236.225-.069.185-.327.019-.15-.033-.127-.063-.174.291.116.082.1.116.138.296-.13.148-.312-.1-.128-.085-.095-.105-.267.21.078.117.05.145.022.326-.175.091-.253-.206-.088-.125-.05-.132-.325.098.03.139-.004.153-.098.313-.196.022-.161-.284-.037-.149v-.142l-.337-.025-.022.14-.06.142-.204.257-.19-.05-.047-.323.02-.153.051-.132-.305-.145-.07.123-.108.11-.283.167-.158-.115.073-.32.073-.135.096-.105-.231-.246-.111.09-.14.065-.323.053-.106-.165.184-.272.117-.1.127-.064-.126-.313-.136.043-.153.01-.32-.067-.039-.192.27-.189.144-.05.142-.015-.004-.338-.142-.01-.146-.045-.274-.178.034-.194.318-.079.153.004.137.039.118-.318-.129-.059-.12-.096-.19-.265.102-.169.324.041.141.06.114.085.224-.254-.098-.101-.077-.133-.081-.317.155-.12.287.155.11.107.074.12.301-.156-.054-.13-.024-.153.039-.325.188-.057.21.25.064.139.026.14.337-.038-.004-.142.033-.15.153-.29.196.014.106.309.01.153-.027.14.327.086.047-.134.085-.128.248-.216.177.085-.013.327-.048.146-.075.121z" style="fill:purple;stroke:purple;stroke-width:.264583"/><ellipse cx="-147.765" cy="316.461" rx="1.759" ry="1.749" style="fill:#fff;stroke:#fff;stroke-width:.264583" transform="rotate(-43.26)skewY(-.005)"/><path d="m117.49 329.968.122-.142.164-.118.405-.146.176.187-.171.395-.127.156-.15.113.24.373.163-.089.196-.05.429.009.096.238-.302.307-.175.1-.179.053.087.434.185-.023.2.023.396.163.004.258-.391.178-.2.031-.185-.017-.076.438.18.045.178.094.31.295-.09.242-.43.025-.196-.043-.166-.082-.229.382.152.107.131.152.18.388-.17.193-.408-.13-.167-.112-.125-.137-.351.274.102.155.067.189.028.428-.229.119-.332-.27-.115-.164-.067-.174-.425.13.039.181-.005.202-.129.41-.256.028-.211-.372-.048-.195v-.186l-.442-.033-.03.184-.077.186-.268.337-.249-.066-.062-.424.026-.2.067-.174-.4-.19-.093.162-.14.145-.37.218-.208-.151.095-.419.096-.177.126-.138-.303-.322-.146.117-.183.085-.423.07-.139-.216.24-.357.154-.13.167-.085-.166-.41-.177.057-.201.013-.42-.088-.05-.252.352-.247.19-.067.186-.019-.005-.443-.186-.012-.192-.06-.359-.233.044-.254.417-.104.202.005.179.05.155-.416-.17-.077-.156-.126-.25-.347.133-.222.426.054.185.079.148.111.295-.333-.13-.133-.1-.174-.106-.415.203-.159.376.204.144.14.098.158.395-.205-.072-.171-.031-.2.05-.425.248-.075.276.326.083.183.034.183.441-.05-.005-.185.043-.197.202-.38.257.019.139.405.011.2-.034.184.428.113.063-.176.11-.168.326-.283.232.11-.017.43-.062.192-.099.158z" style="fill:#d45500;stroke:#d45500;stroke-width:.264584"/><ellipse cx="-143.427" cy="321.115" rx="2.306" ry="2.293" style="fill:#fff;stroke:#fff;stroke-width:.264584" transform="rotate(-43.26)skewY(-.003)"/></g></svg>