<svg xmlns="http://www.w3.org/2000/svg" width="59.896" height="76.922" viewBox="0 0 15.848 20.352"><g transform="translate(-20.233 -282.999)"><path d="M18.153 282.487H39.32v21.167H18.153z" style="fill:none;stroke:#e6e6e6;stroke-width:.264583"/><path d="m26.263 303.178 3.124.039.005-3.363-.874-7.488h-1.415l-.88 7.194z" style="fill:#6495ed;fill-opacity:1;stroke:#6495ed;stroke-width:.264583px;stroke-linecap:butt;stroke-linejoin:miter;stroke-opacity:1"/><path d="m26.988 300.758-.021 1.51s.23.504.413.486c.181-.019.353-.561.353-.561l.052-1.362s-.23-.614-.44-.609c-.178.004-.357.536-.357.536z" style="fill:#f9f9f9;stroke:#f9f9f9;stroke-width:.264583px;stroke-linecap:butt;stroke-linejoin:miter;stroke-opacity:1"/><path d="M-288.467-21.315h2.576v.95h-2.576zM-288.467-35.948h2.576v.95h-2.576zM-288.467-26.307h2.576v.95h-2.576zM-288.467-30.495h2.576v.95h-2.576z" style="fill:#6495ed;fill-opacity:1;stroke:#6495ed;stroke-width:.264584;stroke-opacity:1" transform="rotate(90)scale(-1 1)"/><path d="M27.483 287.217h.79l.924 2.768-.245 1.102-2.086-.004-.278-1.048z" style="fill:#6495ed;fill-opacity:1;stroke:#6495ed;stroke-width:.264583px;stroke-linecap:butt;stroke-linejoin:miter;stroke-opacity:1"/><path d="M-212.269 289.901h6.037v.301h-6.037z" style="fill:#6495ed;fill-opacity:1;stroke:#6495ed;stroke-width:.273936;stroke-opacity:1" transform="matrix(-.95956 -.2815 -.60823 .79376 0 0)"/><path d="M-164.543 306.829h6.037v.301h-6.037z" style="fill:#6495ed;fill-opacity:1;stroke:#6495ed;stroke-width:.273936;stroke-opacity:1" transform="matrix(.95956 -.2815 .60823 .79376 0 0)"/><path d="M23.286 283.131h9.452v.555h-9.452z" style="fill:#6495ed;fill-opacity:1;stroke:#6495ed;stroke-width:.264584;stroke-opacity:1"/><ellipse cx="28.025" cy="284.419" rx="1.315" ry="1.266" style="fill:#6495ed;fill-opacity:1;stroke:#6495ed;stroke-width:.264583;stroke-opacity:1"/><ellipse cx="28.012" cy="284.436" rx=".779" ry=".75" style="fill:#fff;fill-opacity:1;stroke:#6495ed;stroke-width:.264583;stroke-opacity:1"/><path d="M20.365 288.175h15.583v.291H20.365z" style="fill:#6495ed;fill-opacity:1;stroke:#6495ed;stroke-width:.264584;stroke-opacity:1"/></g></svg>