<svg xmlns="http://www.w3.org/2000/svg" width="63.901" height="34.898" viewBox="0 0 16.907 9.234"><path d="M47.926 251.492h21.167v21.167H47.926z" style="fill:none;stroke:#e6e6e6;stroke-width:.264583" transform="translate(-49.829 -258.389)"/><path d="M49.961 261.953h16.643v1.014H49.961z" style="fill:#6495ed;fill-opacity:1;stroke:#6495ed;stroke-width:.264584;stroke-opacity:1" transform="translate(-49.829 -258.389)"/><path d="M-262.968-50.975h4.447v1.014h-4.447zM-262.968-66.604h4.447v1.014h-4.447zM-262.968-56.307h4.447v1.014h-4.447zM-262.968-60.78h4.447v1.014h-4.447z" style="fill:#6495ed;fill-opacity:1;stroke:#6495ed;stroke-width:.264584;stroke-opacity:1" transform="matrix(0 -1 -1 0 -49.829 -258.389)"/><path d="M57.563 260.81h.843l.988 4.778-.263 1.902-2.228-.007-.296-1.809z" style="fill:#6495ed;fill-opacity:1;stroke:#6495ed;stroke-width:.264583px;stroke-linecap:butt;stroke-linejoin:miter;stroke-opacity:1" transform="translate(-49.829 -258.389)"/><path d="M-165.587 215.193h6.847v.456h-6.847z" style="fill:#6495ed;fill-opacity:1;stroke:#6495ed;stroke-width:.264583;stroke-opacity:1" transform="rotate(25.367 549.134 -239.896)scale(-1 1)"/><path d="M-60.653 264.879h6.847v.456h-6.847z" style="fill:#6495ed;fill-opacity:1;stroke:#6495ed;stroke-width:.264583;stroke-opacity:1" transform="rotate(-25.367 -598.963 -18.493)"/></svg>