<svg xmlns="http://www.w3.org/2000/svg" width="63.861" height="67.594" viewBox="0 0 16.897 17.884"><g transform="translate(-49.015 -321.184)"><path d="m61.705 324.283.114-.126.38-.257.639-.24.3.319-.279.622-.28.364-.132.107.398.553.143-.093.433-.15.678-.067.207.386-.43.53-.364.28-.156.07.24.638.163-.053.457-.033.671.11.1.427-.552.402-.424.177-.168.026.067.68.17-.01.449.087.619.28-.015.44-.637.245-.454.062-.169-.019-.111.675.166.035.41.2.525.43-.128.423-.677.072-.454-.057-.158-.062-.283.624.151.077.344.3.395.552-.233.375-.672-.105-.423-.173-.136-.1-.435.53.126.114.255.379.237.636-.322.303-.62-.275-.363-.277-.106-.133-.556.401.092.143.147.432.064.677-.388.21-.528-.427-.278-.362-.068-.156-.64.245.052.161.03.457-.114.671-.429.103-.398-.55-.174-.422-.025-.168-.68.07.007.17-.089.45-.284.62-.44-.011-.241-.635-.06-.454.02-.169-.675-.107-.036.166-.202.412-.434.527-.421-.126-.069-.676.06-.454.063-.159-.623-.279-.078.152-.302.346-.555.397-.373-.23.109-.672.176-.424.1-.137-.528-.431-.114.126-.38.257-.639.241-.3-.32.279-.622.28-.364.132-.107-.398-.553-.143.092-.433.15-.678.068-.208-.386.43-.53.365-.28.155-.069-.24-.639-.162.053-.457.033-.671-.11-.1-.427.552-.402.424-.177.168-.026-.067-.68-.17.01-.449-.087-.619-.28.015-.44.637-.245.454-.062.169.019.111-.675-.166-.035-.41-.2-.525-.43.128-.423.677-.073.454.058.158.062.283-.624-.151-.077-.344-.3-.395-.552.233-.375.672.105.423.173.136.1.435-.53-.126-.114-.255-.38-.237-.636.322-.302.62.275.363.277.106.133.556-.401-.092-.143-.147-.432-.064-.677.388-.21.528.427.278.362.068.155.64-.244-.052-.161-.03-.457.114-.671.428-.103.399.55.174.422.025.168.68-.07-.007-.17.089-.45.283-.62.44.011.242.635.06.453-.02.17.675.107.036-.166.202-.412.434-.527.421.126.069.676-.06.454-.063.159.623.278.078-.151.301-.346.556-.397.373.23-.109.672-.176.424-.1.137z" style="fill:purple;stroke:purple;stroke-width:.264583"/><ellipse cx="-184.087" cy="278.992" rx="5.746" ry="5.712" style="fill:#fff;stroke:#fff;stroke-width:.264583" transform="rotate(-43.259)skewX(.006)"/><path d="M49.863 338.492c0-.435.003-.457.158-1.054l.158-.609h.512l.16.625.162.625h.684l.161-.625.161-.625h.513l.161.625.161.625h.683l.162-.625.162-.625.251-.012.252-.012.057.216.166.637.11.42h.681l.161-.625.161-.625.253-.012.252-.012.11.422.166.636.057.215h.683l.162-.625.16-.624.252-.013.252-.012.162.627.162.626h.693l.161-.624.161-.625h.504l.16.625.162.625h.692l.163-.625.163-.624h.5l.161.625.162.624h.694l.162-.624.162-.625h.501l.162.625.163.624h.691l.162-.624.16-.625h.504l.158.615c.086.337.169.614.182.614.014 0 .025.163.025.363v.362l-2.274.028c-1.252.016-4.296.045-6.766.067-2.47.021-5.028.048-5.684.059l-1.192.018z" style="fill:#00f;stroke:#00f;stroke-width:.264583"/><path d="M47.112 319.878h21.167v21.167H47.112z" style="fill:none;stroke:#e6e6e6;stroke-width:.264583"/></g></svg>