<svg xmlns="http://www.w3.org/2000/svg" width="72.039" height="68.705" viewBox="0 0 19.06 18.178"><path d="M21.299 351.234h21.167v21.167H21.299z" style="fill:none;stroke:#e6e6e6;stroke-width:.264583" transform="translate(-21.98 -352.435)"/><path d="m25.04 352.664 14.412-.096-.74 3.816-6.655-.364 1.424 10.465s-1.72 3.234-3.664 3.779c-2.01.563-4.638-.045-6.275-1.088-.943-.601-1.41-2.577-1.41-2.577l2.499-1.568s1.225 2.473 2.69 2.689c1.205.178 3.163-1.419 3.163-1.419L28.47 355.9l-4.108-.396z" style="fill:#00f;fill-opacity:1;stroke:#00f;stroke-width:.264999;stroke-opacity:1" transform="translate(-21.98 -352.435)"/><path d="M40.866 358.604s-2.668-2.44-4.302-2.367c-1.227.055-2.705.88-3.058 2.058-.49 1.643 1.118 3.266 1.987 4.744.58.988 1.81 1.6 2.125 2.703.137.48.176 1.123-.163 1.49-.716.773-2.096.875-3.105.575-.761-.226-1.728-1.643-1.728-1.643l-.998 1.479s.856 1.746 1.661 2.17c.948.498 2.151.33 3.208.16.914-.149 1.97-.32 2.59-1.009.763-.848 1.104-2.18.904-3.304-.243-1.373-1.606-2.276-2.422-3.405-.655-.905-1.978-1.584-1.985-2.703-.006-.774.58-1.799 1.347-1.889 1.256-.148 2.863 2.496 2.863 2.496z" style="opacity:.8;fill:#f60;stroke:#f60;stroke-width:.264999" transform="translate(-21.98 -352.435)"/></svg>