<svg xmlns="http://www.w3.org/2000/svg" width="69.518" height="69.486" viewBox="0 0 18.393 18.385"><g transform="translate(-77.479 -321.503)"><ellipse cx="-163.532" cy="300.232" rx="9.09" ry="9.036" style="fill:#00f;stroke:#00f;stroke-width:.264583" transform="rotate(-43.259)skewX(.006)"/><path d="m91.23 325.665.115-.127.38-.257.64-.24.3.32-.28.621-.279.365-.133.106.398.554.143-.093.434-.15.678-.068.207.387-.43.53-.364.28-.156.069.24.638.162-.053.457-.033.671.11.1.428-.552.401-.423.177-.169.026.067.68.17-.009.449.087.619.28-.015.44-.636.245-.454.061-.17-.018-.111.675.166.035.41.2.525.43-.128.422-.677.073-.454-.058-.158-.061-.283.624.151.077.345.3.394.552-.233.375-.672-.105-.422-.173-.137-.1-.434.53.125.114.255.379.237.636-.321.303-.621-.276-.363-.277-.106-.132-.556.4.092.143.147.433.064.677-.388.21-.528-.428-.278-.362-.067-.155-.64.244.051.162.03.456-.114.672-.428.102-.398-.55-.175-.422-.025-.167-.68.07.007.17-.089.45-.283.62-.44-.012-.242-.635-.059-.453.02-.169-.675-.108-.036.167-.203.411-.434.527-.421-.125-.069-.677.06-.454.063-.158-.623-.28-.078.152-.301.346-.555.398-.374-.23.109-.673.176-.423.101-.138-.528-.43-.115.126-.38.257-.638.24-.301-.319.279-.622.28-.364.132-.107-.398-.554-.143.093-.433.15-.678.068-.207-.387.43-.53.364-.28.156-.068-.24-.639-.163.053-.457.033-.67-.11-.1-.428.552-.401.423-.177.168-.026-.066-.68-.17.009-.45-.086-.618-.28.014-.44.637-.245.454-.062.169.018.112-.675-.166-.035-.411-.2-.525-.43.128-.422.678-.073.454.058.158.061.282-.624-.15-.077-.345-.3-.394-.552.232-.375.672.105.423.174.137.1.434-.531-.126-.114-.255-.379-.237-.636.322-.302.62.275.363.277.106.132.556-.4-.091-.143-.148-.433-.064-.677.389-.21.527.428.278.362.068.155.64-.244-.051-.162-.03-.456.113-.672.429-.102.398.55.174.421.025.168.681-.07-.008-.17.09-.45.283-.62.44.012.241.635.06.453-.02.169.675.108.036-.167.202-.411.434-.527.421.125.07.677-.061.454-.063.158.623.279.078-.151.302-.347.555-.397.374.23-.11.673-.175.423-.102.138z" style="fill:#fff;stroke:#fff;stroke-width:.264583"/><path d="M76.071 320.813h21.167v21.167H76.071z" style="fill:none;stroke:#e6e6e6;stroke-width:.264583"/><path d="m89.001 325.083.168-.196.228-.163.56-.203.244.26-.237.546-.176.217-.206.156.33.517.228-.123.27-.07.594.013.133.33-.417.425-.243.14-.248.071.12.602.257-.033.277.033.548.226.005.357-.542.246-.276.043-.257-.023-.105.606.25.062.246.13.428.41-.125.335-.593.035-.273-.06-.23-.114-.317.529.21.148.182.21.25.538-.237.268-.565-.182-.231-.154-.174-.19-.485.38.142.214.093.263.038.593-.317.164-.46-.373-.16-.228-.092-.24-.59.18.055.25-.008.28-.178.568-.355.04-.293-.516-.066-.27v-.258l-.612-.046-.04.255-.11.258-.37.466-.344-.09-.086-.588.035-.277.094-.24-.554-.264-.13.224-.193.201-.514.302-.287-.21.132-.58.133-.245.174-.191-.42-.447-.2.163-.254.118-.587.097-.192-.3.333-.494.213-.182.23-.116-.229-.568-.246.079-.278.019-.581-.122-.07-.349.488-.342.264-.093.256-.025-.007-.614-.258-.015-.266-.083-.496-.323.06-.352.578-.143.279.009.248.07.215-.578-.234-.107-.218-.173-.345-.482.184-.306.589.074.256.109.206.155.408-.462-.179-.185-.14-.24-.147-.575.282-.22.521.282.2.194.135.219.546-.284-.1-.237-.042-.276.07-.59.342-.104.383.452.115.254.047.253.611-.068-.007-.258.06-.273.279-.526.355.026.193.561.016.278-.048.254.593.157.086-.243.154-.234.45-.39.321.152-.023.594-.086.266-.136.22z" style="fill:purple;stroke:purple;stroke-width:.264583"/><ellipse cx="-161.929" cy="298.152" rx="3.194" ry="3.175" style="fill:#fff;stroke:#fff;stroke-width:.264583" transform="rotate(-43.26)skewY(-.002)"/></g></svg>