<svg xmlns="http://www.w3.org/2000/svg" xml:space="preserve" width="506.169" height="265.652" viewBox="0 0 133.924 70.287"><defs><path id="d" d="M286.554 1917.612H498.85v60.384H286.554z"/><path id="c" d="M234.958 1909.219h219.811v85.039H234.958z"/><path id="b" d="M157.592 1859.398h195.993v63.374H157.592z"/><path id="a" d="M81.168 1809.792h157.585v40.556H81.168z"/></defs><path d="M14.726 462.748h133.659v70.022H14.726z" style="fill:#fff;stroke:#fff;stroke-width:.264583;stroke-linejoin:bevel" transform="translate(-14.593 -462.616)"/><path d="M17.017 464.786h129.351v63.518H17.017z" style="fill:#fff6d5;stroke:#d4aa00;stroke-width:.264583;stroke-linejoin:bevel" transform="translate(-14.593 -462.616)"/><path d="M45.711 474.553h98.816v51.944H45.711z" style="fill:#dde9af;stroke:green;stroke-width:.264583;stroke-linejoin:bevel" transform="translate(-14.593 -462.616)"/><path d="M82.189 481.912h59.79v41.143h-59.79z" style="fill:#d5f6ff;stroke:#006680;stroke-width:.264583;stroke-linejoin:bevel" transform="translate(-14.593 -462.616)"/><text xml:space="preserve" style="font-size:14.6667px;line-height:1.25;font-family:sans-serif;white-space:pre;shape-inside:url(#a);display:inline" transform="translate(-16.435 -475.623)scale(.26458)"><tspan x="81.168" y="1823.138">any solid 3D shapes</tspan></text><text xml:space="preserve" style="font-size:14.6667px;line-height:1.25;font-family:sans-serif;white-space:pre;shape-inside:url(#b);display:inline" transform="translate(-8.022 -479.115)scale(.26458)"><tspan x="157.592" y="1872.743">technical 3D shapes</tspan></text><text xml:space="preserve" style="font-size:14.6667px;line-height:1.25;font-family:sans-serif;white-space:pre;shape-inside:url(#c);display:inline" transform="translate(7.407 -484.388)scale(.26458)"><tspan x="234.959" y="1922.564">Parametrix 3D shapes
</tspan></text><text xml:space="preserve" style="font-size:14.6667px;line-height:1.25;font-family:sans-serif;white-space:pre;shape-inside:url(#d);display:inline" transform="translate(1.229 -457.01)scale(.26458)"><tspan x="286.555" y="1930.956">(combination of extrudes </tspan><tspan x="286.555" y="1949.29">orthogonal or rotated)</tspan></text><path d="M113.743 511.893c-.331-.24-.833-.928-.955-1.31l-.065-.202-.082-.044c-.092-.05-.415-.059-.528-.015l-.074.028v.08c0 .043-.074.202-.164.351-.09.15-.164.289-.164.31 0 .02-.166.206-.37.414l-.37.379-.156-.004a2.4 2.4 0 0 1-.389-.059l-.232-.054-.106-.187a4 4 0 0 1-.227-.549l-.122-.361-.026-.352-.027-.352-.224-.067-.223-.066-.093.024-.093.024-.02.08c-.053.201-1.109.933-1.498 1.038l-.184.05-.287-.116-.288-.115-.033-.18c-.017-.1-.033-.544-.035-.989l-.003-.807-.116-.054-.117-.053-.082.072c-.254.224-1.339.623-1.835.675l-.27.029-.237-.134-.237-.133-.026-.095c-.014-.052-.026-.482-.026-.955v-.86l-.2.03c-.109.017-.474.044-.81.06l-.612.03-.171-.033-.17-.032-.138-.2-.138-.2-.034-.898-.034-.898-.098-.019-.467-.093-.368-.075-.128-.091-.127-.09-.075-.248-.074-.248-.031-.94-.032-.94-.134-.08a.55.55 0 0 1-.177-.159l-.041-.08-.06-1.414-.061-1.415.113-.121c.062-.067.172-.156.244-.199l.13-.077-.031-.984-.033-.983.076-.147.076-.147.153-.094c.134-.083.389-.158.897-.265l.135-.029-.024-.804-.023-.804.224-.22.224-.219.219-.032c.12-.018.49-.023.822-.011l.603.021v-1.522l.218-.178.219-.179.284.01.285.01.45.115c.371.094.732.221 1.098.385l.051.023.031-.43c.017-.237.03-.627.03-.867v-.436l.196-.1.195-.1.214.022.214.021.351.148c.33.14.763.397 1.032.616l.12.098.22-.055.219-.055v-.263c.001-.34.107-.834.229-1.074l.096-.188.315-.034.314-.033.195.103c.246.13.8.634.975.886l.134.193h.128c.07 0 .192-.013.27-.028l.142-.029.05-.194c.065-.252.273-.605.518-.883l.197-.223h.699l.143.152c.078.084.225.278.326.43l.183.28.072.246c.084.289.07.276.37.316l.234.032.177-.239.178-.238.364-.27c.2-.148.428-.296.507-.329l.143-.059.274.05.275.05.06.083c.034.045.103.22.154.388l.093.307.01.393.01.392.223.07.224.069.127-.101c.364-.287 1.142-.642 1.52-.694l.205-.028.242.123.243.123-.002.315a10 10 0 0 1-.062.82l-.059.506.089.048.089.048.242-.094c.498-.194 1.18-.335 1.62-.335h.268l.218.166.217.166-.002.173c-.001.095-.039.458-.084.805l-.081.631.726.004.727.004.21.06.211.058.175.17.176.169-.001.142c0 .079-.042.416-.093.75-.05.335-.091.654-.092.708l-.001.1.197.031c.717.115 1.129.333 1.212.642l.057.213-.125.79c-.07.436-.125.837-.125.892v.101l.222.128c.123.07.259.172.303.226l.081.1v.21c0 .116-.093.768-.207 1.45l-.209 1.239-.063.047-.063.047-.177 1.072c-.098.59-.212 1.166-.254 1.281l-.077.21-.102.066c-.056.037-.276.098-.488.135-.477.083-.407-.039-.564.99-.145.951-.163 1.007-.38 1.181l-.147.117-.446-.01a7 7 0 0 1-.842-.08 4 4 0 0 0-.403-.06 26 26 0 0 0-.11.782c-.055.424-.112.828-.126.898l-.024.126-.199.116c-.109.064-.253.13-.32.147l-.12.03-.297-.075a8 8 0 0 1-.738-.246l-.441-.17-.302-.203c-.31-.207-.383-.237-.383-.155 0 .087-.189 1.705-.216 1.856l-.028.15-.214.072c-.117.04-.29.073-.381.073h-.168l-.233-.123a4.6 4.6 0 0 1-1.267-1.01l-.144-.167-.226.042c-.282.053-.257.019-.308.424-.115.916-.436 1.45-.91 1.511l-.234.03zm.35-2.231.004-.281-.247-.28c-.43-.488-.829-1.119-.829-1.309 0-.04-.019-.072-.042-.072h-.042l-.027.316c-.016.174-.052.712-.08 1.196l-.054.88.03.183c.053.333.591 1.148.958 1.451l.17.14.077-.972c.043-.534.08-1.098.082-1.252zm-2.683 1.576c.144-.172.293-.352.33-.398q.092-.113.255-.523c.02-.052.06-.547.088-1.1.029-.553.064-1.13.079-1.28l.027-.275-.053.033-.054.033.031-.132a.6.6 0 0 1 .103-.215l.07-.082h.589l.073.104a.4.4 0 0 1 .073.177c0 .226.512 1.073.911 1.506.117.126.212.252.212.28v.052l.28-.03.28-.029-.002.198c-.001.11-.04.64-.086 1.18-.095 1.117-.096 1.092.056.789.254-.508.315-.82.446-2.297l.08-.9-.034-.012-.034-.012.043-.187a3 3 0 0 0 .045-.543l.001-.355.082-.074.082-.074.28-.03.281-.03.161.24c.204.304.773.847 1.195 1.141l.327.228.313-.108.313-.109.033-.35c.018-.192.02-.503.004-.692l-.029-.343-.088-.262-.089-.263.024-.09.024-.092.23-.117.231-.116.084.026c.046.015.175.11.286.213.11.102.215.186.232.186s.197.094.4.21c.201.115.547.285.767.377l.4.168.249-.132.248-.132-.03-.207c-.063-.431-.416-1.267-.661-1.562-.15-.181-.14-.233.086-.426l.196-.167h.099c.055 0 .12.02.144.044.142.14 1.166.467 1.822.582l.374.065.11-.1a1 1 0 0 0 .154-.184l.046-.085-.127-.22c-.21-.363-.693-.955-.973-1.195-.22-.187-.366-.38-.22-.29l.041.026.028-.074a.4.4 0 0 0 .029-.122v-.05l-.07.06c-.109.089-.084.001.049-.172l.119-.156h.089c.049 0 .21.033.36.074l.271.075.825.025.824.025.08-.239.08-.239-.03-.048c-.104-.168-1.184-.943-1.545-1.108-.277-.127-.304-.196-.208-.542l.049-.175h1.001l.468-.094c.257-.051.526-.106.597-.122l.128-.03v-.502l-.199-.126c-.334-.211-1.08-.526-1.492-.63-.215-.053-.418-.12-.451-.146l-.06-.05.013-.237.014-.237.117-.034c.064-.019.279-.07.477-.112l.36-.079.435-.216.435-.215v-.436l-.035.022c-.019.012-.035 0-.035-.026v-.047l-.366-.116c-.493-.156-1.307-.31-1.64-.31h-.27l-.103-.11-.104-.11-.026-.16-.026-.161.39-.194.391-.195.34-.31c.186-.171.338-.29.338-.264s-.15.185-.335.353l-.336.307-.32.167c-.175.093-.318.176-.318.185a1 1 0 0 1-.032.099l-.031.081.062-.038.062-.038-.033.053-.033.053.047.087.047.088.435.03c.239.016.476.035.526.042l.091.012.083-.561c.046-.31.092-.67.104-.801l.022-.24-.152-.147a1 1 0 0 0-.313-.199l-.16-.051-.796-.013-.795-.014.01-.11c.01-.126.096-.861.134-1.139l.026-.187-.054.07-.054.07.033-.093c.018-.051.043-.126.054-.167l.022-.073-.083-.067-.082-.067.035.058.035.059h-.038c-.022 0-.06-.047-.087-.105l-.048-.106-.056.012c-.032.006-.057-.009-.057-.035v-.047h-.256c-.325 0-1.087.147-1.452.28-.154.057-.312.112-.35.124l-.07.021-.223-.14-.222-.142v-.07c0-.037.052-.146.117-.24.14-.208.156-.155.02.069l-.097.158.072.073c.116.116.12.092.199-1.07l.027-.398-.243-.114-.243-.114-.3.079c-.374.098-1.012.399-1.254.591-.21.167-.228.17-.5.073-.262-.092-.27-.107-.27-.556l-.002-.378-.098-.315-.098-.315-.08-.041a1.3 1.3 0 0 0-.3-.074l-.22-.032-.154.079a5 5 0 0 0-.465.307l-.31.229-.197.26-.197.26-.241-.032a1.4 1.4 0 0 1-.318-.073l-.077-.04-.056-.233-.056-.233-.163-.271a3 3 0 0 0-.309-.423l-.146-.152h-.681l-.192.243c-.218.275-.392.6-.44.818-.043.2-.115.25-.413.28l-.253.027-.222-.288c-.232-.302-.677-.7-.926-.829l-.147-.076-.284.03-.283.029-.06.082a1.6 1.6 0 0 0-.139.339l-.077.257.003.385.003.384-.036-.022c-.02-.012-.046.007-.06.042l-.024.063-.223.056-.223.057-.12-.098a4.8 4.8 0 0 0-1.032-.617l-.351-.147-.215-.022-.214-.021-.154.08-.155.08.024.417.024.418.15.305.15.305-.054.066a1 1 0 0 1-.258.164l-.204.098-.178-.09c-.27-.137-.909-.328-1.364-.408l-.406-.07-.117.026a.8.8 0 0 0-.267.153l-.15.127.191.388.192.388.273.278.274.277-.027.069a.8.8 0 0 1-.193.196l-.167.128-.332-.06c-.41-.075-1.44-.12-1.73-.077l-.215.032-.14.119c-.078.065-.141.149-.141.187v.069l.344.34.345.34.357.183.358.183.026.081.026.08-.079.166c-.105.221-.084.214-.71.236l-.55.018-.491.1a4.6 4.6 0 0 0-.686.184l-.195.086-.05.094a.4.4 0 0 0-.052.138c0 .114 1.198.705 1.638.808.141.034.286.087.321.119l.065.057-.032.211c-.038.256-.078.291-.378.333-.528.073-1.615.49-1.908.731l-.173.144v.274h.11c.061 0 .267.05.457.112.486.16 1.03.265 1.422.276l.336.01.073.06.073.062.032.187.032.187-.073.081a.8.8 0 0 1-.25.144c-.45.16-1.335.781-1.59 1.116l-.151.2.054.119.054.119.096-.027c.053-.015.332-.002.62.029l.525.056.505-.058c.277-.032.582-.07.676-.084l.172-.026.12.191c.067.105.121.228.121.274v.083l-.365.309-.366.309-.295.391a5 5 0 0 0-.392.593l-.098.2.118.119.118.118.129-.049c.07-.027.22-.049.33-.049.416 0 1.77-.334 1.918-.473.264-.246.678.322.447.613-.077.098-.14.196-.14.218a.8.8 0 0 1-.117.214c-.134.196-.309.66-.424 1.123l-.079.315.15.14.15.14.124-.093a1.8 1.8 0 0 1 .43-.18c.593-.17 1.407-.573 1.61-.796l.088-.098h.346l.159.108.159.107-.007.138c-.004.076-.05.302-.102.503l-.095.364-.01.501c-.004.275.009.541.03.59l.036.09-.055-.034-.054-.034v.33l.06-.023c.034-.013.139.009.233.048.183.077.256.091.206.04-.017-.016.009-.053.057-.081.674-.39 1.374-.952 1.648-1.322l.184-.25h.15c.084.001.228.022.322.049l.17.047.035.08c.018.045.036.266.04.492l.005.41-.052-.02-.052-.02-.017.616c-.027.98-.009 1.76.05 2.089l.054.304.168.363c.093.2.174.357.18.35.01-.009.11-1.853.127-2.315l.002-.059.085.077.085.076.199-.026.199-.027.02-.061c.011-.034.129-.178.261-.32.302-.322.481-.558.682-.898.165-.28.229-.33.13-.101-.104.24-.415.672-.738 1.027l-.317.347-.028.41c-.016.224-.044.775-.061 1.224l-.032.815.147-.104a3 3 0 0 0 .408-.418zm-.485-5.871-.435-.105.036-.037.036-.036-.077.03-.078.03-.272-.055c-.679-.136-2.046-.708-2.938-1.23-.533-.312-1.46-1.139-1.599-1.426l-.074-.153.024-.209.024-.209.126-.166c.246-.323.75-.547 2.528-1.126l.983-.32h.42l.422-.001.257.125c.141.07.373.19.514.27.142.079.444.21.673.29l.415.146.16.141c.089.078.202.221.252.32l.09.177v.355l-.046-.07a.36.36 0 0 1-.046-.161c0-.102-.174-.48-.237-.52l-.042-.025-.021.107c-.012.06-.057.81-.099 1.669l-.077 1.56.135.147c.075.08.16.206.192.279l.056.132.151-.126c.084-.07.18-.179.214-.242s.074-.104.088-.09c.046.047-.22.356-.42.488l-.191.126-.354.01-.355.01zm.805-.278c.015-.16.059-.976.098-1.813.039-.836.081-1.61.093-1.722l.023-.201-.245-.108a7 7 0 0 0-.503-.191 5 5 0 0 1-.668-.317c-.506-.287-.453-.383-.502.91-.023.6-.053 1.347-.067 1.66l-.026.567.109.027c.06.016.191.086.293.156.1.07.341.207.534.303l.35.175-.101.002c-.056.001-.243-.072-.416-.162l-.314-.163.028.298.028.299.08.187.082.187.237.054c.5.113.615.135.736.14l.125.005zm-3.118-1.063c.328-.102.651-.196.718-.21l.122-.023.03-.668c.016-.367.043-1.128.06-1.69l.031-1.023-.159.033c-.665.136-3.238 1.052-3.5 1.246a.73.73 0 0 0-.284.577v.171l.07.126c.08.14.17.223.816.75 1.078.878 1.31.956 2.096.711zm6.584 1.173c-.605-.157-.853-.488-.96-1.279a68 68 0 0 0-.189-1.241c-.075-.47-.137-.95-.137-1.067v-.211l.222-.221.222-.22.337-.177a4 4 0 0 0 .58-.384c.135-.114.329-.266.432-.338l.187-.13.355-.015.354-.015 1.094.193c2.119.374 2.575.528 2.865.968l.087.133-.006.21-.006.21-.018-.116c-.042-.269-.07-.329-.248-.522l-.186-.203-.001.062c0 .034-.044.41-.096.837-.107.872-.104.896.078.614.072-.112.18-.25.238-.307a.8.8 0 0 0 .155-.229c.026-.069.058-.114.07-.101.05.048-.076.274-.362.652a8 8 0 0 0-.346.484c-.028.05-.28.296-.561.545l-.51.452-.772.44-.772.44-.749.263-.748.265-.234.022a1.4 1.4 0 0 1-.374-.014zm1.357-.366.748-.264.575-.326c.316-.178.566-.332.557-.342-.101-.1-2.406-.42-2.682-.372l-.193.034-.275.23a8 8 0 0 1-.567.424l-.294.196.029.098c.107.376.625.657 1.12.609l.233-.023zm-1.949-.687c.098-.062.272-.193.386-.292.115-.1.268-.224.34-.276l.132-.097.135-1.587c.074-.874.135-1.627.136-1.676l.001-.087-.175.131a7 7 0 0 0-.345.28c-.093.082-.323.23-.51.33l-.342.179-.183.189-.183.189.02.304c.016.244.162 1.258.341 2.374.03.181.023.18.247.04zm4.431-.712.418-.358.145-1.221c.08-.672.143-1.223.14-1.225-.12-.08-3.06-.628-3.366-.628h-.17v.058c0 .032-.064.783-.141 1.668-.078.885-.132 1.619-.12 1.63.012.012.175.04.363.062s.742.113 1.231.201.933.163.986.166l.097.004zm-14.362-3.036a.88.88 0 0 1-.495-.447l-.086-.168-.033-.63-.032-.63.107-.582.107-.582.29-.608.291-.609.383-.49c.211-.27.44-.533.51-.584.069-.05.136-.105.149-.12a.7.7 0 0 1 .182-.084l.159-.055h.644l.16.067c.297.125 2.189 1.637 2.481 1.984l.116.138v.513l-.124.275-.123.275-.06.367-.061.367-.12.182-.12.181-.223.112c-.122.06-.632.242-1.134.402s-1.186.396-1.52.524l-.608.235-.328.019-.327.02zm1.425-.288c.321-.126.913-.331 1.316-.457l.731-.229-.385-.364c-.211-.2-.488-.45-.614-.554l-.23-.19-.246-.078-.246-.078-.24.062c-.132.034-.313.11-.402.17l-.16.11-.354.457-.354.458-.18.387c-.218.467-.217.453-.028.517l.152.052.327-.018.328-.018zm-1.457-.307.18-.386.398-.515c.471-.607.552-.686.778-.75l.17-.048.013-1.577c.007-.868-.002-1.577-.019-1.577s-.138.053-.27.12l-.238.119-.368.477-.37.476-.29.609-.29.608-.107.582-.108.582.033.627.032.626.053.124c.051.12.172.289.207.289.009 0 .097-.174.196-.386zm4.058-.591.286-.136.096-.203.097-.204.034-.28.033-.28.139-.305.139-.305.002-.247.002-.247-.112-.122c-.345-.374-1.894-1.617-2.229-1.787l-.199-.102v1.44c0 .792-.013 1.513-.028 1.603l-.026.164.132.078c.073.043.372.3.665.573l.532.495h.076c.042 0 .205-.061.362-.135zm-1.81-2.749.004-1.503-.074-.029a1.3 1.3 0 0 0-.304-.028h-.23v3.18l.175.004c.097.002.218.02.27.04l.093.037.03-.099c.017-.054.033-.775.035-1.602zm5.173 3.754a3 3 0 0 1-.491-.177l-.258-.12-.274-.27-.275-.271-.087-.192-.087-.191.006-.421.006-.421.033.398.032.397.099.223.099.223.072.028c.04.015.073.051.074.08.003.093.913.629.97.572.026-.026.149-2.379.126-2.415-.011-.019-.079-.048-.15-.065a1.3 1.3 0 0 1-.303-.146.8.8 0 0 0-.222-.114c-.027 0-.048-.017-.048-.039s-.053-.067-.117-.101-.117-.083-.117-.107v-.045l.071.06c.16.132.099.005-.08-.167l-.192-.185.054.102c.077.146.066.194-.017.076l-.07-.1.025-.064.024-.064-.075-.092-.075-.092.027.084.026.084-.046-.028c-.054-.033-.063-.211-.011-.21.02.001.106.106.192.234l.158.232.31.204.31.203.328.09.328.088h.374c.206 0 .458-.008.561-.02l.187-.021-.011.056c-.015.07.027.07.215.005l.147-.051v-.061c0-.034.068-.105.152-.159.168-.107.152-.128-.033-.044-.065.03-.119.073-.119.096v.042l-.046-.028c-.025-.016-.155.004-.289.044l-.243.072h-.726v-.082c.001-.045-.02-.166-.046-.269a9 9 0 0 1-.074-.312l-.026-.125-.148-.074c-.19-.095-.267-.093-.588.02-.147.051-.33.094-.409.094h-.142l-.134-.222-.134-.222.065-.117.066-.118.35-.122.349-.122.016-.135.016-.135-.25-.22-.249-.22-.13.124c-.14.134-.361.56-.364.699 0 .046-.03.122-.064.167l-.063.083-.11-.043c-.062-.025-.407-.291-.767-.593s-.77-.635-.91-.74a8 8 0 0 1-.48-.399l-.224-.205.002-.262.002-.262.104-.122c.162-.19.426-.31 1.133-.512l.654-.187.866-.121.865-.12.866.028.865.029.725.11c.399.062.799.142.889.18l.164.069.175.194.176.195v.35l-.083.126c-.124.192-.908 1.207-.954 1.235l-.04.025.112.15c.061.081.15.222.196.312l.085.164.003.448.003.448-.203.262c-.348.452-.986.828-1.408.83a.4.4 0 0 0-.18.04l-.06.037-.068 1.05a51 51 0 0 0-.069 1.199v.15l.152-.026c.242-.042.602-.162.833-.278l.213-.107.172-.19a2 2 0 0 0 .272-.403c.12-.254.149-.254.073-.001l-.055.183-.24.26-.24.261-.298.152-.298.151-.252.048c-.332.062-.953.053-1.245-.018zm.82-.18c.007-1.073.153-2.358.272-2.39.042-.01-.054-.023-.215-.025l-.292-.005v.125l-.21-.032a3 3 0 0 0-.212-.028c0 .002-.032.541-.068 1.197l-.068 1.193.033.031c.047.045.227.073.513.08l.246.006zm-2.22-4.187c.016-.07.062-.22.102-.33l.074-.203.198-.22c.11-.122.272-.26.361-.31l.163-.087.03-.635c.016-.35.041-.799.057-.998l.027-.363h-.092c-.05 0-.395.042-.765.093l-.673.092-.655.188c-.36.104-.74.222-.842.262l-.187.074-.129.14-.128.14v.37l.167.162c.181.176.232.196.272.105l.026-.059-.01.077-.011.077.28.208c.155.115.587.464.96.776.753.63.735.62.775.441zm3.954-.997.08-.114.052-.725c.028-.399.051-.81.05-.914v-.19l-.713-.103-.713-.104-.802-.03-.801-.03-.028.417c-.016.229-.042.677-.058.996l-.03.58.088-.035a6 6 0 0 1 .321-.107l.234-.073.446.002.446.002.29.074c.331.085.627.225.824.389.154.13.202.124.314-.035zm4.954 4.511a34 34 0 0 0-1.637-.326l-1.193-.212-.188-.083a1.3 1.3 0 0 1-.335-.23l-.147-.147-.19-.387a4.6 4.6 0 0 0-.426-.681c-.129-.163-.234-.33-.234-.374v-.078l.124.186c.069.103.206.285.305.405.1.12.243.355.32.523.075.167.156.316.18.33l.041.026.131-.198c.226-.34.467-.626.516-.61.026.01.084-.01.128-.044l.082-.059.138-1.497c.173-1.87.175-1.789-.039-1.575-.046.046-.108.077-.136.067l-.05-.017-.326.389c-.413.492-1.274 1.62-1.274 1.667 0 .02-.032.077-.071.127l-.071.091.03-.135.032-.136.512-.67c.281-.37.652-.833.823-1.031l.312-.36.21-.107.211-.108h.235c.13-.002.341.025.47.059l.234.06.63.521.63.52.427.53.427.53.286.572c.158.315.286.589.285.608s-.133-.217-.293-.527l-.29-.564-.436-.536-.436-.535-.406-.345a9 9 0 0 0-.657-.507l-.25-.163-.035.04c-.02.021-.092.639-.16 1.372-.07.733-.138 1.42-.152 1.525l-.026.191.151.063c.083.034.393.27.688.523l.536.462.3.37c.163.203.298.39.298.413 0 .024.063.056.14.071.078.016.14.05.14.076 0 .059.027.063-.514-.075zm-.074-.286-.28-.348c-.178-.218-1.116-1.005-1.326-1.112l-.202-.103-.272.001-.273.001-.178.095c-.245.13-.394.272-.59.564l-.168.249.112.088c.204.16.417.217 1.616.432.963.173 1.488.28 1.722.35a1.6 1.6 0 0 0-.16-.218zm-1.748-1.693c.2-1.92.305-3.075.281-3.102-.017-.019-.16-.048-.32-.065l-.29-.03v.1c0 .109-.215 2.497-.259 2.887l-.027.236h.306c.169 0 .308-.011.31-.026zm-.036 13.77.218-.074.024-.148c.053-.322.223-1.887.217-2.005-.003-.07.016-.139.042-.155s.047-.047.047-.069v-.04l-.235.076-.235.075.023.06c.036.095.007.076-.214-.137a5 5 0 0 0-.496-.404 6 6 0 0 1-.682-.61l-.39-.405-.05.105-.049.105.023.206.024.207-.05.03-.05.032.027.226.027.226-.05.031-.05.031.026.226.027.227-.051.031-.052.032.029.208.028.208-.051.062-.052.062.038.239.037.238.113.134c.249.295.774.702 1.189.92.273.145.31.148.598.05zm-9.818-.463c1.153-.657 1.185-.715 1.22-2.2.015-.617.039-1.2.053-1.295l.025-.173-.39.387-.389.386-.47.31c-.26.17-.494.336-.522.37l-.051.062-.035 1.181-.034 1.181h.226zm12.729-.977c.014-.08.088-.61.164-1.175l.139-1.028-.058-.056c-.032-.031-.227-.123-.433-.203-.53-.209-1.107-.523-1.38-.754-.129-.108-.24-.188-.25-.178-.013.018-.314 2.639-.312 2.722.006.195 1.737.915 2.021.84l.083-.021zm-15.367-.526c.27-.088.617-.228.771-.311l.281-.152.03-.304c.016-.167.032-.804.035-1.415l.005-1.11-.203.154c-.22.169-.827.473-1.27.638a7 7 0 0 0-.523.225l-.241.12-.148-.125c-.082-.068-.168-.124-.192-.124h-.043v-.152c.002-.202.145-.736.298-1.108l.123-.3v-.46c0-.253-.005-.46-.012-.46-.006.001-.165.053-.352.117-.41.139-1.21.304-1.472.304-.103 0-.27.025-.372.056l-.184.055.028.985c.016.543.04 1.094.053 1.227l.024.24.103.028c.236.064 1.128.015 1.705-.093l.152-.029v.883c0 .485.012.924.026.976l.026.095.22.128.219.129.21-.028c.116-.016.432-.1.702-.189zM123 507.907c.038-.034.416-2.391.388-2.419-.013-.013-.309-.08-.988-.226a8 8 0 0 1-1.152-.368l-.076-.033-.06.472-.06.472.123.361c.067.199.146.495.174.659l.051.297-.083.092-.084.092.07-.015.068-.015-.015.263-.015.263.31.059c.638.12 1.244.14 1.35.046zm1.373-2.295a.5.5 0 0 0 .194-.104c.047-.057.448-2.367.44-2.528a.6.6 0 0 1 .04-.204l.045-.118.084.022.084.022.182-1.115c.213-1.304.249-1.19-.33-1.044-.257.065-.614.13-.794.145-.18.016-.35.045-.376.066l-.048.038-.069-.044a.5.5 0 0 0-.215-.044h-.146l-.029.105a1 1 0 0 0-.028.233l-.001.127.198.101c.2.102.513.298.643.402l.236.187c.09.072.266.24.39.375l.226.243-.078.235-.078.235.033.054.034.054-.954-.026-.954-.026-.17-.044-.171-.045-.032.295-.031.294.285.34c.382.455.615.812.714 1.094l.081.234-.026.21a3 3 0 0 1-.047.286l-.02.075.27-.041c.148-.023.336-.063.418-.09zm-22.937-.833-.028-.275.115-.251c.125-.271.593-.914.828-1.137l.145-.138v-.673l-.223.024a9 9 0 0 0-.404.053l-.183.03-.495-.038c-.273-.02-.575-.042-.67-.046l-.174-.01-.045.046-.045.046.051 1.16.052 1.161.126.09c.135.096.582.219.828.227l.151.005zm-1.42-2.689v-.156l.14-.192c.152-.21.452-.462.916-.767l.3-.198v-.728h-.095c-.163 0-.8-.144-1.164-.263l-.348-.113-.038.038-.037.037.052 1.145.052 1.144.066.105c.036.058.085.105.11.105h.046zM73.448 514.254c-.63-.239-1.691-1.027-2.218-1.646-1.91-2.248-2.686-3.195-3.487-4.253a68 68 0 0 0-1.184-1.53l-.256-.306-.376.196c-.212.111-.663.227-1.035.267l-.66.07-.169.21a1.2 1.2 0 0 0-.209.402c-.637 3.154-1.594 4.926-3.064 5.673l-.579.295-.72.099c-3.264.45-7.56-2.016-8.866-5.087l-.284-.67v-1.42l.173-.404c.68-1.587 3.013-2.267 8.97-2.614.9-.052 1.842-.137 2.092-.187l.455-.092.25-.353c.327-.46.4-.32-.844-1.622-1.192-1.246-1.544-1.77-1.764-2.626-.852-3.31 2.932-7.665 7.23-8.323l.705-.108.434.122.435.122.344.344.344.344.144.493.143.494-.1.621c-.159.999-1.202 3.793-2.634 7.059-.257.585-.49 1.204-.517 1.376l-.051.312.364.602c.2.332.39.777.422.99s.152.55.266.75l.207.365.358-.029c.198-.016.707-.128 1.132-.25 2.969-.846 4.59-.856 5.955-.038.97.581 1.953 2.077 2.386 3.63l.217.78.054 1.047.054 1.046-.141.74c-.29 1.522-.987 2.714-1.822 3.119l-.392.19-.63-.005-.632-.004zm1.59-.078c-.049-.078.507-.295.577-.225.079.08.29-.151.229-.25-.032-.052-.015-.068.038-.035.24.148.896-.964 1.17-1.988l.171-.637-.007-1.319-.007-1.319-.19-.682c-.698-2.49-2.012-3.87-3.97-4.172l-.625-.096-.74.13a28 28 0 0 0-2.83.631c-.45.124-.969.227-1.152.229-.184.001-.352.054-.373.116l-.04.114-.255-.288-.255-.289-.108.109c-.06.06-.157.2-.217.31-.06.112-.17.204-.244.204h-.136l.182-.25c.1-.138.248-.508.328-.823l.144-.572-.148-.383a2.8 2.8 0 0 0-.38-.656c-.127-.15-.2-.212-.162-.137s.036.105-.007.067a.4.4 0 0 1-.09-.228 2 2 0 0 0-.085-.384c-.04-.125-.04-.197 0-.159.071.067.34-.573.271-.643-.02-.019-.118.128-.22.327-.221.434-.304.471-1.24.559l-.728.068-.389.245c-.36.228-.52.417-1.046 1.232-.198.306-.3.387-.655.516l-.182.067.273.058c.15.032-.607.087-1.683.122-6.109.2-8.676.861-9.51 2.449l-.224.429v.534c0 .567.527 2.397.543 1.885.001-.048.066.003.144.114s.113.25.077.307c-.035.058-.026.081.021.052s.248.138.446.371c1.313 1.544 3.207 2.782 5.012 3.277.355.097.562.193.486.225-.074.03.05.035.276.012l.41-.042-.183.08-.182.079 1.137-.02c1.863-.03 2.923-.637 3.66-2.092l.32-.637c.253-.505.451-1.142.756-2.43l.26-1.106.183-.182.182-.183.646-.069c.709-.075 1.315-.32 1.32-.533s-.144-.266-.621-.22l-.443.044.058-.094c.032-.052.17-.094.308-.094s.296-.047.353-.104l.103-.104.286.24c.158.133.33.215.384.182.058-.037.07-.018.03.047-.038.063.107.323.35.628.229.286.678.856.998 1.266s.613.717.651.683c.04-.035.046-.02.015.034-.082.144 1.56 2.139 2.556 3.107.218.211.369.427.337.48-.064.102.317.6.626.817.106.074.03-.069-.171-.319l-.363-.453.408.368c.225.202.542.465.705.585s.295.269.295.33c0 .183 1.065.536 1.648.547.292.005.511-.021.488-.06zm-11.227-9.985-.292-.254-.05-.38c-.193-1.434 2.033-1.93 2.3-.513.03.164.112.32.183.346.32.124-.039.786-.452.831-.12.014-.301.07-.404.125s-.369.1-.59.1h-.404zm-.03-2.808c.177-.074.547-.126.831-.116.282.01.618-.01.747-.046l.235-.063.428-.835c.235-.46.536-1.04.669-1.29.65-1.227 1.64-3.668 2.104-5.186.481-1.576.482-1.901.009-2.616l-.274-.414-.363-.145c-2.328-.932-7.06 2.355-8.187 5.686-.581 1.718-.138 2.927 1.795 4.895l.93.947.378-.342c.208-.188.522-.401.698-.475z" style="fill:#d4aa00;stroke:#1a1a1a;stroke-width:.264583" transform="translate(-14.593 -462.616)"/><path d="M29.74 513.339c-.703-.146-1.35-.342-1.437-.436s-.175-.909-.196-1.812c-.028-1.236.1-1.788.518-2.23.39-.414.52-.903.44-1.642-.062-.58.023-1.115.191-1.19.197-.089.19-.146-.022-.162-.18-.014-1.745-1.537-3.477-3.385-1.733-1.848-3.204-3.188-3.269-2.979s-.369.38-.676.38-.822-.282-1.142-.627c-.403-.433-.583-1.045-.583-1.98 0-1.072.169-1.526.817-2.195.45-.463.949-.842 1.108-.842s.434-.154.609-.343c.23-.247-.003-.862-.84-2.217-.64-1.037-1.084-2.083-.992-2.34.093-.261.04-.38-.123-.273-.158.106-.288.118-.288.027 0-.09.218-.656.484-1.256.478-1.078.474-1.105-.364-2.241a74 74 0 0 1-1.11-1.537c-.144-.212-.174-.764-.066-1.227.108-.462.468-1.132.8-1.49.461-.495.855-.613 1.669-.498.586.083 1.978.528 3.094.99 1.988.821 2.05.827 3.138.3 1.11-.54 1.11-.54 2.49.504.76.573 1.909 1.496 2.553 2.05.645.554 1.712 1.98 2.372 3.17s1.436 3.077 1.725 4.194c.31 1.199.497 2.832.456 3.99l-.07 1.96h1.17c.86 0 1.252.161 1.474.607.166.333.302 1.678.302 2.989 0 1.442.178 2.842.451 3.545.248.64.377 1.482.286 1.872s-.049.709.094.709c.142 0 .326.637.407 1.416.102.97.392 1.678.921 2.247.425.457.728.975.673 1.152s-.46.45-.901.608c-.642.23-.89.17-1.236-.294-.413-.553-.425-.548-.256.117.179.699.179.699-4.868.667-2.776-.018-5.622-.152-6.326-.298zm10.755-1.381c0-.086-.066-.157-.146-.157s-.146.07-.146.157c0 .086.066.157.146.157s.146-.071.146-.157zm-3.79-2.196c0-.086-.066-.156-.146-.156s-.146.07-.146.156c0 .087.066.157.146.157s.146-.07.146-.157zm3.984-.679c-.107-.115-.194-.02-.194.209 0 .23.087.324.194.21a.313.313 0 0 0 0-.419zm-1.07.052c0-.086-.065-.157-.145-.157s-.146.071-.146.157.066.157.146.157.146-.07.146-.157zm-2.623-.94c0-.087-.066-.157-.146-.157s-.145.07-.145.156c0 .087.065.157.145.157s.146-.07.146-.157zm2.77-.471c.099-.173-.025-.314-.275-.314s-.454.141-.454.314c0 .172.123.314.274.314s.356-.142.455-.314zm-1.02-.278c0-.153-.391-.34-.868-.415-.695-.11-.804-.054-.548.278.176.228.567.415.868.415s.547-.125.547-.278zm-2.041-.488c0-.076-.152-.239-.337-.362-.209-.138-.258-.086-.129.139.115.199.266.362.337.362.07 0 .129-.062.129-.139zm3.05-.284c.419-.33.453-.478.156-.676-.244-.161-.31-.13-.185.089.127.221-.086.306-.611.243-.444-.054-.93-.02-1.08.074-.149.096-.018.28.292.411s.637.248.727.26.405-.168.7-.4zm.907-.76c-.504-.518-.512-.51-.178.19.192.403.43.647.527.542s-.06-.435-.35-.733zm-5.124-.229c0-.086-.065-.156-.145-.156s-.146.07-.146.156c0 .087.065.157.146.157s.145-.07.145-.157zm1.944-.052a.26.26 0 0 0-.389 0c-.107.115-.02.21.195.21.213 0 .3-.095.194-.21zm.583-.627a.26.26 0 0 0-.389 0c-.107.115-.02.21.195.21.213 0 .301-.095.194-.21zm1.555.052c0-.086-.066-.157-.146-.157s-.146.071-.146.157.066.157.146.157.146-.07.146-.157zm-.389-.68a.26.26 0 0 0-.389 0c-.106.116-.019.21.195.21s.301-.094.194-.21zm-2.526-.26c0-.087-.066-.157-.146-.157s-.146.07-.146.156c0 .087.066.157.146.157s.146-.07.146-.157zm3.352-.157c-.099-.173-.402-.304-.673-.292-.402.018-.385.072.09.292.32.148.624.279.673.291.05.013.01-.119-.09-.291zm-2.77-.157c0-.086-.065-.157-.145-.157s-.146.07-.146.157c0 .086.066.157.146.157s.146-.071.146-.157zm.292-.627c0-.087-.065-.157-.146-.157s-.145.07-.145.157c0 .086.065.156.145.156s.146-.07.146-.156zm-1.458-.628c0-.086-.065-.156-.145-.156s-.146.07-.146.156c0 .087.066.157.146.157s.145-.07.145-.157zm-3.206-.313c0-.086-.066-.157-.146-.157s-.146.07-.146.157c0 .086.066.157.146.157s.146-.071.146-.157zm5.247 0c0-.086-.065-.157-.146-.157s-.145.07-.145.157c0 .086.065.157.145.157s.146-.071.146-.157zm-1.166-.295c0-.076-.151-.24-.337-.362-.208-.14-.257-.086-.128.138.114.199.266.362.337.362.07 0 .128-.062.128-.138zm-3.79-.333c0-.086-.066-.156-.146-.156s-.145.07-.145.156c0 .087.065.157.145.157s.146-.07.146-.157zm1.75 0c0-.086-.066-.156-.146-.156s-.146.07-.146.156c0 .087.065.157.146.157s.145-.07.145-.157zm.874 0c0-.086-.066-.156-.146-.156s-.146.07-.146.156c0 .087.066.157.146.157s.146-.07.146-.157zm2.265-.411c.075-.242-.224-.36-.856-.336-.534.02-.742.1-.462.18.281.079.51.286.51.46s.156.26.347.192.398-.291.461-.496zm-3.723.098c0-.086-.065-.157-.146-.157s-.145.07-.145.157c0 .086.065.157.145.157s.146-.07.146-.157zm-5.126-.896c-.101-.283-.306-.515-.455-.515-.148 0-.124.294.055.654.18.36.384.591.455.515.07-.076.046-.37-.055-.654zm1.628.269c0-.086-.066-.157-.146-.157s-.146.07-.146.157c0 .086.066.157.146.157s.146-.071.146-.157zm4.276-.366c-.107-.115-.195-.021-.195.209s.088.324.195.209a.313.313 0 0 0 0-.418zm3.887.052c0-.086-.066-.157-.146-.157s-.146.07-.146.157c0 .086.066.157.146.157s.146-.07.146-.157zm-11.917-.868c-.288-.307-.322-.271-.163.176.11.31.272.483.362.387.09-.097 0-.35-.2-.563zm-5.292-1.186c-.275-.553-.399-.607-.601-.262-.168.287-.09.566.229.823.266.214.536.332.601.262s-.038-.44-.229-.823zm.883-1.71c0-.085-.066-.156-.146-.156s-.146.07-.146.157c0 .086.066.157.146.157s.146-.071.146-.157zm13.351-.84c.07-.389-.06-.478-.507-.353-.33.093-.6.375-.6.626 0 .265.213.413.507.352.279-.058.549-.34.6-.626zm-1.398-.1c0-.086-.066-.157-.146-.157s-.146.07-.146.157c0 .086.066.157.146.157s.146-.07.146-.157zm.95-1.524c.121-.32.06-1.167-.136-1.881-.196-.715-.525-1.486-.73-1.714-.31-.341-.376-.305-.376.21 0 .342.122.67.27.727.149.058.357.48.463.94.142.618.034 1.006-.416 1.49-.335.36-.608.706-.608.77s.295.1.656.079c.36-.021.755-.3.877-.62zm-12.029-.358c.377-.431.62-.784.54-.784-.081 0-.455.353-.831.784-.377.431-.62.784-.54.784s.455-.353.831-.784zm7.166-.253c-.308-.206-1.045-.833-1.639-1.393-.593-.56-1.147-1.02-1.23-1.02-.084 0-.246.248-.36.55-.114.301-.316.936-.448 1.41-.241.863-.241.863 1.998.845 1.856-.016 2.143-.083 1.679-.392zm-6.422-4.163c-.103-.59-.304-1.072-.446-1.072s-.578.13-.968.29-.79.52-.89.8-.073.438.061.349.618.258 1.076.772c.716.804.869.865 1.093.434.143-.276.177-.984.074-1.573zm2.172-.602c0-.603-.052-1.097-.114-1.097s-.168.494-.233 1.097c-.066.604-.015 1.098.114 1.098.128 0 .233-.494.233-1.098zm7.871.628c0-.087-.065-.157-.146-.157s-.145.07-.145.157c0 .086.065.157.145.157s.146-.071.146-.157zm-12.536-.314c0-.086-.066-.157-.146-.157s-.146.07-.146.157c0 .086.066.157.146.157s.146-.07.146-.157zm12.828-.802c0-.183-.107-.262-.237-.175-.13.086-1.05-.752-2.046-1.863-.994-1.112-1.93-2.02-2.078-2.02s-.35.14-.45.313c-.099.172-.007.313.204.313.21 0 1.223.847 2.25 1.882s1.977 1.882 2.112 1.882.245-.15.245-.332zm-6.123-1.047c0-.093-.196-.088-.437.01-.24.1-.437.388-.437.64 0 .399.058.398.437-.01.24-.26.437-.547.437-.64zm-3.675-.372c.097-.273.177-.555.177-.627s-.255-.131-.566-.131-.656.157-.766.348c-.11.192-.02.472.201.623.221.15.486.276.59.278s.267-.218.364-.49zm1.246-1.28c-.107-.116-.194-.022-.194.208s.087.324.194.21a.313.313 0 0 0 0-.419zm2.716-1.438c.003-.302-.093-.549-.214-.549-.12 0-.248.46-.283 1.02-.048.75.008.895.214.548.153-.259.281-.717.283-1.02zm-5.534.235c0-.086-.066-.157-.146-.157s-.146.07-.146.157c0 .086.066.157.146.157s.146-.07.146-.157zm1.652-.993c-.107-.115-.195-.021-.195.209s.088.324.195.209a.313.313 0 0 0 0-.418zm-1.36-.889c0-.086-.066-.157-.147-.157s-.145.071-.145.157.065.157.145.157.146-.07.146-.157z" style="fill:#786721;stroke:#1a1a1a;stroke-width:.264583" transform="translate(-14.593 -462.616)"/></svg>