<svg xmlns="http://www.w3.org/2000/svg" width="593.031" height="819.53" viewBox="0 0 156.906 216.834"><defs><path id="v" d="M695.896 1141.342h115.519v32.18H695.896z"/><path id="u" d="M682.609 1064.914h135.044v42.129H682.609z"/><path id="t" d="M673.702 1003.472h119.17v29.977h-119.17z"/><path id="s" d="M406.903 767.82h180.578v35.448H406.903z"/><path id="o" d="M194.531 1455.015h193.351v40.558H194.531z"/><path id="n" d="M58.968 1390.159H467.4v67.69H58.968z"/><path id="m" d="M144.238 1341.083h350.409v90.334H144.238z"/><path id="l" d="M430.627 1238.013h142.156v61.844H430.627z"/><path id="k" d="M357.101 1248.4h155.696v60.33H357.101z"/><path id="j" d="M190.992 1240.67h146.191v57.365H190.992z"/><path id="i" d="M36.382 1250.65h186.879v48.941H36.382z"/><path id="h" d="M353.343 1149.772h186.158v44.692H353.343z"/><path id="g" d="M132.327 1193.18h178.042v51.968H132.327z"/><path id="f" d="M31.877 1135.658h216.162v88.188H31.877z"/><path id="e" d="M169.335 1178.507h241.572v98.565H169.335z"/><path id="d" d="M270.15 941.336h371.946v228.976H270.15z"/><path id="c" d="M72.92 982.833h210.008v133.319H72.92z"/><path id="b" d="M292.465 872.195h234.697v137.181H292.465z"/><path id="a" d="M51.54 774.172h170.504v145.449H51.54z"/><marker id="p" markerHeight="1" markerWidth="1" orient="auto-start-reverse" preserveAspectRatio="xMidYMid" refX="0" refY="0" style="overflow:visible" viewBox="0 0 1 1"><path d="M3-3 0 0l3 3" style="fill:none;stroke:context-stroke;stroke-width:1;stroke-linecap:butt" transform="rotate(180 .125 0)"/></marker><marker id="q" markerHeight="1" markerWidth="1" orient="auto-start-reverse" preserveAspectRatio="xMidYMid" refX="0" refY="0" style="overflow:visible" viewBox="0 0 1 1"><path d="M3-3 0 0l3 3" style="fill:none;stroke:context-stroke;stroke-width:1;stroke-linecap:butt" transform="rotate(180 .125 0)"/></marker><marker id="r" markerHeight="1" markerWidth="1" orient="auto-start-reverse" preserveAspectRatio="xMidYMid" refX="0" refY="0" style="overflow:visible" viewBox="0 0 1 1"><path d="M3-3 0 0l3 3" style="fill:none;stroke:context-stroke;stroke-width:1;stroke-linecap:butt" transform="rotate(180 .125 0)"/></marker></defs><path d="M1.756 221.103h156.377v216.305H1.756z" style="fill:#fff;stroke:#fff;stroke-width:.529167;stroke-linejoin:bevel" transform="translate(-1.491 -220.838)"/><path d="m140.829 222.583-39.21 2.467-5.776 38.765-33.73 12.975.723 30.352 3.046 8.735 14.07 2.605 4.854 28.805 26.474 12.856 25.998-8.444 20.122-30.242.58-20.824-.274-33.662-2.955-35.809z" style="fill:#f6ffd5;stroke:#aad400;stroke-width:.264583px;stroke-linecap:butt;stroke-linejoin:miter;stroke-opacity:1" transform="translate(-1.491 -220.838)"/><path d="M56.444 426.048h38.682v8.793H56.444zM56.654 404.37h38.682v12.396H56.654z" style="fill:#f4e3d7;stroke:#deaa87;stroke-width:.264584;stroke-linejoin:bevel" transform="translate(-1.491 -220.838)"/><path d="M56.474 387.669h35.482v7.873H56.474zM124.123 365.743h31.766v7.873h-31.766zM88.003 365.46h31.766v7.873H88.003zM47.68 365.264h31.766v7.873H47.68zM3.453 365.955h31.766v7.873H3.453z" style="fill:#f4e3d7;stroke:#deaa87;stroke-width:.264585;stroke-linejoin:bevel" transform="translate(-1.491 -220.838)"/><path d="M96.636 340.374h27.663v7.873H96.636z" style="fill:#f4e3d7;stroke:#aad400;stroke-width:.529167;stroke-linejoin:bevel" transform="translate(-1.491 -220.838)"/><path d="M4.766 308.17h32.916v24.165H4.766z" style="fill:#f4e3d7;stroke:#deaa87;stroke-width:.264585;stroke-linejoin:bevel" transform="translate(-1.491 -220.838)"/><path d="M68.968 279.362h87.663v32.385H68.968zM115.201 242.562h34.43v19.661h-34.43z" style="fill:#f4e3d7;stroke:#aad400;stroke-width:.529167;stroke-linejoin:bevel" transform="translate(-1.491 -220.838)"/><path d="M67.769 236.246h22.249v17.091H67.769zM10.576 239.84h31.407v9.669H10.576z" style="fill:#f4e3d7;stroke:#deaa87;stroke-width:.264583;stroke-linejoin:bevel" transform="translate(-1.491 -220.838)"/><text xml:space="preserve" style="font-size:14.6667px;line-height:1.25;font-family:sans-serif;white-space:pre;shape-inside:url(#a);display:inline" transform="translate(-1.491 -183.797)scale(.26458)"><tspan x="51.541" y="787.383"><tspan style="font-weight:700;font-family:&quot;Liberation Sans&quot;;-inkscape-font-specification:&quot;Liberation Sans Bold&quot;">3D part idea</tspan></tspan></text><text xml:space="preserve" style="font-size:14.6667px;line-height:1.25;font-family:sans-serif;white-space:pre;shape-inside:url(#b);display:inline" transform="translate(-9.669 -214.214)scale(.26458)"><tspan x="292.465" y="885.406"><tspan style="font-weight:700;font-family:&quot;Liberation Sans&quot;;-inkscape-font-specification:&quot;Liberation Sans Bold&quot;">Concept</tspan><tspan style="font-family:&quot;Liberation Sans&quot;;-inkscape-font-specification:&quot;Liberation Sans&quot;">
</tspan></tspan><tspan x="292.465" y="903.974"><tspan style="font-family:&quot;Liberation Sans&quot;;-inkscape-font-specification:&quot;Liberation Sans&quot;">- inkscape
</tspan></tspan><tspan x="292.465" y="922.542"><tspan style="font-family:&quot;Liberation Sans&quot;;-inkscape-font-specification:&quot;Liberation Sans&quot;">- svg-editor</tspan></tspan></text><text xml:space="preserve" style="font-size:14.6667px;line-height:1.25;font-family:sans-serif;white-space:pre;shape-inside:url(#c);display:inline" transform="translate(97.16 -236.274)scale(.26458)"><tspan x="72.92" y="996.045"><tspan style="font-weight:700;font-family:&quot;Liberation Sans&quot;;-inkscape-font-specification:&quot;Liberation Sans Bold&quot;">Architecture</tspan><tspan style="font-family:&quot;Liberation Sans&quot;;-inkscape-font-specification:&quot;Liberation Sans&quot;">
</tspan></tspan><tspan x="72.92" y="1014.613"><tspan style="font-family:&quot;Liberation Sans&quot;;-inkscape-font-specification:&quot;Liberation Sans&quot;">- javascript
</tspan></tspan><tspan x="72.92" y="1033.181"><tspan style="font-family:&quot;Liberation Sans&quot;;-inkscape-font-specification:&quot;Liberation Sans&quot;">import geometrix</tspan></tspan></text><text xml:space="preserve" style="font-size:14.6667px;line-height:1.25;font-family:sans-serif;white-space:pre;shape-inside:url(#d);display:inline" transform="translate(-1.312 -189.073)scale(.26458)"><tspan x="270.15" y="954.547"><tspan style="font-weight:700;font-family:&quot;Liberation Sans&quot;;-inkscape-font-specification:&quot;Liberation Sans Bold&quot;">Publishing</tspan>
</tspan><tspan x="270.15" y="972.88">- web-site (online use without installation)
</tspan><tspan x="270.15" y="991.214">- npm-packages
</tspan><tspan x="270.15" y="1009.547">  - pkg (for re-use in other designs)
</tspan><tspan x="270.15" y="1027.88">  - pkg-uis (for offline use after npm install)
</tspan><tspan x="270.15" y="1046.214">  - pkg-cli (for script automation)</tspan></text><text xml:space="preserve" style="font-size:14.6667px;line-height:1.25;font-family:sans-serif;white-space:pre;shape-inside:url(#e);display:inline" transform="translate(-22.104 -237.386)scale(.26458)"><tspan x="169.336" y="1191.484">list of parameters</tspan></text><text xml:space="preserve" style="font-size:14.6667px;line-height:1.25;font-family:sans-serif;white-space:pre;shape-inside:url(#f);display:inline" transform="translate(-1.806 -212.23)scale(.26458)"><tspan x="31.877" y="1148.869"><tspan style="font-weight:700;font-family:&quot;Liberation Sans&quot;;-inkscape-font-specification:&quot;Liberation Sans Bold&quot;">sizing</tspan><tspan style="font-family:&quot;Liberation Sans&quot;;-inkscape-font-specification:&quot;Liberation Sans&quot;">
</tspan></tspan><tspan x="31.877" y="1167.437"><tspan style="font-family:&quot;Liberation Sans&quot;;-inkscape-font-specification:&quot;Liberation Sans&quot;">- hand work
</tspan></tspan><tspan x="31.877" y="1186.005"><tspan style="font-family:&quot;Liberation Sans&quot;;-inkscape-font-specification:&quot;Liberation Sans&quot;">- spreadsheet
</tspan></tspan><tspan x="31.877" y="1204.573"><tspan style="font-family:&quot;Liberation Sans&quot;;-inkscape-font-specification:&quot;Liberation Sans&quot;">- scripts</tspan></tspan></text><text xml:space="preserve" style="font-size:14.6667px;line-height:1.25;font-family:sans-serif;white-space:pre;shape-inside:url(#g);display:inline" transform="translate(9.662 -218.007)scale(.26458)"><tspan x="132.326" y="1206.156">parametrization</tspan></text><text xml:space="preserve" style="font-size:14.6667px;line-height:1.25;font-family:sans-serif;white-space:pre;shape-inside:url(#h);display:inline" transform="translate(5.765 -183.694)scale(.26458)"><tspan x="353.344" y="1162.983"><tspan style="font-weight:700;font-family:&quot;Liberation Sans&quot;;-inkscape-font-specification:&quot;Liberation Sans Bold&quot;">3D-scripts</tspan></tspan></text><text xml:space="preserve" style="font-size:14.6667px;line-height:1.25;font-family:sans-serif;white-space:pre;shape-inside:url(#i);display:inline" transform="translate(-1.491 -184.326)scale(.26458)"><tspan x="36.383" y="1263.627">Freecad</tspan></text><text xml:space="preserve" style="font-size:14.6667px;line-height:1.25;font-family:sans-serif;white-space:pre;shape-inside:url(#j);display:inline" transform="translate(.723 -181.329)scale(.26458)"><tspan x="190.992" y="1253.647">OpenScad</tspan></text><text xml:space="preserve" style="font-size:14.6667px;line-height:1.25;font-family:sans-serif;white-space:pre;shape-inside:url(#k);display:inline" transform="translate(3.8 -184.326)scale(.26458)"><tspan x="357.102" y="1261.377">JsCad</tspan></text><text xml:space="preserve" style="font-size:14.6667px;line-height:1.25;font-family:sans-serif;white-space:pre;shape-inside:url(#l);display:inline" transform="translate(18.112 -181.165)scale(.26458)"><tspan x="430.627" y="1250.99">ThreeJS</tspan></text><text xml:space="preserve" style="font-size:14.6667px;line-height:1.25;font-family:sans-serif;white-space:pre;shape-inside:url(#m);display:inline" transform="translate(20.776 -186.522)scale(.26458)"><tspan x="144.238" y="1354.059">.stl, .brep, .stp</tspan></text><text xml:space="preserve" x="68.89" style="font-size:14.6667px;line-height:1.25;font-family:sans-serif;text-align:center;white-space:pre;shape-inside:url(#n);display:inline" transform="translate(5.415 -183.761)scale(.26458)"><tspan x="239.91" y="1403.135">slicers
</tspan><tspan x="193.267" y="1421.468">(Orca, Cura, Slic3r)</tspan></text><text xml:space="preserve" style="font-size:14.6667px;line-height:1.25;font-family:sans-serif;white-space:pre;shape-inside:url(#o);display:inline" transform="translate(11.496 -177.339)scale(.26458)"><tspan x="194.531" y="1467.992">3D-printing</tspan></text><path d="m41.983 244.675 25.786.117" style="fill:none;stroke:#000;stroke-width:.264583px;stroke-linecap:butt;stroke-linejoin:miter;stroke-opacity:1;marker-end:url(#p)" transform="translate(-1.491 -220.838)"/><path d="m90.018 244.792 25.183 7.601" style="fill:none;stroke:#000;stroke-width:.264583px;stroke-linecap:butt;stroke-linejoin:miter;stroke-opacity:1;marker-end:url(#q)" transform="translate(-1.491 -220.838)"/><path d="M132.416 262.224 112.8 279.362" style="fill:none;stroke:#000;stroke-width:.264583px;stroke-linecap:butt;stroke-linejoin:miter;stroke-opacity:1;marker-end:url(#r)" transform="translate(-1.491 -220.838)"/><path d="M68.968 295.554 37.683 308.17" style="fill:none;stroke:#000;stroke-width:.264583px;stroke-linecap:butt;stroke-linejoin:miter;stroke-opacity:1;marker-end:url(#r)" transform="translate(-1.491 -220.838)"/><path d="m37.683 320.252 31.285-8.505" style="fill:none;stroke:#000;stroke-width:.264583px;stroke-linecap:butt;stroke-linejoin:miter;stroke-opacity:1;marker-end:url(#r)" transform="translate(-1.491 -220.838)"/><path d="m112.8 311.747-2.332 28.627" style="fill:none;stroke:#000;stroke-width:.264583px;stroke-linecap:butt;stroke-linejoin:miter;stroke-opacity:1;marker-end:url(#p)" transform="translate(-1.491 -220.838)"/><path d="m110.468 348.247-75.25 17.708" style="fill:none;stroke:#000;stroke-width:.264583px;stroke-linecap:butt;stroke-linejoin:miter;stroke-opacity:1;marker-end:url(#p)" transform="translate(-1.491 -220.838)"/><path d="m110.468 348.247-31.022 17.017" style="fill:none;stroke:#000;stroke-width:.264583px;stroke-linecap:butt;stroke-linejoin:miter;stroke-opacity:1;marker-end:url(#p)" transform="translate(-1.491 -220.838)"/><path d="m110.468 348.247-6.582 17.212" style="fill:none;stroke:#000;stroke-width:.264583px;stroke-linecap:butt;stroke-linejoin:miter;stroke-opacity:1;marker-end:url(#p)" transform="translate(-1.491 -220.838)"/><path d="m110.468 348.247 13.655 17.496" style="fill:none;stroke:#000;stroke-width:.264583px;stroke-linecap:butt;stroke-linejoin:miter;stroke-opacity:1;marker-end:url(#p)" transform="translate(-1.491 -220.838)"/><path d="m35.219 373.828 21.255 13.84" style="fill:none;stroke:#000;stroke-width:.264583px;stroke-linecap:butt;stroke-linejoin:miter;stroke-opacity:1;marker-end:url(#p)" transform="translate(-1.491 -220.838)"/><path d="m63.563 373.137 6.419 14.531" style="fill:none;stroke:#000;stroke-width:.264583px;stroke-linecap:butt;stroke-linejoin:miter;stroke-opacity:1;marker-end:url(#q)" transform="translate(-1.491 -220.838)"/><path d="m103.886 373.333-21.204 14.335" style="fill:none;stroke:#000;stroke-width:.264583px;stroke-linecap:butt;stroke-linejoin:miter;stroke-opacity:1;marker-end:url(#q)" transform="translate(-1.491 -220.838)"/><path d="m140.006 373.616-48.05 14.052" style="fill:none;stroke:#000;stroke-width:.264583px;stroke-linecap:butt;stroke-linejoin:miter;stroke-opacity:1;marker-end:url(#r)" transform="translate(-1.491 -220.838)"/><path d="m74.215 395.542 1.78 8.828" style="fill:none;stroke:#000;stroke-width:.264583px;stroke-linecap:butt;stroke-linejoin:miter;stroke-opacity:1;marker-end:url(#r)" transform="translate(-1.491 -220.838)"/><path d="m75.995 416.766-.21 9.282" style="fill:none;stroke:#000;stroke-width:.264583px;stroke-linecap:butt;stroke-linejoin:miter;stroke-opacity:1;marker-end:url(#q)" transform="translate(-1.491 -220.838)"/><text xml:space="preserve" style="font-size:14.6667px;line-height:1.25;font-family:sans-serif;white-space:pre;shape-inside:url(#s);display:inline" transform="translate(-1.491 -195.967)scale(.26458)"><tspan x="406.902" y="780.797">Parametrix involved</tspan></text><text xml:space="preserve" style="font-size:14.6667px;line-height:1.25;font-family:sans-serif;white-space:pre;shape-inside:url(#t)" transform="translate(-83.444 -243.681)scale(.26458)"><tspan x="673.701" y="1016.449">import</tspan></text><text xml:space="preserve" style="font-size:14.6667px;line-height:1.25;font-family:sans-serif;white-space:pre;shape-inside:url(#u)" transform="translate(-57.878 -233.95)scale(.26458)"><tspan x="682.609" y="1077.891">generate</tspan></text><text xml:space="preserve" style="font-size:14.6667px;line-height:1.25;font-family:sans-serif;white-space:pre;shape-inside:url(#v)" transform="translate(-73.094 -198.596)scale(.26458)"><tspan x="695.896" y="1154.318">export</tspan></text></svg>