<svg xmlns="http://www.w3.org/2000/svg" width="235.736" height="212.584" viewBox="0 0 62.372 56.246"><defs><path id="n" d="M360.867 625.186h74.83v41.575h-74.83z"/><path id="m" d="M295.254 672.201h112.022v27.867H295.254z"/><path id="l" d="M231.686 586.827h161.47v27.434h-161.47z"/><path id="c" d="M254.321 237.99h38.557v34.914h-38.557z"/><path id="d" d="M130.985 140.536h42.711v43.171h-42.711z"/><path id="e" d="M232.476 161.365h28.095v22.502h-28.095z"/><path id="f" d="M200.715 288.19h52.317v19.745h-52.317z"/><path id="g" d="M200.715 288.19h52.317v19.745h-52.317z"/><path id="h" d="M63.429 333.065h158.363v29.331H63.429z"/><path id="i" d="M232.476 161.365h28.095v22.502h-28.095z"/><path id="j" d="M232.476 161.365h28.095v22.502h-28.095z"/><path id="k" d="M232.476 161.365h28.095v22.502h-28.095z"/><marker id="a" markerHeight="5" markerWidth="8.75" orient="auto-start-reverse" preserveAspectRatio="xMidYMid" refX="0" refY="0" style="overflow:visible" viewBox="0 0 8.75 5"><path d="m0 0 5-5-17.5 5L5 5Z" style="fill:context-stroke;fill-rule:evenodd;stroke:none" transform="scale(-0.5)"/></marker><marker id="b" markerHeight="5" markerWidth="8.75" orient="auto-start-reverse" preserveAspectRatio="xMidYMid" refX="0" refY="0" style="overflow:visible" viewBox="0 0 8.75 5"><path d="m0 0 5-5-17.5 5L5 5Z" style="fill:context-stroke;fill-rule:evenodd;stroke:none" transform="scale(-0.5)"/></marker></defs><path d="M24.459 146.966h62.107v55.982H24.459z" style="fill:#fff;stroke:#fff;stroke-width:.264583;stroke-dasharray:none;stroke-dashoffset:0" transform="translate(-24.32703,-146.83324)"/><path d="M48.285 195.91v-27.818" style="fill:none;stroke:#999;stroke-width:.264583px;stroke-linecap:butt;stroke-linejoin:miter;stroke-opacity:1;marker-end:url(#a)" transform="translate(-24.32703,-146.83324)"/><path d="M26.953 190h42.664" style="fill:none;stroke:#999;stroke-width:.264583px;stroke-linecap:butt;stroke-linejoin:miter;stroke-opacity:1;marker-end:url(#b)" transform="translate(-24.32703,-146.83324)"/><text xml:space="preserve" style="font-size:14.6667px;line-height:1.25;font-family:sans-serif;white-space:pre;shape-inside:url(#c);display:inline" transform="translate(-24.32703,-146.83324) matrix(0.26458333,0,0,0.26458333,1.8751066,127.17562)"><tspan x="254.32" y="250.967">x</tspan></text><text xml:space="preserve" style="font-size:14.6667px;line-height:1.25;font-family:sans-serif;white-space:pre;shape-inside:url(#d);display:inline" transform="translate(-24.32703,-146.83324) matrix(0.26458333,0,0,0.26458333,10.511817,128.96683)"><tspan x="130.984" y="153.514">y</tspan></text><path d="M57.803 190v-16.943h-9.518" style="fill:none;stroke:#ccc;stroke-width:.264583;stroke-linecap:butt;stroke-linejoin:miter;stroke-dasharray:2,1;stroke-dashoffset:0;stroke-opacity:1" transform="translate(-24.32703,-146.83324)"/><text xml:space="preserve" style="font-size:14.6667px;line-height:1.25;font-family:sans-serif;white-space:pre;shape-inside:url(#e);display:inline" transform="translate(-24.32703,-146.83324) matrix(0.26458333,0,0,0.26458333,-2.6724735,129.69869)"><tspan x="232.477" y="174.342">p1</tspan></text><text xml:space="preserve" style="font-size:8px;line-height:1.25;font-family:sans-serif;white-space:pre;shape-inside:url(#f);display:inline" transform="translate(-24.32703,-146.83324) matrix(0.26458333,0,0,0.26458333,2.2148923,114.71081)"><tspan x="200.715" y="295.268">p1.cx</tspan></text><text xml:space="preserve" style="font-size:8px;line-height:1.25;font-family:sans-serif;white-space:pre;shape-inside:url(#g);display:inline" transform="translate(-24.32703,-146.83324) matrix(0.26458333,0,0,0.26458333,-12.117919,95.785814)"><tspan x="200.715" y="295.268">p1.cy</tspan></text><path d="M47.526 173.057h1.518M57.803 190.924v-1.849" style="fill:none;stroke:#000;stroke-width:.264583px;stroke-linecap:butt;stroke-linejoin:miter;stroke-opacity:1" transform="translate(-24.32703,-146.83324)"/><text xml:space="preserve" style="font-size:14.6667px;line-height:1.25;font-family:sans-serif;white-space:pre;shape-inside:url(#h);display:inline" transform="translate(-24.32703,-146.83324) matrix(0.26458333,0,0,0.26458333,10.040598,109.57494)"><tspan x="63.43" y="346.041">Point-3</tspan></text><text xml:space="preserve" style="font-size:14.6667px;line-height:1.25;font-family:sans-serif;white-space:pre;shape-inside:url(#i);display:inline" transform="translate(-24.32703,-146.83324) matrix(0.26458333,0,0,0.26458333,-32.317964,137.1576)"><tspan x="232.477" y="174.342">pc</tspan></text><path d="M42.744 155.956a24.7 25.228 0 0 1 15.16 17.396" style="fill:none;stroke:#b3b3b3;stroke-width:.264583;stroke-dasharray:none;stroke-dashoffset:0" transform="translate(-24.32703,-146.83324)"/><path d="m33.958 179.534 8.786-23.578" style="fill:none;stroke:#87deaa;stroke-width:.264583px;stroke-linecap:butt;stroke-linejoin:miter;stroke-opacity:1" transform="translate(-24.32703,-146.83324)"/><path d="m42.156 156.701 1.176-1.49M41.999 155.369l1.49 1.175" style="fill:none;stroke:#000;stroke-width:.264583px;stroke-linecap:butt;stroke-linejoin:miter;stroke-opacity:1" transform="translate(-24.32703,-146.83324)"/><text xml:space="preserve" style="font-size:14.6667px;line-height:1.25;font-family:sans-serif;white-space:pre;shape-inside:url(#j);display:inline;fill:#217821" transform="translate(-24.32703,-146.83324) matrix(0.26458333,0,0,0.26458333,-24.707372,110.14761)"><tspan x="232.477" y="174.342">p5</tspan></text><path d="m69.515 169.795-35.573 9.708" style="fill:none;stroke:#00aad4;stroke-width:.264583px;stroke-linecap:butt;stroke-linejoin:miter;stroke-opacity:1" transform="translate(-24.32703,-146.83324)"/><path d="m68.962 170.412 1.176-1.49M68.805 169.08l1.49 1.175" style="fill:#08a;stroke:#08a;stroke-width:.264583px;stroke-linecap:butt;stroke-linejoin:miter;stroke-opacity:1" transform="translate(-24.32703,-146.83324)"/><text xml:space="preserve" style="font-size:14.6667px;line-height:1.25;font-family:sans-serif;white-space:pre;shape-inside:url(#k);display:inline;fill:#04a" transform="translate(-24.32703,-146.83324) matrix(0.26458333,0,0,0.26458333,9.0748298,126.30884)"><tspan x="232.477" y="174.342">p6</tspan></text><text xml:space="preserve" style="font-size:10.6667px;line-height:1.25;font-family:sans-serif;white-space:pre;shape-inside:url(#l);display:inline;fill:#217821" transform="translate(-24.32703,-146.83324) matrix(0.26458333,0,0,0.26458333,-30.010692,-5.3001495)"><tspan x="231.686" y="596.266">rotate(pc, ia)</tspan></text><text xml:space="preserve" style="font-size:10.6667px;line-height:1.25;font-family:sans-serif;white-space:pre;shape-inside:url(#m);display:inline;fill:#04a" transform="translate(-24.32703,-146.83324) matrix(0.26458333,0,0,0.26458333,-10.838702,-4.5352848)"><tspan x="295.254" y="681.639">scale(pc, ir)</tspan></text><path d="m57.787 173.027-23.845 6.476" style="fill:none;stroke:#87deaa;stroke-width:.264583px;stroke-linecap:butt;stroke-linejoin:miter;stroke-opacity:1" transform="translate(-24.32703,-146.83324)"/><path d="m33.37 180.279 1.176-1.49M33.213 178.946l1.49 1.176M57.215 173.802l1.176-1.49M57.058 172.47l1.49 1.175" style="fill:none;stroke:#000;stroke-width:.264583px;stroke-linecap:butt;stroke-linejoin:miter;stroke-opacity:1" transform="translate(-24.32703,-146.83324)"/><path d="M36.8 178.838c.05 0 .337-1.378-.017-1.905-.324-.482-1.607-.672-1.607-.672" style="fill:none;stroke:#008033;stroke-width:.264583px;stroke-linecap:butt;stroke-linejoin:miter;stroke-opacity:1" transform="translate(-24.32703,-146.83324)"/><text xml:space="preserve" style="font-size:8px;line-height:1.25;font-family:sans-serif;white-space:pre;shape-inside:url(#n);display:inline;fill:#5aa02c" transform="translate(-24.32703,-146.83324) matrix(0.26458333,0,0,0.26458333,-58.006583,9.1946069)"><tspan x="360.867" y="632.264">ia</tspan></text></svg>