<svg xmlns="http://www.w3.org/2000/svg" width="584.998" height="268.158" viewBox="0 0 154.781 70.95"><defs><path id="v" d="M217.678 2735.04h152.289v30.956H217.678z"/><path id="u" d="M126.24 2732.717h47.043v42.218H126.24z"/><path id="t" d="M283.857 2747.346h192.928v43.289H283.857z"/><path id="s" d="M45.662 2737.498h184.977v42.025H45.662z"/><path id="o" d="M458.988 2627.238H567.54v42.725H458.988z"/><path id="n" d="M331.954 2631.759h81.486v30.815h-81.486z"/><path id="m" d="M188.568 2627.493h106.444v63.286H188.568z"/><path id="l" d="M175.589 2632.387h115.817v62.89H175.589z"/><path id="h" d="M326.47 2686.129h123.956v49.127H326.47z"/><path id="g" d="M421.885 2637.614h158.958v53.779H421.885z"/><path id="f" d="M355.912 2543.07h187.279v29.182H355.912z"/><path id="e" d="M364.179 2508.276h105.593v43.069H364.179z"/><path id="d" d="M468.671 2479.831h131.268v28.583H468.671z"/><path id="c" d="M333.513 2481.821h140.038v28.445H333.513z"/><path id="b" d="M241.634 2499.756h122.852v44.672H241.634z"/><path id="a" d="M103.665 2494.104h99.926v46.432h-99.926z"/><path id="k" d="M103.665 2494.104h115.226v38.038H103.665z"/><marker id="i" markerHeight="1" markerWidth="1" orient="auto-start-reverse" preserveAspectRatio="xMidYMid" refX="0" refY="0" style="overflow:visible" viewBox="0 0 1 1"><path d="M3-3 0 0l3 3" style="fill:none;stroke:context-stroke;stroke-width:1;stroke-linecap:butt" transform="rotate(180 .125 0)"/></marker><marker id="j" markerHeight="1" markerWidth="1" orient="auto-start-reverse" preserveAspectRatio="xMidYMid" refX="0" refY="0" style="overflow:visible" viewBox="0 0 1 1"><path d="M3-3 0 0l3 3" style="fill:none;stroke:context-stroke;stroke-width:1;stroke-linecap:butt" transform="rotate(180 .125 0)"/></marker><marker id="p" markerHeight="1" markerWidth="1" orient="auto-start-reverse" preserveAspectRatio="xMidYMid" refX="0" refY="0" style="overflow:visible" viewBox="0 0 1 1"><path d="M3-3 0 0l3 3" style="fill:none;stroke:context-stroke;stroke-width:1;stroke-linecap:butt" transform="rotate(180 .125 0)"/></marker><marker id="q" markerHeight="1" markerWidth="1" orient="auto-start-reverse" preserveAspectRatio="xMidYMid" refX="0" refY="0" style="overflow:visible" viewBox="0 0 1 1"><path d="M3-3 0 0l3 3" style="fill:none;stroke:context-stroke;stroke-width:1;stroke-linecap:butt" transform="rotate(180 .125 0)"/></marker><marker id="r" markerHeight="1" markerWidth="1" orient="auto-start-reverse" preserveAspectRatio="xMidYMid" refX="0" refY="0" style="overflow:visible" viewBox="0 0 1 1"><path d="M3-3 0 0l3 3" style="fill:none;stroke:context-stroke;stroke-width:1;stroke-linecap:butt" transform="rotate(180 .125 0)"/></marker></defs><path d="M2.577 645.414h154.516V716.1H2.577z" style="fill:#fff;fill-opacity:1;stroke:#fff;stroke-width:.264584;stroke-linejoin:round;stroke-dasharray:none" transform="translate(-2.445 -645.282)"/><path d="M4.125 683.069h150.813v31.238H4.125z" style="fill:#e5d5ff;fill-opacity:1;stroke:none;stroke-width:.264584;stroke-dasharray:none" transform="translate(-2.445 -645.282)"/><path d="M4.125 648.127h150.813v31.238H4.125z" style="fill:#ffe0ed;fill-opacity:1;stroke:none;stroke-width:.264584;stroke-dasharray:none" transform="translate(-2.445 -645.282)"/><path d="M7.236 659.075h56.958v14.598H7.236z" style="fill:#fea;stroke:#fc0;stroke-width:.264584" transform="translate(-2.445 -645.282)"/><path d="M9.264 660.289H34.53v11.763H9.264z" style="fill:#d5e5ff;stroke:#06f;stroke-width:.264583" transform="translate(-2.445 -645.282)"/><text xml:space="preserve" style="font-size:14.6667px;line-height:normal;font-family:&quot;Liberation Mono&quot;;-inkscape-font-specification:&quot;Liberation Mono&quot;;text-align:center;text-decoration-color:#000;white-space:pre;shape-inside:url(#a);fill:#000;stroke-width:1;-inkscape-stroke:none;stop-color:#000" transform="translate(-21.91 -643.26)scale(.26458)"><tspan x="114.02" y="2507.154">geometrix
</tspan><tspan x="140.425" y="2525.487">API</tspan></text><text xml:space="preserve" style="font-size:14.6667px;line-height:normal;font-family:&quot;Liberation Mono&quot;;-inkscape-font-specification:&quot;Liberation Mono&quot;;text-align:center;text-decoration-color:#000;white-space:pre;shape-inside:url(#b);fill:#000;stroke-width:1;-inkscape-stroke:none;stop-color:#000" transform="translate(-33.023 -642.56)scale(.26458)"><tspan x="254.653" y="2512.806">design code</tspan></text><text xml:space="preserve" style="font-size:14.6667px;line-height:normal;font-family:&quot;Liberation Mono&quot;;-inkscape-font-specification:&quot;Liberation Mono&quot;;text-align:center;text-decoration-color:#000;white-space:pre;shape-inside:url(#c);fill:#000;stroke-width:1;-inkscape-stroke:none;stop-color:#000" transform="translate(-11.69 -648.556)scale(.26458)"><tspan x="377.128" y="2494.87">2D-dxf</tspan></text><text xml:space="preserve" style="font-size:14.6667px;line-height:normal;font-family:&quot;Liberation Mono&quot;;-inkscape-font-specification:&quot;Liberation Mono&quot;;text-align:center;text-decoration-color:#000;white-space:pre;shape-inside:url(#d);fill:#000;stroke-width:1;-inkscape-stroke:none;stop-color:#000" transform="translate(-6.496 -647.86)scale(.26458)"><tspan x="481.496" y="2492.882">laser-cutter</tspan></text><text xml:space="preserve" style="font-size:14.6667px;line-height:normal;font-family:&quot;Liberation Mono&quot;;-inkscape-font-specification:&quot;Liberation Mono&quot;;text-align:center;text-decoration-color:#000;white-space:pre;shape-inside:url(#e);fill:#000;stroke-width:1;-inkscape-stroke:none;stop-color:#000" transform="translate(-12.817 -649.553)scale(.26458)"><tspan x="390.571" y="2521.325">2D-svg</tspan></text><text xml:space="preserve" style="font-size:14.6667px;line-height:normal;font-family:&quot;Liberation Mono&quot;;-inkscape-font-specification:&quot;Liberation Mono&quot;;text-align:center;text-decoration-color:#000;white-space:pre;shape-inside:url(#f);fill:#000;stroke-width:1;-inkscape-stroke:none;stop-color:#000" transform="translate(-28.678 -652.317)scale(.26458)"><tspan x="374.739" y="2556.12">3D-FreeCAD-script</tspan></text><text xml:space="preserve" style="font-size:14.6667px;line-height:normal;font-family:&quot;Liberation Mono&quot;;-inkscape-font-specification:&quot;Liberation Mono&quot;;text-align:center;text-decoration-color:#000;white-space:pre;shape-inside:url(#g);fill:#000;stroke-width:1;-inkscape-stroke:none;stop-color:#000" transform="translate(2.838 -679.824)scale(.26458)"><tspan x="461.758" y="2650.663">STL-files
</tspan><tspan x="448.556" y="2668.997">3D rendering</tspan></text><text xml:space="preserve" style="font-size:14.6667px;line-height:normal;font-family:&quot;Liberation Mono&quot;;-inkscape-font-specification:&quot;Liberation Mono&quot;;text-align:center;text-decoration-color:#000;white-space:pre;shape-inside:url(#h);fill:#000;stroke-width:1;-inkscape-stroke:none;stop-color:#000" transform="translate(-7.906 -682.165)scale(.26458)"><tspan x="362.044" y="2699.179">G-code</tspan></text><path d="m65.865 661.705 23.252-4.64" style="fill:#d5e5ff;stroke:#06f;stroke-width:.264583;marker-end:url(#i)" transform="translate(-2.445 -645.282)"/><path d="m105.548 656.8 17.115-.614" style="fill:#d5e5ff;stroke:#06f;stroke-width:.264583;marker-end:url(#j)" transform="translate(-2.445 -645.282)"/><path d="m66.365 664.354 24.328-2.105" style="fill:#d5e5ff;stroke:#06f;stroke-width:.264583;marker-end:url(#j)" transform="translate(-2.445 -645.282)"/><path d="m65.892 667.939 5.907.273" style="fill:#d5e5ff;stroke:#06f;stroke-width:.264583;marker-end:url(#j)" transform="translate(-2.445 -645.282)"/><path d="m114.347 667.648 11.502-2.1" style="fill:#d5e5ff;stroke:#06f;stroke-width:.264583;marker-end:url(#i)" transform="translate(-2.445 -645.282)"/><path d="m113.98 668.717 8.961 1.128" style="fill:#d5e5ff;stroke:#06f;stroke-width:.264583;marker-end:url(#i)" transform="translate(-2.445 -645.282)"/><path d="m66.372 670.615 22.282 4.712" style="fill:#d5e5ff;stroke:#06f;stroke-width:.264583;marker-end:url(#i)" transform="translate(-2.445 -645.282)"/><path d="M89.873 652.256h15.136v5.73H89.873zM123.311 652.912h28.365v5.227h-28.365zM92.256 658.855h15.136v5.73H92.256zM72.658 665.21h40.318v5.73H72.658zM126.925 661.751h22.465v5.73h-22.465zM123.64 668.288h28.914v5.73H123.64zM89.302 672.888h16.041v5.73H89.302z" style="fill:none;stroke:#37c871;stroke-width:.264583" transform="translate(-2.445 -645.282)"/><path d="M9.657 689.268h29.107v23.817H9.657z" style="fill:#d5e5ff;stroke:#06f;stroke-width:.264583" transform="translate(-2.445 -645.282)"/><text xml:space="preserve" style="font-size:14.6667px;line-height:normal;font-family:&quot;Liberation Mono&quot;;-inkscape-font-specification:&quot;Liberation Mono&quot;;text-align:center;text-decoration-color:#000;white-space:pre;shape-inside:url(#k);display:inline;fill:#000;stroke-width:1;-inkscape-stroke:none;stop-color:#000" transform="translate(-20.74 -597.313)scale(.26458)"><tspan x="112.869" y="2507.154">big CAD GUI</tspan></text><path d="M11.455 691.174h24.961v14.598H11.455z" style="fill:#fea;stroke:#fc0;stroke-width:.264584" transform="translate(-2.445 -645.282)"/><text xml:space="preserve" style="font-size:14.6667px;line-height:normal;font-family:&quot;Liberation Mono&quot;;-inkscape-font-specification:&quot;Liberation Mono&quot;;text-align:center;text-decoration-color:#000;white-space:pre;shape-inside:url(#l);fill:#000;stroke-width:1;-inkscape-stroke:none;stop-color:#000" transform="translate(-40.118 -650.282)scale(.26458)"><tspan x="207.094" y="2645.437">design
</tspan><tspan x="198.292" y="2663.77">with the
</tspan><tspan x="211.494" y="2682.104">mouse</tspan></text><text xml:space="preserve" style="font-size:14.6667px;line-height:normal;font-family:&quot;Liberation Mono&quot;;-inkscape-font-specification:&quot;Liberation Mono&quot;;text-align:center;text-decoration-color:#000;white-space:pre;shape-inside:url(#m);fill:#000;stroke-width:1;-inkscape-stroke:none;stop-color:#000" transform="translate(-4.561 -645.282)scale(.26458)"><tspan x="206.584" y="2640.542">3D files
</tspan><tspan x="193.382" y="2658.876">(step, stl)</tspan></text><text xml:space="preserve" style="font-size:14.6667px;line-height:normal;font-family:&quot;Liberation Mono&quot;;-inkscape-font-specification:&quot;Liberation Mono&quot;;text-align:center;text-decoration-color:#000;white-space:pre;shape-inside:url(#n);fill:#000;stroke-width:1;-inkscape-stroke:none;stop-color:#000" transform="translate(-2.445 -645.61)scale(.26458)"><tspan x="346.292" y="2644.81">slicer</tspan></text><text xml:space="preserve" style="font-size:14.6667px;line-height:normal;font-family:&quot;Liberation Mono&quot;;-inkscape-font-specification:&quot;Liberation Mono&quot;;text-align:center;text-decoration-color:#000;white-space:pre;shape-inside:url(#o);fill:#000;stroke-width:1;-inkscape-stroke:none;stop-color:#000" transform="translate(-7.106 -644.063)scale(.26458)"><tspan x="486.86" y="2640.288">G-code</tspan></text><path d="M48.495 693.92h27.078v11.921H48.495zM90.057 695.253h16.534v6.097H90.057zM123.222 695.42h16.458v6.497h-16.458z" style="fill:none;stroke:#37c871;stroke-width:.264583" transform="translate(-2.445 -645.282)"/><path d="m40.104 700.111 7.06-.053" style="fill:#d5e5ff;stroke:#06f;stroke-width:.264583;marker-end:url(#p)" transform="translate(-2.445 -645.282)"/><path d="m76.56 698.2 12.422-.023" style="fill:#d5e5ff;stroke:#06f;stroke-width:.264583;marker-end:url(#q)" transform="translate(-2.445 -645.282)"/><path d="m107.415 698.252 14.543-.053" style="fill:#d5e5ff;stroke:#06f;stroke-width:.264582;marker-end:url(#r)" transform="translate(-2.445 -645.282)"/><text xml:space="preserve" style="font-size:14.6667px;line-height:normal;font-family:&quot;Liberation Mono&quot;;-inkscape-font-specification:&quot;Liberation Mono&quot;;text-align:center;text-decoration-color:#000;white-space:pre;shape-inside:url(#s);fill:#000;stroke-width:1;-inkscape-stroke:none;stop-color:#000" transform="translate(-14.494 -686.133)scale(.26458)"><tspan x="67.74" y="2750.548">classic workflow</tspan></text><text xml:space="preserve" style="font-size:14.6667px;line-height:normal;font-family:&quot;Liberation Mono&quot;;-inkscape-font-specification:&quot;Liberation Mono&quot;;text-align:center;text-decoration-color:#000;white-space:pre;shape-inside:url(#t);fill:#000;stroke-width:1;-inkscape-stroke:none;stop-color:#000" transform="translate(-74.884 -723.043)scale(.26458)"><tspan x="296.707" y="2760.396">Parametrix workflow</tspan></text><path d="m107.06 710.916 4.541-8.82 5.042 8.656z" style="fill:#fff;fill-opacity:1;stroke:red;stroke-width:.793752;stroke-linejoin:round;stroke-dasharray:none" transform="translate(-2.445 -645.282)"/><text xml:space="preserve" style="font-style:normal;font-variant:normal;font-weight:700;font-stretch:normal;font-size:29.3333px;line-height:normal;font-family:&quot;Liberation Mono&quot;;-inkscape-font-specification:&quot;Liberation Mono Bold&quot;;text-align:center;text-decoration-color:#000;white-space:pre;shape-inside:url(#u);fill:#000;stroke-width:1;-inkscape-stroke:none;stop-color:#000" transform="translate(69.676 -665.304)scale(.26458)"><tspan x="140.96" y="2758.439">!</tspan></text><text xml:space="preserve" style="font-style:italic;font-variant:normal;font-weight:400;font-stretch:normal;font-size:14.6667px;line-height:normal;font-family:&quot;Liberation Mono&quot;;-inkscape-font-specification:&quot;Liberation Mono Italic&quot;;text-align:center;text-decoration-color:#000;white-space:pre;shape-inside:url(#v);fill:#000;stroke-width:1;-inkscape-stroke:none;stop-color:#000" transform="translate(51.16 -662.666)scale(.26458)"><tspan x="241.014" y="2748.091">broken arcs!</tspan></text></svg>