<svg xmlns="http://www.w3.org/2000/svg" width="368.996" height="141.456" viewBox="0 0 97.63 37.427"><defs><path id="i" d="M362.793 766.011h37.718v26.315h-37.718z"/><path id="f" d="M81.019 830.899h78.025v26.931H81.019z"/><path id="e" d="M180.933 736.63h35.984v24.22h-35.984z"/><path id="d" d="M168.117 700.254h45.092v30.376h-45.092z"/><path id="b" d="M196.815 785.809h21.569v19.192h-21.569z"/><path id="g" d="M81.019 830.899h78.025v26.931H81.019z"/><path id="h" d="M81.019 830.899h78.025v26.931H81.019z"/><marker id="a" markerHeight="1" markerWidth="1" orient="auto-start-reverse" preserveAspectRatio="xMidYMid" refX="0" refY="0" style="overflow:visible" viewBox="0 0 1 1"><path d="M3-3 0 0l3 3" style="fill:none;stroke:context-stroke;stroke-width:1;stroke-linecap:butt" transform="rotate(180 .125 0)"/></marker><marker id="c" markerHeight="1" markerWidth="1" orient="auto-start-reverse" preserveAspectRatio="xMidYMid" refX="0" refY="0" style="overflow:visible" viewBox="0 0 1 1"><path d="M3-3 0 0l3 3" style="fill:none;stroke:context-stroke;stroke-width:1;stroke-linecap:butt" transform="rotate(180 .125 0)"/></marker></defs><g transform="translate(-8.461 -180.051)"><path d="M8.593 180.184h97.366v37.162H8.593z" style="fill:#fff;stroke:#fff;stroke-width:.264583"/><circle cx="11.56" cy="201.807" r=".838" style="fill:none;stroke:#00f;stroke-width:.264583"/><circle cx="33.174" cy="196.335" r=".838" style="fill:none;stroke:#0cf;stroke-width:.264583"/><circle cx="20.044" cy="201.847" r=".838" style="fill:none;stroke:#00f;stroke-width:.264583"/><path d="M11.54 201.766h8.647" style="fill:#e580ff;stroke:#f55;stroke-width:.529167"/><circle cx="28.576" cy="203.763" r="8.777" style="fill:none;stroke:#ccc;stroke-width:.264583"/><circle cx="24.62" cy="194.104" r="8.777" style="fill:none;stroke:#ccc;stroke-width:.264583"/><path d="M33.112 196.246s-1.195-.642-1.84-.836c-.871-.26-1.786-.43-2.695-.424a9.4 9.4 0 0 0-2.887.488 8.6 8.6 0 0 0-2.213 1.145 9 9 0 0 0-1.724 1.623 8 8 0 0 0-1.042 1.626c-.293.602-.662 1.898-.662 1.898" style="fill:none;stroke:#f0f;stroke-width:.264583"/><path d="m28.577 204.084-6.04 6.048" style="fill:none;stroke:#fca;stroke-width:.264583;marker-end:url(#a)"/><text xml:space="preserve" style="font-style:normal;font-variant:normal;font-weight:400;font-stretch:normal;font-size:14.6667px;line-height:normal;font-family:&quot;Liberation Mono&quot;;-inkscape-font-specification:&quot;Liberation Mono&quot;;font-variant-ligatures:normal;font-variant-position:normal;font-variant-caps:normal;font-variant-numeric:normal;font-variant-alternates:normal;font-variant-east-asian:normal;font-feature-settings:normal;font-variation-settings:normal;text-indent:0;text-align:start;text-decoration-line:none;text-decoration-style:solid;text-decoration-color:#000;letter-spacing:normal;word-spacing:normal;text-transform:none;writing-mode:lr-tb;direction:ltr;text-orientation:mixed;dominant-baseline:auto;baseline-shift:baseline;white-space:pre;shape-inside:url(#b);shape-padding:0;shape-margin:0;inline-size:0;opacity:1;vector-effect:none;fill:#ffb380;fill-opacity:1;stroke:none;stroke-width:1;stroke-linecap:butt;stroke-linejoin:miter;stroke-miterlimit:4;stroke-dasharray:none;stroke-dashoffset:0;stroke-opacity:1;-inkscape-stroke:none;stop-color:#000;stop-opacity:1" transform="translate(-26.185 -1.658)scale(.26458)"><tspan x="196.814" y="798.859">R</tspan></text><path d="M25.728 184.154s1.134.077 1.671.244c.576.178 1.625.797 1.625.797" style="fill:none;stroke:#f95;stroke-width:.264583;marker-end:url(#a)"/><path d="M23.607 184.154s-1.133.077-1.67.244c-.577.178-1.625.797-1.625.797" style="fill:none;stroke:#f95;stroke-width:.264583;marker-end:url(#c)"/><text xml:space="preserve" style="font-style:normal;font-variant:normal;font-weight:400;font-stretch:normal;font-size:14.6667px;line-height:normal;font-family:&quot;Liberation Mono&quot;;-inkscape-font-specification:&quot;Liberation Mono&quot;;font-variant-ligatures:normal;font-variant-position:normal;font-variant-caps:normal;font-variant-numeric:normal;font-variant-alternates:normal;font-variant-east-asian:normal;font-feature-settings:normal;font-variation-settings:normal;text-indent:0;text-align:start;text-decoration-line:none;text-decoration-style:solid;text-decoration-color:#000;letter-spacing:normal;word-spacing:normal;text-transform:none;writing-mode:lr-tb;direction:ltr;text-orientation:mixed;dominant-baseline:auto;baseline-shift:baseline;white-space:pre;shape-inside:url(#d);shape-padding:0;shape-margin:0;inline-size:0;opacity:1;vector-effect:none;fill:#f95;fill-opacity:1;stroke:none;stroke-width:1;stroke-linecap:butt;stroke-linejoin:miter;stroke-miterlimit:4;stroke-dasharray:none;stroke-dashoffset:0;stroke-opacity:1;-inkscape-stroke:none;stop-color:#000;stop-opacity:1" transform="translate(-31.552 -3.937)scale(.26458)"><tspan x="168.117" y="713.304">ccw</tspan></text><text xml:space="preserve" style="font-style:normal;font-variant:normal;font-weight:400;font-stretch:normal;font-size:14.6667px;line-height:normal;font-family:&quot;Liberation Mono&quot;;-inkscape-font-specification:&quot;Liberation Mono&quot;;font-variant-ligatures:normal;font-variant-position:normal;font-variant-caps:normal;font-variant-numeric:normal;font-variant-alternates:normal;font-variant-east-asian:normal;font-feature-settings:normal;font-variation-settings:normal;text-indent:0;text-align:start;text-decoration-line:none;text-decoration-style:solid;text-decoration-color:#000;letter-spacing:normal;word-spacing:normal;text-transform:none;writing-mode:lr-tb;direction:ltr;text-orientation:mixed;dominant-baseline:auto;baseline-shift:baseline;white-space:pre;shape-inside:url(#e);shape-padding:0;shape-margin:0;inline-size:0;opacity:1;vector-effect:none;fill:#f95;fill-opacity:1;stroke:none;stroke-width:1;stroke-linecap:butt;stroke-linejoin:miter;stroke-miterlimit:4;stroke-dasharray:none;stroke-dashoffset:0;stroke-opacity:1;-inkscape-stroke:none;stop-color:#000;stop-opacity:1" transform="translate(-18.536 -13.872)scale(.26458)"><tspan x="180.934" y="749.681">cw</tspan></text><text xml:space="preserve" style="font-style:normal;font-variant:normal;font-weight:400;font-stretch:normal;font-size:14.6667px;line-height:normal;font-family:&quot;Liberation Mono&quot;;-inkscape-font-specification:&quot;Liberation Mono&quot;;font-variant-ligatures:normal;font-variant-position:normal;font-variant-caps:normal;font-variant-numeric:normal;font-variant-alternates:normal;font-variant-east-asian:normal;font-feature-settings:normal;font-variation-settings:normal;text-indent:0;text-align:start;text-decoration-line:none;text-decoration-style:solid;text-decoration-color:#000;letter-spacing:normal;word-spacing:normal;text-transform:none;writing-mode:lr-tb;direction:ltr;text-orientation:mixed;dominant-baseline:auto;baseline-shift:baseline;white-space:pre;shape-inside:url(#f);shape-padding:0;shape-margin:0;inline-size:0;opacity:1;vector-effect:none;fill:#000;fill-opacity:1;stroke:none;stroke-width:1;stroke-linecap:butt;stroke-linejoin:miter;stroke-miterlimit:4;stroke-dasharray:none;stroke-dashoffset:0;stroke-opacity:1;-inkscape-stroke:none;stop-color:#000;stop-opacity:1" transform="translate(-7.113 -7.842)scale(.26458)"><tspan x="81.02" y="843.949">arc-1</tspan></text><circle cx="49.882" cy="192.15" r=".838" style="fill:none;stroke:#00f;stroke-width:.264583"/><circle cx="71.496" cy="186.678" r=".838" style="fill:none;stroke:#0cf;stroke-width:.264583"/><circle cx="58.366" cy="192.189" r=".838" style="fill:none;stroke:#00f;stroke-width:.264583"/><path d="M49.862 192.108h8.647" style="fill:#e580ff;stroke:#f55;stroke-width:.529167"/><path d="M71.434 186.588s-1.195-.642-1.84-.835c-.871-.261-1.786-.43-2.696-.424a9.4 9.4 0 0 0-2.886.488 8.6 8.6 0 0 0-2.213 1.145 9 9 0 0 0-1.724 1.623 8 8 0 0 0-1.042 1.625c-.293.603-.662 1.898-.662 1.898" style="fill:none;stroke:#f0f;stroke-width:.264583"/><text xml:space="preserve" style="font-style:normal;font-variant:normal;font-weight:400;font-stretch:normal;font-size:14.6667px;line-height:normal;font-family:&quot;Liberation Mono&quot;;-inkscape-font-specification:&quot;Liberation Mono&quot;;font-variant-ligatures:normal;font-variant-position:normal;font-variant-caps:normal;font-variant-numeric:normal;font-variant-alternates:normal;font-variant-east-asian:normal;font-feature-settings:normal;font-variation-settings:normal;text-indent:0;text-align:start;text-decoration-line:none;text-decoration-style:solid;text-decoration-color:#000;letter-spacing:normal;word-spacing:normal;text-transform:none;writing-mode:lr-tb;direction:ltr;text-orientation:mixed;dominant-baseline:auto;baseline-shift:baseline;white-space:pre;shape-inside:url(#g);shape-padding:0;shape-margin:0;inline-size:0;display:inline;vector-effect:none;fill:#000;fill-opacity:1;stroke:none;stroke-width:1;stroke-linecap:butt;stroke-linejoin:miter;stroke-miterlimit:4;stroke-dasharray:none;stroke-dashoffset:0;stroke-opacity:1;-inkscape-stroke:none;stop-color:#000" transform="translate(32.847 -25.57)scale(.26458)"><tspan x="81.02" y="843.949">arc-2</tspan></text><circle cx="59.997" cy="188.596" r=".838" style="fill:none;stroke:#0cf;stroke-width:.264583"/><circle cx="74.966" cy="208.673" r=".838" style="fill:none;stroke:#00f;stroke-width:.264583"/><circle cx="96.581" cy="203.2" r=".838" style="fill:none;stroke:#0cf;stroke-width:.264583"/><circle cx="83.45" cy="208.712" r=".838" style="fill:none;stroke:#00f;stroke-width:.264583"/><path d="M74.947 208.63h8.647" style="fill:#e580ff;stroke:#f55;stroke-width:.529167"/><path d="m96.518 203.11-8.15-4.705" style="fill:#f95;stroke:#999;stroke-width:.264583;marker-end:url(#a)"/><path d="M96.518 203.11s-1.194-.641-1.84-.835c-.87-.26-1.785-.429-2.695-.424a9.4 9.4 0 0 0-2.886.488 8.6 8.6 0 0 0-2.214 1.146 9 9 0 0 0-1.723 1.622 8 8 0 0 0-1.042 1.626c-.294.602-.663 1.898-.663 1.898" style="fill:none;stroke:#f0f;stroke-width:.264583"/><text xml:space="preserve" style="font-style:normal;font-variant:normal;font-weight:400;font-stretch:normal;font-size:14.6667px;line-height:normal;font-family:&quot;Liberation Mono&quot;;-inkscape-font-specification:&quot;Liberation Mono&quot;;font-variant-ligatures:normal;font-variant-position:normal;font-variant-caps:normal;font-variant-numeric:normal;font-variant-alternates:normal;font-variant-east-asian:normal;font-feature-settings:normal;font-variation-settings:normal;text-indent:0;text-align:start;text-decoration-line:none;text-decoration-style:solid;text-decoration-color:#000;letter-spacing:normal;word-spacing:normal;text-transform:none;writing-mode:lr-tb;direction:ltr;text-orientation:mixed;dominant-baseline:auto;baseline-shift:baseline;white-space:pre;shape-inside:url(#h);shape-padding:0;shape-margin:0;inline-size:0;display:inline;vector-effect:none;fill:#000;fill-opacity:1;stroke:none;stroke-width:1;stroke-linecap:butt;stroke-linejoin:miter;stroke-miterlimit:4;stroke-dasharray:none;stroke-dashoffset:0;stroke-opacity:1;-inkscape-stroke:none;stop-color:#000" transform="translate(58.69 -8.751)scale(.26458)"><tspan x="81.02" y="843.949">arc-3</tspan></text><path d="M96.518 203.11h6.143" style="fill:#f95;stroke:#999;stroke-width:.264583"/><path d="M100.224 202.915s.201-1.702-.249-2.348c-.5-.718-1.496-.99-2.355-1.165-.816-.166-1.725-.173-2.495.145-.697.287-1.694 1.497-1.694 1.497" style="fill:none;stroke:#ffb380;stroke-width:.264583;marker-end:url(#a)"/><text xml:space="preserve" style="font-style:normal;font-variant:normal;font-weight:400;font-stretch:normal;font-size:14.6667px;line-height:normal;font-family:&quot;Liberation Mono&quot;;-inkscape-font-specification:&quot;Liberation Mono&quot;;font-variant-ligatures:normal;font-variant-position:normal;font-variant-caps:normal;font-variant-numeric:normal;font-variant-alternates:normal;font-variant-east-asian:normal;font-feature-settings:normal;font-variation-settings:normal;text-indent:0;text-align:start;text-decoration-line:none;text-decoration-style:solid;text-decoration-color:#000;letter-spacing:normal;word-spacing:normal;text-transform:none;writing-mode:lr-tb;direction:ltr;text-orientation:mixed;dominant-baseline:auto;baseline-shift:baseline;white-space:pre;shape-inside:url(#i);shape-padding:0;shape-margin:0;inline-size:0;opacity:1;vector-effect:none;fill:#f95;fill-opacity:1;stroke:none;stroke-width:1;stroke-linecap:butt;stroke-linejoin:miter;stroke-miterlimit:4;stroke-dasharray:none;stroke-dashoffset:0;stroke-opacity:1;-inkscape-stroke:none;stop-color:#000;stop-opacity:1" transform="translate(2.166 -7.421)scale(.26458)"><tspan x="362.793" y="779.062">a</tspan></text></g></svg>