<svg xmlns="http://www.w3.org/2000/svg" width="473.501" height="253.032" viewBox="0 0 125.281 66.948"><defs><path id="i" d="M385.891 2095.054h137.148v71.152H385.891z"/><path id="e" d="M160.071 2073.221h139.617v64.884H160.071z"/><path id="b" d="M296.346 522.939h34.698v28.927h-34.698z"/><path id="a" d="M213.712 512.527h37.058V541.9h-37.058z"/><path id="f" d="M213.712 512.527h37.058V541.9h-37.058z"/><path id="g" d="M296.346 522.939h34.698v28.927h-34.698z"/><marker id="d" markerHeight="1" markerWidth="1" orient="auto-start-reverse" preserveAspectRatio="xMidYMid" refX="0" refY="0" style="overflow:visible" viewBox="0 0 1 1"><path d="M3-3 0 0l3 3" style="fill:none;stroke:context-stroke;stroke-width:1;stroke-linecap:butt" transform="rotate(180 .125 0)"/></marker><marker id="c" markerHeight="1" markerWidth="1" orient="auto-start-reverse" preserveAspectRatio="xMidYMid" refX="0" refY="0" style="overflow:visible" viewBox="0 0 1 1"><path d="M3-3 0 0l3 3" style="fill:none;stroke:context-stroke;stroke-width:1;stroke-linecap:butt" transform="rotate(180 .125 0)"/></marker><marker id="h" markerHeight="1" markerWidth="1" orient="auto-start-reverse" preserveAspectRatio="xMidYMid" refX="0" refY="0" style="overflow:visible" viewBox="0 0 1 1"><path d="M3-3 0 0l3 3" style="fill:none;stroke:context-stroke;stroke-width:1;stroke-linecap:butt" transform="rotate(180 .125 0)"/></marker></defs><g transform="translate(-8.282 -494.148)"><path d="M8.414 494.28H133.43v66.683H8.414z" style="fill:#fff;stroke:#fff;stroke-width:.264583"/><path d="m58.641 517.63.464-.038 1.237.202 1.72.72v1.205l-1.72.72-1.237.202-.464-.038-.244 1.857.458.084 1.142.516 1.475 1.14-.312 1.164-1.847.25-1.248-.125-.438-.156-.716 1.73.42.2.97.793 1.13 1.483-.603 1.043-1.85-.236-1.172-.443-.383-.265-1.14 1.486.355.301.731 1.018.708 1.725-.853.852-1.724-.707-1.018-.731-.302-.355-1.485 1.14.264.383.443 1.172.237 1.85-1.044.602-1.482-1.13-.794-.97-.2-.42-1.73.717.156.438.125 1.247-.25 1.847-1.164.312-1.14-1.474-.516-1.143-.084-.458-1.856.245.037.464-.202 1.237-.72 1.72H39.57l-.72-1.72-.202-1.237.037-.464-1.856-.245-.084.458-.516 1.143-1.14 1.474-1.164-.312-.25-1.847.125-1.247.156-.438-1.73-.717-.2.42-.793.97-1.483 1.13-1.043-.603.236-1.849.443-1.172.265-.383-1.486-1.14-.301.355-1.018.731-1.725.707-.852-.852.707-1.725.731-1.018.355-.301-1.14-1.486-.383.265-1.172.443-1.85.236-.602-1.043 1.13-1.483.97-.794.42-.2-.717-1.73-.438.157-1.247.124-1.847-.25-.312-1.164 1.474-1.14 1.143-.515.458-.084-.245-1.857-.464.038-1.237-.203-1.72-.72v-1.204l1.72-.72 1.237-.202.464.037.245-1.856-.458-.084-1.143-.516-1.474-1.14.312-1.164 1.847-.25 1.247.125.438.156.717-1.73-.42-.2-.97-.793-1.13-1.483.603-1.044 1.849.237 1.172.443.383.264 1.14-1.485-.355-.302-.731-1.018-.707-1.724.852-.852 1.725.707 1.018.731.301.355 1.486-1.14-.265-.383-.443-1.173-.236-1.849 1.043-.602 1.483 1.13.794.97.2.42 1.73-.717-.157-.438-.124-1.248.25-1.847 1.164-.312 1.14 1.475.515 1.142.084.458 1.856-.244-.037-.464.203-1.237.72-1.72h1.204l.72 1.72.202 1.237-.037.464 1.856.244.084-.458.516-1.142 1.14-1.475 1.164.312.25 1.847-.125 1.248-.156.438 1.73.717.2-.42.794-.97 1.482-1.13 1.044.602-.237 1.85-.443 1.172-.264.383 1.485 1.14.302-.355 1.018-.731 1.724-.707.853.852-.708 1.724-.731 1.018-.354.302 1.14 1.485.382-.264 1.173-.443 1.849-.237.602 1.044-1.13 1.483-.97.793-.42.2.717 1.73.438-.156 1.248-.125 1.847.25.312 1.164-1.475 1.14-1.142.516-.458.084z" style="fill:none;stroke:#f55;stroke-width:.264583"/><circle cx="40.173" cy="519.116" r="15.804" style="fill:none;stroke:#f55;stroke-width:.264583"/><text xml:space="preserve" style="font-style:normal;font-variant:normal;font-weight:400;font-stretch:normal;font-size:14.6667px;line-height:normal;font-family:&quot;Liberation Mono&quot;;-inkscape-font-specification:&quot;Liberation Mono&quot;;font-variant-ligatures:normal;font-variant-position:normal;font-variant-caps:normal;font-variant-numeric:normal;font-variant-alternates:normal;font-variant-east-asian:normal;font-feature-settings:normal;font-variation-settings:normal;text-indent:0;text-align:start;text-decoration-line:none;text-decoration-style:solid;text-decoration-color:#000;letter-spacing:normal;word-spacing:normal;text-transform:none;writing-mode:lr-tb;direction:ltr;text-orientation:mixed;dominant-baseline:auto;baseline-shift:baseline;white-space:pre;shape-inside:url(#a);shape-padding:0;shape-margin:0;inline-size:0;display:inline;vector-effect:none;fill:#000;fill-opacity:1;stroke:none;stroke-width:1;stroke-linecap:butt;stroke-linejoin:miter;stroke-miterlimit:4;stroke-dasharray:none;stroke-dashoffset:0;stroke-opacity:1;-inkscape-stroke:none;stop-color:#000" transform="translate(-30.895 405.621)scale(.26458)"><tspan x="213.711" y="525.577">x</tspan></text><text xml:space="preserve" style="font-style:normal;font-variant:normal;font-weight:400;font-stretch:normal;font-size:14.6667px;line-height:normal;font-family:&quot;Liberation Mono&quot;;-inkscape-font-specification:&quot;Liberation Mono&quot;;font-variant-ligatures:normal;font-variant-position:normal;font-variant-caps:normal;font-variant-numeric:normal;font-variant-alternates:normal;font-variant-east-asian:normal;font-feature-settings:normal;font-variation-settings:normal;text-indent:0;text-align:start;text-decoration-line:none;text-decoration-style:solid;text-decoration-color:#000;letter-spacing:normal;word-spacing:normal;text-transform:none;writing-mode:lr-tb;direction:ltr;text-orientation:mixed;dominant-baseline:auto;baseline-shift:baseline;white-space:pre;shape-inside:url(#b);shape-padding:0;shape-margin:0;inline-size:0;display:inline;vector-effect:none;fill:#000;fill-opacity:1;stroke:none;stroke-width:1;stroke-linecap:butt;stroke-linejoin:miter;stroke-miterlimit:4;stroke-dasharray:none;stroke-dashoffset:0;stroke-opacity:1;-inkscape-stroke:none;stop-color:#000" transform="translate(-67.318 389.103)scale(.26458)"><tspan x="296.346" y="535.99">y</tspan></text><path d="M15.479 528.723v12.15h11.339" style="fill:#fff;stroke:#1a1a1a;stroke-width:.264583;stroke-dasharray:none;marker-start:url(#c);marker-end:url(#c)"/><path d="m50.033 542.92 11.536-6.738" style="fill:#fff;stroke:#00f;stroke-width:.264583;marker-end:url(#d)"/><text xml:space="preserve" style="font-style:normal;font-variant:normal;font-weight:400;font-stretch:normal;font-size:14.6667px;line-height:normal;font-family:&quot;Liberation Mono&quot;;-inkscape-font-specification:&quot;Liberation Mono&quot;;font-variant-ligatures:normal;font-variant-position:normal;font-variant-caps:normal;font-variant-numeric:normal;font-variant-alternates:normal;font-variant-east-asian:normal;font-feature-settings:normal;font-variation-settings:normal;text-indent:0;text-align:start;text-decoration-line:none;text-decoration-style:solid;text-decoration-color:#000;letter-spacing:normal;word-spacing:normal;text-transform:none;writing-mode:lr-tb;direction:ltr;text-orientation:mixed;dominant-baseline:auto;baseline-shift:baseline;white-space:pre;shape-inside:url(#e);shape-padding:0;shape-margin:0;inline-size:0;opacity:1;vector-effect:none;fill:#00f;fill-opacity:1;stroke:none;stroke-width:1;stroke-linecap:butt;stroke-linejoin:miter;stroke-miterlimit:4;stroke-dasharray:none;stroke-dashoffset:0;stroke-opacity:1;-inkscape-stroke:none;stop-color:#000;stop-opacity:1" transform="translate(.454 -4.815)scale(.26458)"><tspan x="160.072" y="2086.271">orthogonal
</tspan><tspan x="160.072" y="2104.604">extrude
</tspan><tspan x="160.072" y="2122.938">along Z</tspan></text><text xml:space="preserve" style="font-style:normal;font-variant:normal;font-weight:400;font-stretch:normal;font-size:14.6667px;line-height:normal;font-family:&quot;Liberation Mono&quot;;-inkscape-font-specification:&quot;Liberation Mono&quot;;font-variant-ligatures:normal;font-variant-position:normal;font-variant-caps:normal;font-variant-numeric:normal;font-variant-alternates:normal;font-variant-east-asian:normal;font-feature-settings:normal;font-variation-settings:normal;text-indent:0;text-align:start;text-decoration-line:none;text-decoration-style:solid;text-decoration-color:#000;letter-spacing:normal;word-spacing:normal;text-transform:none;writing-mode:lr-tb;direction:ltr;text-orientation:mixed;dominant-baseline:auto;baseline-shift:baseline;white-space:pre;shape-inside:url(#f);shape-padding:0;shape-margin:0;inline-size:0;display:inline;vector-effect:none;fill:#000;fill-opacity:1;stroke:none;stroke-width:1;stroke-linecap:butt;stroke-linejoin:miter;stroke-miterlimit:4;stroke-dasharray:none;stroke-dashoffset:0;stroke-opacity:1;-inkscape-stroke:none;stop-color:#000" transform="translate(57.96 405.51)scale(.26458)"><tspan x="213.711" y="525.577">x</tspan></text><text xml:space="preserve" style="font-style:normal;font-variant:normal;font-weight:400;font-stretch:normal;font-size:14.6667px;line-height:normal;font-family:&quot;Liberation Mono&quot;;-inkscape-font-specification:&quot;Liberation Mono&quot;;font-variant-ligatures:normal;font-variant-position:normal;font-variant-caps:normal;font-variant-numeric:normal;font-variant-alternates:normal;font-variant-east-asian:normal;font-feature-settings:normal;font-variation-settings:normal;text-indent:0;text-align:start;text-decoration-line:none;text-decoration-style:solid;text-decoration-color:#000;letter-spacing:normal;word-spacing:normal;text-transform:none;writing-mode:lr-tb;direction:ltr;text-orientation:mixed;dominant-baseline:auto;baseline-shift:baseline;white-space:pre;shape-inside:url(#g);shape-padding:0;shape-margin:0;inline-size:0;display:inline;vector-effect:none;fill:#000;fill-opacity:1;stroke:none;stroke-width:1;stroke-linecap:butt;stroke-linejoin:miter;stroke-miterlimit:4;stroke-dasharray:none;stroke-dashoffset:0;stroke-opacity:1;-inkscape-stroke:none;stop-color:#000" transform="translate(21.536 364.65)scale(.26458)"><tspan x="296.346" y="535.99">y</tspan></text><path d="M104.333 504.085v36.054h11.339" style="fill:#fff;stroke:#1a1a1a;stroke-width:.264583;stroke-dasharray:none;marker-start:url(#h);marker-end:url(#h)"/><path d="M116.171 504.345v7.786s2.949 4.543 3.558 7.127c.654 2.776 1.341 6.038 0 8.555-1.227 2.302-6.497 4.362-6.497 4.362v2.73h16.781v-3.195h-6.742v-15.741l-3.094-11.547z" style="fill:none;stroke:#f55;stroke-width:.264583"/><path d="M114.446 534.267s-3.987 3.08-6.375 3.467c-3.54.574-7.845.414-10.591-1.892-.72-.605-.968-2.65-.968-2.65" style="fill:none;stroke:#00f;stroke-width:.264583;marker-end:url(#d)"/><text xml:space="preserve" style="font-style:normal;font-variant:normal;font-weight:400;font-stretch:normal;font-size:14.6667px;line-height:normal;font-family:&quot;Liberation Mono&quot;;-inkscape-font-specification:&quot;Liberation Mono&quot;;font-variant-ligatures:normal;font-variant-position:normal;font-variant-caps:normal;font-variant-numeric:normal;font-variant-alternates:normal;font-variant-east-asian:normal;font-feature-settings:normal;font-variation-settings:normal;text-indent:0;text-align:start;text-decoration-line:none;text-decoration-style:solid;text-decoration-color:#000;letter-spacing:normal;word-spacing:normal;text-transform:none;writing-mode:lr-tb;direction:ltr;text-orientation:mixed;dominant-baseline:auto;baseline-shift:baseline;white-space:pre;shape-inside:url(#i);shape-padding:0;shape-margin:0;inline-size:0;opacity:1;vector-effect:none;fill:#00f;fill-opacity:1;stroke:none;stroke-width:1;stroke-linecap:butt;stroke-linejoin:miter;stroke-miterlimit:4;stroke-dasharray:none;stroke-dashoffset:0;stroke-opacity:1;-inkscape-stroke:none;stop-color:#000;stop-opacity:1" transform="translate(-7.851 -12.208)scale(.26458)"><tspan x="385.891" y="2108.105">rotate
</tspan><tspan x="385.891" y="2126.438">extrude
</tspan><tspan x="385.891" y="2144.772">around y</tspan></text></g></svg>