<svg xmlns="http://www.w3.org/2000/svg" xml:space="preserve" width="497.279" height="418.919" viewBox="0 0 131.572 110.839"><defs><path id="k" d="M451.684 950.51h119.769v59.885H451.684z"/><path id="i" d="M321.084 1140.358h276.489v99.383H321.084z"/><path id="d" d="M30.579 86.642h448.498v57.336H30.579z"/><path id="e" d="M46.506 246.547h160.542v43.321H46.506z"/><path id="f" d="M212.782 388.613h134.422v45.232H212.782z"/><path id="g" d="M241.45 420.467h171.372v81.545H241.45z"/><path id="h" d="M183.477 507.109h161.179v66.255H183.477z"/><path id="j" d="M321.084 1140.358h276.489v99.383H321.084z"/><path id="l" d="M451.684 950.51h128.051v128.688H451.684z"/><marker id="a" markerHeight="1" markerWidth="1" orient="auto-start-reverse" preserveAspectRatio="xMidYMid" refX="0" refY="0" style="overflow:visible" viewBox="0 0 1 1"><path d="M3-3 0 0l3 3" style="fill:none;stroke:context-stroke;stroke-width:1;stroke-linecap:butt" transform="rotate(180 .125 0)"/></marker><marker id="b" markerHeight="1" markerWidth="1" orient="auto-start-reverse" preserveAspectRatio="xMidYMid" refX="0" refY="0" style="overflow:visible" viewBox="0 0 1 1"><path d="M3-3 0 0l3 3" style="fill:none;stroke:context-stroke;stroke-width:1;stroke-linecap:butt" transform="rotate(180 .125 0)"/></marker><marker id="c" markerHeight="1" markerWidth="1" orient="auto-start-reverse" preserveAspectRatio="xMidYMid" refX="0" refY="0" style="overflow:visible" viewBox="0 0 1 1"><path d="M3-3 0 0l3 3" style="fill:none;stroke:context-stroke;stroke-width:1;stroke-linecap:butt" transform="rotate(180 .125 0)"/></marker></defs><g transform="translate(-16.218 -236.86)"><path d="M16.35 236.993h131.307v110.574H16.35z" style="fill:#fff;fill-opacity:1;stroke:#fff;stroke-width:.264583;stroke-linejoin:round;stroke-dasharray:none;stroke-opacity:1"/><path d="M25.499 272.37h91.022v50.736H25.499z" style="fill:#ffe6d5;fill-opacity:1;stroke:gray;stroke-width:.264583;stroke-linejoin:round;stroke-dasharray:none;stroke-opacity:1"/><path d="M25.452 246.77h91.022v24.778H25.452z" style="fill:#fff6d5;fill-opacity:1;stroke:gray;stroke-width:.264583;stroke-linejoin:round;stroke-dasharray:none;stroke-opacity:1"/><path d="M43.962 321.69v6.555" style="fill:#fd5;stroke:#ccc;stroke-width:.264583;stroke-linejoin:round;stroke-dasharray:none;marker-end:url(#a)"/><path d="M43.328 293.073v13.808" style="fill:#fd5;stroke:#ccc;stroke-width:.264584;stroke-linejoin:round;stroke-dasharray:none;marker-end:url(#b)"/><path d="M43.28 268.886v8.34" style="fill:#fd5;stroke:#ccc;stroke-width:.264583;stroke-linejoin:round;stroke-dasharray:none;marker-end:url(#c)"/><path d="m34.923 311.868-2.116-.238s-.598-.024-.864.09c-.227.096-.39.303-.566.476a5 5 0 0 0-.596.685c-.142.205-.302.413-.358.656-.046.203-.028.425.03.626.045.153.238.417.238.417l1.878.298z" style="fill:#fd5;stroke:#d4aa00;stroke-width:.264583;stroke-linejoin:round"/><text xml:space="preserve" style="font-size:16px;line-height:normal;font-family:&quot;Liberation Mono&quot;;-inkscape-font-specification:&quot;Liberation Mono&quot;;text-decoration-color:#000;white-space:pre;shape-inside:url(#d);display:inline;fill:#000;stroke-width:1;-inkscape-stroke:none;stop-color:#000" transform="translate(10.447 216.34)scale(.26458)"><tspan x="30.58" y="100.879"><tspan style="font-weight:700;-inkscape-font-specification:&quot;Liberation Mono Bold&quot;">Approach of SolidWorks, FreeCAD, </tspan><tspan style="font-weight:700;-inkscape-font-specification:&quot;Liberation Mono Bold&quot;;fill:#00f">Parametrix</tspan></tspan></text><path d="M31.011 253.372h25.115v14.327H31.011z" style="fill:none;stroke:#d40000;stroke-width:.264583;stroke-linejoin:round"/><circle cx="37.5" cy="260.536" r="3.287" style="fill:none;stroke:#d40000;stroke-width:.264583;stroke-linejoin:round"/><circle cx="48.414" cy="260.164" r="5.225" style="fill:none;stroke:#d40000;stroke-width:.264583;stroke-linejoin:round"/><text xml:space="preserve" style="font-style:italic;font-variant:normal;font-weight:400;font-stretch:normal;font-size:13.3333px;line-height:normal;font-family:&quot;Liberation Mono&quot;;-inkscape-font-specification:&quot;Liberation Mono Italic&quot;;text-decoration-color:#000;white-space:pre;shape-inside:url(#e);display:inline;fill:#668000;stroke-width:1;-inkscape-stroke:none;stop-color:#000" transform="translate(20.701 207.618)scale(.26458)"><tspan x="46.506" y="258.411">extrusion</tspan></text><path d="m31.516 285.266 6.743-6.743 18.036.506-7.417 6.742z" style="fill:#666;stroke:#d40000;stroke-width:.264583;stroke-linejoin:round"/><ellipse cx="266.178" cy="138.659" rx="2.171" ry="3.832" style="fill:#ccc;stroke:#d40000;stroke-width:.265416;stroke-linejoin:round" transform="matrix(.61938 .7851 -.84943 .5277 0 0)"/><path d="m31.516 285.266-.132 6.573 17.639.338-.145-6.406zM49.023 292.177l7.404-7.044-.132-6.104-7.417 6.742z" style="fill:#666;stroke:#d40000;stroke-width:.264583;stroke-linejoin:round"/><ellipse cx="253.549" cy="129.241" rx="1.073" ry="1.818" style="fill:#ccc;stroke:#d40000;stroke-width:.264583;stroke-linejoin:round" transform="rotate(55.005)"/><path d="m31.392 314.171 6.742-6.742 18.036.505-7.417 6.743z" style="fill:#666;stroke:#d40000;stroke-width:.264583;stroke-linejoin:round"/><ellipse cx="290.82" cy="156.773" rx="2.171" ry="3.832" style="fill:#ccc;stroke:#d40000;stroke-width:.265416;stroke-linejoin:round" transform="matrix(.61938 .7851 -.84943 .5277 0 0)"/><path d="m31.392 314.171-.132 6.574 17.639.337-.146-6.405zM48.899 321.082l7.403-7.043-.132-6.105-7.417 6.743z" style="fill:#666;stroke:#d40000;stroke-width:.264583;stroke-linejoin:round"/><ellipse cx="277.157" cy="145.921" rx="1.073" ry="1.818" style="fill:#ccc;stroke:#d40000;stroke-width:.264583;stroke-linejoin:round" transform="rotate(55.005)"/><ellipse cx="275.971" cy="105.969" rx="1.151" ry="1.787" style="fill:#fd5;stroke:#d4aa00;stroke-width:.268549;stroke-linejoin:round" transform="matrix(.47479 .8801 -.74015 .67244 0 0)"/><path d="m55.647 312.796-2.116-.238s-.598-.024-.864.09c-.227.096-.39.303-.566.476a5 5 0 0 0-.596.685c-.142.205-.302.413-.358.656-.047.203-.028.425.03.626.045.153.238.417.238.417l1.878.298z" style="fill:#fd5;stroke:#d4aa00;stroke-width:.264583;stroke-linejoin:round"/><ellipse cx="277.5" cy="104.353" rx="1.151" ry="1.787" style="fill:#fd5;stroke:#d4aa00;stroke-width:.268549;stroke-linejoin:round" transform="matrix(.47479 .8801 -.74015 .67244 0 0)"/><path d="m31.167 336.88 6.743-6.741 18.036.505-7.417 6.743z" style="fill:#666;stroke:#d40000;stroke-width:.264583;stroke-linejoin:round"/><ellipse cx="310.113" cy="171.106" rx="2.171" ry="3.832" style="fill:#ccc;stroke:#d40000;stroke-width:.265416;stroke-linejoin:round" transform="matrix(.61938 .7851 -.84943 .5277 0 0)"/><path d="m31.167 336.88-.132 6.575 17.639.337-.145-6.405zM48.674 343.792l7.404-7.043-.132-6.105-7.417 6.743z" style="fill:#666;stroke:#d40000;stroke-width:.264583;stroke-linejoin:round"/><ellipse cx="295.632" cy="159.129" rx="1.073" ry="1.818" style="fill:#ccc;stroke:#d40000;stroke-width:.264583;stroke-linejoin:round" transform="rotate(55.005)"/><ellipse cx="293.132" cy="117.281" rx="1.151" ry="1.787" style="fill:#ccc;stroke:#d40000;stroke-width:.268549;stroke-linejoin:round" transform="matrix(.47479 .8801 -.74015 .67244 0 0)"/><text xml:space="preserve" style="font-style:italic;font-variant:normal;font-weight:400;font-stretch:normal;font-size:13.3333px;line-height:normal;font-family:&quot;Liberation Mono&quot;;-inkscape-font-specification:&quot;Liberation Mono Italic&quot;;text-decoration-color:#000;white-space:pre;shape-inside:url(#f);display:inline;fill:#668000;stroke-width:1;-inkscape-stroke:none;stop-color:#000" transform="translate(-24.782 145.006)scale(.26458)"><tspan x="212.781" y="400.477">2D drawing</tspan></text><text xml:space="preserve" style="font-style:italic;font-variant:normal;font-weight:400;font-stretch:normal;font-size:13.3333px;line-height:normal;font-family:&quot;Liberation Mono&quot;;-inkscape-font-specification:&quot;Liberation Mono Italic&quot;;text-decoration-color:#000;white-space:pre;shape-inside:url(#g);display:inline;fill:#668000;stroke-width:1;-inkscape-stroke:none;stop-color:#000" transform="translate(-30.345 182.159)scale(.26458)"><tspan x="241.449" y="432.33">additional
</tspan><tspan x="241.449" y="448.997">3D boolean
</tspan><tspan x="241.449" y="465.664">operations</tspan></text><text xml:space="preserve" style="font-style:italic;font-variant:normal;font-weight:400;font-stretch:normal;font-size:13.3333px;line-height:normal;font-family:&quot;Liberation Mono&quot;;-inkscape-font-specification:&quot;Liberation Mono Italic&quot;;text-decoration-color:#000;white-space:pre;shape-inside:url(#h);display:inline;fill:#668000;stroke-width:1;-inkscape-stroke:none;stop-color:#000" transform="translate(-18.883 190.297)scale(.26458)"><tspan x="183.477" y="518.973">final 3D part</tspan></text><text xml:space="preserve" style="font-size:16px;line-height:normal;font-family:&quot;Liberation Mono&quot;;-inkscape-font-specification:&quot;Liberation Mono&quot;;text-decoration-color:#000;white-space:pre;shape-inside:url(#i);fill:#000;stroke-width:1;-inkscape-stroke:none;stop-color:#000" transform="translate(-20.682 -53.433)scale(.26458)"><tspan x="321.084" y="1154.594">- 2D design
</tspan><tspan x="321.084" y="1174.594">- light processing
</tspan><tspan x="321.084" y="1194.594">- most of the 
</tspan><tspan x="321.084" y="1214.594">   part definition</tspan></text><text xml:space="preserve" style="font-size:16px;line-height:normal;font-family:&quot;Liberation Mono&quot;;-inkscape-font-specification:&quot;Liberation Mono&quot;;text-decoration-color:#000;white-space:pre;shape-inside:url(#j);display:inline;fill:#000;stroke-width:1;-inkscape-stroke:none;stop-color:#000" transform="translate(-20.502 -25.564)scale(.26458)"><tspan x="321.084" y="1154.594">- 3D design
</tspan><tspan x="321.084" y="1174.594">- heavy processing
</tspan><tspan x="321.084" y="1194.594">- rest of the 
</tspan><tspan x="321.084" y="1214.594">   part definition</tspan></text><text xml:space="preserve" style="font-size:16px;line-height:normal;font-family:&quot;Liberation Mono&quot;;-inkscape-font-specification:&quot;Liberation Mono&quot;;text-decoration-color:#000;white-space:pre;shape-inside:url(#k);fill:purple;stroke-width:1;-inkscape-stroke:none;stop-color:#000" transform="translate(-.674 -.169)scale(.26458)"><tspan x="451.684" y="964.746">Direct </tspan><tspan x="451.684" y="984.746">support of
</tspan><tspan x="451.684" y="1004.746">Parametrix</tspan></text><text xml:space="preserve" style="font-size:16px;line-height:normal;font-family:&quot;Liberation Mono&quot;;-inkscape-font-specification:&quot;Liberation Mono&quot;;text-decoration-color:#000;white-space:pre;shape-inside:url(#l);display:inline;fill:purple;stroke-width:1;-inkscape-stroke:none;stop-color:#000" transform="translate(-.134 25.185)scale(.26458)"><tspan x="451.684" y="964.746">Indirect </tspan><tspan x="451.684" y="984.746">support of
</tspan><tspan x="451.684" y="1004.746">Parametrix
</tspan><tspan x="451.684" y="1024.746">via script
</tspan><tspan x="451.684" y="1044.746">generation</tspan></text></g></svg>