<svg xmlns="http://www.w3.org/2000/svg" xml:space="preserve" width="529.132" height="298.512" viewBox="0 0 140 78.981"><defs><path id="q" d="M105.117 3254.798h113.399v33.765H105.117z"/><path id="i" d="M261.836 3172.615h66.892v33.765h-66.892z"/><path id="h" d="M46.506 3268.176h143.341v44.595H46.506z"/><path id="g" d="M421.741 3311.497h151.623v31.854H421.741z"/><path id="f" d="M434.483 3134.391h136.97v36.95h-136.97z"/><path id="e" d="M372.05 3205.743h174.558v30.579H372.05z"/><path id="d" d="M206.411 3303.215h158.631v46.506H206.411z"/><path id="c" d="M45.232 3173.889h244.635v48.417H45.232z"/><path id="b" d="M70.715 3039.467h175.832v52.877H70.715z"/><path id="j" d="M261.836 3172.615h66.892v33.765h-66.892z"/><path id="k" d="M261.836 3172.615h122.318v52.24H261.836z"/><path id="l" d="M261.836 3172.615h155.445v39.498H261.836z"/><path id="s" d="M434.483 3134.391h136.97v36.95h-136.97z"/><path id="u" d="M46.506 3268.176h143.341v44.595H46.506z"/><marker id="a" markerHeight="1" markerWidth="1" orient="auto-start-reverse" preserveAspectRatio="xMidYMid" refX="0" refY="0" style="overflow:visible" viewBox="0 0 1 1"><path d="M3-3 0 0l3 3" style="fill:none;stroke:context-stroke;stroke-width:1;stroke-linecap:butt" transform="rotate(180 .125 0)"/></marker><marker id="m" markerHeight="1" markerWidth="1" orient="auto-start-reverse" preserveAspectRatio="xMidYMid" refX="0" refY="0" style="overflow:visible" viewBox="0 0 1 1"><path d="M3-3 0 0l3 3" style="fill:none;stroke:context-stroke;stroke-width:1;stroke-linecap:butt" transform="rotate(180 .125 0)"/></marker><marker id="n" markerHeight="1" markerWidth="1" orient="auto-start-reverse" preserveAspectRatio="xMidYMid" refX="0" refY="0" style="overflow:visible" viewBox="0 0 1 1"><path d="M3-3 0 0l3 3" style="fill:none;stroke:context-stroke;stroke-width:1;stroke-linecap:butt" transform="rotate(180 .125 0)"/></marker><marker id="o" markerHeight="1" markerWidth="1" orient="auto-start-reverse" preserveAspectRatio="xMidYMid" refX="0" refY="0" style="overflow:visible" viewBox="0 0 1 1"><path d="M3-3 0 0l3 3" style="fill:none;stroke:context-stroke;stroke-width:1;stroke-linecap:butt" transform="rotate(180 .125 0)"/></marker><marker id="p" markerHeight="1" markerWidth="1" orient="auto-start-reverse" preserveAspectRatio="xMidYMid" refX="0" refY="0" style="overflow:visible" viewBox="0 0 1 1"><path d="M3-3 0 0l3 3" style="fill:none;stroke:context-stroke;stroke-width:1;stroke-linecap:butt" transform="rotate(180 .125 0)"/></marker><marker id="r" markerHeight="1" markerWidth="1" orient="auto-start-reverse" preserveAspectRatio="xMidYMid" refX="0" refY="0" style="overflow:visible" viewBox="0 0 1 1"><path d="M3-3 0 0l3 3" style="fill:none;stroke:context-stroke;stroke-width:1;stroke-linecap:butt" transform="rotate(180 .125 0)"/></marker><marker id="t" markerHeight="1" markerWidth="1" orient="auto-start-reverse" preserveAspectRatio="xMidYMid" refX="0" refY="0" style="overflow:visible" viewBox="0 0 1 1"><path d="M3-3 0 0l3 3" style="fill:none;stroke:context-stroke;stroke-width:1;stroke-linecap:butt" transform="rotate(180 .125 0)"/></marker></defs><g transform="translate(-5.093 -802.88)"><path d="M5.225 803.012H144.96v78.717H5.225z" style="fill:#fff;stroke:#fff;stroke-width:.264583;stroke-linejoin:round"/><path d="m30.846 815.486 43.32 57.31" style="fill:#fff;stroke:#00f;stroke-width:.529167;stroke-linejoin:round;marker-end:url(#a)"/><path d="m81.582 872.627 35.229-58.995" style="fill:#fff;stroke:#f60;stroke-width:.529167;stroke-linejoin:round;marker-end:url(#a)"/><text xml:space="preserve" x="56.316" style="font-size:16px;line-height:normal;font-family:&quot;Liberation Mono&quot;;-inkscape-font-specification:&quot;Liberation Mono&quot;;text-align:center;text-decoration-color:#000;white-space:pre;shape-inside:url(#b);fill:#000;stroke-width:1;-inkscape-stroke:none;stop-color:#000" transform="translate(-12.81 1.348)scale(.26458)"><tspan x="125.025" y="3053.703">Product
</tspan><tspan x="101.021" y="3073.703">requirements</tspan></text><text xml:space="preserve" x="56.641" style="font-size:16px;line-height:normal;font-family:&quot;Liberation Mono&quot;;-inkscape-font-specification:&quot;Liberation Mono&quot;;text-align:center;text-decoration-color:#000;white-space:pre;shape-inside:url(#c);fill:#666;stroke-width:1;-inkscape-stroke:none;stop-color:#000" transform="translate(-22.25 -19.721)scale(.26458)"><tspan x="138.745" y="3188.125">System
</tspan><tspan x="109.94" y="3208.125">requirements</tspan></text><text xml:space="preserve" style="font-size:16px;line-height:normal;font-family:&quot;Liberation Mono&quot;;-inkscape-font-specification:&quot;Liberation Mono&quot;;text-decoration-color:#000;white-space:pre;shape-inside:url(#d);fill:#000;stroke-width:1;-inkscape-stroke:none;stop-color:#000" transform="translate(9.27)scale(.26458)"><tspan x="206.41" y="3317.451">Manufacturing</tspan></text><text xml:space="preserve" style="font-size:16px;line-height:normal;font-family:&quot;Liberation Mono&quot;;-inkscape-font-specification:&quot;Liberation Mono&quot;;text-decoration-color:#000;white-space:pre;shape-inside:url(#e);fill:#000;stroke-width:1;-inkscape-stroke:none;stop-color:#000" transform="scale(.26458)"><tspan x="372.049" y="3219.979">tests</tspan></text><text xml:space="preserve" style="font-style:italic;font-variant:normal;font-weight:400;font-stretch:normal;font-size:16px;line-height:normal;font-family:&quot;Liberation Mono&quot;;-inkscape-font-specification:&quot;Liberation Mono Italic&quot;;text-decoration-color:#000;white-space:pre;shape-inside:url(#f);fill:#5fbcd3;stroke-width:1;-inkscape-stroke:none;stop-color:#000" transform="translate(-50.783 7.417)scale(.26458)"><tspan x="434.482" y="3148.627">verify</tspan></text><text xml:space="preserve" style="font-size:16px;line-height:normal;font-family:&quot;Liberation Mono&quot;;-inkscape-font-specification:&quot;Liberation Mono&quot;;text-decoration-color:#000;white-space:pre;shape-inside:url(#g);fill:#000;stroke-width:1;-inkscape-stroke:none;stop-color:#000" transform="translate(3.83 -58.995)scale(.26458)"><tspan x="421.742" y="3325.733">validations</tspan></text><ellipse cx="790.932" cy="448.983" rx="9.234" ry="3.095" style="fill:none;stroke:green;stroke-width:.533486;stroke-linejoin:round" transform="matrix(.574 .81885 -.90831 .4183 0 0)"/><ellipse cx="810.554" cy="448.616" rx="9.234" ry="3.095" style="fill:none;stroke:green;stroke-width:.533486;stroke-linejoin:round" transform="matrix(.574 .81885 -.90831 .4183 0 0)"/><ellipse cx="828.409" cy="450.363" rx="5.588" ry="1.878" style="fill:none;stroke:green;stroke-width:.533721;stroke-linejoin:round" transform="matrix(.57618 .81732 -.9092 .41635 0 0)"/><text xml:space="preserve" style="font-size:16px;line-height:normal;font-family:&quot;Liberation Mono&quot;;-inkscape-font-specification:&quot;Liberation Mono&quot;;text-decoration-color:#000;white-space:pre;shape-inside:url(#h);fill:#666;stroke-width:1;-inkscape-stroke:none;stop-color:#000" transform="translate(19.384 -16.35)scale(.26458)"><tspan x="46.506" y="3282.412">Detailed </tspan><tspan x="46.506" y="3302.412">modeling</tspan></text><text xml:space="preserve" style="font-size:16px;line-height:normal;font-family:&quot;Liberation Mono&quot;;-inkscape-font-specification:&quot;Liberation Mono&quot;;text-decoration-color:#000;white-space:pre;shape-inside:url(#i);fill:green;stroke-width:1;-inkscape-stroke:none;stop-color:#000" transform="translate(-7.754 5.562)scale(.26458)"><tspan x="261.836" y="3186.852">CAD</tspan></text><text xml:space="preserve" style="font-size:16px;line-height:normal;font-family:&quot;Liberation Mono&quot;;-inkscape-font-specification:&quot;Liberation Mono&quot;;text-decoration-color:#000;white-space:pre;shape-inside:url(#j);display:inline;fill:green;stroke-width:1;-inkscape-stroke:none;stop-color:#000" transform="translate(.45 19.592)scale(.26458)"><tspan x="261.836" y="3186.852">CAM</tspan></text><text xml:space="preserve" style="font-size:16px;line-height:normal;font-family:&quot;Liberation Mono&quot;;-inkscape-font-specification:&quot;Liberation Mono&quot;;text-decoration-color:#000;white-space:pre;shape-inside:url(#k);display:inline;fill:green;stroke-width:1;-inkscape-stroke:none;stop-color:#000" transform="translate(-19.901 -10.675)scale(.26458)"><tspan x="261.836" y="3186.852">Parametrix</tspan></text><text xml:space="preserve" style="font-size:16px;line-height:normal;font-family:&quot;Liberation Mono&quot;;-inkscape-font-specification:&quot;Liberation Mono&quot;;text-decoration-color:#000;white-space:pre;shape-inside:url(#l);display:inline;fill:green;stroke-width:1;-inkscape-stroke:none;stop-color:#000" transform="translate(-30.692 -21.274)scale(.26458)"><tspan x="261.836" y="3186.852">sphinx-needs</tspan></text><path d="M55.445 833.44 64 844.85" style="fill:#fff;stroke:#00f;stroke-width:.529167;stroke-linejoin:round;marker-end:url(#m)"/><path d="m67.622 845.084-8.556-11.409" style="fill:#5fbcd3;stroke:#5fbcd3;stroke-width:.529167;stroke-linejoin:round;marker-end:url(#n)"/><path d="m47.115 822.681 4.32 5.813" style="fill:#fff;stroke:#00f;stroke-width:.529167;stroke-linejoin:round;marker-end:url(#o)"/><path d="m66.237 849.592 5.732 7.678" style="fill:#fff;stroke:#00f;stroke-width:.529167;stroke-linejoin:round;marker-end:url(#p)"/><text xml:space="preserve" style="font-size:16px;line-height:normal;font-family:&quot;Liberation Mono&quot;;-inkscape-font-specification:&quot;Liberation Mono&quot;;text-decoration-color:#000;white-space:pre;shape-inside:url(#q);fill:#666;stroke-width:1;-inkscape-stroke:none;stop-color:#000" transform="translate(9.44 3.034)scale(.26458)"><tspan x="105.117" y="3269.033">Digital fab</tspan></text><path d="m103.26 830.5-26.592.438" style="fill:#5fbcd3;stroke:#5fbcd3;stroke-width:.529167;stroke-linejoin:round;marker-end:url(#r)"/><text xml:space="preserve" style="font-style:italic;font-variant:normal;font-weight:400;font-stretch:normal;font-size:16px;line-height:normal;font-family:&quot;Liberation Mono&quot;;-inkscape-font-specification:&quot;Liberation Mono Italic&quot;;text-decoration-color:#000;white-space:pre;shape-inside:url(#s);display:inline;fill:#5fbcd3;stroke-width:1;-inkscape-stroke:none;stop-color:#000" transform="translate(-31.207 -4.545)scale(.26458)"><tspan x="434.482" y="3148.627">verify</tspan></text><path d="m111.344 820.343-41.346.438" style="fill:#5fbcd3;stroke:#5fbcd3;stroke-width:.529167;stroke-linejoin:round;marker-end:url(#t)"/><ellipse cx="776.178" cy="451.954" rx="5.588" ry="1.878" style="fill:none;stroke:green;stroke-width:.533721;stroke-linejoin:round" transform="matrix(.57618 .81732 -.9092 .41635 0 0)"/><text xml:space="preserve" x="47.699" style="font-size:16px;line-height:normal;font-family:&quot;Liberation Mono&quot;;-inkscape-font-specification:&quot;Liberation Mono&quot;;text-align:center;text-decoration-color:#000;white-space:pre;shape-inside:url(#u);display:inline;fill:#000;stroke-width:1;-inkscape-stroke:none;stop-color:#000" transform="translate(-2.56 -30.79)scale(.26458)"><tspan x="70.169" y="3282.412">Simplified </tspan><tspan x="79.771" y="3302.412">modeling</tspan></text></g></svg>