<svg xmlns="http://www.w3.org/2000/svg" xml:space="preserve" width="360.308" height="477.529" viewBox="0 0 95.332 126.346"><defs><path id="n" d="M405.814 2257.144h150.349v53.514H405.814z"/><path id="m" d="M321.721 2412.589h173.92v41.41h-173.92z"/><path id="l" d="M278.4 2358.438h190.484v66.255H278.4z"/><path id="d" d="M289.23 2120.173h154.171v49.054H289.23z"/><path id="c" d="M86.642 2208.726h205.774v49.692H86.642z"/><path id="a" d="M210.871 1395.186h188.573v113.399H210.871z"/><path id="b" d="M31.854 1593.953h95.561v55.425H31.854z"/><path id="h" d="M289.23 2120.173h154.171v49.054H289.23z"/><path id="i" d="M336.374 1578.663h175.195v48.417H336.374z"/><path id="j" d="M365.679 1771.058h147.163v43.321H365.679z"/><path id="o" d="M405.814 2257.144h150.349v53.514H405.814z"/><marker id="e" markerHeight="1" markerWidth="1" orient="auto-start-reverse" preserveAspectRatio="xMidYMid" refX="0" refY="0" style="overflow:visible" viewBox="0 0 1 1"><path d="M3-3 0 0l3 3" style="fill:none;stroke:context-stroke;stroke-width:1;stroke-linecap:butt" transform="rotate(180 .125 0)"/></marker><marker id="f" markerHeight="1" markerWidth="1" orient="auto-start-reverse" preserveAspectRatio="xMidYMid" refX="0" refY="0" style="overflow:visible" viewBox="0 0 1 1"><path d="M3-3 0 0l3 3" style="fill:none;stroke:context-stroke;stroke-width:1;stroke-linecap:butt" transform="rotate(180 .125 0)"/></marker><marker id="g" markerHeight="1" markerWidth="1" orient="auto-start-reverse" preserveAspectRatio="xMidYMid" refX="0" refY="0" style="overflow:visible" viewBox="0 0 1 1"><path d="M3-3 0 0l3 3" style="fill:none;stroke:context-stroke;stroke-width:1;stroke-linecap:butt" transform="rotate(180 .125 0)"/></marker><marker id="k" markerHeight="1" markerWidth="1" orient="auto-start-reverse" preserveAspectRatio="xMidYMid" refX="0" refY="0" style="overflow:visible" viewBox="0 0 1 1"><path d="M3-3 0 0l3 3" style="fill:none;stroke:context-stroke;stroke-width:1;stroke-linecap:butt" transform="rotate(180 .125 0)"/></marker></defs><g transform="translate(-17.735 -529.647)"><rect width="95.067" height="126.082" x="17.867" y="529.779" ry="0" style="fill:#fff;fill-opacity:1;stroke:#fff;stroke-width:.264583;stroke-linejoin:round;stroke-dasharray:none;stroke-opacity:1"/><rect width="45.342" height="9.271" x="25.284" y="583.381" ry="4.214" style="fill:#ffd5d5;fill-opacity:1;stroke:red;stroke-width:.264583;stroke-linejoin:round;stroke-dasharray:none;stroke-opacity:1"/><path d="M21.789 532.995h51.41v15.002h-51.41z" style="fill:#d5e5ff;fill-opacity:1;stroke:#04a;stroke-width:.264583;stroke-linejoin:round;stroke-dasharray:none;stroke-opacity:1"/><text xml:space="preserve" x="90.582" style="font-style:normal;font-variant:normal;font-weight:400;font-stretch:normal;font-size:16px;line-height:normal;font-family:&quot;Liberation Mono&quot;;-inkscape-font-specification:&quot;Liberation Mono&quot;;text-align:center;text-decoration-color:#000;white-space:pre;shape-inside:url(#a);display:inline;fill:#000;stroke-width:1;-inkscape-stroke:none;stop-color:#000" transform="translate(-33.33 166.043)scale(.26458)"><tspan x="213.942" y="1409.422">Parametrix 3D model
</tspan><tspan x="233.146" y="1429.422">(in Javascript)</tspan></text><path d="M33.971 566.323h25.958v7.585H33.971z" style="fill:#fff6d5;fill-opacity:1;stroke:#d4aa00;stroke-width:.264583;stroke-linejoin:round;stroke-dasharray:none;stroke-opacity:1"/><text xml:space="preserve" style="font-size:16px;line-height:normal;font-family:&quot;Liberation Mono&quot;;-inkscape-font-specification:&quot;Liberation Mono&quot;;text-decoration-color:#000;white-space:pre;shape-inside:url(#b);display:inline;fill:#000;stroke-width:1;-inkscape-stroke:none;stop-color:#000" transform="translate(26.925 145.41)scale(.26458)"><tspan x="31.854" y="1608.19">HTML-page</tspan></text><text xml:space="preserve" style="font-size:16px;line-height:normal;font-family:&quot;Liberation Mono&quot;;-inkscape-font-specification:&quot;Liberation Mono&quot;;text-decoration-color:#000;white-space:pre;shape-inside:url(#c);display:inline;fill:#000;stroke-width:1;-inkscape-stroke:none;stop-color:#000" transform="translate(5.057 1.011)scale(.26458)"><tspan x="86.643" y="2222.963">Check 2D design</tspan></text><text xml:space="preserve" style="font-size:16px;line-height:normal;font-family:&quot;Liberation Mono&quot;;-inkscape-font-specification:&quot;Liberation Mono&quot;;text-decoration-color:#000;white-space:pre;shape-inside:url(#d);display:inline;fill:#4d4d4d;stroke-width:1;-inkscape-stroke:none;stop-color:#000" transform="translate(-51.41 -9.44)scale(.26458)"><tspan x="289.23" y="2134.41">Generate
</tspan><tspan x="289.23" y="2154.41">web-page</tspan></text><path d="M46.69 548.658v16.013" style="fill:green;fill-opacity:1;stroke:#000;stroke-width:.264583;stroke-linejoin:round;stroke-dasharray:none;stroke-opacity:1;marker-end:url(#e)"/><path d="M46.727 574.642v7.55" style="fill:green;fill-opacity:1;stroke:#000;stroke-width:.264583;stroke-linejoin:round;stroke-dasharray:none;stroke-opacity:1;marker-end:url(#f)"/><path d="M46.581 593.758v13.421" style="fill:green;fill-opacity:1;stroke:#000;stroke-width:.264583;stroke-linejoin:round;stroke-dasharray:none;stroke-opacity:1;marker-end:url(#g)"/><text xml:space="preserve" x="93.813" style="font-size:16px;line-height:normal;font-family:&quot;Liberation Mono&quot;;-inkscape-font-specification:&quot;Liberation Mono&quot;;text-align:end;text-decoration-color:#000;white-space:pre;shape-inside:url(#h);display:inline;fill:#4d4d4d;stroke-width:1;-inkscape-stroke:none;stop-color:#000" transform="translate(-71.416 34.855)scale(.26458)"><tspan x="366.59" y="2134.41">Generate
</tspan><tspan x="347.387" y="2154.41">3D scripts</tspan></text><path d="M25.802 609.126h41.634v7.585H25.802z" style="fill:#e5d5ff;fill-opacity:1;stroke:#5500d4;stroke-width:.264582;stroke-linejoin:round;stroke-dasharray:none;stroke-opacity:1"/><text xml:space="preserve" style="font-size:16px;line-height:normal;font-family:&quot;Liberation Mono&quot;;-inkscape-font-specification:&quot;Liberation Mono&quot;;text-decoration-color:#000;white-space:pre;shape-inside:url(#i);display:inline;fill:#000;stroke-width:1;-inkscape-stroke:none;stop-color:#000" transform="translate(-61.197 193.124)scale(.26458)"><tspan x="336.373" y="1592.899">OpenSCAD-script</tspan></text><rect width="51.916" height="18.71" x="25.297" y="633.577" ry="9.147" style="fill:#ffd5f6;fill-opacity:1;stroke:#f0c;stroke-width:.264582;stroke-linejoin:round;stroke-dasharray:none;stroke-opacity:1"/><text xml:space="preserve" style="font-size:16px;line-height:normal;font-family:&quot;Liberation Mono&quot;;-inkscape-font-specification:&quot;Liberation Mono&quot;;text-decoration-color:#000;white-space:pre;shape-inside:url(#j);display:inline;fill:#000;stroke-width:1;-inkscape-stroke:none;stop-color:#000" transform="translate(-57.216 178.506)scale(.26458)"><tspan x="365.68" y="1785.295">OpenSCAD</tspan></text><path d="M46.699 618.25v13.422" style="fill:green;fill-opacity:1;stroke:#000;stroke-width:.264583;stroke-linejoin:round;stroke-dasharray:none;stroke-opacity:1;marker-end:url(#k)"/><text xml:space="preserve" style="font-size:16px;line-height:normal;font-family:&quot;Liberation Mono&quot;;-inkscape-font-specification:&quot;Liberation Mono&quot;;text-decoration-color:#000;white-space:pre;shape-inside:url(#l);display:inline;fill:#000;stroke-width:1;-inkscape-stroke:none;stop-color:#000" transform="translate(-37.083 17.024)scale(.26458)"><tspan x="278.4" y="2372.674">Check 3D design</tspan></text><text xml:space="preserve" style="font-size:16px;line-height:normal;font-family:&quot;Liberation Mono&quot;;-inkscape-font-specification:&quot;Liberation Mono&quot;;text-decoration-color:#000;white-space:pre;shape-inside:url(#m);display:inline;fill:#000;stroke-width:1;-inkscape-stroke:none;stop-color:#000" transform="translate(-53.939 -3.371)scale(.26458)"><tspan x="321.721" y="2426.826">Visualize 3D</tspan></text><path d="M71.424 584.898s20.03-3.08 23.817-10.956c1.507-3.136-.57-7.247-2.517-10.13-4.555-6.745-19.783-14.311-19.783-14.311" style="fill:none;fill-opacity:1;stroke:red;stroke-width:.264584;stroke-linejoin:round;stroke-dasharray:none;stroke-opacity:1;marker-end:url(#e)"/><path d="M77.708 637.32s23.617-8.189 27.82-17.193c7.65-16.395 2.895-39.914-5.128-56.13-4.857-9.82-26.037-20.059-26.037-20.059" style="fill:none;fill-opacity:1;stroke:#f0c;stroke-width:.264583;stroke-linejoin:round;stroke-dasharray:none;stroke-opacity:1;marker-end:url(#e)"/><text xml:space="preserve" style="font-size:16px;line-height:normal;font-family:&quot;Liberation Mono&quot;;-inkscape-font-specification:&quot;Liberation Mono&quot;;text-decoration-color:#000;white-space:pre;shape-inside:url(#n);display:inline;fill:#666;stroke-width:1;-inkscape-stroke:none;stop-color:#000" transform="translate(-36.24 -32.532)scale(.26458)"><tspan x="405.814" y="2271.381">adjust
</tspan><tspan x="405.814" y="2291.381">/debug 2D</tspan></text><text xml:space="preserve" style="font-size:16px;line-height:normal;font-family:&quot;Liberation Mono&quot;;-inkscape-font-specification:&quot;Liberation Mono&quot;;text-decoration-color:#000;white-space:pre;shape-inside:url(#o);display:inline;fill:#666;stroke-width:1;-inkscape-stroke:none;stop-color:#000" transform="translate(-21.559 -.155)scale(.26458)"><tspan x="405.814" y="2271.381">adjust
</tspan><tspan x="405.814" y="2291.381">/debug 3D</tspan></text></g></svg>