<svg xmlns="http://www.w3.org/2000/svg" width="586.332" height="321.539" viewBox="0 0 155.134 85.074"><defs><path id="D" d="M164.704 3264.936h260.992v52.579H164.704z"/><path id="A" d="M26.428 3088.513h105.407v51.513H26.428z"/><path id="z" d="M36.283 3051.47h51.513v20.082H36.283z"/><path id="y" d="M253.083 3139.13h87.795v24.636h-87.795z"/><path id="x" d="M383.433 3176.757h150.954v31.803H383.433z"/><path id="w" d="M248.156 3218.863h166.632v30.908H248.156z"/><path id="v" d="M103.025 3170.038h183.206v55.992H103.025z"/><path id="g" d="M171.672 2867.113h85.519v27.239h-85.519z"/><path id="f" d="M204.613 2859.511h86.153v32.941h-86.153z"/><path id="e" d="M169.138 2886.751h86.786v30.407h-86.786z"/><path id="c" d="M259.092 2958.333h100.307V3000H259.092z"/><path id="a" d="M103.665 2494.104h186.712v24.995H103.665z"/><path id="b" d="M241.634 2499.756h210.328v24.833H241.634z"/><path id="d" d="M259.092 2958.333h100.307V3000H259.092z"/><path id="B" d="M36.283 3051.47h136.62v32.624H36.283z"/><path id="C" d="M36.283 3051.47h148.714v138.785H36.283z"/><marker id="h" markerHeight="1" markerWidth="1" orient="auto" preserveAspectRatio="xMidYMid" refX="0" refY="0" style="overflow:visible" viewBox="0 0 1 1"><path d="M5 0c0 2.76-2.24 5-5 5s-5-2.24-5-5 2.3-5 5-5c2.76 0 5 2.24 5 5" style="fill:context-stroke;fill-rule:evenodd;stroke:none" transform="scale(.5)"/></marker><marker id="i" markerHeight="1" markerWidth="1" orient="auto-start-reverse" preserveAspectRatio="xMidYMid" refX="0" refY="0" style="overflow:visible" viewBox="0 0 1 1"><path d="M3-3 0 0l3 3" style="fill:none;stroke:context-stroke;stroke-width:1;stroke-linecap:butt" transform="rotate(180 .125 0)"/></marker><marker id="j" markerHeight="1" markerWidth="1" orient="auto" preserveAspectRatio="xMidYMid" refX="0" refY="0" style="overflow:visible" viewBox="0 0 1 1"><path d="M5 0c0 2.76-2.24 5-5 5s-5-2.24-5-5 2.3-5 5-5c2.76 0 5 2.24 5 5" style="fill:context-stroke;fill-rule:evenodd;stroke:none" transform="scale(.5)"/></marker><marker id="k" markerHeight="1" markerWidth="1" orient="auto-start-reverse" preserveAspectRatio="xMidYMid" refX="0" refY="0" style="overflow:visible" viewBox="0 0 1 1"><path d="M3-3 0 0l3 3" style="fill:none;stroke:context-stroke;stroke-width:1;stroke-linecap:butt" transform="rotate(180 .125 0)"/></marker><marker id="l" markerHeight="1" markerWidth="1" orient="auto" preserveAspectRatio="xMidYMid" refX="0" refY="0" style="overflow:visible" viewBox="0 0 1 1"><path d="M5 0c0 2.76-2.24 5-5 5s-5-2.24-5-5 2.3-5 5-5c2.76 0 5 2.24 5 5" style="fill:context-stroke;fill-rule:evenodd;stroke:none" transform="scale(.5)"/></marker><marker id="m" markerHeight="1" markerWidth="1" orient="auto-start-reverse" preserveAspectRatio="xMidYMid" refX="0" refY="0" style="overflow:visible" viewBox="0 0 1 1"><path d="M3-3 0 0l3 3" style="fill:none;stroke:context-stroke;stroke-width:1;stroke-linecap:butt" transform="rotate(180 .125 0)"/></marker><marker id="n" markerHeight="1" markerWidth="1" orient="auto" preserveAspectRatio="xMidYMid" refX="0" refY="0" style="overflow:visible" viewBox="0 0 1 1"><path d="M5 0c0 2.76-2.24 5-5 5s-5-2.24-5-5 2.3-5 5-5c2.76 0 5 2.24 5 5" style="fill:context-stroke;fill-rule:evenodd;stroke:none" transform="scale(.5)"/></marker><marker id="o" markerHeight="1" markerWidth="1" orient="auto-start-reverse" preserveAspectRatio="xMidYMid" refX="0" refY="0" style="overflow:visible" viewBox="0 0 1 1"><path d="M3-3 0 0l3 3" style="fill:none;stroke:context-stroke;stroke-width:1;stroke-linecap:butt" transform="rotate(180 .125 0)"/></marker><marker id="p" markerHeight="1" markerWidth="1" orient="auto" preserveAspectRatio="xMidYMid" refX="0" refY="0" style="overflow:visible" viewBox="0 0 1 1"><path d="M5 0c0 2.76-2.24 5-5 5s-5-2.24-5-5 2.3-5 5-5c2.76 0 5 2.24 5 5" style="fill:context-stroke;fill-rule:evenodd;stroke:none" transform="scale(.5)"/></marker><marker id="q" markerHeight="1" markerWidth="1" orient="auto-start-reverse" preserveAspectRatio="xMidYMid" refX="0" refY="0" style="overflow:visible" viewBox="0 0 1 1"><path d="M3-3 0 0l3 3" style="fill:none;stroke:context-stroke;stroke-width:1;stroke-linecap:butt" transform="rotate(180 .125 0)"/></marker><marker id="r" markerHeight="1" markerWidth="1" orient="auto" preserveAspectRatio="xMidYMid" refX="0" refY="0" style="overflow:visible" viewBox="0 0 1 1"><path d="M5 0c0 2.76-2.24 5-5 5s-5-2.24-5-5 2.3-5 5-5c2.76 0 5 2.24 5 5" style="fill:context-stroke;fill-rule:evenodd;stroke:none" transform="scale(.5)"/></marker><marker id="s" markerHeight="1" markerWidth="1" orient="auto-start-reverse" preserveAspectRatio="xMidYMid" refX="0" refY="0" style="overflow:visible" viewBox="0 0 1 1"><path d="M3-3 0 0l3 3" style="fill:none;stroke:context-stroke;stroke-width:1;stroke-linecap:butt" transform="rotate(180 .125 0)"/></marker><marker id="t" markerHeight="1" markerWidth="1" orient="auto" preserveAspectRatio="xMidYMid" refX="0" refY="0" style="overflow:visible" viewBox="0 0 1 1"><path d="M5 0c0 2.76-2.24 5-5 5s-5-2.24-5-5 2.3-5 5-5c2.76 0 5 2.24 5 5" style="fill:context-stroke;fill-rule:evenodd;stroke:none" transform="scale(.5)"/></marker><marker id="u" markerHeight="1" markerWidth="1" orient="auto-start-reverse" preserveAspectRatio="xMidYMid" refX="0" refY="0" style="overflow:visible" viewBox="0 0 1 1"><path d="M3-3 0 0l3 3" style="fill:none;stroke:context-stroke;stroke-width:1;stroke-linecap:butt" transform="rotate(180 .125 0)"/></marker></defs><g transform="translate(-1.544 -783.431)"><path d="M1.676 783.564h154.869v84.809H1.676z" style="fill:#fff;stroke:#fff;stroke-width:.264583;stroke-linejoin:round;stroke-dasharray:none"/><ellipse cx="81.709" cy="850.271" rx="56.903" ry="16.593" style="fill:#ffd5d5;stroke:#ffd5d5;stroke-width:.264583;stroke-linejoin:round;stroke-dasharray:none"/><path d="M95.655 839.437h38.281v7.467H95.655zM58.286 850.214h42.192v7.467H58.286zM31.903 838.265h33.422v7.467H31.903z" style="fill:#f6ffd5;stroke:green;stroke-width:.264583;stroke-linejoin:round;stroke-dasharray:none"/><path d="M95.163 785.393h20.003v20.784H95.163zM74.822 785.393h16.902v20.784H74.822zM40 785.393h31.705v20.784H40z" style="fill:#fea;stroke:#fc0;stroke-width:.264583"/><path d="M80.325 796.876h27.247v8.244H80.325z" style="fill:#d5e5ff;stroke:#06f;stroke-width:.264583"/><path d="M40 807.5h75.548v8.244H40z" style="fill:#fea;stroke:#fc0;stroke-width:.264584"/><path d="M40 816.496h75.548v8.244H40z" style="fill:#d5e5ff;stroke:#06f;stroke-width:.264584"/><text xml:space="preserve" style="font-size:14.6667px;line-height:normal;font-family:&quot;Liberation Mono&quot;;-inkscape-font-specification:&quot;Liberation Mono&quot;;text-align:center;text-decoration-color:#000;white-space:pre;shape-inside:url(#a);display:inline;fill:#000;stroke-width:1;-inkscape-stroke:none;stop-color:#000" transform="translate(31.378 158.228)scale(.26458)"><tspan x="122.208" y="2507.154">geometrix library</tspan></text><text xml:space="preserve" style="font-size:14.6667px;line-height:normal;font-family:&quot;Liberation Mono&quot;;-inkscape-font-specification:&quot;Liberation Mono&quot;;text-align:center;text-decoration-color:#000;white-space:pre;shape-inside:url(#b);display:inline;fill:#000;stroke-width:1;-inkscape-stroke:none;stop-color:#000" transform="translate(-13.559 148.838)scale(.26458)"><tspan x="254.383" y="2512.806">design code (library)</tspan></text><path d="M41.587 796.876h24.842v8.244H41.587z" style="fill:#d5e5ff;stroke:#06f;stroke-width:.264584"/><text xml:space="preserve" style="font-size:14.6667px;line-height:normal;font-family:&quot;Liberation Mono&quot;;-inkscape-font-specification:&quot;Liberation Mono&quot;;text-decoration-color:#000;white-space:pre;shape-inside:url(#c);display:inline;fill:#000;stroke-width:1;-inkscape-stroke:none;stop-color:#000" transform="translate(-26.19 15.907)scale(.26458)"><tspan x="259.092" y="2971.384">geomui lib</tspan></text><text xml:space="preserve" style="font-size:14.6667px;line-height:normal;font-family:&quot;Liberation Mono&quot;;-inkscape-font-specification:&quot;Liberation Mono&quot;;text-decoration-color:#000;white-space:pre;shape-inside:url(#d);display:inline;fill:#000;stroke-width:1;-inkscape-stroke:none;stop-color:#000" transform="translate(12.61 15.907)scale(.26458)"><tspan x="259.092" y="2971.384">geomcli lib</tspan></text><text xml:space="preserve" style="font-size:14.6667px;line-height:normal;font-family:&quot;Liberation Mono&quot;;-inkscape-font-specification:&quot;Liberation Mono&quot;;text-decoration-color:#000;white-space:pre;shape-inside:url(#e);display:inline;fill:#000;stroke-width:1;-inkscape-stroke:none;stop-color:#000" transform="translate(2.187 23.541)scale(.26458)"><tspan x="169.139" y="2899.8">web-ui</tspan></text><text xml:space="preserve" style="font-size:14.6667px;line-height:normal;font-family:&quot;Liberation Mono&quot;;-inkscape-font-specification:&quot;Liberation Mono&quot;;text-decoration-color:#000;white-space:pre;shape-inside:url(#f);display:inline;fill:#000;stroke-width:1;-inkscape-stroke:none;stop-color:#000" transform="translate(24.59 30.58)scale(.26458)"><tspan x="204.613" y="2872.562">cli</tspan></text><text xml:space="preserve" style="font-size:14.6667px;line-height:normal;font-family:&quot;Liberation Mono&quot;;-inkscape-font-specification:&quot;Liberation Mono&quot;;text-decoration-color:#000;white-space:pre;shape-inside:url(#g);display:inline;fill:#000;stroke-width:1;-inkscape-stroke:none;stop-color:#000" transform="translate(52.162 28.067)scale(.26458)"><tspan x="171.672" y="2880.163">script</tspan></text><path d="M107.723 819.173s2.02-.648 2.43-1.509c.486-1.016.161-2.386-.418-3.352-.3-.498-1.425-1.005-1.425-1.005" style="fill:none;stroke:#f60;stroke-width:.264583;stroke-linejoin:round;stroke-dasharray:none;marker-start:url(#h);marker-end:url(#i)"/><path d="M67.657 809.13s2.02-.648 2.43-1.508c.486-1.016.16-2.386-.418-3.352-.3-.499-1.425-1.006-1.425-1.006" style="fill:none;stroke:#f60;stroke-width:.264583;stroke-linejoin:round;stroke-dasharray:none;marker-start:url(#j);marker-end:url(#k)"/><path d="M76.36 809.18s2.02-.647 2.43-1.508c.485-1.016.16-2.386-.42-3.352-.298-.498-1.424-1.006-1.424-1.006" style="fill:none;stroke:#f60;stroke-width:.264583;stroke-linejoin:round;stroke-dasharray:none;marker-start:url(#l);marker-end:url(#m)"/><path d="M110.22 809.718s2.02-.648 2.43-1.508c.485-1.016.16-2.387-.419-3.352-.299-.499-1.424-1.006-1.424-1.006" style="fill:none;stroke:#f60;stroke-width:.264583;stroke-linejoin:round;stroke-dasharray:none;marker-start:url(#n);marker-end:url(#o)"/><path d="M106.33 798.452s2.02-.47 2.43-1.094c.486-.737.16-1.73-.418-2.43-.3-.362-1.425-.73-1.425-.73" style="fill:none;stroke:#f60;stroke-width:.264583;stroke-linejoin:round;stroke-dasharray:none;marker-start:url(#p);marker-end:url(#q)"/><path d="M81.939 798.193s2.02-.47 2.43-1.093c.485-.737.16-1.73-.419-2.43-.299-.362-1.425-.73-1.425-.73" style="fill:none;stroke:#f60;stroke-width:.264583;stroke-linejoin:round;stroke-dasharray:none;marker-start:url(#r);marker-end:url(#s)"/><path d="M65.094 798.23s2.02-.47 2.43-1.095c.486-.736.16-1.73-.418-2.43-.3-.361-1.425-.729-1.425-.729" style="fill:none;stroke:#f60;stroke-width:.264583;stroke-linejoin:round;stroke-dasharray:none;marker-start:url(#t);marker-end:url(#u)"/><text xml:space="preserve" style="font-size:14.6667px;line-height:normal;font-family:&quot;Liberation Mono&quot;;-inkscape-font-specification:&quot;Liberation Mono&quot;;text-decoration-color:#000;white-space:pre;shape-inside:url(#v);display:inline;fill:#000;stroke-width:1;-inkscape-stroke:none;stop-color:#000" transform="translate(32.377 12.706)scale(.26458)"><tspan x="103.025" y="3183.087">FreeCAD-py-script</tspan></text><text xml:space="preserve" style="font-size:14.6667px;line-height:normal;font-family:&quot;Liberation Mono&quot;;-inkscape-font-specification:&quot;Liberation Mono&quot;;text-decoration-color:#000;white-space:pre;shape-inside:url(#w);display:inline;fill:#000;stroke-width:1;-inkscape-stroke:none;stop-color:#000" transform="translate(-31.148 -11.852)scale(.26458)"><tspan x="248.156" y="3231.913">JSCAD-script</tspan></text><text xml:space="preserve" style="font-size:14.6667px;line-height:normal;font-family:&quot;Liberation Mono&quot;;-inkscape-font-specification:&quot;Liberation Mono&quot;;text-decoration-color:#000;white-space:pre;shape-inside:url(#x);display:inline;fill:#000;stroke-width:1;-inkscape-stroke:none;stop-color:#000" transform="translate(-4.363)scale(.26458)"><tspan x="383.432" y="3189.806">OpenSCAD-script</tspan></text><text xml:space="preserve" style="font-size:14.6667px;line-height:normal;font-family:&quot;Liberation Mono&quot;;-inkscape-font-specification:&quot;Liberation Mono&quot;;text-decoration-color:#000;white-space:pre;shape-inside:url(#y);display:inline;fill:green;stroke-width:1;-inkscape-stroke:none;stop-color:#000" transform="translate(3.459 -4.504)scale(.26458)"><tspan x="253.084" y="3152.179">export</tspan></text><path d="m72.317 823.569-8.889 13.985" style="fill:green;stroke:green;stroke-width:.264583;stroke-linejoin:round;stroke-dasharray:none;marker-end:url(#i)"/><path d="m87.842 823.332 9.126 14.34" style="fill:green;stroke:green;stroke-width:.264583;stroke-linejoin:round;stroke-dasharray:none;marker-end:url(#i)"/><path d="m83.813 823.592 4.266 25.809" style="fill:green;stroke:green;stroke-width:.264583;stroke-linejoin:round;stroke-dasharray:none;marker-end:url(#i)"/><path d="M38.303 785.625h-1.905v10.7h2.133" style="fill:none;stroke:gray;stroke-width:.264583;stroke-linejoin:round;stroke-dasharray:none"/><text xml:space="preserve" style="font-style:italic;font-variant:normal;font-weight:400;font-stretch:normal;font-size:14.6667px;line-height:normal;font-family:&quot;Liberation Mono&quot;;-inkscape-font-specification:&quot;Liberation Mono Italic&quot;;text-decoration-color:#000;white-space:pre;shape-inside:url(#z);display:inline;fill:gray;stroke-width:1;-inkscape-stroke:none;stop-color:#000" transform="translate(16.273 -19.255)scale(.26458)"><tspan x="36.283" y="3064.521">apps</tspan></text><text xml:space="preserve" style="font-style:italic;font-variant:normal;font-weight:400;font-stretch:normal;font-size:14.6667px;line-height:normal;font-family:&quot;Liberation Mono&quot;;-inkscape-font-specification:&quot;Liberation Mono Italic&quot;;text-decoration-color:#000;white-space:pre;shape-inside:url(#A);display:inline;fill:teal;stroke-width:1;-inkscape-stroke:none;stop-color:#000" transform="translate(4.525 -1.9)scale(.26458)"><tspan x="26.428" y="3101.564">simple and
</tspan><tspan x="26.428" y="3119.897">unified API</tspan></text><path d="M35.11 816.722h4.504" style="fill:none;stroke:teal;stroke-width:.264583;stroke-linejoin:round;stroke-dasharray:none;marker-end:url(#i)"/><path d="M38.303 807.182h-1.905v8.335h2.133" style="fill:none;stroke:gray;stroke-width:.264583;stroke-linejoin:round;stroke-dasharray:none"/><text xml:space="preserve" style="font-style:italic;font-variant:normal;font-weight:400;font-stretch:normal;font-size:14.6667px;line-height:normal;font-family:&quot;Liberation Mono&quot;;-inkscape-font-specification:&quot;Liberation Mono Italic&quot;;text-decoration-color:#000;white-space:pre;shape-inside:url(#B);display:inline;fill:gray;stroke-width:1;-inkscape-stroke:none;stop-color:#000" transform="translate(-6.685 1.43)scale(.26458)"><tspan x="36.283" y="3064.521">manufacturable</tspan></text><path d="M117.283 785.43h1.904v39.393h-2.133" style="fill:none;stroke:gray;stroke-width:.264583;stroke-linejoin:round;stroke-dasharray:none"/><text xml:space="preserve" style="font-style:italic;font-variant:normal;font-weight:400;font-stretch:normal;font-size:14.6667px;line-height:normal;font-family:&quot;Liberation Mono&quot;;-inkscape-font-specification:&quot;Liberation Mono Italic&quot;;text-decoration-color:#000;white-space:pre;shape-inside:url(#C);display:inline;fill:gray;stroke-width:1;-inkscape-stroke:none;stop-color:#000" transform="translate(111.221 -17.467)scale(.26458)"><tspan x="36.283" y="3064.521">modern JS
</tspan><tspan x="36.283" y="3082.854">lightweight
</tspan><tspan x="36.283" y="3101.188">easy to
</tspan><tspan x="36.283" y="3119.521">-share
</tspan><tspan x="36.283" y="3137.855">-parametrize
</tspan><tspan x="36.283" y="3156.188">-git-compatible</tspan></text><text xml:space="preserve" style="font-size:14.6667px;line-height:normal;font-family:&quot;Liberation Mono&quot;;-inkscape-font-specification:&quot;Liberation Mono&quot;;text-decoration-color:#000;white-space:pre;shape-inside:url(#D);display:inline;fill:#a00;stroke-width:1;-inkscape-stroke:none;stop-color:#000" transform="translate(16.919 -3.228)scale(.26458)"><tspan x="164.703" y="3277.986">3D heavy lifting</tspan></text></g></svg>