<svg xmlns="http://www.w3.org/2000/svg" width="350.914" height="147.15" viewBox="0 0 92.846 38.933"><defs><marker id="c" markerHeight="1" markerWidth="1" orient="auto-start-reverse" preserveAspectRatio="xMidYMid" refX="0" refY="0" style="overflow:visible" viewBox="0 0 1 1"><path d="M3-3 0 0l3 3" style="fill:none;stroke:context-stroke;stroke-width:1;stroke-linecap:butt" transform="rotate(180 .125 0)"/></marker><marker id="d" markerHeight="1" markerWidth="1" orient="auto-start-reverse" preserveAspectRatio="xMidYMid" refX="0" refY="0" style="overflow:visible" viewBox="0 0 1 1"><path d="M3-3 0 0l3 3" style="fill:none;stroke:context-stroke;stroke-width:1;stroke-linecap:butt" transform="rotate(180 .125 0)"/></marker><marker id="b" markerHeight="1" markerWidth="1" orient="auto-start-reverse" preserveAspectRatio="xMidYMid" refX="0" refY="0" style="overflow:visible" viewBox="0 0 1 1"><path d="M3-3 0 0l3 3" style="fill:none;stroke:context-stroke;stroke-width:1;stroke-linecap:butt" transform="rotate(180 .125 0)"/></marker><marker id="e" markerHeight="1" markerWidth="1" orient="auto-start-reverse" preserveAspectRatio="xMidYMid" refX="0" refY="0" style="overflow:visible" viewBox="0 0 1 1"><path d="M3-3 0 0l3 3" style="fill:none;stroke:context-stroke;stroke-width:1;stroke-linecap:butt" transform="rotate(180 .125 0)"/></marker><marker id="a" markerHeight="1" markerWidth="1" orient="auto-start-reverse" preserveAspectRatio="xMidYMid" refX="0" refY="0" style="overflow:visible" viewBox="0 0 1 1"><path d="M3-3 0 0l3 3" style="fill:none;stroke:context-stroke;stroke-width:1;stroke-linecap:butt" transform="rotate(180 .125 0)"/></marker><marker id="f" markerHeight="1" markerWidth="1" orient="auto-start-reverse" preserveAspectRatio="xMidYMid" refX="0" refY="0" style="overflow:visible" viewBox="0 0 1 1"><path d="M3-3 0 0l3 3" style="fill:none;stroke:context-stroke;stroke-width:1;stroke-linecap:butt" transform="rotate(180 .125 0)"/></marker></defs><g transform="translate(-21.313 -256.434)"><path d="M21.445 256.567h92.581v38.669H21.445z" style="fill:#fff;stroke:#fff;stroke-width:.264584"/><path d="M25.072 273.89v18.406h84.243v-30.519s-7.858-2.12-11.828-1.759c-4.398.4-8.989 1.652-12.539 4.279-3.289 2.434-3.622 7.943-7.187 9.95-4.195 2.362-9.892 2.859-14.396 1.16-5.315-2.006-6.534-10.249-11.852-12.25-3.4-1.278-7.42-.27-10.86.896-3.57 1.21-6.318 4.114-9.51 6.119-2.01 1.262-6.071 3.719-6.071 3.719z" style="fill:#fff;stroke:#f55;stroke-width:.264583"/><path d="m24.89 273.883 7.023-3.707" style="fill:#fff;stroke:#666;stroke-width:.396875;marker-end:url(#a)"/><path d="m78.649 275.073 5.286-10.88" style="fill:#fff;stroke:#666;stroke-width:.396875;marker-start:url(#b);marker-end:url(#b)"/><circle cx="24.999" cy="273.834" r=".838" style="fill:none;stroke:#00f;stroke-width:.264583"/><circle cx="25.121" cy="292.131" r=".838" style="fill:none;stroke:#00f;stroke-width:.264583"/><circle cx="109.144" cy="292.376" r=".838" style="fill:none;stroke:#00f;stroke-width:.264583"/><circle cx="109.194" cy="261.852" r=".838" style="fill:none;stroke:#00f;stroke-width:.264583"/><circle cx="93.466" cy="260.677" r=".838" style="fill:none;stroke:#00f;stroke-width:.264583"/><circle cx="81.116" cy="269.895" r=".838" style="fill:none;stroke:#00f;stroke-width:.264583"/><circle cx="70.657" cy="276.39" r=".838" style="fill:none;stroke:#00f;stroke-width:.264583"/><circle cx="43.968" cy="263.043" r=".838" style="fill:none;stroke:#00f;stroke-width:.264583"/><path d="m36.581 264.648 14.794-3.222" style="fill:#fff;stroke:#666;stroke-width:.396875;marker-start:url(#c);marker-end:url(#c)"/><path d="m62.99 276.872 15.126-.675" style="fill:#fff;stroke:#666;stroke-width:.396875;marker-start:url(#d);marker-end:url(#d)"/><path d="m85.867 262.65 14.614-3.962" style="fill:#fff;stroke:#666;stroke-width:.396875;marker-start:url(#e);marker-end:url(#e)"/><path d="m109.55 261.851-7.543-2.483" style="fill:#fff;stroke:#666;stroke-width:.396875;marker-end:url(#f)"/></g></svg>