<svg xmlns="http://www.w3.org/2000/svg" width="137.331" height="133.575" viewBox="0 0 36.335 35.342"><g transform="translate(-30.675 -30.779)"><path d="M30.807 30.911h36.071v35.077H30.807z" style="fill:#fff;stroke:#fff;stroke-width:.264583"/><circle cx="47.882" cy="51.745" r="11.215" style="fill:none;stroke:#ccc;stroke-width:.264583"/><circle cx="36.535" cy="51.735" r=".838" style="fill:none;stroke:#00f;stroke-width:.264583"/><circle cx="36.792" cy="33.636" r=".838" style="fill:none;stroke:#00f;stroke-width:.264583"/><circle cx="51.905" cy="33.636" r=".838" style="fill:none;stroke:#00f;stroke-width:.264583"/><circle cx="62.434" cy="42.157" r=".838" style="fill:none;stroke:#00f;stroke-width:.264583"/><circle cx="47.599" cy="63.012" r=".838" style="fill:none;stroke:#00f;stroke-width:.264583"/><path d="M36.667 51.745V33.636h15.23l10.517 8.531-14.872 20.788" style="fill:none;stroke:#ff8080;stroke-width:.264583"/><path d="M36.667 51.745s.157 2.024.41 3.001c.185.72.465 1.418.806 2.078.392.757.87 1.473 1.41 2.132.428.522.91 1.004 1.436 1.427a12 12 0 0 0 2.212 1.43c.757.374 1.565.654 2.386.852.724.175 2.215.29 2.215.29" style="fill:none;stroke:#a00;stroke-width:.264583"/></g></svg>