<svg xmlns="http://www.w3.org/2000/svg" width="254.205" height="159.26" viewBox="0 0 67.258 42.138"><defs><marker id="a" markerHeight="1" markerWidth="1" orient="auto-start-reverse" preserveAspectRatio="xMidYMid" refX="0" refY="0" style="overflow:visible" viewBox="0 0 1 1"><path d="M3-3 0 0l3 3" style="fill:none;stroke:context-stroke;stroke-width:1;stroke-linecap:butt" transform="rotate(180 .125 0)"/></marker></defs><g transform="translate(-23.76 -321.531)"><path d="M23.892 321.664h66.994v41.873H23.892z" style="fill:#fff;stroke:#fff;stroke-width:.264583"/><path d="m27.503 359.387 11.494-34.368 6.695 29.13 9.276-28.808 9.028 27.875 8.572-26.989 13.58 33.472z" style="fill:#fff;stroke:#f55;stroke-width:.264583"/><circle cx="38.258" cy="340.803" r="4.212" style="fill:#fff;stroke:#b3b3b3;stroke-width:.264583"/><circle cx="54.968" cy="329.295" r="4.212" style="fill:none;stroke:#b3b3b3;stroke-width:.264583"/><circle cx="72.871" cy="330.276" r="4.212" style="fill:none;stroke:#b3b3b3;stroke-width:.264583"/><path d="M34.3 339.41s.632-1.34 1.193-1.785c.771-.611 1.783-.968 2.765-1.034.62-.042 1.257.144 1.817.412.563.27 1.06.688 1.466 1.161.354.413.803 1.42.803 1.42" style="fill:none;stroke:#f0f;stroke-width:.396875"/><path d="m72.568 326.227.869 15.625" style="fill:none;stroke:#aade87;stroke-width:.264583;marker-end:url(#a)"/><path d="M52.569 332.793s-1.018-.936-1.33-1.537a4.4 4.4 0 0 1-.483-1.961 4.14 4.14 0 0 1 .449-1.892c.322-.625.799-1.205 1.389-1.588a4.6 4.6 0 0 1 2.374-.733c.736-.012 1.488.22 2.13.578a3.8 3.8 0 0 1 1.364 1.282c.433.696.672 1.534.719 2.353.029.507-.108 1.02-.276 1.5-.122.344-.31.666-.52.965-.283.4-.984 1.093-.984 1.093" style="fill:none;stroke:#f0f;stroke-width:.396875"/><path d="m68.658 330.276.869 15.625M77.083 330.276l.869 15.625" style="fill:none;stroke:#aade87;stroke-width:.264583"/><path d="m69.093 337.354-.435-7.078s.268-1.577.656-2.257c.262-.459.667-.831 1.085-1.154a4 4 0 0 1 1.186-.645 3.8 3.8 0 0 1 1.286-.157c.56.023 1.13.121 1.647.336.474.196.909.5 1.283.85.31.291.586.633.77 1.015.301.623.512 2.012.512 2.012l.435 7.812" style="fill:none;stroke:#f0f;stroke-width:.396875"/></g></svg>