<svg xmlns="http://www.w3.org/2000/svg" xml:space="preserve" width="525.947" height="298.512" viewBox="0 0 139.157 78.981"><defs><path id="g" d="M376.727 3913.529h142.758v73.9H376.727z"/><path id="f" d="M254.829 3887.409h97.787v63.07h-97.787z"/><path id="e" d="M165.639 3909.07h203.089v53.514H165.639z"/><path id="d" d="M176.542 3875.305h140.082v45.869H176.542z"/><path id="c" d="M86.642 3774.011h193.033v56.699H86.642z"/><path id="b" d="M330.003 3744.705h193.67v68.804h-193.67z"/><path id="a" d="M193.692 3582.889h131.215v53.514H193.692z"/><path id="h" d="M254.829 3887.409h97.787v63.07h-97.787z"/><path id="i" d="M254.829 3887.409h97.787v63.07h-97.787z"/><path id="j" d="M254.829 3887.409h97.787v63.07h-97.787z"/><path id="k" d="M376.727 3913.529h142.758v73.9H376.727z"/></defs><path d="M5.562 938.702h138.892v78.717H5.562z" style="fill:#fff;stroke:#fff;stroke-width:.264583;stroke-linejoin:round" transform="translate(-5.43 -938.57)"/><text xml:space="preserve" x="47.699" style="font-size:16px;line-height:normal;font-family:&quot;Liberation Mono&quot;;-inkscape-font-specification:&quot;Liberation Mono&quot;;text-align:center;text-decoration-color:#000;white-space:pre;shape-inside:url(#a);fill:#000;stroke-width:1;-inkscape-stroke:none;stop-color:#000" transform="translate(4.095 -937.511)scale(.26458)"><tspan x="211.291" y="3597.125">Simplicity
</tspan><tspan x="235.295" y="3617.125">Speed</tspan></text><text xml:space="preserve" x="71.57" style="font-size:16px;line-height:normal;font-family:&quot;Liberation Mono&quot;;-inkscape-font-specification:&quot;Liberation Mono&quot;;text-align:center;text-decoration-color:#000;white-space:pre;shape-inside:url(#b);fill:#000;stroke-width:1;-inkscape-stroke:none;stop-color:#000" transform="translate(.03 -980.534)scale(.26458)"><tspan x="354.826" y="3758.941">Personalization
</tspan><tspan x="364.428" y="3778.941">Customization</tspan></text><path d="M97.427 945.95h40.96v16.519h-40.96zM56.467 945.95h40.96v16.519h-40.96zM10.24 962.469h46.227v16.519H10.24z" style="fill:none;stroke:#d4aa00;stroke-width:.264583;stroke-linejoin:round" transform="translate(-5.43 -938.57)"/><path d="M56.467 962.469h40.96v16.519h-40.96zM97.427 962.469h40.96v16.519h-40.96z" style="fill:none;stroke:#d4aa00;stroke-width:.264583;stroke-linejoin:round" transform="translate(-5.43 -938.57)"/><text xml:space="preserve" x="79.77" style="font-size:16px;line-height:normal;font-family:&quot;Liberation Mono&quot;;-inkscape-font-specification:&quot;Liberation Mono&quot;;text-align:center;text-decoration-color:#000;white-space:pre;shape-inside:url(#c);fill:#000;stroke-width:1;-inkscape-stroke:none;stop-color:#000" transform="translate(-17.901 -971.7)scale(.26458)"><tspan x="144.752" y="3788.248">3D tools
</tspan><tspan x="139.951" y="3808.248">(FreeCAD)</tspan></text><path d="M10.24 978.988h46.227v16.519H10.24z" style="fill:none;stroke:#d4aa00;stroke-width:.264583;stroke-linejoin:round" transform="translate(-5.43 -938.57)"/><path d="M56.467 978.988h40.96v16.519h-40.96zM97.427 978.988h40.96v16.519h-40.96z" style="fill:none;stroke:#d4aa00;stroke-width:.264583;stroke-linejoin:round" transform="translate(-5.43 -938.57)"/><text xml:space="preserve" style="font-size:16px;line-height:normal;font-family:&quot;Liberation Mono&quot;;-inkscape-font-specification:&quot;Liberation Mono&quot;;text-decoration-color:#000;white-space:pre;shape-inside:url(#d);fill:#000;stroke-width:1;-inkscape-stroke:none;stop-color:#000" transform="translate(-30.636 -978.64)scale(.26458)"><tspan x="176.543" y="3889.541">Parametrix</tspan></text><path d="M10.24 995.506h46.227v16.519H10.24z" style="fill:none;stroke:#d4aa00;stroke-width:.264583;stroke-linejoin:round" transform="translate(-5.43 -938.57)"/><path d="M56.467 995.506h40.96v16.519h-40.96zM97.427 995.506h40.96v16.519h-40.96z" style="fill:none;stroke:#d4aa00;stroke-width:.264583;stroke-linejoin:round" transform="translate(-5.43 -938.57)"/><text xml:space="preserve" x="81.305" style="font-size:16px;line-height:normal;font-family:&quot;Liberation Mono&quot;;-inkscape-font-specification:&quot;Liberation Mono&quot;;text-align:center;text-decoration-color:#000;white-space:pre;shape-inside:url(#e);fill:#000;stroke-width:1;-inkscape-stroke:none;stop-color:#000" transform="translate(-42.85 -973.841)scale(.26458)"><tspan x="185.569" y="3923.307">Sharing platforms
</tspan><tspan x="209.573" y="3943.307">(makerWorld)</tspan></text><text xml:space="preserve" style="font-size:48px;line-height:normal;font-family:&quot;Liberation Mono&quot;;-inkscape-font-specification:&quot;Liberation Mono&quot;;text-decoration-color:#000;white-space:pre;shape-inside:url(#f);fill:#000;stroke-width:1;-inkscape-stroke:none;stop-color:#000" transform="translate(-7.332 -970.425)scale(.26458)"><tspan x="254.828" y="3930.119">+++</tspan></text><text xml:space="preserve" style="font-size:48px;line-height:normal;font-family:&quot;Liberation Mono&quot;;-inkscape-font-specification:&quot;Liberation Mono&quot;;text-decoration-color:#000;white-space:pre;shape-inside:url(#g);fill:#000;stroke-width:1;-inkscape-stroke:none;stop-color:#000" transform="translate(9.374 -977.69)scale(.26458)"><tspan x="376.727" y="3956.239">-</tspan></text><text xml:space="preserve" style="font-size:48px;line-height:normal;font-family:&quot;Liberation Mono&quot;;-inkscape-font-specification:&quot;Liberation Mono&quot;;text-decoration-color:#000;white-space:pre;shape-inside:url(#h);display:inline;fill:#000;stroke-width:1;-inkscape-stroke:none;stop-color:#000" transform="translate(-4.479 -986.944)scale(.26458)"><tspan x="254.828" y="3930.119">++</tspan></text><text xml:space="preserve" style="font-size:48px;line-height:normal;font-family:&quot;Liberation Mono&quot;;-inkscape-font-specification:&quot;Liberation Mono&quot;;text-decoration-color:#000;white-space:pre;shape-inside:url(#i);display:inline;fill:#000;stroke-width:1;-inkscape-stroke:none;stop-color:#000" transform="translate(36.082 -986.944)scale(.26458)"><tspan x="254.828" y="3930.119">++</tspan></text><text xml:space="preserve" style="font-size:48px;line-height:normal;font-family:&quot;Liberation Mono&quot;;-inkscape-font-specification:&quot;Liberation Mono&quot;;text-decoration-color:#000;white-space:pre;shape-inside:url(#j);display:inline;fill:#000;stroke-width:1;-inkscape-stroke:none;stop-color:#000" transform="translate(33.611 -1004.128)scale(.26458)"><tspan x="254.828" y="3930.119">+++</tspan></text><text xml:space="preserve" style="font-size:48px;line-height:normal;font-family:&quot;Liberation Mono&quot;;-inkscape-font-specification:&quot;Liberation Mono&quot;;text-decoration-color:#000;white-space:pre;shape-inside:url(#k);display:inline;fill:#000;stroke-width:1;-inkscape-stroke:none;stop-color:#000" transform="translate(-30.7 -1011.223)scale(.26458)"><tspan x="376.727" y="3956.239">-</tspan></text></svg>