<svg xmlns="http://www.w3.org/2000/svg" width="600" height="3000" viewBox="0 0 158.75 793.75"><defs><path id="ay" d="M42.345 1094.66h225.239v61.265H42.345z"/><path id="ax" d="M242.357 1155.925h140.549v51.354H242.357z"/><path id="an" d="M153.534 935.858h70.715V965.8h-70.715z"/><path id="ak" d="M461.24 1029.507h91.101v31.216H461.24z"/><path id="aj" d="M370.138 985.549h152.26v46.506h-152.26z"/><path id="ai" d="M384.791 936.495H519.85v44.595H384.791z"/><path id="ah" d="M228.709 920.568h75.811v41.41h-75.811z"/><path id="ag" d="M455.506 949.236h91.101v27.394h-91.101z"/><path id="af" d="M366.953 981.727h131.874v36.95H366.953z"/><path id="ae" d="M375.952 953.059h94.207v47.143h-94.207z"/><path id="Z" d="M75.174 936.495h99.383v47.143H75.174z"/><path id="Q" d="M92.375 895.722h183.477v49.054H92.375z"/><path id="P" d="M171.372 810.992h54.151v31.216h-54.151z"/><path id="F" d="M144.103 457.417h136.253v33.128H144.103z"/><path id="E" d="M326.896 472.07h172.705v54.788H326.896z"/><path id="D" d="M251.33 459.966h132.731v35.676H251.33z"/><path id="B" d="M533.229 352.938h78.36v30.579h-78.36z"/><path id="A" d="M528.132 305.157h158.631v50.966H528.132z"/><path id="z" d="M529.406 240.176h136.97v50.329h-136.97z"/><path id="v" d="M373.324 515.391h189.847v28.031H373.324z"/><path id="u" d="M380.332 477.803h165.001v35.676H380.332z"/><path id="t" d="M384.154 452.321h133.785v41.41H384.154z"/><path id="s" d="M388.614 421.741h157.994v33.128H388.614z"/><path id="r" d="M214.056 464.425h154.808v35.039H214.056z"/><path id="q" d="M209.596 437.668h180.928v52.877H209.596z"/><path id="w" d="M235.716 400.718h150.986v31.216H235.716z"/><path id="p" d="M198.766 373.324h128.051v41.41H198.766z"/><path id="g" d="M380.969 345.93h119.132v28.031H380.969z"/><path id="f" d="M302.609 406.452h119.132v22.935H302.609z"/><path id="n" d="M267.57 349.752h159.905v28.031H267.57z"/><path id="m" d="M192.396 440.853h117.221v40.135H192.396z"/><path id="l" d="M167.55 356.76h161.816v46.506H167.55z"/><path id="j" d="M37.587 348.478h124.866v47.143H37.587z"/><path id="k" d="M203.863 430.66h126.14v46.506h-126.14z"/><path id="o" d="M241.45 353.575h102.568v25.483H241.45z"/><path id="i" d="M242.724 313.439h89.827v38.224h-89.827z"/><path id="h" d="M243.998 276.489h74.537v28.668h-74.537z"/><path id="e" d="M212.782 282.223H345.93v35.039H212.782z"/><path id="d" d="M47.143 338.285h106.391v36.95H47.143z"/><path id="c" d="M56.062 236.353h140.156v62.433H56.062z"/><path id="b" d="M48.417 169.461h119.132v31.216H48.417z"/><path id="a" d="M10.83 13.378h128.051v31.854H10.83z"/><path id="G" d="M144.103 457.417h136.253v33.128H144.103z"/><path id="H" d="M144.103 457.417h155.365v37.587H144.103z"/><path id="I" d="M144.103 457.417h136.253v33.128H144.103z"/><path id="J" d="M144.103 457.417h136.253v33.128H144.103z"/><path id="K" d="M144.103 457.417h155.365v37.587H144.103z"/><path id="L" d="M144.103 457.417h136.253v33.128H144.103z"/><path id="M" d="M48.417 169.461h119.132v31.216H48.417z"/><path id="N" d="M56.062 236.353h140.156v62.433H56.062z"/><path id="O" d="M47.143 338.285h106.391v36.95H47.143z"/><path id="R" d="M48.417 169.461h119.132v31.216H48.417z"/><path id="S" d="M48.417 169.461h119.132v31.216H48.417z"/><path id="T" d="M48.417 169.461h119.132v31.216H48.417z"/><path id="U" d="M48.417 169.461h119.132v31.216H48.417z"/><path id="Y" d="M212.782 282.223H345.93v35.039H212.782z"/><path id="aa" d="M212.782 282.223H345.93v35.039H212.782z"/><path id="ac" d="M212.782 282.223H345.93v35.039H212.782z"/><path id="ar" d="M198.766 373.324h128.051v41.41H198.766z"/><path id="as" d="M251.33 459.966h132.731v35.676H251.33z"/><path id="at" d="M144.103 457.417h136.253v33.128H144.103z"/><path id="au" d="M144.103 457.417h136.253v33.128H144.103z"/><path id="av" d="M529.406 240.176h136.97v50.329h-136.97z"/><marker id="C" markerHeight="1" markerWidth="1" orient="auto-start-reverse" preserveAspectRatio="xMidYMid" refX="0" refY="0" style="overflow:visible" viewBox="0 0 1 1"><path d="m1 0-3 3h-2l3-3-3-3h2z" style="fill:context-stroke;fill-rule:evenodd;stroke:none"/></marker><marker id="y" markerHeight="1" markerWidth="1" orient="auto" preserveAspectRatio="xMidYMid" refX="0" refY="0" style="overflow:visible" viewBox="0 0 1 1"><path d="M5 0c0 2.76-2.24 5-5 5s-5-2.24-5-5 2.3-5 5-5c2.76 0 5 2.24 5 5" style="fill:context-stroke;fill-rule:evenodd;stroke:none" transform="scale(0.5)"/></marker><marker id="x" markerHeight="1" markerWidth="1" orient="auto-start-reverse" preserveAspectRatio="xMidYMid" refX="0" refY="0" style="overflow:visible" viewBox="0 0 1 1"><path d="m1 0-3 3h-2l3-3-3-3h2z" style="fill:context-stroke;fill-rule:evenodd;stroke:none"/></marker><marker id="V" markerHeight="1" markerWidth="1" orient="auto-start-reverse" preserveAspectRatio="xMidYMid" refX="0" refY="0" style="overflow:visible" viewBox="0 0 1 1"><path d="m1 0-3 3h-2l3-3-3-3h2z" style="fill:context-stroke;fill-rule:evenodd;stroke:none"/></marker><marker id="ao" markerHeight="1" markerWidth="1" orient="auto-start-reverse" preserveAspectRatio="xMidYMid" refX="0" refY="0" style="overflow:visible" viewBox="0 0 1 1"><path d="m1 0-3 3h-2l3-3-3-3h2z" style="fill:context-stroke;fill-rule:evenodd;stroke:none"/></marker><marker id="W" markerHeight="1" markerWidth="1" orient="auto-start-reverse" preserveAspectRatio="xMidYMid" refX="0" refY="0" style="overflow:visible" viewBox="0 0 1 1"><path d="m1 0-3 3h-2l3-3-3-3h2z" style="fill:context-stroke;fill-rule:evenodd;stroke:none"/></marker><marker id="X" markerHeight="1" markerWidth="1" orient="auto-start-reverse" preserveAspectRatio="xMidYMid" refX="0" refY="0" style="overflow:visible" viewBox="0 0 1 1"><path d="m1 0-3 3h-2l3-3-3-3h2z" style="fill:context-stroke;fill-rule:evenodd;stroke:none"/></marker><marker id="ap" markerHeight="1" markerWidth="1" orient="auto-start-reverse" preserveAspectRatio="xMidYMid" refX="0" refY="0" style="overflow:visible" viewBox="0 0 1 1"><path d="m1 0-3 3h-2l3-3-3-3h2z" style="fill:context-stroke;fill-rule:evenodd;stroke:none"/></marker><marker id="aq" markerHeight="1" markerWidth="1" orient="auto-start-reverse" preserveAspectRatio="xMidYMid" refX="0" refY="0" style="overflow:visible" viewBox="0 0 1 1"><path d="m1 0-3 3h-2l3-3-3-3h2z" style="fill:context-stroke;fill-rule:evenodd;stroke:none"/></marker><marker id="ab" markerHeight="1" markerWidth="1" orient="auto-start-reverse" preserveAspectRatio="xMidYMid" refX="0" refY="0" style="overflow:visible" viewBox="0 0 1 1"><path d="m1 0-3 3h-2l3-3-3-3h2z" style="fill:context-stroke;fill-rule:evenodd;stroke:none"/></marker><marker id="ad" markerHeight="1" markerWidth="1" orient="auto-start-reverse" preserveAspectRatio="xMidYMid" refX="0" refY="0" style="overflow:visible" viewBox="0 0 1 1"><path d="m1 0-3 3h-2l3-3-3-3h2z" style="fill:context-stroke;fill-rule:evenodd;stroke:none"/></marker><marker id="al" markerHeight="1" markerWidth="1" orient="auto-start-reverse" preserveAspectRatio="xMidYMid" refX="0" refY="0" style="overflow:visible" viewBox="0 0 1 1"><path d="m1 0-3 3h-2l3-3-3-3h2z" style="fill:context-stroke;fill-rule:evenodd;stroke:none"/></marker><marker id="am" markerHeight="1" markerWidth="1" orient="auto-start-reverse" preserveAspectRatio="xMidYMid" refX="0" refY="0" style="overflow:visible" viewBox="0 0 1 1"><path d="m1 0-3 3h-2l3-3-3-3h2z" style="fill:context-stroke;fill-rule:evenodd;stroke:none"/></marker><marker id="aw" markerHeight="1" markerWidth="1" orient="auto-start-reverse" preserveAspectRatio="xMidYMid" refX="0" refY="0" style="overflow:visible" viewBox="0 0 1 1"><path d="m1 0-3 3h-2l3-3-3-3h2z" style="fill:context-stroke;fill-rule:evenodd;stroke:none"/></marker></defs><path d="M1.669 182.121h141.358v92.252H1.669z" style="fill:#fff;stroke:#fff;stroke-width:.264583;stroke-linejoin:round"/><path d="M106.606 248.611h23.767v12.642h-23.767z" style="fill:#e5d5ff;stroke:#5500d4;stroke-width:.264583;stroke-linejoin:round"/><path d="M105.032 244.097h23.767v11.799h-23.767z" style="fill:#e5d5ff;stroke:#5500d4;stroke-width:.264583;stroke-linejoin:round"/><path d="M103.523 239.69h23.767v10.619h-23.767z" style="fill:#e5d5ff;stroke:#5500d4;stroke-width:.264583;stroke-linejoin:round"/><path d="M112.498 199.118h29.282v31.689h-29.282zM2.448 199.118h104.759v31.689H2.448zM33.021 184.119h74.186v13.263H33.021z" style="fill:#d7eef4;stroke:#164450;stroke-width:.264583;stroke-linejoin:round"/><path d="M4.72 206.072h23.261v22.755H4.72z" style="fill:#fff6d5;stroke:#d45500;stroke-width:.264583;stroke-linejoin:round"/><path d="M1.011 20.564h157.096v95.741H1.011z" style="fill:#fff;stroke:#fff;stroke-width:.264583;stroke-linejoin:round"/><path d="M132.15 74.121h24.947v6.911H132.15zM127.093 83.942h30.003v6.911h-30.003z" style="fill:#ffe6d5;stroke:#d45500;stroke-width:.264583;stroke-linejoin:round"/><path d="M95.302 22.79h36.24v19.216h-36.24z" style="fill:#d7eef4;stroke:#164450;stroke-width:.264583;stroke-linejoin:round"/><path d="M94.464 27.358h36.24v19.216h-36.24z" style="fill:#d7eef4;stroke:#164450;stroke-width:.264583;stroke-linejoin:round"/><path d="M92.973 32.04h36.24v19.216h-36.24z" style="fill:#d7eef4;stroke:#164450;stroke-width:.264583;stroke-linejoin:round"/><path d="M91.591 37.233h36.24v19.216h-36.24z" style="fill:#d7eef4;stroke:#164450;stroke-width:.264583;stroke-linejoin:round"/><path d="M89.846 43.563h36.24v19.216h-36.24z" style="fill:#d7eef4;stroke:#164450;stroke-width:.264583;stroke-linejoin:round"/><path d="M88.065 49.152h36.24v19.216h-36.24z" style="fill:#d7eef4;stroke:#164450;stroke-width:.264583;stroke-linejoin:round"/><path d="M86.617 54.248h36.24v19.216h-36.24zM40.397 22.696h32.869v32.195H40.397z" style="fill:#d7eef4;stroke:#164450;stroke-width:.264583;stroke-linejoin:round"/><path d="M38.901 27.794H71.77v32.195H38.901z" style="fill:#d7eef4;stroke:#164450;stroke-width:.264583;stroke-linejoin:round"/><path d="M37.668 32.889h32.869v31.015H37.668zM2.392 50.669h25.705v26.127H2.392z" style="fill:#d7eef4;stroke:#164450;stroke-width:.264583;stroke-linejoin:round"/><path d="M4.606 68.967h22.25v5.057H4.606zM4.606 62.852h22.25v5.057H4.606zM4.606 56.737h22.25v5.057H4.606z" style="fill:#eef4d7;stroke:#677821;stroke-width:.264583;stroke-linejoin:round"/><text xml:space="preserve" style="font-size:14.6667px;line-height:normal;font-family:&quot;Liberation Mono&quot;;-inkscape-font-specification:&quot;Liberation Mono&quot;;text-decoration-color:#000;white-space:pre;shape-inside:url(#a);display:inline;fill:#000;stroke-width:1;-inkscape-stroke:none;stop-color:#000" transform="scale(0.26458333)"><tspan x="10.83" y="26.429">src_intro.svg</tspan></text><text xml:space="preserve" style="font-size:14.6667px;line-height:normal;font-family:&quot;Liberation Mono&quot;;-inkscape-font-specification:&quot;Liberation Mono&quot;;text-decoration-color:#000;white-space:pre;shape-inside:url(#b);display:inline;fill:purple;stroke-width:1;-inkscape-stroke:none;stop-color:#000" transform="matrix(0.26458333,0,0,0.26458333,-7.7219594,12.068631)"><tspan x="48.418" y="182.511">geometrix</tspan></text><text xml:space="preserve" style="font-size:14.6667px;line-height:normal;font-family:&quot;Liberation Mono&quot;;-inkscape-font-specification:&quot;Liberation Mono&quot;;text-decoration-color:#000;white-space:pre;shape-inside:url(#c);display:inline;fill:purple;stroke-width:1;-inkscape-stroke:none;stop-color:#000" transform="matrix(0.26458333,0,0,0.26458333,-3.5314895,6.6747636)"><tspan x="56.063" y="249.404">geomui</tspan></text><text xml:space="preserve" style="font-size:14.6667px;line-height:normal;font-family:&quot;Liberation Mono&quot;;-inkscape-font-specification:&quot;Liberation Mono&quot;;text-decoration-color:#000;white-space:pre;shape-inside:url(#d);display:inline;fill:purple;stroke-width:1;-inkscape-stroke:none;stop-color:#000" transform="matrix(0.26458333,0,0,0.26458333,-3.3864222,-26.554738)"><tspan x="47.143" y="351.335">geomcli</tspan></text><text xml:space="preserve" style="font-size:14.6667px;line-height:normal;font-family:&quot;Liberation Mono&quot;;-inkscape-font-specification:&quot;Liberation Mono&quot;;text-decoration-color:#000;white-space:pre;shape-inside:url(#e);display:inline;fill:navy;stroke-width:1;-inkscape-stroke:none;stop-color:#000" transform="matrix(0.26458333,0,0,0.26458333,-52.417563,-23.328635)"><tspan x="212.781" y="295.273">parametrix</tspan></text><text xml:space="preserve" style="font-size:14.6667px;line-height:normal;font-family:&quot;Liberation Mono&quot;;-inkscape-font-specification:&quot;Liberation Mono&quot;;text-decoration-color:#000;white-space:pre;shape-inside:url(#f);display:inline;fill:navy;stroke-width:1;-inkscape-stroke:none;stop-color:#000" transform="matrix(0.26458333,0,0,0.26458333,-39.90016,-79.458601)"><tspan x="302.609" y="419.501">parame52</tspan></text><text xml:space="preserve" style="font-size:14.6667px;line-height:normal;font-family:&quot;Liberation Mono&quot;;-inkscape-font-specification:&quot;Liberation Mono&quot;;text-decoration-color:#000;white-space:pre;shape-inside:url(#g);display:inline;fill:navy;stroke-width:1;-inkscape-stroke:none;stop-color:#000" transform="matrix(0.26458333,0,0,0.26458333,-58.947266,-68.839419)"><tspan x="380.969" y="358.98">parame53</tspan></text><path d="M35.938 38.93h32.869v30.678H35.938z" style="fill:#d7eef4;stroke:#164450;stroke-width:.264583;stroke-linejoin:round"/><path d="M34.201 44.955H67.07V77.15H34.201z" style="fill:#d7eef4;stroke:#164450;stroke-width:.264583;stroke-linejoin:round"/><path d="M40.905 69.871h25.452v5.057H40.905z" style="fill:#eef4d7;stroke:red;stroke-width:.529167;stroke-linejoin:round"/><path d="M32.103 50.669h31.352v32.195H32.103z" style="fill:#d7eef4;stroke:#164450;stroke-width:.264583;stroke-linejoin:round"/><path d="M36.475 68.967h25.452v5.057H36.475zM36.475 62.852h25.452v5.057H36.475zM36.475 56.737h25.452v5.057H36.475z" style="fill:#eef4d7;stroke:#677821;stroke-width:.264583;stroke-linejoin:round"/><text xml:space="preserve" style="font-size:14.6667px;line-height:normal;font-family:&quot;Liberation Mono&quot;;-inkscape-font-specification:&quot;Liberation Mono&quot;;text-decoration-color:#000;white-space:pre;shape-inside:url(#h);display:inline;fill:purple;stroke-width:1;-inkscape-stroke:none;stop-color:#000" transform="matrix(0.26458333,0,0,0.26458333,-17.611692,-16.24918)"><tspan x="243.998" y="289.538">desi78</tspan></text><text xml:space="preserve" style="font-size:14.6667px;line-height:normal;font-family:&quot;Liberation Mono&quot;;-inkscape-font-specification:&quot;Liberation Mono&quot;;text-decoration-color:#000;white-space:pre;shape-inside:url(#i);display:inline;fill:purple;stroke-width:1;-inkscape-stroke:none;stop-color:#000" transform="matrix(0.26458333,0,0,0.26458333,-26.208176,-19.788908)"><tspan x="242.725" y="326.49">desi78-cli</tspan></text><text xml:space="preserve" style="font-size:14.6667px;line-height:normal;font-family:&quot;Liberation Mono&quot;;-inkscape-font-specification:&quot;Liberation Mono&quot;;text-decoration-color:#000;white-space:pre;shape-inside:url(#j);display:inline;fill:navy;stroke-width:1;-inkscape-stroke:none;stop-color:#000" transform="matrix(0.26458333,0,0,0.26458333,23.853685,-40.858714)"><tspan x="37.588" y="361.529">parame78</tspan></text><path d="M36.475 75.082h25.452v5.057H36.475z" style="fill:#eef4d7;stroke:red;stroke-width:.529167;stroke-linejoin:round"/><text xml:space="preserve" style="font-size:14.6667px;line-height:normal;font-family:&quot;Liberation Mono&quot;;-inkscape-font-specification:&quot;Liberation Mono&quot;;text-decoration-color:#000;white-space:pre;shape-inside:url(#k);display:inline;fill:purple;stroke-width:1;-inkscape-stroke:none;stop-color:#000" transform="matrix(0.26458333,0,0,0.26458333,-16.073057,-44.815161)"><tspan x="203.863" y="443.71">desi78-uis</tspan></text><text xml:space="preserve" style="font-size:14.6667px;line-height:normal;font-family:&quot;Liberation Mono&quot;;-inkscape-font-specification:&quot;Liberation Mono&quot;;text-decoration-color:#000;white-space:pre;shape-inside:url(#l);display:inline;fill:navy;stroke-width:1;-inkscape-stroke:none;stop-color:#000" transform="matrix(0.26458333,0,0,0.26458333,-9.2225097,-49.118079)"><tspan x="167.549" y="369.81">parame82</tspan></text><text xml:space="preserve" style="font-size:14.6667px;line-height:normal;font-family:&quot;Liberation Mono&quot;;-inkscape-font-specification:&quot;Liberation Mono&quot;;text-decoration-color:#000;white-space:pre;shape-inside:url(#m);display:inline;fill:navy;stroke-width:1;-inkscape-stroke:none;stop-color:#000" transform="matrix(0.26458333,0,0,0.26458333,-13.773589,-77.4359)"><tspan x="192.396" y="453.904">parame15L</tspan></text><text xml:space="preserve" style="font-size:14.6667px;line-height:normal;font-family:&quot;Liberation Mono&quot;;-inkscape-font-specification:&quot;Liberation Mono&quot;;text-decoration-color:#000;white-space:pre;shape-inside:url(#n);display:inline;fill:navy;stroke-width:1;-inkscape-stroke:none;stop-color:#000" transform="matrix(0.26458333,0,0,0.26458333,-31.13512,-59.063028)"><tspan x="267.57" y="362.802">parame51</tspan></text><text xml:space="preserve" style="font-size:14.6667px;line-height:normal;font-family:&quot;Liberation Mono&quot;;-inkscape-font-specification:&quot;Liberation Mono&quot;;text-decoration-color:#000;white-space:pre;shape-inside:url(#o);display:inline;fill:purple;stroke-width:1;-inkscape-stroke:none;stop-color:#000" transform="matrix(0.26458333,0,0,0.26458333,-24.040408,-17.934765)"><tspan x="241.449" y="366.624">desi78-ui</tspan></text><path d="M84.15 98.803h26.79v12.979H84.15z" style="fill:#d7eef4;stroke:red;stroke-width:.529167;stroke-linejoin:round"/><text xml:space="preserve" style="font-size:14.6667px;line-height:normal;font-family:&quot;Liberation Mono&quot;;-inkscape-font-specification:&quot;Liberation Mono&quot;;text-decoration-color:#000;white-space:pre;shape-inside:url(#p);display:inline;fill:navy;stroke-width:1;-inkscape-stroke:none;stop-color:#000" transform="matrix(0.26458333,0,0,0.26458333,36.322888,1.6151113)"><tspan x="198.766" y="386.374">catalos</tspan></text><text xml:space="preserve" style="font-size:14.6667px;line-height:normal;font-family:&quot;Liberation Mono&quot;;-inkscape-font-specification:&quot;Liberation Mono&quot;;text-decoration-color:#000;white-space:pre;shape-inside:url(#q);display:inline;fill:navy;stroke-width:1;-inkscape-stroke:none;stop-color:#000" transform="matrix(0.26458333,0,0,0.26458333,33.065067,-66.52949)"><tspan x="209.596" y="450.718">maker_ustensile</tspan></text><text xml:space="preserve" style="font-size:14.6667px;line-height:normal;font-family:&quot;Liberation Mono&quot;;-inkscape-font-specification:&quot;Liberation Mono&quot;;text-decoration-color:#000;white-space:pre;shape-inside:url(#r);display:inline;fill:navy;stroke-width:1;-inkscape-stroke:none;stop-color:#000" transform="matrix(0.26458333,0,0,0.26458333,35.593443,-84.733803)"><tspan x="214.057" y="477.476">maker_parame51</tspan></text><text xml:space="preserve" style="font-size:14.6667px;line-height:normal;font-family:&quot;Liberation Mono&quot;;-inkscape-font-specification:&quot;Liberation Mono&quot;;text-decoration-color:#000;white-space:pre;shape-inside:url(#s);display:inline;fill:navy;stroke-width:1;-inkscape-stroke:none;stop-color:#000" transform="matrix(0.26458333,0,0,0.26458333,-11.940041,-67.709399)"><tspan x="388.613" y="434.792">ustensile</tspan></text><text xml:space="preserve" style="font-size:14.6667px;line-height:normal;font-family:&quot;Liberation Mono&quot;;-inkscape-font-specification:&quot;Liberation Mono&quot;;text-decoration-color:#000;white-space:pre;shape-inside:url(#t);display:inline;fill:navy;stroke-width:1;-inkscape-stroke:none;stop-color:#000" transform="matrix(0.26458333,0,0,0.26458333,-7.7260785,-87.093622)"><tspan x="384.154" y="465.37">cabane</tspan></text><text xml:space="preserve" style="font-size:14.6667px;line-height:normal;font-family:&quot;Liberation Mono&quot;;-inkscape-font-specification:&quot;Liberation Mono&quot;;text-decoration-color:#000;white-space:pre;shape-inside:url(#u);display:inline;fill:navy;stroke-width:1;-inkscape-stroke:none;stop-color:#000" transform="matrix(0.26458333,0,0,0.26458333,-5.029143,-99.159356)"><tspan x="380.332" y="490.853">gears_springs</tspan></text><text xml:space="preserve" style="font-size:14.6667px;line-height:normal;font-family:&quot;Liberation Mono&quot;;-inkscape-font-specification:&quot;Liberation Mono&quot;;text-decoration-color:#000;white-space:pre;shape-inside:url(#v);display:inline;fill:navy;stroke-width:1;-inkscape-stroke:none;stop-color:#000" transform="matrix(0.26458333,0,0,0.26458333,-2.1636494,-113.48683)"><tspan x="373.324" y="528.441">heliostat_50cm</tspan></text><text xml:space="preserve" style="font-size:14.6667px;line-height:normal;font-family:&quot;Liberation Mono&quot;;-inkscape-font-specification:&quot;Liberation Mono&quot;;text-decoration-color:#000;white-space:pre;shape-inside:url(#w);display:inline;fill:navy;stroke-width:1;-inkscape-stroke:none;stop-color:#000" transform="matrix(0.26458333,0,0,0.26458333,25.311377,-51.022112)"><tspan x="235.717" y="413.769">maker_parame78</tspan></text><path d="M27.02 59.265h9.43" style="fill:navy;stroke:#666;stroke-width:.264583;stroke-linejoin:round;marker-end:url(#x)"/><path d="M27.02 65.38h9.43" style="fill:navy;stroke:#666;stroke-width:.264583;stroke-linejoin:round;marker-end:url(#x)"/><path d="m26.9 71.495 8.925 5.057" style="fill:navy;stroke:#666;stroke-width:.264583;stroke-linejoin:round;marker-end:url(#x)"/><path d="M61.927 65.38h26.72" style="fill:navy;stroke:#666;stroke-width:.264583;stroke-linejoin:round;marker-end:url(#x)"/><path d="M61.927 71.495h26.72" style="fill:navy;stroke:#666;stroke-width:.264583;stroke-linejoin:round;marker-end:url(#x)"/><path d="M111.322 68.02h35.255" style="fill:none;stroke:#666;stroke-width:.264584;stroke-linejoin:round;marker-end:url(#x);marker-start:url(#y)"/><path d="M84.15 105.29H49.64V80.931" style="fill:none;stroke:#666;stroke-width:.264584;stroke-linejoin:round;marker-end:url(#x)"/><path d="M84.144 103.546H65.005V75.624" style="fill:none;stroke:#666;stroke-width:.264584;stroke-linejoin:round;marker-end:url(#x)"/><text xml:space="preserve" style="font-size:14.6667px;line-height:normal;font-family:&quot;Liberation Mono&quot;;-inkscape-font-specification:&quot;Liberation Mono&quot;;text-decoration-color:#000;white-space:pre;shape-inside:url(#z);display:inline;fill:#000;stroke-width:1;-inkscape-stroke:none;stop-color:#000" transform="matrix(0.26458333,0,0,0.26458333,-7.2480137,11.630534)"><tspan x="529.406" y="253.226">3D-printer</tspan></text><text xml:space="preserve" style="font-size:14.6667px;line-height:normal;font-family:&quot;Liberation Mono&quot;;-inkscape-font-specification:&quot;Liberation Mono&quot;;text-decoration-color:#000;white-space:pre;shape-inside:url(#A);display:inline;fill:#000;stroke-width:1;-inkscape-stroke:none;stop-color:#000" transform="matrix(0.26458333,0,0,0.26458333,-11.124858,4.7196368)"><tspan x="528.133" y="318.206">laser cutter</tspan></text><path d="M146.646 64.564h10.451v6.911h-10.451z" style="fill:#ffe6d5;stroke:#d45500;stroke-width:.264583;stroke-linejoin:round"/><text xml:space="preserve" style="font-size:14.6667px;line-height:normal;font-family:&quot;Liberation Mono&quot;;-inkscape-font-specification:&quot;Liberation Mono&quot;;text-decoration-color:#000;white-space:pre;shape-inside:url(#B);display:inline;fill:#000;stroke-width:1;-inkscape-stroke:none;stop-color:#000" transform="matrix(0.26458333,0,0,0.26458333,7.2480136,-27.672686)"><tspan x="533.229" y="365.988">CNC</tspan></text><path d="m111.322 68.02 20.828 9.556" style="fill:none;stroke:#666;stroke-width:.264583;stroke-linejoin:round;marker-end:url(#x)"/><path d="m111.322 68.02 15.771 15.922" style="fill:none;stroke:#666;stroke-width:.264583;stroke-linejoin:round;marker-end:url(#C)"/><path d="m111.322 68.02 15.639 29.407v8.57h-15.336" style="fill:none;stroke:#666;stroke-width:.264583;stroke-linejoin:round;marker-end:url(#C)"/><text xml:space="preserve" style="font-style:italic;font-variant:normal;font-weight:400;font-stretch:normal;font-size:14.6667px;line-height:normal;font-family:&quot;Liberation Mono&quot;;-inkscape-font-specification:&quot;Liberation Mono Italic&quot;;text-decoration-color:#000;white-space:pre;shape-inside:url(#D);display:inline;fill:#666;stroke-width:1;-inkscape-stroke:none;stop-color:#000" transform="matrix(0.26458333,0,0,0.26458333,22.33847,-16.181612)"><tspan x="251.33" y="473.015">catalog</tspan></text><text xml:space="preserve" x="94.539" style="font-style:italic;font-variant:normal;font-weight:400;font-stretch:normal;font-size:14.6667px;line-height:normal;font-family:&quot;Liberation Mono&quot;;-inkscape-font-specification:&quot;Liberation Mono Italic&quot;;text-align:end;text-decoration-color:#000;white-space:pre;shape-inside:url(#E);display:inline;fill:#666;stroke-width:1;-inkscape-stroke:none;stop-color:#000" transform="matrix(0.26458333,0,0,0.26458333,24.761582,-32.794307)"><tspan x="437.991" y="485.12">digital
</tspan><tspan x="402.786" y="503.454">fabrication</tspan></text><text xml:space="preserve" style="font-style:italic;font-variant:normal;font-weight:400;font-stretch:normal;font-size:14.6667px;line-height:normal;font-family:&quot;Liberation Mono&quot;;-inkscape-font-specification:&quot;Liberation Mono Italic&quot;;text-decoration-color:#000;white-space:pre;shape-inside:url(#F);display:inline;fill:#666;stroke-width:1;-inkscape-stroke:none;stop-color:#000" transform="matrix(0.26458333,0,0,0.26458333,31.833694,-54.412931)"><tspan x="144.104" y="470.468">designs</tspan></text><text xml:space="preserve" style="font-style:italic;font-variant:normal;font-weight:400;font-stretch:normal;font-size:14.6667px;line-height:normal;font-family:&quot;Liberation Mono&quot;;-inkscape-font-specification:&quot;Liberation Mono Italic&quot;;text-decoration-color:#000;white-space:pre;shape-inside:url(#G);display:inline;fill:#666;stroke-width:1;-inkscape-stroke:none;stop-color:#000" transform="matrix(0.26458333,0,0,0.26458333,91.588538,-57.388098)"><tspan x="144.104" y="470.468">parts</tspan></text><text xml:space="preserve" style="font-style:italic;font-variant:normal;font-weight:400;font-stretch:normal;font-size:14.6667px;line-height:normal;font-family:&quot;Liberation Mono&quot;;-inkscape-font-specification:&quot;Liberation Mono Italic&quot;;text-decoration-color:#000;white-space:pre;shape-inside:url(#H);display:inline;fill:#666;stroke-width:1;-inkscape-stroke:none;stop-color:#000" transform="matrix(0.26458333,0,0,0.26458333,49.214827,-61.34826)"><tspan x="144.104" y="470.468">parametrization</tspan></text><text xml:space="preserve" style="font-style:italic;font-variant:normal;font-weight:400;font-stretch:normal;font-size:14.6667px;line-height:normal;font-family:&quot;Liberation Mono&quot;;-inkscape-font-specification:&quot;Liberation Mono Italic&quot;;text-decoration-color:#000;white-space:pre;shape-inside:url(#I);display:inline;fill:#666;stroke-width:1;-inkscape-stroke:none;stop-color:#000" transform="matrix(0.26458333,0,0,0.26458333,74.068398,-20.02639)"><tspan x="144.104" y="470.468">upload</tspan></text><text xml:space="preserve" style="font-style:italic;font-variant:normal;font-weight:400;font-stretch:normal;font-size:14.6667px;line-height:normal;font-family:&quot;Liberation Mono&quot;;-inkscape-font-specification:&quot;Liberation Mono Italic&quot;;text-decoration-color:#000;white-space:pre;shape-inside:url(#J);display:inline;fill:#666;stroke-width:1;-inkscape-stroke:none;stop-color:#000" transform="matrix(0.26458333,0,0,0.26458333,73.550818,-11.067389)"><tspan x="144.104" y="470.468">download</tspan></text><path d="M111.08 109.732h18.541V91.359" style="fill:none;stroke:#666;stroke-width:.264583;stroke-linejoin:round;marker-end:url(#C)"/><text xml:space="preserve" style="font-style:italic;font-variant:normal;font-weight:400;font-stretch:normal;font-size:14.6667px;line-height:normal;font-family:&quot;Liberation Mono&quot;;-inkscape-font-specification:&quot;Liberation Mono Italic&quot;;text-decoration-color:#000;white-space:pre;shape-inside:url(#K);display:inline;fill:#666;stroke-width:1;-inkscape-stroke:none;stop-color:#000" transform="matrix(0.26458333,0,0,0.26458333,10.994771,-15.128044)"><tspan x="144.104" y="470.468">re-parametrize</tspan></text><text xml:space="preserve" style="font-style:italic;font-variant:normal;font-weight:400;font-stretch:normal;font-size:14.6667px;line-height:normal;font-family:&quot;Liberation Mono&quot;;-inkscape-font-specification:&quot;Liberation Mono Italic&quot;;text-decoration-color:#000;white-space:pre;shape-inside:url(#L);display:inline;fill:#666;stroke-width:1;-inkscape-stroke:none;stop-color:#000" transform="matrix(0.26458333,0,0,0.26458333,32.484974,-22.105997)"><tspan x="144.104" y="470.468">links</tspan></text><path d="M82.203 189.838h22.25v5.057h-22.25zM58.365 189.838h22.25v5.057h-22.25zM34.528 189.838h22.25v5.057h-22.25z" style="fill:#eef4d7;stroke:#677821;stroke-width:.264583;stroke-linejoin:round"/><text xml:space="preserve" style="font-size:14.6667px;line-height:normal;font-family:&quot;Liberation Mono&quot;;-inkscape-font-specification:&quot;Liberation Mono&quot;;text-decoration-color:#000;white-space:pre;shape-inside:url(#M);display:inline;fill:purple;stroke-width:1;-inkscape-stroke:none;stop-color:#000" transform="matrix(0.26458333,0,0,0.26458333,22.199864,145.17063)"><tspan x="48.418" y="182.511">geometrix</tspan></text><text xml:space="preserve" style="font-size:14.6667px;line-height:normal;font-family:&quot;Liberation Mono&quot;;-inkscape-font-specification:&quot;Liberation Mono&quot;;text-decoration-color:#000;white-space:pre;shape-inside:url(#N);display:inline;fill:purple;stroke-width:1;-inkscape-stroke:none;stop-color:#000" transform="matrix(0.26458333,0,0,0.26458333,71.948109,127.5466)"><tspan x="56.063" y="249.404">geomui</tspan></text><text xml:space="preserve" style="font-size:14.6667px;line-height:normal;font-family:&quot;Liberation Mono&quot;;-inkscape-font-specification:&quot;Liberation Mono&quot;;text-decoration-color:#000;white-space:pre;shape-inside:url(#O);display:inline;fill:purple;stroke-width:1;-inkscape-stroke:none;stop-color:#000" transform="matrix(0.26458333,0,0,0.26458333,48.785119,100.4321)"><tspan x="47.143" y="351.335">geomcli</tspan></text><path d="M9.102 208.432h8.934v6.742H9.102z" style="fill:#ffe6d5;stroke:#d45500;stroke-width:.264583;stroke-linejoin:round"/><circle cx="17.53" cy="215.006" r="4.214" style="fill:none;stroke:#d45500;stroke-width:.264583;stroke-linejoin:round"/><text xml:space="preserve" style="font-size:14.6667px;line-height:normal;font-family:&quot;Liberation Mono&quot;;-inkscape-font-specification:&quot;Liberation Mono&quot;;text-align:end;text-decoration-color:#000;white-space:pre;shape-inside:url(#P);fill:#000;stroke-width:1;-inkscape-stroke:none;stop-color:#000" transform="matrix(0.26458333,0,0,0.26458333,-32.531783,-7.6597239)"><tspan x="199.119" y="824.042">SVG</tspan></text><text xml:space="preserve" x="-163.812" style="font-size:12px;line-height:normal;font-family:&quot;Liberation Mono&quot;;-inkscape-font-specification:&quot;Liberation Mono&quot;;text-align:start;text-decoration-color:#000;white-space:pre;shape-inside:url(#Q);fill:#000;stroke-width:1;-inkscape-stroke:none;stop-color:#000" transform="matrix(0.26458333,0,0,0.26458333,-19.384223,-17.098996)"><tspan x="92.375" y="906.4">inkscape
</tspan><tspan x="92.375" y="921.4">(svg-editor)</tspan></text><path d="M33.968 206.072h22.81v22.755h-22.81z" style="fill:#eef4d7;stroke:#677821;stroke-width:.264582;stroke-linejoin:round"/><text xml:space="preserve" style="font-size:14.6667px;line-height:normal;font-family:&quot;Liberation Mono&quot;;-inkscape-font-specification:&quot;Liberation Mono&quot;;text-decoration-color:#000;white-space:pre;shape-inside:url(#R);display:inline;fill:purple;stroke-width:1;-inkscape-stroke:none;stop-color:#000" transform="matrix(0.26458333,0,0,0.26458333,22.149574,178.09168)"><tspan x="48.418" y="182.511">myDesigns</tspan></text><path d="M61.558 206.072h31.183v4.975H61.558z" style="fill:#eef4d7;stroke:#677821;stroke-width:.264583;stroke-linejoin:round"/><text xml:space="preserve" style="font-size:14.6667px;line-height:normal;font-family:&quot;Liberation Mono&quot;;-inkscape-font-specification:&quot;Liberation Mono&quot;;text-decoration-color:#000;white-space:pre;shape-inside:url(#S);display:inline;fill:purple;stroke-width:1;-inkscape-stroke:none;stop-color:#000" transform="matrix(0.26458333,0,0,0.26458333,49.421302,161.57808)"><tspan x="48.418" y="182.511">myDesigns-cli</tspan></text><path d="M68.155 215.386h31.183v4.975H68.155z" style="fill:#eef4d7;stroke:red;stroke-width:.52916667;stroke-linejoin:round"/><text xml:space="preserve" style="font-size:14.6667px;line-height:normal;font-family:&quot;Liberation Mono&quot;;-inkscape-font-specification:&quot;Liberation Mono&quot;;text-decoration-color:#000;white-space:pre;shape-inside:url(#T);display:inline;fill:purple;stroke-width:1;-inkscape-stroke:none;stop-color:#000" transform="matrix(0.26458333,0,0,0.26458333,57.076908,170.89178)"><tspan x="48.418" y="182.511">myDesigns-ui</tspan></text><path d="M74.505 223.853h31.183v4.975H74.505z" style="fill:#eef4d7;stroke:#677821;stroke-width:.264583;stroke-linejoin:round"/><text xml:space="preserve" style="font-size:14.6667px;line-height:normal;font-family:&quot;Liberation Mono&quot;;-inkscape-font-specification:&quot;Liberation Mono&quot;;text-decoration-color:#000;white-space:pre;shape-inside:url(#U);display:inline;fill:purple;stroke-width:1;-inkscape-stroke:none;stop-color:#000" transform="matrix(0.26458333,0,0,0.26458333,62.368578,179.3585)"><tspan x="48.418" y="182.511">myDesigns-uis</tspan></text><path d="M27.98 217.45h5.988" style="fill:none;stroke:red;stroke-width:.264582;stroke-linejoin:round;marker-end:url(#C)"/><path d="M56.778 208.56h4.78" style="fill:none;stroke:red;stroke-width:.264582;stroke-linejoin:round;marker-end:url(#V)"/><path d="M45.534 195.027v10.515" style="fill:none;stroke:#00f;stroke-width:.264582;stroke-linejoin:round;marker-end:url(#W)"/><path d="M71.607 194.895v10.677" style="fill:none;stroke:#00f;stroke-width:.264582;stroke-linejoin:round;marker-end:url(#X)"/><text xml:space="preserve" style="font-size:14.6667px;line-height:normal;font-family:&quot;Liberation Mono&quot;;-inkscape-font-specification:&quot;Liberation Mono&quot;;text-decoration-color:#000;white-space:pre;shape-inside:url(#Y);display:inline;fill:navy;stroke-width:1;-inkscape-stroke:none;stop-color:#000" transform="matrix(0.26458333,0,0,0.26458333,-21.113871,109.63355)"><tspan x="212.781" y="295.273">parametrix</tspan></text><text xml:space="preserve" style="font-size:14.6667px;line-height:normal;font-family:&quot;Liberation Mono&quot;;-inkscape-font-specification:&quot;Liberation Mono&quot;;text-decoration-color:#000;white-space:pre;shape-inside:url(#aa);display:inline;fill:navy;stroke-width:1;-inkscape-stroke:none;stop-color:#000" transform="matrix(0.26458333,0,0,0.26458333,-50.896649,125.47428)"><tspan x="212.781" y="295.273">myDesignerRepo</tspan></text><path d="M92.741 208.56h22.205" style="fill:none;stroke:green;stroke-width:.264582;stroke-linejoin:round;marker-end:url(#ab)"/><text xml:space="preserve" style="font-size:14.6667px;line-height:normal;font-family:&quot;Liberation Mono&quot;;-inkscape-font-specification:&quot;Liberation Mono&quot;;text-decoration-color:#000;white-space:pre;shape-inside:url(#ac);display:inline;fill:navy;stroke-width:1;-inkscape-stroke:none;stop-color:#000" transform="matrix(0.26458333,0,0,0.26458333,58.232783,125.13716)"><tspan x="212.781" y="295.273">myMakerRepo</tspan></text><path d="M105.688 226.34h9.41" style="fill:none;stroke:green;stroke-width:.264582;stroke-linejoin:round;marker-end:url(#ad)"/><text xml:space="preserve" style="font-size:14.6667px;line-height:normal;font-family:&quot;Liberation Mono&quot;;-inkscape-font-specification:&quot;Liberation Mono&quot;;text-align:end;text-decoration-color:#000;white-space:pre;shape-inside:url(#ae);fill:#000;stroke-width:1;-inkscape-stroke:none;stop-color:#000" transform="matrix(0.26458333,0,0,0.26458333,14.886585,-46.298748)"><tspan x="408.548" y="966.109">px.json</tspan></text><text xml:space="preserve" style="font-size:14.6667px;line-height:normal;font-family:&quot;Liberation Mono&quot;;-inkscape-font-specification:&quot;Liberation Mono&quot;;text-align:end;text-decoration-color:#000;white-space:pre;shape-inside:url(#af);fill:#000;stroke-width:1;-inkscape-stroke:none;stop-color:#000" transform="matrix(0.26458333,0,0,0.26458333,8.4813631,-47.910563)"><tspan x="463.62" y="994.777">.dxf</tspan></text><text xml:space="preserve" style="font-size:14.6667px;line-height:normal;font-family:&quot;Liberation Mono&quot;;-inkscape-font-specification:&quot;Liberation Mono&quot;;text-align:end;text-decoration-color:#000;white-space:pre;shape-inside:url(#ag);fill:#000;stroke-width:1;-inkscape-stroke:none;stop-color:#000" transform="matrix(0.26458333,0,0,0.26458333,-18.744473,-30.144721)"><tspan x="502.6" y="962.286">.scad</tspan></text><text xml:space="preserve" style="font-size:14.6667px;line-height:normal;font-family:&quot;Liberation Mono&quot;;-inkscape-font-specification:&quot;Liberation Mono Bold&quot;;text-align:end;text-decoration-color:#000;white-space:pre;shape-inside:url(#ah);fill:#000;stroke-width:1;-inkscape-stroke:none;stop-color:#000;font-weight:700;font-style:normal;font-stretch:normal;font-variant:normal" transform="matrix(0.26458333,0,0,0.26458333,58.72882,-19.91339)"><tspan x="269.314" y="933.429">.stl</tspan></text><text xml:space="preserve" x="-68.936" style="font-size:14.6667px;line-height:normal;font-family:&quot;Liberation Mono&quot;;-inkscape-font-specification:&quot;Liberation Mono&quot;;text-align:start;text-decoration-color:#000;white-space:pre;shape-inside:url(#ai);fill:#000;stroke-width:1;-inkscape-stroke:none;stop-color:#000" transform="matrix(0.26458333,0,0,0.26458333,4.578689,-2.8654938)"><tspan x="384.791" y="949.544">OpenSCAD</tspan></text><text xml:space="preserve" style="font-size:14.6667px;line-height:normal;font-family:&quot;Liberation Mono&quot;;-inkscape-font-specification:&quot;Liberation Mono&quot;;text-align:end;text-decoration-color:#000;white-space:pre;shape-inside:url(#aj);fill:#000;stroke-width:1;-inkscape-stroke:none;stop-color:#000" transform="matrix(0.26458333,0,0,0.26458333,-12.951392,-10.113508)"><tspan x="460.788" y="998.599">FreeCAD</tspan></text><text xml:space="preserve" style="font-size:14.6667px;line-height:normal;font-family:&quot;Liberation Mono&quot;;-inkscape-font-specification:&quot;Liberation Mono&quot;;text-align:end;text-decoration-color:#000;white-space:pre;shape-inside:url(#ak);fill:#000;stroke-width:1;-inkscape-stroke:none;stop-color:#000" transform="matrix(0.26458333,0,0,0.26458333,-23.0649,-16.518729)"><tspan x="508.335" y="1042.558">jsCAD</tspan></text><path d="M121.968 225.38v16.615" style="fill:none;stroke:#5500d4;stroke-width:.264582;stroke-linejoin:round;marker-end:url(#al)"/><path d="m125.176 241.67 5.563-13.22" style="fill:none;stroke:#5500d4;stroke-width:.264582;stroke-linejoin:round;marker-end:url(#am)"/><text xml:space="preserve" style="font-size:14.6667px;line-height:normal;font-family:&quot;Liberation Mono&quot;;-inkscape-font-specification:&quot;Liberation Mono&quot;;text-align:end;text-decoration-color:#000;white-space:pre;shape-inside:url(#an);fill:#000;stroke-width:1;-inkscape-stroke:none;stop-color:#000" transform="matrix(0.26458333,0,0,0.26458333,67.92906,-36.071511)"><tspan x="189.044" y="948.908">.svg</tspan></text><path d="M56.586 217.874h11.213" style="fill:none;stroke:red;stroke-width:.264582;stroke-linejoin:round;marker-end:url(#ao)"/><path d="M96.502 194.895v20.054" style="fill:none;stroke:#00f;stroke-width:.264583;stroke-linejoin:round;marker-end:url(#ap)"/><path d="M96.692 220.361v3.136" style="fill:none;stroke:red;stroke-width:.264582;stroke-linejoin:round;marker-end:url(#aq)"/><path d="M57.958 257.094h26.79v12.979h-26.79z" style="fill:#d7eef4;stroke:red;stroke-width:.529167;stroke-linejoin:round"/><text xml:space="preserve" style="font-size:14.6667px;line-height:normal;font-family:&quot;Liberation Mono&quot;;-inkscape-font-specification:&quot;Liberation Mono&quot;;text-decoration-color:#000;white-space:pre;shape-inside:url(#ar);display:inline;fill:navy;stroke-width:1;-inkscape-stroke:none;stop-color:#000" transform="matrix(0.26458333,0,0,0.26458333,10.130404,159.90641)"><tspan x="198.766" y="386.374">catalos</tspan></text><text xml:space="preserve" style="font-style:italic;font-variant:normal;font-weight:400;font-stretch:normal;font-size:14.6667px;line-height:normal;font-family:&quot;Liberation Mono&quot;;-inkscape-font-specification:&quot;Liberation Mono Italic&quot;;text-decoration-color:#000;white-space:pre;shape-inside:url(#as);display:inline;fill:#666;stroke-width:1;-inkscape-stroke:none;stop-color:#000" transform="matrix(0.26458333,0,0,0.26458333,-3.8540068,142.10969)"><tspan x="251.33" y="473.015">catalog</tspan></text><path d="M135.359 228.726v35.423H85.188" style="fill:none;stroke:#d4aa00;stroke-width:.264584;stroke-linejoin:round;marker-start:url(#y);marker-end:url(#C)"/><text xml:space="preserve" style="font-style:italic;font-variant:normal;font-weight:400;font-stretch:normal;font-size:14.6667px;line-height:normal;font-family:&quot;Liberation Mono&quot;;-inkscape-font-specification:&quot;Liberation Mono Italic&quot;;text-decoration-color:#000;white-space:pre;shape-inside:url(#at);display:inline;fill:#666;stroke-width:1;-inkscape-stroke:none;stop-color:#000" transform="matrix(0.26458333,0,0,0.26458333,49.365335,138.04421)"><tspan x="144.104" y="470.468">upload</tspan></text><path d="M71.047 256.83v-35.97" style="fill:#f6d5ff;stroke:#d4aa00;stroke-width:.264583;stroke-linejoin:round;marker-end:url(#C)"/><text xml:space="preserve" style="font-style:italic;font-variant:normal;font-weight:400;font-stretch:normal;font-size:14.6667px;line-height:normal;font-family:&quot;Liberation Mono&quot;;-inkscape-font-specification:&quot;Liberation Mono Italic&quot;;text-decoration-color:#000;white-space:pre;shape-inside:url(#au);display:inline;fill:#666;stroke-width:1;-inkscape-stroke:none;stop-color:#000" transform="matrix(0.26458333,0,0,0.26458333,32.989059,129.50036)"><tspan x="144.104" y="470.468">link</tspan></text><path d="M116.603 266.979h24.947v6.911h-24.947z" style="fill:#ffe6d5;stroke:#d45500;stroke-width:.264583;stroke-linejoin:round"/><text xml:space="preserve" style="font-size:14.6667px;line-height:normal;font-family:&quot;Liberation Mono&quot;;-inkscape-font-specification:&quot;Liberation Mono&quot;;text-decoration-color:#000;white-space:pre;shape-inside:url(#av);display:inline;fill:#000;stroke-width:1;-inkscape-stroke:none;stop-color:#000" transform="matrix(0.26458333,0,0,0.26458333,-22.794473,204.48905)"><tspan x="529.406" y="253.226">3D-printer</tspan></text><path d="M138.375 228.518v38.059" style="fill:#f6d5ff;stroke:#d4aa00;stroke-width:.264583;stroke-linejoin:round;marker-start:url(#y);marker-end:url(#aw)"/><text xml:space="preserve" style="font-style:normal;font-variant:normal;font-weight:700;font-stretch:normal;font-size:14.6667px;line-height:normal;font-family:&quot;Liberation Mono&quot;;-inkscape-font-specification:&quot;Liberation Mono Bold&quot;;text-align:end;text-decoration-color:#000;white-space:pre;shape-inside:url(#ax);fill:#000;stroke-width:1;-inkscape-stroke:none;stop-color:#000" transform="matrix(0.26458333,0,0,0.26458333,39.966304,-85.711135)"><tspan x="338.899" y="1168.787">.step</tspan></text><text xml:space="preserve" style="font-style:normal;font-variant:normal;font-weight:700;font-stretch:normal;font-size:14.6667px;line-height:normal;font-family:&quot;Liberation Mono&quot;;-inkscape-font-specification:&quot;Liberation Mono Bold&quot;;text-decoration-color:#000;white-space:pre;shape-inside:url(#ay);fill:#4d4d4d;stroke-width:1;-inkscape-stroke:none;stop-color:#000" transform="matrix(0.26458333,0,0,0.26458333,-6.9129524,-29.854671)"><tspan x="42.346" y="1107.521">The
</tspan><tspan x="42.346" y="1125.854">Parametrix
</tspan><tspan x="42.346" y="1144.188">Workflow</tspan></text></svg>