<svg xmlns="http://www.w3.org/2000/svg" width="600" height="4000" viewBox="0 0 158.75 1058.333"><defs><marker id="e" markerHeight="1" markerWidth="1" orient="auto-start-reverse" preserveAspectRatio="xMidYMid" refX="0" refY="0" style="overflow:visible" viewBox="0 0 1 1"><path d="M3-3 0 0l3 3" style="fill:none;stroke:context-stroke;stroke-width:1;stroke-linecap:butt" transform="rotate(180 .125 0)"/></marker><marker id="d" markerHeight="1" markerWidth=".525" orient="auto-start-reverse" preserveAspectRatio="xMidYMid" refX="0" refY="0" style="overflow:visible" viewBox="0 0 0.525 1"><path d="m0-1 1 1-1 1-.05-1Z" style="fill:context-stroke;stroke-linecap:butt" transform="scale(.5)"/></marker><marker id="c" markerHeight="1" markerWidth=".525" orient="auto-start-reverse" preserveAspectRatio="xMidYMid" refX="0" refY="0" style="overflow:visible" viewBox="0 0 0.525 1"><path d="m0-1 1 1-1 1-.05-1Z" style="fill:context-stroke;stroke-linecap:butt" transform="scale(.5)"/></marker><marker id="f" markerHeight="1" markerWidth="1" orient="auto-start-reverse" preserveAspectRatio="xMidYMid" refX="0" refY="0" style="overflow:visible" viewBox="0 0 1 1"><path d="M3-3 0 0l3 3" style="fill:none;stroke:context-stroke;stroke-width:1;stroke-linecap:butt" transform="rotate(180 .125 0)"/></marker><path id="b" d="M399.255 32.854h150.422v157.713H399.255z"/><path id="a" d="M7.964 5.599h428.212v128.273H7.964z"/></defs><circle cx="115.548" cy="332.014" r="9.871" style="fill:#00f;stroke:#00f;stroke-width:.264583"/><ellipse cx="-163.532" cy="300.232" rx="9.09" ry="9.036" style="fill:#00f;stroke:#00f;stroke-width:.264583" transform="rotate(-43.259)skewX(.006)"/><path d="M20.738 262.874H36.01v6.534H20.738z" style="fill:#e6e6e6;stroke:#e6e6e6;stroke-width:.264583"/><text xml:space="preserve" style="font-style:normal;font-weight:400;font-size:14.6667px;line-height:1.25;font-family:sans-serif;white-space:pre;shape-inside:url(#a);display:inline;fill:#000;fill-opacity:1;stroke:none" transform="scale(.26458)"><tspan x="7.963" y="18.944">menu_icons.svg</tspan></text><path d="M16.385 22.264h21.167v21.167H16.385z" style="fill:none;fill-opacity:1;stroke:none;stroke-width:.264583"/><path d="M17.351 40.891c.689-.144 4.542-3.17 5.872-5.5.986-1.726 1.3-5.821 1.3-5.821l2.057-.14s.513 2.363.929 3.493c.662 1.8 1.022 3.945 2.48 5.19 1.798 1.534 6.799 2.016 6.799 2.016l-.611 2.222s-5.692-.056-7.746-1.723c-1.496-1.214-2.391-5.264-2.391-5.264s-1.841 3.018-3.146 4.172c-1.213 1.073-4.207 2.429-4.207 2.429zM25.925 22.621c1.153.12 2.382.99 2.79 2.075.287.761.07 1.818-.511 2.388-.653.64-1.794.678-2.694.519-.97-.172-1.863-.801-2.537-1.52-.434-.464-1.078-1.095-.871-1.695.457-1.328 2.427-1.912 3.823-1.767z" style="fill:#6495ed;fill-opacity:1;stroke:#6495ed;stroke-width:.264583px;stroke-linecap:butt;stroke-linejoin:miter;stroke-opacity:1"/><text xml:space="preserve" style="font-style:normal;font-weight:400;font-size:14.6667px;line-height:1.25;font-family:sans-serif;white-space:pre;shape-inside:url(#b);display:inline;fill:#000;fill-opacity:1;stroke:none" transform="scale(.26458)"><tspan x="399.256" y="46.198">index
</tspan><tspan x="399.256" y="64.532">rough
</tspan><tspan x="399.256" y="82.865">circle
</tspan><tspan x="399.256" y="101.198">docs
</tspan><tspan x="399.256" y="119.532">readme
</tspan><tspan x="399.256" y="137.865">about</tspan></text><path d="M52.517 6.788h21.167v21.167H52.517zM116.972 86.185h21.167v21.167h-21.167z" style="fill:none;stroke:#e6e6e6;stroke-width:.264583"/><path d="M16.868 52.043h21.167V73.21H16.868z" style="fill:none;stroke:none;stroke-width:.264583"/><path d="m18.043 60.747 7.99-7.269 1.676 3.996 5.206-2.023 2.866 5.219-3.067 11.724-3.598-5.207-6.491 5.1-.738-5.23-2.987.886z" style="fill:#6495ed;fill-opacity:1;stroke:#6495ed;stroke-width:.264583px;stroke-linecap:butt;stroke-linejoin:miter;stroke-opacity:1"/><path d="M44.947 52.498h21.167v21.167H44.947z" style="fill:none;stroke:none;stroke-width:.264583"/><path d="M48.422 59.681c.55-1.118 1.158-2.31 2.157-3.055 1.963-1.465 4.517-2.552 6.959-2.359 2.413.192 5.257 1.266 6.425 3.386 1.326 2.408.657 5.804-.653 8.22-1.607 2.966-4.816 5.105-8.013 6.18-2.45.824-5.815 1.647-7.753-.062-1.667-1.47-1.072-4.392-.887-6.607.166-1.983.886-3.918 1.765-5.703z" style="fill:none;stroke:#6495ed;stroke-width:1.5875;stroke-linecap:butt;stroke-linejoin:miter;stroke-opacity:1"/><path d="M17.229 79.978h21.167v21.167H17.229z" style="fill:none;stroke:none;stroke-width:.264583"/><path d="M18.963 87.888 32.5 81.165" style="fill:none;stroke:#6495ed;stroke-width:1.5875;stroke-linecap:butt;stroke-linejoin:miter;stroke-opacity:1;marker-start:url(#c);marker-end:url(#d)"/><path d="m18.959 92.661 14.42-7.165" style="fill:none;stroke:#6495ed;stroke-width:1.5875;stroke-linecap:butt;stroke-linejoin:miter;stroke-opacity:1;marker-start:url(#c);marker-end:url(#d)"/><path d="m22.488 95.65 14.222-7.586" style="fill:none;stroke:#6495ed;stroke-width:1.5875;stroke-linecap:butt;stroke-linejoin:miter;stroke-opacity:1;marker-start:url(#c);marker-end:url(#d)"/><path d="m25.455 99.876 11.174-6.39" style="fill:none;stroke:#6495ed;stroke-width:1.5875;stroke-linecap:butt;stroke-linejoin:miter;stroke-opacity:1;marker-start:url(#c);marker-end:url(#d)"/><path d="M44.026 80.079h21.167v21.167H44.026z" style="fill:none;stroke:none;stroke-width:.264583"/><path d="M46.895 99.02s2.436-1.41 3.007-2.606c1.07-2.243.767-5.02.25-7.45-.41-1.936-2.593-5.34-2.593-5.34s4.32-1.6 6.586-1.743c2.818-.179 6.534-1.007 8.395 1.116.893 1.018.802 2.969.004 4.062-1.63 2.232-7.9 2.518-7.9 2.518s3.071.375 3.867 1.507c.333.474.046 1.737.046 1.737M53.016 92.61l-.28 7.47" style="fill:none;stroke:#6495ed;stroke-width:1.5875;stroke-linecap:butt;stroke-linejoin:miter;stroke-opacity:1"/><path d="M52.664 96.055s1.207-2.153 2.268-2.257c.953-.093 1.835.812 2.39 1.592.533.75.616 1.757.691 2.675.058.7-.187 2.098-.187 2.098M58.036 95.917s1.12-1.559 1.98-1.752c.707-.159 1.653.026 2.087.605 1.05 1.401-.011 5.252-.011 5.252" style="fill:none;stroke:#6495ed;stroke-width:1.5875;stroke-linecap:butt;stroke-linejoin:miter;stroke-opacity:1"/><path d="M68.471 80.211h21.167v21.167H68.471z" style="fill:none;stroke:none;stroke-width:.264583"/><ellipse cx="79.085" cy="90.677" rx="9.135" ry="9.071" style="fill:none;stroke:#6495ed;stroke-width:1.5875;stroke-opacity:1"/><ellipse cx="79.075" cy="90.637" rx="3.04" ry="2.963" style="fill:#6495ed;fill-opacity:1;stroke:#6495ed;stroke-width:1.5875;stroke-opacity:1"/><path d="M57.244 80.522h16.603v8.245H57.244z" style="fill:none;fill-opacity:1;stroke:#6495ed;stroke-width:1.5875;stroke-dasharray:none;stroke-opacity:1" transform="matrix(.9625 -.2713 .27683 .96092 0 0)"/><path d="M76.022 53.264h21.167v21.167H76.022z" style="fill:none;stroke:none;stroke-width:.264583"/><path d="M16.776 113.734h17.895v6.241H16.776z" style="fill:#6495ed;fill-opacity:1;stroke:#6495ed;stroke-width:1.5875;stroke-opacity:1"/><path d="M22.88 130.47s-2.647-7.072-1.315-7.454 7.89 1.078 7.89 1.078l-3.145 2.608 5.69 5.064-1.906 1.26-5.33-5.103zM52.708 132.164l10.203-19.116 8.623 12.904z" style="fill:#6495ed;fill-opacity:1;stroke:#6495ed;stroke-width:.264583px;stroke-linecap:butt;stroke-linejoin:miter;stroke-opacity:1"/><g style="fill:#6495ed;fill-opacity:1;stroke:#6495ed;stroke-width:1.27089;stroke-opacity:1" transform="matrix(.78684 0 0 .78686 95.89 120.702)"><path d="m9.179-1.254 1.015-.138.675.072 1.753.786V.534l-1.753.786-.675.072-1.015-.138-.469 1.902.963.348.564.378 1.187 1.51-.496.946L9.01 6.22l-.631-.25-.834-.593-1.3 1.466.691.756.324.597.35 1.889-.88.607-1.642-.997-.443-.514-.462-.914-1.832.695.26.99.01.68-.57 1.834-1.06.129L0 10.948l-.153-.66.015-1.025-1.945-.236-.23.998-.307.605-1.356 1.36-.999-.378-.113-1.918.172-.656.489-.9-1.612-1.113-.668.777-.553.393-1.833.574-.709-.799.792-1.75.457-.502.851-.57-.91-1.734-.952.377-.673.091-1.89-.343-.256-1.037 1.514-1.182.638-.232 1.019-.109V-.979l-1.019-.109-.638-.232-1.514-1.182.256-1.037 1.89-.343.673.09.952.378.91-1.734-.851-.57-.457-.501-.792-1.751.709-.8 1.833.575.553.393.668.777 1.612-1.113-.49-.9-.171-.656.113-1.918.999-.379 1.356 1.36.307.606.23.998 1.945-.236-.015-1.024.153-.661.991-1.646 1.06.129.57 1.835-.01.679-.26.99 1.832.695.462-.914.443-.514 1.642-.997.88.607-.35 1.889-.324.597-.69.756 1.299 1.466.834-.594.631-.25 1.918-.118.496.945-1.187 1.51-.564.379-.963.348z" style="fill:#6495ed;fill-opacity:1;stroke:#6495ed;stroke-width:.336257;stroke-opacity:1"/><circle r="2.646" style="fill:#6495ed;fill-opacity:1;stroke:#6495ed;stroke-width:.336257;stroke-opacity:1"/></g><circle cx="95.984" cy="120.702" r="4.262" style="fill:#f9f9f9;fill-opacity:1;stroke:#fff;stroke-width:1.5875;stroke-opacity:1"/><ellipse cx="22.979" cy="153.261" rx="1.186" ry="1.14" style="fill:#6495ed;fill-opacity:1;stroke-width:.264583;stroke-dasharray:1,1"/><ellipse cx="25.941" cy="162.708" rx="1.186" ry="1.14" style="fill:#6495ed;fill-opacity:1;stroke-width:.264583;stroke-dasharray:1,1"/><ellipse cx="32.927" cy="156.474" rx="1.186" ry="1.14" style="fill:#6495ed;fill-opacity:1;stroke-width:.264583;stroke-dasharray:1,1"/><path d="m21.795 149.073 5.455 17.91M30.373 148.092l5.455 17.91" style="fill:none;stroke:#6495ed;stroke-width:.793749;stroke-linecap:butt;stroke-linejoin:miter;stroke-opacity:1"/><path d="M55.806 144.605h21.167v21.167H55.806z" style="fill:none;stroke:#e6e6e6;stroke-width:.264583"/><ellipse cx="59" cy="147.974" rx="1.186" ry="1.14" style="fill:#6495ed;fill-opacity:1;stroke-width:.264583;stroke-dasharray:1,1"/><ellipse cx="63.06" cy="164.007" rx="1.186" ry="1.14" style="fill:#6495ed;fill-opacity:1;stroke-width:.264583;stroke-dasharray:1,1"/><ellipse cx="74.965" cy="153.037" rx="1.186" ry="1.14" style="fill:#6495ed;fill-opacity:1;stroke-width:.264583;stroke-dasharray:1,1"/><ellipse cx="66.89" cy="154.128" rx="1.186" ry="1.14" style="fill:#6495ed;fill-opacity:1;stroke-width:.264583;stroke-dasharray:1,1"/><path d="M102.285 145.346h21.167v21.167h-21.167z" style="fill:none;stroke:#e6e6e6;stroke-width:.264583"/><path d="M107.037 162.215s-2.848-.645-3.461-1.707c-.66-1.143-.46-2.86.436-3.86.572-.636 1.682-.72 2.582-.722.574 0 1.649.454 1.649.454" style="fill:none;stroke:#6495ed;stroke-width:.79375;stroke-linecap:butt;stroke-linejoin:miter;stroke-opacity:1"/><path d="M106.487 156.097s-1.942-2.017-1.787-3.21c.166-1.284 1.396-2.593 2.752-2.946.866-.225 1.83.285 2.572.753.472.3 1.074 1.234 1.074 1.234" style="fill:none;stroke:#6495ed;stroke-width:.79375;stroke-linecap:butt;stroke-linejoin:miter;stroke-opacity:1"/><path d="M109.171 152.468s-.13-2.688.808-3.528c1.01-.903 2.862-1.212 4.16-.706.827.324 1.229 1.277 1.485 2.069.162.504-.01 1.579-.01 1.579M118.392 161.865s2.849-.645 3.462-1.707c.66-1.143.46-2.86-.436-3.859-.572-.637-1.683-.72-2.583-.723-.573 0-1.648.455-1.648.455" style="fill:none;stroke:#6495ed;stroke-width:.79375;stroke-linecap:butt;stroke-linejoin:miter;stroke-opacity:1"/><path d="M118.942 155.748s1.942-2.018 1.788-3.21c-.166-1.285-1.396-2.594-2.752-2.947-.866-.225-1.831.285-2.572.754-.473.298-1.075 1.234-1.075 1.234" style="fill:none;stroke:#6495ed;stroke-width:.79375;stroke-linecap:butt;stroke-linejoin:miter;stroke-opacity:1"/><path d="M109.335 158.071s-.881.022-1.147-.433c-.285-.49-.368-1.371-.189-1.977.115-.387.43-.563.693-.672.167-.07.517.028.517.028M116.053 157.578s.882.022 1.147-.434c.286-.49.369-1.37.19-1.976-.115-.387-.431-.563-.693-.672-.167-.07-.517.028-.517.028" style="fill:none;stroke:#6495ed;stroke-width:.793753;stroke-linecap:butt;stroke-linejoin:miter;stroke-opacity:1"/><path d="M22.78 189.931h21.167v21.167H22.78z" style="fill:none;stroke:#e6e6e6;stroke-width:.264583"/><path d="M29.076 208.78s1.85-.354 2.4-1.029c.716-.875.556-2.197.686-3.32.189-1.622.145-3.266.135-4.9-.008-1.256.071-2.528-.15-3.765-.18-1.01-.175-2.252-.948-2.926-.599-.522-2.346-.419-2.346-.419" style="fill:none;stroke:#6495ed;stroke-width:.529167;stroke-linecap:butt;stroke-linejoin:miter;stroke-opacity:1;marker-end:url(#e)"/><path d="M29.082 192.518s-2.148.3-2.845 1.028c-.802.837-.842 2.177-1.042 3.32-.28 1.61-.219 3.265-.204 4.9.012 1.257-.096 2.55.226 3.765.278 1.051.564 2.284 1.442 2.926.751.55 2.761.419 2.761.419" style="fill:none;stroke:#6495ed;stroke-width:.529167;stroke-linecap:butt;stroke-linejoin:miter;stroke-opacity:1;marker-end:url(#e)"/><path d="M37.63 208.748s-1.85-.354-2.4-1.029c-.715-.875-.556-2.197-.686-3.32-.188-1.622-.144-3.266-.134-4.9.007-1.256-.072-2.528.148-3.765.18-1.01.176-2.252.949-2.926.599-.522 2.346-.419 2.346-.419" style="fill:none;stroke:#6495ed;stroke-width:.529167;stroke-linecap:butt;stroke-linejoin:miter;stroke-opacity:1;marker-end:url(#f)"/><path d="M37.624 192.486s2.148.3 2.845 1.028c.803.837.842 2.177 1.042 3.32.281 1.61.22 3.265.204 4.9-.011 1.257.096 2.55-.226 3.765-.278 1.051-.564 2.284-1.441 2.926-.752.55-2.762.419-2.762.419" style="fill:none;stroke:#6495ed;stroke-width:.529167;stroke-linecap:butt;stroke-linejoin:miter;stroke-opacity:1;marker-end:url(#f)"/><path d="M59.745 189.777h21.167v21.167H59.745z" style="fill:none;stroke:#e6e6e6;stroke-width:.264583"/><path d="M60.477 192.885v10.41h2.911v-4.524h12.384v4.198h3.095V191.4h-3.45v3.825H63.263v-4.704h-3.006Z" style="fill:#6495ed;fill-opacity:1;stroke:#6495ed;stroke-width:.264583px;stroke-linecap:butt;stroke-linejoin:miter;stroke-opacity:1"/><path d="M64.449 191.968v1.995h9.2v-2.156zM64.477 199.902h9.434v2.352h-3.85v4.444h7.22v2.483H61.018v-2.5h6.701v-4.419h-3.001z" style="fill:#6495ed;fill-opacity:1;stroke:#6495ed;stroke-width:.264583px;stroke-linecap:butt;stroke-linejoin:miter;stroke-opacity:1"/><path d="M19.726 222.501h21.167v21.167H19.726z" style="fill:none;stroke:#e6e6e6;stroke-width:.264583"/><path d="m24.73 242.99 7.618.071.011-6.153-2.132-13.7h-3.449l-2.146 13.162z" style="fill:#6495ed;fill-opacity:1;stroke:#6495ed;stroke-width:.264583px;stroke-linecap:butt;stroke-linejoin:miter;stroke-opacity:1"/><path d="m26.497 238.562-.051 2.762s.563.923 1.007.89.861-1.027.861-1.027l.126-2.49s-.559-1.125-1.072-1.115c-.434.01-.87.98-.87.98z" style="fill:#f9f9f9;stroke:#f9f9f9;stroke-width:.264583px;stroke-linecap:butt;stroke-linejoin:miter;stroke-opacity:1"/><path d="M48.602 222.875h21.167v21.167H48.602z" style="fill:none;stroke:#e6e6e6;stroke-width:.264583"/><path d="M55.445 226.197h4.219v14.701h-4.219z" style="fill:#6495ed;fill-opacity:1;stroke:#6495ed;stroke-width:.264584;stroke-opacity:1"/><circle cx="57.607" cy="240.71" r="2.315" style="fill:#6495ed;fill-opacity:1;stroke:#fff;stroke-width:.264583;stroke-opacity:1"/><circle cx="57.584" cy="240.742" r="1.371" style="fill:#fff;fill-opacity:1;stroke:#6495ed;stroke-width:.264583;stroke-opacity:1"/><circle cx="57.606" cy="226.48" r="2.315" style="fill:#6495ed;fill-opacity:1;stroke:#fff;stroke-width:.264583;stroke-opacity:1"/><circle cx="57.584" cy="226.512" r="1.371" style="fill:#fff;fill-opacity:1;stroke:#6495ed;stroke-width:.264583;stroke-opacity:1"/><path d="M80.825 222.62h21.167v21.167H80.825z" style="fill:none;stroke:#e6e6e6;stroke-width:.264583"/><path d="M83.281 224.933H87.5v7.056h-4.219zM89.352 224.933h4.219v7.056h-4.219zM95.424 224.933h4.219v7.056h-4.219zM83.281 233.841H87.5v7.056h-4.219zM89.352 233.841h4.219v7.056h-4.219zM95.424 233.841h4.219v7.056h-4.219z" style="fill:#6495ed;fill-opacity:1;stroke:#6495ed;stroke-width:.264584;stroke-opacity:1"/><path d="M117.571 222.018h21.167v21.167h-21.167z" style="fill:none;stroke:#e6e6e6;stroke-width:.264583"/><path d="M119.551 228.49h16.643v1.014h-16.643zM124.937 232.679h5.871v1.014h-5.871z" style="fill:#6495ed;fill-opacity:1;stroke:#6495ed;stroke-width:.264584;stroke-opacity:1"/><path d="M224.29 121.405h6.582v.416h-6.582z" style="fill:#6495ed;fill-opacity:1;stroke:#6495ed;stroke-width:.264656;stroke-opacity:1" transform="matrix(.82494 .56523 -.53746 .84329 0 0)"/><path d="M8.505 266.038h6.582v.416H8.505z" style="fill:#6495ed;fill-opacity:1;stroke:#6495ed;stroke-width:.264656;stroke-opacity:1" transform="matrix(-.82494 .56523 .53746 .84329 0 0)"/><path d="M18.721 251.198h21.167v21.167H18.721zM47.926 251.492h21.167v21.167H47.926zM77.731 251.436h21.167v21.167H77.731zM107.218 252.205h21.167v21.167h-21.167z" style="fill:none;stroke:#e6e6e6;stroke-width:.264583"/><path d="M21.565 265.091h4.447v1.014h-4.447z" style="fill:#6495ed;fill-opacity:1;stroke:#6495ed;stroke-width:.264584;stroke-opacity:1"/><path d="M-265.091 23.281h4.447v1.014h-4.447z" style="fill:#6495ed;fill-opacity:1;stroke:#6495ed;stroke-width:.264584;stroke-opacity:1" transform="rotate(-90)"/><path d="M-25.574-261.151h2.293v1.014h-2.293z" style="fill:#6495ed;fill-opacity:1;stroke:#6495ed;stroke-width:.264584;stroke-opacity:1" transform="scale(-1)"/><path d="M-35.22 265.091h4.447v1.014h-4.447z" style="fill:#6495ed;fill-opacity:1;stroke:#6495ed;stroke-width:.264584;stroke-opacity:1" transform="scale(-1 1)"/><path d="M-265.091-33.504h4.447v1.014h-4.447z" style="fill:#6495ed;fill-opacity:1;stroke:#6495ed;stroke-width:.264584;stroke-opacity:1" transform="rotate(90)scale(-1 1)"/><path d="M31.211-261.151h2.293v1.014h-2.293z" style="fill:#6495ed;fill-opacity:1;stroke:#6495ed;stroke-width:.264584;stroke-opacity:1" transform="scale(1 -1)"/><path d="M49.961 261.953h16.643v1.014H49.961z" style="fill:#6495ed;fill-opacity:1;stroke:#6495ed;stroke-width:.264584;stroke-opacity:1"/><path d="M-262.968-50.975h4.447v1.014h-4.447zM-262.968-66.604h4.447v1.014h-4.447zM-262.968-56.307h4.447v1.014h-4.447zM-262.968-60.78h4.447v1.014h-4.447z" style="fill:#6495ed;fill-opacity:1;stroke:#6495ed;stroke-width:.264584;stroke-opacity:1" transform="rotate(90)scale(-1 1)"/><path d="M57.563 260.81h.843l.988 4.778-.263 1.902-2.228-.007-.296-1.809z" style="fill:#6495ed;fill-opacity:1;stroke:#6495ed;stroke-width:.264583px;stroke-linecap:butt;stroke-linejoin:miter;stroke-opacity:1"/><path d="M-165.587 215.193h6.847v.456h-6.847z" style="fill:#6495ed;fill-opacity:1;stroke:#6495ed;stroke-width:.264583;stroke-opacity:1" transform="rotate(25.367)scale(-1 1)"/><path d="M-60.653 264.879h6.847v.456h-6.847z" style="fill:#6495ed;fill-opacity:1;stroke:#6495ed;stroke-width:.264583;stroke-opacity:1" transform="rotate(-25.367)"/><path d="M79.426 261.224h16.643v1.014H79.426z" style="fill:#6495ed;fill-opacity:1;stroke:#6495ed;stroke-width:.264584;stroke-opacity:1"/><circle cx="87.77" cy="263.578" r="2.315" style="fill:#6495ed;fill-opacity:1;stroke:#6495ed;stroke-width:.264583;stroke-opacity:1"/><circle cx="87.747" cy="263.61" r="1.371" style="fill:#fff;fill-opacity:1;stroke:#6495ed;stroke-width:.264583;stroke-opacity:1"/><path d="M-270.764 116.655h16.643v1.014h-16.643z" style="fill:#6495ed;fill-opacity:1;stroke:#6495ed;stroke-width:.264584;stroke-opacity:1" transform="rotate(-90)"/><rect width="3.676" height="2.065" x="115.324" y="254.121" ry=".869" style="fill:#6495ed;fill-opacity:1;stroke:#6495ed;stroke-width:.264584;stroke-opacity:1"/><rect width="3.676" height="2.065" x="115.324" y="268.699" ry=".869" style="fill:#6495ed;fill-opacity:1;stroke:#6495ed;stroke-width:.264584;stroke-opacity:1"/><rect width="3.676" height="2.065" x="115.324" y="264.081" ry=".869" style="fill:#6495ed;fill-opacity:1;stroke:#6495ed;stroke-width:.264584;stroke-opacity:1"/><rect width="3.676" height="2.065" x="115.324" y="259.101" ry=".869" style="fill:#6495ed;fill-opacity:1;stroke:#6495ed;stroke-width:.264584;stroke-opacity:1"/><path d="M18.153 282.487H39.32v21.167H18.153z" style="fill:none;stroke:#e6e6e6;stroke-width:.264583"/><path d="m26.263 303.178 3.124.039.005-3.363-.874-7.488h-1.415l-.88 7.194z" style="fill:#6495ed;fill-opacity:1;stroke:#6495ed;stroke-width:.264583px;stroke-linecap:butt;stroke-linejoin:miter;stroke-opacity:1"/><path d="m26.988 300.758-.021 1.51s.23.504.413.486c.181-.019.353-.561.353-.561l.052-1.362s-.23-.614-.44-.609c-.178.004-.357.536-.357.536z" style="fill:#f9f9f9;stroke:#f9f9f9;stroke-width:.264583px;stroke-linecap:butt;stroke-linejoin:miter;stroke-opacity:1"/><path d="M-288.467-21.315h2.576v.95h-2.576zM-288.467-35.948h2.576v.95h-2.576zM-288.467-26.307h2.576v.95h-2.576zM-288.467-30.495h2.576v.95h-2.576z" style="fill:#6495ed;fill-opacity:1;stroke:#6495ed;stroke-width:.264584;stroke-opacity:1" transform="rotate(90)scale(-1 1)"/><path d="M27.483 287.217h.79l.924 2.768-.245 1.102-2.086-.004-.278-1.048z" style="fill:#6495ed;fill-opacity:1;stroke:#6495ed;stroke-width:.264583px;stroke-linecap:butt;stroke-linejoin:miter;stroke-opacity:1"/><path d="M-212.269 289.901h6.037v.301h-6.037z" style="fill:#6495ed;fill-opacity:1;stroke:#6495ed;stroke-width:.273936;stroke-opacity:1" transform="matrix(-.95956 -.2815 -.60823 .79376 0 0)"/><path d="M-164.543 306.829h6.037v.301h-6.037z" style="fill:#6495ed;fill-opacity:1;stroke:#6495ed;stroke-width:.273936;stroke-opacity:1" transform="matrix(.95956 -.2815 .60823 .79376 0 0)"/><path d="M23.286 283.131h9.452v.555h-9.452z" style="fill:#6495ed;fill-opacity:1;stroke:#6495ed;stroke-width:.264584;stroke-opacity:1"/><ellipse cx="28.025" cy="284.419" rx="1.315" ry="1.266" style="fill:#6495ed;fill-opacity:1;stroke:#6495ed;stroke-width:.264583;stroke-opacity:1"/><ellipse cx="28.012" cy="284.436" rx=".779" ry=".75" style="fill:#fff;fill-opacity:1;stroke:#6495ed;stroke-width:.264583;stroke-opacity:1"/><path d="M50.775 282.129h21.167v21.167H50.775z" style="fill:none;stroke:#e6e6e6;stroke-width:.264583"/><ellipse cx="61.37" cy="288.105" rx="2.511" ry="2.513" style="fill:#6495ed;fill-opacity:1;stroke:#6495ed;stroke-width:.264583;stroke-opacity:1"/><ellipse cx="61.345" cy="288.14" rx="1.488" ry="1.489" style="fill:#fff;fill-opacity:1;stroke:#6495ed;stroke-width:.264583;stroke-opacity:1"/><path d="M56.174 292.916h10.391v1.101H56.174z" style="fill:#6495ed;fill-opacity:1;stroke:#6495ed;stroke-width:.264584;stroke-opacity:1"/><path d="M255.802 157.267h6.651v1.101h-6.651z" style="fill:#6495ed;fill-opacity:1;stroke:#6495ed;stroke-width:.264584;stroke-opacity:1" transform="rotate(45.626)skewX(.045)"/><path d="M169.897 245h6.651v1.101h-6.651z" style="fill:#6495ed;fill-opacity:1;stroke:#6495ed;stroke-width:.264584;stroke-opacity:1" transform="rotate(134.374)scale(1 -1)skewX(.045)"/><path d="M-294.018 60.795h4.389v1.1h-4.389z" style="fill:#6495ed;fill-opacity:1;stroke:#6495ed;stroke-width:.264584;stroke-opacity:1" transform="rotate(-90)"/><path d="M20.365 288.175h15.583v.291H20.365z" style="fill:#6495ed;fill-opacity:1;stroke:#6495ed;stroke-width:.264584;stroke-opacity:1"/><path d="m28.565 328.678.099-.109.327-.22.549-.208.259.275-.24.535-.24.314-.115.091.342.477.123-.08.373-.13.583-.058.178.333-.37.456-.313.241-.134.059.207.55.14-.046.392-.029.578.095.085.368-.475.345-.364.152-.144.023.057.585.146-.008.386.074.533.24-.013.379-.547.211-.391.053-.145-.016-.096.58.142.031.354.172.45.37-.11.363-.582.063-.39-.05-.136-.053-.243.537.13.067.296.257.339.475-.2.323-.578-.09-.364-.15-.117-.086-.374.457.108.098.22.326.203.547-.276.26-.534-.236-.312-.239-.091-.114-.479.345.08.123.126.372.055.582-.334.18-.454-.367-.239-.311-.058-.134-.55.21.044.14.026.392-.098.578-.369.088-.342-.473-.15-.363-.022-.145-.586.061.007.146-.076.387-.244.533-.379-.01-.207-.546-.051-.39.016-.145-.58-.093-.031.143-.174.355-.373.453-.363-.108-.059-.582.052-.39.054-.137-.536-.24-.067.13-.26.298-.477.342-.321-.198.094-.579.151-.364.087-.118-.454-.37-.099.108-.327.221-.55.207-.258-.275.24-.535.24-.313.115-.092-.342-.476-.123.08-.373.129-.583.058-.178-.333.37-.455.313-.241.134-.06-.207-.549-.14.046-.392.028-.578-.094-.086-.368.475-.346.365-.152.144-.022-.057-.585-.146.008-.386-.074-.533-.241.013-.378.547-.212.39-.052.146.015.096-.58-.143-.03-.353-.173-.451-.37.11-.363.583-.063.39.05.136.053.243-.537-.13-.066-.296-.258-.34-.475.201-.323.578.09.364.15.117.086.374-.457-.109-.097-.219-.326-.204-.548.277-.26.534.237.312.238.091.114.478-.345-.079-.123-.126-.372-.055-.582.334-.18.453.367.24.311.058.134.55-.21-.044-.139-.026-.393.098-.577.369-.088.342.472.15.363.022.145.585-.06-.007-.147.077-.386.244-.534.378.01.208.546.05.39-.016.145.58.093.032-.143.174-.354.373-.454.362.108.06.582-.053.39-.053.137.535.24.067-.13.26-.298.477-.342.322.198-.094.579-.151.364-.087.118z" style="fill:#00f;stroke:#00f;stroke-width:.264583"/><ellipse cx="-210.266" cy="259.392" rx="4.943" ry="4.913" style="fill:#fff;stroke:#fff;stroke-width:.264583" transform="rotate(-43.26)skewY(-.002)"/><path d="m35.29 322.445.169-.196.227-.163.56-.203.244.26-.236.546-.177.217-.206.156.33.516.228-.122.27-.07.595.012.133.33-.418.426-.242.14-.248.071.12.602.256-.033.277.033.549.226.004.356-.542.247-.276.043-.257-.023-.105.606.25.062.246.13.428.41-.124.335-.594.035-.272-.06-.23-.114-.317.528.21.149.181.21.25.538-.236.268-.565-.182-.232-.154-.173-.19-.486.38.142.214.093.263.039.592-.318.165-.46-.374-.16-.227-.092-.24-.589.179.055.252-.009.279-.178.568-.355.039-.292-.515-.067-.27v-.259l-.612-.045-.04.255-.109.258-.37.466-.345-.09-.086-.588.036-.277.094-.24-.554-.264-.13.223-.194.202-.513.302-.288-.21.132-.58.134-.245.174-.192-.42-.446-.201.162-.254.119-.587.096-.191-.3.332-.494.213-.181.231-.116-.23-.568-.245.078-.279.02-.58-.122-.07-.35.487-.341.264-.093.257-.025-.008-.614-.257-.015-.266-.083-.497-.323.061-.352.578-.143.278.009.248.07.215-.578-.234-.107-.217-.173-.346-.482.184-.306.59.074.256.109.205.154.408-.461-.179-.185-.14-.24-.146-.575.282-.22.52.282.2.194.135.219.547-.284-.1-.237-.043-.276.071-.59.342-.104.382.452.116.253.047.254.61-.069-.007-.257.06-.273.28-.526.355.026.192.56.016.28-.048.253.593.157.087-.244.154-.233.45-.391.32.153-.023.594-.086.265-.136.22z" style="fill:purple;stroke:purple;stroke-width:.264583"/><ellipse cx="-199.235" cy="259.42" rx="3.194" ry="3.175" style="fill:#fff;stroke:#fff;stroke-width:.264583" transform="rotate(-43.26)skewY(-.002)"/><path d="M17.12 319.587h21.167v21.167H17.12z" style="fill:none;stroke:#e6e6e6;stroke-width:.264583"/><path d="m61.705 324.283.114-.126.38-.257.639-.24.3.319-.279.622-.28.364-.132.107.398.553.143-.093.433-.15.678-.067.207.386-.43.53-.364.28-.156.07.24.638.163-.053.457-.033.671.11.1.427-.552.402-.424.177-.168.026.067.68.17-.01.449.087.619.28-.015.44-.637.245-.454.062-.169-.019-.111.675.166.035.41.2.525.43-.128.423-.677.072-.454-.057-.158-.062-.283.624.151.077.344.3.395.552-.233.375-.672-.105-.423-.173-.136-.1-.435.53.126.114.255.379.237.636-.322.303-.62-.275-.363-.277-.106-.133-.556.401.092.143.147.432.064.677-.388.21-.528-.427-.278-.362-.068-.156-.64.245.052.161.03.457-.114.671-.429.103-.398-.55-.174-.422-.025-.168-.68.07.007.17-.089.45-.284.62-.44-.011-.241-.635-.06-.454.02-.169-.675-.107-.036.166-.202.412-.434.527-.421-.126-.069-.676.06-.454.063-.159-.623-.279-.078.152-.302.346-.555.397-.373-.23.109-.672.176-.424.1-.137-.528-.431-.114.126-.38.257-.639.241-.3-.32.279-.622.28-.364.132-.107-.398-.553-.143.092-.433.15-.678.068-.208-.386.43-.53.365-.28.155-.069-.24-.639-.162.053-.457.033-.671-.11-.1-.427.552-.402.424-.177.168-.026-.067-.68-.17.01-.449-.087-.619-.28.015-.44.637-.245.454-.062.169.019.111-.675-.166-.035-.41-.2-.525-.43.128-.423.677-.073.454.058.158.062.283-.624-.151-.077-.344-.3-.395-.552.233-.375.672.105.423.173.136.1.435-.53-.126-.114-.255-.38-.237-.636.322-.302.62.275.363.277.106.133.556-.401-.092-.143-.147-.432-.064-.677.388-.21.528.427.278.362.068.155.64-.244-.052-.161-.03-.457.114-.671.428-.103.399.55.174.422.025.168.68-.07-.007-.17.089-.45.283-.62.44.011.242.635.06.453-.02.17.675.107.036-.166.202-.412.434-.527.421.126.069.676-.06.454-.063.159.623.278.078-.151.301-.346.556-.397.373.23-.109.672-.176.424-.1.137z" style="fill:purple;stroke:purple;stroke-width:.264583"/><ellipse cx="-184.087" cy="278.992" rx="5.746" ry="5.712" style="fill:#fff;stroke:#fff;stroke-width:.264583" transform="rotate(-43.259)skewX(.006)"/><path d="M49.863 338.492c0-.435.003-.457.158-1.054l.158-.609h.512l.16.625.162.625h.684l.161-.625.161-.625h.513l.161.625.161.625h.683l.162-.625.162-.625.251-.012.252-.012.057.216.166.637.11.42h.681l.161-.625.161-.625.253-.012.252-.012.11.422.166.636.057.215h.683l.162-.625.16-.624.252-.013.252-.012.162.627.162.626h.693l.161-.624.161-.625h.504l.16.625.162.625h.692l.163-.625.163-.624h.5l.161.625.162.624h.694l.162-.624.162-.625h.501l.162.625.163.624h.691l.162-.624.16-.625h.504l.158.615c.086.337.169.614.182.614.014 0 .025.163.025.363v.362l-2.274.028c-1.252.016-4.296.045-6.766.067-2.47.021-5.028.048-5.684.059l-1.192.018z" style="fill:#00f;stroke:#00f;stroke-width:.264583"/><path d="M47.112 319.878h21.167v21.167H47.112z" style="fill:none;stroke:#e6e6e6;stroke-width:.264583"/><path d="m91.23 325.665.115-.127.38-.257.64-.24.3.32-.28.621-.279.365-.133.106.398.554.143-.093.434-.15.678-.068.207.387-.43.53-.364.28-.156.069.24.638.162-.053.457-.033.671.11.1.428-.552.401-.423.177-.169.026.067.68.17-.009.449.087.619.28-.015.44-.636.245-.454.061-.17-.018-.111.675.166.035.41.2.525.43-.128.422-.677.073-.454-.058-.158-.061-.283.624.151.077.345.3.394.552-.233.375-.672-.105-.422-.173-.137-.1-.434.53.125.114.255.379.237.636-.321.303-.621-.276-.363-.277-.106-.132-.556.4.092.143.147.433.064.677-.388.21-.528-.428-.278-.362-.067-.155-.64.244.051.162.03.456-.114.672-.428.102-.398-.55-.175-.422-.025-.167-.68.07.007.17-.089.45-.283.62-.44-.012-.242-.635-.059-.453.02-.169-.675-.108-.036.167-.203.411-.434.527-.421-.125-.069-.677.06-.454.063-.158-.623-.28-.078.152-.301.346-.555.398-.374-.23.109-.673.176-.423.101-.138-.528-.43-.115.126-.38.257-.638.24-.301-.319.279-.622.28-.364.132-.107-.398-.554-.143.093-.433.15-.678.068-.207-.387.43-.53.364-.28.156-.068-.24-.639-.163.053-.457.033-.67-.11-.1-.428.552-.401.423-.177.168-.026-.066-.68-.17.009-.45-.086-.618-.28.014-.44.637-.245.454-.062.169.018.112-.675-.166-.035-.411-.2-.525-.43.128-.422.678-.073.454.058.158.061.282-.624-.15-.077-.345-.3-.394-.552.232-.375.672.105.423.174.137.1.434-.531-.126-.114-.255-.379-.237-.636.322-.302.62.275.363.277.106.132.556-.4-.091-.143-.148-.433-.064-.677.389-.21.527.428.278.362.068.155.64-.244-.051-.162-.03-.456.113-.672.429-.102.398.55.174.421.025.168.681-.07-.008-.17.09-.45.283-.62.44.012.241.635.06.453-.02.169.675.108.036-.167.202-.411.434-.527.421.125.07.677-.061.454-.063.158.623.279.078-.151.302-.347.555-.397.374.23-.11.673-.175.423-.102.138z" style="fill:#fff;stroke:#fff;stroke-width:.264583"/><path d="M76.071 320.813h21.167v21.167H76.071z" style="fill:none;stroke:#e6e6e6;stroke-width:.264583"/><path d="m89.001 325.083.168-.196.228-.163.56-.203.244.26-.237.546-.176.217-.206.156.33.517.228-.123.27-.07.594.013.133.33-.417.425-.243.14-.248.071.12.602.257-.033.277.033.548.226.005.357-.542.246-.276.043-.257-.023-.105.606.25.062.246.13.428.41-.125.335-.593.035-.273-.06-.23-.114-.317.529.21.148.182.21.25.538-.237.268-.565-.182-.231-.154-.174-.19-.485.38.142.214.093.263.038.593-.317.164-.46-.373-.16-.228-.092-.24-.59.18.055.25-.008.28-.178.568-.355.04-.293-.516-.066-.27v-.258l-.612-.046-.04.255-.11.258-.37.466-.344-.09-.086-.588.035-.277.094-.24-.554-.264-.13.224-.193.201-.514.302-.287-.21.132-.58.133-.245.174-.191-.42-.447-.2.163-.254.118-.587.097-.192-.3.333-.494.213-.182.23-.116-.229-.568-.246.079-.278.019-.581-.122-.07-.349.488-.342.264-.093.256-.025-.007-.614-.258-.015-.266-.083-.496-.323.06-.352.578-.143.279.009.248.07.215-.578-.234-.107-.218-.173-.345-.482.184-.306.589.074.256.109.206.155.408-.462-.179-.185-.14-.24-.147-.575.282-.22.521.282.2.194.135.219.546-.284-.1-.237-.042-.276.07-.59.342-.104.383.452.115.254.047.253.611-.068-.007-.258.06-.273.279-.526.355.026.193.561.016.278-.048.254.593.157.086-.243.154-.234.45-.39.321.152-.023.594-.086.266-.136.22z" style="fill:purple;stroke:purple;stroke-width:.264583"/><ellipse cx="-161.929" cy="298.152" rx="3.194" ry="3.175" style="fill:#fff;stroke:#fff;stroke-width:.264583" transform="rotate(-43.26)skewY(-.002)"/><path d="M105.115 321.497h21.167v21.167h-21.167z" style="fill:none;stroke:#e6e6e6;stroke-width:.264583"/><path d="m124.123 331.636.369.092.368.145v.282l-.368.145-.369.093-.022.34.354.14.347.19-.037.28-.383.097-.378.044-.065.336.333.182.32.234-.072.273-.393.047-.38-.005-.108.325.307.224.287.272-.106.262-.395-.004-.377-.053-.148.308.276.261.25.307-.139.246-.392-.054-.366-.1-.187.286.24.294.209.337-.17.226-.381-.104-.35-.147-.222.26.2.323.164.36-.196.203-.366-.151-.328-.19-.254.23.158.345.116.378-.22.176-.343-.197-.302-.231-.28.196.112.362.066.39-.24.147-.316-.24-.27-.267-.303.158.065.374.016.396-.258.114-.282-.278-.233-.3-.32.119.016.379-.035.394-.27.08-.244-.31-.193-.328-.334.076-.032.379-.084.386-.28.045-.201-.34-.15-.349-.34.033-.08.371-.134.373-.282.01-.157-.364-.104-.365-.341-.01-.127.357-.18.353-.281-.027-.11-.38-.056-.376-.337-.055-.172.339-.223.326-.276-.062-.06-.392-.007-.38-.328-.097-.214.314-.263.296-.265-.098-.01-.396.04-.377-.312-.138-.252.284-.299.259-.25-.13.041-.394.09-.37-.293-.177-.287.25-.33.219-.23-.162.09-.385.136-.355-.267-.213-.316.211-.355.175-.21-.19.141-.37.18-.335-.238-.245-.34.168-.375.129-.183-.215.186-.35.221-.309-.204-.274-.36.124-.387.08-.154-.237.23-.323.258-.278-.168-.298-.372.077-.395.03-.122-.255.269-.29.292-.244-.129-.316-.378.028-.396-.022-.088-.267.303-.254.32-.204-.086-.33-.379-.02-.39-.073-.053-.277.333-.213.345-.16-.044-.34-.374-.068-.377-.121-.018-.282.358-.168.362-.116v-.342l-.362-.115-.358-.169.018-.281.377-.122.374-.068.044-.34-.345-.16-.333-.213.054-.277.389-.072.38-.02.086-.33-.32-.204-.304-.254.088-.268.396-.022.378.029.129-.317-.292-.243-.27-.29.123-.255.395.03.372.076.168-.298-.259-.278-.23-.322.155-.237.388.08.359.123.204-.274-.22-.309-.187-.35.183-.214.375.128.34.169.238-.246-.18-.334-.14-.37.209-.19.355.175.316.21.267-.213-.135-.355-.092-.385.232-.161.33.219.286.25.292-.178-.089-.37-.041-.393.25-.13.3.259.251.284.313-.138-.041-.378.01-.396.265-.097.263.295.214.314.328-.097.008-.38.06-.391.275-.063.223.327.172.338.337-.054.057-.376.109-.38.28-.027.18.352.128.358.341-.01.104-.366.157-.363.282.01.134.372.08.371.34.033.15-.349.202-.34.279.045.084.387.032.378.334.076.193-.327.244-.312.27.08.035.395-.017.38.321.118.233-.3.282-.278.258.114-.016.396-.065.374.303.158.27-.267.315-.24.241.147-.066.39-.113.363.28.195.303-.23.343-.198.22.176-.116.379-.158.345.254.23.328-.19.366-.152.196.203-.163.36-.2.322.22.26.351-.146.382-.104.169.227-.208.336-.24.294.186.287.366-.1.392-.055.139.246-.25.307-.276.261.148.308.377-.053.395-.004.106.262-.287.273-.307.223.108.325.38-.005.393.047.071.273-.319.234-.333.182.065.336.378.044.383.097.037.28-.347.191-.354.139z" style="fill:#fff;stroke:#fff;stroke-width:.264583"/><path d="m114.69 324.68.094-.108.125-.09.308-.111.134.142-.13.301-.097.12-.113.086.181.284.126-.067.149-.039.327.007.073.182-.23.234-.133.077-.137.04.067.33.14-.017.153.018.302.125.003.196-.299.136-.151.023-.142-.012-.058.333.138.035.135.071.236.226-.068.184-.327.02-.15-.033-.127-.063-.175.291.116.082.1.116.138.296-.13.147-.312-.1-.127-.084-.096-.105-.267.209.078.118.051.144.022.327-.175.09-.253-.205-.088-.125-.052-.133-.324.099.03.139-.004.153-.098.313-.195.022-.162-.284-.036-.15v-.141l-.337-.025-.022.14-.06.142-.205.257-.19-.05-.047-.324.02-.152.052-.133-.305-.145-.072.124-.106.11-.283.167-.159-.115.073-.32.074-.135.096-.106-.232-.245-.11.09-.14.064-.323.054-.106-.165.183-.273.117-.1.128-.063-.127-.314-.135.044-.154.01-.32-.067-.038-.193.269-.188.145-.051.141-.014-.004-.339-.141-.009-.147-.045-.273-.178.033-.194.318-.079.154.004.136.038.119-.317-.13-.06-.119-.095-.19-.265.101-.169.325.041.14.06.114.085.225-.254-.099-.102-.077-.132-.08-.317.155-.121.287.156.11.106.074.12.3-.156-.054-.13-.024-.152.04-.325.188-.057.21.249.064.14.026.139.336-.038-.004-.142.033-.15.154-.29.196.015.106.309.009.153-.027.14.327.086.048-.134.084-.129.248-.215.177.084-.013.327-.047.147-.075.12z" style="fill:purple;stroke:purple;stroke-width:.264583"/><ellipse cx="-141.158" cy="315.271" rx="1.759" ry="1.749" style="fill:#fff;stroke:#fff;stroke-width:.264583" transform="rotate(-43.26)skewY(-.005)"/><path d="m122.273 326.617.093-.108.125-.09.309-.111.134.142-.13.301-.098.12-.113.086.182.284.125-.067.15-.039.326.007.074.182-.23.234-.134.077-.137.04.067.33.141-.017.152.018.302.124.003.197-.298.136-.152.023-.142-.012-.057.333.137.035.136.071.236.226-.069.184-.327.02-.15-.033-.127-.063-.174.291.115.082.1.116.138.296-.13.147-.311-.1-.128-.085-.095-.104-.268.209.078.118.051.144.022.327-.175.09-.253-.205-.088-.126-.051-.132-.325.099.03.138-.004.154-.098.313-.195.022-.161-.284-.037-.15v-.141l-.337-.025-.022.14-.06.142-.204.257-.19-.05-.047-.324.02-.152.051-.133-.305-.145-.071.123-.107.111-.283.167-.158-.116.073-.32.073-.134.096-.106-.231-.245-.111.089-.14.065-.323.054-.106-.165.183-.273.118-.1.127-.064-.126-.313-.136.044-.153.01-.32-.067-.039-.193.269-.188.145-.051.142-.014-.004-.339-.142-.009-.147-.045-.273-.178.033-.194.319-.079.153.004.137.038.118-.317-.129-.06-.12-.095-.19-.265.101-.169.325.041.141.06.113.085.225-.254-.098-.102-.077-.132-.081-.317.155-.121.287.155.11.107.074.12.301-.156-.055-.13-.023-.152.039-.325.188-.057.21.249.064.14.026.139.336-.038-.004-.142.033-.15.154-.29.196.015.106.309.009.153-.026.14.326.086.048-.134.085-.129.247-.215.177.084-.012.327-.048.147-.075.12z" style="fill:purple;stroke:purple;stroke-width:.264583"/><ellipse cx="-136.964" cy="321.878" rx="1.759" ry="1.749" style="fill:#fff;stroke:#fff;stroke-width:.264583" transform="rotate(-43.26)skewY(-.005)"/><path d="m122.22 333.898.093-.108.125-.09.309-.111.134.143-.13.3-.098.12-.113.086.182.285.125-.068.149-.039.327.007.073.182-.23.235-.133.076-.137.04.067.331.14-.018.153.018.302.125.003.196-.298.136-.152.024-.142-.013-.057.334.137.034.136.072.235.225-.068.185-.327.019-.15-.033-.127-.063-.174.291.115.082.1.116.138.296-.13.148-.311-.1-.128-.085-.095-.105-.268.21.078.117.051.145.022.326-.175.091-.253-.206-.088-.125-.051-.132-.325.098.03.139-.004.153-.098.313-.195.022-.161-.284-.037-.149v-.142l-.337-.025-.022.14-.06.143-.204.256-.19-.05-.047-.323.02-.153.051-.132-.305-.145-.071.123-.107.11-.283.167-.158-.115.072-.32.074-.135.096-.105-.231-.246-.111.09-.14.065-.323.053-.106-.165.183-.272.118-.1.127-.064-.126-.313-.136.043-.153.01-.32-.067-.039-.192.269-.189.145-.05.142-.015-.004-.338-.142-.01-.147-.045-.273-.178.033-.194.319-.079.153.004.137.039.118-.318-.129-.059-.12-.095-.19-.266.101-.169.325.042.141.06.113.085.225-.255-.099-.101-.076-.133-.081-.317.155-.12.287.155.11.107.074.12.301-.156-.055-.13-.023-.152.039-.326.188-.057.21.25.064.139.026.14.336-.038-.004-.142.033-.15.154-.29.196.014.106.31.009.152-.027.14.327.087.048-.135.085-.128.247-.216.177.085-.012.327-.048.146-.075.121z" style="fill:purple;stroke:purple;stroke-width:.264583"/><ellipse cx="-141.992" cy="327.144" rx="1.759" ry="1.749" style="fill:#fff;stroke:#fff;stroke-width:.264583" transform="rotate(-43.26)skewY(-.005)"/><path d="m114.604 336.037.093-.108.125-.09.308-.112.135.143-.13.301-.098.12-.113.086.182.284.125-.068.149-.038.327.007.073.182-.23.234-.133.077-.137.04.067.33.14-.017.153.018.302.124.003.197-.298.136-.152.023-.142-.013-.058.334.138.034.136.072.235.226-.068.184-.327.02-.15-.034-.127-.062-.175.29.116.083.1.116.138.296-.13.147-.311-.1-.128-.085-.095-.104-.268.209.078.118.051.144.022.327-.175.09-.253-.205-.088-.126-.051-.132-.325.099.03.138-.004.154-.098.313-.195.021-.161-.284-.037-.149v-.142l-.337-.024-.022.14-.06.142-.204.257-.19-.05-.047-.324.02-.152.051-.133-.305-.145-.071.123-.107.111-.283.167-.158-.116.072-.32.074-.135.096-.105-.231-.246-.111.09-.14.065-.323.053-.106-.165.183-.272.118-.1.127-.064-.126-.313-.136.043-.153.01-.32-.067-.039-.192.269-.188.145-.051.142-.015-.004-.338-.142-.009-.147-.045-.273-.179.033-.193.318-.08.154.005.137.038.118-.318-.13-.059-.119-.095-.19-.265.101-.17.325.042.14.06.114.085.225-.254-.099-.102-.077-.133-.08-.316.155-.121.287.155.11.107.074.12.301-.156-.055-.13-.024-.152.04-.325.188-.058.21.25.064.14.026.139.336-.038-.004-.142.033-.15.154-.29.196.014.106.31.009.153-.027.14.327.086.048-.134.084-.129.248-.215.177.084-.013.327-.047.147-.075.12z" style="fill:purple;stroke:purple;stroke-width:.264583"/><ellipse cx="-149.004" cy="323.481" rx="1.759" ry="1.749" style="fill:#fff;stroke:#fff;stroke-width:.264583" transform="rotate(-43.26)skewY(-.005)"/><path d="m110.695 330.075.093-.108.126-.09.308-.111.134.142-.13.302-.097.12-.114.085.182.284.125-.067.15-.039.327.007.073.182-.23.234-.134.077-.136.04.066.331.141-.018.153.018.302.125.003.196-.299.136-.152.024-.141-.013-.058.334.138.034.135.072.236.225-.069.185-.327.019-.15-.033-.127-.063-.174.291.116.082.1.116.138.296-.13.148-.312-.1-.128-.085-.095-.105-.267.21.078.117.05.145.022.326-.175.091-.253-.206-.088-.125-.05-.132-.325.098.03.139-.004.153-.098.313-.196.022-.161-.284-.037-.149v-.142l-.337-.025-.022.14-.06.142-.204.257-.19-.05-.047-.323.02-.153.051-.132-.305-.145-.07.123-.108.11-.283.167-.158-.115.073-.32.073-.135.096-.105-.231-.246-.111.09-.14.065-.323.053-.106-.165.184-.272.117-.1.127-.064-.126-.313-.136.043-.153.01-.32-.067-.039-.192.27-.189.144-.05.142-.015-.004-.338-.142-.01-.146-.045-.274-.178.034-.194.318-.079.153.004.137.039.118-.318-.129-.059-.12-.096-.19-.265.102-.169.324.041.141.06.114.085.224-.254-.098-.101-.077-.133-.081-.317.155-.12.287.155.11.107.074.12.301-.156-.054-.13-.024-.153.039-.325.188-.057.21.25.064.139.026.14.337-.038-.004-.142.033-.15.153-.29.196.014.106.309.01.153-.027.14.327.086.047-.134.085-.128.248-.216.177.085-.013.327-.048.146-.075.121z" style="fill:purple;stroke:purple;stroke-width:.264583"/><ellipse cx="-147.765" cy="316.461" rx="1.759" ry="1.749" style="fill:#fff;stroke:#fff;stroke-width:.264583" transform="rotate(-43.26)skewY(-.005)"/><path d="m117.49 329.968.122-.142.164-.118.405-.146.176.187-.171.395-.127.156-.15.113.24.373.163-.089.196-.05.429.009.096.238-.302.307-.175.1-.179.053.087.434.185-.023.2.023.396.163.004.258-.391.178-.2.031-.185-.017-.076.438.18.045.178.094.31.295-.09.242-.43.025-.196-.043-.166-.082-.229.382.152.107.131.152.18.388-.17.193-.408-.13-.167-.112-.125-.137-.351.274.102.155.067.189.028.428-.229.119-.332-.27-.115-.164-.067-.174-.425.13.039.181-.005.202-.129.41-.256.028-.211-.372-.048-.195v-.186l-.442-.033-.03.184-.077.186-.268.337-.249-.066-.062-.424.026-.2.067-.174-.4-.19-.093.162-.14.145-.37.218-.208-.151.095-.419.096-.177.126-.138-.303-.322-.146.117-.183.085-.423.07-.139-.216.24-.357.154-.13.167-.085-.166-.41-.177.057-.201.013-.42-.088-.05-.252.352-.247.19-.067.186-.019-.005-.443-.186-.012-.192-.06-.359-.233.044-.254.417-.104.202.005.179.05.155-.416-.17-.077-.156-.126-.25-.347.133-.222.426.054.185.079.148.111.295-.333-.13-.133-.1-.174-.106-.415.203-.159.376.204.144.14.098.158.395-.205-.072-.171-.031-.2.05-.425.248-.075.276.326.083.183.034.183.441-.05-.005-.185.043-.197.202-.38.257.019.139.405.011.2-.034.184.428.113.063-.176.11-.168.326-.283.232.11-.017.43-.062.192-.099.158z" style="fill:#d45500;stroke:#d45500;stroke-width:.264584"/><ellipse cx="-143.427" cy="321.115" rx="2.306" ry="2.293" style="fill:#fff;stroke:#fff;stroke-width:.264584" transform="rotate(-43.26)skewY(-.003)"/><path d="M21.299 351.234h21.167v21.167H21.299z" style="fill:none;stroke:#e6e6e6;stroke-width:.264583"/><path d="m25.04 352.664 14.412-.096-.74 3.816-6.655-.364 1.424 10.465s-1.72 3.234-3.664 3.779c-2.01.563-4.638-.045-6.275-1.088-.943-.601-1.41-2.577-1.41-2.577l2.499-1.568s1.225 2.473 2.69 2.689c1.205.178 3.163-1.419 3.163-1.419L28.47 355.9l-4.108-.396z" style="fill:#00f;fill-opacity:1;stroke:#00f;stroke-width:.264999;stroke-opacity:1"/><path d="M40.866 358.604s-2.668-2.44-4.302-2.367c-1.227.055-2.705.88-3.058 2.058-.49 1.643 1.118 3.266 1.987 4.744.58.988 1.81 1.6 2.125 2.703.137.48.176 1.123-.163 1.49-.716.773-2.096.875-3.105.575-.761-.226-1.728-1.643-1.728-1.643l-.998 1.479s.856 1.746 1.661 2.17c.948.498 2.151.33 3.208.16.914-.149 1.97-.32 2.59-1.009.763-.848 1.104-2.18.904-3.304-.243-1.373-1.606-2.276-2.422-3.405-.655-.905-1.978-1.584-1.985-2.703-.006-.774.58-1.799 1.347-1.889 1.256-.148 2.863 2.496 2.863 2.496z" style="opacity:.8;fill:#f60;stroke:#f60;stroke-width:.264999"/></svg>