<svg xmlns="http://www.w3.org/2000/svg" width="241.28" height="154.391" viewBox="0 0 63.839 40.849"><defs><path id="g" d="M109.167 1529.859h244.557v45.945H109.167z"/><path id="b" d="M113.207 1351.574h28.683v26.102h-28.683z"/><path id="a" d="M82.392 1407.374h30.069v26.631H82.392z"/><path id="f" d="M283.293 906.083h19.63v17.138h-19.63z"/><marker id="c" markerHeight="1" markerWidth="1" orient="auto-start-reverse" preserveAspectRatio="xMidYMid" refX="0" refY="0" style="overflow:visible" viewBox="0 0 1 1"><path d="m0 0 5-5-17.5 5L5 5Z" style="fill:context-stroke;fill-rule:evenodd;stroke:none" transform="scale(-0.5)"/></marker><marker id="d" markerHeight="1" markerWidth="1" orient="auto-start-reverse" preserveAspectRatio="xMidYMid" refX="0" refY="0" style="overflow:visible" viewBox="0 0 1 1"><path d="m0 0 5-5-17.5 5L5 5Z" style="fill:context-stroke;fill-rule:evenodd;stroke:none" transform="scale(-0.5)"/></marker><marker id="e" markerHeight="1" markerWidth="1" orient="auto-start-reverse" preserveAspectRatio="xMidYMid" refX="0" refY="0" style="overflow:visible" viewBox="0 0 1 1"><path d="m0 0 5-5-17.5 5L5 5Z" style="fill:context-stroke;fill-rule:evenodd;stroke:none" transform="scale(-0.5)"/></marker></defs><path d="M26.602 359.234h63.574v40.585H26.602z" style="fill:#fff;fill-opacity:1;stroke:#fff;stroke-width:.264583;stroke-dasharray:none;stroke-dashoffset:0;stroke-opacity:1" transform="translate(-26.469839,-359.10211)"/><path d="M47.32 365.032h35.178v22.682H47.32z" style="fill:#ccc;stroke:#000;stroke-width:.264582;stroke-dasharray:none;stroke-dashoffset:0" transform="translate(-26.469839,-359.10211)"/><path d="M38.035 370.391h13.679v12.125H38.035z" style="fill:#333;fill-opacity:.5;stroke:#000;stroke-width:.79375;stroke-dasharray:none;stroke-dashoffset:0;stroke-opacity:1" transform="translate(-26.469839,-359.10211)"/><text xml:space="preserve" style="font-size:14.6667px;line-height:1.25;font-family:sans-serif;white-space:pre;shape-inside:url(#a)" transform="translate(-26.469839,-359.10211) matrix(0.26458333,0,0,0.26458333,11.176765,1.8204652)"><tspan x="82.393" y="1420.35">B</tspan></text><text xml:space="preserve" style="font-size:14.6667px;line-height:1.25;font-family:sans-serif;white-space:pre;shape-inside:url(#b)" transform="translate(-26.469839,-359.10211) matrix(0.26458333,0,0,0.26458333,13.903211,7.2195326)"><tspan x="113.207" y="1364.551">A</tspan></text><path d="M38.942 368.804h11.843" style="fill:none;stroke:#000;stroke-width:.264583;stroke-linecap:butt;stroke-linejoin:miter;stroke-opacity:1;marker-start:url(#c);marker-end:url(#c)" transform="translate(-26.469839,-359.10211)"/><path d="M35.923 381.428v-9.766" style="fill:none;stroke:#000;stroke-width:.264583;stroke-linecap:butt;stroke-linejoin:miter;stroke-opacity:1;marker-start:url(#d);marker-end:url(#d)" transform="translate(-26.469839,-359.10211)"/><path d="M39.207 384.647h6.645" style="fill:none;stroke:#000;stroke-width:.264583;stroke-linecap:butt;stroke-linejoin:miter;stroke-opacity:1;marker-start:url(#e);marker-end:url(#e)" transform="translate(-26.469839,-359.10211)"/><text xml:space="preserve" style="font-size:14.6667px;line-height:1.25;font-family:sans-serif;white-space:pre;shape-inside:url(#f);display:inline" transform="translate(-26.469839,-359.10211) matrix(0.26458333,0,0,0.26458333,-33.367008,144.52747)"><tspan x="283.293" y="919.059">x</tspan></text><text xml:space="preserve" style="font-size:14.6667px;line-height:1.25;font-family:sans-serif;white-space:pre;shape-inside:url(#g)" transform="translate(-26.469839,-359.10211) matrix(0.26458333,0,0,0.26458333,-0.91612093,-10.092844)"><tspan x="109.166" y="1542.836">top view of air gap and shuttle</tspan></text></svg>