<svg xmlns="http://www.w3.org/2000/svg" xml:space="preserve" width="318.118" height="334.623" viewBox="0 0 84.169 88.536"><defs><path id="h" d="M118.779 6116.799h201.768v50.593H118.779z"/><path id="f" d="M96.89 6139.343h180.732v35.542H96.89z"/><path id="e" d="M110.615 6122.155h306.717v51.138H110.615z"/><path id="d" d="M410.215 6071.042h189.449v35.724H410.215z"/><path id="c" d="M416.675 6024.258h138.812v37.593H416.675z"/><path id="b" d="M424.864 5953.347h145.4v36.228h-145.4z"/><path id="a" d="M428.296 5885.959h141.49v25.827h-141.49z"/><path id="g" d="M96.89 6139.343h180.732v35.542H96.89z"/></defs><g transform="translate(-14.885 -1523.18)"><path d="M15.018 1523.313h83.904v88.271H15.018z" style="fill:#fff;stroke:#fff;stroke-width:.264583;stroke-linejoin:bevel"/><path d="M30.645 1562.12h3.363s-.273-3.311 0-4.93c.153-.909.31-1.917.904-2.604.634-.733 1.61-1.324 2.56-1.295.737.022 1.442.55 1.93 1.124.545.642.77 1.54.927 2.38.308 1.644 0 5.024 0 5.024h3.18s.913-8.382 0-12.408c-.251-1.11-.631-2.323-1.468-3.062-.812-.717-2.001-.82-3.056-.985a11.1 11.1 0 0 0-3.383 0c-1.075.163-2.248.302-3.122.97-.943.72-1.624 1.858-1.96 3.02-1.177 4.077.125 12.766.125 12.766z" style="fill:#999;stroke:#000;stroke-width:.264583px;stroke-linecap:butt;stroke-linejoin:miter;stroke-opacity:1"/><path d="M17.37 1530.007h39.423v39.423H17.37z" style="fill:none;stroke:#999;stroke-width:.264583;stroke-linejoin:bevel"/><path d="M56.793 1530.007h39.423v39.423H56.793zM17.37 1569.43h39.423v39.423H17.37z" style="fill:none;stroke:#999;stroke-width:.264583;stroke-linejoin:bevel"/><path d="M56.793 1569.43h39.423v39.423H56.793z" style="fill:none;stroke:#999;stroke-width:.264583;stroke-linejoin:bevel"/><text xml:space="preserve" style="font-style:normal;font-variant:normal;font-weight:400;font-stretch:normal;font-size:14.6667px;line-height:1.25;font-family:&quot;Liberation Sans&quot;;-inkscape-font-specification:&quot;Liberation Sans&quot;;font-variant-ligatures:normal;font-variant-position:normal;font-variant-caps:normal;font-variant-numeric:normal;font-variant-alternates:normal;font-variant-east-asian:normal;font-feature-settings:normal;font-variation-settings:normal;text-indent:0;text-align:start;text-decoration-line:none;text-decoration-style:solid;text-decoration-color:#000;letter-spacing:normal;word-spacing:normal;text-transform:none;writing-mode:lr-tb;direction:ltr;text-orientation:mixed;dominant-baseline:auto;baseline-shift:baseline;white-space:pre;shape-inside:url(#a);shape-padding:0;shape-margin:0;inline-size:0;display:inline;opacity:1;vector-effect:none;fill:#000;fill-opacity:1;stroke-width:1;stroke-linecap:butt;stroke-linejoin:miter;stroke-miterlimit:4;stroke-dasharray:none;stroke-dashoffset:0;stroke-opacity:1;-inkscape-stroke:none;stop-color:#000;stop-opacity:1" transform="translate(-92.665 -26.427)scale(.26458)"><tspan x="428.297" y="5899.17">figure with one face</tspan></text><text xml:space="preserve" style="font-style:normal;font-variant:normal;font-weight:400;font-stretch:normal;font-size:14.6667px;line-height:1.25;font-family:&quot;Liberation Sans&quot;;-inkscape-font-specification:&quot;Liberation Sans&quot;;font-variant-ligatures:normal;font-variant-position:normal;font-variant-caps:normal;font-variant-numeric:normal;font-variant-alternates:normal;font-variant-east-asian:normal;font-feature-settings:normal;font-variation-settings:normal;text-indent:0;text-align:start;text-decoration-line:none;text-decoration-style:solid;text-decoration-color:#000;letter-spacing:normal;word-spacing:normal;text-transform:none;writing-mode:lr-tb;direction:ltr;text-orientation:mixed;dominant-baseline:auto;baseline-shift:baseline;white-space:pre;shape-inside:url(#b);shape-padding:0;shape-margin:0;inline-size:0;display:inline;opacity:1;vector-effect:none;fill:#000;fill-opacity:1;stroke-width:1;stroke-linecap:butt;stroke-linejoin:miter;stroke-miterlimit:4;stroke-dasharray:none;stroke-dashoffset:0;stroke-opacity:1;-inkscape-stroke:none;stop-color:#000;stop-opacity:1" transform="translate(-91.882 -5.318)scale(.26458)"><tspan x="424.865" y="5966.559">one face with holes</tspan></text><text xml:space="preserve" style="font-style:normal;font-variant:normal;font-weight:400;font-stretch:normal;font-size:14.6667px;line-height:1.25;font-family:&quot;Liberation Sans&quot;;-inkscape-font-specification:&quot;Liberation Sans&quot;;font-variant-ligatures:normal;font-variant-position:normal;font-variant-caps:normal;font-variant-numeric:normal;font-variant-alternates:normal;font-variant-east-asian:normal;font-feature-settings:normal;font-variation-settings:normal;text-indent:0;text-align:start;text-decoration-line:none;text-decoration-style:solid;text-decoration-color:#000;letter-spacing:normal;word-spacing:normal;text-transform:none;writing-mode:lr-tb;direction:ltr;text-orientation:mixed;dominant-baseline:auto;baseline-shift:baseline;white-space:pre;shape-inside:url(#c);shape-padding:0;shape-margin:0;inline-size:0;display:inline;opacity:1;vector-effect:none;fill:#000;fill-opacity:1;stroke-width:1;stroke-linecap:butt;stroke-linejoin:miter;stroke-miterlimit:4;stroke-dasharray:none;stroke-dashoffset:0;stroke-opacity:1;-inkscape-stroke:none;stop-color:#000;stop-opacity:1" transform="translate(-51.952 -63.142)scale(.26458)"><tspan x="416.674" y="6037.469">figure with two faces</tspan></text><text xml:space="preserve" style="font-style:normal;font-variant:normal;font-weight:400;font-stretch:normal;font-size:14.6667px;line-height:1.25;font-family:&quot;Liberation Sans&quot;;-inkscape-font-specification:&quot;Liberation Sans&quot;;font-variant-ligatures:normal;font-variant-position:normal;font-variant-caps:normal;font-variant-numeric:normal;font-variant-alternates:normal;font-variant-east-asian:normal;font-feature-settings:normal;font-variation-settings:normal;text-indent:0;text-align:start;text-decoration-line:none;text-decoration-style:solid;text-decoration-color:#000;letter-spacing:normal;word-spacing:normal;text-transform:none;writing-mode:lr-tb;direction:ltr;text-orientation:mixed;dominant-baseline:auto;baseline-shift:baseline;white-space:pre;shape-inside:url(#d);shape-padding:0;shape-margin:0;inline-size:0;display:inline;opacity:1;vector-effect:none;fill:#000;fill-opacity:1;stroke-width:1;stroke-linecap:butt;stroke-linejoin:miter;stroke-miterlimit:4;stroke-dasharray:none;stroke-dashoffset:0;stroke-opacity:1;-inkscape-stroke:none;stop-color:#000;stop-opacity:1" transform="translate(-49.834 -35.553)scale(.26458)"><tspan x="410.215" y="6084.254">two faces with holes</tspan></text><path d="M61.306 1565.583h3.362s-.272-3.311 0-4.93c.153-.909.31-1.918.905-2.605.634-.732 1.61-1.323 2.56-1.295.737.022 1.442.55 1.929 1.124.545.643.77 1.54.928 2.38.308 1.645 0 5.025 0 5.025h3.18s.912-8.382 0-12.409c-.252-1.11-.631-2.322-1.469-3.061-.812-.717-2-.82-3.055-.985a11.1 11.1 0 0 0-3.383 0c-1.075.163-2.248.302-3.123.97-.942.72-1.623 1.858-1.959 3.02-1.177 4.077.125 12.765.125 12.765zM79.556 1558.2h3.362s-.272-3.312 0-4.93c.153-.91.31-1.918.905-2.605.634-.732 1.61-1.323 2.56-1.295.737.022 1.441.55 1.929 1.124.545.643.77 1.54.928 2.38.308 1.644 0 5.024 0 5.024h3.18s.912-8.381 0-12.408c-.252-1.11-.632-2.322-1.469-3.062-.812-.716-2.001-.819-3.056-.985a11.1 11.1 0 0 0-3.383 0c-1.075.164-2.247.302-3.122.97-.942.72-1.623 1.859-1.959 3.02-1.178 4.078.125 12.766.125 12.766zM29.146 1601.866h3.362s-.272-3.311 0-4.93c.153-.909.31-1.917.905-2.604.634-.733 1.61-1.324 2.56-1.295.737.022 1.442.55 1.929 1.124.545.642.77 1.54.928 2.38.308 1.644 0 5.024 0 5.024h3.18s.912-8.382 0-12.409c-.252-1.109-.631-2.322-1.469-3.061-.812-.717-2-.82-3.055-.985a11.1 11.1 0 0 0-3.383 0c-1.075.163-2.248.302-3.123.97-.942.72-1.623 1.858-1.959 3.02-1.177 4.077.125 12.766.125 12.766z" style="fill:#999;stroke:#000;stroke-width:.264583px;stroke-linecap:butt;stroke-linejoin:miter;stroke-opacity:1"/><ellipse cx="35.325" cy="1588.644" rx="2.173" ry="2.179" style="fill:#fff;stroke:#1a1a1a;stroke-width:.264583;stroke-linejoin:bevel"/><path d="M29.813 1590.479h2.501v3.12h-2.501zM38.506 1590.021h2.501v3.12h-2.501z" style="fill:#fff;stroke:#1a1a1a;stroke-width:.264583;stroke-linejoin:bevel"/><path d="M59.12 1604.554h3.362s-.273-3.31 0-4.93c.153-.908.31-1.917.904-2.604.634-.732 1.61-1.323 2.56-1.295.738.022 1.442.55 1.93 1.124.545.643.77 1.54.927 2.38.309 1.644 0 5.024 0 5.024h3.18s.913-8.381 0-12.408c-.251-1.11-.63-2.323-1.468-3.062-.812-.716-2.001-.819-3.056-.985a11.1 11.1 0 0 0-3.383 0c-1.075.164-2.248.302-3.122.97-.943.72-1.624 1.859-1.96 3.02-1.177 4.078.125 12.766.125 12.766z" style="fill:#999;stroke:#000;stroke-width:.264583px;stroke-linecap:butt;stroke-linejoin:miter;stroke-opacity:1"/><ellipse cx="65.299" cy="1591.332" rx="2.173" ry="2.179" style="fill:#fff;stroke:#1a1a1a;stroke-width:.264583;stroke-linejoin:bevel"/><path d="M59.787 1593.168h2.501v3.12h-2.501zM68.48 1592.709h2.501v3.12H68.48z" style="fill:#fff;stroke:#1a1a1a;stroke-width:.264583;stroke-linejoin:bevel"/><path d="M76.795 1598.333h3.363s-.273-3.311 0-4.93c.153-.909.31-1.917.904-2.604.634-.733 1.61-1.324 2.56-1.295.738.022 1.442.55 1.93 1.124.545.642.77 1.54.927 2.38.309 1.644 0 5.024 0 5.024h3.18s.913-8.382 0-12.408c-.251-1.11-.63-2.323-1.468-3.062-.812-.717-2.001-.82-3.056-.985a11.1 11.1 0 0 0-3.383 0c-1.075.163-2.248.302-3.122.97-.943.72-1.624 1.858-1.96 3.02-1.177 4.077.125 12.766.125 12.766z" style="fill:#999;stroke:#000;stroke-width:.264583px;stroke-linecap:butt;stroke-linejoin:miter;stroke-opacity:1"/><ellipse cx="82.975" cy="1585.111" rx="2.173" ry="2.179" style="fill:#fff;stroke:#1a1a1a;stroke-width:.264583;stroke-linejoin:bevel"/><path d="M77.463 1586.946h2.501v3.12h-2.501zM86.156 1586.487h2.501v3.12h-2.501z" style="fill:#fff;stroke:#1a1a1a;stroke-width:.264583;stroke-linejoin:bevel"/><text xml:space="preserve" style="font-style:normal;font-variant:normal;font-weight:400;font-stretch:normal;font-size:14.6667px;line-height:1.25;font-family:&quot;Liberation Sans&quot;;-inkscape-font-specification:&quot;Liberation Sans&quot;;font-variant-ligatures:normal;font-variant-position:normal;font-variant-caps:normal;font-variant-numeric:normal;font-variant-alternates:normal;font-variant-east-asian:normal;font-feature-settings:normal;font-variation-settings:normal;text-indent:0;text-align:start;text-decoration-line:none;text-decoration-style:solid;text-decoration-color:#000;letter-spacing:normal;word-spacing:normal;text-transform:none;writing-mode:lr-tb;direction:ltr;text-orientation:mixed;dominant-baseline:auto;baseline-shift:baseline;white-space:pre;shape-inside:url(#e);shape-padding:0;shape-margin:0;inline-size:0;display:inline;opacity:1;vector-effect:none;fill:#000;fill-opacity:1;stroke-width:1;stroke-linecap:butt;stroke-linejoin:miter;stroke-miterlimit:4;stroke-dasharray:none;stroke-dashoffset:0;stroke-opacity:1;-inkscape-stroke:none;stop-color:#000;stop-opacity:1" transform="translate(1.742 -95.901)scale(.26458)"><tspan x="110.615" y="6135.365">types of contour arrangements</tspan></text><text xml:space="preserve" style="font-style:normal;font-variant:normal;font-weight:400;font-stretch:normal;font-size:14.6667px;line-height:normal;font-family:&quot;Liberation Sans&quot;;-inkscape-font-specification:&quot;Liberation Sans&quot;;font-variant-ligatures:normal;font-variant-position:normal;font-variant-caps:normal;font-variant-numeric:normal;font-variant-alternates:normal;font-variant-east-asian:normal;font-feature-settings:normal;text-indent:0;text-align:start;text-decoration-line:none;text-decoration-style:solid;text-decoration-color:#000;letter-spacing:normal;word-spacing:normal;text-transform:none;writing-mode:lr-tb;direction:ltr;text-orientation:mixed;dominant-baseline:auto;baseline-shift:baseline;white-space:pre;shape-inside:url(#f);shape-padding:0;shape-margin:0;inline-size:0;display:inline;opacity:1;vector-effect:none;fill:#000;fill-opacity:1;stroke:none;stroke-width:1;stroke-linecap:butt;stroke-linejoin:miter;stroke-miterlimit:4;stroke-dasharray:none;stroke-dashoffset:0;stroke-opacity:1;-inkscape-stroke:none;stop-color:#000;stop-opacity:1" transform="translate(-4.761 -88.172)scale(.26458)"><tspan x="96.889" y="6152.555">(one outer contour)</tspan></text><text xml:space="preserve" style="font-style:normal;font-variant:normal;font-weight:400;font-stretch:normal;font-size:14.6667px;line-height:normal;font-family:&quot;Liberation Sans&quot;;-inkscape-font-specification:&quot;Liberation Sans&quot;;font-variant-ligatures:normal;font-variant-position:normal;font-variant-caps:normal;font-variant-numeric:normal;font-variant-alternates:normal;font-variant-east-asian:normal;font-feature-settings:normal;text-indent:0;text-align:start;text-decoration-line:none;text-decoration-style:solid;text-decoration-color:#000;letter-spacing:normal;word-spacing:normal;text-transform:none;writing-mode:lr-tb;direction:ltr;text-orientation:mixed;dominant-baseline:auto;baseline-shift:baseline;white-space:pre;shape-inside:url(#g);shape-padding:0;shape-margin:0;inline-size:0;display:inline;vector-effect:none;fill:#000;fill-opacity:1;stroke:none;stroke-width:1;stroke-linecap:butt;stroke-linejoin:miter;stroke-miterlimit:4;stroke-dasharray:none;stroke-dashoffset:0;stroke-opacity:1;-inkscape-stroke:none;stop-color:#000" transform="translate(33.989 -88.948)scale(.26458)"><tspan x="96.889" y="6152.555">(two outer contours)</tspan></text><text xml:space="preserve" style="font-style:normal;font-variant:normal;font-weight:400;font-stretch:normal;font-size:14.6667px;line-height:normal;font-family:&quot;Liberation Sans&quot;;-inkscape-font-specification:&quot;Liberation Sans&quot;;font-variant-ligatures:normal;font-variant-position:normal;font-variant-caps:normal;font-variant-numeric:normal;font-variant-alternates:normal;font-variant-east-asian:normal;font-feature-settings:normal;text-indent:0;text-align:start;text-decoration-line:none;text-decoration-style:solid;text-decoration-color:#000;letter-spacing:normal;word-spacing:normal;text-transform:none;writing-mode:lr-tb;direction:ltr;text-orientation:mixed;dominant-baseline:auto;baseline-shift:baseline;white-space:pre;shape-inside:url(#h);shape-padding:0;shape-margin:0;inline-size:0;display:inline;opacity:1;vector-effect:none;fill:#000;fill-opacity:1;stroke:none;stroke-width:1;stroke-linecap:butt;stroke-linejoin:miter;stroke-miterlimit:4;stroke-dasharray:none;stroke-dashoffset:0;stroke-opacity:1;-inkscape-stroke:none;stop-color:#000;stop-opacity:1" transform="translate(-11.525 -43.772)scale(.26458)"><tspan x="118.779" y="6130.01">(one outer and 
</tspan><tspan x="118.779" y="6148.343">three inner contours)</tspan></text></g></svg>